<svg xmlns="http://www.w3.org/2000/svg" viewBox="0 0 512 512" width="48" height="48"><g transform="translate(16.05 -30.586)"><path d="M256-216.658c-16.954 0-38.002 4.192-58.693 15.945-20.822 11.827-40.908 32.163-50.975 61.881a116.1 116.1 0 0 0-6.49 38.33c0 43.935 24.688 82.346 61 102.045v161.926c-21.611 4.958-40.796 12.88-56.498 24.193-21.318 15.36-36.664 38.54-36.664 65.338 0 16.353 7.11 32.19 19.224 46.861 12.276 14.868 30.616 28.559 55.248 37.414l.07.026q.2.07.401.137c22.28 7.544 47.36 11.22 73.377 11.22 36.23 0 70.29-6.93 97.687-21.69C383.06 311.146 404.32 284.603 404.32 253c0-26.806-15.33-50.008-36.654-65.365-15.705-11.31-34.892-19.222-56.508-24.172V1.545c36.312-19.699 61-58.11 61-102.045 0-63.836-52.322-116.158-116.158-116.158m0 68.316c26.66 0 47.842 21.182 47.842 47.842S282.66-52.658 256-52.658 208.158-73.84 208.158-100.5c0-5.355.882-10.466 2.569-15.418 12.345-30.57 31.747-32.424 45.273-32.424m54.543 382.848c6.48 2.35 11.842 4.96 15.693 7.52 9.227 6.13 9.768 9.598 9.768 10.974 0 1.119-1.99 7.335-16.285 14.572-8.543 4.325-20.65 7.9-34.508 10.2.959-1.076 1.903-2.176 2.766-3.391l.101-.143 15.098-21.564a20.3 20.3 0 0 0 1.172-3.719l-1.168 3.711c3.81-5.445 6.294-11.661 7.363-18.16m-109.08.021c1.071 6.494 3.554 12.704 7.363 18.145h-.002l14.893 21.273c1.01 1.485 2.127 2.845 3.3 4.13-8.198-1.3-15.833-3.089-22.482-5.34l-.183-.063-.178-.059c-8.587-2.772-17.181-8.541-22.506-13.968-2.422-2.47-4.263-5.135-5.236-6.934-.076-.14-.032-.178-.09-.32.661-1.846 2.733-4.885 9.44-9.342 3.853-2.561 9.213-5.17 15.68-7.522" style="fill:#d0e87e;fill-opacity:1" transform="translate(11.652 227.728)scale(.8918)"/><path fill="#d2ea7b" d="M243.195 496.081c-58.04 0-93.202-13.36-93.202-44.628 0-15.633-.91-27.447 17.287-37.25 18.198-9.802 43.65-15.697 72.67-15.697 58.04 0 101.81 23.578 101.81 54.845 0 4.295-.827 8.444-2.402 12.408-9.892 24.891-46.095 30.322-96.163 30.322" style="fill:#c4e456;fill-opacity:1;stroke-width:.891791"/><path fill="#c4e456" d="M339.35 465.756c-9.881 24.89-49.334 42.44-99.4 42.44-58.037 0-101.806-23.579-101.806-54.845 0-15.642 10.95-29.349 29.161-39.159-1.578 3.96-2.408 8.116-2.408 12.405 0 31.267 43.77 54.845 101.807 54.845 29.01 0 54.453-5.894 72.646-15.686" style="stroke-width:.891791"/><path fill="#f8f7f7" d="M221.223 192.502h37.455v237.973c0 1.83-.563 3.615-1.612 5.114l-13.463 19.233c-1.775 2.536-5.53 2.536-7.305 0l-13.463-19.233a8.9 8.9 0 0 1-1.612-5.114l7.4-116.243z" style="stroke-width:.891791"/><path fill="#f5de46" d="M313.077 138.103c0 15.638-4.908 30.13-13.27 42.018-13.231 18.814-35.108 26.791-59.857 26.791-40.386 0-68.25-30.425-68.25-70.811 0-24.748 7.418-44.624 26.232-57.855 11.888-8.362 26.38-13.27 42.018-13.27 40.387 0 73.127 32.74 73.127 73.127" style="stroke-width:.891791"/><path d="M265.367 393.35V278.903c0-8.745-13.377-8.745-13.377 0v151.57c0 .46-.14.903-.403 1.28l-11.637 16.623-11.636-16.623a2.2 2.2 0 0 1-.403-1.279V217.011c3.928.597 7.948.907 12.04.907s8.111-.31 12.039-.907v64.376c0 8.746 13.377 8.746 13.377 0v-67.618c31.587-10.639 54.399-40.538 54.399-75.666 0-44.011-35.805-79.816-79.816-79.816-21.837 0-61.324 11.863-75.321 53.35-2.872 10.38 6.544 10.722 12.62 4.435 14.604-36.89 44.524-44.408 62.701-44.408 36.635 0 66.439 29.804 66.439 66.439s-29.804 66.438-66.439 66.438-66.438-29.803-66.438-66.438a66.3 66.3 0 0 1 3.738-22.031c2.898-8.251-9.721-12.685-12.621-4.434a79.6 79.6 0 0 0-4.494 26.464c0 35.128 22.812 65.028 54.4 75.666v179.58c-49.922 6.16-83.082 29.906-83.082 60.003 0 13.772 14.314 39.71 50.684 52.784 8.923 3.727 13.03-9.848 4.29-12.67-23.832-7.695-41.597-28.085-41.597-40.114 0-22.341 28.342-40.997 69.704-46.505v23.629c0 3.218.976 6.313 2.822 8.95l13.463 19.233c3.625 5.33 13.398 6.853 18.263 0l13.464-19.233a15.54 15.54 0 0 0 2.82-8.95v-23.633c41.398 5.504 69.705 24.115 69.705 46.509 0 27.003-41.782 48.157-95.12 48.157-19.48 0-37.988-2.78-53.524-8.042-8.282-2.809-12.575 9.866-4.29 12.67 16.9 5.723 36.892 8.749 57.813 8.749 29.16 0 56.093-5.86 75.842-16.498 21.058-11.345 32.656-27.338 32.656-45.036 0-30.155-33.128-53.848-83.081-60.001" style="fill:#78921a;fill-opacity:1;stroke-width:.891791"/><ellipse cx="239.95" cy="137.546" rx="37.191" ry="38.81" style="fill:#e6ca0d;fill-opacity:1;stroke:#b09a0a;stroke-width:12.2647;stroke-linecap:round;stroke-linejoin:round;stroke-opacity:1"/></g></svg>
