<?xml version="1.0" encoding="UTF-8" standalone="no"?>
<svg
   id="Capa_1"
   enable-background="new 0 0 512 512"
   height="512"
   viewBox="0 0 512 512"
   width="512"
   version="1.1"
   sodipodi:docname="spot.svg"
   inkscape:version="1.4.3 (0d15f75042, 2025-12-25)"
   xmlns:inkscape="http://www.inkscape.org/namespaces/inkscape"
   xmlns:sodipodi="http://sodipodi.sourceforge.net/DTD/sodipodi-0.dtd"
   xmlns="http://www.w3.org/2000/svg"
   xmlns:svg="http://www.w3.org/2000/svg">
  <defs
     id="defs9" />
  <sodipodi:namedview
     id="namedview9"
     pagecolor="#ffffff"
     bordercolor="#000000"
     borderopacity="0.25"
     inkscape:showpageshadow="2"
     inkscape:pageopacity="0.0"
     inkscape:pagecheckerboard="0"
     inkscape:deskcolor="#d1d1d1"
     inkscape:zoom="1.6020388"
     inkscape:cx="193.81553"
     inkscape:cy="282.14048"
     inkscape:window-width="2560"
     inkscape:window-height="1375"
     inkscape:window-x="2240"
     inkscape:window-y="0"
     inkscape:window-maximized="1"
     inkscape:current-layer="Capa_1" />
  <g
     id="g9"
     transform="translate(16.049521,-30.586028)">
    <path
       id="path7-6"
       style="fill:#d0e87e;fill-opacity:1"
       sodipodi:type="inkscape:offset"
       inkscape:radius="20.28532"
       inkscape:original="M 256 -196.37305 C 242.60263 -196.37305 224.53612 -192.84978 207.32617 -183.07422 C 190.12373 -173.30292 173.88624 -157.03256 165.51367 -132.24414 C 161.94092 -122.05963 160.12695 -111.36765 160.12695 -100.50195 C 160.12695 -59.987772 185.45094 -25.262464 221.12695 -11.269531 L 221.12695 180.2207 C 194.79415 184.15743 172.51023 192.37071 156.20117 204.12109 C 138.73867 216.70251 127.96484 233.78524 127.96484 253 C 127.96484 262.92938 132.68133 274.99682 142.54688 286.94531 C 152.41242 298.8938 167.61267 310.4911 189.01562 318.18555 A 6.372996 6.372996 0 0 0 189.12891 318.22461 C 208.8806 324.91343 231.92566 328.37305 256 328.37305 C 289.55062 328.37305 320.65156 321.72347 344.06641 309.10938 C 369.02096 295.66564 384.03516 275.62882 384.03516 253 C 384.03516 233.7595 373.27075 216.67052 355.81055 204.0957 C 339.50318 192.35117 317.2196 184.15239 290.87305 180.2207 L 290.87305 60.169922 L 290.87305 57.384766 L 290.87305 -11.267578 C 326.54906 -25.260511 351.87305 -59.985816 351.87305 -100.5 C 351.87305 -153.30711 308.80711 -196.37305 256 -196.37305 z M 256 -168.62695 C 293.62391 -168.62695 324.12695 -138.12391 324.12695 -100.5 C 324.12695 -62.876089 293.62391 -32.373047 256 -32.373047 C 218.37609 -32.373047 187.87305 -62.876089 187.87305 -100.5 C 187.87305 -108.23554 189.15732 -115.78728 191.67773 -122.99609 C 207.08442 -161.73909 237.39757 -168.62695 256 -168.62695 z M 248.87305 -4.8984375 C 251.22751 -4.7240696 253.60307 -4.6269531 256 -4.6269531 C 258.39693 -4.6269531 260.77249 -4.7240696 263.12695 -4.8984375 L 263.12695 57.384766 L 263.12695 60.169922 L 263.12695 192.52344 L 263.12695 192.5293 L 263.12695 226.12891 L 256 236.31055 L 248.87305 226.12891 L 248.87305 -4.8984375 z M 290.87305 208.45703 C 310.05259 211.80557 326.25008 217.67888 337.46289 225.12891 C 350.08901 233.51797 356.28906 243.12954 356.28906 253 C 356.28906 264.85336 346.87999 276.55746 328.88086 285.66992 C 310.88173 294.78238 285.0626 300.62695 256 300.62695 C 234.76334 300.62695 214.63795 297.57281 198.02734 291.94727 A 6.372996 6.372996 0 0 0 197.94141 291.91797 C 185.70531 287.96695 174.80458 280.61524 167.1875 272.85156 C 159.57042 265.08788 155.71094 256.6075 155.71094 253 C 155.71094 243.16867 161.91923 233.55048 174.55273 225.1543 C 185.7707 217.69887 201.96561 211.81575 221.12695 208.46289 L 221.12695 227.34766 C 221.12695 232.2445 222.63473 237.02692 225.44336 241.03906 L 240.49023 262.53516 C 243.8619 267.49188 249.35488 270.12219 255.13281 270.43555 C 260.91074 270.7489 267.4127 268.30502 271.43555 262.63867 A 6.372996 6.372996 0 0 0 271.46094 262.60352 L 286.55859 241.03906 A 6.372996 6.372996 0 0 0 286.55859 241.03711 C 289.3661 237.02464 290.87305 232.24338 290.87305 227.34766 L 290.87305 208.45703 z "
       d="m 256,-216.6582 c -16.95382,0 -38.00219,4.19236 -58.69336,15.94531 -20.82133,11.82689 -40.90759,32.16281 -50.97461,61.88086 -4.3017,12.30787 -6.49023,25.25119 -6.49023,38.33008 0,43.935134 24.68795,82.346148 61,102.0449187 V 163.46875 c -21.6111,4.95792 -40.79568,12.88009 -56.49805,24.19336 -21.31764,15.35898 -36.66406,38.5404 -36.66406,65.33789 0,16.35311 7.11061,32.18967 19.22461,46.86133 12.2757,14.86752 30.61593,28.55871 55.24804,37.41406 a 20.287349,20.287349 0 0 0 0.0703,0.0254 c 0.13282,0.0472 0.26683,0.0916 0.40039,0.13672 22.27923,7.54476 47.3592,11.2207 73.37695,11.2207 36.23093,0 70.29023,-6.92994 97.6875,-21.68945 29.37274,-15.82395 50.63281,-42.36707 50.63281,-73.96875 0,-26.80647 -15.33023,-50.00767 -36.65429,-65.36523 -15.70504,-11.31073 -34.89217,-19.22178 -56.50782,-24.17188 V 60.169922 57.384766 1.5449219 c 36.31205,-19.6987699 61,-58.1097799 61,-102.0449219 0,-63.83601 -52.32219,-116.1582 -116.1582,-116.1582 z m 0,68.3164 c 26.65989,0 47.8418,21.18191 47.8418,47.8418 0,26.659892 -21.18191,47.841797 -47.8418,47.841797 -26.65989,0 -47.8418,-21.181905 -47.8418,-47.841797 0,-5.35453 0.88222,-10.46595 2.56836,-15.41797 C 223.07209,-146.4882 242.47368,-148.3418 256,-148.3418 Z m 54.54297,382.84766 c 6.47947,2.34995 11.84177,4.96045 15.69336,7.51953 9.22705,6.13065 9.76758,9.59886 9.76758,10.97461 0,1.11851 -1.98931,7.33467 -16.28516,14.57227 -8.54315,4.32515 -20.64941,7.90027 -34.50781,10.19921 0.95862,-1.07503 1.90288,-2.17541 2.76562,-3.39062 a 20.287349,20.287349 0 0 0 0.10156,-0.14258 l 15.09766,-21.56445 a 20.287349,20.287349 0 0 0 1.17188,-3.71875 l -1.16797,3.71094 c 3.81008,-5.44534 6.29438,-11.66104 7.36328,-18.16016 z m -109.08008,0.0215 c 1.07125,6.49361 3.55454,12.70374 7.36328,18.14453 h -0.002 l 14.89258,21.27344 c 1.00993,1.48471 2.12717,2.84467 3.30078,4.12891 -8.19857,-1.29934 -15.83306,-3.0879 -22.48242,-5.33985 -0.0612,-0.0209 -0.12228,-0.0421 -0.1836,-0.0625 a 20.287349,20.287349 0 0 0 -0.17773,-0.0586 c -8.58646,-2.77255 -17.18108,-8.54149 -22.50586,-13.96875 -2.42217,-2.46879 -4.26254,-5.1346 -5.23633,-6.93359 -0.0754,-0.13939 -0.0316,-0.17828 -0.0898,-0.32032 0.66141,-1.84566 2.7328,-4.88458 9.43945,-9.34179 3.85358,-2.56108 9.21416,-5.17057 15.68164,-7.52149 z"
       transform="matrix(0.89179148,0,0,0.89179148,11.65186,227.72779)" />
    <path
       d="m 243.19482,496.08122 c -58.04047,0 -93.20202,-13.36082 -93.20202,-44.62792 0,-15.6331 -0.90963,-27.44756 17.28737,-37.25013 18.1979,-9.80257 43.65052,-15.69731 72.67031,-15.69731 58.04046,0 101.8087,23.57807 101.8087,54.84517 0,4.29487 -0.8258,8.44438 -2.40071,12.40839 -9.89264,24.89079 -46.0958,30.3218 -96.16365,30.3218 z"
       fill="#d2ea7b"
       id="path1"
       style="fill:#c4e456;fill-opacity:1;stroke-width:0.891791" />
    <path
       d="m 339.34956,465.75585 c -9.88105,24.8899 -49.33391,42.44036 -99.39908,42.44036 -58.03779,0 -101.80692,-23.57897 -101.80692,-54.84518 0,-15.64202 10.9512,-29.34886 29.16158,-39.15856 -1.57847,3.95955 -2.40783,8.1153 -2.40783,12.40482 0,31.26621 43.76912,54.84517 101.80691,54.84517 29.00998,0 54.45279,-5.89474 72.64534,-15.68661 z"
       fill="#c4e456"
       id="path2"
       style="stroke-width:0.891791" />
    <path
       d="M 221.22286,192.50202 H 258.6781 V 430.4748 c 0,1.82995 -0.56272,3.61532 -1.61236,5.11442 l -13.46248,19.23238 c -1.77556,2.53625 -5.53089,2.53625 -7.30556,0 l -13.46248,-19.23238 c -1.04964,-1.4991 -1.61236,-3.28447 -1.61236,-5.11442 l 7.40008,-116.24324 z"
       fill="#f8f7f7"
       id="path3"
       style="stroke-width:0.891791" />
    <path
       d="m 313.07738,138.10274 c 0,15.63846 -4.90842,30.13007 -13.26986,42.01854 -13.23151,18.81413 -35.10894,26.7912 -59.85704,26.7912 -40.38656,0 -68.25059,-30.42525 -68.25059,-70.81181 0,-24.7481 7.41792,-44.62346 26.23205,-57.85497 11.88847,-8.361437 26.38008,-13.269857 42.01854,-13.269857 40.38656,0 73.1269,32.74034 73.1269,73.126897 z"
       fill="#f5de46"
       id="path5"
       style="stroke-width:0.891791" />
    <path
       d="M 265.36654,393.34952 V 278.90324 c 0,-8.74565 -13.37688,-8.74565 -13.37688,0 v 120.51581 0.004 31.0504 c 0,0.46016 -0.13912,0.90249 -0.40309,1.27882 l -11.63609,16.62389 -11.6361,-16.62299 c -0.26397,-0.37634 -0.40309,-0.81867 -0.40309,-1.27883 V 217.01113 c 3.92745,0.59661 7.94765,0.90695 12.03919,0.90695 4.09154,0 8.11173,-0.31034 12.03918,-0.90695 v 64.37575 c 0,8.74566 13.37688,8.74566 13.37688,0 v -67.6183 c 31.58725,-10.63818 54.39928,-40.53728 54.39928,-75.66584 0,-44.010797 -35.80454,-79.815333 -79.81534,-79.815333 -21.8373,0 -61.32417,11.862302 -75.3216,53.350533 -2.87217,10.37953 6.5442,10.72155 12.62063,4.43399 14.60389,-36.889357 44.52358,-44.407651 62.70097,-44.407651 36.63479,0 66.43846,29.803671 66.43846,66.438461 0,36.6348 -29.80367,66.43847 -66.43846,66.43847 -36.6348,0 -66.43847,-29.80367 -66.43847,-66.43847 0,-7.55882 1.25743,-14.9705 3.7375,-22.03081 2.89886,-8.25109 -9.72096,-12.68528 -12.62063,-4.43399 -2.98215,8.48807 -4.49374,17.39172 -4.49374,26.46391 0,35.12856 22.81203,65.02765 54.39928,75.66583 v 179.58095 c -49.92159,6.15871 -83.08108,29.90533 -83.08108,60.0024 0,13.77194 14.31411,39.70942 50.68319,52.78425 8.92363,3.72671 13.02953,-9.84783 4.29041,-12.66968 -23.83162,-7.69521 -41.59672,-28.08519 -41.59672,-40.11457 0,-22.34116 28.34202,-40.99654 69.7042,-46.50514 v 23.62891 c 0,3.21847 0.97562,6.31299 2.82163,8.95002 l 13.46248,19.23326 c 3.62514,5.32935 13.39828,6.85253 18.26389,-8.9e-4 l 13.46338,-19.23237 c 1.84512,-2.63703 2.82074,-5.73155 2.82074,-8.95002 v -23.63248 c 41.39696,5.50325 69.7042,24.11494 69.7042,46.50871 0,27.00345 -41.78221,48.15674 -95.12026,48.15674 -19.4794,0 -37.98764,-2.7806 -53.52354,-8.04217 -8.28217,-2.80856 -12.57507,9.8659 -4.29041,12.66968 16.90123,5.72352 36.89252,8.74936 57.81395,8.74936 29.1589,0 56.09279,-5.85907 75.84151,-16.49814 21.05788,-11.34448 32.65562,-27.33787 32.65562,-45.03547 0,-30.15503 -33.12737,-53.84815 -83.08107,-60.00151 z"
       id="path7"
       style="fill:#78921a;fill-opacity:1;stroke-width:0.891791"
       sodipodi:nodetypes="cssccscccscscsscssccssssccsccscsscsccccscssccscsc" />
    <ellipse
       style="fill:#e6ca0d;fill-opacity:1;stroke:#b09a0a;stroke-width:12.2647;stroke-linecap:round;stroke-linejoin:round;stroke-opacity:1"
       id="path9"
       cx="239.95049"
       cy="137.54608"
       rx="37.190514"
       ry="38.810005" />
  </g>
</svg>
