<svg xmlns="http://www.w3.org/2000/svg" viewBox="0 0 511.997 511.997" width="48" height="48"><path fill="#9bd069" d="M444.906 149.919c8.955-9.27 0 0 50.905-7.351v266.958c0 25.95-20.305 46.99-45.348 46.99H161.637c0-28.68 8.245-39.675 18.55-43.985"/><path fill="#ffe07d" d="m198.443 141.938 187.415-86.46h64.6c25.052 0 45.357 21.04 45.357 46.99v40.1c0 14.15-5.54 26.96-14.486 36.23-8.955 9.28-21.317 15.01-34.973 15.01-12.14 0-21.984 10.2-21.984 22.79v35.74c0 5.51-2.152 10.5-5.645 14.11-3.542 3.67-8.454 5.91-13.868 5.84-10.538-.14-19.001 9.06-19.001 19.98v13.21c0 32.36-25.323 58.59-56.542 58.59h-78.467c-8.444 0-16.087 3.55-21.627 9.28-5.53 5.74-8.955 13.67-8.955 22.42 0 33.55-26.25 60.75-58.635 60.75H61.537c-25.042 0-45.347-21.04-45.347-46.99V276.276"/><path fill="#e4936b" d="M385.858 55.477v25.94c0 17.26-13.501 31.25-30.168 31.25h-46.206c-8.338 0-15.875 3.5-21.337 9.16-5.453 5.65-8.83 13.47-8.83 22.1 0 17.27 13.5 31.26 30.167 31.26h17.757c6.562 0 12.497 2.75 16.792 7.21 4.304 4.45 6.958 10.6 6.958 17.4 0 13.59-10.635 24.61-23.75 24.61h-47.287c-7.972 0-15.2 3.35-20.42 8.77-5.231 5.41-8.464 12.9-8.464 21.16 0 16.53-12.922 29.93-28.874 29.93h-23.75c-8.512 0-16.213 3.57-21.79 9.35-5.578 5.78-9.024 13.76-9.024 22.57 0 11.75-4.593 22.39-12.024 30.1-7.44 7.7-17.709 12.46-29.048 12.46-22.688 0-41.082-19.05-41.082-42.56v-7.98c0-17.63-13.79-31.93-30.804-31.93H16.191v-173.81c0-25.95 20.304-46.99 45.347-46.99z"/><path fill="#dd636e" d="M92.606 103.363H64.672c-15.427 0-27.933 12.506-27.933 27.933s12.506 27.933 27.933 27.933c11.019 0 19.952 8.933 19.952 19.952v31.259c0 14.325 11.613 25.938 25.938 25.938S136.5 224.765 136.5 210.44c0-16.529 13.399-29.928 29.928-29.928h23.278c21.304 0 38.574-17.27 38.574-38.574s-17.27-38.574-38.574-38.574z" style="fill:#df6b78;fill-opacity:.5626719" transform="matrix(.96504 0 0 1 8.95 0)"/><path fill="#ffe07d" d="M437.845 425.261h-32.091c-11.697 0-21.18-9.826-21.18-21.948s9.482-21.948 21.18-21.948h32.091c11.698 0 21.181 9.826 21.181 21.948s-9.483 21.948-21.18 21.948"/><path d="M54.492 38.705c-35.077 0-63.765 28.688-63.765 63.766v307.056c0 35.078 28.688 63.766 63.765 63.766h403.012c35.077 0 63.766-28.688 63.766-63.766V102.471c0-35.078-28.689-63.766-63.766-63.766zm0 33.547h319.295v9.164c0 8.071-6.415 14.486-14.486 14.486h-47.887c-26.4 0-48.031 21.63-48.031 48.032s21.63 48.03 48.031 48.03h18.404c4.402 0 7.834 3.434 7.834 7.837s-3.432 7.834-7.834 7.834h-48.996c-25.669 0-46.703 21.035-46.703 46.703 0 7.337-5.817 13.154-13.154 13.154h-24.61c-26.768 0-48.695 21.93-48.695 48.697a25.715 25.715 0 0 1-25.793 25.791 25.713 25.713 0 0 1-25.79-25.79v-7.983c0-26.767-21.928-48.697-48.696-48.697H24.273V102.47a30.145 30.145 0 0 1 30.22-30.218m352.842 0h50.17a30.146 30.146 0 0 1 30.219 30.219v40.193c-.025 9.236-3.556 17.734-10.094 24.272v.002c-6.56 6.56-15.1 10.097-24.38 10.097-21.728 0-39.554 17.833-39.554 39.563v35.74c0 .927-.276 1.59-.927 2.24l-.008.01c-.697.697-1.343.947-2.221.93l-.07-.002c-9.6-.117-18.838 3.658-25.68 10.412a37.04 37.04 0 0 0-11.004 26.34v13.21c0 19.056-12.796 35.644-31.19 40.464-1.205.316-2.196.838-3.175 1.353h-88.762a48.44 48.44 0 0 0-34.27 14.192l-.01.01a48.43 48.43 0 0 0-14.183 34.271c0 24.33-19.65 43.977-43.988 43.977l-103.715.002a30.147 30.147 0 0 1-30.219-30.221v-116.47h23.108c8.436 0 15.15 6.714 15.15 15.151v7.98c0 32.636 26.702 59.34 59.338 59.34s59.338-26.704 59.338-59.34c0-8.436 6.713-15.15 15.15-15.15h24.608c25.668 0 46.703-21.033 46.703-46.701 0-7.337 5.818-13.156 13.154-13.156h48.998c22.734 0 41.38-18.647 41.38-41.381s-18.646-41.381-41.38-41.381h-18.404c-8.07 0-14.485-6.415-14.485-14.486s6.414-14.485 14.485-14.485h47.886c26.402 0 48.032-21.632 48.032-48.033zm80.389 128.87v208.403a30.15 30.15 0 0 1-30.22 30.221H221.882c8.678-12.524 13.861-27.657 13.861-43.978 0-4.048 1.505-7.685 4.36-10.55l.006-.003.004-.006c2.879-2.87 6.507-4.367 10.546-4.367h90.311c2.956 0 5.684-.863 8.045-2.178.698-.091 1.393-.088 2.088-.27 33.077-8.667 56.23-38.7 56.23-72.916v-13.21c0-.868.421-1.868 1.028-2.467.587-.58 1.072-.74 1.656-.74h.04a36.74 36.74 0 0 0 26.415-10.747 36.7 36.7 0 0 0 10.771-25.976v-35.74c0-3.406 2.614-6.018 6.006-6.018 12.283 0 24.114-3.35 34.475-9.46z" style="fill:#ffda68;fill-opacity:1" transform="matrix(.96504 0 0 1 8.95 0)"/></svg>
