<?xml version="1.0" encoding="UTF-8" standalone="no"?>
<svg
   width="128"
   height="128"
   viewBox="0 0 128 128"
   version="1.1"
   id="svg2"
   sodipodi:docname="camptocamp_icon.svg"
   inkscape:version="1.3.2 (091e20ef0f, 2023-11-25)"
   inkscape:export-filename="../camptocamp_icon.png"
   inkscape:export-xdpi="96"
   inkscape:export-ydpi="96"
   xmlns:inkscape="http://www.inkscape.org/namespaces/inkscape"
   xmlns:sodipodi="http://sodipodi.sourceforge.net/DTD/sodipodi-0.dtd"
   xmlns="http://www.w3.org/2000/svg"
   xmlns:svg="http://www.w3.org/2000/svg">
  <defs
     id="defs2" />
  <sodipodi:namedview
     id="namedview2"
     pagecolor="#ffffff"
     bordercolor="#000000"
     borderopacity="0.25"
     inkscape:showpageshadow="2"
     inkscape:pageopacity="0.0"
     inkscape:pagecheckerboard="0"
     inkscape:deskcolor="#d1d1d1"
     inkscape:zoom="5.6717557"
     inkscape:cx="99.969044"
     inkscape:cy="57.301481"
     inkscape:window-width="2560"
     inkscape:window-height="1375"
     inkscape:window-x="2240"
     inkscape:window-y="0"
     inkscape:window-maximized="1"
     inkscape:current-layer="g2" />
  <g
     id="g2"
     transform="translate(1.367392,-3.696338)">
    <rect
       style="fill:#ffffff;fill-opacity:0.937277;stroke:#d86d00;stroke-width:2.9732;stroke-linecap:round;stroke-linejoin:round;stroke-dasharray:none;stroke-opacity:1"
       id="rect2"
       width="123.28809"
       height="123.28809"
       x="153.96889"
       y="5.3538294"
       rx="24.632034"
       ry="27.477142" />
    <path
       id="path1"
       style="stroke-width:0.31295;fill:#964a00;fill-opacity:1"
       sodipodi:type="inkscape:offset"
       inkscape:radius="1.8934807"
       inkscape:original="M 80.794922 48.160156 L 80.826172 48.193359 C 78.896377 48.193359 77.916735 48.832031 77.855469 48.832031 L 78.160156 50.111328 C 78.190776 50.111328 84.685996 50.111537 89.158203 57.273438 C 94.61062 64.302076 102.23544 67.847502 121.95508 71.818359 L 122.10938 70.474609 C 122.10938 70.474609 121.96928 70.200641 116.32812 68.175781 C 113.75508 67.28054 108.14953 64.338729 105.88281 63.091797 C 102.69711 61.397236 99.940432 58.966825 97.183594 56.632812 C 95.223175 54.906283 93.353515 53.308713 91.515625 52.09375 C 86.522675 48.896471 83.031023 48.128184 80.794922 48.160156 z M 74.914062 52.636719 L 74.882812 52.669922 C 74.699018 52.669922 74.546359 52.765187 74.423828 52.957031 C 70.349831 60.023011 57.209858 64.849908 56.382812 65.009766 L 55.708984 65.394531 C 55.402662 65.778205 55.339844 66.354102 55.339844 66.673828 L 54.820312 67.632812 C 54.759073 67.728742 54.759176 67.855261 54.728516 67.951172 L 54.728516 68.144531 C 54.789756 68.336363 54.881996 68.464627 55.035156 68.560547 C 57.363154 70.2551 71.973332 63.251355 76.84375 54.810547 C 76.93566 54.650682 76.966162 54.459415 76.935547 54.267578 C 76.904927 54.107713 76.81392 53.947481 76.691406 53.851562 L 75.710938 53.083984 L 75.220703 52.765625 C 75.098169 52.669715 75.00595 52.636719 74.914062 52.636719 z "
       d="m 80.767578,46.267578 a 1.89367,1.89367 0 0 0 -0.08008,0.05469 c -1.092104,0.01839 -2.003838,0.185924 -2.630859,0.388671 -0.330053,0.106723 -0.593088,0.218999 -0.771485,0.300782 -0.07291,0.03342 -0.116718,0.05497 -0.148437,0.07031 0.0238,-0.01011 0.05885,-0.02609 0.140625,-0.05273 0.04089,-0.01332 0.09368,-0.02852 0.177734,-0.04687 0.08406,-0.01835 0.401348,-0.04297 0.400391,-0.04297 a 1.89367,1.89367 0 0 0 -1.841797,2.332031 l 0.304687,1.279297 a 1.89367,1.89367 0 0 0 1.841797,1.453125 c 0.022,0 5.35662,-0.191797 9.392578,6.271485 a 1.89367,1.89367 0 0 0 0.109375,0.158203 c 2.893705,3.730235 6.494528,6.624676 11.771485,8.986328 5.276956,2.361652 12.228016,4.256275 22.148436,6.253906 a 1.89367,1.89367 0 0 0 2.25391,-1.638672 l 0.15429,-1.34375 a 1.89367,1.89367 0 0 0 -0.19531,-1.078125 c 0,0 -0.11926,-0.206887 -0.17383,-0.279297 -0.0546,-0.07241 -0.10349,-0.129011 -0.14843,-0.175781 -0.0899,-0.09354 -0.16243,-0.151282 -0.22461,-0.199219 -0.12438,-0.09587 -0.21579,-0.150082 -0.31641,-0.207031 -0.20123,-0.113897 -0.43862,-0.228269 -0.84375,-0.404297 -0.81027,-0.352055 -2.2777,-0.933206 -5.11914,-1.953125 a 1.89367,1.89367 0 0 0 -0.0176,-0.0078 c -2.16325,-0.752662 -7.94266,-3.735419 -10.15625,-4.953125 a 1.89367,1.89367 0 0 0 -0.0234,-0.01367 c -2.91258,-1.549284 -5.56994,-3.866741 -8.335933,-6.208985 L 98.40625,55.1875 C 96.442872,53.458784 94.532726,51.817409 92.560547,50.513672 A 1.89367,1.89367 0 0 0 92.537109,50.5 C 87.322564,47.160821 83.46543,46.229004 80.767578,46.267578 Z m -5.853516,4.476563 a 1.89367,1.89367 0 0 0 -0.191406,0.08203 c -0.783544,0.07242 -1.564424,0.594487 -1.894531,1.111328 a 1.89367,1.89367 0 0 0 -0.04492,0.07422 c -1.690194,2.931489 -5.742178,5.863268 -9.498047,7.896484 -1.877934,1.016608 -3.672939,1.830506 -5.033203,2.394531 -0.680132,0.282013 -1.252146,0.502999 -1.666016,0.652344 -0.413869,0.149345 -0.872109,0.255156 -0.5625,0.195313 a 1.89367,1.89367 0 0 0 -0.580078,0.214843 L 54.769531,63.75 a 1.89367,1.89367 0 0 0 -0.541015,0.462891 c -0.589711,0.738623 -0.696581,1.362015 -0.732422,1.892578 l -0.339844,0.625 0.06836,-0.117188 c -0.468047,0.73319 -0.415597,1.126999 -0.298828,0.761719 a 1.89367,1.89367 0 0 0 -0.08984,0.576172 v 0.193359 a 1.89367,1.89367 0 0 0 0.08789,0.576172 c 0.150019,0.469929 0.585355,1.078265 1.074219,1.404297 0.893955,0.614659 1.752933,0.626393 2.580078,0.566406 0.851702,-0.06177 1.743419,-0.264516 2.722656,-0.568359 1.958475,-0.607687 4.248143,-1.638816 6.623047,-2.992188 4.749808,-2.706744 9.829025,-6.639109 12.560547,-11.373047 a 1.89367,1.89367 0 0 0 0,-0.0039 c 0.326951,-0.568686 0.41264,-1.206624 0.320312,-1.785156 a 1.89367,1.89367 0 0 0 -0.0098,-0.05664 C 78.677878,53.301031 78.429437,52.807643 77.859375,52.361328 L 76.878906,51.59375 a 1.89367,1.89367 0 0 0 -0.136719,-0.09766 l -0.490234,-0.31836 0.136719,0.09766 c -0.319654,-0.2502 -0.929436,-0.53125 -1.47461,-0.53125 z"
       transform="matrix(1,0,0,1.4211508,0.61743723,-14.437425)" />
    <path
       style="fill:#ff9933;fill-opacity:1;stroke-width:0.393491"
       d="m 202.29743,76.491816 c -1.71417,0 -3.42834,0.397439 -5.10356,1.192312 -3.42806,1.622645 -6.21587,4.382606 -7.90855,7.829533 -0.81812,1.708982 -1.24667,3.378228 -1.24667,5.08721 0,2.146163 0.58438,3.815411 1.71417,4.967972 0.85709,0.87437 2.02584,1.55001 3.50626,2.06668 3.01547,1.13626 6.34935,1.00764 9.27209,-0.35769 1.67522,-0.71539 3.11668,-1.66925 4.32439,-2.861551 0.935,-0.953854 1.67521,-2.146175 2.25959,-3.656433 0.58437,-1.510268 0.85708,-3.06028 0.85708,-4.610284 0,-0.914107 -0.11688,-1.78847 -0.35062,-2.623089 -0.23375,-0.794883 -0.58438,-1.550013 -1.01292,-2.185917 -0.40904,-0.599419 -0.94072,-1.101141 -1.55834,-1.470513 -0.54541,-0.31796 -1.16875,-0.516673 -1.83105,-0.516673 -0.70988,0.03768 -1.40822,0.199006 -2.06479,0.476927 -0.77916,0.317948 -1.55833,0.67564 -2.18167,1.112821 -0.58438,0.437183 -0.89604,0.755141 -0.89604,0.953852 0,0.158987 0.1948,0.397438 0.62334,0.715395 0.97395,0.755129 1.71417,1.669239 2.22063,2.782059 0.50645,1.073086 0.77916,2.225662 0.77916,3.457718 0,1.510256 -0.38958,2.861546 -1.24667,3.974377 -0.77917,1.152567 -1.75312,1.708981 -2.84396,1.708981 -1.16875,0 -2.10375,-0.476924 -2.84397,-1.430777 -0.77516,-1.124845 -1.15915,-2.481913 -1.09083,-3.855145 0.003,-2.739137 0.87784,-5.403206 2.49333,-7.591064 0.77918,-1.073088 1.63626,-1.867961 2.64918,-2.464121 1.01292,-0.596161 2.0648,-0.953853 3.23354,-0.993599 0.97397,-0.07946 1.44147,-0.397435 1.44147,-0.953851 0,-0.516661 -1.05188,-0.794873 -3.19459,-0.794873 z"
       id="path7" />
    <path
       style="fill:#ff9933;fill-opacity:1;stroke-width:0.393491"
       d="m 183.5974,63.257128 c -1.44146,0.07949 -4.90876,1.192316 -5.57105,10.055185 -1.31809,0.172123 -2.64497,0.265016 -3.97375,0.278202 l -0.97397,0.198723 c -0.4675,0.357692 -0.77917,0.993598 -0.89604,1.391034 l -0.935,0.953852 c -0.11688,0.119246 -0.15583,0.238459 -0.23376,0.397438 v 0.198723 c -0.039,0.198713 0,0.437182 0.15585,0.59615 0.74021,0.953854 3.38938,1.232055 6.89563,0.914108 0.0779,1.311543 0.23376,2.702578 0.38959,4.133358 0.38959,4.133357 0.77917,8.385948 0.27271,12.002635 -0.38959,2.623087 -1.36355,8.982104 -2.29855,11.287244 -4.28542,10.77057 -5.84376,12.99622 -5.84376,12.99622 l 1.36354,1.51026 c 14.3367,-16.05649 17.64816,-26.827065 12.54461,-41.254068 -0.18212,-0.525416 -0.35099,-1.055513 -0.50646,-1.589757 6.54501,-1.430778 14.02503,-4.33207 18.54419,-8.584661 0.11688,-0.158971 0.23376,-0.357693 0.27272,-0.556416 0,-0.238459 -0.039,-0.437182 -0.15585,-0.635896 l -0.935,-1.232064 -0.50646,-0.596151 c -0.27271,-0.317958 -0.70125,-0.357691 -1.01291,-0.03973 -4.09064,3.855143 -11.29794,5.882083 -17.1417,6.915426 -0.4675,-5.683371 2.10376,-7.670556 2.14271,-7.670556 l -1.01291,-1.629502 z"
       id="path6" />
    <path
       id="path2"
       style="fill:#ff8408;fill-opacity:1;stroke-width:0.377368"
       d="m 43.365799,31.334414 c -1.18876,0 -2.153006,0.23975 -2.86914,0.52738 -0.358067,0.143814 -0.65489,0.299438 -0.892578,0.444109 -0.237689,0.144672 -0.244583,0.0952 -0.660157,0.496848 a 2.4576616,3.4927076 0 0 0 -1.066406,3.18371 l 0.15625,2.589714 a 2.4576616,3.4927076 0 0 0 2.449219,3.194814 c 0.002,0 -0.275215,-0.02075 -0.283203,-0.02221 -0.008,-0.0014 -0.0015,-1.34e-4 0.01172,0.0029 0.02635,0.0058 0.08487,0.01758 0.167969,0.04164 0.166199,0.0481 0.433412,0.136884 0.777344,0.28867 0.687864,0.303584 1.678514,0.857093 2.796875,1.831952 2.236722,1.949723 5.003406,5.52609 7.005859,12.576629 a 2.4576616,3.4927076 0 0 0 0.002,0.0029 c 3.157241,11.082055 8.427384,19.873901 16.777344,26.968556 8.349961,7.094656 19.736207,12.675963 35.597655,18.144654 a 2.4576616,3.4927076 0 0 0 2.98242,-2.656331 l 0.40821,-2.681318 a 2.4576616,3.4927076 0 0 0 -2.40235,-4.230143 c -1.2e-4,0 0.37915,0.04168 0.37891,0.04164 -2.4e-4,-5.3e-5 0.10038,0.02471 0.12891,0.03331 0.057,0.01718 0.0829,0.02572 0.10351,0.03332 0.0413,0.01517 0.0547,0.02287 0.0664,0.02775 -0.0139,-0.0065 -0.0267,-0.01444 -0.0644,-0.03331 -0.10259,-0.05133 -0.28688,-0.145654 -0.5586,-0.296998 -0.54344,-0.302688 -1.4409,-0.831394 -2.79492,-1.693167 C 98.876592,88.427887 94.346657,85.366794 87.152998,80.07292 a 2.4576616,3.4927076 0 0 0 -0.01367,-0.01113 C 84.652641,78.259029 77.80032,70.890478 75.066971,67.884634 71.680107,64.097893 68.636643,58.77005 65.629471,53.456623 l -0.0078,-0.01113 C 63.422464,49.52843 61.274185,45.736583 58.926346,42.628676 a 2.4576616,3.4927076 0 0 0 -0.01172,-0.01392 C 52.186185,33.811584 46.917835,31.44829 43.42244,31.334414 a 2.4576616,3.4927076 0 0 0 -0.05664,0 z M 31.910721,42.120726 c -1.686986,0.05963 -2.616272,1.565726 -3.0625,2.600816 a 2.9494378,4.1915957 0 0 0 -0.117187,0.299773 c -2.142622,6.025627 -8.10927,14.058718 -13.632813,20.129269 -2.761771,3.035276 -5.4103467,5.652508 -7.4101558,7.51378 -0.9999045,0.930635 -1.8399196,1.672232 -2.4335938,2.173361 -0.296837,0.250565 -0.5332665,0.443709 -0.6757812,0.552361 -0.1425147,0.108649 -0.4589544,0.185299 0.1992187,-0.07494 A 2.9494378,4.1915957 0 0 0 3.9888465,75.814769 L 3.0806433,76.633596 A 2.9494378,4.1915957 0 0 0 2.0904089,78.115812 C 1.5261153,79.54081 1.2334404,81.152472 1.2407996,82.790065 L 1.4966589,81.05526 0.86970579,83.053753 0.98103392,82.737324 c -0.44808502,1.155407 -0.60325067,2.470853 -0.453125,3.755503 a 2.9494378,4.1915957 0 0 0 0.0117188,0.08882 c 0.17335897,1.310828 0.66662378,2.485157 1.40624998,3.322496 a 2.9494378,4.1915957 0 0 0 0.011719,0.01393 c 1.3716503,1.5376 2.7447778,1.498734 3.9433594,1.329552 1.1985818,-0.169179 2.3940299,-0.640286 3.6933595,-1.315673 2.5986584,-1.350776 5.5782474,-3.569363 8.6660154,-6.453469 6.14995,-5.744314 12.692419,-14.021784 16.210937,-23.78207 0.435134,-1.122333 0.491335,-2.27588 0.4375,-3.26698 -0.0089,0.250528 0.03697,0.729081 0.02344,0.843807 -0.02621,0.222282 -0.04512,0.309115 -0.05664,0.366392 -0.02305,0.114549 -0.01979,0.0854 -0.0039,0.02498 0.03177,-0.120826 0.113532,-0.405023 0.216797,-0.749435 0.20653,-0.688824 0.506427,-1.646909 0.80664,-2.61192 0.300213,-0.96501 0.599185,-1.933281 0.833985,-2.756256 0.117399,-0.411487 0.217413,-0.76894 0.3125,-1.190768 0.04754,-0.210913 0.09699,-0.414296 0.148437,-0.841032 0.02572,-0.213369 0.06335,-0.471083 0.04297,-1.013125 -0.02038,-0.542042 0.0171,-1.725777 -1.044922,-3.008842 a 2.9494378,4.1915957 0 0 0 -0.0098,-0.01392 l -1.253906,-1.501647 a 2.9494378,4.1915957 0 0 0 -0.03906,-0.04718 l -0.626954,-0.724452 a 2.9494378,4.1915957 0 0 0 -0.06445,-0.0694 C 33.56257,42.447302 32.745556,42.086988 31.910721,42.120726 Z" />
  </g>
</svg>
