<?xml version="1.0" encoding="UTF-8" standalone="no"?>
<svg
   width="48"
   height="48"
   viewBox="0 0 48 48"
   fill="none"
   version="1.1"
   id="svg2"
   sodipodi:docname="hrs_icon_v2.svg"
   inkscape:version="1.4 (e7c3feb100, 2024-10-09)"
   inkscape:export-filename="../hrs_icon.png"
   inkscape:export-xdpi="512"
   inkscape:export-ydpi="512"
   xmlns:inkscape="http://www.inkscape.org/namespaces/inkscape"
   xmlns:sodipodi="http://sodipodi.sourceforge.net/DTD/sodipodi-0.dtd"
   xmlns="http://www.w3.org/2000/svg"
   xmlns:svg="http://www.w3.org/2000/svg">
  <sodipodi:namedview
     id="namedview2"
     pagecolor="#ffffff"
     bordercolor="#000000"
     borderopacity="0.25"
     inkscape:showpageshadow="2"
     inkscape:pageopacity="0.0"
     inkscape:pagecheckerboard="0"
     inkscape:deskcolor="#d1d1d1"
     inkscape:zoom="8.5614754"
     inkscape:cx="60.036381"
     inkscape:cy="30.4854"
     inkscape:window-width="2560"
     inkscape:window-height="1375"
     inkscape:window-x="2240"
     inkscape:window-y="0"
     inkscape:window-maximized="1"
     inkscape:current-layer="g2" />
  <g
     clip-path="url(#clip0_13750_9543)"
     id="g2">
    <path
       fill-rule="evenodd"
       clip-rule="evenodd"
       d="m 43.460394,23.095892 -19.366823,-4.602596 0.04678,0.05476 -5.941028,7.232754 1.450192,0.493072 5.800643,-6.739536 0.280707,0.328716 -5.847478,6.849205 -0.04678,-0.05476 -0.04678,10.301153 11.461024,2.301297 13.659667,-3.342424 v -9.479218 l 2.011546,0.273953 z m -16.700374,10.191556 -3.929482,-0.602669 -1.263093,0.05476 v -3.945092 h 1.356643 l 3.882707,-0.602742 2.05832,-0.821934 v 6.575251 z m 7.063737,4.876623 -0.04677,-9.698411 2.713224,0.219193 0.04678,8.76688 z m 10.712572,-2.630087 -7.625091,1.862988 v -9.095669 l -3.508513,-0.328788 0.04677,10.301152 -2.198643,0.547906 V 23.753396 l 1.543741,1.150721 11.694957,1.479365 v 9.150502 z M 32.981694,24.520568 31.250857,23.26025 l -3.929482,-2.904039 -1.169483,-0.876697 17.121343,4.054762 2.479351,2.575252 -0.842062,-0.109599 z m -4.350513,3.12316 v 5.972508 L 26.947117,33.06833 v -4.767027 z m -6.923351,1.315078 h 0.935549 v 3.451947 l -0.935549,0.05484 z m 21.425082,-0.109598 -4.444062,-0.38355 v 4.986218 l 4.397287,-1.041125 v -3.561543 z m -0.421031,1.698556 -1.496905,-0.05476 v -1.36984 l 1.496905,0.109598 z m -1.964711,-1.4246 v 1.369841 l -1.684063,-0.05476 v -1.479437 z m -1.637288,1.972583 1.684063,-0.05483 v 1.479437 l -1.684063,0.383549 z m 2.105094,1.315006 V 30.98615 l 1.496905,-0.05476 v 1.095815 z M 30.034598,18.712416 25.777635,11.315332 17.404091,22.109601 14.456933,19.095965 2.8087873,35.479224 H 1.0779363 L 14.363385,16.84943 17.31048,19.917899 25.917957,8.7400429 31.905759,19.1508 Z"
       fill="#5f5f5f"
       id="path1"
       style="stroke-width:0.673462" />
  </g>
  <defs
     id="defs2">
    <clipPath
       id="clip0_13750_9543">
      <rect
         width="244"
         height="43"
         fill="#ffffff"
         id="rect2"
         x="0"
         y="0" />
    </clipPath>
  </defs>
</svg>
