<?xml version="1.0" encoding="UTF-8" standalone="no"?>
<svg
   height="256"
   width="256"
   version="1.1"
   id="svg163"
   sodipodi:docname="meteoswiss.svg"
   inkscape:export-filename="../meteoswiss.png"
   inkscape:export-xdpi="96"
   inkscape:export-ydpi="96"
   inkscape:version="1.4.3 (0d15f75042, 2025-12-25)"
   xml:space="preserve"
   xmlns:inkscape="http://www.inkscape.org/namespaces/inkscape"
   xmlns:sodipodi="http://sodipodi.sourceforge.net/DTD/sodipodi-0.dtd"
   xmlns:xlink="http://www.w3.org/1999/xlink"
   xmlns="http://www.w3.org/2000/svg"
   xmlns:svg="http://www.w3.org/2000/svg"><sodipodi:namedview
     id="namedview163"
     pagecolor="#ffffff"
     bordercolor="#000000"
     borderopacity="0.25"
     inkscape:showpageshadow="2"
     inkscape:pageopacity="0.0"
     inkscape:pagecheckerboard="0"
     inkscape:deskcolor="#d1d1d1"
     inkscape:zoom="1.6075631"
     inkscape:cx="183.50757"
     inkscape:cy="27.370621"
     inkscape:window-width="2560"
     inkscape:window-height="1375"
     inkscape:window-x="2240"
     inkscape:window-y="0"
     inkscape:window-maximized="1"
     inkscape:current-layer="svg163"
     showguides="true"><sodipodi:guide
       position="-498.76557,404.32168"
       orientation="0,-1"
       id="guide2"
       inkscape:locked="false" /><sodipodi:guide
       position="-432.3314,425.82226"
       orientation="1,0"
       id="guide3"
       inkscape:locked="false" /><sodipodi:guide
       position="-405.42733,331.26921"
       orientation="0,-1"
       id="guide4"
       inkscape:locked="false" /></sodipodi:namedview><defs
     id="defs72"><linearGradient
       id="c"><stop
         stop-color="#2d3335"
         offset="0"
         id="stop1" /><stop
         stop-color="#4c464a"
         offset=".5"
         id="stop2" /><stop
         stop-color="#384042"
         offset="1"
         id="stop3" /></linearGradient><linearGradient
       id="a"><stop
         offset="0"
         id="stop4" /><stop
         stop-opacity="0"
         offset="1"
         id="stop5" /></linearGradient><linearGradient
       id="u"
       y2="-179.97"
       xlink:href="#a"
       gradientUnits="userSpaceOnUse"
       x2="9"
       y1="-94.672"
       x1="94.25" /><linearGradient
       id="v"
       y2="-30.438"
       xlink:href="#a"
       gradientUnits="userSpaceOnUse"
       x2="35.75"
       y1="-114.44"
       x1="50.75" /><linearGradient
       id="w"
       y2="-74.625"
       xlink:href="#a"
       gradientUnits="userSpaceOnUse"
       x2="115.25"
       y1="-163.12"
       x1="77.625" /><linearGradient
       id="x"
       y2="7.063"
       xlink:href="#a"
       gradientUnits="userSpaceOnUse"
       x2="125.72"
       y1="-50.438"
       x1="56.5" /><linearGradient
       id="y"
       y2="-146.8"
       xlink:href="#a"
       gradientUnits="userSpaceOnUse"
       x2="180.75"
       y1="-163.3"
       x1="35" /><linearGradient
       id="z"
       y2="-41.609"
       xlink:href="#a"
       gradientUnits="userSpaceOnUse"
       x2="179"
       y1="-141.11"
       x1="57" /><linearGradient
       id="A"
       y2="39.75"
       xlink:href="#a"
       gradientUnits="userSpaceOnUse"
       x2="208.25"
       y1="-26.5"
       x1="156" /><linearGradient
       id="B"
       y2="-77.297"
       xlink:href="#a"
       gradientUnits="userSpaceOnUse"
       x2="235"
       y1="-169.3"
       x1="142.75" /><linearGradient
       id="m"
       y2="-113.72"
       xlink:href="#b"
       gradientUnits="userSpaceOnUse"
       x2="166.5"
       y1="-161.36"
       x1="214.25" /><linearGradient
       id="b"><stop
         stop-color="#fff"
         offset="0"
         id="stop6" /><stop
         stop-color="#fff"
         stop-opacity="0"
         offset="1"
         id="stop7" /></linearGradient><linearGradient
       id="n"
       y2="-62.469"
       xlink:href="#b"
       gradientUnits="userSpaceOnUse"
       x2="57.656"
       y1="-126.5"
       x1="53.25" /><linearGradient
       id="o"
       y2="-17.125"
       xlink:href="#b"
       gradientUnits="userSpaceOnUse"
       x2="75.719"
       y1="6.625"
       x1="39.5" /><linearGradient
       id="p"
       y2="-121.44"
       xlink:href="#b"
       gradientUnits="userSpaceOnUse"
       x2="85.312"
       y1="-162.34"
       x1="102" /><linearGradient
       id="q"
       y2="-14.75"
       xlink:href="#b"
       gradientUnits="userSpaceOnUse"
       x2="63.5"
       y1="-78.094"
       x1="117.75" /><linearGradient
       id="r"
       y2="-60.75"
       xlink:href="#b"
       gradientUnits="userSpaceOnUse"
       x2="133.94"
       y1="-125.12"
       x1="180.69" /><linearGradient
       id="s"
       y2="33.375"
       xlink:href="#b"
       gradientUnits="userSpaceOnUse"
       x2="130.22"
       y1="-23.5"
       x1="170.75" /><linearGradient
       id="t"
       y2="-5.656"
       xlink:href="#b"
       gradientUnits="userSpaceOnUse"
       y1="-76"
       x2="181.75"
       x1="213.5" /><linearGradient
       id="l"
       y2="-213.25"
       xlink:href="#a"
       gradientUnits="userSpaceOnUse"
       x2="9"
       gradientTransform="translate(0 -10)"
       y1="72.064"
       x1="210.17" /><linearGradient
       id="M"
       y2="150.38"
       xlink:href="#c"
       gradientUnits="userSpaceOnUse"
       x2="133"
       gradientTransform="matrix(-1 0 0 1 46 0)"
       y1="150.38"
       x1="123" /><linearGradient
       id="L"
       y2="143.36"
       xlink:href="#c"
       gradientUnits="userSpaceOnUse"
       x2="130.88"
       gradientTransform="translate(-210)"
       y1="134.36"
       x1="128" /><linearGradient
       id="O"
       y2="150.38"
       gradientUnits="userSpaceOnUse"
       y1="150.38"
       gradientTransform="matrix(-2 0 0 1.7699 174 -86.65)"
       x2="133"
       x1="123"><stop
         stop-color="#2d3335"
         offset="0"
         id="stop8" /><stop
         stop-color="#4c464a"
         offset=".5"
         id="stop9" /><stop
         stop-color="#384042"
         offset="1"
         id="stop10" /></linearGradient><linearGradient
       id="N"
       y2="186.5"
       gradientUnits="userSpaceOnUse"
       x2="136"
       gradientTransform="translate(-210)"
       y1="186.5"
       x1="120"><stop
         stop-color="#f9e295"
         offset="0"
         id="stop11" /><stop
         stop-color="#f7dd84"
         offset=".125"
         id="stop12" /><stop
         stop-color="#fff"
         offset=".206"
         id="stop13" /><stop
         stop-color="#f4ce51"
         offset=".301"
         id="stop14" /><stop
         stop-color="#f9e7aa"
         offset=".341"
         id="stop15" /><stop
         stop-color="#efbb0e"
         offset="1"
         id="stop16" /></linearGradient><linearGradient
       id="P"
       y2="186.5"
       gradientUnits="userSpaceOnUse"
       y1="186.5"
       gradientTransform="translate(-210 67)"
       x2="136"
       x1="120"><stop
         stop-color="#f9e295"
         offset="0"
         id="stop17" /><stop
         stop-color="#f7dd84"
         offset=".125"
         id="stop18" /><stop
         stop-color="#fff"
         offset=".206"
         id="stop19" /><stop
         stop-color="#f4ce51"
         offset=".301"
         id="stop20" /><stop
         stop-color="#f9e7aa"
         offset=".341"
         id="stop21" /><stop
         stop-color="#efbb0e"
         offset="1"
         id="stop22" /></linearGradient><linearGradient
       id="J"
       y2="186.5"
       gradientUnits="userSpaceOnUse"
       x2="136"
       gradientTransform="rotate(45 104.976 51.258) scale(1.39197)"
       y1="186.5"
       x1="120"><stop
         stop-color="#f9e295"
         offset="0"
         id="stop23" /><stop
         stop-color="#f7dd84"
         offset=".125"
         id="stop24" /><stop
         stop-color="#fff"
         offset=".206"
         id="stop25" /><stop
         stop-color="#f4ce51"
         offset=".301"
         id="stop26" /><stop
         stop-color="#f9e7aa"
         offset=".341"
         id="stop27" /><stop
         stop-color="#efbb0e"
         offset="1"
         id="stop28" /></linearGradient><linearGradient
       id="U"
       y2="150.38"
       gradientUnits="userSpaceOnUse"
       x2="133"
       gradientTransform="rotate(-135 332.789 -39.72) scale(2.7839 -2.4637)"
       y1="150.38"
       x1="123"><stop
         stop-color="#2d3335"
         offset="0"
         id="stop29" /><stop
         stop-color="#4c464a"
         offset=".5"
         id="stop30" /><stop
         stop-color="#384042"
         offset="1"
         id="stop31" /></linearGradient><linearGradient
       id="T"
       y2="186.5"
       gradientUnits="userSpaceOnUse"
       x2="136"
       gradientTransform="rotate(45 217.552 97.892) scale(1.39197)"
       y1="186.5"
       x1="120"><stop
         stop-color="#f9e295"
         offset="0"
         id="stop32" /><stop
         stop-color="#f7dd84"
         offset=".125"
         id="stop33" /><stop
         stop-color="#fff"
         offset=".206"
         id="stop34" /><stop
         stop-color="#f4ce51"
         offset=".301"
         id="stop35" /><stop
         stop-color="#f9e7aa"
         offset=".341"
         id="stop36" /><stop
         stop-color="#efbb0e"
         offset="1"
         id="stop37" /></linearGradient><linearGradient
       id="S"
       y2="150.38"
       xlink:href="#c"
       gradientUnits="userSpaceOnUse"
       x2="133"
       gradientTransform="scale(-1.39197 1.39197) rotate(-45 -28.292 379.342)"
       y1="150.38"
       x1="123" /><linearGradient
       id="R"
       y2="143.36"
       xlink:href="#c"
       gradientUnits="userSpaceOnUse"
       x2="130.88"
       gradientTransform="rotate(45 217.552 97.892) scale(1.39197)"
       y1="134.36"
       x1="128" /><linearGradient
       id="V"
       y2="150.38"
       xlink:href="#a"
       gradientUnits="userSpaceOnUse"
       y1="167.73"
       gradientTransform="rotate(-135 332.789 -39.72) scale(2.7839 -2.4637)"
       x2="133"
       x1="108" /><linearGradient
       id="W"
       y2="137.2"
       gradientUnits="userSpaceOnUse"
       x2="179.96"
       gradientTransform="translate(0 -10)"
       y1="29.815"
       x1="126.64"><stop
         stop-color="#fff"
         offset="0"
         id="stop38" /><stop
         stop-color="#fff"
         stop-opacity="0"
         offset="1"
         id="stop39" /></linearGradient><linearGradient
       id="Z"
       y2="137.2"
       gradientUnits="userSpaceOnUse"
       y1="29.815"
       gradientTransform="matrix(-.50295 .1984 .1972 -.43254 276.16 123.42)"
       x2="179.96"
       x1="126.64"><stop
         stop-color="#fff"
         offset="0"
         id="stop40" /><stop
         stop-color="#fff"
         stop-opacity="0"
         offset="1"
         id="stop41" /></linearGradient><linearGradient
       id="G"
       y2="-213.25"
       gradientUnits="userSpaceOnUse"
       x2="9"
       gradientTransform="translate(0 192)"
       y1="72.064"
       x1="210.17"><stop
         offset="0"
         id="stop42" /><stop
         stop-opacity="0"
         offset="1"
         id="stop43" /></linearGradient><linearGradient
       id="h"
       y2="4.302"
       gradientUnits="userSpaceOnUse"
       x2="122"
       y1="245.45"
       x1="122"><stop
         offset="0"
         id="stop44" /><stop
         stop-opacity="0"
         offset="1"
         id="stop45" /></linearGradient><linearGradient
       id="e"
       y2="-213.25"
       gradientUnits="userSpaceOnUse"
       x2="9"
       gradientTransform="matrix(1 -.08088 0 1 0 203.06)"
       y1="72.064"
       x1="210.17"><stop
         offset="0"
         id="stop46" /><stop
         stop-opacity="0"
         offset="1"
         id="stop47" /></linearGradient><clipPath
       id="j"
       clipPathUnits="userSpaceOnUse"><path
         fill="#ceeeab"
         d="M9 12.25s7.5 13 11.75 27.75S27 65.5 27 65.5s-5.5 12.75-8.25 24.75-5.75 23-5.75 23 5.75 16 9.25 30S26 167.5 26 167.5s-4 10.25-7.5 24.25-5 30.75-5 30.75 9.25-2 28.5 1.25 32.25 6 32.25 6 12.75-2.75 24-6.25 16.25-6.5 16.25-6.5 5.5.5 22.5 6.25 29.25 8.5 29.25 8.5 13-2.75 26-5.75 26.5-8 26.5-8-.75-5 4.25-24.5 8.75-28 8.75-28-.5-4.5-3.75-19.75S218 116 218 116s1.75-10.5 6.75-23.75S235 65.5 235 65.5s-4.75-15.25-7.5-29.75S219.25 10 219.25 10 195 19 187.5 20.5s-21 5.25-21 5.25-9.75-4.25-22-8.5-29.75-5.5-29.75-5.5-3.25 3.5-22 8-27.5 5.75-27.5 5.75-18.5-9-31.5-11.5-24-2-24.75-1.75z"
         id="path47" /></clipPath><clipPath
       id="k"
       clipPathUnits="userSpaceOnUse"><path
         fill="#ceeeab"
         d="M9 12.25s7.5 13 11.75 27.75S27 65.5 27 65.5s-5.5 12.75-8.25 24.75-5.75 23-5.75 23 5.75 16 9.25 30S26 167.5 26 167.5s-4 10.25-7.5 24.25-5 30.75-5 30.75 9.25-2 28.5 1.25 32.25 6 32.25 6 12.75-2.75 24-6.25 16.25-6.5 16.25-6.5 5.5.5 22.5 6.25 29.25 8.5 29.25 8.5 13-2.75 26-5.75 26.5-8 26.5-8-.75-5 4.25-24.5 8.75-28 8.75-28-.5-4.5-3.75-19.75S218 116 218 116s1.75-10.5 6.75-23.75S235 65.5 235 65.5s-4.75-15.25-7.5-29.75S219.25 10 219.25 10 195 19 187.5 20.5s-21 5.25-21 5.25-9.75-4.25-22-8.5-29.75-5.5-29.75-5.5-3.25 3.5-22 8-27.5 5.75-27.5 5.75-18.5-9-31.5-11.5-24-2-24.75-1.75z"
         id="path48" /></clipPath><clipPath
       id="i"
       clipPathUnits="userSpaceOnUse"><path
         fill="#ceeeab"
         d="M9 12.25s7.5 13 11.75 27.75S27 65.5 27 65.5s-5.5 12.75-8.25 24.75-5.75 23-5.75 23 5.75 16 9.25 30S26 167.5 26 167.5s-4 10.25-7.5 24.25-5 30.75-5 30.75 9.25-2 28.5 1.25 32.25 6 32.25 6 12.75-2.75 24-6.25 16.25-6.5 16.25-6.5 5.5.5 22.5 6.25 29.25 8.5 29.25 8.5 13-2.75 26-5.75 26.5-8 26.5-8-.75-5 4.25-24.5 8.75-28 8.75-28-.5-4.5-3.75-19.75S218 116 218 116s1.75-10.5 6.75-23.75S235 65.5 235 65.5s-4.75-15.25-7.5-29.75S219.25 10 219.25 10 195 19 187.5 20.5s-21 5.25-21 5.25-9.75-4.25-22-8.5-29.75-5.5-29.75-5.5-3.25 3.5-22 8-27.5 5.75-27.5 5.75-18.5-9-31.5-11.5-24-2-24.75-1.75z"
         id="path49" /></clipPath><clipPath
       id="D"
       clipPathUnits="userSpaceOnUse"><path
         fill="#ceeeab"
         d="M9 12.25s7.5 13 11.75 27.75S27 65.5 27 65.5s-5.5 12.75-8.25 24.75-5.75 23-5.75 23 5.75 16 9.25 30S26 167.5 26 167.5s-4 10.25-7.5 24.25-5 30.75-5 30.75 9.25-2 28.5 1.25 32.25 6 32.25 6 12.75-2.75 24-6.25 16.25-6.5 16.25-6.5 5.5.5 22.5 6.25 29.25 8.5 29.25 8.5 13-2.75 26-5.75 26.5-8 26.5-8-.75-5 4.25-24.5 8.75-28 8.75-28-.5-4.5-3.75-19.75S218 116 218 116s1.75-10.5 6.75-23.75S235 65.5 235 65.5s-4.75-15.25-7.5-29.75S219.25 10 219.25 10 195 19 187.5 20.5s-21 5.25-21 5.25-9.75-4.25-22-8.5-29.75-5.5-29.75-5.5-3.25 3.5-22 8-27.5 5.75-27.5 5.75-18.5-9-31.5-11.5-24-2-24.75-1.75z"
         id="path50" /></clipPath><clipPath
       id="E"
       clipPathUnits="userSpaceOnUse"><path
         fill="#ceeeab"
         d="M9 12.25s7.5 13 11.75 27.75S27 65.5 27 65.5s-5.5 12.75-8.25 24.75-5.75 23-5.75 23 5.75 16 9.25 30S26 167.5 26 167.5s-4 10.25-7.5 24.25-5 30.75-5 30.75 9.25-2 28.5 1.25 32.25 6 32.25 6 12.75-2.75 24-6.25 16.25-6.5 16.25-6.5 5.5.5 22.5 6.25 29.25 8.5 29.25 8.5 13-2.75 26-5.75 26.5-8 26.5-8-.75-5 4.25-24.5 8.75-28 8.75-28-.5-4.5-3.75-19.75S218 116 218 116s1.75-10.5 6.75-23.75S235 65.5 235 65.5s-4.75-15.25-7.5-29.75S219.25 10 219.25 10 195 19 187.5 20.5s-21 5.25-21 5.25-9.75-4.25-22-8.5-29.75-5.5-29.75-5.5-3.25 3.5-22 8-27.5 5.75-27.5 5.75-18.5-9-31.5-11.5-24-2-24.75-1.75z"
         id="path51" /></clipPath><clipPath
       id="F"
       clipPathUnits="userSpaceOnUse"><path
         fill="#ceeeab"
         d="M9 12.25s7.5 13 11.75 27.75S27 65.5 27 65.5s-5.5 12.75-8.25 24.75-5.75 23-5.75 23 5.75 16 9.25 30S26 167.5 26 167.5s-4 10.25-7.5 24.25-5 30.75-5 30.75 9.25-2 28.5 1.25 32.25 6 32.25 6 12.75-2.75 24-6.25 16.25-6.5 16.25-6.5 5.5.5 22.5 6.25 29.25 8.5 29.25 8.5 13-2.75 26-5.75 26.5-8 26.5-8-.75-5 4.25-24.5 8.75-28 8.75-28-.5-4.5-3.75-19.75S218 116 218 116s1.75-10.5 6.75-23.75S235 65.5 235 65.5s-4.75-15.25-7.5-29.75S219.25 10 219.25 10 195 19 187.5 20.5s-21 5.25-21 5.25-9.75-4.25-22-8.5-29.75-5.5-29.75-5.5-3.25 3.5-22 8-27.5 5.75-27.5 5.75-18.5-9-31.5-11.5-24-2-24.75-1.75z"
         id="path52" /></clipPath><clipPath
       id="C"
       clipPathUnits="userSpaceOnUse"><path
         d="M123.62 141.06c20.832 20.243 54.607 19.289 75.439-2.132s20.832-55.196 0-75.439-54.607-19.289-75.439 2.132-20.832 55.196 0 75.439z"
         fill="url(#d)"
         id="path53" /></clipPath><clipPath
       id="H"
       clipPathUnits="userSpaceOnUse"><path
         opacity=".039"
         d="M9 22.578s7.5 12.393 11.75 26.8C25 63.784 27 74.373 27 74.373s-5.5 13.195-8.25 25.417C16 112.01 13 123.25 13 123.25s5.75 15.535 9.25 29.252S26 176.449 26 176.449s-4 10.574-7.5 24.857-5 31.154-5 31.154 9.25-2.748 28.5-1.055 32.25 3.392 32.25 3.392 12.75-3.782 24-8.191 16.25-7.815 16.25-7.815 5.5.055 22.5 4.43c17 4.376 29.25 6.135 29.25 6.135s13-3.802 26-7.853 26.5-10.143 26.5-10.143-.75-4.94 4.25-24.844 8.75-28.708 8.75-28.708-.514-4.455-3.75-19.447c-1.75-8.108-2.25-4.068-2.25-4.068s16.264-26.155 16.5-40.334c.25-15.02-7.25-36.413-7.25-36.413s-4.75-14.866-7.5-29.143c-2.75-14.278-8.25-25.083-8.25-25.083S195 14.281 187.5 16.388c-7.5 2.107-21 6.948-21 6.948s-9.75-3.461-22-6.72c-12.25-3.26-29.75-3.094-29.75-3.094s-3.25 3.763-22 9.78c-18.75 6.016-27.5 7.973-27.5 7.973s-18.5-7.504-31.5-8.952-24-.06-24.75.252z"
         fill="url(#e)"
         id="path54" /></clipPath><radialGradient
       id="K"
       gradientUnits="userSpaceOnUse"
       cy="86"
       cx="128"
       gradientTransform="matrix(1.0213 0 0 -1.0213 -212.72 173.83)"
       r="47"><stop
         stop-color="#d0e9f2"
         stop-opacity="0"
         offset="0"
         id="stop54" /><stop
         stop-color="#d0e9f2"
         stop-opacity="0"
         offset=".839"
         id="stop55" /><stop
         stop-color="#d0e9f2"
         stop-opacity=".282"
         offset=".943"
         id="stop56" /><stop
         stop-color="#d0e9f2"
         offset="1"
         id="stop57" /></radialGradient><radialGradient
       id="Q"
       gradientUnits="userSpaceOnUse"
       cy="86"
       cx="128"
       gradientTransform="scale(1.4216 -1.4216) rotate(-45 -51.091 19.464)"
       r="47"><stop
         stop-color="#d0e9f2"
         stop-opacity="0"
         offset="0"
         id="stop58" /><stop
         stop-color="#d0e9f2"
         stop-opacity="0"
         offset=".839"
         id="stop59" /><stop
         stop-color="#d0e9f2"
         stop-opacity=".282"
         offset=".943"
         id="stop60" /><stop
         stop-color="#d0e9f2"
         offset="1"
         id="stop61" /></radialGradient><radialGradient
       id="Y"
       gradientUnits="userSpaceOnUse"
       cy="72.588"
       cx="159.61"
       gradientTransform="matrix(1.2125 0 0 .83915 -46.348 24.528)"
       r="38.417"><stop
         stop-color="#fff"
         offset="0"
         id="stop62" /><stop
         stop-color="#fff"
         stop-opacity=".93"
         offset=".5"
         id="stop63" /><stop
         stop-color="#fff"
         stop-opacity="0"
         offset="1"
         id="stop64" /></radialGradient><radialGradient
       id="X"
       gradientUnits="userSpaceOnUse"
       cx="159.61"
       cy="72.588"
       r="38.417"
       gradientTransform="matrix(1.2125 0 0 .83915 -45.92 25.814)"><stop
         stop-color="#fff"
         offset="0"
         id="stop65" /><stop
         stop-color="#fff"
         stop-opacity="0"
         offset="1"
         id="stop66" /></radialGradient><radialGradient
       id="d"
       gradientUnits="userSpaceOnUse"
       cy="86"
       cx="128"
       gradientTransform="matrix(.80254 .77986 .80254 -.82522 -10.402 73.423)"
       r="47"><stop
         stop-color="#d0e9f2"
         stop-opacity="0"
         offset="0"
         id="stop67" /><stop
         stop-color="#d0e9f2"
         stop-opacity="0"
         offset=".839"
         id="stop68" /><stop
         stop-color="#d0e9f2"
         stop-opacity=".282"
         offset=".943"
         id="stop69" /><stop
         stop-color="#d0e9f2"
         offset="1"
         id="stop70" /></radialGradient><filter
       id="I"
       x="-0.04800092"
       y="-0.048001122"
       width="1.0960018"
       height="1.0960022"><feGaussianBlur
         stdDeviation="4.287"
         id="feGaussianBlur70" /></filter><filter
       id="f"
       x="-0.070663352"
       y="-0.070663648"
       width="1.1413267"
       height="1.1413273"><feGaussianBlur
         stdDeviation="6.311"
         id="feGaussianBlur71" /></filter><filter
       id="g"
       x="-0.047330971"
       y="-0.048677131"
       width="1.0946619"
       height="1.0973543"><feGaussianBlur
         stdDeviation="4.457"
         id="feGaussianBlur72" /></filter></defs><rect
     style="opacity:1;fill:#31567a;fill-opacity:1;stroke:none;stroke-width:7.36168;stroke-linecap:round;stroke-linejoin:round;stroke-dasharray:none;stroke-opacity:1"
     id="rect5"
     width="241.06491"
     height="215.97249"
     x="14.93506"
     y="40.027493"
     ry="38.221939" /><g
     id="g4"
     transform="matrix(1.1078102,0,0,1.1078102,574.09653,179.45069)"><path
       style="opacity:1;fill:#ff0000;fill-opacity:1;stroke:none;stroke-width:15;stroke-linecap:round;stroke-linejoin:round;stroke-dasharray:none;stroke-opacity:1"
       d="m -511.644,-148.32168 c 33.22835,-10.97426 66.4567,-11.82799 99.68505,0 4.30258,55.215262 -12.13016,90.939333 -49.29822,107.172195 -54.45306,-25.08799 -47.94233,-67.394765 -50.38683,-107.172195 z"
       id="path3"
       sodipodi:nodetypes="cccc" /><path
       id="rect4"
       style="opacity:1;fill:#ffffff;fill-opacity:1;stroke:none;stroke-width:15;stroke-linecap:round;stroke-linejoin:round;stroke-dasharray:none;stroke-opacity:1"
       d="m -472.14258,-140.42969 v 24.72657 h -24.72656 v 20.839839 h 24.72656 v 24.726562 h 20.83789 v -24.726562 h 24.72657 v -20.839839 h -24.72657 v -24.72657 z" /></g><g
     id="g6"
     transform="matrix(1.0576035,0,0,1.1405259,-23.386546,-14.006176)"><path
       style="fill:#ffffff;fill-opacity:1;stroke-width:24.6529;stroke-linecap:round;stroke-linejoin:round"
       d="m 76.080214,227.74185 102.446316,0.28537 c 36.76463,0 47.75122,-77.80975 -16.26584,-69.91462 -9.22684,-54.02927 -90.508525,-38.95244 -78.190234,13.12682 -39.760967,-10.22561 -52.982919,56.7878 -7.990242,56.50243 z"
       id="path1"
       sodipodi:nodetypes="ccccc" /><g
       id="g5"><path
         id="path1-6"
         style="fill:#f9ca1d;fill-opacity:1;stroke-width:24.6529;stroke-linecap:round;stroke-linejoin:round"
         d="m 183.2357,100.20162 c -14.6151,-2.9e-4 -27.85737,8.61282 -33.78248,21.97299 8.37296,5.19582 15.50041,13.38501 19.56675,24.77077 19.97443,-0.0623 32.55463,7.40857 39.15122,17.48615 7.65741,-7.00122 12.01888,-16.89899 12.01856,-27.27459 2.5e-4,-20.40947 -16.54459,-36.95487 -36.95405,-36.95532 z m -36.95533,36.95532 c -1.4e-4,-5.16087 -3.8e-4,32.45448 0,0 z"
         sodipodi:nodetypes="sccccscc" /><path
         style="opacity:1;fill:#f9ca1d;fill-opacity:1;stroke:#f9ca1d;stroke-width:9.73145;stroke-linecap:round;stroke-linejoin:round;stroke-dasharray:none;stroke-opacity:1"
         d="M 147.56435,102.46625 135.4363,91.194306"
         id="path2" /><path
         style="opacity:1;fill:#f9ca1d;fill-opacity:1;stroke:#f9ca1d;stroke-width:9.73145;stroke-linecap:round;stroke-linejoin:round;stroke-dasharray:none;stroke-opacity:1"
         d="M 181.50169,87.414324 181.35901,70.934448"
         id="path2-5"
         sodipodi:nodetypes="cc" /><path
         style="opacity:1;fill:#f9ca1d;fill-opacity:1;stroke:#f9ca1d;stroke-width:9.73145;stroke-linecap:round;stroke-linejoin:round;stroke-dasharray:none;stroke-opacity:1"
         d="M 218.31166,100.47204 229.59058,88.796521"
         id="path2-5-5"
         sodipodi:nodetypes="cc" /><path
         style="opacity:1;fill:#f9ca1d;fill-opacity:1;stroke:#f9ca1d;stroke-width:9.73145;stroke-linecap:round;stroke-linejoin:round;stroke-dasharray:none;stroke-opacity:1"
         d="m 233.60005,134.27578 17.53422,0.028"
         id="path2-5-2"
         sodipodi:nodetypes="cc" /><path
         style="opacity:1;fill:#f9ca1d;fill-opacity:1;stroke:#f9ca1d;stroke-width:9.73145;stroke-linecap:round;stroke-linejoin:round;stroke-dasharray:none;stroke-opacity:1"
         d="M 232.18757,181.74541 220.05953,170.47346"
         id="path2-5-1" /></g></g><rect
     style="opacity:1;fill:#31567a;fill-opacity:1;stroke:none;stroke-width:15;stroke-linecap:round;stroke-linejoin:round;stroke-dasharray:none;stroke-opacity:1"
     id="rect6"
     width="3.4037201"
     height="0.43986255"
     x="117.00343"
     y="-58.061855"
     ry="0.21993127" /></svg>
