<?xml version="1.0" encoding="UTF-8" standalone="no"?>
<svg
   viewBox="0 0 256 256"
   version="1.1"
   id="svg8"
   sodipodi:docname="meteocons.svg"
   width="256"
   height="256"
   inkscape:version="1.4.3 (0d15f75042, 2025-12-25)"
   inkscape:export-filename="../meteocons.png"
   inkscape:export-xdpi="96"
   inkscape:export-ydpi="96"
   xmlns:inkscape="http://www.inkscape.org/namespaces/inkscape"
   xmlns:sodipodi="http://sodipodi.sourceforge.net/DTD/sodipodi-0.dtd"
   xmlns="http://www.w3.org/2000/svg"
   xmlns:svg="http://www.w3.org/2000/svg">
  <sodipodi:namedview
     id="namedview8"
     pagecolor="#ffffff"
     bordercolor="#000000"
     borderopacity="0.25"
     inkscape:showpageshadow="2"
     inkscape:pageopacity="0.0"
     inkscape:pagecheckerboard="0"
     inkscape:deskcolor="#d1d1d1"
     inkscape:zoom="1.3809524"
     inkscape:cx="172.7069"
     inkscape:cy="131.06897"
     inkscape:window-width="2560"
     inkscape:window-height="1375"
     inkscape:window-x="2240"
     inkscape:window-y="0"
     inkscape:window-maximized="1"
     inkscape:current-layer="svg8" />
  <defs
     id="defs7">
    <linearGradient
       id="b"
       x1="361"
       y1="421"
       x2="361"
       y2="1"
       gradientUnits="userSpaceOnUse">
      <stop
         offset="0"
         stop-color="#f8fafc"
         id="stop1" />
      <stop
         offset="1"
         stop-color="#fff"
         id="stop2" />
    </linearGradient>
    <linearGradient
       id="d"
       x1="332"
       y1="161.49001"
       x2="388"
       y2="258.51001"
       gradientUnits="userSpaceOnUse">
      <stop
         offset="0"
         stop-color="#fbbf24"
         id="stop3" />
      <stop
         offset=".45"
         stop-color="#fbbf24"
         id="stop4" />
      <stop
         offset="1"
         stop-color="#f59e0b"
         id="stop5" />
    </linearGradient>
    <clipPath
       id="a">
      <path
         fill="none"
         d="M 1,1 H 721 V 421 H 1 Z"
         id="path5" />
    </clipPath>
    <symbol
       id="c"
       viewBox="0 0 722 422">
      <g
         clip-path="url(#a)"
         id="g7">
        <path
           fill="url(#b)"
           d="M 1,1 H 721 V 421 H 1 Z"
           id="path6" />
        <path
           fill="none"
           stroke="#f8fafc"
           stroke-miterlimit="10"
           stroke-width="2"
           d="M 1,1 H 61 V 61 H 1 Z m 60,0 h 60 V 61 H 61 Z m 60,0 h 60 v 60 h -60 z m 60,0 h 60 v 60 h -60 z m 60,0 h 60 v 60 h -60 z m 60,0 h 60 v 60 h -60 z m 60,0 h 60 v 60 h -60 z m 60,0 h 60 v 60 h -60 z m 60,0 h 60 v 60 h -60 z m 60,0 h 60 v 60 h -60 z m 60,0 h 60 v 60 h -60 z m 60,0 h 60 V 61 H 661 Z M 1,61 h 60 v 60 H 1 Z m 60,0 h 60 v 60 H 61 Z m 60,0 h 60 v 60 h -60 z m 60,0 h 60 v 60 h -60 z m 60,0 h 60 v 60 h -60 z m 60,0 h 60 v 60 h -60 z m 60,0 h 60 v 60 h -60 z m 60,0 h 60 v 60 h -60 z m 60,0 h 60 v 60 h -60 z m 60,0 h 60 v 60 h -60 z m 60,0 h 60 v 60 h -60 z m 60,0 h 60 v 60 H 661 Z M 1,121 h 60 v 60 H 1 Z m 60,0 h 60 v 60 H 61 Z m 60,0 h 60 v 60 h -60 z m 60,0 h 60 v 60 h -60 z m 60,0 h 60 v 60 h -60 z m 60,0 h 60 v 60 h -60 z m 60,0 h 60 v 60 h -60 z m 60,0 h 60 v 60 h -60 z m 60,0 h 60 v 60 h -60 z m 60,0 h 60 v 60 h -60 z m 60,0 h 60 v 60 h -60 z m 60,0 h 60 v 60 H 661 Z M 1,181 h 60 v 60 H 1 Z m 60,0 h 60 v 60 H 61 Z m 60,0 h 60 v 60 h -60 z m 60,0 h 60 v 60 h -60 z m 60,0 h 60 v 60 h -60 z m 60,0 h 60 v 60 h -60 z m 60,0 h 60 v 60 h -60 z m 60,0 h 60 v 60 h -60 z m 60,0 h 60 v 60 h -60 z m 60,0 h 60 v 60 h -60 z m 60,0 h 60 v 60 h -60 z m 60,0 h 60 v 60 H 661 Z M 1,241 h 60 v 60 H 1 Z m 60,0 h 60 v 60 H 61 Z m 60,0 h 60 v 60 h -60 z m 60,0 h 60 v 60 h -60 z m 60,0 h 60 v 60 h -60 z m 60,0 h 60 v 60 h -60 z m 60,0 h 60 v 60 h -60 z m 60,0 h 60 v 60 h -60 z m 60,0 h 60 v 60 h -60 z m 60,0 h 60 v 60 h -60 z m 60,0 h 60 v 60 h -60 z m 60,0 h 60 v 60 H 661 Z M 1,301 h 60 v 60 H 1 Z m 60,0 h 60 v 60 H 61 Z m 60,0 h 60 v 60 h -60 z m 60,0 h 60 v 60 h -60 z m 60,0 h 60 v 60 h -60 z m 60,0 h 60 v 60 h -60 z m 60,0 h 60 v 60 h -60 z m 60,0 h 60 v 60 h -60 z m 60,0 h 60 v 60 h -60 z m 60,0 h 60 v 60 h -60 z m 60,0 h 60 v 60 h -60 z m 60,0 h 60 v 60 H 661 Z M 1,361 h 60 v 60 H 1 Z m 60,0 h 60 v 60 H 61 Z m 60,0 h 60 v 60 h -60 z m 60,0 h 60 v 60 h -60 z m 60,0 h 60 v 60 h -60 z m 60,0 h 60 v 60 h -60 z m 60,0 h 60 v 60 h -60 z m 60,0 h 60 v 60 h -60 z m 60,0 h 60 v 60 h -60 z m 60,0 h 60 v 60 h -60 z m 60,0 h 60 v 60 h -60 z m 60,0 h 60 v 60 h -60 z"
           id="path7" />
        <rect
           x="16"
           y="16"
           width="690"
           height="390"
           rx="18"
           ry="18"
           fill="none"
           stroke="#f8fafc"
           stroke-miterlimit="10"
           stroke-width="2"
           id="rect7" />
      </g>
    </symbol>
  </defs>
  <g
     stroke-miterlimit="10"
     id="g8"
     transform="translate(-232.01,-82)">
    <circle
       cx="360"
       cy="210"
       r="56"
       fill="url(#d)"
       stroke="#f8af18"
       stroke-width="3"
       id="circle7"
       style="fill:url(#d)" />
    <path
       d="M 360,123.1 V 90 m 0,240 v -33.1 m 61.45,-148.34 23.41,-23.41 m -169.71,169.71 23.41,-23.41 m 0,-122.89 -23.41,-23.41 M 444.86,294.86 421.45,271.45 M 273.11,210 h -33.1 m 240,0 h -33.1"
       fill="none"
       stroke="#fbbf24"
       stroke-linecap="round"
       stroke-width="12"
       id="path8" />
  </g>
</svg>
