<svg xmlns="http://www.w3.org/2000/svg" viewBox="0 0 512 512" width="48" height="48"><path fill="#d2ea7b" d="M259.638 490.915c-65.083 0-104.511-14.982-104.511-50.043 0-17.53-1.02-30.778 19.385-41.77S223.459 381.5 256 381.5c65.083 0 114.162 26.439 114.162 61.5 0 4.816-.926 9.469-2.692 13.914-11.093 27.911-51.689 34.001-107.832 34.001"/><path fill="#c4e456" d="M367.46 456.91C356.38 484.82 312.14 504.5 256 504.5c-65.08 0-114.16-26.44-114.16-61.5 0-17.54 12.28-32.91 32.7-43.91-1.77 4.44-2.7 9.1-2.7 13.91 0 35.06 49.08 61.5 114.16 61.5 32.53 0 61.06-6.61 81.46-17.59"/><path fill="#f8f7f7" d="M235 150.5h42v266.848a10 10 0 0 1-1.808 5.735l-15.096 21.566c-1.991 2.844-6.202 2.844-8.192 0l-15.096-21.566a10 10 0 0 1-1.808-5.735L243.298 287z"/><path fill="#ebebeb" d="M277 189.32V150.5h-42v266.85c0 2.05.63 4.05 1.81 5.73l15.09 21.57c1.99 2.84 6.21 2.84 8.2 0l5.9-8.43-9.19-13.14a9.97 9.97 0 0 1-1.81-5.73V195.274a3.994 3.994 0 0 1 3.743-3.992c4.94-.309 13.551-.969 18.257-1.962"/><path fill="#f5de46" d="M338 89.5c0 17.536-5.504 33.786-14.88 47.117-14.837 21.097-39.369 30.042-67.12 30.042-45.287 0-76.532-34.117-76.532-79.404 0-27.751 8.318-50.038 29.415-64.875C222.214 13.004 238.464 7.5 256 7.5c45.287 0 82 36.713 82 82"/><g fill="#f3d332"><path d="M323.11 136.61c-14.82 21.1-39.36 34.89-67.11 34.89-45.29 0-82-36.71-82-82 0-27.75 13.79-52.29 34.89-67.11C199.5 35.72 194 51.97 194 69.5c0 45.29 36.71 82 82 82 17.53 0 33.78-5.5 47.11-14.89"/><circle cx="256" cy="89.5" r="42"/></g><path d="M284.5 375.718v-90.333a7.5 7.5 0 0 0-15 0v131.962c0 .516-.156 1.012-.452 1.434L256 437.422l-13.048-18.64a2.5 2.5 0 0 1-.452-1.434V177.983c4.404.669 8.912 1.017 13.5 1.017s9.096-.348 13.5-1.017v72.187a7.5 7.5 0 0 0 15 0v-75.823c35.42-11.929 61-45.456 61-84.847C345.5 40.149 305.351 0 256 0c-24.487 0-47.346 9.7-64.366 27.312a7.5 7.5 0 0 0 10.786 10.424C216.589 23.074 235.617 15 256 15c41.08 0 74.5 33.42 74.5 74.5S297.08 164 256 164s-74.5-33.42-74.5-74.5c0-8.476 1.41-16.787 4.191-24.704a7.5 7.5 0 1 0-14.152-4.972c-3.344 9.518-5.039 19.502-5.039 29.675 0 39.391 25.58 72.918 61 84.847v201.371c-55.979 6.906-93.162 33.534-93.162 67.283 0 15.443 7.85 29.78 22.701 41.462 2.009 1.662 7.034 2.666 10.532-1.258a7.5 7.5 0 0 0-1.258-10.532c-7.744-6.091-16.975-16.183-16.975-29.672 0-25.052 31.781-45.971 78.162-52.148v26.496c0 3.609 1.094 7.079 3.164 10.036l15.096 21.567c4.065 5.976 15.024 7.684 20.48-.001l15.097-21.566a17.4 17.4 0 0 0 3.163-10.036v-26.5c46.42 6.171 78.162 27.041 78.162 52.152 0 30.28-46.852 54-106.662 54-21.843 0-42.597-3.118-60.018-9.018a7.497 7.497 0 0 0-9.509 4.698 7.5 7.5 0 0 0 4.698 9.509C210.123 508.607 232.54 512 256 512c32.697 0 62.899-6.57 85.044-18.5 23.613-12.721 36.618-30.655 36.618-50.5 0-33.814-37.147-60.382-93.162-67.282"/><path d="M305.5 89.5c0-27.294-22.206-49.5-49.5-49.5s-49.5 22.206-49.5 49.5S228.706 139 256 139s49.5-22.206 49.5-49.5m-84 0c0-19.023 15.477-34.5 34.5-34.5s34.5 15.477 34.5 34.5S275.023 124 256 124s-34.5-15.477-34.5-34.5"/></svg>
