<?xml version="1.0" encoding="UTF-8" standalone="no"?>
<svg

   height="48"
   viewBox="0 0 24 24"
   width="48"
   version="1.1"




   xmlns="http://www.w3.org/2000/svg"
   xmlns:svg="http://www.w3.org/2000/svg">
  <defs
     />

  <g

     transform="matrix(0.08961062,0,0,0.08961062,0.52985397,0.52331156)">
    <g
      >
      <g
        >
        <g
          >
          <path
             d="m 185.231,149.801 v -10.54 l -58.56,-26.68 -58.56,26.68 v 10.54 H 3.991 l 28.41,-60.1 c 1.16,-2.44 4.97,-2.88 6.83,-0.78 l 14.26,16.13 c 1.99,2.25 6.12,1.56 6.99,-1.16 l 17.65,-55.79 c 1.04,-3.29 6.44,-3.36 7.61,-0.11 l 14.14,39.32 h -24.32 c -0.69,0 -1.25,0.56 -1.25,1.24 v 8.34 c 0,0.7 0.56,1.25 1.25,1.25 h 30.15 c 0.7,0 1.25,-0.55 1.25,-1.25 v -2.55 c 0.94,-0.33 1.75,-0.98 2.17,-1.95 l 16.89,-38.57 c 1.06,-2.44 4.79,-2.98 6.74,-0.99 l 14.29,14.6 c 2.02,2.07 5.91,1.39 6.82,-1.2 l 17.34,-48.87 c 1.14,-3.24 6.5,-3.21 7.59,0.04 l 17.93,53.1 c 0.8,2.37 4.18,3.24 6.37,1.65 l 13.99,-10.17 c 2.2,-1.59 5.58,-0.71 6.37,1.67 l 28.55,86.15 z"
             fill="currentColor"
             />
        </g>
        <g
          >
          <path
             d="m 104.368,98.136 v 10.168 L 76.9,120.825 V 98.136 Z"
             fill="currentColor"
             />
        </g>
        <g
          >
          <path
             d="m 76.9,98.136 h 27.468 v 9.185 H 76.9 Z"
             fill="currentColor"
             />
        </g>
        <g
          >
          <path
             d="M 185.231,139.261 V 227.42 H 68.111 v -88.159 l 58.56,-26.681 z"
             fill="currentColor"
             />
        </g>
        <g
          >
          <path
             d="m 185.231,139.261 v 7.699 l -58.56,-26.69 -58.56,26.681 v -7.69 l 58.56,-26.681 z"
             fill="currentColor"
             />
        </g>
        <g
          >
          <g
            >
            <path
               d="m 198.134,133.606 -3.261,7.156 c -0.597,1.319 -2.153,1.905 -3.472,1.307 l -6.173,-2.813 -58.557,-26.684 -58.557,26.684 -6.173,2.813 c -1.319,0.597 -2.875,0.012 -3.472,-1.307 l -3.261,-7.156 c -0.61,-1.319 -0.025,-2.874 1.294,-3.485 l 20.399,-9.297 27.468,-12.521 22.303,-10.168 70.169,31.986 c 1.318,0.611 1.903,2.167 1.293,3.485 z"
               fill="currentColor"
               />
          </g>
        </g>
        <g
          >
          <path
             d="m 97.709,159.951 h -11.35 c -1.657,0 -3,-1.343 -3,-3 V 145.6 c 0,-1.657 1.343,-3 3,-3 h 11.35 c 1.657,0 3,1.343 3,3 v 11.35 c 0,1.658 -1.343,3.001 -3,3.001 z"
             fill="currentColor"
             />
        </g>
        <g
          >
          <path
             d="m 132.346,159.951 h -11.35 c -1.657,0 -3,-1.343 -3,-3 V 145.6 c 0,-1.657 1.343,-3 3,-3 h 11.35 c 1.657,0 3,1.343 3,3 v 11.35 c 0,1.658 -1.343,3.001 -3,3.001 z"
             fill="currentColor"
             />
        </g>
        <g
          >
          <path
             d="m 166.983,159.951 h -11.35 c -1.657,0 -3,-1.343 -3,-3 V 145.6 c 0,-1.657 1.343,-3 3,-3 h 11.35 c 1.657,0 3,1.343 3,3 v 11.35 c 0,1.658 -1.344,3.001 -3,3.001 z"
             fill="currentColor"
             />
        </g>
        <g
          >
          <path
             d="m 97.709,185.982 h -11.35 c -1.657,0 -3,-1.343 -3,-3 v -11.35 c 0,-1.657 1.343,-3 3,-3 h 11.35 c 1.657,0 3,1.343 3,3 v 11.35 c 0,1.657 -1.343,3 -3,3 z"
             fill="currentColor"
             />
        </g>
        <g
          >
          <path
             d="m 132.346,185.982 h -11.35 c -1.657,0 -3,-1.343 -3,-3 v -11.35 c 0,-1.657 1.343,-3 3,-3 h 11.35 c 1.657,0 3,1.343 3,3 v 11.35 c 0,1.657 -1.343,3 -3,3 z"
             fill="currentColor"
             />
        </g>
        <g
          >
          <path
             d="m 166.983,185.982 h -11.35 c -1.657,0 -3,-1.343 -3,-3 v -11.35 c 0,-1.657 1.343,-3 3,-3 h 11.35 c 1.657,0 3,1.343 3,3 v 11.35 c 0,1.657 -1.344,3 -3,3 z"
             fill="currentColor"
             />
        </g>
        <g
          >
          <path
             d="m 97.709,212.014 h -11.35 c -1.657,0 -3,-1.343 -3,-3 v -11.35 c 0,-1.657 1.343,-3 3,-3 h 11.35 c 1.657,0 3,1.343 3,3 v 11.35 c 0,1.657 -1.343,3 -3,3 z"
             fill="currentColor"
             />
        </g>
        <g
          >
          <path
             d="M 140.452,227.419 H 112.89 v -29.756 c 0,-1.657 1.343,-3 3,-3 h 21.562 c 1.657,0 3,1.343 3,3 z"
             fill="currentColor"
             />
        </g>
        <g
          >
          <path
             d="m 166.983,212.014 h -11.35 c -1.657,0 -3,-1.343 -3,-3 v -11.35 c 0,-1.657 1.343,-3 3,-3 h 11.35 c 1.657,0 3,1.343 3,3 v 11.35 c 0,1.657 -1.344,3 -3,3 z"
             fill="currentColor"
             />
        </g>
        <g
          >
          <path
             d="M 190.787,241.201 H 62.554 c -1.105,0 -2,-0.895 -2,-2 v -9.781 c 0,-1.105 0.895,-2 2,-2 h 128.233 c 1.105,0 2,0.895 2,2 v 9.781 c 0,1.104 -0.895,2 -2,2 z"
             fill="currentColor"
             />
        </g>
        <g
          >
          <path
             d="m 106.961,88.551 v 8.34 c 0,0.7 -0.55,1.25 -1.25,1.25 h -30.15 c -0.69,0 -1.25,-0.55 -1.25,-1.25 v -8.34 c 0,-0.68 0.56,-1.24 1.25,-1.24 h 30.15 c 0.7,-0.001 1.25,0.559 1.25,1.24 z"
             fill="currentColor"
             />
        </g>
        <g
          >
          <g
            >
            <g
              >
              <g
                >
                <path
                   d="m 19.081,226.23 h 11.68 v 14.97 h -11.68 z"
                   fill="currentColor"
                   />
              </g>
              <g
                >
                <path
                   d="m 19.081,226.23 h 11.68 v 7 h -11.68 z"
                   fill="currentColor"
                   />
              </g>
              <g
                >
                <path
                   d="M 41.65,226.232 H 8.192 c -1.042,0 -1.72,-1.097 -1.253,-2.029 l 8.487,-16.961 H 11.12 c -1.042,0 -1.719,-1.096 -1.254,-2.028 L 23.674,177.6 c 0.517,-1.033 1.991,-1.033 2.507,0 l 13.795,27.614 c 0.466,0.932 -0.212,2.028 -1.254,2.028 h -4.306 l 8.487,16.961 c 0.466,0.933 -0.211,2.029 -1.253,2.029 z"
                   fill="currentColor"
                   />
              </g>
            </g>
          </g>
          <g
            >
            <g
              >
              <g
                >
                <path
                   d="m 222.581,226.23 h 11.68 v 14.97 h -11.68 z"
                   fill="currentColor"
                   />
              </g>
              <g
                >
                <path
                   d="m 222.581,226.23 h 11.68 v 7 h -11.68 z"
                   fill="currentColor"
                   />
              </g>
              <g
                >
                <path
                   d="m 245.15,226.232 h -33.458 c -1.042,0 -1.72,-1.097 -1.253,-2.029 l 8.487,-16.961 h -4.305 c -1.042,0 -1.719,-1.096 -1.254,-2.028 L 227.174,177.6 c 0.517,-1.033 1.991,-1.033 2.507,0 l 13.795,27.614 c 0.465,0.932 -0.212,2.028 -1.254,2.028 h -4.306 l 8.487,16.961 c 0.466,0.933 -0.211,2.029 -1.253,2.029 z"
                   fill="currentColor"
                   />
              </g>
            </g>
          </g>
        </g>
      </g>
      <g
        >
        <g
          >
          <path
             d="m 104.499,41.353 c -1.81,-7.804 -4.475,-8.684 -8.163,-9.902 -2.303,-0.761 -2.309,-4.037 0,-4.8 3.543,-1.167 6.311,-1.922 8.164,-9.903 0.603,-2.601 4.322,-2.594 4.923,0 1.812,7.804 4.339,8.639 8.164,9.903 2.303,0.761 2.309,4.037 0,4.799 -6.353,2.099 -7.073,5.203 -8.163,9.902 -0.607,2.607 -4.32,2.606 -4.925,0.001 z"
             />
        </g>
        <g
          >
          <path
             d="m 110.865,29.112 c -1.82,1.24 -3.06,2.67 -3.96,4.18 -1.08,-1.92 -2.33,-3.24 -3.73,-4.22 1.34,-0.96 2.64,-2.32 3.78,-4.37 1.12,2.03 2.44,3.4 3.91,4.41 z"
             fill="currentColor"
             />
        </g>
      </g>
      <g
        >
        <g
          >
          <g
            >
            <path
               d="m 44.468,182.3 c -1.81,-7.804 -4.475,-8.684 -8.163,-9.902 -2.303,-0.761 -2.309,-4.037 0,-4.8 3.543,-1.167 6.311,-1.922 8.164,-9.903 0.603,-2.601 4.322,-2.594 4.923,0 1.812,7.804 4.339,8.639 8.164,9.903 2.303,0.761 2.309,4.037 0,4.799 -6.353,2.099 -7.073,5.203 -8.163,9.902 -0.606,2.607 -4.32,2.606 -4.925,0.001 z"
               />
          </g>
          <g
            >
            <path
               d="m 50.835,170.059 c -1.82,1.24 -3.06,2.67 -3.96,4.18 -1.08,-1.92 -2.33,-3.24 -3.73,-4.22 1.34,-0.96 2.64,-2.32 3.78,-4.37 1.12,2.03 2.44,3.4 3.91,4.41 z"
               fill="currentColor"
               />
          </g>
        </g>
        <g
          >
          <g
            >
            <path
               d="m 206.609,182.3 c -1.81,-7.804 -4.475,-8.684 -8.163,-9.902 -2.303,-0.761 -2.309,-4.037 0,-4.8 3.543,-1.167 6.311,-1.922 8.164,-9.903 0.603,-2.601 4.322,-2.594 4.923,0 1.812,7.804 4.339,8.639 8.164,9.903 2.303,0.761 2.309,4.037 0,4.799 -6.353,2.099 -7.073,5.203 -8.163,9.902 -0.606,2.607 -4.32,2.606 -4.925,0.001 z"
               />
          </g>
          <g
            >
            <path
               d="m 212.976,170.059 c -1.82,1.24 -3.06,2.67 -3.96,4.18 -1.08,-1.92 -2.33,-3.24 -3.73,-4.22 1.34,-0.96 2.64,-2.32 3.78,-4.37 1.12,2.03 2.44,3.4 3.91,4.41 z"
               fill="currentColor"
               />
          </g>
        </g>
      </g>
    </g>
    <g
      >
      <g
        >
        <path
           d="M 184.887,74.499 172.49,37.784 c -0.442,-1.309 0.26,-2.727 1.568,-3.168 1.312,-0.444 2.727,0.261 3.168,1.568 l 12.397,36.715 c 0.442,1.309 -0.26,2.727 -1.568,3.168 -1.314,0.445 -2.729,-0.266 -3.168,-1.568 z"
           fill="currentColor"
           />
      </g>
      <g
        >
        <path
           d="m 138.117,76.175 -8.283,-8.464 c -0.965,-0.987 -0.948,-2.57 0.038,-3.536 0.989,-0.964 2.569,-0.947 3.536,0.038 l 8.283,8.464 c 0.966,0.987 0.948,2.57 -0.038,3.536 -0.989,0.965 -2.569,0.949 -3.536,-0.038 z"
           fill="currentColor"
           />
      </g>
      <g
        >
        <path
           d="m 44.125,113.329 -8.421,-9.525 c -0.915,-1.035 -0.817,-2.615 0.217,-3.529 1.035,-0.913 2.615,-0.816 3.529,0.217 l 8.421,9.525 c 0.915,1.035 0.817,2.615 -0.217,3.529 -1.037,0.915 -2.615,0.816 -3.529,-0.217 z"
           fill="currentColor"
           />
      </g>
      <g
        >
        <path
           d="m 235.789,140.586 -0.943,-2.848 c -0.435,-1.311 0.276,-2.726 1.587,-3.159 1.315,-0.437 2.726,0.277 3.159,1.587 l 0.943,2.848 c 0.435,1.311 -0.276,2.726 -1.587,3.159 -1.3,0.433 -2.723,-0.268 -3.159,-1.587 z m -4.09,-12.34 -17.482,-52.753 c -0.435,-1.311 0.276,-2.725 1.587,-3.159 1.314,-0.437 2.726,0.277 3.159,1.587 l 17.482,52.753 c 0.435,1.311 -0.276,2.725 -1.587,3.159 -1.3,0.433 -2.722,-0.268 -3.159,-1.587 z"
           fill="currentColor"
           />
      </g>
      <g
        >
        <path
           d="m 83.305,78.155 -3.34,-9.289 c -0.467,-1.299 0.208,-2.731 1.506,-3.198 1.3,-0.468 2.731,0.206 3.199,1.507 l 3.34,9.289 c 0.467,1.299 -0.208,2.731 -1.506,3.198 -1.302,0.468 -2.733,-0.208 -3.199,-1.507 z"
           fill="currentColor"
           />
      </g>
    </g>
    <circle
       cx="185.23"
       cy="179.25999"
       r="2.5"
       />
    <path
       d="m 167.631,116.81 c 0.57,-1.26 0.01,-2.74 -1.24,-3.319 -1.22,-0.551 -2.76,0.029 -3.31,1.239 -0.57,1.261 -0.021,2.74 1.239,3.311 1.321,0.597 2.755,-0.039 3.311,-1.231 z"
       />
    <path
       d="m 103.209,145.601 c 0,-3.032 -2.467,-5.5 -5.5,-5.5 h -11.35 c -3.033,0 -5.5,2.468 -5.5,5.5 v 11.351 c 0,3.032 2.467,5.5 5.5,5.5 H 97.71 c 3.033,0 5.5,-2.468 5.5,-5.5 v -11.351 z m -5,11.35 c 0,0.275 -0.224,0.5 -0.5,0.5 h -11.35 c -0.276,0 -0.5,-0.225 -0.5,-0.5 V 145.6 c 0,-0.275 0.224,-0.5 0.5,-0.5 H 97.71 c 0.276,0 0.5,0.225 0.5,0.5 v 11.351 z"
       />
    <path
       d="m 137.845,145.601 c 0,-3.032 -2.468,-5.5 -5.5,-5.5 h -11.35 c -3.033,0 -5.5,2.468 -5.5,5.5 v 11.351 c 0,3.032 2.467,5.5 5.5,5.5 h 11.35 c 3.032,0 5.5,-2.468 5.5,-5.5 z m -5,11.35 c 0,0.275 -0.225,0.5 -0.5,0.5 h -11.35 c -0.276,0 -0.5,-0.225 -0.5,-0.5 V 145.6 c 0,-0.275 0.224,-0.5 0.5,-0.5 h 11.35 c 0.275,0 0.5,0.225 0.5,0.5 z"
       />
    <path
       d="m 172.482,145.601 c 0,-3.032 -2.468,-5.5 -5.5,-5.5 h -11.35 c -3.032,0 -5.5,2.468 -5.5,5.5 v 11.351 c 0,3.032 2.468,5.5 5.5,5.5 h 11.35 c 3.032,0 5.5,-2.468 5.5,-5.5 z m -5,11.35 c 0,0.275 -0.225,0.5 -0.5,0.5 h -11.35 c -0.275,0 -0.5,-0.225 -0.5,-0.5 V 145.6 c 0,-0.275 0.225,-0.5 0.5,-0.5 h 11.35 c 0.275,0 0.5,0.225 0.5,0.5 z"
       />
    <path
       d="m 103.209,171.632 c 0,-3.032 -2.467,-5.5 -5.5,-5.5 h -11.35 c -3.033,0 -5.5,2.468 -5.5,5.5 v 11.351 c 0,3.032 2.467,5.5 5.5,5.5 H 97.71 c 3.033,0 5.5,-2.468 5.5,-5.5 v -11.351 z m -5,11.35 c 0,0.275 -0.224,0.5 -0.5,0.5 h -11.35 c -0.276,0 -0.5,-0.225 -0.5,-0.5 v -11.351 c 0,-0.275 0.224,-0.5 0.5,-0.5 H 97.71 c 0.276,0 0.5,0.225 0.5,0.5 v 11.351 z"
       />
    <path
       d="m 132.345,166.132 h -11.35 c -3.033,0 -5.5,2.468 -5.5,5.5 v 11.351 c 0,3.032 2.467,5.5 5.5,5.5 h 11.35 c 3.032,0 5.5,-2.468 5.5,-5.5 v -11.351 c 0,-3.032 -2.467,-5.5 -5.5,-5.5 z m 0.5,16.85 c 0,0.275 -0.225,0.5 -0.5,0.5 h -11.35 c -0.276,0 -0.5,-0.225 -0.5,-0.5 v -11.351 c 0,-0.275 0.224,-0.5 0.5,-0.5 h 11.35 c 0.275,0 0.5,0.225 0.5,0.5 z"
       />
    <path
       d="m 172.482,171.632 c 0,-3.032 -2.468,-5.5 -5.5,-5.5 h -11.35 c -3.032,0 -5.5,2.468 -5.5,5.5 v 11.351 c 0,3.032 2.468,5.5 5.5,5.5 h 11.35 c 3.032,0 5.5,-2.468 5.5,-5.5 z m -5,11.35 c 0,0.275 -0.225,0.5 -0.5,0.5 h -11.35 c -0.275,0 -0.5,-0.225 -0.5,-0.5 v -11.351 c 0,-0.275 0.225,-0.5 0.5,-0.5 h 11.35 c 0.275,0 0.5,0.225 0.5,0.5 z"
       />
    <path
       d="m 97.709,192.164 h -11.35 c -3.033,0 -5.5,2.468 -5.5,5.5 v 11.35 c 0,3.032 2.467,5.5 5.5,5.5 H 97.71 c 3.033,0 5.5,-2.468 5.5,-5.5 v -11.35 c -10e-4,-3.032 -2.468,-5.5 -5.501,-5.5 z m 0.5,16.85 c 0,0.275 -0.224,0.5 -0.5,0.5 h -11.35 c -0.276,0 -0.5,-0.225 -0.5,-0.5 v -11.35 c 0,-0.275 0.224,-0.5 0.5,-0.5 H 97.71 c 0.276,0 0.5,0.225 0.5,0.5 v 11.35 z"
       />
    <path
       d="m 166.982,192.164 h -11.35 c -3.032,0 -5.5,2.468 -5.5,5.5 v 11.35 c 0,3.032 2.468,5.5 5.5,5.5 h 11.35 c 3.032,0 5.5,-2.468 5.5,-5.5 v -11.35 c 0,-3.032 -2.468,-5.5 -5.5,-5.5 z m 0.5,16.85 c 0,0.275 -0.225,0.5 -0.5,0.5 h -11.35 c -0.275,0 -0.5,-0.225 -0.5,-0.5 v -11.35 c 0,-0.275 0.225,-0.5 0.5,-0.5 h 11.35 c 0.275,0 0.5,0.225 0.5,0.5 z"
       />
    <path
       d="m 225.834,62.862 c -1.333,-4.011 -6.652,-5.477 -10.213,-2.904 l -13.989,10.17 c -0.9,0.654 -2.307,0.239 -2.532,-0.428 L 181.171,16.605 c -1.847,-5.508 -10.391,-5.556 -12.316,-0.081 l -17.342,48.877 c -0.269,0.764 -1.903,1.073 -2.675,0.28 L 134.546,51.08 c -3.202,-3.267 -9.058,-2.308 -10.815,1.737 l -11.32,25.851 c -0.554,1.265 0.022,2.739 1.287,3.293 1.267,0.554 2.739,-0.022 3.293,-1.287 l 11.323,-25.857 c 0.328,-0.755 1.919,-0.996 2.66,-0.237 l 14.288,14.598 c 3.286,3.367 9.431,2.255 10.966,-2.11 L 173.57,18.191 c 0.365,-1.038 2.536,-0.963 2.863,0.011 l 17.93,53.1 c 1.356,4.013 6.687,5.429 10.208,2.873 l 13.984,-10.166 c 0.909,-0.655 2.311,-0.241 2.533,0.43 l 28.55,86.15 c 0.437,1.319 1.86,2.02 3.159,1.587 1.311,-0.435 2.021,-1.849 1.587,-3.159 z"
       />
    <path
       d="m 22.151,111.38 c -1.21,-0.58 -2.75,-0.021 -3.33,1.189 -0.58,1.24 -0.05,2.74 1.2,3.33 1.207,0.587 2.716,0.07 3.33,-1.199 0.573,-1.23 0.069,-2.737 -1.2,-3.32 z"
       />
    <path
       d="m 27.62,105.67 7.04,-14.9 c 0.29,-0.755 2.003,-0.991 2.7,-0.189 l 14.26,16.13 c 3.166,3.577 9.653,2.688 11.24,-2.061 L 80.51,48.86 c 0.373,-1.069 2.579,-0.976 2.88,-0.02 l 10.78,29.97 c 0.45,1.26 1.92,1.96 3.19,1.51 1.3,-0.47 1.98,-1.909 1.51,-3.199 L 88.09,47.141 c -2.058,-5.594 -10.669,-5.255 -12.34,0.21 l -17.66,55.79 c -0.121,0.756 -1.967,1.123 -2.73,0.25 L 41.1,87.26 c -2.97,-3.355 -8.929,-2.787 -10.96,1.37 l -7.04,14.899 c -0.585,1.214 -0.092,2.721 1.19,3.33 1.211,0.58 2.761,0.011 3.33,-1.189 z"
       />
    <path
       d="m 3.99,152.3 c 0.96,0 1.85,-0.56 2.26,-1.43 l 12.82,-27.12 c 0.59,-1.25 0.06,-2.74 -1.19,-3.33 -1.22,-0.58 -2.76,-0.021 -3.33,1.189 l -12.82,27.12 c -0.611,1.286 -0.009,2.77 1.19,3.33 0.34,0.161 0.7,0.241 1.07,0.241 z"
       />
    <path
       d="m 250.612,238.7 h -13.851 v -9.968 h 8.388 c 2.898,0 4.788,-3.048 3.489,-5.647 l -6.676,-13.343 c 3.473,0 4.95,-3.242 3.749,-5.645 l -13.794,-27.615 c -1.438,-2.876 -5.544,-2.873 -6.98,0 l -13.807,27.613 c -1.205,2.409 0.278,5.646 3.748,5.646 l -6.677,13.344 c -1.297,2.599 0.593,5.646 3.49,5.646 h 8.39 v 9.968 h -24.795 v -9.28 c 0,-2.481 -2.019,-4.5 -4.5,-4.5 h -3.057 v -35.66 c 0,-1.38 -1.12,-2.5 -2.5,-2.5 -1.38,0 -2.5,1.12 -2.5,2.5 v 35.66 h -39.778 v -27.256 c 0,-3.032 -2.468,-5.5 -5.5,-5.5 h -21.563 c -3.033,0 -5.5,2.468 -5.5,5.5 v 27.256 h -39.78 v -84.051 l 56.063,-25.55 56.06,25.553 v 28.388 c 0,1.38 1.12,2.5 2.5,2.5 1.38,0 2.5,-1.12 2.5,-2.5 V 143.15 l 2.63,1.199 c 2.564,1.146 5.611,0.037 6.79,-2.55 l 3.261,-7.16 c 1.181,-2.601 0.004,-5.619 -2.521,-6.79 l -22.399,-10.21 c -1.221,-0.55 -2.761,0.03 -3.311,1.24 -0.584,1.272 0,2.762 1.24,3.31 l 22.38,10.21 c 0.05,0.021 0.07,0.07 0.07,0.11 0,0.01 0,0.03 -0.011,0.06 l -3.26,7.16 c -0.03,0.07 -0.109,0.09 -0.17,0.061 L 127.71,110.3 c -0.66,-0.3 -1.43,-0.3 -2.08,0 -2.611,1.19 -62.006,28.259 -64.73,29.5 -0.01,0 -0.02,0 -0.04,0 -0.05,0 -0.1,-0.03 -0.11,-0.07 l -3.27,-7.16 c -0.02,-0.04 -0.02,-0.04 -0.02,-0.06 0.01,-0.03 0.02,-0.09 0.08,-0.12 3.292,-1.5 69.109,-31.5 69.13,-31.51 l 28.55,13.01 c 1.22,0.561 2.75,-0.02 3.311,-1.229 0.569,-1.261 0.01,-2.74 -1.24,-3.311 l -29.58,-13.49 c -0.66,-0.3 -1.42,-0.3 -2.08,0 l -18.763,8.554 v -3.979 c 1.497,-0.49 2.589,-1.884 2.589,-3.543 v -8.339 c 0,-2.064 -1.68,-3.744 -3.745,-3.744 H 75.556 c -2.065,0 -3.745,1.68 -3.745,3.744 v 8.339 c 0,1.659 1.092,3.053 2.589,3.543 v 18.781 l -18.939,8.634 c -2.54,1.172 -3.74,4.205 -2.52,6.8 l 3.25,7.15 c 1.196,2.623 4.289,3.682 6.78,2.55 l 2.637,-1.202 v 81.772 h -3.053 c -2.481,0 -4.5,2.019 -4.5,4.5 v 9.28 H 33.261 v -9.968 h 8.388 c 2.903,0 4.785,-3.055 3.489,-5.647 l -6.677,-13.343 c 3.472,0 4.952,-3.24 3.75,-5.645 L 28.416,176.483 c -1.437,-2.879 -5.542,-2.875 -6.979,-0.001 L 7.631,204.096 c -1.208,2.415 0.285,5.646 3.749,5.646 l -6.676,13.343 c -1.299,2.597 0.59,5.647 3.489,5.647 h 8.39 V 238.7 H 5.39 c -1.381,0 -2.5,1.119 -2.5,2.5 0,1.381 1.119,2.5 2.5,2.5 h 245.222 c 1.381,0 2.5,-1.119 2.5,-2.5 0,-1.381 -1.119,-2.5 -2.5,-2.5 z M 101.868,106.693 79.4,116.936 v -16.3 h 22.468 z M 76.811,89.809 h 27.646 v 5.827 H 104.368 76.9 76.811 Z M 28.261,238.7 h -6.68 v -9.968 h 6.68 z M 9.97,223.732 17.661,208.361 c 0.833,-1.666 -0.384,-3.619 -2.236,-3.619 h -2.528 l 12.03,-24.058 12.018,24.058 h -2.529 c -1.855,0 -3.067,1.956 -2.236,3.619 l 7.691,15.371 c -3.471,0 -27.229,0 -29.901,0 z m 105.419,-26.068 c 0,-0.275 0.224,-0.5 0.5,-0.5 h 21.563 c 0.275,0 0.5,0.225 0.5,0.5 V 224.92 H 115.389 Z M 190.287,238.7 H 63.054 v -8.78 h 127.232 v 8.78 z m 41.474,0 h -6.68 v -9.968 h 6.68 z m -18.292,-14.968 7.691,-15.371 c 0.833,-1.666 -0.383,-3.619 -2.235,-3.619 h -2.527 l 12.029,-24.059 12.018,24.059 h -2.529 c -1.855,0 -3.067,1.956 -2.235,3.619 l 7.691,15.371 c -2.683,0 -26.421,0 -29.903,0 z"
       />
  </g>
</svg>
