<svg xmlns="http://www.w3.org/2000/svg" shape-rendering="crispEdges" viewBox="0 0 48 48" width="48" height="48"><g style="display:inline"><path d="M12.894 7.087a8 8 0 0 0-2.132.882c-.947.563-2.237 1.852-2.797 2.8a8.13 8.13 0 0 0 0 8.217c.56.949 1.856 2.21 2.637 2.99l.615.616a2 2 90.008 0 1 0 2.828l-.615.613c-.781.781-2.077 2.042-2.637 2.99a8.13 8.13 0 0 0 0 8.219c.56.949 1.85 2.239 2.799 2.799a8.13 8.13 0 0 0 8.207.005c.95-.559 1.58-1.222 1.582-1.224l2.048-2.018a2.01 2.01 0 0 1 2.83.003l.597.597c.78.78 2.041 2.076 2.99 2.637a8.13 8.13 0 0 0 8.218 0c.949-.56 2.239-1.85 2.799-2.8a8.13 8.13 0 0 0 0-8.218c-.56-.948-1.856-2.209-2.637-2.99l-.614-.613a2 2 89.992 0 1 0-2.828l.614-.615c.781-.781 2.077-2.042 2.637-2.99a8.13 8.13 0 0 0 0-8.217c-.56-.949-1.85-2.238-2.797-2.8a8 8 0 0 0-2.132-.883c-1.067-.27-2.89-.27-3.958 0a8 8 0 0 0-2.132.882c-.947.563-2.208 1.858-2.989 2.639l-.613.613a2 2 0 0 1-2.828 0l-.613-.613c-.781-.781-2.042-2.076-2.99-2.639a8 8 0 0 0-2.13-.882c-1.068-.27-2.892-.27-3.96 0" style="color:#000;fill:#000;stroke-linecap:round;stroke-linejoin:round;-inkscape-stroke:none"/></g></svg>
