<?xml version="1.0" encoding="UTF-8" standalone="no"?>
<!-- Created with Inkscape (http://www.inkscape.org/) -->

<svg
   width="48"
   height="48"
   viewBox="0 0 48 48"
   version="1.1"



   shape-rendering="crispEdges"


   xmlns="http://www.w3.org/2000/svg"
   xmlns:svg="http://www.w3.org/2000/svg">

  <defs
     />
  <g




     style="display:none">
    <rect
       style="fill-stroke-width:0.2;stroke-linecap:round;stroke-linejoin:round;stroke-miterlimit:4;stroke-dasharray:none;stroke-dashoffset:0;stroke-stop-"

       width="48"
       height="48"
       x="0"
       y="0" />
  </g>
  <g



     style="display:inline">
    <g

       transform="matrix(0.14466788,0,0,0.1448478,181.0819,-2.8942545)"
       style="stroke-width:1.94808;stroke-miterlimit:4;stroke-dasharray:none;stroke-" />
    <g

       transform="matrix(0.075,0,0,0.075,6,8)"
       style="stroke-width:17.7778">
      <path
         d="M 24,216 H 456 V 472 H 24 Z m 0,0"
         fill="currentColor"

         style="stroke-width:284.445" />
      <path
         d="M 8,8 H 472 V 136 H 8 Z m 0,0"
         fill="currentColor"

         style="stroke-width:284.445" />
      <g
         fill="currentColor"

         style="stroke-width:284.445">
        <path
           d="m 160,112 h -32 c -4.41797,0 -8,-3.58203 -8,-8 V 40 c 0,-4.417969 3.58203,-8 8,-8 h 32 c 4.41797,0 8,3.582031 8,8 v 64 c 0,4.41797 -3.58203,8 -8,8 z M 136,96 h 16 V 48 h -16 z m 0,0"

           style="stroke-width:17.7778" />
        <path
           d="M 224,112 H 184 V 96 h 32 V 80 h -24 c -4.41797,0 -8,-3.582031 -8,-8 V 40 c 0,-4.417969 3.58203,-8 8,-8 h 40 v 16 h -32 v 16 h 24 c 4.41797,0 8,3.582031 8,8 v 32 c 0,4.41797 -3.58203,8 -8,8 z m 0,0"

           style="stroke-width:17.7778" />
        <path
           d="M 88,64 H 72 V 32 H 56 v 80 H 72 V 80 h 16 v 32 h 16 V 32 H 88 Z m 0,0"

           style="stroke-width:17.7778" />
        <path
           d="m 248,48 h 16 v 64 h 16 V 48 h 16 V 32 h -48 z m 0,0"

           style="stroke-width:17.7778" />
        <path
           d="M 360,48 V 32 h -40 c -4.41797,0 -8,3.582031 -8,8 v 64 c 0,4.41797 3.58203,8 8,8 h 40 V 96 H 328 V 80 h 32 V 64 H 328 V 48 Z m 0,0"

           style="stroke-width:17.7778" />
        <path
           d="m 424,112 h -40 c -4.41797,0 -8,-3.58203 -8,-8 V 32 h 16 v 64 h 32 z m 0,0"

           style="stroke-width:17.7778" />
      </g>
      <path
         d="m 64,248 h 64 v 64 H 64 Z m 0,0"
         fill="currentColor"

         style="stroke-width:284.445" />
      <path
         d="m 160,248 h 64 v 64 h -64 z m 0,0"
         fill="currentColor"

         style="stroke-width:284.445" />
      <path
         d="m 256,248 h 64 v 64 h -64 z m 0,0"
         fill="currentColor"

         style="stroke-width:284.445" />
      <path
         d="m 352,248 h 64 v 64 h -64 z m 0,0"
         fill="currentColor"

         style="stroke-width:284.445" />
      <path
         d="m 64,344 h 64 v 64 H 64 Z m 0,0"
         fill="currentColor"

         style="stroke-width:284.445" />
      <path
         d="m 352,344 h 64 v 64 h -64 z m 0,0"
         fill="currentColor"

         style="stroke-width:284.445" />
      <path
         d="m 160,344 h 80 v 128 h -80 z m 0,0"
         fill="currentColor"

         style="stroke-width:284.445" />
      <path
         d="m 240,344 h 80 v 128 h -80 z m 0,0"
         fill="currentColor"

         style="stroke-width:284.445" />
      <path
         d="m 200,392 h 16 v 16 h -16 z m 0,0"
         fill="currentColor"

         style="stroke-width:284.445" />
      <path
         d="m 264,392 h 16 v 16 h -16 z m 0,0"
         fill="currentColor"

         style="stroke-width:284.445" />
      <path
         d="m 24,440 h 136 v 32 H 24 Z m 0,0"
         fill="currentColor"

         style="stroke-width:284.445" />
      <path
         d="m 320,440 h 136 v 32 H 320 Z m 0,0"
         fill="currentColor"

         style="stroke-width:284.445" />
      <path
         d="m 56,136 h 32 v 80 H 56 Z m 0,0"
         fill="currentColor"

         style="stroke-width:284.445" />
      <path
         d="m 400,136 h 32 v 80 h -32 z m 0,0"
         fill="currentColor"

         style="stroke-width:284.445" />
      <path
         d="M 472,0 H 8 C 3.582031,0 0,3.582031 0,8 v 128 c 0,4.41797 3.582031,8 8,8 h 40 v 64 H 24 c -4.417969,0 -8,3.58203 -8,8 v 256 c 0,4.41797 3.582031,8 8,8 h 432 c 4.41797,0 8,-3.58203 8,-8 V 216 c 0,-4.41797 -3.58203,-8 -8,-8 h -16 v -64 h 32 c 4.41797,0 8,-3.58203 8,-8 V 8 c 0,-4.417969 -3.58203,-8 -8,-8 z M 64,144 h 16 v 64 H 64 Z m 328,0 v 64 H 96 V 144 Z M 32,448 h 120 v 16 H 32 Z m 136,-8 v -88 h 64 v 112 h -64 z m 80,-88 h 64 V 464 H 248 Z M 448,464 H 328 v -16 h 120 z m 0,-32 H 328 v -88 c 0,-4.41797 -3.58203,-8 -8,-8 H 160 c -4.41797,0 -8,3.58203 -8,8 v 88 H 32 V 224 H 448 Z M 424,208 h -16 v -64 h 16 z m 40,-80 H 16 V 16 h 448 z m 0,0"

         style="stroke-width:17.7778" />
      <path
         d="m 72,80 h 16 v 32 h 16 V 32 H 88 V 64 H 72 V 32 H 56 v 80 h 16 z m 0,0"

         style="stroke-width:17.7778" />
      <path
         d="m 128,112 h 32 c 4.41797,0 8,-3.58203 8,-8 V 40 c 0,-4.417969 -3.58203,-8 -8,-8 h -32 c -4.41797,0 -8,3.582031 -8,8 v 64 c 0,4.41797 3.58203,8 8,8 z m 8,-64 h 16 v 48 h -16 z m 0,0"

         style="stroke-width:17.7778" />
      <path
         d="M 232,104 V 72 c 0,-4.417969 -3.58203,-8 -8,-8 H 200 V 48 h 32 V 32 h -40 c -4.41797,0 -8,3.582031 -8,8 v 32 c 0,4.417969 3.58203,8 8,8 h 24 v 16 h -32 v 16 h 40 c 4.41797,0 8,-3.58203 8,-8 z m 0,0"

         style="stroke-width:17.7778" />
      <path
         d="m 264,112 h 16 V 48 h 16 V 32 h -48 v 16 h 16 z m 0,0"

         style="stroke-width:17.7778" />
      <path
         d="m 320,112 h 40 V 96 H 328 V 80 h 32 V 64 H 328 V 48 h 32 V 32 h -40 c -4.41797,0 -8,3.582031 -8,8 v 64 c 0,4.41797 3.58203,8 8,8 z m 0,0"

         style="stroke-width:17.7778" />
      <path
         d="m 384,112 h 40 V 96 H 392 V 32 h -16 v 72 c 0,4.41797 3.58203,8 8,8 z m 0,0"

         style="stroke-width:17.7778" />
      <path
         d="M 128,240 H 64 c -4.417969,0 -8,3.58203 -8,8 v 64 c 0,4.41797 3.582031,8 8,8 h 64 c 4.41797,0 8,-3.58203 8,-8 v -64 c 0,-4.41797 -3.58203,-8 -8,-8 z m -8,64 H 72 v -48 h 48 z m 0,0"

         style="stroke-width:17.7778" />
      <path
         d="m 224,240 h -64 c -4.41797,0 -8,3.58203 -8,8 v 64 c 0,4.41797 3.58203,8 8,8 h 64 c 4.41797,0 8,-3.58203 8,-8 v -64 c 0,-4.41797 -3.58203,-8 -8,-8 z m -8,64 h -48 v -48 h 48 z m 0,0"

         style="stroke-width:17.7778" />
      <path
         d="m 320,240 h -64 c -4.41797,0 -8,3.58203 -8,8 v 64 c 0,4.41797 3.58203,8 8,8 h 64 c 4.41797,0 8,-3.58203 8,-8 v -64 c 0,-4.41797 -3.58203,-8 -8,-8 z m -8,64 h -48 v -48 h 48 z m 0,0"

         style="stroke-width:17.7778" />
      <path
         d="m 416,240 h -64 c -4.41797,0 -8,3.58203 -8,8 v 64 c 0,4.41797 3.58203,8 8,8 h 64 c 4.41797,0 8,-3.58203 8,-8 v -64 c 0,-4.41797 -3.58203,-8 -8,-8 z m -8,64 h -48 v -48 h 48 z m 0,0"

         style="stroke-width:17.7778" />
      <path
         d="M 128,336 H 64 c -4.417969,0 -8,3.58203 -8,8 v 64 c 0,4.41797 3.582031,8 8,8 h 64 c 4.41797,0 8,-3.58203 8,-8 v -64 c 0,-4.41797 -3.58203,-8 -8,-8 z m -8,64 H 72 v -48 h 48 z m 0,0"

         style="stroke-width:17.7778" />
      <path
         d="m 416,336 h -64 c -4.41797,0 -8,3.58203 -8,8 v 64 c 0,4.41797 3.58203,8 8,8 h 64 c 4.41797,0 8,-3.58203 8,-8 v -64 c 0,-4.41797 -3.58203,-8 -8,-8 z m -8,64 h -48 v -48 h 48 z m 0,0"

         style="stroke-width:17.7778" />
      <path
         d="m 200,392 h 16 v 16 h -16 z m 0,0"

         style="stroke-width:17.7778" />
      <path
         d="m 264,392 h 16 v 16 h -16 z m 0,0"

         style="stroke-width:17.7778" />
    </g>
  </g>
  <g



     style="display:inline"
     />
  <g



     style="display:none"
    >
    <circle
       style="stroke-width:0.1;stroke-linecap:round;stroke-linejoin:round;stroke-miterlimit:4;stroke-dasharray:none;stroke-dashoffset:0;stroke-stop-"

       cx="24"
       cy="24"
       r="24" />
    <circle
       style="display:inline;stroke-width:0.0999995;stroke-linecap:round;stroke-linejoin:round;stroke-miterlimit:4;stroke-dasharray:none;stroke-dashoffset:0;stroke-stop-"

       cx="24"
       cy="24"
       r="15.95" />
    <circle
       style="display:inline;stroke-width:0.2;stroke-linecap:round;stroke-linejoin:round;stroke-miterlimit:4;stroke-dasharray:none;stroke-dashoffset:0;stroke-stop-"

       cx="24"
       cy="24"
       r="19.950001" />
    <path
       style="stroke-width:0.1;stroke-linecap:round;stroke-linejoin:round;stroke-miterlimit:4;stroke-dasharray:none;stroke-dashoffset:0;stroke-stop-"
       d="M 0,0 C 48,48 48,48 48,48"
       />
    <path
       style="stroke-width:0.1;stroke-linecap:round;stroke-linejoin:round;stroke-miterlimit:4;stroke-dasharray:none;stroke-dashoffset:0;stroke-stop-"
       d="M 48,0 C 0,48 0,48 0,48"
       />
  </g>
  <g



     style="display:none"
    >
    <path

       style="fill-stroke-width:0.2;stroke-linecap:round;stroke-linejoin:round;stroke-miterlimit:4;stroke-dasharray:none;stroke-dashoffset:0;stroke-stop-"
       d="M 0,0 V 48 H 48 V 0 Z M 24,4.0507812 A 19.950001,19.950001 0 0 1 43.949219,24 19.950001,19.950001 0 0 1 24,43.949219 19.950001,19.950001 0 0 1 4.0507812,24 19.950001,19.950001 0 0 1 24,4.0507812 Z" />
  </g>
</svg>
