<?xml version="1.0" encoding="UTF-8" standalone="no"?>
<!-- Created with Inkscape (http://www.inkscape.org/) -->

<svg
   width="48"
   height="48"
   viewBox="0 0 48 48"
   version="1.1"



   shape-rendering="crispEdges"


   xmlns="http://www.w3.org/2000/svg"
   xmlns:svg="http://www.w3.org/2000/svg">

  <defs
     />
  <g




     style="display:none">
    <rect
       style="fill-stroke-width:0.2;stroke-linecap:round;stroke-linejoin:round;stroke-miterlimit:4;stroke-dasharray:none;stroke-dashoffset:0;stroke-stop-"

       width="48"
       height="48"
       x="0"
       y="0" />
  </g>
  <g



     style="display:inline">
    <g

       transform="matrix(0.14466788,0,0,0.1448478,181.0819,-2.8942545)"
       style="stroke-width:1.94808;stroke-miterlimit:4;stroke-dasharray:none;stroke-" />
    <g

       transform="matrix(0.69519274,0,0,0.69519274,1.7538323,1.7538323)"
       style="stroke-width:11.5076">
      <path
         d="M 44.054,20.99 H 59.721 V 57.344 H 44.054 Z"
         fill="currentColor"

         style="stroke-width:132.425" />
      <path
         d="M 4.308,20.99 H 19.975 V 57.344 H 4.308 Z"
         fill="currentColor"

         style="stroke-width:132.425" />
      <path
         d="m 44.054,20.99 h 3 v 36.354 h -3 z"
         fill="currentColor"

         style="stroke-width:132.425" />
      <path
         d="m 17.05,20.99 h 3 v 36.354 h -3 z"
         fill="currentColor"

         style="stroke-width:132.425" />
      <path
         d="M 18.946,9.672 H 45.055 V 57.344 H 18.946 Z"
         fill="currentColor"

         style="stroke-width:132.425" />
      <path
         d="m 24.417,46.984 h 15.167 v 10.36 H 24.417 Z"
         fill="currentColor"

         style="stroke-width:132.425" />
      <path
         d="m 31.833,46.984 h 7.75 v 10.36 h -7.75 z"
         fill="currentColor"

         style="stroke-width:132.425" />
      <path
         d="m 16.833,6.657 h 30.333 v 4.015 H 16.833 Z"
         fill="currentColor"

         style="stroke-width:132.425" />
      <path
         d="m 45.75,6.657 v 0.638 a 2.127,2.127 0 0 1 -2.127,2.127 h -26.79 v 1.25 H 47.167 V 6.657 Z"
         fill="currentColor"

         style="stroke-width:132.425" />
      <path
         d="m 54.263,43.984 v 2.346 a 2.529,2.529 0 0 1 -2.529,2.529 h -2.346 v 1.125 h 6 v -6 z"
         fill="currentColor"

         style="stroke-width:132.425" />
      <path
         d="m 8.641,43.984 h 6 v 6 h -6 z"
         fill="currentColor"

         style="stroke-width:132.425" />
      <path
         d="m 8.641,34.57 h 6 v 6 h -6 z"
         fill="currentColor"

         style="stroke-width:132.425" />
      <path
         d="m 8.641,25.157 h 6 v 6 h -6 z"
         fill="currentColor"

         style="stroke-width:132.425" />
      <path
         d="m 23.475,24.24 h 6 v 6 h -6 z"
         fill="currentColor"

         style="stroke-width:132.425" />
      <path
         d="m 23.475,14.826 h 6 v 6 h -6 z"
         fill="currentColor"

         style="stroke-width:132.425" />
      <path
         d="m 34.265,24.24 h 6 v 6 h -6 z"
         fill="currentColor"

         style="stroke-width:132.425" />
      <path
         d="m 23.475,33.267 h 6 v 6 h -6 z"
         fill="currentColor"

         style="stroke-width:132.425" />
      <path
         d="m 34.265,33.267 h 6 v 6 h -6 z"
         fill="currentColor"

         style="stroke-width:132.425" />
      <path
         d="m 34.265,14.826 h 6 v 6 h -6 z"
         fill="currentColor"

         style="stroke-width:132.425" />
      <path
         d="m 22.458,43.984 h 19.083 v 3 H 22.458 Z"
         fill="currentColor"

         style="stroke-width:132.425" />
      <path
         d="M 40.265,43.984 A 1.916,1.916 0 0 1 38.349,45.9 H 22.458 v 1.083 h 19.084 v -3 z"
         fill="currentColor"

         style="stroke-width:132.425" />
      <path
         d="m 49.388,43.984 h 6 v 6 h -6 z"
         fill="currentColor"

         style="stroke-width:132.425" />
      <path
         d="m 49.388,25.157 h 6 v 6 h -6 z"
         fill="currentColor"

         style="stroke-width:132.425" />
      <path
         d="m 49.388,34.57 h 6 v 6 h -6 z"
         fill="currentColor"

         style="stroke-width:132.425" />
      <g
         fill="currentColor"

         style="stroke-width:132.425">
        <path
           d="m 54.263,34.57 v 2.346 a 2.529,2.529 0 0 1 -2.529,2.529 h -2.346 v 1.125 h 6 v -6 z"

           style="stroke-width:11.5076" />
        <path
           d="M 54.263,25.157 V 27.5 a 2.529,2.529 0 0 1 -2.529,2.529 h -2.346 v 1.125 h 6 v -6 z"

           style="stroke-width:11.5076" />
        <path
           d="m 39.14,14.826 v 2.346 A 2.529,2.529 0 0 1 36.61,19.7 h -2.345 v 1.125 h 6 v -6 z"

           style="stroke-width:11.5076" />
        <path
           d="m 28.35,14.826 v 2.346 A 2.529,2.529 0 0 1 25.82,19.7 h -2.345 v 1.125 h 6 v -6 z"

           style="stroke-width:11.5076" />
        <path
           d="m 28.35,24.24 v 2.346 a 2.529,2.529 0 0 1 -2.529,2.529 h -2.346 v 1.125 h 6 v -6 z"

           style="stroke-width:11.5076" />
        <path
           d="m 28.35,33.267 v 2.346 a 2.529,2.529 0 0 1 -2.529,2.529 h -2.346 v 1.125 h 6 v -6 z"

           style="stroke-width:11.5076" />
        <path
           d="M 13.516,25.157 V 27.5 a 2.529,2.529 0 0 1 -2.529,2.529 H 8.641 v 1.125 h 6 v -6 z"

           style="stroke-width:11.5076" />
        <path
           d="m 13.516,34.57 v 2.346 a 2.529,2.529 0 0 1 -2.529,2.529 H 8.641 v 1.125 h 6 v -6 z"

           style="stroke-width:11.5076" />
        <path
           d="m 13.516,43.984 v 2.346 a 2.529,2.529 0 0 1 -2.529,2.529 H 8.641 v 1.125 h 6 v -6 z"

           style="stroke-width:11.5076" />
        <path
           d="m 39.14,24.24 v 2.346 a 2.529,2.529 0 0 1 -2.529,2.529 h -2.346 v 1.125 h 6 v -6 z"

           style="stroke-width:11.5076" />
        <path
           d="m 39.14,33.267 v 2.346 a 2.529,2.529 0 0 1 -2.529,2.529 h -2.346 v 1.125 h 6 v -6 z"

           style="stroke-width:11.5076" />
      </g>
      <path
         d="m 25.583,7.621 h -2.754 a 0.976,0.976 0 0 0 -0.892,1.043 0.976,0.976 0 0 0 0.892,1.043 h 2.753 A 0.976,0.976 0 0 0 26.474,8.664 0.976,0.976 0 0 0 25.583,7.621 Z"
         fill="currentColor"

         style="stroke-width:132.425" />
      <circle
         cx="28.822001"
         cy="8.6639996"
         fill="currentColor"
         r="1.043"

         style="stroke-width:132.425" />
      <path
         d="m 23.375,6.656 a 1,1 0 0 1 1,-1 h 0.141 a 1,1 0 0 1 0,2 h -0.141 a 1,1 0 0 1 -1,-1 z M 60.769,20.99 v 36.354 a 1,1 0 0 1 -1,1 H 4.231 a 1,1 0 0 1 -1,-1 V 20.99 a 1,1 0 0 1 1,-1 h 13.763 v -8.318 h -1.113 a 1,1 0 0 1 -1,-1 V 6.656 a 1,1 0 0 1 1,-1 h 4.26 a 1,1 0 0 1 0,2 h -3.26 V 9.672 H 46.214 V 7.656 H 27.547 a 1,1 0 0 1 0,-2 h 19.667 a 1,1 0 0 1 1,1 v 4.016 a 1,1 0 0 1 -1,1 H 46.1 v 8.318 h 13.669 a 1,1 0 0 1 1,1 z M 17.994,56.344 V 21.99 H 5.231 v 34.354 z m 14.888,-8.36 v 8.36 h 5.75 v -8.36 z m 7.708,-3 H 23.506 v 1 h 17.083 z m -15.125,3 v 8.36 h 5.417 v -8.36 z M 44.1,56.344 V 11.672 H 19.994 v 44.672 h 3.471 v -8.36 h -0.958 a 1,1 0 0 1 -1,-1 v -3 a 1,1 0 0 1 1,-1 h 19.082 a 1,1 0 0 1 1,1 v 3 a 1,1 0 0 1 -1,1 h -0.958 v 8.36 z M 58.769,21.99 H 46.1 V 56.344 H 58.769 Z M 48.436,49.983 v -6 a 1,1 0 0 1 1,-1 h 6 a 1,1 0 0 1 1,1 v 6 a 1,1 0 0 1 -1,1 h -6 a 1,1 0 0 1 -1,-1 z m 2,-1 h 4 v -4 h -4 z m -2,-8.413 v -6 a 1,1 0 0 1 1,-1 h 6 a 1,1 0 0 1 1,1 v 6 a 1,1 0 0 1 -1,1 h -6 a 1,1 0 0 1 -1,-1 z m 2,-1 h 4 v -4 h -4 z m -2,-8.414 v -6 a 1,1 0 0 1 1,-1 h 6 a 1,1 0 0 1 1,1 v 6 a 1,1 0 0 1 -1,1 h -6 a 1,1 0 0 1 -1,-1 z m 2,-1 h 4 v -4 h -4 z M 15.564,43.983 v 6 a 1,1 0 0 1 -1,1 h -6 a 1,1 0 0 1 -1,-1 v -6 a 1,1 0 0 1 1,-1 h 6 a 1,1 0 0 1 1,1 z m -2,1 h -4 v 4 h 4 z m 2,-10.413 v 6 a 1,1 0 0 1 -1,1 h -6 a 1,1 0 0 1 -1,-1 v -6 a 1,1 0 0 1 1,-1 h 6 a 1,1 0 0 1 1,1 z m -2,1 h -4 v 4 h 4 z m 2,-10.414 v 6 a 1,1 0 0 1 -1,1 h -6 a 1,1 0 0 1 -1,-1 v -6 a 1,1 0 0 1 1,-1 h 6 a 1,1 0 0 1 1,1 z m -2,1 h -4 v 4 h 4 z M 30.522,24.24 v 6 a 1,1 0 0 1 -1,1 h -6 a 1,1 0 0 1 -1,-1 v -6 a 1,1 0 0 1 1,-1 h 6 a 1,1 0 0 1 1,1 z m -2,1 h -4 v 4 h 4 z m 2,-10.414 v 6 a 1,1 0 0 1 -1,1 h -6 a 1,1 0 0 1 -1,-1 v -6 a 1,1 0 0 1 1,-1 h 6 a 1,1 0 0 1 1,1 z m -2,1 h -4 v 4 h 4 z m 12.79,8.414 v 6 a 1,1 0 0 1 -1,1 h -6 a 1,1 0 0 1 -1,-1 v -6 a 1,1 0 0 1 1,-1 h 6 a 1,1 0 0 1 1,1 z m -2,1 h -4 v 4 h 4 z m -8.79,8.027 v 6 a 1,1 0 0 1 -1,1 h -6 a 1,1 0 0 1 -1,-1 v -6 a 1,1 0 0 1 1,-1 h 6 a 1,1 0 0 1 1,1.001 z m -2,1 h -4 v 4 h 4 z m 12.79,-1 v 6 a 1,1 0 0 1 -1,1 h -6 a 1,1 0 0 1 -1,-1 v -6 a 1,1 0 0 1 1,-1 h 6 a 1,1 0 0 1 1,1.001 z m -2,1 h -4 v 4 h 4 z m 2,-19.441 v 6 a 1,1 0 0 1 -1,1 h -6 a 1,1 0 0 1 -1,-1 v -6 a 1,1 0 0 1 1,-1 h 6 a 1,1 0 0 1 1,1 z m -2,1 h -4 v 4 h 4 z"

         style="stroke-width:11.5076" />
    </g>
  </g>
  <g



     style="display:inline"
     />
  <g



     style="display:none"
    >
    <circle
       style="stroke-width:0.1;stroke-linecap:round;stroke-linejoin:round;stroke-miterlimit:4;stroke-dasharray:none;stroke-dashoffset:0;stroke-stop-"

       cx="24"
       cy="24"
       r="24" />
    <circle
       style="display:inline;stroke-width:0.0999995;stroke-linecap:round;stroke-linejoin:round;stroke-miterlimit:4;stroke-dasharray:none;stroke-dashoffset:0;stroke-stop-"

       cx="24"
       cy="24"
       r="15.95" />
    <circle
       style="display:inline;stroke-width:0.2;stroke-linecap:round;stroke-linejoin:round;stroke-miterlimit:4;stroke-dasharray:none;stroke-dashoffset:0;stroke-stop-"

       cx="24"
       cy="24"
       r="19.950001" />
    <path
       style="stroke-width:0.1;stroke-linecap:round;stroke-linejoin:round;stroke-miterlimit:4;stroke-dasharray:none;stroke-dashoffset:0;stroke-stop-"
       d="M 0,0 C 48,48 48,48 48,48"
       />
    <path
       style="stroke-width:0.1;stroke-linecap:round;stroke-linejoin:round;stroke-miterlimit:4;stroke-dasharray:none;stroke-dashoffset:0;stroke-stop-"
       d="M 48,0 C 0,48 0,48 0,48"
       />
  </g>
  <g



     style="display:none"
    >
    <path

       style="fill-stroke-width:0.2;stroke-linecap:round;stroke-linejoin:round;stroke-miterlimit:4;stroke-dasharray:none;stroke-dashoffset:0;stroke-stop-"
       d="M 0,0 V 48 H 48 V 0 Z M 24,4.0507812 A 19.950001,19.950001 0 0 1 43.949219,24 19.950001,19.950001 0 0 1 24,43.949219 19.950001,19.950001 0 0 1 4.0507812,24 19.950001,19.950001 0 0 1 24,4.0507812 Z" />
  </g>
</svg>
