<?xml version="1.0" encoding="UTF-8" standalone="no"?>
<!-- Created with Inkscape (http://www.inkscape.org/) -->

<svg
   width="48"
   height="48"
   viewBox="0 0 48 48"
   version="1.1"



   shape-rendering="crispEdges"


   xmlns="http://www.w3.org/2000/svg"
   xmlns:svg="http://www.w3.org/2000/svg">

  <defs
     />
  <g




     style="display:none">
    <rect
       style="fill-stroke-width:0.2;stroke-linecap:round;stroke-linejoin:round;stroke-miterlimit:4;stroke-dasharray:none;stroke-dashoffset:0;stroke-stop-"

       width="48"
       height="48"
       x="0"
       y="0" />
  </g>
  <g



     style="display:inline">
    <g

       transform="matrix(0.14466788,0,0,0.1448478,181.0819,-2.8942545)"
       style="stroke-width:1.94808;stroke-miterlimit:4;stroke-dasharray:none;stroke-" />
    <g

       transform="matrix(0.078125,0,0,0.078125,4,4)"
       style="stroke-width:12.8">
      <g

         style="stroke-width:12.8">
        <g

           style="stroke-width:12.8">
          <g

             style="stroke-width:12.8">
            <path
               d="m 83.652,286.113 h 30.033 v 74.872 H 83.652 Z"
               fill="currentColor"

               style="stroke-width:163.84" />
          </g>
          <g

             style="stroke-width:12.8">
            <path
               d="m 351.71,106.113 77.035,142.94 v -142.94 z"
               fill="currentColor"

               style="stroke-width:163.84" />
          </g>
          <g

             style="stroke-width:12.8">
            <path
               d="M 375.907,106.113 H 351.71 l 77.035,142.94 v -44.899 z"
               fill="currentColor"

               style="stroke-width:163.84" />
          </g>
          <g

             style="stroke-width:12.8">
            <path
               d="M 316.106,38.475 143.688,360.986 h 344.929 z"
               fill="currentColor"

               style="stroke-width:163.84" />
          </g>
          <g

             style="stroke-width:12.8">
            <path
               d="M 476.771,338.839 H 180.386 l 58.796,-109.979 6.614,3.821 7.595,-14.206 -6.611,-3.827 L 328.539,61.717 316.106,38.475 143.688,360.986 h 344.929 z"
               fill="currentColor"

               style="stroke-width:163.84" />
          </g>
          <g

             style="stroke-width:12.8">
            <path
               d="m 316.077,101.221 c -1.688,3.158 -107.45,200.987 -138.873,259.765 H 454.95 c -10e-4,0 -135.207,-252.905 -138.873,-259.765 z"
               fill="currentColor"

               style="stroke-width:163.84" />
          </g>
          <g

             style="stroke-width:12.8">
            <path
               d="M 443.04,338.709 H 214.134 c 31.083,-58.142 89.01,-166.495 114.453,-214.086 -7.227,-13.518 -11.871,-22.205 -12.51,-23.401 -1.514,2.832 -138.208,258.52 -138.873,259.765 H 454.95 c -10e-4,-0.001 -4.515,-8.445 -11.91,-22.278 z"
               fill="currentColor"

               style="stroke-width:163.84" />
          </g>
          <g

             style="stroke-width:12.8">
            <path
               d="m 271.193,263.475 h 89.766 v 98.511 h -89.766 z"
               fill="currentColor"

               style="stroke-width:163.84" />
          </g>
          <g

             style="stroke-width:12.8">
            <path
               d="m 293.491,338.709 v -75.234 h -22.298 v 98.511 h 89.766 v -23.277 z"
               fill="currentColor"

               style="stroke-width:163.84" />
          </g>
          <g

             style="stroke-width:12.8">
            <path
               d="m 23.616,391.049 h 30.033 v 90.894 H 23.616 Z"
               fill="currentColor"

               style="stroke-width:163.84" />
          </g>
          <g

             style="stroke-width:12.8">
            <path
               d="m 23.616,270.091 h 30.033 v 90.894 H 23.616 Z"
               fill="currentColor"

               style="stroke-width:163.84" />
          </g>
          <g

             style="stroke-width:12.8">
            <path
               d="m 23.616,338.709 h 30.033 v 22.277 H 23.616 Z"
               fill="currentColor"

               style="stroke-width:163.84" />
          </g>
          <g

             style="stroke-width:12.8">
            <path
               d="m 23.616,459.666 h 30.033 v 22.277 H 23.616 Z"
               fill="currentColor"

               style="stroke-width:163.84" />
          </g>
          <g

             style="stroke-width:12.8">
            <path
               d="m 83.652,338.709 h 30.033 v 22.277 H 83.652 Z"
               fill="currentColor"

               style="stroke-width:163.84" />
          </g>
          <g

             style="stroke-width:12.8">
            <path
               d="m 113.544,391.049 h 30.033 v 90.894 h -30.033 z"
               fill="currentColor"

               style="stroke-width:163.84" />
          </g>
          <g

             style="stroke-width:12.8">
            <path
               d="m 241.09,391.049 h 30.033 v 90.894 H 241.09 Z"
               fill="currentColor"

               style="stroke-width:163.84" />
          </g>
          <g

             style="stroke-width:12.8">
            <path
               d="m 113.544,459.666 h 30.033 v 22.277 h -30.033 z"
               fill="currentColor"

               style="stroke-width:163.84" />
          </g>
          <g

             style="stroke-width:12.8">
            <path
               d="m 240.984,459.666 h 30.033 v 22.277 h -30.033 z"
               fill="currentColor"

               style="stroke-width:163.84" />
          </g>
          <g

             style="stroke-width:12.8">
            <path
               d="m 458.473,391.049 h 30.033 v 90.894 h -30.033 z"
               fill="currentColor"

               style="stroke-width:163.84" />
          </g>
          <g

             style="stroke-width:12.8">
            <path
               d="m 458.473,459.666 h 30.033 v 22.277 h -30.033 z"
               fill="currentColor"

               style="stroke-width:163.84" />
          </g>
          <g

             style="stroke-width:12.8">
            <path
               d="m 7.596,360.986 h 496.915 v 30.063 H 7.596 Z"
               fill="currentColor"

               style="stroke-width:163.84" />
          </g>
          <g

             style="stroke-width:12.8">
            <path
               d="m 7.596,360.986 h 21.83 v 30.063 H 7.596 Z"
               fill="currentColor"

               style="stroke-width:163.84" />
          </g>
          <g

             style="stroke-width:12.8">
            <path
               d="m 293.5,285.975 h 15 v 15 h -15 z"
               fill="currentColor"

               style="stroke-width:163.84" />
          </g>
          <g

             style="stroke-width:12.8">
            <path
               d="m 293.5,188.475 h 15 v 15 h -15 z"
               fill="currentColor"

               style="stroke-width:163.84" />
          </g>
          <g

             style="stroke-width:12.8">
            <path
               d="m 323.5,188.475 h 15 v 15 h -15 z"
               fill="currentColor"

               style="stroke-width:163.84" />
          </g>
          <g

             style="stroke-width:12.8">
            <path
               d="m 46.367,106.401 h 15 v 15 h -15 z"
               fill="currentColor"

               style="stroke-width:163.84" />
          </g>
        </g>
      </g>
      <g

         style="stroke-width:12.8">
        <path
           d="m 390.969,383.564 h 15.002 v 15.002 h -15.002 z"

           style="stroke-width:12.8" />
        <path
           d="M 512,353.495 H 493.097 L 436.222,247.166 V 98.581 H 356.743 L 316.061,22.525 179.155,278.611 H 61.063 v -15.024 h -45.04 v 89.908 H 0 v 45.071 h 16.023 v 90.909 h 45.04 v -16.066 h 44.792 v 16.066 h 45.263 v -90.909 h 82.304 v 90.909 h 45.263 v -90.909 h 97.282 V 383.564 H 15.002 v -15.066 h 481.995 v 15.066 h -76.023 v 15.002 h 29.866 v 90.909 h 45.263 V 398.566 H 512 Z M 31.026,474.472 v -75.906 h 15.035 v 75.906 z m 30.037,-75.906 h 44.792 v 14.923 H 61.063 Z m 0,59.84 v -29.914 h 44.792 v 29.914 z m 75.052,16.066 h -15.258 v -75.906 h 15.258 z m 127.567,0 h -15.258 v -75.906 h 15.258 z M 421.219,113.583 V 219.119 L 364.768,113.583 Z M 316.065,54.339 476.083,353.495 H 459.424 C 442.242,321.355 316.037,85.28 316.037,85.28 l -69.315,129.646 13.23,7.073 c 0,0 50.511,-94.481 56.082,-104.9 23.772,44.468 103.914,194.376 126.379,236.397 H 368.466 V 255.969 H 263.682 v 97.527 h -74.029 l 62.703,-117.288 -13.231,-7.073 -66.485,124.361 h -16.508 z m 37.398,299.156 h -74.778 v -82.524 h 74.778 z m -214.342,0 h -18.263 v -59.882 h 50.277 z m -33.266,0 H 91.072 v -59.882 h 14.783 z M 76.069,293.613 v 59.882 H 61.063 V 293.613 Z M 31.026,278.589 h 15.035 v 74.906 H 31.026 Z m 450.075,195.883 h -15.258 v -75.906 h 15.258 z"

           style="stroke-width:12.8" />
      </g>
    </g>
  </g>
  <g



     style="display:inline"
     />
  <g



     style="display:none"
    >
    <circle
       style="stroke-width:0.1;stroke-linecap:round;stroke-linejoin:round;stroke-miterlimit:4;stroke-dasharray:none;stroke-dashoffset:0;stroke-stop-"

       cx="24"
       cy="24"
       r="24" />
    <circle
       style="display:inline;stroke-width:0.0999995;stroke-linecap:round;stroke-linejoin:round;stroke-miterlimit:4;stroke-dasharray:none;stroke-dashoffset:0;stroke-stop-"

       cx="24"
       cy="24"
       r="15.95" />
    <circle
       style="display:inline;stroke-width:0.2;stroke-linecap:round;stroke-linejoin:round;stroke-miterlimit:4;stroke-dasharray:none;stroke-dashoffset:0;stroke-stop-"

       cx="24"
       cy="24"
       r="19.950001" />
    <path
       style="stroke-width:0.1;stroke-linecap:round;stroke-linejoin:round;stroke-miterlimit:4;stroke-dasharray:none;stroke-dashoffset:0;stroke-stop-"
       d="M 0,0 C 48,48 48,48 48,48"
       />
    <path
       style="stroke-width:0.1;stroke-linecap:round;stroke-linejoin:round;stroke-miterlimit:4;stroke-dasharray:none;stroke-dashoffset:0;stroke-stop-"
       d="M 48,0 C 0,48 0,48 0,48"
       />
  </g>
  <g



     style="display:none"
    >
    <path

       style="fill-stroke-width:0.2;stroke-linecap:round;stroke-linejoin:round;stroke-miterlimit:4;stroke-dasharray:none;stroke-dashoffset:0;stroke-stop-"
       d="M 0,0 V 48 H 48 V 0 Z M 24,4.0507812 A 19.950001,19.950001 0 0 1 43.949219,24 19.950001,19.950001 0 0 1 24,43.949219 19.950001,19.950001 0 0 1 4.0507812,24 19.950001,19.950001 0 0 1 24,4.0507812 Z" />
  </g>
</svg>
