<svg id="Capa_1" enable-background="new 0 0 512 512" height="512" viewBox="0 0 512 512" width="512" xmlns="http://www.w3.org/2000/svg"><g><g><path d="m259.638 490.915c-65.083 0-104.511-14.982-104.511-50.043 0-17.53-1.02-30.778 19.385-41.77 20.406-10.992 48.947-17.602 81.488-17.602 65.083 0 114.162 26.439 114.162 61.5 0 4.816-.926 9.469-2.692 13.914-11.093 27.911-51.689 34.001-107.832 34.001z" fill="#d2ea7b"/><path d="m367.46 456.91c-11.08 27.91-55.32 47.59-111.46 47.59-65.08 0-114.16-26.44-114.16-61.5 0-17.54 12.28-32.91 32.7-43.91-1.77 4.44-2.7 9.1-2.7 13.91 0 35.06 49.08 61.5 114.16 61.5 32.53 0 61.06-6.61 81.46-17.59z" fill="#c4e456"/><path d="m235 150.5h42v266.848c0 2.052-.631 4.054-1.808 5.735l-15.096 21.566c-1.991 2.844-6.202 2.844-8.192 0l-15.096-21.566c-1.177-1.681-1.808-3.683-1.808-5.735l8.298-130.348z" fill="#f8f7f7"/><path d="m277 189.32v-38.82h-22-20v38.82 228.03c0 2.05.63 4.05 1.81 5.73l15.09 21.57c1.99 2.84 6.21 2.84 8.2 0l5.9-8.43-9.19-13.14c-1.18-1.68-1.81-3.68-1.81-5.73v-222.076c0-2.112 1.635-3.859 3.743-3.992 4.94-.309 13.551-.969 18.257-1.962z" fill="#ebebeb"/><path d="m338 89.5c0 17.536-5.504 33.786-14.88 47.117-14.837 21.097-39.369 30.042-67.12 30.042-45.287 0-76.532-34.117-76.532-79.404 0-27.751 8.318-50.038 29.415-64.875 13.331-9.376 29.581-14.88 47.117-14.88 45.287 0 82 36.713 82 82z" fill="#f5de46"/><g fill="#f3d332"><path d="m323.11 136.61c-14.82 21.1-39.36 34.89-67.11 34.89-45.29 0-82-36.71-82-82 0-27.75 13.79-52.29 34.89-67.11-9.39 13.33-14.89 29.58-14.89 47.11 0 45.29 36.71 82 82 82 17.53 0 33.78-5.5 47.11-14.89z"/><circle cx="256" cy="89.5" r="42"/></g></g><g><path d="m284.5 375.718v-90.333c0-4.142-3.358-7.5-7.5-7.5s-7.5 3.358-7.5 7.5v97.139.005 34.818c0 .516-.156 1.012-.452 1.434l-13.048 18.641-13.048-18.64c-.296-.422-.452-.918-.452-1.434v-239.365c4.404.669 8.912 1.017 13.5 1.017s9.096-.348 13.5-1.017v72.187c0 4.142 3.358 7.5 7.5 7.5s7.5-3.358 7.5-7.5v-75.823c35.42-11.929 61-45.456 61-84.847 0-49.351-40.149-89.5-89.5-89.5-24.487 0-47.346 9.7-64.366 27.312-2.878 2.979-2.797 7.727.181 10.605s7.727 2.797 10.605-.181c14.169-14.662 33.197-22.736 53.58-22.736 41.08 0 74.5 33.42 74.5 74.5s-33.42 74.5-74.5 74.5-74.5-33.42-74.5-74.5c0-8.476 1.41-16.787 4.191-24.704 1.373-3.908-.682-8.189-4.59-9.562-3.909-1.373-8.189.683-9.562 4.59-3.344 9.518-5.039 19.502-5.039 29.675 0 39.391 25.58 72.918 61 84.847v201.371c-55.979 6.906-93.162 33.534-93.162 67.283 0 15.443 7.85 29.78 22.701 41.462 2.009 1.662 7.034 2.666 10.532-1.258 2.561-3.255 1.998-7.971-1.258-10.532-7.744-6.091-16.975-16.183-16.975-29.672 0-25.052 31.781-45.971 78.162-52.148v26.496c0 3.609 1.094 7.079 3.164 10.036l15.096 21.567c4.065 5.976 15.024 7.684 20.48-.001l15.097-21.566c2.069-2.957 3.163-6.427 3.163-10.036v-26.5c46.42 6.171 78.162 27.041 78.162 52.152 0 30.28-46.852 54-106.662 54-21.843 0-42.597-3.118-60.018-9.018-3.925-1.331-8.181.775-9.509 4.698-1.329 3.923.774 8.181 4.698 9.509 18.952 6.418 41.369 9.811 64.829 9.811 32.697 0 62.899-6.57 85.044-18.5 23.613-12.721 36.618-30.655 36.618-50.5 0-33.814-37.147-60.382-93.162-67.282z"/><path d="m305.5 89.5c0-27.294-22.206-49.5-49.5-49.5s-49.5 22.206-49.5 49.5 22.206 49.5 49.5 49.5 49.5-22.206 49.5-49.5zm-84 0c0-19.023 15.477-34.5 34.5-34.5s34.5 15.477 34.5 34.5-15.477 34.5-34.5 34.5-34.5-15.477-34.5-34.5z"/></g></g></svg>
