<svg xmlns="http://www.w3.org/2000/svg" xml:space="preserve" viewBox="0 0 512 512" width="48" height="48"><path d="M503.742 384.642V127.358c0-20.17-16.35-36.519-36.519-36.519H44.777c-20.169 0-36.519 16.35-36.519 36.519v257.285c0 20.168 16.35 36.519 36.519 36.519h422.446c20.169-.001 36.519-16.351 36.519-36.52" style="fill:#fff"/><path d="M503.742 373.977v12.726c0 19.031-15.427 34.458-34.458 34.458H42.716c-19.031 0-34.458-15.427-34.458-34.458v-12.726zM8.258 279.596h495.484v47.199H8.258zm214.985-94.373h280.499v47.185H223.243zm0-94.384v47.185h280.499v-5.819c0-22.846-18.52-41.366-41.366-41.366z" style="fill:#259245"/><path d="M8.258 124.114v108.294h214.985V90.839H41.534c-18.378 0-33.276 14.897-33.276 33.275" style="fill:#ed1f34"/><path d="M101.002 159.529v25.883c0 8.146 6.603 14.749 14.749 14.749s14.749-6.603 14.749-14.749v-25.883z" style="fill:#fff"/><path d="M115.751 208.97c-12.989 0-23.559-10.568-23.559-23.559v-25.882a8.81 8.81 0 0 1 8.809-8.809H130.5a8.81 8.81 0 0 1 8.809 8.809v25.882c0 12.991-10.569 23.559-23.558 23.559m-5.942-40.632v17.073a5.95 5.95 0 0 0 5.941 5.941 5.947 5.947 0 0 0 5.941-5.941v-17.073z" style="fill:#1a1c20"/><path d="M177.327 192.919a8.26 8.26 0 0 1-8.258-8.258c0-29.4-23.919-53.318-53.318-53.318s-53.318 23.919-53.318 53.318c0 4.561-3.697 8.258-8.258 8.258s-8.258-3.697-8.258-8.258c0-38.507 31.328-69.835 69.835-69.835s69.835 31.328 69.835 69.835a8.26 8.26 0 0 1-8.26 8.258" style="fill:#fff"/><path d="M468.324 82.581H43.676C19.593 82.581 0 102.173 0 126.256v259.487c0 24.084 19.593 43.676 43.676 43.676h424.648c24.083 0 43.675-19.593 43.675-43.676V126.256c.001-24.083-19.592-43.675-43.675-43.675m-236.823 110.9h263.983v30.669H231.501zm263.983 47.184v30.669H16.516v-30.669zM16.516 287.851h478.968v30.683H16.516zm478.968-161.595v3.509H470.71c-4.561 0-8.258 3.697-8.258 8.258s3.697 8.258 8.258 8.258h24.774v30.683H231.501v-30.683h206.176c4.561 0 8.258-3.697 8.258-8.258s-3.697-8.258-8.258-8.258H231.501V99.097h236.823c14.976 0 27.16 12.183 27.16 27.159M43.676 99.097h171.309v125.052H16.516v-97.893c0-14.976 12.184-27.159 27.16-27.159m424.648 313.806H43.676c-14.977 0-27.16-12.183-27.16-27.16v-3.509h421.161a8.26 8.26 0 0 0 8.258-8.258 8.26 8.26 0 0 0-8.258-8.258H16.516v-30.669h478.968v30.669H470.71a8.26 8.26 0 0 0-8.258 8.258 8.26 8.26 0 0 0 8.258 8.258h24.774v3.509c0 14.977-12.184 27.16-27.16 27.16" style="fill:#1a1c20"/></svg>
