<svg xmlns="http://www.w3.org/2000/svg" xml:space="preserve" viewBox="0 0 512 512" width="48" height="48"><path d="M173.419 90.839H338.58v330.323H173.419z" style="fill:#ed1f34"/><path d="M173.419 90.839v330.323H44.594c-20.067 0-36.335-16.268-36.335-36.335V127.174c0-20.067 16.268-36.335 36.335-36.335z" style="fill:#333"/><path d="M503.742 127.174v257.652c0 20.067-16.268 36.335-36.335 36.335H338.581V90.839h128.826c20.067 0 36.335 16.268 36.335 36.335" style="fill:#259245"/><path d="M256 313.806c-31.875 0-57.806-25.931-57.806-57.806s25.931-57.806 57.806-57.806 57.806 25.931 57.806 57.806-25.932 57.806-57.806 57.806m0-99.096c-22.768 0-41.29 18.522-41.29 41.29s18.522 41.29 41.29 41.29 41.29-18.522 41.29-41.29-18.522-41.29-41.29-41.29" style="fill:#fff"/><path d="M256 231.226c-13.66 0-24.774 11.114-24.774 24.774S242.34 280.774 256 280.774 280.774 269.66 280.774 256 269.66 231.226 256 231.226" style="fill:#fff"/><path d="M468.324 82.581H43.676C19.593 82.581 0 102.173 0 126.257v259.487c0 24.083 19.593 43.675 43.676 43.675h424.648c24.082 0 43.675-19.593 43.675-43.676V126.257c.001-24.084-19.593-43.676-43.675-43.676M16.516 385.743V126.257c0-14.977 12.183-27.16 27.16-27.16h121.485v313.806H43.676c-14.976 0-27.16-12.183-27.16-27.16m478.968 0c0 14.977-12.183 27.16-27.16 27.16H346.839V189.935c0-4.561-3.696-8.258-8.258-8.258s-8.258 3.697-8.258 8.258v222.968H181.677V99.097h148.645v57.806c0 4.561 3.696 8.258 8.258 8.258s8.258-3.697 8.258-8.258V99.097h121.485c14.977 0 27.16 12.183 27.16 27.16z" style="fill:#111a21"/></svg>
