<svg xmlns="http://www.w3.org/2000/svg" xml:space="preserve" viewBox="0 0 512 512" width="48" height="48"><path d="M503.742 126.257v259.487c0 19.561-15.858 35.418-35.418 35.418H43.676c-19.562-.001-35.418-15.858-35.418-35.419V126.257c0-19.562 15.857-35.418 35.418-35.418h424.648c19.56 0 35.418 15.856 35.418 35.418" style="fill:#164fce"/><path d="M503.742 211.406H239.915V90.839h-89.187v120.567H8.258v89.188h142.47v120.567h89.187V300.594h263.827z" style="fill:#ffe000"/><path d="M503.742 232.052H219.27V90.839h-47.896v141.213H8.258v47.896h163.116v141.213h47.896V279.948h284.472z" style="fill:#ed1f34"/><path d="M468.324 82.581H43.675C19.593 82.581 0 102.173 0 126.256v259.487c0 24.084 19.593 43.676 43.675 43.676h424.648c24.084 0 43.676-19.593 43.676-43.676V126.256c.001-24.083-19.592-43.675-43.675-43.675m27.16 43.675v97.538H470.71c-4.561 0-8.258 3.697-8.258 8.258s3.697 8.258 8.258 8.258h24.774v31.381H219.271a8.26 8.26 0 0 0-8.258 8.258v132.955h-31.381V279.948a8.26 8.26 0 0 0-8.258-8.258H16.516v-31.38h154.859a8.26 8.26 0 0 0 8.258-8.258V99.097h31.381v132.955a8.26 8.26 0 0 0 8.258 8.258h218.406c4.561 0 8.258-3.697 8.258-8.258s-3.697-8.258-8.258-8.258H227.53V99.097h240.795c14.975 0 27.159 12.183 27.159 27.159M43.675 99.097h119.44v124.697H16.516v-97.538c0-14.976 12.184-27.159 27.159-27.159M16.516 385.743v-97.537h146.6v124.697H43.675c-14.975 0-27.159-12.183-27.159-27.16m451.808 27.16H227.53V288.206h267.954v97.537c0 14.977-12.184 27.16-27.16 27.16" style="fill:#1a1c20"/></svg>
