<svg xmlns="http://www.w3.org/2000/svg" xml:space="preserve" viewBox="0 0 512 512" width="48" height="48"><path d="M8.258 387.212V124.788c0-18.749 15.2-33.949 33.949-33.949h427.584c18.75 0 33.949 15.2 33.949 33.949v262.423c0 18.75-15.2 33.949-33.949 33.949H42.208c-18.75.001-33.95-15.199-33.95-33.948" style="fill:#ed1f34"/><path d="M345.887 190.882H294.72c0 21.385-17.335 38.72-38.72 38.72s-38.72-17.336-38.72-38.72h-51.167c0 44.167 31.865 80.867 73.854 88.433l-8.899 50.303h49.867l-8.9-50.303c41.987-7.565 73.852-44.265 73.852-88.433" style="fill:#333"/><path d="M367.909 228.617c4.562 0 8.258-3.697 8.258-8.258s-3.696-8.258-8.258-8.258H351.83a98 98 0 0 0 1.971-12.961h14.108c4.562 0 8.258-3.697 8.258-8.258s-3.696-8.258-8.258-8.258H294.72a8.257 8.257 0 0 0-8.258 8.258c0 8.428-3.441 16.066-8.991 21.587v-47.256h15.966c4.562 0 8.258-3.697 8.258-8.258s-3.696-8.258-8.258-8.258h-24.224a8.257 8.257 0 0 0-8.258 8.258v63.98c-1.613.265-3.267.41-4.955.41s-3.342-.144-4.955-.41v-63.98a8.257 8.257 0 0 0-8.258-8.258h-24.224c-4.562 0-8.258 3.697-8.258 8.258s3.696 8.258 8.258 8.258h15.966v47.256c-5.549-5.521-8.991-13.159-8.991-21.587a8.257 8.257 0 0 0-8.258-8.258h-73.189c-4.562 0-8.258 3.697-8.258 8.258s3.696 8.258 8.258 8.258h14.108a98 98 0 0 0 1.971 12.961h-16.079c-4.562 0-8.258 3.697-8.258 8.258s3.696 8.258 8.258 8.258h21.297a98 98 0 0 0 6.55 12.961h-27.846c-4.562 0-8.258 3.697-8.258 8.258s3.696 8.258 8.258 8.258h40.37c12.209 12.999 27.978 22.726 45.999 27.55l-6.318 35.714h-15.096a8.257 8.257 0 0 0-8.258 8.258 8.257 8.257 0 0 0 8.258 8.258h38.695v17.169a8.257 8.257 0 0 0 8.258 8.258 8.257 8.257 0 0 0 8.258-8.258v-17.168h38.698a8.257 8.257 0 0 0 8.258-8.258 8.257 8.257 0 0 0-8.258-8.258H287.86l-6.318-35.715c18.019-4.824 33.79-14.551 45.999-27.55h40.37c4.562 0 8.258-3.697 8.258-8.258s-3.696-8.258-8.258-8.258h-27.846a98 98 0 0 0 6.55-12.961h21.295zm-97.34 42.571a8.26 8.26 0 0 0-6.668 9.566l7.183 40.605h-30.172l7.183-40.605a8.26 8.26 0 0 0-6.668-9.566c-18.675-3.365-34.878-12.926-46.682-26.326a8 8 0 0 0-.859-.972 81.47 81.47 0 0 1-19.105-44.75h34.965c2.94 16.51 14.534 30.063 29.907 35.786q.39.159.798.279c4.869 1.713 10.099 2.656 15.546 2.656s10.677-.943 15.546-2.656q.41-.12.799-.28c15.372-5.723 26.966-19.277 29.906-35.786h34.965a81.47 81.47 0 0 1-19.105 44.75 8 8 0 0 0-.859.972c-11.802 13.402-28.004 22.961-46.68 26.327m197.755 158.231H43.676C19.594 429.419 0 409.827 0 385.743V126.257c0-24.084 19.594-43.676 43.676-43.676h424.647c24.083 0 43.676 19.593 43.676 43.676v259.487c.001 24.083-19.593 43.675-43.675 43.675M43.676 99.097c-14.977 0-27.16 12.183-27.16 27.16v259.487c0 14.976 12.183 27.159 27.16 27.159h424.647c14.977 0 27.16-12.183 27.16-27.16V126.257c0-14.977-12.183-27.16-27.16-27.16z" style="fill:#121b21"/></svg>
