<svg xmlns="http://www.w3.org/2000/svg" xml:space="preserve" viewBox="0 0 512 512" width="48" height="48"><path d="M43.676 90.839c-19.561 0-35.418 15.857-35.418 35.417v259.487c0 19.561 15.858 35.418 35.418 35.418H256V90.839z" style="fill:#259245"/><path d="M468.324 90.839H256v330.323h212.324c19.561 0 35.418-15.857 35.418-35.418V126.256c0-19.561-15.857-35.417-35.418-35.417" style="fill:#fff"/><path d="M295.809 342.959c-48.026 0-86.959-38.933-86.959-86.959s38.933-86.959 86.959-86.959c23.684 0 45.145 9.481 60.828 24.839-20.789-33.429-57.836-55.695-100.1-55.695-65.067 0-117.815 52.747-117.815 117.815s52.747 117.815 117.815 117.815c42.263 0 79.309-22.267 100.1-55.696-15.682 15.359-37.143 24.84-60.828 24.84" style="fill:#ed1f34"/><path d="m344.349 216.356 1.509 29.189L373.152 256l-27.294 10.455-1.509 29.189-18.377-22.728-28.227 7.585L313.682 256l-15.937-24.501 28.227 7.585z" style="fill:#ed1f34"/><path d="m376.106 248.288-22.279-8.532-1.23-23.825a8.257 8.257 0 0 0-14.669-4.767l-15 18.552-23.04-6.192a8.26 8.26 0 0 0-9.066 12.479L303.831 256l-13.008 19.999a8.26 8.26 0 0 0 9.066 12.479l23.04-6.192 15 18.552a8.26 8.26 0 0 0 8.973 2.662 8.26 8.26 0 0 0 5.696-7.428l1.23-23.825 22.279-8.532a8.259 8.259 0 0 0-.001-15.427m-33.203 10.455a8.26 8.26 0 0 0-5.294 7.286l-.395 7.657-4.82-5.962a8.26 8.26 0 0 0-8.564-2.783l-7.405 1.991 4.181-6.428a8.26 8.26 0 0 0 0-9.006l-4.181-6.428 7.405 1.991a8.27 8.27 0 0 0 8.564-2.782l4.82-5.962.395 7.657a8.26 8.26 0 0 0 5.294 7.286l7.16 2.743z" style="fill:#111a21"/><path d="M361.806 311.678a8.257 8.257 0 0 0-10.946.542c-14.803 14.498-34.352 22.482-55.049 22.482-43.396 0-78.7-35.305-78.7-78.7s35.305-78.7 78.7-78.7c20.696 0 40.247 7.984 55.05 22.481a8.259 8.259 0 0 0 12.79-10.261c-23.208-37.317-63.25-59.593-107.113-59.593a125.95 125.95 0 0 0-83.059 31.23c-22.756 19.947-37.593 47.356-41.777 77.18a8.257 8.257 0 0 0 7.03 9.325 8.25 8.25 0 0 0 9.325-7.03c7.535-53.696 54.171-94.188 108.48-94.188 20.629 0 40.287 5.673 57.18 16.018a96 96 0 0 0-17.909-1.678c-52.503 0-95.217 42.714-95.217 95.217s42.714 95.217 95.217 95.217c6.071 0 12.061-.568 17.907-1.678-16.893 10.347-36.549 16.018-57.178 16.018-54.309 0-100.945-40.492-108.479-94.188-.633-4.517-4.806-7.657-9.325-7.03a8.256 8.256 0 0 0-7.03 9.325c4.184 29.823 19.021 57.233 41.777 77.18a125.95 125.95 0 0 0 83.057 31.23c43.862 0 83.905-22.277 107.113-59.592a8.263 8.263 0 0 0-1.844-10.807" style="fill:#111a21"/><path d="M468.324 82.581H43.676C19.593 82.581 0 102.173 0 126.256v259.487c0 24.084 19.593 43.676 43.676 43.676h424.648c24.082 0 43.675-19.593 43.675-43.676V126.256c.001-24.083-19.593-43.675-43.675-43.675m27.16 303.162c0 14.977-12.183 27.16-27.16 27.16H43.676c-14.977 0-27.16-12.183-27.16-27.16V126.256c0-14.976 12.183-27.159 27.16-27.159h424.648c14.976 0 27.159 12.183 27.159 27.159z" style="fill:#111a21"/></svg>
