<svg xmlns="http://www.w3.org/2000/svg" xml:space="preserve" viewBox="0 0 512 512" width="48" height="48"><path d="M38.045 421.161h435.91c16.451 0 29.787-13.336 29.787-29.787V120.626c0-16.451-13.336-29.787-29.787-29.787H38.045c-16.451 0-29.787 13.336-29.787 29.787v270.749c0 16.45 13.336 29.786 29.787 29.786" style="fill:#103b9b"/><path d="M503.742 118.655v274.689c0 13.623-13.419 23.19-26.297 18.749L24.774 256 477.445 99.907c12.878-4.442 26.297 5.126 26.297 18.748" style="fill:#fff"/><path d="M485.987 424.698c-.9 0-1.815-.149-2.713-.46L22.061 263.8a8.26 8.26 0 0 1 .021-15.607L480.984 89.951a8.26 8.26 0 0 1 10.499 5.114 8.257 8.257 0 0 1-5.114 10.499L50.008 256.034 488.7 408.638a8.26 8.26 0 0 1 5.087 10.513 8.26 8.26 0 0 1-7.8 5.547" style="fill:#ed1f34"/><path d="M344.467 207.919c-13.185 0-23.876 10.689-23.876 23.876s10.689 23.876 23.876 23.876c0 13.186 10.689 24.205 23.876 24.205h31.715V256l46.067-48.081z" style="fill:#f2a643"/><path d="M446.124 247.742h-26.719l32.681-34.11a8.258 8.258 0 0 0-5.962-13.971H344.467c-17.719 0-32.134 14.415-32.134 32.135a31.9 31.9 0 0 0 4.257 15.946h-8.289c-4.562 0-8.258 3.696-8.258 8.258s3.696 8.258 8.258 8.258h29.051c3.736 13.746 16.212 23.876 30.99 23.876h31.715a8.256 8.256 0 0 0 8.258-8.258v-15.617h37.809a8.256 8.256 0 0 0 8.258-8.258 8.257 8.257 0 0 0-8.258-8.259m-54.325 23.876h-23.457c-6.474 0-12.167-4.277-14.493-10.152a8.22 8.22 0 0 0 2.079-5.466 8.256 8.256 0 0 0-8.258-8.258h-.911a8.3 8.3 0 0 0-2.291-.329c-8.612 0-15.618-7.005-15.618-15.618 0-8.611 7.005-15.619 15.618-15.619h82.309l-30.242 31.566h-7.487A8.256 8.256 0 0 0 380.79 256a8.256 8.256 0 0 0 8.258 8.258h2.753v7.36z" style="fill:#1a1c20"/><path d="M418.404 312.705H336.02c-4.562 0-8.258-3.696-8.258-8.258s3.696-8.258 8.258-8.258h82.384c4.562 0 8.258 3.696 8.258 8.258s-3.696 8.258-8.258 8.258" style="fill:#ffe000"/><path d="M468.324 429.419H43.676C19.594 429.419 0 409.826 0 385.743V126.257c0-24.083 19.594-43.676 43.676-43.676h424.647c24.083 0 43.676 19.594 43.676 43.676v259.486c.001 24.083-19.593 43.676-43.675 43.676M43.676 99.097c-14.977 0-27.16 12.183-27.16 27.16v259.486c0 14.977 12.183 27.16 27.16 27.16h424.647c14.977 0 27.16-12.183 27.16-27.16V126.257c0-14.977-12.183-27.16-27.16-27.16z" style="fill:#1a1c20"/></svg>
