<svg xmlns="http://www.w3.org/2000/svg" xml:space="preserve" viewBox="0 0 512 512" width="48" height="48"><path d="M173.419 90.839H338.58v330.323H173.419z" style="fill:#ffe000"/><path d="M468.324 90.839H338.581v330.323h129.743c19.561 0 35.418-15.857 35.418-35.418V126.256c0-19.561-15.858-35.417-35.418-35.417" style="fill:#ed1f34"/><path d="M43.676 90.839c-19.561 0-35.418 15.857-35.418 35.417v259.487c0 19.561 15.858 35.418 35.418 35.418h129.743V90.839z" style="fill:#164fce"/><path d="M206.452 206.408H256v55.373h-49.548z" style="fill:#ffe000"/><path d="M206.451 261.781v14.92c0 37.77 32.961 28.63 49.549 40.458v-55.378z" style="fill:#ed1f34"/><path d="M305.549 261.781v14.92c0 37.77-32.961 28.63-49.549 40.458v-55.378z" style="fill:#ffe000"/><path d="M256 206.408h49.548v55.373H256z" style="fill:#ed1f34"/><path d="M235.215 318.167c6.225 1.514 12.105 2.944 15.991 5.715a8.25 8.25 0 0 0 9.588 0c3.886-2.77 9.765-4.201 15.991-5.715 15.624-3.8 37.021-9.005 37.021-41.467v-70.297a8.26 8.26 0 0 0-8.258-8.258H206.45a8.26 8.26 0 0 0-8.258 8.258V276.7c0 32.462 21.399 37.667 37.023 41.467m-20.506-103.506h82.582V276.7c0 19.481-9.187 21.717-24.409 25.418-5.701 1.387-11.551 2.81-16.882 5.458-5.33-2.648-11.18-4.071-16.882-5.458-15.221-3.702-24.41-5.937-24.41-25.418v-62.039z" style="fill:#121b21"/><path d="M468.324 82.581H43.676C19.593 82.581 0 102.173 0 126.256v259.487c0 24.084 19.593 43.676 43.676 43.676h424.648c24.083 0 43.675-19.593 43.675-43.676V126.256c.001-24.083-19.592-43.675-43.675-43.675M16.516 385.743V126.256c0-14.976 12.183-27.159 27.16-27.159h121.485v57.806c0 4.561 3.697 8.258 8.258 8.258s8.258-3.697 8.258-8.258V99.097h148.645v313.806H181.677V189.935c0-4.561-3.697-8.258-8.258-8.258s-8.258 3.697-8.258 8.258v222.968H43.676c-14.976 0-27.16-12.183-27.16-27.16m478.968 0c0 14.977-12.183 27.16-27.16 27.16H346.839V99.097h121.485c14.977 0 27.16 12.183 27.16 27.159z" style="fill:#121b21"/></svg>
