<svg xmlns="http://www.w3.org/2000/svg" xml:space="preserve" viewBox="0 0 512 512" width="48" height="48"><path d="M468.324 90.839H43.676c-19.561 0-35.418 15.857-35.418 35.418V256h495.484V126.257c0-19.562-15.857-35.418-35.418-35.418" style="fill:#ed1f34"/><path d="M8.258 385.743c0 19.562 15.858 35.418 35.418 35.418h424.648c19.561 0 35.418-15.857 35.418-35.418V256H8.258z" style="fill:#333"/><path d="M468.324 82.581H43.676C19.594 82.581 0 102.174 0 126.257v259.486c0 24.083 19.594 43.676 43.676 43.676h424.647c24.083 0 43.676-19.594 43.676-43.676V126.257c.001-24.083-19.593-43.676-43.675-43.676m0 330.322H43.676c-14.977 0-27.16-12.183-27.16-27.16V264.258H41.29A8.256 8.256 0 0 0 49.548 256a8.256 8.256 0 0 0-8.258-8.258H16.516V126.257c0-14.977 12.183-27.16 27.16-27.16h424.647c14.977 0 27.16 12.183 27.16 27.16v121.485H74.323A8.256 8.256 0 0 0 66.065 256a8.256 8.256 0 0 0 8.258 8.258h421.161v121.485c0 14.977-12.184 27.16-27.16 27.16" style="fill:#111a21"/><path d="M375.961 355.681a8.23 8.23 0 0 1-4.729-1.495 8.257 8.257 0 0 1-2.028-11.501l7.158-10.222a8.26 8.26 0 0 1 11.501-2.028 8.257 8.257 0 0 1 2.028 11.501l-7.158 10.222a8.24 8.24 0 0 1-6.772 3.523" style="fill:#ffe000"/><path d="M410.177 364.406a8.23 8.23 0 0 1-4.729-1.494L234.147 242.964c-.716 6.163 1.883 12.52 7.311 16.321l98.581 69.026a8.257 8.257 0 0 1 2.028 11.501 8.255 8.255 0 0 1-11.501 2.028l-98.581-69.026c-15.335-10.738-19.074-31.95-8.336-47.282a8.26 8.26 0 0 1 11.501-2.028l179.773 125.878a8.257 8.257 0 0 1 2.028 11.501 8.25 8.25 0 0 1-6.774 3.523" style="fill:#ffe000"/><path d="M265.275 329.754c-18.693 0-36.908-5.707-52.539-16.652-10.305-7.216-18.87-16.274-25.455-26.925a8.256 8.256 0 0 1 2.681-11.366 8.257 8.257 0 0 1 11.366 2.68c5.399 8.732 12.423 16.16 20.881 22.082 16.503 11.556 36.517 15.993 56.359 12.495 19.839-3.499 37.13-14.514 48.686-31.017s15.992-36.518 12.495-56.359c-3.498-19.84-14.513-37.13-31.016-48.686-8.457-5.922-17.842-9.982-27.891-12.069a8.26 8.26 0 0 1-6.407-9.764c.928-4.468 5.312-7.331 9.764-6.407 12.26 2.547 23.702 7.496 34.008 14.711 20.118 14.086 33.544 35.162 37.809 59.347 4.263 24.184-1.145 48.582-15.231 68.699-14.086 20.118-35.163 33.544-59.347 37.809a93 93 0 0 1-16.163 1.422" style="fill:#ffe000"/><circle cx="256.462" cy="193.063" r="21.471" style="fill:#ffe000"/></svg>
