<svg xmlns="http://www.w3.org/2000/svg" xml:space="preserve" viewBox="0 0 512 512" width="48" height="48"><path d="M503.68 126.177v259.519c0 19.584-15.872 35.392-35.392 35.392H43.712c-19.584 0-35.392-15.872-35.392-35.392v-259.52c0-19.584 15.872-35.392 35.392-35.392h424.576c19.584-.064 35.392 15.808 35.392 35.393" style="fill:#103b9b"/><path d="M327.808 184.288c5.888 9.216 15.424 15.296 26.112 15.296s20.224-6.016 26.112-15.296c5.888 9.216 15.424 15.296 26.112 15.296s20.224-6.016 26.112-15.296c5.824 12.928 9.216 28.224 9.216 44.608 0 66.432-61.376 98.496-61.376 98.496S318.72 295.2 318.72 228.896c-.192-16.319 3.2-31.616 9.088-44.608" style="fill:#fff"/><path d="M327.104 270.177c16.896 38.528 52.672 57.216 52.672 57.216s35.776-18.816 52.672-57.28z" style="fill:#3db4ea"/><path d="M379.903 262.153c-13.22 0-23.977-10.757-23.977-23.977s10.757-23.977 23.977-23.977 23.978 10.757 23.978 23.977-10.756 23.977-23.978 23.977m0-33.024c-4.989 0-9.047 4.059-9.047 9.047s4.058 9.047 9.047 9.047 9.048-4.059 9.048-9.047-4.059-9.047-9.048-9.047" style="fill:#ffe000"/><path d="M256 90.72h-40.192l-83.712 55.808L48.513 90.72s-9.92.448-13.248 1.088c-13.888 2.881-24.32 17.088-26.048 26.304l-.896-.64 83.712 55.808-83.712 55.808v26.816h40.192l83.712-55.808 83.712 55.808H256v-26.816l-83.712-55.808L256 117.471z" style="fill:#fff"/><path d="M145.472 182.304 256 255.904v-17.472l-110.592-73.92L256 90.72h-26.816L118.72 164.383 20.8 99.104a35.7 35.7 0 0 0-9.088 11.776l106.88 71.424-110.272 73.6h26.816z" style="fill:#ed1f34"/><path d="M256 151.008H154.368V90.72h-44.544v60.288H8.32v44.608h101.504v60.288h44.544v-60.288H256z" style="fill:#fff"/><path d="M256 161.312H144.128V90.72h-23.936v70.592H8.32v24h111.872v70.592h23.936v-70.592H256z" style="fill:#ed1f34"/><path d="M432.704 176.097c-3.072-.192-5.888 1.216-7.616 3.776-4.608 7.296-11.584 11.392-19.072 11.392s-14.528-4.224-19.072-11.392c-1.472-2.432-4.096-3.776-6.976-3.776-2.816 0-5.376 1.408-6.976 3.776-4.672 7.296-11.584 11.52-19.072 11.52s-14.528-4.224-19.072-11.392c-1.6-2.624-4.48-4.032-7.488-3.776-3.008.192-5.696 2.112-6.912 4.8-6.592 14.399-9.984 30.976-9.984 48 0 29.312 11.392 56.896 32.896 79.808 16.128 17.216 32.192 25.728 32.896 25.984 1.216.576 2.496.896 3.776.896a8.6 8.6 0 0 0 3.776-.896c.704-.384 16.768-8.896 32.896-25.984 21.504-22.912 32.896-50.496 32.896-79.808 0-16.896-3.392-33.472-9.92-48-1.408-2.817-3.968-4.737-6.976-4.928m-52.8 141.823c-12.8-8.128-53.12-37.632-53.12-88.896 0-10.112 1.408-20.032 4.096-29.121 6.72 5.184 14.72 8 22.976 8 9.6 0 18.816-3.904 26.112-10.688 7.232 6.784 16.512 10.688 26.112 10.688 8.32 0 16.32-2.88 22.976-8 2.688 9.216 4.032 19.072 4.032 29.121-.064 51.008-40.512 80.704-53.184 88.896m88.384-235.392H43.712C19.584 82.528 0 102.112 0 126.24v259.52c0 24.128 19.584 43.712 43.712 43.712h424.576c24.128 0 43.712-19.584 43.712-43.712V126.24c0-24.128-19.584-43.712-43.712-43.712m27.2 303.104c0 14.976-12.224 27.201-27.199 27.201H43.712c-14.976 0-27.2-12.224-27.2-27.201V126.24c0-14.976 12.224-27.2 27.2-27.2h424.576c14.976 0 27.199 12.224 27.199 27.2z" style="fill:#1a1c20"/></svg>
