<svg xmlns="http://www.w3.org/2000/svg" xml:space="preserve" viewBox="0 0 512 512" width="48" height="48"><path d="M8.258 126.281v259.438c0 19.574 15.869 35.443 35.443 35.443H468.3c19.574 0 35.443-15.868 35.443-35.443V126.281c0-19.574-15.868-35.443-35.443-35.443H43.701c-19.574.001-35.443 15.868-35.443 35.443" style="fill:#333"/><path d="M8.258 222.968h495.484v99.097H8.258z" style="fill:#3db4ea"/><path d="M8.258 322.065h495.484v99.097H8.258z" style="fill:#fff"/><path d="M256 421.161h217.994c16.429 0 29.748-13.319 29.748-29.748V113.301c0-7.196-9.16-10.249-13.477-4.492zM8.258 114.732v272.112c0 18.953 15.364 34.317 34.317 34.317H256L22.594 109.953c-4.593-6.123-14.336-2.875-14.336 4.779" style="fill:#ed1f34"/><path d="m358.4 222.968-38.306-12.75 30.511-26.438-40.269 2.882 18.072-36.102-36.102 18.072 2.881-40.27-26.438 30.512L256 120.568l-12.749 38.306-26.437-30.512 2.88 40.27-36.102-18.072 18.072 36.102-40.269-2.882 30.511 26.438-38.306 12.75z" style="fill:#ffe000"/><path d="M468.324 82.581H43.676c-12.841 0-24.403 5.573-32.402 14.424a9 9 0 0 0-.651.752C4.012 105.411 0 115.372 0 126.257v259.486c0 24.083 19.594 43.676 43.676 43.676h424.647c24.083 0 43.676-19.594 43.676-43.676V126.257c.001-24.083-19.593-43.676-43.675-43.676M43.676 99.097h424.647c5.686 0 10.967 1.76 15.334 4.758L400.516 214.71h-40.778l-23.277-7.747 19.552-16.941a8.26 8.26 0 0 0 2.222-9.401c-1.359-3.285-4.672-5.349-8.218-5.076l-25.805 1.845 11.581-23.132a8.26 8.26 0 0 0-1.545-9.536 8.26 8.26 0 0 0-9.536-1.545l-23.132 11.581 1.845-25.805a8.255 8.255 0 0 0-5.076-8.218 8.25 8.25 0 0 0-9.401 2.222l-16.941 19.552-8.17-24.546a8.257 8.257 0 0 0-15.67 0l-8.17 24.546-16.941-19.552a8.256 8.256 0 0 0-14.477 5.996l1.845 25.805-23.132-11.581a8.259 8.259 0 0 0-11.081 11.081l11.581 23.132-25.805-1.845c-3.538-.276-6.859 1.791-8.218 5.076a8.255 8.255 0 0 0 2.222 9.401l19.552 16.941-23.279 7.747h-40.778L28.343 103.853a27 27 0 0 1 15.333-4.756m268.318 112.732a8.3 8.3 0 0 0 1.178 2.88H198.826a8.2 8.2 0 0 0 1.178-2.88 8.26 8.26 0 0 0-2.691-7.852l-11.759-10.189 15.521 1.11c2.973.229 5.807-1.18 7.455-3.648a8.27 8.27 0 0 0 .519-8.286l-6.964-13.912 13.912 6.964a8.259 8.259 0 0 0 11.934-7.974l-1.11-15.521 10.189 11.759a8.24 8.24 0 0 0 7.852 2.691 8.26 8.26 0 0 0 6.224-5.491L256 146.716l4.914 14.764a8.26 8.26 0 0 0 6.224 5.491 8.24 8.24 0 0 0 7.852-2.691l10.189-11.759-1.11 15.521a8.258 8.258 0 0 0 11.932 7.974l13.912-6.964-6.964 13.912a8.26 8.26 0 0 0 .519 8.286c1.648 2.468 4.49 3.878 7.456 3.648l15.521-1.11-11.759 10.189a8.26 8.26 0 0 0-2.692 7.852M43.676 412.903c-14.977 0-27.16-12.183-27.16-27.16V126.257c0-3.05.513-5.981 1.445-8.719l221.523 295.366zm451.808-27.16c0 14.977-12.183 27.16-27.16 27.16H272.516l9.91-13.213a8.26 8.26 0 0 0-1.652-11.561 8.257 8.257 0 0 0-11.561 1.652L256 407.398 123.871 231.226h234.502l.026.002.028-.002h29.702l-99.097 132.129a8.258 8.258 0 0 0 13.213 9.91L494.04 117.538a27 27 0 0 1 1.444 8.719z" style="fill:#121b21"/></svg>
