<svg xmlns="http://www.w3.org/2000/svg" xml:space="preserve" viewBox="0 0 512 512" width="48" height="48"><path d="M8.258 200.946h495.484v110.108H8.258z" style="fill:#fff"/><path d="M256 225.72c-16.696 0-30.28 13.584-30.28 30.28s13.584 30.28 30.28 30.28 30.28-13.584 30.28-30.28-13.584-30.28-30.28-30.28" style="fill:#f2a643"/><path d="M8.258 311.054h495.484v74.597c0 19.612-15.9 35.511-35.511 35.511H43.769c-19.611 0-35.511-15.9-35.511-35.511zM43.769 90.839H468.23c19.612 0 35.511 15.898 35.511 35.512v74.596H8.258v-74.596c0-19.614 15.9-35.512 35.511-35.512" style="fill:#3db4ea"/><path d="M468.324 82.581H43.676C19.594 82.581 0 102.174 0 126.257v259.486c0 24.083 19.594 43.676 43.676 43.676h424.647c24.083 0 43.676-19.594 43.676-43.676V126.257c.001-24.083-19.593-43.676-43.675-43.676M16.516 209.204h478.968v93.591H16.516zm27.16-110.107h424.647c14.977 0 27.16 12.183 27.16 27.16v66.431H16.516v-66.431c0-14.977 12.184-27.16 27.16-27.16m424.648 313.806H43.676c-14.977 0-27.16-12.183-27.16-27.16v-66.431h478.968v66.431c0 14.977-12.184 27.16-27.16 27.16" style="fill:#121b21"/></svg>
