<svg xmlns="http://www.w3.org/2000/svg" xml:space="preserve" viewBox="0 0 512 512" width="48" height="48"><path d="M8.258 381.523V130.477c0-21.892 17.747-39.639 39.639-39.639h416.206c21.892 0 39.639 17.747 39.639 39.639v251.045c0 21.892-17.747 39.639-39.639 39.639H47.897c-21.892 0-39.639-17.747-39.639-39.638" style="fill:#3db4ea"/><path d="M8.258 350.692h495.484v19.819H8.258zm0-39.638h495.484v19.819H8.258z" style="fill:#ffe000"/><path d="m115.062 137.084 15.017 45.543 45.543 15.016-45.543 15.016-15.017 45.543-15.016-45.543-45.543-15.016 45.543-15.016z" style="fill:#ed1f34"/><path d="M115.062 266.46a8.26 8.26 0 0 1-7.843-5.672l-13.713-41.59-41.589-13.713a8.26 8.26 0 0 1-.001-15.686l41.589-13.713 13.713-41.59a8.259 8.259 0 0 1 15.686 0l13.713 41.59 41.589 13.713a8.26 8.26 0 0 1 0 15.686l-41.589 13.713-13.713 41.59a8.26 8.26 0 0 1-7.842 5.672m-34.187-68.817 21.757 7.173a8.26 8.26 0 0 1 5.257 5.257l7.174 21.756 7.174-21.756a8.26 8.26 0 0 1 5.257-5.257l21.757-7.173-21.757-7.174a8.26 8.26 0 0 1-5.257-5.257l-7.174-21.756-7.174 21.756a8.26 8.26 0 0 1-5.257 5.257z" style="fill:#fff"/><path d="M468.324 429.419H43.676C19.594 429.419 0 409.827 0 385.743V126.256c0-24.083 19.594-43.675 43.676-43.675h424.647c24.083 0 43.676 19.593 43.676 43.675v259.487c.001 24.084-19.593 43.676-43.675 43.676M43.676 99.097c-14.977 0-27.16 12.183-27.16 27.159v259.487c0 14.977 12.183 27.16 27.16 27.16h424.647c14.977 0 27.16-12.183 27.16-27.16V126.256c0-14.976-12.183-27.159-27.16-27.159z" style="fill:#1a1c20"/></svg>
