<svg xmlns="http://www.w3.org/2000/svg" xml:space="preserve" viewBox="0 0 512 512" width="48" height="48"><path d="M8.258 200.946h495.484v110.108H8.258z" style="fill:#fff"/><path d="M8.258 385.743c0 19.561 15.858 35.418 35.418 35.418h424.648c19.561 0 35.418-15.858 35.418-35.418v-74.689H8.258zM468.324 90.839H43.676c-19.561 0-35.418 15.857-35.418 35.418v74.689h495.484v-74.689c0-19.562-15.857-35.418-35.418-35.418" style="fill:#ed1f34"/><path d="M468.324 82.581H43.676C19.594 82.581 0 102.173 0 126.257v259.487c0 24.083 19.594 43.675 43.676 43.675h424.647c24.083 0 43.676-19.593 43.676-43.676V126.257c.001-24.084-19.593-43.676-43.675-43.676M43.676 99.097h424.647c14.977 0 27.16 12.183 27.16 27.16v66.431H107.355c-4.562 0-8.258 3.697-8.258 8.258s3.696 8.258 8.258 8.258h388.129v93.591H16.516v-93.591h57.806c4.562 0 8.258-3.697 8.258-8.258s-3.696-8.258-8.258-8.258H16.516v-66.431c0-14.977 12.184-27.16 27.16-27.16m424.648 313.806H43.676c-14.977 0-27.16-12.183-27.16-27.16v-66.431h478.968v66.431c0 14.977-12.184 27.16-27.16 27.16" style="fill:#121b21"/></svg>
