<svg xmlns="http://www.w3.org/2000/svg" xml:space="preserve" viewBox="0 0 512 512" width="48" height="48"><path d="M8.258 200.946h495.484v110.108H8.258z" style="fill:#ed1f34"/><path d="M8.258 385.743c0 19.561 15.857 35.418 35.418 35.418h424.648c19.561 0 35.418-15.857 35.418-35.418v-74.689H8.258z" style="fill:#259245"/><path d="M468.324 90.839H43.676c-19.562 0-35.418 15.857-35.418 35.417v74.69h495.484v-74.69c0-19.561-15.857-35.417-35.418-35.417" style="fill:#3db4ea"/><path d="M244.259 289.583c-18.517 0-33.583-15.065-33.583-33.583s15.066-33.583 33.583-33.583c7.15 0 13.977 2.22 19.746 6.419a8.258 8.258 0 1 1-9.722 13.352 16.9 16.9 0 0 0-10.023-3.255c-9.411 0-17.067 7.656-17.067 17.067s7.656 17.067 17.067 17.067c3.634 0 7.099-1.126 10.024-3.255a8.258 8.258 0 1 1 9.722 13.35c-5.768 4.2-12.596 6.421-19.747 6.421" style="fill:#fff"/><circle cx="281.974" cy="256" r="9.435" style="fill:#fff"/><path d="M468.324 82.581H43.676C19.594 82.581 0 102.173 0 126.256v259.487c0 24.084 19.594 43.676 43.676 43.676h424.647c24.083 0 43.676-19.593 43.676-43.676V126.256c.001-24.083-19.593-43.675-43.675-43.675M43.676 99.097h424.647c14.977 0 27.16 12.183 27.16 27.159v66.432H16.516v-66.432c0-14.976 12.184-27.159 27.16-27.159m424.648 313.806H43.676c-14.977 0-27.16-12.183-27.16-27.16v-66.431h388.129a8.257 8.257 0 0 0 8.258-8.258 8.257 8.257 0 0 0-8.258-8.258H16.516v-93.591h478.968v93.591h-57.806a8.257 8.257 0 0 0-8.258 8.258 8.257 8.257 0 0 0 8.258 8.258h57.806v66.431c0 14.977-12.184 27.16-27.16 27.16" style="fill:#121b21"/></svg>
