<?xml version="1.0" encoding="iso-8859-1"?>
<!-- Generator: Adobe Illustrator 19.0.0, SVG Export Plug-In . SVG Version: 6.00 Build 0)  -->
<svg version="1.1" id="Layer_1" xmlns="http://www.w3.org/2000/svg" xmlns:xlink="http://www.w3.org/1999/xlink" x="0px" y="0px"
	 viewBox="0 0 512 512" style="enable-background:new 0 0 512 512;" xml:space="preserve">
<path style="fill:#FFFFFF;" d="M503.742,125.156v261.689c0,18.953-15.364,34.317-34.317,34.317H173.419V90.84h296.005
	C488.378,90.839,503.742,106.203,503.742,125.156z"/>
<path style="fill:#103B9B;" d="M173.419,90.839v330.323H48.081c-21.994,0-39.823-17.829-39.823-39.823V130.661
	c0-21.994,17.829-39.823,39.823-39.823H173.419z"/>
<g>
	<path style="fill:#FFE000;" d="M246.498,244.478h-41.599c0,13.273-8.22,24.62-19.842,29.249v-17.612
		c0-6.427-5.21-11.637-11.637-11.637s-11.637,5.21-11.637,11.637v17.612c-11.623-4.629-19.842-15.975-19.842-29.249h-41.599
		c0,35.908,25.906,65.745,60.043,71.896l-7.235,29.259h40.542l-7.235-29.259C220.592,310.224,246.498,280.387,246.498,244.478z"/>
	<circle style="fill:#FFE000;" cx="173.419" cy="173.078" r="6.713"/>
	<circle style="fill:#FFE000;" cx="150.242" cy="176.414" r="6.713"/>
	<circle style="fill:#FFE000;" cx="128.947" cy="186.137" r="6.714"/>
	<circle style="fill:#FFE000;" cx="111.253" cy="201.475" r="6.714"/>
	<circle style="fill:#FFE000;" cx="98.59" cy="221.173" r="6.713"/>
	<circle style="fill:#FFE000;" cx="196.597" cy="176.414" r="6.713"/>
	<circle style="fill:#FFE000;" cx="217.892" cy="186.137" r="6.714"/>
	<circle style="fill:#FFE000;" cx="235.586" cy="201.475" r="6.714"/>
	<circle style="fill:#FFE000;" cx="248.248" cy="221.173" r="6.713"/>
</g>
<path style="fill:#ED1F34;" d="M48.049,135.432v19.8c0,8.676,7.034,15.71,15.71,15.71s15.71-7.034,15.71-15.71v-19.8H48.049z"/>
<g>
	<path style="fill:#1A1C20;" d="M255.449,236.22h-8.952h-41.599c-4.562,0-8.258,3.696-8.258,8.258c0,4.354-1.19,8.48-3.325,12.018
		v-0.381c0-10.971-8.924-19.895-19.895-19.895c-10.971,0-19.895,8.924-19.895,19.895v0.381c-2.135-3.538-3.325-7.665-3.325-12.018
		c0-4.562-3.696-8.258-8.258-8.258h-41.601h-8.952c-4.562,0-8.258,3.696-8.258,8.258s3.696,8.258,8.258,8.258h1.125
		c3.321,32.858,26.227,60.459,57.852,69.747l-5.235,21.168c-0.61,2.465-0.052,5.074,1.514,7.073c1.565,2,3.964,3.168,6.502,3.168
		h40.542c2.539,0,4.937-1.168,6.502-3.168c1.566-1.998,2.124-4.607,1.514-7.073l-5.235-21.168
		c31.625-9.288,54.531-36.888,57.852-69.747h1.128c4.562,0,8.258-3.696,8.258-8.258C263.708,239.918,260.011,236.22,255.449,236.22z
		 M184.991,308.247c-2.246,0.404-4.224,1.721-5.466,3.636c-1.241,1.915-1.634,4.258-1.086,6.474l4.703,19.018h-19.443l4.703-19.018
		c0.548-2.216,0.155-4.56-1.086-6.474c-1.242-1.915-3.22-3.232-5.466-3.636c-28.109-5.065-49.197-27.776-52.728-55.511h25.414
		c2.693,12.854,11.598,23.648,24.192,28.663c2.545,1.012,5.425,0.698,7.69-0.838c2.267-1.537,3.624-4.097,3.624-6.834v-17.612
		c0-1.863,1.516-3.379,3.379-3.379s3.379,1.516,3.379,3.379v17.612c0,2.737,1.357,5.297,3.624,6.834
		c2.266,1.537,5.146,1.852,7.69,0.838c12.594-5.017,21.497-15.809,24.192-28.663h25.414
		C234.187,280.473,213.1,303.183,184.991,308.247z"/>
	<path style="fill:#1A1C20;" d="M87.728,135.432c0-4.562-3.696-8.258-8.258-8.258H48.049c-4.562,0-8.258,3.696-8.258,8.258v19.798
		c0,13.216,10.753,23.969,23.969,23.969s23.968-10.753,23.968-23.969C87.728,155.231,87.728,135.432,87.728,135.432z
		 M71.212,155.231c0,4.109-3.343,7.453-7.452,7.453c-4.109,0-7.453-3.343-7.453-7.453v-11.54h14.905V155.231z"/>
</g>
<path d="M468.324,429.419H43.676C19.594,429.419,0,409.826,0,385.743V126.257c0-24.083,19.594-43.676,43.676-43.676h424.647
	c24.083,0,43.676,19.594,43.676,43.676v259.486C512,409.826,492.406,429.419,468.324,429.419z M43.676,99.097
	c-14.977,0-27.16,12.183-27.16,27.16v259.486c0,14.977,12.183,27.16,27.16,27.16h424.647c14.977,0,27.16-12.183,27.16-27.16V126.257
	c0-14.977-12.183-27.16-27.16-27.16H43.676z"/>
<g>
</g>
<g>
</g>
<g>
</g>
<g>
</g>
<g>
</g>
<g>
</g>
<g>
</g>
<g>
</g>
<g>
</g>
<g>
</g>
<g>
</g>
<g>
</g>
<g>
</g>
<g>
</g>
<g>
</g>
</svg>
