<svg xmlns="http://www.w3.org/2000/svg" xml:space="preserve" viewBox="0 0 512 512" width="48" height="48"><path d="M503.742 125.156v261.689c0 18.953-15.364 34.317-34.317 34.317H173.419V90.84h296.005c18.954-.001 34.318 15.363 34.318 34.316" style="fill:#fff"/><path d="M173.419 90.839v330.323H48.081c-21.994 0-39.823-17.829-39.823-39.823V130.661c0-21.994 17.829-39.823 39.823-39.823h125.338z" style="fill:#103b9b"/><path d="M246.498 244.478h-41.599c0 13.273-8.22 24.62-19.842 29.249v-17.612c0-6.427-5.21-11.637-11.637-11.637s-11.637 5.21-11.637 11.637v17.612c-11.623-4.629-19.842-15.975-19.842-29.249h-41.599c0 35.908 25.906 65.745 60.043 71.896l-7.235 29.259h40.542l-7.235-29.259c34.135-6.15 60.041-35.987 60.041-71.896" style="fill:#ffe000"/><circle cx="173.419" cy="173.078" r="6.713" style="fill:#ffe000"/><circle cx="150.242" cy="176.414" r="6.713" style="fill:#ffe000"/><circle cx="128.947" cy="186.137" r="6.714" style="fill:#ffe000"/><circle cx="111.253" cy="201.475" r="6.714" style="fill:#ffe000"/><circle cx="98.59" cy="221.173" r="6.713" style="fill:#ffe000"/><circle cx="196.597" cy="176.414" r="6.713" style="fill:#ffe000"/><circle cx="217.892" cy="186.137" r="6.714" style="fill:#ffe000"/><circle cx="235.586" cy="201.475" r="6.714" style="fill:#ffe000"/><circle cx="248.248" cy="221.173" r="6.713" style="fill:#ffe000"/><path d="M48.049 135.432v19.8c0 8.676 7.034 15.71 15.71 15.71s15.71-7.034 15.71-15.71v-19.8z" style="fill:#ed1f34"/><path d="M255.449 236.22h-50.551a8.256 8.256 0 0 0-8.258 8.258c0 4.354-1.19 8.48-3.325 12.018v-.381c0-10.971-8.924-19.895-19.895-19.895s-19.895 8.924-19.895 19.895v.381a23.2 23.2 0 0 1-3.325-12.018 8.256 8.256 0 0 0-8.258-8.258H91.389c-4.562 0-8.258 3.696-8.258 8.258s3.696 8.258 8.258 8.258h1.125c3.321 32.858 26.227 60.459 57.852 69.747l-5.235 21.168a8.257 8.257 0 0 0 8.016 10.241h40.542a8.256 8.256 0 0 0 8.016-10.241l-5.235-21.168c31.625-9.288 54.531-36.888 57.852-69.747h1.128a8.259 8.259 0 0 0-.001-16.516m-70.458 72.027a8.26 8.26 0 0 0-6.552 10.11l4.703 19.018h-19.443l4.703-19.018a8.257 8.257 0 0 0-6.552-10.11c-28.109-5.065-49.197-27.776-52.728-55.511h25.414c2.693 12.854 11.598 23.648 24.192 28.663a8.262 8.262 0 0 0 11.314-7.672v-17.612c0-1.863 1.516-3.379 3.379-3.379s3.379 1.516 3.379 3.379v17.612a8.257 8.257 0 0 0 11.314 7.672c12.594-5.017 21.497-15.809 24.192-28.663h25.414c-3.533 27.737-24.62 50.447-52.729 55.511M87.728 135.432a8.256 8.256 0 0 0-8.258-8.258H48.049a8.256 8.256 0 0 0-8.258 8.258v19.798c0 13.216 10.753 23.969 23.969 23.969s23.968-10.753 23.968-23.969zm-16.516 19.799c0 4.109-3.343 7.453-7.452 7.453s-7.453-3.343-7.453-7.453v-11.54h14.905z" style="fill:#1a1c20"/><path d="M468.324 429.419H43.676C19.594 429.419 0 409.826 0 385.743V126.257c0-24.083 19.594-43.676 43.676-43.676h424.647c24.083 0 43.676 19.594 43.676 43.676v259.486c.001 24.083-19.593 43.676-43.675 43.676M43.676 99.097c-14.977 0-27.16 12.183-27.16 27.16v259.486c0 14.977 12.183 27.16 27.16 27.16h424.647c14.977 0 27.16-12.183 27.16-27.16V126.257c0-14.977-12.183-27.16-27.16-27.16z"/></svg>
