<svg xmlns="http://www.w3.org/2000/svg" xml:space="preserve" viewBox="0 0 512 512" width="48" height="48"><path d="M8.258 200.946h495.484v110.108H8.258z" style="fill:#ffe000"/><path d="M8.258 385.743c0 19.561 15.858 35.418 35.418 35.418h424.648c19.561 0 35.418-15.857 35.418-35.418v-74.689H8.258zM468.324 90.839H43.676c-19.561 0-35.418 15.857-35.418 35.417v74.69h495.484v-74.69c0-19.561-15.857-35.417-35.418-35.417" style="fill:#3db4ea"/><path d="M8.258 120.422v271.156c0 12.645 14.093 20.188 24.615 13.173L256 256 32.873 107.248c-10.522-7.014-24.615.529-24.615 13.174" style="fill:#333"/><path d="M468.324 82.581H43.676c-10.548 0-20.234 3.759-27.791 10.008a8 8 0 0 0-.962.834C5.786 101.433 0 113.18 0 126.257v259.486c0 13.164 5.863 24.978 15.105 32.992q.295.281.612.53c7.581 6.334 17.331 10.155 27.96 10.155h424.647c24.083 0 43.676-19.594 43.676-43.676V126.257c0-24.083-19.594-43.676-43.676-43.676M21.994 402.079a27 27 0 0 1-5.478-16.336V126.257a27 27 0 0 1 5.478-16.336l146.792 97.861.037.025L241.113 256l-72.29 48.193q-.018.013-.037.024zM260.58 262.871a8.256 8.256 0 0 0 0-13.742l-59.887-39.925h294.791v93.591H200.693zM468.324 99.097c14.977 0 27.16 12.183 27.16 27.16v66.431H175.919L36.841 99.97a27 27 0 0 1 6.835-.873zm0 313.806H43.676c-2.361 0-4.651-.304-6.835-.873l139.078-92.718h319.565v66.431c0 14.977-12.184 27.16-27.16 27.16" style="fill:#121b21"/></svg>
