<svg xmlns="http://www.w3.org/2000/svg" xml:space="preserve" viewBox="0 0 512.001 512.001" width="48" height="48"><path d="M468.324 90.838H133.781l79.277 41.29-79.277 41.301 79.277 41.29-79.277 41.29 79.277 41.29-79.277 41.29 79.277 41.279-79.277 41.29h334.543c19.561 0 35.418-15.858 35.418-35.418V126.257c0-19.561-15.858-35.419-35.418-35.419" style="fill:#ed1f34"/><path d="m133.781 338.591 79.277-41.29-79.277-41.29 79.277-41.29-79.277-41.29 79.277-41.301-79.277-41.29H43.676c-19.561 0-35.418 15.858-35.418 35.418v259.487c0 19.561 15.858 35.418 35.418 35.418h90.104l79.277-41.29z" style="fill:#fff"/><path d="M468.324 82.58H43.676C19.593 82.58 0 102.174 0 126.257v259.487c0 24.083 19.593 43.675 43.676 43.675h90.088l.024.002.028-.002h334.509c24.083 0 43.676-19.593 43.676-43.675V126.257C512 102.174 492.407 82.58 468.324 82.58M16.516 385.744V126.257c0-14.976 12.183-27.159 27.16-27.159h88.083l63.424 33.038-65.217 33.971a8.259 8.259 0 0 0 .001 14.648l65.216 33.966-65.216 33.967a8.26 8.26 0 0 0 0 14.648l65.214 33.965-65.214 33.965a8.26 8.26 0 0 0 0 14.648l65.213 33.96-63.421 33.03H43.676c-14.976-.001-27.16-12.184-27.16-27.16m478.968 0c0 14.976-12.183 27.159-27.16 27.159h-300.81l49.358-25.706a8.258 8.258 0 0 0 0-14.648l-65.213-33.96 65.213-33.964a8.258 8.258 0 0 0 0-14.648l-65.216-33.965 65.216-33.967a8.26 8.26 0 0 0 0-14.648l-65.216-33.966 65.216-33.971a8.259 8.259 0 0 0 0-14.648l-49.363-25.713h300.815c14.976 0 27.16 12.183 27.16 27.159z" style="fill:#111a21"/></svg>
