<svg xmlns="http://www.w3.org/2000/svg" xml:space="preserve" viewBox="0 0 512 512" width="48" height="48"><path d="M470.707 90.847H41.293c-18.244 0-33.034 14.791-33.034 33.034v3.668h495.484v-3.668c-.001-18.243-14.791-33.034-33.036-33.034" style="fill:#ffe000"/><path d="M8.258 127.549h495.484v36.699H8.258z" style="fill:#ed1f34"/><path d="M8.258 164.248h495.484v36.699H8.258z" style="fill:#ffe000"/><path d="M8.258 200.958h495.484v36.699H8.258z" style="fill:#ed1f34"/><path d="M8.258 237.657h495.484v36.699H8.258z" style="fill:#ffe000"/><path d="M8.258 274.355h495.484v36.699H8.258z" style="fill:#ed1f34"/><path d="M8.258 311.065h495.484v36.699H8.258z" style="fill:#ffe000"/><path d="M8.258 347.764h495.484v36.699H8.258z" style="fill:#ed1f34"/><path d="M503.742 384.467H8.258v3.668c0 18.245 14.791 33.034 33.034 33.034h429.414c18.245 0 33.034-14.79 33.034-33.034v-3.668z" style="fill:#ffe000"/><path d="M256 256.008H8.258v-131.03c0-18.85 15.281-34.131 34.131-34.131H256z" style="fill:#6806c1"/><path d="M63.482 169.621h137.293v42.348H63.482z" style="fill:#fff"/><path d="M212.053 203.707h-3.019v-28.255a8.23 8.23 0 0 0 2.416-5.837 8.256 8.256 0 0 0-8.258-8.258h-10.27v-8.682a8.256 8.256 0 0 0-8.258-8.258 8.256 8.256 0 0 0-8.258 8.258v8.682h-9.75v-8.682c0-4.562-3.696-8.258-8.258-8.258s-8.258 3.696-8.258 8.258v8.682h-9.752V134.89a8.256 8.256 0 0 0-8.258-8.258 8.256 8.256 0 0 0-8.258 8.258v26.468h-9.751v-8.682c0-4.562-3.696-8.258-8.258-8.258s-8.258 3.696-8.258 8.258v8.682h-9.751v-8.682a8.256 8.256 0 0 0-8.258-8.258 8.256 8.256 0 0 0-8.258 8.258v8.682h-10.27a8.257 8.257 0 0 0-5.842 14.095v28.255h-3.019a8.256 8.256 0 0 0-8.258 8.258 8.256 8.256 0 0 0 8.258 8.258h159.847a8.26 8.26 0 0 0-.001-16.517m-19.535 0h-52.13v-6.141a8.256 8.256 0 0 0-8.258-8.258 8.256 8.256 0 0 0-8.258 8.258v6.141h-52.13v-25.833h120.776z" style="fill:#1a1c20"/><path d="M468.324 82.583H256.107c-.036 0-.07-.006-.107-.006q-.053.001-.107.006H43.676C19.594 82.583 0 102.177 0 126.26v259.486c0 24.083 19.594 43.676 43.676 43.676h424.647c24.083 0 43.676-19.594 43.676-43.676V126.26c.001-24.083-19.593-43.677-43.675-43.677M43.676 99.1h204.066v148.65l-231.226-.006V126.26c0-14.976 12.184-27.16 27.16-27.16m451.808 286.646c0 14.977-12.183 27.16-27.16 27.16H43.676c-14.977 0-27.16-12.183-27.16-27.16V264.261l239.484.005c2.19 0 4.29-.87 5.84-2.418a8.26 8.26 0 0 0 2.418-5.84V99.1h204.066c14.977 0 27.16 12.183 27.16 27.16z" style="fill:#1a1c20"/></svg>
