<svg xmlns="http://www.w3.org/2000/svg" xml:space="preserve" viewBox="0 0 512 512" width="48" height="48"><path d="M42.268 90.839h427.464c18.783 0 34.01 15.227 34.01 34.01v262.303c0 18.783-15.227 34.01-34.01 34.01H42.268c-18.783 0-34.01-15.227-34.01-34.01V124.849c0-18.784 15.227-34.01 34.01-34.01" style="fill:#259245"/><circle cx="220.942" cy="256" r="82.581" style="fill:#ed1f34"/><path d="M220.94 181.677c35.209 0 65.84 25.002 72.833 59.449.907 4.47 5.269 7.36 9.736 6.45a8.26 8.26 0 0 0 6.45-9.736c-8.55-42.114-45.988-72.68-89.019-72.68-50.089 0-90.839 40.75-90.839 90.839s40.75 90.839 90.839 90.839c43.032 0 80.469-30.566 89.019-72.68a8.26 8.26 0 0 0-6.45-9.736 8.257 8.257 0 0 0-9.736 6.45c-6.993 34.447-37.624 59.449-72.833 59.449-40.982 0-74.323-33.341-74.323-74.323s33.341-74.321 74.323-74.321" style="fill:#111a21"/><path d="M468.324 82.581H43.675C19.593 82.581 0 102.173 0 126.257v259.487c0 24.083 19.593 43.675 43.675 43.675h424.648c24.084 0 43.676-19.593 43.676-43.676V126.257c.001-24.084-19.592-43.676-43.675-43.676m27.16 303.162c0 14.977-12.183 27.16-27.16 27.16H43.675c-14.976 0-27.159-12.183-27.159-27.16V126.257c0-14.977 12.183-27.16 27.159-27.16h424.648c14.977 0 27.16 12.183 27.16 27.16z" style="fill:#111a21"/></svg>
