<svg xmlns="http://www.w3.org/2000/svg" xml:space="preserve" viewBox="0 0 512 512" width="48" height="48"><path d="M173.419 90.839H338.58v330.323H173.419z" style="fill:#ffe000"/><path d="M173.419 90.839v330.323H43.835c-19.649 0-35.577-15.928-35.577-35.577V126.416c0-19.649 15.928-35.577 35.577-35.577zm330.323 33.067v264.188c0 18.262-14.805 33.068-33.068 33.068H338.581V90.839h132.094c18.262 0 33.067 14.805 33.067 33.067" style="fill:#103b9b"/><path d="M216.521 281.488a8.257 8.257 0 0 0 11.994 6.231l19.227-9.993v37.733a8.256 8.256 0 0 0 8.258 8.258 8.256 8.256 0 0 0 8.258-8.258v-37.733l19.227 9.992a8.26 8.26 0 0 0 7.617 0 8.26 8.26 0 0 0 4.378-6.231l8.941-66.737a8.259 8.259 0 0 0-16.371-2.193l-7.379 55.085-16.412-8.529v-62.57a8.256 8.256 0 0 0-8.258-8.258 8.256 8.256 0 0 0-8.258 8.258v62.57l-16.412 8.529-7.379-55.085c-.606-4.52-4.77-7.691-9.282-7.089a8.26 8.26 0 0 0-7.089 9.282z" style="fill:#121b21"/><path d="M468.324 82.581H43.676C19.594 82.581 0 102.174 0 126.257v259.486c0 24.083 19.594 43.676 43.676 43.676h424.647c24.083 0 43.676-19.594 43.676-43.676V126.257c.001-24.083-19.593-43.676-43.675-43.676M16.516 385.743V126.257c0-14.977 12.183-27.16 27.16-27.16h121.485v24.774a8.256 8.256 0 0 0 8.258 8.258 8.256 8.256 0 0 0 8.258-8.258V99.097h148.645v313.806H181.677v-256a8.256 8.256 0 0 0-8.258-8.258 8.256 8.256 0 0 0-8.258 8.258v256H43.676c-14.976 0-27.16-12.183-27.16-27.16m478.968 0c0 14.977-12.183 27.16-27.16 27.16H346.839V99.097h121.485c14.977 0 27.16 12.183 27.16 27.16z" style="fill:#121b21"/></svg>
