<svg xmlns="http://www.w3.org/2000/svg" xml:space="preserve" viewBox="0 0 512.001 512.001" width="48" height="48"><path d="M42.866 90.838h426.267c19.114 0 34.608 15.494 34.608 34.608v261.106c0 19.114-15.494 34.608-34.608 34.608H42.866c-19.114.002-34.608-15.493-34.608-34.607V125.447c0-19.114 15.494-34.609 34.608-34.609" style="fill:#ed1f34"/><path d="M503.179 392.004 299.173 255.999l204.006-136.004c-2.957-16.572-17.432-29.158-34.855-29.158h-7.756L256 227.217 51.431 90.838h-7.756c-17.423 0-31.897 12.585-34.855 29.158L212.826 256 8.821 392.004c2.957 16.572 17.432 29.156 34.855 29.156h7.756L256 284.782l204.569 136.379h7.756c17.422 0 31.897-12.585 34.854-29.157" style="fill:#259245"/><path d="M8.258 279.947h223.794v141.214h47.896V279.947h223.794V232.05H279.948V90.838h-47.896V232.05H8.258z" style="fill:#fff"/><path d="M512 126.256c0-1.573-.088-3.125-.251-4.654a8.23 8.23 0 0 0-1.136-6.561c-.041-.062-.087-.115-.129-.174-5.024-18.575-22.017-32.286-42.16-32.286H43.678c-20.143 0-37.136 13.711-42.16 32.286-.042.059-.089.113-.129.174a8.22 8.22 0 0 0-1.136 6.561A43 43 0 0 0 0 126.256v259.486c0 1.573.088 3.125.251 4.655a8.23 8.23 0 0 0 1.136 6.561c.04.059.087.109.127.166 5.022 18.58 22.017 32.295 42.162 32.295h7.746l.018.001.015-.001h409.09l.015.001.018-.001h7.746c20.145 0 37.14-13.714 42.162-32.293.041-.058.088-.108.127-.166a8.22 8.22 0 0 0 1.136-6.561c.163-1.531.251-3.082.251-4.655zm-223.794-27.16h145.088l-145.088 96.725zm0 116.574L463.068 99.096h5.255c11.513 0 21.367 7.203 25.314 17.336l-161.041 107.36h-44.39zM223.794 99.096v96.725L78.706 99.096zm-180.118 0h5.255L223.794 215.67v8.123h-44.389L18.363 116.433c3.946-10.134 13.801-17.337 25.313-17.337m-27.16 189.11H149.63L16.516 376.948zm207.278 124.697H78.706l145.088-96.725zm0-116.575L48.932 412.903h-5.255c-11.513 0-21.367-7.203-25.314-17.336l161.041-107.36h44.39zm244.53 116.575h-5.255L288.206 296.328v-8.123h44.391l161.04 107.36c-3.946 10.134-13.801 17.338-25.313 17.338m27.16-35.955-133.112-88.741h133.112zm0-105.259H279.949a8.256 8.256 0 0 0-8.258 8.258v75.148c0 4.562 3.696 8.258 8.258 8.258s8.258-3.696 8.258-8.258v-38.919l145.088 96.726H288.206v-24.774c0-4.562-3.696-8.258-8.258-8.258s-8.258 3.696-8.258 8.258v24.774h-31.38V279.947a8.256 8.256 0 0 0-8.258-8.258H16.516v-31.381H41.29a8.256 8.256 0 0 0 8.258-8.258 8.256 8.256 0 0 0-8.258-8.258H16.516V135.05l133.113 88.742H74.323a8.256 8.256 0 0 0-8.258 8.258 8.256 8.256 0 0 0 8.258 8.258h157.729a8.256 8.256 0 0 0 8.258-8.258V99.096h31.381v132.957a8.256 8.256 0 0 0 8.258 8.258h55.139l.018.001.015-.001h160.364v31.378zm0-47.897H362.37l133.113-88.741z" style="fill:#1a1c20"/></svg>
