<svg xmlns="http://www.w3.org/2000/svg" xml:space="preserve" viewBox="0 0 512.001 512.001" width="48" height="48"><path d="M96.345 421.07H38.622c-16.769 0-30.363-13.594-30.363-30.363v-265.86c0-18.833 15.266-34.099 34.099-34.099h53.987z" style="fill:#fff"/><path d="M52.302 388.354a8.24 8.24 0 0 1-5.652-2.236L2.658 344.826a8.2 8.2 0 0 1-1.579-1.987l-.002-.004A8.26 8.26 0 0 1 0 338.813v-82.725a8.26 8.26 0 0 1 13.91-6.022l88.086 82.672a8.263 8.263 0 0 1 0 12.044L57.953 386.12a8.24 8.24 0 0 1-5.651 2.234m-31.976-49.596 31.976 30.012 31.976-30.012-67.761-63.597v44.521l6-5.631a8.258 8.258 0 1 1 11.304 12.043z" style="fill:#ed1f34"/><path d="M96.173 429.51H43.677c-11.376 0-22.15-4.358-30.341-12.271l-.012-.012C4.733 408.919.001 397.771.001 385.835v-47.076a8.26 8.26 0 0 1 13.91-6.022l87.538 82.162a8.258 8.258 0 0 1-5.276 14.611m-64.091-19.109a27 27 0 0 0 11.595 2.594h31.609l-58.769-55.161v28c0 4.735 1.199 9.272 3.457 13.279l2.543-2.388c3.326-3.123 8.553-2.954 11.674.37a8.23 8.23 0 0 1 2.236 5.653 8.24 8.24 0 0 1-2.606 6.02z" style="fill:#ed1f34"/><path d="M468.325 429.51H96.151c-2.1 0-4.12-.8-5.652-2.236L46.65 386.117a8.26 8.26 0 0 1 0-12.043l37.628-35.317-37.593-35.282-.059-.055-43.97-41.268a8 8 0 0 1-.783-.83l-.004-.006-.009-.01a8.3 8.3 0 0 1-.847-1.257l-.001-.003-.007-.011-.004-.009-.001-.001a8.24 8.24 0 0 1-.999-3.831v-.006l-.001-.01v-129.83c0-11.933 4.73-23.08 13.319-31.387l.008-.007c8.191-7.919 18.97-12.281 30.35-12.281h424.647c24.083 0 43.676 19.593 43.676 43.676v259.487c.001 24.082-19.593 43.674-43.675 43.674M99.42 412.994h368.904c14.977 0 27.16-12.183 27.16-27.16V126.348c0-14.976-12.183-27.16-27.16-27.16H99.419L64.37 132.081l37.627 35.311a8.26 8.26 0 0 1 0 12.044L64.369 214.75l37.628 35.314a8.26 8.26 0 0 1 0 12.044l-37.628 35.315 37.628 35.315a8.26 8.26 0 0 1 0 12.044l-37.628 35.317zM20.326 256.085l31.976 30.011 31.975-30.011-37.592-35.281-.059-.055-30.109-28.259v44.519l5.999-5.631c3.326-3.123 8.553-2.954 11.674.37a8.23 8.23 0 0 1 2.236 5.64 8.24 8.24 0 0 1-2.606 6.033zm.001-82.67 31.975 30.01 31.975-30.01-37.604-35.292-.023-.021-26.676-25.035c-2.258 4.007-3.457 8.544-3.457 13.28v27.992l5.998-5.63a8.259 8.259 0 0 1 11.303 12.044zm11.757-71.633 20.218 18.975 22.983-21.568H43.677a27 27 0 0 0-11.593 2.593" style="fill:#ed1f34"/><path d="M503.743 310.963H96.345V90.748h370.853c20.183 0 36.545 16.362 36.545 36.545z" style="fill:#ed1f34"/><path d="M466.806 421.07H96.345V310.963h407.398v73.171c0 20.399-16.537 36.936-36.937 36.936" style="fill:#259245"/><path d="M468.325 82.671H98.064a8.25 8.25 0 0 0-3.438 0H43.677c-24.083 0-43.676 19.594-43.676 43.676v259.487c0 24.083 19.594 43.676 43.676 43.676h424.647c24.083 0 43.676-19.593 43.676-43.676V126.348c.001-24.083-19.593-43.677-43.675-43.677M16.517 385.835V126.348c0-14.976 12.183-27.16 27.16-27.16h44.41v313.806h-44.41c-14.976 0-27.16-12.183-27.16-27.159m451.808 27.159H104.603v-93.773h57.806a8.257 8.257 0 0 0 8.258-8.258 8.257 8.257 0 0 0-8.258-8.258h-57.806V99.188h363.721c14.977 0 27.16 12.183 27.16 27.16v176.358H195.442a8.257 8.257 0 0 0-8.258 8.258 8.257 8.257 0 0 0 8.258 8.258h300.043v66.613c0 14.976-12.183 27.159-27.16 27.159" style="fill:#121b21"/></svg>
