<svg xmlns="http://www.w3.org/2000/svg" xml:space="preserve" viewBox="0 0 512 512" width="48" height="48"><path d="M8.258 138.735h495.484v234.529H8.258z" style="fill:#103b9b"/><path d="M503.742 138.735H8.258v-14.021c0-18.709 15.166-33.876 33.875-33.876h427.734c18.708 0 33.876 15.166 33.876 33.876zm-33.876 282.426H42.133c-18.708 0-33.875-15.166-33.875-33.876v-14.021h495.484v14.021c0 18.71-15.166 33.876-33.876 33.876" style="fill:#ed1f34"/><circle cx="256" cy="256" r="84.232" style="fill:#fff"/><path d="M256 329.222c-40.374 0-73.221-32.847-73.221-73.222s32.847-73.221 73.221-73.221 73.222 32.847 73.222 73.221-32.848 73.222-73.222 73.222m0-129.927c-31.268 0-56.705 25.437-56.705 56.705s25.437 56.705 56.705 56.705 56.705-25.438 56.705-56.705-25.438-56.705-56.705-56.705" style="fill:#259245"/><path d="M232.723 227.444v37.159c0 14.669 12.314 23.18 23.277 26.56 10.962-3.379 23.277-11.892 23.277-26.56v-37.159z" style="fill:#ffe000"/><path d="M253.567 299.054a8.27 8.27 0 0 0 4.866 0c14.067-4.337 29.101-15.665 29.101-34.45v-37.159a8.256 8.256 0 0 0-8.258-8.258h-46.553a8.256 8.256 0 0 0-8.258 8.258v37.159c0 18.785 15.034 30.113 29.102 34.45m-12.586-63.352h30.036v28.901c0 10.454-9.601 15.693-15.019 17.814-5.417-2.122-15.019-7.361-15.019-17.814v-28.901z" style="fill:#121b21"/><path d="M468.324 82.581H43.676C19.594 82.581 0 102.174 0 126.257v259.486c0 24.083 19.594 43.676 43.676 43.676h424.647c24.083 0 43.676-19.594 43.676-43.676V126.257c.001-24.083-19.593-43.676-43.675-43.676m27.16 282.425h-57.806c-4.562 0-8.258 3.696-8.258 8.258s3.696 8.258 8.258 8.258h57.806v4.22c0 14.977-12.183 27.16-27.16 27.16H43.676c-14.977 0-27.16-12.183-27.16-27.16v-4.22h388.129c4.562 0 8.258-3.696 8.258-8.258s-3.696-8.258-8.258-8.258H16.516V146.994h478.968zm0-234.529H16.516v-4.22c0-14.977 12.183-27.16 27.16-27.16h424.647c14.977 0 27.16 12.183 27.16 27.16z" style="fill:#121b21"/></svg>
