<svg xmlns="http://www.w3.org/2000/svg" xml:space="preserve" viewBox="0 0 512 512" width="48" height="48"><path d="M173.419 421.161h294.904c19.561 0 35.418-15.857 35.418-35.418V256H173.419z" style="fill:#ed1f34"/><path d="M468.324 90.839H173.419V256h330.323V126.256c0-19.561-15.857-35.417-35.418-35.417" style="fill:#ffe000"/><path d="M173.419 90.839H43.676c-19.561 0-35.418 15.857-35.418 35.417v259.487c0 19.561 15.858 35.418 35.418 35.418h129.743z" style="fill:#259245"/><path d="M468.324 82.581H43.676C19.593 82.581 0 102.174 0 126.257v259.486c0 24.083 19.593 43.676 43.676 43.676h424.648c24.082 0 43.675-19.594 43.675-43.676V126.257c.001-24.083-19.593-43.676-43.675-43.676m27.16 43.676v121.485H181.677V99.097h286.646c14.977 0 27.161 12.183 27.161 27.16m-27.16 286.646H181.677v-24.774c0-4.562-3.697-8.258-8.258-8.258s-8.258 3.696-8.258 8.258v24.774H43.676c-14.977 0-27.16-12.183-27.16-27.16V126.257c0-14.977 12.183-27.16 27.16-27.16h121.485v256c0 4.562 3.697 8.258 8.258 8.258s8.258-3.696 8.258-8.258v-90.839h313.806v121.485c.001 14.977-12.183 27.16-27.159 27.16" style="fill:#111a21"/></svg>
