<svg xmlns="http://www.w3.org/2000/svg" xml:space="preserve" viewBox="0 0 512.001 512.001" width="48" height="48"><path d="M8.258 385.387V126.63c0-19.762 16.021-35.783 35.783-35.783H467.96c19.762 0 35.783 16.021 35.783 35.783v258.758c0 19.762-16.021 35.783-35.783 35.783H44.041c-19.762-.001-35.783-16.022-35.783-35.784" style="fill:#ed1f34"/><path d="M256 256.008H8.258V126.354c0-19.61 15.897-35.507 35.507-35.507H256z" style="fill:#103b9b"/><path d="M256 90.847h-40.196l-83.675 55.784-83.675-55.784c-19.861-.916-36.997 12.459-39.297 27.397l82.777 55.184-83.676 55.783v26.797h40.196l83.675-55.784 83.675 55.784H256v-26.797l-83.675-55.784L256 117.644zM9.1 118.576c.015-.111.04-.221.057-.333l-.9-.6z" style="fill:#fff"/><path d="M256 90.847h-26.798l-110.466 73.652-95.602-63.736C19.819 97.998 11.8 103.449 11.8 111.09l106.789 71.364L8.258 256.008h26.797l110.472-73.648L256 256.008v-17.484l-110.627-73.926z" style="fill:#ed1f34"/><path d="M256 151.131H154.426V90.847h-44.594v60.284H8.258v44.593h101.574v60.284h44.594v-60.284H256z" style="fill:#fff"/><path d="M256 161.453H144.103V90.847h-23.948v70.606H8.258v23.949h111.897v70.606h23.948v-70.606H256z" style="fill:#ed1f34"/><path d="M324.817 177.961v100.131c0 41.967 36.622 42.822 55.054 55.964 18.432-13.142 55.054-13.998 55.054-55.964V177.961z" style="fill:#fff"/><path d="M324.817 278.091c0 41.967 36.622 42.822 55.054 55.964 18.432-13.142 55.054-13.998 55.054-55.964z" style="fill:#259245"/><path d="M379.871 209.396c-12.579 0-22.776 10.197-22.776 22.776v45.92h45.55v-45.92c.002-12.579-10.195-22.776-22.774-22.776" style="fill:#ed1f34"/><path d="M434.925 169.703H324.817a8.26 8.26 0 0 0-8.258 8.258v100.131c0 36.452 24.779 47.069 42.87 54.82 5.944 2.547 11.557 4.952 15.647 7.868a8.25 8.25 0 0 0 9.588 0c4.09-2.916 9.704-5.32 15.646-7.868 18.093-7.752 42.871-18.369 42.871-54.82V177.961a8.255 8.255 0 0 0-8.256-8.258m-8.258 108.388c0 25.559-15.228 32.084-32.859 39.64-4.706 2.016-9.528 4.083-13.936 6.573-4.408-2.491-9.23-4.557-13.936-6.573-17.633-7.554-32.859-14.079-32.859-39.64v-91.873h93.591v91.873z" style="fill:#1a1c20"/><path d="M468.324 82.583H256.107c-.036 0-.07-.006-.107-.006q-.053.001-.107.006H43.676C19.593 82.583 0 102.177 0 126.26v259.487c0 24.083 19.593 43.676 43.676 43.676h424.648c24.083 0 43.676-19.593 43.676-43.676V126.26c0-24.083-19.593-43.677-43.676-43.677M16.516 126.26c0-14.976 12.183-27.16 27.16-27.16h204.066v148.65l-231.226-.006zm478.968 259.487c0 14.976-12.183 27.16-27.16 27.16H43.676c-14.977-.001-27.16-12.184-27.16-27.16V264.262l239.484.005a8.255 8.255 0 0 0 8.258-8.258V99.1h204.066c14.976 0 27.16 12.183 27.16 27.16z" style="fill:#1a1c20"/></svg>
