<svg xmlns="http://www.w3.org/2000/svg" xml:space="preserve" viewBox="0 0 512 512" width="48" height="48"><path d="M468.324 90.839H43.676c-19.561 0-35.418 15.858-35.418 35.418v259.487c0 10.847 4.881 20.548 12.559 27.045L491.183 99.211a35.27 35.27 0 0 0-22.859-8.372" style="fill:#ffe000"/><path d="M491.183 99.211 20.817 412.789a35.27 35.27 0 0 0 22.858 8.373h424.648c19.561 0 35.418-15.857 35.418-35.418V126.257c.001-10.847-4.88-20.548-12.558-27.046" style="fill:#ff7900"/><path d="M279.515 234.236c32.925 0 59.617 26.691 59.617 59.617s-26.691 59.617-59.617 59.617H139.579c-12.02 0-21.764-9.745-21.764-21.764s9.745-21.764 21.764-21.764h139.935c8.886 0 16.088-7.203 16.088-16.089s-7.203-16.088-16.088-16.088h-47.028c-32.925 0-59.617-26.691-59.617-59.617s26.691-59.617 59.617-59.617h156.879v21.764c0 12.02-9.745 21.764-21.764 21.764H232.487c-8.886 0-16.088 7.203-16.088 16.088s7.203 16.088 16.088 16.088z" style="fill:#fff"/><path d="M397.623 173.699v-23.952a8.26 8.26 0 0 0-8.258-8.258 8.257 8.257 0 0 0-8.258 8.258v.526h-39.223v-11.011a8.257 8.257 0 0 0-8.258-8.258 8.257 8.257 0 0 0-8.258 8.258v11.011h-6.24v-11.011c0-4.561-3.696-8.258-8.258-8.258s-8.258 3.697-8.258 8.258v11.011h-6.239v-22.022a8.257 8.257 0 0 0-8.258-8.258 8.257 8.257 0 0 0-8.258 8.258v22.022h-6.24v-22.022a8.257 8.257 0 0 0-8.258-8.258 8.257 8.257 0 0 0-8.258 8.258v22.022h-24.616c-37.427 0-67.875 30.449-67.875 67.875s30.448 67.875 67.875 67.875h47.029c4.317 0 7.83 3.512 7.83 7.83s-3.512 7.831-7.83 7.831H110.108a8.26 8.26 0 0 0-8.258 8.258 8.26 8.26 0 0 0 8.258 8.258h2.671a30 30 0 0 0-2.058 5.248H99.097a8.26 8.26 0 0 0-8.258 8.258 8.26 8.26 0 0 0 8.258 8.258h11.624a29.7 29.7 0 0 0 2.058 5.248h-2.671a8.26 8.26 0 0 0-8.258 8.258 8.26 8.26 0 0 0 8.258 8.258h68.266v5.505c0 13.66 11.113 24.774 24.774 24.774h22.572a8.26 8.26 0 0 0 8.258-8.258 8.26 8.26 0 0 0-8.258-8.258h-22.572c-4.554 0-8.258-3.705-8.258-8.258v-5.505h49.548v5.505c0 13.66 11.113 24.774 24.774 24.774h22.572a8.257 8.257 0 0 0 8.258-8.258 8.257 8.257 0 0 0-8.258-8.258h-22.572c-4.554 0-8.258-3.705-8.258-8.258v-5.505h18.559c37.427 0 67.876-30.449 67.876-67.875s-30.448-67.875-67.876-67.875h-47.029c-4.317 0-7.83-3.512-7.83-7.83s3.512-7.831 7.83-7.831h92.883v5.519c0 13.66 11.114 24.774 24.774 24.774h22.572c4.562 0 8.258-3.697 8.258-8.258s-3.696-8.258-8.258-8.258h-22.572c-4.554 0-8.258-3.705-8.258-8.258v-5.519H367.6c14.083 0 25.926-9.749 29.15-22.85a8.25 8.25 0 0 0 4.175-7.172 8.24 8.24 0 0 0-3.302-6.596m-16.517-1.663h-14.448c-4.562 0-8.258 3.697-8.258 8.258s3.696 8.258 8.258 8.258h11.605c-2.473 3.187-6.328 5.248-10.664 5.248H232.485c-13.424 0-24.346 10.922-24.346 24.347s10.922 24.346 24.346 24.346h47.029c28.32 0 51.36 23.04 51.36 51.359s-23.04 51.359-51.36 51.359H194.89v-.551c0-4.561-3.697-8.258-8.258-8.258s-8.258 3.697-8.258 8.258v.551h-38.795c-7.448 0-13.506-6.059-13.506-13.506 0-7.448 6.058-13.506 13.506-13.506h139.935c13.424 0 24.346-10.922 24.346-24.347 0-13.424-10.922-24.346-24.346-24.346h-47.029c-28.32 0-51.359-23.04-51.359-51.359s23.039-51.359 51.359-51.359h70.293a8.26 8.26 0 0 0 16.184 0h6.571a8.26 8.26 0 0 0 16.184 0h39.389z" style="fill:#111a21"/><path d="M468.324 82.581H43.676C19.593 82.581 0 102.173 0 126.257v259.487c0 24.083 19.593 43.675 43.676 43.675h424.648c24.082 0 43.675-19.593 43.675-43.676V126.257c.001-24.084-19.593-43.676-43.675-43.676m27.16 303.162c0 14.977-12.183 27.16-27.16 27.16H43.676c-14.977 0-27.16-12.183-27.16-27.16V126.257c0-14.977 12.183-27.16 27.16-27.16h424.648c14.976 0 27.159 12.183 27.159 27.16z" style="fill:#111a21"/></svg>
