<svg xmlns="http://www.w3.org/2000/svg" xml:space="preserve" viewBox="0 0 512 512" width="48" height="48"><path d="M247.191 90.839 8.258 250.131V125.523c0-19.155 15.528-34.684 34.684-34.684z" style="fill:#ffe000"/><path d="M480.688 106.209 8.258 421.161v-171.03L247.191 90.839h228.843c8.3 0 11.56 10.765 4.654 15.37" style="fill:#fff"/><path d="M503.742 113.514v272.413c0 19.459-15.775 35.234-35.234 35.234H34.815c-7.955 0-11.08-10.318-4.46-14.731l454.521-303.013c8.063-5.376 18.866.404 18.866 10.097" style="fill:#164fce"/><path d="M150.341 253.041c-6.071 0-11.011-4.939-11.011-11.011s4.939-11.011 11.011-11.011 11.011 4.939 11.011 11.011-4.94 11.011-11.011 11.011" style="fill:#ed1f34;stroke:#ed1f34;stroke-width:15;stroke-linecap:round;stroke-linejoin:round;stroke-miterlimit:10"/><path d="M150.341 195.235c-25.804 0-46.796 20.992-46.796 46.796s20.992 46.796 46.796 46.796 46.796-20.992 46.796-46.796-20.992-46.796-46.796-46.796m0 77.075c-16.697 0-30.28-13.583-30.28-30.28s13.583-30.28 30.28-30.28 30.28 13.583 30.28 30.28-13.583 30.28-30.28 30.28" style="fill:#1a1c20"/><path d="M468.325 82.581H43.676C19.593 82.581 0 102.173 0 126.257v259.487c0 24.083 19.593 43.675 43.676 43.675h424.648c24.083 0 43.675-19.593 43.675-43.675V126.257c.001-24.084-19.592-43.676-43.674-43.676M16.516 126.257c0-14.977 12.183-27.16 27.16-27.16h176.241L16.516 234.701zm478.968 259.487c0 14.976-12.183 27.159-27.159 27.159H43.676c-2.36 0-4.65-.304-6.835-.872l383.29-255.527a8.259 8.259 0 0 0-9.161-13.741L21.994 402.079a27 27 0 0 1-5.478-16.334V254.551L249.692 99.097h218.633c2.36 0 4.651.304 6.835.872l-36.705 24.47a8.257 8.257 0 0 0-2.29 11.451 8.25 8.25 0 0 0 6.878 3.679 8.2 8.2 0 0 0 4.573-1.388l37.585-25.056a8.22 8.22 0 0 0 3.425-4.883c4.262 4.797 6.859 11.108 6.859 18.015z" style="fill:#1a1c20"/></svg>
