<svg xmlns="http://www.w3.org/2000/svg" xml:space="preserve" viewBox="0 0 512 512" width="48" height="48"><path d="M8.258 385.009V126.99c0-19.966 16.186-36.152 36.152-36.152h423.18c19.966 0 36.152 16.186 36.152 36.152v258.018c0 19.966-16.186 36.152-36.152 36.152H44.41c-19.966.001-36.152-16.185-36.152-36.151" style="fill:#103b9b"/><path d="M364.196 399.99c-7.297 0-13.213 5.916-13.213 13.213 0 2.993 1.006 5.743 2.683 7.959h21.059a13.14 13.14 0 0 0 2.683-7.959c.001-7.297-5.915-13.213-13.212-13.213" style="fill:#fff"/><circle cx="321.03" cy="360.8" r="13.213" style="fill:#fff"/><circle cx="277.856" cy="308.4" r="13.213" style="fill:#fff"/><circle cx="234.683" cy="256" r="13.213" style="fill:#fff"/><circle cx="191.521" cy="203.6" r="13.213" style="fill:#fff"/><circle cx="148.348" cy="151.2" r="13.213" style="fill:#fff"/><path d="M91.962 98.797c0 7.297 5.916 13.213 13.213 13.213 7.298 0 13.213-5.916 13.213-13.213 0-2.993-1.006-5.743-2.683-7.959h-21.06a13.14 13.14 0 0 0-2.683 7.959" style="fill:#fff"/><path d="m144.025 90.839 271.609 330.322V90.839z" style="fill:#ffe000"/><path d="M468.324 82.581H43.676C19.593 82.581 0 102.173 0 126.256v259.487c0 24.083 19.593 43.676 43.676 43.676h424.648c24.082 0 43.675-19.594 43.675-43.676V126.256c.001-24.083-19.593-43.675-43.675-43.675M16.516 385.743V126.256c0-14.976 12.183-27.159 27.16-27.159h96.448l258.029 313.806H43.676c-14.976 0-27.16-12.184-27.16-27.16m478.968 0c0 14.976-12.183 27.16-27.16 27.16h-44.432v-256a8.26 8.26 0 0 0-8.258-8.258 8.257 8.257 0 0 0-8.258 8.258v241.213L161.506 99.097h245.87v24.774a8.257 8.257 0 0 0 8.258 8.258 8.26 8.26 0 0 0 8.258-8.258V99.097h44.432c14.977 0 27.16 12.183 27.16 27.159z" style="fill:#121b21"/></svg>
