<svg xmlns="http://www.w3.org/2000/svg" xml:space="preserve" viewBox="0 0 512 512" width="48" height="48"><path d="M46.245 90.839h419.51c20.98 0 37.987 17.007 37.987 37.987v254.348c0 20.98-17.007 37.987-37.987 37.987H46.245c-20.98 0-37.987-17.007-37.987-37.987V128.826c0-20.98 17.007-37.987 37.987-37.987" style="fill:#3db4ea"/><path d="M8.258 214.71h495.484v82.581H8.258z" style="fill:#333"/><path d="M8.258 187.194h495.484v27.52H8.258zm0 110.096h495.484v27.52H8.258z" style="fill:#fff"/><path d="M468.324 82.581H43.676C19.594 82.581 0 102.174 0 126.257v259.486c0 24.083 19.594 43.676 43.676 43.676h424.647c24.083 0 43.676-19.594 43.676-43.676V126.257c.001-24.083-19.593-43.676-43.675-43.676M16.516 222.968h478.968v66.065H16.516zm27.16-123.871h424.647c14.977 0 27.16 12.183 27.16 27.16v80.195H16.516v-80.195c0-14.977 12.184-27.16 27.16-27.16m424.648 313.806H43.676c-14.977 0-27.16-12.183-27.16-27.16v-80.195h478.968v80.195c0 14.977-12.184 27.16-27.16 27.16" style="fill:#111a21"/></svg>
