<svg xmlns="http://www.w3.org/2000/svg" xml:space="preserve" viewBox="0 0 512 512" width="48" height="48"><path d="M503.742 126.073v259.854c0 19.459-15.775 35.234-35.234 35.234H43.492c-19.459 0-35.234-15.775-35.234-35.234V126.073c0-19.459 15.775-35.234 35.234-35.234h425.015c19.46 0 35.235 15.775 35.235 35.234" style="fill:#259245"/><path d="M256 374.346 52.301 256 256 137.654 459.699 256z" style="fill:#ffe000"/><circle cx="256" cy="256" r="67.199" style="fill:#103b9b"/><path d="M316.031 294.63a8.26 8.26 0 0 1-7.43-4.642 92.37 92.37 0 0 0-48.031-45.033c-21.025-8.628-44.396-9.231-65.809-1.696-4.302 1.508-9.017-.748-10.531-5.05a8.26 8.26 0 0 1 5.05-10.531c25.238-8.88 52.784-8.171 77.562 1.996 24.781 10.171 44.884 29.02 56.607 53.076a8.26 8.26 0 0 1-3.805 11.042 8.2 8.2 0 0 1-3.613.838" style="fill:#fff"/><path d="M463.848 248.86 260.149 130.514a8.25 8.25 0 0 0-8.297 0L48.153 248.86a8.256 8.256 0 0 0-.001 14.28l203.699 118.346a8.26 8.26 0 0 0 8.298 0l142.96-83.059a8.26 8.26 0 0 0-8.296-14.282L256 364.796 68.74 256 256 147.204 443.26 256l-19.887 11.554a8.26 8.26 0 0 0 8.296 14.282l32.177-18.695a8.26 8.26 0 0 0 .002-14.281" style="fill:#121b21"/><path d="M180.539 256c0 41.61 33.851 75.461 75.461 75.461S331.461 297.61 331.461 256 297.61 180.539 256 180.539 180.539 214.39 180.539 256m134.406 0c0 32.503-26.443 58.945-58.945 58.945S197.055 288.502 197.055 256s26.443-58.945 58.945-58.945 58.945 26.442 58.945 58.945" style="fill:#121b21"/><path d="M468.324 82.581H43.676C19.594 82.581 0 102.174 0 126.257v259.486c0 24.083 19.594 43.676 43.676 43.676h424.647c24.083 0 43.676-19.594 43.676-43.676V126.257c.001-24.083-19.593-43.676-43.675-43.676m27.16 303.162c0 14.977-12.183 27.16-27.16 27.16H43.676c-14.977 0-27.16-12.183-27.16-27.16V126.257c0-14.977 12.183-27.16 27.16-27.16h424.647c14.977 0 27.16 12.183 27.16 27.16z" style="fill:#121b21"/></svg>
