<svg xmlns="http://www.w3.org/2000/svg" xml:space="preserve" viewBox="0 0 512 512" width="48" height="48"><path d="M8.258 383.725v-255.45c0-20.676 16.761-37.437 37.437-37.437h420.611c20.676 0 37.437 16.761 37.437 37.437v255.449c0 20.676-16.761 37.437-37.437 37.437H45.695c-20.676 0-37.437-16.76-37.437-37.436" style="fill:#103b9b"/><path d="M256 90.839h-40.196l-83.675 55.784-83.675-55.784H35.055c-14.8 0-26.797 11.997-26.797 26.797l83.675 55.784-83.675 55.783V256h40.196l83.675-55.784L215.804 256H256v-26.797l-83.675-55.784L256 117.637z" style="fill:#fff"/><path d="M256 90.839h-26.797l-110.466 73.652-95.603-63.736c-6.359-4.239-14.876.319-14.876 7.961l110.33 73.73L8.258 256h26.797l110.472-73.648L256 256v-17.484L145.373 164.59z" style="fill:#ed1f34"/><path d="M256 151.123H154.426V90.839h-44.594v60.284H8.258v44.593h101.574V256h44.594v-60.284H256z" style="fill:#fff"/><path d="M256 161.445H144.103V90.839h-23.948v70.606H8.258v23.949h111.897V256h23.948v-70.606H256z" style="fill:#ed1f34"/><path d="M324.817 170.796v89.12c0 41.967 55.054 55.964 55.054 55.964s55.054-13.998 55.054-55.964v-89.12z" style="fill:#259245"/><path d="M355.647 275.488a8.257 8.257 0 0 1-8.258-8.258v-63.402a8.257 8.257 0 0 1 8.258-8.258 8.257 8.257 0 0 1 8.258 8.258v63.402a8.257 8.257 0 0 1-8.258 8.258" style="fill:#ffe000"/><path d="M379.871 286.499a8.257 8.257 0 0 1-8.258-8.258v-74.413c0-4.561 3.696-8.258 8.258-8.258s8.258 3.697 8.258 8.258v74.413a8.26 8.26 0 0 1-8.258 8.258" style="fill:#fff"/><path d="M404.095 275.488a8.257 8.257 0 0 1-8.258-8.258v-63.402c0-4.561 3.696-8.258 8.258-8.258s8.258 3.697 8.258 8.258v63.402a8.26 8.26 0 0 1-8.258 8.258" style="fill:#ffe000"/><path d="M379.871 349.463c-21.148 0-41.851-7.291-58.293-20.53a93.2 93.2 0 0 1-16.219-16.834 8.26 8.26 0 0 1-8.068 6.485 8.257 8.257 0 0 1-8.258-8.258v-34.711c0-4.198 3.15-7.73 7.321-8.205a8.256 8.256 0 0 1 8.983 6.344c8.055 34.851 38.706 59.192 74.534 59.192s66.479-24.34 74.534-59.192a8.258 8.258 0 0 1 16.304 1.861v34.711a8.257 8.257 0 0 1-8.258 8.258 8.26 8.26 0 0 1-8.068-6.485 93.2 93.2 0 0 1-16.219 16.834c-16.442 13.239-37.145 20.53-58.293 20.53" style="fill:#ffe000"/><path d="M434.925 162.537H324.817a8.257 8.257 0 0 0-8.258 8.258v89.12c0 47.838 58.775 63.332 61.277 63.968a8.3 8.3 0 0 0 4.07 0c2.502-.636 61.277-16.13 61.277-63.968v-89.12a8.26 8.26 0 0 0-8.258-8.258m-8.258 97.378c0 30.809-37.525 44.461-46.796 47.363-9.271-2.9-46.796-16.552-46.796-47.363v-80.862h93.591z" style="fill:#1a1c20"/><path d="M468.324 82.581H43.676C19.593 82.581 0 102.173 0 126.256v259.487c0 24.084 19.593 43.676 43.676 43.676h424.648c24.082 0 43.675-19.593 43.675-43.676V126.256c.001-24.083-19.593-43.675-43.675-43.675m27.16 303.162c0 14.977-12.183 27.16-27.16 27.16H43.676c-14.977 0-27.16-12.183-27.16-27.16V126.256c0-14.976 12.183-27.159 27.16-27.159h424.648c14.976 0 27.159 12.183 27.159 27.159z" style="fill:#1a1c20"/></svg>
