<svg xmlns="http://www.w3.org/2000/svg" xml:space="preserve" viewBox="0 0 512 512" width="48" height="48"><path d="M8.261 384.549V127.451c0-20.524 16.638-37.162 37.162-37.162h421.158c20.524 0 37.162 16.638 37.162 37.162v257.098c0 20.524-16.638 37.162-37.162 37.162H45.424c-20.524.001-37.163-16.638-37.163-37.162" style="fill:#103b9b"/><path d="M503.745 230.125c-24.401.001-37.169 6.129-48.433 11.536-9.643 4.628-17.259 8.283-34.148 8.283s-24.504-3.656-34.148-8.283c-11.265-5.407-24.034-11.536-48.44-11.536-24.404 0-37.174 6.129-48.44 11.536-9.641 4.628-17.257 8.283-34.144 8.283s-24.502-3.656-34.143-8.283c-11.265-5.407-24.034-11.536-48.437-11.536s-37.172 6.129-48.436 11.536c-9.641 4.628-17.256 8.283-34.141 8.283-16.886 0-24.502-3.656-34.143-8.283-11.264-5.406-24.031-11.535-48.431-11.536v33.032c16.882.001 24.497 3.656 34.137 8.283 11.265 5.407 24.033 11.536 48.437 11.536 24.402 0 37.171-6.129 48.435-11.536 9.641-4.628 17.256-8.283 34.142-8.283s24.502 3.656 34.143 8.283c11.265 5.407 24.033 11.536 48.437 11.536s37.173-6.129 48.437-11.536c9.642-4.628 17.258-8.283 34.147-8.283s24.504 3.656 34.148 8.283c11.265 5.407 24.034 11.536 48.44 11.536s37.174-6.129 48.44-11.536c9.642-4.628 17.257-8.282 34.141-8.283zm0-77.626c-24.401.001-37.169 6.129-48.433 11.536-9.643 4.628-17.259 8.283-34.148 8.283s-24.504-3.656-34.148-8.283c-11.265-5.407-24.034-11.536-48.44-11.536-24.404 0-37.174 6.129-48.44 11.536-9.641 4.628-17.257 8.283-34.144 8.283s-24.502-3.656-34.143-8.283c-11.265-5.407-24.034-11.536-48.437-11.536s-37.172 6.129-48.436 11.536c-9.641 4.628-17.256 8.283-34.141 8.283-16.886 0-24.502-3.656-34.143-8.283-11.264-5.406-24.031-11.535-48.431-11.536v33.032c16.882.001 24.497 3.656 34.137 8.283 11.265 5.407 24.033 11.536 48.437 11.536 24.402 0 37.171-6.129 48.435-11.536 9.641-4.628 17.256-8.283 34.142-8.283s24.502 3.656 34.143 8.283c11.266 5.407 24.033 11.536 48.437 11.536s37.173-6.129 48.437-11.536c9.642-4.628 17.258-8.283 34.147-8.283s24.504 3.656 34.148 8.283c11.265 5.407 24.034 11.536 48.44 11.536s37.174-6.129 48.44-11.536c9.642-4.628 17.257-8.282 34.141-8.283zm-82.58-57.807c-11.746 0-19.005-1.771-25.581-4.404h-114.01c-6.576 2.634-13.835 4.404-25.58 4.404s-19.003-1.771-25.579-4.404H116.413c-6.576 2.634-13.834 4.404-25.577 4.404s-19.003-1.771-25.579-4.404h-30.57c-9.729 0-17.617 7.887-17.617 17.617 16.882.001 15.688 3.656 25.328 8.283 11.265 5.407 24.033 11.536 48.437 11.536 24.402 0 37.171-6.129 48.435-11.536 9.641-4.628 17.256-8.283 34.142-8.283s24.502 3.656 34.143 8.283c11.265 5.407 24.033 11.536 48.437 11.536s37.173-6.129 48.437-11.536c9.642-4.628 17.258-8.283 34.147-8.283s24.504 3.656 34.148 8.283c11.265 5.407 24.034 11.536 48.44 11.536s37.174-6.129 48.44-11.536c9.642-4.628 7.347-8.282 24.231-8.283h1.101c0-9.73-8.988-17.617-18.718-17.617h-29.472c-6.577 2.634-13.836 4.404-25.581 4.404m82.58 213.059c-24.401.001-37.169 6.129-48.433 11.536-9.643 4.628-17.259 8.283-34.148 8.283s-24.504-3.656-34.148-8.283c-11.265-5.407-24.034-11.536-48.44-11.536-24.404 0-37.174 6.129-48.44 11.536-9.641 4.628-17.257 8.283-34.144 8.283s-24.502-3.656-34.143-8.283c-11.265-5.407-24.034-11.536-48.437-11.536s-37.172 6.129-48.436 11.537c-9.641 4.628-17.256 8.282-34.141 8.282-16.886 0-24.502-3.656-34.143-8.283-11.264-5.406-24.031-11.535-48.431-11.536v33.032c16.882.001 24.497 3.656 34.137 8.283 11.265 5.407 24.033 11.536 48.437 11.536 24.402 0 37.171-6.129 48.435-11.536 9.641-4.628 17.256-8.283 34.142-8.283s24.502 3.656 34.143 8.283c11.266 5.407 24.033 11.536 48.437 11.536s37.173-6.129 48.437-11.536c9.642-4.628 17.258-8.283 34.147-8.283s24.504 3.656 34.148 8.283c11.265 5.407 24.034 11.536 48.44 11.536s37.174-6.129 48.44-11.536c9.642-4.628 17.257-8.282 34.141-8.283zm0 110.658v-33.032c-24.401.001-37.169 6.129-48.433 11.536-9.643 4.628-17.259 8.283-34.148 8.283s-24.504-3.656-34.148-8.283c-11.265-5.407-24.034-11.536-48.44-11.536-24.404 0-37.174 6.129-48.44 11.536-9.641 4.628-17.257 8.283-34.144 8.283s-24.502-3.656-34.143-8.283c-11.265-5.407-24.034-11.536-48.437-11.536s-37.172 6.129-48.436 11.537c-9.641 4.627-17.256 8.282-34.141 8.282-16.886 0-24.502-3.656-34.143-8.283-11.264-5.406-24.031-11.535-48.431-11.536v33.032c10.011 0 16.755 1.292 22.603 3.303h119.939c5.849-2.012 12.595-3.303 22.609-3.303s16.761 1.292 22.609 3.303h119.942c5.85-2.012 12.596-3.303 22.612-3.303s16.763 1.292 22.613 3.303h119.95c5.85-2.012 12.595-3.303 22.607-3.303" style="fill:#fff"/><path d="M255.997 256.551H8.255V125.432c0-18.802 15.242-34.043 34.043-34.043h213.699z" style="fill:#103b9b"/><path d="M255.997 91.389h-40.196l-83.675 55.784-83.675-55.784H35.052c-14.8 0-26.797 11.997-26.797 26.797L91.93 173.97 8.255 229.754v26.797h40.196l83.675-55.784 83.675 55.784h40.196v-26.797l-83.675-55.784 83.675-55.783z" style="fill:#fff"/><path d="M255.997 91.389H229.2l-110.466 73.652-95.604-63.735c-6.359-4.239-14.874.319-14.874 7.961l110.33 73.73L8.255 256.551h26.797l110.472-73.648 110.473 73.648v-17.484L145.369 165.14z" style="fill:#ed1f34"/><path d="M255.997 151.673H154.423V91.389h-44.594v60.284H8.255v44.594h101.574v60.284h44.594v-60.284h101.574z" style="fill:#fff"/><path d="M255.997 161.996H144.1V91.389h-23.948v70.607H8.255v23.948h111.897v70.607H144.1v-70.607h111.897z" style="fill:#ed1f34"/><path d="M379.868 389.775a8.256 8.256 0 0 1-8.258-8.258V243.551a8.257 8.257 0 0 1 8.258-8.258 8.26 8.26 0 0 1 8.258 8.258v137.966a8.257 8.257 0 0 1-8.258 8.258" style="fill:#1a1c20"/><circle cx="379.871" cy="187.557" r="55.989" style="fill:#259245"/><path d="M379.868 251.809c-35.426 0-64.248-28.821-64.248-64.248 0-35.426 28.822-64.248 64.248-64.248s64.248 28.822 64.248 64.248c-.001 35.428-28.822 64.248-64.248 64.248m0-111.978c-26.319 0-47.732 21.413-47.732 47.732s21.412 47.732 47.732 47.732 47.732-21.413 47.732-47.732c-.001-26.319-21.413-47.732-47.732-47.732" style="fill:#1a1c20"/><path d="M401.89 285.881c-9.703 0-18.083 5.66-22.023 13.857-3.939-8.198-12.32-13.857-22.023-13.857-13.487 0-24.42 10.934-24.42 24.42s8.989 24.42 8.989 24.42h74.907s8.989-10.934 8.989-24.42c.002-13.486-10.932-24.42-24.419-24.42" style="fill:#ed1f34"/><path d="M417.322 342.978h-74.907a8.26 8.26 0 0 1-6.38-3.014c-.443-.54-10.866-13.406-10.866-29.664 0-18.018 14.659-32.678 32.678-32.678 8.245 0 16.088 3.172 22.023 8.566 5.935-5.394 13.778-8.566 22.023-8.566 18.018 0 32.678 14.66 32.678 32.678 0 16.26-10.424 29.125-10.866 29.664a8.27 8.27 0 0 1-6.383 3.014m-70.575-16.516h66.235c2.107-3.472 5.069-9.532 5.069-16.163 0-8.912-7.249-16.162-16.162-16.162-6.178 0-11.9 3.602-14.579 9.175a8.256 8.256 0 0 1-14.886 0c-2.679-5.575-8.401-9.175-14.579-9.175-8.912 0-16.162 7.25-16.162 16.162 0 6.647 2.963 12.705 5.064 16.163" style="fill:#1a1c20"/><path d="M468.324 82.581H43.676C19.594 82.581 0 102.173 0 126.256v259.487c0 24.083 19.594 43.676 43.676 43.676h424.647c24.083 0 43.676-19.594 43.676-43.676V126.256c.001-24.083-19.593-43.675-43.675-43.675M43.676 99.097h204.062v149.196l-231.223-.006V126.256c.001-14.976 12.185-27.159 27.161-27.159m451.808 286.646c0 14.977-12.183 27.16-27.16 27.16H43.676c-14.977 0-27.16-12.183-27.16-27.16v-120.94l239.481.005c2.19 0 4.29-.87 5.84-2.418a8.26 8.26 0 0 0 2.418-5.84V99.097h204.069c14.977 0 27.16 12.183 27.16 27.159z" style="fill:#1a1c20"/></svg>
