<svg xmlns="http://www.w3.org/2000/svg" xml:space="preserve" viewBox="0 0 512 512" width="48" height="48"><path d="M8.258 383.725v-267.01c0-14.747 11.954-26.701 26.701-26.701h442.082c14.747 0 26.701 11.954 26.701 26.701V388.13c0 18.396-14.912 33.308-33.308 33.308H45.97c-20.828-.001-37.712-16.886-37.712-37.713" style="fill:#103b9b"/><path d="M503.742 237.556c-24.401.001-37.165 6.129-48.429 11.536-9.643 4.628-17.259 8.283-34.148 8.283s-24.504-3.656-34.148-8.283c-11.265-5.407-24.034-11.536-48.44-11.536-24.404 0-37.174 6.129-48.44 11.536-9.641 4.628-17.257 8.283-34.144 8.283s-24.502-3.656-34.143-8.283c-11.265-5.407-24.034-11.536-48.437-11.536s-37.172 6.129-48.436 11.537c-9.641 4.628-17.256 8.282-34.141 8.282-16.886 0-24.502-3.656-34.143-8.283-11.264-5.406-24.035-11.535-48.435-11.536v33.032c16.882.001 24.501 3.656 34.141 8.283 11.265 5.407 24.033 11.536 48.437 11.536 24.402 0 37.171-6.129 48.435-11.536 9.641-4.628 17.256-8.283 34.142-8.283s24.502 3.656 34.143 8.283c11.265 5.407 24.033 11.536 48.437 11.536s37.173-6.129 48.437-11.536c9.642-4.628 17.258-8.283 34.147-8.283s24.504 3.656 34.148 8.283c11.265 5.407 24.034 11.536 48.44 11.536s37.174-6.129 48.44-11.536c9.642-4.628 17.253-8.282 34.137-8.283z" style="fill:#fff"/><path d="M503.742 256.275H8.258V124.696c0-18.548 15.035-33.583 33.583-33.583h428.318c18.548 0 33.583 15.035 33.583 33.583z" style="fill:#103b9b"/><path d="M476.945 91.113h-53.597l-167.35 55.784L88.649 91.113H35.055c-14.8 0-26.797 11.998-26.797 26.798l167.348 55.783L8.258 229.478v26.797h80.39l167.35-55.783 167.35 55.783h80.394v-26.797L336.39 173.694l167.352-55.783c0-14.799-11.997-26.798-26.797-26.798" style="fill:#fff"/><path d="M480.631 91.113h-30.487l-220.933 73.652L31.824 96.767c-8.344-2.781-16.96 3.429-16.96 12.224l214.051 73.73L8.258 256.275h53.593l220.945-73.648 220.946 73.648v-17.484l-221.256-73.926 199.331-66.443c4.037-1.345 3.069-7.309-1.186-7.309" style="fill:#ed1f34"/><path d="M503.742 151.397H300.591V91.113h-89.187v60.284H8.258v44.595h203.146v60.283h89.187v-60.283h203.151z" style="fill:#fff"/><path d="M503.742 161.72H279.946V91.113h-47.897v70.607H8.258v23.949h223.791v70.606h47.897v-70.606h223.796z" style="fill:#ed1f34"/><path d="M503.742 311.33c-24.401.001-37.165 6.129-48.429 11.536-9.643 4.628-17.259 8.283-34.148 8.283s-24.504-3.656-34.148-8.283c-11.265-5.407-24.034-11.536-48.44-11.536-24.404 0-37.174 6.129-48.44 11.536-9.641 4.628-17.257 8.283-34.144 8.283s-24.502-3.656-34.143-8.283c-11.265-5.407-24.034-11.536-48.437-11.536s-37.172 6.129-48.436 11.536c-9.641 4.628-17.256 8.283-34.141 8.283-16.886 0-24.502-3.656-34.143-8.283-11.264-5.407-24.035-11.536-48.435-11.536v33.032c16.882.001 24.501 3.656 34.141 8.283 11.265 5.407 24.033 11.536 48.437 11.536 24.402 0 37.171-6.129 48.435-11.536 9.641-4.628 17.256-8.283 34.142-8.283s24.502 3.656 34.143 8.283c11.265 5.407 24.033 11.536 48.437 11.536s37.173-6.129 48.437-11.536c9.642-4.628 17.258-8.283 34.147-8.283s24.504 3.656 34.148 8.283c11.265 5.407 24.034 11.536 48.44 11.536s37.174-6.129 48.44-11.536c9.642-4.628 17.253-8.282 34.137-8.283zm0 79.003v-5.231c-24.401.001-37.165 6.129-48.429 11.536-9.643 4.628-17.259 8.283-34.148 8.283s-24.504-3.656-34.148-8.283c-11.265-5.407-24.034-11.536-48.44-11.536-24.404 0-37.174 6.129-48.44 11.536-9.641 4.628-17.257 8.283-34.144 8.283s-24.502-3.656-34.143-8.283c-11.265-5.407-24.034-11.536-48.437-11.536s-37.172 6.129-48.436 11.536c-9.641 4.628-17.256 8.283-34.141 8.283-16.886 0-24.502-3.656-34.143-8.283-11.264-5.407-24.035-11.536-48.435-11.536v5.222c0 14.105 9.079 26.508 22.432 31.053l.176.061h119.939c5.849-2.012 12.595-3.303 22.609-3.303s16.761 1.292 22.609 3.303h119.942c5.85-2.012 12.596-3.303 22.612-3.303s16.763 1.292 22.613 3.303h119.95l.176-.061c13.349-4.543 22.426-16.944 22.426-31.044" style="fill:#fff"/><path d="M52.531 421.437h406.933c-41.953-68.359-117.381-113.961-203.467-113.961S94.485 353.077 52.531 421.437" style="fill:#ffe000"/><path d="M468.324 82.305H43.676C19.594 82.305 0 101.898 0 125.981v259.486c0 24.083 19.594 43.676 43.676 43.676h5.903a8.24 8.24 0 0 0 5.893 0h401.04a8.3 8.3 0 0 0 2.96.552c.98 0 1.964-.192 2.912-.552h5.939c24.083 0 43.676-19.594 43.676-43.676V125.981c.001-24.083-19.593-43.676-43.675-43.676M43.676 98.821h424.647c14.977 0 27.16 12.183 27.16 27.16v122.035H16.516V125.981c0-14.976 12.184-27.16 27.16-27.16M68.25 412.629c43.227-60.952 112.302-96.895 187.748-96.895 75.447 0 144.521 35.942 187.748 96.895zm400.074 0h-4.674c-21.472-33.344-50.843-61.279-85.267-80.974-37.09-21.22-79.408-32.437-122.383-32.437s-85.294 11.216-122.383 32.437c-34.424 19.695-63.795 47.63-85.267 80.974h-4.67c-14.979 0-27.162-12.185-27.162-27.161V264.533h478.968v120.934c-.002 14.977-12.186 27.162-27.162 27.162" style="fill:#1a1c20"/></svg>
