<svg xmlns="http://www.w3.org/2000/svg" xml:space="preserve" viewBox="0 0 512 512" width="48" height="48"><path d="M8.32 123.232V388.64c0 17.92 14.528 32.513 32.513 32.513h430.528c17.92 0 32.512-14.528 32.512-32.513V123.232c0-17.92-14.528-32.513-32.512-32.513H40.704c-17.92.001-32.384 14.593-32.384 32.513" style="fill:#ffe000"/><path d="M503.681 324.704V388L8.32 255.904v-66.112z" style="fill:#333"/><path d="M503.681 261.408v63.296L8.32 189.792v-65.984z" style="fill:#fff"/><path d="M468.288 82.528H43.712C19.584 82.528 0 102.112 0 126.24v259.52c0 24.128 19.584 43.712 43.712 43.712h424.576c24.128 0 43.712-19.584 43.712-43.712V126.24c0-24.128-19.584-43.712-43.712-43.712M43.712 98.977h424.576c14.976 0 27.2 12.224 27.2 27.2v187.712L16.512 183.52v-57.408c0-14.912 12.16-27.135 27.2-27.135m424.576 313.855H43.712c-14.976 0-27.2-12.224-27.2-27.2V200.608L495.487 331.04v54.592c.001 14.977-12.159 27.2-27.199 27.2" style="fill:#121b21"/><path d="M322.112 248.736a8.303 8.303 0 0 0-8.32 8.32c0 31.872-25.984 57.92-57.92 57.92s-57.92-25.984-57.92-57.92a8.303 8.303 0 0 0-8.32-8.32 8.303 8.303 0 0 0-8.32 8.32c0 41.024 33.408 74.432 74.432 74.432s74.368-33.408 74.368-74.432c.32-4.671-3.392-8.32-8-8.32" style="fill:#ed1f34"/><path d="M256 303.776c25.92 0 46.912-21.12 46.912-46.912 0-23.104-16.704-42.304-38.72-46.208v-21.952c0-4.608-3.712-8.32-8.32-8.32s-8.32 3.712-8.32 8.32v22.016c-21.888 3.904-38.72 23.104-38.72 46.208.256 25.856 21.248 46.848 47.168 46.848m0-16.448c-16.832 0-30.4-13.632-30.4-30.4h60.8c0 16.768-13.632 30.4-30.4 30.4" style="fill:#ed1f34"/></svg>
