<svg xmlns="http://www.w3.org/2000/svg" xml:space="preserve" viewBox="0 0 512.001 512.001" width="48" height="48"><path d="M8.259 126.624v258.752c0 19.763 16.022 35.785 35.785 35.785h423.913c19.763 0 35.785-16.022 35.785-35.785V126.625c0-19.763-16.022-35.785-35.785-35.785H44.044c-19.763 0-35.785 16.02-35.785 35.784" style="fill:#b21727"/><path d="M21.526 413.369 255.634 275.88l234.529 137.737c6.462-5.07 11.123-12.332 12.846-20.673v-18.099L300.647 256.001l202.361-118.844v-18.099c-1.723-8.341-6.384-15.602-12.846-20.673L255.633 236.121 21.526 98.631c-8.085 6.492-13.267 16.451-13.267 27.627v10.898L210.62 256.001 8.259 374.844v10.898c0 11.176 5.182 21.136 13.267 27.627" style="fill:#fff"/><path d="M8.259 137.156v237.688L210.62 256.001zm494.75 237.688V137.156L300.647 256.001z" style="fill:#259245"/><path d="M503.001 383.103a8.2 8.2 0 0 1-4.174-1.138L296.465 263.12a8.26 8.26 0 0 1 0-14.242l202.362-118.844c3.931-2.312 8.992-.994 11.303 2.939s.993 8.992-2.939 11.303L316.955 256.001l190.236 111.724a8.259 8.259 0 0 1-4.19 15.378m-494.734 0a8.25 8.25 0 0 1-7.128-4.077c-2.31-3.932-.993-8.992 2.939-11.303l190.236-111.724L4.077 144.277a8.258 8.258 0 0 1 8.364-14.242L214.803 248.88a8.26 8.26 0 0 1 0 14.242L12.441 381.964a8.2 8.2 0 0 1-4.174 1.139" style="fill:#111a21"/><circle cx="255.999" cy="255.999" r="82.58" style="fill:#fff"/><path d="m222.968 260.955 5.37 9.969 11.318-.334-5.949 9.634 5.949 9.635-11.318-.335-5.37 9.969-5.368-9.969-11.318.335 5.949-9.635-5.949-9.634 11.318.334zm66.065 0 5.37 9.969 11.318-.334-5.949 9.634 5.949 9.635-11.318-.335-5.37 9.969-5.369-9.969-11.318.335 5.949-9.635-5.949-9.634 11.318.334zm-33.032-55.053 5.37 9.969 11.317-.335-5.949 9.635 5.949 9.634-11.317-.335-5.37 9.969-5.369-9.969-11.318.335 5.949-9.634-5.949-9.635 11.318.335z" style="fill:#b21727"/><path d="M468.325 429.42H43.677c-24.083 0-43.676-19.594-43.676-43.676V126.258c0-24.083 19.592-43.676 43.676-43.676h424.647c24.083 0 43.676 19.594 43.676 43.676v259.485c0 24.083-19.592 43.677-43.675 43.677M43.677 99.098c-14.976 0-27.16 12.183-27.16 27.16v259.485c0 14.977 12.183 27.16 27.16 27.16h424.647c14.976 0 27.16-12.183 27.16-27.16V126.258c0-14.977-12.183-27.16-27.16-27.16z" style="fill:#111a21"/></svg>
