<svg xmlns="http://www.w3.org/2000/svg" xml:space="preserve" viewBox="0 0 512 512" width="48" height="48"><path d="M468.324 90.839H43.676c-19.561 0-35.418 15.857-35.418 35.418v39.455h495.484v-39.455c0-19.562-15.857-35.418-35.418-35.418M8.258 385.743c0 19.562 15.858 35.418 35.418 35.418h424.648c19.561 0 35.418-15.857 35.418-35.418v-39.455H8.258z" style="fill:#103b9b"/><path d="M8.258 165.712h495.484v180.576H8.258z" style="fill:#ed1f34"/><path d="M331.692 256.275c-.026-15.443-14.583-23.578-14.583-23.578s-14.556 8.136-14.583 23.578h-18.451c-.022-34.9-28.076-53.953-28.076-53.953s-28.054 19.053-28.076 53.953h-18.451c-.026-15.443-14.583-23.578-14.583-23.578s-14.556 8.136-14.583 23.578h-13.495v53.402h178.374v-53.402z" style="fill:#fff"/><path d="M356.198 301.419h-2.753v-45.144a8.256 8.256 0 0 0-8.258-8.258h-6.315c-3.9-14.629-17.08-22.164-17.733-22.529a8.26 8.26 0 0 0-8.058 0c-.654.366-13.833 7.9-17.733 22.529h-3.485c-3.85-33.555-30.025-51.712-31.222-52.526a8.25 8.25 0 0 0-9.28 0c-1.198.814-27.372 18.972-31.222 52.526h-3.485c-3.9-14.629-17.08-22.164-17.733-22.529a8.26 8.26 0 0 0-8.058 0c-.654.366-13.834 7.9-17.733 22.529h-6.319a8.256 8.256 0 0 0-8.258 8.258v45.144H155.8c-4.562 0-8.258 3.696-8.258 8.258s3.696 8.258 8.258 8.258h200.396c4.562 0 8.258-3.696 8.258-8.258s-3.694-8.258-8.256-8.258m-181.127-36.886h5.237a8.26 8.26 0 0 0 8.258-8.244c.011-5.925 3.43-10.451 6.336-13.231 2.901 2.77 6.304 7.284 6.314 13.231a8.26 8.26 0 0 0 8.258 8.244h18.451a8.257 8.257 0 0 0 8.258-8.253c.014-21.998 12.714-36.769 19.817-43.31 7.114 6.551 19.805 21.319 19.819 43.31a8.257 8.257 0 0 0 8.258 8.253h18.451a8.26 8.26 0 0 0 8.258-8.244c.011-5.925 3.43-10.451 6.336-13.231 2.901 2.77 6.304 7.284 6.314 13.231a8.26 8.26 0 0 0 8.258 8.244h5.237v36.886h-161.86z" style="fill:#121b21"/><path d="M468.324 82.581H43.676C19.594 82.581 0 102.174 0 126.257v259.486c0 24.083 19.594 43.676 43.676 43.676h424.647c24.083 0 43.676-19.594 43.676-43.676V126.257c.001-24.083-19.593-43.676-43.675-43.676M43.676 99.097h424.647c14.977 0 27.16 12.183 27.16 27.16v31.197H470.71a8.256 8.256 0 0 0-8.258 8.258 8.256 8.256 0 0 0 8.258 8.258h24.774v164.06H16.516V173.97h421.161a8.256 8.256 0 0 0 8.258-8.258 8.256 8.256 0 0 0-8.258-8.258H16.516v-31.197c0-14.977 12.184-27.16 27.16-27.16m424.648 313.806H43.676c-14.977 0-27.16-12.183-27.16-27.16v-31.197h478.968v31.197c0 14.977-12.184 27.16-27.16 27.16" style="fill:#121b21"/></svg>
