<svg xmlns="http://www.w3.org/2000/svg" xml:space="preserve" viewBox="0 0 512 512" width="48" height="48"><path d="M173.419 90.839H338.58v330.323H173.419z" style="fill:#ed1f34"/><path d="M43.676 90.839c-19.562 0-35.418 15.857-35.418 35.417v259.487c0 19.561 15.857 35.418 35.418 35.418h129.743V90.839z" style="fill:#259245"/><path d="M468.324 90.839H338.581v330.323h129.743c19.561 0 35.418-15.857 35.418-35.418V126.256c0-19.561-15.857-35.417-35.418-35.417M218.952 247.682l27.278-1.409 9.77-25.507 9.77 25.507 27.278 1.409-21.24 17.174 7.089 26.378L256 276.341l-22.897 14.893 7.089-26.378z" style="fill:#ffe000"/><path d="m213.761 254.104 17.063 13.795-5.696 21.191a8.26 8.26 0 0 0 12.479 9.066L256 286.193l18.393 11.964a8.24 8.24 0 0 0 4.503 1.336 8.258 8.258 0 0 0 7.976-10.402l-5.696-21.191 17.063-13.795a8.257 8.257 0 0 0-4.767-14.669l-21.913-1.132-7.848-20.491a8.258 8.258 0 0 0-15.424 0l-7.848 20.491-21.913 1.132a8.256 8.256 0 0 0-4.765 14.668m32.895.416a8.26 8.26 0 0 0 7.286-5.294l2.058-5.373 2.058 5.373a8.26 8.26 0 0 0 7.286 5.294l5.745.297-4.475 3.617a8.26 8.26 0 0 0-2.782 8.564l1.493 5.557-4.823-3.138a8.25 8.25 0 0 0-9.006 0l-4.823 3.138 1.493-5.557a8.26 8.26 0 0 0-2.782-8.564l-4.475-3.617z" style="fill:#111a21"/><path d="M468.324 82.581H43.676C19.594 82.581 0 102.174 0 126.257v259.486c0 24.083 19.594 43.676 43.676 43.676h424.647c24.083 0 43.676-19.594 43.676-43.676V126.257c.001-24.083-19.593-43.676-43.675-43.676M165.161 412.903H43.676c-14.977 0-27.16-12.183-27.16-27.16V126.257c0-14.977 12.183-27.16 27.16-27.16h121.485zm165.162 0H181.677V99.097h148.645zm165.161-27.16c0 14.977-12.183 27.16-27.16 27.16H346.839V99.097h121.485c14.977 0 27.16 12.183 27.16 27.16z" style="fill:#111a21"/></svg>
