<svg xmlns="http://www.w3.org/2000/svg" xml:space="preserve" viewBox="0 0 512 512" width="48" height="48"><path d="M118.366 90.839h275.269v330.323H118.366z" style="fill:#fff"/><path d="M118.366 90.839v330.323H43.751c-19.602 0-35.493-15.891-35.493-35.493V126.332c0-19.602 15.891-35.493 35.493-35.493zm385.376 35.493v259.336c0 19.602-15.891 35.493-35.493 35.493h-74.614V90.839h74.614c19.602 0 35.493 15.89 35.493 35.493M349.15 210.847l-42.529 2.29-28.014 34.294 5.846-58.001L256 157.738l-28.453 31.692 5.846 58.001-28.014-34.294-42.529-2.29 2.29 42.529 42.849 35.002v22.078h96.022v-22.078l42.849-35.002z" style="fill:#ed1f34"/><path d="m356.108 235.225 1.288-23.933c.126-2.341-.749-4.626-2.407-6.284s-3.94-2.526-6.284-2.407l-23.934 1.288a8.258 8.258 0 0 0-13.321-9.72l-11.221 13.736-.005.006-10.648 13.037 3.094-30.691 1.779-17.655a8.26 8.26 0 0 0-7.388-9.044c-4.231-.438-8.042 2.426-8.903 6.497l-16.013-17.835a8.26 8.26 0 0 0-12.29 0l-16.013 17.835c-.862-4.073-4.681-6.936-8.903-6.497a8.257 8.257 0 0 0-7.388 9.044l1.779 17.655 3.094 30.691-10.648-13.037-.006-.006-11.221-13.736a8.259 8.259 0 0 0-13.321 9.72l-23.934-1.288a8.26 8.26 0 0 0-6.283 2.407 8.26 8.26 0 0 0-2.407 6.284l1.288 23.933c-3.487-2.269-8.198-1.594-10.89 1.701a8.26 8.26 0 0 0 1.172 11.621l13.737 11.221.004.004 39.815 32.524v18.159a8.257 8.257 0 0 0 8.258 8.258h39.754v35.548a8.257 8.257 0 0 0 8.258 8.258 8.257 8.257 0 0 0 8.258-8.258v-35.548h39.753a8.257 8.257 0 0 0 8.258-8.258v-18.159l39.815-32.524.004-.004 13.737-11.221a8.26 8.26 0 0 0 1.172-11.621c-2.692-3.295-7.401-3.97-10.889-1.701m-17.298 14.064-40.023 32.693a8.26 8.26 0 0 0-3.033 6.396v13.818h-79.508v-13.818a8.26 8.26 0 0 0-3.033-6.396l-40.023-32.693-1.599-29.702 29.702 1.599 25.706 31.469a8.258 8.258 0 0 0 14.612-6.052l-5.481-54.371L256 170.098l19.871 22.133-5.481 54.371a8.26 8.26 0 0 0 14.612 6.052l25.706-31.469 29.702-1.599zM468.324 82.581H43.675C19.593 82.581 0 102.174 0 126.257v259.486c0 24.083 19.593 43.676 43.675 43.676h424.648c24.084 0 43.676-19.594 43.676-43.676V126.257c.001-24.083-19.592-43.676-43.675-43.676M110.108 412.903H43.675c-14.976 0-27.159-12.183-27.159-27.16V126.257c0-14.977 12.183-27.16 27.159-27.16h66.432v313.806zm385.376-27.16c0 14.977-12.183 27.16-27.16 27.16h-66.431V167.914a8.257 8.257 0 0 0-8.258-8.258 8.257 8.257 0 0 0-8.258 8.258v244.989H126.624V99.097h258.753v35.785a8.257 8.257 0 0 0 8.258 8.258 8.257 8.257 0 0 0 8.258-8.258V99.097h66.431c14.977 0 27.16 12.183 27.16 27.16z" style="fill:#121b21"/></svg>
