<svg xmlns="http://www.w3.org/2000/svg" xml:space="preserve" viewBox="0 0 512 512" width="48" height="48"><path d="M173.419 90.839H338.58v330.323H173.419z" style="fill:#3db4ea"/><path d="M338.581 90.839v330.323h127.174c20.98 0 37.987-17.007 37.987-37.987V128.826c0-20.98-17.007-37.987-37.987-37.987z" style="fill:#ffe000"/><path d="M8.258 128.826v254.348c0 20.98 17.007 37.987 37.987 37.987h127.174V90.839H46.245c-20.98 0-37.987 17.007-37.987 37.987" style="fill:#fff"/><path d="M468.324 82.581H43.676C19.593 82.581 0 102.174 0 126.257v259.486c0 24.083 19.593 43.676 43.676 43.676h424.648c24.083 0 43.675-19.594 43.675-43.676V126.257c.001-24.083-19.592-43.676-43.675-43.676M16.516 385.743V126.257c0-14.977 12.183-27.16 27.16-27.16h121.485v24.774c0 4.562 3.697 8.258 8.258 8.258s8.258-3.696 8.258-8.258V99.097h148.645v313.806H181.677v-256c0-4.562-3.697-8.258-8.258-8.258s-8.258 3.696-8.258 8.258v256H43.676c-14.976 0-27.16-12.183-27.16-27.16m478.968 0c0 14.977-12.183 27.16-27.16 27.16H346.839V99.097h121.485c14.977 0 27.16 12.183 27.16 27.16z" style="fill:#1a1c20"/></svg>
