<svg xmlns="http://www.w3.org/2000/svg" xml:space="preserve" viewBox="0 0 512.001 512.001" width="48" height="48"><path d="M42.947 421.161h426.118c19.154 0 34.681-15.527 34.681-34.681V125.522c0-19.154-15.527-34.681-34.681-34.681H42.947c-19.154 0-34.681 15.527-34.681 34.681v260.956c0 19.156 15.527 34.683 34.681 34.683" style="fill:#103b9b"/><path d="M8.258 255.999h495.481v82.58H8.258z" style="fill:#fff"/><path d="M503.739 304.999H8.258A8.257 8.257 0 0 1 0 296.741a8.257 8.257 0 0 1 8.258-8.258h495.481a8.258 8.258 0 0 1 0 16.516" style="fill:#ed1f34"/><path d="M468.325 82.583H43.679c-24.083 0-43.675 19.594-43.675 43.676v129.668l-.003.074.003.074v82.431l-.003.074.003.074v47.088c0 24.083 19.592 43.676 43.675 43.676h424.646c24.083 0 43.676-19.594 43.676-43.676V126.259c-.001-24.083-19.593-43.676-43.676-43.676M43.679 99.099h424.646c14.976 0 27.16 12.183 27.16 27.16v121.484h-24.778a8.257 8.257 0 0 0-8.258 8.258 8.257 8.257 0 0 0 8.258 8.258h24.777v66.064H16.519v-66.064h421.155c4.561 0 8.258-3.696 8.258-8.258s-3.697-8.258-8.258-8.258H16.519V126.259c0-14.977 12.185-27.16 27.16-27.16m424.646 313.804H43.679c-14.976 0-27.159-12.183-27.159-27.16v-38.904h478.965v38.904c-.001 14.976-12.184 27.16-27.16 27.16" style="fill:#111a21"/><circle cx="132.668" cy="215.733" r="16.516" style="fill:#ffe610"/><circle cx="85.047" cy="231.203" r="16.516" style="fill:#ffe610"/><circle cx="55.626" cy="271.711" r="16.516" style="fill:#ffe610"/><circle cx="55.626" cy="321.777" r="16.516" style="fill:#ffe610"/><circle cx="85.047" cy="362.274" r="16.516" style="fill:#ffe610"/><circle cx="132.668" cy="377.744" r="16.516" style="fill:#ffe610"/><circle cx="180.278" cy="362.274" r="16.516" style="fill:#ffe610"/><circle cx="209.709" cy="321.777" r="16.516" style="fill:#ffe610"/><circle cx="209.709" cy="271.711" r="16.516" style="fill:#ffe610"/><circle cx="180.278" cy="231.203" r="16.516" style="fill:#ffe610"/></svg>
