<svg xmlns="http://www.w3.org/2000/svg" xml:space="preserve" viewBox="0 0 512 512" width="48" height="48"><path d="M503.742 126.257v259.487c0 19.561-15.857 35.418-35.418 35.418H43.676c-19.561-.001-35.418-15.858-35.418-35.419V126.257c0-19.562 15.858-35.418 35.418-35.418h424.648c19.561 0 35.418 15.856 35.418 35.418" style="fill:#103b9b"/><path d="M256 90.839h-40.196l-83.675 55.784-83.675-55.784H35.055c-14.8 0-26.797 11.997-26.797 26.797l83.675 55.784-83.675 55.783V256h40.196l83.675-55.784L215.804 256H256v-26.797l-83.675-55.784L256 117.637z" style="fill:#fff"/><path d="M256 90.839h-26.797l-110.466 73.652-92.428-61.618c-5.906-3.937-13.453 1.82-11.218 8.556l.647 1.952c.092.279.275.518.519.68l102.331 68.384L8.258 256h26.797l110.472-73.648L256 256v-17.484L145.373 164.59z" style="fill:#ed1f34"/><path d="M256 151.123H154.426V90.839h-44.594v60.284H8.258v44.593h101.574V256h44.594v-60.284H256z" style="fill:#fff"/><path d="M256 161.445H144.103V90.839h-23.948v70.606H8.258v23.949h111.897V256h23.948v-70.606H256zm68.817 47.952v49.928c0 59.527 55.054 73.135 55.054 73.135s55.054-13.607 55.054-73.134v-49.928z" style="fill:#ed1f34"/><path d="M379.871 332.461s55.054-13.608 55.054-73.134v-9.358c-4.957-2.335-9.397-4.92-19.219-4.92-17.919 0-17.919 8.601-35.839 8.601s-17.919-8.601-35.838-8.601c-9.818 0-14.258 2.582-19.213 4.917v9.36c.001 59.527 55.055 73.135 55.055 73.135" style="fill:#103b9b"/><path d="M379.867 299.74c-10.839 0-16.745-2.835-21.492-5.113-4.06-1.949-7.266-3.488-14.346-3.488-6.046 0-9.198 1.159-11.679 2.245a8.257 8.257 0 0 1-10.878-4.251 8.26 8.26 0 0 1 4.251-10.878c4.103-1.796 9.484-3.632 18.305-3.632 10.839 0 16.746 2.835 21.493 5.115 4.059 1.949 7.266 3.487 14.345 3.487 7.081 0 10.287-1.539 14.346-3.487 4.747-2.278 10.654-5.115 21.493-5.115 8.825 0 14.21 1.838 18.315 3.636a8.26 8.26 0 0 1-6.627 15.129c-2.484-1.088-5.64-2.248-11.689-2.248-7.081 0-10.287 1.538-14.346 3.487-4.745 2.277-10.652 5.113-21.491 5.113m0-37.833c-10.839 0-16.745-2.835-21.492-5.113-4.06-1.949-7.266-3.488-14.346-3.488s-10.286 1.539-14.345 3.488l-1.305.623a8.258 8.258 0 1 1-7.047-14.936l1.206-.576c4.747-2.278 10.654-5.115 21.493-5.115s16.746 2.835 21.493 5.115c4.059 1.949 7.266 3.487 14.345 3.487 7.081 0 10.287-1.538 14.346-3.487 4.747-2.278 10.654-5.115 21.493-5.115 10.84 0 16.748 2.836 21.496 5.116l1.247.595a8.259 8.259 0 0 1-7.038 14.942l-1.355-.646c-4.061-1.949-7.267-3.488-14.348-3.488s-10.287 1.539-14.346 3.487c-4.751 2.276-10.658 5.111-21.497 5.111" style="fill:#fff"/><path d="M379.871 184.495a8.257 8.257 0 0 1-8.258-8.258v-22.021c0-4.561 3.696-8.258 8.258-8.258s8.258 3.697 8.258 8.258v22.021a8.257 8.257 0 0 1-8.258 8.258" style="fill:#f2a643"/><path d="M379.871 176.236c-18.314 0-33.161 14.847-33.161 33.161h66.322c0-18.314-14.847-33.161-33.161-33.161" style="fill:#259245"/><path d="M379.871 366.043c-28.473 0-54.794-12.824-72.247-34.385l-2.383 8.49a8.258 8.258 0 0 1-15.901-4.462l7.28-25.946a8.26 8.26 0 0 1 7.107-5.984 8.27 8.27 0 0 1 8.175 4.415c13.22 25.509 39.262 41.354 67.967 41.354s54.749-15.847 67.967-41.354a8.27 8.27 0 0 1 8.175-4.415 8.26 8.26 0 0 1 7.107 5.984l7.28 25.946a8.258 8.258 0 1 1-15.901 4.462l-2.383-8.49c-17.449 21.561-43.77 34.385-72.243 34.385" style="fill:#f2a643"/><path d="M434.925 201.139h-14.464c-3.838-18.894-20.579-33.161-40.59-33.161s-36.752 14.266-40.59 33.161h-14.464a8.257 8.257 0 0 0-8.258 8.258v49.928c0 34.062 16.68 54.352 30.674 65.377 14.991 11.809 30.024 15.618 30.656 15.774a8.25 8.25 0 0 0 3.964 0c.632-.156 15.665-3.965 30.656-15.774 13.994-11.024 30.674-31.315 30.674-65.377v-49.928a8.257 8.257 0 0 0-8.258-8.258m-55.054-16.644c10.839 0 20.081 6.96 23.496 16.645h-46.992c3.415-9.686 12.657-16.645 23.496-16.645m46.796 74.83c0 46.604-37.427 61.528-46.774 64.529-9.109-2.989-46.818-18.175-46.818-64.529v-41.67h93.592z" style="fill:#1a1c20"/><path d="M468.324 82.581H43.676C19.594 82.581 0 102.173 0 126.256v259.487c0 24.084 19.594 43.676 43.676 43.676h424.647c24.083 0 43.676-19.593 43.676-43.676V126.256c.001-24.083-19.593-43.675-43.675-43.675m27.16 303.162c0 14.977-12.183 27.16-27.16 27.16H43.676c-14.977 0-27.16-12.183-27.16-27.16V126.256c0-14.976 12.183-27.159 27.16-27.159h424.647c14.977 0 27.16 12.183 27.16 27.159z" style="fill:#1a1c20"/></svg>
