<svg xmlns="http://www.w3.org/2000/svg" xml:space="preserve" viewBox="0 0 512 512" width="48" height="48"><path d="M8.258 256h495.484v82.581H8.258z" style="fill:#259245"/><path d="M468.324 90.839H43.676c-19.562 0-35.418 15.857-35.418 35.417v47.163h495.484v-47.163c0-19.561-15.858-35.417-35.418-35.417" style="fill:#164fce"/><path d="M8.258 385.743c0 19.56 15.855 35.416 35.415 35.418h424.654c19.56-.001 35.415-15.858 35.415-35.418v-47.162H8.258z" style="fill:#ffe000"/><path d="M8.258 173.419h495.484V256H8.258z" style="fill:#fff"/><path d="M214.71 90.839h82.581v330.323H214.71z" style="fill:#ed1f34"/><circle cx="71.57" cy="132.129" r="16.516" style="fill:#ffe000"/><path d="M468.324 82.581H43.675C19.593 82.581 0 102.174 0 126.257v259.486c0 24.083 19.593 43.676 43.675 43.676h424.648c24.084 0 43.676-19.594 43.676-43.676V126.257c.001-24.083-19.592-43.676-43.675-43.676M206.452 247.742H16.516v-66.065h189.935v66.065zM16.516 264.258h189.935v66.065H16.516zM222.968 99.097h66.065v156.881l-.001.022.001.022v82.538l-.001.022.001.022v74.299h-66.065zm82.58 82.58h189.935v66.065H305.548zm189.936-55.42v38.904H305.548V99.097h162.775c14.977 0 27.161 12.183 27.161 27.16M43.675 99.097h162.776v66.065H16.516v-38.904c0-14.978 12.184-27.161 27.159-27.161M16.516 385.743v-38.904h189.935v66.065H43.675c-14.975-.001-27.159-12.184-27.159-27.161m451.808 27.16H305.548v-66.065h132.129c4.561 0 8.258-3.696 8.258-8.258s-3.697-8.258-8.258-8.258H305.548v-66.065h189.935v66.065H470.71c-4.561 0-8.258 3.696-8.258 8.258s3.697 8.258 8.258 8.258h24.774v38.904c0 14.978-12.184 27.161-27.16 27.161" style="fill:#111a21"/></svg>
