<svg xmlns="http://www.w3.org/2000/svg" xml:space="preserve" viewBox="0 0 512 512" width="48" height="48"><path d="M491.182 412.789c7.679-6.496 12.56-16.198 12.56-27.045V256H256zm-470.364 0a35.26 35.26 0 0 0 22.858 8.373H256V256zm0-313.578c-7.679 6.497-12.56 16.199-12.56 27.045V256H256zm470.364 0a35.27 35.27 0 0 0-22.858-8.373H256V256z" style="fill:#fff"/><path d="M491.182 99.211 256 256h247.742V126.256c0-10.846-4.881-20.547-12.56-27.045M256 421.161h212.324a35.26 35.26 0 0 0 22.858-8.373L256 256zM8.258 256v129.743c0 10.847 4.881 20.548 12.56 27.045L256 256zM256 90.839H43.676a35.26 35.26 0 0 0-22.858 8.373L256 256z" style="fill:#333"/><path d="M206.809 231.776v75.782c0 27.167 22.023 49.191 49.191 49.191 27.167 0 49.191-22.023 49.191-49.191v-75.782z" style="fill:#ed1f34"/><path d="M256 329.222c-11.946 0-21.664-9.718-21.664-21.664v-48.255h43.327v48.255c.001 11.945-9.717 21.664-21.663 21.664" style="fill:#fff"/><path d="M298.584 177.273v23.123h-85.168v-23.123L256 165.161z" style="fill:#f2a643"/><path d="M305.191 223.518H206.81a8.257 8.257 0 0 0-8.258 8.258v75.782c0 31.678 25.772 57.449 57.449 57.449s57.449-25.771 57.449-57.449v-75.782a8.26 8.26 0 0 0-8.259-8.258m-8.259 84.04c0 22.57-18.363 40.932-40.932 40.932s-40.932-18.363-40.932-40.932v-67.523h81.865zm-83.516-98.904h85.168a8.257 8.257 0 0 0 8.258-8.258v-37.621a8.257 8.257 0 0 0-8.258-8.258 8.257 8.257 0 0 0-8.258 8.258v3.563l-26.068-7.414v-3.673a8.257 8.257 0 0 0-8.258-8.258 8.257 8.257 0 0 0-8.258 8.258v3.673l-26.068 7.414v-3.563a8.257 8.257 0 0 0-8.258-8.258 8.257 8.257 0 0 0-8.258 8.258v37.621a8.26 8.26 0 0 0 8.258 8.258m8.258-25.144L256 173.747l34.326 9.762v8.628h-68.652z" style="fill:#1a1c20"/><path d="M468.324 82.581H43.675C19.593 82.581 0 102.174 0 126.257v259.486c0 24.083 19.593 43.676 43.675 43.676h424.648c24.084 0 43.676-19.594 43.676-43.676V126.257c.001-24.083-19.592-43.676-43.675-43.676m27.16 303.162c0 14.977-12.183 27.16-27.16 27.16H43.675c-14.976 0-27.159-12.183-27.159-27.16V126.257c0-14.977 12.183-27.16 27.159-27.16h424.648c14.977 0 27.16 12.183 27.16 27.16z" style="fill:#1a1c20"/></svg>
