<?xml version="1.0" encoding="iso-8859-1"?>
<!-- Generator: Adobe Illustrator 19.0.0, SVG Export Plug-In . SVG Version: 6.00 Build 0)  -->
<svg version="1.1" id="Layer_1" xmlns="http://www.w3.org/2000/svg" xmlns:xlink="http://www.w3.org/1999/xlink" x="0px" y="0px"
	 viewBox="0 0 512 512" style="enable-background:new 0 0 512 512;" xml:space="preserve">
<g>
	<path style="fill:#FFFFFF;" d="M491.182,412.789c7.679-6.496,12.56-16.198,12.56-27.045V256H256L491.182,412.789z"/>
	<path style="fill:#FFFFFF;" d="M20.818,412.789c6.169,5.22,14.143,8.373,22.858,8.373H256V256L20.818,412.789z"/>
	<path style="fill:#FFFFFF;" d="M20.818,99.211c-7.679,6.497-12.56,16.199-12.56,27.045V256H256L20.818,99.211z"/>
	<path style="fill:#FFFFFF;" d="M491.182,99.211c-6.169-5.22-14.144-8.373-22.858-8.373H256V256L491.182,99.211z"/>
</g>
<g>
	<path style="fill:#333333;" d="M491.182,99.211L256,256h247.742V126.256C503.742,115.41,498.861,105.709,491.182,99.211z"/>
	<path style="fill:#333333;" d="M256,421.161h212.324c8.715,0,16.689-3.153,22.858-8.373L256,256V421.161z"/>
	<path style="fill:#333333;" d="M8.258,256v129.743c0,10.847,4.881,20.548,12.56,27.045L256,256H8.258z"/>
	<path style="fill:#333333;" d="M256,90.839H43.676c-8.715,0-16.689,3.153-22.858,8.373L256,256V90.839z"/>
</g>
<path style="fill:#ED1F34;" d="M206.809,231.776v75.782c0,27.167,22.023,49.191,49.191,49.191c27.167,0,49.191-22.023,49.191-49.191
	v-75.782H206.809z"/>
<path style="fill:#FFFFFF;" d="M256,329.222c-11.946,0-21.664-9.718-21.664-21.664v-48.255h43.327v48.255
	C277.664,319.503,267.946,329.222,256,329.222z"/>
<polygon style="fill:#F2A643;" points="298.584,177.273 298.584,200.396 213.416,200.396 213.416,177.273 256,165.161 "/>
<g>
	<path style="fill:#1A1C20;" d="M305.191,223.518h-98.381c-4.561,0-8.258,3.696-8.258,8.258v75.782
		c0,31.678,25.772,57.449,57.449,57.449s57.449-25.771,57.449-57.449v-75.782C313.449,227.215,309.751,223.518,305.191,223.518z
		 M296.932,307.558c0,22.57-18.363,40.932-40.932,40.932s-40.932-18.363-40.932-40.932v-67.523h81.865V307.558z"/>
	<path style="fill:#1A1C20;" d="M213.416,208.654h85.168c4.561,0,8.258-3.696,8.258-8.258v-23.123v-14.498
		c0-4.562-3.697-8.258-8.258-8.258c-4.561,0-8.258,3.696-8.258,8.258v3.563l-26.068-7.414v-3.673c0-4.562-3.697-8.258-8.258-8.258
		c-4.561,0-8.258,3.696-8.258,8.258v3.673l-26.068,7.414v-3.563c0-4.562-3.697-8.258-8.258-8.258c-4.561,0-8.258,3.696-8.258,8.258
		v14.498v23.123C205.158,204.957,208.855,208.654,213.416,208.654z M221.674,183.51L256,173.747l34.326,9.762v8.628h-68.652
		L221.674,183.51L221.674,183.51z"/>
	<path style="fill:#1A1C20;" d="M468.324,82.581H43.675C19.593,82.581,0,102.174,0,126.257v259.486
		c0,24.083,19.593,43.676,43.675,43.676h424.648c24.084,0,43.676-19.594,43.676-43.676V126.257
		C512,102.174,492.407,82.581,468.324,82.581z M495.484,385.743c0,14.977-12.183,27.16-27.16,27.16H43.675
		c-14.976,0-27.159-12.183-27.159-27.16V126.257c0-14.977,12.183-27.16,27.159-27.16h424.648c14.977,0,27.16,12.183,27.16,27.16
		V385.743z"/>
</g>
<g>
</g>
<g>
</g>
<g>
</g>
<g>
</g>
<g>
</g>
<g>
</g>
<g>
</g>
<g>
</g>
<g>
</g>
<g>
</g>
<g>
</g>
<g>
</g>
<g>
</g>
<g>
</g>
<g>
</g>
</svg>
