<svg xmlns="http://www.w3.org/2000/svg" xml:space="preserve" viewBox="0 0 512 512" width="48" height="48"><path d="M468.288 90.72H43.712c-19.584 0-35.392 15.872-35.392 35.393v149.824h495.488V126.24c-.127-19.648-15.936-35.52-35.52-35.52" style="fill:#fff"/><path d="M8.32 385.632c0 19.52 15.808 35.393 35.392 35.393h424.704c19.52 0 35.392-15.872 35.392-35.393V255.904H8.32z" style="fill:#ed1f34"/><path d="M44.16 90.72c-19.84 0-35.904 16.064-35.904 35.904v129.28H173.44V90.72z" style="fill:#164fce"/><path d="m53.824 165.024 27.264-1.408 9.728-25.536 9.792 25.536 27.264 1.408-21.248 17.153 7.104 26.431-22.912-14.911-22.912 14.911 7.104-26.431z" style="fill:#fff"/><path d="m48.576 171.424 17.088 13.824-5.696 21.184c-.896 3.328.384 6.784 3.072 8.832 2.816 1.984 6.528 2.112 9.408.192l18.432-12.032 18.432 12.032c1.408.896 2.88 1.28 4.48 1.28 1.728 0 3.392-.512 4.928-1.6 2.816-1.984 4.032-5.504 3.072-8.832l-5.696-21.184 17.088-13.824c2.688-2.176 3.712-5.696 2.688-9.024-1.088-3.328-4.032-5.504-7.424-5.696l-21.888-1.088-7.808-20.48a8.24 8.24 0 0 0-7.68-5.312c-3.392 0-6.528 2.112-7.68 5.312l-7.808 20.48-21.888 1.088c-3.392.192-6.4 2.432-7.424 5.696-1.344 3.457-.384 7.04 2.304 9.152m32.896.384c3.328-.192 6.08-2.176 7.296-5.312l2.112-5.376 2.112 5.376c1.216 3.008 4.032 5.12 7.296 5.312l5.696.32-4.48 3.584c-2.496 2.112-3.584 5.376-2.816 8.576l1.472 5.632-4.8-3.072c-1.408-.896-2.88-1.28-4.48-1.28s-3.072.384-4.48 1.28l-4.8 3.072 1.472-5.632c.832-3.2-.192-6.528-2.816-8.576l-4.48-3.584z" style="fill:#121b21"/><path d="M468.288 82.528H43.712C19.584 82.528 0 102.112 0 126.24v259.52c0 24.128 19.584 43.712 43.712 43.712h424.576c24.128 0 43.712-19.584 43.712-43.712V126.24c0-24.128-19.584-43.712-43.712-43.712M43.712 98.977h121.473v148.608H16.512V126.177c0-14.977 12.16-27.2 27.2-27.2m424.576 313.855H43.712c-14.976 0-27.2-12.224-27.2-27.2V264.223h421.184a8.303 8.303 0 0 0 8.32-8.32 8.303 8.303 0 0 0-8.32-8.32h-256V98.977h286.592c14.976 0 27.2 12.224 27.2 27.2V247.65h-24.833a8.303 8.303 0 0 0-8.32 8.32 8.303 8.303 0 0 0 8.32 8.32h24.832v121.534c.001 14.785-12.159 27.008-27.199 27.008" style="fill:#121b21"/></svg>
