<svg xmlns="http://www.w3.org/2000/svg" xml:space="preserve" viewBox="0 0 512 512" width="48" height="48"><path d="M503.742 379.374V132.626c0-23.079-18.708-41.787-41.787-41.787H50.045c-23.079 0-41.787 18.708-41.787 41.787v246.749c0 23.079 18.708 41.787 41.787 41.787h411.91c23.079-.001 41.787-18.709 41.787-41.788" style="fill:#ed1f34"/><path d="m56.705 202.047 34.456-1.78 12.34-32.219 12.341 32.219 34.455 1.78-26.829 21.693 8.955 33.319-28.922-18.813-28.921 18.813 8.954-33.319z" style="fill:#ffe000"/><circle cx="201.166" cy="191.609" r="11.402" style="fill:#ffe000"/><circle cx="174.994" cy="146.289" r="11.405" style="fill:#ffe000"/><circle cx="201.166" cy="243.954" r="11.402" style="fill:#ffe000"/><circle cx="174.994" cy="289.286" r="11.405" style="fill:#ffe000"/><path d="m150.723 193.8-29.092-1.503-10.418-27.202a8.259 8.259 0 0 0-15.424 0l-10.418 27.202-29.092 1.503a8.257 8.257 0 0 0-4.767 14.669l22.651 18.315-7.56 28.132a8.258 8.258 0 0 0 12.479 9.066l24.419-15.885 24.419 15.884a8.24 8.24 0 0 0 4.502 1.336 8.26 8.26 0 0 0 7.977-10.402l-7.56-28.132 22.651-18.315a8.256 8.256 0 0 0-4.767-14.668m-32.447 23.518a8.26 8.26 0 0 0-2.782 8.564l3.358 12.497-10.848-7.056c-1.369-.891-2.935-1.336-4.502-1.336s-3.134.445-4.502 1.336l-10.848 7.056 3.358-12.497a8.26 8.26 0 0 0-2.782-8.564l-10.064-8.137 12.924-.668a8.26 8.26 0 0 0 7.286-5.294l4.627-12.082 4.629 12.084a8.26 8.26 0 0 0 7.286 5.294l12.924.668z" style="fill:#121b21"/><path d="M468.324 82.581H43.676C19.593 82.581 0 102.174 0 126.257v259.486c0 24.083 19.593 43.676 43.676 43.676h424.648c24.082 0 43.675-19.594 43.675-43.676V126.257c.001-24.083-19.593-43.676-43.675-43.676m27.16 303.162c0 14.977-12.183 27.16-27.16 27.16H43.676c-14.977 0-27.16-12.183-27.16-27.16V126.257c0-14.977 12.183-27.16 27.16-27.16h424.648c14.976 0 27.159 12.183 27.159 27.16z" style="fill:#121b21"/></svg>
