<svg xmlns="http://www.w3.org/2000/svg" xml:space="preserve" viewBox="0 0 512 512" width="48" height="48"><path d="M8.258 389.781V115.763c0-10.654 11.874-17.008 20.738-11.099l455.255 303.504c5.839 3.892 3.083 12.994-3.934 12.994H39.639c-17.331-.001-31.381-14.05-31.381-31.381" style="fill:#164fce"/><circle cx="112.86" cy="214.038" r="13.37" style="fill:#fff"/><circle cx="112.86" cy="374.487" r="13.37" style="fill:#fff"/><circle cx="152.972" cy="247.467" r="13.37" style="fill:#fff"/><circle cx="72.748" cy="280.895" r="13.37" style="fill:#fff"/><circle cx="132.911" cy="310.977" r="8.913" style="fill:#fff"/><path d="M37.187 90.839h431.088c19.588 0 35.468 15.88 35.468 35.468v268.746c0 11.16-12.438 17.816-21.724 11.626L32.329 106.886c-7.211-4.808-3.808-16.047 4.858-16.047" style="fill:#259245"/><path d="M491.174 421.048a8.2 8.2 0 0 1-4.573-1.388L16.232 106.08a8.256 8.256 0 0 1-2.29-11.451 8.26 8.26 0 0 1 11.451-2.29l470.369 313.58a8.257 8.257 0 0 1 2.29 11.451 8.25 8.25 0 0 1-6.878 3.678" style="fill:#1a1c20"/><path d="M445.798 177.548c11.427 11.427 11.427 29.953 0 41.38s-29.953 11.427-41.379 0z" style="fill:#ffe000"/><circle cx="256" cy="256" r="55.989" style="fill:#ffe000"/><path d="M256 278.957c-12.658 0-22.957-10.298-22.957-22.957s10.299-22.957 22.957-22.957 22.957 10.298 22.957 22.957-10.299 22.957-22.957 22.957" style="fill:#259245"/><path d="M256 287.215c-17.212 0-31.215-14.003-31.215-31.215s14.003-31.215 31.215-31.215 31.215 14.003 31.215 31.215-14.003 31.215-31.215 31.215m0-45.914c-8.105 0-14.699 6.593-14.699 14.699s6.594 14.699 14.699 14.699 14.699-6.593 14.699-14.699-6.594-14.699-14.699-14.699" style="fill:#259245"/><path d="M454.055 149.196a8.257 8.257 0 0 0-8.258-8.258 8.257 8.257 0 0 0-8.258 8.258v24.932l-5.655 5.655-16.684-12.897a8.25 8.25 0 0 0-5.051-1.724h-92.948a8.257 8.257 0 0 0-8.258 8.258 8.257 8.257 0 0 0 8.258 8.258h90.129l12.78 9.879-21.531 21.532-46.026 46.026a8.258 8.258 0 0 0 11.678 11.679l40.837-40.836c5.941 3.769 12.833 5.798 20.041 5.798 10.021 0 19.443-3.903 26.528-10.989 13.77-13.771 14.574-35.667 2.419-50.391zm-14.097 63.892a20.86 20.86 0 0 1-14.85 6.152c-2.724 0-5.369-.515-7.823-1.5l21.181-21.181.008-.008 6.127-6.126c3.021 7.565 1.473 16.547-4.643 22.663M256 191.752c-35.426 0-64.248 28.822-64.248 64.248s28.822 64.248 64.248 64.248 64.248-28.822 64.248-64.248-28.822-64.248-64.248-64.248m0 111.98c-26.319 0-47.732-21.412-47.732-47.732s21.413-47.732 47.732-47.732S303.732 229.68 303.732 256 282.319 303.732 256 303.732" style="fill:#1a1c20"/><path d="M468.324 82.581H43.676C19.593 82.581 0 102.174 0 126.257v259.486c0 24.083 19.593 43.676 43.676 43.676h424.648c24.083 0 43.675-19.594 43.675-43.676V126.257c.001-24.083-19.592-43.676-43.675-43.676m27.16 303.162c0 14.977-12.183 27.16-27.16 27.16H43.676c-14.977 0-27.16-12.183-27.16-27.16V126.257c0-14.977 12.183-27.16 27.16-27.16h424.648c14.976 0 27.159 12.183 27.159 27.16z" style="fill:#1a1c20"/></svg>
