<svg xmlns="http://www.w3.org/2000/svg" xml:space="preserve" viewBox="0 0 512 512" width="48" height="48"><path d="M8.258 385.101V126.899c0-19.915 16.145-36.06 36.06-36.06h423.363c19.915 0 36.06 16.145 36.06 36.06v258.202c0 19.915-16.145 36.06-36.06 36.06H44.318c-19.915 0-36.06-16.145-36.06-36.06" style="fill:#103b9b"/><path d="M313.92 328.104c-39.823 0-72.105-32.282-72.105-72.105s32.282-72.104 72.105-72.104c1.198 0 2.388.033 3.573.089a82.2 82.2 0 0 0-40.405-10.566c-45.608 0-82.581 36.973-82.581 82.58s36.973 82.582 82.581 82.582a82.2 82.2 0 0 0 40.405-10.566q-1.776.088-3.573.09" style="fill:#ffe000"/><circle cx="110.174" cy="187.865" r="48.998" style="fill:#ffe000"/><circle cx="384.76" cy="156.903" r="16.516" style="fill:#ffe000"/><circle cx="384.76" cy="355.097" r="16.516" style="fill:#ffe000"/><circle cx="434.308" cy="198.194" r="16.516" style="fill:#ffe000"/><circle cx="335.211" cy="239.484" r="16.516" style="fill:#ffe000"/><circle cx="409.534" cy="276.645" r="11.011" style="fill:#ffe000"/><circle cx="110.174" cy="176.877" r="21.319" style="fill:#259245"/><path d="M313.92 192.154c1.023 0 2.061.025 3.176.079.152.007.301.006.456.01a8.26 8.26 0 0 0 3.59-15.679 90.9 90.9 0 0 0-44.053-11.403c-50.088 0-90.839 40.75-90.839 90.838 0 50.089 40.75 90.84 90.839 90.84 15.554 0 30.926-4.02 44.451-11.626a8.26 8.26 0 0 0 3.889-9.48 8.27 8.27 0 0 0-8.333-5.966 65 65 0 0 1-3.176.079c-35.205 0-63.846-28.642-63.846-63.847s28.641-63.845 63.846-63.845m-80.362 63.845c0 33.291 20.349 61.92 49.261 74.101a73 73 0 0 1-5.731.222c-40.981 0-74.323-33.342-74.323-74.324s33.341-74.321 74.323-74.321q2.874 0 5.731.222c-28.912 12.182-49.261 40.81-49.261 74.1M110.176 147.3c-16.308 0-29.577 13.268-29.577 29.576 0 13.442 9.018 24.812 21.319 28.396v14.912a8.257 8.257 0 0 0 8.258 8.258 8.257 8.257 0 0 0 8.258-8.258v-14.912c12.301-3.584 21.319-14.954 21.319-28.396 0-16.308-13.268-29.576-29.577-29.576m0 42.638c-7.201 0-13.061-5.859-13.061-13.061 0-7.201 5.859-13.06 13.061-13.06s13.061 5.859 13.061 13.06-5.859 13.061-13.061 13.061" style="fill:#1a1c20"/><path d="M468.324 82.581H43.675C19.593 82.581 0 102.174 0 126.257v259.486c0 24.083 19.593 43.676 43.675 43.676h424.648c24.084 0 43.676-19.594 43.676-43.676V126.257c.001-24.083-19.592-43.676-43.675-43.676m27.16 303.162c0 14.977-12.183 27.16-27.16 27.16H43.675c-14.976 0-27.159-12.183-27.159-27.16V126.257c0-14.977 12.183-27.16 27.159-27.16h424.648c14.977 0 27.16 12.183 27.16 27.16z" style="fill:#1a1c20"/></svg>
