<svg xmlns="http://www.w3.org/2000/svg" xml:space="preserve" viewBox="0 0 512 512" width="48" height="48"><path d="M8.258 256h495.484v82.581H8.258z" style="fill:#164fce"/><path d="M503.742 338.581H8.258v47.346c0 19.459 15.775 35.234 35.234 35.234h425.015c19.459 0 35.234-15.775 35.234-35.234v-47.346z" style="fill:#ed1f34"/><path d="M473.462 90.839H38.538c-16.723 0-30.28 13.556-30.28 30.28V256h495.484V121.118c0-16.723-13.557-30.279-30.28-30.279" style="fill:#ffe000"/><path d="M468.324 82.581H43.676C19.594 82.581 0 102.174 0 126.257v259.486c0 24.083 19.594 43.676 43.676 43.676h424.647c24.083 0 43.676-19.594 43.676-43.676V126.257c.001-24.083-19.593-43.676-43.675-43.676M43.676 99.097h424.647c14.977 0 27.16 12.183 27.16 27.16v121.485H107.355A8.256 8.256 0 0 0 99.097 256a8.256 8.256 0 0 0 8.258 8.258h388.129v66.065H16.516v-66.065h57.806A8.256 8.256 0 0 0 82.58 256a8.256 8.256 0 0 0-8.258-8.258H16.516V126.257c0-14.977 12.184-27.16 27.16-27.16m424.648 313.806H43.676c-14.977 0-27.16-12.183-27.16-27.16v-38.904h478.968v38.904c0 14.977-12.184 27.16-27.16 27.16" style="fill:#121b21"/></svg>
