<svg xmlns="http://www.w3.org/2000/svg" xml:space="preserve" viewBox="0 0 512 512" width="48" height="48"><path d="M468.324 90.839H43.676a35.26 35.26 0 0 0-22.858 8.373l111.311 74.208h371.613v-47.162c0-19.563-15.858-35.419-35.418-35.419" style="fill:#ffe000"/><path d="M256 256h247.742v-82.581H132.129z" style="fill:#fff"/><path d="M132.129 338.581h371.613V256H256z" style="fill:#ed1f34"/><path d="M20.818 412.789a35.27 35.27 0 0 0 22.858 8.373h424.648c19.561 0 35.418-15.857 35.418-35.418v-47.162H132.129z" style="fill:#164fce"/><path d="M503.742 330.323H8.258c-4.561 0-8.258 3.696-8.258 8.258s3.697 8.258 8.258 8.258h495.484c4.561 0 8.258-3.696 8.258-8.258s-3.697-8.258-8.258-8.258m0-82.581H8.258A8.257 8.257 0 0 0 0 256a8.257 8.257 0 0 0 8.258 8.258h495.484A8.257 8.257 0 0 0 512 256a8.257 8.257 0 0 0-8.258-8.258M8.258 181.677h495.484a8.257 8.257 0 0 0 8.258-8.258 8.257 8.257 0 0 0-8.258-8.258H8.258A8.257 8.257 0 0 0 0 173.419a8.257 8.257 0 0 0 8.258 8.258" style="fill:#111a21"/><path d="m256 256-123.871-82.581L20.818 99.211c-7.679 6.497-12.56 16.199-12.56 27.046v259.486c0 10.847 4.881 20.548 12.56 27.046l111.311-74.208z" style="fill:#259245"/><path d="M116.594 278.869a8.257 8.257 0 0 1-8.258-8.258v-29.223c0-4.562 3.697-8.258 8.258-8.258s8.258 3.696 8.258 8.258v29.221a8.26 8.26 0 0 1-8.258 8.26" style="fill:#fff"/><path d="M114.558 214.912c-22.692 0-41.088 18.396-41.088 41.088s18.396 41.087 41.088 41.087q1.024-.002 2.036-.051a46.8 46.8 0 0 1-23.023 6.021c-25.989 0-47.057-21.068-47.057-47.057s21.068-47.058 47.057-47.058a46.8 46.8 0 0 1 23.023 6.021 43 43 0 0 0-2.036-.051" style="fill:#fff"/><path d="M116.2 288.788q-.816.04-1.642.041c-18.102 0-32.83-14.727-32.83-32.829s14.728-32.829 32.83-32.829q.826.001 1.642.041c.149.008.296.017.444.01a8.259 8.259 0 0 0 3.584-15.687 55.4 55.4 0 0 0-26.657-6.85c-30.501 0-55.315 24.814-55.315 55.315s24.814 55.315 55.315 55.315a55.34 55.34 0 0 0 27.071-7.081 8.26 8.26 0 0 0 3.889-9.479c-1.059-3.681-4.501-6.172-8.331-5.967M54.771 256c0-17.358 11.457-32.09 27.205-37.03-10.273 9.05-16.765 22.297-16.765 37.03s6.492 27.981 16.765 37.03c-15.749-4.94-27.205-19.672-27.205-37.03" style="fill:#111a21"/><path d="M468.324 82.581H43.676c-10.579 0-20.291 3.784-27.857 10.066a9 9 0 0 0-.845.731C5.807 101.39 0 113.155 0 126.257v259.486c0 13.167 5.865 24.982 15.11 32.997.192.185.392.355.598.519 7.582 6.337 17.335 10.161 27.968 10.161h424.648c24.083 0 43.675-19.594 43.675-43.676V126.257c.001-24.083-19.592-43.676-43.675-43.676M16.516 385.743V126.257a27.02 27.02 0 0 1 5.478-16.337L241.112 256 21.994 402.08a27.03 27.03 0 0 1-5.478-16.337m478.968 0c0 14.977-12.183 27.16-27.16 27.16H43.676c-2.361 0-4.65-.304-6.835-.872l223.74-149.16a8.26 8.26 0 0 0 0-13.742L36.841 99.969a27 27 0 0 1 6.835-.872h424.648c14.976 0 27.159 12.183 27.159 27.16z" style="fill:#111a21"/></svg>
