<svg xmlns="http://www.w3.org/2000/svg" xml:space="preserve" viewBox="0 0 512 512" width="48" height="48"><path d="M503.742 126.257v259.487c0 19.561-15.857 35.418-35.418 35.418H43.676c-19.561-.001-35.418-15.858-35.418-35.419V126.257c0-19.562 15.858-35.418 35.418-35.418h424.648c19.561 0 35.418 15.856 35.418 35.418" style="fill:#103b9b"/><path d="M132.129 200.216 215.804 256H256v-26.797l-83.675-55.784L256 117.636V90.839h-40.196l-83.675 55.784-83.675-55.784h-4.779c-16.806 0-30.868 11.709-34.498 27.411l82.756 55.169-83.675 55.784V256h40.196z" style="fill:#fff"/><path d="M145.528 182.352 256 256v-17.484L145.373 164.59 256 90.839h-26.797l-110.466 73.652-97.919-65.28a35.5 35.5 0 0 0-9.118 11.804l106.889 71.431L8.258 256h26.797z" style="fill:#ed1f34"/><path d="M256 151.123H154.426V90.839h-44.594v60.284H8.258v44.593h101.574V256h44.594v-60.284H256z" style="fill:#fff"/><path d="M256 161.445H144.103V90.839h-23.948v70.606H8.258v23.949h111.897V256h23.948v-70.606H256z" style="fill:#ed1f34"/><circle cx="379.871" cy="180.026" r="11.011" style="fill:#fff"/><circle cx="348.975" cy="186.599" r="11.011" style="fill:#fff"/><circle cx="323.408" cy="205.163" r="11.011" style="fill:#fff"/><circle cx="307.618" cy="232.525" r="11.011" style="fill:#fff"/><circle cx="304.315" cy="263.939" r="11.011" style="fill:#fff"/><circle cx="314.071" cy="293.987" r="11.011" style="fill:#fff"/><circle cx="335.211" cy="317.462" r="11.011" style="fill:#fff"/><circle cx="364.071" cy="330.312" r="11.011" style="fill:#fff"/><circle cx="395.671" cy="330.312" r="11.011" style="fill:#fff"/><circle cx="424.531" cy="317.462" r="11.011" style="fill:#fff"/><circle cx="445.671" cy="293.987" r="11.011" style="fill:#fff"/><circle cx="455.427" cy="263.939" r="11.011" style="fill:#fff"/><circle cx="452.124" cy="232.525" r="11.011" style="fill:#fff"/><circle cx="436.334" cy="205.163" r="11.011" style="fill:#fff"/><circle cx="410.767" cy="186.599" r="11.011" style="fill:#fff"/><path d="M468.324 429.419H43.676C19.593 429.419 0 409.827 0 385.743V126.256c0-24.083 19.593-43.675 43.676-43.675h424.648c24.082 0 43.675 19.593 43.675 43.675v259.487c.001 24.084-19.593 43.676-43.675 43.676M43.676 99.097c-14.977 0-27.16 12.183-27.16 27.159v259.487c0 14.977 12.183 27.16 27.16 27.16h424.648c14.976 0 27.159-12.183 27.159-27.16V126.256c0-14.976-12.183-27.159-27.16-27.159z" style="fill:#1a1c20"/></svg>
