<svg xmlns="http://www.w3.org/2000/svg" xml:space="preserve" viewBox="0 0 512 512" width="48" height="48"><path d="M466.571 90.839H45.429c-20.53 0-37.171 16.643-37.171 37.171v255.98c0 20.53 16.642 37.171 37.171 37.171H466.57c20.53 0 37.171-16.643 37.171-37.171V128.01c.001-20.529-16.641-37.171-37.17-37.171" style="fill:#fff"/><path d="M231.784 136.878c49.94 0 90.426 40.485 90.426 90.426 0 25.314-10.414 48.185-27.176 64.599l22.987 58.9-88.587 34.574c.006-.002-22.354-57.296-22.354-57.296l-40.089.142c-14.157 0-25.632-11.475-25.632-25.632v-75.286c-.001-49.942 40.485-90.427 90.425-90.427" style="fill:#333"/><path d="m182.692 151.381 133.559 43.633c.003.008-168.937.008-168.937.008 6.897-18.034 19.398-33.285 35.378-43.641" style="fill:#fff"/><path d="M234.581 219.157a8.27 8.27 0 0 0-6.744 1.896 8.26 8.26 0 0 0-2.862 6.396l.193 11.068c.079 4.56 3.804 8.204 8.4 8.113a8.26 8.26 0 0 0 7.716-5.717q.296.364.57.75a15.25 15.25 0 0 1 2.661 11.445c-1.384 8.349-9.305 14.021-17.655 12.635-4.491-.736-8.751 2.298-9.497 6.798a8.26 8.26 0 0 0 6.797 9.497c1.756.291 3.501.432 5.226.432 15.299 0 28.84-11.081 31.422-26.66 1.392-8.398-.57-16.834-5.524-23.757-4.952-6.926-12.305-11.504-20.703-12.896" style="fill:#1a1c20"/><path d="M384.674 118.366h-31.569a8.256 8.256 0 0 0-8.258 8.258v31.569c0 13.962-10.068 25.609-23.323 28.082-15.602-33.99-49.958-57.654-89.74-57.654-18.299 0-35.447 5.013-50.154 13.728l-9.36-3.058a8.26 8.26 0 0 0-10.414 5.285c-1.227 3.754.386 7.748 3.654 9.673a99.2 99.2 0 0 0-23.694 32.518h-6.2a8.257 8.257 0 0 0-8.258 8.258 8.257 8.257 0 0 0 8.258 8.258h.448a98.5 98.5 0 0 0-2.938 22.007l-13.173 26.126a8.258 8.258 0 0 0 7.368 11.978 8.27 8.27 0 0 0 5.781-2.377v19.641c-3.205 1.135-5.505 4.184-5.505 7.778 0 3.595 2.3 6.643 5.505 7.778v6.376c0 18.687 15.204 33.89 33.92 33.89l34.426-.121c7.759 19.882 19.665 50.393 20.258 51.921a8.257 8.257 0 0 0 10.732 4.789l74.744-29.17c15.455-6.033 15.455-6.033 16.679-7.256a8.26 8.26 0 0 0 1.854-8.842l-21.061-53.968c16.688-18.225 25.815-41.642 25.815-66.529 0-7.363-.817-14.537-2.353-21.445 9.861 4.51 16.733 14.46 16.733 25.993v118.949a8.256 8.256 0 0 0 8.258 8.258h31.569a8.256 8.256 0 0 0 8.258-8.258V328.78a8.256 8.256 0 0 0-8.258-8.258 8.256 8.256 0 0 0-8.258 8.258v13.763h-15.053v-110.69c0-10.739-3.773-20.612-10.064-28.365 14.131 1.711 25.117 13.78 25.117 28.365v63.895a8.256 8.256 0 0 0 8.258 8.258 8.256 8.256 0 0 0 8.258-8.258v-63.895c0-15.2-7.569-28.658-19.128-36.83 11.559-8.172 19.128-21.631 19.128-36.831v-31.569a8.26 8.26 0 0 0-8.26-8.257m-152.89 26.77c28.083 0 52.911 14.17 67.737 35.727l-95.033-31.047a81.7 81.7 0 0 1 27.296-4.68m-47.759 15.368 80.383 26.262H160.357a82.75 82.75 0 0 1 23.668-26.262m105.232 125.499a8.26 8.26 0 0 0-1.916 8.902l19.984 51.208c-16.759 6.542-56.429 22.023-73.198 28.566l-19.355-49.601a8.26 8.26 0 0 0-7.693-5.255h-.029l-40.06.142c-9.58 0-17.374-7.793-17.374-17.374v-6.376c3.205-1.135 5.505-4.184 5.505-7.778 0-3.595-2.3-6.643-5.505-7.778v-45.095h11.887a8.24 8.24 0 0 0 4.588 6.077 8.26 8.26 0 0 0 11.009-3.9l3.281-6.882a8.26 8.26 0 0 0-7.454-11.811h-22.896a81.6 81.6 0 0 1 3.176-15.764h157.154a81.9 81.9 0 0 1 3.591 24.022c0 22.256-8.77 43.103-24.695 58.697m87.159-127.81c0 14.586-10.985 26.654-25.117 28.366 6.292-7.753 10.065-17.627 10.065-28.366v-23.311h15.053z" style="fill:#1a1c20"/><path d="M468.324 82.581H43.676C19.593 82.581 0 102.174 0 126.257v259.486c0 24.083 19.593 43.676 43.676 43.676h424.648c24.082 0 43.675-19.594 43.675-43.676V126.257c.001-24.083-19.593-43.676-43.675-43.676m27.16 303.162c0 14.977-12.183 27.16-27.16 27.16H43.676c-14.977 0-27.16-12.183-27.16-27.16V126.257c0-14.977 12.183-27.16 27.16-27.16h424.648c14.976 0 27.159 12.183 27.159 27.16z" style="fill:#1a1c20"/></svg>
