<svg xmlns="http://www.w3.org/2000/svg" xml:space="preserve" viewBox="0 0 512 512" width="48" height="48"><path d="M503.742 145.892H8.258v-19.528c0-19.62 15.906-35.526 35.526-35.526h424.43c19.621 0 35.526 15.906 35.526 35.526v19.528zm-35.526 275.269H43.784c-19.621 0-35.526-15.906-35.526-35.526v-19.528h495.484v19.528c0 19.62-15.906 35.526-35.526 35.526" style="fill:#103b9b"/><path d="M8.258 311.054h495.484v55.054H8.258z" style="fill:#fff"/><path d="M8.258 200.946h495.484v110.108H8.258z" style="fill:#ed1f34"/><path d="M8.258 145.892h495.484v55.054H8.258z" style="fill:#fff"/><path d="M468.324 82.581H43.676C19.594 82.581 0 102.174 0 126.257v259.486c0 24.083 19.594 43.676 43.676 43.676h424.647c24.083 0 43.676-19.594 43.676-43.676V126.257c.001-24.083-19.593-43.676-43.675-43.676M16.516 209.204h57.806a8.256 8.256 0 0 0 8.258-8.258 8.256 8.256 0 0 0-8.258-8.258H16.516V154.15h478.968v38.538H107.355a8.256 8.256 0 0 0-8.258 8.258 8.256 8.256 0 0 0 8.258 8.258h388.129v93.591H16.516zm27.16-110.107h424.647c14.977 0 27.16 12.183 27.16 27.16v11.377H16.516v-11.377c0-14.977 12.184-27.16 27.16-27.16m424.648 313.806H43.676c-14.977 0-27.16-12.183-27.16-27.16v-11.377h421.161a8.256 8.256 0 0 0 8.258-8.258 8.256 8.256 0 0 0-8.258-8.258H16.516v-38.538h478.968v38.538H470.71a8.256 8.256 0 0 0-8.258 8.258 8.256 8.256 0 0 0 8.258 8.258h24.774v11.377c0 14.977-12.184 27.16-27.16 27.16" style="fill:#121b21"/></svg>
