<svg xmlns="http://www.w3.org/2000/svg" xml:space="preserve" viewBox="0 0 512 512" width="48" height="48"><path d="M8.258 200.946h495.484v110.108H8.258z" style="fill:#fff"/><path d="M468.324 90.839H43.676c-19.562 0-35.418 15.857-35.418 35.418v74.689h495.484v-74.689c0-19.562-15.858-35.418-35.418-35.418" style="fill:#ed1f34"/><path d="M8.258 385.743c0 19.561 15.857 35.418 35.418 35.418h424.648c19.561 0 35.418-15.858 35.418-35.418v-74.689H8.258z" style="fill:#103b9b"/><path d="M468.324 82.581H43.675C19.593 82.581 0 102.173 0 126.257v259.487c0 24.083 19.593 43.675 43.675 43.675h424.648c24.084 0 43.676-19.593 43.676-43.676V126.257c.001-24.084-19.592-43.676-43.675-43.676M43.675 99.097h424.648c14.977 0 27.16 12.183 27.16 27.16v66.431h-57.806c-4.561 0-8.258 3.697-8.258 8.258s3.697 8.258 8.258 8.258h57.806v93.591H16.516v-93.591h388.129c4.561 0 8.258-3.697 8.258-8.258s-3.697-8.258-8.258-8.258H16.516v-66.431c0-14.977 12.184-27.16 27.159-27.16m424.649 313.806H43.675c-14.976 0-27.159-12.183-27.159-27.16v-66.431h478.968v66.431c0 14.977-12.184 27.16-27.16 27.16" style="fill:#121b21"/><path d="M311.913 256v20.612c0 30.885-25.038 55.913-55.913 55.913V256zm-111.826-76.525H256V256h-55.913z" style="fill:#fff"/><path d="M256 256v76.525c-30.874 0-55.913-25.027-55.913-55.913V256zm0-76.525h55.913V256H256z" style="fill:#ed1f34"/><path d="M311.907 171.217H200.093a8.26 8.26 0 0 0-8.258 8.258v97.142c0 35.381 28.784 64.165 64.165 64.165s64.165-28.784 64.165-64.165v-97.142a8.26 8.26 0 0 0-8.258-8.258m-8.258 105.401c0 26.274-21.375 47.649-47.649 47.649s-47.649-21.375-47.649-47.649v-88.884h95.299z" style="fill:#121b21"/></svg>
