<svg xmlns="http://www.w3.org/2000/svg" xml:space="preserve" viewBox="0 0 512 512" width="48" height="48"><path d="M8.32 149.275h495.493v73.6H8.32zm0 139.651h495.493v66.111H8.32z" style="fill:#fff"/><path d="M503.681 354.976v33.6c0 17.92-14.528 32.513-32.512 32.513H40.704c-17.92 0-32.513-14.528-32.513-32.513v-33.6zM8.32 222.884h495.493v66.111H8.32zm495.361-101.252v35.2H8.32v-35.2c0-17.024 13.824-30.784 30.784-30.784h433.792c17.024-.128 30.785 13.632 30.785 30.784" style="fill:#164fce"/><path d="M8.32 119.584v271.553c0 10.624 11.776 22.144 20.608 16.256L256 255.904 28.8 104.48c-8.768-5.888-20.48 4.48-20.48 15.104" style="fill:#ed1f34"/><path d="m50.624 235.488 34.496-1.792 12.288-32.192 12.416 32.192 34.368 1.792-26.816 21.696 9.024 33.344-28.992-18.816-28.928 18.816 9.024-33.344z" style="fill:#fff"/><path d="M152.128 232.929c-1.088-3.328-4.032-5.504-7.424-5.696l-29.12-1.472-10.432-27.2a8.24 8.24 0 0 0-7.68-5.312c-3.392 0-6.528 2.112-7.68 5.312l-10.433 27.2-29.12 1.472c-3.392.192-6.4 2.432-7.424 5.697-1.088 3.328 0 6.784 2.688 9.024l22.72 18.304-7.616 28.096c-.896 3.328.384 6.784 3.072 8.832 2.816 1.984 6.528 2.112 9.408.192l24.384-15.872 24.384 15.872c1.408.896 2.88 1.28 4.48 1.28 1.728 0 3.392-.512 4.928-1.6 2.816-1.984 4.032-5.504 3.072-8.832l-7.616-28.096 22.72-18.304c2.689-2.05 3.777-5.634 2.689-8.897m-39.936 17.855c-2.496 2.112-3.584 5.376-2.816 8.576l3.392 12.48-10.816-7.104c-1.408-.896-2.88-1.28-4.48-1.28s-3.072.384-4.48 1.28l-10.816 7.104 3.392-12.48c.832-3.2-.192-6.528-2.816-8.576l-10.112-8.128 12.928-.704c3.328-.192 6.08-2.176 7.296-5.312l4.608-12.096 4.608 12.096c1.216 3.008 4.032 5.12 7.296 5.312l12.928.704z" style="fill:#121b21"/><path d="M468.288 82.528H43.712C19.584 82.528 0 102.112 0 126.24v259.52c0 24.128 19.584 43.712 43.712 43.712h424.576c24.128 0 43.712-19.584 43.712-43.712V126.24c0-24.128-19.584-43.712-43.712-43.712M22.016 402.016c-3.392-4.48-5.504-10.176-5.504-16.32v-259.52c0-6.08 1.984-11.776 5.504-16.32l219.072 146.048zm238.592-153.024-26.88-17.92h261.824v49.472H233.729l26.88-17.92c2.304-1.472 3.712-4.096 3.712-6.912-.001-2.816-1.408-5.12-3.713-6.72m-51.584 48.192h286.528v49.472h-360.96zM468.288 98.977c14.976 0 27.2 12.224 27.2 27.2v22.4h-24.832a8.303 8.303 0 0 0-8.32 8.32 8.303 8.303 0 0 0 8.32 8.32h24.832v49.472H209.024l-74.304-49.472h302.976a8.303 8.303 0 0 0 8.32-8.32 8.303 8.303 0 0 0-8.32-8.32H109.888L36.864 99.872a26.7 26.7 0 0 1 6.784-.896zm0 313.855H43.712c-2.432 0-4.672-.32-6.784-.896l73.024-48.704h385.601v22.4c-.065 14.977-12.225 27.2-27.265 27.2" style="fill:#121b21"/></svg>
