<svg xmlns="http://www.w3.org/2000/svg" xml:space="preserve" viewBox="0 0 512 512" width="48" height="48"><path d="M503.742 126.257v259.487c0 19.561-15.857 35.418-35.418 35.418H43.676c-19.561-.001-35.418-15.858-35.418-35.419V126.257c0-19.562 15.858-35.418 35.418-35.418h424.648c19.561 0 35.418 15.856 35.418 35.418" style="fill:#164fce"/><path d="M8.258 311.054h495.484v39.639H8.258z" style="fill:#ffe000"/><path d="m145.367 204.593 34.455-1.78 12.341-32.219 12.34 32.219 34.456 1.78-26.829 21.692 8.954 33.32-28.921-18.813-28.922 18.813 8.955-33.32zm-90.864-41.91 25.943-1.34 9.292-24.259 9.292 24.259 25.942 1.34-20.2 16.333 6.742 25.088-21.776-14.165-21.776 14.165 6.742-25.088z" style="fill:#fff"/><path d="m239.384 196.346-29.09-1.503-10.419-27.203a8.258 8.258 0 0 0-15.424 0l-10.418 27.203-29.092 1.503a8.258 8.258 0 0 0-4.767 14.669l22.652 18.315-7.56 28.131a8.254 8.254 0 0 0 7.976 10.401 8.25 8.25 0 0 0 4.503-1.336l24.417-15.883 24.419 15.883a8.26 8.26 0 0 0 12.479-9.066l-7.56-28.131 22.651-18.315a8.258 8.258 0 0 0-4.767-14.668m-32.447 23.518a8.26 8.26 0 0 0-2.782 8.564l3.359 12.498-10.848-7.057a8.25 8.25 0 0 0-9.006 0l-10.847 7.056 3.358-12.497a8.26 8.26 0 0 0-2.782-8.564l-10.064-8.137 12.923-.667a8.26 8.26 0 0 0 7.286-5.294l4.628-12.085 4.629 12.085a8.26 8.26 0 0 0 7.286 5.294l12.922.667zm-81.539-65.428-20.578-1.063-7.369-19.243a8.261 8.261 0 0 0-15.425 0l-7.369 19.243-20.578 1.063a8.258 8.258 0 0 0-4.767 14.669l16.024 12.955-5.348 19.901a8.26 8.26 0 0 0 12.479 9.065l17.271-11.235 17.274 11.236a8.25 8.25 0 0 0 9.357-.241 8.26 8.26 0 0 0 3.122-8.824l-5.348-19.901 16.024-12.955a8.26 8.26 0 0 0-4.769-14.67m-25.819 18.159a8.26 8.26 0 0 0-2.782 8.564l1.146 4.266-3.702-2.409a8.25 8.25 0 0 0-9.006 0l-3.702 2.409 1.146-4.266a8.26 8.26 0 0 0-2.782-8.564l-3.434-2.777 4.411-.227a8.26 8.26 0 0 0 7.286-5.294l1.58-4.125 1.58 4.125a8.26 8.26 0 0 0 7.286 5.294l4.411.227z" style="fill:#1a1c20"/><path d="M468.324 82.581H43.676C19.594 82.581 0 102.173 0 126.256v259.487c0 24.084 19.594 43.676 43.676 43.676h424.647c24.083 0 43.676-19.593 43.676-43.676V126.256c.001-24.083-19.593-43.675-43.675-43.675m27.16 303.162c0 14.977-12.183 27.16-27.16 27.16H43.676c-14.977 0-27.16-12.183-27.16-27.16V126.256c0-14.976 12.183-27.159 27.16-27.159h424.647c14.977 0 27.16 12.183 27.16 27.159z" style="fill:#1a1c20"/></svg>
