<svg xmlns="http://www.w3.org/2000/svg" xml:space="preserve" viewBox="0 0 512 512" width="48" height="48"><path d="M8.258 390.882V121.118c0-16.723 13.556-30.28 30.28-30.28h434.925c16.723 0 30.28 13.556 30.28 30.28v269.763c0 16.723-13.556 30.28-30.28 30.28H38.538c-16.723 0-30.28-13.556-30.28-30.279" style="fill:#fff"/><path d="M161.76 312.67a8 8 0 0 1-1.517-.141 205 205 0 0 1-24.682-6.238 8.258 8.258 0 1 1 5.027-15.733 191 191 0 0 0 9.207 2.689 200 200 0 0 1-2.29-9.732 8.26 8.26 0 0 1 6.397-9.771 8.257 8.257 0 0 1 9.771 6.397 186 186 0 0 0 5.909 21.62 8.26 8.26 0 0 1-7.822 10.909m45.021 43.27a8.26 8.26 0 0 1-.619-16.493 197 197 0 0 0 9.515-.957 192 192 0 0 1-5.696-8.189 8.258 8.258 0 0 1 13.8-9.074 180 180 0 0 0 13.385 17.812 8.257 8.257 0 0 1-4.677 13.459 212 212 0 0 1-25.075 3.419q-.317.023-.633.023m-13.786-19.97c-7.857 0-15.843-.459-23.763-1.366-4.531-.519-7.784-4.614-7.265-9.144s4.612-7.789 9.144-7.265c3.169.363 6.349.648 9.524.854a195 195 0 0 1-4.048-9.113 8.257 8.257 0 0 1 4.475-10.787 8.256 8.256 0 0 1 10.787 4.475 183 183 0 0 0 9.769 20.018 8.26 8.26 0 0 1-7.127 12.325q-.747.003-1.496.003" style="fill:#134923"/><path d="M242.834 384.228a8.26 8.26 0 0 1-7.272-12.161l8.106-15.122c-44.099-11.785-83.899-37.295-112.978-72.623a8.26 8.26 0 0 1 1.128-11.624 8.257 8.257 0 0 1 11.624 1.128c29.032 35.27 69.62 59.959 114.286 69.519a8.258 8.258 0 0 1 5.55 11.978l-13.159 24.55a8.26 8.26 0 0 1-7.285 4.355M350.24 312.67a8.258 8.258 0 0 1-7.821-10.908 186 186 0 0 0 5.909-21.62c.932-4.465 5.306-7.333 9.77-6.397a8.26 8.26 0 0 1 6.397 9.771 198 198 0 0 1-2.29 9.732 190 190 0 0 0 9.207-2.689 8.26 8.26 0 0 1 10.38 5.353 8.26 8.26 0 0 1-5.353 10.38 206 206 0 0 1-24.683 6.238 8.3 8.3 0 0 1-1.516.14m-45.021 43.27q-.315 0-.635-.024a212 212 0 0 1-25.075-3.419 8.26 8.26 0 0 1-4.678-13.459 180 180 0 0 0 13.386-17.812 8.258 8.258 0 0 1 13.8 9.074 194 194 0 0 1-5.696 8.189c3.159.395 6.336.715 9.515.957a8.257 8.257 0 0 1 7.607 8.861 8.257 8.257 0 0 1-8.224 7.633m13.786-19.97q-.75 0-1.497-.006a8.26 8.26 0 0 1-7.127-12.324 183 183 0 0 0 9.769-20.018 8.257 8.257 0 0 1 10.787-4.475 8.26 8.26 0 0 1 4.475 10.787 196 196 0 0 1-4.048 9.113c3.176-.207 6.355-.492 9.524-.854 4.534-.516 8.626 2.733 9.144 7.265a8.257 8.257 0 0 1-7.265 9.144 209 209 0 0 1-23.762 1.368" style="fill:#134923"/><path d="M269.166 384.228a8.26 8.26 0 0 1-7.286-4.358l-13.159-24.548a8.26 8.26 0 0 1 5.55-11.978c44.666-9.561 85.254-34.249 114.286-69.519a8.259 8.259 0 0 1 12.752 10.496c-29.081 35.328-68.88 60.838-112.978 72.623l8.106 15.122a8.26 8.26 0 0 1-3.377 11.18 8.2 8.2 0 0 1-3.894.982" style="fill:#134923"/><path d="M378.118 153.915c-2.166-8.107-10.493-12.924-18.6-10.759l-92.526 24.715c-.002-.001-36.884 9.854-36.884 9.854a36 36 0 0 1 2.439 13.074c0 19.968-16.187 36.155-36.155 36.155a36 36 0 0 1-18.986-5.386c.363 33.091 27.288 59.807 60.463 59.807 31.921 0 58.048-24.733 60.305-56.08 3.287 5.991 10.328 9.213 17.225 7.371 8.107-2.166 12.924-10.493 10.759-18.6l-7.615-28.509 48.817-13.04c8.108-2.169 12.924-10.496 10.758-18.602" style="fill:#f2a643"/><path d="M363.448 134.38c-2.04 0-4.079.269-6.061.798l-92.526 24.715.015.056c-1.365.304-3.19.792-5.78 1.483l-31.121 8.315a8.256 8.256 0 0 0-5.565 10.969 27.7 27.7 0 0 1 1.878 10.084c0 15.382-12.515 27.897-27.897 27.897a27.8 27.8 0 0 1-14.642-4.152 8.26 8.26 0 0 0-12.601 7.113c.411 37.482 31.24 67.975 68.721 67.975 30.923 0 57.568-20.82 65.969-49.474a23.4 23.4 0 0 0 7.638 1.282h.001c2.036 0 4.073-.268 6.053-.797 12.494-3.337 19.943-16.217 16.605-28.711l-5.483-20.531 40.839-10.908c12.494-3.337 19.943-16.217 16.605-28.709-2.737-10.248-12.05-17.405-22.648-17.405m5.995 26.929a6.9 6.9 0 0 1-4.214 3.228l-48.817 13.04a8.26 8.26 0 0 0-5.847 10.11l7.615 28.509c.988 3.695-1.216 7.504-4.911 8.492a7 7 0 0 1-1.79.238 6.92 6.92 0 0 1-6.064-3.602 8.26 8.26 0 0 0-9.001-4.097 8.26 8.26 0 0 0-6.475 7.475c-1.954 27.148-24.826 48.415-52.068 48.415-24.05 0-44.493-16.526-50.455-38.817 2.938.606 5.944.914 8.976.914 24.489 0 44.413-19.924 44.413-44.413 0-2.439-.196-4.854-.586-7.229 10.637-2.842 28.211-7.537 28.867-7.711l.036-.01 92.526-24.715a7 7 0 0 1 1.799-.239 6.94 6.94 0 0 1 6.691 5.15 6.88 6.88 0 0 1-.695 5.262m98.881-78.728H43.675C19.593 82.581 0 102.173 0 126.256v259.487c0 24.084 19.593 43.676 43.675 43.676h424.648c24.084 0 43.676-19.593 43.676-43.676V126.256c.001-24.083-19.592-43.675-43.675-43.675m27.16 303.162c0 14.977-12.183 27.16-27.16 27.16H43.675c-14.976 0-27.159-12.183-27.159-27.16V126.256c0-14.976 12.183-27.159 27.159-27.159h424.648c14.977 0 27.16 12.183 27.16 27.159z" style="fill:#121b21"/></svg>
