<svg xmlns="http://www.w3.org/2000/svg" xml:space="preserve" viewBox="0 0 512 512" width="48" height="48"><path d="M19.599 411.711c6.319 5.862 14.778 9.451 24.076 9.451h424.648c19.561 0 35.418-15.858 35.418-35.418V256h-297.29z" style="fill:#ed1f34"/><path d="M468.324 90.839H43.676c-9.3 0-17.757 3.588-24.076 9.452L206.452 256h297.29V126.257c0-19.562-15.858-35.418-35.418-35.418" style="fill:#fff"/><path d="M19.599 100.29c-6.973 6.469-11.341 15.706-11.341 25.967v259.487c0 10.261 4.368 19.498 11.341 25.967L206.452 256z" style="fill:#103b9b"/><path d="M468.324 82.581H43.676c-11.308 0-21.625 4.321-29.39 11.396a8 8 0 0 0-.698.665C5.228 102.604 0 113.827 0 126.257v259.487c0 12.447 5.242 23.686 13.625 31.648q.289.304.6.573c7.772 7.11 18.113 11.454 29.452 11.454h424.648c24.083 0 43.675-19.593 43.675-43.676V126.257c0-24.084-19.593-43.676-43.676-43.676M20.634 400.098a27 27 0 0 1-4.118-14.355V126.257a27 27 0 0 1 4.118-14.355L193.553 256zm447.69 12.805H43.676c-3.61 0-7.056-.714-10.21-1.998l175.975-146.647h195.204a8.26 8.26 0 0 0 8.258-8.258 8.26 8.26 0 0 0-8.258-8.258H209.441L33.466 101.095a27 27 0 0 1 10.21-1.998h424.648c14.976 0 27.159 12.183 27.159 27.16v121.485h-57.806a8.26 8.26 0 0 0-8.258 8.258 8.26 8.26 0 0 0 8.258 8.258h57.806v121.485c.001 14.977-12.183 27.16-27.159 27.16" style="fill:#121b21"/></svg>
