<svg xmlns="http://www.w3.org/2000/svg" xml:space="preserve" viewBox="0 0 512 512" width="48" height="48"><path d="M8.258 384.275v-256.55c0-20.372 16.514-36.886 36.886-36.886h421.712c20.371 0 36.886 16.514 36.886 36.886v256.551c0 20.371-16.515 36.886-36.886 36.886H45.144c-20.372-.001-36.886-16.516-36.886-36.887" style="fill:#3db4ea"/><path d="M489.541 97.896 8.258 337.05v48.693c0 11.603 5.579 21.901 14.201 28.362L503.742 174.95v-48.693c0-11.603-5.579-21.903-14.201-28.361" style="fill:#ed1f34"/><path d="M43.676 421.161h26.44l433.625-215.469V174.95L22.459 414.105a35.27 35.27 0 0 0 21.217 7.056M468.324 90.839h-26.44L8.258 306.308v30.742L489.541 97.896a35.26 35.26 0 0 0-21.217-7.057M47.897 161.926l34.455-1.78 12.34-32.219 12.34 32.219 34.456 1.78-26.829 21.693 8.954 33.318-28.921-18.812-28.92 18.812 8.954-33.318z" style="fill:#ffe000"/><path d="m42.704 168.348 22.651 18.315-7.56 28.132a8.258 8.258 0 0 0 12.479 9.066l24.419-15.884 24.419 15.883a8.25 8.25 0 0 0 9.357-.242 8.26 8.26 0 0 0 3.122-8.824l-7.56-28.132 22.651-18.315a8.258 8.258 0 0 0-4.767-14.67l-29.09-1.502-10.418-27.203a8.259 8.259 0 0 0-15.424 0l-10.418 27.203-29.09 1.502a8.26 8.26 0 0 0-7.428 5.696 8.25 8.25 0 0 0 2.657 8.975m40.074.046a8.26 8.26 0 0 0 7.286-5.294l4.629-12.085 4.629 12.085a8.26 8.26 0 0 0 7.286 5.294l12.922.668-10.063 8.136a8.26 8.26 0 0 0-2.782 8.564l3.358 12.498-10.848-7.056a8.25 8.25 0 0 0-9.004 0l-10.848 7.056 3.358-12.498a8.26 8.26 0 0 0-2.782-8.564l-10.063-8.136z" style="fill:#111a21"/><path d="M495.043 91.744a8 8 0 0 0-1.056-.797c-7.211-5.254-16.078-8.366-25.664-8.366H43.675C19.593 82.581 0 102.174 0 126.257v259.486c0 14.07 6.695 26.599 17.058 34.592q.374.321.782.594c7.24 5.331 16.175 8.49 25.836 8.49h424.648c24.084 0 43.676-19.594 43.676-43.676V126.257c0-14.023-6.652-26.516-16.957-34.513M43.675 99.097h424.648c.077 0 .153.006.23.006L16.516 323.725V126.257c0-14.977 12.184-27.16 27.159-27.16m424.649 313.806H43.675c-.077 0-.153-.005-.23-.005l380.57-189.11a8.26 8.26 0 0 0 3.721-11.071 8.26 8.26 0 0 0-11.07-3.721L23.793 404.219c-4.51-4.85-7.277-11.344-7.277-18.476v-43.574l471.69-234.388c4.511 4.85 7.278 11.345 7.278 18.476v43.574l-49.236 24.467a8.259 8.259 0 0 0 7.348 14.792l41.887-20.815v197.468c.001 14.977-12.183 27.16-27.159 27.16" style="fill:#111a21"/></svg>
