<svg xmlns="http://www.w3.org/2000/svg" xml:space="preserve" viewBox="0 0 512 512" width="48" height="48"><path d="M469.058 421.161H42.942c-19.155 0-34.684-15.528-34.684-34.684V125.523c0-19.155 15.528-34.684 34.684-34.684h426.116c19.155 0 34.684 15.528 34.684 34.684v260.955c0 19.155-15.529 34.683-34.684 34.683" style="fill:#ed1f34"/><path d="M503.742 232.052H219.546V90.839h-47.897v141.213H8.258v47.896h163.391v141.213h47.897V279.948h284.196z" style="fill:#fff"/><path d="M468.324 82.581H43.675C19.593 82.581 0 102.173 0 126.256v259.487c0 24.084 19.593 43.676 43.675 43.676h424.648c24.084 0 43.676-19.593 43.676-43.676V126.256c.001-24.083-19.592-43.675-43.675-43.675m27.16 43.675v97.538h-57.806c-4.561 0-8.258 3.697-8.258 8.258s3.697 8.258 8.258 8.258h57.806v31.381H219.547a8.26 8.26 0 0 0-8.258 8.258v132.955h-31.381V279.948a8.26 8.26 0 0 0-8.258-8.258H16.516v-31.38H171.65a8.26 8.26 0 0 0 8.258-8.258V99.097h31.381v132.955a8.26 8.26 0 0 0 8.258 8.258h185.098c4.561 0 8.258-3.697 8.258-8.258s-3.697-8.258-8.258-8.258h-176.84V99.097h240.52c14.975 0 27.159 12.183 27.159 27.159M43.675 99.097h119.716v124.697H16.516v-97.538c0-14.976 12.184-27.159 27.159-27.159M16.516 385.743v-97.537h146.876v124.697H43.675c-14.975 0-27.159-12.183-27.159-27.16m451.808 27.16H227.805V288.206h267.679v97.537c0 14.977-12.184 27.16-27.16 27.16" style="fill:#121b21"/></svg>
