<svg xmlns="http://www.w3.org/2000/svg" xml:space="preserve" viewBox="0 0 512 512" width="48" height="48"><path d="M20.818 412.789a35.27 35.27 0 0 0 22.858 8.373h424.648c19.561 0 35.418-15.857 35.418-35.418V256H256.001z" style="fill:#259245"/><path d="M468.324 90.839H43.676a35.27 35.27 0 0 0-22.858 8.373L256 256h247.742V126.256c0-19.561-15.857-35.417-35.418-35.417" style="fill:#3db4ea"/><path d="M20.817 99.211c-7.678 6.497-12.559 16.199-12.559 27.045v259.487c0 10.847 4.881 20.548 12.56 27.045L256 256z" style="fill:#fff"/><path d="m50.649 239.985 34.456-1.781 12.34-32.218 12.34 32.218 34.456 1.781-26.829 21.692 8.954 33.32-28.921-18.813-28.921 18.813 8.954-33.32z" style="fill:#ed1f34"/><path d="M152.095 237.434a8.26 8.26 0 0 0-7.428-5.696l-29.09-1.503-10.419-27.202a8.258 8.258 0 0 0-15.424 0l-10.419 27.202-29.09 1.503a8.258 8.258 0 0 0-4.767 14.669l22.652 18.315-7.561 28.132a8.255 8.255 0 0 0 3.122 8.824 8.26 8.26 0 0 0 9.357.242l24.419-15.885 24.419 15.884a8.25 8.25 0 0 0 9.357-.242 8.26 8.26 0 0 0 3.122-8.824l-7.561-28.132 22.652-18.315a8.26 8.26 0 0 0 2.659-8.972m-39.876 17.822a8.26 8.26 0 0 0-2.782 8.564l3.359 12.497-10.848-7.056a8.25 8.25 0 0 0-9.006 0l-10.848 7.056 3.359-12.497a8.26 8.26 0 0 0-2.782-8.564l-10.064-8.137 12.922-.668a8.26 8.26 0 0 0 7.286-5.294l4.629-12.085 4.629 12.085a8.26 8.26 0 0 0 7.286 5.294l12.922.668z" style="fill:#111a21"/><path d="M468.324 82.581H43.676c-10.581 0-20.294 3.784-27.862 10.069a8 8 0 0 0-.841.729C5.807 101.391 0 113.155 0 126.257v259.486c0 13.164 5.863 24.978 15.105 32.992q.295.281.612.53c7.581 6.334 17.331 10.155 27.96 10.155h424.647c24.083 0 43.676-19.594 43.676-43.676V126.257c0-24.083-19.594-43.676-43.676-43.676M21.994 402.079a27 27 0 0 1-5.478-16.336V126.257a27 27 0 0 1 5.478-16.336L241.113 256zm446.33 10.824H43.676c-2.361 0-4.651-.304-6.835-.873L258.5 264.258h146.146a8.256 8.256 0 0 0 8.258-8.258 8.256 8.256 0 0 0-8.258-8.258H258.499L36.841 99.97a27 27 0 0 1 6.835-.873h424.647c14.977 0 27.16 12.183 27.16 27.16v121.485h-57.806a8.256 8.256 0 0 0-8.258 8.258 8.256 8.256 0 0 0 8.258 8.258h57.806v121.485c.001 14.977-12.183 27.16-27.159 27.16" style="fill:#111a21"/></svg>
