<svg xmlns="http://www.w3.org/2000/svg" xml:space="preserve" viewBox="0 0 512 512" width="48" height="48"><path d="M475.114 421.161H36.886c-15.81 0-28.628-12.818-28.628-28.628V119.467c0-15.81 12.818-28.628 28.628-28.628h438.228c15.81 0 28.628 12.818 28.628 28.628v273.067c0 15.81-12.818 28.627-28.628 28.627" style="fill:#259245"/><path d="M503.742 256v32.757H288.757v132.404H256V256zM256 90.839h32.757v132.404H256zM8.258 256h214.985v32.757H8.258z" style="fill:#fff"/><path d="M256 223.243V90.839h-32.757v132.404H8.258V256h214.985v165.161H256V256h247.742v-32.757z" style="fill:#ffe000"/><path d="M468.324 82.581H43.676C19.593 82.581 0 102.174 0 126.257v259.486c0 24.083 19.593 43.676 43.676 43.676h424.648c24.083 0 43.675-19.594 43.675-43.676V126.257c.001-24.083-19.592-43.676-43.675-43.676M16.516 126.257c0-14.977 12.183-27.16 27.16-27.16h171.31v115.888H16.516zm198.47 286.646H43.676c-14.977 0-27.16-12.183-27.16-27.16v-88.728h198.47zm32.756 0h-16.24V288.757a8.257 8.257 0 0 0-8.258-8.258H16.516v-16.241h231.226zm0-165.161H16.516v-16.241h206.728a8.257 8.257 0 0 0 8.258-8.258V99.097h16.24zm247.742 138.001c0 14.977-12.183 27.16-27.16 27.16H297.015V297.015h198.469zm0-105.244H288.757a8.257 8.257 0 0 0-8.258 8.258v124.146h-16.241V264.258h231.226zm0-65.514h-57.806a8.257 8.257 0 0 0-8.258 8.258 8.257 8.257 0 0 0 8.258 8.258h57.806v16.241H264.258V99.097H280.5v124.146a8.257 8.257 0 0 0 8.258 8.258h115.887a8.257 8.257 0 0 0 8.258-8.258 8.257 8.257 0 0 0-8.258-8.258h-107.63V99.097h171.309c14.977 0 27.16 12.183 27.16 27.16z" style="fill:#121b21"/><circle cx="256" cy="256" r="72.671" style="fill:#ed1f34"/><path d="M256 336.929c-44.624 0-80.929-36.305-80.929-80.929s36.305-80.929 80.929-80.929 80.929 36.305 80.929 80.929-36.305 80.929-80.929 80.929m0-145.342c-35.517 0-64.413 28.896-64.413 64.413s28.896 64.413 64.413 64.413 64.413-28.896 64.413-64.413-28.896-64.413-64.413-64.413" style="fill:#121b21"/><path d="M256 303.897c-26.41 0-47.897-21.486-47.897-47.897S229.59 208.103 256 208.103 303.897 229.59 303.897 256 282.41 303.897 256 303.897m0-79.278c-17.303 0-31.381 14.077-31.381 31.381s14.077 31.381 31.381 31.381 31.381-14.077 31.381-31.381-14.078-31.381-31.381-31.381" style="fill:#259245"/></svg>
