<svg xmlns="http://www.w3.org/2000/svg" xml:space="preserve" viewBox="0 0 512 512" width="48" height="48"><path d="M8.258 256v129.743c0 19.561 15.858 35.418 35.418 35.418H256V256z" style="fill:#ed1f34"/><path d="M256 421.161h212.324c19.561 0 35.418-15.857 35.418-35.418V256H256z" style="fill:#103b9b"/><path d="M468.324 90.839H256V256h247.742V126.256c0-19.561-15.857-35.417-35.418-35.417" style="fill:#ed1f34"/><path d="M256 90.839H43.676c-19.561 0-35.418 15.857-35.418 35.417V256H256z" style="fill:#103b9b"/><path d="M8.258 223.243h214.984V90.839h65.515v132.404h214.985v65.514H288.757v132.404h-65.515V288.757H8.258z" style="fill:#fff"/><circle cx="256" cy="256" r="19.269" style="fill:#259245"/><path d="M468.324 82.581H43.676C19.593 82.581 0 102.174 0 126.257v259.486c0 24.083 19.593 43.676 43.676 43.676h424.648c24.082 0 43.675-19.594 43.675-43.676V126.257c.001-24.083-19.593-43.676-43.675-43.676m27.16 43.676v88.728H297.015V99.097h171.309c14.976 0 27.16 12.183 27.16 27.16M43.676 99.097h171.309v115.888H74.323a8.257 8.257 0 0 0-8.258 8.258 8.257 8.257 0 0 0 8.258 8.258h148.919a8.257 8.257 0 0 0 8.258-8.258V99.097h48.999v124.146a8.256 8.256 0 0 0 8.258 8.258h206.727v48.998H288.757a8.256 8.256 0 0 0-8.258 8.258v124.146H231.5V288.757a8.257 8.257 0 0 0-8.258-8.258H16.516v-48.998H41.29a8.257 8.257 0 0 0 8.258-8.258 8.257 8.257 0 0 0-8.258-8.258H16.516v-88.728c0-14.977 12.184-27.16 27.16-27.16m-27.16 286.646v-88.728h198.468v115.888H43.676c-14.976 0-27.16-12.183-27.16-27.16m451.808 27.16H297.015V297.015h198.469v88.728c0 14.977-12.184 27.16-27.16 27.16" style="fill:#121b21"/></svg>
