<svg xmlns="http://www.w3.org/2000/svg" xml:space="preserve" viewBox="0 0 512 512" width="48" height="48"><path d="M43.63 90.839h426.529c18.548 0 33.583 15.035 33.583 33.583v263.157c0 18.548-15.035 33.583-33.583 33.583H43.734c-19.593 0-35.476-15.883-35.476-35.476V126.211c0-19.536 15.837-35.372 35.372-35.372" style="fill:#ed1f34"/><path d="M8.258 118.511v277.56c0 11.486 12.127 18.924 22.365 13.718L333.075 256 32.924 103.381c-11.291-5.742-24.666 2.462-24.666 15.13" style="fill:#ffe000"/><path d="M8.258 116.259v279.48c0 10.095 11.774 15.609 19.529 9.147L206.452 256 26.144 101.515c-7.755-6.462-17.886 4.65-17.886 14.744" style="fill:#333"/><path d="M22.164 417.72a8.258 8.258 0 0 1-5.288-14.605l176.78-147.206L16.23 103.895a8.256 8.256 0 0 1-.897-11.644 8.255 8.255 0 0 1 11.644-.897l184.849 158.375a8.26 8.26 0 0 1-.089 12.617L27.443 415.809a8.22 8.22 0 0 1-5.279 1.911" style="fill:#121b21"/><circle cx="87.304" cy="256" r="25.875" style="fill:#fff"/><path d="M21.61 422.636a8.26 8.26 0 0 1-7.367-4.518 8.26 8.26 0 0 1 3.618-11.104L314.856 256 17.861 104.986a8.259 8.259 0 0 1 7.486-14.722l311.472 158.375a8.259 8.259 0 0 1 0 14.724L25.347 421.736c-1.199.61-2.478.9-3.737.9" style="fill:#121b21"/><path d="M468.324 429.419H43.676C19.594 429.419 0 409.826 0 385.743V126.257c0-24.083 19.594-43.676 43.676-43.676h424.647c24.083 0 43.676 19.594 43.676 43.676v259.486c.001 24.083-19.593 43.676-43.675 43.676M43.676 99.097c-14.977 0-27.16 12.183-27.16 27.16v259.486c0 14.977 12.183 27.16 27.16 27.16h424.647c14.977 0 27.16-12.183 27.16-27.16V126.257c0-14.977-12.183-27.16-27.16-27.16z" style="fill:#121b21"/></svg>
