<svg xmlns="http://www.w3.org/2000/svg" xml:space="preserve" viewBox="0 0 512 512" width="48" height="48"><path d="M8.258 256h495.484v82.581H8.258z" style="fill:#164fce"/><path d="M503.742 338.581H8.258v48.998c0 18.548 15.035 33.583 33.583 33.583h428.318c18.548 0 33.583-15.035 33.583-33.583z" style="fill:#ed1f34"/><path d="M471.26 90.839H40.74c-17.939 0-32.482 14.543-32.482 32.482V256h495.484V123.32c0-17.938-14.543-32.481-32.482-32.481" style="fill:#ffe000"/><path d="M468.324 82.581H43.675C19.593 82.581 0 102.174 0 126.257v259.486c0 24.083 19.593 43.676 43.675 43.676h424.648c24.084 0 43.676-19.594 43.676-43.676V126.257c.001-24.083-19.592-43.676-43.675-43.676M16.516 264.258h478.968v66.065H16.516zM43.675 99.097h424.648c14.977 0 27.16 12.183 27.16 27.16v121.485H16.516V126.257c0-14.977 12.184-27.16 27.159-27.16m424.649 313.806H43.675c-14.976 0-27.159-12.183-27.159-27.16v-38.904h478.968v38.904c0 14.977-12.184 27.16-27.16 27.16" style="fill:#121b21"/><path d="M183.264 228.647v58.607c0 10.914 8.848 19.762 19.762 19.762h105.947c10.914 0 19.762-8.848 19.762-19.762v-58.607z" style="fill:#ffe000"/><path d="M308.974 315.275H203.026c-15.45 0-28.02-12.57-28.02-28.02v-58.608a8.257 8.257 0 0 1 8.258-8.258h145.471a8.257 8.257 0 0 1 8.258 8.258v58.608c.001 15.45-12.569 28.02-28.019 28.02m-117.452-78.37v50.35c0 6.343 5.161 11.504 11.504 11.504h105.948c6.343 0 11.504-5.162 11.504-11.504v-50.35z" style="fill:#121b21"/><ellipse cx="256" cy="256" rx="41.929" ry="51.013" style="fill:#3db4ea"/><path d="M256 315.274c-27.674 0-50.189-26.59-50.189-59.274s22.515-59.274 50.189-59.274 50.189 26.59 50.189 59.274-22.515 59.274-50.189 59.274m0-102.032c-18.567 0-33.673 19.182-33.673 42.758s15.106 42.758 33.673 42.758 33.673-19.182 33.673-42.758-15.106-42.758-33.673-42.758" style="fill:#121b21"/><path d="M256 298.758a8.257 8.257 0 0 0-8.258 8.258v31.565a8.257 8.257 0 0 0 8.258 8.258 8.257 8.257 0 0 0 8.258-8.258v-31.565a8.257 8.257 0 0 0-8.258-8.258m72.736-123.32h-57.321a8.26 8.26 0 0 0-6.689 3.416L256 190.903l-8.726-12.05a8.26 8.26 0 0 0-6.689-3.416h-57.321a8.257 8.257 0 0 0-8.258 8.258 8.257 8.257 0 0 0 8.258 8.258h53.104l12.942 17.873a8.258 8.258 0 0 0 13.378 0l12.942-17.873h53.105a8.257 8.257 0 0 0 8.258-8.258 8.255 8.255 0 0 0-8.257-8.257" style="fill:#121b21"/></svg>
