<svg xmlns="http://www.w3.org/2000/svg" xml:space="preserve" viewBox="0 0 512 512" width="48" height="48"><path d="M8.258 200.946h495.484v110.108H8.258z" style="fill:#fff"/><path d="M8.258 385.743c0 19.561 15.857 35.418 35.418 35.418h424.648c19.561 0 35.418-15.857 35.418-35.418v-74.689H8.258z" style="fill:#333"/><path d="M468.324 90.839H43.676c-19.562 0-35.418 15.857-35.418 35.417v74.69h495.484v-74.69c0-19.561-15.858-35.417-35.418-35.417" style="fill:#ed1f34"/><path d="M281.717 279.868a8.26 8.26 0 0 1-7.949-6.036l-3.648-13.041-11.892 3.332a8.25 8.25 0 0 1-4.457 0l-11.892-3.332-3.648 13.041a8.259 8.259 0 0 1-15.906-4.448l5.873-20.998a8.26 8.26 0 0 1 10.18-5.728l17.619 4.937 17.619-4.937a8.26 8.26 0 0 1 10.18 5.728l5.873 20.998a8.257 8.257 0 0 1-7.952 10.484" style="fill:#f2a643"/><path d="M256 289.583a8.26 8.26 0 0 1-8.258-8.258V238.43a8.26 8.26 0 0 1-5.413-7.755 8.26 8.26 0 0 1 8.258-8.258H256a8.26 8.26 0 0 1 8.258 8.258v50.649a8.26 8.26 0 0 1-8.258 8.259" style="fill:#f2a643"/><path d="M468.324 82.581H43.675C19.593 82.581 0 102.173 0 126.256v259.487c0 24.084 19.593 43.676 43.675 43.676h424.648c24.084 0 43.676-19.593 43.676-43.676V126.256c.001-24.083-19.592-43.675-43.675-43.675M43.675 99.097h424.648c14.977 0 27.16 12.183 27.16 27.159v66.432H470.71c-4.561 0-8.258 3.697-8.258 8.258s3.697 8.258 8.258 8.258h24.774v93.591H16.516v-93.591h421.161c4.561 0 8.258-3.697 8.258-8.258s-3.697-8.258-8.258-8.258H16.516v-66.432c0-14.976 12.184-27.159 27.159-27.159m424.649 313.806H43.675c-14.976 0-27.159-12.183-27.159-27.16v-66.431h478.968v66.431c0 14.977-12.184 27.16-27.16 27.16" style="fill:#111a21"/></svg>
