<svg xmlns="http://www.w3.org/2000/svg" xml:space="preserve" viewBox="0 0 512 512" width="48" height="48"><path d="M8.32 192.604h495.493v118.399H8.32z" style="fill:#fff"/><path d="M8.32 385.632c0 19.584 15.872 35.393 35.392 35.393h424.576c19.584 0 35.392-15.872 35.392-35.393v-74.688H8.32zM468.288 90.72H43.712c-19.584 0-35.392 15.872-35.392 35.393V200.8h495.488v-74.688c-.127-19.52-15.936-35.392-35.52-35.392" style="fill:#103b9b"/><path d="M256 296.416c-22.4 0-40.512-18.176-40.512-40.512a40.6 40.6 0 0 1 13.504-30.207c3.072-2.816 7.808-2.496 10.624.576s2.496 7.808-.576 10.624c-5.376 4.8-8.512 11.776-8.512 19.008 0 14.08 11.52 25.472 25.472 25.472 14.08 0 25.472-11.52 25.472-25.472 0-7.232-3.072-14.208-8.512-19.008a7.563 7.563 0 0 1-.576-10.624c2.752-3.136 7.488-3.328 10.624-.576a40.6 40.6 0 0 1 13.504 30.207c.001 22.4-18.112 40.512-40.512 40.512" style="fill:#259245"/><path d="M227.392 272.417 256 222.88l28.608 49.537z" style="fill:#ffe000"/><path d="M227.392 280.736h57.216a8.303 8.303 0 0 0 8.32-8.32c0-1.728-.512-3.328-1.408-4.608l-28.288-49.088c-1.472-2.624-4.224-4.096-7.232-4.096s-5.696 1.6-7.232 4.096l-28.608 49.472c-1.472 2.624-1.472 5.696 0 8.32a8.26 8.26 0 0 0 7.232 4.224M256 239.392l14.272 24.832h-28.609z" style="fill:#121b21"/><path d="M468.288 82.528H43.712C19.584 82.528 0 102.112 0 126.24v259.52c0 24.128 19.584 43.712 43.712 43.712h424.576c24.128 0 43.712-19.584 43.712-43.712V126.24c0-24.128-19.584-43.712-43.712-43.712M43.712 98.977h424.576c14.976 0 27.2 12.224 27.2 27.2v66.432H74.304a8.303 8.303 0 0 0-8.32 8.32 8.303 8.303 0 0 0 8.32 8.32h421.184v93.632H16.512v-93.696h24.832a8.303 8.303 0 0 0 8.32-8.32 8.303 8.303 0 0 0-8.32-8.32H16.512v-66.432c0-14.913 12.16-27.136 27.2-27.136m424.576 313.855H43.712c-14.976 0-27.2-12.224-27.2-27.2V319.2h478.976v66.432c0 14.977-12.16 27.2-27.2 27.2" style="fill:#121b21"/></svg>
