<svg xmlns="http://www.w3.org/2000/svg" xml:space="preserve" viewBox="0 0 512 512" width="48" height="48"><path d="M465.673 421.161H46.327c-21.025 0-38.069-17.044-38.069-38.069V128.907c0-21.025 17.044-38.069 38.069-38.069h419.347c21.025 0 38.069 17.044 38.069 38.069v254.185c-.001 21.026-17.045 38.069-38.07 38.069" style="fill:#fff"/><path d="M503.742 232.052H279.948V90.839h-47.896v141.213H8.258v47.896h223.794v141.213h47.896V279.948h223.794z" style="fill:#ed1f34"/><path d="M468.324 82.581H43.676C19.593 82.581 0 102.174 0 126.257v259.486c0 24.083 19.593 43.676 43.676 43.676h424.648c24.083 0 43.675-19.594 43.675-43.676V126.257c.001-24.083-19.592-43.676-43.675-43.676m27.16 43.676v97.537H288.206V99.097h180.117c14.977 0 27.161 12.183 27.161 27.16M43.676 99.097h180.117v124.697H16.516v-97.537c0-14.977 12.184-27.16 27.16-27.16m-27.16 286.646v-97.537h207.277v124.697H43.676c-14.976 0-27.16-12.183-27.16-27.16m451.808 27.16H288.206V288.206h149.471c4.561 0 8.258-3.696 8.258-8.258s-3.697-8.258-8.258-8.258H279.948a8.257 8.257 0 0 0-8.258 8.258v132.955h-31.38V279.948a8.257 8.257 0 0 0-8.258-8.258H16.516v-31.38h215.535a8.257 8.257 0 0 0 8.258-8.258V99.097h31.381v132.955a8.257 8.257 0 0 0 8.258 8.258h215.535v31.381H470.71c-4.561 0-8.258 3.696-8.258 8.258s3.697 8.258 8.258 8.258h24.774v97.537c0 14.976-12.184 27.159-27.16 27.159" style="fill:#1a1c20"/></svg>
