<svg xmlns="http://www.w3.org/2000/svg" xml:space="preserve" viewBox="0 0 512 512" width="48" height="48"><path d="m173.419 256-55.053 55.054h385.376V200.946H118.366z" style="fill:#fff"/><path d="M18.631 410.787c6.409 6.409 15.264 10.374 25.044 10.374h424.648c19.561 0 35.418-15.857 35.418-35.418v-74.689H118.366z" style="fill:#ed1f34"/><path d="M468.324 90.839H43.676c-9.781 0-18.635 3.965-25.044 10.373l99.733 99.734h385.376v-74.69c.001-19.561-15.857-35.417-35.417-35.417" style="fill:#259245"/><path d="m173.419 256-55.054-55.054-99.734-99.734c-6.409 6.409-10.373 15.264-10.373 25.044v259.487c0 9.78 3.964 18.635 10.373 25.044l99.734-99.733z" style="fill:#164fce"/><path d="M323.166 289.032a8.3 8.3 0 0 1-1.721-.182c-10.403-2.216-28.008-10.686-28.008-28.37v-29.254a8.257 8.257 0 0 1 8.258-8.258h42.942a8.257 8.257 0 0 1 8.258 8.258v29.254c0 17.684-17.605 26.154-28.008 28.37a8.2 8.2 0 0 1-1.721.182m-13.213-49.548v20.996c0 6.846 9.26 10.487 13.213 11.728 3.953-1.241 13.213-4.882 13.213-11.728v-20.996z" style="fill:#111a21"/><path d="M468.324 82.581H43.675c-11.767 0-22.454 4.686-30.316 12.279-.195.162-.385.33-.567.513a8 8 0 0 0-.514.569C4.685 103.804 0 114.49 0 126.257v259.486c0 11.766 4.685 22.453 12.278 30.315q.241.294.514.569c.183.182.373.35.567.513 7.862 7.593 18.549 12.279 30.316 12.279h424.648c24.084 0 43.676-19.594 43.676-43.676V126.257c.001-24.083-19.592-43.676-43.675-43.676M19.548 398.192a27 27 0 0 1-3.032-12.449V126.257c0-4.485 1.099-8.716 3.032-12.448L161.741 256zm159.71-136.352a8.26 8.26 0 0 0 0-11.68l-40.956-40.956h357.181v93.591h-357.18zM468.324 99.097c14.977 0 27.16 12.183 27.16 27.16v66.431H121.787l-90.559-90.559a27 27 0 0 1 12.448-3.032zm0 313.806H43.675c-4.485 0-8.716-1.1-12.448-3.033l90.559-90.558h373.697v66.431c.001 14.977-12.183 27.16-27.159 27.16" style="fill:#111a21"/></svg>
