<svg xmlns="http://www.w3.org/2000/svg" xml:space="preserve" viewBox="0 0 512 512" width="48" height="48"><path d="M43.676 421.161h424.648c19.561 0 35.418-15.857 35.418-35.418V256L24.739 415.668a35.25 35.25 0 0 0 18.937 5.493" style="fill:#3db4ea"/><path d="M468.324 90.839H43.676a35.24 35.24 0 0 0-18.936 5.493L503.742 256V126.256c0-19.561-15.857-35.417-35.418-35.417" style="fill:#134923"/><path d="M8.258 126.256v259.487c0 12.594 6.579 23.645 16.481 29.924L503.742 256 24.739 96.332c-9.902 6.281-16.481 17.331-16.481 29.924" style="fill:#ed1f34"/><path d="M123.978 328.048a8.256 8.256 0 0 1-8.258-8.258v-96.888a8.256 8.256 0 0 1 8.258-8.258 8.256 8.256 0 0 1 8.258 8.258v96.888a8.26 8.26 0 0 1-8.258 8.258" style="fill:#f2a643"/><path d="M123.978 257.305a8.258 8.258 0 0 1-5.84-14.097l17.012-17.012a8.258 8.258 0 0 1 11.679 11.679l-17.012 17.012a8.24 8.24 0 0 1-5.839 2.418m0 26.145a8.24 8.24 0 0 1-5.84-2.418l-17.012-17.012a8.258 8.258 0 0 1 11.679-11.679l17.012 17.012a8.258 8.258 0 0 1-5.839 14.097" style="fill:#f2a643"/><path d="M123.978 317.037c-37.336 0-67.713-30.376-67.713-67.713 0-29.984 20.111-56.733 48.906-65.047a8.26 8.26 0 0 1 4.581 15.869c-21.768 6.284-36.971 26.507-36.971 49.177 0 28.23 22.966 51.197 51.197 51.197s51.197-22.966 51.197-51.197c0-22.671-15.204-42.895-36.971-49.178a8.26 8.26 0 0 1-5.644-10.225c1.265-4.382 5.85-6.904 10.225-5.644 28.795 8.314 48.906 35.063 48.906 65.047 0 37.338-30.377 67.714-67.713 67.714" style="fill:#f2a643"/><path d="M468.324 82.581H43.676a43.4 43.4 0 0 0-23.047 6.599q-.358.205-.695.446C7.949 97.421 0 110.925 0 126.257v259.486c0 15.315 7.93 28.805 19.893 36.604.116.084.24.153.36.231a43.4 43.4 0 0 0 23.423 6.841h424.647c24.083 0 43.676-19.594 43.676-43.676V126.257c.001-24.083-19.593-43.676-43.675-43.676m27.16 43.676v118.285L59.149 99.097h409.175c14.976 0 27.16 12.183 27.16 27.16M26.17 406.486c-5.898-4.986-9.654-12.432-9.654-20.743V126.257c0-8.311 3.756-15.757 9.654-20.743L477.628 256zm442.154 6.417H59.149l436.335-145.445v118.285c0 14.977-12.184 27.16-27.16 27.16" style="fill:#111a21"/></svg>
