<svg xmlns="http://www.w3.org/2000/svg" xml:space="preserve" viewBox="0 0 512 512" width="48" height="48"><path d="M8.32 200.797h495.493v120.385H8.32z" style="fill:#ffe000"/><path d="M8.32 385.632c0 19.584 15.872 35.393 35.392 35.393h424.576c19.584 0 35.392-15.872 35.392-35.393v-74.688H8.32z" style="fill:#ed1f34"/><path d="M468.288 90.72H43.712c-19.584 0-35.392 15.872-35.392 35.393V200.8h495.488v-74.688c-.127-19.52-15.936-35.392-35.52-35.392" style="fill:#259245"/><path d="M468.288 82.528H43.712C19.584 82.528 0 102.112 0 126.24v259.52c0 24.128 19.584 43.712 43.712 43.712h424.576c24.128 0 43.712-19.584 43.712-43.712V126.24c0-24.128-19.584-43.712-43.712-43.712m27.2 220.161H74.304c-4.608 0-8.32 3.712-8.32 8.32s3.712 8.32 8.32 8.32h421.184v66.432c0 14.976-12.224 27.2-27.2 27.2H43.712c-14.976 0-27.2-12.224-27.2-27.2v-66.432h24.832a8.303 8.303 0 0 0 8.32-8.32 8.303 8.303 0 0 0-8.32-8.32H16.512v-93.632h478.976zm0-110.081H16.512v-66.432c0-14.976 12.224-27.2 27.2-27.2h424.576c14.976 0 27.2 12.224 27.2 27.2z" style="fill:#111a21"/><circle cx="256.004" cy="255.905" r="118.528" style="fill:#164fce"/><path d="M256 379.232c-67.968 0-123.328-55.296-123.328-123.328 0-67.968 55.296-123.328 123.328-123.328 67.968 0 123.328 55.296 123.328 123.328 0 67.968-55.36 123.328-123.328 123.328m0-237.056c-62.72 0-113.728 51.008-113.728 113.728S193.28 369.632 256 369.632s113.728-51.008 113.728-113.728S318.72 142.176 256 142.176" style="fill:#111a21"/><path d="M219.2 213.408a8.3 8.3 0 0 1-6.72-3.392l-11.52-15.68c-2.688-3.712-1.92-8.896 1.792-11.52 3.712-2.688 8.896-1.92 11.52 1.792l11.52 15.808c2.688 3.712 1.92 8.896-1.792 11.52-1.472.96-3.2 1.472-4.8 1.472m-41.408 76.224c-3.52 0-6.72-2.176-7.872-5.696-1.408-4.288 1.024-9.024 5.312-10.432l18.496-6.016c4.288-1.408 9.024 1.024 10.368 5.312 1.408 4.288-1.024 9.024-5.312 10.432l-18.496 6.016c-.768.128-1.6.384-2.496.384M256 346.401a8.303 8.303 0 0 1-8.32-8.32v-19.456a8.303 8.303 0 0 1 8.32-8.32 8.303 8.303 0 0 1 8.32 8.32v19.52c0 4.543-3.712 8.256-8.32 8.256m78.208-56.769c-.768 0-1.728-.128-2.624-.384l-18.496-6.016c-4.288-1.408-6.72-6.08-5.312-10.432 1.408-4.288 6.08-6.72 10.432-5.312l18.496 6.016c4.288 1.408 6.72 6.08 5.312 10.432-1.088 3.392-4.288 5.696-7.808 5.696M292.8 213.408c-1.728 0-3.392-.512-4.8-1.6-3.712-2.688-4.48-7.808-1.792-11.52l11.52-15.808c2.688-3.712 7.808-4.48 11.52-1.792s4.48 7.808 1.792 11.52l-11.52 15.808c-1.6 2.304-4.096 3.392-6.72 3.392" style="fill:#ffe000"/><path d="M207.68 330.72c-1.728 0-3.392-.512-4.928-1.6a8.3 8.3 0 0 1-3.008-9.216l16.576-51.072-43.392-31.616c-2.88-2.112-4.096-5.824-3.008-9.216s4.288-5.696 7.872-5.696h53.696l16.576-51.072c1.088-3.392 4.288-5.696 7.872-5.696s6.72 2.304 7.872 5.696l16.576 51.072h53.696c3.584 0 6.72 2.304 7.872 5.696a8.3 8.3 0 0 1-3.008 9.216l-43.52 31.616 16.896 51.072a8.3 8.3 0 0 1-3.008 9.216c-2.88 2.112-6.784 2.112-9.729 0L256 297.505l-43.52 31.616c-1.408.959-3.072 1.599-4.8 1.599m22.848-51.712-7.104 21.824 18.624-13.504zm39.488 8.32 18.624 13.504-7.104-21.824zm-34.24-24.896L256 277.024l20.224-14.592-7.68-23.68h-24.896zm50.048-23.616 4.416 13.504 18.624-13.504zm-82.624 0 18.624 13.504 4.416-13.504zm45.696-16.64h14.208L256 200.352z" style="fill:#ffe000"/></svg>
