<svg xmlns="http://www.w3.org/2000/svg" xml:space="preserve" viewBox="0 0 512 512" width="48" height="48"><path d="M469.21 90.839H42.79c-19.072 0-34.532 15.46-34.532 34.533V386.63c0 19.072 15.46 34.532 34.532 34.532h426.419c19.072 0 34.532-15.461 34.532-34.532V125.372c.001-19.073-15.459-34.533-34.531-34.533" style="fill:#103b9b"/><circle cx="256" cy="156.903" r="16.516" style="fill:#ffe000"/><circle cx="206.452" cy="170.182" r="16.516" style="fill:#ffe000"/><circle cx="170.182" cy="206.452" r="16.516" style="fill:#ffe000"/><circle cx="156.903" cy="256" r="16.516" style="fill:#ffe000"/><circle cx="170.182" cy="305.548" r="16.516" style="fill:#ffe000"/><circle cx="206.452" cy="341.818" r="16.516" style="fill:#ffe000"/><circle cx="256" cy="355.097" r="16.516" style="fill:#ffe000"/><circle cx="305.548" cy="341.818" r="16.516" style="fill:#ffe000"/><circle cx="341.818" cy="305.548" r="16.516" style="fill:#ffe000"/><circle cx="355.097" cy="256" r="16.516" style="fill:#ffe000"/><circle cx="341.818" cy="206.452" r="16.516" style="fill:#ffe000"/><circle cx="305.548" cy="170.182" r="16.516" style="fill:#ffe000"/><path d="M468.324 429.419H43.676C19.593 429.419 0 409.826 0 385.743V126.257c0-24.083 19.593-43.676 43.676-43.676h424.648c24.082 0 43.675 19.594 43.675 43.676v259.486c.001 24.083-19.593 43.676-43.675 43.676M43.676 99.097c-14.977 0-27.16 12.183-27.16 27.16v259.486c0 14.977 12.183 27.16 27.16 27.16h424.648c14.976 0 27.159-12.183 27.159-27.16V126.257c0-14.977-12.183-27.16-27.16-27.16z" style="fill:#111a21"/></svg>
