<svg xmlns="http://www.w3.org/2000/svg" xml:space="preserve" viewBox="0 0 512 512" width="48" height="48"><path d="M503.742 126.257v259.487c0 19.561-15.858 35.418-35.418 35.418H43.676c-19.561-.001-35.418-15.858-35.418-35.419V126.257c0-19.562 15.858-35.418 35.418-35.418h424.648c19.56 0 35.418 15.856 35.418 35.418" style="fill:#103b9b"/><path d="M256 90.839h-40.196l-83.675 55.784-83.675-55.784H35.055c-14.8 0-26.797 11.997-26.797 26.797l83.675 55.784-83.675 55.783V256h40.196l83.675-55.784L215.804 256H256v-26.797l-83.675-55.784L256 117.637z" style="fill:#fff"/><path d="M256 90.839h-26.797l-110.466 73.652-95.603-63.736c-6.359-4.239-14.876.319-14.876 7.961l110.33 73.73L8.258 256h26.797l110.472-73.648L256 256v-17.484L145.373 164.59z" style="fill:#ed1f34"/><path d="M256 151.123H154.426V90.839h-44.594v60.284H8.258v44.593h101.574V256h44.594v-60.284H256z" style="fill:#fff"/><path d="M256 161.445H144.103V90.839h-23.948v70.606H8.258v23.949h111.897V256h23.948v-70.606H256z" style="fill:#ed1f34"/><path d="M324.817 159.785v93.971c0 59.526 55.054 73.135 55.054 73.135s55.054-13.608 55.054-73.135v-93.971z" style="fill:#3db4ea"/><path d="M379.871 326.891s55.054-13.608 55.054-73.135v-9.358c-4.957-2.335-9.397-4.92-19.219-4.92-17.919 0-17.919 8.602-35.839 8.602s-17.919-8.602-35.838-8.602c-9.818 0-14.258 2.582-19.213 4.917v9.36c.001 59.528 55.055 73.136 55.055 73.136" style="fill:#103b9b"/><path d="M379.867 294.17c-10.839 0-16.745-2.835-21.493-5.113-4.06-1.949-7.265-3.487-14.345-3.487-6.046 0-9.199 1.159-11.681 2.246-4.179 1.829-9.049-.075-10.876-4.252a8.256 8.256 0 0 1 4.252-10.876c4.103-1.796 9.486-3.632 18.306-3.632 10.838 0 16.745 2.835 21.492 5.113 4.059 1.949 7.265 3.487 14.345 3.487s10.286-1.538 14.346-3.487c4.747-2.278 10.654-5.113 21.493-5.113 8.824 0 14.209 1.838 18.314 3.636a8.259 8.259 0 0 1-6.627 15.129c-2.484-1.088-5.64-2.248-11.689-2.248-7.081 0-10.286 1.539-14.346 3.487-4.745 2.275-10.652 5.11-21.491 5.11m0-37.832c-10.839 0-16.746-2.835-21.493-5.115-4.06-1.949-7.265-3.487-14.345-3.487-7.079 0-10.284 1.538-14.343 3.487l-1.309.624a8.259 8.259 0 0 1-7.047-14.938l1.208-.576c4.746-2.278 10.653-5.113 21.49-5.113 10.839 0 16.745 2.835 21.492 5.115 4.059 1.949 7.265 3.487 14.345 3.487s10.286-1.539 14.346-3.487c4.747-2.278 10.654-5.115 21.493-5.115s16.746 2.835 21.493 5.115l1.25.597a8.257 8.257 0 0 1 3.951 10.99 8.256 8.256 0 0 1-10.99 3.951l-1.358-.647c-4.059-1.949-7.265-3.487-14.346-3.487-7.08 0-10.286 1.539-14.346 3.487-4.745 2.277-10.652 5.112-21.491 5.112" style="fill:#fff"/><path d="M379.871 360.473c-28.473 0-54.793-12.824-72.247-34.385l-2.383 8.492a8.258 8.258 0 0 1-15.903-4.462l7.28-25.947a8.257 8.257 0 0 1 15.283-1.568c13.22 25.509 39.263 41.355 67.968 41.355s54.749-15.847 67.968-41.355a8.258 8.258 0 0 1 15.283 1.569l7.28 25.946a8.26 8.26 0 0 1-5.72 10.182 8.26 8.26 0 0 1-10.183-5.72l-2.383-8.49c-17.45 21.56-43.77 34.383-72.243 34.383" style="fill:#f2a643"/><path d="M400.123 217.949h-28.706c-6.515 0-11.797-5.282-11.797-11.797v-11.797h28.706c6.515 0 11.797 5.282 11.797 11.797z" style="fill:#fff"/><path d="M371.416 226.206h28.707a8.26 8.26 0 0 0 8.258-8.258v-11.797c0-11.058-8.997-20.055-20.055-20.055h-20.448v-1.18a8.26 8.26 0 0 0-8.258-8.258 8.26 8.26 0 0 0-8.258 8.258v21.235c-.001 11.058 8.996 20.055 20.054 20.055m20.449-20.055v3.539h-20.449a3.544 3.544 0 0 1-3.539-3.539v-3.539h20.448a3.544 3.544 0 0 1 3.54 3.539" style="fill:#1a1c20"/><path d="M434.925 151.527H324.817a8.26 8.26 0 0 0-8.258 8.258v93.972c0 34.062 16.681 54.352 30.675 65.376 14.99 11.809 30.023 15.618 30.655 15.774a8.25 8.25 0 0 0 3.964 0c.632-.156 15.665-3.965 30.655-15.774 13.994-11.024 30.675-31.315 30.675-65.376v-93.972a8.26 8.26 0 0 0-8.258-8.258m-8.258 102.229c0 46.643-37.487 61.552-46.796 64.535-9.309-2.983-46.796-17.892-46.796-64.535v-85.714h93.591z" style="fill:#1a1c20"/><path d="M468.324 82.581H43.676C19.593 82.581 0 102.173 0 126.256v259.487c0 24.084 19.593 43.676 43.676 43.676h424.648c24.083 0 43.675-19.593 43.675-43.676V126.256c.001-24.083-19.592-43.675-43.675-43.675m27.16 303.162c0 14.977-12.183 27.16-27.16 27.16H43.676c-14.977 0-27.16-12.183-27.16-27.16V126.256c0-14.976 12.183-27.159 27.16-27.159h424.648c14.976 0 27.159 12.183 27.159 27.159z" style="fill:#1a1c20"/></svg>
