<svg xmlns="http://www.w3.org/2000/svg" xml:space="preserve" viewBox="0 0 512 512" width="48" height="48"><path d="M8.258 384.087V127.919c0-20.477 16.6-37.076 37.077-37.076h421.33c20.477 0 37.077 16.6 37.077 37.077v256.168c0 20.477-16.6 37.077-37.077 37.077H45.336c-20.478-.001-37.078-16.601-37.078-37.078" style="fill:#3db4ea"/><path d="M8.259 126.244v129.765H256V90.848H43.474c-19.462.107-35.207 15.91-35.215 35.396" style="fill:#103b9b"/><path d="M132.129 146.63 48.454 90.846h-4.98c-16.718.094-30.683 11.769-34.297 27.41l82.756 55.17-83.674 55.785v26.797h40.196l83.674-55.784 83.675 55.784H256v-26.797l-83.675-55.784L256 117.643V90.846h-40.196z" style="fill:#fff"/><path d="m229.203 90.846-110.466 73.652-97.922-65.281a35.5 35.5 0 0 0-9.117 11.805l106.891 71.432-110.33 73.554h26.797l110.472-73.648L256 256.008v-17.484l-110.627-73.926L256 90.846z" style="fill:#ed1f34"/><path d="M256 151.13H154.426V90.846h-44.594v60.284H8.258v44.594h101.574v60.284h44.594v-60.284H256z" style="fill:#fff"/><path d="M256 161.453H144.103V90.846h-23.948v70.607H8.258v23.948h111.897v70.607h23.948v-70.607H256z" style="fill:#ed1f34"/><path d="M331.202 191.595v73.292c0 30.67 25.748 48.467 48.669 55.534 22.921-7.067 48.669-24.863 48.669-55.534v-73.292z" style="fill:#fff"/><path d="M379.871 328.679a8.257 8.257 0 0 1-8.258-8.258v-94.109c0-4.561 3.696-8.258 8.258-8.258s8.258 3.697 8.258 8.258v94.109a8.26 8.26 0 0 1-8.258 8.258" style="fill:#ed1f34"/><path d="M428.54 273.145h-97.337a8.26 8.26 0 0 1-8.258-8.258 8.26 8.26 0 0 1 8.258-8.258h97.337a8.258 8.258 0 0 1 0 16.516m-97.337-81.547h97.335v34.717h-97.335z" style="fill:#ed1f34"/><path d="M428.54 183.337h-97.337a8.26 8.26 0 0 0-8.258 8.258v73.291c0 34.376 28.149 55.304 54.493 63.426a8.27 8.27 0 0 0 4.866 0c26.344-8.123 54.493-29.05 54.493-63.426v-73.291a8.256 8.256 0 0 0-8.257-8.258m-8.258 81.55c0 29.707-28.352 42.681-40.411 46.846-12.059-4.166-40.411-17.139-40.411-46.846v-65.033h80.821z" style="fill:#111a21"/><path d="M468.324 82.583H256.107c-.036 0-.07-.006-.107-.006q-.053.001-.107.006H43.676C19.594 82.583 0 102.176 0 126.259v259.487c0 24.083 19.594 43.676 43.676 43.676h424.647c24.083 0 43.676-19.593 43.676-43.676V126.259c.001-24.083-19.593-43.676-43.675-43.676M43.676 99.099h204.066V247.75l-231.226-.006V126.259c0-14.976 12.184-27.16 27.16-27.16m451.808 286.647c0 14.976-12.183 27.16-27.16 27.16H43.676c-14.977-.001-27.16-12.184-27.16-27.16V264.261l239.484.006a8.26 8.26 0 0 0 8.258-8.258V99.099h204.066c14.977 0 27.16 12.183 27.16 27.16z" style="fill:#111a21"/></svg>
