<svg xmlns="http://www.w3.org/2000/svg" xml:space="preserve" viewBox="0 0 512 512" width="48" height="48"><path d="M466.305 421.161H45.695c-20.676 0-37.437-16.761-37.437-37.437V128.275c0-20.676 16.761-37.437 37.437-37.437h420.611c20.676 0 37.437 16.761 37.437 37.437v255.449c-.001 20.677-16.762 37.437-37.438 37.437" style="fill:#fff"/><path d="M503.742 232.052H219.547V90.839H171.65v141.213H8.258v47.896H171.65v141.213h47.897V279.948h284.195z" style="fill:#164fce"/><path d="M468.324 82.581H43.676C19.594 82.581 0 102.173 0 126.256v259.487c0 24.084 19.594 43.676 43.676 43.676h424.647c24.083 0 43.676-19.593 43.676-43.676V126.256c.001-24.083-19.593-43.675-43.675-43.675m27.16 43.675v97.538H227.805V99.097h240.519c14.976 0 27.16 12.183 27.16 27.159M43.676 99.097h119.716v124.697H16.516v-97.538c0-14.976 12.184-27.159 27.16-27.159m-27.16 286.646v-97.537H41.29a8.257 8.257 0 0 0 8.258-8.258 8.257 8.257 0 0 0-8.258-8.258H16.516v-31.38H171.65a8.257 8.257 0 0 0 8.258-8.258V99.097h31.381v132.955a8.257 8.257 0 0 0 8.258 8.258h275.937v31.381H219.271a8.257 8.257 0 0 0-8.258 8.258v132.955h-31.381V279.948a8.257 8.257 0 0 0-8.258-8.258H74.323a8.257 8.257 0 0 0-8.258 8.258 8.257 8.257 0 0 0 8.258 8.258h88.794v124.697H43.676c-14.976 0-27.16-12.183-27.16-27.16m451.808 27.16H227.53V288.206h267.954v97.537c0 14.977-12.184 27.16-27.16 27.16" style="fill:#121b21"/></svg>
