<svg xmlns="http://www.w3.org/2000/svg" xml:space="preserve" viewBox="0 0 512 512" width="48" height="48"><path d="M503.742 165.712H8.258v-41.915c0-18.203 14.756-32.958 32.958-32.958h429.568c18.202 0 32.958 14.756 32.958 32.958zm-32.959 255.449H41.217c-18.203 0-32.958-14.755-32.958-32.958v-41.915h495.484v41.915c-.001 18.203-14.757 32.958-32.96 32.958" style="fill:#ed1f34"/><path d="M8.258 165.712h495.484v180.576H8.258z" style="fill:#fff"/><path d="M256 194.89c-33.696 0-61.11 27.415-61.11 61.11s27.413 61.11 61.11 61.11 61.11-27.415 61.11-61.11-27.414-61.11-61.11-61.11" style="fill:#f2a643"/><path d="M199.012 278.022c8.858 22.843 31.055 39.088 56.988 39.088 25.934 0 48.13-16.245 56.988-39.088z" style="fill:#164fce"/><path d="M243.549 291.234c-11.419 0-20.709-9.291-20.709-20.709v-23.057a8.257 8.257 0 0 1 8.258-8.258 8.257 8.257 0 0 1 8.258 8.258v23.057a4.2 4.2 0 0 0 4.193 4.193 4.2 4.2 0 0 0 4.193-4.193v-41.502a8.257 8.257 0 0 1 8.258-8.258 8.257 8.257 0 0 1 8.258 8.258v41.502c0 11.42-9.29 20.709-20.709 20.709" style="fill:#b21727"/><path d="M268.451 291.234c-11.419 0-20.709-9.291-20.709-20.709a8.257 8.257 0 0 1 8.258-8.258 8.257 8.257 0 0 1 8.258 8.258c0 2.312 1.881 4.193 4.193 4.193s4.193-1.881 4.193-4.193v-23.057a8.257 8.257 0 0 1 8.258-8.258 8.257 8.257 0 0 1 8.258 8.258v23.057c-.001 11.42-9.291 20.709-20.709 20.709" style="fill:#b21727"/><path d="M256 186.632c-38.249 0-69.368 31.119-69.368 69.368s31.119 69.368 69.368 69.368 69.368-31.119 69.368-69.368-31.119-69.368-69.368-69.368m0 122.22c-29.142 0-52.852-23.708-52.852-52.852s23.709-52.852 52.852-52.852 52.852 23.708 52.852 52.852-23.71 52.852-52.852 52.852" style="fill:#1a1c20"/><path d="M468.324 82.581H43.675C19.593 82.581 0 102.174 0 126.257v259.486c0 24.083 19.593 43.676 43.675 43.676h424.648c24.084 0 43.676-19.594 43.676-43.676V126.257c.001-24.083-19.592-43.676-43.675-43.676M43.675 99.097h424.648c14.977 0 27.16 12.183 27.16 27.16v31.197H470.71a8.257 8.257 0 0 0-8.258 8.258 8.257 8.257 0 0 0 8.258 8.258h24.774v164.06H16.516V173.97h421.161a8.257 8.257 0 0 0 8.258-8.258 8.257 8.257 0 0 0-8.258-8.258H16.516v-31.197c0-14.977 12.184-27.16 27.159-27.16m424.649 313.806H43.675c-14.976 0-27.159-12.183-27.159-27.16v-31.197h478.968v31.197c0 14.977-12.184 27.16-27.16 27.16" style="fill:#1a1c20"/></svg>
