<svg xmlns="http://www.w3.org/2000/svg" xml:space="preserve" viewBox="0 0 512 512" width="48" height="48"><path d="M8.258 204.249h495.484V307.75H8.258z" style="fill:#fff"/><path d="M503.742 307.751H8.258v74.522c0 21.478 17.411 38.889 38.889 38.889h417.706c21.478 0 38.889-17.411 38.889-38.889z" style="fill:#164fce"/><path d="M464.853 90.839H47.147c-21.478 0-38.889 17.411-38.889 38.889v74.522h495.484v-74.522c0-21.478-17.411-38.889-38.889-38.889" style="fill:#259245"/><path d="M468.324 82.581H43.676C19.594 82.581 0 102.174 0 126.257v259.486c0 24.083 19.594 43.676 43.676 43.676h424.647c24.083 0 43.676-19.594 43.676-43.676V126.257c.001-24.083-19.593-43.676-43.675-43.676M16.516 212.508h478.968v86.985H16.516zm27.16-113.411h424.647c14.977 0 27.16 12.183 27.16 27.16v69.734H16.516v-69.734c0-14.977 12.184-27.16 27.16-27.16m424.648 313.806H43.676c-14.977 0-27.16-12.183-27.16-27.16v-69.734h478.968v69.734c0 14.977-12.184 27.16-27.16 27.16" style="fill:#1a1c20"/></svg>
