<svg xmlns="http://www.w3.org/2000/svg" xml:space="preserve" viewBox="0 0 512 512" width="48" height="48"><path d="M468.324 90.839H43.676c-19.562 0-35.418 15.857-35.418 35.417v74.69h495.484v-74.69c0-19.561-15.857-35.417-35.418-35.417" style="fill:#ed1f34"/><path d="M8.258 385.743c0 19.561 15.857 35.418 35.418 35.418h424.648c19.561 0 35.418-15.857 35.418-35.418v-74.689H8.258z" style="fill:#259245"/><path d="M8.258 200.946h495.484v110.108H8.258z" style="fill:#103b9b"/><path d="M8.258 200.946h495.484v26.426H8.258z" style="fill:#fff"/><path d="M468.324 82.581H43.676C19.594 82.581 0 102.174 0 126.257v259.486c0 24.083 19.594 43.676 43.676 43.676h424.647c24.083 0 43.676-19.594 43.676-43.676V126.257c.001-24.083-19.593-43.676-43.675-43.676M16.516 292.886h478.968v9.91H16.516zm27.16-193.789h424.647c14.977 0 27.16 12.183 27.16 27.16v66.431H74.323a8.256 8.256 0 0 0-8.258 8.258 8.256 8.256 0 0 0 8.258 8.258h421.161v67.166H16.516v-67.166H41.29a8.256 8.256 0 0 0 8.258-8.258 8.256 8.256 0 0 0-8.258-8.258H16.516v-66.431c0-14.977 12.184-27.16 27.16-27.16m424.648 313.806H43.676c-14.977 0-27.16-12.183-27.16-27.16v-66.431h478.968v66.431c0 14.977-12.184 27.16-27.16 27.16" style="fill:#111a21"/></svg>
