<svg xmlns="http://www.w3.org/2000/svg" xml:space="preserve" viewBox="0 0 512 512" width="48" height="48"><path d="M468.508 421.161H43.492c-19.459 0-35.234-15.775-35.234-35.234V126.073c0-19.459 15.775-35.234 35.234-35.234h425.015c19.459 0 35.234 15.775 35.234 35.234v259.854c.001 19.459-15.774 35.234-35.233 35.234" style="fill:#fff"/><path d="M503.742 223.243H288.757V90.839h-65.513v132.404H8.258v65.514h214.986v132.404h65.513V288.757h214.985z" style="fill:#ed1f34"/><path d="M115.751 385.376a8.257 8.257 0 0 1-8.258-8.258V332.8c0-4.561 3.696-8.258 8.258-8.258s8.258 3.697 8.258 8.258v44.318a8.26 8.26 0 0 1-8.258 8.258" style="fill:#ed1f34"/><path d="M137.91 363.217H93.591a8.257 8.257 0 0 1-8.258-8.258 8.257 8.257 0 0 1 8.258-8.258h44.318a8.257 8.257 0 0 1 8.258 8.258 8.256 8.256 0 0 1-8.257 8.258m-22.159-175.759a8.257 8.257 0 0 1-8.258-8.258v-44.318c0-4.561 3.696-8.258 8.258-8.258s8.258 3.697 8.258 8.258V179.2a8.26 8.26 0 0 1-8.258 8.258" style="fill:#ed1f34"/><path d="M137.91 165.299H93.591c-4.562 0-8.258-3.697-8.258-8.258s3.696-8.258 8.258-8.258h44.318c4.562 0 8.258 3.697 8.258 8.258s-3.696 8.258-8.257 8.258m258.339 220.077a8.257 8.257 0 0 1-8.258-8.258V332.8a8.257 8.257 0 0 1 8.258-8.258 8.257 8.257 0 0 1 8.258 8.258v44.318a8.256 8.256 0 0 1-8.258 8.258" style="fill:#ed1f34"/><path d="M418.409 363.217H374.09a8.257 8.257 0 0 1-8.258-8.258 8.257 8.257 0 0 1 8.258-8.258h44.318a8.257 8.257 0 0 1 8.258 8.258 8.256 8.256 0 0 1-8.257 8.258m-22.16-175.759a8.257 8.257 0 0 1-8.258-8.258v-44.318a8.257 8.257 0 0 1 8.258-8.258 8.257 8.257 0 0 1 8.258 8.258V179.2a8.256 8.256 0 0 1-8.258 8.258" style="fill:#ed1f34"/><path d="M418.409 165.299H374.09c-4.562 0-8.258-3.697-8.258-8.258s3.696-8.258 8.258-8.258h44.318c4.562 0 8.258 3.697 8.258 8.258s-3.696 8.258-8.257 8.258" style="fill:#ed1f34"/><path d="M468.324 82.581H43.676C19.594 82.581 0 102.173 0 126.256v259.487c0 24.084 19.594 43.676 43.676 43.676h424.647c24.083 0 43.676-19.593 43.676-43.676V126.256c.001-24.083-19.593-43.675-43.675-43.675m27.16 43.675v88.729H470.71c-4.562 0-8.258 3.697-8.258 8.258s3.696 8.258 8.258 8.258h24.774v48.998H288.757a8.257 8.257 0 0 0-8.258 8.258v124.146h-48.998V288.757a8.257 8.257 0 0 0-8.258-8.258H16.516v-48.998h206.727a8.257 8.257 0 0 0 8.258-8.258V99.097h48.998v124.146a8.257 8.257 0 0 0 8.258 8.258h148.92c4.562 0 8.258-3.697 8.258-8.258s-3.696-8.258-8.258-8.258H297.015V99.097h171.309c14.976 0 27.16 12.183 27.16 27.159M43.676 99.097h171.309v115.888H16.516v-88.729c0-14.976 12.184-27.159 27.16-27.159m-27.16 286.646v-88.728h198.469v115.888H43.676c-14.976 0-27.16-12.183-27.16-27.16m451.808 27.16H297.015V297.015h198.469v88.728c0 14.977-12.184 27.16-27.16 27.16" style="fill:#121b21"/></svg>
