<svg xmlns="http://www.w3.org/2000/svg" xml:space="preserve" viewBox="0 0 512 512" width="48" height="48"><path d="M8.258 200.946h495.484v110.108H8.258z" style="fill:#ffe000"/><path d="M8.258 385.743c0 19.561 15.858 35.418 35.418 35.418h424.648c19.561 0 35.418-15.857 35.418-35.418v-74.689H8.258z" style="fill:#259245"/><path d="M468.324 90.839H43.676c-19.561 0-35.418 15.857-35.418 35.417v74.69h495.484v-74.69c0-19.561-15.858-35.417-35.418-35.417" style="fill:#ed1f34"/><path d="m218.952 247.682 27.278-1.409 9.77-25.507 9.77 25.507 27.278 1.409-21.24 17.174 7.089 26.378L256 276.341l-22.897 14.893 7.089-26.378z" style="fill:#333"/><path d="m293.474 239.435-21.914-1.132-7.848-20.491a8.259 8.259 0 0 0-15.424 0l-7.848 20.491-21.914 1.132a8.257 8.257 0 0 0-4.767 14.669l17.063 13.795-5.695 21.191a8.258 8.258 0 0 0 12.478 9.066L256 286.193l18.395 11.964a8.24 8.24 0 0 0 4.502 1.336 8.26 8.26 0 0 0 7.977-10.402l-5.695-21.191 17.063-13.795c2.661-2.15 3.719-5.719 2.661-8.973a8.26 8.26 0 0 0-7.429-5.697m-26.859 18.999a8.26 8.26 0 0 0-2.784 8.564l1.493 5.557-4.823-3.138c-1.369-.891-2.935-1.336-4.502-1.336s-3.134.445-4.502 1.336l-4.823 3.138 1.493-5.557a8.25 8.25 0 0 0-2.784-8.564l-4.474-3.617 5.745-.297a8.26 8.26 0 0 0 7.286-5.294l2.058-5.373 2.058 5.373a8.26 8.26 0 0 0 7.286 5.294l5.745.297z" style="fill:#111a21"/><path d="M468.324 82.581H43.676C19.593 82.581 0 102.174 0 126.257v259.486c0 24.083 19.593 43.676 43.676 43.676h424.648c24.083 0 43.675-19.594 43.675-43.676V126.257c.001-24.083-19.592-43.676-43.675-43.676M43.676 99.097h424.648c14.976 0 27.159 12.183 27.159 27.16v66.431H16.516v-66.431c0-14.977 12.184-27.16 27.16-27.16m424.648 313.806H43.676c-14.977 0-27.16-12.183-27.16-27.16v-66.431h421.161c4.561 0 8.258-3.696 8.258-8.258s-3.697-8.258-8.258-8.258H16.516v-93.591h478.968v93.591H470.71c-4.561 0-8.258 3.696-8.258 8.258s3.697 8.258 8.258 8.258h24.774v66.431c0 14.977-12.184 27.16-27.16 27.16" style="fill:#111a21"/></svg>
