<svg xmlns="http://www.w3.org/2000/svg" xml:space="preserve" viewBox="0 0 512 512" width="48" height="48"><path d="M503.742 311.054H8.258V127.349c0-20.164 16.347-36.511 36.511-36.511H467.23c20.164 0 36.511 16.347 36.511 36.511z" style="fill:#fff"/><path d="M466.739 421.161H45.261c-20.436 0-37.003-16.567-37.003-37.003v-73.105h495.484v73.105c0 20.437-16.567 37.003-37.003 37.003M338.818 211.957v-50.725h-34.133v50.725H276.92v-77.075h-41.84v77.075h-27.765v-50.725h-34.133v50.725h-11.011v66.065h187.658v-66.065z" style="fill:#ed1f34"/><path d="M146.756 286.28h218.49a8.257 8.257 0 0 0 8.258-8.258 8.257 8.257 0 0 0-8.258-8.258h-7.158v-51.211a8.24 8.24 0 0 0 3.303-6.595 8.257 8.257 0 0 0-8.258-8.258h-6.056v-42.467a8.257 8.257 0 0 0-8.258-8.258h-34.133a8.257 8.257 0 0 0-8.258 8.258V203.7h-11.249v-68.817a8.257 8.257 0 0 0-8.258-8.258H235.08a8.26 8.26 0 0 0-8.258 8.258V203.7h-11.249v-42.467a8.26 8.26 0 0 0-8.258-8.258h-34.133a8.26 8.26 0 0 0-8.258 8.258V203.7h-6.056a8.26 8.26 0 0 0-8.258 8.258c0 2.699 1.3 5.088 3.303 6.595v51.211h-7.157a8.258 8.258 0 0 0 0 16.516m23.673-66.065h2.753a8.26 8.26 0 0 0 8.258-8.258V169.49h17.617v42.467a8.26 8.26 0 0 0 8.258 8.258h27.765a8.26 8.26 0 0 0 8.258-8.258V143.14h25.325v68.817a8.257 8.257 0 0 0 8.258 8.258h27.765a8.257 8.257 0 0 0 8.258-8.258V169.49h17.617v42.467a8.257 8.257 0 0 0 8.258 8.258h2.753v49.548h-77.313v-24.774a8.257 8.257 0 0 0-8.258-8.258 8.26 8.26 0 0 0-8.258 8.258v24.774H170.43v-49.548z" style="fill:#1a1c20"/><path d="M468.324 82.581H43.676C19.593 82.581 0 102.173 0 126.256v259.487c0 24.084 19.593 43.676 43.676 43.676h424.648c24.082 0 43.675-19.593 43.675-43.676V126.256c.001-24.083-19.593-43.675-43.675-43.675m0 330.322H43.676c-14.977 0-27.16-12.183-27.16-27.16v-66.431H41.29a8.26 8.26 0 0 0 8.258-8.258 8.26 8.26 0 0 0-8.258-8.258H16.516v-176.54c0-14.976 12.183-27.159 27.16-27.159h424.648c14.976 0 27.159 12.183 27.159 27.159v176.54H74.323a8.26 8.26 0 0 0-8.258 8.258 8.26 8.26 0 0 0 8.258 8.258h421.161v66.431c0 14.977-12.184 27.16-27.16 27.16" style="fill:#1a1c20"/><path d="m285.742 304.196-18.941-12.709 10.797-20.22a8.26 8.26 0 0 0-3.395-11.174 8.255 8.255 0 0 0-11.175 3.395L256 276.653l-7.029-13.164a8.258 8.258 0 0 0-14.569 7.779l10.797 20.22-18.941 12.709a8.257 8.257 0 0 0 0 13.714l21.483 14.415v25.523h-6.056a8.26 8.26 0 0 0-8.258 8.258 8.26 8.26 0 0 0 8.258 8.258h6.056v5.505h-6.056a8.26 8.26 0 0 0-8.258 8.258 8.26 8.26 0 0 0 8.258 8.258H256a8.257 8.257 0 0 0 8.258-8.258v-55.802l21.484-14.415a8.257 8.257 0 0 0 0-13.715M256 317.978l-10.32-6.925 10.32-6.925 10.319 6.925z" style="fill:#ffe000"/></svg>
