<svg xmlns="http://www.w3.org/2000/svg" xml:space="preserve" viewBox="0 0 512 512" width="48" height="48"><path d="M8.258 90.839h495.484v330.323H8.258z" style="fill:#fff"/><path d="M503.742 384.462v3.667c0 18.244-14.79 33.032-33.032 33.032H41.29c-18.244 0-33.032-14.789-33.032-33.032v-3.667zM8.258 311.054h495.484v36.699H8.258zm495.484-183.516c0-20.269-16.43-36.699-36.699-36.699H45.144c-20.371 0-36.886 16.514-36.886 36.886v146.63h495.484v-36.71H191.774v-36.699h311.968v-36.699H191.774v-36.71z" style="fill:#3db4ea"/><path d="M191.774 164.247h-73.408V90.839H81.667v73.408H8.258v36.699h73.409v73.409h36.699v-73.409h73.408z" style="fill:#fff"/><path d="M468.324 82.581H43.676C19.593 82.581 0 102.173 0 126.256v259.487c0 24.084 19.593 43.676 43.676 43.676h424.648c24.083 0 43.675-19.593 43.675-43.676V126.256c.001-24.083-19.592-43.675-43.675-43.675M16.516 376.204V356.01h289.032a8.26 8.26 0 0 0 8.258-8.258 8.26 8.26 0 0 0-8.258-8.258H16.516v-20.183h355.097a8.26 8.26 0 0 0 8.258-8.258 8.26 8.26 0 0 0-8.258-8.258H16.516v-20.183h478.968v20.183h-90.839a8.26 8.26 0 0 0-8.258 8.258 8.26 8.26 0 0 0 8.258 8.258h90.839v20.183H338.581c-4.561 0-8.258 3.697-8.258 8.258s3.697 8.258 8.258 8.258h156.903v20.194zm73.409-211.957v-65.15h20.183v65.151a8.26 8.26 0 0 0 8.258 8.258h65.151v20.183h-65.151a8.26 8.26 0 0 0-8.258 8.258v65.151H89.925v-65.151a8.26 8.26 0 0 0-8.258-8.258H16.516v-20.183h65.151a8.26 8.26 0 0 0 8.258-8.259m405.559-28.451v20.194H200.032v-20.194zM183.516 237.645a8.26 8.26 0 0 0 8.258 8.258h303.71v20.194h-368.86v-56.893h56.893zm16.516-8.258v-20.183h295.452v20.183zm0-36.699v-20.183h295.452v20.183zM16.516 266.097v-56.893h56.893v56.893zm478.055-146.818H191.774a8.26 8.26 0 0 0-8.258 8.258v28.452h-56.893V99.097h341.7c12.565 0 23.161 8.577 26.248 20.182M43.676 99.097h29.732v56.893H16.516v-29.732c0-14.978 12.184-27.161 27.16-27.161m424.648 313.806H43.676c-12.564 0-23.159-8.577-26.247-20.183h477.142c-3.087 11.606-13.683 20.183-26.247 20.183" style="fill:#121b21"/></svg>
