<svg xmlns="http://www.w3.org/2000/svg" xml:space="preserve" viewBox="0 0 512 512" width="48" height="48"><path d="M8.258 256h495.484v133.046c0 17.736-14.378 32.115-32.115 32.115H46.612c-21.182 0-38.354-17.171-38.354-38.354z" style="fill:#ed1f34"/><path d="M43.309 90.839h425.749c19.155 0 34.684 15.528 34.684 34.684V256H8.258V125.889c0-19.358 15.693-35.05 35.051-35.05" style="fill:#fff"/><path d="M468.324 82.581H43.676C19.593 82.581 0 102.173 0 126.256v259.487c0 24.084 19.593 43.676 43.676 43.676h424.648c24.082 0 43.675-19.593 43.675-43.676V126.256c.001-24.083-19.593-43.675-43.675-43.675m0 330.322H43.676c-14.977 0-27.16-12.183-27.16-27.16V264.258h420.611a8.257 8.257 0 0 0 8.258-8.258 8.257 8.257 0 0 0-8.258-8.258H16.516V126.256c0-14.976 12.183-27.159 27.16-27.159h424.648c14.976 0 27.159 12.183 27.159 27.159v121.486h-25.325A8.257 8.257 0 0 0 461.9 256a8.257 8.257 0 0 0 8.258 8.258h25.325v121.485c.001 14.977-12.183 27.16-27.159 27.16" style="fill:#1a1c20"/><path d="M303.52 256c0 45.608-36.973 82.581-82.581 82.581s-82.58-36.973-82.58-82.581z" style="fill:#fff"/><path d="M220.94 173.419c45.608 0 82.581 36.973 82.581 82.581H138.359c0-45.608 36.973-82.581 82.581-82.581" style="fill:#ed1f34"/><path d="M220.94 346.839c-17.886 0-35.207-5.209-50.09-15.065a8.26 8.26 0 0 1-2.325-11.446 8.257 8.257 0 0 1 11.445-2.325c12.17 8.06 26.338 12.32 40.971 12.32 40.982 0 74.324-33.341 74.324-74.323s-33.341-74.323-74.323-74.323-74.324 33.341-74.324 74.323c0 14.634 4.26 28.802 12.319 40.971a8.26 8.26 0 0 1-2.325 11.445 8.26 8.26 0 0 1-11.445-2.325c-9.856-14.882-15.066-32.203-15.066-50.09 0-50.089 40.75-90.839 90.839-90.839s90.839 40.75 90.839 90.839-40.752 90.838-90.839 90.838" style="fill:#1a1c20"/></svg>
