<svg xmlns="http://www.w3.org/2000/svg" xml:space="preserve" viewBox="0 0 512 512" width="48" height="48"><path d="M8.258 129.927v252.146c0 21.588 17.5 39.088 39.088 39.088h417.308c21.588 0 39.088-17.5 39.088-39.088V129.927c0-21.588-17.5-39.088-39.088-39.088H47.346c-21.587 0-39.088 17.5-39.088 39.088" style="fill:#ed1f34"/><path d="M63.312 145.892h385.376v220.215H63.312z" style="fill:#ffe000"/><path d="M63.312 145.892v220.216L256 256zM256 256l192.688 110.108V145.892z" style="fill:#259245"/><circle cx="256" cy="256" r="42.942" style="fill:#ed1f34"/><path d="M256 278.022c-12.143 0-22.021-9.878-22.021-22.022s9.879-22.021 22.021-22.021 22.022 9.878 22.022 22.021-9.879 22.022-22.022 22.022m-144.241-50.469c-10.39 5.264-17.545 16.024-17.545 28.447s7.155 23.183 17.545 28.447c10.39-5.264 17.545-16.024 17.545-28.447s-7.155-23.183-17.545-28.447" style="fill:#ffe000"/><circle cx="156.903" cy="118.366" r="8.258" style="fill:#ffe000"/><circle cx="256" cy="118.366" r="8.258" style="fill:#ffe000"/><circle cx="355.097" cy="118.366" r="8.258" style="fill:#ffe000"/><circle cx="156.903" cy="393.634" r="8.258" style="fill:#ffe000"/><circle cx="256" cy="393.634" r="8.258" style="fill:#ffe000"/><circle cx="355.097" cy="393.634" r="8.258" style="fill:#ffe000"/><path d="M448.688 137.634H63.312a8.257 8.257 0 0 0-8.258 8.258v220.215a8.257 8.257 0 0 0 8.258 8.258h385.376a8.257 8.257 0 0 0 8.258-8.258V145.892a8.26 8.26 0 0 0-8.258-8.258m-8.258 220.215H71.57V154.151h368.86z" style="fill:#121b21"/><path d="M468.324 82.581H43.675C19.593 82.581 0 102.174 0 126.257v259.486c0 24.083 19.593 43.676 43.675 43.676h424.648c24.084 0 43.676-19.594 43.676-43.676V126.257c.001-24.083-19.592-43.676-43.675-43.676m27.16 303.162c0 14.977-12.183 27.16-27.16 27.16H43.675c-14.976 0-27.159-12.183-27.159-27.16V126.257c0-14.977 12.183-27.16 27.159-27.16h424.648c14.977 0 27.16 12.183 27.16 27.16z" style="fill:#121b21"/></svg>
