<svg xmlns="http://www.w3.org/2000/svg" xml:space="preserve" viewBox="0 0 512 512" width="48" height="48"><path d="M8.32 385.761V126.369c0-19.584 15.872-35.52 35.52-35.52h424.512c19.584 0 35.52 15.872 35.52 35.52v259.392c0 19.584-15.872 35.52-35.52 35.52H43.712c-19.584-.064-35.392-15.936-35.392-35.52" style="fill:#ed1f34"/><path d="M41.28 123.94h429.372v264.317H41.28z" style="fill:#103b9b"/><path d="M256 165.729c-33.024 16.704-55.68 50.88-55.68 90.304s22.72 73.601 55.68 90.304c33.024-16.704 55.68-50.88 55.68-90.304s-22.656-73.601-55.68-90.304" style="fill:#3db4ea"/><path d="M200.32 256.032c0 39.425 22.72 73.601 55.68 90.304 33.024-16.704 55.68-50.88 55.68-90.304z" style="fill:#164fce"/><path d="M209.281 297.633a101.83 101.83 0 0 0 46.72 48.704c20.608-10.432 37.184-27.712 46.72-48.704z" style="fill:#ffe000"/><path d="M256 353.824c-1.216 0-2.304-.32-3.392-.832-36.928-18.688-59.776-55.808-59.776-97.024 0-41.088 22.912-78.272 59.776-97.024 2.112-1.088 4.608-1.088 6.784 0 36.928 18.688 59.776 55.808 59.776 97.024s-22.912 78.272-59.776 97.024c-1.087.512-2.176.832-3.392.832m0-179.583c-29.824 16.576-48.192 47.616-48.192 81.792S226.24 321.249 256 337.825c29.824-16.576 48.192-47.616 48.192-81.792S285.824 190.817 256 174.241" style="fill:#ed1f34"/><path d="M468.288 429.408H43.712C19.584 429.408 0 409.825 0 385.696V126.304c0-24.128 19.584-43.712 43.712-43.712h424.576c24.128 0 43.712 19.584 43.712 43.712v259.52c0 24.001-19.584 43.584-43.712 43.584M43.712 99.105c-14.976 0-27.2 12.224-27.2 27.2v259.519c0 14.976 12.224 27.2 27.2 27.2h424.576c14.976 0 27.2-12.224 27.2-27.2v-259.52c0-14.976-12.224-27.2-27.2-27.2z" style="fill:#1a1c20"/></svg>
