<svg xmlns="http://www.w3.org/2000/svg" xml:space="preserve" viewBox="0 0 512 512" width="48" height="48"><path d="M503.742 126.257v259.487c0 19.561-15.857 35.418-35.418 35.418H43.676c-19.561-.001-35.418-15.858-35.418-35.419V126.257c0-19.562 15.858-35.418 35.418-35.418h424.648c19.561 0 35.418 15.856 35.418 35.418" style="fill:#fff"/><path d="M503.742 215.535H296.465V90.839h-80.928v124.696H8.258v80.93h207.279v124.696h80.928V296.465h207.277z" style="fill:#ed1f34"/><path d="M470.71 296.465h33.032" style="fill:none;stroke:#000;stroke-width:15;stroke-linecap:round;stroke-linejoin:round;stroke-miterlimit:10"/><path d="M355.097 243.338a8.25 8.25 0 0 0-7.301 4.404h-83.537v-83.537a8.257 8.257 0 0 0-3.854-15.559h-8.809a8.257 8.257 0 0 0-3.854 15.559v83.537h-83.537a8.257 8.257 0 0 0-15.559 3.854v8.809a8.257 8.257 0 0 0 15.559 3.854h83.537v83.538a8.257 8.257 0 0 0 3.854 15.559h8.809a8.257 8.257 0 0 0 3.854-15.559v-83.538h83.538a8.257 8.257 0 0 0 15.559-3.854v-8.809a8.26 8.26 0 0 0-8.259-8.258" style="fill:#ffe000"/><path d="M468.324 82.581H43.676C19.594 82.581 0 102.173 0 126.256v259.487c0 24.084 19.594 43.676 43.676 43.676h424.647c24.083 0 43.676-19.593 43.676-43.676V126.256c.001-24.083-19.593-43.675-43.675-43.675m27.16 43.675v81.022H304.723V99.097h163.601c14.976 0 27.16 12.183 27.16 27.159M43.676 99.097h163.601v108.181H16.516v-81.022c0-14.976 12.184-27.159 27.16-27.159m-27.16 286.646v-81.02h190.761v108.181H43.676c-14.976-.001-27.16-12.184-27.16-27.161m451.808 27.16H304.723v-108.18h132.955a8.257 8.257 0 0 0 8.258-8.258 8.257 8.257 0 0 0-8.258-8.258H296.465a8.257 8.257 0 0 0-8.258 8.258v116.439h-64.413V296.465a8.257 8.257 0 0 0-8.258-8.258H16.516v-64.413h199.019a8.257 8.257 0 0 0 8.258-8.258V99.097h64.413v116.439a8.257 8.257 0 0 0 8.258 8.258h199.019v161.949c.001 14.977-12.183 27.16-27.159 27.16" style="fill:#1a1c20"/></svg>
