<svg xmlns="http://www.w3.org/2000/svg" xml:space="preserve" viewBox="0 0 512 512" width="48" height="48"><path d="M173.419 421.161h294.904c19.561 0 35.418-15.857 35.418-35.418V256.001H173.419z" style="fill:#259245"/><path d="M173.419 256.001h330.323V126.256c0-19.556-15.85-35.411-35.405-35.417H173.419z" style="fill:#ffe000"/><path d="m173.419 90.84-129.743-.001c-19.562 0-35.418 15.857-35.418 35.417v259.487c0 19.556 15.85 35.411 35.405 35.417h129.756z" style="fill:#ed1f34"/><path d="m53.79 247.681 27.278-1.409 9.77-25.506 9.769 25.506 27.278 1.409-21.239 17.175 7.088 26.378-22.896-14.894-22.897 14.894 7.09-26.378z" style="fill:#333"/><path d="M135.739 245.13a8.26 8.26 0 0 0-7.428-5.696l-21.914-1.131-7.847-20.491a8.258 8.258 0 0 0-15.424 0l-7.848 20.491-21.914 1.131a8.257 8.257 0 0 0-4.767 14.669l17.063 13.796-5.695 21.191a8.258 8.258 0 0 0 12.479 9.066l18.395-11.964 18.395 11.964a8.257 8.257 0 0 0 12.478-9.066l-5.695-21.191 17.063-13.796a8.26 8.26 0 0 0 2.659-8.973m-34.286 13.304a8.26 8.26 0 0 0-2.782 8.564l1.493 5.557-4.823-3.138a8.26 8.26 0 0 0-9.006 0l-4.824 3.138 1.493-5.557a8.26 8.26 0 0 0-2.782-8.564l-4.474-3.617 5.745-.297a8.26 8.26 0 0 0 7.286-5.294l2.058-5.373 2.058 5.373a8.26 8.26 0 0 0 7.286 5.294l5.745.297z" style="fill:#111a21"/><path d="M468.324 82.581H43.675C19.593 82.581 0 102.174 0 126.257v259.486c0 24.083 19.593 43.676 43.675 43.676h424.648c24.084 0 43.676-19.594 43.676-43.676V126.257c.001-24.083-19.592-43.676-43.675-43.676M16.516 385.743V126.257c0-14.977 12.183-27.16 27.159-27.16h121.486v313.806H43.675c-14.975 0-27.159-12.183-27.159-27.16m451.808 27.16H181.677V264.258h255.999a8.257 8.257 0 0 0 8.258-8.258 8.257 8.257 0 0 0-8.258-8.258H181.677V99.097h286.646c14.977 0 27.16 12.183 27.16 27.16v121.485h-24.775A8.257 8.257 0 0 0 462.45 256a8.257 8.257 0 0 0 8.258 8.258h24.775v121.485c.001 14.977-12.183 27.16-27.159 27.16" style="fill:#111a21"/></svg>
