<svg xmlns="http://www.w3.org/2000/svg" xml:space="preserve" viewBox="0 0 512.002 512.002" width="48" height="48"><path d="M468.326 90.84H43.679a35.24 35.24 0 0 0-19.129 5.618l462.678 159.543L24.552 415.545a35.23 35.23 0 0 0 19.129 5.618h424.647c19.561 0 35.418-15.857 35.418-35.418V126.258c-.002-19.56-15.859-35.418-35.42-35.418" style="fill:#259245"/><path d="M24.551 96.458a35.5 35.5 0 0 0-3.729 2.756l235.182 156.787L20.821 412.789a36 36 0 0 0 3.729 2.756l462.678-159.544z" style="fill:#ffe000"/><path d="M8.262 429.421a8.26 8.26 0 0 1-7.807-5.568 8.257 8.257 0 0 1 5.113-10.499L461.895 256 5.569 98.647A8.257 8.257 0 0 1 .456 88.148a8.256 8.256 0 0 1 10.499-5.114l478.965 165.16a8.258 8.258 0 0 1 0 15.614L10.955 428.968a8.2 8.2 0 0 1-2.693.453" style="fill:#fff"/><path d="M20.821 99.214c-7.679 6.496-12.56 16.198-12.56 27.044v259.486c0 10.847 4.881 20.548 12.56 27.045l235.182-156.788z" style="fill:#ed1f34"/><path d="M468.326 82.582H43.681c-10.646 0-20.412 3.834-27.998 10.187-.063.051-.133.087-.196.14-.369.313-.72.64-1.077.963q-.06.052-.118.106-.725.661-1.416 1.351l-.119.118q-.706.706-1.375 1.442l-.043.047a43.6 43.6 0 0 0-6.804 9.979c-.094.189-.192.378-.283.569q-.29.612-.559 1.234-.192.433-.377.871a52 52 0 0 0-.828 2.164q-.172.487-.331.979a44 44 0 0 0-.383 1.241q-.132.446-.254.893c-.123.454-.235.911-.344 1.37-.065.275-.132.551-.192.827-.105.488-.196.979-.285 1.472-.046.259-.098.518-.139.777a44 44 0 0 0-.215 1.558c-.03.244-.067.488-.094.733a47 47 0 0 0-.139 1.679c-.014.214-.037.425-.048.639A44 44 0 0 0 0 126.242l-.001.013v259.487l.001.013q.001 1.169.064 2.321c.011.214.034.425.048.639.037.563.079 1.123.139 1.679.026.246.063.489.094.733.065.522.131 1.042.215 1.558.042.26.092.518.139.777.089.493.181.985.285 1.472.059.276.127.551.192.826a40 40 0 0 0 .981 3.505q.16.49.331.979.192.543.399 1.079.208.546.429 1.086.183.438.377.872c.182.413.364.826.559 1.234q.138.286.283.569a43.6 43.6 0 0 0 6.804 9.98q.021.025.043.047.67.736 1.375 1.442l.119.118q.691.69 1.416 1.351l.118.106c.357.324.708.651 1.077.963.057.048.123.08.182.128 7.589 6.36 17.359 10.198 28.012 10.198h424.645c24.083 0 43.676-19.594 43.676-43.676V126.258c0-24.082-19.593-43.676-43.676-43.676M21.998 402.079l-.11-.145a27 27 0 0 1-.95-1.371q-.166-.254-.328-.511a27 27 0 0 1-.876-1.511c-.073-.135-.14-.274-.21-.411a27 27 0 0 1-.73-1.529l-.102-.226a27 27 0 0 1-.803-2.142 27 27 0 0 1-.549-1.878q-.02-.09-.042-.179a27 27 0 0 1-.384-1.862c-.013-.078-.03-.156-.042-.235a27 27 0 0 1-.269-2.335 28 28 0 0 1-.081-1.996V126.256c0-.669.033-1.334.081-1.996l.03-.393q.084-.978.239-1.942c.012-.078.029-.156.042-.235a28 28 0 0 1 .384-1.862q.02-.09.042-.179c.159-.634.345-1.26.549-1.878l.117-.345c.209-.607.435-1.208.686-1.798l.101-.225q.342-.778.73-1.53.104-.206.21-.411a27 27 0 0 1 1.204-2.022c.304-.465.618-.924.95-1.371l.11-.145 219.119 146.077zm473.488-16.336c0 14.977-12.183 27.16-27.16 27.16H43.681c-2.361 0-4.651-.304-6.835-.873l223.74-149.159a8.256 8.256 0 0 0 0-13.742L36.844 99.971a27 27 0 0 1 6.837-.873h424.645c14.977 0 27.16 12.183 27.16 27.16z" style="fill:#121b21"/></svg>
