<svg xmlns="http://www.w3.org/2000/svg" xml:space="preserve" viewBox="0 0 512 512" width="48" height="48"><path d="M503.742 256H8.258v134.331c0 17.027 13.803 30.83 30.83 30.83h433.824c17.027 0 30.83-13.803 30.83-30.83z" style="fill:#ed1f34"/><path d="M472.912 90.839H39.088c-17.027 0-30.83 13.803-30.83 30.83V256h495.484V121.669c0-17.027-13.803-30.83-30.83-30.83" style="fill:#164fce"/><path d="M503.742 264.258h-66.065a8.257 8.257 0 0 1-8.258-8.258 8.257 8.257 0 0 1 8.258-8.258h66.065A8.257 8.257 0 0 1 512 256a8.257 8.257 0 0 1-8.258 8.258m-99.097 0H8.258A8.257 8.257 0 0 1 0 256a8.257 8.257 0 0 1 8.258-8.258h396.387a8.257 8.257 0 0 1 8.258 8.258 8.257 8.257 0 0 1-8.258 8.258" style="fill:#121b21"/><path d="M468.324 429.419H43.675C19.593 429.419 0 409.826 0 385.743V126.257c0-24.083 19.593-43.676 43.675-43.676h424.648c24.084 0 43.676 19.594 43.676 43.676v259.486c.001 24.083-19.592 43.676-43.675 43.676M43.675 99.097c-14.976 0-27.159 12.183-27.159 27.16v259.486c0 14.977 12.183 27.16 27.159 27.16h424.648c14.977 0 27.16-12.183 27.16-27.16V126.257c0-14.977-12.183-27.16-27.16-27.16z" style="fill:#121b21"/></svg>
