<svg xmlns="http://www.w3.org/2000/svg" xml:space="preserve" viewBox="0 0 512 512" width="48" height="48"><path d="M469.611 90.847H42.389c-18.85 0-34.131 15.281-34.131 34.131v7.159h495.484v-7.159c0-18.85-15.281-34.131-34.131-34.131" style="fill:#fff"/><path d="M8.258 132.141h495.484v41.29H8.258z" style="fill:#ed1f34"/><path d="M8.258 173.431h495.484v41.29H8.258z" style="fill:#103b9b"/><path d="M8.258 214.721h495.484v41.29H8.258z" style="fill:#fff"/><path d="M8.258 256.012h495.484v41.29H8.258z" style="fill:#ed1f34"/><path d="M8.258 297.302h495.484v41.29H8.258z" style="fill:#103b9b"/><path d="M8.258 338.592h495.484v41.29H8.258z" style="fill:#fff"/><path d="M503.742 379.879H8.258v7.159c0 18.849 15.281 34.131 34.131 34.131h427.223c18.85 0 34.131-15.281 34.131-34.131z" style="fill:#ed1f34"/><path d="M256 256.008H8.258v-131.58c0-18.545 15.034-33.581 33.581-33.581H256z" style="fill:#103b9b"/><path d="M256 90.847h-40.196l-83.675 55.784-83.675-55.784H35.055c-14.8 0-26.797 11.997-26.797 26.798l83.675 55.784-83.675 55.782v26.798h40.196l83.675-55.784 83.675 55.784H256v-26.798l-83.675-55.783L256 117.645z" style="fill:#fff"/><path d="M256 90.847h-26.797l-110.466 73.652-95.603-63.736c-6.359-4.239-14.876.319-14.876 7.961l110.33 73.73-110.33 73.554h26.797l110.472-73.649L256 256.008v-17.484l-110.627-73.926z" style="fill:#ed1f34"/><path d="M256 151.131H154.426V90.847h-44.594v60.284H8.258v44.593h101.574v60.284h44.594v-60.284H256z" style="fill:#fff"/><path d="M256 161.453H144.103V90.847h-23.948v70.606H8.258v23.949h111.897v70.606h23.948v-70.606H256z" style="fill:#ed1f34"/><path d="M468.324 82.583H256.107c-.036 0-.07-.006-.107-.006q-.053.001-.107.006H43.676C19.594 82.583 0 102.177 0 126.26v259.486c0 24.083 19.594 43.676 43.676 43.676h424.647c24.083 0 43.676-19.594 43.676-43.676V126.26c.001-24.083-19.593-43.677-43.675-43.677M43.676 99.1h204.066v148.65l-231.226-.006V126.26c0-14.976 12.184-27.16 27.16-27.16m451.808 286.646c0 14.977-12.183 27.16-27.16 27.16H43.676c-14.977 0-27.16-12.183-27.16-27.16V264.261l239.484.005c2.19 0 4.29-.87 5.84-2.418a8.26 8.26 0 0 0 2.418-5.84V99.1h204.066c14.977 0 27.16 12.183 27.16 27.16z" style="fill:#1a1c20"/></svg>
