<?xml version="1.0" encoding="iso-8859-1"?>
<!-- Generator: Adobe Illustrator 19.0.0, SVG Export Plug-In . SVG Version: 6.00 Build 0)  -->
<svg version="1.1" id="Layer_1" xmlns="http://www.w3.org/2000/svg" xmlns:xlink="http://www.w3.org/1999/xlink" x="0px" y="0px"
	 viewBox="0 0 512 512" style="enable-background:new 0 0 512 512;" xml:space="preserve">
<path style="fill:#FFFFFF;" d="M469.611,90.847H42.389c-18.85,0-34.131,15.281-34.131,34.131v7.159h495.484v-7.159
	C503.742,106.128,488.461,90.847,469.611,90.847z"/>
<rect x="8.258" y="132.141" style="fill:#ED1F34;" width="495.484" height="41.29"/>
<rect x="8.258" y="173.431" style="fill:#103B9B;" width="495.484" height="41.29"/>
<rect x="8.258" y="214.721" style="fill:#FFFFFF;" width="495.484" height="41.29"/>
<rect x="8.258" y="256.012" style="fill:#ED1F34;" width="495.484" height="41.29"/>
<rect x="8.258" y="297.302" style="fill:#103B9B;" width="495.484" height="41.29"/>
<rect x="8.258" y="338.592" style="fill:#FFFFFF;" width="495.484" height="41.29"/>
<path style="fill:#ED1F34;" d="M503.742,379.879H8.258v7.159c0,18.849,15.281,34.131,34.131,34.131h427.223
	c18.85,0,34.131-15.281,34.131-34.131v-7.159H503.742z"/>
<path style="fill:#103B9B;" d="M256,256.008H8.258V124.428c0-18.545,15.034-33.581,33.581-33.581H256V256.008z"/>
<path style="fill:#FFFFFF;" d="M256,90.847h-40.196l-83.675,55.784L48.454,90.847H35.055c-14.8,0-26.797,11.997-26.797,26.798l0,0
	l83.675,55.784L8.258,229.211v26.798h40.196l83.675-55.784l83.675,55.784H256v-26.798l-83.675-55.783L256,117.645V90.847z"/>
<path style="fill:#ED1F34;" d="M256,90.847h-26.797l-110.466,73.652l-95.603-63.736c-6.359-4.239-14.876,0.319-14.876,7.961l0,0
	l110.33,73.73L8.258,256.008h26.797l110.472-73.649L256,256.008v-17.484l-110.627-73.926L256,90.847z"/>
<polygon style="fill:#FFFFFF;" points="256,151.131 154.426,151.131 154.426,90.847 109.832,90.847 109.832,151.131 8.258,151.131
	8.258,195.724 109.832,195.724 109.832,256.008 154.426,256.008 154.426,195.724 256,195.724 "/>
<polygon style="fill:#ED1F34;" points="256,161.453 144.103,161.453 144.103,90.847 120.155,90.847 120.155,161.453 8.258,161.453
	8.258,185.402 120.155,185.402 120.155,256.008 144.103,256.008 144.103,185.402 256,185.402 "/>
<path style="fill:#1A1C20;" d="M468.324,82.583H256.107c-0.036,0-0.07-0.006-0.107-0.006c-0.036,0-0.07,0.004-0.107,0.006H43.676
	C19.594,82.583,0,102.177,0,126.26v259.486c0,24.083,19.594,43.676,43.676,43.676h424.647c24.083,0,43.676-19.594,43.676-43.676
	V126.26C512,102.177,492.406,82.583,468.324,82.583z M43.676,99.1h204.066V247.75l-231.226-0.006V126.26
	C16.516,111.284,28.7,99.1,43.676,99.1z M495.484,385.746c0,14.977-12.183,27.16-27.16,27.16H43.676
	c-14.977,0-27.16-12.183-27.16-27.16V264.261L256,264.266c2.19,0,4.29-0.87,5.84-2.418c1.548-1.549,2.418-3.649,2.418-5.84V99.1
	h204.066c14.977,0,27.16,12.183,27.16,27.16V385.746z"/>
<g>
</g>
<g>
</g>
<g>
</g>
<g>
</g>
<g>
</g>
<g>
</g>
<g>
</g>
<g>
</g>
<g>
</g>
<g>
</g>
<g>
</g>
<g>
</g>
<g>
</g>
<g>
</g>
<g>
</g>
</svg>
