<svg xmlns="http://www.w3.org/2000/svg" xml:space="preserve" viewBox="0 0 512 512" width="48" height="48"><path d="M8.258 200.946h495.484v110.108H8.258z" style="fill:#fff"/><circle cx="189.935" cy="236.577" r="11.405" style="fill:#3db4ea"/><circle cx="189.935" cy="275.423" r="11.405" style="fill:#3db4ea"/><circle cx="322.065" cy="236.577" r="11.405" style="fill:#3db4ea"/><circle cx="322.065" cy="275.423" r="11.405" style="fill:#3db4ea"/><circle cx="256" cy="256" r="11.405" style="fill:#3db4ea"/><path d="M8.258 311.054h495.484v75.307c0 19.22-15.58 34.801-34.801 34.801H43.059c-19.22 0-34.801-15.58-34.801-34.801zM43.059 90.839h425.883c19.219 0 34.801 15.58 34.801 34.801v75.307H8.258V125.64c0-19.221 15.58-34.801 34.801-34.801" style="fill:#3db4ea"/><path d="M82.581 311.054a8.257 8.257 0 0 0-8.258-8.258H16.516v16.516h57.806a8.26 8.26 0 0 0 8.259-8.258m16.516 0a8.257 8.257 0 0 0 8.258 8.258h388.129v-16.516H107.355a8.257 8.257 0 0 0-8.258 8.258M16.516 192.688h478.968v16.516H16.516z" style="fill:#121b21"/><path d="M468.324 82.581H43.676C19.593 82.581 0 102.174 0 126.257v259.486c0 24.083 19.593 43.676 43.676 43.676h424.648c24.083 0 43.675-19.594 43.675-43.676V126.257c.001-24.083-19.592-43.676-43.675-43.676m0 330.322H43.676c-14.977 0-27.16-12.183-27.16-27.16V126.258c0-14.977 12.183-27.16 27.16-27.16h424.648c14.976 0 27.159 12.183 27.159 27.16v259.485c.001 14.977-12.183 27.16-27.159 27.16" style="fill:#121b21"/></svg>
