<svg xmlns="http://www.w3.org/2000/svg" xml:space="preserve" viewBox="0 0 512 512" width="48" height="48"><path d="M8.258 385.376V126.624c0-19.763 16.022-35.785 35.785-35.785h423.914c19.763 0 35.785 16.022 35.785 35.785v258.753c0 19.763-16.022 35.785-35.785 35.785H44.043c-19.763-.001-35.785-16.022-35.785-35.786" style="fill:#ed1f34"/><path d="M278.956 189.503c0-9.312-5.691-17.289-13.783-20.658v-20.081c-22.5 0-40.74 18.24-40.74 40.74s18.239 40.74 40.74 40.74v-20.081c8.092-3.371 13.783-11.348 13.783-20.66m-88.05 26.761c-8.856-2.877-18.202.07-23.907 6.724l-19.098-6.206c-6.953 21.398 4.758 44.382 26.156 51.335s44.382-4.758 51.335-26.156l-19.098-6.206c-.703-8.735-6.533-16.613-15.388-19.491m-1.758 92.012c-5.473 7.534-5.558 17.333-.992 24.814l-11.804 16.246c18.203 13.225 43.681 9.19 56.906-9.013s9.19-43.681-9.013-56.906l-11.804 16.246c-8.525-2.03-17.819 1.079-23.293 8.613m86.965 30.104c5.473 7.534 14.767 10.642 23.293 8.612l11.804 16.246c18.203-13.225 22.238-38.703 9.013-56.906s-38.703-22.238-56.906-9.013l11.804 16.246c-4.566 7.482-4.481 17.282.992 24.815m55.504-73.406c8.856-2.877 14.685-10.755 15.388-19.492l19.098-6.206c-6.953-21.398-29.936-33.109-51.335-26.156-21.398 6.953-33.109 29.936-26.157 51.335l19.098-6.206c5.707 6.655 15.053 9.602 23.908 6.725" style="fill:#fff"/><path d="M265.173 238.5a8.256 8.256 0 0 0 8.258-8.258v-15.153a30.54 30.54 0 0 0 13.783-25.587 30.54 30.54 0 0 0-13.783-25.587v-15.153a8.256 8.256 0 0 0-8.258-8.258c-27.017 0-48.998 21.981-48.998 48.998 0 27.018 21.981 48.998 48.998 48.998m-8.258-80.416v10.76a8.26 8.26 0 0 0 5.084 7.624 14.08 14.08 0 0 1 8.698 13.035 14.09 14.09 0 0 1-8.698 13.036 8.26 8.26 0 0 0-5.084 7.624v10.759c-13.924-3.662-24.224-16.36-24.224-31.418 0-15.06 10.3-27.758 24.224-31.42m-70.261 120.298c21.286 0 40.01-13.61 46.592-33.868a8.26 8.26 0 0 0-5.302-10.405l-14.412-4.683a30.54 30.54 0 0 0-20.076-21.015 30.59 30.59 0 0 0-28.59 5.204l-14.415-4.684a8.256 8.256 0 0 0-10.405 5.302c-4.044 12.447-2.999 25.723 2.942 37.385s16.069 20.31 28.516 24.355a49 49 0 0 0 15.15 2.409m-28.949-34.263c-2.656-5.214-3.836-10.914-3.5-16.604l10.243 3.327a8.25 8.25 0 0 0 8.822-2.48 14.11 14.11 0 0 1 10.723-4.941c1.472 0 2.94.233 4.361.696a14.08 14.08 0 0 1 9.708 12.3 8.26 8.26 0 0 0 5.679 7.191l10.241 3.327a32.38 32.38 0 0 1-27.328 14.928 32.5 32.5 0 0 1-10.046-1.601c-8.25-2.678-14.964-8.413-18.903-16.143m71.394 32.619a8.26 8.26 0 0 0-11.535 1.827l-8.912 12.266c-10.25-.476-20.17 4.312-26.186 12.592a30.55 30.55 0 0 0-3.889 28.802l-8.907 12.259a8.257 8.257 0 0 0 1.828 11.535c8.429 6.124 18.375 9.36 28.766 9.36 15.652 0 30.484-7.55 39.674-20.2 7.692-10.588 10.802-23.539 8.755-36.465-2.047-12.928-9.005-24.284-19.594-31.976m-2.522 58.732c-6.093 8.385-15.929 13.391-26.312 13.391-4.07 0-8.038-.751-11.758-2.204l6.33-8.713a8.26 8.26 0 0 0 .368-9.155 14.09 14.09 0 0 1 .624-15.66c2.684-3.696 6.852-5.815 11.432-5.815 1.102 0 2.201.129 3.267.383a8.26 8.26 0 0 0 8.594-3.18l6.33-8.712c3.616 4.407 6.013 9.711 6.928 15.49 1.358 8.571-.703 17.156-5.803 24.175m60.653-54.193c-10.391 0-20.338 3.237-28.767 9.361a8.256 8.256 0 0 0-1.828 11.534l8.907 12.259a30.55 30.55 0 0 0 3.889 28.802c5.743 7.904 15.012 12.622 24.795 12.623h.002q.694 0 1.388-.032l8.913 12.267a8.25 8.25 0 0 0 6.682 3.404 8.26 8.26 0 0 0 4.854-1.578c21.859-15.882 26.72-46.584 10.839-68.44-9.19-12.648-24.021-20.2-39.674-20.2m25.181 69.565-6.325-8.704a8.26 8.26 0 0 0-8.593-3.18 14.2 14.2 0 0 1-3.265.383h-.001a14.18 14.18 0 0 1-11.435-5.815 14.09 14.09 0 0 1-.623-15.658 8.26 8.26 0 0 0-.368-9.157l-6.33-8.713a32.2 32.2 0 0 1 11.758-2.205c10.383 0 20.219 5.007 26.311 13.392 8.854 12.183 7.985 28.51-1.129 39.657m14.955-147.987c-5.133 0-10.23.81-15.15 2.409-25.695 8.348-39.806 36.045-31.458 61.741a8.26 8.26 0 0 0 10.406 5.301l14.415-4.684a30.59 30.59 0 0 0 28.59 5.204 30.55 30.55 0 0 0 20.076-21.015l14.411-4.683a8.26 8.26 0 0 0 5.302-10.406c-6.582-20.255-25.306-33.867-46.592-33.867m17.088 34.772a8.26 8.26 0 0 0-5.679 7.191 14.08 14.08 0 0 1-9.708 12.301 14.1 14.1 0 0 1-4.361.696 14.11 14.11 0 0 1-10.723-4.942 8.26 8.26 0 0 0-8.821-2.479l-10.233 3.325c-.819-14.376 8.074-28.094 22.395-32.747a32.4 32.4 0 0 1 10.046-1.601 32.38 32.38 0 0 1 27.328 14.928z" style="fill:#1a1c20"/><path d="M468.324 82.581H43.676C19.593 82.581 0 102.174 0 126.257v259.486c0 24.083 19.593 43.676 43.676 43.676h424.648c24.082 0 43.675-19.594 43.675-43.676V126.257c.001-24.083-19.593-43.676-43.675-43.676m27.16 303.162c0 14.977-12.183 27.16-27.16 27.16H43.676c-14.977 0-27.16-12.183-27.16-27.16V126.257c0-14.977 12.183-27.16 27.16-27.16h424.648c14.976 0 27.159 12.183 27.159 27.16z" style="fill:#1a1c20"/></svg>
