<svg xmlns="http://www.w3.org/2000/svg" xml:space="preserve" viewBox="0 0 512 512" width="48" height="48"><path d="M8.258 200.946h495.484v110.108H8.258z" style="fill:#fff"/><path d="M503.742 311.054H8.258v74.873c0 19.459 15.775 35.234 35.234 35.234h425.015c19.459 0 35.234-15.775 35.234-35.234v-74.873z" style="fill:#259245"/><path d="M468.508 90.839H43.492c-19.459 0-35.234 15.775-35.234 35.234v74.873h495.484v-74.873c0-19.459-15.775-35.234-35.234-35.234" style="fill:#ed1f34"/><path d="M468.324 82.581H43.676C19.594 82.581 0 102.173 0 126.256v259.487c0 24.084 19.594 43.676 43.676 43.676h424.647c24.083 0 43.676-19.593 43.676-43.676V126.256c.001-24.083-19.593-43.675-43.675-43.675M43.676 99.097h424.647c14.977 0 27.16 12.183 27.16 27.159v66.432H16.516v-66.432c0-14.976 12.184-27.159 27.16-27.159m424.648 313.806H43.676c-14.977 0-27.16-12.183-27.16-27.16v-66.431h57.806a8.257 8.257 0 0 0 8.258-8.258 8.257 8.257 0 0 0-8.258-8.258H16.516v-93.591h478.968v93.591H107.355a8.257 8.257 0 0 0-8.258 8.258 8.257 8.257 0 0 0 8.258 8.258h388.129v66.431c0 14.977-12.184 27.16-27.16 27.16" style="fill:#121b21"/></svg>
