<svg xmlns="http://www.w3.org/2000/svg" xml:space="preserve" viewBox="0 0 511.999 511.999" width="48" height="48"><path d="M473.069 421.161H38.931c-16.94 0-30.673-13.733-30.673-30.673V121.511c0-16.94 13.733-30.673 30.673-30.673h434.137c16.94 0 30.673 13.733 30.673 30.673v268.976c.001 16.941-13.732 30.674-30.672 30.674" style="fill:#164fce"/><path d="M503.742 211.406H239.917V90.838H150.73v120.568H8.258v89.187H150.73v120.568h89.187V300.593h263.825z" style="fill:#fff"/><path d="M503.742 232.051H219.271V90.838h-47.896v141.213H8.258v47.897h163.117v141.213h47.896V279.948h284.471z" style="fill:#ed1f34"/><path d="M469.766 82.58H42.234C18.946 82.58 0 101.526 0 124.814v262.371c0 23.288 18.946 42.234 42.234 42.234h427.531c23.288 0 42.234-18.946 42.234-42.234V124.814c.001-23.288-18.945-42.234-42.233-42.234m25.718 42.234v98.979H227.53V99.096h242.237c14.18 0 25.717 11.537 25.717 25.718M42.234 99.096h120.882v124.697h-146.6v-98.979c0-14.181 11.537-25.718 25.718-25.718M16.516 387.185v-98.979h146.6v124.697H42.234c-14.181 0-25.718-11.537-25.718-25.718m453.25 25.718H227.53V288.206h177.116a8.26 8.26 0 0 0 8.258-8.258 8.26 8.26 0 0 0-8.258-8.258H219.271a8.26 8.26 0 0 0-8.258 8.258v132.955h-31.381V279.948a8.26 8.26 0 0 0-8.258-8.258H16.516v-31.381h154.859a8.26 8.26 0 0 0 8.258-8.258V99.096h31.381v132.955a8.26 8.26 0 0 0 8.258 8.258h276.212v31.381h-57.806a8.26 8.26 0 0 0-8.258 8.258 8.26 8.26 0 0 0 8.258 8.258h57.806v98.979c0 14.181-11.537 25.718-25.718 25.718" style="fill:#121b21"/></svg>
