<svg xmlns="http://www.w3.org/2000/svg" xml:space="preserve" viewBox="0 0 512 512" width="48" height="48"><path d="M8.258 200.946h495.484v110.108H8.258z" style="fill:#fff"/><path d="M468.324 90.839H43.676c-19.561 0-35.418 15.858-35.418 35.418v74.689h495.484v-74.689c0-19.561-15.858-35.418-35.418-35.418" style="fill:#ff7900"/><path d="M8.258 385.743c0 19.561 15.858 35.418 35.418 35.418h424.648c19.561 0 35.418-15.857 35.418-35.418v-74.689H8.258z" style="fill:#259245"/><path d="M256 286.28c-16.697 0-30.28-13.583-30.28-30.28s13.583-30.28 30.28-30.28 30.28 13.583 30.28 30.28-13.583 30.28-30.28 30.28m0-44.043c-7.59 0-13.763 6.174-13.763 13.763 0 7.59 6.174 13.763 13.763 13.763 7.59 0 13.763-6.174 13.763-13.763 0-7.59-6.173-13.763-13.763-13.763" style="fill:#164fce"/><path d="M468.324 82.581H43.676C19.593 82.581 0 102.173 0 126.257v259.487c0 24.083 19.593 43.675 43.676 43.675h424.648c24.083 0 43.675-19.593 43.675-43.676V126.257c.001-24.084-19.592-43.676-43.675-43.676M43.676 99.097h424.648c14.976 0 27.159 12.183 27.159 27.16v66.431H74.323c-4.561 0-8.258 3.697-8.258 8.258s3.697 8.258 8.258 8.258h421.161v93.591H16.516v-93.591H41.29c4.561 0 8.258-3.697 8.258-8.258s-3.697-8.258-8.258-8.258H16.516v-66.431c0-14.977 12.184-27.16 27.16-27.16m424.648 313.806H43.676c-14.977 0-27.16-12.183-27.16-27.16v-66.431h478.968v66.431c0 14.977-12.184 27.16-27.16 27.16" style="fill:#111a21"/></svg>
