<svg xmlns="http://www.w3.org/2000/svg" xml:space="preserve" viewBox="0 0 512 512" width="48" height="48"><path d="M468.324 90.839H43.676c-19.562 0-35.418 15.857-35.418 35.418V256h495.484V126.257c0-19.562-15.858-35.418-35.418-35.418" style="fill:#b21727"/><path d="M8.258 385.743c0 19.562 15.857 35.418 35.418 35.418h424.648c19.561 0 35.418-15.857 35.418-35.418V256H8.258z" style="fill:#fff"/><path d="M468.324 82.581H43.675C19.593 82.581 0 102.174 0 126.257v259.486c0 24.083 19.593 43.676 43.675 43.676h424.648c24.084 0 43.676-19.594 43.676-43.676V126.257c.001-24.083-19.592-43.676-43.675-43.676m27.16 165.161H74.323A8.257 8.257 0 0 0 66.065 256a8.257 8.257 0 0 0 8.258 8.258h421.161v121.485c0 14.977-12.183 27.16-27.16 27.16H43.675c-14.976 0-27.159-12.183-27.159-27.16V264.258H41.29A8.257 8.257 0 0 0 49.548 256a8.257 8.257 0 0 0-8.258-8.258H16.516V126.257c0-14.977 12.183-27.16 27.159-27.16h424.648c14.977 0 27.16 12.183 27.16 27.16z" style="fill:#121b21"/></svg>
