<svg xmlns="http://www.w3.org/2000/svg" xml:space="preserve" viewBox="0 0 512 512" width="48" height="48"><path d="M8.258 200.946h495.484v110.108H8.258z" style="fill:#fff"/><path d="M468.324 90.839H43.676c-19.561 0-35.418 15.857-35.418 35.418v74.689h495.484v-74.689c0-19.562-15.857-35.418-35.418-35.418" style="fill:#259245"/><path d="M8.258 385.743c0 19.561 15.858 35.418 35.418 35.418h424.648c19.561 0 35.418-15.858 35.418-35.418v-74.689H8.258zM256 285.829c-19.156 0-34.742-15.586-34.742-34.742 0-9.96 4.285-19.456 11.757-26.053a8.258 8.258 0 0 1 10.931 12.382 18.24 18.24 0 0 0-6.172 13.671c0 10.05 8.177 18.226 18.226 18.226s18.226-8.175 18.226-18.226c0-5.226-2.25-10.208-6.172-13.671a8.258 8.258 0 0 1 10.931-12.382 34.77 34.77 0 0 1 11.757 26.053c0 19.158-15.586 34.742-34.742 34.742" style="fill:#ed1f34"/><path d="M256 291.234a8.257 8.257 0 0 1-8.258-8.258v-36.753a8.257 8.257 0 0 1 8.258-8.258 8.257 8.257 0 0 1 8.258 8.258v36.753a8.257 8.257 0 0 1-8.258 8.258" style="fill:#ed1f34"/><path d="M46.372 211.406a8.257 8.257 0 0 1-8.258-8.258v-5.505c0-4.561 3.696-8.258 8.258-8.258s8.258 3.697 8.258 8.258v5.505a8.257 8.257 0 0 1-8.258 8.258m38.114 0a8.257 8.257 0 0 1-8.258-8.258v-5.505c0-4.561 3.696-8.258 8.258-8.258s8.258 3.697 8.258 8.258v5.505a8.26 8.26 0 0 1-8.258 8.258m38.114 0a8.257 8.257 0 0 1-8.258-8.258v-5.505c0-4.561 3.696-8.258 8.258-8.258s8.258 3.697 8.258 8.258v5.505a8.26 8.26 0 0 1-8.258 8.258m38.115 0a8.257 8.257 0 0 1-8.258-8.258v-5.505a8.257 8.257 0 0 1 8.258-8.258 8.257 8.257 0 0 1 8.258 8.258v5.505a8.257 8.257 0 0 1-8.258 8.258m38.114 0a8.257 8.257 0 0 1-8.258-8.258v-5.505a8.257 8.257 0 0 1 8.258-8.258 8.257 8.257 0 0 1 8.258 8.258v5.505a8.257 8.257 0 0 1-8.258 8.258m38.114 0a8.257 8.257 0 0 1-8.258-8.258v-5.505c0-4.561 3.696-8.258 8.258-8.258s8.258 3.697 8.258 8.258v5.505a8.26 8.26 0 0 1-8.258 8.258m38.114 0a8.257 8.257 0 0 1-8.258-8.258v-5.505a8.257 8.257 0 0 1 8.258-8.258 8.257 8.257 0 0 1 8.258 8.258v5.505a8.26 8.26 0 0 1-8.258 8.258m38.114 0a8.257 8.257 0 0 1-8.258-8.258v-5.505a8.257 8.257 0 0 1 8.258-8.258 8.26 8.26 0 0 1 8.258 8.258v5.505a8.26 8.26 0 0 1-8.258 8.258m38.114 0a8.257 8.257 0 0 1-8.258-8.258v-5.505c0-4.561 3.696-8.258 8.258-8.258s8.258 3.697 8.258 8.258v5.505a8.257 8.257 0 0 1-8.258 8.258m38.115 0a8.257 8.257 0 0 1-8.258-8.258v-5.505a8.257 8.257 0 0 1 8.258-8.258 8.257 8.257 0 0 1 8.258 8.258v5.505a8.26 8.26 0 0 1-8.258 8.258m38.114 0a8.26 8.26 0 0 1-8.258-8.258v-5.505a8.26 8.26 0 0 1 8.258-8.258 8.257 8.257 0 0 1 8.258 8.258v5.505a8.257 8.257 0 0 1-8.258 8.258m38.114 0a8.257 8.257 0 0 1-8.258-8.258v-5.505c0-4.561 3.696-8.258 8.258-8.258s8.258 3.697 8.258 8.258v5.505a8.26 8.26 0 0 1-8.258 8.258M46.372 322.615a8.257 8.257 0 0 1-8.258-8.258v-5.505c0-4.561 3.696-8.258 8.258-8.258s8.258 3.697 8.258 8.258v5.505a8.257 8.257 0 0 1-8.258 8.258m38.114 0a8.257 8.257 0 0 1-8.258-8.258v-5.505c0-4.561 3.696-8.258 8.258-8.258s8.258 3.697 8.258 8.258v5.505a8.26 8.26 0 0 1-8.258 8.258m38.114 0a8.257 8.257 0 0 1-8.258-8.258v-5.505c0-4.561 3.696-8.258 8.258-8.258s8.258 3.697 8.258 8.258v5.505a8.26 8.26 0 0 1-8.258 8.258m38.115 0a8.257 8.257 0 0 1-8.258-8.258v-5.505a8.257 8.257 0 0 1 8.258-8.258 8.257 8.257 0 0 1 8.258 8.258v5.505a8.257 8.257 0 0 1-8.258 8.258m38.114 0a8.257 8.257 0 0 1-8.258-8.258v-5.505a8.257 8.257 0 0 1 8.258-8.258 8.257 8.257 0 0 1 8.258 8.258v5.505a8.257 8.257 0 0 1-8.258 8.258m38.114 0a8.257 8.257 0 0 1-8.258-8.258v-5.505c0-4.561 3.696-8.258 8.258-8.258s8.258 3.697 8.258 8.258v5.505a8.26 8.26 0 0 1-8.258 8.258m38.114 0a8.257 8.257 0 0 1-8.258-8.258v-5.505a8.257 8.257 0 0 1 8.258-8.258 8.257 8.257 0 0 1 8.258 8.258v5.505a8.26 8.26 0 0 1-8.258 8.258m38.114 0a8.257 8.257 0 0 1-8.258-8.258v-5.505a8.257 8.257 0 0 1 8.258-8.258 8.26 8.26 0 0 1 8.258 8.258v5.505a8.26 8.26 0 0 1-8.258 8.258m38.114 0a8.257 8.257 0 0 1-8.258-8.258v-5.505c0-4.561 3.696-8.258 8.258-8.258s8.258 3.697 8.258 8.258v5.505a8.257 8.257 0 0 1-8.258 8.258m38.115 0a8.257 8.257 0 0 1-8.258-8.258v-5.505a8.257 8.257 0 0 1 8.258-8.258 8.257 8.257 0 0 1 8.258 8.258v5.505a8.26 8.26 0 0 1-8.258 8.258m38.114 0a8.26 8.26 0 0 1-8.258-8.258v-5.505a8.26 8.26 0 0 1 8.258-8.258 8.257 8.257 0 0 1 8.258 8.258v5.505a8.257 8.257 0 0 1-8.258 8.258m38.114 0a8.257 8.257 0 0 1-8.258-8.258v-5.505c0-4.561 3.696-8.258 8.258-8.258s8.258 3.697 8.258 8.258v5.505a8.26 8.26 0 0 1-8.258 8.258" style="fill:#fff"/><path d="M468.324 429.419H43.676C19.594 429.419 0 409.827 0 385.743V126.257c0-24.084 19.594-43.676 43.676-43.676h424.647c24.083 0 43.676 19.593 43.676 43.676v259.487c.001 24.083-19.593 43.675-43.675 43.675M43.676 99.097c-14.977 0-27.16 12.183-27.16 27.16v259.487c0 14.976 12.183 27.159 27.16 27.159h424.647c14.977 0 27.16-12.183 27.16-27.16V126.257c0-14.977-12.183-27.16-27.16-27.16z" style="fill:#111a21"/></svg>
