<svg xmlns="http://www.w3.org/2000/svg" xml:space="preserve" viewBox="0 0 512 512" width="48" height="48"><path d="M8.258 200.946h495.484v110.108H8.258z" style="fill:#fff"/><path d="M468.324 90.839H43.676c-19.561 0-35.418 15.857-35.418 35.418v74.689h495.484v-74.689c0-19.562-15.857-35.418-35.418-35.418" style="fill:#ed1f34"/><path d="M8.258 385.743c0 19.561 15.858 35.418 35.418 35.418h424.648c19.561 0 35.418-15.858 35.418-35.418v-74.689H8.258z" style="fill:#333"/><path d="M237.832 234.046a8.26 8.26 0 0 0-8.258 8.258v19.8h-7.708v-27.787c0-4.561-3.697-8.258-8.258-8.258s-8.258 3.697-8.258 8.258v27.787h-43.492a8.26 8.26 0 0 0-8.258 8.258v7.659a8.258 8.258 0 0 0 16.494.599h67.738a8.26 8.26 0 0 0 8.258-8.258v-28.058a8.26 8.26 0 0 0-8.258-8.258m112.31 28.058h-8.258v-11.933a8.257 8.257 0 0 0-8.258-8.258 8.257 8.257 0 0 0-8.258 8.258v11.933h-7.708v-28.126c0-4.561-3.696-8.258-8.258-8.258s-8.258 3.697-8.258 8.258v28.126h-7.708v-7.941c0-4.561-3.696-8.258-8.258-8.258s-8.258 3.697-8.258 8.258v16.199a8.257 8.257 0 0 0 8.258 8.258h64.963a8.257 8.257 0 0 0 8.258-8.258 8.256 8.256 0 0 0-8.257-8.258" style="fill:#259245"/><path d="M468.324 82.581H43.676C19.593 82.581 0 102.173 0 126.257v259.487c0 24.083 19.593 43.675 43.676 43.675h424.648c24.082 0 43.675-19.593 43.675-43.676V126.257c.001-24.084-19.593-43.676-43.675-43.676M43.676 99.097h424.648c14.976 0 27.159 12.183 27.159 27.16v66.431H16.516v-66.431c0-14.977 12.184-27.16 27.16-27.16m424.648 313.806H43.676c-14.977 0-27.16-12.183-27.16-27.16v-66.431h57.806a8.26 8.26 0 0 0 8.258-8.258 8.26 8.26 0 0 0-8.258-8.258H16.516v-93.591h478.968v93.591H107.355a8.26 8.26 0 0 0-8.258 8.258 8.26 8.26 0 0 0 8.258 8.258h388.129v66.431c0 14.977-12.184 27.16-27.16 27.16" style="fill:#111a21"/></svg>
