<svg xmlns="http://www.w3.org/2000/svg" xml:space="preserve" viewBox="0 0 512 512" width="48" height="48"><path d="M173.419 90.839H338.58v330.323H173.419z" style="fill:#fff"/><path d="M338.581 421.161V90.839h128.275c20.371 0 36.886 16.515 36.886 36.886v256.551c0 20.371-16.515 36.886-36.886 36.886z" style="fill:#ff7900"/><path d="M8.258 384.275v-256.55c0-20.371 16.515-36.886 36.886-36.886h128.275v330.323H45.144c-20.371-.001-36.886-16.516-36.886-36.887" style="fill:#259245"/><path d="M468.324 82.581H43.676C19.594 82.581 0 102.173 0 126.257v259.487c0 24.083 19.594 43.675 43.676 43.675h424.647c24.083 0 43.676-19.593 43.676-43.676V126.257c.001-24.084-19.593-43.676-43.675-43.676M16.516 385.743V126.257c0-14.977 12.183-27.16 27.16-27.16h121.485v222.968a8.257 8.257 0 0 0 8.258 8.258 8.257 8.257 0 0 0 8.258-8.258V99.097h148.645v313.806H181.677v-57.806a8.257 8.257 0 0 0-8.258-8.258 8.257 8.257 0 0 0-8.258 8.258v57.806H43.676c-14.976 0-27.16-12.183-27.16-27.16m478.968 0c0 14.977-12.183 27.16-27.16 27.16H346.839V99.097h121.485c14.977 0 27.16 12.183 27.16 27.16z" style="fill:#121b21"/></svg>
