<svg xmlns="http://www.w3.org/2000/svg" xml:space="preserve" viewBox="0 0 512 512" width="48" height="48"><path d="M503.742 126.257v259.487c0 19.561-15.858 35.418-35.418 35.418H43.676c-19.561-.001-35.418-15.858-35.418-35.419V126.257c0-19.562 15.858-35.418 35.418-35.418h424.648c19.56 0 35.418 15.856 35.418 35.418" style="fill:#ed1f34"/><path d="M302.018 263.096a77 77 0 0 0-2.669 5.59l-29.437-19.41-5.079-60.583c-.478-5.693-5.284-10.13-11.085-10.059l-75.082 2.784c12.449 15.683 33.527 25.607 57.076 24.733a77 77 0 0 0 6.176-.483l-2.091 35.198-49.926 34.69c-4.692 3.26-6.132 9.641-3.17 14.63l39.951 63.631c7.357-18.621 5.413-41.838-7.118-61.797a77 77 0 0 0-3.507-5.107l31.528-15.788 55.006 25.893c5.168 2.432 11.415.489 14.255-4.571l35.131-66.415c-19.807 2.94-38.939 16.232-49.959 37.064" style="fill:#fff"/><path d="m378.795 225.52-33.091-10.013a8.26 8.26 0 0 0-10.296 5.512c-.109.36-.183.722-.241 1.083-15.946 6.373-29.847 18.546-39.036 34.569l-18.324-12.082-4.745-56.586c-.829-9.885-9.252-17.628-19.176-17.628l-.238.001-.205.006-68.285 2.531-4.263-18.228a8.259 8.259 0 0 0-16.083 3.761l7.873 33.664a8.26 8.26 0 0 0 8.033 6.379c.622 0 1.255-.07 1.887-.219.378-.088.739-.21 1.091-.346 13.423 10.524 30.88 16.536 49.173 16.536l.251-.001-1.301 21.91-46.633 32.402c-8.247 5.73-10.688 16.986-5.558 25.628q.052.087.107.175l36.334 57.87-13.654 12.806a8.26 8.26 0 0 0 5.651 14.282c2.025 0 4.054-.74 5.647-2.234l25.22-23.649a8.26 8.26 0 0 0 .374-11.674 8 8 0 0 0-.818-.751c2.454-16.996-1.137-35.121-10.418-51.092l19.626-9.828 51.378 24.185a19.1 19.1 0 0 0 8.177 1.829 19.28 19.28 0 0 0 16.894-10.01l31.95-60.402 17.917 5.422a8.3 8.3 0 0 0 2.395.356 8.26 8.26 0 0 0 2.387-16.164m-69.186 62.946c-.585.983-1.595 1.336-2.359 1.336-.396 0-.782-.086-1.143-.257l-55.006-25.893a8.25 8.25 0 0 0-7.214.088l-31.528 15.788a8.256 8.256 0 0 0-2.92 12.322 70 70 0 0 1 3.131 4.56c6.967 11.096 10.423 23.555 10.156 35.574l-28.927-46.073a2.734 2.734 0 0 1 .815-3.574l49.926-34.69a8.26 8.26 0 0 0 3.531-6.292l2.091-35.198a8.257 8.257 0 0 0-9.212-8.69c-1.87.22-3.725.367-5.514.433-13.048.484-25.552-2.778-35.831-8.994l54.314-2.013a2.74 2.74 0 0 1 2.686 2.492l5.079 60.582a8.26 8.26 0 0 0 3.683 6.205l29.437 19.41a8.26 8.26 0 0 0 12.133-3.634 69 69 0 0 1 2.382-4.99c6.125-11.581 15.187-20.805 25.729-26.582z" style="fill:#1a1c20"/><path d="M468.324 82.581H43.676C19.593 82.581 0 102.173 0 126.256v259.487c0 24.084 19.593 43.676 43.676 43.676h424.648c24.083 0 43.675-19.593 43.675-43.676V126.256c.001-24.083-19.592-43.675-43.675-43.675m27.16 303.162c0 14.977-12.183 27.16-27.16 27.16H43.676c-14.977 0-27.16-12.183-27.16-27.16V126.256c0-14.976 12.183-27.159 27.16-27.159h424.648c14.976 0 27.159 12.183 27.159 27.159z" style="fill:#1a1c20"/></svg>
