<svg xmlns="http://www.w3.org/2000/svg" xml:space="preserve" viewBox="0 0 512 512" width="48" height="48"><path d="M8.258 150.297h495.484v211.406H8.258z" style="fill:#fff"/><path d="M468.324 90.839H43.676c-19.561 0-35.418 15.857-35.418 35.418v24.04h495.484v-24.04c0-19.562-15.858-35.418-35.418-35.418M8.258 385.743c0 19.561 15.858 35.418 35.418 35.418h424.648c19.561 0 35.418-15.858 35.418-35.418v-24.04H8.258zm184.807-84.599a8.808 8.808 0 0 1-7.628-13.213l62.935-109.006a8.808 8.808 0 0 1 15.256 0l62.935 109.006a8.808 8.808 0 0 1-7.628 13.213zM256 200.946l-47.678 82.581h95.356z" style="fill:#164fce"/><path d="M256 337.48a8.81 8.81 0 0 1-7.628-4.404L185.437 224.07a8.808 8.808 0 0 1 7.628-13.213h125.869a8.808 8.808 0 0 1 7.628 13.213l-62.935 109.006A8.81 8.81 0 0 1 256 337.48m-47.678-109.007L256 311.054l47.678-82.581z" style="fill:#164fce"/><path d="M468.324 82.581H43.676C19.593 82.581 0 102.173 0 126.257v259.487c0 24.083 19.593 43.675 43.676 43.675h424.648c24.083 0 43.675-19.593 43.675-43.676V126.257c.001-24.084-19.592-43.676-43.675-43.676M43.676 99.097h424.648c14.976 0 27.159 12.183 27.159 27.16v15.782h-57.806a8.26 8.26 0 0 0-8.258 8.258 8.26 8.26 0 0 0 8.258 8.258h57.806v194.89H16.516v-194.89h388.129a8.26 8.26 0 0 0 8.258-8.258 8.26 8.26 0 0 0-8.258-8.258H16.516v-15.782c0-14.977 12.184-27.16 27.16-27.16m424.648 313.806H43.676c-14.977 0-27.16-12.183-27.16-27.16v-15.782h478.968v15.782c0 14.977-12.184 27.16-27.16 27.16" style="fill:#111a21"/></svg>
