<svg xmlns="http://www.w3.org/2000/svg" xml:space="preserve" viewBox="0 0 512 512" width="48" height="48"><path d="M173.419 90.839H338.58v330.323H173.419z" style="fill:#fff"/><path d="M43.676 90.839c-19.561 0-35.418 15.857-35.418 35.418v259.487c0 19.561 15.858 35.418 35.418 35.418h129.743V90.84H43.676z" style="fill:#259245"/><path d="M468.324 90.839H338.581v330.323h129.743c19.561 0 35.418-15.858 35.418-35.418V126.257c0-19.562-15.858-35.418-35.418-35.418" style="fill:#ed1f34"/><path d="M468.324 82.581H43.676C19.593 82.581 0 102.173 0 126.257v259.487c0 24.083 19.593 43.675 43.676 43.675h424.648c24.083 0 43.675-19.593 43.675-43.676V126.257c.001-24.084-19.592-43.676-43.675-43.676M16.516 385.743V126.257c0-14.977 12.183-27.16 27.16-27.16h121.485v313.806H43.676c-14.976 0-27.16-12.183-27.16-27.16m478.968 0c0 14.977-12.183 27.16-27.16 27.16H346.839V189.935a8.26 8.26 0 0 0-8.258-8.258 8.26 8.26 0 0 0-8.258 8.258v222.968H181.677V99.097h148.645v57.806a8.26 8.26 0 0 0 8.258 8.258 8.26 8.26 0 0 0 8.258-8.258V99.097h121.485c14.977 0 27.16 12.183 27.16 27.16z" style="fill:#121b21"/></svg>
