<svg xmlns="http://www.w3.org/2000/svg" xml:space="preserve" viewBox="0 0 512 512" width="48" height="48"><path d="M503.008 137.155v255.787c.48-2.324.734-4.734.734-7.201V126.257c0-2.468-.253-4.877-.734-7.201zM21.525 413.37a35.26 35.26 0 0 0 22.151 7.791h424.648c8.242 0 15.82-2.824 21.838-7.545L255.633 275.88zM490.161 98.383a35.26 35.26 0 0 0-21.838-7.545H43.676a35.25 35.25 0 0 0-22.151 7.791l234.108 137.489z" style="fill:#259245"/><path d="m300.646 256 202.361-118.845v-18.099c-1.723-8.341-6.384-15.602-12.846-20.673L255.632 236.12 21.525 98.63c-8.085 6.492-13.267 16.452-13.267 27.627v10.898L210.619 256 8.258 374.845v10.898c0 11.175 5.181 21.135 13.267 27.627l234.108-137.489 234.529 137.737c6.462-5.07 11.123-12.332 12.846-20.673v-18.099z" style="fill:#ffe000"/><path d="M8.258 137.155v237.69L210.619 256zm494.75 237.69v-237.69L300.646 256z" style="fill:#333"/><path d="M468.324 429.419H43.676C19.593 429.419 0 409.826 0 385.743V126.257c0-24.083 19.593-43.676 43.676-43.676h424.648c24.082 0 43.675 19.594 43.675 43.676v259.486c.001 24.083-19.593 43.676-43.675 43.676M43.676 99.097c-14.977 0-27.16 12.183-27.16 27.16v259.486c0 14.977 12.183 27.16 27.16 27.16h424.648c14.976 0 27.159-12.183 27.159-27.16V126.257c0-14.977-12.183-27.16-27.16-27.16z" style="fill:#121b21"/></svg>
