<svg xmlns="http://www.w3.org/2000/svg" xml:space="preserve" viewBox="0 0 512 512" width="48" height="48"><path d="M503.742 130.194v251.611c0 21.735-17.62 39.356-39.356 39.356H47.614c-21.735 0-39.356-17.621-39.356-39.356V130.194c0-21.735 17.621-39.356 39.356-39.356h416.772c21.735.001 39.356 17.621 39.356 39.356" style="fill:#fff"/><circle cx="256" cy="256" r="82.581" style="fill:#ed1f34"/><path d="M256 165.161c-50.089 0-90.839 40.751-90.839 90.839s40.75 90.839 90.839 90.839 90.839-40.751 90.839-90.839-40.75-90.839-90.839-90.839m0 165.162c-40.982 0-74.323-33.341-74.323-74.323s33.341-74.323 74.323-74.323 74.323 33.341 74.323 74.323-33.341 74.323-74.323 74.323" style="fill:#121b21"/><path d="M468.324 82.581H43.675C19.593 82.581 0 102.174 0 126.257v259.486c0 24.083 19.593 43.676 43.675 43.676h424.648c24.084 0 43.676-19.594 43.676-43.676V126.257c.001-24.083-19.592-43.676-43.675-43.676m27.16 303.162c0 14.977-12.183 27.16-27.16 27.16H43.675c-14.976 0-27.159-12.183-27.159-27.16V126.257c0-14.977 12.183-27.16 27.159-27.16h424.648c14.977 0 27.16 12.183 27.16 27.16z" style="fill:#121b21"/></svg>
