<svg xmlns="http://www.w3.org/2000/svg" xml:space="preserve" viewBox="0 0 512 512" width="48" height="48"><path d="M503.742 126.256v259.487c0 19.561-15.857 35.418-35.418 35.418H43.676c-19.561 0-35.418-15.858-35.418-35.418V126.256c0-19.561 15.858-35.418 35.418-35.418h424.648c19.561 0 35.418 15.857 35.418 35.418" style="fill:#fff"/><path d="M233.94 126.545c-2.475 5.479-3.909 11.942-3.909 18.87 0 28.079 25.969 41.689 25.969 41.689s25.969-13.611 25.969-41.689c0-6.928-1.434-13.391-3.909-18.87z" style="fill:#ed1f34"/><path d="m8.821 119.995 204.006 136.004L8.821 392.003c2.957 16.572 17.43 29.156 34.852 29.158h7.758L256 284.782l204.569 136.379h7.758c17.422-.001 31.895-12.585 34.852-29.158L299.173 255.999l204.006-136.004c-2.957-16.573-17.432-29.158-34.855-29.158h-7.756L256 227.217 51.431 90.838h-7.756c-17.422 0-31.897 12.585-34.854 29.157" style="fill:#ed1f34"/><path d="M259.833 194.419c1.241-.651 30.394-16.306 30.394-49.003 0-7.847-1.605-15.548-4.642-22.27a8.26 8.26 0 0 0-7.526-4.858h-44.118a8.26 8.26 0 0 0-7.526 4.858c-3.037 6.721-4.642 14.422-4.642 22.27 0 32.698 29.153 48.354 30.394 49.003a8.26 8.26 0 0 0 7.666 0m-21.544-49.003c0-3.669.486-7.264 1.421-10.612h32.579c.937 3.348 1.421 6.942 1.421 10.612 0 16.819-11.489 27.406-17.711 31.906-6.221-4.502-17.71-15.087-17.71-31.906" style="fill:#1a1c20"/><path d="M512 385.743V126.256c0-1.572-.088-3.125-.251-4.655a8.23 8.23 0 0 0-1.136-6.561c-.041-.061-.087-.115-.129-.174-5.024-18.575-22.017-32.286-42.16-32.286H43.676c-20.142 0-37.136 13.709-42.16 32.286-.042.059-.089.113-.129.174a8.22 8.22 0 0 0-1.136 6.561A44 44 0 0 0 0 126.256v259.487c0 1.572.088 3.125.251 4.654a8.23 8.23 0 0 0 1.136 6.561c.04.059.087.109.127.166 5.022 18.581 22.017 32.295 42.162 32.295h416.871l.015.001.018-.001h7.745c20.145 0 37.14-13.714 42.162-32.293.041-.057.088-.108.127-.166a8.22 8.22 0 0 0 1.136-6.561c.162-1.531.25-3.084.25-4.656M314.061 255.999 495.484 135.05v241.897zM433.295 99.096 256 217.293 78.705 99.096zM78.705 412.903 256 294.706l177.295 118.197zm389.619 0h-5.255L260.58 277.911a8.25 8.25 0 0 0-9.161 0L48.931 412.903h-5.254c-11.513 0-21.367-7.203-25.314-17.335l32.707-21.805a8.258 8.258 0 0 0-9.161-13.741l-25.393 16.927V135.05l181.423 120.949-128.546 85.698a8.257 8.257 0 0 0-2.29 11.451 8.25 8.25 0 0 0 6.878 3.679 8.2 8.2 0 0 0 4.573-1.388l138.851-92.569a8.256 8.256 0 0 0 0-13.742L18.363 116.432c3.946-10.133 13.802-17.335 25.314-17.335h5.254l202.488 134.992c1.387.925 2.984 1.387 4.58 1.387s3.193-.462 4.58-1.387L463.067 99.097h5.255c11.513 0 21.367 7.203 25.314 17.335L294.594 249.128a8.256 8.256 0 0 0 0 13.742l199.044 132.696c-3.947 10.134-13.802 17.337-25.314 17.337" style="fill:#1a1c20"/></svg>
