<svg xmlns="http://www.w3.org/2000/svg" xml:space="preserve" viewBox="0 0 512 512" width="48" height="48"><path d="m256 256-82.581 55.054h330.323V200.946H173.419z" style="fill:#fff"/><path d="M20.818 412.789a35.26 35.26 0 0 0 22.858 8.373h424.648c19.561 0 35.418-15.858 35.418-35.418v-74.689H173.42z" style="fill:#259245"/><path d="M468.324 90.839H43.676a35.26 35.26 0 0 0-22.858 8.373l152.601 101.735h330.323v-74.689c0-19.563-15.858-35.419-35.418-35.419" style="fill:#333"/><path d="m256 256-82.581-55.054L20.818 99.211c-7.679 6.497-12.56 16.199-12.56 27.046v259.486c0 10.847 4.881 20.548 12.56 27.045l152.601-101.734z" style="fill:#ed1f34"/><path d="m98.546 212.86 9.545 23.32 24.183-7.077-12.281 22.002 20.612 14.494-24.86 4.117 1.52 25.152-18.719-16.87-18.718 16.87 1.518-25.152-24.859-4.117 20.612-14.494-12.281-22.002 24.183 7.077z" style="fill:#fff"/><path d="M468.324 82.581H43.675c-10.584 0-20.298 3.787-27.865 10.073q-.437.33-.834.722C5.809 101.387 0 113.153 0 126.257v259.487c0 13.168 5.865 24.983 15.111 32.998q.286.273.593.514c7.583 6.339 17.338 10.163 27.971 10.163h424.648c24.084 0 43.676-19.593 43.676-43.676V126.257c.001-24.084-19.592-43.676-43.675-43.676M21.994 402.079a27 27 0 0 1-5.478-16.336V126.257a27 27 0 0 1 5.478-16.336l146.799 97.866.022.014L241.112 256zM260.58 262.871a8.26 8.26 0 0 0 0-13.742l-59.886-39.925h294.79v93.591h-294.79zM468.324 99.097c14.977 0 27.16 12.183 27.16 27.16v66.431H175.92L36.841 99.969a27 27 0 0 1 6.834-.872zm0 313.806H43.675c-2.36 0-4.65-.304-6.834-.872l139.079-92.719h319.564v66.431c0 14.977-12.184 27.16-27.16 27.16" style="fill:#111a21"/></svg>
