<svg xmlns="http://www.w3.org/2000/svg" xml:space="preserve" viewBox="0 0 512 512" width="48" height="48"><path d="M503.742 124.972v262.056c0 18.852-15.282 34.133-34.133 34.133H42.391c-18.852 0-34.133-15.282-34.133-34.133V124.972c0-18.852 15.282-34.133 34.133-34.133h427.217c18.852 0 34.134 15.282 34.134 34.133" style="fill:#3db4ea"/><path d="M299.676 184.367c-20.643 0-37.437 16.794-37.437 37.437s16.794 37.437 37.437 37.437 37.437-16.794 37.437-37.437-16.795-37.437-37.437-37.437" style="fill:#ffe000"/><path d="M299.676 267.499c-25.196 0-45.695-20.499-45.695-45.695s20.499-45.695 45.695-45.695 45.695 20.499 45.695 45.695-20.499 45.695-45.695 45.695m0-74.874c-16.089 0-29.178 13.09-29.178 29.178s13.09 29.178 29.178 29.178 29.178-13.09 29.178-29.178-13.089-29.178-29.178-29.178m-28.61 100.187a8.2 8.2 0 0 1-3.424-.749c-27.438-12.528-45.166-40.107-45.166-70.26a8.257 8.257 0 0 1 8.258-8.258 8.257 8.257 0 0 1 8.258 8.258c0 23.705 13.939 45.386 35.511 55.235a8.257 8.257 0 0 1 4.082 10.942 8.26 8.26 0 0 1-7.519 4.832" style="fill:#ffe000"/><path d="M273.322 335.892a8.256 8.256 0 0 1-6.712-13.057l26.347-36.885a8.26 8.26 0 0 1 6.719-3.458c33.463 0 60.686-27.224 60.686-60.686a8.257 8.257 0 0 1 8.258-8.258 8.257 8.257 0 0 1 8.258 8.258c0 41.114-32.307 74.826-72.867 77.082l-23.963 33.548a8.25 8.25 0 0 1-6.726 3.456m-42.589-105.83h-51.04a8.257 8.257 0 0 1-8.258-8.258 8.257 8.257 0 0 1 8.258-8.258h51.04a8.258 8.258 0 0 1 0 16.516" style="fill:#ffe000"/><path d="M419.659 230.062H368.62a8.257 8.257 0 0 1-8.258-8.258 8.257 8.257 0 0 1 8.258-8.258h51.039a8.257 8.257 0 0 1 8.258 8.258 8.26 8.26 0 0 1-8.258 8.258M236.947 258.69h-34.132c-4.562 0-8.258-3.697-8.258-8.258s3.696-8.258 8.258-8.258h34.132c4.562 0 8.258 3.697 8.258 8.258s-3.696 8.258-8.258 8.258m159.59 0h-34.132c-4.562 0-8.258-3.697-8.258-8.258s3.696-8.258 8.258-8.258h34.132c4.562 0 8.258 3.697 8.258 8.258s-3.697 8.258-8.258 8.258M52.289 385.376a8.26 8.26 0 0 1-6.225-13.683l37.483-43.027-37.482-43.026a8.256 8.256 0 0 1 .001-10.849l37.482-43.02-37.483-43.021a8.26 8.26 0 0 1 .001-10.85l42.209-48.444a8.259 8.259 0 0 1 12.452 10.85l-37.482 43.019 37.483 43.021a8.26 8.26 0 0 1-.001 10.85l-37.482 43.02 37.483 43.027a8.26 8.26 0 0 1 0 10.849l-42.209 48.451a8.24 8.24 0 0 1-6.23 2.833" style="fill:#ffe000"/><path d="M94.504 385.376a8.24 8.24 0 0 1-6.23-2.834l-42.209-48.451a8.26 8.26 0 0 1 0-10.849l37.483-43.027-37.482-43.02a8.26 8.26 0 0 1-.001-10.85l37.483-43.021-37.482-43.019a8.26 8.26 0 0 1 .802-11.652 8.256 8.256 0 0 1 11.65.802l42.208 48.445a8.26 8.26 0 0 1 .001 10.85l-37.483 43.021 37.482 43.02a8.256 8.256 0 0 1 .001 10.849l-37.483 43.027 37.483 43.027a8.258 8.258 0 0 1-6.223 13.682" style="fill:#ffe000"/><path d="M468.324 429.419H43.676C19.594 429.419 0 409.827 0 385.743V126.257c0-24.084 19.594-43.676 43.676-43.676h424.647c24.083 0 43.676 19.593 43.676 43.676v259.487c.001 24.083-19.593 43.675-43.675 43.675M43.676 99.097c-14.977 0-27.16 12.183-27.16 27.16v259.487c0 14.976 12.183 27.159 27.16 27.159h424.647c14.977 0 27.16-12.183 27.16-27.16V126.257c0-14.977-12.183-27.16-27.16-27.16z" style="fill:#111a21"/></svg>
