<svg xmlns="http://www.w3.org/2000/svg" xml:space="preserve" viewBox="0 0 512 512" width="48" height="48"><path d="M8.258 385.743c0 19.561 15.858 35.418 35.418 35.418h424.648c19.561 0 35.418-15.857 35.418-35.418V330.98H8.258z" style="fill:#259245"/><path d="M468.324 90.839H43.676c-19.561 0-35.418 15.857-35.418 35.417v54.763h495.484v-54.763c0-19.561-15.857-35.417-35.418-35.417" style="fill:#333"/><path d="M8.258 208.544h495.484v94.924H8.258z" style="fill:#ed1f34"/><path d="M8.258 181.017h495.484v27.52H8.258zm0 122.439h495.484v27.52H8.258z" style="fill:#fff"/><path d="M468.324 82.581H43.676C19.594 82.581 0 102.174 0 126.257v259.486c0 24.083 19.594 43.676 43.676 43.676h424.647c24.083 0 43.676-19.594 43.676-43.676V126.257c.001-24.083-19.593-43.676-43.675-43.676M43.676 99.097h424.647c14.977 0 27.16 12.183 27.16 27.16v74.024H16.516v-74.024c0-14.977 12.184-27.16 27.16-27.16m424.648 313.806H43.676c-14.977 0-27.16-12.183-27.16-27.16v-74.025h421.161c4.562 0 8.258-3.696 8.258-8.258s-3.696-8.258-8.258-8.258H16.516v-78.404h478.968v78.404H470.71c-4.562 0-8.258 3.696-8.258 8.258s3.696 8.258 8.258 8.258h24.774v74.025c0 14.977-12.184 27.16-27.16 27.16" style="fill:#111a21"/><path d="M153.6 366.658a8.258 8.258 0 0 1-5.84-14.097l204.8-204.8a8.258 8.258 0 0 1 11.679 11.679l-204.8 204.8a8.23 8.23 0 0 1-5.839 2.418" style="fill:#111a21"/><path d="M358.4 366.658a8.24 8.24 0 0 1-5.84-2.418l-204.8-204.8a8.258 8.258 0 0 1 11.679-11.679l204.8 204.8a8.258 8.258 0 0 1-5.839 14.097" style="fill:#111a21"/><path d="M256 154.701c-18.718 0-55.054 45.353-55.054 101.299S237.282 357.299 256 357.299 311.054 311.946 311.054 256 274.718 154.701 256 154.701" style="fill:#ed1f34"/><path d="M295.088 319.712c9.197-17.404 15.966-39.569 15.966-63.712s-6.768-46.308-15.966-63.712c-9.197 17.404-15.966 39.569-15.966 63.712s6.769 46.308 15.966 63.712m-78.176 0c-9.197-17.404-15.966-39.569-15.966-63.712s6.768-46.308 15.966-63.712c9.197 17.404 15.966 39.569 15.966 63.712s-6.769 46.308-15.966 63.712" style="fill:#333"/><path d="M256 365.557a8.256 8.256 0 0 1-8.258-8.258V154.701a8.256 8.256 0 0 1 8.258-8.258 8.256 8.256 0 0 1 8.258 8.258v202.598a8.256 8.256 0 0 1-8.258 8.258" style="fill:#fff"/><path d="M256 365.557c-12.733 0-28.654-12.859-41.555-33.56-8.126-13.039-21.757-40.251-21.757-75.997 0-35.745 13.631-62.957 21.757-75.996 12.9-20.701 28.822-33.561 41.555-33.561s28.654 12.859 41.555 33.561c8.126 13.04 21.757 40.252 21.757 75.996 0 35.746-13.631 62.958-21.757 75.997-12.901 20.701-28.822 33.56-41.555 33.56m0-202.598c-11.311 0-46.796 38.607-46.796 93.041s35.484 93.041 46.796 93.041 46.796-38.607 46.796-93.041-35.485-93.041-46.796-93.041" style="fill:#111a21"/></svg>
