<svg xmlns="http://www.w3.org/2000/svg" xml:space="preserve" viewBox="0 0 512 512" width="48" height="48"><path d="M472.358 421.161H39.644c-17.334 0-31.385-14.052-31.385-31.385V122.223c0-17.334 14.052-31.385 31.385-31.385h432.713c17.334 0 31.385 14.052 31.385 31.385v267.553c.001 17.334-14.051 31.385-31.384 31.385" style="fill:#ed1f34"/><path d="M255.995 193.677c-32.28 0-58.543 26.262-58.543 58.543s26.262 58.543 58.543 58.543 58.543-26.262 58.543-58.543c-.001-32.281-26.263-58.543-58.543-58.543" style="fill:#ffe000"/><path d="M255.995 319.021c-36.834 0-66.801-29.966-66.801-66.801s29.966-66.801 66.801-66.801 66.802 29.967 66.802 66.801-29.968 66.801-66.802 66.801m0-117.086c-27.728 0-50.285 22.558-50.285 50.285s22.557 50.285 50.285 50.285 50.286-22.557 50.286-50.285-22.559-50.285-50.286-50.285" style="fill:#111a21"/><path d="M421.158 265.909c-41.293 0-41.293-19.819-82.585-19.819-41.29 0-41.29 19.819-82.582 19.819-41.289 0-41.289-19.819-82.579-19.819-41.287 0-41.287 19.819-82.575 19.819-41.287 0-41.289-19.817-82.572-19.819v139.65c0 19.56 15.857 35.417 35.417 35.417H468.32c19.56 0 35.417-15.857 35.417-35.417V246.091c-41.286.002-41.289 19.818-82.579 19.818" style="fill:#103b9b"/><path d="M421.158 362.251c-22.525 0-34.395-5.697-44.867-10.723-10.169-4.881-18.952-9.096-37.72-9.096-18.766 0-27.548 4.216-37.716 9.096-10.471 5.026-22.34 10.723-44.864 10.723s-34.391-5.697-44.863-10.723c-10.168-4.881-18.95-9.096-37.716-9.096-18.764 0-27.546 4.216-37.714 9.096-10.471 5.026-22.338 10.723-44.861 10.723-22.524 0-34.391-5.697-44.863-10.723-10.168-4.881-18.95-9.096-37.715-9.096a8.26 8.26 0 0 1-8.258-8.258 8.26 8.26 0 0 1 8.258-8.258c22.524 0 34.391 5.697 44.863 10.723 10.168 4.881 18.95 9.096 37.715 9.096 18.764 0 27.546-4.216 37.714-9.096 10.471-5.026 22.338-10.723 44.861-10.723 22.524 0 34.392 5.697 44.863 10.723 10.168 4.881 18.95 9.096 37.715 9.096s27.549-4.216 37.717-9.097c10.471-5.026 22.34-10.722 44.864-10.722 22.525 0 34.395 5.697 44.865 10.722 10.169 4.881 18.952 9.097 37.72 9.097s27.55-4.216 37.72-9.097c10.471-5.026 22.34-10.722 44.865-10.722a8.26 8.26 0 0 1 8.258 8.258 8.26 8.26 0 0 1-8.258 8.258c-18.767 0-27.549 4.216-37.72 9.097-10.468 5.025-22.338 10.722-44.863 10.722m0-44.042c-22.525 0-34.395-5.697-44.867-10.723-10.169-4.881-18.952-9.096-37.72-9.096-18.766 0-27.548 4.216-37.716 9.096-10.471 5.026-22.34 10.723-44.864 10.723s-34.391-5.697-44.863-10.723c-10.168-4.881-18.95-9.096-37.716-9.096-18.764 0-27.546 4.216-37.714 9.096-10.471 5.026-22.338 10.723-44.861 10.723-22.524 0-34.391-5.697-44.863-10.723-10.168-4.881-18.95-9.096-37.715-9.096a8.26 8.26 0 0 1-8.258-8.258 8.26 8.26 0 0 1 8.258-8.258c22.524 0 34.391 5.697 44.863 10.723 10.168 4.881 18.95 9.096 37.715 9.096 18.764 0 27.546-4.216 37.714-9.096 10.471-5.026 22.338-10.723 44.861-10.723 22.524 0 34.392 5.697 44.863 10.723 10.168 4.881 18.95 9.096 37.715 9.096s27.549-4.216 37.717-9.097c10.471-5.026 22.34-10.722 44.864-10.722 22.525 0 34.395 5.697 44.865 10.722 10.169 4.881 18.952 9.097 37.72 9.097s27.55-4.216 37.72-9.097c10.471-5.026 22.34-10.722 44.865-10.722a8.26 8.26 0 0 1 8.258 8.258 8.26 8.26 0 0 1-8.258 8.258c-18.767 0-27.549 4.216-37.72 9.097-10.468 5.025-22.338 10.722-44.863 10.722m0-44.042c-22.525 0-34.395-5.697-44.867-10.723-10.169-4.881-18.952-9.096-37.72-9.096-18.766 0-27.548 4.216-37.716 9.096-10.471 5.026-22.34 10.723-44.864 10.723s-34.391-5.697-44.863-10.723c-10.168-4.881-18.95-9.096-37.716-9.096-18.764 0-27.546 4.216-37.714 9.096-10.471 5.026-22.338 10.723-44.861 10.723-22.524 0-34.391-5.697-44.863-10.723-10.168-4.881-18.95-9.096-37.715-9.096-4.561 0-8.258-3.697-8.258-8.258s3.697-8.258 8.258-8.258c22.524 0 34.391 5.697 44.863 10.723 10.168 4.881 18.95 9.096 37.715 9.096 18.764 0 27.546-4.216 37.714-9.096 10.471-5.026 22.338-10.723 44.861-10.723 22.524 0 34.392 5.697 44.863 10.723 10.168 4.881 18.95 9.096 37.715 9.096s27.549-4.216 37.717-9.097c10.471-5.025 22.34-10.722 44.864-10.722 22.525 0 34.395 5.697 44.865 10.722 10.169 4.881 18.952 9.097 37.72 9.097s27.55-4.216 37.72-9.097c10.471-5.025 22.34-10.722 44.865-10.722 4.561 0 8.258 3.697 8.258 8.258s-3.697 8.258-8.258 8.258c-18.767 0-27.549 4.216-37.72 9.097-10.468 5.025-22.338 10.722-44.863 10.722" style="fill:#fff"/><path d="M323.495 130.486h-49.337a8.26 8.26 0 0 0-5.427 2.034l-12.737 11.104-12.737-11.104a8.26 8.26 0 0 0-5.427-2.034h-49.337a8.26 8.26 0 0 0-8.258 8.258 8.26 8.26 0 0 0 8.258 8.258h46.243l15.831 13.803a8.24 8.24 0 0 0 5.427 2.034 8.24 8.24 0 0 0 5.426-2.034l15.832-13.803h46.242c4.561 0 8.258-3.697 8.258-8.258s-3.696-8.258-8.257-8.258" style="fill:#111a21"/><path d="M468.319 429.415H43.682C19.6 429.415.007 409.823.007 385.74V126.26c0-24.082 19.592-43.674 43.675-43.674h424.637c24.082 0 43.675 19.592 43.675 43.674v259.48c.001 24.082-19.593 43.675-43.675 43.675M43.682 99.101c-14.975 0-27.16 12.183-27.16 27.158v259.48c0 14.975 12.183 27.16 27.16 27.16h424.637c14.975 0 27.16-12.183 27.16-27.16v-259.48c0-14.975-12.183-27.158-27.16-27.158z" style="fill:#111a21"/></svg>
