<svg xmlns="http://www.w3.org/2000/svg" xml:space="preserve" viewBox="0 0 512 512" width="48" height="48"><path d="M8.258 385.927V126.073c0-19.459 15.775-35.234 35.234-35.234h425.015c19.459 0 35.234 15.775 35.234 35.234v259.854c0 19.459-15.775 35.234-35.234 35.234H43.492c-19.459 0-35.234-15.775-35.234-35.234" style="fill:#103b9b"/><circle cx="232.371" cy="161.153" r="11.404" style="fill:#fff"/><circle cx="184.232" cy="167.154" r="11.403" style="fill:#fff"/><circle cx="137.216" cy="179.145" r="11.402" style="fill:#fff"/><circle cx="279.629" cy="161.153" r="11.404" style="fill:#fff"/><circle cx="327.768" cy="167.154" r="11.403" style="fill:#fff"/><circle cx="374.784" cy="179.145" r="11.402" style="fill:#fff"/><path d="M282.299 217.158c-8.087-3.428-16.981-5.325-26.318-5.325a67.3 67.3 0 0 0-23.652 4.271 39.9 39.9 0 0 1 4.175 17.811c0 22.135-17.944 40.079-40.079 40.079-2.619 0-5.177-.259-7.657-.739l54.045 88.998c6.802 0 12.318-5.515 12.318-12.318v-3.125c.284.003.565.022.85.022 35.394 0 64.405-27.247 67.25-61.907z" style="fill:#f2a643"/><path d="M289.368 212.888a8.26 8.26 0 0 0-3.846-3.333c-9.361-3.967-19.3-5.979-29.54-5.979a75.5 75.5 0 0 0-26.547 4.795 8.26 8.26 0 0 0-4.502 11.41 31.5 31.5 0 0 1 3.312 14.135c0 17.547-14.274 31.821-31.821 31.821-2.022 0-4.07-.198-6.087-.589a8.25 8.25 0 0 0-8.347 3.389 8.26 8.26 0 0 0-.281 9.005l54.045 88.999a8.26 8.26 0 0 0 7.059 3.972c9.676 0 17.813-6.713 19.999-15.727 16.623-1.492 32.257-8.408 44.611-19.85 13.951-12.92 22.487-30.44 24.039-49.334a8.25 8.25 0 0 0-1.162-4.945zM255.99 338.574l-.194-.006q-.277-.01-.556-.015a8.22 8.22 0 0 0-5.909 2.381 8.26 8.26 0 0 0-2.456 5.878v3.125c0 .774-.218 1.497-.595 2.113l-42.705-70.325c23.276-3.466 41.189-23.585 41.189-47.81 0-4.25-.54-8.405-1.611-12.427a59.3 59.3 0 0 1 12.831-1.397c7.137 0 14.083 1.246 20.681 3.708l38.069 63.026c-3.709 29.222-29.026 51.749-58.744 51.749" style="fill:#121b21"/><path d="M468.324 82.581H43.676C19.593 82.581 0 102.173 0 126.256v259.487c0 24.084 19.593 43.676 43.676 43.676h424.648c24.083 0 43.675-19.593 43.675-43.676V126.256c.001-24.083-19.592-43.675-43.675-43.675m27.16 303.162c0 14.977-12.183 27.16-27.16 27.16H43.676c-14.977 0-27.16-12.183-27.16-27.16V126.256c0-14.976 12.183-27.159 27.16-27.159h424.648c14.976 0 27.159 12.183 27.159 27.159z" style="fill:#121b21"/></svg>
