<svg xmlns="http://www.w3.org/2000/svg" xml:space="preserve" viewBox="0 0 512 512" width="48" height="48"><path d="M173.419 200.946h330.323v110.108H173.419z" style="fill:#fff"/><path d="M468.324 90.839H43.676a35.27 35.27 0 0 0-22.858 8.373l152.601 101.735h330.323v-74.69c0-19.562-15.857-35.418-35.418-35.418" style="fill:#259245"/><path d="M20.818 412.789a35.27 35.27 0 0 0 22.858 8.373h424.648c19.561 0 35.418-15.858 35.418-35.418v-74.689H173.42z" style="fill:#ed1f34"/><path d="m28.55 104.367 144.87 96.58v110.108l-144.87 96.58c-8.673 5.783-20.292-.435-20.292-10.86V115.226c0-10.425 11.619-16.642 20.292-10.859" style="fill:#333"/><path d="M468.324 82.581H43.676c-10.582 0-20.296 3.785-27.863 10.07-.292.222-.574.46-.837.725C5.808 101.388 0 113.153 0 126.256v259.487c0 13.168 5.865 24.983 15.111 32.998q.286.273.592.513c7.583 6.341 17.339 10.165 27.973 10.165h424.648c24.082 0 43.675-19.593 43.675-43.676V126.256c.001-24.083-19.593-43.675-43.675-43.675m0 16.516c14.977 0 27.16 12.183 27.16 27.159v176.54H181.677v-93.591h256c4.562 0 8.258-3.697 8.258-8.258s-3.696-8.258-8.258-8.258H175.919L36.841 99.969a27 27 0 0 1 6.835-.872zM21.994 402.079a27 27 0 0 1-5.478-16.336V126.256a27 27 0 0 1 5.478-16.336l143.167 95.446v101.269zm446.33 10.824H43.676c-2.361 0-4.65-.304-6.835-.872l139.078-92.719h319.565v66.431c0 14.977-12.184 27.16-27.16 27.16" style="fill:#111a21"/></svg>
