<svg xmlns="http://www.w3.org/2000/svg" xml:space="preserve" viewBox="0 0 512 512" width="48" height="48"><path d="M503.742 384.826V127.174c0-20.067-16.268-36.335-36.335-36.335H44.594c-20.067 0-36.335 16.268-36.335 36.335v257.652c0 20.067 16.268 36.335 36.335 36.335h422.813c20.067 0 36.335-16.268 36.335-36.335" style="fill:#ed1f34"/><path d="M256 346.839c-50.089 0-90.839-40.75-90.839-90.839s40.75-90.839 90.839-90.839 90.839 40.75 90.839 90.839-40.75 90.839-90.839 90.839m0-165.162c-40.982 0-74.323 33.341-74.323 74.323s33.341 74.323 74.323 74.323 74.323-33.341 74.323-74.323-33.341-74.323-74.323-74.323" style="fill:#ffe000"/><path d="M256 240.282c-20.991 12.295-35.445 34.578-36.775 60.285 10 8.267 22.818 13.239 36.775 13.239s26.775-4.972 36.775-13.239c-1.33-25.707-15.784-47.99-36.775-60.285m18.15-7.604c16.086 12.487 27.887 30.241 32.771 50.655A57.45 57.45 0 0 0 313.806 256a57.4 57.4 0 0 0-5.402-24.36 74.4 74.4 0 0 0-14.968-1.515c-6.67 0-13.132.897-19.286 2.553M256 221.715a90.3 90.3 0 0 1 37.437-8.106c.623 0 1.239.034 1.86.047-10.323-9.586-24.133-15.462-39.296-15.462s-28.974 5.876-39.296 15.462c.621-.012 1.235-.047 1.86-.047A90.3 90.3 0 0 1 256 221.715m-50.921 61.618c4.884-20.414 16.686-38.169 32.771-50.655a74 74 0 0 0-19.286-2.553c-5.126 0-10.132.522-14.968 1.515a57.5 57.5 0 0 0-5.402 24.36c0 9.881 2.496 19.19 6.885 27.333M256 181.677a8.26 8.26 0 0 1-8.258-8.258v-16.883a8.26 8.26 0 0 1 8.258-8.258 8.26 8.26 0 0 1 8.258 8.258v16.883a8.26 8.26 0 0 1-8.258 8.258m-28.244 4.983a8.26 8.26 0 0 1-7.76-5.436l-5.775-15.865a8.26 8.26 0 0 1 15.52-5.65l5.775 15.865a8.26 8.26 0 0 1-7.76 11.086m-24.833 14.338a8.24 8.24 0 0 1-6.331-2.95l-10.852-12.933a8.258 8.258 0 0 1 12.652-10.616l10.852 12.933a8.258 8.258 0 0 1-6.321 13.566m-18.448 21.971a8.2 8.2 0 0 1-4.121-1.108l-14.621-8.442a8.257 8.257 0 0 1-3.022-11.281 8.256 8.256 0 0 1 11.281-3.022l14.621 8.442a8.257 8.257 0 0 1 3.022 11.281 8.26 8.26 0 0 1-7.16 4.13m-9.792 26.951q-.716 0-1.444-.127l-16.627-2.932a8.258 8.258 0 0 1 2.867-16.265l16.627 2.932a8.258 8.258 0 0 1-1.423 16.392m-16.646 31.612a8.258 8.258 0 0 1-1.424-16.392l16.627-2.932a8.258 8.258 0 0 1 2.867 16.265l-16.627 2.932a8.4 8.4 0 0 1-1.443.127m11.832 32.459a8.26 8.26 0 0 1-4.137-15.411l14.621-8.441a8.258 8.258 0 0 1 8.259 14.302l-14.621 8.442a8.2 8.2 0 0 1-4.122 1.108m22.193 26.46a8.257 8.257 0 0 1-6.322-13.565l10.852-12.933a8.259 8.259 0 0 1 12.652 10.616l-10.852 12.933a8.24 8.24 0 0 1-6.33 2.949m29.919 17.275a8.26 8.26 0 0 1-7.759-11.085l5.775-15.865a8.26 8.26 0 0 1 15.52 5.65l-5.775 15.865a8.26 8.26 0 0 1-7.761 5.435M256 363.722a8.26 8.26 0 0 1-8.258-8.258v-16.883a8.26 8.26 0 0 1 8.258-8.258 8.26 8.26 0 0 1 8.258 8.258v16.883a8.26 8.26 0 0 1-8.258 8.258m34.019-5.996a8.26 8.26 0 0 1-7.76-5.435l-5.775-15.865a8.26 8.26 0 0 1 15.52-5.65l5.775 15.865a8.26 8.26 0 0 1-7.76 11.085m29.919-17.275a8.24 8.24 0 0 1-6.33-2.95l-10.852-12.933a8.258 8.258 0 0 1 12.652-10.616l10.852 12.933a8.258 8.258 0 0 1-6.322 13.566m22.193-26.46a8.2 8.2 0 0 1-4.121-1.108l-14.621-8.442a8.257 8.257 0 0 1-3.022-11.281 8.256 8.256 0 0 1 11.281-3.022l14.621 8.441a8.257 8.257 0 0 1 3.022 11.281 8.26 8.26 0 0 1-7.16 4.131m11.832-32.459q-.716 0-1.444-.127l-16.627-2.932a8.258 8.258 0 0 1 2.868-16.265l16.627 2.932a8.258 8.258 0 0 1-1.424 16.392m-16.646-31.612a8.258 8.258 0 0 1-1.425-16.392l16.627-2.932a8.258 8.258 0 0 1 2.868 16.265l-16.627 2.932a8.4 8.4 0 0 1-1.443.127m-9.792-26.951a8.26 8.26 0 0 1-4.137-15.411l14.621-8.442a8.26 8.26 0 0 1 8.259 14.303l-14.621 8.442a8.2 8.2 0 0 1-4.122 1.108m-18.448-21.971a8.257 8.257 0 0 1-6.322-13.565l10.852-12.933c2.931-3.495 8.14-3.948 11.634-1.018a8.257 8.257 0 0 1 1.018 11.634l-10.852 12.933a8.24 8.24 0 0 1-6.33 2.949m-24.833-14.338a8.26 8.26 0 0 1-7.759-11.085l5.775-15.865a8.259 8.259 0 0 1 15.52 5.65l-5.775 15.865a8.26 8.26 0 0 1-7.761 5.435" style="fill:#ffe000"/><path d="M468.324 429.419H43.676C19.593 429.419 0 409.827 0 385.743V126.257c0-24.084 19.593-43.676 43.676-43.676h424.648c24.083 0 43.675 19.593 43.675 43.676v259.487c.001 24.083-19.592 43.675-43.675 43.675M43.676 99.097c-14.977 0-27.16 12.183-27.16 27.16v259.487c0 14.976 12.183 27.159 27.16 27.159h424.648c14.976 0 27.159-12.183 27.159-27.16V126.257c0-14.977-12.183-27.16-27.16-27.16z" style="fill:#111a21"/></svg>
