<svg xmlns="http://www.w3.org/2000/svg" xml:space="preserve" viewBox="0 0 512 512" width="48" height="48"><path d="M8.258 385.743c0 19.562 15.857 35.418 35.418 35.418h424.648c19.561 0 35.418-15.857 35.418-35.418v-39.455H8.258zM468.324 90.839H43.676c-19.562 0-35.418 15.857-35.418 35.418v39.455h495.484v-39.455c0-19.562-15.858-35.418-35.418-35.418" style="fill:#ed1f34"/><path d="M8.258 165.712h495.484v180.576H8.258z" style="fill:#103b9b"/><path d="M256 317.11c33.696 0 61.11-27.415 61.11-61.11s-27.413-61.11-61.11-61.11-61.11 27.415-61.11 61.11 27.414 61.11 61.11 61.11" style="fill:#fff"/><path d="M468.324 82.581H43.675C19.593 82.581 0 102.174 0 126.257v259.486c0 24.083 19.593 43.676 43.675 43.676h424.648c24.084 0 43.676-19.594 43.676-43.676V126.257c.001-24.083-19.592-43.676-43.675-43.676M43.675 99.097h424.648c14.977 0 27.16 12.183 27.16 27.16v31.197H16.516v-31.197c0-14.977 12.184-27.16 27.159-27.16m424.649 313.806H43.675c-14.976 0-27.159-12.183-27.159-27.16v-31.197H41.29c4.561 0 8.258-3.696 8.258-8.258s-3.697-8.258-8.258-8.258H16.516V173.97h478.968v164.06H74.323c-4.561 0-8.258 3.696-8.258 8.258s3.697 8.258 8.258 8.258h421.161v31.197c0 14.977-12.184 27.16-27.16 27.16" style="fill:#121b21"/></svg>
