<svg xmlns="http://www.w3.org/2000/svg" xml:space="preserve" viewBox="0 0 512 512" width="48" height="48"><path d="M8.258 214.71h495.484v82.581H8.258z" style="fill:#fff"/><path d="M468.324 90.839H43.676c-19.562 0-35.418 15.857-35.418 35.417v88.454h495.484v-88.454c0-19.561-15.858-35.417-35.418-35.417M8.258 385.743c0 19.561 15.857 35.418 35.418 35.418h424.648c19.561 0 35.418-15.858 35.418-35.418V297.29H8.258z" style="fill:#b21727"/><path d="M468.324 82.581H43.675C19.593 82.581 0 102.173 0 126.256v259.487c0 24.084 19.593 43.676 43.675 43.676h424.648c24.084 0 43.676-19.593 43.676-43.676V126.256c.001-24.083-19.592-43.675-43.675-43.675M43.675 99.097h424.648c14.977 0 27.16 12.183 27.16 27.159v80.196H16.516v-80.196c0-14.976 12.184-27.159 27.159-27.159m424.649 313.806H43.675c-14.976 0-27.159-12.183-27.159-27.16v-80.195h388.129a8.26 8.26 0 0 0 8.258-8.258 8.26 8.26 0 0 0-8.258-8.258H16.516v-66.065h478.968v66.065h-57.806a8.26 8.26 0 0 0-8.258 8.258 8.26 8.26 0 0 0 8.258 8.258h57.806v80.195c0 14.977-12.184 27.16-27.16 27.16" style="fill:#121b21"/></svg>
