<svg xmlns="http://www.w3.org/2000/svg" xml:space="preserve" viewBox="0 0 512 512" width="48" height="48"><path d="M8.258 385.743c0 19.561 15.858 35.418 35.418 35.418h424.648c19.561 0 35.418-15.858 35.418-35.418v-39.455H8.258zM468.324 90.839H43.676c-19.561 0-35.418 15.857-35.418 35.418v39.455h495.484v-39.455c0-19.562-15.857-35.418-35.418-35.418" style="fill:#ed1f34"/><path d="M8.258 165.712h495.484v180.576H8.258z" style="fill:#fff"/><path d="M213.265 285.938 256 198.744l42.736 87.194z" style="fill:#259245"/><path d="M213.265 294.196h34.477v19.06a8.26 8.26 0 0 0 8.258 8.258 8.257 8.257 0 0 0 8.258-8.258v-19.06h34.5a8.257 8.257 0 0 0 8.258-8.258 8.2 8.2 0 0 0-1.12-4.155l-42.481-86.672a8.256 8.256 0 0 0-14.83 0l-42.736 87.194a8.26 8.26 0 0 0 .407 8.004 8.26 8.26 0 0 0 7.009 3.887M256 217.509l29.491 60.172h-21.233v-19.06a8.257 8.257 0 0 0-8.258-8.258 8.26 8.26 0 0 0-8.258 8.258v19.06h-21.233z" style="fill:#111a21"/><path d="M468.324 82.581H43.676C19.593 82.581 0 102.173 0 126.257v259.487c0 24.083 19.593 43.675 43.676 43.675h424.648c24.082 0 43.675-19.593 43.675-43.676V126.257c.001-24.084-19.593-43.676-43.675-43.676M43.676 99.097h424.648c14.976 0 27.159 12.183 27.159 27.16v31.197H16.516v-31.197c0-14.977 12.184-27.16 27.16-27.16m424.648 313.806H43.676c-14.977 0-27.16-12.183-27.16-27.16v-31.197H41.29a8.26 8.26 0 0 0 8.258-8.258 8.26 8.26 0 0 0-8.258-8.258H16.516V173.97h478.968v164.06H74.323a8.26 8.26 0 0 0-8.258 8.258 8.26 8.26 0 0 0 8.258 8.258h421.161v31.197c0 14.977-12.184 27.16-27.16 27.16" style="fill:#111a21"/></svg>
