<svg xmlns="http://www.w3.org/2000/svg" xml:space="preserve" viewBox="0 0 512 512" width="48" height="48"><path d="M8.258 200.946h495.484v110.108H8.258z" style="fill:#fff"/><path d="M8.258 385.743c0 19.562 15.858 35.418 35.418 35.418h424.648c19.561 0 35.418-15.857 35.418-35.418v-74.689H8.258z" style="fill:#259245"/><path d="M468.324 90.839H43.676c-19.561 0-35.418 15.857-35.418 35.418v74.689h495.484v-74.689c0-19.562-15.857-35.418-35.418-35.418" style="fill:#103b9b"/><path d="M234.876 269.204c5.388 5.443 12.861 8.817 21.124 8.817 8.264 0 15.737-3.375 21.124-8.817L256 245.173z" style="fill:#333"/><path d="M256 286.28c10.215 0 19.802-4.001 26.994-11.265a8.26 8.26 0 0 0 .334-11.263l-19.07-21.692v-8.081a8.256 8.256 0 0 0-8.258-8.258 8.257 8.257 0 0 0-8.258 8.258v8.081l-19.068 21.692a8.26 8.26 0 0 0 .333 11.263c7.19 7.263 16.777 11.265 26.993 11.265m0-28.6 8.924 10.152a21.4 21.4 0 0 1-8.924 1.931 21.4 21.4 0 0 1-8.924-1.931z" style="fill:#111a21"/><path d="M468.324 82.581H43.676C19.593 82.581 0 102.174 0 126.257v259.486c0 24.083 19.593 43.676 43.676 43.676h424.648c24.082 0 43.675-19.594 43.675-43.676V126.257c.001-24.083-19.593-43.676-43.675-43.676M43.676 99.097h424.648c14.976 0 27.159 12.183 27.159 27.16v66.431H16.516v-66.431c0-14.977 12.184-27.16 27.16-27.16m424.648 313.806H43.676c-14.977 0-27.16-12.183-27.16-27.16v-66.431h57.806c4.561 0 8.258-3.696 8.258-8.258s-3.697-8.258-8.258-8.258H16.516v-93.591h478.968v93.591H107.355c-4.561 0-8.258 3.696-8.258 8.258s3.697 8.258 8.258 8.258h388.129v66.431c0 14.977-12.184 27.16-27.16 27.16" style="fill:#111a21"/></svg>
