<svg xmlns="http://www.w3.org/2000/svg" xml:space="preserve" viewBox="0 0 512 512" width="48" height="48"><path d="M503.742 389.763V122.237c0-17.341-14.057-31.398-31.398-31.398H39.656c-17.341 0-31.398 14.057-31.398 31.398v267.527c0 17.341 14.057 31.398 31.398 31.398h432.688c17.341-.001 31.398-14.058 31.398-31.399" style="fill:#fff"/><path d="M8.258 331.071h495.484v30.026H8.258zm0-60.063h495.484v30.026H8.258zm0-60.053h495.484v30.037H8.258zm146.806-60.053h348.678v30.026H155.064zm348.271 240.233H8.665c2.597 17.002 17.282 30.026 35.01 30.026h424.648c17.729 0 32.414-13.024 35.012-30.026m0-270.27c-2.596-17.002-17.283-30.026-35.01-30.026h-313.26v30.026z" style="fill:#ed1f34"/><path d="M8.258 121.443v119.544h146.806V90.839H38.862c-16.902 0-30.604 13.701-30.604 30.604" style="fill:#164fce"/><path d="m44.613 157.595 27.278-1.41 9.77-25.506 9.77 25.506 27.278 1.41-21.24 17.174 7.089 26.378-22.897-14.894-22.897 14.894 7.089-26.378z" style="fill:#fff"/><path d="m39.422 164.016 17.063 13.796-5.696 21.191a8.26 8.26 0 0 0 12.479 9.066l18.393-11.964 18.393 11.964a8.25 8.25 0 0 0 9.357-.242 8.26 8.26 0 0 0 3.122-8.824l-5.696-21.191 17.063-13.796a8.26 8.26 0 0 0-4.767-14.67l-21.912-1.131-7.848-20.491a8.258 8.258 0 0 0-15.424 0l-7.848 20.491-21.913 1.131a8.26 8.26 0 0 0-4.766 14.67m32.896.417a8.26 8.26 0 0 0 7.286-5.294l2.058-5.373 2.058 5.373a8.26 8.26 0 0 0 7.286 5.294l5.745.297-4.474 3.617a8.26 8.26 0 0 0-2.782 8.564l1.494 5.557-4.823-3.138a8.25 8.25 0 0 0-9.006 0l-4.823 3.138 1.494-5.557a8.26 8.26 0 0 0-2.782-8.564l-4.474-3.617z" style="fill:#111a21"/><path d="M512 120.865c0-1.445-.372-2.8-1.024-3.981-4.303-19.593-21.787-34.303-42.652-34.303H43.676C19.594 82.581 0 102.174 0 126.257v259.486c0 1.254.066 2.493.17 3.721a8.2 8.2 0 0 0-.17 1.671c0 1.444.372 2.8 1.024 3.982 4.303 19.593 21.788 34.303 42.652 34.303h424.647c20.864 0 38.349-14.71 42.652-34.303a8.2 8.2 0 0 0 1.024-3.982q-.001-.861-.17-1.671a44 44 0 0 0 .17-3.721V126.257c0-1.254-.066-2.493-.17-3.721q.17-.81.171-1.671M16.516 382.877v-13.519h478.968v13.519zm146.806-193.694h332.161v13.51H163.322zm0-16.516v-13.51h332.161v13.51zm0 46.543h332.161v13.519H163.322zm332.162 30.035v13.51H470.71c-4.562 0-8.258 3.696-8.258 8.258s3.696 8.258 8.258 8.258h24.774v13.51H107.355c-4.562 0-8.258 3.696-8.258 8.258s3.696 8.258 8.258 8.258h388.129v13.519H16.516v-13.519h57.806c4.562 0 8.258-3.696 8.258-8.258s-3.696-8.258-8.258-8.258H16.516v-13.51h421.161c4.562 0 8.258-3.696 8.258-8.258s-3.696-8.258-8.258-8.258H16.516v-13.51zm0 90.088v13.51H16.516v-13.51zm-3.694-226.726H221.129c-4.562 0-8.258 3.696-8.258 8.258s3.696 8.258 8.258 8.258h274.355v13.519H163.322v-13.519h24.774c4.562 0 8.258-3.696 8.258-8.258s-3.696-8.258-8.258-8.258h-24.774v-13.51h305.001c10.003 0 18.753 5.438 23.467 13.51M43.676 99.097h103.13v133.632H16.516V126.257c0-14.977 12.184-27.16 27.16-27.16m424.648 313.806H43.676c-10.002 0-18.752-5.438-23.466-13.51h471.58c-4.714 8.072-13.464 13.51-23.466 13.51" style="fill:#111a21"/></svg>
