<svg xmlns="http://www.w3.org/2000/svg" xml:space="preserve" viewBox="0 0 512 512" width="48" height="48"><path d="M8.258 200.946h495.484v110.108H8.258z" style="fill:#333"/><path d="M8.258 385.743c0 19.561 15.858 35.418 35.418 35.418h424.648c19.561 0 35.418-15.857 35.418-35.418v-74.689H8.258z" style="fill:#259245"/><path d="M468.324 90.839H43.676c-19.561 0-35.418 15.857-35.418 35.417v74.69h495.484v-74.69c0-19.561-15.858-35.417-35.418-35.417" style="fill:#ed1f34"/><path d="M244.259 289.583c-18.518 0-33.583-15.066-33.583-33.583s15.065-33.583 33.583-33.583c7.153 0 13.98 2.221 19.747 6.42a8.26 8.26 0 0 1 1.812 11.538 8.256 8.256 0 0 1-11.537 1.812 16.9 16.9 0 0 0-10.022-3.255c-9.411 0-17.067 7.656-17.067 17.067s7.656 17.067 17.067 17.067c3.634 0 7.1-1.126 10.023-3.256a8.259 8.259 0 0 1 9.725 13.35c-5.767 4.202-12.596 6.423-19.748 6.423" style="fill:#fff"/><circle cx="281.974" cy="256" r="9.435" style="fill:#fff"/><path d="M468.324 82.581H43.676C19.593 82.581 0 102.174 0 126.257v259.486c0 24.083 19.593 43.676 43.676 43.676h424.648c24.083 0 43.675-19.594 43.675-43.676V126.257c.001-24.083-19.592-43.676-43.675-43.676M43.676 99.097h424.648c14.976 0 27.159 12.183 27.159 27.16v66.431H16.516v-66.431c0-14.977 12.184-27.16 27.16-27.16m424.648 313.806H43.676c-14.977 0-27.16-12.183-27.16-27.16v-66.431h421.161c4.561 0 8.258-3.696 8.258-8.258s-3.697-8.258-8.258-8.258H16.516v-93.591h478.968v93.591H470.71c-4.561 0-8.258 3.696-8.258 8.258s3.697 8.258 8.258 8.258h24.774v66.431c0 14.977-12.184 27.16-27.16 27.16" style="fill:#111a21"/></svg>
