<svg xmlns="http://www.w3.org/2000/svg" xml:space="preserve" viewBox="0 0 512 512" width="48" height="48"><path d="M8.258 385.743c0 19.561 15.857 35.418 35.418 35.418h424.648c19.561 0 35.418-15.858 35.418-35.418V256H8.258z" style="fill:#ed1f34"/><path d="M468.324 90.839H43.676c-19.562 0-35.418 15.857-35.418 35.418V256h495.484V126.257c0-19.562-15.858-35.418-35.418-35.418" style="fill:#103b9b"/><path d="M199.451 153.416c-11.885 0-22.151 6.932-26.976 16.974-4.825-10.042-15.091-16.974-26.976-16.974-16.521 0-29.913 13.392-29.913 29.913s11.011 29.913 11.011 29.913h91.756s11.011-13.392 11.011-29.913c0-16.52-13.392-29.913-29.913-29.913" style="fill:#ffe000"/><path d="M199.452 145.158c-6.659 0-13.09 1.78-18.718 4.958v-16.519c0-4.561-3.697-8.258-8.258-8.258s-8.258 3.697-8.258 8.258v16.519c-5.629-3.177-12.058-4.958-18.718-4.958-21.047 0-38.17 17.123-38.17 38.171 0 19.258 12.364 34.516 12.89 35.157a8.26 8.26 0 0 0 6.379 3.014h91.756a8.25 8.25 0 0 0 6.379-3.014c.526-.64 12.89-15.9 12.89-35.157-.002-21.047-17.125-38.171-38.172-38.171m14.618 59.826h-83.191c-2.703-4.256-7.036-12.505-7.036-21.655 0-11.94 9.714-21.655 21.654-21.655 8.278 0 15.945 4.825 19.533 12.292.017.035.04.065.057.099a8 8 0 0 0 .53.927 8 8 0 0 0 .819 1.019q.3.324.632.613c.039.033.074.07.112.102q.393.326.826.602.095.06.193.117.378.23.783.42c.052.024.102.052.155.075q.479.212.988.364l.151.039q.43.118.878.19.13.022.26.04c.348.045.7.076 1.061.076a8 8 0 0 0 1.32-.116q.447-.072.878-.19.076-.018.151-.039.508-.15.989-.364.078-.036.154-.074.406-.19.785-.422.096-.057.189-.115c.287-.186.566-.385.828-.604q.055-.048.108-.098a8 8 0 0 0 .82-.818c.227-.26.443-.53.635-.817q.002-.006.008-.013a8 8 0 0 0 .523-.914c.017-.034.04-.064.056-.098 3.587-7.467 11.255-12.292 19.533-12.292 11.94 0 21.655 9.714 21.655 21.655-.001 9.149-4.334 17.397-7.037 21.654" style="fill:#121b21"/><path d="M468.324 82.581H43.675C19.593 82.581 0 102.173 0 126.257v259.487c0 24.083 19.593 43.675 43.675 43.675h424.648c24.084 0 43.676-19.593 43.676-43.676V126.257c.001-24.084-19.592-43.676-43.675-43.676m0 330.322H43.675c-14.976 0-27.159-12.183-27.159-27.16V264.258h388.129a8.26 8.26 0 0 0 8.258-8.258 8.26 8.26 0 0 0-8.258-8.258H16.516V126.257c0-14.977 12.183-27.16 27.159-27.16h424.648c14.977 0 27.16 12.183 27.16 27.16v121.485h-57.806a8.26 8.26 0 0 0-8.258 8.258 8.26 8.26 0 0 0 8.258 8.258h57.806v121.485c.001 14.977-12.183 27.16-27.159 27.16" style="fill:#121b21"/></svg>
