<svg xmlns="http://www.w3.org/2000/svg" xml:space="preserve" viewBox="0 0 512 512" width="48" height="48"><path d="M8.258 200.946h495.484v110.108H8.258z" style="fill:#fff"/><path d="M503.742 200.946H8.258v-75.575c0-19.073 15.461-34.533 34.532-34.533h426.419c19.072 0 34.532 15.46 34.532 34.533v75.575z" style="fill:#ed1f34"/><path d="M469.21 421.161H42.79c-19.071 0-34.532-15.461-34.532-34.532v-75.576h495.484v75.576c0 19.071-15.461 34.532-34.532 34.532" style="fill:#3db4ea"/><path d="M468.324 82.581H43.676C19.594 82.581 0 102.173 0 126.257v259.487c0 24.083 19.594 43.675 43.676 43.675h424.647c24.083 0 43.676-19.593 43.676-43.676V126.257c.001-24.084-19.593-43.676-43.675-43.676M43.676 99.097h424.647c14.977 0 27.16 12.183 27.16 27.16v66.431H16.516v-66.431c0-14.977 12.184-27.16 27.16-27.16m424.648 313.806H43.676c-14.977 0-27.16-12.183-27.16-27.16v-66.431h57.806a8.257 8.257 0 0 0 8.258-8.258 8.257 8.257 0 0 0-8.258-8.258H16.516v-93.591h478.968v93.591H107.355a8.257 8.257 0 0 0-8.258 8.258 8.257 8.257 0 0 0 8.258 8.258h388.129v66.431c0 14.977-12.184 27.16-27.16 27.16" style="fill:#121b21"/></svg>
