<svg xmlns="http://www.w3.org/2000/svg" xml:space="preserve" viewBox="0 0 512 512" width="48" height="48"><path d="M8.258 384.751V127.249c0-20.109 16.301-36.41 36.41-36.41h422.664c20.109 0 36.41 16.301 36.41 36.41v257.503c0 20.109-16.301 36.41-36.41 36.41H44.668c-20.109-.001-36.41-16.302-36.41-36.411" style="fill:#048b7d"/><path d="M345.441 252.681c-14.433-11.091-37.246-12.48-57.677-1.911a66 66 0 0 0-3.701 2.066q.133-2.096.134-4.236c0-23.003-11.715-42.626-28.197-50.35-16.482 7.724-28.197 27.347-28.197 50.35q0 2.14.134 4.236-1.8-1.081-3.701-2.066c-20.43-10.569-43.244-9.18-57.677 1.911-.714 18.189 11.334 37.611 31.765 48.18 20.43 10.569 43.244 9.18 57.677-1.911 14.433 11.091 37.246 12.48 57.677 1.911 20.429-10.569 32.476-29.991 31.763-48.18" style="fill:#fff"/><circle cx="256" cy="145.573" r="16.516" style="fill:#ffe610"/><circle cx="208.378" cy="164.346" r="11.01" style="fill:#ffe610"/><circle cx="178.958" cy="197.148" r="11.007" style="fill:#ffe610"/><circle cx="333.042" cy="197.148" r="11.007" style="fill:#ffe610"/><circle cx="303.622" cy="164.346" r="11.01" style="fill:#ffe610"/><path d="M256 382.94c23.771 0 45.299-9.587 60.943-25.099H195.057c15.644 15.511 37.172 25.099 60.943 25.099" style="fill:#fff"/><path d="M350.473 246.133c-9.093-6.987-21.14-10.835-33.923-10.835-8.233 0-16.599 1.569-24.596 4.582-2.557-22.06-14.728-40.805-32.451-49.109a8.25 8.25 0 0 0-7.008 0c-17.723 8.304-29.893 27.048-32.451 49.109-7.996-3.013-16.363-4.582-24.596-4.582-12.782 0-24.83 3.847-33.923 10.835a8.26 8.26 0 0 0-3.22 6.224c-.865 22.091 13.352 44.008 36.221 55.838 10.291 5.324 21.556 8.138 32.579 8.138 10.547 0 20.593-2.619 28.892-7.46 8.299 4.84 18.345 7.459 28.892 7.46h.003c11.021 0 22.285-2.814 32.575-8.138 22.87-11.83 37.088-33.747 36.222-55.838a8.24 8.24 0 0 0-3.216-6.224m-40.592 47.394c-7.955 4.115-16.594 6.29-24.986 6.29h-.002c-9.165-.001-17.64-2.635-23.861-7.416a8.25 8.25 0 0 0-5.032-1.71c-1.774 0-3.549.57-5.032 1.71-6.222 4.783-14.697 7.416-23.86 7.416-8.394 0-17.035-2.176-24.989-6.29-15.484-8.01-25.985-22.304-27.211-36.522 5.77-3.368 12.917-5.19 20.542-5.19 8.394 0 17.036 2.176 24.991 6.29a59 59 0 0 1 3.244 1.81 8.258 8.258 0 0 0 12.493-7.598 60 60 0 0 1-.118-3.716c0-17.438 7.874-33.332 19.939-40.951 12.066 7.619 19.939 23.513 19.939 40.951 0 1.234-.04 2.485-.118 3.716a8.256 8.256 0 0 0 12.493 7.598 60 60 0 0 1 3.244-1.81c7.956-4.115 16.598-6.29 24.991-6.29 7.625 0 14.772 1.822 20.542 5.19-1.223 14.217-11.723 28.512-27.209 36.522m7.062 56.054H195.057a8.26 8.26 0 0 0-5.815 14.124c17.879 17.729 41.589 27.493 66.757 27.493s48.878-9.763 66.757-27.493a8.259 8.259 0 0 0-5.813-14.124M256 374.681c-12.617 0-24.791-2.972-35.713-8.583h71.426c-10.922 5.611-23.096 8.583-35.713 8.583m81.432-49.982H174.568c-4.562 0-8.258 3.696-8.258 8.258s3.696 8.258 8.258 8.258h162.864c4.562 0 8.258-3.696 8.258-8.258s-3.696-8.258-8.258-8.258" style="fill:#1a1c20"/><path d="M468.324 82.581H43.676C19.594 82.581 0 102.174 0 126.257v259.486c0 24.083 19.594 43.676 43.676 43.676h424.647c24.083 0 43.676-19.594 43.676-43.676V126.257c.001-24.083-19.593-43.676-43.675-43.676m27.16 303.162c0 14.977-12.183 27.16-27.16 27.16H43.676c-14.977 0-27.16-12.183-27.16-27.16V126.257c0-14.977 12.183-27.16 27.16-27.16h424.647c14.977 0 27.16 12.183 27.16 27.16z" style="fill:#1a1c20"/></svg>
