<svg xmlns="http://www.w3.org/2000/svg" xml:space="preserve" viewBox="0 0 512 512" width="48" height="48"><path d="M468.324 90.839H173.419V256h330.323V126.257c0-19.562-15.857-35.418-35.418-35.418" style="fill:#ed1f34"/><path d="M173.419 421.161h294.904c19.561 0 35.418-15.857 35.418-35.418V256H173.419z" style="fill:#259245"/><path d="M173.419 90.839H43.676c-19.561 0-35.418 15.857-35.418 35.418v259.486c0 19.562 15.858 35.418 35.418 35.418h129.743z" style="fill:#fff"/><path d="M468.324 82.581H43.676C19.594 82.581 0 102.174 0 126.257v259.486c0 24.083 19.594 43.676 43.676 43.676h424.647c24.083 0 43.676-19.594 43.676-43.676V126.257c.001-24.083-19.593-43.676-43.675-43.676M16.516 385.743V126.257c0-14.977 12.183-27.16 27.16-27.16h121.485v24.774a8.256 8.256 0 0 0 8.258 8.258 8.256 8.256 0 0 0 8.258-8.258V99.097h286.646c14.977 0 27.16 12.183 27.16 27.16v121.485H181.677v-90.839a8.256 8.256 0 0 0-8.258-8.258 8.256 8.256 0 0 0-8.258 8.258v256H43.676c-14.976 0-27.16-12.183-27.16-27.16m451.808 27.16H181.677V264.258h313.806v121.485c.001 14.977-12.183 27.16-27.159 27.16" style="fill:#111a21"/></svg>
