<svg xmlns="http://www.w3.org/2000/svg" xml:space="preserve" viewBox="0 0 512 512" width="48" height="48"><path d="M173.419 90.839H338.58v330.323H173.419z" style="fill:#ffe000"/><path d="M173.419 90.839v330.323H44.777c-20.169 0-36.519-16.35-36.519-36.519V127.358c0-20.17 16.35-36.519 36.519-36.519zm330.323 36.519v256.551c0 20.575-16.679 37.253-37.253 37.253H338.581V90.839h128.642c20.169 0 36.519 16.35 36.519 36.519" style="fill:#164fce"/><path d="M308.852 243.82h-34.064v-34.065H243.82v34.065h-34.065v30.968h34.065v34.064h30.968v-34.064h34.064z" style="fill:#fff"/><path d="M308.852 294.056a8.256 8.256 0 0 1-8.258-8.258v-52.989c0-4.562 3.696-8.258 8.258-8.258s8.258 3.696 8.258 8.258v52.989a8.26 8.26 0 0 1-8.258 8.258" style="fill:#ed1f34"/><path d="M274.788 317.11a8.256 8.256 0 0 1-8.258-8.258v-34.065a8.256 8.256 0 0 1 8.258-8.258h34.064a8.256 8.256 0 0 1 8.258 8.258 8.256 8.256 0 0 1-8.258 8.258h-25.807v25.807a8.257 8.257 0 0 1-8.257 8.258" style="fill:#ed1f34"/><path d="M285.798 317.11h-52.989c-4.562 0-8.258-3.696-8.258-8.258s3.696-8.258 8.258-8.258h52.989c4.562 0 8.258 3.696 8.258 8.258s-3.697 8.258-8.258 8.258" style="fill:#ed1f34"/><path d="M243.82 317.11a8.256 8.256 0 0 1-8.258-8.258v-25.807h-25.807c-4.562 0-8.258-3.696-8.258-8.258s3.696-8.258 8.258-8.258h34.065a8.256 8.256 0 0 1 8.258 8.258v34.065a8.26 8.26 0 0 1-8.258 8.258" style="fill:#ed1f34"/><path d="M209.755 294.056a8.256 8.256 0 0 1-8.258-8.258v-52.989a8.256 8.256 0 0 1 8.258-8.258 8.256 8.256 0 0 1 8.258 8.258v52.989a8.257 8.257 0 0 1-8.258 8.258" style="fill:#ed1f34"/><path d="M243.82 252.078h-34.065a8.256 8.256 0 0 1-8.258-8.258 8.256 8.256 0 0 1 8.258-8.258h25.807v-25.807a8.256 8.256 0 0 1 8.258-8.258 8.256 8.256 0 0 1 8.258 8.258v34.065a8.26 8.26 0 0 1-8.258 8.258" style="fill:#ed1f34"/><path d="M285.798 218.013h-52.989a8.256 8.256 0 0 1-8.258-8.258 8.256 8.256 0 0 1 8.258-8.258h52.989a8.256 8.256 0 0 1 8.258 8.258 8.257 8.257 0 0 1-8.258 8.258" style="fill:#ed1f34"/><path d="M308.852 252.078h-34.065a8.256 8.256 0 0 1-8.258-8.258v-34.065a8.256 8.256 0 0 1 8.258-8.258 8.256 8.256 0 0 1 8.258 8.258v25.807h25.807a8.256 8.256 0 0 1 8.258 8.258 8.257 8.257 0 0 1-8.258 8.258" style="fill:#ed1f34"/><path d="M468.324 82.581H43.676C19.594 82.581 0 102.174 0 126.257v259.486c0 24.083 19.594 43.676 43.676 43.676h424.647c24.083 0 43.676-19.594 43.676-43.676V126.257c.001-24.083-19.593-43.676-43.675-43.676M16.516 385.743V126.257c0-14.977 12.183-27.16 27.16-27.16h121.485v313.806H43.676c-14.976 0-27.16-12.183-27.16-27.16m478.968 0c0 14.977-12.183 27.16-27.16 27.16H346.839v-256c0-4.562-3.696-8.258-8.258-8.258s-8.258 3.696-8.258 8.258v256H181.677V99.097h148.645v24.774c0 4.562 3.696 8.258 8.258 8.258s8.258-3.696 8.258-8.258V99.097h121.485c14.977 0 27.16 12.183 27.16 27.16z" style="fill:#1a1c20"/></svg>
