<svg xmlns="http://www.w3.org/2000/svg" xml:space="preserve" viewBox="0 0 512 512" width="48" height="48"><path d="M503.742 386.111V125.889c0-19.358-15.693-35.051-35.051-35.051H43.309c-19.358 0-35.051 15.693-35.051 35.051v260.22c0 19.358 15.693 35.051 35.051 35.051H468.69c19.359.001 35.052-15.691 35.052-35.049" style="fill:#fff"/><path d="M43.676 90.839c-19.562 0-35.418 15.857-35.418 35.418v184.797H256V90.839z" style="fill:#103b9b"/><path d="M8.258 385.743c0 19.562 15.857 35.418 35.418 35.418h424.648c19.561 0 35.418-15.857 35.418-35.418v-1.281H8.258zm0-37.99h495.484v-36.699H8.258zM256 237.645h247.742v36.71H256zm0-73.398h247.742v36.699H256zm212.324-73.408H256v36.699h247.742v-1.281c0-19.562-15.857-35.418-35.418-35.418" style="fill:#ed1f34"/><circle cx="178.418" cy="200.946" r="35.093" style="fill:#ffe000"/><path d="M145.243 258.008c-31.513 0-57.059-25.546-57.059-57.059s25.546-57.058 57.059-57.058q1.422.001 2.828.07a65.03 65.03 0 0 0-31.974-8.362c-36.091 0-65.349 29.258-65.349 65.349s29.258 65.35 65.349 65.35a65 65 0 0 0 31.974-8.362q-1.407.071-2.828.072" style="fill:#ffe000"/><path d="M135.066 200.946c0 23.904 19.447 43.352 43.352 43.352s43.352-19.447 43.352-43.352-19.447-43.352-43.352-43.352c-23.905.001-43.352 19.448-43.352 43.352m43.351-26.835c14.796 0 26.835 12.039 26.835 26.835s-12.039 26.835-26.835 26.835-26.835-12.039-26.835-26.835 12.039-26.835 26.835-26.835" style="fill:#121b21"/><path d="M116.096 274.558a73.64 73.64 0 0 0 36.021-9.422 8.26 8.26 0 0 0 3.888-9.481c-1.059-3.68-4.499-6.166-8.333-5.965q-1.206.06-2.429.062c-26.908 0-48.801-21.893-48.801-48.801s21.893-48.8 48.801-48.8q1.222.001 2.429.062a8.259 8.259 0 0 0 4.041-15.671 73.64 73.64 0 0 0-35.616-9.196c-40.587 0-73.608 33.019-73.608 73.607 0 40.583 33.021 73.605 73.607 73.605m-2.672-130.638c-19.97 11.187-33.498 32.558-33.498 57.029s13.529 45.843 33.498 57.03c-30.245-1.399-54.418-26.446-54.418-57.03 0-30.583 24.173-55.629 54.418-57.029" style="fill:#121b21"/><path d="M468.324 82.581H43.676C19.594 82.581 0 102.174 0 126.257v259.486c0 24.083 19.594 43.676 43.676 43.676h424.647c24.083 0 43.676-19.594 43.676-43.676V126.257c.001-24.083-19.593-43.676-43.675-43.676M264.258 245.903h231.226v20.194H264.258zm0-16.516v-20.183h231.226v20.183zm0-36.699v-20.183h231.226v20.183zm0-36.699v-20.194h231.226v20.194zm0 126.624h231.226v20.183H264.258zm230.313-163.334H264.258V99.097h204.066c12.564 0 23.159 8.577 26.247 20.182M43.676 99.097h204.066v203.699H74.323c-4.562 0-8.258 3.696-8.258 8.258s3.696 8.258 8.258 8.258h421.161v20.183H16.516v-20.183H41.29c4.562 0 8.258-3.696 8.258-8.258s-3.696-8.258-8.258-8.258H16.516V126.257c0-14.977 12.184-27.16 27.16-27.16m424.648 313.806H43.676c-12.564 0-23.16-8.577-26.247-20.183h420.249a8.256 8.256 0 0 0 8.258-8.258 8.256 8.256 0 0 0-8.258-8.258H16.516V356.01h478.968v20.194H470.71a8.256 8.256 0 0 0-8.258 8.258 8.256 8.256 0 0 0 8.258 8.258h23.861c-3.088 11.606-13.683 20.183-26.247 20.183" style="fill:#121b21"/></svg>
