<svg xmlns="http://www.w3.org/2000/svg" xml:space="preserve" viewBox="0 0 512 512" width="48" height="48"><path d="M468.324 90.839H43.676c-19.561 0-35.418 15.857-35.418 35.418v74.689h495.484v-74.689c0-19.562-15.858-35.418-35.418-35.418" style="fill:#333"/><path d="M8.258 385.743c0 19.562 15.858 35.418 35.418 35.418h424.648c19.561 0 35.418-15.857 35.418-35.418v-74.689H8.258z" style="fill:#259245"/><path d="M8.258 200.946h495.484v110.108H8.258z" style="fill:#ed1f34"/><path d="M324.332 209.204a8.257 8.257 0 0 1-8.258-8.258c0-38.588-31.394-69.983-69.983-69.983s-69.983 31.395-69.983 69.983c0 4.562-3.697 8.258-8.258 8.258s-8.258-3.696-8.258-8.258c0-47.695 38.803-86.499 86.499-86.499s86.499 38.803 86.499 86.499a8.26 8.26 0 0 1-8.258 8.258" style="fill:#ed1f34"/><path d="M324.332 209.204a8.257 8.257 0 0 1-8.258-8.258c0-38.588-31.394-69.983-69.983-69.983s-69.983 31.395-69.983 69.983c0 4.562-3.697 8.258-8.258 8.258s-8.258-3.696-8.258-8.258c0-47.695 38.803-86.499 86.499-86.499s86.499 38.803 86.499 86.499a8.26 8.26 0 0 1-8.258 8.258" style="fill:#ed1f34"/><circle cx="246.09" cy="200.946" r="46.377" style="fill:#ed1f34"/><path d="M246.09 255.578c-30.124 0-54.632-24.508-54.632-54.632s24.508-54.632 54.632-54.632 54.632 24.508 54.632 54.632-24.507 54.632-54.632 54.632m0-92.748c-21.017 0-38.116 17.099-38.116 38.116s17.099 38.116 38.116 38.116 38.116-17.099 38.116-38.116-17.098-38.116-38.116-38.116" style="fill:#ed1f34"/><path d="M468.324 82.581H43.676C19.593 82.581 0 102.174 0 126.257v259.486c0 24.083 19.593 43.676 43.676 43.676h424.648c24.083 0 43.675-19.594 43.675-43.676V126.257c.001-24.083-19.592-43.676-43.675-43.676M43.676 99.097h424.648c14.976 0 27.159 12.183 27.159 27.16v66.431H16.516v-66.431c0-14.977 12.184-27.16 27.16-27.16m424.648 313.806H43.676c-14.977 0-27.16-12.183-27.16-27.16v-66.431h421.161c4.561 0 8.258-3.696 8.258-8.258s-3.697-8.258-8.258-8.258H16.516v-93.591h478.968v93.591H470.71c-4.561 0-8.258 3.696-8.258 8.258s3.697 8.258 8.258 8.258h24.774v66.431c0 14.977-12.184 27.16-27.16 27.16" style="fill:#111a21"/></svg>
