<svg xmlns="http://www.w3.org/2000/svg" xml:space="preserve" viewBox="0 0 512 512" width="48" height="48"><path d="M44.728 90.839h422.543c20.142 0 36.471 16.328 36.471 36.47V384.69c0 20.142-16.328 36.47-36.471 36.47H44.728c-20.142.001-36.47-16.327-36.47-36.469V127.309c0-20.142 16.328-36.47 36.47-36.47" style="fill:#ed1f34"/><path d="M85.333 167.914h341.333v176.172H85.333z" style="fill:#278a2a"/><path d="M294.614 304.07c-26.548 0-48.07-21.522-48.07-48.07s21.522-48.07 48.07-48.07q1.197.002 2.382.059a54.8 54.8 0 0 0-26.937-7.044c-30.405 0-55.054 24.649-55.054 55.054s24.649 55.054 55.054 55.054a54.8 54.8 0 0 0 26.937-7.044q-1.185.06-2.382.061" style="fill:#fff"/><path d="M294.614 216.188q.998.002 1.983.051a8.26 8.26 0 0 0 8.679-8.248 8.26 8.26 0 0 0-4.641-7.426 63.35 63.35 0 0 0-30.576-7.876c-34.911 0-63.312 28.401-63.312 63.311 0 34.911 28.401 63.313 63.312 63.313a63.33 63.33 0 0 0 30.984-8.104 8.26 8.26 0 0 0 3.888-9.482 8.26 8.26 0 0 0-8.335-5.963q-.985.05-1.983.051c-21.952 0-39.812-17.859-39.812-39.813.001-21.954 17.86-39.814 39.813-39.814m-56.328 39.811c0 19.078 9.532 35.971 24.086 46.165-22.159-3.678-39.108-22.979-39.108-46.165s16.949-42.487 39.108-46.164c-14.552 10.195-24.086 27.088-24.086 46.164" style="fill:#111a21"/><path d="M468.324 82.581H43.675C19.593 82.581 0 102.173 0 126.257v259.487c0 24.083 19.593 43.675 43.675 43.675h424.648c24.084 0 43.676-19.593 43.676-43.676V126.257c.001-24.084-19.592-43.676-43.675-43.676m27.16 303.162c0 14.977-12.183 27.16-27.16 27.16H43.675c-14.976 0-27.159-12.183-27.159-27.16V126.257c0-14.977 12.183-27.16 27.159-27.16h424.648c14.977 0 27.16 12.183 27.16 27.16z" style="fill:#111a21"/></svg>
