<svg xmlns="http://www.w3.org/2000/svg" xml:space="preserve" viewBox="0 0 512 512" width="48" height="48"><path d="M468.324 90.839H256v330.323h212.324c19.561 0 35.418-15.857 35.418-35.418V126.256c0-19.561-15.857-35.417-35.418-35.417" style="fill:#ed1f34"/><path d="M43.676 90.839c-19.561 0-35.418 15.857-35.418 35.417v259.487c0 19.561 15.858 35.418 35.418 35.418H256V90.839z" style="fill:#fff"/><path d="M96.619 148.783H82.718v-13.901a8.26 8.26 0 0 0-8.258-8.258 8.26 8.26 0 0 0-8.258 8.258v13.901H52.301c-4.561 0-8.258 3.697-8.258 8.258s3.697 8.258 8.258 8.258h13.901V179.2a8.26 8.26 0 0 0 8.258 8.258 8.26 8.26 0 0 0 8.258-8.258v-13.901h13.901c4.561 0 8.258-3.697 8.258-8.258s-3.697-8.258-8.258-8.258" style="fill:#121b21"/><path d="M468.324 82.581H43.676C19.593 82.581 0 102.173 0 126.256v259.487c0 24.084 19.593 43.676 43.676 43.676h424.648c24.082 0 43.675-19.593 43.675-43.676V126.256c.001-24.083-19.593-43.675-43.675-43.675m27.16 303.162c0 14.977-12.183 27.16-27.16 27.16H264.258v-57.806a8.257 8.257 0 0 0-8.258-8.258 8.26 8.26 0 0 0-8.258 8.258v57.806H43.676c-14.977 0-27.16-12.183-27.16-27.16V126.256c0-14.976 12.183-27.159 27.16-27.159h204.066v222.968a8.26 8.26 0 0 0 8.258 8.258 8.257 8.257 0 0 0 8.258-8.258V99.097h204.066c14.977 0 27.16 12.183 27.16 27.159z" style="fill:#121b21"/></svg>
