<svg xmlns="http://www.w3.org/2000/svg" xml:space="preserve" viewBox="0 0 512 512" width="48" height="48"><path d="M43.835 421.161h424.329c19.649 0 35.577-15.928 35.577-35.577V126.416c0-19.649-15.928-35.577-35.577-35.577H43.835c-19.649 0-35.577 15.928-35.577 35.577v259.168c0 19.649 15.928 35.577 35.577 35.577" style="fill:#103b9b"/><path d="M8.258 395.286v8.258l495.484-162.959V174.52z" style="fill:#fff"/><path d="M8.258 387.028v8.258L503.742 174.52v-66.064z" style="fill:#ff7900"/><circle cx="132.129" cy="200.649" r="33.032" style="fill:#fff"/><path d="M468.324 82.581H43.676C19.593 82.581 0 102.173 0 126.257v259.487c0 .268.015.531.02.797-.03.486-.02.976.039 1.464a43.3 43.3 0 0 0 4.857 17.831q.087.179.181.352c7.346 13.805 21.881 23.23 38.581 23.23h424.648c24.082 0 43.675-19.593 43.675-43.675V126.257c-.001-24.084-19.595-43.676-43.677-43.676m27.16 303.163c0 14.976-12.183 27.159-27.16 27.159H43.676c-6.721 0-12.875-2.46-17.623-6.518l469.43-154.391zm0-151.136L17.229 391.901q-.047-.195-.09-.392l414.243-232.896a8.26 8.26 0 0 0 3.151-11.245 8.257 8.257 0 0 0-11.246-3.151L16.516 372.911V126.257c0-14.977 12.183-27.16 27.16-27.16h424.648c7.824 0 14.882 3.33 19.842 8.642l-36.087 20.29a8.257 8.257 0 0 0-3.15 11.245 8.256 8.256 0 0 0 11.245 3.152l35.07-19.718a27 27 0 0 1 .239 3.55z" style="fill:#111a21"/><path d="M189.092 192.395h-16.504c-3.292-16.155-16.047-28.909-32.201-32.201V143.69c0-4.561-3.697-8.258-8.258-8.258s-8.258 3.697-8.258 8.258v16.504c-16.155 3.292-28.909 16.047-32.201 32.201H75.166c-4.561 0-8.258 3.697-8.258 8.258s3.697 8.258 8.258 8.258H91.67c3.292 16.155 16.047 28.909 32.201 32.201v16.504a8.26 8.26 0 0 0 8.258 8.258 8.26 8.26 0 0 0 8.258-8.258v-16.503c16.155-3.292 28.909-16.046 32.201-32.201h16.504a8.259 8.259 0 0 0 0-16.517m-56.963 33.033c-13.661 0-24.774-11.113-24.774-24.774s11.113-24.774 24.774-24.774 24.774 11.113 24.774 24.774c0 13.66-11.113 24.774-24.774 24.774" style="fill:#111a21"/></svg>
