<svg xmlns="http://www.w3.org/2000/svg" xml:space="preserve" viewBox="0 0 512 512" width="48" height="48"><path d="M503.742 126.257v259.487c0 19.561-15.858 35.418-35.418 35.418H43.676c-19.562-.001-35.418-15.858-35.418-35.419V126.257c0-19.562 15.857-35.418 35.418-35.418h424.648c19.56 0 35.418 15.856 35.418 35.418" style="fill:#103b9b"/><path d="M503.742 223.243H288.757V90.839h-65.514v132.404H8.258v65.514h214.985v132.404h65.514V288.757h214.985z" style="fill:#fff"/><path d="M143.225 396.387h-38.361c-13.698 0-24.844-11.145-24.844-24.844S91.165 346.7 104.863 346.7h21.777c4.591 0 8.327-3.736 8.327-8.327s-3.736-8.327-8.327-8.327h-21.778a8.26 8.26 0 0 1-8.258-8.258 8.26 8.26 0 0 1 8.258-8.258h21.777c13.698 0 24.844 11.145 24.844 24.844s-11.145 24.844-24.844 24.844h-21.777c-4.591 0-8.327 3.736-8.327 8.327s3.736 8.327 8.327 8.327h38.361a8.26 8.26 0 0 1 8.258 8.258 8.256 8.256 0 0 1-8.256 8.257m0-197.918h-38.361c-13.698 0-24.844-11.145-24.844-24.844s11.145-24.844 24.844-24.844h21.777c4.591 0 8.327-3.736 8.327-8.327s-3.736-8.327-8.327-8.327h-21.778a8.26 8.26 0 0 1-8.258-8.258 8.26 8.26 0 0 1 8.258-8.258h21.777c13.698 0 24.844 11.145 24.844 24.844s-11.145 24.844-24.844 24.844h-21.777c-4.591 0-8.327 3.736-8.327 8.327s3.736 8.327 8.327 8.327h38.361c4.561 0 8.258 3.697 8.258 8.258s-3.697 8.258-8.257 8.258m280.499 197.918h-38.361c-13.698 0-24.844-11.145-24.844-24.844s11.145-24.844 24.844-24.844h21.777c4.591 0 8.327-3.736 8.327-8.327s-3.736-8.327-8.327-8.327h-21.777a8.26 8.26 0 0 1-8.258-8.258 8.26 8.26 0 0 1 8.258-8.258h21.777c13.698 0 24.844 11.145 24.844 24.844s-11.145 24.844-24.844 24.844h-21.777c-4.591 0-8.327 3.736-8.327 8.327s3.736 8.327 8.327 8.327h38.361a8.258 8.258 0 1 1 0 16.516m0-197.918h-38.361c-13.698 0-24.844-11.145-24.844-24.844s11.145-24.844 24.844-24.844h21.777c4.591 0 8.327-3.736 8.327-8.327s-3.736-8.327-8.327-8.327h-21.777a8.26 8.26 0 0 1-8.258-8.258 8.26 8.26 0 0 1 8.258-8.258h21.777c13.698 0 24.844 11.145 24.844 24.844s-11.145 24.844-24.844 24.844h-21.777c-4.591 0-8.327 3.736-8.327 8.327s3.736 8.327 8.327 8.327h38.361a8.258 8.258 0 1 1 0 16.516" style="fill:#fff"/><path d="M468.324 82.581H43.675C19.593 82.581 0 102.173 0 126.256v259.487c0 24.084 19.593 43.676 43.675 43.676h424.648c24.084 0 43.676-19.593 43.676-43.676V126.256c.001-24.083-19.592-43.675-43.675-43.675m27.16 43.675v88.729H470.71c-4.561 0-8.258 3.697-8.258 8.258s3.697 8.258 8.258 8.258h24.774v48.998H288.757a8.26 8.26 0 0 0-8.258 8.258v124.146h-48.998V288.757a8.26 8.26 0 0 0-8.258-8.258H16.516v-48.998h206.727a8.26 8.26 0 0 0 8.258-8.258V99.097h48.998v124.146a8.26 8.26 0 0 0 8.258 8.258h148.92c4.561 0 8.258-3.697 8.258-8.258s-3.697-8.258-8.258-8.258H297.015V99.097h171.309c14.976 0 27.16 12.183 27.16 27.159M43.675 99.097h171.31v115.888H16.516v-88.729c0-14.976 12.184-27.159 27.159-27.159M16.516 385.743v-88.728h198.469v115.888H43.675c-14.975 0-27.159-12.183-27.159-27.16m451.808 27.16H297.015V297.015h198.469v88.728c0 14.977-12.184 27.16-27.16 27.16" style="fill:#1a1c20"/></svg>
