<svg xmlns="http://www.w3.org/2000/svg" xml:space="preserve" viewBox="0 0 512 512" width="48" height="48"><path d="M8.258 173.419h495.484V256H8.258z" style="fill:#103b9b"/><path d="M8.258 256h495.484v82.581H8.258z" style="fill:#ffe000"/><path d="M468.324 90.839H43.676c-19.561 0-35.418 15.857-35.418 35.418v47.162h495.484v-47.162c0-19.562-15.857-35.418-35.418-35.418" style="fill:#ed1f34"/><path d="M8.258 385.743c0 19.562 15.858 35.418 35.418 35.418h424.648c19.561 0 35.418-15.857 35.418-35.418v-47.162H8.258z" style="fill:#259245"/><path d="M468.324 82.581H43.676C19.593 82.581 0 102.174 0 126.257v259.486c0 24.083 19.593 43.676 43.676 43.676h424.648c24.082 0 43.675-19.594 43.675-43.676V126.257c.001-24.083-19.593-43.676-43.675-43.676M16.516 264.258h478.968v66.065H16.516zm27.16-165.161h424.648c14.976 0 27.159 12.183 27.159 27.16v38.904H74.323a8.257 8.257 0 0 0-8.258 8.258 8.257 8.257 0 0 0 8.258 8.258h421.161v66.065H16.516v-66.065H41.29a8.257 8.257 0 0 0 8.258-8.258 8.257 8.257 0 0 0-8.258-8.258H16.516v-38.904c0-14.977 12.184-27.16 27.16-27.16m424.648 313.806H43.676c-14.977 0-27.16-12.183-27.16-27.16v-38.904h478.968v38.904c0 14.977-12.184 27.16-27.16 27.16" style="fill:#111a21"/></svg>
