<svg xmlns="http://www.w3.org/2000/svg" xml:space="preserve" viewBox="0 0 512 512" width="48" height="48"><path d="M503.742 381.523V130.477c0-21.892-17.747-39.639-39.639-39.639H47.897c-21.892 0-39.639 17.747-39.639 39.639v251.045c0 21.892 17.747 39.639 39.639 39.639h416.206c21.892 0 39.639-17.747 39.639-39.638" style="fill:#259245"/><path d="m216.294 184.104 29.19-1.507 10.453-27.296 10.455 27.296 29.189 1.507-22.728 18.378 7.586 28.227-24.502-15.937-24.501 15.937 7.587-28.227z" style="fill:#ffe000"/><path d="M363.903 191.701c-.088 59.554-48.391 107.805-107.966 107.805s-107.878-48.251-107.966-107.805c-6.328 14.446-9.849 30.401-9.849 47.184 0 65.068 52.747 117.815 117.815 117.815s117.815-52.747 117.815-117.815c0-16.785-3.521-32.738-9.849-47.184" style="fill:#ffe000"/><path d="m211.101 190.527 18.553 15-6.192 23.039a8.25 8.25 0 0 0 3.122 8.824 8.25 8.25 0 0 0 9.357.242l19.998-13.008 19.998 13.008a8.259 8.259 0 0 0 12.479-9.065l-6.191-23.04 18.552-15a8.26 8.26 0 0 0-4.767-14.669l-23.825-1.231-8.533-22.279a8.258 8.258 0 0 0-15.424 0l-8.533 22.279-23.825 1.231a8.26 8.26 0 0 0-7.428 5.696 8.255 8.255 0 0 0 2.659 8.973m34.808.317a8.26 8.26 0 0 0 7.286-5.294l2.743-7.161 2.743 7.161a8.26 8.26 0 0 0 7.286 5.294l7.657.395-5.962 4.822a8.26 8.26 0 0 0-2.782 8.564l1.991 7.406-6.428-4.181a8.25 8.25 0 0 0-9.006 0l-6.427 4.181 1.991-7.405a8.26 8.26 0 0 0-2.782-8.565l-5.963-4.822z" style="fill:#111a21"/><path d="M362.217 183.616a8.255 8.255 0 0 0-6.572 8.072c-.073 49.486-35.563 90.864-84.388 98.389a8.26 8.26 0 0 0 2.516 16.324c27.111-4.179 51.983-17.955 70.036-38.792a116.1 116.1 0 0 0 21.413-36.508q.271 3.87.271 7.785c0 60.41-49.148 109.557-109.557 109.557s-109.557-49.146-109.557-109.557q0-3.916.271-7.782a116 116 0 0 0 21.454 36.557c18.082 20.848 42.987 34.615 70.129 38.766a8.26 8.26 0 0 0 2.497-16.327c-48.103-7.355-84.43-49.662-84.502-98.407a8.258 8.258 0 0 0-15.822-3.301c-6.996 15.973-10.543 32.964-10.543 50.496 0 69.517 56.556 126.073 126.073 126.073s126.073-56.556 126.073-126.073c0-17.532-3.548-34.523-10.543-50.496a8.26 8.26 0 0 0-9.249-4.776" style="fill:#111a21"/><path d="M468.324 82.581H43.676C19.594 82.581 0 102.173 0 126.256v259.487c0 24.084 19.594 43.676 43.676 43.676h424.647c24.083 0 43.676-19.593 43.676-43.676V126.256c.001-24.083-19.593-43.675-43.675-43.675m27.16 303.162c0 14.977-12.183 27.16-27.16 27.16H43.676c-14.977 0-27.16-12.183-27.16-27.16V126.256c0-14.976 12.183-27.159 27.16-27.159h424.647c14.977 0 27.16 12.183 27.16 27.159z" style="fill:#111a21"/></svg>
