<svg xmlns="http://www.w3.org/2000/svg" xml:space="preserve" viewBox="0 0 512 512" width="48" height="48"><path d="M45.144 90.839h421.712c20.371 0 36.886 16.514 36.886 36.886v256.551c0 20.371-16.515 36.886-36.886 36.886H45.144c-20.371 0-36.886-16.515-36.886-36.886V127.725c0-20.372 16.515-36.886 36.886-36.886" style="fill:#3db4ea"/><path d="M206.809 231.776v75.782c0 27.167 22.023 49.191 49.191 49.191s49.191-22.023 49.191-49.191v-75.782z" style="fill:#ed1f34"/><path d="M256 329.222c-11.946 0-21.664-9.718-21.664-21.664v-48.255h43.327v48.255c.001 11.945-9.717 21.664-21.663 21.664" style="fill:#3db4ea"/><path d="M298.584 177.273v23.123h-85.168v-23.123L256 165.161z" style="fill:#f2a643"/><path d="M305.191 223.518H206.81a8.257 8.257 0 0 0-8.258 8.258v75.782c0 31.678 25.772 57.449 57.449 57.449 31.678 0 57.449-25.771 57.449-57.449v-75.782a8.26 8.26 0 0 0-8.259-8.258m-8.259 84.04c0 22.57-18.363 40.932-40.932 40.932s-40.932-18.363-40.932-40.932v-67.523h81.865zm-83.516-98.904h85.168a8.256 8.256 0 0 0 8.258-8.258v-37.621c0-4.562-3.696-8.258-8.258-8.258s-8.258 3.696-8.258 8.258v3.563l-26.068-7.414v-3.673a8.256 8.256 0 0 0-8.258-8.258 8.257 8.257 0 0 0-8.258 8.258v3.673l-26.068 7.414v-3.563a8.257 8.257 0 0 0-8.258-8.258 8.257 8.257 0 0 0-8.258 8.258v37.621a8.26 8.26 0 0 0 8.258 8.258m76.91-16.516h-68.652v-8.628L256 173.747l34.326 9.762z" style="fill:#1a1c20"/><path d="M346.481 314.051v-74.626a8.256 8.256 0 0 0-3.111-15.905h-10.295a8.256 8.256 0 0 0-3.11 15.905v74.626a8.257 8.257 0 0 0 3.11 15.905h10.295a8.256 8.256 0 0 0 3.111-15.905m-164.446 0v-74.626a8.257 8.257 0 0 0-3.11-15.905h-10.294a8.257 8.257 0 0 0-3.112 15.905v74.628a8.257 8.257 0 0 0 3.112 15.905h10.294a8.257 8.257 0 0 0 3.11-15.907" style="fill:#333"/><path d="M468.324 429.419H43.676C19.593 429.419 0 409.826 0 385.743V126.257c0-24.083 19.593-43.676 43.676-43.676h424.648c24.082 0 43.675 19.594 43.675 43.676v259.486c.001 24.083-19.593 43.676-43.675 43.676M43.676 99.097c-14.977 0-27.16 12.183-27.16 27.16v259.486c0 14.977 12.183 27.16 27.16 27.16h424.648c14.976 0 27.159-12.183 27.159-27.16V126.257c0-14.977-12.183-27.16-27.16-27.16z" style="fill:#1a1c20"/></svg>
