<?xml version="1.0" encoding="iso-8859-1"?>
<!-- Generator: Adobe Illustrator 19.0.0, SVG Export Plug-In . SVG Version: 6.00 Build 0)  -->
<svg version="1.1" id="Layer_1" xmlns="http://www.w3.org/2000/svg" xmlns:xlink="http://www.w3.org/1999/xlink" x="0px" y="0px"
	 viewBox="0 0 512 512" style="enable-background:new 0 0 512 512;" xml:space="preserve">
<path style="fill:#3DB4EA;" d="M45.144,90.839h421.712c20.371,0,36.886,16.514,36.886,36.886v256.551
	c0,20.371-16.515,36.886-36.886,36.886H45.144c-20.371,0-36.886-16.515-36.886-36.886V127.725
	C8.258,107.353,24.773,90.839,45.144,90.839z"/>
<path style="fill:#ED1F34;" d="M206.809,231.776v75.782c0,27.167,22.023,49.191,49.191,49.191s49.191-22.023,49.191-49.191v-75.782
	H206.809z"/>
<path style="fill:#3DB4EA;" d="M256,329.222c-11.946,0-21.664-9.718-21.664-21.664v-48.255h43.327v48.255
	C277.664,319.503,267.946,329.222,256,329.222z"/>
<polygon style="fill:#F2A643;" points="298.584,177.273 298.584,200.396 213.416,200.396 213.416,177.273 256,165.161 "/>
<g>
	<path style="fill:#1A1C20;" d="M305.191,223.518h-98.381c-4.561,0-8.258,3.696-8.258,8.258v75.782
		c0,31.678,25.772,57.449,57.449,57.449c31.678,0,57.449-25.771,57.449-57.449v-75.782
		C313.449,227.215,309.751,223.518,305.191,223.518z M296.932,307.558c0,22.57-18.363,40.932-40.932,40.932
		s-40.932-18.363-40.932-40.932v-67.523h81.865V307.558z"/>
	<path style="fill:#1A1C20;" d="M213.416,208.654h85.168c4.562,0,8.258-3.696,8.258-8.258v-23.123v-14.498
		c0-4.562-3.696-8.258-8.258-8.258s-8.258,3.696-8.258,8.258v3.563l-26.068-7.414v-3.673c0-4.562-3.696-8.258-8.258-8.258
		c-4.561,0-8.258,3.696-8.258,8.258v3.673l-26.068,7.414v-3.563c0-4.562-3.697-8.258-8.258-8.258c-4.561,0-8.258,3.696-8.258,8.258
		v14.498v23.123C205.158,204.957,208.855,208.654,213.416,208.654z M290.326,192.138h-68.652v-8.628L256,173.747l34.326,9.762
		V192.138z"/>
</g>
<g>
	<path style="fill:#333333;" d="M346.481,314.051v-74.626c3.018-1.229,5.147-4.187,5.147-7.647c0-4.562-3.696-8.258-8.258-8.258
		h-10.295c-4.562,0-8.258,3.696-8.258,8.258c0,3.461,2.129,6.418,5.148,7.647v74.626c-3.018,1.229-5.148,4.187-5.148,7.647
		c0,4.562,3.696,8.258,8.258,8.258h10.295c4.562,0,8.258-3.696,8.258-8.258C351.628,318.237,349.499,315.28,346.481,314.051z"/>
	<path style="fill:#333333;" d="M182.035,314.051v-74.626c3.018-1.229,5.148-4.187,5.148-7.647c0-4.562-3.697-8.258-8.258-8.258
		h-10.294c-4.561,0-8.258,3.696-8.258,8.258c0,3.46,2.129,6.418,5.146,7.647v74.628c-3.018,1.229-5.146,4.187-5.146,7.647
		c0,4.562,3.697,8.258,8.258,8.258h10.294c4.561,0,8.258-3.696,8.258-8.258C187.183,318.238,185.053,315.28,182.035,314.051z"/>
</g>
<path style="fill:#1A1C20;" d="M468.324,429.419H43.676C19.593,429.419,0,409.826,0,385.743V126.257
	c0-24.083,19.593-43.676,43.676-43.676h424.648c24.082,0,43.675,19.594,43.675,43.676v259.486
	C512,409.826,492.406,429.419,468.324,429.419z M43.676,99.097c-14.977,0-27.16,12.183-27.16,27.16v259.486
	c0,14.977,12.183,27.16,27.16,27.16h424.648c14.976,0,27.159-12.183,27.159-27.16V126.257c0-14.977-12.183-27.16-27.16-27.16H43.676
	z"/>
<g>
</g>
<g>
</g>
<g>
</g>
<g>
</g>
<g>
</g>
<g>
</g>
<g>
</g>
<g>
</g>
<g>
</g>
<g>
</g>
<g>
</g>
<g>
</g>
<g>
</g>
<g>
</g>
<g>
</g>
</svg>
