<svg xmlns="http://www.w3.org/2000/svg" xml:space="preserve" viewBox="0 0 512 512" width="48" height="48"><path d="M173.419 90.839H338.58v330.323H173.419z" style="fill:#fff"/><path d="M43.676 90.839c-19.561 0-35.418 15.857-35.418 35.417v259.487c0 19.561 15.858 35.418 35.418 35.418h129.743V90.839z" style="fill:#259245"/><path d="M468.324 90.839H338.581v330.323h129.743c19.561 0 35.418-15.857 35.418-35.418V126.256c0-19.561-15.857-35.417-35.418-35.417" style="fill:#ed1f34"/><path d="M256 304.172c-31.875 0-57.806-25.933-57.806-57.806 0-4.562 3.697-8.258 8.258-8.258s8.258 3.696 8.258 8.258c0 22.768 18.522 41.29 41.29 41.29s41.29-18.522 41.29-41.29c0-4.562 3.696-8.258 8.258-8.258s8.258 3.696 8.258 8.258c0 31.874-25.932 57.806-57.806 57.806" style="fill:#134923"/><path d="M256 276.645c-16.696 0-30.28-13.584-30.28-30.28s13.584-30.28 30.28-30.28 30.28 13.584 30.28 30.28-13.584 30.28-30.28 30.28" style="fill:#f2a643"/><path d="M468.324 82.581H43.676C19.593 82.581 0 102.174 0 126.257v259.486c0 24.083 19.593 43.676 43.676 43.676h424.648c24.082 0 43.675-19.594 43.675-43.676V126.257c.001-24.083-19.593-43.676-43.675-43.676M16.516 385.743V126.257c0-14.977 12.183-27.16 27.16-27.16h121.485v222.968c0 4.562 3.697 8.258 8.258 8.258s8.258-3.696 8.258-8.258V99.097h148.645v313.806H181.677v-57.806c0-4.562-3.697-8.258-8.258-8.258s-8.258 3.696-8.258 8.258v57.806H43.676c-14.976 0-27.16-12.183-27.16-27.16m478.968 0c0 14.977-12.183 27.16-27.16 27.16H346.839V99.097h121.485c14.977 0 27.16 12.183 27.16 27.16z" style="fill:#121b21"/></svg>
