<svg xmlns="http://www.w3.org/2000/svg" xml:space="preserve" viewBox="0 0 512 512" width="48" height="48"><path d="M8.258 384.826V127.174c0-20.067 16.268-36.335 36.335-36.335h422.813c20.067 0 36.335 16.268 36.335 36.335v257.652c0 20.067-16.268 36.335-36.335 36.335H44.594c-20.068 0-36.336-16.268-36.336-36.335" style="fill:#3db4ea"/><path d="m218.952 152.99 27.278-1.409 9.77-25.508 9.77 25.508 27.278 1.409-21.24 17.173 7.089 26.379L256 181.649l-22.897 14.893 7.089-26.379zM152.99 293.048l-1.409-27.278-25.508-9.77 25.508-9.77 1.409-27.278 17.173 21.24 26.379-7.089L181.649 256l14.893 22.897-26.379-7.089zm140.058 65.962-27.278 1.409-9.77 25.508-9.77-25.508-27.278-1.409 21.24-17.173-7.089-26.379L256 330.351l22.897-14.893-7.089 26.379zm65.962-140.058 1.409 27.278 25.508 9.77-25.508 9.77-1.409 27.278-17.173-21.24-26.379 7.089L330.351 256l-14.893-22.897 26.379 7.089z" style="fill:#fff"/><path d="m293.474 144.743-21.914-1.132-7.848-20.491a8.259 8.259 0 0 0-15.424 0l-7.848 20.491-21.914 1.132a8.259 8.259 0 0 0-4.767 14.669l17.063 13.796-5.695 21.191a8.258 8.258 0 0 0 12.478 9.066L256 191.501l18.395 11.964a8.25 8.25 0 0 0 9.357-.242 8.26 8.26 0 0 0 3.122-8.824l-5.695-21.191 17.063-13.796a8.258 8.258 0 0 0-4.768-14.669m-26.859 18.999a8.26 8.26 0 0 0-2.784 8.565l1.493 5.556-4.823-3.137c-1.369-.891-2.935-1.336-4.502-1.336s-3.134.445-4.502 1.336l-4.823 3.137 1.493-5.556a8.26 8.26 0 0 0-2.784-8.565l-4.474-3.617 5.745-.297a8.26 8.26 0 0 0 7.286-5.294l2.06-5.374 2.058 5.373a8.26 8.26 0 0 0 7.286 5.294l5.745.297zm-63.393 64.508a8.26 8.26 0 0 0-8.824-3.122l-21.191 5.695-13.796-17.063a8.258 8.258 0 0 0-14.669 4.767l-1.132 21.914-20.491 7.848a8.259 8.259 0 0 0 0 15.424l20.491 7.848 1.132 21.914a8.259 8.259 0 0 0 14.669 4.767l13.796-17.063 21.191 5.695a8.257 8.257 0 0 0 9.066-12.478L191.5 256l11.964-18.395a8.25 8.25 0 0 0-.242-9.355m-28.497 32.252 3.137 4.823-5.556-1.493a8.26 8.26 0 0 0-8.565 2.784l-3.617 4.474-.297-5.745a8.26 8.26 0 0 0-5.294-7.286L149.159 256l5.373-2.058a8.26 8.26 0 0 0 5.294-7.286l.297-5.745 3.617 4.474a8.26 8.26 0 0 0 8.565 2.784l5.556-1.493-3.137 4.823a8.26 8.26 0 0 0 .001 9.003m123.514 92.087-17.063-13.796 5.695-21.191a8.258 8.258 0 0 0-12.479-9.066L256 320.5l-18.395-11.964a8.257 8.257 0 0 0-12.478 9.066l5.695 21.191-17.063 13.796a8.259 8.259 0 0 0 4.767 14.669l21.914 1.132 7.848 20.491a8.259 8.259 0 0 0 15.424 0l7.848-20.491 21.914-1.132a8.259 8.259 0 0 0 4.765-14.669m-32.895-.417a8.26 8.26 0 0 0-7.286 5.294L256 362.84l-2.058-5.373a8.26 8.26 0 0 0-7.286-5.294l-5.745-.297 4.474-3.617a8.26 8.26 0 0 0 2.784-8.565l-1.493-5.556 4.823 3.137a8.26 8.26 0 0 0 9.006 0l4.823-3.137-1.493 5.556a8.26 8.26 0 0 0 2.784 8.565l4.474 3.617zm123.537-103.884-20.491-7.848-1.132-21.914a8.259 8.259 0 0 0-14.669-4.767l-13.796 17.063-21.191-5.695a8.26 8.26 0 0 0-8.824 3.122 8.26 8.26 0 0 0-.242 9.356L320.5 256l-11.964 18.395a8.257 8.257 0 0 0 9.066 12.478l21.191-5.695 13.796 17.063a8.26 8.26 0 0 0 14.669-4.767l1.132-21.914 20.491-7.848a8.259 8.259 0 0 0 0-15.424m-31.416 9.77a8.26 8.26 0 0 0-5.294 7.286l-.297 5.745-3.617-4.474a8.26 8.26 0 0 0-8.566-2.783l-5.556 1.493 3.137-4.823a8.26 8.26 0 0 0 0-9.006l-3.137-4.823 5.556 1.493a8.25 8.25 0 0 0 8.565-2.784l3.617-4.474.297 5.745a8.26 8.26 0 0 0 5.294 7.286l5.373 2.058z" style="fill:#111a21"/><path d="M468.324 82.581H43.675C19.593 82.581 0 102.173 0 126.256v259.487c0 24.084 19.593 43.676 43.675 43.676h424.648c24.084 0 43.676-19.593 43.676-43.676V126.256c.001-24.083-19.592-43.675-43.675-43.675m27.16 303.162c0 14.977-12.183 27.16-27.16 27.16H43.675c-14.976 0-27.159-12.183-27.159-27.16V126.256c0-14.976 12.183-27.159 27.159-27.159h424.648c14.977 0 27.16 12.183 27.16 27.159z" style="fill:#111a21"/></svg>
