<svg xmlns="http://www.w3.org/2000/svg" xml:space="preserve" viewBox="0 0 512 512" width="48" height="48"><path d="M173.419 90.839H338.58v330.323H173.419z" style="fill:#ffe000"/><path d="M468.324 90.839H338.581v330.323h129.743c19.561 0 35.418-15.858 35.418-35.418V126.256c0-19.561-15.857-35.417-35.418-35.417" style="fill:#ed1f34"/><path d="M43.676 90.839c-19.561 0-35.418 15.857-35.418 35.417v259.487c0 19.561 15.858 35.418 35.418 35.418h129.743V90.839z" style="fill:#164fce"/><path d="M222.485 219.139c-8.855 0-16.034 7.179-16.034 16.034v68.269l32.068-30.929v-37.341c0-8.854-7.178-16.033-16.034-16.033m67.03 0c8.855 0 16.034 7.179 16.034 16.034v68.269l-32.068-30.929v-37.341c0-8.854 7.178-16.033 16.034-16.033" style="fill:#f2a643"/><path d="M238.519 235.173v37.341L256 281.906l17.481-9.392v-37.341z" style="fill:#ed1f34"/><path d="M289.515 210.881c-10.497 0-19.457 6.692-22.844 16.035h-2.412v-28.912a8.257 8.257 0 0 0-8.258-8.258h-9.213c-4.562 0-8.258 3.697-8.258 8.258s3.696 8.258 8.258 8.258h.955v20.654h-2.411c-3.387-9.342-12.347-16.035-22.844-16.035-13.395 0-24.293 10.897-24.293 24.293v68.269a8.258 8.258 0 0 0 13.992 5.944l27.732-26.747 7.825 4.204v27.153a8.257 8.257 0 0 0 8.258 8.258 8.257 8.257 0 0 0 8.258-8.258v-27.153l7.825-4.204 27.732 26.747a8.26 8.26 0 0 0 8.963 1.657 8.26 8.26 0 0 0 5.029-7.601v-68.269c-.003-13.395-10.9-24.293-24.294-24.293m-74.805 24.292c0-4.288 3.488-7.777 7.777-7.777s7.775 3.489 7.775 7.777v33.832l-15.552 15zm32.067 8.258h18.445v24.144L256 272.532l-9.223-4.956zm50.513 40.574-15.552-15v-33.832c0-4.288 3.488-7.777 7.775-7.777 4.289 0 7.777 3.489 7.777 7.777zM468.324 82.581H43.676C19.594 82.581 0 102.173 0 126.256v259.487c0 24.084 19.594 43.676 43.676 43.676h424.647c24.083 0 43.676-19.593 43.676-43.676V126.256c.001-24.083-19.593-43.675-43.675-43.675M16.516 385.743V126.256c0-14.976 12.183-27.159 27.16-27.159h121.485v222.968a8.257 8.257 0 0 0 8.258 8.258 8.257 8.257 0 0 0 8.258-8.258V99.097h148.645v313.806H181.677v-57.806a8.257 8.257 0 0 0-8.258-8.258 8.257 8.257 0 0 0-8.258 8.258v57.806H43.676c-14.976 0-27.16-12.183-27.16-27.16m478.968 0c0 14.977-12.183 27.16-27.16 27.16H346.839V99.097h121.485c14.977 0 27.16 12.183 27.16 27.159z" style="fill:#121b21"/></svg>
