<svg xmlns="http://www.w3.org/2000/svg" xml:space="preserve" viewBox="0 0 512 512" width="48" height="48"><path d="M468.324 90.839H43.676c-19.562 0-35.418 15.857-35.418 35.417V256h495.484V126.256c0-19.561-15.858-35.417-35.418-35.417" style="fill:#ed1f34"/><path d="M8.258 385.743c0 19.561 15.857 35.418 35.418 35.418h424.648c19.561 0 35.418-15.857 35.418-35.418V256H8.258z" style="fill:#fff"/><path d="M503.742 264.258H470.71a8.26 8.26 0 0 1-8.258-8.258 8.26 8.26 0 0 1 8.258-8.258h33.032A8.26 8.26 0 0 1 512 256a8.26 8.26 0 0 1-8.258 8.258m-66.065 0H8.258A8.26 8.26 0 0 1 0 256a8.26 8.26 0 0 1 8.258-8.258h429.419a8.26 8.26 0 0 1 8.258 8.258 8.26 8.26 0 0 1-8.258 8.258" style="fill:#121b21"/><path d="M468.324 429.419H43.675C19.593 429.419 0 409.827 0 385.743V126.256c0-24.083 19.593-43.675 43.675-43.675h424.648c24.084 0 43.676 19.593 43.676 43.675v259.487c.001 24.084-19.592 43.676-43.675 43.676M43.675 99.097c-14.976 0-27.159 12.183-27.159 27.159v259.487c0 14.977 12.183 27.16 27.159 27.16h424.648c14.977 0 27.16-12.183 27.16-27.16V126.256c0-14.976-12.183-27.159-27.16-27.159z" style="fill:#121b21"/></svg>
