<svg xmlns="http://www.w3.org/2000/svg" xml:space="preserve" viewBox="0 0 512 512" width="48" height="48"><path d="M466.625 90.72H330.304v330.304h136.192c20.48 0 37.184-15.872 37.184-35.393V126.24c.001-19.648-16.575-35.52-37.055-35.52" style="fill:#ed1f34"/><path d="M173.378 90.721h165.184V421.03H173.378z" style="fill:#103b9b"/><path d="M43.712 90.72c-19.584 0-35.392 15.872-35.392 35.393v259.52c0 19.584 15.872 35.392 35.392 35.392H173.44V90.72z" style="fill:#ed1f34"/><path d="M90.816 249.505c-20.48 0-38.912-13.824-44.672-33.472-1.216-4.032 1.088-8.128 5.12-9.28s8.128 1.088 9.28 5.12c3.904 13.376 16.384 22.72 30.272 22.72s26.432-9.28 30.272-22.72c1.216-4.032 5.312-6.208 9.28-5.12 4.032 1.216 6.208 5.312 5.12 9.28-5.696 19.647-24.064 33.472-44.672 33.472" style="fill:#ffe000"/><path d="M90.816 191.328c-6.4 0-11.584 5.184-11.584 11.584s5.184 11.584 11.584 11.584 11.584-5.184 11.584-11.584-5.184-11.584-11.584-11.584" style="fill:#ffe000"/><path d="M90.816 221.92c-10.496 0-19.072-8.576-19.072-19.072s8.576-19.072 19.072-19.072 19.072 8.576 19.072 19.072c0 10.56-8.576 19.072-19.072 19.072m0-23.104c-2.176 0-4.096 1.792-4.096 4.096 0 2.176 1.792 4.096 4.096 4.096 2.176 0 4.096-1.792 4.096-4.096s-1.792-4.096-4.096-4.096m44.096 166.912c-4.096 0-7.488-3.392-7.488-7.488v-88.576c0-4.096 3.392-7.488 7.488-7.488s7.488 3.392 7.488 7.488v88.576c0 4.161-3.392 7.488-7.488 7.488m-88.128 0c-4.096 0-7.488-3.392-7.488-7.488v-88.576c0-4.096 3.392-7.488 7.488-7.488s7.488 3.392 7.488 7.488v88.576c0 4.161-3.392 7.488-7.488 7.488m44.032-194.432c-4.096 0-7.488-3.392-7.488-7.488v-10.176c0-4.096 3.392-7.488 7.488-7.488s7.488 3.392 7.488 7.488v10.176c0 4.096-3.328 7.488-7.488 7.488m0 125.696c-9.088 0-16.512 7.425-16.512 16.512s7.424 16.513 16.512 16.513 16.512-7.425 16.512-16.513c.064-9.088-7.424-16.512-16.512-16.512" style="fill:#ffe000"/><path d="M90.816 337.504c-13.184 0-24-10.816-24-24s10.816-24 24-24 24 10.816 24 24c.064 13.312-10.688 24-24 24m0-33.024a9.014 9.014 0 0 0-9.024 9.024c0 4.992 3.968 9.024 9.024 9.024s9.024-4.032 9.024-9.024a9.013 9.013 0 0 0-9.024-9.024m16.576 60.608H74.368c-4.096 0-7.488-3.392-7.488-7.488s3.392-7.488 7.488-7.488h33.024c4.096 0 7.488 3.392 7.488 7.488s-3.392 7.488-7.488 7.488m0-88.064H74.368c-4.096 0-7.488-3.392-7.488-7.488s3.392-7.488 7.488-7.488h33.024c4.096 0 7.488 3.392 7.488 7.488s-3.392 7.488-7.488 7.488" style="fill:#ffe000"/><path d="M468.288 82.528H43.712C19.584 82.528 0 102.112 0 126.24v259.52c0 24.128 19.584 43.712 43.712 43.712h424.576c24.128 0 43.712-19.584 43.712-43.712V126.24c0-24.128-19.584-43.712-43.712-43.712M16.512 385.632V126.24c0-14.976 12.224-27.2 27.2-27.2h121.472v313.793H43.712c-15.04-.001-27.2-12.224-27.2-27.201m478.976 0c0 14.976-12.224 27.2-27.2 27.2H346.817V388a8.303 8.303 0 0 0-8.32-8.32 8.303 8.303 0 0 0-8.32 8.32v24.832h-148.48V99.04h148.608v256a8.303 8.303 0 0 0 8.32 8.32 8.303 8.303 0 0 0 8.32-8.32v-256h121.473c14.976 0 27.2 12.224 27.2 27.2v259.392z" style="fill:#121b21"/></svg>
