<svg xmlns="http://www.w3.org/2000/svg" xml:space="preserve" viewBox="0 0 512 512" width="48" height="48"><path d="M8.258 384.275v-256.55c0-20.372 16.515-36.886 36.886-36.886h421.712c20.371 0 36.886 16.514 36.886 36.886v256.551c0 20.371-16.515 36.886-36.886 36.886H45.144c-20.371-.001-36.886-16.516-36.886-36.887" style="fill:#ffe000"/><path d="M41.29 123.871h429.419v264.258H41.29z" style="fill:#ed1f34"/><path d="M345.887 203.597H294.72c0 21.385-17.335 38.72-38.72 38.72s-38.72-17.336-38.72-38.72h-51.167c0 44.167 31.865 80.867 73.854 88.433-5.437 4.574-8.899 11.42-8.899 19.082v31.221h49.867v-31.221c0-7.661-3.463-14.508-8.9-19.082 41.987-7.566 73.852-44.267 73.852-88.433" style="fill:#ffe000"/><path d="M356.898 195.338H294.72a8.257 8.257 0 0 0-8.258 8.258c0 8.428-3.442 16.066-8.991 21.587v-47.256h4.955a8.257 8.257 0 0 0 8.258-8.258 8.257 8.257 0 0 0-8.258-8.258h-13.213a8.257 8.257 0 0 0-8.258 8.258v63.981c-1.613.265-3.267.41-4.955.41s-3.342-.144-4.955-.41v-63.981a8.257 8.257 0 0 0-8.258-8.258h-13.213a8.257 8.257 0 0 0-8.258 8.258 8.257 8.257 0 0 0 8.258 8.258h4.955v47.256c-5.549-5.521-8.991-13.159-8.991-21.587a8.257 8.257 0 0 0-8.258-8.258h-62.178c-4.562 0-8.258 3.697-8.258 8.258s3.696 8.258 8.258 8.258h3.101c3.308 39.618 30.197 73.174 67.738 85.178a33.1 33.1 0 0 0-3.133 14.077v31.221a8.257 8.257 0 0 0 8.258 8.258h49.867a8.257 8.257 0 0 0 8.258-8.258v-31.22c0-4.933-1.091-9.726-3.133-14.077 37.541-12.004 64.431-45.561 67.738-85.178h3.101a8.257 8.257 0 0 0 8.258-8.258 8.257 8.257 0 0 0-8.257-8.259m-86.329 88.563a8.26 8.26 0 0 0-6.515 6 8.25 8.25 0 0 0 2.664 8.446 16.65 16.65 0 0 1 5.957 12.763v22.963h-33.35V311.11c0-4.925 2.171-9.577 5.957-12.763a8.257 8.257 0 0 0-3.851-14.446c-36.121-6.507-63.033-36.152-66.646-72.047h34.965c2.94 16.51 14.534 30.063 29.907 35.786q.39.159.798.279a46.8 46.8 0 0 0 15.546 2.656c5.447 0 10.677-.943 15.546-2.656q.41-.12.799-.28c15.372-5.723 26.966-19.277 29.906-35.786h34.965c-3.614 35.897-30.527 65.541-66.648 72.048m197.755-201.32H43.676C19.594 82.581 0 102.173 0 126.257v259.487c0 24.083 19.594 43.675 43.676 43.675h424.647c24.083 0 43.676-19.593 43.676-43.676V126.257c.001-24.084-19.593-43.676-43.675-43.676m27.16 303.162c0 14.977-12.183 27.16-27.16 27.16H43.676c-14.977 0-27.16-12.183-27.16-27.16V126.257c0-14.977 12.183-27.16 27.16-27.16h424.647c14.977 0 27.16 12.183 27.16 27.16z" style="fill:#121b21"/></svg>
