<svg xmlns="http://www.w3.org/2000/svg" xml:space="preserve" viewBox="0 0 512 512" width="48" height="48"><path d="M8.258 387.578V124.422c0-18.548 15.035-33.583 33.583-33.583h428.318c18.548 0 33.583 15.035 33.583 33.583v263.157c0 18.548-15.035 33.583-33.583 33.583H41.841c-18.548-.001-33.583-15.036-33.583-33.584" style="fill:#103b9b"/><path d="M132.129 200.216 215.804 256H256v-26.797l-83.675-55.784L256 117.636V90.839h-40.196l-83.675 55.784-83.675-55.784h-6.613c-16.366 0-29.99 11.709-32.971 27.205l83.063 55.375-83.675 55.784V256h40.196z" style="fill:#fff"/><path d="M145.528 182.351 256 256v-17.484L145.373 164.59 256 90.839h-26.797l-110.466 73.652-98.57-65.714a33.7 33.7 0 0 0-8.967 11.904l107.389 71.765L8.258 256h26.797z" style="fill:#ed1f34"/><path d="M256 151.123H154.426V90.839h-44.594v60.284H8.258v44.593h101.574V256h44.594v-60.284H256z" style="fill:#fff"/><path d="M256 161.445H144.103V90.839h-23.948v70.606H8.258v23.949h111.897V256h23.948v-70.606H256z" style="fill:#ed1f34"/><path d="M324.817 176.365v82.961c0 59.527 55.054 73.135 55.054 73.135s55.054-13.607 55.054-73.134v-82.961z" style="fill:#3db4ea"/><path d="M379.871 332.461s55.054-13.608 55.054-73.134H324.817c0 59.526 55.054 73.134 55.054 73.134" style="fill:#bf2300"/><path d="M367.759 296.675a8.257 8.257 0 0 1-8.258-8.258v-79.02c0-4.561 3.696-8.258 8.258-8.258s8.258 3.697 8.258 8.258v79.02a8.26 8.26 0 0 1-8.258 8.258" style="fill:#1a1c20"/><path d="M391.983 296.675a8.257 8.257 0 0 1-8.258-8.258v-79.02a8.257 8.257 0 0 1 8.258-8.258 8.257 8.257 0 0 1 8.258 8.258v79.02a8.26 8.26 0 0 1-8.258 8.258" style="fill:#134923"/><path d="M434.925 168.107H324.817a8.257 8.257 0 0 0-8.258 8.258v82.961c0 34.062 16.68 54.352 30.674 65.377 14.991 11.809 30.024 15.618 30.656 15.774a8.25 8.25 0 0 0 3.964 0c.632-.156 15.665-3.965 30.656-15.774 13.994-11.024 30.674-31.315 30.674-65.377v-82.961a8.257 8.257 0 0 0-8.258-8.258m-8.258 91.218c0 46.643-37.487 61.552-46.796 64.535-9.309-2.982-46.796-17.892-46.796-64.535v-74.702h93.591zm41.657-176.744H43.676C19.593 82.581 0 102.173 0 126.256v259.487c0 24.084 19.593 43.676 43.676 43.676h424.648c24.082 0 43.675-19.593 43.675-43.676V126.256c.001-24.083-19.593-43.675-43.675-43.675m27.16 303.162c0 14.977-12.183 27.16-27.16 27.16H43.676c-14.977 0-27.16-12.183-27.16-27.16V126.256c0-14.976 12.183-27.159 27.16-27.159h424.648c14.976 0 27.159 12.183 27.159 27.159z" style="fill:#1a1c20"/></svg>
