<svg xmlns="http://www.w3.org/2000/svg" xml:space="preserve" viewBox="0 0 512 512" width="48" height="48"><path d="M503.742 385.927V126.073c0-19.459-15.775-35.234-35.234-35.234H43.492c-19.459 0-35.234 15.775-35.234 35.234v259.854c0 19.459 15.775 35.234 35.234 35.234h425.015c19.46 0 35.235-15.775 35.235-35.234" style="fill:#ed1f34"/><path d="M298.931 330.323a8.25 8.25 0 0 1-4.854-1.577L256 301.08l-38.077 27.665a8.256 8.256 0 0 1-12.707-9.233l14.544-44.762-34.609-25.145c-5-3.632-6.871-4.992-6.871-9.199a8.26 8.26 0 0 1 8.258-8.258h47.064l14.545-44.763a8.259 8.259 0 0 1 15.708 0l14.545 44.763h47.067a8.257 8.257 0 0 1 4.854 14.94l-38.077 27.665 14.544 44.762a8.26 8.26 0 0 1-3 9.234 8.3 8.3 0 0 1-4.857 1.574m-28.882-39.451 13.174 9.572-5.032-15.487zm-36.241-5.915-5.032 15.487 13.174-9.572zm5.366-16.516 16.824 12.224 16.826-12.224-6.427-19.779H245.6zm44.59-19.779 3.111 9.572 13.173-9.572zm-71.813 0 13.173 9.571 3.109-9.571zm39.016-16.516h10.065L256 216.66z" style="fill:#134923"/><path d="M468.324 429.419H43.675C19.593 429.419 0 409.827 0 385.743V126.256c0-24.083 19.593-43.675 43.675-43.675h424.648c24.084 0 43.676 19.593 43.676 43.675v259.487c.001 24.084-19.592 43.676-43.675 43.676M43.675 99.097c-14.976 0-27.159 12.183-27.159 27.159v259.487c0 14.977 12.183 27.16 27.159 27.16h424.648c14.977 0 27.16-12.183 27.16-27.16V126.256c0-14.976-12.183-27.159-27.16-27.159z" style="fill:#111a21"/></svg>
