<svg xmlns="http://www.w3.org/2000/svg" xml:space="preserve" viewBox="0 0 512 512" width="48" height="48"><path d="m256 256-82.581 55.054h330.323V200.946H173.419z" style="fill:#333"/><path d="M20.818 412.789a35.26 35.26 0 0 0 22.858 8.373h424.648c19.561 0 35.418-15.857 35.418-35.418v-74.689H173.42z" style="fill:#ffe000"/><path d="M468.324 90.839H43.676a35.26 35.26 0 0 0-22.858 8.373l152.601 101.735h330.323v-74.689c0-19.563-15.858-35.419-35.418-35.419" style="fill:#048b7d"/><path d="m256 256-82.581-55.054L20.818 99.211c-7.679 6.497-12.56 16.199-12.56 27.046v259.486c0 10.847 4.881 20.548 12.56 27.046l152.601-101.735z" style="fill:#ed1f34"/><path d="M503.742 319.312H173.419c-4.561 0-8.258-3.696-8.258-8.258s3.697-8.258 8.258-8.258h330.323c4.561 0 8.258 3.696 8.258 8.258s-3.697 8.258-8.258 8.258m0-110.108H173.419a8.257 8.257 0 0 1-8.258-8.258 8.257 8.257 0 0 1 8.258-8.258h330.323a8.257 8.257 0 0 1 8.258 8.258 8.257 8.257 0 0 1-8.258 8.258" style="fill:#fff"/><path d="m31.931 237.335 45.806-2.368 16.405-42.832 16.405 42.832 45.806 2.368-35.666 28.838 11.903 44.294-38.448-25.009-38.449 25.009 11.904-44.294z" style="fill:#ffe000"/><path d="M64.413 244.989h59.458v36.163H64.413z" style="fill:#fff"/><path d="m105.821 256 35.406-35.406a8.258 8.258 0 0 0-11.678-11.679l-35.407 35.406-35.407-35.406a8.26 8.26 0 0 0-11.679 0c-2.713 2.714-3.135 6.84-1.283 10.003L31.64 233.05a8.258 8.258 0 0 0 11.678 11.679l13.937-13.936L82.463 256l-35.406 35.406a8.258 8.258 0 0 0 11.678 11.679l35.407-35.406 35.407 35.406c1.612 1.612 3.726 2.418 5.839 2.418s4.227-.806 5.839-2.418a8.26 8.26 0 0 0 0-11.679z" style="fill:#111a21"/><path d="M468.324 82.581H43.675c-10.581 0-20.295 3.785-27.862 10.069a8 8 0 0 0-.838.727C5.808 101.388 0 113.154 0 126.257v259.486c0 13.167 5.865 24.982 15.11 32.997.192.185.391.355.598.519 7.582 6.337 17.335 10.161 27.967 10.161h424.648c24.084 0 43.676-19.594 43.676-43.676V126.257c.001-24.083-19.592-43.676-43.675-43.676M16.516 385.743V126.257a27.02 27.02 0 0 1 5.478-16.337L241.112 256 21.994 402.08a27.03 27.03 0 0 1-5.478-16.337m478.968 0c0 14.977-12.183 27.16-27.16 27.16H43.675c-2.36 0-4.65-.304-6.835-.872l223.741-149.16a8.26 8.26 0 0 0 0-13.742L36.841 99.969a27 27 0 0 1 6.834-.872h424.648c14.977 0 27.16 12.183 27.16 27.16z" style="fill:#111a21"/></svg>
