<svg xmlns="http://www.w3.org/2000/svg" xml:space="preserve" viewBox="0 0 512 512" width="48" height="48"><path d="M8.258 200.946h495.484v110.108H8.258z" style="fill:#259245"/><path d="M8.258 385.743c0 19.561 15.858 35.418 35.418 35.418h424.648c19.561 0 35.418-15.858 35.418-35.418v-74.689H8.258z" style="fill:#ed1f34"/><path d="M468.324 90.839H43.676c-19.561 0-35.418 15.857-35.418 35.418v74.689h495.484v-74.689c0-19.562-15.858-35.418-35.418-35.418" style="fill:#ffe000"/><path d="m169.169 236.505 63.933-3.303L256 173.419l22.898 59.783 63.933 3.303-49.782 40.251 16.615 61.825L256 303.674l-53.664 34.907 16.615-61.825z" style="fill:#fff"/><path d="m343.257 228.258-58.568-3.026-20.977-54.766a8.257 8.257 0 0 0-15.424 0l-20.977 54.766-58.568 3.026a8.257 8.257 0 0 0-4.766 14.669l45.603 36.874-15.22 56.637a8.258 8.258 0 0 0 12.479 9.066L256 313.527l49.161 31.977a8.25 8.25 0 0 0 4.502 1.336 8.26 8.26 0 0 0 7.977-10.401l-15.22-56.637 45.604-36.874a8.258 8.258 0 0 0-4.767-14.67m-55.4 42.077a8.26 8.26 0 0 0-2.782 8.565l11.018 41.002-35.59-23.15c-1.369-.891-2.935-1.336-4.502-1.336s-3.134.445-4.502 1.336l-35.59 23.15 11.018-41.002a8.26 8.26 0 0 0-2.782-8.565l-33.016-26.694 42.401-2.191a8.26 8.26 0 0 0 7.286-5.293l15.186-39.649 15.186 39.649a8.26 8.26 0 0 0 7.286 5.293l42.401 2.191z" style="fill:#111a21"/><path d="M468.324 82.581H43.676C19.593 82.581 0 102.173 0 126.257v259.487c0 24.083 19.593 43.675 43.676 43.675h424.648c24.083 0 43.675-19.593 43.675-43.676V126.257c.001-24.084-19.592-43.676-43.675-43.676m27.16 303.162c0 14.977-12.183 27.16-27.16 27.16H43.676c-14.977 0-27.16-12.183-27.16-27.16V126.257c0-14.977 12.183-27.16 27.16-27.16h424.648c14.976 0 27.159 12.183 27.159 27.16z" style="fill:#111a21"/></svg>
