<svg xmlns="http://www.w3.org/2000/svg" xml:space="preserve" viewBox="0 0 512 512" width="48" height="48"><path d="M8.258 200.946h495.484v110.108H8.258z" style="fill:#164fce"/><path d="M8.258 311.054h495.484v75.5c0 19.114-15.494 34.608-34.608 34.608H42.866c-19.114 0-34.608-15.494-34.608-34.608z" style="fill:#f2a643"/><path d="M40.692 90.839H471.31c17.912 0 32.433 14.521 32.433 32.432v77.675H8.258v-77.675c0-17.911 14.521-32.432 32.434-32.432" style="fill:#ed1f34"/><path d="M511.937 312.088c-.509 4.192-4.286 7.224-8.509 7.224H8.572c-4.222 0-8-3.032-8.509-7.224a8.26 8.26 0 0 1 8.195-9.292h495.484a8.26 8.26 0 0 1 8.195 9.292M74.323 209.204h429.106c4.223 0 8-3.032 8.509-7.224a8.26 8.26 0 0 0-8.195-9.292H74.637c-4.222 0-8 3.032-8.509 7.224a8.26 8.26 0 0 0 8.195 9.292m-66.065 0h32.718c4.223 0 8-3.032 8.509-7.224a8.26 8.26 0 0 0-8.195-9.292H8.572c-4.222 0-8 3.032-8.509 7.224a8.26 8.26 0 0 0 8.195 9.292" style="fill:#1a1c20"/><path d="M382.564 237.649v-36.702h40.393v-36.702h40.393v-36.702h40.392v-3.12c0-18.548-15.035-33.583-33.583-33.583h-52.588v36.702h-40.393v36.702h-40.392v36.703h-40.393v36.702H256v36.702h40.393v36.703h40.393v36.702h40.393v36.702h40.393v36.703h52.587c18.548 0 33.583-15.035 33.583-33.583v-3.119h-40.393v-36.702h-40.393v-36.703h-40.393v-36.702H342.17V237.65h40.394z" style="fill:#fff"/><path d="M468.325 82.581H43.677C19.593 82.581 0 102.173 0 126.257v259.487c0 24.083 19.593 43.675 43.676 43.675h424.648c24.083 0 43.675-19.593 43.675-43.675V126.257c.001-24.084-19.591-43.676-43.674-43.676m3.282 293.62v-28.444a8.26 8.26 0 0 0-8.258-8.258h-32.135v-28.445a8.26 8.26 0 0 0-8.258-8.258h-32.135v-28.444a8.26 8.26 0 0 0-8.258-8.258h-32.135v-20.187h32.135a8.26 8.26 0 0 0 8.258-8.258v-28.444h32.135a8.26 8.26 0 0 0 8.258-8.258v-28.444h32.135a8.26 8.26 0 0 0 8.258-8.258V135.8h23.877v240.401zm-455.091 9.543V126.257c0-14.977 12.183-27.16 27.16-27.16h365.637v20.186h-32.135a8.26 8.26 0 0 0-8.258 8.258v28.444h-32.135a8.26 8.26 0 0 0-8.258 8.258v28.445h-32.135a8.26 8.26 0 0 0-8.258 8.258v28.444H256a8.26 8.26 0 0 0-8.258 8.258v36.703a8.26 8.26 0 0 0 8.258 8.258h32.135v28.444a8.26 8.26 0 0 0 8.258 8.258h32.135v28.444a8.26 8.26 0 0 0 8.258 8.258h32.135v28.444a8.26 8.26 0 0 0 8.258 8.258h32.135v20.187H43.677c-14.977.001-27.161-12.182-27.161-27.158m451.809 27.159H425.83v-28.444a8.26 8.26 0 0 0-8.258-8.258h-32.135v-28.444a8.26 8.26 0 0 0-8.258-8.258h-32.135v-28.445a8.26 8.26 0 0 0-8.258-8.258h-32.135v-28.444a8.26 8.26 0 0 0-8.258-8.258h-32.135v-20.187h32.135a8.26 8.26 0 0 0 8.258-8.258v-28.444h32.135a8.26 8.26 0 0 0 8.258-8.258v-28.444h32.135a8.26 8.26 0 0 0 8.258-8.258V135.8h32.135a8.26 8.26 0 0 0 8.258-8.258V99.097h42.495c12.565 0 23.161 8.58 26.249 20.186H463.35a8.26 8.26 0 0 0-8.258 8.258v28.444h-32.136a8.26 8.26 0 0 0-8.258 8.258v28.445h-32.135a8.26 8.26 0 0 0-8.258 8.258v28.444H342.17a8.26 8.26 0 0 0-8.258 8.258v36.703a8.26 8.26 0 0 0 8.258 8.258h32.135v28.444a8.26 8.26 0 0 0 8.258 8.258h32.135v28.444a8.26 8.26 0 0 0 8.258 8.258h32.135v28.444a8.26 8.26 0 0 0 8.258 8.258h31.223c-3.086 11.609-13.682 20.188-26.247 20.188" style="fill:#1a1c20"/></svg>
