<svg xmlns="http://www.w3.org/2000/svg" xml:space="preserve" viewBox="0 0 512 512" width="48" height="48"><path d="M354.862 90.831H44.044c-19.766 0-35.79 16.024-35.79 35.79v195.294z" style="fill:#164fce"/><path d="M93.035 220.373c-24.68 0-44.76-20.079-44.76-44.76s20.079-44.76 44.76-44.76 44.76 20.079 44.76 44.76c.001 24.681-20.079 44.76-44.76 44.76m0-73.005c-15.575 0-28.244 12.67-28.244 28.244s12.67 28.244 28.244 28.244 28.244-12.67 28.244-28.244-12.669-28.244-28.244-28.244" style="fill:#ffe610"/><path d="M93.035 186.624c6.071 0 11.011-4.939 11.011-11.011s-4.939-11.011-11.011-11.011-11.011 4.939-11.011 11.011 4.94 11.011 11.011 11.011" style="fill:#ffe610"/><path d="M468.324 421.157c19.56 0 35.418-15.857 35.418-35.418V190.094L157.136 421.157z" style="fill:#259245"/><path d="M354.853 90.836 8.259 321.909v33.083L404.478 90.836zM157.135 421.157l346.606-231.063v-33.082L107.51 421.157z" style="fill:#fff"/><path d="M468.324 90.836h-63.846L8.259 354.992v30.747c0 19.562 15.857 35.418 35.418 35.418h63.832L503.74 157.011v-30.758c.001-19.56-15.855-35.417-35.416-35.417" style="fill:#ed1f34"/><path d="M93.035 147.368a8.257 8.257 0 0 1-8.258-8.258v-12.857a8.257 8.257 0 0 1 8.258-8.258 8.256 8.256 0 0 1 8.258 8.258v12.857a8.256 8.256 0 0 1-8.258 8.258m-25.81 10.692a8.24 8.24 0 0 1-5.84-2.418l-9.092-9.092a8.258 8.258 0 0 1 11.679-11.679l9.092 9.092a8.258 8.258 0 0 1-5.839 14.097m-10.691 25.811H43.675a8.257 8.257 0 0 1-8.258-8.258 8.257 8.257 0 0 1 8.258-8.258h12.858a8.256 8.256 0 0 1 8.258 8.258 8.256 8.256 0 0 1-8.257 8.258m1.599 34.903a8.23 8.23 0 0 1-5.839-2.418 8.256 8.256 0 0 1-.001-11.678l9.092-9.093a8.258 8.258 0 0 1 11.68 11.678l-9.092 9.093a8.24 8.24 0 0 1-5.84 2.418m34.902 14.457a8.257 8.257 0 0 1-8.258-8.258v-12.858a8.257 8.257 0 0 1 8.258-8.258 8.256 8.256 0 0 1 8.258 8.258v12.858a8.257 8.257 0 0 1-8.258 8.258m34.904-14.457a8.24 8.24 0 0 1-5.84-2.418l-9.093-9.093a8.258 8.258 0 0 1 11.679-11.679l9.093 9.093a8.258 8.258 0 0 1-5.839 14.097m14.456-34.903h-12.858a8.256 8.256 0 0 1-8.258-8.258 8.256 8.256 0 0 1 8.258-8.258h12.858a8.256 8.256 0 0 1 8.258 8.258 8.256 8.256 0 0 1-8.258 8.258m-23.549-25.811a8.23 8.23 0 0 1-5.84-2.419 8.256 8.256 0 0 1 .001-11.678l9.093-9.092a8.258 8.258 0 0 1 11.678 11.679l-9.093 9.092a8.23 8.23 0 0 1-5.839 2.418" style="fill:#ffe610"/><path d="M511.999 156.884v-30.63c0-24.083-19.594-43.676-43.676-43.676H43.677c-24.083 0-43.676 19.594-43.676 43.676v228.569q-.002.148 0 .298v30.619c0 24.083 19.594 43.676 43.676 43.676h63.724c.036 0 .072.007.107.007.03 0 .059-.007.09-.007h360.724c24.083 0 43.676-19.594 43.676-43.676V157.182q.003-.15.001-.298M43.677 99.094h333.527L16.517 339.561V126.254c0-14.976 12.185-27.16 27.16-27.16m-27.16 286.645v-26.328L406.978 99.094h61.345c14.977 0 27.16 12.183 27.16 27.16v26.339L105.01 412.899H43.677c-14.975 0-27.16-12.184-27.16-27.16m451.806 27.16H134.786l360.699-240.457v213.297c-.002 14.976-12.185 27.16-27.162 27.16" style="fill:#111a21"/></svg>
