<svg xmlns="http://www.w3.org/2000/svg" xml:space="preserve" viewBox="0 0 512 512" width="48" height="48"><path d="M8.258 391.983V120.017c0-16.114 13.064-29.178 29.178-29.178h437.127c16.114 0 29.178 13.064 29.178 29.178v271.966c0 16.114-13.064 29.178-29.178 29.178H37.437c-16.115 0-29.179-13.064-29.179-29.178" style="fill:#103b9b"/><path d="m132.129 294.953 5.933 18.991 14.634-13.48-4.358 19.413 19.414-4.357-13.48 14.633 18.991 5.933-18.991 5.933 13.48 14.634-19.414-4.357 4.358 19.413-14.634-13.481-5.933 18.992-5.933-18.992-14.634 13.481 4.358-19.413-19.414 4.357 13.48-14.634-18.991-5.933 18.991-5.933-13.48-14.633 19.414 4.357-4.358-19.413 14.634 13.48z" style="fill:#fff"/><path d="M8.258 239.484h495.484v33.032H8.258z" style="fill:#ffe000"/><path d="M468.324 82.581H43.676C19.593 82.581 0 102.173 0 126.256v259.487c0 24.084 19.593 43.676 43.676 43.676h424.648c24.082 0 43.675-19.593 43.675-43.676V126.256c.001-24.083-19.593-43.675-43.675-43.675M43.676 99.097h424.648c14.976 0 27.159 12.183 27.159 27.159v104.97H470.71c-4.562 0-8.258 3.697-8.258 8.258s3.696 8.258 8.258 8.258h24.774v16.516H16.516v-16.516h421.161c4.562 0 8.258-3.697 8.258-8.258s-3.696-8.258-8.258-8.258H16.516v-104.97c0-14.976 12.184-27.159 27.16-27.159m424.648 313.806H43.676c-14.977 0-27.16-12.183-27.16-27.16V280.774h478.968v104.969c0 14.977-12.184 27.16-27.16 27.16" style="fill:#111a21"/></svg>
