<svg xmlns="http://www.w3.org/2000/svg" xml:space="preserve" viewBox="0 0 512 512" width="48" height="48"><path d="M42.319 90.839h427.363c18.811 0 34.061 15.25 34.061 34.061v262.201c0 18.811-15.249 34.061-34.061 34.061H42.319c-18.811 0-34.061-15.249-34.061-34.061V124.899c0-18.81 15.25-34.06 34.061-34.06" style="fill:#fff"/><path d="M8.258 385.927v-264.1c0-13.483 14.837-21.698 26.264-14.542l289.48 181.28H160.879l132.596 132.596H43.492c-19.459 0-35.234-15.775-35.234-35.234" style="fill:#103b9b"/><path d="M224.393 259.951 36.874 142.521v250.024h187.519L91.797 259.951z" style="fill:#ed1f34"/><path d="M225.722 393.096h-189.4V141.527l189.986 118.975H93.126zm-188.299-1.101h185.64L90.468 259.4h132.009L37.423 143.515z" style="fill:#ed1f34"/><path d="M468.324 82.581H43.676C19.594 82.581 0 102.173 0 126.257v259.487c0 24.083 19.594 43.675 43.676 43.675h424.647c24.083 0 43.676-19.593 43.676-43.676V126.257c.001-24.084-19.593-43.676-43.675-43.676M16.516 385.743V126.257a27.02 27.02 0 0 1 5.867-16.83l272.873 170.88H160.879a8.257 8.257 0 0 0-5.84 14.097l118.499 118.499H43.676c-14.976 0-27.16-12.183-27.16-27.16m478.968 0c0 14.977-12.183 27.16-27.16 27.16H296.896l-116.08-116.08h143.186a8.258 8.258 0 0 0 4.383-15.257L37.974 99.703a27.2 27.2 0 0 1 5.702-.607h424.647c14.977 0 27.16 12.183 27.16 27.16z" style="fill:#111a21"/></svg>
