<svg xmlns="http://www.w3.org/2000/svg" xml:space="preserve" viewBox="0 0 512 512" width="48" height="48"><path d="M8.258 200.946h495.484v110.108H8.258z" style="fill:#fff"/><path d="M503.742 200.946H8.258v-73.521c0-20.206 16.381-36.587 36.587-36.587h422.311c20.206 0 36.587 16.381 36.587 36.587z" style="fill:#b21727"/><path d="M467.155 421.161H44.845c-20.206 0-36.587-16.381-36.587-36.587v-73.521h495.484v73.521c0 20.207-16.381 36.587-36.587 36.587" style="fill:#103b9b"/><path d="M468.324 82.581H43.676C19.593 82.581 0 102.173 0 126.257v259.487c0 24.083 19.593 43.675 43.676 43.675h424.648c24.082 0 43.675-19.593 43.675-43.676V126.257c.001-24.084-19.593-43.676-43.675-43.676M43.676 99.097h424.648c14.976 0 27.159 12.183 27.159 27.16v66.431h-57.806c-4.562 0-8.258 3.697-8.258 8.258s3.696 8.258 8.258 8.258h57.806v93.591H16.516v-93.591h388.129c4.562 0 8.258-3.697 8.258-8.258s-3.696-8.258-8.258-8.258H16.516v-66.431c0-14.977 12.184-27.16 27.16-27.16m424.648 313.806H43.676c-14.977 0-27.16-12.183-27.16-27.16v-66.431h478.968v66.431c0 14.977-12.184 27.16-27.16 27.16" style="fill:#121b21"/></svg>
