<svg xmlns="http://www.w3.org/2000/svg" xml:space="preserve" viewBox="0 0 512 512" width="48" height="48"><path d="M8.258 200.946h495.484v110.108H8.258z" style="fill:#fff"/><path d="M8.258 385.743c0 19.561 15.858 35.418 35.418 35.418h424.648c19.561 0 35.418-15.857 35.418-35.418v-74.689H8.258zM468.324 90.839H43.676c-19.561 0-35.418 15.857-35.418 35.417v74.69h495.484v-74.69c0-19.561-15.857-35.417-35.418-35.417" style="fill:#164fce"/><path d="M227.393 280.774 256 231.226l28.607 49.548z" style="fill:#259245"/><path d="M263.151 227.097a8.257 8.257 0 0 0-14.302 0l-28.607 49.548a8.26 8.26 0 0 0 7.151 12.387h57.236a8.256 8.256 0 0 0 8.258-8.258c0-1.71-.52-3.298-1.408-4.616zm-21.455 45.419L256 247.742l14.303 24.774z" style="fill:#121b21"/><path d="M468.324 82.581H43.676C19.593 82.581 0 102.174 0 126.257v259.486c0 24.083 19.593 43.676 43.676 43.676h424.648c24.082 0 43.675-19.594 43.675-43.676V126.257c.001-24.083-19.593-43.676-43.675-43.676M43.676 99.097h424.648c14.976 0 27.159 12.183 27.159 27.16v66.431H470.71a8.256 8.256 0 0 0-8.258 8.258 8.256 8.256 0 0 0 8.258 8.258h24.774v93.591H16.516v-93.591h421.161a8.256 8.256 0 0 0 8.258-8.258 8.256 8.256 0 0 0-8.258-8.258H16.516v-66.431c0-14.977 12.184-27.16 27.16-27.16m424.648 313.806H43.676c-14.977 0-27.16-12.183-27.16-27.16v-66.431h478.968v66.431c0 14.977-12.184 27.16-27.16 27.16" style="fill:#121b21"/></svg>
