<svg xmlns="http://www.w3.org/2000/svg" xml:space="preserve" viewBox="0 0 512 512" width="48" height="48"><path d="M503.681 126.176v259.52c0 19.584-15.872 35.393-35.392 35.393H43.712c-19.584 0-35.392-15.872-35.392-35.393v-259.52c0-19.584 15.872-35.393 35.392-35.393h424.576c19.584-.063 35.393 15.809 35.393 35.393" style="fill:#ffe000"/><path d="M256 255.904H8.32V123.872c0-18.304 14.912-33.216 33.216-33.216H256z" style="fill:#103b9b"/><path d="m132.096 200.096 83.712 55.808H256v-26.816l-83.712-55.808L256 117.472V90.656h-40.192l-83.712 55.808-83.584-55.808H43.52c-16.704.128-30.72 11.776-34.304 27.392l82.816 55.232L8.32 229.088v26.816h40.192z" style="fill:#fff"/><path d="M145.472 182.304 256 255.904v-17.472l-110.592-73.92L256 90.72h-26.816L118.72 164.384 20.8 99.104a35.7 35.7 0 0 0-9.088 11.776l106.88 71.424-110.272 73.6h26.816z" style="fill:#ed1f34"/><path d="M256 151.008H154.368V90.72h-44.544v60.288H8.32v44.608h101.504v60.288h44.544v-60.288H256z" style="fill:#fff"/><path d="M256 161.376H144.128V90.72h-23.936v70.656H8.32v23.936h111.872v70.592h23.936v-70.592H256z" style="fill:#ed1f34"/><circle cx="132.094" cy="173.278" r="27.52" style="fill:#164fce"/><circle cx="132.094" cy="173.278" r="16.512" style="fill:#ffe000"/><circle cx="132.094" cy="122.977" r="8.32" style="fill:#ffe000"/><circle cx="60.288" cy="173.278" r="8.32" style="fill:#ffe000"/><circle cx="204.035" cy="173.278" r="8.32" style="fill:#ffe000"/><circle cx="132.094" cy="223.579" r="8.32" style="fill:#ffe000"/><path d="M468.288 82.528H43.712C19.584 82.528 0 102.112 0 126.24v259.52c0 24.128 19.584 43.712 43.712 43.712h424.576c24.128 0 43.712-19.584 43.712-43.712V126.24c0-24.128-19.584-43.712-43.712-43.712M43.712 98.977h204.096v148.672H16.576V126.176c-.064-14.976 12.096-27.199 27.136-27.199m451.776 286.655c0 14.976-12.224 27.2-27.2 27.2H43.712c-14.976 0-27.2-12.224-27.2-27.2V264.224H256c2.176 0 4.288-.896 5.824-2.432s2.432-3.584 2.432-5.824V98.976h204.096c14.976 0 27.2 12.224 27.2 27.2z" style="fill:#1a1c20"/></svg>
