<svg xmlns="http://www.w3.org/2000/svg" xml:space="preserve" viewBox="0 0 512 512" width="48" height="48"><path d="M151.398 90.839h209.204v330.323H151.398z" style="fill:#fff"/><path d="M360.602 90.839v330.323h109.557c18.548 0 33.583-15.035 33.583-33.583V124.422c0-18.548-15.035-33.583-33.583-33.583zM8.258 124.422v263.157c0 18.548 15.035 33.583 33.583 33.583h109.557V90.839H41.841c-18.548 0-33.583 15.035-33.583 33.583m184.43 197.382L256 149.726l63.312 172.078z" style="fill:#259245"/><path d="M263.75 146.875a8.259 8.259 0 0 0-15.5 0l-63.312 172.077a8.26 8.26 0 0 0 7.751 11.11h55.054v32.213a8.256 8.256 0 0 0 8.258 8.258 8.256 8.256 0 0 0 8.258-8.258v-32.213h55.076a8.256 8.256 0 0 0 8.258-8.258 8.2 8.2 0 0 0-.738-3.418zm.508 166.671v-32.213a8.256 8.256 0 0 0-8.258-8.258 8.256 8.256 0 0 0-8.258 8.258v32.213h-43.216L256 173.642l51.474 139.904z" style="fill:#1a1c20"/><path d="M468.324 82.581H43.676C19.594 82.581 0 102.174 0 126.257v259.486c0 24.083 19.594 43.676 43.676 43.676h424.647c24.083 0 43.676-19.594 43.676-43.676V126.257c.001-24.083-19.593-43.676-43.675-43.676M16.516 385.743V126.257c0-14.977 12.183-27.16 27.16-27.16h99.463v313.806H43.676c-14.976 0-27.16-12.183-27.16-27.16m478.968 0c0 14.977-12.183 27.16-27.16 27.16H368.86v-24.774a8.256 8.256 0 0 0-8.258-8.258 8.256 8.256 0 0 0-8.258 8.258v24.774H159.656V99.097h192.688v256a8.256 8.256 0 0 0 8.258 8.258 8.256 8.256 0 0 0 8.258-8.258v-256h99.463c14.977 0 27.16 12.183 27.16 27.16z" style="fill:#1a1c20"/></svg>
