<svg xmlns="http://www.w3.org/2000/svg" xml:space="preserve" viewBox="0 0 512 512" width="48" height="48"><path d="M468.324 90.839H43.676c-19.561 0-35.418 15.857-35.418 35.418v12.482h495.484v-12.482c0-19.562-15.857-35.418-35.418-35.418M8.258 385.743c0 19.562 15.858 35.418 35.418 35.418h424.648c19.561 0 35.418-15.857 35.418-35.418v-12.482H8.258z" style="fill:#103b9b"/><path d="M8.258 346.288h495.484v26.973H8.258z" style="fill:#fff"/><path d="M8.258 346.288h495.484V165.712H8.258zM134.882 194.89c33.696 0 61.11 27.415 61.11 61.11s-27.413 61.11-61.11 61.11-61.11-27.413-61.11-61.11 27.414-61.11 61.11-61.11" style="fill:#ed1f34"/><path d="M8.258 138.735h495.484v26.973H8.258zM134.882 317.11c33.696 0 61.11-27.413 61.11-61.11s-27.413-61.11-61.11-61.11-61.11 27.415-61.11 61.11 27.414 61.11 61.11 61.11" style="fill:#fff"/><path d="m91.953 242.95 31.609-1.633 11.32-29.556 11.32 29.556 31.608 1.633-24.612 19.9 8.215 30.566-26.531-17.259-26.532 17.259 8.215-30.566z" style="fill:#ed1f34"/><path d="m178.235 234.703-26.243-1.355-9.399-24.541a8.259 8.259 0 0 0-15.424 0l-9.399 24.541-26.243 1.355a8.258 8.258 0 0 0-4.767 14.669l20.435 16.522-6.82 25.379a8.26 8.26 0 0 0 12.479 9.066l22.028-14.328 22.028 14.328a8.25 8.25 0 0 0 9.357-.242 8.26 8.26 0 0 0 3.122-8.824l-6.82-25.379 20.435-16.522a8.257 8.257 0 0 0-4.769-14.669m-30.228 21.725a8.26 8.26 0 0 0-2.782 8.564l2.618 9.745-8.457-5.501a8.25 8.25 0 0 0-9.006 0l-8.457 5.501 2.618-9.745a8.26 8.26 0 0 0-2.782-8.564l-7.845-6.343 10.075-.521a8.26 8.26 0 0 0 7.286-5.294l3.608-9.423 3.608 9.423a8.26 8.26 0 0 0 7.286 5.294l10.075.521z" style="fill:#121b21"/><path d="M468.324 82.581H43.676C19.594 82.581 0 102.174 0 126.257v259.486c0 24.083 19.594 43.676 43.676 43.676h424.647c24.083 0 43.676-19.594 43.676-43.676V126.257c.001-24.083-19.593-43.676-43.675-43.676M43.676 99.097h424.647c14.977 0 27.16 12.183 27.16 27.16v31.197H470.71a8.256 8.256 0 0 0-8.258 8.258 8.256 8.256 0 0 0 8.258 8.258h24.774v164.06H16.516V173.97h421.161a8.256 8.256 0 0 0 8.258-8.258 8.256 8.256 0 0 0-8.258-8.258H16.516v-31.197c0-14.977 12.184-27.16 27.16-27.16m424.648 313.806H43.676c-14.977 0-27.16-12.183-27.16-27.16v-31.197h478.968v31.197c0 14.977-12.184 27.16-27.16 27.16" style="fill:#121b21"/></svg>
