<svg xmlns="http://www.w3.org/2000/svg" xml:space="preserve" viewBox="0 0 512 512" width="48" height="48"><path d="M8.258 393.634h495.484c0 15.203-12.324 27.527-27.527 27.527H35.785c-15.203 0-27.527-12.324-27.527-27.527M37.743 90.839h436.515c15.067 0 27.282 12.324 27.282 27.527H10.46c0-15.203 12.214-27.527 27.283-27.527" style="fill:#fff"/><path d="M8.258 118.366h495.484v27.527H8.258z" style="fill:#ed1f34"/><path d="M8.258 145.892h495.484v220.215H8.258z" style="fill:#fff"/><path d="M8.258 366.108h495.484v27.527H8.258zm257.706-50.957c-32.669 0-59.151-26.483-59.151-59.151s26.483-59.151 59.151-59.151a58.9 58.9 0 0 1 27.532 6.799c-14.078-15.199-34.197-24.724-56.549-24.724-42.568 0-77.075 34.508-77.075 77.075s34.508 77.075 77.075 77.075c22.352 0 42.471-9.524 56.549-24.724a58.85 58.85 0 0 1-27.532 6.801" style="fill:#ed1f34"/><path d="m315.892 225.17-1.173 22.7-21.224 8.13 21.224 8.13 1.173 22.7 14.29-17.675 21.947 5.899L339.738 256l12.391-19.054-21.947 5.899z" style="fill:#ed1f34"/><path d="M236.946 341.333c23.676 0 46.497-9.976 62.608-27.369a8.259 8.259 0 0 0-9.908-12.918c-7.362 3.879-15.331 5.847-23.683 5.847-28.062 0-50.893-22.831-50.893-50.893s22.831-50.893 50.893-50.893c8.352 0 16.32 1.968 23.683 5.847a8.15 8.15 0 0 0 4.04.95 8.259 8.259 0 0 0 5.509-14.255c-16.091-17.154-38.748-26.983-62.249-26.983-47.053 0-85.333 38.28-85.333 85.333s38.28 85.334 85.333 85.334m0-154.15a68.5 68.5 0 0 1 17.757 2.349c-31.828 5.374-56.148 33.135-56.148 66.469s24.321 61.093 56.148 66.469a68.5 68.5 0 0 1-17.757 2.349c-37.945 0-68.817-30.872-68.817-68.817s30.871-68.819 68.817-68.819" style="fill:#1a1c20"/><path d="M285.238 256a8.26 8.26 0 0 0 5.304 7.712l16.208 6.209.895 17.335a8.257 8.257 0 0 0 14.669 4.767l10.912-13.498 16.763 4.506a8.2 8.2 0 0 0 2.313.282 8.26 8.26 0 0 0 8.109-8.257c0-1.862-.615-3.58-1.655-4.96l-9.166-14.094 9.465-14.552a8.258 8.258 0 0 0-9.066-12.477l-16.763 4.506-10.912-13.498a8.26 8.26 0 0 0-14.669 4.767l-.895 17.335-16.208 6.209a8.25 8.25 0 0 0-5.304 7.708m32.435-.418a8.26 8.26 0 0 0 5.294-7.286l.061-1.165.732.906a8.26 8.26 0 0 0 8.564 2.784l1.129-.304-.638.981a8.26 8.26 0 0 0 0 9.005l.638.981-1.129-.304a8.26 8.26 0 0 0-8.564 2.784l-.732.906-.061-1.165a8.26 8.26 0 0 0-5.294-7.286l-1.092-.419z" style="fill:#1a1c20"/><path d="M468.324 82.581H43.676C19.593 82.581 0 102.173 0 126.256v259.487c0 24.084 19.593 43.676 43.676 43.676h424.648c24.082 0 43.675-19.593 43.675-43.676V126.256c.001-24.083-19.593-43.675-43.675-43.675m27.16 275.268H74.323a8.26 8.26 0 0 0-8.258 8.258 8.26 8.26 0 0 0 8.258 8.258h421.161v11.377c0 14.977-12.183 27.16-27.16 27.16H43.676c-14.977 0-27.16-12.183-27.16-27.16v-11.377H41.29a8.26 8.26 0 0 0 8.258-8.258 8.26 8.26 0 0 0-8.258-8.258H16.516V154.151h478.968zm0-220.215H16.516v-11.379c0-14.976 12.183-27.159 27.16-27.159h424.648c14.976 0 27.159 12.183 27.159 27.159z" style="fill:#1a1c20"/></svg>
