<svg xmlns="http://www.w3.org/2000/svg" xml:space="preserve" viewBox="0 0 512 512" width="48" height="48"><path d="M503.742 382.424V129.576c0-21.394-17.343-38.737-38.737-38.737H46.995c-21.394 0-38.737 17.343-38.737 38.737v252.849c0 21.394 17.343 38.737 38.737 38.737h418.01c21.394-.001 38.737-17.344 38.737-38.738" style="fill:#ed1f34"/><path d="M256 363.355c-67.629 0-122.649-55.02-122.649-122.649S188.371 118.057 256 118.057s122.649 55.021 122.649 122.65S323.629 363.355 256 363.355m0-228.782c-58.522 0-106.133 47.611-106.133 106.134 0 58.521 47.611 106.133 106.133 106.133s106.133-47.61 106.133-106.133S314.522 134.573 256 134.573" style="fill:#fff"/><path d="M288.787 385.685h-65.574l9.236-216.912h47.102z" style="fill:#b3b3b3"/><path d="M288.809 393.943h-65.597a8.257 8.257 0 0 1-8.25-8.611l9.236-216.912a8.26 8.26 0 0 1 8.25-7.907h47.103a8.26 8.26 0 0 1 8.25 7.907l9.209 216.301q.055.474.055.962a8.256 8.256 0 0 1-8.256 8.26m-56.979-16.516h48.339l-8.532-200.396h-31.275z" style="fill:#1a1c20"/><path d="m192.325 241.704 46.884-2.423L256 195.441l16.791 43.84 46.884 2.423-36.505 29.517 12.184 45.338L256 290.961l-39.354 25.598 12.184-45.338z" style="fill:#fff"/><path d="m320.102 233.457-41.52-2.145-14.87-38.825a8.259 8.259 0 0 0-15.424 0l-14.87 38.825-41.52 2.145a8.257 8.257 0 0 0-4.767 14.669l32.329 26.14-10.791 40.151a8.258 8.258 0 0 0 12.478 9.066l34.851-22.669 34.851 22.669a8.24 8.24 0 0 0 4.502 1.336 8.26 8.26 0 0 0 7.977-10.402l-10.791-40.151 32.329-26.14a8.26 8.26 0 0 0 2.662-8.973 8.25 8.25 0 0 0-7.426-5.696M277.977 264.8a8.26 8.26 0 0 0-2.784 8.564l6.589 24.517-21.28-13.842c-1.369-.891-2.935-1.336-4.502-1.336s-3.134.445-4.502 1.336l-21.28 13.842 6.589-24.517a8.26 8.26 0 0 0-2.784-8.564l-19.74-15.961 25.352-1.309a8.26 8.26 0 0 0 7.286-5.294l9.081-23.706 9.081 23.706a8.26 8.26 0 0 0 7.286 5.294l25.352 1.309z" style="fill:#1a1c20"/><path d="M468.324 82.581H43.676C19.593 82.581 0 102.174 0 126.257v259.486c0 24.083 19.593 43.676 43.676 43.676h424.648c24.083 0 43.675-19.594 43.675-43.676V126.257c.001-24.083-19.592-43.676-43.675-43.676m27.16 303.162c0 14.977-12.183 27.16-27.16 27.16H43.676c-14.977 0-27.16-12.183-27.16-27.16V126.257c0-14.977 12.183-27.16 27.16-27.16h424.648c14.976 0 27.159 12.183 27.159 27.16z" style="fill:#1a1c20"/></svg>
