<svg xmlns="http://www.w3.org/2000/svg" xml:space="preserve" viewBox="0 0 512 512" width="48" height="48"><path d="M466.305 421.161H45.695c-20.676 0-37.437-16.761-37.437-37.437V128.275c0-20.676 16.761-37.437 37.437-37.437h420.611c20.676 0 37.437 16.761 37.437 37.437v255.449c-.001 20.677-16.762 37.437-37.438 37.437" style="fill:#ed1f34"/><path d="M503.742 211.406H239.917V90.839H150.73v120.567H8.258v89.188H150.73v120.567h89.187V300.594h263.825z" style="fill:#fff"/><path d="M503.742 232.052H219.271V90.839h-47.896v141.213H8.258v47.896h163.117v141.213h47.896V279.948h284.471z" style="fill:#164fce"/><path d="M468.324 82.581H43.676C19.593 82.581 0 102.173 0 126.256v259.487c0 24.084 19.593 43.676 43.676 43.676h424.648c24.082 0 43.675-19.593 43.675-43.676V126.256c.001-24.083-19.593-43.675-43.675-43.675m27.16 43.675v97.538H227.53V99.097h240.794c14.976 0 27.16 12.183 27.16 27.159M43.676 99.097h119.44v124.697H74.323c-4.561 0-8.258 3.697-8.258 8.258s3.697 8.258 8.258 8.258h97.052a8.26 8.26 0 0 0 8.258-8.258V99.097h31.381v132.955a8.26 8.26 0 0 0 8.258 8.258h276.212v31.381H219.271a8.26 8.26 0 0 0-8.258 8.258v132.955h-31.381V279.948a8.26 8.26 0 0 0-8.258-8.258H16.516v-31.38H41.29c4.561 0 8.258-3.697 8.258-8.258s-3.697-8.258-8.258-8.258H16.516v-97.538c0-14.976 12.184-27.159 27.16-27.159m-27.16 286.646v-97.537h146.6v124.697H43.676c-14.976 0-27.16-12.183-27.16-27.16m451.808 27.16H227.53V288.206h267.954v97.537c0 14.977-12.184 27.16-27.16 27.16" style="fill:#121b21"/></svg>
