<svg xmlns="http://www.w3.org/2000/svg" xml:space="preserve" viewBox="0 0 512 512" width="48" height="48"><path d="M173.419 200.946h330.323v-75.974c0-18.852-15.282-34.133-34.133-34.133h-296.19z" style="fill:#fff"/><path d="M173.419 421.161h296.189c18.852 0 34.133-15.282 34.133-34.133v-75.974H173.419z" style="fill:#259245"/><path d="M503.742 200.946H173.419V90.839H42.391c-18.852 0-34.133 15.282-34.133 34.133v262.056c0 18.852 15.282 34.133 34.133 34.133h131.028V311.054h330.323z" style="fill:#ed1f34"/><path d="m102.517 180.576 14.531-14.531a8.257 8.257 0 0 0 0-11.678 8.257 8.257 0 0 0-11.678 0l-14.531 14.531-14.531-14.531a8.257 8.257 0 0 0-11.678 0 8.257 8.257 0 0 0 0 11.678l14.531 14.531-14.531 14.531a8.257 8.257 0 0 0 0 11.678c1.612 1.613 3.726 2.419 5.839 2.419s4.227-.806 5.839-2.419l14.531-14.531 14.531 14.531c1.612 1.613 3.726 2.419 5.839 2.419s4.227-.806 5.839-2.419a8.257 8.257 0 0 0 0-11.678z" style="fill:#fff"/><path d="M468.324 82.581H43.676C19.593 82.581 0 102.173 0 126.256v259.487c0 24.084 19.593 43.676 43.676 43.676h424.648c24.082 0 43.675-19.593 43.675-43.676V126.256c.001-24.083-19.593-43.675-43.675-43.675m27.16 43.675v66.432H181.677V99.097h286.646c14.977 0 27.161 12.183 27.161 27.159m-27.16 286.647H181.677v-93.591h25.666a8.26 8.26 0 0 0 8.258-8.258 8.26 8.26 0 0 0-8.258-8.258h-33.924a8.26 8.26 0 0 0-8.258 8.258v101.849H43.676c-14.977 0-27.16-12.183-27.16-27.16V126.256c0-14.976 12.183-27.159 27.16-27.159h121.485v101.849a8.26 8.26 0 0 0 8.258 8.258h322.065v93.591H240.376a8.26 8.26 0 0 0-8.258 8.258 8.26 8.26 0 0 0 8.258 8.258h255.108v66.431c0 14.978-12.184 27.161-27.16 27.161" style="fill:#111a21"/></svg>
