<svg xmlns="http://www.w3.org/2000/svg" xml:space="preserve" viewBox="0 0 512 512" width="48" height="48"><path d="M42.575 421.161h426.851c18.953 0 34.317-15.364 34.317-34.317V125.156c0-18.953-15.364-34.317-34.317-34.317H42.575c-18.953 0-34.317 15.364-34.317 34.317v261.689c0 18.952 15.364 34.316 34.317 34.316" style="fill:#103b9b"/><path d="M377.452 256H256l29.511-29.511zm-91.941 29.511L256 377.452V256zM256 134.548V256l-29.511-29.511zM256 256l-29.511 29.511L134.548 256z" style="fill:#fff"/><path d="M256 385.71a8.26 8.26 0 0 1-7.864-5.734l-28.213-87.899-87.899-28.213a8.259 8.259 0 0 1 0-15.728l87.899-28.213 28.213-87.899a8.259 8.259 0 0 1 15.728 0l28.213 87.899 87.899 28.213a8.26 8.26 0 0 1 0 15.728l-87.899 28.213-28.213 87.899A8.26 8.26 0 0 1 256 385.71M161.568 256l67.444 21.647a8.27 8.27 0 0 1 5.34 5.34L256 350.432l21.647-67.444a8.27 8.27 0 0 1 5.34-5.34L350.432 256l-67.444-21.647a8.27 8.27 0 0 1-5.34-5.34L256 161.568l-21.647 67.444a8.27 8.27 0 0 1-5.34 5.34z" style="fill:#fff"/><path d="M357.009 228.789a8.26 8.26 0 0 1-7.791-5.525c-9.841-28.029-32.453-50.641-60.484-60.484a8.257 8.257 0 0 1-5.055-10.528 8.257 8.257 0 0 1 10.527-5.055c32.716 11.489 59.107 37.879 70.593 70.595a8.257 8.257 0 0 1-5.056 10.527 8.2 8.2 0 0 1-2.734.47m-202.018 0a8.2 8.2 0 0 1-2.735-.469 8.257 8.257 0 0 1-5.056-10.527c11.488-32.716 37.877-59.108 70.593-70.595a8.256 8.256 0 0 1 10.527 5.055 8.26 8.26 0 0 1-5.055 10.528c-28.031 9.843-50.642 32.455-60.484 60.484a8.26 8.26 0 0 1-7.79 5.524m136.48 136.481a8.26 8.26 0 0 1-7.791-5.524 8.26 8.26 0 0 1 5.055-10.529c28.031-9.844 50.642-32.454 60.484-60.483 1.51-4.303 6.227-6.568 10.527-5.056a8.256 8.256 0 0 1 5.056 10.526c-11.488 32.715-37.877 59.107-70.593 70.594a8.2 8.2 0 0 1-2.738.472m-70.942 0a8.2 8.2 0 0 1-2.736-.469c-32.716-11.489-59.107-37.879-70.593-70.594a8.256 8.256 0 0 1 5.056-10.526c4.3-1.513 9.017.753 10.527 5.056 9.841 28.029 32.453 50.638 60.484 60.483a8.258 8.258 0 0 1-2.738 16.05" style="fill:#fff"/><path d="M468.324 429.419H43.676C19.594 429.419 0 409.826 0 385.743V126.257c0-24.083 19.594-43.676 43.676-43.676h424.647c24.083 0 43.676 19.594 43.676 43.676v259.486c.001 24.083-19.593 43.676-43.675 43.676M43.676 99.097c-14.977 0-27.16 12.183-27.16 27.16v259.486c0 14.977 12.183 27.16 27.16 27.16h424.647c14.977 0 27.16-12.183 27.16-27.16V126.257c0-14.977-12.183-27.16-27.16-27.16z" style="fill:#111a21"/></svg>
