<svg xmlns="http://www.w3.org/2000/svg" xml:space="preserve" viewBox="0 0 512 512" width="48" height="48"><path d="M468.324 90.839H118.366v330.323h349.958c19.561 0 35.418-15.858 35.418-35.418V126.257c0-19.562-15.857-35.418-35.418-35.418" style="fill:#134923"/><path d="M43.676 90.839c-19.561 0-35.418 15.857-35.418 35.418v259.487c0 19.561 15.858 35.418 35.418 35.418h74.689V90.84H43.676zm330.41 198.87c-28.159 28.159-73.813 28.159-101.972 0s-28.158-73.812.001-101.971a74 74 0 0 1 2.59-2.463 82.2 82.2 0 0 0-36.042 21.099c-32.249 32.249-32.249 84.537 0 116.786s84.537 32.25 116.787.001a82.2 82.2 0 0 0 21.099-36.042 74 74 0 0 1-2.463 2.59m-51.254-64.348 21.196-23.504-12.895-28.905 28.904 12.895 23.505-21.195-3.331 31.474 27.421 15.805-30.963 6.558-6.558 30.962-15.805-27.421z" style="fill:#fff"/><path d="M380.545 279.893a8.26 8.26 0 0 0-10.111 1.675 65 65 0 0 1-2.188 2.302c-12.059 12.059-28.093 18.7-45.146 18.7s-33.087-6.642-45.146-18.701c-24.893-24.893-24.893-65.398.001-90.291a65 65 0 0 1 2.301-2.188 8.26 8.26 0 0 0-7.779-14.065c-14.942 4.186-28.653 12.213-39.654 23.212-17.157 17.157-26.605 39.969-26.605 64.232s9.448 47.075 26.605 64.231c17.158 17.157 39.97 26.606 64.233 26.606s47.076-9.449 64.233-26.606c11-11 19.025-24.713 23.211-39.654a8.26 8.26 0 0 0-3.955-9.453m-30.935 37.429c-14.036 14.038-32.701 21.768-52.553 21.768s-38.517-7.731-52.554-21.768c-14.038-14.038-21.769-32.701-21.769-52.553s7.731-38.517 21.769-52.554a74 74 0 0 1 4.209-3.896c-11.831 29.057-5.978 63.689 17.562 87.229 15.179 15.179 35.36 23.538 56.825 23.538 10.575 0 20.838-2.028 30.345-5.902a74 74 0 0 1-3.834 4.138" style="fill:#111a21"/><path d="m411.756 204.776-22.768-13.123 2.766-26.132a8.257 8.257 0 0 0-13.743-7.002l-19.515 17.597-23.999-10.706a8.25 8.25 0 0 0-9.204 1.702 8.26 8.26 0 0 0-1.702 9.204l10.707 23.999L316.7 219.83a8.258 8.258 0 0 0 7.003 13.743l26.133-2.766 13.122 22.767a8.26 8.26 0 0 0 8.447 4.033 8.26 8.26 0 0 0 6.787-6.446l5.445-25.708 25.709-5.445a8.256 8.256 0 0 0 2.41-15.232m-36.798 5.633a8.26 8.26 0 0 0-6.368 6.368l-2.091 9.871-5.037-8.741a8.26 8.26 0 0 0-8.024-4.09l-10.033 1.063 6.757-7.494a8.26 8.26 0 0 0 1.408-8.894l-4.11-9.214 9.214 4.11a8.26 8.26 0 0 0 8.894-1.408l7.493-6.756L372 195.257a8.26 8.26 0 0 0 4.088 8.025l8.741 5.039z" style="fill:#111a21"/><path d="M468.324 82.581H43.676C19.594 82.581 0 102.173 0 126.257v259.487c0 24.083 19.594 43.675 43.676 43.675h424.647c24.083 0 43.676-19.593 43.676-43.676V126.257c.001-24.084-19.593-43.676-43.675-43.676M16.516 385.743V126.257c0-14.977 12.183-27.16 27.16-27.16h66.431v313.806H43.676c-14.976 0-27.16-12.183-27.16-27.16m478.968 0c0 14.977-12.183 27.16-27.16 27.16h-341.7V99.097h341.7c14.977 0 27.16 12.183 27.16 27.16z" style="fill:#111a21"/></svg>
