<svg xmlns="http://www.w3.org/2000/svg" xml:space="preserve" viewBox="0 0 512 512" width="48" height="48"><path d="M36.386 90.839h439.227c15.535 0 28.128 12.594 28.128 28.128v274.065c0 15.535-12.594 28.128-28.128 28.128H36.386c-15.535.001-28.128-12.592-28.128-28.127V118.967c0-15.534 12.593-28.128 28.128-28.128" style="fill:#3db4ea"/><circle cx="220.116" cy="256" r="82.581" style="fill:#ffe000"/><path d="M203.604 345.186a8.3 8.3 0 0 1-1.652-.166c-42.114-8.55-72.68-45.988-72.68-89.019 0-50.089 40.75-90.839 90.839-90.839s90.839 40.75 90.839 90.839c0 43.032-30.566 80.469-72.68 89.019a8.259 8.259 0 0 1-3.286-16.186c34.447-6.993 59.449-37.623 59.449-72.833 0-40.982-33.341-74.323-74.323-74.323s-74.323 33.341-74.323 74.323c0 35.209 25.002 65.84 59.449 72.833a8.26 8.26 0 0 1 6.45 9.736c-.792 3.914-4.236 6.615-8.082 6.616" style="fill:#111a21"/><path d="M468.324 429.419H43.675C19.593 429.419 0 409.827 0 385.743V126.256c0-24.083 19.593-43.675 43.675-43.675h424.648c24.084 0 43.676 19.593 43.676 43.675v259.487c.001 24.084-19.592 43.676-43.675 43.676M43.675 99.097c-14.976 0-27.159 12.183-27.159 27.159v259.487c0 14.977 12.183 27.16 27.159 27.16h424.648c14.977 0 27.16-12.183 27.16-27.16V126.256c0-14.976-12.183-27.159-27.16-27.159z" style="fill:#111a21"/></svg>
