<svg xmlns="http://www.w3.org/2000/svg" xml:space="preserve" viewBox="0 0 512 512" width="48" height="48"><path d="M8.258 200.946h495.484v110.108H8.258z" style="fill:#fff"/><path d="M8.258 311.054h495.484v73.981c0 19.953-16.175 36.126-36.126 36.126H40.423c-17.764 0-32.165-14.401-32.165-32.165z" style="fill:#259245"/><path d="M39.866 90.839h427.75c19.953 0 36.126 16.175 36.126 36.126v73.981H8.258v-78.501c0-17.455 14.151-31.606 31.608-31.606" style="fill:#333"/><path d="M503.742 302.796H140.387a8.26 8.26 0 0 0-8.258 8.258 8.26 8.26 0 0 0 8.258 8.258h363.355a8.26 8.26 0 0 0 8.258-8.258 8.26 8.26 0 0 0-8.258-8.258m-363.355-93.592h363.355c4.561 0 8.258-3.697 8.258-8.258s-3.697-8.258-8.258-8.258H140.387c-4.561 0-8.258 3.697-8.258 8.258s3.697 8.258 8.258 8.258" style="fill:#1a1c20"/><path d="M8.258 122.224v267.554c0 12.463 14.536 19.271 24.11 11.293L192.9 267.294c7.052-5.876 7.052-16.709 0-22.585L32.368 110.93c-9.574-7.978-24.11-1.169-24.11 11.294" style="fill:#ed1f34"/><path d="M468.324 82.581H43.676c-11.32 0-21.647 4.331-29.414 11.42-.092.079-.188.152-.277.235a44 44 0 0 0-2.543 2.585l-.122.132q-.588.65-1.147 1.325l-.324.39a44 44 0 0 0-1.423 1.845q-.33.454-.651.914-.365.53-.717 1.07c-.133.206-.268.411-.396.619a43 43 0 0 0-.903 1.511l-.146.254A43.37 43.37 0 0 0 0 126.256v259.487a43.4 43.4 0 0 0 5.604 21.366l.162.281q.429.751.889 1.485.202.321.41.639a44 44 0 0 0 2.791 3.826q.154.188.309.373.566.681 1.159 1.338l.11.12a43 43 0 0 0 2.551 2.594c.088.081.182.152.272.229 7.767 7.092 18.096 11.425 29.42 11.425h424.648c24.083 0 43.675-19.593 43.675-43.676V126.256c0-24.083-19.593-43.675-43.676-43.675M20.634 400.098a27 27 0 0 1-3.242-7.504l-.055-.22a27 27 0 0 1-.385-1.813c-.044-.248-.094-.493-.13-.742-.036-.241-.063-.484-.092-.727a27 27 0 0 1-.155-1.651 28 28 0 0 1-.058-1.696V126.256c0-.569.024-1.134.058-1.696q.02-.296.045-.591.046-.534.11-1.06c.03-.242.056-.486.092-.726.039-.257.088-.509.134-.763.109-.602.232-1.198.38-1.786l.057-.231a27 27 0 0 1 3.24-7.501L193.553 256zm474.85-14.355c0 14.977-12.183 27.16-27.16 27.16H43.676c-3.61 0-7.056-.714-10.21-1.998l178.273-148.56a8.258 8.258 0 0 0 0-12.688L33.466 101.095a27 27 0 0 1 10.21-1.998h424.648c14.976 0 27.159 12.183 27.159 27.159z" style="fill:#1a1c20"/></svg>
