<svg xmlns="http://www.w3.org/2000/svg" xml:space="preserve" viewBox="0 0 512 512" width="48" height="48"><path d="M256 256H8.258V123.095c0-17.814 14.442-32.256 32.256-32.256H256z" style="fill:#fff"/><path d="M503.742 256H256V90.839h215.486c17.814 0 32.256 14.442 32.256 32.256z" style="fill:#ed1f34"/><path d="M256 421.161h215.486c17.814 0 32.256-14.442 32.256-32.256V256H256z" style="fill:#fff"/><path d="M40.514 421.161H256V256H8.258v132.905c0 17.815 14.442 32.256 32.256 32.256m44.819-258.248 34.456-1.781 12.34-32.218 12.341 32.218 34.455 1.781-26.829 21.692 8.954 33.32-28.921-18.812-28.921 18.812 8.954-33.32z" style="fill:#164fce"/><path d="m333.075 328.074 34.456-1.78 12.34-32.219 12.34 32.219 34.456 1.78-26.829 21.692 8.954 33.32-28.921-18.812-28.921 18.812 8.954-33.32z" style="fill:#ed1f34"/><path d="m80.141 169.334 22.652 18.315-7.561 28.132a8.26 8.26 0 0 0 12.479 9.066l24.419-15.884 24.419 15.883a8.25 8.25 0 0 0 9.357-.242 8.26 8.26 0 0 0 3.122-8.824l-7.561-28.132 22.652-18.315a8.257 8.257 0 0 0-4.767-14.669l-29.09-1.502-10.419-27.203a8.258 8.258 0 0 0-15.424 0L114 153.162l-29.09 1.502a8.26 8.26 0 0 0-7.428 5.696 8.25 8.25 0 0 0 2.659 8.974m40.073.047a8.26 8.26 0 0 0 7.286-5.294l4.629-12.085 4.629 12.087a8.26 8.26 0 0 0 7.286 5.294l12.921.666-10.063 8.137a8.26 8.26 0 0 0-2.782 8.564l3.359 12.498-10.848-7.056a8.25 8.25 0 0 0-9.006 0l-10.848 7.056 3.359-12.498a8.26 8.26 0 0 0-2.782-8.564l-10.063-8.137zm306.879 150.446-29.09-1.502-10.419-27.203a8.259 8.259 0 0 0-15.424 0l-10.419 27.203-29.09 1.502a8.258 8.258 0 0 0-4.767 14.669l22.652 18.315-7.561 28.132a8.255 8.255 0 0 0 3.122 8.824 8.26 8.26 0 0 0 9.357.242l24.419-15.884 24.419 15.883a8.24 8.24 0 0 0 4.503 1.336 8.258 8.258 0 0 0 7.976-10.402l-7.561-28.132 22.652-18.315a8.257 8.257 0 0 0-4.769-14.668m-32.448 23.518a8.26 8.26 0 0 0-2.782 8.564l3.359 12.498-10.848-7.056a8.25 8.25 0 0 0-9.006 0l-10.848 7.056 3.359-12.498a8.26 8.26 0 0 0-2.782-8.564l-10.063-8.137 12.921-.666a8.26 8.26 0 0 0 7.286-5.294l4.63-12.085 4.629 12.086a8.26 8.26 0 0 0 7.286 5.294l12.921.666z" style="fill:#121b21"/><path d="M468.324 82.581H43.676C19.594 82.581 0 102.174 0 126.257v259.486c0 24.083 19.594 43.676 43.676 43.676h424.647c24.083 0 43.676-19.594 43.676-43.676V126.257c.001-24.083-19.593-43.676-43.675-43.676m27.16 43.676v121.485H264.258V99.097h204.066c14.976 0 27.16 12.183 27.16 27.16M43.676 99.097h204.066v148.645H16.516V126.257c0-14.977 12.184-27.16 27.16-27.16m424.648 313.806H264.258v-24.774a8.256 8.256 0 0 0-8.258-8.258 8.256 8.256 0 0 0-8.258 8.258v24.774H43.676c-14.977 0-27.16-12.183-27.16-27.16V264.258h231.226v90.839a8.256 8.256 0 0 0 8.258 8.258 8.256 8.256 0 0 0 8.258-8.258v-90.839h231.226v121.485c0 14.977-12.184 27.16-27.16 27.16" style="fill:#121b21"/></svg>
