<svg xmlns="http://www.w3.org/2000/svg" xml:space="preserve" viewBox="0 0 512 512" width="48" height="48"><path d="M8.258 126.256v259.487c0 19.561 15.858 35.418 35.418 35.418h424.648a35.26 35.26 0 0 0 22.858-8.373L20.818 99.211c-7.679 6.498-12.56 16.199-12.56 27.045" style="fill:#333"/><path d="M468.324 90.839H43.676a35.26 35.26 0 0 0-22.858 8.373l470.365 313.576c7.679-6.496 12.56-16.198 12.56-27.045V126.256c-.001-19.561-15.859-35.417-35.419-35.417" style="fill:#ed1f34"/><circle cx="112.86" cy="214.038" r="13.37" style="fill:#fff"/><circle cx="112.86" cy="374.487" r="13.37" style="fill:#fff"/><circle cx="152.972" cy="247.467" r="13.37" style="fill:#fff"/><circle cx="72.748" cy="280.895" r="13.37" style="fill:#fff"/><circle cx="132.911" cy="310.977" r="8.913" style="fill:#fff"/><path d="M302.796 177.548c0 31.318 25.387 56.705 56.705 56.705s56.705-25.387 56.705-56.705z" style="fill:#ffe000"/><path d="M468.324 82.581H43.676C19.593 82.581 0 102.173 0 126.256v259.487c0 24.084 19.593 43.676 43.676 43.676h424.648c24.083 0 43.675-19.593 43.675-43.676V126.256c.001-24.083-19.592-43.675-43.675-43.675m0 330.322H43.676c-14.977 0-27.16-12.183-27.16-27.16V126.256a27 27 0 0 1 5.478-16.336l453.165 302.11a27 27 0 0 1-6.835.873m27.16-27.16a27 27 0 0 1-5.478 16.336L36.841 99.969a27 27 0 0 1 6.835-.872h424.648c14.976 0 27.159 12.183 27.159 27.159z" style="fill:#111a21"/><path d="M414.955 211.351a64.5 64.5 0 0 0 8.967-25.545h8.762c4.561 0 8.258-3.697 8.258-8.258s-3.697-8.258-8.258-8.258h-86.91v-20.095a8.26 8.26 0 0 0-8.258-8.258h-11.047a8.26 8.26 0 0 0-8.258 8.258 8.26 8.26 0 0 0 8.258 8.258h2.789v11.837h-42.94c-4.561 0-8.258 3.697-8.258 8.258s3.697 8.258 8.258 8.258h8.762c4.072 31.933 31.398 56.705 64.421 56.705 16.878 0 32.27-6.474 43.834-17.064 13.02 1.537 23.154 12.634 23.154 26.06a8.26 8.26 0 0 0 8.258 8.258 8.26 8.26 0 0 0 8.258-8.258c.001-18.413-11.696-34.145-28.05-40.156m-55.454 14.645c-23.9 0-43.813-17.395-47.743-40.189h95.486c-3.93 22.794-23.843 40.189-47.743 40.189" style="fill:#111a21"/></svg>
