<svg xmlns="http://www.w3.org/2000/svg" xml:space="preserve" viewBox="0 0 512 512" width="48" height="48"><path d="M8.258 200.946h495.484v110.108H8.258z" style="fill:#fff"/><path d="M503.742 200.946H8.258v-72.122c0-20.979 17.007-37.986 37.986-37.986h419.513c20.979 0 37.986 17.007 37.986 37.986z" style="fill:#ed1f34"/><path d="M468.214 421.161H43.786c-19.621 0-35.528-15.906-35.528-35.528v-74.579h495.484v74.579c0 19.622-15.906 35.528-35.528 35.528" style="fill:#103b9b"/><path d="M256 225.72c-16.696 0-30.28 13.584-30.28 30.28s13.584 30.28 30.28 30.28 30.28-13.584 30.28-30.28-13.584-30.28-30.28-30.28m0 44.043c-7.59 0-13.763-6.174-13.763-13.763 0-7.59 6.174-13.763 13.763-13.763 7.59 0 13.763 6.174 13.763 13.763 0 7.59-6.173 13.763-13.763 13.763" style="fill:#121b21"/><path d="M468.324 82.581H43.676C19.594 82.581 0 102.174 0 126.257v259.486c0 24.083 19.594 43.676 43.676 43.676h424.647c24.083 0 43.676-19.594 43.676-43.676V126.257c.001-24.083-19.593-43.676-43.675-43.676M16.516 126.257c0-14.977 12.183-27.16 27.16-27.16h424.647c14.977 0 27.16 12.183 27.16 27.16v66.431H16.516zm451.808 286.646H43.676c-14.977 0-27.16-12.183-27.16-27.16v-66.431h388.129c4.562 0 8.258-3.696 8.258-8.258s-3.696-8.258-8.258-8.258H16.516v-93.591h478.968v93.591h-57.806c-4.562 0-8.258 3.696-8.258 8.258s3.696 8.258 8.258 8.258h57.806v66.431c0 14.977-12.184 27.16-27.16 27.16" style="fill:#121b21"/></svg>
