<svg xmlns="http://www.w3.org/2000/svg" xml:space="preserve" viewBox="0 0 512 512" width="48" height="48"><path d="M173.419 90.839H338.58v330.323H173.419z" style="fill:#fff"/><path d="M338.581 90.839v330.323h130.477c19.155 0 34.684-15.528 34.684-34.684V125.523c0-19.155-15.528-34.684-34.684-34.684zM8.258 124.972v262.056c0 18.852 15.282 34.133 34.133 34.133h131.028V90.839H42.391c-18.851 0-34.133 15.282-34.133 34.133" style="fill:#ed1f34"/><path d="M468.324 82.581H43.676C19.593 82.581 0 102.174 0 126.257v259.486c0 24.083 19.593 43.676 43.676 43.676h424.648c24.082 0 43.675-19.594 43.675-43.676V126.257c.001-24.083-19.593-43.676-43.675-43.676M16.516 385.743V126.257c0-14.977 12.183-27.16 27.16-27.16h121.485v313.806H43.676c-14.976 0-27.16-12.183-27.16-27.16m478.968 0c0 14.977-12.183 27.16-27.16 27.16H346.839v-57.806c0-4.562-3.696-8.258-8.258-8.258s-8.258 3.696-8.258 8.258v57.806H181.677V99.097h148.645v222.968c0 4.562 3.696 8.258 8.258 8.258s8.258-3.696 8.258-8.258V99.097h121.485c14.977 0 27.16 12.183 27.16 27.16z" style="fill:#121b21"/></svg>
