<svg xmlns="http://www.w3.org/2000/svg" xml:space="preserve" viewBox="0 0 512 512" width="48" height="48"><path d="M20.818 412.789a35.27 35.27 0 0 0 22.858 8.373h424.648c19.561 0 35.418-15.857 35.418-35.418V256H256.001z" style="fill:#ed1f34"/><path d="M468.324 90.839H43.676a35.26 35.26 0 0 0-22.858 8.373L256 256h247.742V126.257c0-19.562-15.857-35.418-35.418-35.418" style="fill:#103b9b"/><path d="M20.817 99.211c-7.678 6.497-12.559 16.199-12.559 27.046v259.486c0 10.847 4.881 20.548 12.56 27.046L256 256z" style="fill:#fff"/><path d="M96.111 311.054c-30.357 0-55.054-24.697-55.054-55.054s24.697-55.054 55.054-55.054 55.054 24.697 55.054 55.054-24.698 55.054-55.054 55.054m0-93.592c-21.25 0-38.538 17.288-38.538 38.538s17.288 38.538 38.538 38.538S134.648 277.25 134.648 256s-17.288-38.538-38.537-38.538" style="fill:#ffe000"/><circle cx="96.113" cy="256" r="25.875" style="fill:#ffe000"/><path d="M468.324 82.581H43.676c-10.579 0-20.29 3.783-27.856 10.065a8 8 0 0 0-.847.733C5.807 101.391 0 113.155 0 126.257v259.486c0 13.167 5.865 24.982 15.11 32.997.192.185.392.355.598.519 7.582 6.337 17.335 10.161 27.968 10.161h424.648c24.082 0 43.675-19.594 43.675-43.676V126.257c.001-24.083-19.593-43.676-43.675-43.676M21.994 402.08a27.03 27.03 0 0 1-5.478-16.337V126.257a27.02 27.02 0 0 1 5.478-16.337L241.112 256zm446.33 10.823H43.676c-2.361 0-4.65-.304-6.835-.872L258.5 264.258h179.178a8.256 8.256 0 0 0 8.258-8.258 8.256 8.256 0 0 0-8.258-8.258H258.499L36.841 99.969a27 27 0 0 1 6.835-.872h424.648c14.976 0 27.159 12.183 27.159 27.16v121.485H470.71a8.256 8.256 0 0 0-8.258 8.258 8.256 8.256 0 0 0 8.258 8.258h24.774v121.485c0 14.977-12.184 27.16-27.16 27.16" style="fill:#121b21"/></svg>
