<svg xmlns="http://www.w3.org/2000/svg" xml:space="preserve" viewBox="0 0 512 512" width="48" height="48"><path d="M8.258 383.233V128.767c0-20.948 16.981-37.929 37.928-37.929h419.627c20.947 0 37.929 16.981 37.929 37.929v254.466c0 20.947-16.981 37.929-37.929 37.929H46.186c-20.947-.001-37.928-16.981-37.928-37.929" style="fill:#103b9b"/><path d="M256 90.839h-40.196l-83.675 55.784-83.675-55.784H35.055c-14.8 0-26.797 11.997-26.797 26.797l83.675 55.784-83.675 55.783V256h40.196l83.675-55.784L215.804 256H256v-26.797l-83.675-55.784L256 117.637z" style="fill:#fff"/><path d="M256 90.839h-26.798l-110.466 73.652-95.603-63.736c-6.359-4.239-11.434 2.618-11.434 10.26l-3.441-2.299 110.33 73.73L8.258 256h26.797l110.472-73.648L256 256v-17.484L145.373 164.59z" style="fill:#ed1f34"/><path d="M256 151.123H154.426V90.839h-44.594v60.284H8.258v44.593h101.574V256h44.594v-60.284H256z" style="fill:#fff"/><path d="M256 161.445H144.103V90.839h-23.948v70.606H8.258v23.949h111.897V256h23.948v-70.606H256z" style="fill:#ed1f34"/><path d="M456.123 340.565a8.257 8.257 0 0 1-8.258-8.258v-44.153c0-37.492-30.502-67.994-67.994-67.994s-67.994 30.502-67.994 67.994v44.153c0 4.562-3.697 8.258-8.258 8.258s-8.258-3.696-8.258-8.258v-44.153c0-46.599 37.911-84.51 84.51-84.51s84.51 37.911 84.51 84.51v44.153a8.26 8.26 0 0 1-8.258 8.258" style="fill:#259245"/><path d="M379.871 296.522c-46.599 0-84.51-37.911-84.51-84.51v-44.153c0-4.562 3.697-8.258 8.258-8.258s8.258 3.696 8.258 8.258v44.153c0 37.492 30.502 67.994 67.994 67.994s67.994-30.502 67.994-67.994v-44.153a8.257 8.257 0 0 1 8.258-8.258 8.257 8.257 0 0 1 8.258 8.258v44.153c0 46.599-37.911 84.51-84.51 84.51" style="fill:#ffe000"/><path d="M324.817 217.412v58.565c0 69.824 55.054 85.786 55.054 85.786s55.054-15.961 55.054-85.786v-58.565z" style="fill:#3db4ea"/><path d="M379.871 361.763s32.437-9.404 47.515-45.353l-47.518-82.928-47.507 82.936c15.079 35.943 47.51 45.345 47.51 45.345" style="fill:#259245"/><path d="M332.353 324.677a8.258 8.258 0 0 1-7.158-12.363l47.507-82.936a8.257 8.257 0 0 1 14.331-.002l47.518 82.928a8.259 8.259 0 0 1-14.33 8.211l-40.352-70.421-40.343 70.43a8.26 8.26 0 0 1-7.173 4.153" style="fill:#ffe000"/><path d="M379.871 150.237c-12.324 0-22.314 9.991-22.314 22.315v44.86h44.63v-44.86c-.002-12.324-9.992-22.315-22.316-22.315" style="fill:#b3b3b3"/><path d="M402.186 225.67h-44.63a8.257 8.257 0 0 1-8.258-8.258v-44.86c0-16.859 13.715-30.574 30.574-30.574 16.857 0 30.574 13.715 30.574 30.574v44.86a8.26 8.26 0 0 1-8.26 8.258m-36.372-16.516h28.114v-36.602c0-7.75-6.306-14.057-14.057-14.057s-14.057 6.307-14.057 14.057z" style="fill:#1a1c20"/><path d="M410.884 191.16h-62.027a8.257 8.257 0 0 1-8.258-8.258 8.257 8.257 0 0 1 8.258-8.258h62.027a8.257 8.257 0 0 1 8.258 8.258 8.256 8.256 0 0 1-8.258 8.258" style="fill:#259245"/><path d="M434.925 209.154H324.817a8.257 8.257 0 0 0-8.258 8.258v58.565c0 39.055 16.413 62.418 30.18 75.142 15.022 13.881 30.193 18.389 30.831 18.574a8.25 8.25 0 0 0 4.598 0c.639-.185 15.809-4.693 30.831-18.574 13.768-12.724 30.18-36.087 30.18-75.142v-58.565a8.25 8.25 0 0 0-8.254-8.258m-8.258 66.824c0 55.234-36.874 73.207-46.775 77.037-9.676-3.816-46.817-22.059-46.817-77.037v-50.307h93.591z" style="fill:#1a1c20"/><path d="M468.324 82.581H43.675C19.593 82.581 0 102.174 0 126.257v259.486c0 24.083 19.593 43.676 43.675 43.676h424.648c24.084 0 43.676-19.594 43.676-43.676V126.257c.001-24.083-19.592-43.676-43.675-43.676m27.16 303.162c0 14.977-12.183 27.16-27.16 27.16H43.675c-14.976 0-27.159-12.183-27.159-27.16V126.257c0-14.977 12.183-27.16 27.159-27.16h424.648c14.977 0 27.16 12.183 27.16 27.16z" style="fill:#1a1c20"/></svg>
