<svg xmlns="http://www.w3.org/2000/svg" xml:space="preserve" viewBox="0 0 512 512" width="48" height="48"><path d="M204.672 90.72v330.304H45.633c-20.608 0-37.376-16-37.376-35.776V126.56c0-19.776 16.704-35.776 37.376-35.776h159.04z" style="fill:#259245"/><path d="M503.681 126.496v258.816c0 19.776-16 35.776-35.776 35.776H196.48V90.656h271.488c19.713.064 35.713 16.128 35.713 35.84" style="fill:#ed1f34"/><circle cx="196.477" cy="255.905" r="66.111" style="fill:#ffe000"/><path d="M468.288 82.528H43.712C19.584 82.528 0 102.112 0 126.24v259.52c0 24.128 19.584 43.712 43.712 43.712h424.576c24.128 0 43.712-19.584 43.712-43.712V126.24c0-24.128-19.584-43.712-43.712-43.712M188.225 313.12c-28.032-4.032-49.472-28.096-49.472-57.216s21.632-53.184 49.472-57.216zm16.447-114.432c28.032 4.032 49.472 28.096 49.472 57.216s-21.632 53.184-49.472 57.216zm290.816 186.944c0 14.976-12.224 27.2-27.2 27.2H204.672V388a8.303 8.303 0 0 0-8.32-8.32 8.303 8.303 0 0 0-8.32 8.32v24.832H43.712c-14.976 0-27.2-12.224-27.2-27.2V126.24c0-14.976 12.224-27.2 27.2-27.2h144.513v83.072c-37.12 4.096-66.112 35.712-66.112 73.92s28.992 69.696 66.112 73.92v25.216a8.303 8.303 0 0 0 8.32 8.32 8.303 8.303 0 0 0 8.32-8.32v-25.216c37.12-4.096 66.112-35.712 66.112-73.92s-29.056-69.696-66.176-73.92V99.04h263.616c14.976 0 27.2 12.224 27.2 27.2v259.392z" style="fill:#121b21"/></svg>
