<svg xmlns="http://www.w3.org/2000/svg" xml:space="preserve" viewBox="0 0 512 512" width="48" height="48"><path d="M8.258 289.032h495.484v66.065H8.258zm0-132.129h495.484v66.065H8.258z" style="fill:#fff"/><path d="M503.742 355.097v31.747c0 18.953-15.364 34.317-34.317 34.317H44.777c-20.169 0-36.519-16.35-36.519-36.519v-29.545zM8.258 222.968h495.484v66.065H8.258zm495.484-97.812v31.747H8.258V123.32c0-17.939 14.543-32.482 32.482-32.482h428.685c18.953.001 34.317 15.365 34.317 34.318" style="fill:#ed1f34"/><path d="M8.258 112.374v283.034c0 11.009 12.269 17.574 21.428 11.468L256 256 26.176 102.784c-7.659-5.107-17.918.385-17.918 9.59" style="fill:#164fce"/><path d="m50.649 235.581 34.455-1.781 12.341-32.218 12.34 32.218 34.456 1.781-26.829 21.692 8.954 33.319-28.921-18.812-28.921 18.812 8.954-33.319z" style="fill:#fff"/><path d="M121.864 297.515a8.25 8.25 0 0 0 9.357-.242 8.26 8.26 0 0 0 3.122-8.824l-7.56-28.132 22.651-18.315a8.257 8.257 0 0 0-4.767-14.669l-29.092-1.503-10.418-27.202a8.259 8.259 0 0 0-15.424 0l-10.418 27.203-29.092 1.503a8.257 8.257 0 0 0-4.767 14.669l22.651 18.315-7.56 28.132a8.258 8.258 0 0 0 12.479 9.066l24.419-15.885zm-39.769-25.602 3.358-12.497a8.26 8.26 0 0 0-2.782-8.564l-10.064-8.137 12.924-.668a8.26 8.26 0 0 0 7.286-5.294l4.629-12.084 4.629 12.084a8.26 8.26 0 0 0 7.286 5.294l12.924.668-10.064 8.137a8.26 8.26 0 0 0-2.782 8.564l3.358 12.497-10.848-7.056c-1.369-.891-2.935-1.336-4.502-1.336s-3.134.445-4.502 1.336z" style="fill:#121b21"/><path d="M468.324 82.581H43.675c-10.581 0-20.295 3.785-27.862 10.069a8 8 0 0 0-.838.727C5.808 101.388 0 113.154 0 126.257v259.486c0 24.083 19.593 43.676 43.675 43.676h424.648c24.084 0 43.676-19.594 43.676-43.676V126.257c.001-24.083-19.592-43.676-43.675-43.676M21.994 402.08a27.03 27.03 0 0 1-5.478-16.337V126.257a27.02 27.02 0 0 1 5.478-16.337l80.73 53.821.032.022 99.067 66.045.026.018 39.262 26.176-39.262 26.175-.026.018-99.067 66.045-.032.022zM260.58 249.129l-26.855-17.903h261.759v49.548H233.725l26.855-17.903a8.26 8.26 0 0 0 0-13.742m-51.629 48.161h286.533v49.548H134.628zM468.324 99.097c14.977 0 27.16 12.183 27.16 27.16v22.388h-57.806c-4.561 0-8.258 3.696-8.258 8.258s3.697 8.258 8.258 8.258h57.806v49.548H208.951l-74.323-49.548h270.017c4.561 0 8.258-3.696 8.258-8.258s-3.697-8.258-8.258-8.258H109.854L36.841 99.969a27 27 0 0 1 6.834-.872zm0 313.806H43.675c-2.36 0-4.65-.304-6.835-.872l73.014-48.676h385.63v22.388c0 14.977-12.184 27.16-27.16 27.16" style="fill:#121b21"/></svg>
