<svg xmlns="http://www.w3.org/2000/svg" xml:space="preserve" viewBox="0 0 512 512" width="48" height="48"><path d="M468.324 90.838H133.781l79.277 27.538-79.277 27.527 79.277 27.527-79.277 27.527 79.277 27.527-79.277 27.538 79.277 27.516-79.277 27.527 79.277 27.527-79.277 27.516 79.277 27.527-79.277 27.527h334.543c19.561 0 35.418-15.858 35.418-35.418V126.255c0-19.561-15.858-35.417-35.418-35.417" style="fill:#a10d50"/><path d="m133.781 366.106 79.277-27.516-79.277-27.527 79.277-27.527-79.277-27.516 79.277-27.538-79.277-27.527 79.277-27.527-79.277-27.527 79.277-27.527-79.277-27.538H43.676c-19.562 0-35.418 15.857-35.418 35.417V385.74c0 19.561 15.857 35.418 35.418 35.418h90.104l79.277-27.527z" style="fill:#fff"/><path d="M468.324 82.58H43.675C19.593 82.58 0 102.172 0 126.255v259.487c0 24.083 19.593 43.676 43.675 43.676h90.076l.029.002.026-.002h334.518c24.083 0 43.676-19.593 43.676-43.676V126.255c0-24.083-19.593-43.675-43.676-43.675M16.516 385.742V126.255c0-14.976 12.183-27.159 27.159-27.159h88.711l55.5 19.274-56.815 19.731a8.258 8.258 0 0 0 0 15.602l56.812 19.728-56.811 19.727a8.257 8.257 0 0 0 0 15.602l56.811 19.728-56.811 19.727a8.257 8.257 0 0 0 0 15.602l56.808 19.724-56.808 19.724a8.257 8.257 0 0 0 0 15.603l56.807 19.719-56.807 19.725a8.257 8.257 0 0 0 0 15.602l56.808 19.724-55.492 19.267H43.675c-14.975-.003-27.159-12.186-27.159-27.163m478.968 0c0 14.976-12.183 27.16-27.16 27.16h-285.58l33.023-11.465a8.257 8.257 0 0 0 0-15.602l-56.809-19.724 56.809-19.725a8.257 8.257 0 0 0-.002-15.603l-56.806-19.719 56.806-19.722a8.257 8.257 0 0 0 0-15.602l-56.809-19.724 56.809-19.726a8.257 8.257 0 0 0 0-15.602l-56.811-19.728 56.811-19.727a8.257 8.257 0 0 0 0-15.602l-56.814-19.729 56.814-19.731a8.258 8.258 0 0 0 0-15.602l-33.037-11.473h285.594c14.976 0 27.16 12.183 27.16 27.159v259.488h.002z" style="fill:#111a21"/></svg>
