<svg xmlns="http://www.w3.org/2000/svg" xml:space="preserve" viewBox="0 0 512 512" width="48" height="48"><path d="M8.258 388.847V123.153c0-17.846 14.468-32.314 32.314-32.314h430.854c17.847 0 32.314 14.468 32.314 32.314v265.693c0 17.847-14.468 32.314-32.314 32.314H40.572c-17.846.001-32.314-14.467-32.314-32.313" style="fill:#fff"/><path d="M359.98 198.359a126.95 126.95 0 0 1-46.939 40.963c-2.496-6.838-9.039-11.729-16.741-11.729-9.85 0-17.836 7.986-17.836 17.836 0 1.86.286 3.653.815 5.339-7.546 1.406-15.326 2.146-23.279 2.146s-15.733-.74-23.279-2.146c.527-1.686.815-3.479.815-5.339 0-9.85-7.986-17.836-17.836-17.836-7.702 0-14.245 4.891-16.741 11.729a126.94 126.94 0 0 1-46.939-40.963h-48.225c7.859 77.127 73.003 137.305 152.205 137.305s144.345-60.178 152.205-137.305z" style="fill:#ed1f34"/><path d="M435.072 190.1h-88.524a8.257 8.257 0 0 0-3.168 15.884 119.1 119.1 0 0 1-27.419 22.323c-4.868-5.576-12.002-8.974-19.659-8.974-13.842 0-25.2 10.833-26.045 24.466a119.6 119.6 0 0 1-28.513 0c-.845-13.632-12.203-24.466-26.045-24.466-7.658 0-14.792 3.398-19.66 8.974a119.1 119.1 0 0 1-27.419-22.323 8.257 8.257 0 0 0-3.168-15.884H76.928a8.257 8.257 0 0 0-8.258 8.258 8.257 8.257 0 0 0 8.258 8.258h19.59c5.061 33.775 20.926 65.42 45.164 89.782 25.996 26.129 60.417 42.677 96.92 46.594q.449.048.892.048a8.26 8.26 0 0 0 .871-16.47c-64.434-6.916-116.549-56.695-127.128-119.954h34.545c12.462 16.809 28.783 30.611 47.443 40.071a8.26 8.26 0 0 0 11.492-4.534c1.376-3.77 4.986-6.304 8.983-6.304 5.282 0 9.578 4.296 9.578 9.578 0 .979-.148 1.945-.438 2.872a8.255 8.255 0 0 0 6.369 10.585 136 136 0 0 0 24.792 2.285c8.311 0 16.652-.769 24.792-2.285a8.253 8.253 0 0 0 6.369-10.585 9.6 9.6 0 0 1-.438-2.872c0-5.282 4.296-9.578 9.578-9.578 3.997 0 7.606 2.534 8.983 6.304a8.25 8.25 0 0 0 4.727 4.85 8.25 8.25 0 0 0 6.765-.316c18.66-9.459 34.981-23.262 47.443-40.071h34.545c-10.579 63.259-62.695 113.04-127.128 119.954a8.26 8.26 0 0 0-7.33 9.093 8.26 8.26 0 0 0 9.093 7.329c36.503-3.919 70.924-20.466 96.92-46.594 24.238-24.362 40.103-56.006 45.164-89.782h19.59a8.257 8.257 0 0 0 8.258-8.258 8.26 8.26 0 0 0-8.26-8.258" style="fill:#1a1c20"/><path d="M468.324 82.581H43.676C19.593 82.581 0 102.174 0 126.257v259.486c0 24.083 19.593 43.676 43.676 43.676h424.648c24.083 0 43.675-19.594 43.675-43.676V126.257c.001-24.083-19.592-43.676-43.675-43.676m27.16 303.162c0 14.977-12.183 27.16-27.16 27.16H43.676c-14.977 0-27.16-12.183-27.16-27.16V126.257c0-14.977 12.183-27.16 27.16-27.16h424.648c14.976 0 27.159 12.183 27.159 27.16z" style="fill:#1a1c20"/></svg>
