<svg xmlns="http://www.w3.org/2000/svg" xml:space="preserve" viewBox="0 0 512 512" width="48" height="48"><path d="M43.676 90.839c-19.561 0-35.418 15.857-35.418 35.418v259.486c0 9.868 4.038 18.789 10.548 25.21L349.591 90.839z" style="fill:#259245"/><path d="M493.194 101.047 162.409 421.161h305.915c19.561 0 35.418-15.857 35.418-35.418V126.257c0-9.868-4.039-18.788-10.548-25.21" style="fill:#ed1f34"/><path d="M468.324 90.839H349.591L18.806 410.953c6.395 6.309 15.176 10.208 24.87 10.208h118.732l330.785-320.115c-6.394-6.309-15.175-10.207-24.869-10.207" style="fill:#ffe000"/><path d="M499.305 95.505c-.061-.067-.113-.138-.176-.203a8 8 0 0 0-.675-.62c-7.844-7.488-18.455-12.102-30.13-12.102H43.676C19.593 82.581 0 102.174 0 126.257v259.486c0 11.983 4.854 22.853 12.695 30.752.061.067.113.138.176.203q.327.334.679.624c7.843 7.485 18.453 12.098 30.125 12.098h424.648c24.083 0 43.675-19.594 43.675-43.676V126.257c.002-11.983-4.852-22.853-12.693-30.752M16.516 126.257c0-14.977 12.183-27.16 27.16-27.16h285.507L19.738 398.56a27 27 0 0 1-3.222-12.816zm15.086 283.805L352.933 99.097h115.391c4.336 0 8.434 1.027 12.073 2.841l-321.33 310.966H43.676a27 27 0 0 1-12.074-2.842m463.882-24.319c0 14.977-12.183 27.16-27.16 27.16H182.817L492.262 113.44a27 27 0 0 1 3.222 12.817z" style="fill:#111a21"/></svg>
