<svg xmlns="http://www.w3.org/2000/svg" xml:space="preserve" viewBox="0 0 512 512" width="48" height="48"><path d="M465.204 90.838H46.796c-21.284 0-38.538 17.254-38.538 38.538v253.247c0 21.284 17.254 38.538 38.538 38.538h418.409c21.284 0 38.538-17.254 38.538-38.538V129.375c-.001-21.284-17.255-38.537-38.539-38.537" style="fill:#ed1f34"/><path d="M189.95 293.47 20.528 412.537c6.209 5.369 14.295 8.624 23.148 8.624h58.083L207.547 314.47a76.5 76.5 0 0 1-17.597-21m-9.924-37.471c0-4.68.447-9.253 1.262-13.701L8.258 226.294v59.407l173.03-16.003a76 76 0 0 1-1.262-13.699m9.924-37.472a76.5 76.5 0 0 1 17.597-21L101.759 90.838H43.676c-8.852 0-16.939 3.255-23.148 8.624zM256 180.025c4.68 0 9.253.447 13.701 1.261l12.77-90.448H229.53l12.769 90.448A76 76 0 0 1 256 180.025m75.974 75.974c0 4.68-.448 9.253-1.262 13.701l173.03 16.003v-59.407l-173.03 16.003a76 76 0 0 1 1.262 13.7m-9.924-37.472L491.472 99.46c-6.209-5.369-14.295-8.624-23.148-8.624h-58.083L304.453 197.527a76.5 76.5 0 0 1 17.597 21M256 331.973a76 76 0 0 1-13.701-1.261L229.53 421.16h52.941l-12.769-90.448A76 76 0 0 1 256 331.973m66.05-38.503a76.5 76.5 0 0 1-17.597 21l105.788 106.69h58.083c8.852 0 16.939-3.255 23.148-8.624z" style="fill:#ffe000"/><circle cx="256" cy="255.999" r="42.942" style="fill:#ffe000"/><path d="M512 285.612V126.256c0-12.992-5.708-24.67-14.741-32.677q-.394-.39-.829-.718c-7.602-6.408-17.408-10.281-28.106-10.281H43.676C19.593 82.58 0 102.172 0 126.255V385.74c0 13.126 5.829 24.91 15.024 32.922q.396.392.831.72c7.561 6.266 17.258 10.036 27.821 10.036h238.76l.023.001.015-.001h185.848c9.515 0 18.323-3.068 25.504-8.254a8.22 8.22 0 0 0 6.221-5.451c7.399-7.828 11.95-18.375 11.95-29.97V285.628q.004-.009.003-.016m-16.516 100.13a27 27 0 0 1-5.159 15.896L326.799 286.713a8.26 8.26 0 0 0-11.924 2.669 68 68 0 0 1-15.697 18.733 8.256 8.256 0 0 0-.589 12.169l91.835 92.618H289.645l-11.766-83.345a8.257 8.257 0 0 0-9.663-6.969 67.1 67.1 0 0 1-24.43 0 8.26 8.26 0 0 0-9.664 6.969l-11.766 83.345h-100.78l91.835-92.618a8.255 8.255 0 0 0-.59-12.169 68 68 0 0 1-15.697-18.733 8.26 8.26 0 0 0-11.936-2.662L21.875 401.92a27 27 0 0 1-5.36-16.179v-92.51l165.531-15.309a8.26 8.26 0 0 0 7.362-9.708 68 68 0 0 1-1.126-12.215c0-4.018.379-8.128 1.126-12.215a8.257 8.257 0 0 0-7.362-9.708l-165.531-15.31v-92.51a27 27 0 0 1 5.157-15.895l163.527 114.925a8.26 8.26 0 0 0 6.554 1.303 8.25 8.25 0 0 0 5.371-3.972 68 68 0 0 1 15.696-18.731 8.256 8.256 0 0 0 .59-12.169l-91.835-92.619h100.779l11.766 83.345a8.253 8.253 0 0 0 9.662 6.969c8.175-1.494 16.256-1.494 24.431 0a8.256 8.256 0 0 0 9.661-6.969l11.768-83.345h100.779l-91.835 92.618a8.26 8.26 0 0 0 .589 12.169 68 68 0 0 1 15.697 18.733 8.26 8.26 0 0 0 11.925 2.669L490.326 110.36a27 27 0 0 1 5.157 15.895v92.51l-165.531 15.309a8.256 8.256 0 0 0-7.362 9.711 68 68 0 0 1 1.126 12.214c0 4.021-.379 8.13-1.126 12.214a8.26 8.26 0 0 0 7.362 9.711l165.531 15.308zm-222.52 27.16h-33.93l10.298-72.943c4.466.362 8.868.362 13.333 0zM16.516 235.352l155.493 14.38a82 82 0 0 0 0 12.532L16.516 276.645zm222.52-136.256h33.93l-10.298 72.943a82 82 0 0 0-13.333 0zm100.956 163.168c.16-2.099.24-4.191.24-6.266s-.08-4.168-.24-6.266l155.492-14.38v41.293zm136.042-162.047L324.339 206.826a84 84 0 0 0-8.007-9.55l97.35-98.181h54.642a27 27 0 0 1 7.71 1.122M98.317 99.096l97.35 98.18a84 84 0 0 0-8.006 9.55L35.966 100.217a27 27 0 0 1 7.711-1.121zM36.384 411.899 187.67 305.183a84 84 0 0 0 7.998 9.539l-97.35 98.181H43.676a27 27 0 0 1-7.292-1.004m377.299 1.003-97.35-98.18a84 84 0 0 0 8.007-9.55l151.694 106.609a27 27 0 0 1-7.71 1.121zM221.316 255.999c0 19.125 15.559 34.684 34.684 34.684a34.61 34.61 0 0 0 32.024-21.347 8.258 8.258 0 0 1 15.243 6.357c-7.982 19.138-26.536 31.505-47.267 31.505-28.232 0-51.2-22.968-51.2-51.2s22.968-51.2 51.2-51.2c20.731 0 39.285 12.366 47.267 31.505a8.259 8.259 0 0 1-15.243 6.357A34.61 34.61 0 0 0 256 221.313c-19.125.002-34.684 15.56-34.684 34.686" style="fill:#121b21"/></svg>
