<svg xmlns="http://www.w3.org/2000/svg" xml:space="preserve" viewBox="0 0 512 512" width="48" height="48"><path d="M173.419 90.839H338.58v330.323H173.419z" style="fill:#ffe000"/><path d="M43.676 90.839c-19.562 0-35.418 15.857-35.418 35.417v259.487c0 19.561 15.857 35.418 35.418 35.418h129.743V90.839z" style="fill:#103b9b"/><path d="M468.324 90.839H338.581v330.323h129.743c19.561 0 35.418-15.858 35.418-35.418V126.256c0-19.561-15.858-35.417-35.418-35.417" style="fill:#ed1f34"/><path d="M468.324 82.581H43.675C19.593 82.581 0 102.173 0 126.256v259.487c0 24.084 19.593 43.676 43.675 43.676h424.648c24.084 0 43.676-19.593 43.676-43.676V126.256c.001-24.083-19.592-43.675-43.675-43.675M16.516 385.743V126.256c0-14.976 12.183-27.159 27.159-27.159h121.486v222.968c0 4.561 3.697 8.258 8.258 8.258s8.258-3.697 8.258-8.258V99.097h148.645v313.806H181.677v-57.806c0-4.561-3.697-8.258-8.258-8.258s-8.258 3.697-8.258 8.258v57.806H43.675c-14.975 0-27.159-12.183-27.159-27.16m478.968 0c0 14.977-12.183 27.16-27.16 27.16H346.839V99.097h121.485c14.977 0 27.16 12.183 27.16 27.159z" style="fill:#121b21"/></svg>
