<svg xmlns="http://www.w3.org/2000/svg" xml:space="preserve" viewBox="0 0 512 512" width="48" height="48"><path d="M8.258 256h495.484v82.581H8.258z" style="fill:#ffe000"/><path d="M8.258 385.743c0 19.562 15.857 35.418 35.418 35.418h424.648c19.561 0 35.418-15.857 35.418-35.418v-47.162H8.258z" style="fill:#134923"/><path d="M468.324 90.839H43.676c-19.562 0-35.418 15.857-35.418 35.418V256h495.484V126.257c0-19.562-15.857-35.418-35.418-35.418" style="fill:#3db4ea"/><path d="M461.901 165.161h-23.005l16.266-16.266a8.258 8.258 0 0 0-11.679-11.679l-16.266 16.266v-23.005a8.256 8.256 0 0 0-8.258-8.258 8.256 8.256 0 0 0-8.258 8.258v23.005l-16.266-16.266a8.258 8.258 0 0 0-11.679 11.679l16.266 16.266h-23.005a8.256 8.256 0 0 0-8.258 8.258 8.256 8.256 0 0 0 8.258 8.258h23.005l-16.266 16.266a8.258 8.258 0 1 0 11.68 11.679l16.265-16.266v23.005a8.256 8.256 0 0 0 8.258 8.258 8.256 8.256 0 0 0 8.258-8.258v-23.005l16.266 16.266a8.24 8.24 0 0 0 5.84 2.418 8.258 8.258 0 0 0 5.84-14.097l-16.267-16.266h23.005a8.256 8.256 0 0 0 8.258-8.258 8.257 8.257 0 0 0-8.258-8.258" style="fill:#ffe610"/><path d="M468.324 82.581H43.676C19.594 82.581 0 102.174 0 126.257v259.486c0 24.083 19.594 43.676 43.676 43.676h424.647c24.083 0 43.676-19.594 43.676-43.676V126.257c.001-24.083-19.593-43.676-43.675-43.676M43.676 99.097h424.647c14.977 0 27.16 12.183 27.16 27.16v121.485H74.323A8.256 8.256 0 0 0 66.065 256a8.256 8.256 0 0 0 8.258 8.258h421.161v66.065H16.516v-66.065H41.29A8.256 8.256 0 0 0 49.548 256a8.256 8.256 0 0 0-8.258-8.258H16.516V126.257c0-14.977 12.184-27.16 27.16-27.16m424.648 313.806H43.676c-14.977 0-27.16-12.183-27.16-27.16v-38.904h478.968v38.904c0 14.977-12.184 27.16-27.16 27.16" style="fill:#111a21"/></svg>
