<svg xmlns="http://www.w3.org/2000/svg" xml:space="preserve" viewBox="0 0 512 512" width="48" height="48"><path d="M503.742 256 256 421.161 8.258 256 256 90.839z" style="fill:#fff"/><path d="m169.169 227.787 63.933-3.303L256 164.701l22.898 59.783 63.933 3.303-49.782 40.251 16.615 61.824L256 294.956l-53.664 34.906 16.615-61.824z" style="fill:#ffe000"/><path d="M256 90.839 8.258 256V129.376c0-21.284 17.254-38.538 38.538-38.538zm247.742 38.537V256L256 90.839h209.204c21.284 0 38.538 17.254 38.538 38.537" style="fill:#ed1f34"/><path d="M256 421.161H46.796c-21.284 0-38.538-17.254-38.538-38.538V256zM503.742 256v126.624c0 21.284-17.254 38.538-38.538 38.538H256z" style="fill:#164fce"/><path d="m343.256 219.54-58.567-3.026-20.977-54.766a8.258 8.258 0 0 0-15.424 0l-20.977 54.766-58.567 3.026a8.258 8.258 0 0 0-4.767 14.669l45.604 36.874-15.221 56.637a8.26 8.26 0 0 0 12.479 9.066L256 304.808l49.161 31.977a8.25 8.25 0 0 0 9.357-.242 8.26 8.26 0 0 0 3.122-8.824l-15.221-56.637 45.604-36.874a8.26 8.26 0 0 0-4.767-14.668m-55.399 42.077a8.26 8.26 0 0 0-2.782 8.565l11.02 41.002-35.59-23.15a8.25 8.25 0 0 0-9.006 0l-35.59 23.15 11.02-41.002a8.26 8.26 0 0 0-2.782-8.565l-33.015-26.696 42.4-2.19a8.26 8.26 0 0 0 7.286-5.294l15.186-39.649 15.186 39.649a8.26 8.26 0 0 0 7.286 5.294l42.4 2.19z" style="fill:#1a1c20"/><path d="M468.324 82.581H43.676C19.594 82.581 0 102.173 0 126.256v259.487c0 24.084 19.594 43.676 43.676 43.676h424.647c24.083 0 43.676-19.593 43.676-43.676V126.256c.001-24.083-19.593-43.675-43.675-43.675m27.16 43.675V240.57L283.275 99.097h185.05c14.975 0 27.159 12.183 27.159 27.159M43.676 99.097h185.05L16.516 240.57V126.256c0-14.976 12.184-27.159 27.16-27.159m-27.16 286.646V271.429l212.21 141.474H43.676c-14.976 0-27.16-12.183-27.16-27.16m451.808 27.16H283.275l148.418-98.945a8.258 8.258 0 0 0-9.161-13.741L256 411.236 23.146 256 256 100.764 488.854 256l-38.839 25.894a8.26 8.26 0 0 0-2.29 11.451c2.53 3.795 7.659 4.821 11.451 2.29l36.308-24.205v114.314c0 14.976-12.184 27.159-27.16 27.159" style="fill:#1a1c20"/></svg>
