<svg xmlns="http://www.w3.org/2000/svg" xml:space="preserve" viewBox="0 0 512 512" width="48" height="48"><path d="M8.258 200.946h495.484v110.108H8.258z" style="fill:#fff"/><path d="M315.554 289.583c-18.517 0-33.583-15.065-33.583-33.583s15.066-33.583 33.583-33.583c7.15 0 13.977 2.22 19.746 6.419a8.26 8.26 0 0 1-9.723 13.352 16.9 16.9 0 0 0-10.023-3.255c-9.411 0-17.067 7.656-17.067 17.067s7.656 17.067 17.067 17.067c3.634 0 7.099-1.126 10.023-3.255a8.26 8.26 0 0 1 11.537 1.813 8.26 8.26 0 0 1-1.813 11.537c-5.768 4.2-12.597 6.421-19.747 6.421" style="fill:#ed1f34"/><circle cx="353.269" cy="256" r="9.435" style="fill:#ed1f34"/><path d="M8.258 311.054h495.484v76.949c0 18.313-14.846 33.159-33.159 33.159H41.417c-18.313 0-33.159-14.846-33.159-33.159z" style="fill:#259245"/><path d="M41.417 90.839h429.166c18.313 0 33.159 14.846 33.159 33.159v76.949H8.258v-76.949c0-18.313 14.846-33.159 33.159-33.159" style="fill:#333"/><path d="M8.258 116.669v278.663c0 10.257 11.963 15.86 19.842 9.294L206.452 256 28.101 107.375c-7.88-6.567-19.843-.964-19.843 9.294" style="fill:#ed1f34"/><path d="M468.324 82.581H43.676c-11.322 0-21.65 4.333-29.42 11.424-.09.077-.184.149-.272.23-.89.825-1.73 1.692-2.541 2.582l-.127.138q-.588.652-1.148 1.326a42 42 0 0 0-1.738 2.222 40 40 0 0 0-1.363 1.979q-.21.32-.414.644-.455.727-.881 1.473-.086.147-.17.295A43.4 43.4 0 0 0 0 126.256v259.487a43.4 43.4 0 0 0 7.068 23.775 43 43 0 0 0 4.25 5.527l.127.138a44 44 0 0 0 2.541 2.582c.085.079.176.148.264.222 7.768 7.096 18.099 11.431 29.426 11.431h424.647c24.083 0 43.676-19.593 43.676-43.676V126.256c.001-24.083-19.593-43.675-43.675-43.675m0 16.516c14.977 0 27.16 12.183 27.16 27.159v66.432H143.378l-109.91-91.593a27 27 0 0 1 10.209-1.998zm-333.18 205.577-.02.017-114.49 95.407a27 27 0 0 1-3.24-7.499l-.058-.233a27 27 0 0 1-.378-1.773c-.046-.259-.097-.515-.135-.775-.036-.24-.063-.482-.092-.725a27 27 0 0 1-.155-1.652 28 28 0 0 1-.058-1.696V126.256c0-.569.024-1.134.058-1.696q.02-.297.045-.591.046-.534.11-1.061c.03-.241.056-.484.092-.725.039-.259.089-.514.135-.772.108-.599.231-1.191.379-1.776l.058-.233a27 27 0 0 1 3.24-7.501l114.489 95.407.021.018L193.554 256zm333.18 108.229H43.676a27 27 0 0 1-10.209-1.998l109.91-91.593h294.3a8.257 8.257 0 0 0 8.258-8.258 8.257 8.257 0 0 0-8.258-8.258h-274.48l48.542-40.451a8.257 8.257 0 0 0 0-12.688l-48.542-40.451h332.287v93.591H470.71a8.257 8.257 0 0 0-8.258 8.258 8.257 8.257 0 0 0 8.258 8.258h24.774v66.431c0 14.976-12.184 27.159-27.16 27.159" style="fill:#1a1c20"/></svg>
