<svg xmlns="http://www.w3.org/2000/svg" xml:space="preserve" viewBox="0 0 512 512" width="48" height="48"><path d="M354.861 90.833H41.84c-18.551 0-33.588 15.038-33.588 33.588v197.497z" style="fill:#259245"/><path d="M157.127 421.167h311.932c19.159 0 34.689-15.531 34.689-34.689V190.093z" style="fill:#ed1f34"/><path d="M503.749 190.093V122.77c0-17.638-14.299-31.937-31.937-31.937H354.861L8.251 321.917v67.312c0 17.638 14.299 31.937 31.937 31.937h116.937z" style="fill:#ffe000"/><path d="M8.251 355v32.578c0 18.551 15.038 33.588 33.588 33.588h65.66L503.747 157.01v-32.589c0-18.551-15.038-33.588-33.588-33.588h-65.674z" style="fill:#333"/><path d="m127.823 329.869 25.393-18.891-6.976-30.872 25.814 18.313 27.205-16.175-9.439 30.21 23.79 20.876-31.648.357-12.503 29.077-10.12-29.989zm174.366-116.244 25.393-18.892-6.975-30.871 25.813 18.312L373.626 166l-9.44 30.209 23.79 20.877-31.648.358-12.503 29.075-10.12-29.988z" style="fill:#fff"/><path d="m199.305 309.79 7.837-25.082a8.257 8.257 0 0 0-12.103-9.56l-22.589 13.429-21.432-15.206a8.26 8.26 0 0 0-12.833 8.557l5.793 25.632-21.083 15.685a8.258 8.258 0 0 0 4.171 14.849l26.168 2.412 8.402 24.899a8.26 8.26 0 0 0 15.412.622l10.381-24.142 26.277-.296a8.256 8.256 0 0 0 5.353-14.464zm-17.437 15.639a8.26 8.26 0 0 0-7.493 4.996l-3.986 9.269-3.226-9.56a8.26 8.26 0 0 0-7.067-5.582l-10.047-.926 8.095-6.023a8.26 8.26 0 0 0 3.126-8.446l-2.224-9.841 8.228 5.838a8.25 8.25 0 0 0 8.999.362l8.673-5.156-3.009 9.631a8.26 8.26 0 0 0 2.436 8.669l7.584 6.656zM373.67 193.545l7.837-25.081a8.258 8.258 0 0 0-12.102-9.562l-22.589 13.429-21.432-15.206a8.259 8.259 0 0 0-12.833 8.557l5.792 25.632-21.083 15.685a8.258 8.258 0 0 0 4.171 14.849l26.168 2.412 8.402 24.899a8.26 8.26 0 0 0 15.412.622l10.382-24.142 26.276-.297a8.26 8.26 0 0 0 7.651-5.391 8.26 8.26 0 0 0-2.298-9.074zm-17.436 15.639a8.26 8.26 0 0 0-7.493 4.996l-3.986 9.27-3.226-9.561a8.26 8.26 0 0 0-7.067-5.582l-10.048-.926 8.096-6.023a8.26 8.26 0 0 0 3.126-8.446l-2.224-9.841 8.229 5.838a8.26 8.26 0 0 0 8.999.362l8.672-5.156-3.008 9.63a8.26 8.26 0 0 0 2.434 8.671l7.584 6.654z" style="fill:#121b21"/><path d="M468.324 82.581H43.676C19.594 82.581 0 102.174 0 126.257v259.486c0 24.083 19.594 43.676 43.676 43.676h424.647c24.083 0 43.676-19.594 43.676-43.676V126.257c.001-24.083-19.593-43.676-43.675-43.676m27.16 303.162c0 14.977-12.183 27.16-27.16 27.16H43.676c-14.977 0-27.16-12.183-27.16-27.16V126.257c0-14.977 12.183-27.16 27.16-27.16h424.647c14.977 0 27.16 12.183 27.16 27.16z" style="fill:#121b21"/></svg>
