<svg xmlns="http://www.w3.org/2000/svg" xml:space="preserve" viewBox="0 0 512 512" width="48" height="48"><path d="M8.258 382.073V129.927c0-21.588 17.5-39.088 39.088-39.088h417.308c21.588 0 39.088 17.5 39.088 39.088v252.146c0 21.588-17.5 39.088-39.088 39.088H47.346c-21.587 0-39.088-17.5-39.088-39.088" style="fill:#ed1f34"/><path d="M8.258 256H256V90.839H42.942c-19.155 0-34.684 15.528-34.684 34.684z" style="fill:#103b9b"/><circle cx="135.058" cy="126.414" r="11.011" style="fill:#fff"/><circle cx="135.058" cy="220.424" r="11.011" style="fill:#fff"/><circle cx="167.452" cy="144.516" r="11.011" style="fill:#fff"/><circle cx="102.653" cy="162.618" r="11.011" style="fill:#fff"/><circle cx="151.255" cy="178.022" r="8.258" style="fill:#fff"/><path d="M468.324 82.581H43.676C19.594 82.581 0 102.173 0 126.256v259.487c0 24.084 19.594 43.676 43.676 43.676h424.647c24.083 0 43.676-19.593 43.676-43.676V126.256c.001-24.083-19.593-43.675-43.675-43.675m27.16 303.162c0 14.977-12.183 27.16-27.16 27.16H43.676c-14.977 0-27.16-12.183-27.16-27.16V264.258H256a8.257 8.257 0 0 0 8.258-8.258v-99.097a8.257 8.257 0 0 0-8.258-8.258 8.257 8.257 0 0 0-8.258 8.258v90.839H16.516V126.256c0-14.976 12.183-27.159 27.16-27.159h204.066v24.774a8.257 8.257 0 0 0 8.258 8.258 8.257 8.257 0 0 0 8.258-8.258V99.097h204.066c14.977 0 27.16 12.183 27.16 27.159z" style="fill:#111a21"/></svg>
