<svg xmlns="http://www.w3.org/2000/svg" xml:space="preserve" viewBox="0 0 512 512" width="48" height="48"><path d="M468.324 90.839H43.676c-19.561 0-35.418 15.857-35.418 35.417V256h495.484V126.256c0-19.561-15.857-35.417-35.418-35.417" style="fill:#fff"/><path d="M8.258 385.743c0 19.561 15.858 35.418 35.418 35.418h424.648c19.561 0 35.418-15.857 35.418-35.418V256H8.258z" style="fill:#3db4ea"/><path d="M468.324 82.581H43.676C19.594 82.581 0 102.173 0 126.256v259.487c0 24.084 19.594 43.676 43.676 43.676h424.647c24.083 0 43.676-19.593 43.676-43.676V126.256c.001-24.083-19.593-43.675-43.675-43.675M43.676 99.097h424.647c14.977 0 27.16 12.183 27.16 27.159v121.486H16.516V126.256c0-14.976 12.184-27.159 27.16-27.159m424.648 313.806H43.676c-14.977 0-27.16-12.183-27.16-27.16V264.258h478.968v121.485c0 14.977-12.184 27.16-27.16 27.16" style="fill:#121b21"/><path d="M256 334.085c-51.405 0-93.225-41.82-93.225-93.225a93 93 0 0 1 5.074-30.405 8.259 8.259 0 0 1 15.613 5.385c-2.768 8.025-4.171 16.443-4.171 25.02 0 42.297 34.412 76.709 76.709 76.709s76.709-34.411 76.709-76.709c0-8.577-1.403-16.996-4.171-25.021a8.258 8.258 0 1 1 15.613-5.385c3.367 9.762 5.074 19.992 5.074 30.406 0 51.404-41.821 93.225-93.225 93.225" style="fill:#259245"/><path d="M214.956 213.149c-4.606 10.194-7.274 22.22-7.274 35.11 0 52.243 48.317 77.567 48.317 77.567s48.317-25.325 48.317-77.567c0-12.89-2.668-24.916-7.274-35.11z" style="fill:#ffe000"/><path d="M256 272.425c-14.714 0-28.672 3.231-41.211 9.011C228.219 311.257 256 325.827 256 325.827s27.781-14.568 41.211-44.391c-12.539-5.782-26.497-9.011-41.211-9.011" style="fill:#259245"/><path d="M324.633 329.497H305.46a8.257 8.257 0 0 0-7.398-11.929h-17.091c14.685-13.7 31.604-36.584 31.604-69.309 0-13.6-2.768-26.918-8.006-38.51a8.26 8.26 0 0 0-7.526-4.858h-32.786v-30.645a8.257 8.257 0 0 0-8.258-8.258 8.257 8.257 0 0 0-8.258 8.258v30.646h-32.786a8.26 8.26 0 0 0-7.526 4.858c-5.238 11.592-8.006 24.909-8.006 38.51 0 32.725 16.918 55.609 31.604 69.309h-17.091a8.26 8.26 0 0 0-7.398 11.929h-19.173a8.257 8.257 0 0 0-8.258 8.258 8.257 8.257 0 0 0 8.258 8.258h37.582a8.26 8.26 0 0 0 7.398-11.929h47.308a8.26 8.26 0 0 0 7.398 11.929h37.582a8.257 8.257 0 0 0 8.258-8.258 8.257 8.257 0 0 0-8.258-8.259m-108.692-81.238c0-9.393 1.57-18.573 4.568-26.852h70.981c2.999 8.279 4.568 17.459 4.568 26.852 0 38.707-29.247 61.034-40.033 67.952-10.673-6.932-40.084-29.526-40.084-67.952" style="fill:#121b21"/></svg>
