<svg xmlns="http://www.w3.org/2000/svg" xml:space="preserve" viewBox="0 0 512 512" width="48" height="48"><path d="M8.258 200.946h495.484v110.108H8.258z" style="fill:#ffe000"/><path d="m237.285 248.202 25.574-1.321 9.158-23.913 9.16 23.913 25.573 1.321-19.912 16.1 6.645 24.73-21.466-13.962-21.465 13.962 6.646-24.73zm124.422 0 25.573-1.321 9.159-23.913 9.16 23.913 25.572 1.321-19.912 16.1 6.645 24.73-21.465-13.962-21.466 13.962 6.647-24.73z" style="fill:#333"/><path d="M43.676 421.161h424.648c19.561 0 35.418-15.857 35.418-35.418v-74.689H118.367l-99.734 99.733c6.408 6.409 15.263 10.374 25.043 10.374M468.324 90.839H43.676c-9.78 0-18.635 3.965-25.044 10.374l99.733 99.733h385.376v-74.689c.001-19.562-15.856-35.418-35.417-35.418" style="fill:#259245"/><path d="M8.258 126.257v259.486c0 9.781 3.964 18.636 10.373 25.044l99.734-99.733L173.419 256l-55.054-55.054-99.734-99.733c-6.409 6.408-10.373 15.263-10.373 25.044" style="fill:#ed1f34"/><path d="m307.176 239.955-20.209-1.044-7.237-18.897a8.258 8.258 0 0 0-15.424 0l-7.237 18.897-20.209 1.044a8.258 8.258 0 0 0-4.767 14.669l15.737 12.723-5.253 19.543a8.26 8.26 0 0 0 12.479 9.066l16.962-11.034 16.962 11.034a8.24 8.24 0 0 0 4.503 1.336 8.258 8.258 0 0 0 7.976-10.402l-5.252-19.543 15.735-12.723a8.257 8.257 0 0 0-4.766-14.669m-25.531 17.926a8.26 8.26 0 0 0-2.782 8.564l1.05 3.91-3.392-2.208a8.25 8.25 0 0 0-9.006 0l-3.391 2.207 1.05-3.909a8.26 8.26 0 0 0-2.782-8.564l-3.147-2.543 4.041-.209a8.26 8.26 0 0 0 7.286-5.294l1.447-3.779 1.447 3.779a8.26 8.26 0 0 0 7.286 5.294l4.041.209zm149.952-17.926-20.209-1.044-7.237-18.897a8.259 8.259 0 0 0-15.424 0l-7.237 18.897-20.208 1.044a8.258 8.258 0 0 0-4.767 14.669l15.737 12.723-5.253 19.543a8.26 8.26 0 0 0 12.479 9.066l16.962-11.034 16.962 11.034a8.24 8.24 0 0 0 4.503 1.336 8.258 8.258 0 0 0 7.976-10.402l-5.252-19.543 15.735-12.723a8.257 8.257 0 0 0-4.767-14.669m-25.53 17.926a8.26 8.26 0 0 0-2.782 8.564l1.05 3.91-3.392-2.208a8.25 8.25 0 0 0-9.006 0l-3.391 2.207 1.05-3.909a8.26 8.26 0 0 0-2.782-8.564l-3.147-2.543 4.041-.209a8.26 8.26 0 0 0 7.286-5.294l1.448-3.779 1.447 3.779a8.26 8.26 0 0 0 7.286 5.294l4.041.209z" style="fill:#111a21"/><path d="M468.324 82.581H43.676c-11.766 0-22.453 4.686-30.315 12.278a8 8 0 0 0-.569.514 8 8 0 0 0-.518.574C4.684 103.807 0 114.492 0 126.257v259.486c0 11.765 4.684 22.45 12.275 30.31q.243.297.518.574c.183.183.374.351.569.514 7.862 7.592 18.549 12.278 30.315 12.278h424.647c24.083 0 43.676-19.594 43.676-43.676V126.257c0-24.083-19.594-43.676-43.676-43.676m0 16.516c14.977 0 27.16 12.183 27.16 27.16v66.431H121.787l-90.558-90.559a27 27 0 0 1 12.448-3.032zM112.528 305.213l-.004.003-92.975 92.975a27 27 0 0 1-3.032-12.449V126.257c0-4.485 1.099-8.716 3.032-12.449l92.975 92.976.004.003L161.74 256zm355.796 107.69H43.676a27 27 0 0 1-12.448-3.032l90.558-90.559h315.891c4.562 0 8.258-3.696 8.258-8.258s-3.696-8.258-8.258-8.258H138.303l40.956-40.956a8.26 8.26 0 0 0 0-11.679l-40.956-40.957h357.181v93.591H470.71c-4.562 0-8.258 3.696-8.258 8.258s3.696 8.258 8.258 8.258h24.774v66.431c0 14.978-12.184 27.161-27.16 27.161" style="fill:#111a21"/></svg>
