<?xml version="1.0" encoding="iso-8859-1"?>
<!-- Generator: Adobe Illustrator 19.0.0, SVG Export Plug-In . SVG Version: 6.00 Build 0)  -->
<svg version="1.1" id="Layer_1" xmlns="http://www.w3.org/2000/svg" xmlns:xlink="http://www.w3.org/1999/xlink" x="0px" y="0px"
	 viewBox="0 0 512 512" style="enable-background:new 0 0 512 512;" xml:space="preserve">
<path style="fill:#FFFFFF;" d="M41.248,90.839h429.503c18.221,0,32.99,14.77,32.99,32.99v264.342c0,18.221-14.77,32.99-32.99,32.99
	H41.248c-18.221,0-32.99-14.77-32.99-32.99V123.829C8.258,105.609,23.028,90.839,41.248,90.839z"/>
<polygon style="fill:#ED1F34;" points="8.258,279.948 232.052,279.948 232.052,421.161 279.948,421.161 279.948,279.948
	503.742,279.948 503.742,232.052 279.948,232.052 279.948,90.839 232.052,90.839 232.052,232.052 8.258,232.052 "/>
<path style="fill:#1A1C20;" d="M158.341,175.285c-2.63,0-5.214-1.253-6.815-3.585l-8.809-12.828
	c-2.582-3.759-1.626-8.9,2.134-11.482c3.76-2.582,8.9-1.627,11.482,2.134l8.809,12.828c2.582,3.759,1.627,8.9-2.134,11.482
	C161.579,174.814,159.952,175.285,158.341,175.285z"/>
<path style="fill:#333333;" d="M119.511,124.185c-16.576,0-30.013,13.439-30.013,30.014c0,8.402,0,25.742,0,25.742
	c0,10.295,8.423,18.718,18.718,18.718h19.495l13.307,0.047c4.698,0,8.508-3.809,8.508-8.508v-36
	C149.524,137.622,136.086,124.185,119.511,124.185z"/>
<path style="fill:#1A1C20;" d="M141.016,206.964c-0.01,0-0.02,0-0.029,0l-13.305-0.047h-19.467
	c-14.876,0-26.976-12.101-26.976-26.976v-25.742c0-21.103,17.169-38.272,38.272-38.272s38.272,17.169,38.272,38.272v36
	C157.783,199.442,150.262,206.964,141.016,206.964z M119.511,132.442c-11.997,0-21.756,9.759-21.756,21.756v25.742
	c0,5.767,4.693,10.46,10.46,10.46l32.805,0.047c0.135-0.002,0.247-0.112,0.247-0.25v-36
	C141.267,142.202,131.508,132.442,119.511,132.442z"/>
<g>
	<path style="fill:#CCCCCC;" d="M89.579,160.214c-4.211,0-7.808-3.205-8.212-7.481c-0.429-4.541,2.904-8.57,7.443-9l66.245-6.268
		c4.54-0.422,8.571,2.904,9,7.443c0.429,4.541-2.904,8.57-7.443,9l-66.245,6.268C90.103,160.201,89.84,160.214,89.579,160.214z"/>
	<path style="fill:#CCCCCC;" d="M66.894,174.109c-2.779,0-5.493-1.403-7.051-3.948c-2.381-3.89-1.157-8.973,2.734-11.355
		l11.195-6.851l-11.195-6.851c-3.89-2.382-5.114-7.464-2.734-11.354c2.383-3.89,7.466-5.111,11.355-2.733l22.703,13.894
		c2.452,1.501,3.947,4.169,3.947,7.045c0,2.875-1.495,5.543-3.947,7.044l-22.703,13.894
		C69.851,173.717,68.364,174.109,66.894,174.109z"/>
</g>
<path style="fill:#1A1C20;" d="M430.032,175.285c-2.63,0-5.214-1.253-6.815-3.585l-8.809-12.828
	c-2.582-3.759-1.627-8.9,2.134-11.482c3.759-2.582,8.9-1.627,11.482,2.134l8.809,12.828c2.582,3.759,1.627,8.9-2.134,11.482
	C433.27,174.814,431.642,175.285,430.032,175.285z"/>
<path style="fill:#333333;" d="M391.201,124.185c-16.576,0-30.013,13.439-30.013,30.014c0,8.402,0,25.742,0,25.742
	c0,10.295,8.423,18.718,18.718,18.718h19.495l13.306,0.047c4.698,0,8.508-3.809,8.508-8.508v-36
	C421.214,137.622,407.777,124.185,391.201,124.185z"/>
<path style="fill:#1A1C20;" d="M412.706,206.964c-0.01,0-0.02,0-0.029,0l-13.305-0.047h-19.467
	c-14.876,0-26.976-12.101-26.976-26.976v-25.742c0-21.103,17.169-38.272,38.272-38.272c21.103,0,38.272,17.169,38.272,38.272v36
	C429.473,199.442,421.952,206.964,412.706,206.964z M391.201,132.442c-11.997,0-21.756,9.759-21.756,21.756v25.742
	c0,5.767,4.693,10.46,10.46,10.46l32.805,0.047c0.135-0.002,0.247-0.112,0.247-0.25v-36
	C412.957,142.202,403.197,132.442,391.201,132.442z"/>
<g>
	<path style="fill:#CCCCCC;" d="M361.269,160.214c-4.211,0-7.808-3.205-8.212-7.481c-0.429-4.541,2.904-8.57,7.443-9l66.245-6.268
		c4.544-0.422,8.571,2.904,9,7.443c0.429,4.541-2.904,8.57-7.443,9l-66.245,6.268C361.794,160.201,361.53,160.214,361.269,160.214z"
		/>
	<path style="fill:#CCCCCC;" d="M338.584,174.109c-2.779,0-5.493-1.403-7.051-3.948c-2.38-3.89-1.157-8.973,2.733-11.355
		l11.195-6.851l-11.195-6.851c-3.89-2.382-5.114-7.464-2.733-11.354c2.383-3.89,7.466-5.111,11.355-2.733l22.703,13.894
		c2.452,1.501,3.947,4.169,3.947,7.045c0,2.875-1.495,5.543-3.947,7.044l-22.703,13.894
		C341.543,173.717,340.054,174.109,338.584,174.109z"/>
</g>
<path style="fill:#1A1C20;" d="M158.341,364.395c-2.63,0-5.214-1.253-6.815-3.585l-8.809-12.828
	c-2.582-3.759-1.626-8.9,2.134-11.482c3.76-2.582,8.9-1.627,11.482,2.134l8.809,12.828c2.582,3.759,1.627,8.9-2.134,11.482
	C161.579,363.925,159.952,364.395,158.341,364.395z"/>
<path style="fill:#333333;" d="M119.511,313.294c-16.576,0-30.013,13.439-30.013,30.014c0,8.402,0,25.742,0,25.742
	c0,10.295,8.423,18.718,18.718,18.718h19.495l13.307,0.047c4.698,0,8.508-3.809,8.508-8.508v-36
	C149.524,326.732,136.086,313.294,119.511,313.294z"/>
<path style="fill:#1A1C20;" d="M141.016,396.074c-0.01,0-0.02,0-0.029,0l-13.305-0.047h-19.467
	c-14.876,0-26.976-12.101-26.976-26.976v-25.742c0-21.103,17.169-38.272,38.272-38.272s38.272,17.169,38.272,38.272v35.999
	C157.783,388.553,150.262,396.074,141.016,396.074z M119.511,321.553c-11.997,0-21.756,9.759-21.756,21.756v25.742
	c0,5.767,4.693,10.46,10.46,10.46l32.805,0.047c0.135-0.002,0.247-0.113,0.247-0.25V343.31
	C141.267,331.311,131.508,321.553,119.511,321.553z"/>
<g>
	<path style="fill:#CCCCCC;" d="M89.579,349.324c-4.211,0-7.808-3.205-8.212-7.481c-0.429-4.541,2.904-8.57,7.443-9l66.245-6.268
		c4.54-0.421,8.571,2.904,9,7.443c0.429,4.541-2.904,8.57-7.443,9l-66.245,6.268C90.103,349.311,89.84,349.324,89.579,349.324z"/>
	<path style="fill:#CCCCCC;" d="M66.894,363.218c-2.779,0-5.493-1.403-7.051-3.948c-2.381-3.89-1.157-8.973,2.734-11.355
		l11.195-6.851l-11.195-6.851c-3.89-2.382-5.114-7.464-2.734-11.355c2.383-3.89,7.466-5.11,11.355-2.733l22.703,13.894
		c2.452,1.501,3.947,4.169,3.947,7.044c0,2.875-1.495,5.543-3.947,7.044l-22.703,13.894
		C69.851,362.826,68.364,363.218,66.894,363.218z"/>
</g>
<path style="fill:#1A1C20;" d="M430.032,364.395c-2.63,0-5.214-1.253-6.815-3.585l-8.809-12.828
	c-2.582-3.759-1.627-8.9,2.134-11.482c3.759-2.582,8.9-1.627,11.482,2.134l8.809,12.828c2.582,3.759,1.627,8.9-2.134,11.482
	C433.27,363.925,431.642,364.395,430.032,364.395z"/>
<path style="fill:#333333;" d="M391.201,313.294c-16.576,0-30.013,13.439-30.013,30.014c0,8.402,0,25.742,0,25.742
	c0,10.295,8.423,18.718,18.718,18.718h19.495l13.306,0.047c4.698,0,8.508-3.809,8.508-8.508v-36
	C421.214,326.732,407.777,313.294,391.201,313.294z"/>
<path style="fill:#1A1C20;" d="M412.706,396.074c-0.01,0-0.02,0-0.029,0l-13.305-0.047h-19.467
	c-14.876,0-26.976-12.101-26.976-26.976v-25.742c0-21.103,17.169-38.272,38.272-38.272c21.103,0,38.272,17.169,38.272,38.272v35.999
	C429.473,388.553,421.952,396.074,412.706,396.074z M391.201,321.553c-11.997,0-21.756,9.759-21.756,21.756v25.742
	c0,5.767,4.693,10.46,10.46,10.46l32.805,0.047c0.135-0.002,0.247-0.113,0.247-0.25V343.31
	C412.957,331.311,403.197,321.553,391.201,321.553z"/>
<g>
	<path style="fill:#CCCCCC;" d="M361.269,349.324c-4.211,0-7.808-3.205-8.212-7.481c-0.429-4.541,2.904-8.57,7.443-9l66.245-6.268
		c4.544-0.421,8.571,2.904,9,7.443c0.429,4.541-2.904,8.57-7.443,9l-66.245,6.268C361.794,349.311,361.53,349.324,361.269,349.324z"
		/>
	<path style="fill:#CCCCCC;" d="M338.584,363.218c-2.779,0-5.493-1.403-7.051-3.948c-2.38-3.89-1.157-8.973,2.733-11.355
		l11.195-6.851l-11.195-6.851c-3.89-2.382-5.114-7.464-2.733-11.355c2.383-3.89,7.466-5.11,11.355-2.733l22.703,13.894
		c2.452,1.501,3.947,4.169,3.947,7.044c0,2.875-1.495,5.543-3.947,7.044l-22.703,13.894
		C341.543,362.826,340.054,363.218,338.584,363.218z"/>
</g>
<path style="fill:#1A1C20;" d="M468.324,82.581H43.676C19.594,82.581,0,102.174,0,126.257v259.486
	c0,24.083,19.594,43.676,43.676,43.676h424.647c24.083,0,43.676-19.594,43.676-43.676V126.257
	C512,102.174,492.406,82.581,468.324,82.581z M495.484,126.257v97.537H288.206V99.097h180.117
	C483.3,99.097,495.484,111.28,495.484,126.257z M43.676,99.097h180.117v124.697H74.323c-4.562,0-8.258,3.696-8.258,8.258
	c0,4.562,3.696,8.258,8.258,8.258h157.729c4.562,0,8.258-3.696,8.258-8.258V99.097h31.381v132.955c0,4.562,3.696,8.258,8.258,8.258
	h215.535v31.381H279.948c-4.562,0-8.258,3.696-8.258,8.258v132.955H240.31V279.948c0-4.562-3.696-8.258-8.258-8.258H16.516V240.31
	H41.29c4.562,0,8.258-3.696,8.258-8.258c0-4.562-3.696-8.258-8.258-8.258H16.516v-97.537C16.516,111.28,28.7,99.097,43.676,99.097z
	 M16.516,385.743v-97.537h207.277v124.697H43.676C28.7,412.903,16.516,400.72,16.516,385.743z M468.324,412.903H288.206V288.206
	h207.277v97.537C495.484,400.72,483.3,412.903,468.324,412.903z"/>
<g>
</g>
<g>
</g>
<g>
</g>
<g>
</g>
<g>
</g>
<g>
</g>
<g>
</g>
<g>
</g>
<g>
</g>
<g>
</g>
<g>
</g>
<g>
</g>
<g>
</g>
<g>
</g>
<g>
</g>
</svg>
