<svg xmlns="http://www.w3.org/2000/svg" xml:space="preserve" viewBox="0 0 512 512" width="48" height="48"><path d="M41.248 90.839h429.503c18.221 0 32.99 14.77 32.99 32.99v264.342c0 18.221-14.77 32.99-32.99 32.99H41.248c-18.221 0-32.99-14.77-32.99-32.99V123.829c0-18.22 14.77-32.99 32.99-32.99" style="fill:#fff"/><path d="M8.258 279.948h223.794v141.213h47.896V279.948h223.794v-47.896H279.948V90.839h-47.896v141.213H8.258z" style="fill:#ed1f34"/><path d="M158.341 175.285a8.25 8.25 0 0 1-6.815-3.585l-8.809-12.828a8.26 8.26 0 0 1 2.134-11.482 8.257 8.257 0 0 1 11.482 2.134l8.809 12.828a8.257 8.257 0 0 1-2.134 11.482 8.23 8.23 0 0 1-4.667 1.451" style="fill:#1a1c20"/><path d="M119.511 124.185c-16.576 0-30.013 13.439-30.013 30.014v25.742c0 10.295 8.423 18.718 18.718 18.718h19.495l13.307.047a8.51 8.51 0 0 0 8.508-8.508v-36c-.002-16.576-13.44-30.013-30.015-30.013" style="fill:#333"/><path d="M141.016 206.964h-.029l-13.305-.047h-19.467c-14.876 0-26.976-12.101-26.976-26.976v-25.742c0-21.103 17.169-38.272 38.272-38.272s38.272 17.169 38.272 38.272v36c0 9.243-7.521 16.765-16.767 16.765m-21.505-74.522c-11.997 0-21.756 9.759-21.756 21.756v25.742c0 5.767 4.693 10.46 10.46 10.46l32.805.047a.25.25 0 0 0 .247-.25v-36c0-11.995-9.759-21.755-21.756-21.755" style="fill:#1a1c20"/><path d="M89.579 160.214a8.26 8.26 0 0 1-.769-16.481l66.245-6.268c4.54-.422 8.571 2.904 9 7.443a8.26 8.26 0 0 1-7.443 9l-66.245 6.268a8 8 0 0 1-.788.038" style="fill:#ccc"/><path d="M66.894 174.109a8.258 8.258 0 0 1-4.317-15.303l11.195-6.851-11.195-6.851a8.26 8.26 0 0 1-2.734-11.354 8.26 8.26 0 0 1 11.355-2.733l22.703 13.894a8.26 8.26 0 0 1 0 14.089l-22.703 13.894a8.23 8.23 0 0 1-4.304 1.215" style="fill:#ccc"/><path d="M430.032 175.285a8.25 8.25 0 0 1-6.815-3.585l-8.809-12.828a8.257 8.257 0 0 1 2.134-11.482 8.257 8.257 0 0 1 11.482 2.134l8.809 12.828a8.257 8.257 0 0 1-6.801 12.933" style="fill:#1a1c20"/><path d="M391.201 124.185c-16.576 0-30.013 13.439-30.013 30.014v25.742c0 10.295 8.423 18.718 18.718 18.718h19.495l13.306.047a8.51 8.51 0 0 0 8.508-8.508v-36c-.001-16.576-13.438-30.013-30.014-30.013" style="fill:#333"/><path d="M412.706 206.964h-.029l-13.305-.047h-19.467c-14.876 0-26.976-12.101-26.976-26.976v-25.742c0-21.103 17.169-38.272 38.272-38.272s38.272 17.169 38.272 38.272v36c0 9.243-7.521 16.765-16.767 16.765m-21.505-74.522c-11.997 0-21.756 9.759-21.756 21.756v25.742c0 5.767 4.693 10.46 10.46 10.46l32.805.047a.25.25 0 0 0 .247-.25v-36c0-11.995-9.76-21.755-21.756-21.755" style="fill:#1a1c20"/><path d="M361.269 160.214a8.26 8.26 0 0 1-.769-16.481l66.245-6.268c4.544-.422 8.571 2.904 9 7.443a8.26 8.26 0 0 1-7.443 9l-66.245 6.268a8 8 0 0 1-.788.038" style="fill:#ccc"/><path d="M338.584 174.109a8.26 8.26 0 0 1-4.318-15.303l11.195-6.851-11.195-6.851a8.258 8.258 0 1 1 8.622-14.087l22.703 13.894a8.26 8.26 0 0 1 0 14.089l-22.703 13.894a8.2 8.2 0 0 1-4.304 1.215" style="fill:#ccc"/><path d="M158.341 364.395a8.25 8.25 0 0 1-6.815-3.585l-8.809-12.828a8.26 8.26 0 0 1 2.134-11.482 8.257 8.257 0 0 1 11.482 2.134l8.809 12.828a8.257 8.257 0 0 1-2.134 11.482 8.2 8.2 0 0 1-4.667 1.451" style="fill:#1a1c20"/><path d="M119.511 313.294c-16.576 0-30.013 13.439-30.013 30.014v25.742c0 10.295 8.423 18.718 18.718 18.718h19.495l13.307.047a8.51 8.51 0 0 0 8.508-8.508v-36c-.002-16.575-13.44-30.013-30.015-30.013" style="fill:#333"/><path d="M141.016 396.074h-.029l-13.305-.047h-19.467c-14.876 0-26.976-12.101-26.976-26.976v-25.742c0-21.103 17.169-38.272 38.272-38.272s38.272 17.169 38.272 38.272v35.999c0 9.245-7.521 16.766-16.767 16.766m-21.505-74.521c-11.997 0-21.756 9.759-21.756 21.756v25.742c0 5.767 4.693 10.46 10.46 10.46l32.805.047a.25.25 0 0 0 .247-.25V343.31c0-11.999-9.759-21.757-21.756-21.757" style="fill:#1a1c20"/><path d="M89.579 349.324a8.26 8.26 0 0 1-.769-16.481l66.245-6.268c4.54-.421 8.571 2.904 9 7.443a8.26 8.26 0 0 1-7.443 9l-66.245 6.268a8 8 0 0 1-.788.038" style="fill:#ccc"/><path d="M66.894 363.218a8.258 8.258 0 0 1-4.317-15.303l11.195-6.851-11.195-6.851a8.26 8.26 0 0 1-2.734-11.355 8.263 8.263 0 0 1 11.355-2.733l22.703 13.894a8.26 8.26 0 0 1 0 14.088l-22.703 13.894a8.2 8.2 0 0 1-4.304 1.217" style="fill:#ccc"/><path d="M430.032 364.395a8.25 8.25 0 0 1-6.815-3.585l-8.809-12.828a8.257 8.257 0 0 1 2.134-11.482 8.257 8.257 0 0 1 11.482 2.134l8.809 12.828a8.257 8.257 0 0 1-2.134 11.482 8.2 8.2 0 0 1-4.667 1.451" style="fill:#1a1c20"/><path d="M391.201 313.294c-16.576 0-30.013 13.439-30.013 30.014v25.742c0 10.295 8.423 18.718 18.718 18.718h19.495l13.306.047a8.51 8.51 0 0 0 8.508-8.508v-36c-.001-16.575-13.438-30.013-30.014-30.013" style="fill:#333"/><path d="M412.706 396.074h-.029l-13.305-.047h-19.467c-14.876 0-26.976-12.101-26.976-26.976v-25.742c0-21.103 17.169-38.272 38.272-38.272s38.272 17.169 38.272 38.272v35.999c0 9.245-7.521 16.766-16.767 16.766m-21.505-74.521c-11.997 0-21.756 9.759-21.756 21.756v25.742c0 5.767 4.693 10.46 10.46 10.46l32.805.047a.25.25 0 0 0 .247-.25V343.31c0-11.999-9.76-21.757-21.756-21.757" style="fill:#1a1c20"/><path d="M361.269 349.324a8.26 8.26 0 0 1-.769-16.481l66.245-6.268c4.544-.421 8.571 2.904 9 7.443a8.26 8.26 0 0 1-7.443 9l-66.245 6.268a8 8 0 0 1-.788.038" style="fill:#ccc"/><path d="M338.584 363.218a8.26 8.26 0 0 1-4.318-15.303l11.195-6.851-11.195-6.851a8.259 8.259 0 0 1 8.622-14.088l22.703 13.894a8.26 8.26 0 0 1 0 14.088l-22.703 13.894a8.2 8.2 0 0 1-4.304 1.217" style="fill:#ccc"/><path d="M468.324 82.581H43.676C19.594 82.581 0 102.174 0 126.257v259.486c0 24.083 19.594 43.676 43.676 43.676h424.647c24.083 0 43.676-19.594 43.676-43.676V126.257c.001-24.083-19.593-43.676-43.675-43.676m27.16 43.676v97.537H288.206V99.097h180.117c14.977 0 27.161 12.183 27.161 27.16M43.676 99.097h180.117v124.697H74.323a8.256 8.256 0 0 0-8.258 8.258 8.256 8.256 0 0 0 8.258 8.258h157.729a8.256 8.256 0 0 0 8.258-8.258V99.097h31.381v132.955a8.256 8.256 0 0 0 8.258 8.258h215.535v31.381H279.948a8.256 8.256 0 0 0-8.258 8.258v132.955h-31.38V279.948a8.256 8.256 0 0 0-8.258-8.258H16.516v-31.38H41.29a8.256 8.256 0 0 0 8.258-8.258 8.256 8.256 0 0 0-8.258-8.258H16.516v-97.537c0-14.977 12.184-27.16 27.16-27.16m-27.16 286.646v-97.537h207.277v124.697H43.676c-14.976 0-27.16-12.183-27.16-27.16m451.808 27.16H288.206V288.206h207.277v97.537c.001 14.977-12.183 27.16-27.159 27.16" style="fill:#1a1c20"/></svg>
