<svg xmlns="http://www.w3.org/2000/svg" xml:space="preserve" viewBox="0 0 512 512" width="48" height="48"><path d="M503.742 386.477V125.523c0-19.155-15.528-34.684-34.684-34.684H42.942c-19.155 0-34.684 15.528-34.684 34.684v260.955c0 19.155 15.528 34.684 34.684 34.684h426.116c19.155-.001 34.684-15.529 34.684-34.685" style="fill:#259245"/><path d="M340.538 313.543h-15.423v-8.195a8.26 8.26 0 0 0-8.258-8.258 8.26 8.26 0 0 0-8.258 8.258v8.195H171.474a8.26 8.26 0 0 0-8.258 8.258 8.26 8.26 0 0 0 8.258 8.258h137.127v8.195c0 4.561 3.697 8.258 8.258 8.258s8.258-3.697 8.258-8.258v-8.195h7.165v.635a8.26 8.26 0 0 0 8.258 8.258 8.26 8.26 0 0 0 8.258-8.258v-8.893a8.26 8.26 0 0 0-8.26-8.258M208.262 209.414a8.26 8.26 0 0 0 8.258-8.258v-30.862c0-4.561-3.697-8.258-8.258-8.258s-8.258 3.697-8.258 8.258v30.862a8.257 8.257 0 0 0 8.258 8.258" style="fill:#fff"/><path d="M208.262 234.449c4.561 0 8.258-3.697 8.258-8.258s-3.697-8.258-8.258-8.258h-18.157v-47.638c0-4.561-3.697-8.258-8.258-8.258s-8.258 3.697-8.258 8.258v57.958c0 8.114-6.601 14.715-14.714 14.715q-.5 0-.991.059a14.6 14.6 0 0 1-9.404-4.36 8.259 8.259 0 0 0-11.779 11.578c5.848 5.949 13.661 9.264 22.003 9.337h.072q.731 0 1.442-.127c14.501-.617 26.472-11.168 29.269-25.005zm161.149-72.413a8.26 8.26 0 0 0-8.258 8.258v57.958c0 8.114-6.601 14.715-14.714 14.715a8.25 8.25 0 0 0-5.792 2.372l-.099.098a8.257 8.257 0 0 0 7.239 14.017c16.599-.708 29.883-14.432 29.883-31.202v-57.958a8.26 8.26 0 0 0-8.259-8.258m-75.902 20.234c-2.975 0-5.799-1.749-7.748-4.797a8.26 8.26 0 0 0-6.954-3.81h-.002a8.26 8.26 0 0 0-6.954 3.805c-1.954 3.051-4.781 4.802-7.756 4.802s-5.798-1.749-7.747-4.797a8.26 8.26 0 0 0-6.959-3.81h-.002a8.26 8.26 0 0 0-6.958 3.814c-1.945 3.047-4.77 4.793-7.75 4.793-4.561 0-8.258 3.697-8.258 8.258s3.697 8.258 8.258 8.258c5.299 0 10.41-1.762 14.713-4.933 4.303 3.171 9.409 4.933 14.704 4.933s10.403-1.763 14.708-4.936c4.304 3.173 9.412 4.936 14.708 4.936a8.258 8.258 0 1 0-.003-16.516m26.415-16.632a8.26 8.26 0 0 0-8.258 8.258v77.427a8.26 8.26 0 0 0 8.258 8.258 8.26 8.26 0 0 0 8.258-8.258v-77.427a8.26 8.26 0 0 0-8.258-8.258m-26.415 43.047h-39.622a8.26 8.26 0 0 0-8.258 8.258v11.309c0 8.114-6.601 14.715-14.714 14.715q-.627 0-1.238.094l-21.38-.094h-.036a8.258 8.258 0 0 0-.035 16.516l22.553.098h.036q.732 0 1.441-.127c8.542-.363 16.201-4.18 21.63-10.079 5.427 5.898 13.084 9.714 21.624 10.079a8.3 8.3 0 0 0 1.447.127 8.259 8.259 0 0 0 5.808-14.129l-.099-.098a8.26 8.26 0 0 0-5.808-2.387c-8.114 0-14.715-6.601-14.715-14.715v-3.051h31.364a8.26 8.26 0 0 0 8.258-8.258 8.255 8.255 0 0 0-8.256-8.258m50.428-9.899a8.26 8.26 0 0 0 8.258-8.258v-16.632a8.26 8.26 0 0 0-8.258-8.258 8.26 8.26 0 0 0-8.258 8.258v16.632a8.26 8.26 0 0 0 8.258 8.258" style="fill:#fff"/><path d="M155.431 225.201a8.26 8.26 0 0 0 8.258-8.258v-46.649a8.26 8.26 0 0 0-8.258-8.258 8.26 8.26 0 0 0-8.258 8.258v46.649a8.26 8.26 0 0 0 8.258 8.258" style="fill:#fff"/><path d="M468.324 429.419H43.676C19.593 429.419 0 409.827 0 385.743V126.256c0-24.083 19.593-43.675 43.676-43.675h424.648c24.083 0 43.675 19.593 43.675 43.675v259.487c.001 24.084-19.592 43.676-43.675 43.676M43.676 99.097c-14.977 0-27.16 12.183-27.16 27.159v259.487c0 14.977 12.183 27.16 27.16 27.16h424.648c14.976 0 27.159-12.183 27.159-27.16V126.256c0-14.976-12.183-27.159-27.16-27.159z" style="fill:#111a21"/></svg>
