<svg xmlns="http://www.w3.org/2000/svg" xml:space="preserve" viewBox="0 0 512 512" width="48" height="48"><path d="M469.907 421.161H42.093c-18.686 0-33.835-15.149-33.835-33.835V124.672c0-18.686 15.149-33.834 33.835-33.834h427.815c18.686 0 33.835 15.149 33.835 33.835v262.654c-.001 18.685-15.15 33.834-33.836 33.834" style="fill:#164fce"/><path d="M468.324 90.838h-24.302L256 216.661 67.978 90.838H43.676c-19.561 0-35.418 15.857-35.418 35.418v3.293l188.958 126.45L8.258 382.448v3.293c0 19.562 15.857 35.418 35.418 35.418h24.302L256 295.336 444.022 421.16h24.302c19.561 0 35.418-15.857 35.418-35.418v-3.293l-188.957-126.45 188.957-126.45v-3.293c0-19.561-15.857-35.418-35.418-35.418" style="fill:#fff"/><path d="M512 382.406v-256.15c0-24.084-19.593-43.676-43.675-43.676H43.676C19.593 82.58 0 102.173 0 126.256V385.74c0 24.084 19.593 43.677 43.676 43.677h400.322l.015.001.018-.001h24.292c24.084 0 43.676-19.594 43.676-43.676v-3.308zm-95.168-283.31L256 206.725 95.168 99.096zM16.516 145.013l165.851 110.986L16.516 366.985zm78.652 267.89L256 305.274l160.832 107.629zm373.157 0H446.53l-185.937-124.43a8.26 8.26 0 0 0-9.186 0L65.47 412.903H43.676c-14.607 0-26.552-11.593-27.132-26.061l185.264-123.979a8.26 8.26 0 0 0 0-13.726L16.544 125.156c.579-14.467 12.525-26.06 27.133-26.06H65.47l185.938 124.429a8.25 8.25 0 0 0 9.186 0L446.53 99.096h21.794c14.608 0 26.552 11.593 27.132 26.061l-36.065 24.136a8.26 8.26 0 0 0-2.269 11.456 8.25 8.25 0 0 0 6.871 3.667 8.23 8.23 0 0 0 4.586-1.396l26.906-18.006v221.972L329.633 255.999l111.492-74.609a8.257 8.257 0 0 0 2.27-11.456 8.26 8.26 0 0 0-11.456-2.272l-121.747 81.472a8.258 8.258 0 0 0 0 13.726l185.264 123.98c-.579 14.468-12.524 26.063-27.131 26.063" style="fill:#1a1c20"/></svg>
