<?xml version="1.0" encoding="iso-8859-1"?>
<!-- Generator: Adobe Illustrator 19.0.0, SVG Export Plug-In . SVG Version: 6.00 Build 0)  -->
<svg version="1.1" id="Layer_1" xmlns="http://www.w3.org/2000/svg" xmlns:xlink="http://www.w3.org/1999/xlink" x="0px" y="0px"
	 viewBox="0 0 512 512" style="enable-background:new 0 0 512 512;" xml:space="preserve">
<path style="fill:#164FCE;" d="M469.907,421.161H42.093c-18.686,0-33.835-15.149-33.835-33.835V124.672
	c0-18.686,15.149-33.834,33.835-33.834h427.815c18.686,0,33.835,15.149,33.835,33.835v262.654
	C503.742,406.012,488.593,421.161,469.907,421.161z"/>
<path style="fill:#FFFFFF;" d="M468.324,90.838h-24.302L256,216.661L67.978,90.838H43.676c-19.561,0-35.418,15.857-35.418,35.418
	v3.293l188.958,126.45L8.258,382.448v3.293c0,19.562,15.857,35.418,35.418,35.418h24.302L256,295.336l188.022,125.824h24.302
	c19.561,0,35.418-15.857,35.418-35.418v-3.293l-188.957-126.45l188.957-126.45v-3.293
	C503.742,106.695,487.885,90.838,468.324,90.838z"/>
<path style="fill:#1A1C20;" d="M512,382.406V129.592c0-0.01,0-0.019,0-0.028v-3.308c0-24.084-19.593-43.676-43.675-43.676h-24.25
	c-0.017,0-0.034,0-0.051,0H43.676C19.593,82.58,0,102.173,0,126.256v3.305c0,0.011,0,0.022,0,0.031v252.812c0,0.01,0,0.021,0,0.031
	v3.305c0,24.084,19.593,43.677,43.676,43.677h24.227c0.034,0,0.067,0,0.101,0h375.994c0.004,0,0.01,0.001,0.015,0.001
	c0.005,0,0.012-0.001,0.018-0.001h24.292c24.084,0,43.676-19.594,43.676-43.676v-3.308C512,382.425,512,382.416,512,382.406z
	 M416.832,99.096L256,206.725L95.168,99.096H416.832z M16.516,145.013l165.851,110.986L16.516,366.985V145.013z M95.168,412.903
	L256,305.274l160.832,107.629H95.168z M468.325,412.903H446.53L260.593,288.473c-2.779-1.86-6.406-1.86-9.186,0L65.47,412.903
	H43.676c-14.607,0-26.552-11.593-27.132-26.061l185.264-123.979c2.29-1.534,3.665-4.107,3.665-6.863c0-2.756-1.374-5.33-3.665-6.863
	L16.544,125.156c0.579-14.467,12.525-26.06,27.133-26.06H65.47l185.938,124.429c1.39,0.93,2.992,1.395,4.593,1.395
	c1.602,0,3.203-0.465,4.593-1.395L446.53,99.096h21.794c14.608,0,26.552,11.593,27.132,26.061l-36.065,24.136
	c-3.79,2.537-4.806,7.666-2.269,11.456c1.592,2.381,4.207,3.667,6.871,3.667c1.579,0,3.174-0.453,4.586-1.396l26.906-18.006v221.972
	L329.633,255.999l111.492-74.609c3.791-2.537,4.807-7.666,2.27-11.456c-2.536-3.791-7.666-4.806-11.456-2.272l-121.747,81.472
	c-2.291,1.534-3.665,4.107-3.665,6.863c0,2.756,1.375,5.33,3.665,6.863L495.456,386.84
	C494.877,401.308,482.932,412.903,468.325,412.903z"/>
<g>
</g>
<g>
</g>
<g>
</g>
<g>
</g>
<g>
</g>
<g>
</g>
<g>
</g>
<g>
</g>
<g>
</g>
<g>
</g>
<g>
</g>
<g>
</g>
<g>
</g>
<g>
</g>
<g>
</g>
</svg>
