<svg xmlns="http://www.w3.org/2000/svg" xml:space="preserve" viewBox="0 0 512 512" width="48" height="48"><path d="M8.258 200.946h495.484v110.108H8.258z" style="fill:#103b9b"/><path d="M8.258 200.946h495.484v-74.873c0-19.459-15.775-35.234-35.234-35.234H43.492c-19.459 0-35.234 15.775-35.234 35.234z" style="fill:#ed1f34"/><path d="M43.492 421.161h425.015c19.459 0 35.234-15.775 35.234-35.234v-74.873H8.258v74.873c0 19.459 15.775 35.234 35.234 35.234" style="fill:#fff"/><path d="M468.324 82.581H43.676C19.593 82.581 0 102.173 0 126.256v259.487c0 24.084 19.593 43.676 43.676 43.676h424.648c24.082 0 43.675-19.593 43.675-43.676V126.256c.001-24.083-19.593-43.675-43.675-43.675M43.676 99.097h424.648c14.976 0 27.159 12.183 27.159 27.159v66.432h-57.806c-4.562 0-8.258 3.697-8.258 8.258s3.696 8.258 8.258 8.258h57.806v93.591H16.516v-93.591h388.129c4.562 0 8.258-3.697 8.258-8.258s-3.696-8.258-8.258-8.258H16.516v-66.432c0-14.976 12.184-27.159 27.16-27.159m424.648 313.806H43.676c-14.977 0-27.16-12.183-27.16-27.16v-66.431h478.968v66.431c0 14.977-12.184 27.16-27.16 27.16" style="fill:#121b21"/><path d="M129.134 174.266a8.26 8.26 0 0 1-7.239-12.222c11.414-20.875 33.266-33.845 57.029-33.845s45.614 12.968 57.029 33.845a8.259 8.259 0 0 1-14.491 7.925c-8.516-15.576-24.816-25.252-42.537-25.252s-34.021 9.676-42.537 25.252a8.26 8.26 0 0 1-7.254 4.297" style="fill:#ffe000"/><path d="M178.921 169.594q-.001 0 0 0a8.257 8.257 0 0 1-8.258-8.259l.003-36.262a8.257 8.257 0 0 1 8.258-8.257h.001a8.26 8.26 0 0 1 8.257 8.259l-.003 36.262a8.26 8.26 0 0 1-8.258 8.257" style="fill:#ffe000"/><path d="M101.298 200.946v108.351c0 42.873 34.754 77.627 77.627 77.627s77.627-34.755 77.627-77.627V200.946z" style="fill:#ed1f34"/><path d="M148.762 255.204c-7.97 0-14.431 6.461-14.431 14.431v47.128l28.861-15.724v-31.404c.001-7.97-6.461-14.431-14.43-14.431m60.326 0c7.97 0 14.431 6.461 14.431 14.431v47.128l-28.861-15.724v-31.404c-.001-7.97 6.46-14.431 14.43-14.431" style="fill:#fff"/><path d="m207.679 178.705-28.758-17.369-28.754 17.369-28.756-17.369 11.011 39.61h93.006l11.01-39.61z" style="fill:#ffe000"/><path d="M163.193 269.635v31.404s5.327 8.453 15.732 8.453 15.732-8.453 15.732-8.453v-31.404z" style="fill:#ed1f34"/><path d="M256.552 192.688h-20.258l8.101-29.14a8.256 8.256 0 0 0-12.225-9.28l-24.489 14.79-24.489-14.79a8.26 8.26 0 0 0-8.539 0l-24.485 14.79-24.486-14.79a8.256 8.256 0 0 0-12.225 9.28l8.098 29.14h-20.259a8.26 8.26 0 0 0-8.258 8.258v108.351c0 47.357 38.528 85.885 85.886 85.885s85.885-38.528 85.885-85.885V200.946a8.257 8.257 0 0 0-8.257-8.258m-121.617-13.536 10.962 6.622a8.26 8.26 0 0 0 8.539 0l24.485-14.79 24.489 14.79a8.26 8.26 0 0 0 8.539 0l10.966-6.623-3.762 13.538H138.7zm113.359 130.146c0 38.25-31.119 69.369-69.369 69.369s-69.37-31.119-69.37-69.369V209.204h138.74z" style="fill:#121b21"/><path d="M209.088 246.946c-6.108 0-11.648 2.437-15.731 6.375l3.864-11.083h3.209a8.26 8.26 0 0 0 8.258-8.258 8.26 8.26 0 0 0-8.258-8.258h-9.075a8.26 8.26 0 0 0-7.798 5.54l-4.631 13.286-4.631-13.286a8.26 8.26 0 0 0-7.798-5.54h-9.075a8.26 8.26 0 0 0-8.258 8.258 8.26 8.26 0 0 0 8.258 8.258h3.209l3.864 11.083c-4.083-3.939-9.623-6.375-15.731-6.375-12.51 0-22.689 10.178-22.689 22.689v47.128a8.257 8.257 0 0 0 12.209 7.252l23.26-12.672c2.427 2.006 5.493 3.882 9.125 5.08v37.471a8.26 8.26 0 0 0 8.258 8.258 8.26 8.26 0 0 0 8.258-8.258v-37.471c3.631-1.198 6.698-3.074 9.125-5.08l23.26 12.672a8.25 8.25 0 0 0 3.951 1.006 8.26 8.26 0 0 0 8.258-8.258v-47.128c-.003-12.511-10.181-22.689-22.691-22.689m-37.637 51.121v-20.173h14.948v20.173c-1.428 1.373-3.965 3.168-7.474 3.168-3.509-.001-6.046-1.795-7.474-3.168m-28.862-28.432c0-3.403 2.769-6.173 6.173-6.173s6.173 2.769 6.173 6.173v26.5l-12.345 6.725v-33.225zm72.671 33.226-12.345-6.725v-26.5c0-3.403 2.769-6.173 6.173-6.173s6.173 2.769 6.173 6.173v33.225z" style="fill:#121b21"/></svg>
