<svg xmlns="http://www.w3.org/2000/svg" xml:space="preserve" viewBox="0 0 512 512" width="48" height="48"><path d="M43.676 421.161h424.648c19.561 0 35.418-15.857 35.418-35.418v-74.689L27.006 416.996a35.25 35.25 0 0 0 16.67 4.165" style="fill:#259245"/><path d="m27.006 416.996 476.736-105.942V200.946L23.096 414.55c1.245.89 2.552 1.72 3.91 2.446" style="fill:#fff"/><path d="M468.324 90.839H337.843L18.62 410.775a35.4 35.4 0 0 0 4.476 3.775l480.646-213.603v-74.689c0-19.563-15.857-35.419-35.418-35.419" style="fill:#ed1f34"/><path d="M174.157 90.839 15.361 407.019c1 1.327 2.088 2.583 3.259 3.756L337.843 90.839z" style="fill:#ffe000"/><path d="M43.676 90.839c-19.562 0-35.418 15.857-35.418 35.418v259.486a35.26 35.26 0 0 0 7.103 21.276l158.796-316.18z" style="fill:#103b9b"/><path d="M512 310.916V126.258c0-24.083-19.594-43.676-43.676-43.676H43.676C19.594 82.581 0 102.174 0 126.257v259.486c0 9.628 3.138 18.532 8.435 25.761q.344.535.771 1.014a44 44 0 0 0 3.036 3.503q.255.31.545.602.266.261.546.492c1.615 1.562 3.349 3 5.188 4.301.053.034.1.075.154.11a44 44 0 0 0 4.242 2.638c.104.059.211.108.317.162a43.4 43.4 0 0 0 20.441 5.094h424.647c24.083 0 43.676-19.594 43.676-43.676v-74.828zm-16.516-6.487L86.927 395.22l408.557-181.567zm0-178.172v69.323L45.448 395.581 341.273 99.097h127.051c14.976 0 27.16 12.183 27.16 27.16m-478.968 0c0-14.977 12.183-27.16 27.16-27.16h117.089l-13.443 26.768a8.26 8.26 0 0 0 3.673 11.086 8.2 8.2 0 0 0 3.7.881 8.26 8.26 0 0 0 7.386-4.554l17.166-34.181H317.94L38.691 378.968l108.567-216.172a8.258 8.258 0 0 0-14.759-7.413L16.53 386.291c-.004-.183-.014-.364-.014-.548zm451.808 286.646H83.489l411.995-91.554v64.394c0 14.977-12.184 27.16-27.16 27.16" style="fill:#111a21"/></svg>
