<svg xmlns="http://www.w3.org/2000/svg" xml:space="preserve" viewBox="0 0 512 512" width="48" height="48"><path d="M8.258 126.257v259.486c0 19.562 15.858 35.418 35.418 35.418h424.648a35.26 35.26 0 0 0 22.858-8.373L20.818 99.211c-7.679 6.498-12.56 16.199-12.56 27.046" style="fill:#ffe000"/><path d="M468.324 90.839H43.676a35.26 35.26 0 0 0-22.858 8.373l470.365 313.576c7.679-6.496 12.56-16.199 12.56-27.046V126.257c-.001-19.562-15.859-35.418-35.419-35.418" style="fill:#ed1f34"/><path d="m271.462 232.59-3.588-67.715c-.358-6.461-5.599-9.866-11.647-7.567l-79.029 30.047c14.019 8.621 50.1 7.493 68.049.207l-2.596 43.753" style="fill:#e7d3cd"/><path d="m279.709 232.154-3.59-67.735c-.318-5.74-3.028-10.674-7.437-13.539-4.409-2.864-10.019-3.333-15.391-1.292l-72.813 27.684-7.831-11.997a8.256 8.256 0 0 0-11.429-2.401 8.26 8.26 0 0 0-2.403 11.429l15.532 23.796a8.25 8.25 0 0 0 6.924 3.745 8.2 8.2 0 0 0 4.506-1.344 8 8 0 0 0 1.157-.921c14.714 3.188 34.12 2.617 49.371-.744l-1.898 31.992a8.26 8.26 0 0 0 7.754 8.734c4.566.26 8.463-3.203 8.733-7.755l2.596-43.753a8.26 8.26 0 0 0-11.349-8.141c-9.273 3.762-23.341 5.537-35.952 5.255l52.972-20.14a3 3 0 0 1 .417-.13q.034.17.048.414l3.588 67.715a8.257 8.257 0 0 0 8.683 7.81 8.255 8.255 0 0 0 7.812-8.682" style="fill:#1a1c20"/><path d="m227.995 254.314-56.849 36.965c-5.417 3.54-5.744 9.781-.729 13.869l65.536 53.416c.457-16.451-18.562-47.135-33.845-59.035l39.189-19.629" style="fill:#e7d3cd"/><path d="M243.048 344.563a8 8 0 0 0-1.376-.542c-4.597-14.337-14.793-30.855-25.329-42.384l28.653-14.351a8.257 8.257 0 0 0 3.685-11.081 8.257 8.257 0 0 0-11.082-3.686l-39.189 19.629a8.257 8.257 0 0 0-1.375 13.9c7.896 6.147 16.461 17.452 22.528 28.507l-43.927-35.804q-.2-.166-.322-.298c.088-.074.198-.16.335-.249l56.849-36.965a8.26 8.26 0 0 0-9.004-13.847l-56.865 36.976c-4.812 3.144-7.73 7.959-8.005 13.207-.276 5.25 2.121 10.344 6.577 13.976l60.382 49.215-6.475 12.78a8.26 8.26 0 0 0 3.635 11.099 8.26 8.26 0 0 0 11.099-3.634l12.843-25.349a8.26 8.26 0 0 0-3.637-11.099" style="fill:#1a1c20"/><path d="m268.542 281.096 60.437 30.75c5.774 2.921 11.343.085 12.376-6.304l13.493-83.464c-14.476 7.83-31.539 39.642-34.204 58.828l-36.594-24.125" style="fill:#e7d3cd"/><path d="M384.04 220.479c-.249-4.553-4.144-8.024-8.696-7.795l-28.375 1.553a8.26 8.26 0 0 0-7.795 8.697c.028.503.105.99.217 1.464-10.117 11.148-19.325 28.238-24.04 43.126l-26.756-17.639a8.258 8.258 0 1 0-9.09 13.79l36.594 24.125a8.256 8.256 0 0 0 12.725-5.758c1.376-9.912 6.883-22.982 13.423-33.762l-9.043 55.945q-.044.255-.096.426a3 3 0 0 1-.383-.164l-60.437-30.751a8.258 8.258 0 1 0-7.489 14.72l60.455 30.76c2.68 1.355 5.495 2.036 8.242 2.036 2.51 0 4.963-.568 7.2-1.708 4.684-2.386 7.896-7.009 8.813-12.683l12.431-76.9 14.306-.783a8.26 8.26 0 0 0 7.794-8.699" style="fill:#1a1c20"/><circle cx="256" cy="256" r="28.056" style="fill:#e7d3cd"/><path d="M256 292.313c-20.024 0-36.313-16.29-36.313-36.313s16.29-36.313 36.313-36.313 36.313 16.29 36.313 36.313-16.289 36.313-36.313 36.313m0-56.11c-10.917 0-19.797 8.881-19.797 19.797s8.881 19.797 19.797 19.797 19.797-8.881 19.797-19.797-8.88-19.797-19.797-19.797" style="fill:#f2a643"/><path d="M468.324 429.419H43.676C19.593 429.419 0 409.826 0 385.743V126.257c0-24.083 19.593-43.676 43.676-43.676h424.648c24.083 0 43.675 19.594 43.675 43.676v259.486c.001 24.083-19.592 43.676-43.675 43.676M43.676 99.097c-14.977 0-27.16 12.183-27.16 27.16v259.486c0 14.977 12.183 27.16 27.16 27.16h424.648c14.976 0 27.159-12.183 27.159-27.16V126.257c0-14.977-12.183-27.16-27.16-27.16z" style="fill:#1a1c20"/></svg>
