<svg xmlns="http://www.w3.org/2000/svg" xml:space="preserve" viewBox="0 0 512 512" width="48" height="48"><path d="M468.288 90.72H43.712c-19.584 0-35.392 15.872-35.392 35.393v138.112h495.488V126.176c-.127-19.584-15.936-35.456-35.52-35.456" style="fill:#ed1f34"/><path d="M8.32 385.632c0 19.584 15.872 35.393 35.392 35.393h424.576c19.584 0 35.392-15.872 35.392-35.393V255.904H8.32zm152.064-222.4c-4.928 0-8.832-4.032-8.832-8.832s4.032-8.832 8.832-8.832c4.928 0 8.832 4.032 8.832 8.832 0 4.928-3.904 8.832-8.832 8.832m-19.904 14.465a9.7 9.7 0 0 1-2.688-.384c-4.608-1.472-7.104-6.528-5.696-11.072a8.78 8.78 0 0 1 8.384-6.08q1.344 0 2.688.384c4.608 1.472 7.168 6.528 5.697 11.072-1.152 3.583-4.545 6.08-8.385 6.08m7.616 23.423c-1.92 0-3.712-.576-5.184-1.728-1.92-1.408-3.2-3.392-3.52-5.824-.384-2.304.192-4.672 1.6-6.592 1.6-2.304 4.288-3.584 7.104-3.584 1.92 0 3.712.576 5.184 1.728 1.92 1.408 3.072 3.392 3.52 5.697.384 2.304-.192 4.672-1.6 6.592a8.71 8.71 0 0 1-7.104 3.711m24.576 0c-2.816 0-5.504-1.408-7.104-3.584-1.408-1.92-1.92-4.224-1.6-6.528.384-2.304 1.6-4.416 3.52-5.824 1.472-1.088 3.328-1.728 5.184-1.728 2.816 0 5.504 1.408 7.104 3.584 2.88 3.904 1.984 9.472-1.92 12.288a8.34 8.34 0 0 1-5.184 1.792m7.616-23.423c-3.776 0-7.232-2.496-8.384-6.08-.704-2.176-.512-4.608.512-6.72 1.088-2.112 2.88-3.712 5.12-4.416.896-.32 1.792-.384 2.688-.384 3.776 0 7.168 2.432 8.384 6.08 1.472 4.608-1.024 9.6-5.632 11.072-.768.255-1.792.448-2.688.448" style="fill:#fff"/><path d="M138.112 130.08c-23.872 0-43.328 19.393-43.328 43.327s19.393 43.327 43.328 43.327c.704 0 1.408 0 2.112-.128-7.168 4.032-15.424 6.272-24.192 6.272-27.392 0-49.472-22.208-49.472-49.472s22.208-49.472 49.472-49.472c8.832 0 17.088 2.304 24.192 6.272-.704-.126-1.408-.126-2.112-.126" style="fill:#fff"/><path d="M138.112 138.337h2.112c4.48 0 8.192-3.712 8.192-8.32 0-3.328-1.92-6.08-4.608-7.424-8.512-4.672-18.112-7.232-27.904-7.232-31.872 0-57.792 25.92-57.792 57.792s25.92 57.792 57.792 57.792c9.92 0 19.712-2.624 28.288-7.424 3.328-1.92 4.928-5.824 3.904-9.472-1.088-3.712-4.48-6.208-8.32-6.016h-1.728c-19.328 0-35.008-15.68-35.008-35.008.064-19.009 15.744-34.688 35.072-34.688m-51.52 34.943c0 16.128 7.424 30.528 19.008 40-17.792-4.608-30.912-20.8-30.912-40s13.184-35.393 30.912-40c-11.584 9.536-19.008 23.937-19.008 40" style="fill:#111a21"/><path d="M468.288 82.528H43.712C19.584 82.528 0 102.112 0 126.24v259.52c0 24.128 19.584 43.712 43.712 43.712h424.576c24.128 0 43.712-19.584 43.712-43.712V126.24c0-24.128-19.584-43.712-43.712-43.712m0 330.304H43.712c-14.976 0-27.2-12.224-27.2-27.2V264.223h421.184a8.303 8.303 0 0 0 8.32-8.32 8.303 8.303 0 0 0-8.32-8.32H16.512V126.175c0-14.976 12.224-27.2 27.2-27.2h424.576c14.976 0 27.2 12.224 27.2 27.2v121.473h-24.832a8.303 8.303 0 0 0-8.32 8.32 8.303 8.303 0 0 0 8.32 8.32h24.832v121.536c0 14.785-12.16 27.008-27.2 27.008" style="fill:#111a21"/></svg>
