<svg xmlns="http://www.w3.org/2000/svg" xml:space="preserve" viewBox="0 0 512 512" width="48" height="48"><path d="M8.258 256h495.484V122.954c0-17.736-14.378-32.115-32.115-32.115H40.373c-17.737 0-32.115 14.378-32.115 32.115z" style="fill:#ed1f34"/><path d="M40.74 421.161h430.52c17.939 0 32.482-14.543 32.482-32.482V256H8.258v132.68c0 17.938 14.543 32.481 32.482 32.481" style="fill:#103b9b"/><path d="M8.258 394.878V117.122c0-11.235 12.521-17.937 21.87-11.704L256 256 30.128 406.582c-9.349 6.232-21.87-.47-21.87-11.704" style="fill:#fff"/><path d="M79.363 209.598v54.638l16.748 10.758 16.747-10.758v-54.638z" style="fill:#3db4ea"/><path d="M96.111 283.252a8.25 8.25 0 0 1-4.464-1.31L74.9 271.184a8.26 8.26 0 0 1-3.794-6.948v-54.638a8.26 8.26 0 0 1 8.258-8.258h33.495a8.26 8.26 0 0 1 8.258 8.258v54.638a8.26 8.26 0 0 1-3.795 6.948l-16.748 10.758a8.26 8.26 0 0 1-4.463 1.31m-8.49-23.527 8.489 5.454 8.489-5.454v-41.868H87.621z" style="fill:#ed1f34"/><path d="M96.111 311.054c-30.357 0-55.054-24.697-55.054-55.054 0-4.561 3.697-8.258 8.258-8.258s8.258 3.697 8.258 8.258c0 21.25 17.288 38.538 38.538 38.538S134.648 277.25 134.648 256c0-4.561 3.697-8.258 8.258-8.258s8.258 3.697 8.258 8.258c0 30.357-24.697 55.054-55.053 55.054" style="fill:#ffe000"/><path d="M468.324 82.581H43.676c-10.582 0-20.296 3.785-27.863 10.07a8 8 0 0 0-.837.726C5.808 101.388 0 113.153 0 126.256v259.487c0 13.167 5.865 24.982 15.11 32.997q.289.275.598.518c7.582 6.339 17.335 10.162 27.968 10.162h424.648c24.082 0 43.675-19.594 43.675-43.676V126.256c.001-24.083-19.593-43.675-43.675-43.675M21.994 402.079a27 27 0 0 1-5.478-16.336V126.256a27 27 0 0 1 5.478-16.336L241.112 256zm446.33 10.824H43.676c-2.361 0-4.65-.304-6.835-.872L258.5 264.258h146.146a8.256 8.256 0 0 0 8.258-8.258 8.257 8.257 0 0 0-8.258-8.258H258.499L36.841 99.969a27 27 0 0 1 6.835-.872h424.648c14.976 0 27.159 12.183 27.159 27.159v121.486h-57.806a8.257 8.257 0 0 0-8.258 8.258 8.256 8.256 0 0 0 8.258 8.258h57.806v121.485c.001 14.977-12.183 27.16-27.159 27.16" style="fill:#1a1c20"/></svg>
