<svg xmlns="http://www.w3.org/2000/svg" xml:space="preserve" viewBox="0 0 512 512" width="48" height="48"><path d="M503.742 121.669v268.662c0 17.027-13.803 30.83-30.83 30.83H39.088c-17.027 0-30.83-13.803-30.83-30.83V121.669c0-17.027 13.803-30.83 30.83-30.83h433.824c17.027 0 30.83 13.803 30.83 30.83" style="fill:#ed1f34"/><path d="M32.482 115.062h447.037v281.875H32.482z" style="fill:#103b9b"/><path d="M421.161 256 256 366.108 90.839 256 256 145.892z" style="fill:#fff"/><path d="M321.523 222.417c-33.435 0-60.7 26.378-62.141 59.458h-31.82c-5.143-10.726-16.102-18.133-28.792-18.133q-.816 0-1.622.041c-7.168-8.781-18.074-14.39-30.293-14.39-19.061 0-34.916 13.651-38.37 31.704l52.367 34.911h150.297l52.459-34.972c-1.865-32.683-28.934-58.619-62.085-58.619" style="fill:#259245"/><path d="M256 374.366a8.24 8.24 0 0 1-4.58-1.387L86.258 262.871a8.26 8.26 0 0 1 0-13.742L251.42 139.022a8.25 8.25 0 0 1 9.161 0L425.742 249.13a8.26 8.26 0 0 1 0 13.742L260.58 372.978a8.24 8.24 0 0 1-4.58 1.388M105.726 256 256 356.182 406.274 256 256 155.818z" style="fill:#ed1f34"/><path d="M256 154.151a8.26 8.26 0 0 1-8.258-8.258V90.839A8.26 8.26 0 0 1 256 82.581a8.26 8.26 0 0 1 8.258 8.258v55.054a8.26 8.26 0 0 1-8.258 8.258M90.839 264.258H8.258A8.257 8.257 0 0 1 0 256a8.26 8.26 0 0 1 8.258-8.258h82.581A8.26 8.26 0 0 1 99.097 256a8.26 8.26 0 0 1-8.258 8.258m412.903 0h-82.581a8.257 8.257 0 0 1-8.258-8.258 8.26 8.26 0 0 1 8.258-8.258h82.581A8.26 8.26 0 0 1 512 256a8.257 8.257 0 0 1-8.258 8.258M256 429.419a8.257 8.257 0 0 1-8.258-8.258v-55.054a8.257 8.257 0 0 1 8.258-8.258 8.257 8.257 0 0 1 8.258 8.258v55.054a8.257 8.257 0 0 1-8.258 8.258" style="fill:#ed1f34"/><circle cx="256.044" cy="205.373" r="24.751" style="fill:#ffe000"/><path d="M468.324 429.419H43.676C19.593 429.419 0 409.826 0 385.743V126.256c0-24.083 19.593-43.675 43.676-43.675h424.648c24.083 0 43.675 19.593 43.675 43.675v259.487c.001 24.083-19.592 43.676-43.675 43.676M43.676 99.097c-14.977 0-27.16 12.183-27.16 27.159v259.487c0 14.977 12.183 27.16 27.16 27.16h424.648c14.976 0 27.159-12.183 27.159-27.16V126.256c0-14.976-12.183-27.159-27.16-27.159z" style="fill:#1a1c20"/></svg>
