<svg xmlns="http://www.w3.org/2000/svg" xml:space="preserve" viewBox="0 0 512 512" width="48" height="48"><path d="M8.258 200.946h495.484v110.108H8.258z" style="fill:#164fce"/><path d="M8.258 385.743c0 19.561 15.857 35.418 35.418 35.418h424.648c19.561 0 35.418-15.858 35.418-35.418v-74.689H8.258z" style="fill:#ed1f34"/><path d="M468.324 90.839H43.676c-19.562 0-35.418 15.857-35.418 35.418v74.689h495.484v-74.689c0-19.562-15.857-35.418-35.418-35.418" style="fill:#fff"/><path d="M468.324 82.581H43.676C19.594 82.581 0 102.173 0 126.257v259.487c0 24.083 19.594 43.675 43.676 43.675h424.647c24.083 0 43.676-19.593 43.676-43.676V126.257c.001-24.084-19.593-43.676-43.675-43.676M43.676 99.097h424.647c14.977 0 27.16 12.183 27.16 27.16v66.431H16.516v-66.431c0-14.977 12.184-27.16 27.16-27.16m424.648 313.806H43.676c-14.977 0-27.16-12.183-27.16-27.16v-66.431h388.129a8.257 8.257 0 0 0 8.258-8.258 8.257 8.257 0 0 0-8.258-8.258H16.516v-93.591h478.968v93.591h-57.806a8.257 8.257 0 0 0-8.258 8.258 8.257 8.257 0 0 0 8.258 8.258h57.806v66.431c0 14.977-12.184 27.16-27.16 27.16" style="fill:#121b21"/><path d="M116.266 154.151v54.58c0 21.546 18.087 34.047 34.188 39.011 16.101-4.965 34.188-17.466 34.188-39.011v-54.58z" style="fill:#164fce"/><path d="M116.266 200.946v7.785c0 21.546 18.087 34.047 34.188 39.011 16.101-4.964 34.188-17.466 34.188-39.011v-7.785z" style="fill:#fff"/><path d="M150.454 256c-.82 0-1.641-.122-2.433-.367-19.343-5.965-40.013-21.417-40.013-46.903v-54.58a8.257 8.257 0 0 1 8.258-8.258h68.377a8.257 8.257 0 0 1 8.258 8.258v54.58c0 25.485-20.669 40.939-40.013 46.903a8.2 8.2 0 0 1-2.434.367m-25.93-93.591v46.322c0 18.67 17.553 27.268 25.93 30.303 8.376-3.035 25.93-11.633 25.93-30.303v-46.322z" style="fill:#121b21"/></svg>
