<svg xmlns="http://www.w3.org/2000/svg" xml:space="preserve" viewBox="0 0 512 512" width="48" height="48"><path d="M8.258 200.946h495.484v110.108H8.258z" style="fill:#164fce"/><path d="M8.258 385.743c0 19.561 15.857 35.418 35.418 35.418h424.648c19.561 0 35.418-15.858 35.418-35.418v-74.689H8.258z" style="fill:#ed1f34"/><path d="M468.324 90.839H43.676c-19.562 0-35.418 15.857-35.418 35.418v74.689h495.484v-74.689c0-19.562-15.857-35.418-35.418-35.418" style="fill:#fff"/><path d="M468.324 82.581H43.676C19.594 82.581 0 102.173 0 126.256v259.487c0 24.084 19.594 43.676 43.676 43.676h424.647c24.083 0 43.676-19.593 43.676-43.676V126.256c.001-24.083-19.593-43.675-43.675-43.675M43.676 99.097h424.647c14.977 0 27.16 12.183 27.16 27.159v66.432H16.516v-66.432c0-14.976 12.184-27.159 27.16-27.159m424.648 313.806H43.676c-14.977 0-27.16-12.183-27.16-27.16v-66.431h388.129a8.257 8.257 0 0 0 8.258-8.258 8.257 8.257 0 0 0-8.258-8.258H16.516v-93.591h478.968v93.591h-57.806a8.257 8.257 0 0 0-8.258 8.258 8.257 8.257 0 0 0 8.258 8.258h57.806v66.431c0 14.977-12.184 27.16-27.16 27.16" style="fill:#121b21"/><path d="M104.097 162.409v109.16c0 43.091 36.175 68.095 68.378 78.023 32.203-9.928 68.378-34.933 68.378-78.023v-109.16z" style="fill:#ed1f34"/><path d="M172.476 284.324a8.257 8.257 0 0 1-8.258-8.258V192.1a8.257 8.257 0 0 1 8.258-8.258 8.257 8.257 0 0 1 8.258 8.258v83.966a8.26 8.26 0 0 1-8.258 8.258" style="fill:#fff"/><path d="M197.466 251.185h-49.981c-4.562 0-8.258-3.697-8.258-8.258s3.696-8.258 8.258-8.258h49.981a8.258 8.258 0 0 1 0 16.516m-9.607-31.033h-30.767c-4.562 0-8.258-3.697-8.258-8.258s3.696-8.258 8.258-8.258h30.767c4.562 0 8.258 3.697 8.258 8.258s-3.696 8.258-8.258 8.258" style="fill:#fff"/><path d="M172.476 276.066c-17.118 0-32.136 8.955-40.653 22.428a40.6 40.6 0 0 0-14.59-2.706c-2.942 0-5.803.338-8.566.934 10.71 27.922 38.483 45.061 63.808 52.87 25.327-7.809 53.098-24.948 63.808-52.871a40.6 40.6 0 0 0-8.566-.933c-5.144 0-10.059.965-14.59 2.706-8.516-13.473-23.534-22.428-40.651-22.428" style="fill:#164fce"/><path d="M172.476 357.849c-.82 0-1.641-.122-2.433-.367-19.351-5.966-36.976-16.118-49.628-28.585-16.078-15.842-24.575-35.667-24.575-57.33v-109.16a8.257 8.257 0 0 1 8.258-8.258h136.756a8.257 8.257 0 0 1 8.258 8.258v109.16c0 21.663-8.498 41.487-24.574 57.33-12.651 12.467-30.276 22.618-49.628 28.585a8.3 8.3 0 0 1-2.434.367m-60.121-187.182v100.901c0 44.827 43.223 63.697 60.121 69.349 16.897-5.652 60.12-24.522 60.12-69.349V170.667z" style="fill:#121b21"/></svg>
