<svg xmlns="http://www.w3.org/2000/svg" xml:space="preserve" viewBox="0 0 511.999 511.999" width="48" height="48"><path d="M468.229 90.742H43.706c-19.582 0-35.387 15.87-35.387 35.388v259.487c0 4.927 1.024 9.471 2.816 13.694L473.349 91.125c-1.728-.191-3.392-.383-5.12-.383" style="fill:#164fce"/><path d="M43.706 421.068h424.523c19.582 0 35.387-15.87 35.387-35.387V126.194c0-4.927-1.024-9.471-2.816-13.694l-29.436 5.44-67.191 44.602-13.375 23.229L38.587 420.684c1.728.192 3.392.384 5.119.384" style="fill:#259245"/><path d="M11.006 399.375c4.671 11.199 15.102 19.517 27.58 21.309l462.342-308.249c-4.671-11.199-15.102-19.517-27.58-21.309z" style="fill:#ffe000"/><circle cx="70.969" cy="152.434" r="16.51" style="fill:#fff"/><circle cx="109.616" cy="188.708" r="16.51" style="fill:#fff"/><circle cx="148.074" cy="152.434" r="16.51" style="fill:#fff"/><circle cx="70.969" cy="225.121" r="16.51" style="fill:#fff"/><circle cx="148.074" cy="225.121" r="16.51" style="fill:#fff"/><path d="M46.01 82.551h-2.304C19.582 82.551 0 102.133 0 126.257v259.487c0 3.775.512 7.487 1.408 11.006 1.28 5.887 2.432 8.191 5.631 12.799 6.079 9.407 15.678 16.318 26.876 18.813 1.791.512 4.992.832 5.823.896q1.92.192 4.032.192h424.523c24.125 0 43.706-19.582 43.706-43.706V126.256c0-3.775-.512-7.487-1.408-11.006-1.6-6.272-3.392-9.471-5.631-12.799-6.079-9.407-15.614-16.19-26.813-18.814-3.392-.832-6.911-1.088-10.43-1.088zm-29.5 303.066v-259.36c0-14.974 12.223-27.197 27.197-27.197h402.957L16.51 385.809zm478.916 0c0 14.974-12.223 27.197-27.197 27.197H65.272l369.681-246.497c3.775-2.495 4.799-7.679 2.304-11.519s-7.679-4.799-11.519-2.304L36.795 411.918c-6.016-1.6-11.199-5.12-14.783-9.983L475.139 99.957c6.016 1.6 11.199 5.12 14.783 9.982l-36.667 24.381c-3.775 2.495-4.799 7.679-2.304 11.519 1.6 2.432 4.223 3.712 6.911 3.712 1.6 0 3.199-.384 4.607-1.408l33.02-22.014v259.487z" style="fill:#111a21"/></svg>
