<svg xmlns="http://www.w3.org/2000/svg" xml:space="preserve" viewBox="0 0 512 512" width="48" height="48"><path d="M8.258 200.946h495.484v110.108H8.258z" style="fill:#fff"/><path d="m225.174 249.079 22.697-1.173L256 226.683l8.129 21.223 22.697 1.173-17.673 14.289 5.899 21.949L256 272.925l-19.052 12.392 5.899-21.949z" style="fill:#333"/><path d="M503.742 200.946H8.258v-73.964c0-19.961 16.183-36.144 36.144-36.144h423.197c19.961 0 36.144 16.183 36.144 36.144z" style="fill:#259245"/><path d="M467.598 421.161H44.402c-19.961 0-36.144-16.182-36.144-36.144v-73.964h495.484v73.964c0 19.962-16.183 36.144-36.144 36.144" style="fill:#ed1f34"/><path d="M263.266 166.88c-4.587 0-8.321-3.713-8.362-8.291h8.362c4.561 0 8.258-3.697 8.258-8.258s-3.697-8.258-8.258-8.258h-16.623a8.26 8.26 0 0 0-8.258 8.258v8.184c0 4.612-3.752 8.365-8.365 8.365-2.18 0-4.27.862-5.817 2.397l-.072.072c-3.237 3.213-3.221 8.406-.008 11.643a8.2 8.2 0 0 0 5.845 2.422q.322 0 .644-.024c6.158-.144 11.766-2.542 16.042-6.393 4.152 3.737 9.552 6.111 15.5 6.375q.564.078 1.133.078a8.27 8.27 0 0 0 5.879-2.459c3.213-3.237 3.157-8.501-.08-11.714a8.27 8.27 0 0 0-5.82-2.397m-49.639-18.115H202.77v-32.19c0-4.561-3.697-8.258-8.258-8.258s-8.258 3.697-8.258 8.258v41.94c0 4.612-3.752 8.365-8.365 8.365q-.365 0-.729.034a8.3 8.3 0 0 1-3.931-1.426 8.255 8.255 0 0 0-11.484 2.12 8.257 8.257 0 0 0 2.12 11.484 24.75 24.75 0 0 0 13.947 4.376q.621 0 1.233-.098c10.865-.499 19.917-8.005 22.772-18.088h11.809c4.561 0 8.258-3.697 8.258-8.258s-3.696-8.259-8.257-8.259m129.825-40.448a8.26 8.26 0 0 0-8.258 8.258v41.94c0 4.612-3.752 8.365-8.366 8.365q-.528 0-1.052.072h-7.855c-4.561 0-8.258 3.697-8.258 8.258s3.697 8.258 8.258 8.258h8.835q.62 0 1.233-.098c13.182-.609 23.72-11.524 23.72-24.855v-41.94a8.257 8.257 0 0 0-8.257-8.258m-72.139 3.85a8.26 8.26 0 0 0-11.407 2.502c-.467.729-1.761 2.423-3.691 2.423s-3.218-1.691-3.683-2.419a8.256 8.256 0 0 0-11.406-2.51 8.26 8.26 0 0 0-2.51 11.406c4.018 6.286 10.598 10.04 17.6 10.04 6.997 0 13.577-3.751 17.6-10.034a8.26 8.26 0 0 0-2.503-11.408m21.078-1.244a8.26 8.26 0 0 0-8.258 8.258v56.028a8.26 8.26 0 0 0 8.258 8.258 8.26 8.26 0 0 0 8.258-8.258v-56.028a8.26 8.26 0 0 0-8.258-8.258m25.53 28.551a8.26 8.26 0 0 0 8.258-8.258v-12.035a8.26 8.26 0 0 0-8.258-8.258 8.26 8.26 0 0 0-8.258 8.258v12.035a8.26 8.26 0 0 0 8.258 8.258" style="fill:#fff"/><path d="M168.982 147.578a8.26 8.26 0 0 0 8.258-8.258v-22.745c0-4.561-3.697-8.258-8.258-8.258s-8.258 3.697-8.258 8.258v22.745a8.26 8.26 0 0 0 8.258 8.258m51.061-11.423a8.26 8.26 0 0 0 8.258-8.258v-11.321c0-4.561-3.697-8.258-8.258-8.258s-8.258 3.697-8.258 8.258v11.321a8.26 8.26 0 0 0 8.258 8.258" style="fill:#fff"/><path d="m219.982 255.5 13.496 10.913-4.505 16.762a8.26 8.26 0 0 0 3.122 8.824 8.25 8.25 0 0 0 9.357.242L256 282.777l14.549 9.464a8.25 8.25 0 0 0 9.357-.242 8.26 8.26 0 0 0 3.122-8.824l-4.504-16.762L292.02 255.5a8.258 8.258 0 0 0-4.767-14.669l-17.332-.895-6.208-16.208a8.259 8.259 0 0 0-15.424 0l-6.208 16.208-17.332.895a8.258 8.258 0 0 0-4.767 14.669m28.315.654a8.26 8.26 0 0 0 7.286-5.294l.417-1.089.417 1.089a8.26 8.26 0 0 0 7.286 5.294l1.165.061-.907.733a8.26 8.26 0 0 0-2.782 8.564l.303 1.128-.979-.636a8.25 8.25 0 0 0-9.004 0l-.979.636.303-1.128a8.26 8.26 0 0 0-2.782-8.564l-.907-.733z" style="fill:#1a1c20"/><path d="M468.324 82.581H43.676C19.593 82.581 0 102.173 0 126.256v259.487c0 24.084 19.593 43.676 43.676 43.676h424.648c24.083 0 43.675-19.593 43.675-43.676V126.256c.001-24.083-19.592-43.675-43.675-43.675M43.676 99.097h424.648c14.976 0 27.159 12.183 27.159 27.159v66.432H74.323c-4.561 0-8.258 3.697-8.258 8.258s3.697 8.258 8.258 8.258h421.161v93.591H16.516v-93.591H41.29c4.561 0 8.258-3.697 8.258-8.258s-3.697-8.258-8.258-8.258H16.516v-66.432c0-14.976 12.184-27.159 27.16-27.159m424.648 313.806H43.676c-14.977 0-27.16-12.183-27.16-27.16v-66.431h478.968v66.431c0 14.977-12.184 27.16-27.16 27.16" style="fill:#1a1c20"/></svg>
