<svg xmlns="http://www.w3.org/2000/svg" xml:space="preserve" viewBox="0 0 512 512" width="48" height="48"><path d="M503.742 389.781V122.219c0-17.331-14.05-31.381-31.381-31.381H39.639c-17.331 0-31.381 14.05-31.381 31.381V389.78c0 17.331 14.05 31.381 31.381 31.381h432.723c17.33 0 31.38-14.049 31.38-31.38" style="fill:#3db4ea"/><path d="m169.169 236.505 63.933-3.303L256 173.419l22.898 59.783 63.933 3.303-49.782 40.251 16.615 61.825L256 303.674l-53.664 34.907 16.615-61.825z" style="fill:#fff"/><path d="m343.257 228.258-58.568-3.026-20.977-54.766a8.259 8.259 0 0 0-15.424 0l-20.977 54.766-58.568 3.026a8.258 8.258 0 0 0-4.766 14.67l45.603 36.873-15.22 56.638a8.258 8.258 0 0 0 12.479 9.066L256 313.528l49.161 31.977a8.24 8.24 0 0 0 4.502 1.336 8.26 8.26 0 0 0 7.977-10.402l-15.22-56.638 45.604-36.873a8.257 8.257 0 0 0-4.767-14.67m-55.4 42.077a8.26 8.26 0 0 0-2.784 8.564l11.02 41.003-35.591-23.15a8.24 8.24 0 0 0-4.502-1.336 8.24 8.24 0 0 0-4.502 1.336l-35.591 23.15 11.02-41.003a8.26 8.26 0 0 0-2.784-8.564l-33.015-26.694 42.401-2.19a8.26 8.26 0 0 0 7.286-5.294l15.186-39.649 15.186 39.649a8.26 8.26 0 0 0 7.286 5.294l42.401 2.19z" style="fill:#111a21"/><path d="M468.324 82.581H43.676C19.593 82.581 0 102.174 0 126.257v259.486c0 24.083 19.593 43.676 43.676 43.676h424.648c24.083 0 43.675-19.594 43.675-43.676V126.257c.001-24.083-19.592-43.676-43.675-43.676m27.16 303.162c0 14.977-12.183 27.16-27.16 27.16H43.676c-14.977 0-27.16-12.183-27.16-27.16V126.257c0-14.977 12.183-27.16 27.16-27.16h424.648c14.976 0 27.159 12.183 27.159 27.16z" style="fill:#111a21"/></svg>
