<svg xmlns="http://www.w3.org/2000/svg" xml:space="preserve" viewBox="0 0 512 512" width="48" height="48"><path d="M503.742 127.891V384.11c0 20.464-16.589 37.052-37.052 37.052H45.31c-20.463-.001-37.052-16.59-37.052-37.053V127.891c0-20.463 16.589-37.052 37.052-37.052h421.38c20.463 0 37.052 16.589 37.052 37.052" style="fill:#fff"/><path d="M173.419 256c0 45.608 36.973 82.581 82.581 82.581s82.581-36.973 82.581-82.581z" style="fill:#103b9b"/><path d="M256 173.419c-45.608 0-82.581 36.972-82.581 82.581H338.58c.001-45.609-36.972-82.581-82.58-82.581" style="fill:#ed1f34"/><path d="M256 165.161c-50.088 0-90.839 40.751-90.839 90.839s40.751 90.839 90.839 90.839 90.839-40.751 90.839-90.839-40.751-90.839-90.839-90.839m0 165.162c-40.982 0-74.323-33.341-74.323-74.323s33.341-74.323 74.323-74.323 74.323 33.341 74.323 74.323-33.341 74.323-74.323 74.323M88.792 204.279a8.254 8.254 0 0 0 11.28-3.022l30.555-52.922a8.26 8.26 0 0 0-14.303-8.259l-30.555 52.922a8.26 8.26 0 0 0 3.023 11.281m38.142 22.022a8.254 8.254 0 0 0 11.28-3.022l30.555-52.922a8.26 8.26 0 0 0-14.303-8.259l-30.555 52.922a8.26 8.26 0 0 0 3.023 11.281m-19.07-11.011a8.254 8.254 0 0 0 11.28-3.022l30.555-52.922a8.26 8.26 0 0 0-14.303-8.259l-30.555 52.922a8.26 8.26 0 0 0 3.023 11.281m294.561 128.427c-3.953-2.279-9.001-.929-11.281 3.022l-9.772 16.926a8.258 8.258 0 0 0 14.302 8.258l9.772-16.926c2.283-3.949.929-9-3.021-11.28m20.783-35.996a8.257 8.257 0 0 0-11.281 3.022l-9.772 16.926a8.258 8.258 0 0 0 14.302 8.258l9.772-16.926c2.283-3.949.929-9-3.021-11.28m-58.925 13.975a8.26 8.26 0 0 0-11.281 3.022l-9.772 16.926a8.26 8.26 0 0 0 7.143 12.389 8.25 8.25 0 0 0 7.159-4.13l9.772-16.926a8.256 8.256 0 0 0-3.021-11.281m2.753-4.768a8.254 8.254 0 0 0 11.28-3.022l9.772-16.926c2.28-3.95.927-9-3.022-11.28a8.255 8.255 0 0 0-11.28 3.022l-9.772 16.926a8.256 8.256 0 0 0 3.022 11.28m16.318 15.778c-3.953-2.279-9.002-.928-11.281 3.022l-9.772 16.926a8.26 8.26 0 0 0 7.143 12.389 8.25 8.25 0 0 0 7.159-4.13l9.772-16.926c2.281-3.95.928-9-3.021-11.281m2.752-4.767a8.254 8.254 0 0 0 11.28-3.022l9.772-16.926a8.26 8.26 0 0 0-14.303-8.259l-9.772 16.926a8.26 8.26 0 0 0 3.023 11.281m5.039-162.679a8.254 8.254 0 0 0 11.28 3.022 8.257 8.257 0 0 0 3.022-11.281l-9.772-16.926a8.257 8.257 0 0 0-11.281-3.022 8.257 8.257 0 0 0-3.022 11.281zm25.314 10.813c-2.279-3.95-7.333-5.301-11.281-3.022a8.257 8.257 0 0 0-3.022 11.281l9.772 16.926a8.254 8.254 0 0 0 11.28 3.022 8.257 8.257 0 0 0 3.022-11.281zm-63.456 11.209a8.254 8.254 0 0 0 11.28 3.022 8.257 8.257 0 0 0 3.022-11.281l-9.772-16.926a8.256 8.256 0 0 0-11.281-3.022 8.257 8.257 0 0 0-3.022 11.281zm20.782 35.996a8.254 8.254 0 0 0 11.28 3.022 8.257 8.257 0 0 0 3.022-11.281l-9.772-16.926c-2.279-3.95-7.332-5.301-11.281-3.022a8.257 8.257 0 0 0-3.022 11.281zm19.071-11.01a8.254 8.254 0 0 0 11.28 3.022 8.257 8.257 0 0 0 3.022-11.281l-30.555-52.922a8.256 8.256 0 0 0-11.28-3.022 8.257 8.257 0 0 0-3.022 11.281zm-292.784 98.475c-2.279-3.951-7.332-5.302-11.281-3.022a8.257 8.257 0 0 0-3.022 11.281l30.555 52.922a8.254 8.254 0 0 0 11.28 3.022 8.256 8.256 0 0 0 3.022-11.28zm38.143-22.021a8.256 8.256 0 0 0-11.281-3.022 8.256 8.256 0 0 0-3.022 11.28l30.555 52.922a8.254 8.254 0 0 0 11.28 3.022 8.257 8.257 0 0 0 3.022-11.281zm1.712 47.007c-2.279-3.951-7.333-5.301-11.281-3.022a8.257 8.257 0 0 0-3.022 11.281l9.772 16.926a8.254 8.254 0 0 0 11.28 3.022 8.257 8.257 0 0 0 3.022-11.281zm-32.063-39.019a8.257 8.257 0 0 0-3.022 11.281l9.772 16.926a8.254 8.254 0 0 0 11.28 3.022 8.257 8.257 0 0 0 3.022-11.281l-9.772-16.926a8.257 8.257 0 0 0-11.28-3.022" style="fill:#121b21"/><path d="M468.324 82.581H43.676C19.594 82.581 0 102.174 0 126.257v259.486c0 24.083 19.594 43.676 43.676 43.676h424.647c24.083 0 43.676-19.594 43.676-43.676V126.257c.001-24.083-19.593-43.676-43.675-43.676m27.16 303.162c0 14.977-12.183 27.16-27.16 27.16H43.676c-14.977 0-27.16-12.183-27.16-27.16V126.257c0-14.977 12.183-27.16 27.16-27.16h424.647c14.977 0 27.16 12.183 27.16 27.16z" style="fill:#121b21"/></svg>
