<svg xmlns="http://www.w3.org/2000/svg" xml:space="preserve" viewBox="0 0 512 512" width="48" height="48"><path d="m206.452 256-66.065 55.054h363.355V200.946H140.387z" style="fill:#ed1f34"/><path d="M19.599 411.711c6.319 5.862 14.776 9.451 24.076 9.451h424.648c19.561 0 35.418-15.857 35.418-35.418v-74.689H140.387z" style="fill:#259245"/><path d="M468.324 90.839H43.676c-9.3 0-17.757 3.59-24.076 9.452l120.787 100.656h363.355v-74.69c0-19.562-15.857-35.418-35.418-35.418" style="fill:#333"/><path d="M8.258 200.946h495.484v27.52H8.258zm0 82.592h495.484v27.52H8.258z" style="fill:#fff"/><path d="m206.452 256-66.065-55.054L19.599 100.29c-6.973 6.468-11.341 15.706-11.341 25.967v259.486c0 10.261 4.368 19.498 11.341 25.967l120.788-100.656z" style="fill:#164fce"/><path d="m71.918 291.234-1.341-25.942L46.318 256l24.259-9.292 1.341-25.942 16.332 20.2 25.088-6.742L99.174 256l14.164 21.776-25.088-6.742z" style="fill:#ffe000"/><path d="M120.018 229.369a8.26 8.26 0 0 0-8.824-3.122l-19.9 5.348-12.956-16.024a8.26 8.26 0 0 0-8.974-2.661 8.26 8.26 0 0 0-5.695 7.428l-1.063 20.578-19.242 7.369a8.258 8.258 0 0 0 0 15.424l19.242 7.37 1.063 20.578a8.258 8.258 0 0 0 14.669 4.767L91.295 280.4l19.9 5.348a8.26 8.26 0 0 0 9.066-12.478L109.025 256l11.235-17.275a8.25 8.25 0 0 0-.242-9.356m-27.767 31.133 2.409 3.703-4.266-1.146a8.26 8.26 0 0 0-8.564 2.782l-2.777 3.434-.228-4.411a8.26 8.26 0 0 0-5.293-7.286l-4.125-1.58 4.125-1.58a8.26 8.26 0 0 0 5.293-7.286l.228-4.411 2.777 3.434a8.26 8.26 0 0 0 8.564 2.782l4.266-1.146-2.409 3.703a8.26 8.26 0 0 0 0 9.008" style="fill:#111a21"/><path d="M468.324 82.581H43.676c-11.308 0-21.626 4.321-29.391 11.397a8 8 0 0 0-.697.665C5.227 102.605 0 113.828 0 126.257v259.486c0 12.447 5.242 23.685 13.625 31.649q.288.303.598.57c7.772 7.111 18.114 11.457 29.454 11.457h424.648c24.082 0 43.675-19.594 43.675-43.676V126.257c0-24.083-19.594-43.676-43.676-43.676M16.516 385.743V126.257a27 27 0 0 1 4.118-14.355l114.496 95.414.005.004L193.551 256l-58.415 48.68-.005.004-114.497 95.414a27 27 0 0 1-4.118-14.355m478.968 0c0 14.977-12.183 27.16-27.16 27.16H43.676c-3.61 0-7.056-.714-10.21-1.998l109.91-91.593h352.107zm0-82.947H163.196l48.542-40.451a8.258 8.258 0 0 0 0-12.688l-48.542-40.451h332.288zm0-110.108H143.377L33.465 101.095a27 27 0 0 1 10.211-1.998h424.648c14.976 0 27.159 12.183 27.159 27.16z" style="fill:#111a21"/></svg>
