<svg xmlns="http://www.w3.org/2000/svg" xml:space="preserve" viewBox="0 0 512.001 512.001" width="48" height="48"><path d="M22.004 413.745a35.25 35.25 0 0 0 21.674 7.416h424.647c19.561 0 35.418-15.857 35.418-35.418v-98.288H256.062z" style="fill:#164fce"/><path d="M468.325 90.84H43.677a35.25 35.25 0 0 0-21.674 7.416l234.051 126.285h247.689v-98.284c-.001-19.561-15.858-35.417-35.418-35.417" style="fill:#ed1f34"/><path d="M22.004 98.255c-8.358 6.479-13.745 16.609-13.745 28.002v259.485c0 11.394 5.385 21.524 13.744 28.003l234.058-126.29h247.681v-62.914H256.053z" style="fill:#048b7d"/><path d="M8.259 166.446v179.108l165.974-89.553z" style="fill:#ed1f34"/><path d="m8.259 345.554 165.974-89.553L8.259 166.446" style="fill:#333"/><path d="M8.267 353.813a8.258 8.258 0 0 1-3.929-15.526l152.504-82.285L4.338 173.714a8.259 8.259 0 0 1 7.843-14.535l165.974 89.554a8.258 8.258 0 0 1 0 14.536L12.181 352.821a8.2 8.2 0 0 1-3.914.992" style="fill:#ffe000"/><path d="M503.742 232.799H256.053a8.3 8.3 0 0 1-3.922-.99L19.753 106.915a8.259 8.259 0 0 1 7.843-14.535l230.543 123.903h245.603a8.257 8.257 0 0 1 8.258 8.258 8.257 8.257 0 0 1-8.258 8.258M23.682 419.511c-2.938 0-4.681-1.571-6.174-4.337a8.26 8.26 0 0 1 3.346-11.189L252.14 280.188a8.26 8.26 0 0 1 3.921-.99h247.681a8.257 8.257 0 0 1 8.258 8.258 8.257 8.257 0 0 1-8.258 8.258H258.148L28.697 418.519c-1.247.674-3.692.992-5.015.992" style="fill:#fff"/><path d="M468.325 429.419H43.677c-24.083 0-43.676-19.594-43.676-43.676V126.258c0-24.083 19.592-43.676 43.676-43.676h424.647c24.083 0 43.676 19.594 43.676 43.676v259.485c0 24.083-19.593 43.676-43.675 43.676M43.677 99.098c-14.976 0-27.16 12.183-27.16 27.16v259.485c0 14.977 12.183 27.16 27.16 27.16h424.647c14.976 0 27.16-12.183 27.16-27.16V126.258c0-14.977-12.183-27.16-27.16-27.16z" style="fill:#111a21"/></svg>
