<svg xmlns="http://www.w3.org/2000/svg" xml:space="preserve" viewBox="0 0 512 512" width="48" height="48"><path d="M272.516 123.871H470.71v264.258H272.516z" style="fill:#bf2300"/><path d="M468.324 90.839H43.676c-19.561 0-35.418 15.858-35.418 35.418v259.487c0 19.561 15.858 35.418 35.418 35.418h424.648c19.561 0 35.418-15.857 35.418-35.418V126.257c0-19.561-15.857-35.418-35.418-35.418m-228.84 297.29H41.29V123.871h198.194zm231.226 0H272.516V123.871H470.71z" style="fill:#ffe000"/><path d="M41.29 123.871h99.097v264.258H41.29z" style="fill:#134923"/><path d="M140.387 123.871h99.097v264.258h-99.097z" style="fill:#ff7900"/><path d="M411.802 233.428h-36.871v-17.334c0-10.493-8.507-19.001-19.001-19.001s-19.001 8.508-19.001 19.001v66.883h95.794v-28.628c0-11.554-9.367-20.921-20.921-20.921" style="fill:#ffe000"/><path d="M310.503 214.159a8.257 8.257 0 0 0-8.258 8.258v60.559c0 4.561 3.696 8.258 8.258 8.258s8.258-3.697 8.258-8.258v-60.559a8.26 8.26 0 0 0-8.258-8.258m101.299 11.011H383.19v-9.076c0-15.031-12.227-27.259-27.259-27.259s-27.259 12.229-27.259 27.259v98.814c0 4.561 3.696 8.258 8.258 8.258s8.258-3.697 8.258-8.258v-23.673h48.447v23.673c0 4.561 3.696 8.258 8.258 8.258s8.258-3.697 8.258-8.258v-23.673h14.314v23.673c0 4.561 3.696 8.258 8.258 8.258s8.258-3.697 8.258-8.258v-60.559c0-16.09-13.09-29.179-29.179-29.179m12.663 49.548h-79.277v-58.625c0-5.924 4.819-10.743 10.743-10.743s10.743 4.819 10.743 10.743v17.334a8.257 8.257 0 0 0 8.258 8.258h36.871c6.982 0 12.662 5.68 12.662 12.662z" style="fill:#111a21"/><path d="M468.324 82.581H43.676C19.594 82.581 0 102.173 0 126.257v259.487c0 24.083 19.594 43.675 43.676 43.675h424.647c24.083 0 43.676-19.593 43.676-43.676V126.257c.001-24.084-19.593-43.676-43.675-43.676m27.16 303.162c0 14.977-12.183 27.16-27.16 27.16H43.676c-14.977 0-27.16-12.183-27.16-27.16V126.257c0-14.977 12.183-27.16 27.16-27.16h424.647c14.977 0 27.16 12.183 27.16 27.16z" style="fill:#111a21"/></svg>
