<svg xmlns="http://www.w3.org/2000/svg" xml:space="preserve" viewBox="0 0 512 512" width="48" height="48"><path d="M8.258 385.927V126.073c0-19.459 15.775-35.234 35.234-35.234h425.015c19.459 0 35.234 15.775 35.234 35.234v259.854c0 19.459-15.775 35.234-35.234 35.234H43.492c-19.459 0-35.234-15.775-35.234-35.234" style="fill:#fff"/><path d="M154.212 241.736c-18.217 0-32.985-14.775-32.985-32.993H77.64c0 34.272 22.522 63.267 53.571 73.032l-18.629 45.152h41.631v-38.942c12.488-.333 22.511-10.553 22.511-23.12-.001-12.569-10.025-22.797-22.512-23.129m203.576 0c18.217 0 32.985-14.775 32.985-32.993h43.587c0 34.272-22.522 63.267-53.571 73.032l18.629 45.152h-41.631v-38.942c-12.488-.333-22.512-10.553-22.512-23.12.002-12.569 10.026-22.797 22.513-23.129" style="fill:#fff"/><path d="M306.175 235.865v20.161c0 8.811-1.325 16.517-3.552 23.251h-93.246c-2.227-6.733-3.552-14.441-3.552-23.251v-20.161z" style="fill:#ed1f34"/><path d="M209.377 279.276h93.246C291.202 313.977 256 322.677 256 322.677s-35.202-8.7-46.623-43.401m-3.553-86.819h100.352v43.404H205.824z" style="fill:#164fce"/><path d="M256 149.312c-21.062 0-41.35 3.315-60.371 9.449l10.196 33.702h100.351l10.196-33.701c-19.022-6.135-39.31-9.45-60.372-9.45m0 221.635c-24.836 0-48.043-10.498-64.337-28.616l-8.069 15.868a8.256 8.256 0 0 1-11.104 3.618 8.26 8.26 0 0 1-3.618-11.104l14-27.53a8.26 8.26 0 0 1 6.928-4.503 8.24 8.24 0 0 1 7.362 3.754c12.996 20.037 34.991 31.999 58.839 31.999s45.843-11.962 58.839-31.999a8.26 8.26 0 0 1 14.289.749l14 27.53a8.26 8.26 0 0 1-3.618 11.104c-4.064 2.069-9.036.448-11.104-3.618l-8.069-15.868c-16.295 18.118-39.502 28.616-64.338 28.616" style="fill:#ffe000"/><path d="M183.942 211.991a8.26 8.26 0 0 0-3.209-11.229l-33.767-18.759a8.259 8.259 0 0 0-11.458 10.789l19.512 40.72c-.197-.009-.392-.024-.59-.03l-.219-.003c-13.635 0-24.727-11.097-24.727-24.735a8.257 8.257 0 0 0-8.258-8.258H58.881a8.257 8.257 0 0 0-8.258 8.258 8.257 8.257 0 0 0 8.258 8.258H69.79c2.952 30.749 22.233 57.258 50.531 69.517l-15.372 37.259a8.257 8.257 0 0 0 7.633 11.407h41.631a8.257 8.257 0 0 0 8.258-8.258v-31.929c13.111-3.795 22.51-15.789 22.51-30.134 0-5.712-1.497-11.049-4.118-15.647l-19.258-40.188 11.108 6.17a8.26 8.26 0 0 0 11.229-3.208m-15.477 52.874c0 8.119-6.357 14.65-14.473 14.866a8.26 8.26 0 0 0-8.039 8.255v30.684h-21.032l13.922-33.745a8.25 8.25 0 0 0-.153-6.647 8.27 8.27 0 0 0-5.003-4.38c-25.926-8.155-44.137-30.451-47.3-56.897h27.411c3.827 18.76 20.429 32.932 40.285 32.993 8.072.263 14.382 6.777 14.382 14.871m284.654-64.38h-62.346a8.257 8.257 0 0 0-8.258 8.258c0 13.639-11.092 24.735-24.727 24.735l-.219.003c-.198.006-.393.022-.59.03l19.512-40.72a8.26 8.26 0 0 0-11.458-10.789l-33.767 18.759a8.259 8.259 0 0 0 8.021 14.438l11.108-6.17-19.258 40.188c-2.622 4.598-4.119 9.935-4.119 15.647 0 14.345 9.4 26.339 22.51 30.134v31.929a8.257 8.257 0 0 0 8.258 8.258h41.653a8.257 8.257 0 0 0 8.258-8.258c0-1.33-.314-2.588-.873-3.701l-15.145-36.708c28.298-12.259 47.579-38.768 50.531-69.518h10.909a8.257 8.257 0 0 0 8.258-8.258 8.257 8.257 0 0 0-8.258-8.257m-74.807 73.413a8.26 8.26 0 0 0-5.156 11.027l13.921 33.745h-21.032v-30.684a8.26 8.26 0 0 0-8.039-8.255c-8.115-.216-14.473-6.746-14.473-14.866 0-8.094 6.308-14.608 14.38-14.87 19.856-.062 36.458-14.232 40.285-32.993h27.411c-3.161 26.445-21.371 48.741-47.297 56.896m-48.103-110.279a8.26 8.26 0 0 0-4.981-10.564 205 205 0 0 0-6.196-2.101c-.091-.031-.177-.069-.27-.097-.043-.013-.086-.02-.129-.032-20.181-6.479-41.214-9.771-62.634-9.771s-42.453 3.292-62.634 9.772c-.043.012-.086.019-.129.032-.092.028-.179.066-.27.097-2.073.671-4.14 1.363-6.196 2.101a8.257 8.257 0 0 0-4.98 10.564c1.276 3.554 4.738 5.686 8.325 5.443l7.45 24.623v62.342c0 9.736 1.483 18.247 3.913 25.663l.026.084c5.397 16.407 15.432 27.429 24.296 34.412 13.785 10.859 27.634 14.368 28.216 14.512a8.25 8.25 0 0 0 3.964 0c.582-.144 14.431-3.652 28.216-14.512 8.864-6.983 18.899-18.005 24.296-34.412l.026-.084c2.429-7.416 3.913-15.927 3.913-25.663v-62.342l7.449-24.621c.185.012.37.023.555.023a8.26 8.26 0 0 0 7.774-5.469M256 157.569q6.053.001 12.056.381l-2.647 26.251h-18.852l-2.647-26.249c4.011-.253 8.044-.383 12.09-.383m-50.066 6.737a187 187 0 0 1 21.554-4.593l2.47 24.488h-18.004zM256 314.074c-5.967-1.946-23.441-8.932-33.848-26.54h67.696c-10.407 17.608-27.881 24.594-33.848 26.54m41.917-58.048c0 5.473-.586 10.448-1.602 14.991h-80.631c-1.016-4.543-1.602-9.518-1.602-14.991v-11.904h83.835zm0-28.419h-83.835v-26.888h24.917l.079.003.075-.003h33.654l.074.003.079-.003h24.954v26.888zm2.129-43.406h-18.039l2.471-24.493a187 187 0 0 1 21.588 4.601z" style="fill:#1a1c20"/><path d="M468.324 82.581H43.676C19.594 82.581 0 102.173 0 126.256v259.487c0 24.084 19.594 43.676 43.676 43.676h424.647c24.083 0 43.676-19.593 43.676-43.676V126.256c.001-24.083-19.593-43.675-43.675-43.675m27.16 303.162c0 14.977-12.183 27.16-27.16 27.16H43.676c-14.977 0-27.16-12.183-27.16-27.16V126.256c0-14.976 12.183-27.159 27.16-27.159h424.647c14.977 0 27.16 12.183 27.16 27.159z" style="fill:#1a1c20"/></svg>
