<svg xmlns="http://www.w3.org/2000/svg" xml:space="preserve" viewBox="0 0 512 512" width="48" height="48"><path d="M135.983 90.839h240.034v330.323H135.983z" style="fill:#ffe000"/><path d="M43.676 90.839c-19.561 0-35.418 15.857-35.418 35.418v259.486c0 19.562 15.858 35.418 35.418 35.418h92.306V90.839z" style="fill:#3db4ea"/><path d="M468.324 90.839h-92.306v330.323h92.306c19.561 0 35.418-15.857 35.418-35.418V126.257c0-19.562-15.858-35.418-35.418-35.418M256 368.777l-30.852-54.454L256 259.868l30.852 54.455zm-36.783-65.126-30.852-54.455 30.852-54.454 30.852 54.454zm73.566 0 30.852-54.455-30.852-54.454-30.852 54.454z" style="fill:#259245"/><path d="M468.324 82.581H43.676C19.593 82.581 0 102.174 0 126.257v259.486c0 24.083 19.593 43.676 43.676 43.676h424.648c24.083 0 43.675-19.594 43.675-43.676V126.257c.001-24.083-19.592-43.676-43.675-43.676M16.516 385.743V126.257c0-14.977 12.183-27.16 27.16-27.16h84.048v313.806H43.676c-14.976 0-27.16-12.183-27.16-27.16m478.968 0c0 14.977-12.183 27.16-27.16 27.16h-84.048v-256c0-4.562-3.697-8.258-8.258-8.258s-8.258 3.696-8.258 8.258v256H144.241V99.097h223.518v24.774c0 4.562 3.697 8.258 8.258 8.258s8.258-3.696 8.258-8.258V99.097h84.048c14.977 0 27.16 12.183 27.16 27.16z" style="fill:#121b21"/></svg>
