<svg xmlns="http://www.w3.org/2000/svg" xml:space="preserve" viewBox="0 0 512 512" width="48" height="48"><path d="m206.452 256-66.065 55.054h363.355V200.946H140.387z" style="fill:#fff"/><path d="M19.599 411.711c6.319 5.862 14.778 9.451 24.076 9.451h424.648c19.561 0 35.418-15.857 35.418-35.418v-74.689H140.387z" style="fill:#333"/><path d="M468.324 90.839H43.676c-9.3 0-17.757 3.59-24.076 9.452l120.787 100.656h363.355v-74.69c0-19.562-15.858-35.418-35.418-35.418" style="fill:#ed1f34"/><path d="m206.452 256-66.065-55.054L19.599 100.29c-6.973 6.468-11.341 15.706-11.341 25.967v259.486c0 10.261 4.368 19.498 11.341 25.967l120.788-100.656z" style="fill:#259245"/><path d="M468.324 82.581H43.675C19.593 82.581 0 102.174 0 126.257v259.486c0 12.447 5.242 23.685 13.625 31.649q.288.303.598.57c7.772 7.111 18.114 11.457 29.453 11.457h424.648c24.084 0 43.676-19.594 43.676-43.676V126.257c0-24.083-19.593-43.676-43.676-43.676M20.634 400.098a27 27 0 0 1-4.118-14.355V126.257a27 27 0 0 1 4.118-14.355l114.494 95.411.01.008L193.551 256l-58.415 48.68-.005.004zm191.104-137.754a8.258 8.258 0 0 0 0-12.688l-48.542-40.451h332.288v93.591H163.196zM468.324 99.097c14.977 0 27.16 12.183 27.16 27.16v66.431H143.377l-109.91-91.593a27 27 0 0 1 10.209-1.998zm0 313.806H43.675c-3.61 0-7.056-.714-10.21-1.998l109.912-91.593h352.107v66.431c0 14.977-12.184 27.16-27.16 27.16" style="fill:#111a21"/></svg>
