<svg xmlns="http://www.w3.org/2000/svg" xml:space="preserve" viewBox="0 0 512 512" width="48" height="48"><path d="M468.324 90.839H43.676c-19.562 0-35.418 15.857-35.418 35.418v12.482h495.484v-12.482c0-19.562-15.858-35.418-35.418-35.418M8.258 385.743c0 19.562 15.857 35.418 35.418 35.418h424.648c19.561 0 35.418-15.857 35.418-35.418v-12.482H8.258z" style="fill:#164fce"/><path d="M8.258 346.288h495.484v26.973H8.258z" style="fill:#ffe000"/><path d="M8.258 165.712h495.484v180.576H8.258z" style="fill:#b21727"/><path d="M430.552 264.258H81.448A8.257 8.257 0 0 1 73.19 256a8.257 8.257 0 0 1 8.258-8.258h349.106a8.259 8.259 0 1 1-.002 16.516m-33.032-33.032H114.48a8.257 8.257 0 0 1-8.258-8.258 8.257 8.257 0 0 1 8.258-8.258h283.041a8.258 8.258 0 1 1-.001 16.516M8.258 138.735h495.484v26.973H8.258z" style="fill:#ffe000"/><path d="M256 200.946v110.108c55.946 0 90.288-55.054 90.288-55.054S311.946 200.946 256 200.946" style="fill:#fff"/><path d="M165.712 256s34.343 55.054 90.288 55.054V200.946c-55.946 0-90.288 55.054-90.288 55.054" style="fill:#333"/><path d="M468.508 82.581H43.492C19.473 82.581 0 102.053 0 126.073v259.854c0 24.02 19.473 43.492 43.492 43.492h425.015c24.02 0 43.492-19.473 43.492-43.492V126.073c.001-24.02-19.472-43.492-43.491-43.492m26.976 47.896v26.976H16.516v-26.976c0-17.331 14.05-31.381 31.381-31.381h416.206c17.331.001 31.381 14.05 31.381 31.381M16.516 381.523v-26.976h24.428c4.522 0 8.465-3.485 8.6-8.005a8.26 8.26 0 0 0-8.255-8.511H16.516V173.97h478.968v164.06H74.668c-4.522 0-8.465 3.485-8.6 8.005a8.26 8.26 0 0 0 8.255 8.511h421.161v26.976c0 17.331-14.05 31.381-31.381 31.381H47.897c-17.331 0-31.381-14.049-31.381-31.38" style="fill:#111a21"/><path d="M256 319.312c59.839 0 95.794-56.535 97.294-58.941a8.26 8.26 0 0 0 0-8.741c-1.501-2.407-37.455-58.942-97.294-58.942s-95.794 56.535-97.294 58.941a8.26 8.26 0 0 0 0 8.741c1.5 2.407 37.455 58.942 97.294 58.942m0-110.108c41.677 0 71.008 34.41 80.214 46.796-9.212 12.394-38.541 46.796-80.214 46.796-41.677 0-71.008-34.41-80.214-46.796 9.211-12.394 38.54-46.796 80.214-46.796" style="fill:#111a21"/></svg>
