<svg xmlns="http://www.w3.org/2000/svg" xml:space="preserve" viewBox="0 0 512 512" width="48" height="48"><path d="M472.912 421.161H39.088c-17.027 0-30.83-13.803-30.83-30.83V121.669c0-17.027 13.803-30.83 30.83-30.83h433.824c17.027 0 30.83 13.803 30.83 30.83v268.662c0 17.027-13.803 30.83-30.83 30.83" style="fill:#164fce"/><path d="M503.742 232.052H219.547V90.839H171.65v141.213H8.258v47.896H171.65v141.213h47.897V279.948h284.195z" style="fill:#ffe000"/><path d="M468.324 82.581H43.676C19.594 82.581 0 102.173 0 126.256v259.487c0 24.084 19.594 43.676 43.676 43.676h424.647c24.083 0 43.676-19.593 43.676-43.676V126.256c.001-24.083-19.593-43.675-43.675-43.675m27.16 43.675v97.538H227.805V99.097h240.519c14.976 0 27.16 12.183 27.16 27.159M43.676 99.097h119.716v124.697H16.516v-97.538c0-14.976 12.184-27.159 27.16-27.159m-27.16 286.646v-97.537h146.876v124.697H43.676c-14.976 0-27.16-12.183-27.16-27.16m451.808 27.16H227.805V288.206h176.84a8.257 8.257 0 0 0 8.258-8.258 8.257 8.257 0 0 0-8.258-8.258H219.547a8.257 8.257 0 0 0-8.258 8.258v132.955h-31.381V279.948a8.257 8.257 0 0 0-8.258-8.258H16.516v-31.38H171.65a8.257 8.257 0 0 0 8.258-8.258V99.097h31.381v132.955a8.257 8.257 0 0 0 8.258 8.258h275.937v31.381h-57.806a8.257 8.257 0 0 0-8.258 8.258 8.257 8.257 0 0 0 8.258 8.258h57.806v97.537c0 14.976-12.184 27.159-27.16 27.159" style="fill:#121b21"/></svg>
