<svg xmlns="http://www.w3.org/2000/svg" xml:space="preserve" viewBox="0 0 512 512" width="48" height="48"><rect width="330.322" height="330.322" x="90.839" y="90.839" rx="35.936" ry="35.936" style="fill:#ed1f34;stroke:#111a21;stroke-width:17;stroke-linecap:round;stroke-linejoin:round;fill-opacity:1;stroke-opacity:1;stroke-dasharray:none"/><path fill="#fff" d="M299.203 1049.084v66.016h55.337v-66.016a8.06 8.06 0 0 1 8.059-8.059h58.292v-55.337h-58.292a8.06 8.06 0 0 1-8.059-8.059v-58.291h-55.337v58.291a8.06 8.06 0 0 1-8.059 8.059h-58.291v55.337h58.291a8.06 8.06 0 0 1 8.059 8.059" style="stroke-width:.624556" transform="translate(-70.871 -757.356)"/><path d="M291.145 903.22a8.06 8.06 0 0 0-8.059 8.058v58.293h-58.291a8.06 8.06 0 0 0-8.06 8.059v71.453a8.06 8.06 0 0 0 8.058 8.059h58.293v58.293a8.057 8.057 0 0 0 8.059 8.058h18.382c11.607 0 11.607-16.007.837-16.007l-11.16-.11v-58.293a8.06 8.06 0 0 0-8.06-8.059h-58.292V985.69h58.293a8.06 8.06 0 0 0 8.058-8.06v-58.292h55.336v58.293a8.06 8.06 0 0 0 8.059 8.059h58.293v55.335h-58.293a8.06 8.06 0 0 0-8.059 8.06v58.292h-8.773c-10.26 0-10.399 16.117 1.5 16.117h15.332a8.057 8.057 0 0 0 8.058-8.058v-58.293h58.291a8.06 8.06 0 0 0 8.06-8.059V977.63a8.06 8.06 0 0 0-8.06-8.059h-58.29v-58.293a8.06 8.06 0 0 0-8.06-8.058z" style="fill:#111a21;stroke-width:.624556" transform="translate(-70.871 -757.356)"/></svg>
