<svg xmlns="http://www.w3.org/2000/svg" xml:space="preserve" viewBox="0 0 512 512" width="48" height="48"><path d="M8.258 200.946h495.484v110.108H8.258z" style="fill:#fff"/><path d="M468.324 90.839H43.676c-19.562 0-35.418 15.857-35.418 35.418v74.689h495.484v-74.689c0-19.562-15.857-35.418-35.418-35.418" style="fill:#ed1f34"/><path d="M8.258 385.743c0 19.561 15.857 35.418 35.418 35.418h424.648c19.561 0 35.418-15.858 35.418-35.418v-74.689H8.258z" style="fill:#333"/><path d="m131.346 248.202 25.574-1.321 9.158-23.913 9.16 23.913 25.573 1.321-19.912 16.1 6.646 24.73-21.467-13.962-21.465 13.962 6.646-24.73zm179.843 0 25.573-1.321 9.16-23.913 9.158 23.913 25.574 1.321-19.913 16.1 6.646 24.73-21.465-13.962-21.466 13.962 6.645-24.73z" style="fill:#259245"/><path d="m201.237 239.955-20.209-1.044-7.237-18.897a8.259 8.259 0 0 0-15.424 0l-7.237 18.897-20.209 1.044a8.26 8.26 0 0 0-4.767 14.669l15.737 12.723-5.253 19.542a8.259 8.259 0 0 0 12.479 9.065l16.962-11.034 16.962 11.034a8.25 8.25 0 0 0 9.357-.241 8.26 8.26 0 0 0 3.122-8.824l-5.252-19.543 15.735-12.723a8.26 8.26 0 0 0 2.661-8.974 8.25 8.25 0 0 0-7.427-5.694m-25.531 17.926a8.26 8.26 0 0 0-2.782 8.564l1.05 3.909-3.392-2.207a8.25 8.25 0 0 0-9.006 0l-3.391 2.205 1.05-3.908a8.26 8.26 0 0 0-2.782-8.565l-3.147-2.545 4.041-.209a8.26 8.26 0 0 0 7.286-5.293l1.447-3.779 1.448 3.779a8.26 8.26 0 0 0 7.286 5.293l4.041.209zm205.374-17.926-20.209-1.044-7.237-18.897a8.259 8.259 0 0 0-15.424 0l-7.237 18.897-20.209 1.044a8.26 8.26 0 0 0-4.767 14.669l15.735 12.723-5.252 19.543a8.254 8.254 0 0 0 7.976 10.401 8.25 8.25 0 0 0 4.503-1.336l16.962-11.034 16.962 11.034a8.258 8.258 0 0 0 12.479-9.065l-5.253-19.542 15.737-12.723a8.26 8.26 0 0 0-4.766-14.67m-25.532 17.926a8.26 8.26 0 0 0-2.782 8.565l1.05 3.908-3.391-2.205a8.26 8.26 0 0 0-9.007 0l-3.392 2.207 1.05-3.909a8.26 8.26 0 0 0-2.782-8.564l-3.147-2.545 4.041-.209a8.25 8.25 0 0 0 7.286-5.293l1.447-3.779 1.447 3.779a8.26 8.26 0 0 0 7.286 5.293l4.041.209z" style="fill:#111a21"/><path d="M468.324 82.581H43.676C19.594 82.581 0 102.173 0 126.257v259.487c0 24.083 19.594 43.675 43.676 43.675h424.647c24.083 0 43.676-19.593 43.676-43.676V126.257c.001-24.084-19.593-43.676-43.675-43.676M43.676 99.097h424.647c14.977 0 27.16 12.183 27.16 27.16v66.431H470.71c-4.562 0-8.258 3.697-8.258 8.258s3.696 8.258 8.258 8.258h24.774v93.591H16.516v-93.591h421.161c4.562 0 8.258-3.697 8.258-8.258s-3.696-8.258-8.258-8.258H16.516v-66.431c0-14.977 12.184-27.16 27.16-27.16m424.648 313.806H43.676c-14.977 0-27.16-12.183-27.16-27.16v-66.431h478.968v66.431c0 14.977-12.184 27.16-27.16 27.16" style="fill:#111a21"/></svg>
