<svg xmlns="http://www.w3.org/2000/svg" xml:space="preserve" viewBox="0 0 512 512" width="48" height="48"><path d="M503.742 126.259v259.487c0 19.561-15.858 35.418-35.418 35.418H43.676c-19.561 0-35.418-15.857-35.418-35.418V126.259c0-19.561 15.857-35.418 35.418-35.418h424.648c19.56 0 35.418 15.858 35.418 35.418" style="fill:#ed1f34"/><path d="M256 256.008H8.258V128.215c0-20.637 16.73-37.368 37.368-37.368H256z" style="fill:#103b9b"/><path d="M132.129 154.158c-10.624 0-19.269 8.645-19.269 19.269s8.645 19.269 19.269 19.269 19.269-8.645 19.269-19.269-8.645-19.269-19.269-19.269" style="fill:#fff"/><path d="M181.489 165.169h-5.375a44.5 44.5 0 0 0-7.052-16.995l3.811-3.811a8.257 8.257 0 0 0 0-11.678 8.26 8.26 0 0 0-11.679 0l-3.811 3.811a44.5 44.5 0 0 0-16.995-7.052v-5.377a8.26 8.26 0 0 0-8.258-8.258 8.26 8.26 0 0 0-8.258 8.258v5.377a44.5 44.5 0 0 0-16.995 7.052l-3.811-3.811a8.256 8.256 0 0 0-11.678 0 8.257 8.257 0 0 0 0 11.678l3.811 3.811a44.5 44.5 0 0 0-7.052 16.995H82.77c-4.561 0-8.258 3.697-8.258 8.258s3.697 8.258 8.258 8.258h5.375a44.5 44.5 0 0 0 7.052 16.995l-3.811 3.81a8.257 8.257 0 0 0 0 11.678c1.612 1.613 3.726 2.419 5.839 2.419s4.227-.806 5.839-2.419l3.811-3.81a44.5 44.5 0 0 0 16.995 7.052v5.377a8.26 8.26 0 0 0 8.258 8.258 8.26 8.26 0 0 0 8.258-8.258v-5.377a44.5 44.5 0 0 0 16.995-7.052l3.811 3.81c1.612 1.613 3.726 2.419 5.839 2.419s4.227-.806 5.839-2.419a8.257 8.257 0 0 0 0-11.678l-3.811-3.81a44.5 44.5 0 0 0 7.052-16.995h5.375a8.26 8.26 0 0 0 8.258-8.258 8.253 8.253 0 0 0-8.255-8.258m-49.36 36.502c-15.574 0-28.244-12.67-28.244-28.244s12.67-28.244 28.244-28.244 28.244 12.67 28.244 28.244-12.67 28.244-28.244 28.244" style="fill:#fff"/><path d="M468.324 82.583H256.107c-.036 0-.07-.006-.107-.006q-.053.001-.107.006H43.675C19.593 82.583 0 102.176 0 126.259v259.487c0 24.083 19.593 43.676 43.675 43.676h424.648c24.083 0 43.676-19.593 43.676-43.676V126.259c.001-24.083-19.592-43.676-43.675-43.676M43.675 99.099h204.067V247.75l-231.226-.006V126.259c0-14.976 12.184-27.16 27.159-27.16m451.809 286.647c0 14.976-12.183 27.16-27.16 27.16H43.675c-14.976-.001-27.159-12.184-27.159-27.16V264.261l239.484.006a8.255 8.255 0 0 0 8.258-8.258V99.099h204.066c14.976 0 27.16 12.183 27.16 27.16z" style="fill:#1a1c20"/></svg>
