<svg xmlns="http://www.w3.org/2000/svg" xml:space="preserve" viewBox="0 0 512 512" width="48" height="48"><path d="M8.32 200.797h495.493v118.399H8.32z" style="fill:#fff"/><path d="M503.681 200.8H8.32v-73.792c0-20.096 16.32-36.288 36.288-36.288h422.784c20.096 0 36.288 16.32 36.288 36.288z" style="fill:#ed1f34"/><path d="M467.392 421.089H44.608c-20.096 0-36.288-16.32-36.288-36.288v-73.792h495.488V384.8c-.127 20.032-16.32 36.289-36.416 36.289" style="fill:#259245"/><path d="M256 232.481c-4.928 0-8.832-4.032-8.832-8.832 0-4.928 4.032-8.832 8.832-8.832 4.928 0 8.768 4.032 8.768 8.832 0 4.927-3.84 8.832-8.768 8.832m-24.32 5.311c-3.392 0-6.528-1.984-7.872-4.992-1.024-2.112-1.216-4.48-.384-6.72.832-2.176 2.432-4.032 4.48-4.992 1.216-.576 2.496-.896 3.776-.896 3.392 0 6.528 1.984 7.872 4.992 2.112 4.416.32 9.728-4.096 11.776-1.152.577-2.432.832-3.776.832m-19.648 15.296c-1.984 0-3.904-.704-5.504-1.92-1.792-1.472-3.008-3.584-3.328-5.888s.384-4.608 1.92-6.528c1.728-2.112 4.224-3.328 6.912-3.328 1.984 0 3.904.704 5.504 1.92 3.776 3.008 4.416 8.576 1.408 12.416-1.728 2.176-4.224 3.328-6.912 3.328m-11.008 22.4c-.704 0-1.28-.128-1.984-.192-2.304-.512-4.224-1.92-5.504-3.904s-1.728-4.416-1.088-6.72c.896-4.032 4.48-6.784 8.576-6.784.704 0 1.28.128 1.984.192 2.304.512 4.224 1.92 5.504 3.904s1.728 4.416 1.088 6.72c-.896 4.032-4.48 6.784-8.576 6.784m79.296-37.696a8.6 8.6 0 0 1-3.776-.896c-4.416-2.112-6.208-7.424-4.096-11.776 1.472-3.008 4.608-4.992 7.872-4.992 1.28 0 2.624.32 3.776.896a8.8 8.8 0 0 1 4.48 4.992c.768 2.176.576 4.608-.384 6.72a8.66 8.66 0 0 1-7.872 5.056m19.712 15.296c-2.688 0-5.184-1.216-6.912-3.328-3.008-3.776-2.368-9.28 1.408-12.416 1.6-1.216 3.52-1.92 5.504-1.92 2.688 0 5.184 1.216 6.912 3.328 1.472 1.792 2.112 4.096 1.92 6.528-.32 2.304-1.408 4.416-3.328 5.888-1.664 1.344-3.52 1.92-5.504 1.92m10.944 22.4c-4.096 0-7.68-2.816-8.576-6.784-.512-2.304-.128-4.672 1.088-6.592 1.28-1.984 3.2-3.392 5.504-3.904.576-.128 1.28-.192 1.984-.192 4.096 0 7.68 2.816 8.576 6.784.512 2.304.128 4.672-1.088 6.592-1.28 1.984-3.2 3.392-5.504 3.904-.64.128-1.28.192-1.984.192m-21.76 5.824c-7.872-4.288-16.576-6.976-25.472-8.128v-17.6a8.303 8.303 0 0 0-8.32-8.32 8.303 8.303 0 0 0-8.32 8.32v17.6c-9.088 1.088-17.92 3.904-25.792 8.192-4.032 2.176-5.504 7.232-3.328 11.2a8.27 8.27 0 0 0 7.232 4.288c1.28 0 2.688-.32 4.032-1.024 8-4.416 17.024-6.72 26.112-6.72s17.984 2.304 25.92 6.592c4.032 2.176 9.024.704 11.2-3.328 2.24-3.967.705-8.96-3.264-11.072" style="fill:#ffe000"/><path d="M468.288 82.528H43.712C19.584 82.528 0 102.112 0 126.24v259.52c0 24.128 19.584 43.712 43.712 43.712h424.576c24.128 0 43.712-19.584 43.712-43.712V126.24c0-24.128-19.584-43.712-43.712-43.712M43.712 98.977h424.576c14.976 0 27.2 12.224 27.2 27.2v66.432H16.512v-66.432c0-14.977 12.16-27.2 27.2-27.2m424.576 313.855H43.712c-14.976 0-27.2-12.224-27.2-27.2V319.2h421.184a8.303 8.303 0 0 0 8.32-8.32 8.303 8.303 0 0 0-8.32-8.32H16.512v-93.632h478.976v93.696h-24.832a8.303 8.303 0 0 0-8.32 8.32 8.303 8.303 0 0 0 8.32 8.32h24.832v66.432c0 14.913-12.16 27.136-27.2 27.136" style="fill:#111a21"/></svg>
