<svg xmlns="http://www.w3.org/2000/svg" xml:space="preserve" viewBox="0 0 512.001 512.001" width="48" height="48"><path d="M354.854 90.837H43.677c-19.561 0-35.418 15.857-35.418 35.418v195.657z" style="fill:#259245"/><path d="M157.135 421.158h311.189c19.56 0 35.418-15.857 35.418-35.418V190.095z" style="fill:#3db4ea"/><path d="M468.324 90.837H354.853L8.259 321.91v63.83c0 19.562 15.857 35.418 35.418 35.418h113.458l346.606-231.062v-63.84c0-19.562-15.856-35.419-35.417-35.419" style="fill:#ffe000"/><path d="M468.324 90.837h-63.846L8.259 354.993v30.747c0 19.562 15.857 35.418 35.418 35.418h63.832L503.74 157.012v-30.758c.001-19.56-15.855-35.417-35.416-35.417" style="fill:#333"/><path d="M511.999 156.884v-30.628c0-24.083-19.594-43.676-43.676-43.676h-63.684q-.126-.002-.253 0H43.677C19.594 82.58.001 102.174.001 126.256v228.566q-.002.152 0 .304v30.615c0 24.083 19.592 43.676 43.676 43.676h63.726c.036 0 .072.007.107.007.03 0 .059-.007.09-.007h360.724c24.083 0 43.676-19.594 43.676-43.676V157.183q.001-.15-.001-.299M43.677 99.095h333.527L16.517 339.562V126.255c0-14.977 12.185-27.16 27.16-27.16M16.517 385.74v-26.328L406.978 99.095h61.345c14.977 0 27.16 12.183 27.16 27.16v26.339L105.01 412.9H43.677c-14.975 0-27.16-12.184-27.16-27.16m451.806 27.16H134.786l360.699-240.457V385.74c-.002 14.976-12.185 27.16-27.162 27.16" style="fill:#111a21"/></svg>
