<svg xmlns="http://www.w3.org/2000/svg" xml:space="preserve" viewBox="0 0 512 512" width="48" height="48"><path d="M468.324 90.839H43.676c-19.561 0-35.418 15.857-35.418 35.418v19.635h495.484v-19.635c0-19.562-15.857-35.418-35.418-35.418M8.258 385.743c0 19.562 15.858 35.418 35.418 35.418h424.648c19.561 0 35.418-15.857 35.418-35.418v-19.635H8.258z" style="fill:#ed1f34"/><path d="M8.258 311.054h495.484v55.054H8.258z" style="fill:#fff"/><path d="M8.258 200.946h495.484v110.108H8.258z" style="fill:#103b9b"/><path d="M8.258 145.892h495.484v55.054H8.258z" style="fill:#fff"/><path d="M468.324 82.581H43.676C19.593 82.581 0 102.174 0 126.257v259.486c0 24.083 19.593 43.676 43.676 43.676h424.648c24.082 0 43.675-19.594 43.675-43.676V126.257c.001-24.083-19.593-43.676-43.675-43.676M16.516 209.204H41.29a8.257 8.257 0 0 0 8.258-8.258 8.257 8.257 0 0 0-8.258-8.258H16.516V154.15h478.968v38.538H74.323a8.257 8.257 0 0 0-8.258 8.258 8.257 8.257 0 0 0 8.258 8.258h421.161v93.591H16.516zm27.16-110.107h424.648c14.976 0 27.159 12.183 27.159 27.16v11.377H16.516v-11.377c0-14.977 12.184-27.16 27.16-27.16m424.648 313.806H43.676c-14.977 0-27.16-12.183-27.16-27.16v-66.431h478.968v66.431c0 14.977-12.184 27.16-27.16 27.16" style="fill:#121b21"/></svg>
