<svg xmlns="http://www.w3.org/2000/svg" xml:space="preserve" viewBox="0 0 512 512" width="48" height="48"><path d="M8.258 387.279V124.721c0-18.713 15.17-33.882 33.882-33.882h427.72c18.713 0 33.882 15.17 33.882 33.882v262.558c0 18.713-15.17 33.882-33.882 33.882H42.14c-18.712 0-33.882-15.169-33.882-33.882" style="fill:#ffe000"/><path d="M256 123.871h214.732v264.258H256z" style="fill:#ed1f34"/><path d="M363.15 123.871 256 256.033l214.732-132.162zm-321.838 0H256v264.258H41.312z" style="fill:#103b9b"/><path d="m41.312 189.949 214.708 66.084H41.312zm0 132.162 214.654-66.071L41.312 388.135z" style="fill:#ed1f34"/><path d="M148.85 123.871 256 256.033 41.312 123.871" style="fill:#ed1f34"/><path d="M470.732 189.949 255.98 256.033h214.752zm0 132.162L256.034 256.04l214.698 132.095z" style="fill:#103b9b"/><path d="M256 357.115c-55.713 0-101.039-45.326-101.039-101.039S200.287 155.037 256 155.037s101.039 45.326 101.039 101.039S311.713 357.115 256 357.115m0-185.561c-46.606 0-84.523 37.918-84.523 84.523S209.394 340.6 256 340.6s84.523-37.917 84.523-84.523-37.917-84.523-84.523-84.523" style="fill:#ffe000"/><circle cx="256" cy="256.077" r="59.744" style="fill:#ffe000"/><path d="M256 324.083c-37.499 0-68.007-30.507-68.007-68.007s30.509-68.007 68.007-68.007 68.007 30.507 68.007 68.007-30.508 68.007-68.007 68.007m0-119.497c-28.392 0-51.491 23.099-51.491 51.491s23.099 51.491 51.491 51.491 51.491-23.099 51.491-51.491-23.099-51.491-51.491-51.491" style="fill:#1a1c20"/><path d="M41.312 388.135 256.123 256l214.609 132.135z" style="fill:#fff"/><path d="M256.123 303.346c-13.986 0-25.325 11.338-25.325 25.325h50.649c.001-13.987-11.337-25.325-25.324-25.325" style="fill:#ff7900"/><path d="M230.799 328.671c0 13.987 11.339 25.325 25.325 25.325 13.987 0 25.325-11.338 25.325-25.325z" style="fill:#103b9b"/><path d="M470.732 115.613H41.312a8.257 8.257 0 0 0-8.258 8.258v264.264c0 .062.008.121.009.183a8 8 0 0 0 .059.833q.029.231.07.464a8 8 0 0 0 .18.771 8 8 0 0 0 .58 1.478q.113.223.239.436c.031.053.056.109.088.162.021.033.046.062.067.095q.239.376.513.722l.072.097c.197.24.412.466.634.682q.123.118.252.229.234.21.484.401.133.105.271.204.338.238.699.442l.086.052q.42.228.868.405.1.038.201.074a8 8 0 0 0 .969.296q.352.083.715.135c.084.013.166.029.25.039q.447.053.907.057l.054.003.015-.001h429.395c.048 0 .096-.007.144-.008q.24-.005.477-.023.184-.014.367-.033.2-.026.4-.062.212-.033.418-.078c.112-.024.224-.056.335-.086.15-.04.298-.08.445-.128.106-.035.209-.076.313-.115q.215-.08.426-.168.168-.077.334-.16c.123-.062.247-.12.367-.187.127-.07.249-.15.372-.227.098-.062.196-.12.291-.186.132-.09.259-.189.386-.288q.123-.095.242-.192.183-.158.359-.327.118-.109.232-.224.155-.161.301-.331.127-.143.248-.292.119-.153.232-.309.135-.186.26-.379c.028-.043.059-.081.086-.124.034-.055.059-.113.092-.168q.123-.21.233-.427.078-.155.151-.312.094-.206.177-.42a7 7 0 0 0 .252-.75 8 8 0 0 0 .18-.772 7 7 0 0 0 .104-.799q.02-.248.025-.498c.001-.063.009-.122.009-.185V123.871a8.256 8.256 0 0 0-8.257-8.258m-8.258 16.516v241.222L260.453 248.967a8.26 8.26 0 0 0-8.657-.001L49.57 373.359v-241.23zm-20.905 247.747H70.501l185.62-114.179z" style="fill:#1a1c20"/><path d="M468.324 82.581H43.675C19.593 82.581 0 102.174 0 126.257v259.486c0 24.083 19.593 43.676 43.675 43.676h424.648c24.084 0 43.676-19.594 43.676-43.676V126.257c.001-24.083-19.592-43.676-43.675-43.676m27.16 303.162c0 14.977-12.183 27.16-27.16 27.16H43.675c-14.976 0-27.159-12.183-27.159-27.16V126.257c0-14.977 12.183-27.16 27.159-27.16h424.648c14.977 0 27.16 12.183 27.16 27.16z" style="fill:#1a1c20"/></svg>
