<?xml version="1.0" encoding="iso-8859-1"?>
<!-- Generator: Adobe Illustrator 19.0.0, SVG Export Plug-In . SVG Version: 6.00 Build 0)  -->
<svg version="1.1" id="Layer_1" xmlns="http://www.w3.org/2000/svg" xmlns:xlink="http://www.w3.org/1999/xlink" x="0px" y="0px"
	 viewBox="0 0 512 512" style="enable-background:new 0 0 512 512;" xml:space="preserve">
<path style="fill:#FFE000;" d="M8.258,387.279V124.721c0-18.713,15.17-33.882,33.882-33.882H469.86
	c18.713,0,33.882,15.17,33.882,33.882v262.558c0,18.713-15.17,33.882-33.882,33.882H42.14
	C23.428,421.161,8.258,405.992,8.258,387.279z"/>
<rect x="256" y="123.871" style="fill:#ED1F34;" width="214.732" height="264.258"/>
<g>
	<polygon style="fill:#103B9B;" points="363.15,123.871 256,256.033 470.732,123.871 	"/>
	<rect x="41.312" y="123.871" style="fill:#103B9B;" width="214.688" height="264.258"/>
</g>
<g>
	<polygon style="fill:#ED1F34;" points="41.312,189.949 256.02,256.033 41.312,256.033 	"/>
	<polygon style="fill:#ED1F34;" points="41.312,322.111 255.966,256.04 41.312,388.135 	"/>
	<polyline style="fill:#ED1F34;" points="148.85,123.871 256,256.033 41.312,123.871 	"/>
</g>
<g>
	<polygon style="fill:#103B9B;" points="470.732,189.949 255.98,256.033 470.732,256.033 	"/>
	<polygon style="fill:#103B9B;" points="470.732,322.111 256.034,256.04 470.732,388.135 	"/>
</g>
<g>
	<path style="fill:#FFE000;" d="M256,357.115c-55.713,0-101.039-45.326-101.039-101.039S200.287,155.037,256,155.037
		s101.039,45.326,101.039,101.039S311.713,357.115,256,357.115z M256,171.554c-46.606,0-84.523,37.918-84.523,84.523
		S209.394,340.6,256,340.6s84.523-37.917,84.523-84.523S302.606,171.554,256,171.554z"/>
	<circle style="fill:#FFE000;" cx="256" cy="256.077" r="59.744"/>
</g>
<path style="fill:#1A1C20;" d="M256,324.083c-37.499,0-68.007-30.507-68.007-68.007s30.509-68.007,68.007-68.007
	s68.007,30.507,68.007,68.007S293.499,324.083,256,324.083z M256,204.586c-28.392,0-51.491,23.099-51.491,51.491
	s23.099,51.491,51.491,51.491c28.392,0,51.491-23.099,51.491-51.491C307.491,227.685,284.392,204.586,256,204.586z"/>
<polygon style="fill:#FFFFFF;" points="41.312,388.135 256.123,256 470.732,388.135 "/>
<path style="fill:#FF7900;" d="M256.123,303.346c-13.986,0-25.325,11.338-25.325,25.325h50.649
	C281.448,314.684,270.11,303.346,256.123,303.346z"/>
<path style="fill:#103B9B;" d="M230.799,328.671c0,13.987,11.339,25.325,25.325,25.325c13.987,0,25.325-11.338,25.325-25.325
	H230.799z"/>
<g>
	<path style="fill:#1A1C20;" d="M470.732,115.613H41.312c-4.561,0-8.258,3.696-8.258,8.258v264.264c0,0.062,0.008,0.121,0.009,0.183
		c0.003,0.166,0.011,0.334,0.025,0.5c0.009,0.112,0.021,0.222,0.034,0.333c0.019,0.155,0.043,0.308,0.07,0.464
		c0.022,0.121,0.046,0.241,0.074,0.361c0.031,0.137,0.067,0.273,0.106,0.41c0.037,0.133,0.078,0.264,0.122,0.395
		c0.04,0.118,0.084,0.236,0.129,0.352c0.056,0.144,0.117,0.286,0.181,0.426c0.047,0.102,0.096,0.205,0.148,0.305
		c0.075,0.149,0.155,0.294,0.239,0.436c0.031,0.053,0.056,0.109,0.088,0.162c0.021,0.033,0.046,0.062,0.067,0.095
		c0.16,0.25,0.329,0.492,0.513,0.722c0.024,0.031,0.046,0.066,0.072,0.097c0.197,0.24,0.412,0.466,0.634,0.682
		c0.081,0.079,0.167,0.154,0.252,0.229c0.156,0.14,0.318,0.274,0.484,0.401c0.09,0.069,0.178,0.139,0.271,0.204
		c0.226,0.159,0.458,0.306,0.699,0.442c0.03,0.017,0.056,0.035,0.086,0.052c0.28,0.153,0.57,0.286,0.868,0.405
		c0.066,0.026,0.134,0.05,0.201,0.074c0.233,0.087,0.472,0.164,0.716,0.231c0.084,0.023,0.168,0.044,0.253,0.065
		c0.235,0.056,0.472,0.1,0.715,0.135c0.084,0.013,0.166,0.029,0.25,0.039c0.298,0.034,0.6,0.055,0.907,0.057
		c0.018,0,0.036,0.003,0.054,0.003c0.006,0,0.011-0.001,0.015-0.001h429.395c0.048,0,0.096-0.007,0.144-0.008
		c0.16-0.002,0.318-0.012,0.477-0.023c0.122-0.01,0.246-0.02,0.367-0.033c0.134-0.017,0.266-0.039,0.4-0.062
		c0.141-0.023,0.281-0.047,0.418-0.078c0.112-0.024,0.224-0.056,0.335-0.086c0.15-0.04,0.298-0.08,0.445-0.128
		c0.106-0.035,0.209-0.076,0.313-0.115c0.143-0.054,0.286-0.108,0.426-0.168c0.113-0.05,0.222-0.106,0.334-0.16
		c0.123-0.062,0.247-0.12,0.367-0.187c0.127-0.07,0.249-0.15,0.372-0.227c0.098-0.062,0.196-0.12,0.291-0.186
		c0.132-0.09,0.259-0.189,0.386-0.288c0.081-0.064,0.163-0.126,0.242-0.192c0.123-0.105,0.241-0.215,0.359-0.327
		c0.078-0.074,0.157-0.146,0.232-0.224c0.104-0.107,0.203-0.218,0.301-0.331c0.085-0.096,0.167-0.192,0.248-0.292
		c0.08-0.101,0.156-0.206,0.232-0.309c0.089-0.124,0.177-0.25,0.26-0.379c0.028-0.043,0.059-0.081,0.086-0.124
		c0.034-0.055,0.059-0.113,0.092-0.168c0.081-0.14,0.16-0.282,0.233-0.427c0.053-0.103,0.102-0.208,0.151-0.312
		c0.063-0.138,0.122-0.277,0.177-0.42c0.046-0.119,0.09-0.239,0.131-0.359c0.044-0.129,0.084-0.259,0.121-0.391
		c0.039-0.138,0.075-0.274,0.106-0.413c0.028-0.118,0.052-0.239,0.074-0.359c0.028-0.155,0.052-0.308,0.07-0.464
		c0.013-0.111,0.025-0.222,0.034-0.335c0.013-0.165,0.022-0.331,0.025-0.498c0.001-0.063,0.009-0.122,0.009-0.185V123.871
		C478.99,119.309,475.293,115.613,470.732,115.613z M462.474,132.129v241.222L260.453,248.967c-2.655-1.634-6.002-1.635-8.657-0.001
		L49.57,373.359v-241.23H462.474z M441.569,379.876H70.501l185.62-114.179L441.569,379.876z"/>
	<path style="fill:#1A1C20;" d="M468.324,82.581H43.675C19.593,82.581,0,102.174,0,126.257v259.486
		c0,24.083,19.593,43.676,43.675,43.676h424.648c24.084,0,43.676-19.594,43.676-43.676V126.257
		C512,102.174,492.407,82.581,468.324,82.581z M495.484,385.743c0,14.977-12.183,27.16-27.16,27.16H43.675
		c-14.976,0-27.159-12.183-27.159-27.16V126.257c0-14.977,12.183-27.16,27.159-27.16h424.648c14.977,0,27.16,12.183,27.16,27.16
		V385.743z"/>
</g>
<g>
</g>
<g>
</g>
<g>
</g>
<g>
</g>
<g>
</g>
<g>
</g>
<g>
</g>
<g>
</g>
<g>
</g>
<g>
</g>
<g>
</g>
<g>
</g>
<g>
</g>
<g>
</g>
<g>
</g>
</svg>
