<svg xmlns="http://www.w3.org/2000/svg" xml:space="preserve" viewBox="0 0 512 512" width="48" height="48"><path d="M8.258 289.032h495.484v66.065H8.258zm198.194-132.129h297.29v66.065h-297.29z" style="fill:#ffe000"/><path d="M206.452 222.968h297.29v66.065h-297.29zM8.258 385.743c0 19.561 15.857 35.418 35.418 35.418h424.648c19.561 0 35.418-15.857 35.418-35.418v-30.646H8.258zM468.324 90.839H206.452v66.065h297.29v-30.647c0-19.562-15.858-35.418-35.418-35.418" style="fill:#259245"/><path d="M206.452 289.032H8.258V124.779c0-18.745 15.196-33.941 33.941-33.941h164.253z" style="fill:#ed1f34"/><path d="m60.559 179.429 34.455-1.78 12.341-32.219 12.34 32.219 34.456 1.78-26.829 21.692 8.954 33.32-28.921-18.812-28.921 18.812 8.954-33.32z" style="fill:#fff"/><path d="m55.366 185.85 22.651 18.315-7.56 28.132a8.258 8.258 0 0 0 12.479 9.066l24.419-15.884 24.419 15.883a8.25 8.25 0 0 0 9.357-.242 8.26 8.26 0 0 0 3.122-8.824l-7.56-28.132 22.651-18.315a8.257 8.257 0 0 0-4.767-14.669l-29.09-1.502-10.418-27.203a8.259 8.259 0 0 0-15.424 0l-10.418 27.203-29.09 1.502a8.26 8.26 0 0 0-7.428 5.696 8.25 8.25 0 0 0 2.657 8.974m40.074.047a8.26 8.26 0 0 0 7.286-5.294l4.629-12.085 4.629 12.085a8.26 8.26 0 0 0 7.286 5.294l12.922.668-10.063 8.136a8.26 8.26 0 0 0-2.782 8.564l3.358 12.498-10.848-7.056a8.25 8.25 0 0 0-9.004 0l-10.848 7.056 3.358-12.498a8.26 8.26 0 0 0-2.782-8.564l-10.063-8.136z" style="fill:#111a21"/><path d="M468.324 82.581H43.675C19.593 82.581 0 102.174 0 126.257v259.486c0 24.083 19.593 43.676 43.675 43.676h424.648c24.084 0 43.676-19.594 43.676-43.676V126.257c.001-24.083-19.592-43.676-43.675-43.676M214.71 231.226h280.774v49.548H214.71zm280.774-104.969v22.388H470.71c-4.561 0-8.258 3.696-8.258 8.258s3.697 8.258 8.258 8.258h24.774v49.548H214.71v-49.548h222.968c4.561 0 8.258-3.696 8.258-8.258s-3.697-8.258-8.258-8.258H214.71V99.097h253.614c14.976 0 27.16 12.183 27.16 27.16M43.675 99.097h154.518v181.677H16.516V126.257c0-14.977 12.184-27.16 27.159-27.16m424.649 313.806H43.675c-14.976 0-27.159-12.183-27.159-27.16v-22.388H41.29a8.257 8.257 0 0 0 8.258-8.258 8.257 8.257 0 0 0-8.258-8.258H16.516V297.29h478.968v49.548H74.323a8.257 8.257 0 0 0-8.258 8.258 8.257 8.257 0 0 0 8.258 8.258h421.161v22.388c0 14.978-12.184 27.161-27.16 27.161" style="fill:#111a21"/></svg>
