<svg xmlns="http://www.w3.org/2000/svg" xml:space="preserve" viewBox="0 0 512 512" width="48" height="48"><path d="M8.258 383.216V128.784c0-20.957 16.988-37.945 37.945-37.945h419.593c20.957 0 37.945 16.988 37.945 37.945v254.432c0 20.957-16.988 37.945-37.945 37.945H46.203c-20.956 0-37.945-16.988-37.945-37.945" style="fill:#103b9b"/><circle cx="112.1" cy="153.116" r="12.731" style="fill:#fff"/><circle cx="112.1" cy="305.89" r="12.731" style="fill:#fff"/><circle cx="150.297" cy="184.948" r="12.731" style="fill:#fff"/><circle cx="73.904" cy="216.769" r="12.731" style="fill:#fff"/><path d="M429.679 239.068c0-38.518 6.575-75.495 18.625-109.899l-268.617 191.53c-4.166 2.991-6.895 7.858-6.895 13.374 0 9.065 7.349 16.414 16.414 16.414H448.84c-12.392-34.835-19.161-72.334-19.161-111.419m19.161 152.023H172.792a8.26 8.26 0 0 1-8.258-8.258 8.257 8.257 0 0 1 8.258-8.258h276.047a8.256 8.256 0 0 1 8.258 8.258 8.256 8.256 0 0 1-8.257 8.258" style="fill:#ffe000"/><path d="M437.937 239.067c0-36.709 6.11-72.766 18.16-107.169a8.26 8.26 0 0 0-2.834-9.334 8.25 8.25 0 0 0-9.753-.12L174.871 313.989c-6.473 4.648-10.337 12.155-10.337 20.081 0 13.603 11.068 24.671 24.672 24.671H448.84c2.684 0 5.2-1.304 6.747-3.497a8.26 8.26 0 0 0 1.034-7.529c-12.398-34.844-18.684-71.399-18.684-108.648M189.205 342.225c-4.497 0-8.156-3.658-8.156-8.155 0-2.66 1.259-5.089 3.431-6.649l248.7-177.328c-7.811 28.903-11.759 58.728-11.759 88.973 0 35.233 5.352 69.878 15.926 103.159z" style="fill:#1a1c20"/><path d="M468.324 82.581H43.676C19.593 82.581 0 102.174 0 126.257v259.486c0 24.083 19.593 43.676 43.676 43.676h424.648c24.082 0 43.675-19.594 43.675-43.676V126.257c.001-24.083-19.593-43.676-43.675-43.676m27.16 303.162c0 14.977-12.183 27.16-27.16 27.16H43.676c-14.977 0-27.16-12.183-27.16-27.16V126.257c0-14.977 12.183-27.16 27.16-27.16h424.648c14.976 0 27.159 12.183 27.159 27.16z" style="fill:#1a1c20"/></svg>
