<svg xmlns="http://www.w3.org/2000/svg" xml:space="preserve" viewBox="0 0 512 512" width="48" height="48"><path d="M467.406 421.161H44.594c-20.067 0-36.335-16.268-36.335-36.335V127.174c0-20.067 16.268-36.335 36.335-36.335h422.813c20.067 0 36.335 16.268 36.335 36.335v257.652c0 20.067-16.268 36.335-36.336 36.335" style="fill:#ed1f34"/><path d="M8.258 256h214.986V90.839H43.492c-19.459 0-35.234 15.775-35.234 35.234z" style="fill:#fff"/><path d="M115.751 220.215a8.257 8.257 0 0 1-8.258-8.258v-77.075c0-4.561 3.696-8.258 8.258-8.258s8.258 3.697 8.258 8.258v77.075a8.26 8.26 0 0 1-8.258 8.258" style="fill:#ed1f34"/><path d="M154.288 181.677H77.213c-4.562 0-8.258-3.697-8.258-8.258s3.696-8.258 8.258-8.258h77.075c4.562 0 8.258 3.697 8.258 8.258s-3.696 8.258-8.258 8.258" style="fill:#ed1f34"/><path d="M468.324 82.581H43.676C19.594 82.581 0 102.173 0 126.256v259.487c0 24.084 19.594 43.676 43.676 43.676h424.647c24.083 0 43.676-19.593 43.676-43.676V126.256c.001-24.083-19.593-43.675-43.675-43.675M43.676 99.097h171.31v148.645H16.516V126.256c0-14.976 12.184-27.159 27.16-27.159m451.808 286.646c0 14.977-12.183 27.16-27.16 27.16H43.676c-14.977 0-27.16-12.183-27.16-27.16V264.258h206.728a8.257 8.257 0 0 0 8.258-8.258V99.097h236.821c14.977 0 27.16 12.183 27.16 27.159z" style="fill:#111a21"/></svg>
