<svg xmlns="http://www.w3.org/2000/svg" xml:space="preserve" viewBox="0 0 512 512" width="48" height="48"><path d="M503.742 126.257v259.487c0 19.561-15.857 35.418-35.418 35.418H43.676c-19.561-.001-35.418-15.858-35.418-35.419V126.257c0-19.562 15.858-35.418 35.418-35.418h424.648c19.561 0 35.418 15.856 35.418 35.418" style="fill:#ed1f34"/><path d="M8.258 214.71h495.484v82.581H8.258z" style="fill:#259245"/><path d="M468.324 82.581H43.676C19.594 82.581 0 102.173 0 126.256v259.487c0 24.084 19.594 43.676 43.676 43.676h424.647c24.083 0 43.676-19.593 43.676-43.676V126.256c.001-24.083-19.593-43.675-43.675-43.675M16.516 222.968h478.968v66.065H16.516zm27.16-123.871h424.647c14.977 0 27.16 12.183 27.16 27.159v80.196H16.516v-80.196c0-14.976 12.184-27.159 27.16-27.159m424.648 313.806H43.676c-14.977 0-27.16-12.183-27.16-27.16v-80.195h478.968v80.195c0 14.977-12.184 27.16-27.16 27.16" style="fill:#1a1c20"/></svg>
