<svg xmlns="http://www.w3.org/2000/svg" xml:space="preserve" viewBox="0 0 512 512" width="48" height="48"><path d="M503.742 386.561V125.439c0-19.109-15.491-34.6-34.6-34.6H42.858c-19.109 0-34.6 15.491-34.6 34.6v261.123c0 19.109 15.491 34.6 34.6 34.6h426.285c19.108-.001 34.599-15.492 34.599-34.601" style="fill:#ed1f34"/><path d="m45.695 90.839 327.878 330.322h-37.437L8.258 90.839zm130.169 0 327.878 330.322h-37.437L138.427 90.839z" style="fill:#fff"/><path d="m138.427 90.839 327.878 330.322h-92.732L45.695 90.839z" style="fill:#333"/><path d="M468.324 82.581H43.676C19.593 82.581 0 102.174 0 126.257v259.486c0 24.083 19.593 43.676 43.676 43.676h424.648c24.082 0 43.675-19.594 43.675-43.676V126.257c.001-24.083-19.593-43.676-43.675-43.676m-91.31 330.322L65.527 99.097h69.46l311.487 313.806zm-360.498-27.16V126.257c0-14.512 11.44-26.403 25.775-27.125l311.451 313.771H43.676c-14.976 0-27.16-12.183-27.16-27.16m478.968 0c0 14.512-11.44 26.4-25.775 27.125L158.256 99.097h310.067c14.977 0 27.16 12.183 27.16 27.16z" style="fill:#121b21"/></svg>
