<svg xmlns="http://www.w3.org/2000/svg" xml:space="preserve" viewBox="0 0 512 512" width="48" height="48"><path d="M503.742 384.826V127.174c0-20.067-16.268-36.335-36.335-36.335H44.594c-20.067 0-36.335 16.268-36.335 36.335v257.652c0 20.067 16.268 36.335 36.335 36.335h422.813c20.067 0 36.335-16.268 36.335-36.335" style="fill:#ed1f34"/><circle cx="256" cy="256" r="115.062" style="fill:#fff"/><path d="M288.126 321.489c-36.168 0-65.489-29.321-65.489-65.489s29.321-65.489 65.489-65.489a65.2 65.2 0 0 1 30.482 7.528c-15.587-16.829-37.862-27.373-62.608-27.373-47.128 0-85.333 38.205-85.333 85.333s38.205 85.333 85.333 85.333c24.747 0 47.021-10.545 62.608-27.373a65.16 65.16 0 0 1-30.482 7.53" style="fill:#ed1f34"/><path d="m301.213 221.867-1.299 25.132L276.417 256l23.497 9.001 1.299 25.132 15.821-19.569 24.299 6.531L327.614 256l13.719-21.095-24.299 6.531z" style="fill:#ed1f34"/><path d="M314.758 306.655c-8.279 4.362-17.238 6.576-26.632 6.576-31.557 0-57.232-25.674-57.232-57.231s25.674-57.231 57.232-57.231c9.392 0 18.353 2.212 26.632 6.576a8.17 8.17 0 0 0 4.043.95 8.257 8.257 0 0 0 8.087-8.256c0-2.362-.99-4.491-2.579-5.995-17.65-18.84-42.515-29.634-68.31-29.634-51.606 0-93.591 41.985-93.591 93.591s41.985 93.591 93.591 93.591c25.968 0 50.996-10.941 68.666-30.019a8.257 8.257 0 0 0-9.907-12.918M256 333.075c-42.499 0-77.075-34.576-77.075-77.075s34.576-77.075 77.075-77.075a76.8 76.8 0 0 1 23.806 3.794c-36.763 4.146-65.427 35.428-65.427 73.281s28.664 69.135 65.427 73.281A76.8 76.8 0 0 1 256 333.075" style="fill:#111a21"/><path d="m337.464 256 10.792-16.593a8.259 8.259 0 0 0-9.067-12.477l-19.111 5.138-12.443-15.392a8.26 8.26 0 0 0-14.669 4.767l-1.021 19.768-18.482 7.08a8.26 8.26 0 0 0 0 15.424l18.482 7.08 1.021 19.768a8.257 8.257 0 0 0 14.669 4.767l12.443-15.392 19.111 5.138a8.2 8.2 0 0 0 2.317.282 8.26 8.26 0 0 0 8.107-8.257c0-1.862-.615-3.58-1.655-4.96zm-16.773 4.502 1.965 3.022-3.479-.935a8.25 8.25 0 0 0-8.565 2.782l-2.264 2.8-.186-3.597a8.26 8.26 0 0 0-5.294-7.286L299.502 256l3.366-1.289a8.26 8.26 0 0 0 5.294-7.286l.186-3.597 2.264 2.8a8.26 8.26 0 0 0 8.565 2.782l3.479-.935-1.965 3.022a8.26 8.26 0 0 0 0 9.005" style="fill:#111a21"/><path d="M468.324 82.581H43.676C19.594 82.581 0 102.173 0 126.256v259.487c0 24.084 19.594 43.676 43.676 43.676h424.647c24.083 0 43.676-19.593 43.676-43.676V126.256c.001-24.083-19.593-43.675-43.675-43.675m27.16 303.162c0 14.977-12.183 27.16-27.16 27.16H43.676c-14.977 0-27.16-12.183-27.16-27.16V126.256c0-14.976 12.183-27.159 27.16-27.159h424.647c14.977 0 27.16 12.183 27.16 27.159z" style="fill:#111a21"/></svg>
