<svg xmlns="http://www.w3.org/2000/svg" xml:space="preserve" viewBox="0 0 512 512" width="48" height="48"><path d="M503.742 125.523v260.955c0 19.155-15.528 34.684-34.684 34.684H42.942c-19.155 0-34.684-15.528-34.684-34.684V125.523c0-19.155 15.528-34.684 34.684-34.684h426.116c19.155 0 34.684 15.528 34.684 34.684" style="fill:#259245"/><path d="M63.312 90.839h99.097v330.323H63.312z" style="fill:#ed1f34"/><path d="M229.081 216.742c16.895 16.895 44.287 16.895 61.182 0s16.895-44.287 0-61.182q-.763-.762-1.554-1.478a49.3 49.3 0 0 1 21.625 12.659c19.349 19.349 19.349 50.722 0 70.071-19.35 19.35-50.722 19.35-70.072 0a49.3 49.3 0 0 1-12.66-21.625q.717.793 1.479 1.555" style="fill:#fff"/><path d="M129.376 382.231H96.344a8.257 8.257 0 0 1-8.258-8.258 8.257 8.257 0 0 1 8.258-8.258h33.032a8.257 8.257 0 0 1 8.258 8.258 8.26 8.26 0 0 1-8.258 8.258" style="fill:#f2a643"/><path d="M129.376 335.042H96.344a8.257 8.257 0 0 1-8.258-8.258 8.257 8.257 0 0 1 8.258-8.258h33.032a8.257 8.257 0 0 1 8.258 8.258 8.26 8.26 0 0 1-8.258 8.258m0-47.19H96.344a8.257 8.257 0 0 1-8.258-8.258 8.257 8.257 0 0 1 8.258-8.258h33.032a8.257 8.257 0 0 1 8.258 8.258 8.257 8.257 0 0 1-8.258 8.258m0-47.188H96.344c-4.562 0-8.258-3.697-8.258-8.258s3.696-8.258 8.258-8.258h33.032c4.562 0 8.258 3.697 8.258 8.258s-3.696 8.258-8.258 8.258m0-47.19H96.344a8.257 8.257 0 0 1-8.258-8.258 8.257 8.257 0 0 1 8.258-8.258h33.032a8.257 8.257 0 0 1 8.258 8.258 8.257 8.257 0 0 1-8.258 8.258m0-47.188H96.344a8.257 8.257 0 0 1-8.258-8.258 8.257 8.257 0 0 1 8.258-8.258h33.032a8.257 8.257 0 0 1 8.258 8.258 8.26 8.26 0 0 1-8.258 8.258" style="fill:#259245"/><circle cx="259.678" cy="154.591" r="8.258" style="fill:#fff"/><circle cx="226.877" cy="184.001" r="8.258" style="fill:#fff"/><circle cx="236.324" cy="131.237" r="8.258" style="fill:#fff"/><circle cx="203.512" cy="160.636" r="8.258" style="fill:#fff"/><circle cx="232.448" cy="158.467" r="8.258" style="fill:#fff"/><path d="M290.937 146.13a8.259 8.259 0 0 0-7.784 14.061q.648.586 1.27 1.208c13.648 13.649 13.648 35.855.001 49.504-6.612 6.612-15.403 10.253-24.752 10.253-9.35 0-18.141-3.641-24.754-10.254a35 35 0 0 1-1.197-1.26 8.26 8.26 0 0 0-14.07 7.775 57.84 57.84 0 0 0 14.771 25.237c10.918 10.918 25.435 16.931 40.875 16.931s29.958-6.013 40.876-16.931c22.538-22.538 22.539-59.211 0-81.75a57.84 57.84 0 0 0-25.236-14.774m13.558 84.845c-7.798 7.799-18.168 12.094-29.197 12.094-7.466 0-14.632-1.969-20.901-5.661q2.613.264 5.275.265c13.761 0 26.699-5.359 36.431-15.09 11.391-11.392 16.322-26.833 14.793-41.733 9.301 15.822 7.166 36.557-6.401 50.125" style="fill:#111a21"/><path d="M468.324 82.581H43.676C19.594 82.581 0 102.173 0 126.257v259.487c0 24.083 19.594 43.675 43.676 43.675h424.647c24.083 0 43.676-19.593 43.676-43.676V126.257c.001-24.084-19.593-43.676-43.675-43.676M154.151 99.097v313.806H71.57V99.097zM16.516 385.743V126.257c0-14.977 12.183-27.16 27.16-27.16h11.377v313.806H43.676c-14.976 0-27.16-12.183-27.16-27.16m478.968 0c0 14.977-12.183 27.16-27.16 27.16H170.667V99.097h297.657c14.977 0 27.16 12.183 27.16 27.16z" style="fill:#111a21"/></svg>
