<svg xmlns="http://www.w3.org/2000/svg" xml:space="preserve" viewBox="0 0 512 512" width="48" height="48"><path d="M8.258 126.624v258.753c0 19.763 16.022 35.785 35.785 35.785h423.914c19.763 0 35.785-16.022 35.785-35.785V126.624c0-19.763-16.022-35.785-35.785-35.785H44.043c-19.763 0-35.785 16.021-35.785 35.785" style="fill:#ed1f34"/><path d="M210.305 337.677c-45.109 0-81.677-36.568-81.677-81.677s36.568-81.677 81.677-81.677c22.245 0 42.402 8.906 57.133 23.33-19.526-31.397-54.323-52.311-94.019-52.311-61.115 0-110.658 49.543-110.658 110.658s49.543 110.658 110.658 110.658c39.696 0 74.492-20.915 94.019-52.312-14.73 14.425-34.888 23.331-57.133 23.331M277.628 256l32.219-12.341 1.78-34.455 21.693 26.829 33.318-8.954L347.826 256l18.812 28.921-33.318-8.954-21.693 26.829-1.78-34.455z" style="fill:#fff"/><path d="M373.32 222.225a8.26 8.26 0 0 0-8.824-3.122l-28.132 7.56-18.315-22.651a8.26 8.26 0 0 0-8.974-2.661 8.26 8.26 0 0 0-5.695 7.428l-1.503 29.092-27.202 10.418a8.259 8.259 0 0 0 0 15.424l27.202 10.418 1.503 29.091a8.26 8.26 0 0 0 14.669 4.767l18.315-22.651 28.132 7.56a8.26 8.26 0 0 0 9.065-12.479L357.678 256l15.883-24.419a8.26 8.26 0 0 0-.241-9.356m-32.416 38.277 7.057 10.848-12.498-3.358a8.26 8.26 0 0 0-8.564 2.782l-8.137 10.063-.667-12.923a8.26 8.26 0 0 0-5.293-7.286l-12.084-4.629 12.084-4.629a8.26 8.26 0 0 0 5.293-7.286l.667-12.923 8.137 10.063a8.27 8.27 0 0 0 8.564 2.782l12.498-3.358-7.057 10.848a8.26 8.26 0 0 0 0 9.006" style="fill:#121b21"/><path d="M272.605 307.905a8.257 8.257 0 0 0-10.946.542c-13.81 13.525-32.048 20.972-51.354 20.972-34.701 0-64.946-24.63-71.915-58.564a8.258 8.258 0 1 0-16.178 3.322c8.539 41.579 45.588 71.757 88.094 71.757 4.804 0 9.554-.377 14.216-1.115-15.252 8.787-32.767 13.581-51.102 13.581-56.463 0-102.4-45.937-102.4-102.4s45.937-102.4 102.4-102.4c18.335 0 35.851 4.795 51.102 13.581a91 91 0 0 0-14.216-1.115c-42.506 0-79.555 30.178-88.094 71.757a8.256 8.256 0 0 0 6.428 9.75c4.463.916 8.833-1.96 9.75-6.428 6.969-33.934 37.213-58.564 71.915-58.564 19.306 0 37.544 7.448 51.354 20.972a8.258 8.258 0 0 0 12.79-10.261c-21.888-35.195-59.657-56.207-101.03-56.207-65.57 0-118.916 53.346-118.916 118.916s53.346 118.916 118.916 118.916c41.373 0 79.141-21.013 101.03-56.209a8.256 8.256 0 0 0-1.844-10.803" style="fill:#121b21"/><path d="M468.324 82.581H43.676C19.593 82.581 0 102.173 0 126.256v259.487c0 24.084 19.593 43.676 43.676 43.676h424.648c24.083 0 43.675-19.593 43.675-43.676V126.256c.001-24.083-19.592-43.675-43.675-43.675m27.16 303.162c0 14.977-12.183 27.16-27.16 27.16H43.676c-14.977 0-27.16-12.183-27.16-27.16V126.256c0-14.976 12.183-27.159 27.16-27.159h424.648c14.976 0 27.159 12.183 27.159 27.159z" style="fill:#121b21"/></svg>
