<svg xmlns="http://www.w3.org/2000/svg" xml:space="preserve" viewBox="0 0 512 512" width="48" height="48"><path d="M8.258 390.882V121.118c0-16.723 13.556-30.28 30.28-30.28h434.925c16.723 0 30.28 13.556 30.28 30.28v269.763c0 16.723-13.556 30.28-30.28 30.28H38.538c-16.723 0-30.28-13.556-30.28-30.279" style="fill:#103b9b"/><path d="M256 90.839h-40.196l-83.675 55.784-83.675-55.784H35.055c-14.8 0-26.797 11.997-26.797 26.797l83.675 55.784-83.675 55.783V256h40.196l83.675-55.784L215.804 256H256v-26.797l-83.675-55.784L256 117.637z" style="fill:#fff"/><path d="M256 90.839h-26.798l-110.466 73.652-95.603-63.736c-6.359-4.239-14.874.319-14.874 7.961l110.33 73.73L8.258 256h26.797l110.472-73.648L256 256v-17.484L145.373 164.59z" style="fill:#ed1f34"/><path d="M256 151.123H154.426V90.839h-44.594v60.284H8.258v44.593h101.574V256h44.594v-60.284H256z" style="fill:#fff"/><path d="M256 161.445H144.103V90.839h-23.948v70.606H8.258v23.949h111.897V256h23.948v-70.606H256z" style="fill:#ed1f34"/><path d="M324.817 188.963v60.939c0 59.526 55.054 73.135 55.054 73.135s55.054-13.608 55.054-73.135v-60.939z" style="fill:#ffe000"/><circle cx="359.501" cy="232.184" r="16.241" style="fill:#f2a643"/><circle cx="400.241" cy="232.184" r="16.241" style="fill:#ff7900"/><circle cx="379.871" cy="266.592" r="16.241" style="fill:#259245"/><path d="M434.925 180.705H324.817a8.26 8.26 0 0 0-8.258 8.258v60.94c0 34.062 16.681 54.352 30.675 65.376 14.99 11.81 30.023 15.619 30.655 15.775a8.25 8.25 0 0 0 3.964 0c.632-.157 15.665-3.966 30.655-15.775 13.994-11.024 30.675-31.313 30.675-65.376v-60.94a8.26 8.26 0 0 0-8.258-8.258m-8.258 69.197c0 46.604-37.428 61.528-46.775 64.527-9.109-2.989-46.817-18.175-46.817-64.527V197.22h93.591z" style="fill:#1a1c20"/><path d="M468.324 82.581H43.675C19.593 82.581 0 102.173 0 126.256v259.487c0 24.083 19.593 43.676 43.675 43.676h424.648c24.084 0 43.676-19.594 43.676-43.676V126.256c.001-24.083-19.592-43.675-43.675-43.675m27.16 303.162c0 14.977-12.183 27.16-27.16 27.16H43.675c-14.976 0-27.159-12.183-27.159-27.16V126.256c0-14.976 12.183-27.159 27.159-27.159h424.648c14.977 0 27.16 12.183 27.16 27.159z" style="fill:#1a1c20"/></svg>
