<svg xmlns="http://www.w3.org/2000/svg" xml:space="preserve" viewBox="0 0 512.001 512.001" width="48" height="48"><path d="M8.258 384.286V127.731c0-20.37 16.513-36.884 36.884-36.884h421.716c20.37 0 36.884 16.513 36.884 36.884v256.556c0 20.37-16.513 36.884-36.884 36.884H45.142c-20.37-.001-36.884-16.514-36.884-36.885" style="fill:#3db4ea"/><path d="M256 256.008H8.258V128.281c0-20.674 16.759-37.433 37.433-37.433H256z" style="fill:#103b9b"/><path d="M132.129 146.63 48.454 90.847h-4.98c-16.718.094-30.683 11.768-34.296 27.41l82.756 55.172L8.258 229.21v26.798h40.196l83.675-55.783 83.675 55.784H256v-26.798l-83.675-55.783L256 117.645V90.847h-40.196z" style="fill:#fff"/><path d="m229.203 90.847-110.466 73.652-97.922-65.282a35.5 35.5 0 0 0-9.117 11.805l106.891 71.432L8.258 256.008h26.797l110.472-73.649L256 256.008v-17.484l-110.627-73.926L256 90.847z" style="fill:#ed1f34"/><path d="M256 151.131H154.426V90.847h-44.594v60.284H8.258v44.593h101.574v60.284h44.594v-60.284H256z" style="fill:#fff"/><path d="M256 161.453H144.103V90.847h-23.948v70.606H8.258v23.949h111.897v70.606h23.948v-70.606H256z" style="fill:#ed1f34"/><circle cx="247.313" cy="366.956" r="13.763" style="fill:#ffe000"/><circle cx="310.613" cy="298.271" r="13.763" style="fill:#ffe000"/><circle cx="310.613" cy="353.49" r="13.763" style="fill:#ffe000"/><circle cx="368.519" cy="220.017" r="13.763" style="fill:#ffe000"/><circle cx="409.149" cy="206.551" r="13.763" style="fill:#ffe000"/><circle cx="449.778" cy="157.168" r="13.763" style="fill:#ffe000"/><circle cx="368.519" cy="340.024" r="13.763" style="fill:#ffe000"/><circle cx="409.149" cy="298.271" r="13.468" style="fill:#ffe000"/><circle cx="449.778" cy="273.893" r="13.763" style="fill:#ffe000"/><path d="M468.324 82.583H256.107c-.036 0-.07-.006-.107-.006q-.053.001-.107.006H43.676C19.593 82.583 0 102.177 0 126.26v259.487c0 24.083 19.593 43.676 43.676 43.676h424.648c24.083 0 43.676-19.593 43.676-43.676V126.26c0-24.083-19.593-43.677-43.676-43.677M43.676 99.1h204.066v148.65l-231.226-.006V126.26c0-14.976 12.184-27.16 27.16-27.16m451.808 286.647c0 14.976-12.183 27.16-27.16 27.16H43.676c-14.977-.001-27.16-12.184-27.16-27.16V264.261l239.484.005a8.255 8.255 0 0 0 8.258-8.258V99.1h204.066c14.976 0 27.16 12.183 27.16 27.16z" style="fill:#111a21"/></svg>
