<svg xmlns="http://www.w3.org/2000/svg" xml:space="preserve" viewBox="0 0 512 512" width="48" height="48"><path d="M8.258 200.946h495.484V256H8.258z" style="fill:#ed1f34"/><path d="M8.258 311.054h495.484v55.054H8.258zm0-165.162h495.484v55.054H8.258z" style="fill:#ffe000"/><path d="M8.258 256h495.484v55.054H8.258zM468.324 90.839H43.676c-19.561 0-35.418 15.857-35.418 35.417v19.637h495.484v-19.637c0-19.561-15.857-35.417-35.418-35.417" style="fill:#333"/><path d="M8.258 385.743c0 19.561 15.858 35.418 35.418 35.418h424.648c19.561 0 35.418-15.857 35.418-35.418v-19.635H8.258z" style="fill:#ed1f34"/><path d="M468.324 82.581H43.676C19.593 82.581 0 102.174 0 126.257v259.486c0 24.083 19.593 43.676 43.676 43.676h424.648c24.082 0 43.675-19.594 43.675-43.676V126.257c.001-24.083-19.593-43.676-43.675-43.676M16.516 192.688V154.15h478.968v38.538zm478.968 16.516v38.538H16.516v-38.538zM16.516 319.312H41.29c4.561 0 8.258-3.696 8.258-8.258s-3.697-8.258-8.258-8.258H16.516v-38.538h478.968v38.538H74.323c-4.561 0-8.258 3.696-8.258 8.258s3.697 8.258 8.258 8.258h421.161v38.538H16.516zm27.16-220.215h424.648c14.976 0 27.159 12.183 27.159 27.16v11.377H16.516v-11.377c0-14.977 12.184-27.16 27.16-27.16m424.648 313.806H43.676c-14.977 0-27.16-12.183-27.16-27.16v-11.377h478.968v11.377c0 14.977-12.184 27.16-27.16 27.16" style="fill:#111a21"/><circle cx="256" cy="256" r="55.054" style="fill:#fff"/><path d="M256 192.688c-34.911 0-63.312 28.401-63.312 63.312s28.401 63.312 63.312 63.312 63.312-28.401 63.312-63.312-28.401-63.312-63.312-63.312m0 110.108c-25.804 0-46.796-20.992-46.796-46.796s20.992-46.796 46.796-46.796 46.796 20.992 46.796 46.796-20.992 46.796-46.796 46.796" style="fill:#111a21"/><path d="m286.633 250.975-14.737-7.263a8.257 8.257 0 0 0-11.908 7.407 3.993 3.993 0 0 1-3.988 3.988 4 4 0 0 1-3.733-2.583l11.141-22.603A8.26 8.26 0 0 0 256 218.013h-8.696a8.257 8.257 0 0 0-4.056 15.452l-6.902 14.003a8.3 8.3 0 0 0-.851 3.65c0 8.368 5.044 15.569 12.247 18.754v15.857a8.257 8.257 0 0 0 8.258 8.258 8.256 8.256 0 0 0 8.258-8.258v-15.851a20.6 20.6 0 0 0 8.693-7.234l6.382 3.145a8.257 8.257 0 0 0 11.058-3.757 8.257 8.257 0 0 0-3.758-11.057" style="fill:#111a21"/></svg>
