<svg xmlns="http://www.w3.org/2000/svg" xml:space="preserve" viewBox="0 0 512 512" width="48" height="48"><path d="M8.258 385.743c0 19.561 15.858 35.418 35.418 35.418h424.648c19.561 0 35.418-15.858 35.418-35.418V256H8.258z" style="fill:#ffe000"/><path d="M468.324 90.839H43.676c-19.561 0-35.418 15.857-35.418 35.417V256h495.484V126.256c0-19.561-15.857-35.417-35.418-35.417" style="fill:#164fce"/><path d="M468.324 82.581H43.676C19.594 82.581 0 102.173 0 126.256v259.487c0 24.084 19.594 43.676 43.676 43.676h424.647c24.083 0 43.676-19.593 43.676-43.676V126.256c.001-24.083-19.593-43.675-43.675-43.675m0 330.322H43.676c-14.977 0-27.16-12.183-27.16-27.16V264.258h388.129a8.257 8.257 0 0 0 8.258-8.258 8.257 8.257 0 0 0-8.258-8.258H16.516V126.256c0-14.976 12.183-27.159 27.16-27.159h424.647c14.977 0 27.16 12.183 27.16 27.159v121.486h-57.806a8.257 8.257 0 0 0-8.258 8.258 8.257 8.257 0 0 0 8.258 8.258h57.806v121.485c.001 14.977-12.183 27.16-27.159 27.16" style="fill:#121b21"/></svg>
