<svg xmlns="http://www.w3.org/2000/svg" xml:space="preserve" viewBox="0 0 512 512" width="48" height="48"><path d="M173.419 200.946h330.323v110.108H173.419z" style="fill:#fff"/><path d="M173.419 200.946h330.323v-74.873c0-19.459-15.775-35.234-35.234-35.234H173.419z" style="fill:#259245"/><path d="M173.419 421.161h295.088c19.459 0 35.234-15.775 35.234-35.234v-74.873H173.419z" style="fill:#333"/><path d="M173.419 90.839v330.323H43.492c-19.459 0-35.234-15.775-35.234-35.234V126.073c0-19.459 15.775-35.234 35.234-35.234z" style="fill:#ed1f34"/><path d="M468.324 82.581H43.675C19.593 82.581 0 102.173 0 126.256v259.487c0 24.084 19.593 43.676 43.675 43.676h424.648c24.084 0 43.676-19.593 43.676-43.676V126.256c.001-24.083-19.592-43.675-43.675-43.675m27.16 43.675v66.432H240.376c-4.561 0-8.258 3.697-8.258 8.258s3.697 8.258 8.258 8.258h255.108v93.591H181.677v-93.591h25.666c4.561 0 8.258-3.697 8.258-8.258s-3.697-8.258-8.258-8.258h-25.666V99.097h286.646c14.977 0 27.161 12.183 27.161 27.159M16.516 385.743V126.256c0-14.976 12.183-27.159 27.159-27.159h121.486v313.806H43.675c-14.975 0-27.159-12.183-27.159-27.16m451.808 27.16H181.677v-93.591h313.806v66.431c.001 14.977-12.183 27.16-27.159 27.16" style="fill:#111a21"/></svg>
