<svg xmlns="http://www.w3.org/2000/svg" xml:space="preserve" viewBox="0 0 512 512" width="48" height="48"><path d="M468.783 90.839H43.217c-19.307 0-34.959 15.652-34.959 34.959v260.404c0 19.307 15.652 34.959 34.959 34.959h425.566c19.307 0 34.959-15.652 34.959-34.959V125.798c0-19.308-15.652-34.959-34.959-34.959" style="fill:#3db4ea"/><path d="M170.605 252.164c.019.062.031.123.051.186.019.058.05.109.069.165 11.761 35.861 45.532 61.842 85.276 61.842s73.515-25.981 85.276-61.842c.02-.057.051-.108.069-.165.02-.063.032-.124.051-.186a89.4 89.4 0 0 0 4.343-27.545c0-29.489-14.302-55.696-36.329-72.063a8 8 0 0 0-1.482-1.055c-14.67-10.448-32.585-16.62-51.927-16.62s-37.257 6.17-51.926 16.619a8 8 0 0 0-1.483 1.056c-22.029 16.368-36.331 42.574-36.331 72.063 0 9.608 1.534 18.86 4.343 27.545m77.137 45.198c-25.995-2.932-47.898-19.526-58.36-42.415l23.255-7.556c6.984 13.244 19.851 22.913 35.106 25.515zm-24.224-72.743c0-7.789 2.758-14.945 7.346-20.547l11.775 16.206-19.064 6.195a33 33 0 0 1-.057-1.854m24.224 31.415c-7.945-2.09-14.705-7.125-19.05-13.859l19.05-6.19zm40.662-29.569-19.042-6.187 11.774-16.206c4.588 5.602 7.346 12.758 7.346 20.547 0 .621-.044 1.232-.078 1.846m-24.146 9.52 19.045 6.189c-4.345 6.732-11.1 11.769-19.045 13.86zM256 210.571l-11.779-16.213A32.3 32.3 0 0 1 256 192.137c4.154 0 8.125.793 11.779 2.221zm8.258 86.791v-24.455c15.254-2.601 28.124-12.275 35.109-25.514l23.257 7.556c-10.463 22.884-32.372 39.481-58.366 42.413m64.964-72.743c0 5.01-.521 9.898-1.483 14.626l-23.256-7.556c.336-2.31.516-4.669.516-7.07 0-13.291-5.327-25.356-13.95-34.192l14.372-19.782c14.618 13.396 23.801 32.631 23.801 53.974M256 151.398a72.75 72.75 0 0 1 36.064 9.535l-14.365 19.771A48.7 48.7 0 0 0 256 175.621a48.7 48.7 0 0 0-21.699 5.083l-14.365-19.771A72.75 72.75 0 0 1 256 151.398m-49.421 19.248 14.372 19.782c-8.623 8.836-13.95 20.901-13.95 34.192 0 2.401.182 4.76.516 7.07l-23.27 7.56a73.3 73.3 0 0 1-1.47-14.63c.002-21.344 9.184-40.579 23.802-53.974" style="fill:#fff"/><path d="M383.982 224.619c0-27.112-8.413-53.041-24.329-74.985a8.257 8.257 0 0 0-11.534-1.837 8.26 8.26 0 0 0-1.837 11.534c13.858 19.107 21.182 41.682 21.182 65.288 0 61.461-50 111.464-111.46 111.467h-.013c-61.46-.003-111.459-50.006-111.459-111.467 0-23.605 7.324-46.181 21.182-65.288a8.26 8.26 0 0 0-1.837-11.534 8.254 8.254 0 0 0-11.534 1.837c-15.916 21.944-24.329 47.874-24.329 74.985 0 62.895 45.602 115.337 105.477 126.002l-15.779 11.583a8.256 8.256 0 0 0-1.771 11.543 8.253 8.253 0 0 0 11.543 1.771L256 354.589l28.513 20.928a8.22 8.22 0 0 0 4.88 1.602 8.257 8.257 0 0 0 4.893-14.916l-15.779-11.583c59.873-10.664 105.475-63.106 105.475-126.001" style="fill:#fff"/><path d="M468.324 429.419H43.676C19.594 429.419 0 409.826 0 385.743V126.257c0-24.083 19.594-43.676 43.676-43.676h424.647c24.083 0 43.676 19.594 43.676 43.676v259.486c.001 24.083-19.593 43.676-43.675 43.676M43.676 99.097c-14.977 0-27.16 12.183-27.16 27.16v259.486c0 14.977 12.183 27.16 27.16 27.16h424.647c14.977 0 27.16-12.183 27.16-27.16V126.257c0-14.977-12.183-27.16-27.16-27.16z" style="fill:#111a21"/></svg>
