<svg xmlns="http://www.w3.org/2000/svg" xml:space="preserve" viewBox="0 0 512 512" width="48" height="48"><path d="M503.742 385.376V126.624c0-19.763-16.022-35.785-35.785-35.785H44.043c-19.763 0-35.785 16.022-35.785 35.785v258.753c0 19.763 16.022 35.785 35.785 35.785h423.914c19.763-.001 35.785-16.022 35.785-35.786" style="fill:#3db4ea"/><path d="M503.742 384.462v3.116c0 18.548-15.035 33.583-33.583 33.583H41.841c-18.548 0-33.583-15.035-33.583-33.583v-3.116zM8.258 311.054h495.484v36.699H8.258zm495.484-183.516v-3.85c0-18.142-14.707-32.848-32.848-32.848H41.106c-18.141 0-32.848 14.707-32.848 32.848v150.668h495.484v-36.71H191.774v-36.699h311.968v-36.699H191.774v-36.71z" style="fill:#fff"/><circle cx="99.416" cy="182.602" r="46.796" style="fill:#f2a643"/><path d="M468.324 82.581H43.676C19.593 82.581 0 102.174 0 126.257v259.486c0 24.083 19.593 43.676 43.676 43.676h424.648c24.083 0 43.675-19.594 43.675-43.676V126.257c.001-24.083-19.592-43.676-43.675-43.676M16.516 376.204V356.01h57.806c4.561 0 8.258-3.696 8.258-8.258s-3.697-8.258-8.258-8.258H16.516v-20.183h478.968v20.183H107.355c-4.561 0-8.258 3.696-8.258 8.258s3.697 8.258 8.258 8.258h388.129v20.194zm0-93.591h478.968v20.183H16.516zM470.71 172.505h24.774v20.183H200.032v-20.183h237.645a8.257 8.257 0 0 0 8.258-8.258 8.257 8.257 0 0 0-8.258-8.258H200.032v-20.194h295.452v20.194H470.71a8.257 8.257 0 0 0-8.258 8.258 8.257 8.257 0 0 0 8.258 8.258m-270.678 36.699h295.452v20.183H200.032zM43.676 99.097h424.648c12.564 0 23.159 8.577 26.246 20.183H191.774a8.257 8.257 0 0 0-8.258 8.258v110.108a8.257 8.257 0 0 0 8.258 8.258h303.71v20.194H16.516v-139.84c0-14.978 12.184-27.161 27.16-27.161m424.648 313.806H43.676c-12.564 0-23.159-8.577-26.246-20.183h477.142c-3.089 11.606-13.684 20.183-26.248 20.183" style="fill:#121b21"/></svg>
