<svg xmlns="http://www.w3.org/2000/svg" xml:space="preserve" viewBox="0 0 512 512" width="48" height="48"><path d="M8.32 204.253h495.493v103.492H8.32z" style="fill:#fff"/><path d="M503.681 204.256H8.32v-78.4c0-19.393 15.68-35.072 35.072-35.072h425.409c19.392 0 35.072 15.68 35.072 35.072z" style="fill:#3db4ea"/><path d="M191.872 182.56c-4.928 0-8.832-4.032-8.832-8.832s4.032-8.832 8.832-8.832c4.928 0 8.832 4.032 8.832 8.832s-4.032 8.832-8.832 8.832m64.128 0c-4.928 0-8.832-4.032-8.832-8.832s4.032-8.832 8.832-8.832c4.928 0 8.768 4.032 8.768 8.832s-3.84 8.832-8.768 8.832m-32.128 0c-4.928 0-8.832-4.032-8.832-8.832s4.032-8.832 8.832-8.832 8.832 4.032 8.832 8.832-3.904 8.832-8.832 8.832M256 130.208c-4.928 0-8.832-4.032-8.832-8.832 0-4.928 4.032-8.832 8.832-8.832 4.928 0 8.768 4.032 8.768 8.832 0 4.928-3.84 8.832-8.768 8.832m-96.192 52.352c-4.928 0-8.832-4.032-8.832-8.832s4.032-8.832 8.832-8.832c4.928 0 8.832 4.032 8.832 8.832s-3.968 8.832-8.832 8.832m32.064-26.432c-4.928 0-8.832-4.032-8.832-8.832 0-4.928 4.032-8.832 8.832-8.832 4.928 0 8.832 4.032 8.832 8.832s-4.032 8.832-8.832 8.832m32 0c-4.928 0-8.832-4.032-8.832-8.832 0-4.928 4.032-8.832 8.832-8.832s8.832 4.032 8.832 8.832-3.904 8.832-8.832 8.832m-32-25.92c-4.928 0-8.832-4.032-8.832-8.832 0-4.928 4.032-8.832 8.832-8.832 4.928 0 8.832 4.032 8.832 8.832 0 4.928-4.032 8.832-8.832 8.832m32 0c-4.928 0-8.832-4.032-8.832-8.832 0-4.928 4.032-8.832 8.832-8.832s8.832 4.032 8.832 8.832c0 4.928-3.904 8.832-8.832 8.832m-64.064 25.92c-4.928 0-8.832-4.032-8.832-8.832 0-4.928 4.032-8.832 8.832-8.832 4.928 0 8.832 4.032 8.832 8.832s-3.968 8.832-8.832 8.832m-32 26.432c-4.928 0-8.832-4.032-8.832-8.832s4.032-8.832 8.832-8.832c4.928 0 8.832 4.032 8.832 8.832s-4.032 8.832-8.832 8.832M256 156.128c-4.928 0-8.832-4.032-8.832-8.832 0-4.928 4.032-8.832 8.832-8.832 4.928 0 8.768 4.032 8.768 8.832s-3.84 8.832-8.768 8.832" style="fill:#fff"/><path d="M469.824 421.217H42.176c-18.688 0-33.92-15.232-33.92-33.92v-79.488h495.488v79.488c-.063 18.751-15.232 33.92-33.92 33.92" style="fill:#259245"/><path d="M497.216 316.064H14.784c-4.48 0-8.064-3.712-8.064-8.32s3.584-8.32 8.064-8.32h482.497c4.48 0 8.064 3.712 8.064 8.32-.064 4.609-3.649 8.32-8.129 8.32m0-103.552H14.784c-4.48 0-8.064-3.712-8.064-8.32s3.584-8.32 8.064-8.32h482.497c4.48 0 8.064 3.712 8.064 8.32-.001 4.608-3.649 8.32-8.129 8.32" style="fill:#b21727"/><path d="M96.32 182.24c-19.072 0-34.688-15.616-34.688-34.688s15.616-34.688 34.688-34.688c4.608 0 8.32 3.712 8.32 8.32s-3.712 8.32-8.32 8.32c-9.984 0-18.176 8.192-18.176 18.176s8.192 18.176 18.176 18.176a8.303 8.303 0 0 1 8.32 8.32c0 4.608-3.84 8.064-8.32 8.064" style="fill:#fff"/><path d="M468.288 429.408H43.712C19.584 429.408 0 409.825 0 385.696V126.304c0-24.128 19.584-43.712 43.712-43.712h424.576c24.128 0 43.712 19.584 43.712 43.712v259.52c0 24.001-19.584 43.584-43.712 43.584M43.712 99.105c-14.976 0-27.2 12.224-27.2 27.2v259.519c0 14.976 12.224 27.2 27.2 27.2h424.576c14.976 0 27.2-12.224 27.2-27.2v-259.52c0-14.976-12.224-27.2-27.2-27.2z" style="fill:#111a21"/></svg>
