<svg xmlns="http://www.w3.org/2000/svg" xml:space="preserve" viewBox="0 0 512 512" width="48" height="48"><path d="M22.069 413.796a35.26 35.26 0 0 0 21.609 7.365h424.647c19.56 0 35.418-15.857 35.418-35.418v-96.71H256.001z" style="fill:#259245"/><path d="M468.324 90.84H43.678a35.26 35.26 0 0 0-21.609 7.364l233.932 124.765h247.741v-96.711c0-19.562-15.857-35.418-35.418-35.418" style="fill:#ed1f34"/><path d="M22.069 98.204C13.673 104.68 8.26 114.835 8.26 126.257v259.485c0 11.424 5.414 21.577 13.809 28.053l233.932-124.763h247.741v-66.064H256.001z" style="fill:#333"/><path d="M8.267 389.721a8.26 8.26 0 0 1-7.374-4.529 8.257 8.257 0 0 1 3.637-11.098l233.194-118.093L4.529 137.906a8.26 8.26 0 0 1 7.461-14.735l247.741 125.46a8.259 8.259 0 0 1 0 14.734L11.99 388.827a8.2 8.2 0 0 1-3.723.894" style="fill:#ffe000"/><path d="M87.304 292.336a8.26 8.26 0 0 1-8.258-8.258 8.26 8.26 0 0 1 8.258-8.258c10.928 0 19.819-8.891 19.819-19.819s-8.891-19.819-19.819-19.819-19.819 8.89-19.819 19.818c0 4.561-3.697 8.258-8.258 8.258s-8.258-3.697-8.258-8.258c0-20.035 16.3-36.335 36.335-36.335s36.335 16.3 36.335 36.335-16.3 36.336-36.335 36.336m416.438-28.078H256.001c-4.561 0-8.258-3.697-8.258-8.258s3.697-8.258 8.258-8.258h247.741c4.561 0 8.258 3.697 8.258 8.258s-3.697 8.258-8.258 8.258" style="fill:#ffe000"/><path d="M468.324 82.582H43.678c-9.851 0-18.948 3.282-26.264 8.805a8 8 0 0 0-.818.643C6.498 100.036.002 112.399.002 126.257v259.486c0 13.908 6.543 26.308 16.701 34.313q.265.227.549.432c7.343 5.598 16.501 8.932 26.425 8.932h424.647c24.083 0 43.676-19.592 43.676-43.676V126.257c0-24.083-19.593-43.675-43.676-43.675m0 16.516c14.976 0 27.16 12.183 27.16 27.16v88.453H258.066L41.474 99.195a28 28 0 0 1 2.203-.097zm0 313.805H43.678a28 28 0 0 1-2.203-.097L258.066 297.29h179.612c4.561 0 8.258-3.697 8.258-8.258s-3.697-8.258-8.258-8.258H256.001c-1.355 0-2.69.334-3.886.971l-228.75 122c-4.256-4.796-6.848-11.101-6.848-18.003V126.257c0-6.902 2.592-13.206 6.848-18.003l228.75 122a8.25 8.25 0 0 0 3.886.971h239.483v49.548H470.71c-4.561 0-8.258 3.697-8.258 8.258s3.697 8.258 8.258 8.258h24.774v88.452c0 14.977-12.184 27.162-27.16 27.162" style="fill:#111a21"/></svg>
