<svg xmlns="http://www.w3.org/2000/svg" xml:space="preserve" viewBox="0 0 512 512" width="48" height="48"><path d="M43.676 90.839c-19.562 0-35.418 15.857-35.418 35.417v259.487c0 19.561 15.857 35.418 35.418 35.418H256V90.839z" style="fill:#ffe000"/><path d="M468.324 90.839H256v330.323h212.324c19.561 0 35.418-15.857 35.418-35.418V126.256c0-19.561-15.857-35.417-35.418-35.417" style="fill:#fff"/><path d="M340.6 317.66c-6.679 0-12.96-2.601-17.682-7.324-4.723-4.723-7.323-11.002-7.323-17.682a24.84 24.84 0 0 1 7.324-17.682c4.721-4.723 11.001-7.323 17.681-7.323a24.84 24.84 0 0 1 17.682 7.324c4.723 4.723 7.323 11.002 7.323 17.681s-2.601 12.96-7.324 17.682c-4.722 4.723-11.002 7.324-17.681 7.324m0-33.495a8.43 8.43 0 0 0-6.002 2.486 8.43 8.43 0 0 0-2.487 6.003c0 2.267.883 4.4 2.486 6.003a8.43 8.43 0 0 0 6.003 2.487 8.43 8.43 0 0 0 6.002-2.486 8.43 8.43 0 0 0 2.487-6.003 8.43 8.43 0 0 0-2.486-6.002 8.43 8.43 0 0 0-6.003-2.488" style="fill:#999"/><path d="M352.442 289.071a8.23 8.23 0 0 1-5.84-2.419 8.257 8.257 0 0 1 0-11.678l78.215-78.215a8.26 8.26 0 0 1 11.679 0 8.257 8.257 0 0 1 0 11.678l-78.215 78.215a8.23 8.23 0 0 1-5.839 2.419" style="fill:#999"/><path d="M420.687 244.51a8.23 8.23 0 0 1-5.84-2.419l-11.842-11.842a8.256 8.256 0 0 1 .001-11.678 8.26 8.26 0 0 1 11.679 0l11.842 11.842a8.256 8.256 0 0 1-.001 11.678 8.23 8.23 0 0 1-5.839 2.419m15.202-15.202a8.23 8.23 0 0 1-5.84-2.419l-11.842-11.842a8.256 8.256 0 0 1 .001-11.678 8.257 8.257 0 0 1 11.678 0l11.842 11.842a8.256 8.256 0 0 1-.001 11.678 8.23 8.23 0 0 1-5.838 2.419m-16.747 88.352a24.84 24.84 0 0 1-17.682-7.324c-4.723-4.723-7.323-11.002-7.323-17.682a24.84 24.84 0 0 1 7.324-17.682c4.721-4.723 11.001-7.323 17.681-7.323 6.679 0 12.96 2.601 17.682 7.324 4.723 4.723 7.323 11.002 7.323 17.681s-2.601 12.96-7.324 17.682c-4.723 4.723-11.002 7.324-17.681 7.324m0-33.495a8.43 8.43 0 0 0-6.002 2.486 8.43 8.43 0 0 0-2.487 6.003c0 2.267.883 4.4 2.486 6.003a8.43 8.43 0 0 0 6.003 2.487 8.43 8.43 0 0 0 6.002-2.486 8.43 8.43 0 0 0 2.487-6.003 8.43 8.43 0 0 0-2.486-6.002 8.43 8.43 0 0 0-6.003-2.488" style="fill:#999"/><path d="M407.3 289.071a8.24 8.24 0 0 1-5.84-2.419l-78.215-78.215a8.258 8.258 0 0 1 11.679-11.678l78.215 78.215a8.257 8.257 0 0 1-5.839 14.097" style="fill:#999"/><path d="M339.055 244.51a8.23 8.23 0 0 1-5.839-2.419 8.256 8.256 0 0 1-.001-11.678l11.842-11.842a8.26 8.26 0 0 1 11.679 0 8.256 8.256 0 0 1 .001 11.678l-11.842 11.842a8.23 8.23 0 0 1-5.84 2.419m-15.202-15.202a8.23 8.23 0 0 1-5.839-2.419 8.256 8.256 0 0 1-.001-11.678l11.842-11.842c3.226-3.225 8.455-3.226 11.678 0a8.256 8.256 0 0 1 .001 11.678l-11.842 11.842a8.23 8.23 0 0 1-5.839 2.419" style="fill:#999"/><path d="M468.324 82.581H43.676C19.594 82.581 0 102.173 0 126.256v259.487c0 24.084 19.594 43.676 43.676 43.676h424.647c24.083 0 43.676-19.593 43.676-43.676V126.256c.001-24.083-19.593-43.675-43.675-43.675m27.16 303.162c0 14.977-12.183 27.16-27.16 27.16H264.258v-256a8.257 8.257 0 0 0-8.258-8.258 8.257 8.257 0 0 0-8.258 8.258v256H43.676c-14.977 0-27.16-12.183-27.16-27.16V126.256c0-14.976 12.183-27.159 27.16-27.159h204.066v24.774a8.257 8.257 0 0 0 8.258 8.258 8.257 8.257 0 0 0 8.258-8.258V99.097h204.066c14.977 0 27.16 12.183 27.16 27.159z" style="fill:#121b21"/></svg>
