<svg xmlns="http://www.w3.org/2000/svg" xml:space="preserve" viewBox="0 0 512 512" width="48" height="48"><path d="M8.258 200.946h495.484v110.108H8.258z" style="fill:#103b9b"/><path d="M8.258 311.054h495.484v77.626c0 17.939-14.543 32.482-32.482 32.482H40.74c-17.939 0-32.482-14.543-32.482-32.482z" style="fill:#ed1f34"/><path d="M45.144 90.839h421.712c20.371 0 36.886 16.514 36.886 36.886v73.222H8.258v-73.222c0-20.372 16.515-36.886 36.886-36.886" style="fill:#ffe000"/><circle cx="190.574" cy="275.093" r="8.258" style="fill:#fff"/><circle cx="222.296" cy="243.029" r="8.258" style="fill:#fff"/><circle cx="244.483" cy="236.907" r="8.258" style="fill:#fff"/><circle cx="203.292" cy="256" r="8.258" style="fill:#fff"/><circle cx="321.426" cy="275.093" r="8.258" style="fill:#fff"/><circle cx="289.704" cy="243.029" r="8.258" style="fill:#fff"/><circle cx="267.517" cy="236.907" r="8.258" style="fill:#fff"/><circle cx="308.708" cy="256" r="8.258" style="fill:#fff"/><path d="M468.324 82.581H43.676C19.593 82.581 0 102.174 0 126.257v259.486c0 24.083 19.593 43.676 43.676 43.676h424.648c24.083 0 43.675-19.594 43.675-43.676V126.257c.001-24.083-19.592-43.676-43.675-43.676M43.676 99.097h424.648c14.976 0 27.159 12.183 27.159 27.16v66.431H16.516v-66.431c0-14.977 12.184-27.16 27.16-27.16m424.648 313.806H43.676c-14.977 0-27.16-12.183-27.16-27.16v-66.431h421.161c4.561 0 8.258-3.696 8.258-8.258s-3.697-8.258-8.258-8.258H16.516v-93.591h478.968v93.591H470.71c-4.561 0-8.258 3.696-8.258 8.258s3.697 8.258 8.258 8.258h24.774v66.431c0 14.977-12.184 27.16-27.16 27.16" style="fill:#121b21"/></svg>
