<svg xmlns="http://www.w3.org/2000/svg" xml:space="preserve" viewBox="0 0 512 512" width="48" height="48"><path d="M503.742 384.069V127.932c0-20.486-16.606-37.093-37.093-37.093H45.351c-20.487 0-37.093 16.606-37.093 37.093V384.07c0 20.486 16.606 37.093 37.093 37.093H466.65c20.486-.002 37.092-16.608 37.092-37.094" style="fill:#ed1f34"/><path d="m169.169 236.505 63.933-3.303L256 173.419l22.898 59.783 63.933 3.303-49.782 40.251 16.615 61.825L256 303.674l-53.664 34.907 16.615-61.825z" style="fill:#ffe000"/><path d="m343.256 228.258-58.567-3.026-20.977-54.766a8.258 8.258 0 0 0-15.424 0l-20.977 54.766-58.567 3.026a8.26 8.26 0 0 0-4.767 14.67l45.604 36.873-15.221 56.638a8.26 8.26 0 0 0 12.479 9.066L256 313.528l49.161 31.977a8.24 8.24 0 0 0 4.503 1.336 8.258 8.258 0 0 0 7.976-10.402l-15.221-56.638 45.604-36.873a8.258 8.258 0 0 0-4.767-14.67m-55.399 42.077a8.26 8.26 0 0 0-2.782 8.564l11.02 41.003-35.59-23.15a8.25 8.25 0 0 0-9.006 0l-35.59 23.15 11.02-41.003a8.26 8.26 0 0 0-2.782-8.564L191.13 243.64l42.4-2.19a8.26 8.26 0 0 0 7.286-5.294l15.186-39.649 15.186 39.649a8.26 8.26 0 0 0 7.286 5.294l42.4 2.19z" style="fill:#121b21"/><path d="M468.324 82.581H43.676C19.594 82.581 0 102.174 0 126.257v259.486c0 24.083 19.594 43.676 43.676 43.676h424.647c24.083 0 43.676-19.594 43.676-43.676V126.257c.001-24.083-19.593-43.676-43.675-43.676m27.16 303.162c0 14.977-12.183 27.16-27.16 27.16H43.676c-14.977 0-27.16-12.183-27.16-27.16V126.257c0-14.977 12.183-27.16 27.16-27.16h424.647c14.977 0 27.16 12.183 27.16 27.16z" style="fill:#121b21"/></svg>
