<svg xmlns="http://www.w3.org/2000/svg" xml:space="preserve" viewBox="0 0 512 512" width="48" height="48"><path d="M8.258 387.578V124.422c0-18.548 15.035-33.583 33.583-33.583h428.318c18.548 0 33.583 15.035 33.583 33.583v263.157c0 18.548-15.035 33.583-33.583 33.583H41.841c-18.548-.001-33.583-15.036-33.583-33.584" style="fill:#fff"/><path d="M256 301.607s-7.256-3.806-15.77-11.511l-7.356 50.687h46.253l-7.357-50.687C263.256 297.8 256 301.607 256 301.607m-42.481-68.197c0-1.844.084-3.66.206-5.46-13.049-5.381-22.236-18.221-22.236-33.211H144.03c0 46.3 37.533 83.834 83.834 83.834.532 0 1.057-.031 1.587-.04-8.583-11.016-15.932-26.021-15.932-45.123m84.962 0c0-1.844-.084-3.66-.206-5.46 13.049-5.381 22.236-18.221 22.236-33.211h47.459c0 46.3-37.533 83.834-83.834 83.834-.532 0-1.057-.031-1.587-.04 8.583-11.016 15.932-26.021 15.932-45.123" style="fill:#ffe000"/><path d="M213.725 227.95c-13.049-5.381-22.236-18.221-22.236-33.211H144.03c0 46.3 37.533 83.834 83.834 83.834.532 0 1.057-.031 1.587-.04m69.03-45.123c0-1.844-.084-3.66-.206-5.46 13.049-5.381 22.236-18.221 22.236-33.211h47.459c0 46.3-37.533 83.834-83.834 83.834-.532 0-1.057-.031-1.587-.04 8.583-11.016 15.932-26.021 15.932-45.123" style="fill:#ffe000"/><path d="M292.061 202.542c-4.084 6.388-10.634 10.559-18.04 10.559s-13.955-4.17-18.046-10.559c-4.084 6.388-10.634 10.559-18.04 10.559s-13.968-4.17-18.046-10.559c-4.024 8.962-6.37 19.535-6.37 30.869 0 45.931 42.481 68.196 42.481 68.196s42.481-22.265 42.481-68.196c0-11.334-2.347-21.907-6.42-30.869" style="fill:#fff"/><path d="M241.84 299.781a8.256 8.256 0 0 1-8.258-8.258V240.16a8.257 8.257 0 0 1 8.258-8.258 8.257 8.257 0 0 1 8.258 8.258v51.363a8.26 8.26 0 0 1-8.258 8.258m28.32 0a8.256 8.256 0 0 1-8.258-8.258V240.16a8.257 8.257 0 0 1 8.258-8.258 8.257 8.257 0 0 1 8.258 8.258v51.363a8.257 8.257 0 0 1-8.258 8.258" style="fill:#ed1f34"/><path d="M213.837 240.159h84.327c.204-2.191.316-4.438.316-6.75 0-11.332-2.345-21.906-6.395-30.869-4.108 6.388-10.66 10.559-18.064 10.559-7.405 0-13.956-4.17-18.046-10.559-4.084 6.388-10.635 10.559-18.04 10.559-7.396 0-13.952-4.161-18.03-10.536-4.042 8.957-6.385 19.522-6.385 30.846-.001 2.311.112 4.56.317 6.75" style="fill:#164fce"/><path d="M81.497 306.333a8.26 8.26 0 0 1-7.92-5.923l-14.348-48.653a8.259 8.259 0 0 1 15.84-4.673l6.428 21.794 6.427-21.794a8.258 8.258 0 1 1 15.84 4.673L89.417 300.41a8.26 8.26 0 0 1-7.92 5.923m363.355 0a8.256 8.256 0 0 1-8.258-8.258v-48.653c0-4.561 3.696-8.258 8.258-8.258s8.258 3.697 8.258 8.258v48.653a8.26 8.26 0 0 1-8.258 8.258" style="fill:#3db4ea"/><path d="M419.033 186.481H320.51a8.257 8.257 0 0 0-8.258 8.258 27.57 27.57 0 0 1-7.725 19.17c-1.178-5.14-2.797-10.101-4.883-14.749a8.26 8.26 0 0 0-6.93-4.854h-.066c-.108-.008-.214.002-.322-.001-.253-.007-.508-.019-.758-.002a8.27 8.27 0 0 0-6.466 3.792c-2.738 4.282-6.769 6.74-11.061 6.747-3.671-.007-7.143-1.816-9.785-5.014v-28.611a8.257 8.257 0 0 0-8.258-8.258H233.53c-4.562 0-8.258 3.697-8.258 8.258s3.696 8.258 8.258 8.258h14.212v20.351c-2.643 3.199-6.114 5.008-9.785 5.014-4.292-.008-8.323-2.465-11.061-6.747a8.23 8.23 0 0 0-6.458-3.793 8 8 0 0 0-.908.003c-.059.002-.118-.003-.177.001h-.065a8.26 8.26 0 0 0-6.93 4.854c-2.087 4.648-3.705 9.61-4.883 14.749a27.56 27.56 0 0 1-7.725-19.17 8.257 8.257 0 0 0-8.258-8.258H92.967c-4.562 0-8.258 3.697-8.258 8.258s3.696 8.258 8.258 8.258h43.195a92 92 0 0 0 1.612 10.826h-21.318c-4.562 0-8.258 3.697-8.258 8.258s3.696 8.258 8.258 8.258h26.482a92 92 0 0 0 5.443 10.826h-8.435a8.257 8.257 0 0 0-8.258 8.258 8.257 8.257 0 0 0 8.258 8.258h20.783c16.294 17.369 39.221 28.423 64.702 29.089a100 100 0 0 0 6.002 6.446l-6.732 46.382a8.26 8.26 0 0 0 8.172 9.444h46.254a8.26 8.26 0 0 0 8.172-9.444l-6.732-46.382a100 100 0 0 0 6.002-6.446c25.481-.666 48.409-11.72 64.702-29.089h20.783a8.256 8.256 0 0 0 8.258-8.258 8.257 8.257 0 0 0-8.258-8.258h-8.435a92 92 0 0 0 5.443-10.826h26.482a8.257 8.257 0 0 0 8.258-8.258 8.257 8.257 0 0 0-8.258-8.258h-21.318a92 92 0 0 0 1.612-10.826h43.195a8.257 8.257 0 1 0 0-16.514m-143.667 87.97a81.6 81.6 0 0 1-8.291 8.861 8.2 8.2 0 0 0-1.572 1.42 85 85 0 0 1-9.479 7.232c-2.588-1.711-6.255-4.375-10.231-7.973l-.018-.017c-10.842-9.818-23.996-26.65-23.996-50.564q0-2.063.116-4.104c.007-.116.022-.23.03-.346l.012-.143q.016-.147.025-.293c.257-3.803.796-7.539 1.638-11.135 4.362 2.57 9.277 3.969 14.338 3.969l.019-.001.024.001c6.539 0 12.84-2.346 18.021-6.533 5.182 4.186 11.482 6.533 18.021 6.533l.024-.001.019.001c5.062 0 9.976-1.401 14.338-3.969.841 3.597 1.381 7.332 1.637 11.135q.01.146.025.293c.005.088.018.176.022.264.004.075.014.149.019.224q.116 2.042.116 4.105c0 16.412-6.085 29.431-13.391 39.151a8.3 8.3 0 0 0-1.466 1.89m-104-29.597a8.3 8.3 0 0 0-1.387-1.589c-9.365-11.152-15.578-25.035-17.241-40.267h31.263a43.98 43.98 0 0 0 21.273 29.969c-.001.149-.011.296-.011.444 0 13.799 3.384 25.624 8.329 35.551-16.662-3.198-31.382-11.895-42.226-24.108m98.218 87.671h-27.168l3.94-27.142c3.233 2.161 5.421 3.332 5.811 3.537a8.26 8.26 0 0 0 7.666 0c.391-.205 2.579-1.376 5.811-3.537zm28.826-63.563c4.946-9.927 8.329-21.753 8.329-35.551 0-.149-.011-.296-.011-.444a43.98 43.98 0 0 0 21.273-29.969h31.263c-1.663 15.233-7.876 29.116-17.241 40.267-.526.469-.995 1-1.387 1.589-10.846 12.213-25.567 20.91-42.226 24.108" style="fill:#1a1c20"/><path d="M468.324 82.581H43.676C19.594 82.581 0 102.173 0 126.256v259.487c0 24.083 19.594 43.676 43.676 43.676h424.647c24.083 0 43.676-19.594 43.676-43.676V126.256c.001-24.083-19.593-43.675-43.675-43.675m27.16 303.162c0 14.977-12.183 27.16-27.16 27.16H43.676c-14.977 0-27.16-12.183-27.16-27.16V126.256c0-14.976 12.183-27.159 27.16-27.159h424.647c14.977 0 27.16 12.183 27.16 27.159z" style="fill:#1a1c20"/></svg>
