<svg xmlns="http://www.w3.org/2000/svg" xml:space="preserve" viewBox="0 0 512 512" width="48" height="48"><path d="M8.258 256h495.484v127.181c0 20.975-17.004 37.98-37.98 37.98H46.239c-20.975 0-37.98-17.004-37.98-37.98z" style="fill:#259245"/><path d="M46.239 90.839h419.524c20.975 0 37.98 17.004 37.98 37.98V256H8.258V128.819c0-20.976 17.004-37.98 37.981-37.98" style="fill:#fff"/><path d="M503.742 264.258H74.323A8.257 8.257 0 0 1 66.065 256a8.257 8.257 0 0 1 8.258-8.258h429.419A8.256 8.256 0 0 1 512 256a8.256 8.256 0 0 1-8.258 8.258" style="fill:#1a1c20"/><path d="M325.832 233.749h-37.81v-21.582l99.38-45.654H266.001c-18.246 0-33.038 14.792-33.038 33.038v34.198H204.43l-11.011-73.161h-37.991v140.397h203.441v-34.198c0-18.245-14.791-33.038-33.037-33.038" style="fill:#ed1f34"/><path d="M387.402 158.256H266.001c-22.771 0-41.296 18.524-41.296 41.296v25.941h-13.167l-9.953-66.133a8.26 8.26 0 0 0-8.167-7.029h-37.971l-.021-.001h-30.83a8.257 8.257 0 0 0-8.258 8.258 8.257 8.257 0 0 0 8.258 8.258h22.572v16.516h-22.572a8.257 8.257 0 0 0-8.258 8.258 8.257 8.257 0 0 0 8.258 8.258h22.572v141.276h-18.277c-4.561 0-8.258 3.696-8.258 8.258s3.697 8.258 8.258 8.258h37.546c4.561 0 8.258-3.696 8.258-8.258s-3.697-8.258-8.258-8.258h-2.753v-33.91h116.217v33.91h-18.278c-4.561 0-8.258 3.696-8.258 8.258s3.697 8.258 8.258 8.258h37.547c4.562 0 8.258-3.696 8.258-8.258s-3.696-8.258-8.258-8.258h-2.753v-33.91h54.192v33.91h-18.277c-4.561 0-8.258 3.696-8.258 8.258s3.697 8.258 8.258 8.258h37.546c4.562 0 8.258-3.696 8.258-8.258s-3.696-8.258-8.258-8.258h-2.753v-76.367c0-22.77-18.525-41.295-41.295-41.295h-29.552v-8.03l94.569-43.444a8.26 8.26 0 0 0-3.445-15.762m-102.827 46.407a8.26 8.26 0 0 0-4.811 7.504v45.343c0 4.562 3.696 8.258 8.258 8.258s8.258-3.696 8.258-8.258v-15.502h29.552c13.662 0 24.779 11.116 24.779 24.779v25.941H163.686v-123.88h22.625l9.953 66.132a8.26 8.26 0 0 0 8.166 7.029h28.533a8.257 8.257 0 0 0 8.258-8.258v-34.199c0-13.663 11.116-24.78 24.78-24.78h83.643z" style="fill:#1a1c20"/><path d="M468.324 82.581H43.676C19.593 82.581 0 102.174 0 126.257v259.486c0 24.083 19.593 43.676 43.676 43.676h424.648c24.082 0 43.675-19.594 43.675-43.676V126.257c.001-24.083-19.593-43.676-43.675-43.676m27.16 303.162c0 14.977-12.183 27.16-27.16 27.16H43.676c-14.977 0-27.16-12.183-27.16-27.16V264.258H41.29A8.257 8.257 0 0 0 49.548 256a8.257 8.257 0 0 0-8.258-8.258H16.516V126.257c0-14.977 12.183-27.16 27.16-27.16h424.648c14.976 0 27.159 12.183 27.159 27.16z" style="fill:#1a1c20"/></svg>
