<svg xmlns="http://www.w3.org/2000/svg" xml:space="preserve" viewBox="0 0 512 512" width="48" height="48"><path d="M503.742 127.981v256.036c0 20.513-16.63 37.143-37.143 37.143H45.401c-20.513 0-37.143-16.63-37.143-37.143V127.981c0-20.513 16.63-37.143 37.143-37.143h421.198c20.513.001 37.143 16.63 37.143 37.143" style="fill:#259245"/><path d="M448.688 421.161V200.946h55.054v184.67c0 19.631-15.914 35.545-35.545 35.545z" style="fill:#ff7900"/><path d="M338.581 200.946h55.054v220.215h-55.054z" style="fill:#ed1f34"/><path d="M393.634 200.946h55.054v220.215h-55.054z" style="fill:#333"/><path d="M474.35 130.477h-35.024a8.25 8.25 0 0 0-5.427 2.034l-12.737 11.105-12.737-11.105a8.26 8.26 0 0 0-5.427-2.034h-35.024c-4.562 0-8.258 3.696-8.258 8.258s3.696 8.258 8.258 8.258h31.929l15.832 13.803a8.25 8.25 0 0 0 5.427 2.034 8.23 8.23 0 0 0 5.427-2.034l15.832-13.803h31.929a8.258 8.258 0 0 0 0-16.516" style="fill:#111a21"/><path d="M468.324 82.581H43.676C19.594 82.581 0 102.174 0 126.257v259.486c0 24.083 19.594 43.676 43.676 43.676h424.647c24.083 0 43.676-19.594 43.676-43.676V126.257c.001-24.083-19.593-43.676-43.675-43.676m27.16 110.107H338.581a8.256 8.256 0 0 0-8.258 8.258v154.151c0 4.562 3.696 8.258 8.258 8.258s8.258-3.696 8.258-8.258V209.204h148.645v176.539c0 14.977-12.183 27.16-27.16 27.16H346.839v-24.774c0-4.562-3.696-8.258-8.258-8.258s-8.258 3.696-8.258 8.258v24.774H43.676c-14.977 0-27.16-12.183-27.16-27.16V126.257c0-14.977 12.183-27.16 27.16-27.16h424.647c14.977 0 27.16 12.183 27.16 27.16z" style="fill:#111a21"/></svg>
