<svg xmlns="http://www.w3.org/2000/svg" xml:space="preserve" viewBox="0 0 512 512" width="48" height="48"><path d="M8.258 232.404h495.484v47.192H8.258z" style="fill:#333"/><path d="M8.258 279.596h495.484v47.192H8.258zm0-94.384h495.484v47.192H8.258z" style="fill:#ed1f34"/><path d="M8.258 326.788h495.484v47.181H8.258zm0-188.757h495.484v47.181H8.258z" style="fill:#ffe000"/><path d="M43.676 421.161h424.648c19.561 0 35.418-15.857 35.418-35.418v-11.774H79.046l-58.228 38.82a35.26 35.26 0 0 0 22.858 8.372M468.324 90.839H43.676a35.26 35.26 0 0 0-22.858 8.373l58.228 38.819h424.696v-11.774c0-19.562-15.857-35.418-35.418-35.418" style="fill:#259245"/><path d="M462.452 138.031a8.256 8.256 0 0 1 8.258-8.258h33.032a8.256 8.256 0 0 1 8.258 8.258 8.256 8.256 0 0 1-8.258 8.258H470.71a8.256 8.256 0 0 1-8.258-8.258M8.258 146.289h429.419a8.256 8.256 0 0 0 8.258-8.258 8.256 8.256 0 0 0-8.258-8.258H8.258A8.257 8.257 0 0 0 0 138.031a8.257 8.257 0 0 0 8.258 8.258m0 47.181h495.484a8.257 8.257 0 0 0 8.258-8.258 8.256 8.256 0 0 0-8.258-8.258H8.258A8.257 8.257 0 0 0 0 185.212a8.26 8.26 0 0 0 8.258 8.258m495.484 30.676H8.258A8.257 8.257 0 0 0 0 232.404a8.257 8.257 0 0 0 8.258 8.258h495.484a8.256 8.256 0 0 0 8.258-8.258 8.257 8.257 0 0 0-8.258-8.258m0 47.192H8.258c-4.561 0-8.258 3.696-8.258 8.258s3.697 8.258 8.258 8.258h495.484a8.256 8.256 0 0 0 8.258-8.258 8.256 8.256 0 0 0-8.258-8.258M8.258 335.046h396.387c4.562 0 8.258-3.696 8.258-8.258s-3.696-8.258-8.258-8.258H8.258c-4.561 0-8.258 3.696-8.258 8.258s3.697 8.258 8.258 8.258m495.484-16.516h-66.065c-4.562 0-8.258 3.696-8.258 8.258s3.696 8.258 8.258 8.258h66.065c4.562 0 8.258-3.696 8.258-8.258s-3.696-8.258-8.258-8.258m0 47.181H8.258A8.26 8.26 0 0 0 0 373.969a8.257 8.257 0 0 0 8.258 8.258h495.484a8.256 8.256 0 0 0 8.258-8.258 8.256 8.256 0 0 0-8.258-8.258" style="fill:#111a21"/><path d="M8.258 126.257v259.486c0 10.847 4.881 20.548 12.56 27.046l58.228-38.819L256 256 79.046 138.031l-58.229-38.82c-7.678 6.498-12.559 16.199-12.559 27.046" style="fill:#fff"/><path d="m31.931 237.335 45.806-2.368 16.405-42.832 16.405 42.832 45.806 2.368-35.666 28.838 11.903 44.294-38.448-25.009-38.449 25.009 11.904-44.294z" style="fill:#ed1f34"/><path d="m125.802 264.019-36.289-30.637v-10.68c0-7.242-5.872-13.115-13.116-13.115s-13.115 5.873-13.115 13.115v41.318l7.978 27.047h46.563z" style="fill:#ffe000"/><path d="m141.784 266.706-10.653-8.994-.002-.002h-.001L97.77 229.547v-6.844c0-11.785-9.588-21.373-21.374-21.373-8.859 0-16.474 5.419-19.71 13.115h-2.84a8.257 8.257 0 0 0-8.258 8.258 8.257 8.257 0 0 0 8.258 8.258h1.177v33.059c0 .362.031.717.076 1.067q.017.126.039.252.077.48.206.939c.008.025.01.053.017.078l.023.079.018.062 7.937 26.906a8.26 8.26 0 0 0 7.92 5.922h46.563a8.26 8.26 0 0 0 7.92-5.922l4.399-14.912.988.834a8.23 8.23 0 0 0 5.324 1.949 8.259 8.259 0 0 0 5.331-14.568m-65.387-48.86a4.863 4.863 0 0 1 4.858 4.857v10.679a8.26 8.26 0 0 0 2.931 6.31l19.034 16.07H71.539v-33.059a4.86 4.86 0 0 1 4.858-4.857m1.036 64.963-3.106-10.531h40.429l-3.106 10.531z" style="fill:#111a21"/><path d="M468.324 82.581H43.676c-10.579 0-20.291 3.783-27.856 10.065a8.5 8.5 0 0 0-.848.734C5.806 101.393 0 113.156 0 126.257v259.486c0 13.167 5.865 24.982 15.11 32.997.192.185.392.355.598.519 7.582 6.337 17.335 10.161 27.968 10.161h424.648c24.082 0 43.675-19.594 43.675-43.676V126.257c.001-24.083-19.593-43.676-43.675-43.676M21.994 402.08a27.03 27.03 0 0 1-5.478-16.337V126.257a27 27 0 0 1 5.478-16.336L241.112 256zm473.49-16.337c0 14.977-12.183 27.16-27.16 27.16H43.676c-2.361 0-4.65-.304-6.835-.872l223.74-149.16a8.256 8.256 0 0 0 0-13.742L36.84 99.969a27.2 27.2 0 0 1 6.837-.872h424.648c14.976 0 27.159 12.183 27.159 27.16z" style="fill:#111a21"/></svg>
