<?xml version="1.0" encoding="iso-8859-1"?>
<!-- Generator: Adobe Illustrator 19.0.0, SVG Export Plug-In . SVG Version: 6.00 Build 0)  -->
<svg version="1.1" id="Capa_1" xmlns="http://www.w3.org/2000/svg" xmlns:xlink="http://www.w3.org/1999/xlink" x="0px" y="0px"
	 viewBox="0 0 512 512" style="enable-background:new 0 0 512 512;" xml:space="preserve">
<path style="fill:#898998;" d="M256,10L256,10c120.951,0,219,98.05,219,219v273H37V229C37,108.05,135.05,10,256,10z"/>
<polygon style="fill:#B3B6C3;" points="74.26,502 147.275,394 363.105,391.604 437.74,502 "/>
<path style="fill:#4DBAF6;" d="M349.333,106H162.667C140.207,106,122,124.207,122,146.667v206.667
	c0,22.46,18.207,40.667,40.667,40.667h186.667c22.46,0,40.667-18.207,40.667-40.667V146.667C390,124.207,371.793,106,349.333,106z"
	/>
<rect x="122" y="178" style="fill:#FFFFFF;" width="268" height="128"/>
<path d="M475,368.48c-2.63,0-5.21,1.07-7.07,2.93c-1.86,1.86-2.93,4.44-2.93,7.07s1.069,5.21,2.93,7.07
	c1.86,1.87,4.44,2.93,7.07,2.93s5.21-1.06,7.069-2.93c1.86-1.86,2.931-4.44,2.931-7.07s-1.07-5.21-2.931-7.07
	C480.21,369.55,477.63,368.48,475,368.48z"/>
<path d="M417.928,67.072C374.675,23.82,317.168,0,256,0S137.325,23.82,94.072,67.072C50.82,110.325,27,167.832,27,229v273
	c0,5.523,4.478,10,10,10h438c5.522,0,10-4.477,10-10v-66c0-5.523-4.478-10-10-10s-10,4.477-10,10v56h-21.95l-65.37-96.692
	c13.458-9.118,22.32-24.53,22.32-41.974V178.005c0-0.003,0-0.007,0-0.01v-31.328C400,118.729,377.271,96,349.333,96H162.667
	C134.729,96,112,118.729,112,146.667v206.667c0,17.444,8.862,32.856,22.32,41.974L68.95,492H47V229c0-115.243,93.757-209,209-209
	s209,93.757,209,209v101.483c0,5.523,4.478,10,10,10s10-4.477,10-10V229C485,167.832,461.18,110.325,417.928,67.072z
	 M212.991,215.849c-3.906-3.905-10.236-3.905-14.143,0L132,282.697V188h114v108h-99.018l66.009-66.009
	C216.896,226.086,216.896,219.754,212.991,215.849z M266,188h99.857l-57.429,57.429c-3.905,3.905-3.905,10.237,0,14.143
	c1.953,1.953,4.512,2.929,7.071,2.929s5.118-0.976,7.071-2.929L380,202.143V296H266V188z M162.667,116h186.666
	c16.91,0,30.667,13.757,30.667,30.667V168H132v-21.333C132,129.757,145.757,116,162.667,116z M132,316h248v37.333
	c0,16.91-13.757,30.667-30.667,30.667H162.667C145.757,384,132,370.243,132,353.333V316z M162.667,404h186.666
	c3.238,0,6.402-0.318,9.473-0.901L382.402,438H129.598l23.596-34.901C156.265,403.682,159.429,404,162.667,404z M116.077,458
	h279.846l22.986,34H93.091L116.077,458z"/>
<path d="M173.33,360c2.64,0,5.21-1.07,7.069-2.93c1.86-1.86,2.931-4.44,2.931-7.07s-1.07-5.21-2.931-7.07
	c-1.859-1.86-4.439-2.93-7.069-2.93s-5.21,1.07-7.07,2.93s-2.93,4.44-2.93,7.07s1.069,5.21,2.93,7.07S170.7,360,173.33,360z"/>
<path d="M338.67,360c2.63,0,5.21-1.07,7.07-2.93c1.859-1.86,2.93-4.44,2.93-7.07s-1.07-5.21-2.93-7.07
	c-1.86-1.86-4.44-2.93-7.07-2.93s-5.21,1.07-7.07,2.93c-1.859,1.86-2.93,4.44-2.93,7.07s1.07,5.21,2.93,7.07
	C333.46,358.93,336.04,360,338.67,360z"/>
<path d="M217.097,360h77.807c5.522,0,10-4.477,10-10s-4.478-10-10-10h-77.807c-5.522,0-10,4.477-10,10S211.574,360,217.097,360z"/>
<g>
</g>
<g>
</g>
<g>
</g>
<g>
</g>
<g>
</g>
<g>
</g>
<g>
</g>
<g>
</g>
<g>
</g>
<g>
</g>
<g>
</g>
<g>
</g>
<g>
</g>
<g>
</g>
<g>
</g>
</svg>
