<svg xmlns="http://www.w3.org/2000/svg" viewBox="0 0 512 512" width="48" height="48"><path fill="#ffe07d" d="M211.81 31.082h260.712V504.5H211.81z"/><path fill="#ffd064" d="M211.81 31.082h260.712v34.626H211.81z"/><path fill="#ffd064" d="M211.81 31.082h35.851V504.5H211.81z"/><path fill="#3342aa" d="M317.091 191.584h-22.079c-9.963 0-18.039-8.077-18.039-18.039v-72.967c0-9.963 8.077-18.039 18.039-18.039h22.079c9.963 0 18.039 8.077 18.039 18.039v72.967c.001 9.963-8.076 18.039-18.039 18.039m103.484 0h-22.079c-9.963 0-18.039-8.077-18.039-18.039v-72.967c0-9.963 8.077-18.039 18.039-18.039h22.079c9.963 0 18.039 8.077 18.039 18.039v72.967c0 9.963-8.076 18.039-18.039 18.039M317.091 335.786h-22.079c-9.963 0-18.039-8.077-18.039-18.039V244.78c0-9.963 8.077-18.039 18.039-18.039h22.079c9.963 0 18.039 8.077 18.039 18.039v72.967c.001 9.962-8.076 18.039-18.039 18.039m103.484 0h-22.079c-9.963 0-18.039-8.077-18.039-18.039V244.78c0-9.963 8.077-18.039 18.039-18.039h22.079c9.963 0 18.039 8.077 18.039 18.039v72.967c0 9.962-8.076 18.039-18.039 18.039M317.091 479.988h-22.079c-9.963 0-18.039-8.077-18.039-18.039v-72.967c0-9.963 8.077-18.039 18.039-18.039h22.079c9.963 0 18.039 8.077 18.039 18.039v72.967c.001 9.962-8.076 18.039-18.039 18.039m103.484 0h-22.079c-9.963 0-18.039-8.077-18.039-18.039v-72.967c0-9.963 8.077-18.039 18.039-18.039h22.079c9.963 0 18.039 8.077 18.039 18.039v72.967c0 9.962-8.076 18.039-18.039 18.039"/><path fill="#b1e4f9" d="M43.792 181.808h241.425V504.5H43.792z"/><path fill="#90d8f9" d="M43.792 181.808h241.425v37.286H43.792z"/><path fill="#90d8f9" d="M43.792 181.808h25.626V504.5H43.792z"/><path fill="#f6f9f9" d="M295.502 146.283H33.507c-8.84 0-16.006 7.166-16.006 16.006v22.841c0 8.84 7.166 16.006 16.006 16.006h261.996c8.84 0 16.006-7.166 16.006-16.006v-22.84c-.001-8.84-7.167-16.007-16.007-16.007"/><path fill="#dddaec" d="M88.05 201.14H33.51c-8.84 0-16.01-7.16-16.01-16v-22.85c0-8.84 7.17-16 16.01-16h54.54c-8.84 0-16.01 7.16-16.01 16v22.85c.001 8.84 7.171 16 16.01 16"/><path fill="#3342aa" d="M127.267 330.508h-20.199c-9.115 0-16.504-7.389-16.504-16.504v-66.755c0-9.115 7.389-16.504 16.504-16.504h20.199c9.115 0 16.504 7.389 16.504 16.504v66.755c0 9.115-7.389 16.504-16.504 16.504m94.674 0h-20.199c-9.115 0-16.504-7.389-16.504-16.504v-66.755c0-9.115 7.389-16.504 16.504-16.504h20.199c9.115 0 16.504 7.389 16.504 16.504v66.755c0 9.115-7.389 16.504-16.504 16.504m-94.674 136.674h-20.199c-9.115 0-16.504-7.389-16.504-16.504v-66.755c0-9.115 7.389-16.504 16.504-16.504h20.199c9.115 0 16.504 7.389 16.504 16.504v66.755c0 9.115-7.389 16.504-16.504 16.504m94.674 0h-20.199c-9.115 0-16.504-7.389-16.504-16.504v-66.755c0-9.115 7.389-16.504 16.504-16.504h20.199c9.115 0 16.504 7.389 16.504 16.504v66.755c0 9.115-7.389 16.504-16.504 16.504"/><path fill="#dd636e" d="M479.108 7.5H205.224c-7.749 0-14.032 6.282-14.032 14.032v11.979c0 7.749 6.282 14.032 14.032 14.032h273.884c7.749 0 14.032-6.282 14.032-14.032V21.532c-.001-7.75-6.283-14.032-14.032-14.032"/><path fill="#da4a54" d="M258.922 47.542h-53.7c-7.75 0-14.03-6.28-14.03-14.03v-11.98c0-7.75 6.28-14.03 14.03-14.03h53.7c-7.75 0-14.04 6.28-14.04 14.03v11.98c0 7.75 6.29 14.03 14.04 14.03"/><path d="M420.575 75.038h-22.079c-14.082 0-25.539 11.457-25.539 25.54v72.967c0 14.083 11.457 25.539 25.539 25.539h22.079c14.082 0 25.539-11.457 25.539-25.539v-72.967c0-14.083-11.457-25.54-25.539-25.54m-22.079 15h22.079c5.812 0 10.539 4.728 10.539 10.54v10.083h-43.157v-10.083c0-5.812 4.728-10.54 10.539-10.54m22.079 94.046h-22.079c-5.812 0-10.539-4.728-10.539-10.539V125.66h43.157v47.885c0 5.811-4.727 10.539-10.539 10.539m0 35.156h-22.079c-14.082 0-25.539 11.457-25.539 25.54v72.967c0 14.083 11.457 25.54 25.539 25.54h22.079c14.082 0 25.539-11.457 25.539-25.54V244.78c0-14.083-11.457-25.54-25.539-25.54m-22.079 15h22.079c5.812 0 10.539 4.728 10.539 10.54v10.082h-43.157V244.78c0-5.812 4.728-10.54 10.539-10.54m22.079 94.046h-22.079c-5.812 0-10.539-4.728-10.539-10.54v-47.885h43.157v47.885c0 5.812-4.727 10.54-10.539 10.54m0 35.156h-22.079c-14.082 0-25.539 11.457-25.539 25.54v72.967c0 14.083 11.457 25.54 25.539 25.54h22.079c14.082 0 25.539-11.457 25.539-25.54v-72.967c0-14.083-11.457-25.54-25.539-25.54m-22.079 15h22.079c5.812 0 10.539 4.728 10.539 10.54v10.082h-43.157v-10.082c0-5.812 4.728-10.54 10.539-10.54m22.079 94.046h-22.079c-5.812 0-10.539-4.728-10.539-10.54v-47.885h43.157v47.885c0 5.812-4.727 10.54-10.539 10.54m-313.507-134.48h20.199c13.235 0 24.003-10.768 24.003-24.004v-66.755c0-13.235-10.768-24.003-24.003-24.003h-20.199c-13.235 0-24.004 10.768-24.004 24.003v66.755c0 13.236 10.769 24.004 24.004 24.004m20.2-15h-20.199c-4.965 0-9.004-4.039-9.004-9.004v-43.169h38.206v43.169c0 4.965-4.04 9.004-9.003 9.004m-20.2-84.762h20.199c4.964 0 9.003 4.039 9.003 9.003v8.585H98.064v-8.585c0-4.964 4.04-9.003 9.004-9.003m94.674 99.762h20.199c13.235 0 24.003-10.768 24.003-24.004v-66.755c0-13.235-10.768-24.003-24.003-24.003h-20.199c-13.235 0-24.004 10.768-24.004 24.003v66.755c0 13.236 10.769 24.004 24.004 24.004m20.199-15h-20.199c-4.965 0-9.004-4.039-9.004-9.004v-43.169h38.206v43.169c0 4.965-4.039 9.004-9.003 9.004m-20.199-84.762h20.199c4.964 0 9.003 4.039 9.003 9.003v8.585h-38.206v-8.585c0-4.964 4.039-9.003 9.004-9.003M83.064 450.679c0 13.235 10.769 24.003 24.004 24.003h20.199c13.235 0 24.003-10.768 24.003-24.003v-66.755c0-13.235-10.768-24.003-24.003-24.003h-20.199c-13.235 0-24.004 10.768-24.004 24.003zm44.204 9.003h-20.199c-4.965 0-9.004-4.039-9.004-9.003v-43.17h38.206v43.17c0 4.964-4.04 9.003-9.003 9.003m-20.2-84.762h20.199c4.964 0 9.003 4.039 9.003 9.003v8.585H98.064v-8.585c0-4.964 4.04-9.003 9.004-9.003m70.67 75.759c0 13.235 10.769 24.003 24.004 24.003h20.199c13.235 0 24.003-10.768 24.003-24.003v-66.755c0-13.235-10.768-24.003-24.003-24.003h-20.199c-13.235 0-24.004 10.768-24.004 24.003zm44.203 9.003h-20.199c-4.965 0-9.004-4.039-9.004-9.003v-43.17h38.206v43.17c0 4.964-4.039 9.003-9.003 9.003m-20.199-84.762h20.199c4.964 0 9.003 4.039 9.003 9.003v8.585h-38.206v-8.585c0-4.964 4.039-9.003 9.004-9.003"/><path d="M504.5 497h-24.479V54.994c11.448-.482 20.619-9.92 20.619-21.484V21.53C500.64 9.658 490.981 0 479.11 0H205.22c-11.871 0-21.529 9.658-21.529 21.53v11.98c0 11.565 9.172 21.002 20.62 21.484v83.789H33.507c-12.961 0-23.506 10.545-23.506 23.506v22.841c0 12.961 10.545 23.506 23.506 23.506h2.783V411.52c0 4.142 3.357 7.5 7.5 7.5s7.5-3.358 7.5-7.5V208.64h226.43V497H51.29v-55.5c0-4.142-3.357-7.5-7.5-7.5s-7.5 3.358-7.5 7.5V497H7.5c-4.143 0-7.5 3.358-7.5 7.5s3.357 7.5 7.5 7.5h497c4.143 0 7.5-3.358 7.5-7.5s-3.357-7.5-7.5-7.5M25.001 185.131V162.29c0-4.69 3.815-8.506 8.506-8.506h261.995c4.69 0 8.507 3.816 8.507 8.506v22.841c0 4.69-3.816 8.506-8.507 8.506H33.507c-4.691 0-8.506-3.816-8.506-8.506m302.63-74.471h-43.16v-10.08c0-5.812 4.729-10.54 10.54-10.54h22.08c5.812 0 10.54 4.728 10.54 10.54zm-43.16 15h43.16v47.88c0 5.156-3.724 9.451-8.622 10.357V162.29c0-12.961-10.545-23.506-23.507-23.506h-11.031zm8.249 288.4h34.911v47.89c0 5.812-4.729 10.54-10.54 10.54h-22.08c-.779 0-1.542-.111-2.291-.278zm34.911-15H292.72v-20.343a10.5 10.5 0 0 1 2.291-.278h22.08c5.812 0 10.54 4.728 10.54 10.54zm-34.911-129.2h34.911v47.89c0 5.812-4.729 10.54-10.54 10.54h-22.08c-.779 0-1.542-.111-2.291-.278zm34.911-15H292.72v-20.342a10.6 10.6 0 0 1 2.291-.277h22.08c5.812 0 10.54 4.728 10.54 10.54zM292.72 497v-9.624c.76.068 1.522.114 2.291.114h22.08c14.083 0 25.54-11.457 25.54-25.54v-72.97c0-14.083-11.457-25.54-25.54-25.54h-22.08c-.769 0-1.531.046-2.291.114v-20.378c.76.068 1.522.114 2.291.114h22.08c14.083 0 25.54-11.457 25.54-25.54v-72.97c0-14.083-11.457-25.54-25.54-25.54h-22.08c-.769 0-1.531.046-2.291.114v-10.717h2.782c7.743 0 14.621-3.764 18.906-9.557h2.683c14.083 0 25.54-11.457 25.54-25.54v-72.96c0-14.083-11.457-25.54-25.54-25.54h-22.08c-14.083 0-25.54 11.457-25.54 25.54v38.203h-50.16V55.04h162.35c4.143 0 7.5-3.358 7.5-7.5s-3.357-7.5-7.5-7.5H205.22a6.537 6.537 0 0 1-6.529-6.53V21.53A6.537 6.537 0 0 1 205.22 15h273.89a6.536 6.536 0 0 1 6.529 6.53v11.98a6.537 6.537 0 0 1-6.529 6.53h-67.55c-4.143 0-7.5 3.358-7.5 7.5s3.357 7.5 7.5 7.5h53.461V497z"/></svg>
