<svg xmlns="http://www.w3.org/2000/svg" viewBox="0 0 512 512" width="48" height="48"><path d="M121.22-127.846c-23.79 0-43.374 19.584-43.374 43.375v11.98c0 15.475 8.307 29.05 20.619 36.704v46.725H-50.492c-24.877 0-45.352 20.474-45.352 45.351v22.842c0 18.088 10.84 33.683 26.287 40.918v249.105H-76.5c-16.11 0-29.346 13.237-29.346 29.346s13.236 29.346 29.346 29.346h497c16.11 0 29.346-13.237 29.346-29.346s-13.236-29.346-29.346-29.346h-2.633V-35.787c12.312-7.654 20.62-21.23 20.62-36.703v-11.98c0-23.794-19.588-43.376-43.378-43.376zm35.936 98.73h202.02v398.27h-128.61v-1.357c.017-.095-.016.367.045-.352a54 54 0 0 0 .16-2.974c.064-1.947.094-4.32.112-7.133.036-5.631.012-12.954-.035-20.28-.095-14.652-.282-29.279-.282-29.279-.003-4.036.003-10.461 0-14.42.015-.412.186-5.017.28-10.132.049-2.678.08-5.382.035-7.805-.021-1.13-.051-2.405-.194-3.922-.12-1.291-.1-.808-.12-.785-.002-4.034 0-9.379 0-13.16v-33.96c.016-.094-.017.368.044-.35.094-1.096.13-2.044.16-2.975.064-1.947.094-4.32.112-7.133.036-5.632.012-12.954-.035-20.28-.095-14.652-.282-29.279-.282-29.279v-14.42c.015-.415.186-5.016.28-10.13.049-2.677.08-5.383.035-7.805-.021-1.13-.051-2.406-.194-3.922-.12-1.291-.1-.808-.12-.785v-5.965a44.6 44.6 0 0 0 7.783-4.33c10.267-7.15 17.747-20.004 17.959-35.526l.023-.05.508-23.387c.237-3.352.359-12.144-3.873-21.625-5.924-13.272-21.039-24.695-41.465-24.696h-54.346ZM-10.865 124.487h182.74v244.668h-182.74V335.5Z" style="fill:#e0ae00;fill-opacity:1" transform="translate(97.524 117.794)scale(.92137)"/><path fill="#ffe07d" d="M210.197 48.766H450.41v436.196H210.197Z"/><path fill="#3342aa" d="M317.091 191.584h-22.079c-9.963 0-18.039-8.077-18.039-18.039v-72.967c0-9.963 8.077-18.039 18.039-18.039h22.079c9.963 0 18.039 8.077 18.039 18.039v72.967c.001 9.963-8.076 18.039-18.039 18.039m103.484 0h-22.079c-9.963 0-18.039-8.077-18.039-18.039v-72.967c0-9.963 8.077-18.039 18.039-18.039h22.079c9.963 0 18.039 8.077 18.039 18.039v72.967c0 9.963-8.076 18.039-18.039 18.039M317.091 335.786h-22.079c-9.963 0-18.039-8.077-18.039-18.039V244.78c0-9.963 8.077-18.039 18.039-18.039h22.079c9.963 0 18.039 8.077 18.039 18.039v72.967c.001 9.962-8.076 18.039-18.039 18.039m103.484 0h-22.079c-9.963 0-18.039-8.077-18.039-18.039V244.78c0-9.963 8.077-18.039 18.039-18.039h22.079c9.963 0 18.039 8.077 18.039 18.039v72.967c0 9.962-8.076 18.039-18.039 18.039M317.091 479.988h-22.079c-9.963 0-18.039-8.077-18.039-18.039v-72.967c0-9.963 8.077-18.039 18.039-18.039h22.079c9.963 0 18.039 8.077 18.039 18.039v72.967c.001 9.962-8.076 18.039-18.039 18.039m103.484 0h-22.079c-9.963 0-18.039-8.077-18.039-18.039v-72.967c0-9.963 8.077-18.039 18.039-18.039h22.079c9.963 0 18.039 8.077 18.039 18.039v72.967c0 9.962-8.076 18.039-18.039 18.039" style="fill:#ffd141;fill-opacity:1" transform="translate(15.04 20.128)scale(.92137)"/><path fill="#b1e4f9" d="M55.39 187.641h222.442v297.32H55.39Z"/><path fill="#f6f9f9" d="M295.502 146.283H33.507c-8.84 0-16.006 7.166-16.006 16.006v22.841c0 8.84 7.166 16.006 16.006 16.006h261.996c8.84 0 16.006-7.166 16.006-16.006v-22.84c-.001-8.84-7.167-16.007-16.007-16.007" style="fill:#ffeeb4;fill-opacity:1" transform="translate(15.04 20.128)scale(.92137)"/><path fill="#3342aa" d="M127.267 330.508h-20.199c-9.115 0-16.504-7.389-16.504-16.504v-66.755c0-9.115 7.389-16.504 16.504-16.504h20.199c9.115 0 16.504 7.389 16.504 16.504v66.755c0 9.115-7.389 16.504-16.504 16.504m94.674 0h-20.199c-9.115 0-16.504-7.389-16.504-16.504v-66.755c0-9.115 7.389-16.504 16.504-16.504h20.199c9.115 0 16.504 7.389 16.504 16.504v66.755c0 9.115-7.389 16.504-16.504 16.504m-94.674 136.674h-20.199c-9.115 0-16.504-7.389-16.504-16.504v-66.755c0-9.115 7.389-16.504 16.504-16.504h20.199c9.115 0 16.504 7.389 16.504 16.504v66.755c0 9.115-7.389 16.504-16.504 16.504m94.674 0h-20.199c-9.115 0-16.504-7.389-16.504-16.504v-66.755c0-9.115 7.389-16.504 16.504-16.504h20.199c9.115 0 16.504 7.389 16.504 16.504v66.755c0 9.115-7.389 16.504-16.504 16.504" style="fill:#4ec2f5;fill-opacity:1" transform="translate(15.04 20.128)scale(.92137)"/><path fill="#dd636e" d="M479.108 7.5H205.224c-7.749 0-14.032 6.282-14.032 14.032v11.979c0 7.749 6.282 14.032 14.032 14.032h273.884c7.749 0 14.032-6.282 14.032-14.032V21.532c-.001-7.75-6.283-14.032-14.032-14.032" style="fill:#ffeeb4;fill-opacity:1" transform="translate(15.04 20.128)scale(.92137)"/><path d="M484.964 497h-4.943V54.994c11.448-.482 20.619-9.92 20.619-21.484V21.53C500.64 9.658 490.981 0 479.11 0H205.22c-11.871 0-21.529 9.658-21.529 21.53v11.98c0 11.565 9.172 21.002 20.62 21.484v83.789H33.507c-12.961 0-23.506 10.545-23.506 23.506v22.841c0 12.961 10.545 23.506 23.506 23.506h2.783V443.52a7.5 7.5 0 0 0 7.5 7.5 7.5 7.5 0 0 0 7.5-7.5V208.64h226.43V497H51.29v-55.5a7.5 7.5 0 0 0-7.5-7.5 7.5 7.5 0 0 0-7.5 7.5V497h-4.913a7.5 7.5 0 0 0-7.5 7.5 7.5 7.5 0 0 0 7.5 7.5h453.587a7.5 7.5 0 0 0 7.5-7.5 7.5 7.5 0 0 0-7.5-7.5M25.001 185.131V162.29c0-4.69 3.815-8.506 8.506-8.506h261.995c4.69 0 8.507 3.816 8.507 8.506v22.841c0 4.69-3.816 8.506-8.507 8.506H33.507c-4.691 0-8.506-3.816-8.506-8.506m294.008-22.841c0-12.961-10.545-23.506-23.507-23.506h-11.031ZM292.72 414.06s.749 58.319 0 58.152zm0-15v-20.343c.749-.167 0 20.343 0 20.343m0-129.2s.749 58.319 0 58.152zm0-15v-20.342c.749-.166 0 20.342 0 20.342m0 242.14v-9.624c.086-65.955 0-88.316 0-123.822V208.637h2.782c7.743 0 22.897-4.095 22.989-22.467l.518-23.88s2.524-23.505-23.507-23.506l-76.191-.001V55.04h200.35a7.5 7.5 0 0 0 7.5-7.5 7.5 7.5 0 0 0-7.5-7.5H205.22a6.537 6.537 0 0 1-6.529-6.53V21.53A6.537 6.537 0 0 1 205.22 15h273.89a6.536 6.536 0 0 1 6.529 6.53v11.98a6.537 6.537 0 0 1-6.529 6.53h-67.55a7.5 7.5 0 0 0-7.5 7.5 7.5 7.5 0 0 0 7.5 7.5h53.461V497Z" style="fill:#ffeeb4;fill-opacity:1" transform="translate(15.04 20.128)scale(.92137)"/></svg>
