<?xml version="1.0" encoding="UTF-8" standalone="no"?>
<svg
   id="Capa_1"
   enable-background="new 0 0 511.998 511.998"
   height="512"
   viewBox="0 0 511.998 511.998"
   width="512"
   version="1.1"
   sodipodi:docname="hydrographic.svg"
   inkscape:version="1.4.3 (0d15f75042, 2025-12-25)"
   xmlns:inkscape="http://www.inkscape.org/namespaces/inkscape"
   xmlns:sodipodi="http://sodipodi.sourceforge.net/DTD/sodipodi-0.dtd"
   xmlns="http://www.w3.org/2000/svg"
   xmlns:svg="http://www.w3.org/2000/svg">
  <defs
     id="defs23" />
  <sodipodi:namedview
     id="namedview23"
     pagecolor="#ffffff"
     bordercolor="#000000"
     borderopacity="0.25"
     inkscape:showpageshadow="2"
     inkscape:pageopacity="0.0"
     inkscape:pagecheckerboard="0"
     inkscape:deskcolor="#d1d1d1"
     inkscape:zoom="2.265625"
     inkscape:cx="256"
     inkscape:cy="256"
     inkscape:window-width="2560"
     inkscape:window-height="1375"
     inkscape:window-x="2240"
     inkscape:window-y="0"
     inkscape:window-maximized="1"
     inkscape:current-layer="g23" />
  <g
     id="g23">
    <g
       id="g12">
      <path
         d="m504.499 475.761-.012.013c-26.435 29.783-72.952 29.783-99.387 0l-.012-.013-.003.003c-26.435 29.787-72.957 29.788-99.393.001l-.003-.004c-26.436 29.788-72.959 29.788-99.394 0l-.003.003c-26.436 29.787-72.958 29.787-99.393-.001l-.002-.002-.003.003c-26.436 29.787-72.958 29.787-99.393 0l-.002-.002v-164.098l.002.002c26.436 29.788 72.957 29.788 99.393 0l.003-.003.002.002c26.435 29.788 72.957 29.788 99.393.001l.003-.003c26.436 29.788 72.959 29.789 99.394 0l.003.004c26.436 29.787 72.957 29.787 99.393-.001l.003-.003.012.013c26.435 29.783 72.952 29.783 99.387 0l.012-.013"
         fill="#b1e4f9"
         id="path1" />
      <path
         d="m504.499 355.523-.012.013c-26.435 29.783-72.952 29.783-99.387 0l-.012-.013-.003.003c-26.435 29.787-72.957 29.788-99.393.001l-.003-.004c-26.436 29.788-72.959 29.788-99.394 0l-.003.003c-26.436 29.787-72.958 29.787-99.393-.001l-.002-.002-.003.003c-26.436 29.787-72.958 29.787-99.393 0l-.002-.002v56.69l.002.002c26.436 29.788 72.957 29.788 99.393 0l.003-.003.002.002c26.435 29.788 72.957 29.788 99.393.001l.003-.003c26.436 29.788 72.959 29.789 99.394 0l.003.004c26.436 29.787 72.957 29.787 99.393-.001l.003-.003.012.013c26.435 29.783 72.952 29.783 99.387 0l.012-.013"
         fill="#90d8f9"
         id="path2" />
      <path
         d="m469.314 117.364h-25.223c1.263-2.573 1.975-5.465 1.975-8.524 0-10.7-8.674-19.374-19.374-19.374h-57.346c-10.7 0-19.374 8.674-19.374 19.374 0 10.7 8.674 19.374 19.374 19.374h25.223c-1.263 2.573-1.975 5.465-1.975 8.524 0 10.7 8.674 19.374 19.374 19.374h57.346c10.7 0 19.374-8.674 19.374-19.374 0-10.7-8.674-19.374-19.374-19.374z"
         fill="#f6f9f9"
         id="path3" />
      <path
         d="m368.568 108.839c0 5.344 2.167 10.192 5.678 13.695 3.503 3.511 8.351 5.678 13.695 5.678h-18.596c-5.344 0-10.191-2.167-13.695-5.678-3.511-3.503-5.678-8.351-5.678-13.695 0-10.704 8.677-19.373 19.373-19.373h18.596c-10.696 0-19.373 8.669-19.373 19.373z"
         fill="#dddaec"
         id="path4" />
      <path
         d="m430.564 156.107h-18.596c-5.352 0-10.192-2.167-13.695-5.671-3.511-3.503-5.678-8.351-5.678-13.703 0-3.061.715-5.95 1.973-8.521h18.597c-1.258 2.571-1.973 5.461-1.973 8.521 0 5.352 2.167 10.199 5.678 13.703 3.503 3.504 8.342 5.671 13.694 5.671z"
         fill="#dddaec"
         id="path5" />
      <path
         d="m50.03 49.811h32.47c-1.626-3.312-2.542-7.035-2.542-10.974 0-13.774 11.166-24.941 24.94-24.941h58.823c13.774 0 24.941 11.166 24.941 24.941 0 13.774-11.166 24.94-24.941 24.94h-17.47c1.626 3.312 2.542 7.035 2.542 10.974 0 13.774-11.166 24.941-24.941 24.941h-73.822c-13.774 0-24.941-11.166-24.941-24.941 0-13.774 11.166-24.94 24.941-24.94z"
         fill="#f6f9f9"
         id="path6" />
      <g
         fill="#dddaec"
         id="g8">
        <path
           d="m47.633 74.752c0-13.774 11.166-24.941 24.941-24.941h-22.544c-13.774 0-24.941 11.166-24.941 24.941 0 13.774 11.166 24.941 24.941 24.941h22.543c-13.774-.001-24.94-11.167-24.94-24.941z"
           id="path7" />
        <path
           d="m105.044 49.811c-1.626-3.312-2.542-7.035-2.542-10.974 0-13.774 11.166-24.941 24.94-24.941h-22.543c-13.774 0-24.94 11.166-24.94 24.941 0 3.938.916 7.662 2.542 10.974z"
           id="path8" />
      </g>
      <path
         d="m384.864 241.051h-19.333c.968-1.972 1.513-4.189 1.513-6.534 0-8.201-6.648-14.849-14.849-14.849h-43.954c-8.201 0-14.849 6.648-14.849 14.849 0 8.201 6.648 14.849 14.849 14.849h19.333c-.968 1.972-1.513 4.189-1.513 6.534 0 8.201 6.648 14.849 14.849 14.849h43.954c8.201 0 14.849-6.648 14.849-14.849 0-8.201-6.648-14.849-14.849-14.849z"
         fill="#f6f9f9"
         id="path9" />
      <g
         fill="#dddaec"
         id="g11">
        <path
           d="m307.645 234.517c0 4.096 1.661 7.812 4.352 10.497 2.685 2.691 6.4 4.352 10.497 4.352h-14.254c-4.096 0-7.811-1.661-10.497-4.352-2.691-2.685-4.352-6.4-4.352-10.497 0-8.204 6.65-14.849 14.849-14.849h14.254c-8.198 0-14.849 6.645-14.849 14.849z"
           id="path10" />
        <path
           d="m355.163 270.747h-14.253c-4.102 0-7.812-1.661-10.497-4.346-2.691-2.685-4.352-6.4-4.352-10.503 0-2.346.548-4.561 1.512-6.531h14.254c-.965 1.971-1.512 4.186-1.512 6.531 0 4.102 1.661 7.818 4.352 10.503 2.685 2.685 6.394 4.346 10.496 4.346z"
           id="path11" />
      </g>
    </g>
    <g
       id="g22">
      <path
         d="m499.06 407.052c-.061.063-.12.128-.179.194-11.18 12.596-27.249 19.821-44.086 19.821s-32.906-7.225-44.086-19.821c-.059-.066-.128-.141-.188-.204-1.447-1.52-3.505-2.342-5.562-2.327-2.098.037-4.085.951-5.478 2.52-11.183 12.596-27.253 19.819-44.092 19.819-16.838 0-32.908-7.224-44.091-19.819-1.423-1.603-3.465-2.521-5.608-2.521s-4.186.917-5.608 2.521c-11.184 12.595-27.254 19.819-44.092 19.819-16.832 0-32.899-7.224-44.082-19.819-1.423-1.603-3.474-2.521-5.618-2.521-2.145 0-4.188.918-5.611 2.523-9.032 10.182-20.865 16.749-34.22 18.991-4.085.686-6.841 4.553-6.155 8.638s4.549 6.843 8.638 6.155c14.139-2.373 26.916-8.602 37.367-18.151 13.534 12.274 31.242 19.184 49.682 19.184 18.449 0 36.164-6.914 49.7-19.192 13.535 12.279 31.25 19.192 49.699 19.192s36.164-6.914 49.699-19.19c13.534 12.285 31.253 19.203 49.706 19.203 21.097 0 41.229-9.04 55.252-24.805 2.737-3.005 2.579-7.656-.379-10.474-3-2.856-7.753-2.735-10.608.264z"
         id="path12" />
      <path
         d="m57.2 442.056c18.45 0 36.164-6.913 49.697-19.19 8.239 7.491 18.047 13.025 28.746 16.173 3.971 1.166 8.143-1.104 9.312-5.079 1.169-3.974-1.105-8.143-5.079-9.312-10.544-3.102-20.008-9.123-27.368-17.414-1.424-1.604-3.465-2.521-5.609-2.521s-4.186.918-5.609 2.521c-11.18 12.597-27.25 19.821-44.09 19.821s-32.911-7.224-44.091-19.821c-2.749-3.098-7.489-3.38-10.588-.631-3.098 2.75-3.38 7.49-.631 10.588 14.025 15.803 34.185 24.865 55.31 24.865z"
         id="path13" />
      <path
         d="m342.47 108.844c0 7.184 2.801 13.932 7.877 18.993 5.079 5.08 11.828 7.877 19.003 7.877h15.759c-.013.339-.019.679-.019 1.02 0 7.175 2.797 13.923 7.877 19.004 5.08 5.079 11.829 7.875 19.003 7.875h57.34c14.822 0 26.881-12.058 26.881-26.88 0-7.174-2.798-13.923-7.885-19.011-5.082-5.068-11.828-7.859-18.996-7.859h-15.759c.013-.34.02-.68.02-1.02 0-7.19-2.801-13.942-7.877-19.002-5.079-5.08-11.828-7.877-19.003-7.877h-23.75c-4.143 0-7.5 3.358-7.5 7.5s3.357 7.5 7.5 7.5h23.75c3.168 0 6.149 1.237 8.404 3.492 2.241 2.234 3.476 5.213 3.476 8.388 0 1.818-.409 3.574-1.215 5.219-1.14 2.325-1 5.072.37 7.269 1.369 2.197 3.775 3.532 6.364 3.532h25.22c3.169 0 6.153 1.236 8.396 3.473 2.247 2.248 3.484 5.229 3.484 8.397 0 6.551-5.33 11.88-11.881 11.88h-57.34c-3.168 0-6.15-1.237-8.396-3.482-2.246-2.247-3.483-5.229-3.483-8.397 0-1.82.408-3.575 1.214-5.217 1.141-2.324 1.001-5.073-.368-7.271-1.37-2.197-3.776-3.533-6.365-3.533h-25.221c-3.168 0-6.149-1.237-8.404-3.492-2.241-2.234-3.476-5.21-3.476-8.378 0-6.551 5.329-11.88 11.88-11.88h3.591c4.143 0 7.5-3.358 7.5-7.5s-3.357-7.5-7.5-7.5h-3.591c-14.821 0-26.88 12.058-26.88 26.88z"
         id="path14" />
      <path
         d="m308.242 256.866h10.34c.508 11.877 10.328 21.383 22.328 21.383h43.954c12.323 0 22.35-10.026 22.35-22.35 0-12.323-10.026-22.349-22.35-22.349h-10.339c-.508-11.877-10.329-21.383-22.329-21.383h-43.954c-12.323 0-22.35 10.026-22.35 22.35.001 12.324 10.027 22.349 22.35 22.349zm0-29.698h43.954c4.053 0 7.35 3.297 7.35 7.35 0 1.133-.251 2.22-.747 3.229-1.141 2.325-1.001 5.073.368 7.271s3.775 3.533 6.365 3.533h19.332c4.053 0 7.35 3.297 7.35 7.349 0 4.053-3.297 7.35-7.35 7.35h-43.954c-4.052 0-7.349-3.297-7.349-7.35 0-1.135.251-2.221.746-3.229 1.141-2.325 1.001-5.073-.368-7.271s-3.775-3.533-6.365-3.533h-19.332c-4.053 0-7.35-3.297-7.35-7.349.001-4.053 3.298-7.35 7.35-7.35z"
         id="path15" />
      <path
         d="m50.031 107.192h73.824c17.888 0 32.44-14.553 32.44-32.44 0-1.169-.061-2.328-.182-3.474h7.61c17.888 0 32.44-14.553 32.44-32.44s-14.553-32.44-32.44-32.44h-58.823c-17.888 0-32.44 14.553-32.44 32.44 0 1.169.061 2.328.182 3.474h-22.611c-17.888 0-32.441 14.553-32.441 32.441 0 17.886 14.553 32.439 32.441 32.439zm0-49.881h32.471c2.59 0 4.996-1.336 6.366-3.534 1.369-2.198 1.508-4.947.367-7.271-1.177-2.397-1.774-4.978-1.774-7.668 0-9.617 7.824-17.44 17.44-17.44h58.823c9.617 0 17.44 7.824 17.44 17.44s-7.824 17.44-17.44 17.44h-17.47c-2.589 0-4.996 1.336-6.365 3.534-1.37 2.197-1.508 4.946-.368 7.271 1.178 2.4 1.775 4.98 1.775 7.67 0 9.617-7.824 17.44-17.44 17.44h-73.825c-9.617 0-17.441-7.824-17.441-17.44s7.824-17.442 17.441-17.442z"
         id="path16" />
      <path
         d="m57.205 341.514c18.452 0 36.168-6.915 49.7-19.193 13.532 12.279 31.246 19.193 49.698 19.193h.001c18.451 0 36.168-6.915 49.699-19.193 13.532 12.278 31.246 19.191 49.697 19.192 18.451 0 36.166-6.914 49.697-19.191 13.532 12.279 31.248 19.193 49.7 19.193 18.451 0 36.164-6.913 49.696-19.19 13.532 12.279 31.247 19.193 49.7 19.193 21.098 0 41.231-9.039 55.251-24.802 2.677-2.944 2.592-7.5-.251-10.343-2.928-2.929-7.679-2.928-10.608.001-.104.105-.207.213-.306.325-11.178 12.595-27.246 19.819-44.086 19.819-16.778 0-32.793-7.172-43.967-19.682-.135-.16-.278-.316-.429-.466-2.928-2.929-7.679-2.928-10.608.001-.006.006-.012.012-.018.019-.002.001-.003.002-.005.004-.005.005-.01.011-.016.016 0 .001-.001.002-.002.002-.104.105-.204.213-.301.324-11.177 12.571-27.229 19.78-44.052 19.78-16.84 0-32.909-7.223-44.087-19.818-.209-.236-.438-.461-.675-.669-3.101-2.713-7.812-2.417-10.548.667-11.178 12.595-27.247 19.819-44.087 19.819-16.841 0-32.91-7.224-44.089-19.82-1.45-1.635-3.565-2.56-5.727-2.52-2.107.033-4.1.951-5.494 2.522-11.178 12.596-27.248 19.819-44.088 19.819s-32.909-7.224-44.086-19.819c-.099-.111-.203-.222-.308-.327-1.49-1.49-3.537-2.29-5.645-2.188-2.032.092-3.937 1.006-5.28 2.525-11.178 12.59-27.242 19.809-44.078 19.809-16.84 0-32.909-7.224-44.087-19.819-.099-.111-.201-.22-.306-.325l-.002-.002c-2.928-2.929-7.675-2.927-10.605.001-2.834 2.835-2.924 7.376-.271 10.32 14.022 15.776 34.164 24.823 55.273 24.823z"
         id="path20" />
      <path
         d="m57.205 385.377c18.452 0 36.168-6.915 49.7-19.193 13.532 12.279 31.246 19.192 49.698 19.192h.001c18.451 0 36.167-6.915 49.699-19.193 13.532 12.278 31.245 19.191 49.696 19.191h.001c18.451 0 36.166-6.914 49.697-19.191 13.532 12.279 31.248 19.193 49.7 19.193 18.451 0 36.164-6.913 49.696-19.19 13.532 12.279 31.247 19.193 49.699 19.193 21.099 0 41.232-9.039 55.252-24.802 2.677-2.943 2.592-7.5-.251-10.343-2.928-2.929-7.679-2.928-10.608.001-.104.105-.207.213-.306.325-11.178 12.595-27.247 19.819-44.087 19.819-16.778 0-32.792-7.172-43.966-19.682-.135-.16-.278-.316-.429-.466-2.928-2.929-7.679-2.928-10.608.001-.006.006-.012.012-.018.019-.002.001-.003.002-.005.004-.005.005-.01.011-.016.016 0 .001-.001.002-.002.002-.104.105-.204.213-.301.324-11.177 12.571-27.229 19.78-44.052 19.78-16.84 0-32.909-7.223-44.087-19.818-.209-.236-.438-.461-.675-.669-3.101-2.713-7.812-2.416-10.548.667-11.178 12.595-27.247 19.819-44.087 19.819s-32.91-7.224-44.088-19.819c-1.45-1.634-3.565-2.55-5.727-2.52-2.107.033-4.1.951-5.494 2.522-11.178 12.595-27.248 19.819-44.088 19.818-16.84 0-32.909-7.224-44.086-19.819-.099-.112-.203-.222-.308-.327-1.49-1.49-3.537-2.291-5.645-2.188-2.032.092-3.937 1.006-5.28 2.525-11.178 12.59-27.242 19.809-44.078 19.809-16.84 0-32.909-7.224-44.087-19.819-.099-.111-.201-.22-.306-.325l-.002-.002c-2.928-2.929-7.675-2.927-10.605.001-2.834 2.835-2.924 7.376-.271 10.32 14.021 15.777 34.163 24.824 55.272 24.825z"
         id="path21" />
      <path
         d="m499.687 469.999c-.288.241-.559.502-.808.783-11.178 12.595-27.246 19.819-44.086 19.819-16.769 0-32.773-7.162-43.945-19.658-.262-.312-.553-.607-.872-.881-3.112-2.667-7.781-2.336-10.492.718-11.178 12.595-27.247 19.819-44.087 19.819s-32.909-7.223-44.087-19.818c-.209-.236-.438-.461-.675-.669-3.101-2.713-7.812-2.417-10.548.667-11.178 12.595-27.247 19.819-44.087 19.819-16.841 0-32.91-7.224-44.089-19.82-1.515-1.708-3.724-2.626-6.006-2.51-2.02.107-3.9 1.025-5.226 2.524-11.177 12.588-27.242 19.807-44.077 19.807-16.83 0-32.889-7.214-44.065-19.795-1.403-1.596-3.423-2.525-5.559-2.546-2.155-.05-4.248.901-5.686 2.522-11.178 12.595-27.247 19.819-44.087 19.819s-32.909-7.224-44.087-19.819c-.099-.111-.201-.22-.306-.325l-.002-.002c-2.928-2.929-7.675-2.927-10.605.001-2.834 2.835-2.924 7.376-.271 10.32 14.021 15.777 34.164 24.825 55.272 24.825 18.451 0 36.167-6.915 49.699-19.193 13.532 12.279 31.246 19.193 49.698 19.193h.001c18.451 0 36.168-6.915 49.699-19.193 13.532 12.278 31.246 19.191 49.697 19.191s36.166-6.914 49.697-19.191c13.532 12.279 31.247 19.193 49.7 19.193 18.451 0 36.164-6.913 49.696-19.19 13.532 12.279 31.248 19.193 49.7 19.193 21.075 0 41.188-9.02 55.205-24.75 2.525-2.724 2.694-6.963.253-9.893-2.65-3.183-7.383-3.612-10.564-.96z"
         id="path22" />
    </g>
  </g>
</svg>
