<svg xmlns="http://www.w3.org/2000/svg" viewBox="0 0 511.998 511.998" width="48" height="48"><path fill="#b1e4f9" d="m504.499 475.761-.012.013c-26.435 29.783-72.952 29.783-99.387 0l-.012-.013-.003.003c-26.435 29.787-72.957 29.788-99.393.001l-.003-.004c-26.436 29.788-72.959 29.788-99.394 0l-.003.003c-26.436 29.787-72.958 29.787-99.393-.001l-.002-.002-.003.003c-26.436 29.787-72.958 29.787-99.393 0l-.002-.002V311.664l.002.002c26.436 29.788 72.957 29.788 99.393 0l.003-.003.002.002c26.435 29.788 72.957 29.788 99.393.001l.003-.003c26.436 29.788 72.959 29.789 99.394 0l.003.004c26.436 29.787 72.957 29.787 99.393-.001l.003-.003.012.013c26.435 29.783 72.952 29.783 99.387 0l.012-.013"/><path fill="#90d8f9" d="m504.499 355.523-.012.013c-26.435 29.783-72.952 29.783-99.387 0l-.012-.013-.003.003c-26.435 29.787-72.957 29.788-99.393.001l-.003-.004c-26.436 29.788-72.959 29.788-99.394 0l-.003.003c-26.436 29.787-72.958 29.787-99.393-.001l-.002-.002-.003.003c-26.436 29.787-72.958 29.787-99.393 0l-.002-.002v56.69l.002.002c26.436 29.788 72.957 29.788 99.393 0l.003-.003.002.002c26.435 29.788 72.957 29.788 99.393.001l.003-.003c26.436 29.788 72.959 29.789 99.394 0l.003.004c26.436 29.787 72.957 29.787 99.393-.001l.003-.003.012.013c26.435 29.783 72.952 29.783 99.387 0l.012-.013"/><path fill="#f6f9f9" d="M469.314 117.364h-25.223a19.3 19.3 0 0 0 1.975-8.524c0-10.7-8.674-19.374-19.374-19.374h-57.346c-10.7 0-19.374 8.674-19.374 19.374s8.674 19.374 19.374 19.374h25.223a19.3 19.3 0 0 0-1.975 8.524c0 10.7 8.674 19.374 19.374 19.374h57.346c10.7 0 19.374-8.674 19.374-19.374s-8.674-19.374-19.374-19.374"/><path fill="#dddaec" d="M368.568 108.839a19.3 19.3 0 0 0 5.678 13.695 19.3 19.3 0 0 0 13.695 5.678h-18.596a19.3 19.3 0 0 1-13.695-5.678 19.3 19.3 0 0 1-5.678-13.695c0-10.704 8.677-19.373 19.373-19.373h18.596c-10.696 0-19.373 8.669-19.373 19.373m61.996 47.268h-18.596a19.3 19.3 0 0 1-13.695-5.671 19.3 19.3 0 0 1-5.678-13.703c0-3.061.715-5.95 1.973-8.521h18.597a19.3 19.3 0 0 0-1.973 8.521 19.3 19.3 0 0 0 5.678 13.703 19.3 19.3 0 0 0 13.694 5.671"/><path fill="#f6f9f9" d="M50.03 49.811H82.5a24.8 24.8 0 0 1-2.542-10.974c0-13.774 11.166-24.941 24.94-24.941h58.823c13.774 0 24.941 11.166 24.941 24.941s-11.166 24.94-24.941 24.94h-17.47a24.8 24.8 0 0 1 2.542 10.974c0 13.774-11.166 24.941-24.941 24.941H50.03c-13.774 0-24.941-11.166-24.941-24.941s11.166-24.94 24.941-24.94"/><path fill="#dddaec" d="M47.633 74.752c0-13.774 11.166-24.941 24.941-24.941H50.03c-13.774 0-24.941 11.166-24.941 24.941S36.255 99.693 50.03 99.693h22.543c-13.774-.001-24.94-11.167-24.94-24.941m57.411-24.941a24.8 24.8 0 0 1-2.542-10.974c0-13.774 11.166-24.941 24.94-24.941h-22.543c-13.774 0-24.94 11.166-24.94 24.941 0 3.938.916 7.662 2.542 10.974z"/><path fill="#f6f9f9" d="M384.864 241.051h-19.333a14.8 14.8 0 0 0 1.513-6.534c0-8.201-6.648-14.849-14.849-14.849h-43.954c-8.201 0-14.849 6.648-14.849 14.849s6.648 14.849 14.849 14.849h19.333a14.8 14.8 0 0 0-1.513 6.534c0 8.201 6.648 14.849 14.849 14.849h43.954c8.201 0 14.849-6.648 14.849-14.849s-6.648-14.849-14.849-14.849"/><path fill="#dddaec" d="M307.645 234.517c0 4.096 1.661 7.812 4.352 10.497a14.8 14.8 0 0 0 10.497 4.352H308.24a14.8 14.8 0 0 1-10.497-4.352 14.8 14.8 0 0 1-4.352-10.497c0-8.204 6.65-14.849 14.849-14.849h14.254c-8.198 0-14.849 6.645-14.849 14.849m47.518 36.23H340.91a14.8 14.8 0 0 1-10.497-4.346 14.8 14.8 0 0 1-4.352-10.503c0-2.346.548-4.561 1.512-6.531h14.254a14.8 14.8 0 0 0-1.512 6.531 14.8 14.8 0 0 0 4.352 10.503 14.8 14.8 0 0 0 10.496 4.346"/><path d="M499.06 407.052q-.091.095-.179.194c-11.18 12.596-27.249 19.821-44.086 19.821s-32.906-7.225-44.086-19.821a9 9 0 0 0-.188-.204c-1.447-1.52-3.505-2.342-5.562-2.327a7.5 7.5 0 0 0-5.478 2.52 59 59 0 0 1-44.092 19.819 59 59 0 0 1-44.091-19.819 7.5 7.5 0 0 0-11.216 0 59 59 0 0 1-44.092 19.819 59 59 0 0 1-44.082-19.819 7.52 7.52 0 0 0-5.618-2.521 7.5 7.5 0 0 0-5.611 2.523c-9.032 10.182-20.865 16.749-34.22 18.991-4.085.686-6.841 4.553-6.155 8.638s4.549 6.843 8.638 6.155c14.139-2.373 26.916-8.602 37.367-18.151a74 74 0 0 0 49.682 19.184 74.03 74.03 0 0 0 49.7-19.192c13.535 12.279 31.25 19.192 49.699 19.192s36.164-6.914 49.699-19.19a74 74 0 0 0 49.706 19.203 74 74 0 0 0 55.252-24.805 7.494 7.494 0 0 0-.379-10.474c-3-2.856-7.753-2.735-10.608.264M57.2 442.056a74.02 74.02 0 0 0 49.697-19.19 73.6 73.6 0 0 0 28.746 16.173 7.5 7.5 0 1 0 4.233-14.391c-10.544-3.102-20.008-9.123-27.368-17.414a7.5 7.5 0 0 0-11.218 0c-11.18 12.597-27.25 19.821-44.09 19.821s-32.911-7.224-44.091-19.821a7.5 7.5 0 0 0-11.219 9.957 74 74 0 0 0 55.31 24.865m285.27-333.212c0 7.184 2.801 13.932 7.877 18.993 5.079 5.08 11.828 7.877 19.003 7.877h15.759q-.02.508-.019 1.02c0 7.175 2.797 13.923 7.877 19.004 5.08 5.079 11.829 7.875 19.003 7.875h57.34c14.822 0 26.881-12.058 26.881-26.88 0-7.174-2.798-13.923-7.885-19.011-5.082-5.068-11.828-7.859-18.996-7.859h-15.759q.02-.51.02-1.02c0-7.19-2.801-13.942-7.877-19.002-5.079-5.08-11.828-7.877-19.003-7.877h-23.75c-4.143 0-7.5 3.358-7.5 7.5s3.357 7.5 7.5 7.5h23.75c3.168 0 6.149 1.237 8.404 3.492a11.76 11.76 0 0 1 3.476 8.388c0 1.818-.409 3.574-1.215 5.219a7.497 7.497 0 0 0 6.734 10.801h25.22a11.82 11.82 0 0 1 8.396 3.473 11.8 11.8 0 0 1 3.484 8.397c0 6.551-5.33 11.88-11.881 11.88h-57.34c-3.168 0-6.15-1.237-8.396-3.482a11.8 11.8 0 0 1-3.483-8.397c0-1.82.408-3.575 1.214-5.217a7.5 7.5 0 0 0-6.733-10.804H369.35a11.8 11.8 0 0 1-8.404-3.492 11.75 11.75 0 0 1-3.476-8.378c0-6.551 5.329-11.88 11.88-11.88h3.591c4.143 0 7.5-3.358 7.5-7.5s-3.357-7.5-7.5-7.5h-3.591c-14.821 0-26.88 12.058-26.88 26.88m-34.228 148.022h10.34c.508 11.877 10.328 21.383 22.328 21.383h43.954c12.323 0 22.35-10.026 22.35-22.35 0-12.323-10.026-22.349-22.35-22.349h-10.339c-.508-11.877-10.329-21.383-22.329-21.383h-43.954c-12.323 0-22.35 10.026-22.35 22.35.001 12.324 10.027 22.349 22.35 22.349m0-29.698h43.954c4.053 0 7.35 3.297 7.35 7.35 0 1.133-.251 2.22-.747 3.229a7.5 7.5 0 0 0 6.733 10.804h19.332c4.053 0 7.35 3.297 7.35 7.349 0 4.053-3.297 7.35-7.35 7.35H340.91c-4.052 0-7.349-3.297-7.349-7.35 0-1.135.251-2.221.746-3.229a7.5 7.5 0 0 0-6.733-10.804h-19.332c-4.053 0-7.35-3.297-7.35-7.349.001-4.053 3.298-7.35 7.35-7.35M50.031 107.192h73.824c17.888 0 32.44-14.553 32.44-32.44q0-1.754-.182-3.474h7.61c17.888 0 32.44-14.553 32.44-32.44s-14.553-32.44-32.44-32.44H104.9c-17.888 0-32.44 14.553-32.44 32.44q0 1.754.182 3.474H50.031c-17.888 0-32.441 14.553-32.441 32.441 0 17.886 14.553 32.439 32.441 32.439m0-49.881h32.471a7.5 7.5 0 0 0 6.733-10.805 17.25 17.25 0 0 1-1.774-7.668c0-9.617 7.824-17.44 17.44-17.44h58.823c9.617 0 17.44 7.824 17.44 17.44s-7.824 17.44-17.44 17.44h-17.47a7.5 7.5 0 0 0-6.733 10.805 17.26 17.26 0 0 1 1.775 7.67c0 9.617-7.824 17.44-17.44 17.44H50.031c-9.617 0-17.441-7.824-17.441-17.44s7.824-17.442 17.441-17.442m7.174 284.203a74.02 74.02 0 0 0 49.7-19.193 74 74 0 0 0 49.698 19.193h.001a74 74 0 0 0 49.699-19.193A74.02 74.02 0 0 0 256 341.513a74 74 0 0 0 49.697-19.191 74 74 0 0 0 49.7 19.193 74 74 0 0 0 49.696-19.19 74 74 0 0 0 49.7 19.193 74 74 0 0 0 55.251-24.802 7.5 7.5 0 0 0-.251-10.343 7.5 7.5 0 0 0-10.914.326 59 59 0 0 1-44.086 19.819 59 59 0 0 1-43.967-19.682 7.5 7.5 0 0 0-11.037-.465l-.018.019-.005.004-.016.016-.002.002a7 7 0 0 0-.301.324 59 59 0 0 1-44.052 19.78 59 59 0 0 1-44.087-19.818 7.5 7.5 0 0 0-11.223-.002 59 59 0 0 1-44.087 19.819 59 59 0 0 1-44.089-19.82 7.504 7.504 0 0 0-11.221.002c-11.178 12.596-27.248 19.819-44.088 19.819s-32.909-7.224-44.086-19.819a7.48 7.48 0 0 0-5.953-2.515 7.5 7.5 0 0 0-5.28 2.525 58.98 58.98 0 0 1-44.078 19.809 59 59 0 0 1-44.087-19.819 8 8 0 0 0-.306-.325l-.002-.002a7.499 7.499 0 0 0-10.876 10.321 74 74 0 0 0 55.273 24.823m0 43.863a74.02 74.02 0 0 0 49.7-19.193 74 74 0 0 0 49.698 19.192h.001a74.02 74.02 0 0 0 49.699-19.193 74 74 0 0 0 49.696 19.191H256a74 74 0 0 0 49.697-19.191 74 74 0 0 0 49.7 19.193 74 74 0 0 0 49.696-19.19 74 74 0 0 0 49.699 19.193 74 74 0 0 0 55.252-24.802 7.5 7.5 0 0 0-.251-10.343 7.5 7.5 0 0 0-10.914.326 59 59 0 0 1-44.087 19.819 59 59 0 0 1-43.966-19.682 7.5 7.5 0 0 0-11.037-.465l-.018.019-.005.004-.016.016-.002.002a7 7 0 0 0-.301.324 59 59 0 0 1-44.052 19.78 59 59 0 0 1-44.087-19.818 7.5 7.5 0 0 0-11.223-.002c-11.178 12.595-27.247 19.819-44.087 19.819s-32.91-7.224-44.088-19.819a7.55 7.55 0 0 0-5.727-2.52 7.5 7.5 0 0 0-5.494 2.522 59 59 0 0 1-44.088 19.818 58.98 58.98 0 0 1-44.086-19.819 7.47 7.47 0 0 0-5.953-2.515 7.5 7.5 0 0 0-5.28 2.525 58.98 58.98 0 0 1-44.078 19.809 59 59 0 0 1-44.087-19.819 8 8 0 0 0-.306-.325l-.002-.002a7.499 7.499 0 0 0-10.876 10.321 74 74 0 0 0 55.272 24.825m442.482 84.622a7.6 7.6 0 0 0-.808.783 59 59 0 0 1-44.086 19.819 59 59 0 0 1-43.945-19.658 7.504 7.504 0 0 0-11.364-.163c-11.178 12.595-27.247 19.819-44.087 19.819s-32.909-7.223-44.087-19.818a7.5 7.5 0 0 0-11.223-.002A59 59 0 0 1 256 490.598a59 59 0 0 1-44.089-19.82 7.51 7.51 0 0 0-6.006-2.51 7.5 7.5 0 0 0-5.226 2.524 59 59 0 0 1-44.077 19.807 58.98 58.98 0 0 1-44.065-19.795 7.5 7.5 0 0 0-5.559-2.546c-2.155-.05-4.248.901-5.686 2.522-11.178 12.595-27.247 19.819-44.087 19.819s-32.909-7.224-44.087-19.819a8 8 0 0 0-.306-.325l-.002-.002a7.499 7.499 0 0 0-10.876 10.321 74 74 0 0 0 55.272 24.825 74.02 74.02 0 0 0 49.699-19.193 74 74 0 0 0 49.698 19.193h.001a74 74 0 0 0 49.699-19.193A74 74 0 0 0 256 505.597a74 74 0 0 0 49.697-19.191 74 74 0 0 0 49.7 19.193 74 74 0 0 0 49.696-19.19 74 74 0 0 0 49.7 19.193 74 74 0 0 0 55.205-24.75 7.5 7.5 0 0 0 .253-9.893 7.5 7.5 0 0 0-10.564-.96"/></svg>
