<svg xmlns="http://www.w3.org/2000/svg" viewBox="0 0 511.996 511.996" width="48" height="48"><path fill="#9bd069" d="M408.574 504.496h95.922V229.785c0-15.686-12.716-28.403-28.403-28.403s-28.403-12.716-28.403-28.403v-40.945c0-26.29-21.312-47.602-47.602-47.602H350.59l-77.149 301.841 25.273 75.819"/><path fill="#6ec17d" d="M458.259 229.792V504.5h-49.69L298.71 462.1l-25.27-75.819 77.15-301.848h3.26c26.29 0 47.6 21.32 47.6 47.61v40.94c0 7.84 3.18 14.94 8.32 20.08s12.24 8.32 20.09 8.32c15.679-.001 28.399 12.719 28.399 28.409"/><path fill="#6ec17d" d="M458.259 229.792V504.5h-49.69L298.71 462.1l-25.27-75.819 77.15-301.848h3.26c26.29 0 47.6 21.32 47.6 47.61v40.94c0 7.84 3.18 14.94 8.32 20.08s12.24 8.32 20.09 8.32c15.679-.001 28.399 12.719 28.399 28.409"/><path fill="#b1e4f9" d="M350.587 84.429v381.657H52.64l15.21-110.559L113.78 21.81h174.189c34.589 0 62.618 28.04 62.618 62.619"/><path fill="#90d8f9" d="M222.847 119.857v346.229H52.64l15.21-110.559 44.64-253.908h92.12c10.072 0 18.237 8.166 18.237 18.238"/><path fill="#9bd069" d="M7.5 504.496V55.861C7.5 29.152 29.152 7.5 55.861 7.5h23.567c26.709 0 48.361 21.652 48.361 48.361v54.153c0 15.567 12.62 28.187 28.187 28.187 21.899 0 39.651 17.752 39.651 39.651v326.644z"/><path fill="#6ec17d" d="M80.445 180.1c-9.618 0-17.416-7.797-17.416-17.415V55.861c0-21.11 13.52-39.06 32.38-45.66-5-1.75-10.38-2.7-15.98-2.7H55.86c-26.708 0-48.36 21.651-48.36 48.36v448.636h55.53v-.001h34.831v-306.98c0-9.619-7.798-17.416-17.416-17.416"/><path fill="#f6f9f9" d="M416.765 406.671c-17.447 0-31.591 14.144-31.591 31.591v-33.764c0-17.447-14.144-31.591-31.591-31.591s-31.591 14.144-31.591 31.591v40.8c0-17.447-14.144-31.591-31.591-31.591s-31.591 14.144-31.591 31.591v-28.571c0-17.447-14.144-31.591-31.591-31.591s-31.591 14.144-31.591 31.591v87.769h212.947c21.971 0 39.782-17.811 39.782-39.782v-26.452c-.001-17.447-14.145-31.591-31.592-31.591"/><path fill="#dddaec" d="M227.227 385.138c5.49 0 10.66 1.41 15.16 3.87a31.7 31.7 0 0 0-7.18 5.38c-5.72 5.72-9.26 13.61-9.26 22.34v87.769h-30.32v-87.769c0-8.73 3.54-16.62 9.26-22.34a31.5 31.5 0 0 1 22.34-9.25m78.341 32.439a31.7 31.7 0 0 0-7.18 5.38c-5.72 5.72-9.26 13.61-9.26 22.34v13.02c0 8.373-6.787 15.16-15.16 15.16s-15.16-6.787-15.16-15.16v-13.02c0-8.73 3.54-16.62 9.26-22.34a31.5 31.5 0 0 1 22.34-9.25c5.49 0 10.66 1.41 15.16 3.87m63.179-40.8a31.7 31.7 0 0 0-7.18 5.38c-5.72 5.72-9.26 13.61-9.26 22.34v66.247c0 8.373-6.787 15.16-15.16 15.16s-15.16-6.787-15.16-15.16v-66.247c0-8.73 3.54-16.62 9.26-22.34a31.5 31.5 0 0 1 22.34-9.25c5.49 0 10.66 1.41 15.16 3.87m63.19 33.77a31.7 31.7 0 0 0-7.18 5.38c-5.72 5.72-9.26 13.61-9.26 22.34v12.632c0 8.373-6.787 15.16-15.16 15.16s-15.16-6.787-15.16-15.16v-12.632c0-8.73 3.54-16.62 9.26-22.34a31.5 31.5 0 0 1 22.34-9.25c5.49 0 10.66 1.41 15.16 3.87"/><path d="M476.094 193.883c-11.525 0-20.902-9.377-20.902-20.902v-40.945c0-30.384-24.719-55.103-55.103-55.103h-42.407c-3.754-35.152-33.583-62.623-69.714-62.623H116.716C106.819 5.42 93.746 0 79.428 0H55.861C25.059 0 0 25.059 0 55.861v448.635a7.5 7.5 0 0 0 7.5 7.5h496.996a7.5 7.5 0 0 0 7.5-7.5V229.785c0-19.796-16.105-35.902-35.902-35.902M188.127 496.996H15V55.861C15 33.33 33.33 15 55.861 15h23.567c22.531 0 40.861 18.33 40.861 40.861v54.153c0 19.678 16.009 35.687 35.687 35.687 17.729 0 32.151 14.423 32.151 32.151zm308.869 0h-53.917c7.917-8.459 12.78-19.812 12.78-32.286v-26.45c0-21.554-17.536-39.09-39.091-39.09a38.9 38.9 0 0 0-24.09 8.325V404.5c0-20.029-15.148-36.578-34.59-38.822V148.21c0-4.142-3.357-7.5-7.5-7.5s-7.5 3.358-7.5 7.5v218.627c-6.424 1.778-12.315 5.182-17.157 10.024-7.379 7.391-11.442 17.207-11.442 27.639v10.035a38.9 38.9 0 0 0-24.09-8.325c-8.872 0-17.291 2.933-24.15 8.341-.758-13.772-8.658-26.091-21.001-32.506a7.5 7.5 0 0 0-6.917 13.31 24.01 24.01 0 0 1 12.979 21.375v28.57a7.5 7.5 0 0 0 15 0c0-6.438 2.505-12.488 7.053-17.036 4.55-4.549 10.601-7.054 17.038-7.054 13.283 0 24.09 10.807 24.09 24.09 0 4.142 3.357 7.5 7.5 7.5s7.5-3.358 7.5-7.5v-40.8c0-6.43 2.507-12.482 7.054-17.037 4.548-4.548 10.598-7.053 17.036-7.053 13.289 0 24.1 10.807 24.1 24.09v33.76c0 4.142 3.357 7.5 7.5 7.5s7.5-3.358 7.5-7.5c0-13.283 10.807-24.09 24.09-24.09 13.284 0 24.091 10.807 24.091 24.09v26.45c0 17.753-14.397 32.203-32.126 32.286h-.158c-.026 0-.051.004-.077.004H203.128v-80.27c0-6.438 2.505-12.488 7.053-17.037a23.9 23.9 0 0 1 5.913-4.332 7.5 7.5 0 0 0-6.891-13.323c-2.15 1.112-4.171 2.445-6.075 3.937V177.852c0-25.999-21.152-47.151-47.151-47.151-11.407 0-20.687-9.28-20.687-20.687V55.861a55.5 55.5 0 0 0-6.724-26.551h159.403c30.394 0 55.12 24.727 55.12 55.12v33.78c0 4.142 3.357 7.5 7.5 7.5s7.5-3.358 7.5-7.5V91.933h42.001c22.112 0 40.103 17.99 40.103 40.103v40.945c0 19.796 16.105 35.902 35.902 35.902 11.525 0 20.902 9.377 20.902 20.902z"/><path d="M304.034 177.921a7.5 7.5 0 0 0-7.5 7.5V347.7c0 4.142 3.357 7.5 7.5 7.5s7.5-3.358 7.5-7.5V185.421a7.5 7.5 0 0 0-7.5-7.5m-30.926-43.572a7.5 7.5 0 0 0-7.5 7.5v162.279c0 4.142 3.357 7.5 7.5 7.5s7.5-3.358 7.5-7.5V141.849a7.5 7.5 0 0 0-7.5-7.5m-48.01 107.154a7.5 7.5 0 0 0-7.5 7.5v88.905a7.5 7.5 0 0 0 15 0v-88.905a7.5 7.5 0 0 0-7.5-7.5m228.566 5.082a28.3 28.3 0 0 0-14.124 3.76c-2.828-12.729-14.208-22.275-27.775-22.275-15.688 0-28.45 12.763-28.45 28.45v47.414c0 4.142 3.357 7.5 7.5 7.5s7.5-3.358 7.5-7.5V256.52c0-7.416 6.034-13.45 13.45-13.45s13.45 6.034 13.45 13.45v18.515c0 4.142 3.357 7.5 7.5 7.5s7.5-3.358 7.5-7.5c0-7.416 6.033-13.45 13.449-13.45s13.45 6.034 13.45 13.45v47.413c0 4.142 3.357 7.5 7.5 7.5s7.5-3.358 7.5-7.5v-47.413c0-15.687-12.762-28.45-28.45-28.45m-328.088 44.277c-17.387 0-31.791 13.013-33.987 29.811a34.1 34.1 0 0 0-19.566-6.147c-18.9 0-34.276 15.376-34.276 34.276v60.599a7.5 7.5 0 0 0 15 0v-60.599c0-10.629 8.647-19.276 19.276-19.276s19.276 8.647 19.276 19.276a7.5 7.5 0 0 0 15 0v-23.664c0-10.629 8.647-19.276 19.276-19.276s19.276 8.647 19.276 19.276v60.599a7.5 7.5 0 0 0 15 0v-60.599c.001-18.9-15.375-34.276-34.275-34.276M49.975 160.997a7.5 7.5 0 0 0 7.5-7.5V99.626c0-8.7 7.078-15.778 15.778-15.778S89.03 90.926 89.03 99.626v28.598a7.5 7.5 0 0 0 15 0V99.626c0-16.971-13.807-30.778-30.778-30.778S42.475 82.655 42.475 99.626v53.871a7.5 7.5 0 0 0 7.5 7.5m151.333-75.603h-44.417a7.5 7.5 0 0 0 0 15h44.417c11.686 0 21.193 9.507 21.193 21.193v11.973a7.5 7.5 0 0 0 15 0v-11.973c0-19.957-16.236-36.193-36.193-36.193m99.833 19.474V89.275c0-24.74-20.127-44.867-44.867-44.867h-57.843a7.5 7.5 0 0 0 0 15h57.843c16.468 0 29.867 13.398 29.867 29.867v15.592c0 4.142 3.357 7.5 7.5 7.5s7.5-3.357 7.5-7.499"/></svg>
