<?xml version="1.0" encoding="iso-8859-1"?>
<!-- Generator: Adobe Illustrator 19.0.0, SVG Export Plug-In . SVG Version: 6.00 Build 0)  -->
<svg version="1.1" id="Capa_1" xmlns="http://www.w3.org/2000/svg" xmlns:xlink="http://www.w3.org/1999/xlink" x="0px" y="0px"
	 viewBox="0 0 512 512" style="enable-background:new 0 0 512 512;" xml:space="preserve">
<g>
	<path style="fill:#C9F3FF;" d="M348,154.029V150.5c0-11.046,8.954-20,20-20l0,0c11.046,0,20,8.954,20,20v36L348,154.029z"/>
	<path style="fill:#C9F3FF;" d="M427.844,219.833v-3.823c0-11.046,8.954-20,20-20l0,0c11.046,0,20,8.954,20,20v36L427.844,219.833z"
		/>
	<path style="fill:#C9F3FF;" d="M164,154.029V150.5c0-11.046-8.954-20-20-20l0,0c-11.046,0-20,8.954-20,20v36L164,154.029z"/>
	<path style="fill:#C9F3FF;" d="M84.156,219.833v-3.823c0-11.046-8.954-20-20-20l0,0c-11.046,0-20,8.954-20,20v36L84.156,219.833z"
		/>
</g>
<g>
	<polygon style="fill:#72D8FF;" points="201.415,123.733 10,281.811 10,342.684 204,281.684 308,281.684 502,342.684 502,281.811
		310.585,123.733 	"/>
	<polygon style="fill:#72D8FF;" points="204,383.612 125.031,462.817 125.031,502 218.373,455.735 293.092,455.47 386.969,502
		386.969,462.817 308,383.612 	"/>
</g>
<path style="fill:#C9F3FF;" d="M256,502L256,502L256,502c-33.186-31.272-52-74.85-52-120.449v-270.53
	C204,70.925,223.368,33.299,256,10l0,0l0,0c32.632,23.299,52,60.926,52,101.021V381.55C308,427.15,289.186,470.728,256,502z"/>
<path d="M508.368,274.1l-30.524-25.208V216.01c0-16.542-13.458-30-30-30c-11.545,0-21.581,6.559-26.595,16.143L398,182.955V150.5
	c0-16.542-13.458-30-30-30c-11.425,0-21.376,6.421-26.441,15.843L318,116.887v-5.866c0-43.231-21.005-84.039-56.189-109.16
	c-3.477-2.481-8.146-2.481-11.622,0C215.005,26.982,194,67.79,194,111.021v5.866l-23.559,19.456
	C165.376,126.921,155.425,120.5,144,120.5c-16.542,0-30,13.458-30,30v32.455l-23.249,19.2c-5.014-9.584-15.05-16.143-26.595-16.143
	c-16.542,0-30,13.458-30,30v32.882L3.632,274.1C1.332,276,0,278.828,0,281.811v60.873c0,3.184,1.517,6.178,4.083,8.062
	c1.737,1.275,3.814,1.938,5.917,1.938c1.005,0,2.017-0.151,2.999-0.46l57.712-18.146c5.269-1.657,8.197-7.271,6.54-12.539
	c-1.657-5.27-7.273-8.198-12.539-6.54L20,329.057v-42.535l174-143.696v131.52l-56.066,17.629c-5.269,1.657-8.197,7.271-6.54,12.539
	c1.343,4.271,5.285,7.003,9.537,7.003c0.994,0,2.004-0.149,3.002-0.463L194,295.311v84.167l-76.051,76.278
	c-1.869,1.875-2.918,4.414-2.918,7.061V502c0,3.459,1.788,6.673,4.728,8.498c1.609,0.998,3.438,1.502,5.272,1.502
	c1.517,0,3.038-0.345,4.44-1.04l87.215-43.228c8.607,15.293,19.508,29.345,32.455,41.546c1.926,1.815,4.392,2.722,6.858,2.722
	c2.466,0,4.932-0.907,6.858-2.722c12.948-12.201,23.848-26.253,32.455-41.546l87.215,43.228c1.403,0.695,2.923,1.04,4.44,1.04
	c1.834,0,3.664-0.504,5.272-1.502c2.94-1.824,4.728-5.038,4.728-8.498v-39.183c0-2.647-1.049-5.186-2.918-7.061L318,379.478v-84.167
	l181,56.913c0.982,0.309,1.993,0.46,2.999,0.46c2.103,0,4.18-0.664,5.917-1.938c2.567-1.884,4.083-4.878,4.083-8.062v-60.873
	C512,278.828,510.668,276,508.368,274.1z M134,150.5c0-5.514,4.486-10,10-10c5.327,0,9.681,4.189,9.972,9.444L134,166.438V150.5z
	 M54.156,216.011c0-5.514,4.486-10,10-10c5.465,0,9.914,4.408,9.993,9.854l-19.993,16.511
	C54.156,232.376,54.156,216.011,54.156,216.011z M447.844,206.011c5.514,0,10,4.486,10,10v16.365l-19.993-16.511
	C437.93,210.418,442.379,206.011,447.844,206.011z M368,140.5c5.514,0,10,4.486,10,10v15.938l-19.972-16.494
	C358.319,144.689,362.673,140.5,368,140.5z M135.031,485.883V466.95l60.72-60.902c2.145,15.075,6.242,29.778,12.131,43.726
	L135.031,485.883z M266,475.992V379c0-5.523-4.477-10-10-10c-5.523,0-10,4.477-10,10v96.993c-20.545-26.938-32-60.233-32-94.442
	v-99.836c0-0.036,0-0.072,0-0.109V111.021c0-34.338,15.577-66.88,42-88.445c26.423,21.564,42,54.107,42,88.445v170.584
	c0,0.036,0,0.072,0,0.109v99.836C298,415.759,286.545,449.054,266,475.992z M376.969,485.883l-72.851-36.109
	c5.889-13.947,9.986-28.65,12.131-43.726l60.72,60.902V485.883z M492,329.057l-174-54.711v-131.52l174,143.696V329.057z"/>
<path d="M114.07,305.11c-1.86-1.86-4.44-2.93-7.07-2.93s-5.21,1.07-7.07,2.93S97,309.55,97,312.18c0,2.64,1.07,5.21,2.93,7.07
	c1.86,1.87,4.44,2.93,7.07,2.93s5.21-1.06,7.07-2.93c1.86-1.86,2.93-4.43,2.93-7.07C117,309.55,115.93,306.97,114.07,305.11z"/>
<path d="M256,332.68c-2.63,0-5.21,1.07-7.07,2.93s-2.93,4.44-2.93,7.07c0,2.64,1.07,5.22,2.93,7.07c1.86,1.87,4.44,2.94,7.07,2.94
	c2.63,0,5.21-1.07,7.07-2.94c1.86-1.86,2.93-4.43,2.93-7.07c0-2.63-1.07-5.2-2.93-7.07C261.21,333.75,258.63,332.68,256,332.68z"/>
<g>
</g>
<g>
</g>
<g>
</g>
<g>
</g>
<g>
</g>
<g>
</g>
<g>
</g>
<g>
</g>
<g>
</g>
<g>
</g>
<g>
</g>
<g>
</g>
<g>
</g>
<g>
</g>
<g>
</g>
</svg>
