<svg xmlns="http://www.w3.org/2000/svg" xml:space="preserve" viewBox="0 0 512 512" width="48" height="48"><path d="M348 154.029V150.5c0-11.046 8.954-20 20-20s20 8.954 20 20v36zm79.844 65.804v-3.823c0-11.046 8.954-20 20-20s20 8.954 20 20v36zM164 154.029V150.5c0-11.046-8.954-20-20-20s-20 8.954-20 20v36zm-79.844 65.804v-3.823c0-11.046-8.954-20-20-20s-20 8.954-20 20v36z" style="fill:#c9f3ff"/><path d="M201.415 123.733 10 281.811v60.873l194-61h104l194 61v-60.873L310.585 123.733zM204 383.612l-78.969 79.205V502l93.342-46.265 74.719-.265L386.969 502v-39.183L308 383.612z" style="fill:#72d8ff"/><path d="M256 502a165.5 165.5 0 0 1-52-120.449v-270.53A124.13 124.13 0 0 1 256 10a124.13 124.13 0 0 1 52 101.021V381.55c0 45.6-18.814 89.178-52 120.45" style="fill:#c9f3ff"/><path d="m508.368 274.1-30.524-25.208V216.01c0-16.542-13.458-30-30-30-11.545 0-21.581 6.559-26.595 16.143L398 182.955V150.5c0-16.542-13.458-30-30-30-11.425 0-21.376 6.421-26.441 15.843L318 116.887v-5.866c0-43.231-21.005-84.039-56.189-109.16a10 10 0 0 0-11.622 0C215.005 26.982 194 67.79 194 111.021v5.866l-23.559 19.456C165.376 126.921 155.425 120.5 144 120.5c-16.542 0-30 13.458-30 30v32.455l-23.249 19.2c-5.014-9.584-15.05-16.143-26.595-16.143-16.542 0-30 13.458-30 30v32.882L3.632 274.1A10 10 0 0 0 0 281.811v60.873a10.003 10.003 0 0 0 10 10 10 10 0 0 0 2.999-.46l57.712-18.146c5.269-1.657 8.197-7.271 6.54-12.539-1.657-5.27-7.273-8.198-12.539-6.54L20 329.057v-42.535l174-143.696v131.52l-56.066 17.629c-5.269 1.657-8.197 7.271-6.54 12.539 1.343 4.271 5.285 7.003 9.537 7.003.994 0 2.004-.149 3.002-.463L194 295.311v84.167l-76.051 76.278a10 10 0 0 0-2.918 7.061V502a10.003 10.003 0 0 0 10 10 10 10 0 0 0 4.44-1.04l87.215-43.228c8.607 15.293 19.508 29.345 32.455 41.546a9.97 9.97 0 0 0 6.858 2.722 9.97 9.97 0 0 0 6.858-2.722c12.948-12.201 23.848-26.253 32.455-41.546l87.215 43.228a10 10 0 0 0 9.712-.462 10 10 0 0 0 4.728-8.498v-39.183c0-2.647-1.049-5.186-2.918-7.061L318 379.478v-84.167l181 56.913a10 10 0 0 0 8.916-1.478 10 10 0 0 0 4.083-8.062v-60.873a10 10 0 0 0-3.631-7.711M134 150.5c0-5.514 4.486-10 10-10 5.327 0 9.681 4.189 9.972 9.444L134 166.438zm-79.844 65.511c0-5.514 4.486-10 10-10 5.465 0 9.914 4.408 9.993 9.854l-19.993 16.511zm393.688-10c5.514 0 10 4.486 10 10v16.365l-19.993-16.511c.079-5.447 4.528-9.854 9.993-9.854M368 140.5c5.514 0 10 4.486 10 10v15.938l-19.972-16.494c.291-5.255 4.645-9.444 9.972-9.444M135.031 485.883V466.95l60.72-60.902a176.3 176.3 0 0 0 12.131 43.726zM266 475.992V379c0-5.523-4.477-10-10-10s-10 4.477-10 10v96.993c-20.545-26.938-32-60.233-32-94.442v-270.53c0-34.338 15.577-66.88 42-88.445 26.423 21.564 42 54.107 42 88.445V381.55c0 34.209-11.455 67.504-32 94.442m110.969 9.891-72.851-36.109a176.3 176.3 0 0 0 12.131-43.726l60.72 60.902zM492 329.057l-174-54.711v-131.52l174 143.696z"/><path d="M114.07 305.11c-1.86-1.86-4.44-2.93-7.07-2.93s-5.21 1.07-7.07 2.93-2.93 4.44-2.93 7.07c0 2.64 1.07 5.21 2.93 7.07 1.86 1.87 4.44 2.93 7.07 2.93s5.21-1.06 7.07-2.93c1.86-1.86 2.93-4.43 2.93-7.07 0-2.63-1.07-5.21-2.93-7.07M256 332.68c-2.63 0-5.21 1.07-7.07 2.93s-2.93 4.44-2.93 7.07c0 2.64 1.07 5.22 2.93 7.07 1.86 1.87 4.44 2.94 7.07 2.94s5.21-1.07 7.07-2.94c1.86-1.86 2.93-4.43 2.93-7.07 0-2.63-1.07-5.2-2.93-7.07a10.08 10.08 0 0 0-7.07-2.93"/></svg>
