<svg xmlns="http://www.w3.org/2000/svg" xml:space="preserve" viewBox="0 0 511.941 511.941" width="48" height="48"><path d="M481.85 240.91v112.94H30.09v-75.29l6.37-14.1-6.37-16.021v-90.59c0-33.13 26.86-60 60-60h271.76c10.23 0 20.17 1.28 29.65 3.7z" style="fill:#99da90"/><path d="M171.9 97.85c-7.51 4.81-21.34 16.94-21.34 40.99v19.19l-8.78 22.65 8.78 22.64v150.53H30.09v-75.29l6.37-14.1-6.37-16.021v-90.59c0-33.13 26.86-60 60-60h81.81z" style="fill:#79ce6f"/><path d="M504.44 353.85c0 12.48-10.11 22.59-22.59 22.59H30.09c-6.24 0-11.89-2.53-15.98-6.61a22.56 22.56 0 0 1-6.61-15.98c0-12.47 10.11-22.59 22.59-22.59l31.39 6.18 23.23-6.18h397.14c6.24 0 11.89 2.53 15.98 6.62 4.08 4.09 6.61 9.73 6.61 15.97" style="fill:#7c88ad"/><path d="M150.56 331.26v45.18H30.09c-6.24 0-11.89-2.53-15.98-6.61a22.56 22.56 0 0 1-6.61-15.98c0-12.47 10.11-22.59 22.59-22.59z" style="fill:#6171a3"/><path d="M180.68 361.38c0 22.7-14.36 42.06-34.49 49.47-5.67 2.1-11.81 3.24-18.22 3.24-23.88 0-44.04-15.88-50.52-37.65l23.54-51.64 41.47-14.1c22.06 6.29 38.22 26.6 38.22 50.68" style="fill:#6171a3"/><path d="M146.19 410.85c-5.67 2.1-11.81 3.24-18.22 3.24-29.11 0-52.71-23.6-52.71-52.71s23.6-52.7 52.71-52.7c5.03 0 9.89.7 14.49 2.02-10.69 14.45-33.79 55.18 3.73 100.15" style="fill:#475a99"/><path d="M436.68 361.38c0 22.7-14.36 42.06-34.49 49.47-5.67 2.1-11.81 3.24-18.22 3.24-23.88 0-44.05-15.88-50.53-37.66l19.19-49.16 45.83-16.57c22.06 6.29 38.22 26.6 38.22 50.68" style="fill:#6171a3"/><path d="M402.186 410.85c-5.67 2.1-11.81 3.24-18.22 3.24-29.11 0-52.71-23.6-52.71-52.71s23.6-52.7 52.71-52.7c5.03 0 9.89.7 14.49 2.02-10.69 14.45-33.79 55.18 3.73 100.15" style="fill:#475a99"/><path d="M406.56 361.38c0 11.75-8.97 21.41-20.44 22.48l-14.94-9.78-3.57-20.43 16.87-14.85c12.25.27 22.08 10.28 22.08 22.58" style="fill:#7c88ad"/><path d="M386.116 383.86c-.71.08-1.42.11-2.15.11-12.48 0-22.59-10.11-22.59-22.59 0-12.47 10.11-22.59 22.59-22.59.17 0 .34 0 .51.01-3.63 12.69-4.64 28.18 1.64 45.06" style="fill:#6171a3"/><path d="M150.56 361.38c0 11.75-8.97 21.41-20.44 22.48l-16.55-10.17-1.54-25.27 16.45-9.62c12.25.27 22.08 10.28 22.08 22.58" style="fill:#7c88ad"/><path d="M130.12 383.86c-.71.08-1.42.11-2.15.11-12.48 0-22.59-10.11-22.59-22.59 0-12.47 10.11-22.59 22.59-22.59.17 0 .34 0 .51.01-3.63 12.69-4.64 28.18 1.64 45.06" style="fill:#6171a3"/><path d="M135.558 218.323H90.264c-8.284 0-15-6.716-15-15v-45.294c0-8.284 6.716-15 15-15h45.294c8.284 0 15 6.716 15 15v45.294c0 8.285-6.715 15-15 15" style="fill:#deddf5"/><path d="M240.97 218.323h-45.294c-8.284 0-15-6.716-15-15v-45.294c0-8.284 6.716-15 15-15h45.294c8.284 0 15 6.716 15 15v45.294c0 8.285-6.716 15-15 15m105.412 0h-45.294c-8.284 0-15-6.716-15-15v-45.294c0-8.284 6.716-15 15-15h45.294c8.284 0 15 6.716 15 15v45.294c0 8.285-6.716 15-15 15" style="fill:#eeecff"/><path d="M316.21 263.5c0 4.16-1.69 7.93-4.41 10.65a15.04 15.04 0 0 1-10.65 4.41H150.56l-11.72-12.48 11.72-17.64h150.59c8.31 0 15.06 6.74 15.06 15.06" style="fill:#7c88ad"/><path d="M30.09 248.44h120.47v30.12H30.09z" style="fill:#6171a3"/><path d="M481.85 217.85v23.06H436.5c-24.85 0-45-20.15-45-45v-94.36c51.94 13.19 90.35 60.26 90.35 116.3" style="fill:#eeecff"/><path d="M489.382 301.147h-15.059c-8.317 0-15.059-6.742-15.059-15.059s6.742-15.059 15.059-15.059h15.059c8.317 0 15.059 6.742 15.059 15.059s-6.742 15.059-15.059 15.059" style="fill:#fbf6b2"/><path d="M341.23 97.85h20.62c66.28 0 120 53.73 120 120v52.57M30.09 328.85v-171c0-33.13 26.86-60 60-60h216.14m175.62 203.91v27.09m-149.28 47.59H180.02m159.67-45.18H173m255.25 0h53.6c12.478 0 22.59 10.113 22.59 22.59 0 12.48-10.11 22.59-22.59 22.59h-46.48m-359.45 0H30.09c-12.486 0-22.59-10.104-22.59-22.59 0-12.47 10.11-22.59 22.59-22.59h52.85" style="fill:none;stroke:#000;stroke-width:15;stroke-linecap:round;stroke-linejoin:round;stroke-miterlimit:10"/><circle cx="127.97" cy="361.382" r="52.706" style="fill:none;stroke:#000;stroke-width:15;stroke-linecap:round;stroke-linejoin:round;stroke-miterlimit:10"/><path d="M381.89 414.04c.69.04 1.38.05 2.08.05 29.11 0 52.71-23.6 52.71-52.71s-23.6-52.7-52.71-52.7-52.71 23.59-52.71 52.7c0 15.8 6.95 29.97 17.96 39.63" style="fill:none;stroke:#000;stroke-width:15;stroke-linecap:round;stroke-linejoin:round;stroke-miterlimit:10"/><circle cx="383.97" cy="361.382" r="22.588" style="fill:none;stroke:#000;stroke-width:15;stroke-linecap:round;stroke-linejoin:round;stroke-miterlimit:10"/><circle cx="127.97" cy="361.382" r="22.588" style="fill:none;stroke:#000;stroke-width:15;stroke-linecap:round;stroke-linejoin:round;stroke-miterlimit:10"/><path d="M135.558 218.323H90.264c-8.284 0-15-6.716-15-15v-45.294c0-8.284 6.716-15 15-15h45.294c8.284 0 15 6.716 15 15v45.294c0 8.285-6.715 15-15 15m105.412 0h-45.294c-8.284 0-15-6.716-15-15v-45.294c0-8.284 6.716-15 15-15h45.294c8.284 0 15 6.716 15 15v45.294c0 8.285-6.716 15-15 15m105.412 0h-45.294c-8.284 0-15-6.716-15-15v-45.294c0-8.284 6.716-15 15-15h45.294c8.284 0 15 6.716 15 15v45.294c0 8.285-6.716 15-15 15M130.91 248.44h170.24c8.31 0 15.06 6.74 15.06 15.06 0 8.317-6.743 15.06-15.06 15.06H33.09m62.82-30.12H33.09M391.5 103.553v92.36c0 24.85 20.15 45 45 45h43.35m9.532 60.234h-15.059c-8.317 0-15.059-6.742-15.059-15.059s6.742-15.059 15.059-15.059h15.059c8.317 0 15.059 6.742 15.059 15.059s-6.742 15.059-15.059 15.059" style="fill:none;stroke:#000;stroke-width:15;stroke-linecap:round;stroke-linejoin:round;stroke-miterlimit:10"/></svg>
