<svg xmlns="http://www.w3.org/2000/svg" xml:space="preserve" viewBox="0 0 682.667 682.667" width="48" height="48"><defs><clipPath id="a" clipPathUnits="userSpaceOnUse"><path d="M0 512h512V0H0Z"/></clipPath></defs><g clip-path="url(#a)" transform="matrix(1.33333 0 0 -1.33333 0 682.667)"><path d="M0 0c-3.5-31.15-15.05-59-31.899-80H-185.86c-16.85 21-28.4 48.85-31.9 80z" style="fill:#a0e5a5;fill-opacity:1;fill-rule:nonzero;stroke:none" transform="translate(500.88 186)"/><path d="M0 0h-198.801c5.591 14.99 13.21 28.52 22.42 40H-22.42C-13.21 28.52-5.591 14.99 0 0" style="fill:#a0e5a5;fill-opacity:1;fill-rule:nonzero;stroke:none" transform="translate(491.4 266)"/><path d="M442 306H342v40h100z" style="fill:#ffda8f;fill-opacity:1;fill-rule:nonzero;stroke:none"/><path d="M0 0c11.05 0 20-8.95 20-20S11.05-40 0-40c-11.055 0-20 8.949-20 20S-11.05 0 0 0" style="fill:#ffda8f;fill-opacity:1;fill-rule:nonzero;stroke:none" transform="translate(392 456)"/><path d="M0 0h-198.801c-6.8-18.189-10.599-38.53-10.599-60 0-6.79.379-13.47 1.12-20H9.479c.741 6.53 1.121 13.21 1.121 20C10.6-38.53 6.8-18.189 0 0" style="fill:#eefaff;fill-opacity:1;fill-rule:nonzero;stroke:none" transform="translate(491.4 266)"/><path d="M0 0c-3.5-31.15-15.05-59-31.899-80H-185.86c-16.85 21-28.4 48.85-31.9 80z" style="fill:#ff7b79;fill-opacity:1;fill-rule:nonzero;stroke:none" transform="translate(228.88 126)"/><path d="M0 0h-198.801c5.591 14.99 13.21 28.52 22.42 40H-22.42C-13.21 28.52-5.591 14.99 0 0" style="fill:#ff7b79;fill-opacity:1;fill-rule:nonzero;stroke:none" transform="translate(219.4 206)"/><path d="M170 246H70v40h100z" style="fill:#ffda8f;fill-opacity:1;fill-rule:nonzero;stroke:none"/><path d="M0 0c0-11.05-8.95-20-20-20s-20 8.95-20 20 8.95 20 20 20C-8.945 20 0 11.051 0 0" style="fill:#ffda8f;fill-opacity:1;fill-rule:nonzero;stroke:none" transform="translate(140 376)"/><path d="M0 0h-198.801c-6.8-18.189-10.599-38.53-10.599-60 0-6.79.379-13.47 1.12-20H9.479c.741 6.53 1.121 13.21 1.121 20C10.6-38.53 6.8-18.189 0 0" style="fill:#eefaff;fill-opacity:1;fill-rule:nonzero;stroke:none" transform="translate(219.4 206)"/><path d="m0 0 91.32 22.83" style="fill:none;stroke:#000;stroke-width:20;stroke-linecap:round;stroke-linejoin:round;stroke-miterlimit:10;stroke-dasharray:none;stroke-opacity:1" transform="translate(10 346)"/><path d="m0 0 232.301 55.08" style="fill:none;stroke:#000;stroke-width:20;stroke-linecap:round;stroke-linejoin:round;stroke-miterlimit:10;stroke-dasharray:none;stroke-opacity:1" transform="translate(139.85 378.46)"/><path d="m0 0 91.32 22.83" style="fill:none;stroke:#000;stroke-width:20;stroke-linecap:round;stroke-linejoin:round;stroke-miterlimit:10;stroke-dasharray:none;stroke-opacity:1" transform="translate(410.68 443.17)"/><path d="M0 0h26.98c9.21-11.48 16.83-25.01 22.42-40C56.2-58.19 60-78.53 60-100c0-6.79-.38-13.47-1.12-20-3.5-31.15-15.05-59-31.9-80h-153.96c-16.85 21-28.4 48.85-31.9 80-.74 6.53-1.12 13.21-1.12 20 0 21.47 3.8 41.81 10.6 60 5.59 14.99 13.21 28.52 22.42 40H-100Z" style="fill:none;stroke:#000;stroke-width:20;stroke-linecap:round;stroke-linejoin:round;stroke-miterlimit:10;stroke-dasharray:none;stroke-opacity:1" transform="translate(170 246)"/><path d="M0 0h-217.779" style="fill:none;stroke:#000;stroke-width:20;stroke-linecap:round;stroke-linejoin:round;stroke-miterlimit:10;stroke-dasharray:none;stroke-opacity:1" transform="translate(228.89 126)"/><path d="M0 0h198.82" style="fill:none;stroke:#000;stroke-width:20;stroke-linecap:round;stroke-linejoin:round;stroke-miterlimit:10;stroke-dasharray:none;stroke-opacity:1" transform="translate(20.59 206)"/><path d="M0 0v80" style="fill:none;stroke:#000;stroke-width:20;stroke-linecap:round;stroke-linejoin:round;stroke-miterlimit:10;stroke-dasharray:none;stroke-opacity:1" transform="translate(70 126)"/><path d="M0 0v-80" style="fill:none;stroke:#000;stroke-width:20;stroke-linecap:round;stroke-linejoin:round;stroke-miterlimit:10;stroke-dasharray:none;stroke-opacity:1" transform="translate(170 206)"/><path d="M0 0h60" style="fill:none;stroke:#000;stroke-width:20;stroke-linecap:round;stroke-linejoin:round;stroke-miterlimit:10;stroke-dasharray:none;stroke-opacity:1" transform="translate(90 86)"/><path d="M0 0q.15-1.215.15-2.46c0-11.05-8.95-20-20-20-11.049 0-20 8.95-20 20s8.951 20 20 20C-9.63 17.54-1.21 9.89 0 0" style="fill:none;stroke:#000;stroke-width:20;stroke-linecap:round;stroke-linejoin:round;stroke-miterlimit:10;stroke-dasharray:none;stroke-opacity:1" transform="translate(139.85 378.46)"/><path d="M0 0v-70" style="fill:none;stroke:#000;stroke-width:20;stroke-linecap:round;stroke-linejoin:round;stroke-miterlimit:10;stroke-dasharray:none;stroke-opacity:1" transform="translate(120 356)"/><path d="M0 0v40h100V0" style="fill:none;stroke:#000;stroke-width:20;stroke-linecap:round;stroke-linejoin:round;stroke-miterlimit:10;stroke-dasharray:none;stroke-opacity:1" transform="translate(70 246)"/><path d="M0 0h-217.779" style="fill:none;stroke:#000;stroke-width:20;stroke-linecap:round;stroke-linejoin:round;stroke-miterlimit:10;stroke-dasharray:none;stroke-opacity:1" transform="translate(500.89 186)"/><path d="M0 0h198.82" style="fill:none;stroke:#000;stroke-width:20;stroke-linecap:round;stroke-linejoin:round;stroke-miterlimit:10;stroke-dasharray:none;stroke-opacity:1" transform="translate(292.59 266)"/><path d="M0 0v80" style="fill:none;stroke:#000;stroke-width:20;stroke-linecap:round;stroke-linejoin:round;stroke-miterlimit:10;stroke-dasharray:none;stroke-opacity:1" transform="translate(342 186)"/><path d="M0 0v-80" style="fill:none;stroke:#000;stroke-width:20;stroke-linecap:round;stroke-linejoin:round;stroke-miterlimit:10;stroke-dasharray:none;stroke-opacity:1" transform="translate(442 266)"/><path d="M0 0h60" style="fill:none;stroke:#000;stroke-width:20;stroke-linecap:round;stroke-linejoin:round;stroke-miterlimit:10;stroke-dasharray:none;stroke-opacity:1" transform="translate(362 146)"/><path d="M0 0q-.15 1.215-.15 2.46c0 11.05 8.95 20 20 20 11.049 0 20-8.95 20-20s-8.951-20-20-20C9.63-17.54 1.21-9.89 0 0" style="fill:none;stroke:#000;stroke-width:20;stroke-linecap:round;stroke-linejoin:round;stroke-miterlimit:10;stroke-dasharray:none;stroke-opacity:1" transform="translate(372.15 433.54)"/><path d="M0 0v-70" style="fill:none;stroke:#000;stroke-width:20;stroke-linecap:round;stroke-linejoin:round;stroke-miterlimit:10;stroke-dasharray:none;stroke-opacity:1" transform="translate(392 416)"/><path d="M0 0v40h100V0" style="fill:none;stroke:#000;stroke-width:20;stroke-linecap:round;stroke-linejoin:round;stroke-miterlimit:10;stroke-dasharray:none;stroke-opacity:1" transform="translate(342 306)"/><path d="M0 0c0-5.522-4.478-10-10-10S-20-5.522-20 0s4.478 10 10 10S0 5.522 0 0" style="fill:#000;fill-opacity:1;fill-rule:nonzero;stroke:none" transform="translate(402 106)"/><path d="M0 0h-31.98c-16.85 21-28.4 48.85-31.9 80-.74 6.53-1.12 13.21-1.12 20 0 21.47 3.8 41.81 10.6 60 5.59 14.99 13.21 28.52 22.42 40h153.96c9.21-11.48 16.83-25.01 22.42-40 6.8-18.19 10.6-38.53 10.6-60 0-6.79-.38-13.47-1.12-20-3.5-31.15-15.05-59-31.9-80H90" style="fill:none;stroke:#000;stroke-width:20;stroke-linecap:round;stroke-linejoin:round;stroke-miterlimit:10;stroke-dasharray:none;stroke-opacity:1" transform="translate(347 106)"/></g></svg>
