<svg xmlns="http://www.w3.org/2000/svg" xml:space="preserve" viewBox="0 0 512 512" width="48" height="48"><path d="M436.566 419.141H75.434V285.735c0-30.336 24.592-54.928 54.928-54.928h251.275c30.336 0 54.928 24.592 54.928 54.928z" style="fill:#fd8087"/><path d="M448.391 468.216H63.609c-5.573 0-10.091-4.518-10.091-10.091v-28.893c0-5.573 4.518-10.091 10.091-10.091H448.39c5.573 0 10.091 4.518 10.091 10.091v28.893c.001 5.573-4.517 10.091-10.09 10.091m-66.753-237.409h-30c30.336 0 54.928 24.592 54.928 54.929V419.14h30V285.736c0-30.337-24.592-54.929-54.928-54.929" style="fill:#fe646f"/><path d="M448.391 419.14h-19.909v18.984c0 5.573-4.518 10.091-10.091 10.091H53.518v9.909c0 5.573 4.518 10.091 10.091 10.091H448.39c5.573 0 10.091-4.518 10.091-10.091v-28.893c.001-5.572-4.517-10.091-10.09-10.091" style="fill:#fd4755"/><path d="M331.508 94.247H180.492c-6.909 0-12.509-5.601-12.509-12.509V56.294c0-6.909 5.601-12.509 12.509-12.509h151.017c6.909 0 12.509 5.601 12.509 12.509v25.444c0 6.908-5.601 12.509-12.51 12.509" style="fill:#a79ba7"/><path d="M267.879 175.787h-23.757c-10.343 0-18.728-8.385-18.728-18.728s8.385-18.728 18.728-18.728h23.757c10.343 0 18.728 8.385 18.728 18.728s-8.385 18.728-18.728 18.728" style="fill:#b5adb6"/><path d="M26.099 342.029h459.802v37.576H26.099z" style="fill:#cbc4cc"/><path d="M49.263 445.455h-9.197c-7.714 0-13.967-6.253-13.967-13.967V249.021c0-50.709 41.108-91.817 91.817-91.817h103.916m68.004.001h104.248c50.709 0 91.817 41.108 91.817 91.817v182.466c0 7.714-6.253 13.967-13.967 13.967h-13.452" style="fill:none;stroke:#000;stroke-width:15;stroke-linecap:round;stroke-linejoin:round;stroke-miterlimit:10"/><path d="M436.566 382.714v36.427H75.434v-36.898m120.041-151.436h186.163c30.336 0 54.928 24.592 54.928 54.928v54.13m-361.132-2.354v-51.775c0-30.336 24.592-54.928 54.928-54.928h30.112" style="fill:none;stroke:#000;stroke-width:15;stroke-linecap:round;stroke-linejoin:round;stroke-miterlimit:10"/><path d="M368.243 468.216H63.609c-5.573 0-10.091-4.518-10.091-10.091v-28.893c0-5.573 4.518-10.091 10.091-10.091H448.39c5.573 0 10.091 4.518 10.091 10.091v28.893c0 5.573-4.518 10.091-10.091 10.091h-45.147M256 382.243v36.898m0-183.671v104.395m95.525-270.85H504.5m-497 0h157.973m166.035 25.232H180.492c-6.909 0-12.509-5.601-12.509-12.509V56.294c0-6.909 5.601-12.509 12.509-12.509h151.017c6.909 0 12.509 5.601 12.509 12.509v25.444c0 6.908-5.601 12.509-12.51 12.509m-63.629 81.54h-23.757c-10.343 0-18.728-8.385-18.728-18.728v0c0-10.343 8.385-18.728 18.728-18.728h23.757c10.343 0 18.728 8.385 18.728 18.728v0c0 10.343-8.385 18.728-18.728 18.728M256 138.331V97.394M26.099 342.029h459.802v37.576H26.099zm134.376-40.699h9.996m171.058 0h9.996" style="fill:none;stroke:#000;stroke-width:15;stroke-linecap:round;stroke-linejoin:round;stroke-miterlimit:10"/></svg>
