<svg height="511pt" viewBox="-48 1 511 511.99925" width="511pt" xmlns="http://www.w3.org/2000/svg"><path d="m295.273438 86.050781h-215.691407c-17.113281 0-30.980469 13.867188-30.980469 30.976563v384.972656h36.429688v-371.851562c0-4.117188 3.335938-7.453126 7.453125-7.453126h189.886719c4.117187 0 7.453125 3.335938 7.453125 7.453126v371.851562h36.429687v-384.972656c0-17.109375-13.871094-30.976563-30.980468-30.976563zm0 0" fill="#cff1fb"/><path d="m282.371094 122.695312h-189.886719c-4.117187 0-7.453125 3.335938-7.453125 7.453126v371.851562h204.792969v-371.851562c0-4.117188-3.335938-7.453126-7.453125-7.453126zm0 0" fill="#91def5"/><path d="m356.320312 340.6875c0 4.984375 4.042969 9.027344 9.027344 9.027344h30.753906c4.988282 0 9.027344-4.042969 9.027344-9.027344v-47.277344h-48.808594zm0 0" fill="#ffcb7c"/><path d="m396.101562 256.691406h-30.753906c-4.984375 0-9.027344 4.042969-9.027344 9.03125v27.6875h48.808594v-27.6875c0-4.988281-4.042968-9.03125-9.027344-9.03125zm0 0" fill="#ffedd1"/><path d="m119.066406 42.488281c20.007813 15.539063 20.953125 19.246094 27.035156 19.246094 6.09375 0 7.089844-3.757813 27.035157-19.246094 4.269531-3.503906 4.890625-9.804687 1.386719-14.070312-3.5-4.273438-9.800782-4.894531-14.070313-1.390625l-4.351563 3.566406v-20.59375c0-5.523438-4.476562-10-10-10-5.519531 0-10 4.476562-10 10v20.597656l-4.347656-3.570312c-4.269531-3.5-10.570312-2.882813-14.074218 1.390625-3.503907 4.269531-2.882813 10.566406 1.386718 14.070312zm0 0"/><path d="m214.40625 34.707031 4.347656-3.566406v20.59375c0 5.523437 4.476563 10 10 10 5.523438 0 10-4.476563 10-10v-20.59375c3.171875 2.191406 5.472656 5.835937 10.6875 5.835937 9.363282 0 13.585938-11.789062 6.347656-17.726562l-20.691406-16.980469c-3.6875-3.027343-9-3.023437-12.6875 0l-20.691406 16.980469c-4.269531 3.5-4.890625 9.800781-1.386719 14.070312 3.503907 4.269532 9.804688 4.890626 14.074219 1.386719zm0 0"/><path d="m364.355469 492h-28.101563v-374.972656c0-22.59375-18.382812-40.976563-40.980468-40.976563h-215.691407c-22.597656 0-40.980469 18.382813-40.980469 40.976563v374.972656h-28.101562c-5.523438 0-10 4.476562-10 10 0 5.519531 4.476562 10 10 10h353.855469c5.523437 0 10-4.480469 10-10 0-5.523438-4.476563-10-10-10zm-166.929688 0v-37.035156c0-5.519532-4.476562-10-10-10-5.523437 0-10 4.480468-10 10v37.035156h-82.394531v-359.304688h82.394531v242.269532c0 5.523437 4.476563 10 10 10 5.523438 0 10-4.476563 10-10v-242.269532h82.398438v359.304688zm102.398438 0v-361.851562c0-9.625-7.832031-17.453126-17.453125-17.453126h-189.886719c-9.625 0-17.453125 7.828126-17.453125 17.453126v361.851562h-16.429688v-374.972656c0-11.566406 9.410157-20.976563 20.980469-20.976563h215.691407c11.570312 0 20.980468 9.410157 20.980468 20.976563v374.972656zm0 0"/><path d="m396.101562 246.691406h-30.75c-10.496093 0-19.03125 8.539063-19.03125 19.03125v74.964844c0 10.492188 8.539063 19.027344 19.03125 19.027344h30.75c10.492188 0 19.027344-8.535156 19.027344-19.027344 0-15.660156 0-59.082031 0-74.964844 0-10.492187-8.535156-19.03125-19.027344-19.03125zm-29.78125 20h28.808594v16.71875h-28.808594zm0 73.023438v-36.304688h28.808594v36.304688zm0 0"/><path d="m187.425781 404.976562c-5.523437 0-10 4.492188-10 10.015626 0 5.523437 4.476563 10 10 10 5.523438 0 10-4.480469 10-10v-.027344c0-5.519532-4.476562-9.988282-10-9.988282zm0 0"/></svg>
