<svg xmlns="http://www.w3.org/2000/svg" viewBox="-48 1 511 511.999" width="48" height="48"><path fill="#cff1fb" d="M295.273 86.05H79.582c-17.113 0-30.98 13.868-30.98 30.977V502h36.43V130.148a7.45 7.45 0 0 1 7.452-7.453h189.887a7.45 7.45 0 0 1 7.453 7.453V502h36.43V117.027c0-17.109-13.871-30.976-30.98-30.976m0 0"/><path fill="#91def5" d="M282.371 122.695H92.484a7.45 7.45 0 0 0-7.453 7.453V502h204.793V130.148a7.45 7.45 0 0 0-7.453-7.453m0 0"/><path fill="#ffcb7c" d="M356.32 340.688a9.03 9.03 0 0 0 9.028 9.027h30.754a9.026 9.026 0 0 0 9.027-9.028V293.41H356.32zm0 0"/><path fill="#ffedd1" d="M396.102 256.691h-30.754c-4.985 0-9.028 4.043-9.028 9.032v27.687h48.809v-27.687c0-4.989-4.043-9.032-9.027-9.032m0 0"/><path d="M119.066 42.488c20.008 15.54 20.954 19.246 27.036 19.246 6.093 0 7.09-3.757 27.035-19.246 4.27-3.504 4.89-9.804 1.386-14.07-3.5-4.273-9.8-4.895-14.07-1.39l-4.351 3.566V10c0-5.523-4.477-10-10-10-5.52 0-10 4.477-10 10v20.598l-4.348-3.57c-4.27-3.5-10.57-2.883-14.074 1.39a9.995 9.995 0 0 0 1.386 14.07m95.34-7.781 4.348-3.566v20.593c0 5.524 4.476 10 10 10 5.523 0 10-4.476 10-10V31.141c3.172 2.191 5.473 5.836 10.687 5.836 9.364 0 13.586-11.79 6.348-17.727L235.098 2.27a10 10 0 0 0-12.688 0l-20.69 16.98c-4.27 3.5-4.89 9.8-1.387 14.07 3.504 4.27 9.805 4.89 14.074 1.387M364.355 492h-28.101V117.027c0-22.593-18.383-40.976-40.98-40.976H79.581c-22.598 0-40.98 18.383-40.98 40.976V492H10.5c-5.523 0-10 4.477-10 10 0 5.52 4.477 10 10 10h353.855c5.524 0 10-4.48 10-10 0-5.523-4.476-10-10-10m-166.93 0v-37.035c0-5.52-4.476-10-10-10-5.523 0-10 4.48-10 10V492H95.032V132.695h82.395v242.27c0 5.523 4.476 10 10 10 5.523 0 10-4.477 10-10v-242.27h82.398V492zm102.4 0V130.148c0-9.625-7.833-17.453-17.454-17.453H92.484c-9.625 0-17.453 7.828-17.453 17.453V492h-16.43V117.027c0-11.566 9.41-20.976 20.981-20.976h215.691c11.57 0 20.98 9.41 20.98 20.976V492zm0 0"/><path d="M396.102 246.691h-30.75c-10.497 0-19.032 8.54-19.032 19.032v74.965c0 10.492 8.54 19.027 19.032 19.027h30.75c10.492 0 19.027-8.535 19.027-19.028v-74.964c0-10.493-8.535-19.032-19.027-19.032m-29.782 20h28.809v16.72H366.32zm0 73.024V303.41h28.809v36.305zm-178.894 65.262c-5.524 0-10 4.492-10 10.015s4.476 10 10 10c5.523 0 10-4.48 10-10v-.027c0-5.52-4.477-9.988-10-9.988m0 0"/></svg>
