<svg xmlns="http://www.w3.org/2000/svg" viewBox="0 0 682.667 682.667" width="48" height="48"><defs><clipPath id="a" clipPathUnits="userSpaceOnUse"><path d="M0 512h512V0H0Z"/></clipPath><clipPath id="b" clipPathUnits="userSpaceOnUse"><path d="M0 512h512V0H0Z"/></clipPath></defs><path d="m0 0-182.084-294.715L0-284.265Z" style="fill:#64bbdf;fill-opacity:1;fill-rule:nonzero;stroke:none" transform="matrix(1.33333 0 0 -1.33333 318.95 75.26)"/><path d="m0 0-182.084-294.715L0-284.265Z" style="fill:none;stroke:#000;stroke-width:20;stroke-linecap:round;stroke-linejoin:round;stroke-miterlimit:10;stroke-dasharray:none;stroke-opacity:1" transform="matrix(1.33333 0 0 -1.33333 318.95 75.26)"/><path d="m0 0 182.084-317.37L0-329.829Z" style="fill:#b8ecff;fill-opacity:1;fill-rule:nonzero;stroke:none" transform="matrix(1.33333 0 0 -1.33333 318.95 14.508)"/><g clip-path="url(#a)" transform="matrix(1.33333 0 0 -1.33333 0 682.667)"><path d="m0 0 182.084-317.37L0-329.829Z" style="fill:none;stroke:#000;stroke-width:20;stroke-linecap:round;stroke-linejoin:round;stroke-miterlimit:10;stroke-dasharray:none;stroke-opacity:1" transform="translate(239.212 501.12)"/></g><path d="M0 0v-72.261" style="fill:none;stroke:#000;stroke-width:20;stroke-linecap:round;stroke-linejoin:round;stroke-miterlimit:10;stroke-dasharray:none;stroke-opacity:1" transform="matrix(1.33333 0 0 -1.33333 318.95 411.648)"/><g clip-path="url(#b)" transform="matrix(1.33333 0 0 -1.33333 0 682.667)"><path d="M0 0c16.296-37.659 53.573-62.584 95.315-62.584H338.83a103.87 103.87 0 0 1 88.93 50.204l29.136 48.276" style="fill:#ffc945;fill-opacity:1;fill-rule:nonzero;stroke:#000;stroke-width:20;stroke-linecap:round;stroke-linejoin:round;stroke-miterlimit:10;stroke-dasharray:none;stroke-opacity:1" transform="translate(22.097 73.465)"/><path d="m0 0 69.512 5.461L92.52 43.584l-492-36.919 8.157-26.432a104 104 0 0 1 3.94-10.668l273.715 21.401" style="fill:#ff6b6b;fill-opacity:1;fill-rule:nonzero;stroke:#000;stroke-width:20;stroke-linecap:round;stroke-linejoin:round;stroke-miterlimit:10;stroke-dasharray:none;stroke-opacity:1" transform="translate(409.48 103.9)"/></g></svg>
