<svg xmlns="http://www.w3.org/2000/svg" viewBox="-74 0 511 511.999" width="48" height="48"><path fill="#7ca1b1" d="M343.953 273.773H20.003c-6.628 0-12.003-5.375-12.003-12V47.153C8 25.252 25.754 7.5 47.652 7.5H318.95c20.438 0 37.004 16.566 37.004 37.004v217.27c0 6.628-5.371 12-12 12m0 0"/><path fill="#678d98" d="M318.95 7.5h-21.731a36 36 0 0 1 1.46 10.16v217.426c0 7.023-5.695 12.719-12.718 12.719H8v13.968c0 6.63 5.375 12 12.004 12h323.95c6.628 0 12-5.37 12-12V44.503c0-20.437-16.567-37.003-37.005-37.003m0 0"/><path fill="#d5f3f7" d="M101.637 152.96H57.602c-8.012 0-14.504-6.495-14.504-14.503V58.418c0-8.012 6.492-14.504 14.504-14.504h44.035c7.18 0 13 5.82 13 13v83.047c0 7.18-5.82 13-13 13m103.109-.001h-44.035c-8.008 0-14.504-6.495-14.504-14.503V58.418c0-8.012 6.496-14.504 14.504-14.504h44.035c7.18 0 13 5.82 13 13v83.047c0 7.18-5.82 13-13 13m102.586-.001h-44.031c-8.012 0-14.508-6.495-14.508-14.503V58.418c0-8.012 6.496-14.504 14.508-14.504h44.031c7.184 0 13.004 5.82 13.004 13v83.047c0 7.18-5.824 13-13.004 13m0 0"/><path fill="#a7e8f1" d="M101.637 43.914H79.238c7.301 0 13.215 5.918 13.215 13.215v82.613c0 7.301-5.918 13.219-13.215 13.219h22.399c7.18 0 13-5.82 13-13.004V56.914c0-7.18-5.82-13-13-13m103.109 0h-22.398c7.3 0 13.218 5.918 13.218 13.215v82.613c0 7.301-5.918 13.219-13.218 13.219h22.398c7.18 0 13-5.82 13-13.004V56.914c0-7.18-5.82-13-13-13m102.586 0h-22.395c7.297 0 13.215 5.918 13.215 13.215v82.613c0 7.301-5.918 13.219-13.215 13.219h22.395c7.184 0 13.004-5.82 13.004-13.004V56.914c0-7.18-5.824-13-13.004-13m0 0"/><path fill="#9c9c9c" d="M100.871 429.398c0 12.157-9.851 22.008-22.004 22.008-12.152 0-22.008-9.851-22.008-22.008 0-12.152 9.856-22.003 22.008-22.003 12.153 0 22.004 9.851 22.004 22.003m192.324-113.011c0 12.152-9.851 22.004-22.007 22.004-12.153 0-22.004-9.852-22.004-22.004 0-12.157 9.851-22.008 22.004-22.008 12.156 0 22.007 9.851 22.007 22.008m0 0"/><path fill="#838383" d="M78.867 407.395c-5.02 0-9.64 1.683-13.344 4.511 11.957.227 21.586 9.98 21.586 21.996 0 7.133-3.398 13.473-8.664 17.493.14.003.282.011.422.011 12.153 0 22.004-9.851 22.004-22.008 0-12.152-9.851-22.003-22.004-22.003m192.321-113.016a21.9 21.9 0 0 0-13.344 4.512c11.96.226 21.586 9.984 21.586 21.996 0 7.133-3.399 13.472-8.66 17.492.14.004.277.012.417.012 12.157 0 22.008-9.852 22.008-22.004 0-12.157-9.851-22.008-22.007-22.008m0 0"/><path fill="#9c9c9c" d="m40.008 501.203-11.512-19.922a6.665 6.665 0 0 1 2.438-9.11l304.109-175.855a6.673 6.673 0 0 1 9.113 2.438l11.512 19.918a6.67 6.67 0 0 1-2.434 9.113L49.121 503.641a6.673 6.673 0 0 1-9.113-2.438m0 0"/><path fill="#838383" d="m355.672 318.672-11.516-19.918a6.67 6.67 0 0 0-9.113-2.438l-14.254 8.243 9.492 16.425a6.666 6.666 0 0 1-2.433 9.11L37.988 497.71l2.02 3.492a6.675 6.675 0 0 0 9.113 2.438l304.113-175.856a6.675 6.675 0 0 0 2.438-9.113m0 0"/><path d="M57.602 160.46h42.527c12.137 0 22.008-9.87 22.008-22.003V58.418c0-12.133-9.871-22.008-22.008-22.008H57.602c-12.133 0-22.004 9.875-22.004 22.008v80.039c0 12.133 9.87 22.004 22.004 22.004M50.598 58.419c0-3.863 3.144-7.004 7.004-7.004h42.527c3.863 0 7.008 3.14 7.008 7.004v80.039c0 3.86-3.145 7.004-7.008 7.004H57.602c-3.86 0-7.004-3.145-7.004-7.004zM160.71 160.46h42.532c12.133 0 22.008-9.87 22.008-22.003v-21.535a7.5 7.5 0 0 0-7.504-7.5 7.5 7.5 0 0 0-7.5 7.5v21.535c0 3.86-3.14 7.004-7.004 7.004h-42.531c-3.86 0-7.004-3.145-7.004-7.004V58.418c0-3.863 3.145-7.004 7.004-7.004h42.531a7.01 7.01 0 0 1 7.004 7.004v26.5a7.5 7.5 0 0 0 7.5 7.5 7.5 7.5 0 0 0 7.504-7.5v-26.5c0-12.133-9.875-22.008-22.008-22.008h-42.531c-12.133 0-22.004 9.875-22.004 22.008v80.039c0 12.133 9.871 22.004 22.004 22.004m102.589-.001h42.528c12.137 0 22.008-9.87 22.008-22.003V58.418c0-12.133-9.871-22.008-22.008-22.008h-42.527c-12.137 0-22.008 9.875-22.008 22.008v80.039c0 12.133 9.871 22.004 22.008 22.004m-7.003-102.042a7.01 7.01 0 0 1 7.004-7.004h42.527a7.01 7.01 0 0 1 7.004 7.004v80.039c0 3.86-3.14 7.004-7.004 7.004h-42.527c-3.863 0-7.004-3.145-7.004-7.004zm0 0"/><path d="M362.164 314.918 350.648 295a14.08 14.08 0 0 0-8.605-6.598 14.07 14.07 0 0 0-10.754 1.422l-31.762 18.364a29.4 29.4 0 0 0-3.168-7.184l34.176-19.73h11.461c11.832 0 21.461-9.626 21.461-21.461V47.153c0-26-21.152-47.153-47.152-47.153H47.648C21.652 0 .5 21.152.5 47.152v212.66c0 11.208 8.637 20.418 19.598 21.368v166.34a7.502 7.502 0 0 0 11.254 6.496l20.855-12.043a29.8 29.8 0 0 0 4.36 6.71L27.175 465.68c-6.762 3.91-9.086 12.593-5.176 19.355l11.516 19.922c3.968 6.871 12.812 8.961 19.359 5.176L78.8 495.148a7.503 7.503 0 0 0-7.512-12.988l-25.203 14.57-10.684-18.48 302.672-175.023 10.684 18.48-247.84 143.738a7.5 7.5 0 0 0-2.727 10.25 7.5 7.5 0 0 0 10.25 2.727l248.543-144.14a14.1 14.1 0 0 0 6.602-8.61 14.1 14.1 0 0 0-1.422-10.754m-98.375 13.937a14.5 14.5 0 0 1-7.105-12.468c0-8 6.507-14.508 14.504-14.508 7.937 0 14.394 6.406 14.496 14.316zm-160.691 83.739 142.195-82.102a29.5 29.5 0 0 0 4.652 6.367l-143.222 82.82a29.5 29.5 0 0 0-3.625-7.085M284.93 290.285a29.3 29.3 0 0 0-13.743-3.406c-15.882 0-28.87 12.617-29.476 28.355l-50.227 29v-62.957h109.047zM15.5 259.813V47.153c0-17.727 14.422-32.15 32.148-32.15h268.657c17.726 0 32.148 14.423 32.148 32.15v212.66c0 3.562-2.898 6.46-6.457 6.46H153.465a7.5 7.5 0 1 0 0 15h23.02v62.954L67.452 281.273h52.008a7.5 7.5 0 0 0 7.5-7.5 7.5 7.5 0 0 0-7.5-7.5h-97.5a6.47 6.47 0 0 1-6.461-6.46m19.602 21.46h2.359q.093.062.191.118l131.344 75.832-78.246 45.175a29.4 29.4 0 0 0-11.883-2.507c-15.183 0-27.726 11.535-29.328 26.3l-14.437 8.336zm29.261 148.125c0-7.996 6.504-14.503 14.504-14.503 7.348 0 13.418 5.496 14.363 12.59l-23.203 13.413c-3.511-2.714-5.664-6.96-5.664-11.5m0 0"/><path d="M271.39 210.148c-14.394 0-22-6.554-28.109-11.82-5.511-4.75-9.496-8.18-18.316-8.18s-12.8 3.43-18.313 8.18c-6.113 5.27-13.718 11.82-28.109 11.82s-21.996-6.554-28.11-11.82c-5.511-4.75-9.492-8.18-18.312-8.18-8.816 0-12.8 3.43-18.312 8.18-6.114 5.27-13.72 11.82-28.11 11.82s-21.996-6.554-28.105-11.82c-5.512-4.75-9.496-8.18-18.313-8.18a7.503 7.503 0 1 1 0-15.004c14.39 0 21.996 6.555 28.106 11.82 5.511 4.75 9.492 8.184 18.312 8.184s12.801-3.433 18.313-8.183c6.113-5.266 13.718-11.82 28.11-11.82s21.995 6.554 28.108 11.82c5.512 4.75 9.493 8.183 18.313 8.183 8.816 0 12.8-3.433 18.312-8.183 6.114-5.266 13.72-11.82 28.11-11.82s21.996 6.554 28.11 11.82c5.51 4.75 9.495 8.183 18.316 8.183s12.804-3.433 18.316-8.183c6.11-5.266 13.715-11.82 28.11-11.82a7.5 7.5 0 0 1 7.5 7.5 7.5 7.5 0 0 1-7.5 7.503c-8.82 0-12.805 3.43-18.317 8.18-6.11 5.266-13.715 11.82-28.11 11.82m0 0"/></svg>
