<svg xmlns="http://www.w3.org/2000/svg" xml:space="preserve" viewBox="0 0 512 512" width="48" height="48"><path d="M256 10c120.951 0 219 98.05 219 219v273H37V229c0-120.95 98.05-219 219-219" style="fill:#898998"/><path d="m74.26 502 73.015-108 215.83-2.396L437.74 502z" style="fill:#b3b6c3"/><path d="M349.333 106H162.667C140.207 106 122 124.207 122 146.667v206.667c0 22.46 18.207 40.667 40.667 40.667h186.667c22.46 0 40.667-18.207 40.667-40.667V146.667C390 124.207 371.793 106 349.333 106" style="fill:#4dbaf6"/><path d="M122 178h268v128H122z" style="fill:#fff"/><path d="M475 368.48c-2.63 0-5.21 1.07-7.07 2.93s-2.93 4.44-2.93 7.07 1.069 5.21 2.93 7.07c1.86 1.87 4.44 2.93 7.07 2.93s5.21-1.06 7.069-2.93c1.86-1.86 2.931-4.44 2.931-7.07s-1.07-5.21-2.931-7.07a10.07 10.07 0 0 0-7.069-2.93"/><path d="M417.928 67.072C374.675 23.82 317.168 0 256 0S137.325 23.82 94.072 67.072 27 167.832 27 229v273c0 5.523 4.478 10 10 10h438c5.522 0 10-4.477 10-10v-66c0-5.523-4.478-10-10-10s-10 4.477-10 10v56h-21.95l-65.37-96.692c13.458-9.118 22.32-24.53 22.32-41.974V146.667C400 118.729 377.271 96 349.333 96H162.667C134.729 96 112 118.729 112 146.667v206.667c0 17.444 8.862 32.856 22.32 41.974L68.95 492H47V229c0-115.243 93.757-209 209-209s209 93.757 209 209v101.483c0 5.523 4.478 10 10 10s10-4.477 10-10V229c0-61.168-23.82-118.675-67.072-161.928M212.991 215.849c-3.906-3.905-10.236-3.905-14.143 0L132 282.697V188h114v108h-99.018l66.009-66.009c3.905-3.905 3.905-10.237 0-14.142M266 188h99.857l-57.429 57.429c-3.905 3.905-3.905 10.237 0 14.143 1.953 1.953 4.512 2.929 7.071 2.929s5.118-.976 7.071-2.929L380 202.143V296H266zm-103.333-72h186.666c16.91 0 30.667 13.757 30.667 30.667V168H132v-21.333c0-16.91 13.757-30.667 30.667-30.667M132 316h248v37.333c0 16.91-13.757 30.667-30.667 30.667H162.667C145.757 384 132 370.243 132 353.333zm30.667 88h186.666c3.238 0 6.402-.318 9.473-.901L382.402 438H129.598l23.596-34.901c3.071.583 6.235.901 9.473.901m-46.59 54h279.846l22.986 34H93.091z"/><path d="M173.33 360c2.64 0 5.21-1.07 7.069-2.93 1.86-1.86 2.931-4.44 2.931-7.07s-1.07-5.21-2.931-7.07c-1.859-1.86-4.439-2.93-7.069-2.93s-5.21 1.07-7.07 2.93-2.93 4.44-2.93 7.07 1.069 5.21 2.93 7.07 4.44 2.93 7.07 2.93m165.34 0c2.63 0 5.21-1.07 7.07-2.93 1.859-1.86 2.93-4.44 2.93-7.07s-1.07-5.21-2.93-7.07-4.44-2.93-7.07-2.93-5.21 1.07-7.07 2.93c-1.859 1.86-2.93 4.44-2.93 7.07s1.07 5.21 2.93 7.07 4.44 2.93 7.07 2.93m-121.573 0h77.807c5.522 0 10-4.477 10-10s-4.478-10-10-10h-77.807c-5.522 0-10 4.477-10 10s4.477 10 10 10"/></svg>
