<svg xmlns="http://www.w3.org/2000/svg" viewBox="0 0 512 512" width="48" height="48"><path fill="#f9f3f1" d="M39.234 122.835h433.667v308.737H39.234z"/><path fill="#f3eae6" d="M452.931 122.835h19.97v308.737h-19.97z"/><path fill="#e19974" d="M420.721 357.905H91.279a5.284 5.284 0 0 1-5.284-5.284v-61.909a5.284 5.284 0 0 1 5.284-5.284h329.442a5.284 5.284 0 0 1 5.284 5.284v61.909a5.284 5.284 0 0 1-5.284 5.284M37.883 504.352H8.974a1.35 1.35 0 0 1-1.351-1.351V122.835h31.61v380.167a1.35 1.35 0 0 1-1.35 1.35"/><path fill="#c1e9af" d="M504.512 122.835H7.488v-16.617c0-30.856 25.014-55.87 55.87-55.87h385.284c30.856 0 55.87 25.014 55.87 55.87z"/><path fill="#ade194" d="M504.508 106.136v16.695h-18.562v-16.695c0-30.814-24.973-55.786-55.787-55.786h18.562c30.815 0 55.787 24.972 55.787 55.786"/><path fill="#e1d3ce" d="M372.182 83.623H139.818a6.223 6.223 0 0 1-6.223-6.223V13.871a6.223 6.223 0 0 1 6.223-6.223h232.364a6.223 6.223 0 0 1 6.223 6.223V77.4a6.22 6.22 0 0 1-6.223 6.223"/><path fill="#cdbfba" d="M378.407 13.864v63.545a6.21 6.21 0 0 1-6.211 6.211h-19.97a6.21 6.21 0 0 0 6.211-6.211V13.864c0-3.435-2.786-6.221-6.211-6.221h19.97c3.425.001 6.211 2.787 6.211 6.221"/><path fill="#e19974" d="M503.161 504.352h-28.909a1.35 1.35 0 0 1-1.351-1.351V122.835h31.61v380.167a1.35 1.35 0 0 1-1.35 1.35"/><path fill="#dc8758" d="M504.508 122.831v380.172c0 .749-.599 1.348-1.348 1.348h-15.806c.749 0 1.348-.599 1.348-1.348V122.831z"/><path fill="#e19974" d="M423.314 455.923H88.686a4.283 4.283 0 0 1-4.283-4.283v-30.324c0-7.785 6.311-14.096 14.096-14.096H413.5c7.785 0 14.096 6.311 14.096 14.096v30.324a4.28 4.28 0 0 1-4.282 4.283"/><path fill="#dc8758" d="M426.006 290.7v61.927a5.28 5.28 0 0 1-5.272 5.282h-20.569a5.276 5.276 0 0 0 5.272-5.282V290.7a5.273 5.273 0 0 0-5.272-5.272h20.569a5.28 5.28 0 0 1 5.272 5.272m1.587 130.595v30.354a4.27 4.27 0 0 1-4.274 4.274H402.76a4.28 4.28 0 0 0 4.274-4.274v-30.354c0-7.768-6.301-14.079-14.079-14.079h20.569c7.769 0 14.069 6.311 14.069 14.079"/><path d="M448.725 42.859h-62.831V13.862c0-7.556-6.147-13.703-13.703-13.703H139.809c-7.556 0-13.703 6.147-13.703 13.703v28.997H63.275C28.385 42.859 0 71.244 0 106.134l.135 396.869c0 4.873 3.965 8.837 8.837 8.837h28.914c4.873 0 8.837-3.965 8.837-8.837V439.06h30.191v12.587c0 6.487 5.278 11.765 11.766 11.765h27.969v40.941a7.49 7.49 0 0 0 7.489 7.489 7.49 7.49 0 0 0 7.489-7.489v-40.941h248.747v40.941a7.49 7.49 0 0 0 14.978 0v-40.941h27.969c6.487 0 11.766-5.277 11.766-11.765V439.06h30.327v63.943c0 4.873 3.965 8.837 8.837 8.837h28.913c4.873 0 8.837-3.965 8.837-8.837V106.134c-.001-34.89-28.386-63.275-63.276-63.275M31.745 496.864H15.112v-366.54h16.633zm388.363-48.43H91.892v-27.139a6.594 6.594 0 0 1 6.587-6.586h315.042a6.594 6.594 0 0 1 6.587 6.586zm-288.482-83.04h248.747v34.337H131.626zm-38.142-14.977v-57.5h325.031v57.5zm403.538 146.447H480.39V389.439c0-4.136-3.352-7.489-7.489-7.489s-7.489 3.352-7.489 7.489v34.644h-30.327v-2.788c0-11.891-9.674-21.563-21.564-21.563h-18.17v-34.337h25.378c7.038 0 12.764-5.727 12.764-12.765v-61.925c0-7.038-5.726-12.765-12.764-12.765H91.271c-7.038 0-12.764 5.727-12.764 12.765v61.925c0 7.038 5.726 12.765 12.764 12.765h25.378v34.337h-18.17c-11.89 0-21.564 9.673-21.564 21.563v2.788H46.723V130.324h418.689v224.037a7.49 7.49 0 0 0 14.978 0V130.324h16.632zm0-381.518H14.978v-9.212c0-26.631 21.666-48.298 48.297-48.298h62.831V77.41c0 7.556 6.147 13.703 13.703 13.703h36.676a7.49 7.49 0 0 0 7.489-7.489 7.49 7.49 0 0 0-7.489-7.489h-35.401V15.136h229.834v60.999H210.821a7.49 7.49 0 0 0-7.489 7.489 7.49 7.49 0 0 0 7.489 7.489h161.371c7.556 0 13.703-6.147 13.703-13.703V57.836h62.831c26.631 0 48.297 21.667 48.297 48.298v9.212z"/><path d="M353.01 45.636a7.49 7.49 0 0 0-7.489-7.489H166.479a7.49 7.49 0 0 0 0 14.978h179.043a7.49 7.49 0 0 0 7.488-7.489"/></svg>
