<svg xmlns="http://www.w3.org/2000/svg" viewBox="0 0 511.971 511.971" width="48" height="48"><path fill="#5d748a" d="M72.486 201c0-106.867 76.633-193.5 183.5-193.5s183.5 86.633 183.5 193.5c0 148.924-158.688 285.334-181.061 302.638a3.975 3.975 0 0 1-4.878 0C231.174 486.334 72.486 349.924 72.486 201"/><path fill="#3f597d" d="M279.106 486.007c-9.69 8.76-17.02 14.79-20.68 17.63a3.964 3.964 0 0 1-4.88 0c-22.37-17.3-181.06-153.71-181.06-302.64 0-72.36 35.14-135.45 91.01-168.64-41.15 35.47-66.01 89.77-66.01 150.64 0 148.93 158.69 285.34 181.06 302.64.18.14.37.26.56.37"/><path fill="#bae6ef" d="M395.986 194.987c0 33.566-11.813 64.374-31.508 88.491-25.673 31.437-61.738 42.508-105.492 42.508-77.32 0-137-54.68-137-132 0-43.492 13.832-81.353 44.947-107.031 24.2-19.972 55.226-31.969 89.053-31.969 77.319.001 140 62.681 140 140.001"/><path fill="#94d8e6" d="M364.476 283.477c-25.67 31.44-64.73 51.51-108.49 51.51-77.32 0-140-62.68-140-140 0-43.76 20.07-82.82 51.51-108.49-19.7 24.12-31.51 54.93-31.51 88.49 0 77.32 62.68 140 140 140 33.56 0 64.37-11.81 88.49-31.51"/><path fill="#f8f7f7" d="M313.378 115.487c-11.835-11.523-27.388-17.869-43.792-17.869h-45.87c-7.405-.148-15.301 6.545-15 15v164.738c0 8.284 6.716 15 15 15s15-6.716 15-15v-56.639c10.429-.057 23.819-.121 30.87-.121 16.404 0 31.957-6.346 43.792-17.869 11.999-11.683 18.607-27.174 18.607-43.62.001-16.445-6.608-31.937-18.607-43.62m-43.792 75.109c-6.576 0-18.586.055-28.636.108a2 2 0 0 1-2.01-1.989c-.053-10.367-.11-22.88-.11-29.608 0-5.681-.033-18.669-.064-29.485a2 2 0 0 1 2-2.004h28.819c17.563 0 32.399 14.42 32.399 31.489s-14.835 31.489-32.398 31.489"/><path fill="#ebebeb" d="M223.716 277.357v-164.74c-.3-8.36 7.43-15 14.76-15h-14.76c-7.4-.15-15.3 6.55-15 15v164.74c0 8.28 6.72 15 15 15 2.73 0 5.29-.73 7.5-2.01-4.48-2.59-7.5-7.44-7.5-12.99m60.87-149.74h-15c17.56 0 32.4 14.42 32.4 31.49s-14.84 31.49-32.4 31.49c-3.54 0-8.64.01-14.17.04.17.05.35.07.53.07 10.05-.06 22.06-.11 28.64-.11 17.56 0 32.4-14.42 32.4-31.49s-14.84-31.49-32.4-31.49"/><path d="M393.307 59.071C357.934 20.979 309.165 0 255.986 0c-16.915 0-33.521 2.11-49.357 6.271a7.501 7.501 0 0 0 3.812 14.508C225.033 16.944 240.357 15 255.986 15c100.336 0 176 79.962 176 186 0 61.024-27.108 126.997-80.572 196.086-42.229 54.57-85.429 90.809-95.428 98.904-9.998-8.095-53.199-44.333-95.428-98.904C107.094 327.997 79.986 262.024 79.986 201c0-73.803 37.827-138.32 98.72-168.373a7.5 7.5 0 1 0-6.639-13.451C106.017 51.775 64.986 121.446 64.986 201c0 35.258 8.681 72.519 25.8 110.747 13.885 31.005 33.368 62.806 57.909 94.52 49.075 63.418 99.757 102.912 100.262 103.303 2.07 1.602 4.55 2.402 7.029 2.402s4.959-.8 7.028-2.401c.506-.392 51.188-39.886 100.263-103.304 24.541-31.714 44.024-63.515 57.909-94.52 17.119-38.228 25.8-75.489 25.8-110.747 0-54.248-19.064-104.652-53.679-141.929"/><path d="M348.744 300.117a7.497 7.497 0 0 0 10.605.094c28.462-27.961 44.136-65.331 44.136-105.224 0-81.332-66.168-147.5-147.5-147.5s-147.5 66.168-147.5 147.5 66.168 147.5 147.5 147.5c25.26 0 50.188-6.497 72.088-18.787a7.5 7.5 0 0 0-7.342-13.081c-19.662 11.035-42.051 16.868-64.746 16.868-73.061 0-132.5-59.439-132.5-132.5s59.439-132.5 132.5-132.5 132.5 59.439 132.5 132.5c0 35.836-14.08 69.406-39.647 94.524a7.5 7.5 0 0 0-.094 10.606"/><path d="M208.716 216.487a7.5 7.5 0 0 0-7.5 7.5v53.369c0 12.407 10.094 22.5 22.5 22.5s22.5-10.093 22.5-22.5v-49.178c10.913-.054 18.756-.082 23.37-.082 18.37 0 35.78-7.101 49.024-19.996 13.461-13.107 20.875-30.507 20.875-48.993s-7.414-35.886-20.875-48.994c-13.244-12.895-30.654-19.996-49.024-19.996h-45.809c-5.755-.093-11.823 2.525-16.203 6.98-4.268 4.343-6.521 9.891-6.358 15.638v76.25c0 4.142 3.357 7.5 7.5 7.5s7.5-3.358 7.5-7.5v-76.369q0-.133-.005-.268c-.079-2.216 1.258-3.92 2.063-4.738 1.496-1.523 3.538-2.496 5.228-2.496l.215.002h45.87c14.439 0 28.133 5.591 38.56 15.743 10.537 10.259 16.34 23.842 16.34 38.247s-5.803 27.987-16.34 38.246c-10.427 10.152-24.12 15.743-38.56 15.743-5.633 0-16.033.041-30.91.121a7.5 7.5 0 0 0-7.46 7.5v56.639c0 4.136-3.364 7.5-7.5 7.5s-7.5-3.364-7.5-7.5v-53.369a7.5 7.5 0 0 0-7.501-7.499"/><path d="M233.675 196.047c.896.841 2.544 1.896 5.315 2.168 10.066-.054 23.546-.119 30.596-.119 21.628 0 39.899-17.854 39.899-38.989s-18.271-38.989-39.899-38.989h-30.825a7.5 7.5 0 0 0-7.5 7.522c.032 11.157.069 25.436.069 31.468 0 5.652.04 16.299.12 31.647a7.5 7.5 0 0 0 2.225 5.292m35.911-60.929c13.497 0 24.899 10.986 24.899 23.989s-11.402 23.989-24.899 23.989c-5.429 0-14.631.038-23.174.081a5729 5729 0 0 1-.082-24.069c0-4.743-.022-14.575-.048-23.989h23.304z"/></svg>
