<svg xmlns="http://www.w3.org/2000/svg" xml:space="preserve" viewBox="0 0 512 512" width="48" height="48"><circle cx="83.01" cy="335.61" r="35.09" style="fill:#5278a1"/><circle cx="182.99" cy="335.61" r="35.09" style="fill:#5278a1"/><circle cx="282.98" cy="335.61" r="35.09" style="fill:#5278a1"/><circle cx="382.96" cy="335.61" r="35.09" style="fill:#5278a1"/><path d="M419.2 335.613H25.293c-9.827 0-17.793-7.966-17.793-17.793V113.008c0-9.827 7.966-17.793 17.793-17.793h205.119a362.9 362.9 0 0 1 237.579 88.58 105.72 105.72 0 0 1 36.508 79.917v12.069a49.87 49.87 0 0 1-23.886 42.568 117.87 117.87 0 0 1-61.413 17.264" style="fill:#e8e9ea"/><path d="m349.739 275.055-12.027-11.351a28.92 28.92 0 0 0-19.921-7.915H7.5v14.561h310.291c3.707 0 7.232 1.401 9.928 3.944l12.027 11.35a7.25 7.25 0 0 0 4.996 1.986 7.26 7.26 0 0 0 5.295-2.284 7.28 7.28 0 0 0-.298-10.291M7.5 300.246v17.574c0 9.827 7.966 17.793 17.793 17.793H419.2c21.669 0 42.919-5.974 61.414-17.265a49.84 49.84 0 0 0 17.47-18.102z" style="fill:#95d4e9"/><path d="M467.992 183.795a362.8 362.8 0 0 0-62.544-43.553h-56.365c-7.845 0-11.656 9.59-5.95 14.974l18.099 17.081a121.38 121.38 0 0 0 83.313 33.106h42.417a105.7 105.7 0 0 0-18.97-21.608M7.5 205.403h308.199c9.692 0 14.4-11.848 7.352-18.5l-42.619-40.222a23.6 23.6 0 0 0-16.206-6.44H7.5z" style="fill:#6cb6de"/><path d="M133 140.24h99.98v195.37H133z" style="opacity:.1"/><path d="M486.707 416.785H25.293c-9.827 0-17.793-7.966-17.793-17.793v-10.5c0-9.827 7.966-17.793 17.793-17.793h461.413c9.827 0 17.793 7.966 17.793 17.793v10.5c.001 9.827-7.965 17.793-17.792 17.793" style="fill:#4a5359"/><path d="M128.508 370.698H25.293c-9.827 0-17.793 7.966-17.793 17.793v10.5c0 9.827 7.966 17.793 17.793 17.793h104.744c-13.38-9.138-12.251-38.491-1.529-46.086" style="opacity:.1"/><path d="M461.716 278.589h-8.276a18.98 18.98 0 0 1-17.496-11.625l-9.505-22.615c-1.875-4.462 1.401-9.394 6.242-9.394h4.175a32.63 32.63 0 0 1 30.081 19.987l4.065 9.672c2.791 6.638-2.084 13.975-9.286 13.975" style="fill:#ffce71"/><path d="M67.245 95.215H25.293c-9.827 0-17.793 7.966-17.793 17.793V317.82c0 9.827 7.966 17.793 17.793 17.793h81.563c-48.385-40.22-39.611-196.968-39.611-240.398" style="opacity:.05"/><path d="M484.522 324.75c8.188-4.999 14.872-11.966 19.6-20.068a7.4 7.4 0 0 0 .909-1.617c4.485-8.281 6.968-17.652 6.968-27.284v-12.069a113.15 113.15 0 0 0-39.099-85.585 370.2 370.2 0 0 0-63.963-44.52c-54.336-29.889-115.694-45.892-178.526-45.892H25.293C11.347 87.715 0 99.062 0 113.008V317.82c0 13.946 11.347 25.293 25.293 25.293H41.1a42.43 42.43 0 0 0 9.506 20.085H25.293C11.347 363.198 0 374.545 0 388.491v10.501c0 13.946 11.347 25.293 25.293 25.293h330.412c4.143 0 7.5-3.357 7.5-7.5s-3.357-7.5-7.5-7.5H25.293c-5.676 0-10.293-4.617-10.293-10.293v-10.501c0-5.676 4.618-10.293 10.293-10.293h461.414c5.676 0 10.293 4.617 10.293 10.293v10.501c0 5.676-4.617 10.293-10.293 10.293h-86.435c-4.143 0-7.5 3.357-7.5 7.5s3.357 7.5 7.5 7.5h86.435c13.946 0 25.293-11.347 25.293-25.293v-10.501c0-13.946-11.347-25.293-25.293-25.293h-71.346a42.44 42.44 0 0 0 9.532-20.23 125.3 125.3 0 0 0 59.629-18.218m-21.44-135.286a98 98 0 0 1 8.604 8.439h-27.141c-29.183 0-56.942-11.03-78.165-31.06l-18.1-17.083c-.173-.162-.576-.544-.283-1.281s.849-.737 1.086-.737h54.441a355.2 355.2 0 0 1 59.558 41.722M15 147.742h25.925c4.142 0 7.5-3.357 7.5-7.5s-3.358-7.5-7.5-7.5H15v-19.734c0-5.676 4.618-10.293 10.293-10.293h205.119c49.58 0 98.202 10.392 142.911 30.027h-24.24c-6.666 0-12.564 4.003-15.026 10.198s-.92 13.155 3.929 17.73l18.1 17.082c24.018 22.668 55.434 35.151 88.46 35.151h38.29a98.16 98.16 0 0 1 14.165 50.808v12.069c0 5.907-1.28 11.674-3.605 16.966H240.483v-79.843h75.216c7.508 0 14.151-4.509 16.924-11.486s1.036-14.815-4.425-19.968l-42.618-40.223a31 31 0 0 0-21.354-8.484H83.01c-4.142 0-7.5 3.357-7.5 7.5s3.358 7.5 7.5 7.5h42.491v50.161H15zm225.483 50.161v-50.161h23.743a16.06 16.06 0 0 1 11.059 4.393l42.618 40.222c1.379 1.302 1.08 2.765.779 3.52-.3.757-1.087 2.025-2.983 2.025zm-99.982 94.843v-79.843h84.982v79.843zm84.982 15v20.367h-84.982v-20.367zm-84.982-109.843v-50.161h84.982v50.161zM15 212.903h110.501v79.843H15zm10.293 115.21c-5.676 0-10.293-4.617-10.293-10.293v-10.074h110.501v20.367zm57.717 35.085c-12.61 0-23.264-8.509-26.54-20.085h53.08c-3.276 11.576-13.93 20.085-26.54 20.085m32.404 0a42.44 42.44 0 0 0 9.506-20.085h16.163a42.44 42.44 0 0 0 9.506 20.085zm67.578 0c-12.61 0-23.263-8.509-26.54-20.085h53.08c-3.276 11.576-13.929 20.085-26.54 20.085m32.404 0a42.44 42.44 0 0 0 9.506-20.085h16.163a42.43 42.43 0 0 0 9.506 20.085zm67.579 0c-12.61 0-23.263-8.509-26.54-20.085h53.08c-3.277 11.576-13.93 20.085-26.54 20.085m32.404 0a42.44 42.44 0 0 0 9.506-20.085h16.162a42.43 42.43 0 0 0 9.506 20.085zm67.578 0c-12.61 0-23.264-8.509-26.54-20.085h53.08c-3.276 11.576-13.93 20.085-26.54 20.085m-142.474-35.085v-20.367h241.911a41.7 41.7 0 0 1-5.689 4.201 110.3 110.3 0 0 1-57.506 16.166zm-31.48-100.658h-18.417c-4.142 0-7.5 3.357-7.5 7.5s3.358 7.5 7.5 7.5h18.417a7.5 7.5 0 0 0 0-15"/></svg>
