<svg xmlns="http://www.w3.org/2000/svg" xml:space="preserve" viewBox="0 0 512 512" width="48" height="48"><path d="M313.588 168.894H198.412a5.473 5.473 0 0 0-5.473 5.473v28.722H319.06v-28.722a5.47 5.47 0 0 0-5.472-5.473" style="fill:#ffb123"/><path d="M313.588 168.894h-41.217v34.195h46.689v-28.722a5.47 5.47 0 0 0-5.472-5.473" style="fill:#ea9518"/><path d="M309.634 22.351H202.366a5.087 5.087 0 0 0-5.087 5.087v14.316a5.087 5.087 0 0 0 5.087 5.087h107.268a5.087 5.087 0 0 0 5.087-5.087V27.437a5.087 5.087 0 0 0-5.087-5.086" style="fill:#d0d1d2"/><path d="M309.634 22.351h-41.847v24.49h41.847a5.087 5.087 0 0 0 5.087-5.087V27.437a5.086 5.086 0 0 0-5.087-5.086" style="fill:#bac1c6"/><circle cx="82.11" cy="459.25" r="30.404" style="fill:#35495d"/><circle cx="175.77" cy="459.25" r="30.404" style="fill:#35495d"/><circle cx="336.23" cy="459.25" r="30.404" style="fill:#35495d"/><circle cx="429.88" cy="459.25" r="30.404" style="fill:#35495d"/><path d="M256 217.582H19.881v225.413h472.238V217.582z" style="fill:#e2effa"/><path d="M444.85 217.58h47.27v225.41h-47.27z" style="fill:#caddea"/><path d="M19.881 335.453v107.542h472.238V335.453z" style="fill:#f9644b"/><path d="M444.85 335.45h47.27v107.54h-47.27z" style="fill:#f94730"/><path d="M256 193.556H34.19c-14.717 0-26.647 11.93-26.647 26.647a5.853 5.853 0 0 0 5.853 5.853h485.208a5.853 5.853 0 0 0 5.853-5.853c0-14.717-11.93-26.647-26.647-26.647z" style="fill:#d0d1d2"/><path d="M477.81 193.556h-20.06v32.5h40.854a5.85 5.85 0 0 0 5.852-5.853c.001-14.716-11.929-26.647-26.646-26.647" style="fill:#bac1c6"/><path d="M68.141 381.032h-48.26V267.813h48.26c5.519 0 9.993 4.474 9.993 9.993v93.233c0 5.518-4.474 9.993-9.993 9.993m423.978 0h-48.26c-5.519 0-9.993-4.474-9.993-9.993v-93.233c0-5.519 4.474-9.993 9.993-9.993h48.26z" style="fill:#b5e7fe"/><path d="M168.561 267.813h-47.387c-9.327 0-16.888 7.561-16.888 16.888v148.554h81.164V284.701c0-9.327-7.562-16.888-16.889-16.888m222.265 0h-47.387c-9.327 0-16.888 7.561-16.888 16.888v148.554h81.164V284.701c-.001-9.327-7.562-16.888-16.889-16.888" style="fill:#e2effa"/><path d="M390.826 267.813h-29.878v165.442h46.766V284.701c0-9.327-7.561-16.888-16.888-16.888m-222.265 0h-29.878v165.442h46.766V284.701c.001-9.327-7.561-16.888-16.888-16.888" style="fill:#caddea"/><path d="M289.891 381.032h-67.782a6.69 6.69 0 0 1-6.691-6.691v-89.64c0-9.327 7.561-16.888 16.888-16.888h47.387c9.327 0 16.888 7.561 16.888 16.888v89.64a6.69 6.69 0 0 1-6.69 6.691" style="fill:#b5e7fe"/><path d="M279.694 267.813h-29.878v113.219h40.076a6.69 6.69 0 0 0 6.691-6.691v-89.64c-.001-9.327-7.562-16.888-16.889-16.888" style="fill:#9ad8ed"/><path d="M185.45 381.032h-81.164v-96.331c0-9.327 7.561-16.888 16.888-16.888h47.387c9.327 0 16.888 7.561 16.888 16.888zm222.264 0H326.55v-96.331c0-9.327 7.561-16.888 16.888-16.888h47.387c9.327 0 16.888 7.561 16.888 16.888v96.331z" style="fill:#b5e7fe"/><path d="M402.768 272.759a16.84 16.84 0 0 0-11.942-4.947h-29.878v113.219h46.766V284.7c0-4.663-1.89-8.885-4.946-11.941m-222.265 0a16.84 16.84 0 0 0-11.942-4.947h-29.878v113.219h46.766V284.7a16.83 16.83 0 0 0-4.946-11.941" style="fill:#9ad8ed"/><path d="M12.445 433.255a4.9 4.9 0 0 0-4.902 4.902v16.186a4.9 4.9 0 0 0 4.902 4.902h487.109a4.9 4.9 0 0 0 4.902-4.902v-16.186a4.9 4.9 0 0 0-4.902-4.902z" style="fill:#965b53"/><path d="M504.432 437.906c-.133-2.588-2.256-4.652-4.877-4.652h-41.892l.017 25.991h41.875a4.895 4.895 0 0 0 4.888-4.762z" style="fill:#844c46"/><path d="M444.85 267.81h47.27v113.22h-47.27zM78.134 371.038v-93.233c0-5.519-4.474-9.993-9.993-9.993H31.368v113.219h36.773c5.519 0 9.993-4.474 9.993-9.993" style="fill:#9ad8ed"/><path d="M499.662 425.717V233.545c6.893-.542 12.338-6.312 12.338-13.342 0-18.852-15.338-34.19-34.191-34.19H326.603v-11.647c0-7.177-5.839-13.016-13.016-13.016h-53.789l-61.638-55.571 60.079-51.396h51.395c6.834 0 12.404-5.46 12.61-12.245h51.394a7.543 7.543 0 1 0 0-15.086h-51.394c-.206-6.784-5.776-12.245-12.61-12.245H202.365c-6.834 0-12.404 5.46-12.61 12.245h-51.394a7.543 7.543 0 1 0 0 15.086h51.394c.206 6.784 5.776 12.245 12.61 12.245h32.81l-49.48 42.2a11.996 11.996 0 0 0-.256 18.033l51.775 46.734h-38.802c-7.177 0-13.016 5.839-13.016 13.016v11.647H34.191C15.338 186.014 0 201.351 0 220.203c0 7.03 5.445 12.8 12.338 13.342v192.172C5.526 425.776 0 431.332 0 438.158v16.185c0 6.862 5.584 12.446 12.446 12.446h32.478c3.508 17.322 18.85 30.404 37.191 30.404s33.683-13.081 37.191-30.404h19.273c3.508 17.322 18.85 30.404 37.191 30.404 18.343 0 33.684-13.081 37.192-30.404h86.074c3.508 17.322 18.85 30.404 37.192 30.404s33.684-13.081 37.191-30.404h19.273c3.508 17.322 18.85 30.404 37.191 30.404s33.684-13.081 37.191-30.404h32.478c6.862 0 12.446-5.584 12.446-12.446v-16.185c.002-6.826-5.524-12.382-12.336-12.441m-294.84-386.42v-9.403h102.356v9.403zm-4.339 137.14h111.035v9.577H200.483zM34.191 201.099h443.618c9.965 0 18.172 7.669 19.031 17.414h-67.878a7.543 7.543 0 1 0 0 15.086h55.614v26.67h-40.717c-9.669 0-17.536 7.867-17.536 17.536v50.104h-11.066V284.7c0-13.471-10.959-24.431-24.43-24.431H343.44c-13.472 0-24.432 10.96-24.432 24.431v43.209h-14.883V284.7c0-13.471-10.96-24.431-24.431-24.431h-47.387c-13.471 0-24.431 10.96-24.431 24.431v43.209h-14.883V284.7c0-13.471-10.96-24.431-24.431-24.431h-47.387c-13.471 0-24.431 10.96-24.431 24.431v43.209H85.677v-50.104c0-9.669-7.867-17.536-17.536-17.536H27.424v-26.67h366.441a7.543 7.543 0 1 0 0-15.086H15.16c.859-9.745 9.066-17.414 19.031-17.414m381.066 141.896h11.066v28.043c0 9.669 7.867 17.535 17.536 17.535h40.717v37.137h-69.32zl-.001-.007c.001-.006.001.014.001.007m28.602 30.493a2.45 2.45 0 0 1-2.45-2.449v-93.234a2.454 2.454 0 0 1 2.45-2.451h40.717v98.133zm-109.766 0V284.7c0-5.153 4.193-9.345 9.346-9.345h47.387c5.152 0 9.344 4.192 9.344 9.345v88.788zm66.078 15.086v37.137h-66.078v-37.137zm-178.062 0h67.783c7.848 0 14.233-6.385 14.233-14.233v-31.345h14.883v82.716H192.993v-82.716h14.883v31.345c-.001 7.848 6.384 14.233 14.233 14.233m.852-15.086V284.7c0-5.153 4.192-9.345 9.345-9.345h47.387c5.153 0 9.345 4.192 9.345 9.345v88.788zm-111.132 0V284.7c0-5.153 4.192-9.345 9.345-9.345h47.387c5.153 0 9.345 4.192 9.345 9.345v88.788zm66.078 15.086v37.137h-66.078v-37.137zM70.591 371.039a2.45 2.45 0 0 1-2.45 2.449H27.424v-98.133h40.717a2.453 2.453 0 0 1 2.45 2.451zv-.007zm11.524 111.067c-9.963 0-18.459-6.408-21.582-15.318h43.164c-3.123 8.911-11.619 15.318-21.582 15.318m93.656 0c-9.963 0-18.459-6.408-21.582-15.318h43.165c-3.124 8.911-11.619 15.318-21.583 15.318m160.458 0c-9.964 0-18.46-6.408-21.583-15.318h43.165c-3.123 8.911-11.619 15.318-21.582 15.318m93.656 0c-9.963 0-18.459-6.408-21.582-15.318h43.164c-3.123 8.911-11.619 15.318-21.582 15.318m67.029-30.404H15.086v-10.905H40.62a7.543 7.543 0 1 0 0-15.086H27.424v-37.137h40.717c9.669 0 17.536-7.866 17.536-17.535v-28.043h11.066v.007-.007 82.716H75.796a7.543 7.543 0 1 0 0 15.086h421.118z"/></svg>
