<svg id="Capa_1" enable-background="new 0 0 512 512" height="512" viewBox="0 0 512 512" width="512" xmlns="http://www.w3.org/2000/svg"><g><g><path d="m211.81 31.082h260.712v473.418h-260.712z" fill="#ffe07d"/><path d="m211.81 31.082h260.712v34.626h-260.712z" fill="#ffd064"/><path d="m211.81 31.082h35.851v473.418h-35.851z" fill="#ffd064"/><g><g><path d="m317.091 191.584h-22.079c-9.963 0-18.039-8.077-18.039-18.039v-72.967c0-9.963 8.077-18.039 18.039-18.039h22.079c9.963 0 18.039 8.077 18.039 18.039v72.967c.001 9.963-8.076 18.039-18.039 18.039z" fill="#3342aa"/></g><g><path d="m420.575 191.584h-22.079c-9.963 0-18.039-8.077-18.039-18.039v-72.967c0-9.963 8.077-18.039 18.039-18.039h22.079c9.963 0 18.039 8.077 18.039 18.039v72.967c0 9.963-8.076 18.039-18.039 18.039z" fill="#3342aa"/></g></g><g><g><path d="m317.091 335.786h-22.079c-9.963 0-18.039-8.077-18.039-18.039v-72.967c0-9.963 8.077-18.039 18.039-18.039h22.079c9.963 0 18.039 8.077 18.039 18.039v72.967c.001 9.962-8.076 18.039-18.039 18.039z" fill="#3342aa"/></g><g><path d="m420.575 335.786h-22.079c-9.963 0-18.039-8.077-18.039-18.039v-72.967c0-9.963 8.077-18.039 18.039-18.039h22.079c9.963 0 18.039 8.077 18.039 18.039v72.967c0 9.962-8.076 18.039-18.039 18.039z" fill="#3342aa"/></g></g><g><g><path d="m317.091 479.988h-22.079c-9.963 0-18.039-8.077-18.039-18.039v-72.967c0-9.963 8.077-18.039 18.039-18.039h22.079c9.963 0 18.039 8.077 18.039 18.039v72.967c.001 9.962-8.076 18.039-18.039 18.039z" fill="#3342aa"/></g><g><path d="m420.575 479.988h-22.079c-9.963 0-18.039-8.077-18.039-18.039v-72.967c0-9.963 8.077-18.039 18.039-18.039h22.079c9.963 0 18.039 8.077 18.039 18.039v72.967c0 9.962-8.076 18.039-18.039 18.039z" fill="#3342aa"/></g></g><path d="m43.792 181.808h241.425v322.692h-241.425z" fill="#b1e4f9"/><path d="m43.792 181.808h241.425v37.286h-241.425z" fill="#90d8f9"/><path d="m43.792 181.808h25.626v322.692h-25.626z" fill="#90d8f9"/><path d="m295.502 146.283h-261.995c-8.84 0-16.006 7.166-16.006 16.006v22.841c0 8.84 7.166 16.006 16.006 16.006h261.996c8.84 0 16.006-7.166 16.006-16.006v-22.84c-.001-8.84-7.167-16.007-16.007-16.007z" fill="#f6f9f9"/><path d="m88.05 201.14h-54.54c-8.84 0-16.01-7.16-16.01-16v-22.85c0-8.84 7.17-16 16.01-16h54.54c-8.84 0-16.01 7.16-16.01 16v22.85c.001 8.84 7.171 16 16.01 16z" fill="#dddaec"/><g><g><path d="m127.267 330.508h-20.199c-9.115 0-16.504-7.389-16.504-16.504v-66.755c0-9.115 7.389-16.504 16.504-16.504h20.199c9.115 0 16.504 7.389 16.504 16.504v66.755c0 9.115-7.389 16.504-16.504 16.504z" fill="#3342aa"/></g><g><path d="m221.941 330.508h-20.199c-9.115 0-16.504-7.389-16.504-16.504v-66.755c0-9.115 7.389-16.504 16.504-16.504h20.199c9.115 0 16.504 7.389 16.504 16.504v66.755c0 9.115-7.389 16.504-16.504 16.504z" fill="#3342aa"/></g></g><g><g><path d="m127.267 467.182h-20.199c-9.115 0-16.504-7.389-16.504-16.504v-66.755c0-9.115 7.389-16.504 16.504-16.504h20.199c9.115 0 16.504 7.389 16.504 16.504v66.755c0 9.115-7.389 16.504-16.504 16.504z" fill="#3342aa"/></g><g><path d="m221.941 467.182h-20.199c-9.115 0-16.504-7.389-16.504-16.504v-66.755c0-9.115 7.389-16.504 16.504-16.504h20.199c9.115 0 16.504 7.389 16.504 16.504v66.755c0 9.115-7.389 16.504-16.504 16.504z" fill="#3342aa"/></g></g><path d="m479.108 7.5h-273.884c-7.749 0-14.032 6.282-14.032 14.032v11.979c0 7.749 6.282 14.032 14.032 14.032h273.884c7.749 0 14.032-6.282 14.032-14.032v-11.979c-.001-7.75-6.283-14.032-14.032-14.032z" fill="#dd636e"/><path d="m258.922 47.542h-53.7c-7.75 0-14.03-6.28-14.03-14.03v-11.98c0-7.75 6.28-14.03 14.03-14.03h53.7c-7.75 0-14.04 6.28-14.04 14.03v11.98c0 7.75 6.29 14.03 14.04 14.03z" fill="#da4a54"/></g><g><path d="m420.575 75.038h-22.079c-14.082 0-25.539 11.457-25.539 25.54v72.967c0 14.083 11.457 25.539 25.539 25.539h22.079c14.082 0 25.539-11.457 25.539-25.539v-72.967c0-14.083-11.457-25.54-25.539-25.54zm-22.079 15h22.079c5.812 0 10.539 4.728 10.539 10.54v10.083h-43.157v-10.083c0-5.812 4.728-10.54 10.539-10.54zm22.079 94.046h-22.079c-5.812 0-10.539-4.728-10.539-10.539v-47.885h43.157v47.885c0 5.811-4.727 10.539-10.539 10.539z"/><path d="m420.575 219.24h-22.079c-14.082 0-25.539 11.457-25.539 25.54v72.967c0 14.083 11.457 25.54 25.539 25.54h22.079c14.082 0 25.539-11.457 25.539-25.54v-72.967c0-14.083-11.457-25.54-25.539-25.54zm-22.079 15h22.079c5.812 0 10.539 4.728 10.539 10.54v10.082h-43.157v-10.082c0-5.812 4.728-10.54 10.539-10.54zm22.079 94.046h-22.079c-5.812 0-10.539-4.728-10.539-10.54v-47.885h43.157v47.885c0 5.812-4.727 10.54-10.539 10.54z"/><path d="m420.575 363.442h-22.079c-14.082 0-25.539 11.457-25.539 25.54v72.967c0 14.083 11.457 25.54 25.539 25.54h22.079c14.082 0 25.539-11.457 25.539-25.54v-72.967c0-14.083-11.457-25.54-25.539-25.54zm-22.079 15h22.079c5.812 0 10.539 4.728 10.539 10.54v10.082h-43.157v-10.082c0-5.812 4.728-10.54 10.539-10.54zm22.079 94.046h-22.079c-5.812 0-10.539-4.728-10.539-10.54v-47.885h43.157v47.885c0 5.812-4.727 10.54-10.539 10.54z"/><path d="m107.068 338.008h20.199c13.235 0 24.003-10.768 24.003-24.004v-66.755c0-13.235-10.768-24.003-24.003-24.003h-20.199c-13.235 0-24.004 10.768-24.004 24.003v66.755c0 13.236 10.769 24.004 24.004 24.004zm20.2-15h-20.199c-4.965 0-9.004-4.039-9.004-9.004v-43.169h38.206v43.169c0 4.965-4.04 9.004-9.003 9.004zm-20.2-84.762h20.199c4.964 0 9.003 4.039 9.003 9.003v8.585h-38.206v-8.585c0-4.964 4.04-9.003 9.004-9.003z"/><path d="m201.742 338.008h20.199c13.235 0 24.003-10.768 24.003-24.004v-66.755c0-13.235-10.768-24.003-24.003-24.003h-20.199c-13.235 0-24.004 10.768-24.004 24.003v66.755c0 13.236 10.769 24.004 24.004 24.004zm20.199-15h-20.199c-4.965 0-9.004-4.039-9.004-9.004v-43.169h38.206v43.169c0 4.965-4.039 9.004-9.003 9.004zm-20.199-84.762h20.199c4.964 0 9.003 4.039 9.003 9.003v8.585h-38.206v-8.585c0-4.964 4.039-9.003 9.004-9.003z"/><path d="m83.064 450.679c0 13.235 10.769 24.003 24.004 24.003h20.199c13.235 0 24.003-10.768 24.003-24.003v-66.755c0-13.235-10.768-24.003-24.003-24.003h-20.199c-13.235 0-24.004 10.768-24.004 24.003zm44.204 9.003h-20.199c-4.965 0-9.004-4.039-9.004-9.003v-43.17h38.206v43.17c0 4.964-4.04 9.003-9.003 9.003zm-20.2-84.762h20.199c4.964 0 9.003 4.039 9.003 9.003v8.585h-38.206v-8.585c0-4.964 4.04-9.003 9.004-9.003z"/><path d="m177.738 450.679c0 13.235 10.769 24.003 24.004 24.003h20.199c13.235 0 24.003-10.768 24.003-24.003v-66.755c0-13.235-10.768-24.003-24.003-24.003h-20.199c-13.235 0-24.004 10.768-24.004 24.003zm44.203 9.003h-20.199c-4.965 0-9.004-4.039-9.004-9.003v-43.17h38.206v43.17c0 4.964-4.039 9.003-9.003 9.003zm-20.199-84.762h20.199c4.964 0 9.003 4.039 9.003 9.003v8.585h-38.206v-8.585c0-4.964 4.039-9.003 9.004-9.003z"/><path d="m504.5 497h-24.479v-442.006c11.448-.482 20.619-9.92 20.619-21.484v-11.98c0-11.872-9.659-21.53-21.53-21.53h-273.89c-11.871 0-21.529 9.658-21.529 21.53v11.98c0 11.565 9.172 21.002 20.62 21.484v83.789h-170.804c-12.961 0-23.506 10.545-23.506 23.506v22.841c0 12.961 10.545 23.506 23.506 23.506h2.783v202.884c0 4.142 3.357 7.5 7.5 7.5s7.5-3.358 7.5-7.5v-202.88h226.43v288.36h-226.43v-55.5c0-4.142-3.357-7.5-7.5-7.5s-7.5 3.358-7.5 7.5v55.5h-28.79c-4.143 0-7.5 3.358-7.5 7.5s3.357 7.5 7.5 7.5h497c4.143 0 7.5-3.358 7.5-7.5s-3.357-7.5-7.5-7.5zm-479.499-311.869v-22.841c0-4.69 3.815-8.506 8.506-8.506h261.995c4.69 0 8.507 3.816 8.507 8.506v22.841c0 4.69-3.816 8.506-8.507 8.506h-261.995c-4.691 0-8.506-3.816-8.506-8.506zm302.63-74.471h-43.16v-10.08c0-5.812 4.729-10.54 10.54-10.54h22.08c5.812 0 10.54 4.728 10.54 10.54zm-43.16 15h43.16v47.88c0 5.156-3.724 9.451-8.622 10.357v-21.607c0-12.961-10.545-23.506-23.507-23.506h-11.031zm8.249 288.4h34.911v47.89c0 5.812-4.729 10.54-10.54 10.54h-22.08c-.779 0-1.542-.111-2.291-.278zm34.911-15h-34.911v-20.343c.749-.167 1.512-.278 2.291-.278h22.08c5.812 0 10.54 4.728 10.54 10.54zm-34.911-129.2h34.911v47.89c0 5.812-4.729 10.54-10.54 10.54h-22.08c-.779 0-1.542-.111-2.291-.278zm34.911-15h-34.911v-20.342c.749-.166 1.511-.277 2.291-.277h22.08c5.812 0 10.54 4.728 10.54 10.54zm-34.911 242.14v-9.624c.76.068 1.522.114 2.291.114h22.08c14.083 0 25.54-11.457 25.54-25.54v-72.97c0-14.083-11.457-25.54-25.54-25.54h-22.08c-.769 0-1.531.046-2.291.114v-20.378c.76.068 1.522.114 2.291.114h22.08c14.083 0 25.54-11.457 25.54-25.54v-72.97c0-14.083-11.457-25.54-25.54-25.54h-22.08c-.769 0-1.531.046-2.291.114v-10.717h2.782c7.743 0 14.621-3.764 18.906-9.557h2.683c14.083 0 25.54-11.457 25.54-25.54v-72.96c0-14.083-11.457-25.54-25.54-25.54h-22.08c-14.083 0-25.54 11.457-25.54 25.54v38.203h-50.16v-83.743h162.35c4.143 0 7.5-3.358 7.5-7.5s-3.357-7.5-7.5-7.5h-176.441c-3.601 0-6.529-2.93-6.529-6.53v-11.98c0-3.601 2.929-6.53 6.529-6.53h273.89c3.601 0 6.529 2.929 6.529 6.53v11.98c0 3.601-2.929 6.53-6.529 6.53h-67.55c-4.143 0-7.5 3.358-7.5 7.5s3.357 7.5 7.5 7.5h53.461v441.96z"/></g></g></svg>
