<?xml version="1.0" encoding="UTF-8" standalone="no"?>
<svg
   id="Capa_1"
   enable-background="new 0 0 511.997 511.997"
   height="512"
   viewBox="0 0 511.997 511.997"
   width="512"
   version="1.1"
   sodipodi:docname="terrain.svg"
   inkscape:version="1.4.3 (0d15f75042, 2025-12-25)"
   xmlns:inkscape="http://www.inkscape.org/namespaces/inkscape"
   xmlns:sodipodi="http://sodipodi.sourceforge.net/DTD/sodipodi-0.dtd"
   xmlns="http://www.w3.org/2000/svg"
   xmlns:svg="http://www.w3.org/2000/svg">
  <defs
     id="defs9" />
  <sodipodi:namedview
     id="namedview9"
     pagecolor="#ffffff"
     bordercolor="#000000"
     borderopacity="0.25"
     inkscape:showpageshadow="2"
     inkscape:pageopacity="0.0"
     inkscape:pagecheckerboard="0"
     inkscape:deskcolor="#d1d1d1"
     inkscape:zoom="1.1328125"
     inkscape:cx="310.28966"
     inkscape:cy="281.6"
     inkscape:window-width="2560"
     inkscape:window-height="1375"
     inkscape:window-x="2240"
     inkscape:window-y="0"
     inkscape:window-maximized="1"
     inkscape:current-layer="g5" />
  <g
     id="g9"
     transform="matrix(0.96504342,0,0,1,8.9492698,0)">
    <g
       id="g5">
      <path
         d="m 451.748,149.919 c 9.28,-9.27 0,0 52.749,-7.351 v 266.958 c 0,25.95 -21.04,46.99 -46.99,46.99 H 158.219 c 0,-28.68 8.543,-39.675 19.222,-43.985"
         fill="#9bd069"
         id="path1" />
      <path
         d="m 196.358,141.938 194.203,-86.46 h 66.94 c 25.96,0 47,21.04 47,46.99 v 40.1 c 0,14.15 -5.74,26.96 -15.01,36.23 -9.28,9.28 -22.09,15.01 -36.24,15.01 -12.58,0 -22.78,10.2 -22.78,22.79 v 35.74 c 0,5.51 -2.23,10.5 -5.85,14.11 -3.67,3.67 -8.76,5.91 -14.37,5.84 -10.92,-0.14 -19.69,9.06 -19.69,19.98 v 13.21 c 0,32.36 -26.24,58.59 -58.59,58.59 h -81.309 c -8.75,0 -16.67,3.55 -22.41,9.28 -5.73,5.74 -9.28,13.67 -9.28,22.42 0,33.55 -27.2,60.75 -60.759,60.75 H 54.493 c -25.95,0 -46.99,-21.04 -46.99,-46.99 V 276.276"
         fill="#ffe07d"
         id="path2" />
      <path
         d="m 390.561,55.477 v 25.94 c 0,17.26 -13.99,31.25 -31.26,31.25 h -47.88 c -8.64,0 -16.45,3.5 -22.11,9.16 -5.65,5.65 -9.15,13.47 -9.15,22.1 0,17.27 13.99,31.26 31.26,31.26 h 18.4 c 6.8,0 12.95,2.75 17.4,7.21 4.46,4.45 7.21,10.6 7.21,17.4 0,13.59 -11.02,24.61 -24.61,24.61 h -49 c -8.26,0 -15.75,3.35 -21.16,8.77 -5.42,5.41 -8.77,12.9 -8.77,21.16 0,16.53 -13.39,29.93 -29.92,29.93 h -24.61 c -8.82,0 -16.8,3.57 -22.58,9.35 -5.78,5.78 -9.35,13.76 -9.35,22.57 0,11.75 -4.76,22.39 -12.46,30.1 -7.71,7.7 -18.35,12.46 -30.1,12.46 -23.51,0 -42.57,-19.05 -42.57,-42.56 v -7.98 c 0,-17.63 -14.29,-31.93 -31.92,-31.93 H 7.504 v -173.81 c 0,-25.95 21.04,-46.99 46.99,-46.99 z"
         fill="#e4936b"
         id="path3" />
      <path
         d="M 92.606,103.363 H 64.672 c -15.427,0 -27.933,12.506 -27.933,27.933 0,15.427 12.506,27.933 27.933,27.933 11.019,0 19.952,8.933 19.952,19.952 v 31.259 c 0,14.325 11.613,25.938 25.938,25.938 14.325,0 25.938,-11.613 25.938,-25.938 0,-16.529 13.399,-29.928 29.928,-29.928 h 23.278 c 21.304,0 38.574,-17.27 38.574,-38.574 0,-21.304 -17.27,-38.574 -38.574,-38.574 h -97.1 z"
         fill="#dd636e"
         id="path4"
         style="fill:#df6b78;fill-opacity:0.5626719" />
      <path
         d="m 444.432,425.261 h -33.254 c -12.121,0 -21.948,-9.826 -21.948,-21.948 0,-12.121 9.826,-21.948 21.948,-21.948 h 33.254 c 12.121,0 21.948,9.826 21.948,21.948 0,12.122 -9.827,21.948 -21.948,21.948 z"
         fill="#ffe07d"
         id="path5" />
    </g>
    <g
       id="g8">
      <path
         id="path6"
         style="fill:#ffda68;fill-opacity:1"
         sodipodi:type="inkscape:offset"
         inkscape:radius="9.2738314"
         inkscape:original="M 54.492188 47.978516 C 24.444187 47.978516 4.7369516e-15 72.422703 0 102.4707 L 0 409.52734 C 0 439.57534 24.444187 464.01953 54.492188 464.01953 L 457.50391 464.01953 C 487.55191 464.01953 511.99609 439.57534 511.99609 409.52734 L 511.99609 102.4707 C 511.99609 72.422703 487.55191 47.978516 457.50391 47.978516 L 54.492188 47.978516 z M 54.492188 62.978516 L 383.06055 62.978516 L 383.06055 81.416016 C 383.06055 94.517016 372.40178 105.17578 359.30078 105.17578 L 311.41406 105.17578 C 290.04306 105.17578 272.65625 122.56159 272.65625 143.93359 C 272.65625 165.30559 290.04306 182.69141 311.41406 182.69141 L 329.81836 182.69141 C 339.25136 182.69141 346.92578 190.36778 346.92578 199.80078 C 346.92578 209.23378 339.25036 216.9082 329.81836 216.9082 L 280.82227 216.9082 C 260.18327 216.9082 243.39258 233.69989 243.39258 254.33789 C 243.39258 266.70489 233.33184 276.76563 220.96484 276.76562 L 196.35547 276.76562 C 174.61747 276.76562 156.93359 294.45145 156.93359 316.18945 C 156.93359 335.52445 141.20219 351.25391 121.86719 351.25391 C 102.53219 351.25391 86.802734 335.52445 86.802734 316.18945 L 86.802734 308.20703 C 86.802734 286.46903 69.118859 268.7832 47.380859 268.7832 L 15 268.7832 L 15 102.4707 C 15 80.693703 32.716187 62.978516 54.492188 62.978516 z M 398.06055 62.978516 L 457.50391 62.978516 C 479.27991 62.978516 496.99609 80.694703 496.99609 102.4707 L 496.99609 142.68945 C 496.96509 154.32445 492.42055 165.26014 484.18555 173.49414 C 475.92255 181.75714 464.93605 186.30859 453.24805 186.30859 C 436.55205 186.30859 422.96875 199.89566 422.96875 216.59766 L 422.96875 252.33789 C 422.96875 255.66789 421.67441 258.79253 419.31641 261.14453 C 416.92441 263.53653 413.74947 264.85606 410.35547 264.78906 C 403.19547 264.70206 396.45269 267.44534 391.30469 272.52734 C 386.06469 277.70134 383.05859 284.89658 383.05859 292.26758 L 383.05859 305.47852 C 383.05859 328.70552 367.38627 349.03211 344.94727 354.91211 C 343.70545 355.23752 342.69613 355.92263 341.81836 356.74023 C 341.52628 356.70568 341.27014 356.56836 340.96875 356.56836 L 250.6582 356.56836 C 240.2012 356.56836 230.36141 360.64183 222.94141 368.04883 C 215.54341 375.45883 211.46875 385.30258 211.46875 395.76758 C 211.46875 425.12958 187.57403 449.01758 158.20703 449.01758 L 54.492188 449.01953 C 32.716188 449.01953 15 431.30239 15 409.52539 L 15 283.7832 L 47.380859 283.7832 C 60.847859 283.7832 71.804688 294.74003 71.804688 308.20703 L 71.804688 316.1875 C 71.804688 343.7935 94.263141 366.25391 121.86914 366.25391 C 149.47514 366.25391 171.93359 343.7935 171.93359 316.1875 C 171.93359 302.7205 182.89042 291.76367 196.35742 291.76367 L 220.96484 291.76367 C 241.60384 291.76367 258.39453 274.97394 258.39453 254.33594 C 258.39453 241.96894 268.45527 231.90625 280.82227 231.90625 L 329.82031 231.90625 C 347.52431 231.90625 361.92773 217.50383 361.92773 199.79883 C 361.92773 182.09383 347.52431 167.69141 329.82031 167.69141 L 311.41602 167.69141 C 298.31602 167.69141 287.6582 157.03264 287.6582 143.93164 C 287.6582 130.83064 298.31602 120.17383 311.41602 120.17383 L 359.30273 120.17383 C 380.67473 120.17383 398.06055 102.78606 398.06055 81.414062 L 398.06055 62.978516 z M 496.99609 181.76758 L 496.99609 409.52539 C 496.99609 431.30139 479.27991 449.01953 457.50391 449.01953 L 200.83398 449.01953 C 216.44598 436.50153 226.46875 417.28758 226.46875 395.76758 C 226.46875 389.30558 228.98783 383.22525 233.54883 378.65625 C 238.12783 374.08525 244.2032 371.56836 250.6582 371.56836 L 340.96875 371.56836 C 342.9349 371.56836 344.69394 370.77261 346.03125 369.53516 C 346.30628 369.56614 346.5635 369.66992 346.84375 369.66992 C 347.47275 369.66992 348.113 369.59083 348.75 369.42383 C 377.782 361.81683 398.05859 335.52152 398.05859 305.47852 L 398.05859 292.26758 C 398.05859 288.88058 399.43875 285.57617 401.84375 283.20117 C 404.07775 280.99517 406.97458 279.78516 410.01758 279.78516 C 410.06758 279.78516 410.11606 279.78611 410.16406 279.78711 C 417.64506 279.87411 424.64606 277.02581 429.91406 271.75781 C 435.10706 266.57781 437.96875 259.68189 437.96875 252.33789 L 437.96875 216.59766 C 437.96875 208.16666 444.82205 201.30664 453.24805 201.30664 C 468.94105 201.30664 483.69597 195.19561 494.79297 184.09961 C 495.55297 183.33961 496.28409 182.56058 496.99609 181.76758 z "
         d="m 54.492187,38.705078 c -35.077537,0 -63.7656245,28.688091 -63.7656245,63.765622 v 307.05664 c 0,35.07754 28.6880875,63.76563 63.7656245,63.76563 H 457.50391 c 35.07753,0 63.76562,-28.68809 63.76562,-63.76563 V 102.4707 c 0,-35.077529 -28.68809,-63.765622 -63.76562,-63.765622 z m 0,33.546875 H 373.78711 v 9.164063 c 0,8.07097 -6.41536,14.486328 -14.48633,14.486328 h -47.88672 c -26.40065,0 -48.03125,21.629546 -48.03125,48.031246 0,26.40171 21.6306,48.03125 48.03125,48.03125 h 18.4043 c 4.40177,0 7.83398,3.43289 7.83398,7.83594 0,4.4024 -3.43246,7.83399 -7.83398,7.83399 h -48.99609 c -25.66907,0 -46.70313,21.03511 -46.70313,46.70312 0,7.3374 -5.8169,13.1543 -13.1543,13.1543 h -24.60937 c -26.76807,0 -48.69531,21.92975 -48.69531,48.69726 0,14.30474 -11.48762,25.79102 -25.79297,25.79102 -14.30535,0 -25.791018,-11.48566 -25.791018,-25.79102 v -7.98242 c 0,-26.76751 -21.927245,-48.69726 -48.695313,-48.69726 H 24.273437 V 102.4707 c 0,-16.747316 13.472374,-30.218747 30.21875,-30.218747 z m 352.841793,0 h 50.16993 c 16.74609,0 30.21875,13.47266 30.21875,30.218747 v 40.19336 c -0.0246,9.23565 -3.55565,17.73418 -10.09375,24.27149 a 9.2747588,9.2747588 0 0 0 0,0.002 c -6.5607,6.5607 -15.10043,10.09766 -24.38086,10.09766 -21.72732,0 -39.55274,17.83239 -39.55274,39.5625 v 35.74023 c 0,0.9269 -0.27597,1.59013 -0.92773,2.24023 a 9.2747588,9.2747588 0 0 0 -0.008,0.01 c -0.69649,0.69649 -1.34308,0.94701 -2.22071,0.92969 a 9.2747588,9.2747588 0 0 0 -0.0703,-0.002 c -9.59899,-0.11663 -18.83793,3.65807 -25.67969,10.41211 -7.03692,6.94829 -11.0039,16.44743 -11.0039,26.33985 v 13.21094 c 0,19.05534 -12.79571,35.64292 -31.18946,40.46289 -1.2054,0.31586 -2.1963,0.8379 -3.17578,1.35351 H 250.6582 c -12.86538,0 -25.15145,5.0893 -34.26953,14.19141 a 9.2747588,9.2747588 0 0 0 -0.01,0.01 c -9.09649,9.11124 -14.1836,21.39924 -14.1836,34.27149 0,24.33065 -19.65035,43.97656 -43.98828,43.97656 l -103.714843,0.002 c -16.74582,0 -30.21875,-13.47338 -30.21875,-30.2207 V 293.05664 h 23.107422 c 8.436838,0 15.150391,6.71355 15.150391,15.15039 v 7.98047 c 0,32.63573 26.701728,59.33984 59.33789,59.33984 32.63616,0 59.33789,-26.70412 59.33789,-59.33984 0,-8.43684 6.71355,-15.15039 15.15039,-15.15039 h 24.60742 c 25.66848,0 46.70313,-21.03316 46.70313,-46.70117 0,-7.3374 5.81787,-13.15625 13.1543,-13.15625 h 48.99804 c 22.73359,0 41.38086,-18.64621 41.38086,-41.38086 0,-22.73465 -18.64727,-41.38086 -41.38086,-41.38086 h -18.40429 c -8.06959,0 -14.48438,-6.41491 -14.48438,-14.48633 0,-8.07142 6.41386,-14.48437 14.48438,-14.48437 h 47.88671 c 26.40199,0 48.03125,-21.63179 48.03125,-48.033208 z m 80.38868,128.869137 v 208.4043 c 0,16.74609 -13.47322,30.2207 -30.21875,30.2207 H 221.88086 c 8.6782,-12.52453 13.86133,-27.65666 13.86133,-43.97851 0,-4.04717 1.50495,-7.68447 4.35937,-10.54883 l 0.006,-0.004 c 0.002,-0.002 0.002,-0.004 0.004,-0.006 2.87933,-2.86939 6.5072,-4.36718 10.54687,-4.36718 h 90.31055 c 2.95616,0 5.68356,-0.86226 8.04492,-2.17774 0.69798,-0.0909 1.39315,-0.0874 2.08789,-0.26953 33.07674,-8.66681 56.23047,-38.70029 56.23047,-72.91601 v -13.21094 c 0,-0.86716 0.42083,-1.86714 1.02734,-2.4668 0.58757,-0.5802 1.07278,-0.73978 1.65625,-0.74023 a 9.2747588,9.2747588 0 0 0 0.041,0 c 9.90173,0.11515 19.42297,-3.75501 26.41406,-10.7461 6.89494,-6.8824 10.77149,-16.22765 10.77149,-25.97656 v -35.74023 c 0,-3.4054 2.61338,-6.01758 6.00586,-6.01758 12.28299,0 24.11407,-3.35067 34.47461,-9.45899 z" />
    </g>
  </g>
</svg>
