<svg xmlns="http://www.w3.org/2000/svg" xml:space="preserve" viewBox="0 0 511.941 511.941" width="48" height="48"><path d="M481.85 240.91v112.94H30.09v-75.29l6.37-14.1-6.37-16.021v-90.59c0-33.13 26.86-60 60-60h271.76c10.23 0 20.17 1.28 29.65 3.7z" style="fill:#99da90" transform="translate(0 .883)"/><path d="M135.558 218.323H90.264c-8.284 0-15-6.716-15-15v-45.294c0-8.284 6.716-15 15-15h45.294c8.284 0 15 6.716 15 15v45.294c0 8.285-6.715 15-15 15" style="fill:#deddf5" transform="translate(0 .883)"/><path d="M240.97 218.323h-45.294c-8.284 0-15-6.716-15-15v-45.294c0-8.284 6.716-15 15-15h45.294c8.284 0 15 6.716 15 15v45.294c0 8.285-6.716 15-15 15m105.412 0h-45.294c-8.284 0-15-6.716-15-15v-45.294c0-8.284 6.716-15 15-15h45.294c8.284 0 15 6.716 15 15v45.294c0 8.285-6.716 15-15 15m135.468-.473v23.06H436.5c-24.85 0-45-20.15-45-45v-94.36c51.94 13.19 90.35 60.26 90.35 116.3" style="fill:#eeecff" transform="translate(0 .883)"/><path d="M489.382 301.147h-15.059c-8.317 0-15.059-6.742-15.059-15.059s6.742-15.059 15.059-15.059h15.059c8.317 0 15.059 6.742 15.059 15.059s-6.742 15.059-15.059 15.059" style="fill:#fbf6b2" transform="translate(0 .883)"/><g style="stroke:#43a435;stroke-opacity:1;stroke-width:24.99711914;stroke-dasharray:none"><path d="M341.23 97.85h20.62c66.28 0 120 53.73 120 120v52.57M30.09 328.85v-171c0-33.13 26.86-60 60-60h251.14m140.62 203.91v27.09" style="fill:none;stroke:#43a435;stroke-width:24.99711914;stroke-linecap:round;stroke-linejoin:round;stroke-miterlimit:10;stroke-opacity:1;stroke-dasharray:none" transform="translate(0 .883)"/><path d="M489.382 301.147h-15.059c-8.317 0-15.059-6.742-15.059-15.059s6.742-15.059 15.059-15.059h15.059c8.317 0 15.059 6.742 15.059 15.059s-6.742 15.059-15.059 15.059" style="fill:none;stroke:#43a435;stroke-width:14.99827148;stroke-linecap:round;stroke-linejoin:round;stroke-miterlimit:10;stroke-opacity:1;stroke-dasharray:none" transform="translate(0 .883)"/></g><g style="stroke:#47537a;stroke-opacity:1" transform="translate(0 .883)"><path d="M504.44 353.85c0 12.48-10.11 22.59-22.59 22.59H30.09c-6.24 0-11.89-2.53-15.98-6.61a22.56 22.56 0 0 1-6.61-15.98c0-12.47 10.11-22.59 22.59-22.59l31.39 6.18 23.23-6.18h397.14c6.24 0 11.89 2.53 15.98 6.62 4.08 4.09 6.61 9.73 6.61 15.97z" style="fill:#7c88ad;stroke:#47537a;stroke-opacity:1"/><path d="M150.56 331.26v45.18H30.09c-6.24 0-11.89-2.53-15.98-6.61a22.56 22.56 0 0 1-6.61-15.98c0-12.47 10.11-22.59 22.59-22.59z" style="fill:#6171a3;stroke:#47537a;stroke-opacity:1"/><path d="M180.68 361.38c0 22.7-14.36 42.06-34.49 49.47-5.67 2.1-11.81 3.24-18.22 3.24-23.88 0-44.04-15.88-50.52-37.65l17.923-61.135 47.087-4.605c22.06 6.29 38.22 26.6 38.22 50.68zm257.205 1.013c0 22.7-14.36 42.06-34.49 49.47-5.67 2.1-11.81 3.24-18.22 3.24-23.88 0-44.04-15.88-50.52-37.65l17.923-61.135 47.087-4.605c22.06 6.29 38.22 26.6 38.22 50.68z" style="fill:#6171a3;stroke:#47537a;stroke-opacity:1"/><path d="M332.57 376.44H180.02m159.67-45.18H173m255.25 0h53.6c12.478 0 22.59 10.113 22.59 22.59 0 12.48-10.11 22.59-22.59 22.59h-46.48m-359.45 0H30.09c-12.486 0-22.59-10.104-22.59-22.59 0-12.47 10.11-22.59 22.59-22.59h52.85" style="fill:none;stroke:#47537a;stroke-width:15;stroke-linecap:round;stroke-linejoin:round;stroke-miterlimit:10;stroke-opacity:1"/><circle cx="127.97" cy="361.382" r="52.706" style="fill:none;stroke:#47537a;stroke-width:15;stroke-linecap:round;stroke-linejoin:round;stroke-miterlimit:10;stroke-opacity:1"/><circle cx="385.175" cy="362.395" r="52.706" style="fill:none;stroke:#47537a;stroke-width:15;stroke-linecap:round;stroke-linejoin:round;stroke-miterlimit:10;stroke-opacity:1"/></g></svg>
