<?xml version="1.0" encoding="UTF-8" standalone="no"?>
<svg
   id="Capa_1"
   enable-background="new 0 0 511.88 511.88"
   height="512"
   viewBox="0 0 511.88 511.88"
   width="512"
   version="1.1"
   sodipodi:docname="generic.svg"
   inkscape:version="1.4.3 (0d15f75042, 2025-12-25)"
   xmlns:inkscape="http://www.inkscape.org/namespaces/inkscape"
   xmlns:sodipodi="http://sodipodi.sourceforge.net/DTD/sodipodi-0.dtd"
   xmlns="http://www.w3.org/2000/svg"
   xmlns:svg="http://www.w3.org/2000/svg">
  <defs
     id="defs8" />
  <sodipodi:namedview
     id="namedview8"
     pagecolor="#ffffff"
     bordercolor="#000000"
     borderopacity="0.25"
     inkscape:showpageshadow="2"
     inkscape:pageopacity="0.0"
     inkscape:pagecheckerboard="0"
     inkscape:deskcolor="#d1d1d1"
     inkscape:zoom="0.8010194"
     inkscape:cx="222.21684"
     inkscape:cy="0"
     inkscape:window-width="2560"
     inkscape:window-height="1375"
     inkscape:window-x="2240"
     inkscape:window-y="0"
     inkscape:window-maximized="1"
     inkscape:current-layer="g5" />
  <g
     id="g8">
    <g
       id="g5">
      <path
         d="m 72.408631,201.52536 c 0,-104.79931 76.646099,-189.756112 183.531369,-189.756112 106.88527,0 183.53137,84.956802 183.53137,189.756112 0,146.04259 -158.71513,279.81328 -181.09195,296.78248 -1.44125,1.09343 -3.43759,1.09343 -4.87884,0 C 231.12376,481.33864 72.408631,347.56795 72.408631,201.52536"
         fill="#dd646e"
         id="path1"
         style="stroke:#b32932;stroke-width:14.852;stroke-dasharray:none;stroke-opacity:1" />
      <g
         id="g3"
         style="stroke:#b32932;stroke-opacity:1;stroke-width:11.9971875;stroke-dasharray:none">
        <path
           d="m395.94 194.987c0 33.566-11.813 64.374-31.508 88.491-25.673 31.437-61.738 42.508-105.492 42.508-77.32 0-137-54.68-137-132 0-43.492 13.832-81.353 44.947-107.031 24.2-19.972 55.226-31.969 89.053-31.969 77.32.001 140 62.681 140 140.001z"
           fill="#f8f7f7"
           id="path3"
           style="stroke:#b32932;stroke-opacity:1;stroke-width:11.9971875;stroke-dasharray:none" />
      </g>
    </g>
  </g>
</svg>
