<svg xmlns="http://www.w3.org/2000/svg" viewBox="0 0 511.88 511.88" width="48" height="48"><path fill="#dd646e" d="M72.409 201.525c0-104.799 76.646-189.756 183.531-189.756s183.531 84.957 183.531 189.756c0 146.043-158.715 279.814-181.092 296.783a4.04 4.04 0 0 1-4.878 0c-22.377-16.97-181.092-150.74-181.092-296.783" style="stroke:#b32932;stroke-width:14.852;stroke-dasharray:none;stroke-opacity:1"/><path fill="#f8f7f7" d="M395.94 194.987c0 33.566-11.813 64.374-31.508 88.491-25.673 31.437-61.738 42.508-105.492 42.508-77.32 0-137-54.68-137-132 0-43.492 13.832-81.353 44.947-107.031 24.2-19.972 55.226-31.969 89.053-31.969 77.32.001 140 62.681 140 140.001z" style="stroke:#b32932;stroke-opacity:1;stroke-width:11.9971875;stroke-dasharray:none"/></svg>
