<svg xmlns="http://www.w3.org/2000/svg" viewBox="0 0 511.998 511.998" width="48" height="48"><rect width="511.998" height="356.838" y="77.58" rx="106.681" ry="99.476" style="fill:#dbf4fb;fill-opacity:1;stroke:none;stroke-width:19.1572;stroke-linecap:round;stroke-linejoin:round"/><path d="M7.502 177.48c-7.159.001-14.46 2.836-19.854 8.225l-.007.008c-10.44 10.443-10.86 27.68-1.037 38.621a94.6 94.6 0 0 0 70.601 31.67c17.728 0 34.91-4.99 49.7-14.129a94.55 94.55 0 0 0 49.699 14.13 94.54 94.54 0 0 0 49.699-14.13 94.56 94.56 0 0 0 49.695 14.13H256a94.55 94.55 0 0 0 49.697-14.128 94.55 94.55 0 0 0 49.7 14.13 94.56 94.56 0 0 0 49.697-14.126 94.56 94.56 0 0 0 49.699 14.127 94.58 94.58 0 0 0 70.533-31.604c9.883-10.933 9.483-28.233-.97-38.689-10.804-10.808-28.934-10.8-39.73-.002l-.07.07c-.222.225-.602.609-1.105 1.178l.028-.031a38.4 38.4 0 0 1-28.686 12.894 38.4 38.4 0 0 1-28.61-12.806l.382.437a28 28 0 0 0-1.622-1.754c-10.783-10.77-28.85-10.78-39.652-.043l-.012.01c-.015.016-.035.026-.05.041l-.018.018-.006.006-.008.01-.006.006-.002.004-.037.033-.002.002-.031.033c-.448.453-.84.88-1.178 1.266l.117-.133a38.4 38.4 0 0 1-28.664 12.87 38.4 38.4 0 0 1-28.67-12.878l-.015-.015a28 28 0 0 0-2.495-2.479l-.023-.021c-11.434-10.004-29.42-8.872-39.508 2.5l.002-.004a38.4 38.4 0 0 1-28.687 12.896 38.4 38.4 0 0 1-28.684-12.89l-.006-.006c-5.48-6.175-13.213-9.58-21.475-9.436a28.12 28.12 0 0 0-20.548 9.44 38.4 38.4 0 0 1-28.686 12.892 38.4 38.4 0 0 1-28.685-12.894l-.034-.038a28.11 28.11 0 0 0-22.29-9.375 28.1 28.1 0 0 0-19.735 9.452l.027-.034a38.4 38.4 0 0 1-28.68 12.89 38.4 38.4 0 0 1-28.687-12.895l-.033-.038a28 28 0 0 0-1.111-1.177c-5.398-5.4-12.703-8.234-19.87-8.233z" style="fill:#53c1f7;fill-opacity:1" transform="matrix(.79625 0 0 1.08818 52.163 -58.549)"/><path d="M7.506 234.639a10.2 10.2 0 0 0-7.203 2.984H.3c-3.828 3.829-3.96 10.03-.37 14.018l.003.004a76.7 76.7 0 0 0 57.271 25.714c18.333 0 35.917-6.643 49.7-18.398 13.782 11.756 31.364 18.397 49.697 18.397h.002c18.331 0 35.916-6.644 49.699-18.399 13.782 11.755 31.364 18.397 49.695 18.397H256c18.331 0 35.916-6.643 49.697-18.397 13.783 11.756 31.367 18.399 49.7 18.399 18.33 0 35.913-6.641 49.695-18.395 13.782 11.756 31.367 18.398 49.699 18.398a76.7 76.7 0 0 0 57.248-25.691c3.618-3.986 3.494-10.208-.344-14.045-3.956-3.958-10.456-3.958-14.414 0l-.008.01q-.198.198-.41.436a56.3 56.3 0 0 1-42.072 18.912 56.3 56.3 0 0 1-41.96-18.783 10 10 0 0 0-.532-.579h-.002c-3.828-3.827-9.987-3.865-13.97-.289-.233.179-.587.442-.669.545-.048.06.059-.063.09-.101l.511-.4c-.111.101-.259.135-.367.243l-.006.004-.01.01-.008.008-.006.004-.015.016-.002.002-.008.01c-.04.04-.073.08-.112.121-.104.11-.21.219-.304.326a56.3 56.3 0 0 1-42.028 18.862 56.3 56.3 0 0 1-42.074-18.912l-.002-.002a10 10 0 0 0-.912-.907l-.002-.002c-4.19-3.666-10.636-3.259-14.332.907a56.3 56.3 0 0 1-42.074 18.914 56.3 56.3 0 0 1-42.076-18.914 10.2 10.2 0 0 0-7.778-3.424h-.006a10.2 10.2 0 0 0-7.463 3.426 56.3 56.3 0 0 1-42.076 18.914 56.3 56.3 0 0 1-42.07-18.913l-.004-.004a10.17 10.17 0 0 0-8.094-3.414h-.002a10.2 10.2 0 0 0-7.16 3.426 56.3 56.3 0 0 1-42.066 18.904 56.3 56.3 0 0 1-42.075-18.916l-.004-.006a11 11 0 0 0-.412-.435l-.002-.002-.002-.002a10.2 10.2 0 0 0-7.203-2.98z" style="fill:#87d5f6;fill-opacity:1" transform="matrix(.79625 0 0 1.08818 52.16 -101.265)"/><path d="M7.502 177.48c-7.159.001-14.46 2.836-19.854 8.225l-.007.008c-10.44 10.443-10.86 27.68-1.037 38.621a94.6 94.6 0 0 0 70.601 31.67c17.728 0 34.91-4.99 49.7-14.129a94.55 94.55 0 0 0 49.699 14.13 94.54 94.54 0 0 0 49.699-14.13 94.56 94.56 0 0 0 49.695 14.13H256a94.55 94.55 0 0 0 49.697-14.128 94.55 94.55 0 0 0 49.7 14.13 94.56 94.56 0 0 0 49.697-14.126 94.56 94.56 0 0 0 49.699 14.127 94.58 94.58 0 0 0 70.533-31.604c9.883-10.933 9.483-28.233-.97-38.689-10.804-10.808-28.934-10.8-39.73-.002l-.07.07c-.222.225-.602.609-1.105 1.178l.028-.031a38.4 38.4 0 0 1-28.686 12.894 38.4 38.4 0 0 1-28.61-12.806l.382.437a28 28 0 0 0-1.622-1.754c-10.783-10.77-28.85-10.78-39.652-.043l-.012.01c-.015.016-.035.026-.05.041l-.018.018-.006.006-.008.01-.006.006-.002.004-.037.033-.002.002-.031.033c-.448.453-.84.88-1.178 1.266l.117-.133a38.4 38.4 0 0 1-28.664 12.87 38.4 38.4 0 0 1-28.67-12.878l-.015-.015a28 28 0 0 0-2.495-2.479l-.023-.021c-11.434-10.004-29.42-8.872-39.508 2.5l.002-.004a38.4 38.4 0 0 1-28.687 12.896 38.4 38.4 0 0 1-28.684-12.89l-.006-.006c-5.48-6.175-13.213-9.58-21.475-9.436a28.12 28.12 0 0 0-20.548 9.44 38.4 38.4 0 0 1-28.686 12.892 38.4 38.4 0 0 1-28.685-12.894l-.034-.038a28.11 28.11 0 0 0-22.29-9.375 28.1 28.1 0 0 0-19.735 9.452l.027-.034a38.4 38.4 0 0 1-28.68 12.89 38.4 38.4 0 0 1-28.687-12.895l-.033-.038a28 28 0 0 0-1.111-1.177c-5.398-5.4-12.703-8.234-19.87-8.233z" style="fill:#7fd2f8;fill-opacity:1" transform="matrix(.79625 0 0 1.08818 52.163 98.833)"/><path d="M7.506 234.639a10.2 10.2 0 0 0-7.203 2.984H.3c-3.828 3.829-3.96 10.03-.37 14.018l.003.004a76.7 76.7 0 0 0 57.271 25.714c18.333 0 35.917-6.643 49.7-18.398 13.782 11.756 31.364 18.397 49.697 18.397h.002c18.331 0 35.916-6.644 49.699-18.399 13.782 11.755 31.364 18.397 49.695 18.397H256c18.331 0 35.916-6.643 49.697-18.397 13.783 11.756 31.367 18.399 49.7 18.399 18.33 0 35.913-6.641 49.695-18.395 13.782 11.756 31.367 18.398 49.699 18.398a76.7 76.7 0 0 0 57.248-25.691c3.618-3.986 3.494-10.208-.344-14.045-3.956-3.958-10.456-3.958-14.414 0l-.008.01q-.198.198-.41.436a56.3 56.3 0 0 1-42.072 18.912 56.3 56.3 0 0 1-41.96-18.783 10 10 0 0 0-.532-.579h-.002c-3.828-3.827-9.987-3.865-13.97-.289-.233.179-.587.442-.669.545-.048.06.059-.063.09-.101l.511-.4c-.111.101-.259.135-.367.243l-.006.004-.01.01-.008.008-.006.004-.015.016-.002.002-.008.01c-.04.04-.073.08-.112.121-.104.11-.21.219-.304.326a56.3 56.3 0 0 1-42.028 18.862 56.3 56.3 0 0 1-42.074-18.912l-.002-.002a10 10 0 0 0-.912-.907l-.002-.002c-4.19-3.666-10.636-3.259-14.332.907a56.3 56.3 0 0 1-42.074 18.914 56.3 56.3 0 0 1-42.076-18.914 10.2 10.2 0 0 0-7.778-3.424h-.006a10.2 10.2 0 0 0-7.463 3.426 56.3 56.3 0 0 1-42.076 18.914 56.3 56.3 0 0 1-42.07-18.913l-.004-.004a10.17 10.17 0 0 0-8.094-3.414h-.002a10.2 10.2 0 0 0-7.16 3.426 56.3 56.3 0 0 1-42.066 18.904 56.3 56.3 0 0 1-42.075-18.916l-.004-.006a11 11 0 0 0-.412-.435l-.002-.002-.002-.002a10.2 10.2 0 0 0-7.203-2.98z" style="fill:#9fdef8;fill-opacity:1" transform="matrix(.79625 0 0 1.08818 52.16 56.117)"/></svg>
