<svg xmlns="http://www.w3.org/2000/svg" viewBox="0 0 512 512"><defs><clipPath id="a"><path fill="none" d="m357 338.6-46.7-86-46-84.8a9.5 9.5 0 0 0-16.7 0l-46 84.8-46.6 86a9.6 9.6 0 0 0 8.3 14.2h185.3a9.6 9.6 0 0 0 8.4-14.2"/></clipPath></defs><path d="m381 340.1-52.8-97.3-51-94.2a24 24 0 0 0-42.4 0l-51 94.2-52.8 97.3a24.2 24.2 0 0 0 21 35.9h208a24.2 24.2 0 0 0 21.1-35.9Z"/><g clip-path="url(#a)"><path fill="#fff" d="M135.6 130.5h240.8v242.2H135.6z"/><path d="m356.3 263.7 1.9 97.2-162.4-.3zm-52.5-11.1L278 268.2a1 1 0 0 1-1.3-.4l-4.7-7.7a1 1 0 0 1 .4-1.4l25.8-15.6a1 1 0 0 1 1.4.3l4.6 7.8a1 1 0 0 1-.4 1.4"/><circle cx="292.1" cy="279.9" r="6"/><circle cx="199.8" cy="316.2" r="6"/><path d="m266.8 294.8-26.9 24.3a2 2 0 0 1-2.8-.1L213 292a2 2 0 0 1 .1-2.9l26.9-24.3a2 2 0 0 1 2.8.2l24.1 27a2 2 0 0 1-.1 2.8"/></g></svg>
