<svg xmlns="http://www.w3.org/2000/svg" xmlns:xlink="http://www.w3.org/1999/xlink" viewBox="0 0 512 512"><defs><symbol id="a" viewBox="0 0 359 231"><path fill="none" stroke="#000" stroke-linecap="round" stroke-linejoin="round" stroke-width="15" d="M295.5 223.5a56 56 0 1 0 0-112l-2.5.1a84 84 0 0 0-153-64.2 56 56 0 0 0-83.8 57.2 60 60 0 0 0 11.2 118.9"/></symbol></defs><use xlink:href="#a" width="359" height="231" transform="translate(76.5 140.5)"/><path d="M200 376a8 8 0 0 1-8-8v-12a8 8 0 1 1 16 0v12a8 8 0 0 1-8 8m112 30a8 8 0 0 1-8-8v-12a8 8 0 1 1 16 0v12a8 8 0 0 1-8 8m-56 50a8 8 0 0 1-8-8v-12a8 8 0 1 1 16 0v12a8 8 0 0 1-8 8"/></svg>
