<svg xmlns="http://www.w3.org/2000/svg" xmlns:xlink="http://www.w3.org/1999/xlink" viewBox="0 0 512 512"><defs><symbol id="a" viewBox="0 0 99.5 70.9"><path d="M19.4 0A18.7 18.7 0 0 0 0 19.3a19 19 0 0 0 19.4 19.5 18.9 18.9 0 0 0 19.4-19.5A18.6 18.6 0 0 0 19.4 0m6.3 25.7c-1.6 1.7-3.7 2.5-6.3 2.5s-4.6-.8-6.2-2.5c-1.6-1.6-2.4-3.7-2.4-6.4s.7-4.7 2.3-6.3c1.7-1.6 3.7-2.4 6.3-2.4s4.7.8 6.3 2.4 2.4 3.7 2.4 6.3c0 2.7-.8 4.8-2.4 6.4m73.8-7.8V2.6H47.4v68.3h18V44.7h28.9V30.1H65.4V17.9z"/></symbol></defs><use xlink:href="#a" width="99.5" height="70.9" transform="matrix(1.5 0 0 1.51 181.49 202.35)"/></svg>
