<svg xmlns="http://www.w3.org/2000/svg" xmlns:xlink="http://www.w3.org/1999/xlink" viewBox="0 0 512 512"><defs><symbol id="c" viewBox="0 0 258 66"><g fill="none" stroke="#000" stroke-linecap="round" stroke-miterlimit="10" stroke-width="18"><path d="M9 57h30"/><path stroke-dasharray="0 0 60 60" d="M99 57h90"/><path d="M219 57h30M9 9h30"/><path stroke-dasharray="0 0 60 60" d="M99 9h90"/><path d="M219 9h30"/></g></symbol><symbol id="b" viewBox="0 0 375 375"><g fill="none" stroke="#000" stroke-miterlimit="10" stroke-width="15"><circle cx="187.5" cy="187.5" r="84"/><path stroke-linecap="round" d="M187.5 57.2V7.5m0 360v-49.7m92.2-222.5 35-35M60.3 314.7l35.1-35.1m0-184.4-35-35m254.5 254.5-35.1-35.1M57.2 187.5H7.5m360 0h-49.7"/></g></symbol><clipPath id="a"><path fill="none" d="M0 0h512v306H0z"/></clipPath></defs><g clip-path="url(#a)"><use xlink:href="#b" width="375" height="375" transform="translate(68.5 104.5)"/></g><use xlink:href="#c" width="258" height="66" transform="translate(127 339)"/></svg>
