<svg xmlns="http://www.w3.org/2000/svg" xmlns:xlink="http://www.w3.org/1999/xlink" viewBox="0 0 512 512"><defs><symbol id="a" viewBox="0 0 359 231"><path fill="none" stroke="#000" stroke-linecap="round" stroke-linejoin="round" stroke-width="15" d="M295.5 223.5a56 56 0 1 0 0-112l-2.5.1a84 84 0 0 0-153-64.2 56 56 0 0 0-83.8 57.2 60 60 0 0 0 11.2 118.9"/></symbol><symbol id="c" viewBox="0 0 214.3 140.1"><path fill="none" stroke="#000" stroke-linejoin="round" stroke-width="15" d="M7.5 100.2a32.4 32.4 0 0 0 32.4 32.4h129.8v-.1l2.3.1a34.8 34.8 0 0 0 6.5-68.9A32.4 32.4 0 0 0 130 30.6a48.6 48.6 0 0 0-88.6 37.2h-1.5a32.4 32.4 0 0 0-32.4 32.4Z"/></symbol><symbol id="f" viewBox="0 0 258 66"><path fill="none" stroke="#000" stroke-linecap="round" stroke-miterlimit="10" stroke-width="18" d="M9 57h240M9 9h240"/></symbol><symbol id="d" viewBox="0 0 437 362.5"><use xlink:href="#a" width="359" height="231" transform="translate(0 131.5)"/><g clip-path="url(#b)"><use xlink:href="#c" width="214.3" height="140.1" transform="translate(195.51 156.01)"/></g></symbol><clipPath id="b"><path fill="none" d="M369.5 299c0-34.6-24-63.8-56-71.8V223c0-56.2-45.8-102-102-102V0H437v299z"/></clipPath></defs><use xlink:href="#d" width="437" height="362.5" transform="translate(64.34 9)"/><use xlink:href="#f" width="258" height="66" transform="translate(127 405)"/></svg>
