<svg xmlns="http://www.w3.org/2000/svg" xmlns:xlink="http://www.w3.org/1999/xlink" viewBox="0 0 512 512"><defs><symbol id="c" viewBox="0 0 359 231"><path fill="none" stroke="#000" stroke-linecap="round" stroke-linejoin="round" stroke-width="15" d="M295.5 223.5a56 56 0 1 0 0-112l-2.5.1a84 84 0 0 0-153-64.2 56 56 0 0 0-83.8 57.2 60 60 0 0 0 11.2 118.9"/></symbol><symbol id="g" viewBox="0 0 136 114"><path d="M12 0a12 12 0 1 0 0 24 12 12 0 0 0 0-24m56 90a12 12 0 1 0 0 24 12 12 0 0 0 0-24m56-60a12 12 0 1 0 0 24 12 12 0 0 0 0-24"/></symbol><symbol id="f" viewBox="0 0 426.5 362.5"><g clip-path="url(#a)"><use xlink:href="#b" width="199" height="199" transform="translate(37.5 78.5)"/></g><use xlink:href="#c" width="359" height="231" transform="translate(67.5 131.5)"/></symbol><symbol id="b" viewBox="0 0 199 199"><g fill="none" stroke="#000" stroke-miterlimit="10" stroke-width="15"><circle cx="99.5" cy="99.5" r="40"/><path stroke-linecap="round" d="M99.5 32.9V7.5m0 184v-25.4m47.1-113.7 18-18M34.4 164.6l18-18m0-94.2-18-18m130.2 130.2-18-18M7.5 99.5h25.4m158.6 0h-25.4"/></g></symbol><clipPath id="a"><path fill="none" d="M0 0v286h54.5a81.1 81.1 0 0 1 47.7-65 77.1 77.1 0 0 1 98.5-67.9 103.9 103.9 0 0 1 69.3-34.7V0z"/></clipPath></defs><use xlink:href="#f" width="426.5" height="362.5" transform="translate(9 9)"/><use xlink:href="#g" width="136" height="114" transform="translate(188 350)"/></svg>
