<svg xmlns="http://www.w3.org/2000/svg" xmlns:xlink="http://www.w3.org/1999/xlink" viewBox="0 0 512 512"><defs><symbol id="e" viewBox="0 0 121 281"><use xlink:href="#a" width="72" height="168" transform="translate(24.5 88.5)"/><use xlink:href="#b" width="121" height="281"/></symbol><symbol id="b" viewBox="0 0 121 281"><path fill="none" stroke="#000" stroke-linecap="round" stroke-linejoin="round" stroke-width="9" d="M116.5 219.7c0 31.4-25 56.8-56 56.8s-56-25.4-56-56.8a57 57 0 0 1 24-46.6V37c0-18 14.3-32.5 32-32.5s32 14.5 32 32.5v136a57 57 0 0 1 24 46.7m-52-135.2h28m-28-32h28m-28 64h28"/></symbol><symbol id="a" viewBox="0 0 72 168"><circle cx="36" cy="132" r="36"/><path fill="none" stroke="#000" stroke-linecap="round" stroke-miterlimit="10" stroke-width="24" d="M36 12v120"/></symbol></defs><g clip-path="url(#g`)"><path fill="none" stroke="#000" stroke-linecap="round" stroke-linejoin="round" stroke-width="15" d="m393.7 233-23.5-13.6c2.1-9 2-18 0-26.7l23.5-13.7a16.5 16.5 0 1 0-16.5-28.5L353.7 164a57.6 57.6 0 0 0-23.2-13.4v-27.2a16.5 16.5 0 0 0-33 0v27.2c-8.5 2.6-16.5 7-23.2 13.3l-23.5-13.5a16.5 16.5 0 1 0-16.5 28.5l23.5 13.6c-2.1 9-2 18 0 26.7L234.4 233a16.5 16.5 0 1 0 16.5 28.5l23.5-13.6a57.6 57.6 0 0 0 23.2 13.3v27.3a16.5 16.5 0 0 0 33 0v-27.3c8.5-2.5 16.5-7 23.1-13.3l23.6 13.6a16.5 16.5 0 0 0 22.6-6c4.5-7.9 1.8-18-6-22.5Zm-92-5.6a24.8 24.8 0 1 1 24.7-42.9 24.8 24.8 0 0 1-24.8 43Z"/></g><use xlink:href="#e" width="121" height="281" transform="translate(195.5 115.5)"/></svg>
