<svg xmlns="http://www.w3.org/2000/svg" xmlns:xlink="http://www.w3.org/1999/xlink" viewBox="0 0 512 512"><defs><symbol id="a" viewBox="0 0 359 231"><path fill="none" stroke="#000" stroke-linecap="round" stroke-linejoin="round" stroke-width="15" d="M295.5 223.5a56 56 0 1 0 0-112l-2.5.1a84 84 0 0 0-153-64.2 56 56 0 0 0-83.8 57.2 60 60 0 0 0 11.2 118.9"/></symbol><symbol id="c" viewBox="0 0 214.3 140.1"><path fill="none" stroke="#000" stroke-linejoin="round" stroke-width="15" d="M7.5 100.2a32.4 32.4 0 0 0 32.4 32.4h129.8v-.1l2.3.1a34.8 34.8 0 0 0 6.5-68.9A32.4 32.4 0 0 0 130 30.6a48.6 48.6 0 0 0-88.6 37.2h-1.5a32.4 32.4 0 0 0-32.4 32.4Z"/></symbol><symbol id="g" viewBox="0 0 96 176"><path d="M32 0 0 96h32l-16 80L96 64H48L80 0z"/></symbol><symbol id="d" viewBox="0 0 437 362.5"><use xlink:href="#a" width="359" height="231" transform="translate(0 131.5)"/><g clip-path="url(#b)"><use xlink:href="#c" width="214.3" height="140.1" transform="translate(195.51 156.01)"/></g></symbol><symbol id="f" viewBox="0 0 155.2 138"><path d="m41.2 30.5-5.8-3.3a14 14 0 0 0 0-6.4l5.8-3.3a4 4 0 0 0 1.4-5.5 4 4 0 0 0-5.5-1.5l-5.8 3.3a14 14 0 0 0-5.7-3.2V4c0-2.2-1.8-4-4-4s-4 1.8-4 4v6.6c-2.2.6-4.1 1.7-5.8 3.2l-5.7-3.3A4 4 0 0 0 .5 12 4 4 0 0 0 2 17.5l5.8 3.3a14 14 0 0 0 0 6.4L2 30.5A4 4 0 0 0 .5 36a4 4 0 0 0 5.6 1.5l5.7-3.3a14 14 0 0 0 5.7 3.2V44c0 2.2 1.8 4 4 4s4.1-1.8 4.1-4v-6.6c2.1-.6 4-1.7 5.7-3.2l5.8 3.3c.6.3 1.3.5 2 .5a4 4 0 0 0 3.5-2 4 4 0 0 0-1.4-5.5m-22.6-1.3a6 6 0 0 1 3-11.2 6 6 0 0 1 5.3 9 6.1 6.1 0 0 1-8.3 2.2m78.6 91.3-5.8-3.2a14 14 0 0 0 0-6.5l5.8-3.3a4 4 0 0 0 1.4-5.5 4 4 0 0 0-5.5-1.4l-5.8 3.3a14 14 0 0 0-5.7-3.3V94c0-2.2-1.8-4-4-4s-4 1.8-4 4v6.6c-2.2.6-4.1 1.7-5.8 3.2l-5.7-3.2a4 4 0 0 0-5.6 1.4 4 4 0 0 0 1.5 5.5l5.8 3.3a14 14 0 0 0 0 6.4l-5.8 3.3a4 4 0 0 0-1.5 5.5 4 4 0 0 0 5.6 1.5l5.7-3.3a14 14 0 0 0 5.7 3.2v6.6c0 2.2 1.8 4 4 4s4.1-1.8 4.1-4v-6.6c2.1-.6 4-1.7 5.7-3.2l5.8 3.3c.6.3 1.3.5 2 .5a4 4 0 0 0 3.5-2 4 4 0 0 0-1.4-5.5m-22.6-1.3a6 6 0 0 1 3-11.2 6 6 0 0 1 5.3 9 6.1 6.1 0 0 1-8.3 2.2m78.6-48.7-5.8-3.2a14 14 0 0 0 0-6.5l5.8-3.3a4 4 0 0 0 1.4-5.5 4 4 0 0 0-5.5-1.5l-5.8 3.3a14 14 0 0 0-5.7-3.2V44c0-2.2-1.8-4-4-4s-4 1.8-4 4v6.6c-2.2.6-4.1 1.7-5.8 3.2l-5.7-3.3a4 4 0 0 0-5.6 1.5 4 4 0 0 0 1.5 5.5l5.8 3.3a14 14 0 0 0 0 6.4l-5.8 3.3a4 4 0 0 0-1.5 5.5 4 4 0 0 0 5.6 1.5l5.7-3.3a14 14 0 0 0 5.7 3.2V84c0 2.2 1.8 4 4 4s4.1-1.8 4.1-4v-6.6c2.1-.6 4-1.7 5.7-3.2l5.8 3.3c.6.3 1.3.5 2 .5a4 4 0 0 0 3.5-2 4 4 0 0 0-1.4-5.5m-22.6-1.3a6 6 0 0 1 3-11.2 6 6 0 0 1 5.3 9 6.1 6.1 0 0 1-8.3 2.2"/></symbol><clipPath id="b"><path fill="none" d="M369.5 299c0-34.6-24-63.8-56-71.8V223c0-56.2-45.8-102-102-102V0H437v299z"/></clipPath></defs><use xlink:href="#d" width="437" height="362.5" transform="translate(64.34 9)"/><use xlink:href="#f" width="155.2" height="138" transform="translate(178.4 338)"/><use xlink:href="#g" width="96" height="176" transform="translate(208 293)"/></svg>
