<svg xmlns="http://www.w3.org/2000/svg" xmlns:xlink="http://www.w3.org/1999/xlink" viewBox="0 0 512 512"><defs><symbol id="c" viewBox="0 0 359 231"><path fill="none" stroke="#000" stroke-linecap="round" stroke-linejoin="round" stroke-width="15" d="M295.5 223.5a56 56 0 1 0 0-112l-2.5.1a84 84 0 0 0-153-64.2 56 56 0 0 0-83.8 57.2 60 60 0 0 0 11.2 118.9"/></symbol><symbol id="h" viewBox="0 0 96 176"><path d="M32 0 0 96h32l-16 80L96 64H48L80 0z"/></symbol><symbol id="e" viewBox="0 0 426.5 362.5"><g clip-path="url(#a)"><use xlink:href="#b" width="199" height="199" transform="translate(37.5 78.5)"/></g><use xlink:href="#c" width="359" height="231" transform="translate(67.5 131.5)"/></symbol><symbol id="g" viewBox="0 0 155.2 138"><path d="m41.2 30.5-5.8-3.3a14 14 0 0 0 0-6.4l5.8-3.3a4 4 0 0 0 1.4-5.5 4 4 0 0 0-5.5-1.5l-5.8 3.3a14 14 0 0 0-5.7-3.2V4c0-2.2-1.8-4-4-4s-4 1.8-4 4v6.6c-2.2.6-4.1 1.7-5.8 3.2l-5.7-3.3A4 4 0 0 0 .5 12 4 4 0 0 0 2 17.5l5.8 3.3a14 14 0 0 0 0 6.4L2 30.5A4 4 0 0 0 .5 36a4 4 0 0 0 5.6 1.5l5.7-3.3a14 14 0 0 0 5.7 3.2V44c0 2.2 1.8 4 4 4s4.1-1.8 4.1-4v-6.6c2.1-.6 4-1.7 5.7-3.2l5.8 3.3c.6.3 1.3.5 2 .5a4 4 0 0 0 3.5-2 4 4 0 0 0-1.4-5.5m-22.6-1.3a6 6 0 0 1 3-11.2 6 6 0 0 1 5.3 9 6.1 6.1 0 0 1-8.3 2.2m78.6 91.3-5.8-3.2a14 14 0 0 0 0-6.5l5.8-3.3a4 4 0 0 0 1.4-5.5 4 4 0 0 0-5.5-1.4l-5.8 3.3a14 14 0 0 0-5.7-3.3V94c0-2.2-1.8-4-4-4s-4 1.8-4 4v6.6c-2.2.6-4.1 1.7-5.8 3.2l-5.7-3.2a4 4 0 0 0-5.6 1.4 4 4 0 0 0 1.5 5.5l5.8 3.3a14 14 0 0 0 0 6.4l-5.8 3.3a4 4 0 0 0-1.5 5.5 4 4 0 0 0 5.6 1.5l5.7-3.3a14 14 0 0 0 5.7 3.2v6.6c0 2.2 1.8 4 4 4s4.1-1.8 4.1-4v-6.6c2.1-.6 4-1.7 5.7-3.2l5.8 3.3c.6.3 1.3.5 2 .5a4 4 0 0 0 3.5-2 4 4 0 0 0-1.4-5.5m-22.6-1.3a6 6 0 0 1 3-11.2 6 6 0 0 1 5.3 9 6.1 6.1 0 0 1-8.3 2.2m78.6-48.7-5.8-3.2a14 14 0 0 0 0-6.5l5.8-3.3a4 4 0 0 0 1.4-5.5 4 4 0 0 0-5.5-1.5l-5.8 3.3a14 14 0 0 0-5.7-3.2V44c0-2.2-1.8-4-4-4s-4 1.8-4 4v6.6c-2.2.6-4.1 1.7-5.8 3.2l-5.7-3.3a4 4 0 0 0-5.6 1.5 4 4 0 0 0 1.5 5.5l5.8 3.3a14 14 0 0 0 0 6.4l-5.8 3.3a4 4 0 0 0-1.5 5.5 4 4 0 0 0 5.6 1.5l5.7-3.3a14 14 0 0 0 5.7 3.2V84c0 2.2 1.8 4 4 4s4.1-1.8 4.1-4v-6.6c2.1-.6 4-1.7 5.7-3.2l5.8 3.3c.6.3 1.3.5 2 .5a4 4 0 0 0 3.5-2 4 4 0 0 0-1.4-5.5m-22.6-1.3a6 6 0 0 1 3-11.2 6 6 0 0 1 5.3 9 6.1 6.1 0 0 1-8.3 2.2"/></symbol><symbol id="b" viewBox="0 0 199 199"><g fill="none" stroke="#000" stroke-miterlimit="10" stroke-width="15"><circle cx="99.5" cy="99.5" r="40"/><path stroke-linecap="round" d="M99.5 32.9V7.5m0 184v-25.4m47.1-113.7 18-18M34.4 164.6l18-18m0-94.2-18-18m130.2 130.2-18-18M7.5 99.5h25.4m158.6 0h-25.4"/></g></symbol><clipPath id="a"><path fill="none" d="M0 0v286h54.5a81.1 81.1 0 0 1 47.7-65 77.1 77.1 0 0 1 98.5-67.9 103.9 103.9 0 0 1 69.3-34.7V0z"/></clipPath></defs><use xlink:href="#e" width="426.5" height="362.5" transform="translate(9 9)"/><use xlink:href="#g" width="155.2" height="138" transform="translate(178.4 338)"/><use xlink:href="#h" width="96" height="176" transform="translate(208 293)"/></svg>
