<svg xmlns="http://www.w3.org/2000/svg" xmlns:xlink="http://www.w3.org/1999/xlink" viewBox="0 0 512 512"><defs><clipPath id="a"><path fill="none" d="M64 64h384v192H328a72 72 0 0 0-72 72v120H64z"/></clipPath><symbol id="b" viewBox="0 0 375 375"><g fill="none" stroke="#000" stroke-miterlimit="10" stroke-width="15"><circle cx="187.5" cy="187.5" r="84"/><path stroke-linecap="round" d="M187.5 57.2V7.5m0 360v-49.7m92.2-222.5 35-35M60.3 314.7l35.1-35.1m0-184.4-35-35m254.5 254.5-35.1-35.1M57.2 187.5H7.5m360 0h-49.7"/></g></symbol></defs><g clip-path="url(#a)"><use xlink:href="#b" width="375" height="375" transform="translate(68.5 68.5)"/><path fill="none" stroke="#000" stroke-miterlimit="10" stroke-width="15" d="M254 338v-10a74 74 0 0 1 74-74h10"/></g><path d="M376 280h-48c-26.4 0-48 21.6-48 48v48c0 26.4 21.6 48 48 48h48c26.4 0 48-21.6 48-48v-48c0-26.4-21.6-48-48-48m-41.6 108h-19v-45h-17.7v-12.6h3c5.2 0 9.3-1.1 12.4-3.4 2.8-2 4.6-5.5 5.5-10.2l.2-.8h15.6zm63.9-9.8c-5.5 6.6-12.7 9.8-21.9 9.8s-16.4-3.3-21.9-9.8q-8.1-9.75-8.1-26.4c0-16.65 2.7-19.7 8.1-26.1 5.3-6.5 12.6-9.7 21.9-9.7s16.4 3.2 21.9 9.7c5.3 6.5 8 15.2 8 26.1s-2.7 20-8 26.4"/><path d="M376.4 330c-8.4 0-12.7 7.3-12.7 22s4.2 22 12.7 22 12.6-7.3 12.6-22-4.2-22-12.6-22"/></svg>
