<?xml version="1.0" encoding="UTF-8" standalone="no"?>
<svg
   viewBox="0 0 64 64"
   version="1.1"
   id="svg2"
   sodipodi:docname="uv-index-1.svg"
   inkscape:version="1.4.3 (0d15f75042, 2025-12-25)"
   xmlns:inkscape="http://www.inkscape.org/namespaces/inkscape"
   xmlns:sodipodi="http://sodipodi.sourceforge.net/DTD/sodipodi-0.dtd"
   xmlns="http://www.w3.org/2000/svg"
   xmlns:svg="http://www.w3.org/2000/svg">
  <defs
     id="defs2" />
  <sodipodi:namedview
     id="namedview2"
     pagecolor="#ffffff"
     bordercolor="#000000"
     borderopacity="0.25"
     inkscape:showpageshadow="2"
     inkscape:pageopacity="0.0"
     inkscape:pagecheckerboard="0"
     inkscape:deskcolor="#d1d1d1"
     inkscape:zoom="10.356312"
     inkscape:cx="27.760848"
     inkscape:cy="41.520573"
     inkscape:window-width="2240"
     inkscape:window-height="1335"
     inkscape:window-x="0"
     inkscape:window-y="0"
     inkscape:window-maximized="1"
     inkscape:current-layer="svg2" />
  <path
     fill="none"
     stroke="#000000"
     stroke-linecap="round"
     stroke-miterlimit="10"
     stroke-width="4.2"
     d="M 30.166822,42.370177 C 28.17638,42.025284 26.229328,41.077816 24.575756,39.424244 17.961467,32.809955 22.644848,21.5 32,21.5 c 5.79899,0 10.5,4.70101 10.5,10.5 M 32,15.71 V 9.5 m 0,45 v -6.21 m 11.52,-27.81 4.39,-4.39 m -31.82,31.82 4.39,-4.39 m 0,-23 -4.39,-4.39 M 15.71,32 H 9.5 m 45,0 h -6.21"
     id="path1"
     sodipodi:nodetypes="cssccccccccccccccc" />
  <rect
     width="17.821281"
     height="17.821281"
     x="36.890633"
     y="36.890633"
     fill="#000000"
     stroke="#000000"
     stroke-miterlimit="10"
     stroke-width="2.37617"
     rx="5.0917945"
     id="rect1"
     style="fill:none" />
  <path
     fill="#000000"
     d="m 47.903867,40.608232 a 0.66517947,0.66517947 0 0 1 0.133031,0.47893 v 9.41894 a 0.66517947,0.66517947 0 0 1 -0.133031,0.47893 0.61196511,0.61196511 0 0 1 -0.465627,0.133031 h -1.184019 a 0.61196511,0.61196511 0 0 1 -0.465625,-0.133031 0.66517947,0.66517947 0 0 1 -0.133031,-0.47893 V 43.468504 L 44.23208,44.293326 A 0.55875074,0.55875074 0 0 1 43.327436,44.053862 L 42.8219,43.135913 a 0.59866151,0.59866151 0 0 1 -0.09312,-0.465625 0.85142971,0.85142971 0 0 1 0.385803,-0.359197 l 2.660718,-1.569824 a 1.6496451,1.6496451 0 0 1 0.851431,-0.239464 h 0.838125 a 0.61196511,0.61196511 0 0 1 0.439019,0.106427 z"
     id="path2"
     style="stroke-width:1.33036" />
</svg>
