<svg xmlns="http://www.w3.org/2000/svg" xmlns:xlink="http://www.w3.org/1999/xlink" viewBox="0 0 512 512"><defs><clipPath id="a"><path fill="none" d="M64 64h384v192H328a72 72 0 0 0-72 72v120H64z"/></clipPath><symbol id="b" viewBox="0 0 375 375"><g fill="none" stroke="#000" stroke-miterlimit="10" stroke-width="15"><circle cx="187.5" cy="187.5" r="84"/><path stroke-linecap="round" d="M187.5 57.2V7.5m0 360v-49.7m92.2-222.5 35-35M60.3 314.7l35.1-35.1m0-184.4-35-35m254.5 254.5-35.1-35.1M57.2 187.5H7.5m360 0h-49.7"/></g></symbol></defs><g clip-path="url(#a)"><use xlink:href="#b" width="375" height="375" transform="translate(68.5 68.5)"/><path fill="none" stroke="#000" stroke-miterlimit="10" stroke-width="15" d="M254 338v-10a74 74 0 0 1 74-74h10"/></g><path d="M335.6 358.4h18.9v-22.7h-.3z"/><path d="M376 280h-48c-26.4 0-48 21.6-48 48v48c0 26.4 21.6 48 48 48h48c26.4 0 48-21.6 48-48v-48c0-26.4-21.6-48-48-48m6.7 92.5-10.6-.3V388h-17.6v-15.8l-33.2.3V356l32.5-40.1h18.4v42.5l10.5-.2v14.2Z"/></svg>
