<svg xmlns="http://www.w3.org/2000/svg" xmlns:xlink="http://www.w3.org/1999/xlink" viewBox="0 0 512 512"><defs><symbol id="a" viewBox="0 0 342 234"><path fill="none" stroke="#000" stroke-linecap="round" stroke-miterlimit="10" stroke-width="18" d="M264.2 21.3A39.9 39.9 0 0 1 333 49c0 22-18 40-40 40H9m139.2 123.7A39.9 39.9 0 0 0 217 185c0-22-18-40-40-40H9"/></symbol></defs><use xlink:href="#a" width="342" height="234" transform="translate(85 139)"/><path d="M379 344h-18.9v-45h-17.8v-12.6h3c5.2 0 9.3-1.1 12.4-3.4 2.8-2 4.6-5.5 5.5-10.2l.2-.8H379zm46.7 0h-19v-45H389v-12.6h3c5.2 0 9.3-1.1 12.4-3.4 2.8-2 4.6-5.5 5.5-10.2l.2-.8h15.6z"/></svg>
