<svg id="Capa_1" enable-background="new 0 0 512 512" height="512" viewBox="0 0 512 512" width="512" xmlns="http://www.w3.org/2000/svg"><g><g><path d="m240.498 22.5h45v451h-45z" fill="#d19a6e"/><path d="m255.498 22.5h30v451h-30z" fill="#bc845e"/><path d="m295.498 37.5h-65c-2.761 0-5-2.239-5-5v-20c0-2.761 2.239-5 5-5h65c2.761 0 5 2.239 5 5v20c0 2.761-2.238 5-5 5z" fill="#6f6571"/><path d="m300.498 12.5v20c0 2.76-2.24 5-5 5h-30c2.76 0 5-2.24 5-5v-20c0-2.76-2.24-5-5-5h30c2.76 0 5 2.24 5 5z" fill="#5d5360"/><path d="m310.498 459.5h-95v-20c0-5.523 4.477-10 10-10h75c5.523 0 10 4.477 10 10z" fill="#6f6571"/><path d="m310.498 439.5v20h-30v-20c0-5.52-4.48-10-10-10h30c5.52 0 10 4.48 10 10z" fill="#5d5360"/><path d="m346.498 504.5h-167c-5.523 0-10-4.477-10-10v-15c0-11.046 8.954-20 20-20h147c11.046 0 20 8.954 20 20v15c0 5.523-4.477 10-10 10z" fill="#edebed"/><path d="m356.498 479.5v15c0 5.52-4.48 10-10 10h-30c5.52 0 10-4.48 10-10v-15c0-11.05-8.95-20-20-20h30c11.05 0 20 8.95 20 20z" fill="#e2e2e2"/><path d="m107.257 363.5h242.522c3.538 0 6.962-1.251 9.667-3.531l56.739-47.823c4.74-3.995 4.74-11.297 0-15.293l-56.739-47.823c-2.705-2.28-6.129-3.531-9.667-3.531h-242.522c-8.284 0-15 6.716-15 15v88c0 8.285 6.715 15.001 15 15.001z" fill="#ffc269"/><path d="m416.188 312.15-56.74 47.82c-2.71 2.28-6.13 3.53-9.67 3.53h-30c3.54 0 6.96-1.25 9.67-3.53l61.27-51.65c2.37-1.99 2.37-5.65 0-7.64l-61.27-51.65c-2.71-2.28-6.13-3.53-9.67-3.53h30c3.54 0 6.96 1.25 9.67 3.53l56.74 47.82c4.74 4 4.74 11.3 0 15.3z" fill="#ffa95f"/><path d="m164.044 200.5h240.696c8.284 0 15-6.716 15-15v-88c0-8.284-6.716-15-15-15h-240.696c-4.717 0-9.283 1.667-12.889 4.707l-55.343 46.646c-4.74 3.995-4.74 11.297 0 15.293l55.343 46.646c3.607 3.041 8.172 4.708 12.889 4.708z" fill="#ffc269"/><path d="m419.738 97.5v88c0 8.28-6.71 15-15 15h-30c8.29 0 15-6.72 15-15v-88c0-8.28-6.71-15-15-15h30c8.29 0 15 6.72 15 15z" fill="#ffa95f"/></g><g><circle cx="124.758" cy="331" r="10"/><circle cx="124.758" cy="278" r="10"/><path d="m322.758 341c5.515 0 10-4.486 10-10s-4.486-10-10-10-9.999 4.486-9.999 9.995c-.116 5.376 4.622 10.116 9.999 10.005z"/><path d="m322.758 288c5.515 0 10-4.486 10-10s-4.486-10-10-10-9.999 4.486-9.999 9.995c-.116 5.376 4.622 10.116 9.999 10.005z"/><path d="m419.742 158c4.143 0 7.5-3.357 7.5-7.5v-53c0-12.406-10.094-22.5-22.5-22.5h-111.742v-30h2.5c6.893 0 12.5-5.607 12.5-12.5v-20c0-6.893-5.608-12.5-12.5-12.5h-65c-6.893 0-12.5 5.607-12.5 12.5v20c0 6.893 5.607 12.5 12.5 12.5h2.5v30h-68.954c-6.477 0-12.771 2.299-17.723 6.473l-55.344 46.646c-3.954 3.333-6.221 8.21-6.221 13.381s2.268 10.048 6.222 13.381l55.343 46.646c4.952 4.174 11.246 6.473 17.723 6.473h68.954v30h-125.742c-12.407 0-22.5 10.094-22.5 22.5v88c0 12.406 10.093 22.5 22.5 22.5h125.742v51h-7.5c-9.649 0-17.5 7.851-17.5 17.5v12.5h-18.5c-15.164 0-27.5 12.337-27.5 27.5v15c0 9.649 7.851 17.5 17.5 17.5h167c9.649 0 17.5-7.851 17.5-17.5v-15c0-15.163-12.337-27.5-27.5-27.5h-18.5v-12.5c0-9.649-7.851-17.5-17.5-17.5h-7.5v-51h56.78c5.298 0 10.447-1.881 14.501-5.296l56.739-47.823c3.954-3.333 6.222-8.21 6.222-13.381s-2.268-10.048-6.222-13.381l-56.74-47.824c-4.053-3.414-9.202-5.295-14.5-5.295h-56.78v-30h111.742c12.406 0 22.5-10.094 22.5-22.5 0-4.143-3.357-7.5-7.5-7.5s-7.5 3.357-7.5 7.5c0 4.136-3.364 7.5-7.5 7.5h-240.696c-2.944 0-5.805-1.045-8.056-2.941l-55.343-46.646c-1.26-1.433-1.26-2.391 0-3.824l55.343-46.646c2.251-1.896 5.112-2.941 8.056-2.941h240.696c4.136 0 7.5 3.364 7.5 7.5v53c0 4.141 3.357 7.498 7.5 7.498zm-116.742 281.5v12.5h-52.5c-4.142 0-7.5 3.357-7.5 7.5s3.358 7.5 7.5 7.5h86c6.893 0 12.5 5.607 12.5 12.5v15c0 1.379-1.121 2.5-2.5 2.5h-167c-1.378 0-2.5-1.121-2.5-2.5v-15c0-6.893 5.607-12.5 12.5-12.5h26c4.142 0 7.5-3.357 7.5-7.5v-20c0-1.379 1.122-2.5 2.5-2.5h75c1.379 0 2.5 1.121 2.5 2.5zm-25-17.5h-30v-51h30zm76.613-167.235 56.739 47.823c1.261 1.433 1.261 2.391 0 3.824l-56.738 47.822c-1.351 1.139-3.067 1.766-4.834 1.766h-242.522c-4.136 0-7.5-3.364-7.5-7.5v-88c0-4.136 3.364-7.5 7.5-7.5h242.522c1.767 0 3.483.627 4.833 1.765zm-76.613-16.765h-30v-30h30zm-45-223h60v15h-60zm15 30h30v30h-30z"/><path d="m377.242 115c0 5.514 4.485 10 9.999 10h.001c5.514 0 9.999-4.486 9.999-9.995.116-5.376-4.623-10.116-10-10.005-5.514 0-9.999 4.486-9.999 10z"/><path d="m377.242 168c0 5.514 4.485 10 9.999 10h.001c5.514 0 9.999-4.486 9.999-9.995.116-5.376-4.623-10.116-10-10.005-5.514 0-9.999 4.486-9.999 10z"/><circle cx="189.241" cy="168" r="10"/><circle cx="189.241" cy="115" r="10"/><path d="m343.742 149h-111c-4.142 0-7.5 3.357-7.5 7.5s3.358 7.5 7.5 7.5h111c4.143 0 7.5-3.357 7.5-7.5s-3.357-7.5-7.5-7.5z"/><path d="m343.742 119h-111c-4.142 0-7.5 3.357-7.5 7.5s3.358 7.5 7.5 7.5h111c4.143 0 7.5-3.357 7.5-7.5s-3.357-7.5-7.5-7.5z"/><path d="m279.258 313.188h-111c-4.142 0-7.5 3.357-7.5 7.5s3.358 7.5 7.5 7.5h111c4.143 0 7.5-3.357 7.5-7.5s-3.358-7.5-7.5-7.5z"/><path d="m279.258 283.188h-111c-4.142 0-7.5 3.357-7.5 7.5s3.358 7.5 7.5 7.5h111c4.143 0 7.5-3.357 7.5-7.5s-3.358-7.5-7.5-7.5z"/></g></g></svg>
