<?xml version="1.0" encoding="iso-8859-1"?>
<!-- Generator: Adobe Illustrator 19.0.0, SVG Export Plug-In . SVG Version: 6.00 Build 0)  -->
<svg version="1.1" id="Capa_1" xmlns="http://www.w3.org/2000/svg" xmlns:xlink="http://www.w3.org/1999/xlink" x="0px" y="0px"
	 viewBox="0 0 496 496" style="enable-background:new 0 0 496 496;" xml:space="preserve">
<rect x="72" y="112" style="fill:#ECECEC;" width="352" height="232"/>
<rect x="72" y="112" style="fill:#B6C1CE;" width="352" height="56"/>
<rect x="120" y="200" style="fill:#FCD770;" width="96" height="96"/>
<g>
	<rect x="120" y="384" style="fill:#EABD8C;" width="112" height="32"/>
	<rect x="264" y="384" style="fill:#EABD8C;" width="112" height="32"/>
</g>
<rect x="408" y="120" style="fill:#AFB8C9;" width="32" height="368"/>
<rect x="408" y="120" style="fill:#8C95A4;" width="32" height="48"/>
<rect x="56" y="120" style="fill:#AFB8C9;" width="32" height="368"/>
<g>
	<rect x="56" y="120" style="fill:#8C95A4;" width="32" height="48"/>
	<rect x="408" y="464" style="fill:#8C95A4;" width="32" height="24"/>
	<rect x="56" y="464" style="fill:#8C95A4;" width="32" height="24"/>
</g>
<path style="fill:#D3A06C;" d="M464,8H32L8,104v8c0,22.088,17.912,40,40,40s40-17.912,40-40c0,22.088,17.912,40,40,40
	s40-17.912,40-40c0,22.088,17.912,40,40,40s40-17.912,40-40c0,22.088,17.912,40,40,40s40-17.912,40-40c0,22.088,17.912,40,40,40
	s40-17.912,40-40c0,22.088,17.912,40,40,40s40-17.912,40-40v-8L464,8z"/>
<path style="fill:#B27946;" d="M48,152c22.088,0,40-17.912,40-40c0,22.088,17.912,40,40,40s40-17.912,40-40
	c0,22.088,17.912,40,40,40s40-17.912,40-40c0,22.088,17.912,40,40,40s40-17.912,40-40c0,22.088,17.912,40,40,40s40-17.912,40-40
	c0,22.088,17.912,40,40,40s40-17.912,40-40v-8H8v8C8,134.088,25.912,152,48,152z"/>
<path d="M470.248,0H25.752L0.24,102.056L0,112c0,26.472,21.528,48,48,48v320H32v16h432v-16h-16V160c26.472,0,48-21.528,48-48v-8
	L470.248,0z M477.752,96h-62.976L401.44,16h56.312L477.752,96z M272,408v-16h96v16H272z M352,424v56h-64v-56H352z M368,424h16v-48
	H256v48h16v56h-48v-56h16v-48H112v48h16v56H96V352h304v128h-32V424z M128,408v-16h96v16H128z M208,424v56h-64v-56H208z M368,160
	c12.304,0,23.496-4.688,32-12.32V336H96V147.68c8.504,7.632,19.696,12.32,32,12.32c16.688,0,31.392-8.568,40-21.52
	c8.608,12.96,23.312,21.52,40,21.52s31.392-8.568,40-21.52c8.608,12.96,23.312,21.52,40,21.52s31.392-8.568,40-21.52
	C336.608,151.432,351.312,160,368,160z M176,112h64c0,17.648-14.352,32-32,32S176,129.648,176,112z M288,144
	c-17.648,0-32-14.352-32-32h64C320,129.648,305.648,144,288,144z M335.36,96l-6.664-80h56.528l13.336,80H335.36z M319.304,96H256V16
	h56.64L319.304,96z M240,96h-63.304l6.664-80H240V96z M160.64,96h-63.2l13.336-80h56.528L160.64,96z M160,112
	c0,17.648-14.352,32-32,32s-32-14.352-32-32H160z M368,144c-17.648,0-32-14.352-32-32h64C400,129.648,385.648,144,368,144z
	 M38.248,16H94.56L81.224,96H18.248L38.248,16z M16,112h64c0,17.648-14.352,32-32,32S16,129.648,16,112z M64,157.2
	c5.968-2.12,11.376-5.376,16-9.52V480H64V157.2z M432,480h-16V147.68c4.624,4.152,10.032,7.408,16,9.52V480z M448,144
	c-17.648,0-32-14.352-32-32h64C480,129.648,465.648,144,448,144z"/>
<path d="M112,304h112V192H112V304z M128,208h80v80h-80V208z"/>
<rect x="240" y="192" width="144" height="16"/>
<rect x="240" y="288" width="112" height="16"/>
<rect x="240" y="224" width="144" height="16"/>
<rect x="240" y="256" width="144" height="16"/>
<rect y="480" width="16" height="16"/>
<rect x="480" y="480" width="16" height="16"/>
<rect x="368" y="288" width="16" height="16"/>
<g>
</g>
<g>
</g>
<g>
</g>
<g>
</g>
<g>
</g>
<g>
</g>
<g>
</g>
<g>
</g>
<g>
</g>
<g>
</g>
<g>
</g>
<g>
</g>
<g>
</g>
<g>
</g>
<g>
</g>
</svg>
