<svg xmlns="http://www.w3.org/2000/svg" version="1.1" xmlns:xlink="http://www.w3.org/1999/xlink" xmlns:svgjs="http://svgjs.com/svgjs" width="512" height="512" x="0" y="0" viewBox="0 0 512 512" style="enable-background:new 0 0 512 512" xml:space="preserve" class=""><g><path d="M497 150c8.28 0 15-6.72 15-15v-15.9C512 53.43 458.57 0 392.9 0H119.1C53.43 0 0 53.43 0 119.1V135c0 8.28 6.72 15 15 15h15v332H15c-8.28 0-15 6.72-15 15s6.72 15 15 15h482c8.28 0 15-6.72 15-15s-6.72-15-15-15h-15V150zm-45 332h-60.34v-49.45l24.8-13.01c6.35-3.79 9-11.64 6.23-18.5l-32.14-79.66c-7.837-19.417-26.408-31.976-47.325-32.018 11.797-.029 22.466-4.825 30.207-12.551v-.014c7.778-7.75 12.582-18.473 12.582-30.326 0-23.692-19.217-42.895-42.895-42.895-23.692 0-42.895 19.202-42.895 42.895 0 11.839 4.804 22.563 12.568 30.326 7.727 7.741 18.41 12.537 30.221 12.566-20.927.042-39.498 12.601-47.335 32.018l-32.14 79.66c-2.77 6.86-.12 14.71 6.23 18.5l24.81 13.01V482H183.61V318.72h48.618c8.28 0 15-6.72 15-15V195.18c0-8.29-6.72-15-15-15H105c-8.28 0-15 6.71-15 15v108.54c0 8.28 6.72 15 15 15h48.612V482H60V150h392z" fill="#ffffff" data-original="#000000" class=""></path></g></svg>
