<?xml version="1.0" encoding="UTF-8" standalone="no"?>
<svg
   version="1.1"
   viewBox="0 0 48 48"
   id="svg1"
   sodipodi:docname="hrs_icon.svg"
   inkscape:version="1.3.2 (091e20ef0f, 2023-11-25)"
   xml:space="preserve"
   width="48"
   height="48"
   inkscape:export-filename="hrs_icon.png"
   inkscape:export-xdpi="512"
   inkscape:export-ydpi="512"
   xmlns:inkscape="http://www.inkscape.org/namespaces/inkscape"
   xmlns:sodipodi="http://sodipodi.sourceforge.net/DTD/sodipodi-0.dtd"
   xmlns="http://www.w3.org/2000/svg"
   xmlns:svg="http://www.w3.org/2000/svg"><defs
     id="defs1" /><sodipodi:namedview
     id="namedview1"
     pagecolor="#ffffff"
     bordercolor="#000000"
     borderopacity="0.25"
     inkscape:showpageshadow="2"
     inkscape:pageopacity="0.0"
     inkscape:pagecheckerboard="0"
     inkscape:deskcolor="#d1d1d1"
     inkscape:zoom="12.860505"
     inkscape:cx="17.106638"
     inkscape:cy="20.216935"
     inkscape:window-width="2560"
     inkscape:window-height="1375"
     inkscape:window-x="2240"
     inkscape:window-y="0"
     inkscape:window-maximized="1"
     inkscape:current-layer="layer1" /><g
     inkscape:groupmode="layer"
     id="layer1"
     inkscape:label="back"
     style="display:inline" /><path
     style="fill:#ffffff;fill-opacity:1;stroke:#000000;stroke-width:1.2;stroke-linecap:round;stroke-linejoin:round;stroke-dasharray:none;stroke-opacity:1"
     d="m 17.018089,1.057577 c 2.273799,7.323042 5.944009,7.105977 6.510803,14.685636 -0.08233,-4.003353 1.446807,-6.905558 3.362321,-8.875091 3.082829,-3.169769 3.537446,-4.039676 4.648961,-5.308221 0.191737,4.271011 1.62571,8.378156 -3.443926,13.731408 2.098048,-1.579506 3.523545,-3.201672 6.227037,-2.921439 -0.52129,3.419948 -2.406941,4.677828 -3.996097,7.278141 3.328499,-3.733051 11.262632,-1.751833 15.231293,-2.379485 -3.771276,4.239736 -5.618153,6.057478 -12.04822,7.118921 7.269807,2.299746 7.721747,2.681857 12.039341,6.622458 -1.140097,0.34073 -6.679961,4.711403 -15.068235,-3.411686 2.524665,2.473975 5.36073,5.883747 5.244167,9.192591 -2.469753,-0.293985 -5.274326,-2.25899 -7.518642,-4.181461 1.767214,2.688876 2.832161,9.267221 1.823488,12.089162 -0.271127,0.758525 -6.871809,-8.709007 -7.504781,-10.817538 -1.762752,4.727539 -4.565077,9.727658 -7.425963,12.760147 -0.589613,-5.352372 -0.939652,-8.454284 2.316318,-14.037835 -0.73675,1.105087 -1.756116,2.118417 -5.071635,1.711024 -0.216279,-2.415256 1.397278,-4.130544 2.474785,-4.97235 -0.954707,0.834818 -2.717399,2.1496 -4.803719,2.669986 -1.235757,0.308232 -3.008224,0.974546 -5.346083,0.458202 0.02352,-4.56733 5.394005,-7.682778 8.993938,-8.015178 -9.799812,-0.09966 -11.696023,-5.096025 -12.118796,-8.581956 2.232797,0.20421 3.476117,0.704118 5.929417,1.467224 2.422893,0.753649 4.9038,0.203953 8.580759,2.142952 -4.028938,-1.839943 -3.565671,-3.83939 -3.812763,-5.915478 1.919562,0.493739 3.683306,0.02388 5.57511,3.396821 C 15.020032,13.022142 12.312595,4.688783 17.018089,1.057577 Z"
     id="path353"
     sodipodi:nodetypes="ccsccccccccccscccccscccscccc" /><path
     style="fill:none;fill-opacity:0.3902;stroke:#000000;stroke-width:1.1;stroke-linecap:round;stroke-linejoin:round;stroke-dasharray:none;stroke-opacity:1"
     d="m 19.198663,21.504878 c -1.744377,0.04994 -1.75937,-2.851022 -0.11565,-3.785678 1.643721,-0.934655 4.983376,0.330783 3.554026,2.255818"
     id="path356"
     sodipodi:nodetypes="czc" /><path
     style="fill:none;fill-opacity:0.3902;stroke:#000000;stroke-width:1.1;stroke-linecap:round;stroke-linejoin:round;stroke-dasharray:none;stroke-opacity:1"
     d="m 23.233465,19.773161 c -0.565783,-2.016502 2.04929,-3.061753 3.512931,-1.864609 1.46364,1.197145 1.589704,4.46529 -1.393493,4.104166"
     id="path356-9"
     sodipodi:nodetypes="czc" /><path
     style="fill:none;fill-opacity:0.3902;stroke:#000000;stroke-width:1.1;stroke-linecap:round;stroke-linejoin:round;stroke-dasharray:none;stroke-opacity:1"
     d="m 25.843005,22.713832 c 0.981492,-1.942684 3.904422,-0.516508 4.044415,1.369216 0.139989,1.885683 -2.976276,4.060501 -4.327563,1.489319"
     id="path356-9-4"
     sodipodi:nodetypes="czc" /><path
     style="fill:none;fill-opacity:0.3902;stroke:#000000;stroke-width:1.1;stroke-linecap:round;stroke-linejoin:round;stroke-dasharray:none;stroke-opacity:1"
     d="m 25.10532,26.303149 c 2.251616,-0.220111 2.410582,3.105484 0.84989,4.173019 -1.560696,1.067534 -5.173247,-0.333232 -3.713259,-2.862934"
     id="path356-8"
     sodipodi:nodetypes="czc" /><path
     style="fill:none;fill-opacity:0.3902;stroke:#000000;stroke-width:1.1;stroke-linecap:round;stroke-linejoin:round;stroke-dasharray:none;stroke-opacity:1"
     d="m 21.536627,27.49222 c 1.348887,1.595051 -1.964203,2.972545 -3.717612,1.986824 -1.753408,-0.985722 -1.691134,-4.823712 0.859866,-4.042539"
     id="path356-9-43"
     sodipodi:nodetypes="czc" /><path
     style="fill:none;fill-opacity:0.3902;stroke:#000000;stroke-width:1.1;stroke-linecap:round;stroke-linejoin:round;stroke-dasharray:none;stroke-opacity:1"
     d="m 18.682877,24.858876 c -1.328553,1.231683 -3.100338,0.327101 -2.978871,-1.559855 0.121467,-1.886967 2.044321,-3.051866 3.393713,-1.468628"
     id="path356-9-4-9"
     sodipodi:nodetypes="czc" /><ellipse
     style="fill:none;fill-opacity:0.696351;stroke:#000000;stroke-width:1.4;stroke-linecap:round;stroke-linejoin:round;stroke-dasharray:none;stroke-opacity:1"
     id="path354"
     cx="22.161825"
     cy="23.787159"
     rx="3.4172223"
     ry="3.6064477" /></svg>
