<?xml version="1.0" encoding="UTF-8" standalone="no"?>
<svg
   version="1.2"
   width="48"
   height="48"
   id="svg4"
   sodipodi:docname="wikidata_icon.svg"
   inkscape:version="1.3.2 (091e20ef0f, 2023-11-25)"
   inkscape:export-filename="wikidata_icon.png"
   inkscape:export-xdpi="512"
   inkscape:export-ydpi="512"
   xmlns:inkscape="http://www.inkscape.org/namespaces/inkscape"
   xmlns:sodipodi="http://sodipodi.sourceforge.net/DTD/sodipodi-0.dtd"
   xmlns="http://www.w3.org/2000/svg"
   xmlns:svg="http://www.w3.org/2000/svg">
  <defs
     id="defs4" />
  <sodipodi:namedview
     id="namedview4"
     pagecolor="#ffffff"
     bordercolor="#000000"
     borderopacity="0.25"
     inkscape:showpageshadow="2"
     inkscape:pageopacity="0.0"
     inkscape:pagecheckerboard="0"
     inkscape:deskcolor="#d1d1d1"
     inkscape:zoom="6.9933934"
     inkscape:cx="86.295732"
     inkscape:cy="76.071797"
     inkscape:window-width="2560"
     inkscape:window-height="1375"
     inkscape:window-x="2240"
     inkscape:window-y="0"
     inkscape:window-maximized="1"
     inkscape:current-layer="svg4" />
  <g
     id="g4"
     transform="translate(0.15628475,6.0172755)">
    <path
       d="M 1.6218577,30.613783 H 3.2239745 V -3.443743 H 1.6218577 Z m 3.3112054,0 H 9.8460562 V -3.443743 H 4.9330631 Z M 11.448511,-3.443743 v 34.056306 h 4.912994 V -3.443743 Z"
       style="fill:#990000;stroke-width:0.0611747"
       id="path1" />
    <path
       d="m 41.152399,30.61621 h 1.602456 V -3.4437471 H 41.152399 Z M 44.463938,-3.4437471 V 30.61621 h 1.602121 V -3.4437471 Z M 18.01694,30.61621 h 1.602122 V -3.443743 H 18.01694 Z m 3.31154,-34.059953 v 34.05874 h 1.602456 v -34.05874 z"
       style="fill:#339966;stroke-width:0.0611747"
       id="path2" />
    <path
       d="m 24.585704,30.61621 h 4.91366 V -3.443743 h -4.91366 z m 6.515448,0 h 1.708754 V -3.443743 h -1.708754 z m 3.311205,-34.059953 v 34.05874 h 4.912998 v -34.05874 z"
       style="fill:#006699;stroke-width:0.0611747"
       id="path3" />
    <path
       d="m 43.625082,33.639714 2.527968,5.696091 H 44.628114 L 44.159219,38.21045 h -2.548361 l -0.424043,1.125355 h -1.504553 l 2.29556,-5.696091 h 1.64726 m 0.114165,3.575856 -0.917408,-2.214013 -0.835858,2.214013 h 1.753266 m -3.310824,-3.575856 v 1.043812 h -2.06315 v 4.652279 H 36.94635 v -4.652279 h -2.063151 v -1.043812 h 5.545224 m -7.339268,0 2.527968,5.696091 H 34.092187 L 33.623292,38.21045 h -2.548361 l -0.424044,1.125355 h -1.504548 l 2.295556,-5.696091 h 1.64726 m 0.114164,3.575856 -0.917407,-2.214013 -0.835858,2.214013 h 1.753265 m -9.700063,-3.575856 h 2.511663 c 0.970406,1e-5 1.73695,0.266393 2.299633,0.799165 0.565394,0.530066 0.848088,1.216422 0.848093,2.059074 -5e-6,0.883431 -0.28678,1.577944 -0.860323,2.083537 -0.570836,0.502877 -1.386312,0.754315 -2.446425,0.754315 h -2.352641 v -5.696091 m 1.418924,1.043812 v 3.608472 h 0.925564 c 0.600727,0 1.060114,-0.164452 1.37815,-0.493363 0.318032,-0.331627 0.477048,-0.767905 0.477053,-1.308835 -5e-6,-0.559957 -0.161742,-1.000311 -0.485206,-1.32107 -0.320758,-0.323468 -0.782859,-0.485204 -1.386307,-0.485204 H 24.92218 m -2.731835,-1.043812 v 5.696091 h -1.418929 v -5.696091 h 1.418929 m -2.68699,0 -1.855202,2.67476 2.515734,3.021331 H 18.386153 L 16.13137,36.665127 v 2.670678 h -1.418928 v -5.696091 h 1.418928 v 2.564666 l 1.810351,-2.564666 h 1.561634 m -6.103825,0 v 5.696091 H 11.980606 V 33.639714 H 13.39953 M 6.4109142,35.694711 4.6494903,39.409196 H 4.0378853 L 1.5343805,33.639714 h 1.5045488 l 1.3414563,3.14773 1.4637744,-3.14773 h 1.1416661 l 1.4637745,3.14773 1.3333035,-3.14773 H 11.287452 L 8.7921011,39.409196 H 8.1804959 L 6.4109142,35.694711"
       style="font-family:'Gill Sans MT';fill:#484848;fill-opacity:1;stroke:none;stroke-width:0.0549374"
       id="path4" />
  </g>
</svg>
