<svg xmlns="http://www.w3.org/2000/svg" viewBox="0 0 511.88 511.88" width="48" height="48"><path d="M255.94 11.769c-106.885 0-183.531 84.957-183.531 189.756 0 146.043 158.715 279.813 181.092 296.782a4.04 4.04 0 0 0 4.878 0c22.377-16.97 181.092-150.74 181.092-296.782 0-104.8-76.646-189.756-183.531-189.756zm-2.517 57.096c64.868 0 117.453 41.432 117.453 92.54 0 22.188-9.91 42.553-26.433 58.495-21.539 20.78-51.796 28.097-88.503 28.097-64.868 0-114.936-36.143-114.936-87.251 0-28.749 11.604-53.776 37.708-70.75 20.303-13.201 46.332-21.131 74.711-21.131z" style="stroke:#000;stroke-width:14.852;stroke-dasharray:none;stroke-opacity:1;fill:#000;fill-opacity:1"/></svg>
