<svg xmlns="http://www.w3.org/2000/svg" viewBox="0 0 510.777 510.777" width="48" height="48"><path fill="#c38959" d="M122.059 290.814 44.975 454.591c-9.393 19.958 5.168 42.905 27.226 42.905H397.65l-97.277-206.681-89.579-43.468z"/><path fill="#b17a4a" d="m194.044 197.827-9.967 55.966-43.387 243.703H72.206c-22.058 0-36.62-22.948-27.226-42.906l77.083-163.774 49.908-71.546c4.9-10.411 12.903-17.562 22.073-21.443"/><path fill="#9bd069" d="M300.369 290.813a25.7 25.7 0 0 0-4.011 3.279 25.75 25.75 0 0 0-7.577 18.285c0 14.283-11.569 25.852-25.852 25.852-7.142 0-13.607-2.89-18.285-7.568s-7.568-11.143-7.568-18.285c0-14.283-11.578-25.852-25.862-25.852a25.77 25.77 0 0 0-18.275 7.568c-4.678 4.678-7.577 11.143-7.577 18.285 0 14.283-11.578 25.852-25.852 25.852-7.142 0-13.607-2.89-18.285-7.568s-7.568-11.143-7.568-18.285c0-9.013-4.604-16.942-11.597-21.564l49.908-106.04c15.636-33.207 62.866-33.207 78.493 0z"/><path fill="#6ec17d" d="m171.971 184.776-49.908 106.04c6.994 4.622 11.597 12.551 11.597 21.564 0 7.142 2.89 13.607 7.568 18.285s11.143 7.568 18.285 7.568c3.501 0 6.838-.7 9.883-1.961l26.973-151.495c2.957-16.566 8.881-24.862 14.803-24.904-15.698.016-31.391 8.317-39.201 24.903"/><path fill="#c38959" d="m242.359 312.151-87.235 185.346h273.328c28.397 0 47.143-29.542 35.05-55.235l-61.237-130.109-80.331-38.981z"/><path fill="#b17a4a" d="m306.913 228.763-8.938 50.188-38.908 218.545h-103.94l87.235-185.343 44.756-64.16c4.395-9.336 11.572-15.749 19.795-19.23"/><path fill="#9bd069" d="M402.262 312.15a23 23 0 0 0-3.597 2.94 23.1 23.1 0 0 0-6.795 16.397c0 12.809-10.375 23.184-23.183 23.184a23.12 23.12 0 0 1-16.397-6.786 23.1 23.1 0 0 1-6.787-16.397c0-12.809-10.383-23.183-23.192-23.183a23.1 23.1 0 0 0-16.389 6.786 23.12 23.12 0 0 0-6.795 16.397c0 12.809-10.383 23.184-23.184 23.184a23.12 23.12 0 0 1-16.397-6.786 23.1 23.1 0 0 1-6.786-16.397c0-8.082-4.128-15.193-10.4-19.338l44.755-95.093c14.022-29.779 56.376-29.779 70.39 0z"/><path fill="#6ec17d" d="m287.119 217.06-44.755 95.093c6.272 4.145 10.4 11.255 10.4 19.338a23.12 23.12 0 0 0 6.786 16.397 23.1 23.1 0 0 0 16.397 6.787 23.1 23.1 0 0 0 8.863-1.758l24.189-135.856c2.651-14.856 7.964-22.295 13.275-22.333-14.079.014-28.152 7.457-35.155 22.332"/><path fill="#9bd069" d="M144.915 408.46v-6.193c0-26.495-21.479-47.974-47.974-47.974s-47.974 21.479-47.974 47.974v6.193C25.8 410.058 7.5 429.345 7.5 452.918c0 24.62 19.958 44.578 44.578 44.578h89.727c24.62 0 44.578-19.958 44.578-44.578-.001-23.573-18.301-42.86-41.468-44.458"/><path fill="#6ec17d" d="M43.42 452.918c0 12.31 4.99 23.46 13.06 31.52 8.06 8.07 19.21 13.06 31.52 13.06H52.08c-12.31 0-23.46-4.99-31.52-13.06-8.07-8.06-13.06-19.21-13.06-31.52 0-23.57 18.3-42.86 41.47-44.46v-6.19c0-13.25 5.37-25.24 14.05-33.92s20.68-14.05 33.93-14.05c6.35 0 12.42 1.23 17.96 3.48a47.9 47.9 0 0 0-15.97 10.57c-8.68 8.68-14.05 20.67-14.05 33.92v6.19c-23.17 1.6-41.47 20.89-41.47 44.46"/><path fill="#9bd069" d="M361.087 439.921v-4.005c0-17.133-13.889-31.022-31.022-31.022s-31.022 13.889-31.022 31.022v4.005c-14.981 1.034-26.815 13.505-26.815 28.749 0 15.921 12.906 28.827 28.827 28.827h58.022c15.921 0 28.827-12.906 28.827-28.827-.002-15.244-11.836-27.715-26.817-28.749"/><path fill="#6ec17d" d="M295.455 468.67c0 7.96 3.227 15.171 8.445 20.383a28.72 28.72 0 0 0 20.383 8.445h-23.228a28.72 28.72 0 0 1-20.383-8.445 28.72 28.72 0 0 1-8.445-20.383c0-15.242 11.834-27.716 26.817-28.75v-4.003c0-8.568 3.473-16.322 9.085-21.935a30.94 30.94 0 0 1 21.941-9.085c4.106 0 8.031.795 11.614 2.25a31 31 0 0 0-10.327 6.835c-5.613 5.613-9.086 13.366-9.086 21.935v4.003c-14.983 1.034-26.816 13.508-26.816 28.75"/><path fill="#9bd069" d="M465.905 417.253v-5.582c0-23.879-19.357-43.236-43.236-43.236s-43.236 19.357-43.236 43.236v5.582c-20.879 1.441-37.373 18.823-37.373 40.068 0 22.189 17.987 40.176 40.176 40.176h80.866c22.189 0 40.176-17.987 40.176-40.176 0-21.246-16.494-38.628-37.373-40.068"/><path fill="#6ec17d" d="M374.433 457.32c0 11.094 4.497 21.143 11.77 28.407 7.264 7.273 17.313 11.77 28.407 11.77h-32.373c-11.094 0-21.143-4.497-28.407-11.77-7.273-7.264-11.77-17.313-11.77-28.407 0-21.242 16.493-38.627 37.375-40.069v-5.579c0-11.941 4.84-22.747 12.662-30.57s18.638-12.662 30.579-12.662a43 43 0 0 1 16.186 3.136 43.2 43.2 0 0 0-14.393 9.526c-7.823 7.823-12.663 18.629-12.663 30.57v5.579c-20.88 1.442-37.373 18.827-37.373 40.069"/><path fill="#f6f9f9" d="M470.705 109.987h-32.471a24.8 24.8 0 0 0 2.542-10.974c0-13.774-11.166-24.941-24.94-24.941h-73.824c-13.774 0-24.941 11.166-24.941 24.941s11.166 24.94 24.941 24.94h32.471a24.8 24.8 0 0 0-2.542 10.974c0 13.774 11.166 24.941 24.941 24.941h73.824c13.774 0 24.941-11.166 24.941-24.941-.001-13.774-11.168-24.94-24.942-24.94"/><path fill="#dddaec" d="M341.011 99.013c0 6.88 2.79 13.12 7.31 17.63a24.83 24.83 0 0 0 17.63 7.31h-23.94c-6.88 0-13.12-2.79-17.63-7.31a24.83 24.83 0 0 1-7.31-17.63c0-13.78 11.17-24.94 24.94-24.94h23.94c-13.77 0-24.94 11.16-24.94 24.94m79.81 60.85h-23.94c-6.89 0-13.12-2.79-17.63-7.3a24.84 24.84 0 0 1-7.31-17.64c0-3.94.92-7.66 2.54-10.97h23.94a24.9 24.9 0 0 0-2.54 10.97c0 6.89 2.79 13.13 7.31 17.64 4.51 4.51 10.74 7.3 17.63 7.3"/><path fill="#f6f9f9" d="M50.03 49.195h32.471a24.8 24.8 0 0 1-2.542-10.974c0-13.774 11.166-24.941 24.94-24.941h58.823c13.774 0 24.941 11.166 24.941 24.941s-11.166 24.94-24.941 24.94h-17.47a24.8 24.8 0 0 1 2.542 10.974c0 13.774-11.166 24.941-24.941 24.941H50.03c-13.774 0-24.941-11.166-24.941-24.941.001-13.773 11.167-24.94 24.941-24.94"/><path fill="#dddaec" d="M47.633 74.136c0-13.774 11.166-24.941 24.941-24.941H50.03c-13.774 0-24.941 11.166-24.941 24.941S36.255 99.077 50.03 99.077h22.543c-13.774 0-24.94-11.167-24.94-24.941m57.412-24.941a24.8 24.8 0 0 1-2.542-10.974c0-13.774 11.166-24.941 24.94-24.941H104.9c-13.774 0-24.94 11.166-24.94 24.941 0 3.938.916 7.662 2.542 10.974z"/><path d="M473.397 410.776c-.41-23.638-17.074-43.373-39.266-48.52l-69.838-148.392c-7.736-16.433-23.823-26.64-41.983-26.64h-.008c-18.158.003-34.24 10.211-41.97 26.641l-3.944 8.38-19.143-40.662c-8.48-18.02-26.119-29.213-46.031-29.213s-37.551 11.194-46.031 29.213l-78.182 166.12c-25.754 4.681-45.374 27.189-45.532 54.237C17.723 406.877 0 428.051 0 452.918c0 27.488 21.411 50.055 48.43 51.936.469.092.952.143 1.447.143h413.225c26.288 0 47.676-21.387 47.676-47.676-.001-22.562-15.936-41.802-37.381-46.545M293.905 220.252c5.31-11.287 15.927-18.026 28.399-18.028h.006c12.476 0 23.098 6.74 28.412 18.029l42.302 89.883c-5.579 5.753-8.652 13.314-8.652 21.353 0 8.648-7.039 15.684-15.691 15.684-4.189 0-8.126-1.63-11.091-4.595a15.56 15.56 0 0 1-4.593-11.089c0-16.919-13.765-30.683-30.684-30.683-8.2 0-15.907 3.19-21.701 8.983-5.798 5.798-8.99 13.505-8.99 21.7 0 8.648-7.035 15.684-15.684 15.684-4.189 0-8.126-1.63-11.086-4.59a15.6 15.6 0 0 1-4.598-11.094 30.6 30.6 0 0 0-8.66-21.349zM178.756 187.97c6.071-12.9 18.205-20.601 32.459-20.601s26.388 7.701 32.459 20.602l24.426 51.885-27.091 57.554c-5.495-10.891-16.78-18.383-29.789-18.383-8.917 0-17.296 3.469-23.6 9.772-6.294 6.308-9.761 14.682-9.761 23.577 0 10.124-8.236 18.36-18.359 18.36a18.22 18.22 0 0 1-12.967-5.374 18.25 18.25 0 0 1-5.384-12.987c0-8.981-3.59-17.431-9.824-23.627zm-54.621 116.056a18.3 18.3 0 0 1 2.014 8.349c0 8.91 3.472 17.289 9.776 23.593 6.298 6.298 14.67 9.767 23.574 9.767 18.395 0 33.359-14.965 33.359-33.36a18.26 18.26 0 0 1 5.374-12.977 18.24 18.24 0 0 1 12.986-5.373c10.118 0 18.35 8.231 18.35 18.35 0 2.552.302 5.06.865 7.497l-19.902 42.282a7.5 7.5 0 0 0 13.572 6.389l20.1-42.702a15.7 15.7 0 0 1 1.051 5.648c0 8.196 3.193 15.903 8.991 21.701 5.792 5.792 13.496 8.983 21.692 8.983 16.919 0 30.684-13.765 30.684-30.684 0-4.189 1.633-8.129 4.597-11.093 2.96-2.96 6.9-4.59 11.095-4.59 8.648 0 15.684 7.036 15.684 15.683 0 8.207 3.195 15.916 8.991 21.701 5.792 5.792 13.496 8.983 21.692 8.983 16.923 0 30.691-13.765 30.691-30.684 0-1.96.369-3.859 1.05-5.633l16.657 35.394c-25.065 2.76-44.693 23.842-45.139 49.525a47 47 0 0 0-10.023 3.445c-7.06-10.427-18.831-16.825-31.857-16.825-10.297 0-19.97 4.01-27.229 11.282-6.731 6.719-10.667 15.494-11.223 24.917-15.525 4.194-26.879 18.452-26.879 35.071 0 7.766 2.428 15.161 6.917 21.331h-93.319c9.594-9.451 15.555-22.58 15.555-37.079 0-5.295-.81-10.421-2.305-15.26l19.757-41.974a7.5 7.5 0 0 0-3.592-9.979 7.5 7.5 0 0 0-9.98 3.592l-14.91 31.677c-7.443-9.541-18.127-16.473-30.439-19.033-.165-28.116-21.358-51.328-48.613-54.707zm210.426 153.295c0 12.638 4.952 24.135 13.007 32.675H301.05c-5.696 0-11.051-2.217-15.071-6.238-4.03-4.037-6.249-9.397-6.249-15.092 0-11.154 8.71-20.496 19.83-21.268a7.5 7.5 0 0 0 6.98-7.482v-4c0-6.285 2.446-12.188 6.898-16.631 4.434-4.442 10.336-6.889 16.621-6.889 7.969 0 15.168 3.921 19.479 10.306-9.23 8.732-14.977 21.074-14.977 34.619M15 452.918c0-19.4 15.147-35.642 34.484-36.976a7.5 7.5 0 0 0 6.983-7.482v-6.193c0-22.317 18.156-40.474 40.474-40.474s40.474 18.156 40.474 40.474v6.193a7.5 7.5 0 0 0 6.983 7.482c19.337 1.334 34.484 17.576 34.484 36.976 0 20.445-16.633 37.078-37.078 37.078H52.078C31.633 489.996 15 473.363 15 452.918m448.102 37.078h-80.865c-18.018 0-32.676-14.658-32.676-32.676 0-17.097 13.348-31.41 30.389-32.585a7.5 7.5 0 0 0 6.983-7.482v-5.582c0-19.705 16.031-35.736 35.736-35.736s35.736 16.031 35.736 35.736v5.582a7.5 7.5 0 0 0 6.983 7.482c17.041 1.175 30.389 15.489 30.389 32.585 0 18.018-14.658 32.676-32.675 32.676M342.009 131.449h22.613a33 33 0 0 0-.184 3.48c0 8.672 3.379 16.819 9.501 22.927 6.121 6.134 14.268 9.513 22.939 9.513h73.83c17.887 0 32.439-14.552 32.439-32.44 0-8.665-3.376-16.812-9.506-22.943-6.124-6.124-14.269-9.497-22.934-9.497h-22.613q.182-1.723.183-3.48c0-8.672-3.378-16.818-9.5-22.927-6.121-6.134-14.268-9.513-22.939-9.513h-34.891c-4.143 0-7.5 3.358-7.5 7.5s3.357 7.5 7.5 7.5h34.891c4.659 0 9.034 1.814 12.332 5.119a17.3 17.3 0 0 1 5.107 12.321c0 2.689-.598 5.274-1.776 7.683a7.5 7.5 0 0 0 6.736 10.798h32.471c4.658 0 9.036 1.812 12.326 5.103a17.33 17.33 0 0 1 5.113 12.337c0 9.616-7.823 17.44-17.439 17.44h-73.83a17.3 17.3 0 0 1-12.333-5.12 17.28 17.28 0 0 1-5.107-12.32c0-2.683.599-5.27 1.78-7.69a7.5 7.5 0 0 0-.38-7.263 7.5 7.5 0 0 0-6.36-3.526h-32.47a17.3 17.3 0 0 1-12.327-5.104 17.33 17.33 0 0 1-5.113-12.336c0-9.616 7.824-17.44 17.44-17.44h8.939c4.143 0 7.5-3.358 7.5-7.5s-3.357-7.5-7.5-7.5h-8.939c-17.888 0-32.44 14.552-32.44 32.44 0 8.666 3.377 16.813 9.507 22.943 6.124 6.122 14.269 9.495 22.934 9.495M50.03 106.576h73.824c17.888 0 32.44-14.553 32.44-32.44q0-1.754-.183-3.474h7.61c17.888 0 32.44-14.553 32.44-32.44s-14.553-32.44-32.44-32.44h-58.823c-17.888 0-32.44 14.553-32.44 32.44q0 1.754.183 3.474H50.03c-17.888 0-32.44 14.553-32.44 32.441 0 17.887 14.553 32.439 32.44 32.439m0-49.881h32.471a7.498 7.498 0 0 0 6.732-10.805 17.24 17.24 0 0 1-1.774-7.668c0-9.617 7.824-17.44 17.44-17.44h58.823c9.616 0 17.44 7.824 17.44 17.44s-7.824 17.44-17.44 17.44h-17.47a7.498 7.498 0 0 0-6.732 10.805 17.25 17.25 0 0 1 1.774 7.669c0 9.617-7.824 17.44-17.44 17.44H50.03c-9.616 0-17.44-7.824-17.44-17.44s7.824-17.441 17.44-17.441"/></svg>
