<svg id="Capa_1" enable-background="new 0 0 510.777 510.777" height="512" viewBox="0 0 510.777 510.777" width="512" xmlns="http://www.w3.org/2000/svg"><g><g><g><path d="m122.059 290.814-77.084 163.777c-9.393 19.958 5.168 42.905 27.226 42.905h325.449l-97.277-206.681-89.579-43.468z" fill="#c38959"/><path d="m194.044 197.827-9.967 55.966-43.387 243.703h-68.484c-22.058 0-36.62-22.948-27.226-42.906l77.083-163.774 49.908-71.546c4.9-10.411 12.903-17.562 22.073-21.443z" fill="#b17a4a"/><path d="m300.369 290.813c-1.445.954-2.788 2.056-4.011 3.279-4.687 4.678-7.577 11.143-7.577 18.285 0 14.283-11.569 25.852-25.852 25.852-7.142 0-13.607-2.89-18.285-7.568s-7.568-11.143-7.568-18.285c0-14.283-11.578-25.852-25.862-25.852-7.132 0-13.598 2.89-18.275 7.568-4.678 4.678-7.577 11.143-7.577 18.285 0 14.283-11.578 25.852-25.852 25.852-7.142 0-13.607-2.89-18.285-7.568s-7.568-11.143-7.568-18.285c0-9.013-4.604-16.942-11.597-21.564l49.908-106.04c15.636-33.207 62.866-33.207 78.493 0z" fill="#9bd069"/><path d="m171.971 184.776-49.908 106.04c6.994 4.622 11.597 12.551 11.597 21.564 0 7.142 2.89 13.607 7.568 18.285s11.143 7.568 18.285 7.568c3.501 0 6.838-.7 9.883-1.961l26.973-151.495c2.957-16.566 8.881-24.862 14.803-24.904-15.698.016-31.391 8.317-39.201 24.903z" fill="#6ec17d"/></g><g><path d="m242.359 312.151-87.235 185.346h273.328c28.397 0 47.143-29.542 35.05-55.235l-61.237-130.109-80.331-38.981z" fill="#c38959"/><path d="m306.913 228.763-8.938 50.188-38.908 218.545h-103.94l87.235-185.343 44.756-64.16c4.395-9.336 11.572-15.749 19.795-19.23z" fill="#b17a4a"/><path d="m402.262 312.15c-1.296.855-2.5 1.844-3.597 2.94-4.203 4.195-6.795 9.993-6.795 16.397 0 12.809-10.375 23.184-23.183 23.184-6.404 0-12.202-2.592-16.397-6.786-4.195-4.195-6.787-9.993-6.787-16.397 0-12.809-10.383-23.183-23.192-23.183-6.396 0-12.194 2.592-16.389 6.786-4.195 4.195-6.795 9.993-6.795 16.397 0 12.809-10.383 23.184-23.184 23.184-6.404 0-12.202-2.592-16.397-6.786-4.195-4.195-6.786-9.993-6.786-16.397 0-8.082-4.128-15.193-10.4-19.338l44.755-95.093c14.022-29.779 56.376-29.779 70.39 0z" fill="#9bd069"/><path d="m287.119 217.06-44.755 95.093c6.272 4.145 10.4 11.255 10.4 19.338 0 6.404 2.592 12.202 6.786 16.397 4.195 4.195 9.993 6.787 16.397 6.787 3.139 0 6.132-.627 8.863-1.758l24.189-135.856c2.651-14.856 7.964-22.295 13.275-22.333-14.079.014-28.152 7.457-35.155 22.332z" fill="#6ec17d"/></g><g><path d="m144.915 408.46v-6.193c0-26.495-21.479-47.974-47.974-47.974-26.495 0-47.974 21.479-47.974 47.974v6.193c-23.167 1.598-41.467 20.885-41.467 44.458 0 24.62 19.958 44.578 44.578 44.578h89.727c24.62 0 44.578-19.958 44.578-44.578-.001-23.573-18.301-42.86-41.468-44.458z" fill="#9bd069"/><path d="m43.42 452.918c0 12.31 4.99 23.46 13.06 31.52 8.06 8.07 19.21 13.06 31.52 13.06h-35.92c-12.31 0-23.46-4.99-31.52-13.06-8.07-8.06-13.06-19.21-13.06-31.52 0-23.57 18.3-42.86 41.47-44.46v-6.19c0-13.25 5.37-25.24 14.05-33.92s20.68-14.05 33.93-14.05c6.35 0 12.42 1.23 17.96 3.48-6.03 2.43-11.45 6.05-15.97 10.57-8.68 8.68-14.05 20.67-14.05 33.92v6.19c-23.17 1.6-41.47 20.89-41.47 44.46z" fill="#6ec17d"/></g><g><path d="m361.087 439.921v-4.005c0-17.133-13.889-31.022-31.022-31.022-17.133 0-31.022 13.889-31.022 31.022v4.005c-14.981 1.034-26.815 13.505-26.815 28.749 0 15.921 12.906 28.827 28.827 28.827h58.022c15.921 0 28.827-12.906 28.827-28.827-.002-15.244-11.836-27.715-26.817-28.749z" fill="#9bd069"/><path d="m295.455 468.67c0 7.96 3.227 15.171 8.445 20.383 5.212 5.219 12.422 8.445 20.383 8.445h-23.228c-7.96 0-15.171-3.227-20.383-8.445-5.219-5.212-8.445-12.422-8.445-20.383 0-15.242 11.834-27.716 26.817-28.75v-4.003c0-8.568 3.473-16.322 9.085-21.935 5.613-5.613 13.373-9.085 21.941-9.085 4.106 0 8.031.795 11.614 2.25-3.899 1.571-7.404 3.912-10.327 6.835-5.613 5.613-9.086 13.366-9.086 21.935v4.003c-14.983 1.034-26.816 13.508-26.816 28.75z" fill="#6ec17d"/></g><g><path d="m465.905 417.253v-5.582c0-23.879-19.357-43.236-43.236-43.236-23.879 0-43.236 19.357-43.236 43.236v5.582c-20.879 1.441-37.373 18.823-37.373 40.068 0 22.189 17.987 40.176 40.176 40.176h80.866c22.189 0 40.176-17.987 40.176-40.176 0-21.246-16.494-38.628-37.373-40.068z" fill="#9bd069"/><path d="m374.433 457.32c0 11.094 4.497 21.143 11.77 28.407 7.264 7.273 17.313 11.77 28.407 11.77h-32.373c-11.094 0-21.143-4.497-28.407-11.77-7.273-7.264-11.77-17.313-11.77-28.407 0-21.242 16.493-38.627 37.375-40.069v-5.579c0-11.941 4.84-22.747 12.662-30.57 7.823-7.823 18.638-12.662 30.579-12.662 5.723 0 11.193 1.109 16.186 3.136-5.435 2.19-10.319 5.452-14.393 9.526-7.823 7.823-12.663 18.629-12.663 30.57v5.579c-20.88 1.442-37.373 18.827-37.373 40.069z" fill="#6ec17d"/></g><path d="m470.705 109.987h-32.471c1.626-3.312 2.542-7.035 2.542-10.974 0-13.774-11.166-24.941-24.94-24.941h-73.824c-13.774 0-24.941 11.166-24.941 24.941 0 13.774 11.166 24.94 24.941 24.94h32.471c-1.626 3.312-2.542 7.035-2.542 10.974 0 13.774 11.166 24.941 24.941 24.941h73.824c13.774 0 24.941-11.166 24.941-24.941-.001-13.774-11.168-24.94-24.942-24.94z" fill="#f6f9f9"/><path d="m341.011 99.013c0 6.88 2.79 13.12 7.31 17.63 4.51 4.52 10.75 7.31 17.63 7.31h-23.94c-6.88 0-13.12-2.79-17.63-7.31-4.52-4.51-7.31-10.75-7.31-17.63 0-13.78 11.17-24.94 24.94-24.94h23.94c-13.77 0-24.94 11.16-24.94 24.94z" fill="#dddaec"/><path d="m420.821 159.863h-23.94c-6.89 0-13.12-2.79-17.63-7.3-4.52-4.51-7.31-10.75-7.31-17.64 0-3.94.92-7.66 2.54-10.97h23.94c-1.62 3.31-2.54 7.03-2.54 10.97 0 6.89 2.79 13.13 7.31 17.64 4.51 4.51 10.74 7.3 17.63 7.3z" fill="#dddaec"/><path d="m50.03 49.195h32.471c-1.626-3.312-2.542-7.035-2.542-10.974 0-13.774 11.166-24.941 24.94-24.941h58.823c13.774 0 24.941 11.166 24.941 24.941 0 13.774-11.166 24.94-24.941 24.94h-17.47c1.626 3.312 2.542 7.035 2.542 10.974 0 13.774-11.166 24.941-24.941 24.941h-73.823c-13.774 0-24.941-11.166-24.941-24.941.001-13.773 11.167-24.94 24.941-24.94z" fill="#f6f9f9"/><g fill="#dddaec"><path d="m47.633 74.136c0-13.774 11.166-24.941 24.941-24.941h-22.544c-13.774 0-24.941 11.166-24.941 24.941 0 13.774 11.166 24.941 24.941 24.941h22.543c-13.774 0-24.94-11.167-24.94-24.941z"/><path d="m105.045 49.195c-1.626-3.312-2.542-7.035-2.542-10.974 0-13.774 11.166-24.941 24.94-24.941h-22.543c-13.774 0-24.94 11.166-24.94 24.941 0 3.938.916 7.662 2.542 10.974z"/></g></g><g><path d="m473.397 410.776c-.41-23.638-17.074-43.373-39.266-48.52l-69.838-148.392c-7.736-16.433-23.823-26.64-41.983-26.64-.003 0-.006 0-.008 0-18.158.003-34.24 10.211-41.97 26.641l-3.944 8.38-19.143-40.662c-8.48-18.02-26.119-29.213-46.031-29.213s-37.551 11.194-46.031 29.213l-78.182 166.12c-25.754 4.681-45.374 27.189-45.532 54.237-23.746 4.937-41.469 26.111-41.469 50.978 0 27.488 21.411 50.055 48.43 51.936.469.092.952.143 1.447.143h413.225c26.288 0 47.676-21.387 47.676-47.676-.001-22.562-15.936-41.802-37.381-46.545zm-179.492-190.524c5.31-11.287 15.927-18.026 28.399-18.028h.006c12.476 0 23.098 6.74 28.412 18.029l42.302 89.883c-5.579 5.753-8.652 13.314-8.652 21.353 0 8.648-7.039 15.684-15.691 15.684-4.189 0-8.126-1.63-11.091-4.595-2.962-2.956-4.593-6.894-4.593-11.089 0-16.919-13.765-30.683-30.684-30.683-8.2 0-15.907 3.19-21.701 8.983-5.798 5.798-8.99 13.505-8.99 21.7 0 8.648-7.035 15.684-15.684 15.684-4.189 0-8.126-1.63-11.086-4.59-2.965-2.964-4.598-6.904-4.598-11.094 0-8.076-3.161-15.683-8.66-21.349zm-115.149-32.282c6.071-12.9 18.205-20.601 32.459-20.601s26.388 7.701 32.459 20.602l24.426 51.885-27.091 57.554c-5.495-10.891-16.78-18.383-29.789-18.383-8.917 0-17.296 3.469-23.6 9.772-6.294 6.308-9.761 14.682-9.761 23.577 0 10.124-8.236 18.36-18.359 18.36-4.897 0-9.502-1.908-12.967-5.374-3.472-3.472-5.384-8.083-5.384-12.987 0-8.981-3.59-17.431-9.824-23.627zm-54.621 116.056c1.302 2.545 2.014 5.394 2.014 8.349 0 8.91 3.472 17.289 9.776 23.593 6.298 6.298 14.67 9.767 23.574 9.767 18.395 0 33.359-14.965 33.359-33.36 0-4.895 1.91-9.506 5.374-12.977 3.464-3.465 8.076-5.373 12.986-5.373 10.118 0 18.35 8.231 18.35 18.35 0 2.552.302 5.06.865 7.497l-19.902 42.282c-1.764 3.748-.155 8.216 3.592 9.98 3.746 1.765 8.216.156 9.98-3.591l20.1-42.702c.685 1.775 1.051 3.685 1.051 5.648 0 8.196 3.193 15.903 8.991 21.701 5.792 5.792 13.496 8.983 21.692 8.983 16.919 0 30.684-13.765 30.684-30.684 0-4.189 1.633-8.129 4.597-11.093 2.96-2.96 6.9-4.59 11.095-4.59 8.648 0 15.684 7.036 15.684 15.683 0 8.207 3.195 15.916 8.991 21.701 5.792 5.792 13.496 8.983 21.692 8.983 16.923 0 30.691-13.765 30.691-30.684 0-1.96.369-3.859 1.05-5.633l16.657 35.394c-25.065 2.76-44.693 23.842-45.139 49.525-3.505.775-6.859 1.944-10.023 3.445-7.06-10.427-18.831-16.825-31.857-16.825-10.297 0-19.97 4.01-27.229 11.282-6.731 6.719-10.667 15.494-11.223 24.917-15.525 4.194-26.879 18.452-26.879 35.071 0 7.766 2.428 15.161 6.917 21.331h-93.319c9.594-9.451 15.555-22.58 15.555-37.079 0-5.295-.81-10.421-2.305-15.26l19.757-41.974c1.764-3.748.155-8.216-3.592-9.979-3.748-1.765-8.216-.157-9.98 3.592l-14.91 31.677c-7.443-9.541-18.127-16.473-30.439-19.033-.165-28.116-21.358-51.328-48.613-54.707zm210.426 153.295c0 12.638 4.952 24.135 13.007 32.675h-46.518c-5.696 0-11.051-2.217-15.071-6.238-4.03-4.037-6.249-9.397-6.249-15.092 0-11.154 8.71-20.496 19.83-21.268 3.931-.273 6.98-3.542 6.98-7.482v-4c0-6.285 2.446-12.188 6.898-16.631 4.434-4.442 10.336-6.889 16.621-6.889 7.969 0 15.168 3.921 19.479 10.306-9.23 8.732-14.977 21.074-14.977 34.619zm-319.561-4.403c0-19.4 15.147-35.642 34.484-36.976 3.932-.271 6.983-3.541 6.983-7.482v-6.193c0-22.317 18.156-40.474 40.474-40.474s40.474 18.156 40.474 40.474v6.193c0 3.942 3.052 7.211 6.983 7.482 19.337 1.334 34.484 17.576 34.484 36.976 0 20.445-16.633 37.078-37.078 37.078h-89.726c-20.445 0-37.078-16.633-37.078-37.078zm448.102 37.078h-80.865c-18.018 0-32.676-14.658-32.676-32.676 0-17.097 13.348-31.41 30.389-32.585 3.932-.271 6.983-3.541 6.983-7.482v-5.582c0-19.705 16.031-35.736 35.736-35.736s35.736 16.031 35.736 35.736v5.582c0 3.942 3.052 7.211 6.983 7.482 17.041 1.175 30.389 15.489 30.389 32.585 0 18.018-14.658 32.676-32.675 32.676z"/><path d="m342.009 131.449h22.613c-.122 1.149-.184 2.31-.184 3.48 0 8.672 3.379 16.819 9.501 22.927 6.121 6.134 14.268 9.513 22.939 9.513h73.83c17.887 0 32.439-14.552 32.439-32.44 0-8.665-3.376-16.812-9.506-22.943-6.124-6.124-14.269-9.497-22.934-9.497h-22.613c.121-1.148.183-2.309.183-3.48 0-8.672-3.378-16.818-9.5-22.927-6.121-6.134-14.268-9.513-22.939-9.513h-34.891c-4.143 0-7.5 3.358-7.5 7.5s3.357 7.5 7.5 7.5h34.891c4.659 0 9.034 1.814 12.332 5.119 3.294 3.286 5.107 7.662 5.107 12.321 0 2.689-.598 5.274-1.776 7.683-1.138 2.325-.997 5.072.373 7.268 1.37 2.195 3.775 3.53 6.363 3.53h32.471c4.658 0 9.036 1.812 12.326 5.103 3.298 3.297 5.113 7.679 5.113 12.337 0 9.616-7.823 17.44-17.439 17.44h-73.83c-4.659 0-9.034-1.814-12.333-5.12-3.294-3.286-5.107-7.661-5.107-12.32 0-2.683.599-5.27 1.78-7.69 1.135-2.325.991-5.07-.38-7.263-1.37-2.194-3.773-3.526-6.36-3.526h-32.47c-4.658 0-9.036-1.812-12.327-5.104-3.298-3.297-5.113-7.678-5.113-12.336 0-9.616 7.824-17.44 17.44-17.44h8.939c4.143 0 7.5-3.358 7.5-7.5s-3.357-7.5-7.5-7.5h-8.939c-17.888 0-32.44 14.552-32.44 32.44 0 8.666 3.377 16.813 9.507 22.943 6.124 6.122 14.269 9.495 22.934 9.495z"/><path d="m50.03 106.576h73.824c17.888 0 32.44-14.553 32.44-32.44 0-1.169-.061-2.328-.183-3.474h7.61c17.888 0 32.44-14.553 32.44-32.44s-14.553-32.44-32.44-32.44h-58.823c-17.888 0-32.44 14.553-32.44 32.44 0 1.169.061 2.328.183 3.474h-22.611c-17.888 0-32.44 14.553-32.44 32.441 0 17.887 14.553 32.439 32.44 32.439zm0-49.881h32.471c2.59 0 4.996-1.336 6.365-3.534 1.37-2.198 1.509-4.947.367-7.271-1.178-2.397-1.774-4.978-1.774-7.668 0-9.617 7.824-17.44 17.44-17.44h58.823c9.616 0 17.44 7.824 17.44 17.44s-7.824 17.44-17.44 17.44h-17.47c-2.59 0-4.996 1.336-6.365 3.534-1.37 2.198-1.509 4.947-.367 7.271 1.178 2.398 1.774 4.979 1.774 7.669 0 9.617-7.824 17.44-17.44 17.44h-73.824c-9.616 0-17.44-7.824-17.44-17.44s7.824-17.441 17.44-17.441z"/></g></g></svg>
