<svg xmlns="http://www.w3.org/2000/svg" viewBox="0 0 40 40"><path d="m27.7207 12.8623c-.4375.438-1.1475.438-1.585 0-.4375-.4385-.4384-1.1475 0-1.5859l2.5909-2.5904c.4394-.4384 1.1494-.4384 1.5849 0 .4395.438.4405 1.147 0 1.5855zm-8.7217 15.1885c-4.438 0-8.0498-3.6133-8.0498-8.0508 0-4.4385 3.6118-8.0503 8.0498-8.0503 4.4385 0 8.0498 3.6118 8.0498 8.0503 0 4.4375-3.6113 8.0508-8.0498 8.0508zm-8.7221-15.1885-2.59184-2.5908c-.43848-.4385-.43848-1.1475 0-1.5855.43848-.4384 1.14795-.4384 1.58642 0l2.59132 2.5904c.4375.4384.4375 1.1474 0 1.5859-.438.438-1.1484.438-1.5859 0zm.0009 14.2754c.4375-.4395 1.1485-.4375 1.586 0s.4375 1.1465 0 1.584l-2.59134 2.59275c-.4375.43848-1.14795.43848-1.58545 0-.43847-.4375-.43847-1.14648 0-1.58695zm17.4429-.002 2.5908 2.5918c.4405.43852.4405 1.14652 0 1.58402-.4365.43848-1.1455.43848-1.5849 0l-2.5909-2.58982c-.4384-.4375-.4375-1.1485 0-1.586.4395-.4375 1.1475-.4375 1.585 0zm-7.8022-18.3496c0 .6187-.3872 1.1206-1.0059 1.1206-.6187-.0009-1.0054-.5019-1.0054-1.1206v-3.6645c0-.6196.3867-1.1216 1.0054-1.1216s1.0059.502 1.0059 1.1216zm-12.13286 12.1328h-3.66455c-.61914 0-1.12109-.3877-1.12109-1.0048 0-.6216.50195-1.0059 1.12109-1.0059h3.66455c.62012 0 1.1211.3843 1.1211 1.0059 0 .6171-.50098 1.0048-1.1211 1.0048zm10.12156 10.29497c0-.62012.3867-1.12305 1.0054-1.1211.6187 0 1.0059.50098 1.0059 1.1211v3.66504c0 .61718-.3872 1.12109-1.0059 1.12109-.6196 0-1.0054-.50391-1.0054-1.12109zm12.3067-12.30567h3.6631c.621 0 1.123.3843 1.123 1.0059 0 .6171-.502 1.0048-1.123 1.0048h-3.6631c-.6201 0-1.1221-.3877-1.1221-1.0048 0-.6216.501-1.0059 1.1221-1.0059z" fill="#ffc600"/></svg>
