<svg xmlns="http://www.w3.org/2000/svg" viewBox="0 0 40 40"><linearGradient id="wolke-dunkel" gradientTransform="matrix(27.28 0 0 16.564 23010.72 -848.0467)" gradientUnits="userSpaceOnUse" x1="-842.64111" x2="-842.64111" y1="52.20438" y2="51.19621"><stop offset="0" stop-color="#888"/><stop offset="1" stop-color="#bebebe"/></linearGradient><linearGradient id="wolke-dunkel-2" gradientUnits="userSpaceOnUse" x1="19.5923" y1="39.7422" x2="19.5923" y2="38.7422" gradientTransform="matrix(38 0 0 23.047 -725.5 -887.2656)"><stop offset="0" style="stop-color:#888"/><stop offset="1" style="stop-color:#bebebe"/></linearGradient><path d="m19.064 0c.9204 2.022 1.44478 4.2598 1.44478 6.624 0 7.624-5.33788 13.9971-12.49901 15.6651 2.37401 2.3125 5.62111 3.7402 9.20701 3.7402 7.2734 0 13.16992-5.8594 13.16992-13.0864 0-6.6031-4.9277-12.0489-11.3227-12.9429z" fill="#ffe958"/><path d="m31.4297 14.1978c-.62602 0-1.2236.1015-1.7881.2836-1.5234-1.9389-3.8809-3.1894-6.5332-3.1894-2.5244 0-4.7847 1.1333-6.3086 2.9155-.0708-.0019-.13822-.0097-.20952-.0097-3.79488 0-6.87007 2.9223-6.87007 6.5288 0 3.6074 3.07519 6.5312 6.87007 6.5312.82522 0 1.61332-.1465 2.3462-.3994 1.2276.7168 2.64852 1.1328 4.17192 1.1328 2.3906 0 4.54098-1.0185 6.0605-2.6396.6944.2978 1.4581.4619 2.2618.4619 3.20018 0 5.78998-2.5996 5.78998-5.8067-.00188-3.2109-2.5918-5.809-5.79098-5.809z" fill="url(#wolke-dunkel)"/><path d="m30 20.9521c-.8633 0-1.69142.1407-2.47072.3936-2.10548-2.6777-5.36328-4.4019-9.02928-4.4019-3.4893 0-6.6089 1.564-8.71777 4.022-.09717-.0019-.19141-.0137-.28809-.0137-5.24414 0-9.49414 4.0362-9.49414 9.0127 0 4.97856 4.25 9.01372 9.49414 9.01372 1.13964 0 2.22804-.20118 3.24074-.55176 1.6972.98926 3.66212 1.56445 5.76512 1.56445 3.30658 0 6.2754-1.40527 8.374-3.6416.96.40723 2.0166.63476 3.126.63476 4.4189 0 8-3.58984 8-8.01757 0-4.4268-3.5811-8.0147-8-8.0147z" fill="url(#wolke-dunkel-2)"/><path d="m19.064 0c.9204 2.022 1.44478 4.2598 1.44478 6.624 0 7.624-5.33788 13.9971-12.49901 15.6651 2.37401 2.3125 5.62111 3.7402 9.20701 3.7402 7.2734 0 13.16992-5.8594 13.16992-13.0864 0-6.6031-4.9277-12.0489-11.3227-12.9429z" fill="#ffe958" opacity=".4"/><path d="m23.248 30.0625-2.5156 1.45508 2.5156 1.45508c.44928.25976.60158.83593.34378 1.28613-.25978.45019-.83398.60449-1.2852.34473l-2.51358-1.45508v2.91015c0 .52051-.42192.94043-.94.94043-.52 0-.93992-.4209-.93992-.94043v-2.91015l-2.5142 1.45508c-.44968.26269-1.02488.10546-1.2837-.34473-.25918-.4502-.1064-1.02637.34382-1.28613l2.5141-1.45508-2.5141-1.45508c-.4522-.2578-.605-.8359-.34382-1.2852.25882-.4502.83402-.6044 1.2837-.3457l2.5142 1.4541v-2.9072c-.00198-.5215.41992-.9433.93992-.9424.51808 0 .94.4209.94.9424v2.9072l2.51358-1.4541c.45122-.2607 1.02542-.1045 1.2852.3438.2598.4512.1055 1.0273-.34378 1.2871z" fill="#d3e6eb"/><path d="m10.72408 30.05371-2.00289.42676 1.37109 1.52539c.24612.27344.2231.69336-.0488.93945-.27297.2461-.69241.22461-.93703-.04883l-1.3711-1.52636-.6333 1.95215c-.11279.35058-.48682.54101-.83594.42773-.34765-.11426-.53906-.48828-.42382-.83789l.63279-1.95313-2.00487.42579c-.35888.0791-.70996-.1504-.78808-.50977-.07471-.36133.1543-.71289.51123-.78906l2.00488-.42674-1.37109-1.5264c-.24512-.2715-.22412-.6933.04931-.9375.27198-.2441.69092-.2226.93602.0488l1.3716 1.5254.6333-1.9511c.1128-.3516.48682-.5411.83496-.4278.3501.1133.54102.4873.42579.8379l-.63282 1.9531 2.00389-.4267c.35788-.0781.70998.1533.7871.5107.07718.3604-.15092.7129-.51222.78811z" fill="#d3e6eb"/></svg>
