<svg xmlns="http://www.w3.org/2000/svg" viewBox="0 0 40 40"><defs><linearGradient id="wolke-hell" x1="-597.74795" y1="-101.43001" x2="-597.74795" y2="-100.42178" gradientTransform="translate(16330.035 -1652.1352) scale(27.28 -16.564)" gradientUnits="userSpaceOnUse"><stop offset="0" stop-color="#cbcbcb"/><stop offset=".75" stop-color="#d8d8d8"/><stop offset="1" stop-color="#e1e1e1"/></linearGradient><linearGradient id="wolke-hell-2" x1="578" y1="844.99121" x2="578" y2="821.9438" gradientTransform="translate(-559 -805)" gradientUnits="userSpaceOnUse"><stop offset="0" stop-color="#cbcbcb"/><stop offset=".4852" stop-color="#d8d8d8"/><stop offset="1" stop-color="#e1e1e1"/></linearGradient><filter id="flash-shadow"><feDropShadow dx="0" dy="0" flood-color="#000" flood-opacity="0.3" stdDeviation="1"/></filter></defs><path d="M19.064,0c.9204,2.022,1.44478,4.2598,1.44478,6.624,0,7.624-5.33788,13.9971-12.49901,15.6651,2.37401,2.3125,5.62111,3.7402,9.20701,3.7402,7.2734,0,13.16992-5.8594,13.16992-13.0864,0-6.6031-4.9277-12.0489-11.3227-12.9429Z" fill="#ffe958" stroke-width="0"/><path d="M31.4297,14.1978c-.62602,0-1.2236.1015-1.7881.2836-1.5234-1.9389-3.8809-3.1894-6.5322-3.1894-2.5244,0-4.7847,1.1333-6.3086,2.9155-.0708-.0019-.13822-.0097-.20952-.0097-3.79488,0-6.87009,2.9223-6.87009,6.5288,0,3.6074,3.07521,6.5312,6.87009,6.5312.82522,0,1.61382-.1465,2.34672-.3984,1.227.7168,2.64788,1.1328,4.1714,1.1328,2.3906,0,4.541-1.0195,6.0615-2.6397.6934.2979,1.45698.462,2.26068.462,3.20122,0,5.7891-2.5997,5.7891-5.8077-.00188-3.2109-2.5918-5.809-5.79098-5.809Z" fill="url(#wolke-hell)" stroke-width="0"/><path d="M30,20.9521c-.8633,0-1.69142.1407-2.47072.3936-2.10548-2.6777-5.36328-4.4019-9.02928-4.4019-3.4893,0-6.6089,1.564-8.71777,4.022-.09717-.0019-.19141-.0137-.28809-.0137-5.24414,0-9.49414,4.0362-9.49414,9.0127,0,4.97856,4.25,9.01372,9.49414,9.01372,1.13964,0,2.22804-.20118,3.24074-.55176,1.6972.98926,3.66212,1.56445,5.76512,1.56445,3.30658,0,6.2754-1.40527,8.374-3.6416.96.40625,2.0166.63476,3.126.63476,4.4189,0,8-3.58984,8-8.01857,0-4.4258-3.5811-8.0137-8-8.0137Z" fill="url(#wolke-hell-2)" stroke-width="0"/><path d="M19.064,0c.9204,2.022,1.44478,4.2598,1.44478,6.624,0,7.624-5.33788,13.9971-12.49901,15.6651,2.37401,2.3125,5.62111,3.7402,9.20701,3.7402,7.2734,0,13.16992-5.8594,13.16992-13.0864,0-6.6031-4.9277-12.0489-11.3227-12.9429Z" fill="#ffe958" isolation="isolate" opacity=".4" stroke-width="0"/><polygon filter="url(#flash-shadow)" points="23.20208 12 18.02288 20.0156 21.78218 20.0156 10.25388 34.37891 15.1699 23.0234 8.7998 23.0234 14.5 12.001 23.20208 12.001 23.20208 12" fill="#fff57a" stroke-width="0"/></svg>
