<svg xmlns="http://www.w3.org/2000/svg" viewBox="0 0 40 40"><defs><linearGradient id="wolke-dunkel" gradientTransform="matrix(27.28 0 0 16.564 23010.72 -848.0467)" gradientUnits="userSpaceOnUse" x1="-842.64111" x2="-842.64111" y1="52.20438" y2="51.19621"><stop offset="0" stop-color="#888"/><stop offset="1" stop-color="#bebebe"/></linearGradient><linearGradient id="wolke-dunkel-2" gradientUnits="userSpaceOnUse" x1="19.5923" y1="39.7422" x2="19.5923" y2="38.7422" gradientTransform="matrix(38 0 0 23.047 -725.5 -887.2656)"><stop offset="0" style="stop-color:#888"/><stop offset="1" style="stop-color:#bebebe"/></linearGradient><filter id="flash-shadow"><feDropShadow dx="0" dy="0" flood-color="#000" flood-opacity="0.3" stdDeviation="1"/></filter></defs><path d="M19.064,0c.9204,2.022,1.44478,4.2598,1.44478,6.624,0,7.624-5.33788,13.9971-12.49901,15.6651,2.37401,2.3125,5.62111,3.7402,9.20701,3.7402,7.2734,0,13.16992-5.8594,13.16992-13.0864,0-6.6031-4.9277-12.0489-11.3227-12.9429Z" fill="#ffe958" stroke-width="0"/><path d="M31.4297,14.1978c-.62602,0-1.2236.1015-1.7881.2836-1.5234-1.9389-3.8809-3.1894-6.5332-3.1894-2.5244,0-4.7847,1.1333-6.3086,2.9155-.0708-.0019-.13822-.0097-.20952-.0097-3.79488,0-6.87007,2.9223-6.87007,6.5288,0,3.6074,3.07519,6.5312,6.87007,6.5312.82522,0,1.61332-.1465,2.34672-.3994,1.22708.7168,2.648,1.1328,4.1714,1.1328,2.3906,0,4.54098-1.0185,6.0605-2.6396.6944.2978,1.4581.4619,2.2618.4619,3.20018,0,5.78998-2.5996,5.78998-5.8067-.00188-3.2109-2.5918-5.809-5.79098-5.809Z" fill="url(#wolke-dunkel)" stroke-width="0"/><path d="M30,20.9521c-.8633,0-1.69142.1407-2.47072.3936-2.10548-2.6777-5.36328-4.4019-9.02928-4.4019-3.4893,0-6.6089,1.564-8.71777,4.022-.09717-.0019-.19141-.0137-.28809-.0137-5.24414,0-9.49414,4.0362-9.49414,9.0127,0,4.97856,4.25,9.01372,9.49414,9.01372,1.13964,0,2.22804-.20118,3.24074-.55176,1.6972.98926,3.66212,1.56445,5.76512,1.56445,3.30658,0,6.2754-1.40527,8.374-3.6416.96.40723,2.0166.63476,3.126.63476,4.4189,0,8-3.58984,8-8.01757,0-4.4268-3.5811-8.0147-8-8.0147Z" fill="url(#wolke-dunkel-2)" stroke-width="0"/><path d="M19.064,0c.9204,2.022,1.44478,4.2598,1.44478,6.624,0,7.624-5.33788,13.9971-12.49901,15.6651,2.37401,2.3125,5.62111,3.7402,9.20701,3.7402,7.2734,0,13.16992-5.8594,13.16992-13.0864,0-6.6031-4.9277-12.0489-11.3227-12.9429Z" fill="#ffe958" isolation="isolate" opacity=".4" stroke-width="0"/><path d="M31.28418,32.21875c-1.4385,0-2.60448-1.16895-2.60448-2.61135,0-1.4394,1.38478-3.0996,2.60448-4.6963,1.1553,1.6475,2.6045,3.2569,2.6045,4.6963,0,1.4424-1.166,2.61135-2.6045,2.61135ZM18.9487,37.17969c-1.813,0-3.28412-1.47364-3.28412-3.29102,0-1.81836,1.7451-3.90817,3.28412-5.92287,1.45558,2.07815,3.28178,4.10451,3.28178,5.92287,0,1.81738-1.46878,3.29102-3.28178,3.29102Z" fill="#9cdeff" stroke-width="0"/><polygon filter="url(#flash-shadow)" points="23.20208 12 18.02288 20.0156 21.78218 20.0156 10.25388 34.37891 15.1699 23.0234 8.7998 23.0234 14.5 12.001 23.20208 12.001 23.20208 12" fill="#fff57a" stroke-width="0"/></svg>
