<svg xmlns="http://www.w3.org/2000/svg" viewBox="0 0 40 40"><defs><linearGradient id="wolke-hell" x1="-597.74795" y1="-33.56621" x2="-597.74795" y2="-32.55798" gradientTransform="translate(16330.035 -528.0392) scale(27.28 -16.564)" gradientUnits="userSpaceOnUse"><stop offset="0" stop-color="#cbcbcb"/><stop offset=".75" stop-color="#d8d8d8"/><stop offset="1" stop-color="#e1e1e1"/></linearGradient><linearGradient id="wolke-hell-2" x1="578" y1="844.99121" x2="578" y2="821.9438" gradientTransform="translate(-559 -805)" gradientUnits="userSpaceOnUse"><stop offset="0" stop-color="#cbcbcb"/><stop offset=".4852" stop-color="#d8d8d8"/><stop offset="1" stop-color="#e1e1e1"/></linearGradient><filter id="flash-shadow"><feDropShadow dx="0" dy="0" flood-color="#000" flood-opacity="0.3" stdDeviation="1"/></filter></defs><path d="M27.72068,8.8623c-.4375.438-1.14748.438-1.58498,0-.4375-.4385-.43842-1.1475,0-1.5859l2.59088-2.5904c.43942-.4384,1.14942-.4384,1.5849,0,.43952.438.44052,1.147,0,1.5855l-2.5908,2.5908ZM18.999,24.0508c-4.438,0-8.0498-3.6133-8.0498-8.0508,0-4.4385,3.6118-8.0503,8.0498-8.0503,4.43848,0,8.0498,3.6118,8.0498,8.0503,0,4.4375-3.61132,8.0508-8.0498,8.0508ZM10.2769,8.8623l-2.59184-2.5908c-.43848-.4385-.43848-1.1475,0-1.5855.43848-.4384,1.14795-.4384,1.58642,0l2.59132,2.5904c.4375.4384.4375,1.1474,0,1.5859-.438.438-1.1484.438-1.5859,0ZM10.27778,23.1377c.4375-.4395,1.14852-.4375,1.58602,0s.4375,1.1465,0,1.584l-2.59134,2.5928c-.4375.4384-1.14795.4384-1.58545,0-.43847-.4375-.43847-1.1465,0-1.587l2.59077-2.5898ZM27.72068,23.1357l2.5908,2.5918c.44052.4385.44052,1.1465,0,1.584-.43648.4385-1.14548.4385-1.5849,0l-2.59088-2.5898c-.43842-.4375-.4375-1.1485,0-1.586.4395-.4375,1.14748-.4375,1.58498,0ZM19.91848,4.7861c0,.6187-.38718,1.1206-1.0059,1.1206-.61868-.0009-1.0054-.5019-1.0054-1.1206V1.1216c0-.6196.38672-1.1216,1.0054-1.1216.61872,0,1.0059.502,1.0059,1.1216v3.6645ZM7.78564,16.9194h-3.66455c-.61914,0-1.12109-.3877-1.12109-1.0053,0-.6216.50195-1.0059,1.12109-1.0059h3.66455c.62012,0,1.1211.3843,1.1211,1.0059,0,.6176-.50098,1.0053-1.1211,1.0053ZM17.90718,27.2139c0-.6202.38672-1.1231,1.0054-1.1211.61872,0,1.0059.5009,1.0059,1.1211v3.66501c0,.61718-.38718,1.12109-1.0059,1.12109-.61958,0-1.0054-.50391-1.0054-1.12109v-3.66501ZM30.2139,14.9082h3.6631c.621,0,1.123.3843,1.123,1.0059,0,.6176-.502,1.0053-1.123,1.0053h-3.6631c-.6201,0-1.12212-.3877-1.12212-1.0053,0-.6216.501-1.0059,1.12212-1.0059Z" fill="#ffc600" stroke-width="0"/><path d="M31.4297,14.1978c-.62602,0-1.2236.1015-1.7881.2836-1.5234-1.9389-3.8809-3.1894-6.5322-3.1894-2.5244,0-4.7847,1.1333-6.3086,2.9155-.0708-.0019-.13822-.0097-.20952-.0097-3.79488,0-6.87009,2.9223-6.87009,6.5288,0,3.6074,3.07521,6.5312,6.87009,6.5312.82522,0,1.61382-.1465,2.34672-.3984,1.227.7168,2.64788,1.1328,4.1714,1.1328,2.3906,0,4.541-1.0195,6.0615-2.6397.6934.2979,1.45698.462,2.26068.462,3.20122,0,5.7891-2.5997,5.7891-5.8077-.00188-3.2109-2.5918-5.809-5.79098-5.809Z" fill="url(#wolke-hell)" stroke-width="0"/><path d="M30,20.9521c-.8633,0-1.69142.1407-2.47072.3936-2.10548-2.6777-5.36328-4.4019-9.02928-4.4019-3.4893,0-6.6089,1.564-8.71777,4.022-.09717-.0019-.19141-.0137-.28809-.0137-5.24414,0-9.49414,4.0362-9.49414,9.0127,0,4.97856,4.25,9.01372,9.49414,9.01372,1.13964,0,2.22804-.20118,3.24074-.55176,1.6972.98926,3.66212,1.56445,5.76512,1.56445,3.30658,0,6.2754-1.40527,8.374-3.6416.96.40625,2.0166.63476,3.126.63476,4.4189,0,8-3.58984,8-8.01857,0-4.4258-3.5811-8.0137-8-8.0137Z" fill="url(#wolke-hell-2)" stroke-width="0"/><path d="M27.72068,8.8623c-.4375.438-1.14748.438-1.58498,0-.4375-.4385-.43842-1.1475,0-1.5859l2.59088-2.5904c.43942-.4384,1.14942-.4384,1.5849,0,.43952.438.44052,1.147,0,1.5855l-2.5908,2.5908ZM18.999,24.0508c-4.438,0-8.0498-3.6133-8.0498-8.0508,0-4.4385,3.6118-8.0503,8.0498-8.0503,4.43848,0,8.0498,3.6118,8.0498,8.0503,0,4.4375-3.61132,8.0508-8.0498,8.0508ZM10.2769,8.8623l-2.59184-2.5908c-.43848-.4385-.43848-1.1475,0-1.5855.43848-.4384,1.14795-.4384,1.58642,0l2.59132,2.5904c.4375.4384.4375,1.1474,0,1.5859-.438.438-1.1484.438-1.5859,0ZM10.27778,23.1377c.4375-.4395,1.14852-.4375,1.58602,0s.4375,1.1465,0,1.584l-2.59134,2.5928c-.4375.4384-1.14795.4384-1.58545,0-.43847-.4375-.43847-1.1465,0-1.587l2.59077-2.5898ZM27.72068,23.1357l2.5908,2.5918c.44052.4385.44052,1.1465,0,1.584-.43648.4385-1.14548.4385-1.5849,0l-2.59088-2.5898c-.43842-.4375-.4375-1.1485,0-1.586.4395-.4375,1.14748-.4375,1.58498,0ZM19.91848,4.7861c0,.6187-.38718,1.1206-1.0059,1.1206-.61868-.0009-1.0054-.5019-1.0054-1.1206V1.1216c0-.6196.38672-1.1216,1.0054-1.1216.61872,0,1.0059.502,1.0059,1.1216v3.6645ZM7.78564,16.9194h-3.66455c-.61914,0-1.12109-.3877-1.12109-1.0053,0-.6216.50195-1.0059,1.12109-1.0059h3.66455c.62012,0,1.1211.3843,1.1211,1.0059,0,.6176-.50098,1.0053-1.1211,1.0053ZM17.90718,27.2139c0-.6202.38672-1.1231,1.0054-1.1211.61872,0,1.0059.5009,1.0059,1.1211v3.66501c0,.61718-.38718,1.12109-1.0059,1.12109-.61958,0-1.0054-.50391-1.0054-1.12109v-3.66501ZM30.2139,14.9082h3.6631c.621,0,1.123.3843,1.123,1.0059,0,.6176-.502,1.0053-1.123,1.0053h-3.6631c-.6201,0-1.12212-.3877-1.12212-1.0053,0-.6216.501-1.0059,1.12212-1.0059Z" fill="#ffc600" isolation="isolate" opacity=".2" stroke-width="0"/><polygon filter="url(#flash-shadow)" points="23.20208 12 18.02288 20.0156 21.78218 20.0156 10.25388 34.37891 15.1699 23.0234 8.7998 23.0234 14.5 12.001 23.20208 12.001 23.20208 12" fill="#fff57a" stroke-width="0"/></svg>
