<svg xmlns="http://www.w3.org/2000/svg" viewBox="0 0 40 40"><linearGradient id="a" gradientTransform="matrix(1 0 0 -1 0 -73.258)" gradientUnits="userSpaceOnUse" x1="21" x2="21" y1="-88.271" y2="-93.529"><stop offset="0" stop-color="#cbcbcb"/><stop offset=".175" stop-color="#d8d8d8"/><stop offset="1" stop-color="#ebebeb"/></linearGradient><linearGradient id="b" gradientTransform="matrix(1 0 0 -1 0 -73.258)" gradientUnits="userSpaceOnUse" x1="19" x2="19" y1="-83.271" y2="-88.529"><stop offset="0" stop-color="#cbcbcb"/><stop offset=".175" stop-color="#d8d8d8"/><stop offset="1" stop-color="#ebebeb"/></linearGradient><linearGradient id="c" gradientTransform="matrix(1 0 0 -1 0 -73.258)" gradientUnits="userSpaceOnUse" x1="17" x2="17" y1="-78.271" y2="-83.529"><stop offset="0" stop-color="#cbcbcb"/><stop offset=".175" stop-color="#d8d8d8"/><stop offset="1" stop-color="#ebebeb"/></linearGradient><linearGradient id="d" gradientTransform="matrix(1 0 0 -1 0 -73.258)" gradientUnits="userSpaceOnUse" x1="15" x2="15" y1="-73.271" y2="-78.529"><stop offset="0" stop-color="#cbcbcb"/><stop offset=".175" stop-color="#d8d8d8"/><stop offset="1" stop-color="#ebebeb"/></linearGradient><path d="M19.064 13.97a15.937 15.937 0 011.445 6.625c0 7.624-5.338 13.997-12.5 15.665A13.151 13.151 0 0017.218 40c7.273 0 13.17-5.86 13.17-13.086 0-6.604-4.928-12.049-11.323-12.943z" fill="#ffe958"/><path d="M32.358 20.259c-2.36 0-16.43-1.52-26.358-2.627v-1.257c9.473.808 22.77 1.884 26.358 1.884A3.262 3.262 0 0035.616 15c1.142 2.88-.355 5.259-3.258 5.259z" fill="url(#a)"/><path d="M30.358 15.259c-2.36 0-16.43-1.52-26.358-2.627v-1.257c9.473.808 22.77 1.884 26.358 1.884A3.262 3.262 0 0033.616 10c1.142 2.88-.355 5.259-3.258 5.259z" fill="url(#b)"/><path d="M28.358 10.259c-2.36 0-16.43-1.52-26.358-2.627V6.375c9.473.808 22.77 1.884 26.358 1.884A3.262 3.262 0 0031.616 5c1.142 2.88-.355 5.259-3.258 5.259z" fill="url(#c)"/><path d="M26.358 5.259c-2.36 0-16.43-1.52-26.358-2.627V1.375c9.473.808 22.77 1.884 26.358 1.884A3.262 3.262 0 0029.616 0c1.142 2.88-.355 5.259-3.258 5.259z" fill="url(#d)"/><path d="M19.064 13.97a15.937 15.937 0 011.445 6.625c0 7.624-5.338 13.997-12.5 15.665A13.151 13.151 0 0017.218 40c7.273 0 13.17-5.86 13.17-13.086 0-6.604-4.928-12.049-11.323-12.943z" fill="#ffe958" opacity=".4"/></svg>
