<svg xmlns="http://www.w3.org/2000/svg" viewBox="0 0 40 40"><linearGradient id="a" gradientUnits="userSpaceOnUse" x1="18.9995" x2="18.9995" y1="40.00001" y2="23"><stop offset="0" stop-color="#cbcbcb"/><stop offset=".4852" stop-color="#d8d8d8"/><stop offset="1" stop-color="#e1e1e1"/></linearGradient><path d="m19.064 7c.9204 2.022 1.4448 4.2598 1.4448 6.624 0 7.624-5.3379 13.9971-12.49903 15.6651 2.37403 2.31246 5.62113 3.7402 9.20703 3.7402 7.2734 0 13.1699-5.8594 13.1699-13.0859 0-6.6036-4.9277-12.0494-11.3227-12.9434z" fill="#ffe958"/><path d="m.99902 25c-.61719.002-1-.3965-.99902-1.0117 0-.6153.38281-.9873.99902-.9883h35.99998c.6162 0 1 .373 1 .9883 0 .6162-.3838 1.0117-1 1.0117zm0 3c-.61719.002-1-.3965-.99902-1.0117 0-.6153.38281-.9873.99902-.9883h35.99998c.6162 0 1 .373 1 .9883 0 .6162-.3838 1.0117-1 1.0117zm0 3c-.61719.00195-1-.39648-.99902-1.0117 0-.6153.38281-.9873.99902-.9883h35.99998c.6162 0 1 .373 1 .9883 0 .61619-.3838 1.0117-1 1.0117zm0 3c-.61719.00195-1-.39648-.99902-1.01172 0-.61523.38281-.9873.99902-.98828h35.99998c.6162 0 1 .37305 1 .98828 0 .61621-.3838 1.01172-1 1.01172zm0 3c-.61719.00195-1-.39648-.99902-1.01172 0-.61523.38281-.9873.99902-.98828h35.99998c.6162 0 1 .37305 1 .98828 0 .61621-.3838 1.01172-1 1.01172zm0 3c-.61719.00195-1-.39648-.99902-1.01172 0-.61523.38281-.9873.99902-.98828h35.99998c.6162 0 1 .37305 1 .98828 0 .61621-.3838 1.01172-1 1.01172z" fill="url(#a)" fill-rule="evenodd"/><path d="m19.064 7c.9204 2.022 1.4448 4.2598 1.4448 6.624 0 7.624-5.3379 13.9971-12.49903 15.6651 2.37403 2.31246 5.62113 3.7402 9.20703 3.7402 7.2734 0 13.1699-5.8594 13.1699-13.0859 0-6.6036-4.9277-12.0494-11.3227-12.9434z" fill="#ffe958" opacity=".4"/></svg>
