<svg xmlns="http://www.w3.org/2000/svg" viewBox="0 0 40 40"><defs><linearGradient id="wolke-hell" gradientTransform="matrix(27.28 0 0 -16.564 43135.635 -1652.1352)" gradientUnits="userSpaceOnUse" x1="-1580.35792" x2="-1580.35792" y1="-101.43001" y2="-100.42178"><stop offset="0" stop-color="#cbcbcb"/><stop offset=".75" stop-color="#d8d8d8"/><stop offset="1" stop-color="#e1e1e1"/></linearGradient><linearGradient id="wolke-hell-2" gradientUnits="userSpaceOnUse" x1="19" x2="19" y1="39.99121" y2="16.9438"><stop offset="0" stop-color="#cbcbcb"/><stop offset=".4852" stop-color="#d8d8d8"/><stop offset="1" stop-color="#e1e1e1"/></linearGradient><filter id="flash-shadow"><feDropShadow dx="0" dy="0" flood-color="#000" flood-opacity="0.3" stdDeviation="1"/></filter></defs><path d="M19.064,0c.9204,2.022,1.4448,4.2598,1.4448,6.624,0,7.624-5.3379,13.9971-12.49903,15.6651,2.37403,2.3125,5.62113,3.7402,9.20703,3.7402,7.2734,0,13.1699-5.8594,13.1699-13.0864,0-6.6031-4.9277-12.0489-11.3227-12.9429Z" fill="#ffe958" stroke-width="0"/><path d="M31.4297,14.19794c-.6072.00036-1.21058.09606-1.7881.2836-2.81342-3.60751-8.01861-4.25126-11.62612-1.43784-.44335.34575-.85034.73575-1.21468,1.16394-.0708-.0019-.1382-.0097-.2095-.0097-3.69926-.09232-6.77397,2.82963-6.87011,6.5288.09559,3.69978,3.17023,6.62274,6.87011,6.5312.79891-.00181,1.59196-.13645,2.3467-.3984,3.34276,1.95713,7.59623,1.33076,10.2329-1.5069.71428.30623,1.48355.46344,2.2607.462,3.20786-.01084,5.79956-2.6201,5.78873-5.82796-.01079-3.19329-2.59734-5.77899-5.79063-5.78874Z" fill="url(#wolke-hell)" stroke-width="0"/><path d="M30,20.95224c-.83914.00052-1.67294.13335-2.4707.3936-3.89824-4.98641-11.10068-5.86855-16.08709-1.9703-.60524.47316-1.16136,1.00597-1.65998,1.5904-.09717-.0019-.19141-.0137-.28809-.0137-5.10912-.1293-9.35763,3.90377-9.49414,9.0127.13569,5.10946,4.38452,9.1433,9.49414,9.01372,1.10348-.00174,2.19888-.18823,3.24076-.55176,4.61838,2.70177,10.49291,1.83875,14.1391-2.07715,4.07816,1.71905,8.77772-.19338,10.49677-4.27153,1.71905-4.07816-.19338-8.77772-4.27153-10.49677-.98103-.41353-2.03462-.62743-3.09924-.62921Z" fill="url(#wolke-hell-2)" stroke-width="0"/><path d="M19.064,0c.9204,2.022,1.4448,4.2598,1.4448,6.624,0,7.624-5.3379,13.9971-12.49903,15.6651,2.37403,2.3125,5.62113,3.7402,9.20703,3.7402,7.2734,0,13.1699-5.8594,13.1699-13.0864,0-6.6031-4.9277-12.0489-11.3227-12.9429Z" fill="#ffe958" isolation="isolate" opacity=".4" stroke-width="0"/><path d="M22.2305,33.88881c.01001,1.81312-1.45171,3.29106-3.26483,3.30107-1.81312.01001-3.29106-1.45171-3.30107-3.26483-.00007-.01208-.00007-.02416,0-.03624,0-1.81836,1.7451-3.90817,3.2841-5.92287,1.4556,2.0782,3.2818,4.10451,3.2818,5.92287Z" fill="#7ac4e9" stroke-width="0"/><polygon filter="url(#flash-shadow)" points="22.94752 12.32865 17.76832 20.34475 21.52762 20.34475 9.99932 34.70755 14.91532 23.35155 8.54522 23.35155 14.24542 12.32965 22.94752 12.32965 22.94752 12.32865" fill="#fff57a" stroke-width="0"/></svg>
