<svg xmlns="http://www.w3.org/2000/svg" viewBox="0 0 40 40"><defs>-<linearGradient id="wolke-dunkel" gradientTransform="matrix(27.28 0 0 16.564 23010.72 -848.0467)" gradientUnits="userSpaceOnUse" x1="-842.64111" x2="-842.64111" y1="52.20438" y2="51.19621"><stop offset="0" stop-color="#888"/><stop offset="1" stop-color="#bebebe"/></linearGradient><linearGradient id="wolke-dunkel-2" gradientUnits="userSpaceOnUse" x1="19.5923" y1="39.7422" x2="19.5923" y2="38.7422" gradientTransform="matrix(38 0 0 23.047 -725.5 -887.2656)"><stop offset="0" style="stop-color:#888"/><stop offset="1" style="stop-color:#bebebe"/></linearGradient><filter id="flash-shadow"><feDropShadow dx="0" dy="0" flood-color="#000" flood-opacity="0.3" stdDeviation="1"/></filter></defs><path d="M32.43,9.20662c-.60719.0005-1.21054.09633-1.788.284-2.81369-3.60737-8.01899-4.25076-11.62636-1.43707-.44334.3458-.85032.73583-1.21464,1.16407-.071-.002-.138-.01-.209-.01-3.69937-.09244-6.77414,2.82972-6.87,6.529.09567,3.69967,3.17022,6.62251,6.87,6.531.79899-.00166,1.59213-.13616,2.347-.398,3.34274,1.95745,7.59647,1.33101,10.233-1.507.71435.30635,1.48374.46356,2.261.462,3.20822-.00083,5.80833-2.60228,5.8075-5.8105-.00083-3.20822-2.60228-5.80833-5.8105-5.8075Z" fill="url(#wolke-dunkel)" stroke-width="0"/><path d="M31,15.96062c-.83925.00068-1.67315.13365-2.471.394-3.8981-4.98641-11.10042-5.86866-16.08683-1.97057-.60531.4732-1.1615,1.00607-1.66017,1.59057-.097-.002-.191-.014-.288-.014-5.1092-.12927-9.3577,3.90398-9.494,9.013.13548,5.10954,4.38431,9.14355,9.494,9.014,1.10359-.00161,2.1991-.18819,3.241-.552,4.61858,2.70134,10.49297,1.83799,14.139-2.078,4.07798,1.71918,8.77751-.19301,10.49669-4.271,1.71917-4.07798-.19302-8.77751-4.271-10.49668-.98116-.41363-2.03491-.62757-3.09969-.62932Z" fill="url(#wolke-dunkel-2)" stroke-width="0"/><path d="M34.7018,23.84023l-2.003.429,1.37,1.535c.24645.27483.22455.69713-.049.945-.26781.24545-.68388.22732-.92933-.04049-.00258-.00282-.00513-.00565-.00767-.00851l-1.37-1.537-.634,1.967c-.11201.34925-.48593.54157-.83518.42956s-.54157-.48593-.42956-.83518c.0009-.0028.00181-.00559.00275-.00838l.634-1.966-2.005.429c-.35576.07768-.70712-.14775-.7848-.50351-.00076-.00349-.0015-.00699-.0022-.01049-.07756-.36049.15086-.71586.511-.795l2.006-.428-1.371-1.537c-.24697-.27427-.22504-.69677.049-.944.27019-.24477.68764-.22417.93242.04601.0012.00132.00239.00265.00358.00399l1.372,1.537.634-1.967c.10762-.34701.47618-.54108.82319-.43345.00361.00112.00721.00227.01081.00345.35006.11416.54129.49048.42714.84054-.00038.00116-.00076.00231-.00114.00346l-.633,1.966,2.004-.431c.36238-.07291.71526.16175.78817.52414.07205.3581-.15632.70783-.51317.78586Z" fill="#d3e6eb" stroke-width="0"/><path d="M24.28588,25.07122l-2.516,1.455,2.516,1.455c.45039.25985.60485.83561.345,1.286-.25985.45039-.83561.60485-1.286.345h0l-2.514-1.455v2.91c-.00049.51915-.42174.9396-.94089.93911-.51846-.00049-.93863-.42066-.93911-.93911v-2.91l-2.514,1.455c-.45039.25957-1.02593.10489-1.2855-.3455-.25957-.45039-.10489-1.02593.3455-1.2855l2.514-1.455-2.514-1.455c-.44949-.26114-.60217-.83722-.34103-1.2867.25986-.44728.83196-.60104,1.28103-.3443l2.514,1.454v-2.907c-.00049-.51915.41997-.9404.93911-.94089.51915-.00049.9404.41997.94089.93911v2.90877l2.514-1.454c.45039-.25985,1.02615-.10539,1.286.345.25985.45039.10539,1.02615-.345,1.286h0Z" fill="#d3e6eb" stroke-width="0"/><polygon filter="url(#flash-shadow)" points="19.94752 9.18464 14.76832 17.20074 18.52762 17.20074 6.99932 31.56354 11.91532 20.20754 5.54522 20.20754 11.24542 9.18564 19.94752 9.18564 19.94752 9.18464" fill="#fff57a" stroke-width="0"/></svg>
