<svg xmlns="http://www.w3.org/2000/svg" viewBox="0 0 40 40"><linearGradient id="a" gradientUnits="userSpaceOnUse" x1="18.9995" x2="18.9995" y1="40.00001" y2="23"><stop offset="0" stop-color="#cbcbcb"/><stop offset=".4852" stop-color="#d8d8d8"/><stop offset="1" stop-color="#e1e1e1"/></linearGradient><path d="m27.7217 12.8623c-.4375.4385-1.1475.4385-1.584 0-.4375-.438-.4375-1.1475 0-1.585l2.5889-2.5913c.4375-.438 1.1474-.438 1.5869 0 .4375.4375.4375 1.147 0 1.5845zm-8.7212 15.1875c-4.4385 0-8.0508-3.6103-8.0508-8.0488 0-4.4395 3.6123-8.0513 8.0508-8.0513 4.437 0 8.0503 3.6118 8.0503 8.0513 0 4.4385-3.6133 8.0488-8.0503 8.0488zm-8.7232-15.1875-2.59273-2.5918c-.43701-.4375-.43701-1.147 0-1.5845.44043-.438 1.14893-.438 1.58789 0l2.59084 2.5913c.4375.4375.4375 1.147 0 1.585-.4375.4385-1.148.4385-1.586 0zm.001 14.2764c.438-.4395 1.1485-.4375 1.586 0s.4375 1.1455 0 1.5849l-2.59086 2.59183c-.43799.4375-1.14746.4375-1.58692 0-.43652-.43652-.43652-1.14941 0-1.58693zm17.4453-.0039 2.5899 2.5937c.4394.43752.4394 1.1465 0 1.58498-.4375.4375-1.1455.4375-1.585 0l-2.5908-2.58988c-.4375-.4375-.4375-1.1474 0-1.5888.4385-.4375 1.1465-.4375 1.5859 0zm-7.8047-18.3492c0 .6202-.3876 1.1216-1.0048 1.1216-.6202-.001-1.0064-.5024-1.0064-1.1216v-3.6635c0-.6197.3862-1.1221 1.0064-1.1221.6172 0 1.0048.5024 1.0048 1.1221zm-12.13277 12.1324h-3.66455c-.61963 0-1.12158-.3858-1.12158-1.0049 0-.6211.50195-1.0049 1.12158-1.0049h3.66455c.62012 0 1.1211.3838 1.1211 1.0049 0 .6191-.50098 1.0049-1.1211 1.0049zm10.12157 10.29587c0-.61817.3862-1.12207 1.0064-1.12012.6172 0 1.0048.50195 1.0048 1.12012v3.66406c0 .61816-.3876 1.12207-1.0048 1.12207-.6211 0-1.0064-.50391-1.0064-1.12207zm12.3062-12.30567h3.666c.6191 0 1.1201.3838 1.1201 1.0049 0 .6191-.501 1.0049-1.1201 1.0049h-3.666c-.6182 0-1.1201-.3858-1.1201-1.0049 0-.6211.5-1.0049 1.1201-1.0049z" fill="#ffc600"/><path d="m.99902 25c-.61719.002-1-.3965-.99902-1.0117 0-.6153.38281-.9873.99902-.9883h35.99998c.6162 0 1 .373 1 .9883 0 .6162-.3838 1.0117-1 1.0117zm0 3c-.61719.002-1-.3965-.99902-1.0117 0-.6153.38281-.9873.99902-.9883h35.99998c.6162 0 1 .373 1 .9883 0 .6162-.3838 1.0117-1 1.0117zm0 3c-.61719.00195-1-.39648-.99902-1.0117 0-.6153.38281-.9873.99902-.9883h35.99998c.6162 0 1 .373 1 .9883 0 .61619-.3838 1.0117-1 1.0117zm0 3c-.61719.00195-1-.39648-.99902-1.01172 0-.61523.38281-.9873.99902-.98828h35.99998c.6162 0 1 .37305 1 .98828 0 .61621-.3838 1.01172-1 1.01172zm0 3c-.61719.00195-1-.39648-.99902-1.01172 0-.61523.38281-.9873.99902-.98828h35.99998c.6162 0 1 .37305 1 .98828 0 .61621-.3838 1.01172-1 1.01172zm0 3c-.61719.00195-1-.39648-.99902-1.01172 0-.61523.38281-.9873.99902-.98828h35.99998c.6162 0 1 .37305 1 .98828 0 .61621-.3838 1.01172-1 1.01172z" fill="url(#a)" fill-rule="evenodd"/><path d="m27.7217 12.8623c-.4385.4385-1.1485.4385-1.585 0-.4365-.438-.4365-1.1475 0-1.585l2.5889-2.5913c.4385-.438 1.1484-.438 1.5869 0 .4385.4375.4385 1.147 0 1.5845zm-8.7212 15.1875c-4.439 0-8.0508-3.6103-8.0508-8.0488 0-4.4395 3.6118-8.0513 8.0508-8.0513 4.437 0 8.0503 3.6118 8.0503 8.0513 0 4.4385-3.6133 8.0488-8.0503 8.0488zm-8.7232-15.1875-2.59273-2.5918c-.4375-.4375-.4375-1.147 0-1.5845.44043-.438 1.14893-.438 1.5874 0l2.59133 2.5913c.4375.4375.4375 1.147 0 1.585-.438.4385-1.1485.4385-1.586 0zm.001 14.2764c.4375-.4395 1.148-.4375 1.586 0 .4375.4375.4375 1.1455 0 1.5849l-2.59135 2.59183c-.4375.4375-1.14697.4375-1.58643 0-.43701-.43652-.43701-1.14941 0-1.58693zm17.4453-.0039 2.5889 2.5937c.4404.43752.4404 1.1465 0 1.58498-.4365.4375-1.1445.4375-1.585 0l-2.5908-2.58988c-.4365-.4375-.4365-1.1474 0-1.5888.4385-.4375 1.1465-.4375 1.5869 0zm-7.8047-18.3492c0 .6202-.3876 1.1216-1.0053 1.1216-.6197-.001-1.0059-.5024-1.0059-1.1216v-3.6635c0-.6197.3862-1.1221 1.0059-1.1221.6177 0 1.0053.5024 1.0053 1.1221zm-12.13326 12.1324h-3.66455c-.61914 0-1.12109-.3858-1.12109-1.0049 0-.6211.50195-1.0049 1.12109-1.0049h3.66455c.62061 0 1.1211.3838 1.1211 1.0049 0 .6191-.50049 1.0049-1.1211 1.0049zm10.12206 10.29587c0-.61817.3862-1.12207 1.0059-1.12012.6177 0 1.0053.50195 1.0053 1.12012v3.66406c0 .61816-.3876 1.12207-1.0053 1.12207-.6206 0-1.0059-.50391-1.0059-1.12207zm12.3052-12.30567h3.666c.6182 0 1.1211.3838 1.1211 1.0049 0 .6191-.5029 1.0049-1.1211 1.0049h-3.666c-.6182 0-1.1191-.3858-1.1191-1.0049 0-.6211.499-1.0049 1.1191-1.0049z" fill="#ffc600" opacity=".2"/></svg>
