<svg xmlns="http://www.w3.org/2000/svg" viewBox="0 0 40 40"><linearGradient id="prefix__a" gradientUnits="userSpaceOnUse" x1="19" x2="19" y1="22" y2="5"><stop offset="0" stop-color="#cbcbcb"/><stop offset=".485" stop-color="#d8d8d8"/><stop offset="1" stop-color="#e1e1e1"/></linearGradient><linearGradient id="prefix__b" gradientUnits="userSpaceOnUse" x1="19" x2="19" y1="40" y2="23"><stop offset="0" stop-color="#cbcbcb"/><stop offset=".485" stop-color="#d8d8d8"/><stop offset="1" stop-color="#e1e1e1"/></linearGradient><path d="M.999 7c-.617.002-1-.397-.999-1.012C0 5.373.383 5 .999 5h36c.616 0 1 .373 1 .988 0 .616-.384 1.012-1 1.012zm0 3c-.617.002-1-.397-.999-1.012C0 8.373.383 8 .999 8h36c.616 0 1 .373 1 .988 0 .617-.384 1.012-1 1.012zm0 3c-.617.002-1-.397-.999-1.012C0 11.373.383 11 .999 11h36c.616 0 1 .373 1 .988 0 .617-.384 1.012-1 1.012zm0 3c-.617.002-1-.397-.999-1.012C0 14.373.383 14 .999 14h36c.616 0 1 .373 1 .988 0 .617-.384 1.012-1 1.012zm0 3c-.617.002-1-.397-.999-1.012 0-.615.383-.987.999-.988h36c.616 0 1 .373 1 .988 0 .616-.384 1.012-1 1.012zm0 3c-.617.002-1-.397-.999-1.012 0-.615.383-.987.999-.988h36c.616 0 1 .373 1 .988 0 .616-.384 1.012-1 1.012z" fill="url(#prefix__a)"/><path d="M.999 25c-.617.002-1-.397-.999-1.012 0-.615.383-.987.999-.988h36c.616 0 1 .373 1 .988 0 .616-.384 1.012-1 1.012zm0 3c-.617.002-1-.397-.999-1.012 0-.615.383-.987.999-.988h36c.616 0 1 .373 1 .988 0 .616-.384 1.012-1 1.012zm0 3c-.617.002-1-.396-.999-1.012 0-.615.383-.987.999-.988h36c.616 0 1 .373 1 .988 0 .616-.384 1.012-1 1.012zm0 3c-.617.002-1-.396-.999-1.012 0-.615.383-.987.999-.988h36c.616 0 1 .373 1 .988 0 .616-.384 1.012-1 1.012zm0 3c-.617.002-1-.396-.999-1.012 0-.615.383-.987.999-.988h36c.616 0 1 .373 1 .988 0 .616-.384 1.012-1 1.012zm0 3c-.617.002-1-.396-.999-1.012 0-.615.383-.987.999-.988h36c.616 0 1 .373 1 .988 0 .616-.384 1.012-1 1.012z" fill="url(#prefix__b)"/></svg>
