<svg xmlns="http://www.w3.org/2000/svg" viewBox="0 0 40 40"><defs><linearGradient id="wolke-dunkel" gradientTransform="matrix(27.28 0 0 16.564 23010.72 -848.0467)" gradientUnits="userSpaceOnUse" x1="-842.64111" x2="-842.64111" y1="52.20438" y2="51.19621"><stop offset="0" stop-color="#888"/><stop offset="1" stop-color="#bebebe"/></linearGradient><linearGradient id="wolke-dunkel-2" gradientUnits="userSpaceOnUse" x1="19.5923" y1="39.7422" x2="19.5923" y2="38.7422" gradientTransform="matrix(38 0 0 23.047 -725.5 -887.2656)"><stop offset="0" style="stop-color:#888"/><stop offset="1" style="stop-color:#bebebe"/></linearGradient><filter id="flash-shadow"><feDropShadow dx="0" dy="0" flood-color="#000" flood-opacity="0.3" stdDeviation="1"/></filter></defs><path d="M27.6387,8.85904c-.43769.43633-1.14622.43524-1.58255-.00245-.43633-.43769-.43523-1.14622.00245-1.58255h0l2.582-2.5898c.43686-.43713,1.14537-.43735,1.5825-.00049.43713.43686.43735,1.14537.00049,1.5825-.00096.00096-.00193.00193-.0029.00289l-2.582,2.5899ZM18.9468,24.04214c-4.44457.01416-8.05908-3.57739-8.07324-8.02196-.01416-4.44457,3.57739-8.05908,8.02196-8.07324,4.44457-.01416,8.05908,3.57739,8.07324,8.02196.00003.00845.00004.01689.00004.02534.00125,4.43514-3.58687,8.03485-8.022,8.0479ZM10.2549,8.85904l-2.58302-2.5899c-.43544-.4388-.43271-1.14752.00609-1.58296.43566-.43232,1.13819-.43318,1.57491-.00194l2.58212,2.5898c.43769.43633.43878,1.14486.00245,1.58255s-1.14486.43878-1.58255.00245ZM10.2559,23.12904c.43741-.4363,1.14569-.43541,1.582.002.43631.43741.43541,1.14569-.002,1.582h0l-2.582,2.5918c-.43866.43587-1.14761.43361-1.58349-.00505-.43524-.43802-.43371-1.14571.00341-1.58185l2.58208-2.5889ZM27.6387,23.12714l2.582,2.5908c.43694.4368.43706,1.14511.00026,1.58205-.43614.43629-1.14315.43716-1.58036.00195l-2.582-2.5889c-.43793-.43633-.43923-1.14507-.0029-1.583s1.14507-.43923,1.583-.0029h0ZM19.8633,4.78434c.06191.5535-.3366,1.05239-.8901,1.1143-.5535.06191-1.05239-.3366-1.1143-.8901-.00833-.0745-.00833-.1497,0-.2242V1.12124c-.06221-.5535.33606-1.05263.88956-1.11484.5535-.06221,1.05263.33606,1.11484.88956.00841.07486.00841.15042,0,.22528v3.6631ZM7.772,16.91324h-3.65188c-.55513.05879-1.05281-.34358-1.11159-.89871-.05879-.55513.34358-1.05281.89871-1.11159.07076-.00749.14212-.00749.21288,0h3.65188c.55513-.05879,1.0528.34358,1.11159.89871.05879.55513-.34358,1.0528-.89871,1.11159-.07076.00749-.14212.00749-.21288,0ZM17.8589,27.20424c-.06221-.5535.33606-1.05263.88956-1.11484.5535-.06221,1.05263.33606,1.11484.88956.00841.07486.00841.15042,0,.22528v3.66309c.06216.5535-.33615,1.05259-.88965,1.11475-.5535.06216-1.05259-.33615-1.11475-.88965-.0084-.0748-.0084-.1503,0-.2251v-3.66309ZM30.123,14.90294h3.6504c.55513-.05998,1.05377.34142,1.11375.89655.05998.55513-.34142,1.05377-.89655,1.11375-.07219.0078-.14502.0078-.21721,0h-3.6504c-.55513.05926-1.05319-.34273-1.11244-.89786-.05926-.55513.34273-1.05319.89786-1.11244.07133-.00761.14326-.00761.21459,0Z" fill="#ffc600" stroke-width="0"/><path d="M31.4297,14.19794c-.6072.00036-1.21058.09606-1.7881.2836-2.81399-3.6078-8.01988-4.2513-11.62768-1.43731-.44312.34562-.84992.73543-1.21412,1.16341-.0708-.0019-.1382-.0097-.2095-.0097-3.69926-.09232-6.77396,2.82964-6.87009,6.5288.09559,3.69977,3.17021,6.62274,6.87009,6.5312.79884-.00165,1.59181-.13664,2.3462-.3994,3.34257,1.95711,7.59588,1.33078,10.2324-1.5068.71472.30606,1.48431.46322,2.2618.4619,3.20759-.01081,5.79909-2.61983,5.78828-5.82741-.01075-3.19271-2.59658-5.77808-5.78928-5.78829Z" fill="url(#wolke-dunkel)" stroke-width="0"/><path d="M30,20.95224c-.83914.00052-1.67294.13335-2.4707.3936-3.89824-4.98641-11.10068-5.86855-16.08709-1.9703-.60524.47316-1.16136,1.00597-1.65998,1.5904-.09717-.0019-.19141-.0137-.28809-.0137-5.10912-.1293-9.35763,3.90377-9.49414,9.0127.13569,5.10946,4.38452,9.1433,9.49414,9.01372,1.10348-.00174,2.19888-.18823,3.24076-.55176,4.61838,2.70177,10.49291,1.83875,14.1391-2.07715,4.07816,1.71905,8.77772-.19338,10.49677-4.27153,1.71905-4.07816-.19338-8.77772-4.27153-10.49677-.98103-.41353-2.03462-.62743-3.09924-.62921Z" fill="url(#wolke-dunkel-2" stroke-width="0"/><path d="M27.6387,8.85904c-.43769.43633-1.14622.43524-1.58255-.00245-.43633-.43769-.43523-1.14622.00245-1.58255h0l2.582-2.5898c.43686-.43713,1.14537-.43735,1.5825-.00049.43713.43686.43735,1.14537.00049,1.5825-.00096.00096-.00193.00193-.0029.00289l-2.582,2.5899ZM18.9468,24.04214c-4.44457.01416-8.05908-3.57739-8.07324-8.02196-.01416-4.44457,3.57739-8.05908,8.02196-8.07324,4.44457-.01416,8.05908,3.57739,8.07324,8.02196.00003.00845.00004.01689.00004.02534.00125,4.43514-3.58687,8.03485-8.022,8.0479ZM10.2549,8.85904l-2.58302-2.5899c-.43544-.4388-.43271-1.14752.00609-1.58296.43566-.43232,1.13819-.43318,1.57491-.00194l2.58212,2.5898c.43769.43633.43878,1.14486.00245,1.58255s-1.14486.43878-1.58255.00245ZM10.2559,23.12904c.43741-.4363,1.14569-.43541,1.582.002.43631.43741.43541,1.14569-.002,1.582h0l-2.582,2.5918c-.43866.43587-1.14761.43361-1.58349-.00505-.43524-.43802-.43371-1.14571.00341-1.58185l2.58208-2.5889ZM27.6387,23.12714l2.582,2.5908c.43694.4368.43706,1.14511.00026,1.58205-.43614.43629-1.14315.43716-1.58036.00195l-2.582-2.5889c-.43793-.43633-.43923-1.14507-.0029-1.583s1.14507-.43923,1.583-.0029h0ZM19.8633,4.78434c.06191.5535-.3366,1.05239-.8901,1.1143-.5535.06191-1.05239-.3366-1.1143-.8901-.00833-.0745-.00833-.1497,0-.2242V1.12124c-.06221-.5535.33606-1.05263.88956-1.11484.5535-.06221,1.05263.33606,1.11484.88956.00841.07486.00841.15042,0,.22528v3.6631ZM7.772,16.91324h-3.65188c-.55513.05879-1.05281-.34358-1.11159-.89871-.05879-.55513.34358-1.05281.89871-1.11159.07076-.00749.14212-.00749.21288,0h3.65188c.55513-.05879,1.0528.34358,1.11159.89871.05879.55513-.34358,1.0528-.89871,1.11159-.07076.00749-.14212.00749-.21288,0ZM30.123,14.90294h3.6504c.55513-.05998,1.05377.34142,1.11375.89655.05998.55513-.34142,1.05377-.89655,1.11375-.07219.0078-.14502.0078-.21721,0h-3.6504c-.55513.05926-1.05319-.34273-1.11244-.89786-.05926-.55513.34273-1.05319.89786-1.11244.07133-.00761.14326-.00761.21459,0Z" fill="#ffc600" isolation="isolate" opacity=".2" stroke-width="0"/><path d="M7.55149,33.10995c-1.42179.00752-2.58048-1.13898-2.588-2.56077v-.00023c0-1.416,1.375-3.041,2.588-4.607,1.147,1.615,2.587,3.193,2.587,4.607-.00727,1.42154-1.16546,2.56809-2.587,2.561ZM31.25149,32.20795c-1.44006-.00199-2.60587-1.17094-2.604-2.611,0-1.439,1.385-3.1,2.604-4.696,1.155,1.647,2.604,3.257,2.604,4.696.00258,1.43943-1.16222,2.60842-2.60165,2.611-.00078,0-.00156,0-.00235,0ZM18.91549,37.16895c-1.81545-.00238-3.28548-1.47555-3.284-3.291,0-1.818,1.745-3.908,3.284-5.923,1.456,2.078,3.282,4.104,3.282,5.923.00276,1.8148-1.46619,3.28823-3.28099,3.291h-.00101Z" fill="#9cdeff" stroke-width="0"/><polygon filter="url(#flash-shadow)" points="22.94752 13.32865 17.76832 21.34475 21.52762 21.34475 9.99932 35.70755 14.91532 24.35155 8.54522 24.35155 14.24542 13.32965 22.94752 13.32965 22.94752 13.32865" fill="#fff57a" stroke-width="0"/></svg>
