<?xml version="1.0" encoding="iso-8859-1"?>
<!-- Generator: Adobe Illustrator 19.0.0, SVG Export Plug-In . SVG Version: 6.00 Build 0)  -->
<svg version="1.1" id="Capa_1" xmlns="http://www.w3.org/2000/svg" xmlns:xlink="http://www.w3.org/1999/xlink" x="0px" y="0px"
	 viewBox="0 0 512 512" style="enable-background:new 0 0 512 512;" xml:space="preserve">
<path style="fill:#FFB123;" d="M313.588,168.894H198.412c-3.022,0-5.473,2.45-5.473,5.473v28.722H319.06v-28.722
	C319.06,171.344,316.61,168.894,313.588,168.894z"/>
<path style="fill:#EA9518;" d="M313.588,168.894h-41.217v34.195h46.689v-28.722C319.06,171.344,316.61,168.894,313.588,168.894z"/>
<path style="fill:#D0D1D2;" d="M309.634,22.351H202.366c-2.809,0-5.087,2.277-5.087,5.087v14.316c0,2.809,2.277,5.087,5.087,5.087
	h107.268c2.809,0,5.087-2.277,5.087-5.087V27.437C314.721,24.628,312.443,22.351,309.634,22.351z"/>
<path style="fill:#BAC1C6;" d="M309.634,22.351h-41.847v24.49h41.847c2.809,0,5.087-2.277,5.087-5.087V27.437
	C314.721,24.628,312.444,22.351,309.634,22.351z"/>
<g>
	<circle style="fill:#35495D;" cx="82.11" cy="459.25" r="30.404"/>
	<circle style="fill:#35495D;" cx="175.77" cy="459.25" r="30.404"/>
	<circle style="fill:#35495D;" cx="336.23" cy="459.25" r="30.404"/>
	<circle style="fill:#35495D;" cx="429.88" cy="459.25" r="30.404"/>
</g>
<polygon style="fill:#E2EFFA;" points="256,217.582 19.881,217.582 19.881,442.995 256,442.995 492.119,442.995 492.119,217.582 "/>
<rect x="444.85" y="217.58" style="fill:#CADDEA;" width="47.27" height="225.41"/>
<polygon style="fill:#F9644B;" points="19.881,335.453 19.881,442.995 256,442.995 492.119,442.995 492.119,335.453 "/>
<rect x="444.85" y="335.45" style="fill:#F94730;" width="47.27" height="107.54"/>
<path style="fill:#D0D1D2;" d="M256,193.556H34.19c-14.717,0-26.647,11.93-26.647,26.647l0,0c0,3.232,2.62,5.853,5.853,5.853H256
	h242.604c3.232,0,5.853-2.62,5.853-5.853l0,0c0-14.717-11.93-26.647-26.647-26.647H256z"/>
<path style="fill:#BAC1C6;" d="M477.81,193.556h-20.06v32.5h40.854c3.232,0,5.852-2.62,5.852-5.853l0,0
	C504.457,205.487,492.527,193.556,477.81,193.556z"/>
<g>
	<path style="fill:#B5E7FE;" d="M68.141,381.032h-48.26V267.813h48.26c5.519,0,9.993,4.474,9.993,9.993v93.233
		C78.134,376.557,73.66,381.032,68.141,381.032z"/>
	<path style="fill:#B5E7FE;" d="M492.119,381.032h-48.26c-5.519,0-9.993-4.474-9.993-9.993v-93.233c0-5.519,4.474-9.993,9.993-9.993
		h48.26V381.032z"/>
</g>
<g>
	<path style="fill:#E2EFFA;" d="M168.561,267.813h-47.387c-9.327,0-16.888,7.561-16.888,16.888v96.331v52.223h81.164v-52.223
		v-96.331C185.45,275.374,177.888,267.813,168.561,267.813z"/>
	<path style="fill:#E2EFFA;" d="M390.826,267.813h-47.387c-9.327,0-16.888,7.561-16.888,16.888v96.331v52.223h81.164v-52.223
		v-96.331C407.714,275.374,400.153,267.813,390.826,267.813z"/>
</g>
<g>
	<path style="fill:#CADDEA;" d="M390.826,267.813h-29.878v113.219v52.223h46.766v-52.223v-96.331
		C407.714,275.374,400.153,267.813,390.826,267.813z"/>
	<path style="fill:#CADDEA;" d="M168.561,267.813h-29.878v113.219v52.223h46.766v-52.223v-96.331
		C185.45,275.374,177.888,267.813,168.561,267.813z"/>
</g>
<path style="fill:#B5E7FE;" d="M289.891,381.032h-67.782c-3.695,0-6.691-2.996-6.691-6.691v-89.64
	c0-9.327,7.561-16.888,16.888-16.888h47.387c9.327,0,16.888,7.561,16.888,16.888v89.64
	C296.582,378.036,293.586,381.032,289.891,381.032z"/>
<path style="fill:#9AD8ED;" d="M279.694,267.813h-29.878v113.219h40.076c3.695,0,6.691-2.996,6.691-6.691v-89.64
	C296.582,275.374,289.021,267.813,279.694,267.813z"/>
<g>
	<path style="fill:#B5E7FE;" d="M185.45,381.032h-81.164v-96.331c0-9.327,7.561-16.888,16.888-16.888h47.387
		c9.327,0,16.888,7.561,16.888,16.888L185.45,381.032L185.45,381.032z"/>
	<path style="fill:#B5E7FE;" d="M407.714,381.032H326.55v-96.331c0-9.327,7.561-16.888,16.888-16.888h47.387
		c9.327,0,16.888,7.561,16.888,16.888v96.331H407.714z"/>
</g>
<g>
	<path style="fill:#9AD8ED;" d="M402.768,272.759c-3.056-3.056-7.278-4.947-11.942-4.947h-29.878v113.219h46.766V284.7
		C407.714,280.037,405.824,275.815,402.768,272.759z"/>
	<path style="fill:#9AD8ED;" d="M180.503,272.759c-3.056-3.056-7.278-4.947-11.942-4.947h-29.878v113.219h46.766V284.7
		C185.45,280.037,183.559,275.815,180.503,272.759z"/>
</g>
<path style="fill:#965B53;" d="M12.445,433.255c-2.707,0-4.902,2.195-4.902,4.902v16.186c0,2.707,2.195,4.902,4.902,4.902h487.109
	c2.707,0,4.902-2.195,4.902-4.902v-16.186c0-2.707-2.195-4.902-4.902-4.902H12.445z"/>
<path style="fill:#844C46;" d="M504.432,437.906c-0.133-2.588-2.256-4.652-4.877-4.652h-41.892l0.017,25.991h41.875
	c2.659,0,4.812-2.121,4.888-4.762L504.432,437.906z"/>
<g>
	<rect x="444.85" y="267.81" style="fill:#9AD8ED;" width="47.27" height="113.22"/>
	<path style="fill:#9AD8ED;" d="M78.134,371.038v-93.233c0-5.519-4.474-9.993-9.993-9.993H31.368v113.219h36.773
		C73.66,381.031,78.134,376.557,78.134,371.038z"/>
</g>
<path d="M499.662,425.717L499.662,425.717V233.545l0,0c6.893-0.542,12.338-6.312,12.338-13.342c0-18.852-15.338-34.19-34.191-34.19
	H326.603v-11.647c0-7.177-5.839-13.016-13.016-13.016h-53.789l-61.638-55.571l60.079-51.396h51.395
	c6.834,0,12.404-5.46,12.61-12.245h51.394c4.166,0,7.543-3.377,7.543-7.543s-3.377-7.543-7.543-7.543h-51.394
	c-0.206-6.784-5.776-12.245-12.61-12.245H202.365c-6.834,0-12.404,5.46-12.61,12.245h-51.394c-4.166,0-7.543,3.377-7.543,7.543
	s3.377,7.543,7.543,7.543h51.394c0.206,6.784,5.776,12.245,12.61,12.245h32.81l-49.48,42.2c-2.627,2.24-4.162,5.505-4.211,8.956
	c-0.05,3.452,1.392,6.76,3.955,9.077l51.775,46.734h-38.802c-7.177,0-13.016,5.839-13.016,13.016v11.647H34.191
	C15.338,186.014,0,201.351,0,220.203c0,7.03,5.445,12.8,12.338,13.342l0,0v192.172l0,0C5.526,425.776,0,431.332,0,438.158v16.185
	c0,6.862,5.584,12.446,12.446,12.446h32.478c3.508,17.322,18.85,30.404,37.191,30.404s33.683-13.081,37.191-30.404h19.273
	c3.508,17.322,18.85,30.404,37.191,30.404c18.343,0,33.684-13.081,37.192-30.404h86.074c3.508,17.322,18.85,30.404,37.192,30.404
	s33.684-13.081,37.191-30.404h19.273c3.508,17.322,18.85,30.404,37.191,30.404s33.684-13.081,37.191-30.404h32.478
	c6.862,0,12.446-5.584,12.446-12.446v-16.185C512,431.332,506.474,425.776,499.662,425.717z M204.822,39.297v-9.403h102.356v9.403
	H204.822z M200.483,176.437h111.035v9.577H200.483V176.437z M34.191,201.099h443.618c9.965,0,18.172,7.669,19.031,17.414h-67.878
	c-4.166,0-7.543,3.377-7.543,7.543s3.377,7.543,7.543,7.543h55.614v26.67h-40.717c-9.669,0-17.536,7.867-17.536,17.536v50.104
	h-11.066V284.7c0-13.471-10.959-24.431-24.43-24.431H343.44c-13.472,0-24.432,10.96-24.432,24.431v43.209h-14.883V284.7
	c0-13.471-10.96-24.431-24.431-24.431h-47.387c-13.471,0-24.431,10.96-24.431,24.431v43.209h-14.883V284.7
	c0-13.471-10.96-24.431-24.431-24.431h-47.387c-13.471,0-24.431,10.96-24.431,24.431v43.209H85.677v-50.104
	c0-9.669-7.867-17.536-17.536-17.536H27.424v-26.67h366.441c4.166,0,7.543-3.377,7.543-7.543s-3.377-7.543-7.543-7.543H15.16
	C16.019,208.768,24.226,201.099,34.191,201.099z M415.257,342.995L415.257,342.995h11.066v28.043
	c0,9.669,7.867,17.535,17.536,17.535h40.717v37.137h-69.32L415.257,342.995c-0.001-0.007-0.001,0-0.001-0.007
	C415.257,342.982,415.257,343.002,415.257,342.995z M443.859,373.488c-1.351,0-2.45-1.099-2.45-2.449l0,0c0-0.007,0,0,0-0.007
	s0,0,0-0.007v-93.22c0-1.351,1.099-2.451,2.45-2.451h40.717v98.133L443.859,373.488L443.859,373.488z M334.093,373.488V284.7
	c0-5.153,4.193-9.345,9.346-9.345h47.387c5.152,0,9.344,4.192,9.344,9.345v88.788H334.093z M400.171,388.574v37.137h-66.078v-37.137
	H400.171z M222.109,388.574h67.783c7.848,0,14.233-6.385,14.233-14.233v-31.345h14.883v82.716H192.993v-82.716h14.883v31.345
	C207.875,382.189,214.26,388.574,222.109,388.574z M222.961,373.488V284.7c0-5.153,4.192-9.345,9.345-9.345h47.387
	c5.153,0,9.345,4.192,9.345,9.345v88.788H222.961z M111.829,373.488V284.7c0-5.153,4.192-9.345,9.345-9.345h47.387
	c5.153,0,9.345,4.192,9.345,9.345v88.788H111.829z M177.907,388.574v37.137h-66.078v-37.137H177.907z M70.591,371.039
	L70.591,371.039c0,1.35-1.099,2.449-2.45,2.449H27.424v-98.133h40.717c1.351,0,2.45,1.099,2.45,2.451L70.591,371.039
	c0,0.007,0-0.013,0-0.007S70.591,371.032,70.591,371.039z M82.115,482.106c-9.963,0-18.459-6.408-21.582-15.318h43.164
	C100.574,475.699,92.078,482.106,82.115,482.106z M175.771,482.106c-9.963,0-18.459-6.408-21.582-15.318h43.165
	C194.23,475.699,185.735,482.106,175.771,482.106z M336.229,482.106c-9.964,0-18.46-6.408-21.583-15.318h43.165
	C354.688,475.699,346.192,482.106,336.229,482.106z M429.885,482.106c-9.963,0-18.459-6.408-21.582-15.318h43.164
	C448.344,475.699,439.848,482.106,429.885,482.106z M496.914,451.702L496.914,451.702L496.914,451.702L496.914,451.702
	L496.914,451.702L496.914,451.702L496.914,451.702L496.914,451.702H15.086l0,0v-10.905H40.62c4.166,0,7.543-3.377,7.543-7.543
	s-3.377-7.543-7.543-7.543H27.424v-37.137h40.717c9.669,0,17.536-7.866,17.536-17.535v-28.043h11.066l0,0c0,0.007,0,0,0,0.007
	s0-0.013,0-0.007v82.716H75.796c-4.166,0-7.543,3.377-7.543,7.543s3.377,7.543,7.543,7.543l0,0l0,0l0,0h421.118l0,0V451.702z"/>
<g>
</g>
<g>
</g>
<g>
</g>
<g>
</g>
<g>
</g>
<g>
</g>
<g>
</g>
<g>
</g>
<g>
</g>
<g>
</g>
<g>
</g>
<g>
</g>
<g>
</g>
<g>
</g>
<g>
</g>
</svg>
