<svg id="Capa_1" enable-background="new 0 0 511.88 511.88" height="512" viewBox="0 0 511.88 511.88" width="512" xmlns="http://www.w3.org/2000/svg"><g><g><path d="m72.44 201c0-106.867 76.633-193.5 183.5-193.5s183.5 86.633 183.5 193.5c0 148.924-158.688 285.334-181.061 302.638-1.441 1.115-3.437 1.115-4.878 0-22.373-17.304-181.061-153.714-181.061-302.638" fill="#dd646e"/><path d="m279.06 486.007c-9.69 8.76-17.02 14.79-20.68 17.63-1.44 1.12-3.44 1.12-4.88 0-22.37-17.3-181.06-153.71-181.06-302.64 0-72.36 35.14-135.45 91.01-168.64-41.15 35.47-66.01 89.77-66.01 150.64 0 148.93 158.69 285.34 181.06 302.64.18.14.37.26.56.37z" fill="#da4955"/><g><path d="m395.94 194.987c0 33.566-11.813 64.374-31.508 88.491-25.673 31.437-61.738 42.508-105.492 42.508-77.32 0-137-54.68-137-132 0-43.492 13.832-81.353 44.947-107.031 24.2-19.972 55.226-31.969 89.053-31.969 77.32.001 140 62.681 140 140.001z" fill="#f8f7f7"/></g><g><path d="m364.43 283.477c-25.67 31.44-64.73 51.51-108.49 51.51-77.32 0-140-62.68-140-140 0-43.76 20.07-82.82 51.51-108.49-19.7 24.12-31.51 54.93-31.51 88.49 0 77.32 62.68 140 140 140 33.56 0 64.37-11.81 88.49-31.51z" fill="#ebebeb"/></g></g><g><path d="m79.94 201c0-53.129 19.288-101.616 54.31-136.529 2.934-2.924 2.941-7.673.017-10.606-2.925-2.934-7.673-2.941-10.606-.017-37.867 37.748-58.721 90.007-58.721 147.152 0 45.701 14.486 94.385 43.057 144.701 21.019 37.015 49.084 74.124 83.419 110.296 2.239 2.19 6.683 3.59 10.603.276 3.004-2.852 3.128-7.599.276-10.603-45.695-48.141-122.355-143.943-122.355-244.67z"/><path d="m393.261 59.071c-35.373-38.092-84.141-59.071-137.321-59.071-37.717 0-73.665 10.617-103.956 30.703-3.452 2.289-4.395 6.943-2.106 10.395 2.289 3.453 6.943 4.396 10.395 2.106 27.827-18.451 60.908-28.204 95.667-28.204 100.336 0 176 79.962 176 186 0 61.024-27.108 126.997-80.572 196.086-42.245 54.592-85.46 90.834-95.44 98.913-6.199-4.973-16.646-13.963-28.787-25.481-3.006-2.852-7.752-2.726-10.603.279s-2.726 7.752.279 10.603c14.097 13.374 26.1 23.534 32.094 28.169 3.298 2.358 8.635 3.728 14.057.001.506-.392 51.186-39.883 100.264-103.304 24.541-31.714 44.024-63.515 57.909-94.52 17.12-38.228 25.8-75.489 25.8-110.747-.001-54.247-19.065-104.651-53.68-141.928z"/><path d="m335.079 301.267c-3.32 2.477-4.004 7.176-1.527 10.496s7.175 4.004 10.496 1.527c18.027-13.447 32.969-31.105 43.209-51.066 10.738-20.933 16.183-43.554 16.183-67.237 0-81.332-66.168-147.5-147.5-147.5s-147.5 66.168-147.5 147.5 66.168 147.5 147.5 147.5c19.478 0 38.409-3.739 56.266-11.113 3.829-1.581 5.65-5.966 4.069-9.795-1.581-3.828-5.965-5.651-9.795-4.069-16.032 6.621-33.036 9.978-50.54 9.978-73.061 0-132.5-59.439-132.5-132.5s59.439-132.5 132.5-132.5 132.5 59.439 132.5 132.5c0 42.247-19.449 80.984-53.361 106.279z"/></g></g></svg>
