<svg id="Capa_1" enable-background="new 0 0 511.996 511.996" height="512" viewBox="0 0 511.996 511.996" width="512" xmlns="http://www.w3.org/2000/svg"><g><g><path d="m408.574 504.496h95.922v-274.711c0-15.686-12.716-28.403-28.403-28.403-15.686 0-28.403-12.716-28.403-28.403v-40.945c0-26.29-21.312-47.602-47.602-47.602h-49.498l-77.149 301.841 25.273 75.819" fill="#9bd069"/><path d="m458.259 229.792v274.708h-49.69l-109.859-42.4-25.27-75.819 77.15-301.848h3.26c26.29 0 47.6 21.32 47.6 47.61v40.94c0 7.84 3.18 14.94 8.32 20.08s12.24 8.32 20.09 8.32c15.679-.001 28.399 12.719 28.399 28.409z" fill="#6ec17d"/><path d="m458.259 229.792v274.708h-49.69l-109.859-42.4-25.27-75.819 77.15-301.848h3.26c26.29 0 47.6 21.32 47.6 47.61v40.94c0 7.84 3.18 14.94 8.32 20.08s12.24 8.32 20.09 8.32c15.679-.001 28.399 12.719 28.399 28.409z" fill="#6ec17d"/><path d="m350.587 84.429v381.657h-297.947l15.21-110.559 45.93-333.717h174.189c34.589 0 62.618 28.04 62.618 62.619z" fill="#b1e4f9"/><path d="m222.847 119.857v346.229h-170.207l15.21-110.559 44.64-253.908h92.12c10.072 0 18.237 8.166 18.237 18.238z" fill="#90d8f9"/><path d="m7.5 504.496v-448.635c0-26.709 21.652-48.361 48.361-48.361h23.567c26.709 0 48.361 21.652 48.361 48.361v54.153c0 15.567 12.62 28.187 28.187 28.187 21.899 0 39.651 17.752 39.651 39.651v326.644z" fill="#9bd069"/><path d="m80.445 180.1c-9.618 0-17.416-7.797-17.416-17.415v-106.824c0-21.11 13.52-39.06 32.38-45.66-5-1.75-10.38-2.7-15.98-2.7h-23.569c-26.708 0-48.36 21.651-48.36 48.36v448.636h55.53v-.001h34.831v-306.98c0-9.619-7.798-17.416-17.416-17.416z" fill="#6ec17d"/><path d="m416.765 406.671c-17.447 0-31.591 14.144-31.591 31.591v-33.764c0-17.447-14.144-31.591-31.591-31.591-17.447 0-31.591 14.144-31.591 31.591v40.8c0-17.447-14.144-31.591-31.591-31.591-17.447 0-31.591 14.144-31.591 31.591v-28.571c0-17.447-14.144-31.591-31.591-31.591-17.447 0-31.591 14.144-31.591 31.591v87.769h212.947c21.971 0 39.782-17.811 39.782-39.782v-26.452c-.001-17.447-14.145-31.591-31.592-31.591z" fill="#f6f9f9"/><g fill="#dddaec"><path d="m227.227 385.138c5.49 0 10.66 1.41 15.16 3.87-2.65 1.45-5.07 3.27-7.18 5.38-5.72 5.72-9.26 13.61-9.26 22.34v87.769h-30.32v-87.769c0-8.73 3.54-16.62 9.26-22.34 5.71-5.71 13.61-9.25 22.34-9.25z"/><path d="m305.568 417.577c-2.65 1.45-5.07 3.27-7.18 5.38-5.72 5.72-9.26 13.61-9.26 22.34v13.02c0 8.373-6.787 15.16-15.16 15.16-8.373 0-15.16-6.787-15.16-15.16v-13.02c0-8.73 3.54-16.62 9.26-22.34 5.71-5.71 13.61-9.25 22.34-9.25 5.49 0 10.66 1.41 15.16 3.87z"/><path d="m368.747 376.777c-2.65 1.45-5.07 3.27-7.18 5.38-5.72 5.72-9.26 13.61-9.26 22.34v66.247c0 8.373-6.787 15.16-15.16 15.16-8.373 0-15.16-6.787-15.16-15.16v-66.247c0-8.73 3.54-16.62 9.26-22.34 5.71-5.71 13.61-9.25 22.34-9.25 5.49 0 10.66 1.41 15.16 3.87z"/><path d="m431.937 410.547c-2.65 1.45-5.07 3.27-7.18 5.38-5.72 5.72-9.26 13.61-9.26 22.34v12.632c0 8.373-6.787 15.16-15.16 15.16-8.373 0-15.16-6.787-15.16-15.16v-12.632c0-8.73 3.54-16.62 9.26-22.34 5.71-5.71 13.61-9.25 22.34-9.25 5.49 0 10.66 1.41 15.16 3.87z"/></g></g><g><path d="m476.094 193.883c-11.525 0-20.902-9.377-20.902-20.902v-40.945c0-30.384-24.719-55.103-55.103-55.103h-42.407c-3.754-35.152-33.583-62.623-69.714-62.623h-171.252c-9.897-8.89-22.97-14.31-37.288-14.31h-23.567c-30.802 0-55.861 25.059-55.861 55.861v448.635c0 4.142 3.358 7.5 7.5 7.5h496.996c4.143 0 7.5-3.358 7.5-7.5v-274.711c0-19.796-16.105-35.902-35.902-35.902zm-287.967 303.113h-173.127v-441.135c0-22.531 18.33-40.861 40.861-40.861h23.567c22.531 0 40.861 18.33 40.861 40.861v54.153c0 19.678 16.009 35.687 35.687 35.687 17.729 0 32.151 14.423 32.151 32.151zm308.869 0h-53.917c7.917-8.459 12.78-19.812 12.78-32.286v-26.45c0-21.554-17.536-39.09-39.091-39.09-9.08 0-17.446 3.112-24.09 8.325v-2.995c0-20.029-15.148-36.578-34.59-38.822v-217.468c0-4.142-3.357-7.5-7.5-7.5s-7.5 3.358-7.5 7.5v218.627c-6.424 1.778-12.315 5.182-17.157 10.024-7.379 7.391-11.442 17.207-11.442 27.639v10.035c-6.644-5.213-15.01-8.325-24.09-8.325-8.872 0-17.291 2.933-24.15 8.341-.758-13.772-8.658-26.091-21.001-32.506-3.674-1.911-8.203-.479-10.113 3.196-1.91 3.676-.479 8.204 3.196 10.114 8.005 4.161 12.979 12.351 12.979 21.375v28.57c0 4.142 3.358 7.5 7.5 7.5 4.143 0 7.5-3.358 7.5-7.5 0-6.438 2.505-12.488 7.053-17.036 4.55-4.549 10.601-7.054 17.038-7.054 13.283 0 24.09 10.807 24.09 24.09 0 4.142 3.357 7.5 7.5 7.5s7.5-3.358 7.5-7.5v-40.8c0-6.43 2.507-12.482 7.054-17.037 4.548-4.548 10.598-7.053 17.036-7.053 13.289 0 24.1 10.807 24.1 24.09v33.76c0 4.142 3.357 7.5 7.5 7.5s7.5-3.358 7.5-7.5c0-13.283 10.807-24.09 24.09-24.09 13.284 0 24.091 10.807 24.091 24.09v26.45c0 17.753-14.397 32.203-32.126 32.286h-.158c-.026 0-.051.004-.077.004h-205.373v-80.27c0-6.438 2.505-12.488 7.053-17.037 1.75-1.75 3.74-3.208 5.913-4.332 3.679-1.903 5.119-6.429 3.216-10.107-1.904-3.68-6.43-5.119-10.107-3.216-2.15 1.112-4.171 2.445-6.075 3.937v-208.123c0-25.999-21.152-47.151-47.151-47.151-11.407 0-20.687-9.28-20.687-20.687v-54.153c0-9.604-2.438-18.649-6.724-26.551h159.403c30.394 0 55.12 24.727 55.12 55.12v33.78c0 4.142 3.357 7.5 7.5 7.5s7.5-3.358 7.5-7.5v-26.277h42.001c22.112 0 40.103 17.99 40.103 40.103v40.945c0 19.796 16.105 35.902 35.902 35.902 11.525 0 20.902 9.377 20.902 20.902v267.211z"/><path d="m304.034 177.921c-4.143 0-7.5 3.358-7.5 7.5v162.279c0 4.142 3.357 7.5 7.5 7.5s7.5-3.358 7.5-7.5v-162.279c0-4.142-3.357-7.5-7.5-7.5z"/><path d="m273.108 134.349c-4.143 0-7.5 3.358-7.5 7.5v162.279c0 4.142 3.357 7.5 7.5 7.5s7.5-3.358 7.5-7.5v-162.279c0-4.142-3.357-7.5-7.5-7.5z"/><path d="m225.098 241.503c-4.142 0-7.5 3.358-7.5 7.5v88.905c0 4.142 3.358 7.5 7.5 7.5s7.5-3.358 7.5-7.5v-88.905c0-4.142-3.358-7.5-7.5-7.5z"/><path d="m453.664 246.585c-5.137 0-9.96 1.369-14.124 3.76-2.828-12.729-14.208-22.275-27.775-22.275-15.688 0-28.45 12.763-28.45 28.45v47.414c0 4.142 3.357 7.5 7.5 7.5s7.5-3.358 7.5-7.5v-47.414c0-7.416 6.034-13.45 13.45-13.45s13.45 6.034 13.45 13.45v18.515c0 4.142 3.357 7.5 7.5 7.5s7.5-3.358 7.5-7.5c0-7.416 6.033-13.45 13.449-13.45s13.45 6.034 13.45 13.45v47.413c0 4.142 3.357 7.5 7.5 7.5s7.5-3.358 7.5-7.5v-47.413c0-15.687-12.762-28.45-28.45-28.45z"/><path d="m125.576 290.862c-17.387 0-31.791 13.013-33.987 29.811-5.552-3.873-12.298-6.147-19.566-6.147-18.9 0-34.276 15.376-34.276 34.276v60.599c0 4.142 3.358 7.5 7.5 7.5s7.5-3.358 7.5-7.5v-60.599c0-10.629 8.647-19.276 19.276-19.276s19.276 8.647 19.276 19.276c0 4.142 3.358 7.5 7.5 7.5s7.5-3.358 7.5-7.5v-23.664c0-10.629 8.647-19.276 19.276-19.276s19.276 8.647 19.276 19.276v60.599c0 4.142 3.358 7.5 7.5 7.5s7.5-3.358 7.5-7.5v-60.599c.001-18.9-15.375-34.276-34.275-34.276z"/><path d="m49.975 160.997c4.142 0 7.5-3.358 7.5-7.5v-53.871c0-8.7 7.078-15.778 15.778-15.778s15.777 7.078 15.777 15.778v28.598c0 4.142 3.358 7.5 7.5 7.5s7.5-3.358 7.5-7.5v-28.598c0-16.971-13.807-30.778-30.778-30.778s-30.777 13.807-30.777 30.778v53.871c0 4.142 3.358 7.5 7.5 7.5z"/><path d="m201.308 85.394h-44.417c-4.142 0-7.5 3.358-7.5 7.5s3.358 7.5 7.5 7.5h44.417c11.686 0 21.193 9.507 21.193 21.193v11.973c0 4.142 3.358 7.5 7.5 7.5s7.5-3.358 7.5-7.5v-11.973c0-19.957-16.236-36.193-36.193-36.193z"/><path d="m301.141 104.868v-15.593c0-24.74-20.127-44.867-44.867-44.867h-57.843c-4.142 0-7.5 3.358-7.5 7.5s3.358 7.5 7.5 7.5h57.843c16.468 0 29.867 13.398 29.867 29.867v15.592c0 4.142 3.357 7.5 7.5 7.5s7.5-3.357 7.5-7.499z"/></g></g></svg>
