<?xml version="1.0" encoding="UTF-8" standalone="no"?>
<!-- Created with Inkscape (http://www.inkscape.org/) -->

<svg
   xmlns:dc="http://purl.org/dc/elements/1.1/"
   xmlns:cc="http://creativecommons.org/ns#"
   xmlns:rdf="http://www.w3.org/1999/02/22-rdf-syntax-ns#"
   xmlns:svg="http://www.w3.org/2000/svg"
   xmlns="http://www.w3.org/2000/svg"
   xmlns:sodipodi="http://sodipodi.sourceforge.net/DTD/sodipodi-0.dtd"
   xmlns:inkscape="http://www.inkscape.org/namespaces/inkscape"
   width="115mm"
   height="115mm"
   viewBox="0 0 407.48036 407.48038"
   id="svg4378"
   version="1.1"
   inkscape:version="0.91 r"
   sodipodi:docname="favicon.svg"
   inkscape:export-filename="/home/tobias/git/mtn-huts/main/static/favicon.png"
   inkscape:export-xdpi="147.08482"
   inkscape:export-ydpi="147.08482">
  <defs
     id="defs4380">
    <clipPath
       clipPathUnits="userSpaceOnUse"
       id="clipPath4178">
      <path
         style="color:#000000;clip-rule:nonzero;display:inline;overflow:visible;visibility:visible;opacity:1;isolation:auto;mix-blend-mode:normal;color-interpolation:sRGB;color-interpolation-filters:linearRGB;solid-color:#000000;solid-opacity:1;fill:#808080;fill-opacity:1;fill-rule:evenodd;stroke:none;stroke-width:5;stroke-linecap:round;stroke-linejoin:round;stroke-miterlimit:4;stroke-dasharray:none;stroke-dashoffset:0;stroke-opacity:0.84868421;color-rendering:auto;image-rendering:auto;shape-rendering:auto;text-rendering:auto;enable-background:accumulate"
         d="m 389.22112,843.46486 0,360.62504 201.83203,0 a 151.52289,151.52289 0 0 0 115.35742,53.5371 151.52289,151.52289 0 0 0 115.54492,-53.5371 l 254.16991,0 0,-360.62504 -686.90428,0 z"
         id="path4180"
         inkscape:connector-curvature="0" />
    </clipPath>
    <filter
       inkscape:menu-tooltip="In and out glow with a possible offset and colorizable flood"
       inkscape:menu="Shadows and Glows"
       inkscape:label="Cutout Glow"
       style="color-interpolation-filters:sRGB"
       id="filter4191">
      <feOffset
         dy="3"
         dx="3"
         id="feOffset4193" />
      <feGaussianBlur
         stdDeviation="3"
         result="blur"
         id="feGaussianBlur4195" />
      <feFlood
         flood-color="rgb(0,0,0)"
         flood-opacity="1"
         result="flood"
         id="feFlood4197" />
      <feComposite
         in="flood"
         in2="SourceGraphic"
         operator="in"
         result="composite"
         id="feComposite4199" />
      <feBlend
         in="blur"
         in2="composite"
         mode="normal"
         id="feBlend4201" />
    </filter>
    <clipPath
       clipPathUnits="userSpaceOnUse"
       id="clipPath4206">
      <path
         style="fill:none;fill-rule:evenodd;stroke:#000000;stroke-width:1px;stroke-linecap:butt;stroke-linejoin:miter;stroke-opacity:1"
         d="m 554.46649,1124.1823 16.30558,78.3851 98.28605,35.0264 110.15373,-22.7549 L 927.13418,1040.9385 866.259,902.38424 548.37118,916.71923 Z"
         id="path4208"
         inkscape:connector-curvature="0" />
    </clipPath>
  </defs>
  <sodipodi:namedview
     id="base"
     pagecolor="#ffffff"
     bordercolor="#666666"
     borderopacity="1.0"
     inkscape:pageopacity="0.0"
     inkscape:pageshadow="2"
     inkscape:zoom="0.9899495"
     inkscape:cx="45.523404"
     inkscape:cy="185.5408"
     inkscape:document-units="px"
     inkscape:current-layer="g5151"
     showgrid="false"
     fit-margin-top="2"
     fit-margin-left="2"
     fit-margin-right="2"
     fit-margin-bottom="2"
     inkscape:window-width="1600"
     inkscape:window-height="848"
     inkscape:window-x="0"
     inkscape:window-y="0"
     inkscape:window-maximized="1" />
  <metadata
     id="metadata4383">
    <rdf:RDF>
      <cc:Work
         rdf:about="">
        <dc:format>image/svg+xml</dc:format>
        <dc:type
           rdf:resource="http://purl.org/dc/dcmitype/StillImage" />
        <dc:title></dc:title>
      </cc:Work>
    </rdf:RDF>
  </metadata>
  <g
     inkscape:label="Layer 1"
     inkscape:groupmode="layer"
     id="layer1"
     transform="translate(-6.213262,8.7428437)">
    <g
       id="g4220"
       transform="translate(2.7513131,-18.202299)">
      <g
         inkscape:export-ydpi="147.08482"
         inkscape:export-xdpi="147.08482"
         inkscape:export-filename="/home/tobias/data/git/wodore-dev/logo/external/wodore_logo_g+.png"
         transform="translate(-473.47508,-879.88508)"
         id="g5151">
        <g
           id="g4188"
           transform="matrix(1.0635186,0,0,1.0635186,-39.052299,-64.713272)">
          <path
             style="color:#000000;font-style:normal;font-variant:normal;font-weight:normal;font-stretch:normal;font-size:medium;line-height:normal;font-family:sans-serif;text-indent:0;text-align:start;text-decoration:none;text-decoration-line:none;text-decoration-style:solid;text-decoration-color:#000000;letter-spacing:normal;word-spacing:normal;text-transform:none;direction:ltr;block-progression:tb;writing-mode:lr-tb;baseline-shift:baseline;text-anchor:start;white-space:normal;clip-rule:nonzero;display:inline;overflow:visible;visibility:visible;opacity:1;isolation:auto;mix-blend-mode:normal;color-interpolation:sRGB;color-interpolation-filters:linearRGB;solid-color:#000000;solid-opacity:1;fill:#82cf06;fill-opacity:1;fill-rule:nonzero;stroke:#7ac206;stroke-width:29.75399971;stroke-linecap:round;stroke-linejoin:round;stroke-miterlimit:4;stroke-dasharray:none;stroke-dashoffset:0;stroke-opacity:1;color-rendering:auto;image-rendering:auto;shape-rendering:auto;text-rendering:auto;enable-background:accumulate"
             d="m 641.7336,960.40889 c -5.94828,0.65236 -11.42296,3.35654 -15.41378,7.64521 l 0,0 -118.91269,128.059 c -4.22769,4.5503 -5.65976,9.2085 -5.74997,12.9826 -0.0905,3.7743 1.07699,6.6285 1.74051,7.9516 0.66561,1.3271 2.2586,3.9655 5.34256,6.1458 3.08394,2.1803 7.68011,3.8098 13.85644,3.1323 l 15.89391,-1.743 12.20086,111.2491 c 1.40316,12.7942 12.9924,22.0931 25.78712,20.6899 L 769.6318,1235.338 c 12.79496,-1.4032 22.09307,-12.9928 20.6899,-25.7871 l -12.18189,-111.0762 -0.0193,-0.1758 15.88604,-1.7423 c 6.1757,-0.6772 10.30936,-3.2635 12.84765,-6.0604 2.53834,-2.7976 3.52139,-5.7177 3.8835,-7.1575 0.36187,-1.4362 0.88308,-4.4743 -0.0241,-8.1405 -0.9071,-3.6655 -8.43596,-11.4347 -8.43596,-11.4347 L 700.98357,993.87876 658.44576,964.52805 c -4.8299,-3.32495 -10.76565,-4.78191 -16.7133,-4.12962 z"
             id="hut-25-3"
             inkscape:connector-curvature="0"
             sodipodi:nodetypes="ccccscsscssssccsscsccccc"
             inkscape:export-filename="/home/tobias/git/mtn-huts/main/static/icons/hut-sac-full.png"
             inkscape:export-xdpi="96"
             inkscape:export-ydpi="96"
             inkscape:label="#path4321-5-2" />
          <g
             transform="matrix(1.0892963,0,0,1.0892963,-69.691755,-109.10297)"
             id="g4181">
            <g
               clip-path="url(#clipPath4206)"
               transform="matrix(0.99575075,0.09208932,-0.09208932,0.99575075,102.98328,-60.827726)"
               id="g4189">
              <g
                 id="g4174"
                 clip-path="url(#clipPath4178)">
                <path
                   style="fill:#000000;fill-opacity:1;stroke:none"
                   d="m 716.41282,932.56068 c -6.0856,-0.3288 -9.29695,-0.57529 -18.27997,-0.3546 -6.18349,0.15178 -7.4926,3.36541 -7.20128,6.57298 l 0.72074,14.71774 c 0.30239,5.40957 -4.3222,10.61228 -9.72995,10.94613 l -20.63133,1.21631 c -2.26783,0.13406 -0.50461,-0.12396 -2.70276,0.45046 -2.19815,0.57385 -0.52344,-0.0447 -2.56763,0.9459 -2.04418,0.9913 -0.53055,0.0259 -2.34239,1.3965 -1.81185,1.37055 -0.51703,0.1946 -2.02708,1.89194 -1.51004,1.69733 -0.4713,0.24822 -1.62166,2.20718 -1.15035,1.95911 -0.3796,0.33197 -1.12615,2.47761 -0.74655,2.14563 -0.31652,0.40765 -0.63064,2.65765 -0.31413,2.24999 -0.2655,0.47972 -0.13507,2.74788 l 4.54965,77.65944 0,0.045 c 0.11936,2.1071 -0.11503,0.4925 0.45046,2.6576 0.57486,2.2008 -0.0473,0.5664 0.94597,2.6127 0.99319,2.0464 0.068,0.4842 1.44148,2.2974 1.37336,1.8132 0.14613,0.5166 1.84689,2.027 1.70075,1.5105 0.2445,0.4721 2.20725,1.6217 1.96276,1.1497 0.3282,0.3817 2.47754,1.1262 2.14934,0.7445 0.44947,0.3197 2.70276,0.6306 2.2533,0.311 0.43212,0.2699 2.70277,0.1355 0.015,0 0.03,0 0.045,0 l 20.76625,-1.2163 c 5.40961,-0.3023 10.61226,4.3223 10.9462,9.73 l 0.32891,2.5387 c 0.0213,0.2096 0.0363,0.42 0.045,0.6306 l 0,0.4054 c -0.0115,0.1655 -0.0261,0.3306 -0.045,0.4956 l -0.27027,5.6758 c -0.2439,5.3294 -5.20642,9.995 -10.54079,9.9101 l -57.74908,-1.036 c -2.2715,-0.042 -0.51168,-0.2213 -2.74781,0.1802 -2.23613,0.4014 -0.49764,-0.063 -2.61267,0.7659 -2.11503,0.8294 -0.51965,0.036 -2.43249,1.2612 -1.91284,1.2257 -0.52493,0.092 -2.16221,1.6667 l -39.50542,38.1541 c -1.63822,1.5785 -0.45814,0.2041 -1.7568,2.0721 -1.29865,1.868 -0.44221,0.3018 -1.35138,2.3874 -0.90916,2.0855 -0.37116,0.3897 -0.85587,2.6126 -0.48471,2.2229 -0.2737,0.4731 -0.31533,2.7479 -0.0417,2.2747 -0.17783,0.4636 0.22523,2.7028 0.40307,2.239 -0.11157,0.5403 0.72074,2.6576 0.83225,2.1174 0.0319,0.5182 1.26129,2.4325 1.22944,1.9143 0.13247,0.5247 1.71175,2.1622 l 38.06394,39.6406 c 1.58147,1.6369 0.20151,0.4601 2.07212,1.7569 1.87062,1.2966 0.29969,0.4448 2.38745,1.3513 2.08776,0.9064 0.3881,0.3744 2.61267,0.8558 2.22457,0.4815 0.47204,0.2324 2.74781,0.2703 l 54.32558,0.991 c 5.54524,0.1038 10.45631,5.3619 10.18041,10.9012 l -1.75679,37.9739 c 1.34473,5.9712 8.66298,-2.5713 18.06979,0.602 5.47827,1.8481 10.96038,7.2588 17.88683,7.4103 1.95884,-0.082 4.12323,0.1038 4.31414,-2.2915 l 2.56763,-43.6947 c 0.31074,-5.2833 5.24919,-9.8629 10.54078,-9.7751 l 20.00046,0.3604 c 2.26975,0.039 0.46896,0.224 2.70277,-0.1802 2.23381,-0.404 0.54535,0.065 2.65772,-0.7657 2.11236,-0.8315 0.52243,-0.035 2.43249,-1.2613 1.91005,-1.2268 0.52758,-0.091 2.16221,-1.6668 1.63463,-1.5752 0.46018,-0.2538 1.7568,-2.1171 1.29662,-1.8634 0.4424,-0.3073 1.35138,-2.3875 0.90898,-2.0802 0.32429,-0.3503 0.81083,-2.5675 0.47867,-2.1816 0.27846,-0.5965 0.31532,-2.7028 l 0,-0.045 1.44148,-77.7495 c 0.0428,-2.2751 0.22185,-0.5083 -0.18019,-2.7479 -0.40204,-2.2396 0.0656,-0.5397 -0.76578,-2.6577 -0.83142,-2.1181 -0.0324,-0.5175 -1.26129,-2.4324 -1.22882,-1.9152 -0.0878,-0.5239 -1.66671,-2.1623 -1.57896,-1.6385 -0.2488,-0.4581 -2.11716,-1.7568 -1.86837,-1.2988 -0.30153,-0.4423 -2.38745,-1.3514 -2.08591,-0.9092 -0.38944,-0.3264 -2.61267,-0.8108 -2.22323,-0.4845 -0.42771,-0.2741 -2.70276,-0.3153 l -14.82017,-0.2703 c -2.81251,-0.049 -5.5845,-1.2982 -7.48337,-3.3736 -1.89887,-2.0753 -2.89791,-4.947 -2.69704,-7.7528 l 0.045,-0.6756 c 0.007,-0.5895 0.0153,-0.3313 0,-0.4055 -0.006,-0.024 0.0149,0.061 0,-0.1355 l -1.31993,-10.6469 c -0.47584,-5.5099 4.20931,-10.9326 9.72996,-11.2615 l 52.79401,-3.1083 c 0.015,0 0.03,0 0.045,0 2.27175,-0.1297 0.49989,0.1197 2.70277,-0.4504 2.20287,-0.57 0.51835,0.043 2.56762,-0.9459 2.04928,-0.989 0.52555,-0.026 2.3424,-1.3965 1.7948,-1.3531 0.55286,-0.2383 1.98203,-1.8469 l 36.44228,-41.1271 c 0.015,0 0.03,0 0.045,0 1.50777,-1.6996 0.42899,-0.2463 1.57662,-2.2071 1.14763,-1.961 0.42771,-0.3307 1.1712,-2.4776 0.74348,-2.147 0.31983,-0.4521 0.63064,-2.7028 0.31081,-2.2506 0.22386,-0.4346 0.0901,-2.7028 -0.13377,-2.268 0.1678,-0.5042 -0.40541,-2.7027 -0.57322,-2.1986 0.0447,-0.523 -0.94597,-2.5676 -0.9907,-2.0447 -0.0714,-0.53 -1.44147,-2.3424 -1.37017,-1.81237 -0.14979,-0.51648 -1.84689,-2.02715 l -41.03699,-36.57742 0,0.0447 c -1.70122,-1.50663 -0.24499,-0.47554 -2.20725,-1.62166 -1.96227,-1.14612 -0.32951,-0.38444 -2.47754,-1.12608 -2.14803,-0.74164 -0.40634,-0.367 -2.65772,-0.67576 -2.25138,-0.30862 -0.47943,-0.22603 -2.74781,-0.0894 -0.015,1.4e-4 -0.03,1.4e-4 -0.045,0 l -56.35265,3.28843 c -5.32591,0.30805 -10.47917,-4.14539 -10.9462,-9.45967 l -0.8323,-9.79583 c -0.24251,-2.4854 1.19491,-8.40712 -12.60548,-9.15827 z"
                   id="path5016"
                   sodipodi:nodetypes="csccccssssssscccssssssssccccccccccsssccsssssssccsssccccscccccssssssscccsssssssccsccsccccsssscccssssssscccssssccccs"
                   inkscape:connector-curvature="0" />
              </g>
              <path
                 inkscape:connector-curvature="0"
                 style="fill:#444444;fill-opacity:1;stroke:#000000;stroke-width:6.6419158;stroke-miterlimit:4;stroke-dasharray:none;stroke-opacity:1"
                 d="m 671.67831,969.24232 a 18.991628,18.436483 0 0 0 -17.84078,19.48239 l 3.55805,58.76619 a 18.991628,18.436483 0 0 0 20.06896,17.3193 l 105.93756,-6.0446 a 18.991628,18.436483 0 0 0 13.08492,-6.1473 l 28.41393,-31.1058 a 18.991628,18.436483 0 0 0 -1.57647,-26.03751 L 791.3525,967.81468 a 18.991628,18.436483 0 0 0 -13.73662,-4.6169 l -105.93757,6.04454 z"
                 id="path15895-7-0-0" />
              <path
                 inkscape:connector-curvature="0"
                 style="fill:#444444;fill-opacity:1;stroke:#000000;stroke-width:6.35275984;stroke-miterlimit:4;stroke-dasharray:none;stroke-opacity:1"
                 d="m 752.05842,1196.4782 a 19.42978,16.485822 0 0 0 19.77957,-16.1765 l 1.14075,-52.6303 a 19.42978,16.485822 0 0 0 -19.06516,-16.7826 l -108.55031,-1.6939 a 19.42978,16.485822 0 0 0 -13.84601,4.6057 l -31.508,25.8323 a 19.42978,16.485822 0 0 0 -0.50542,23.3189 l 30.36721,26.7979 a 19.42978,16.485822 0 0 0 13.63706,5.0346 l 108.55031,1.6939 z"
                 id="path15895-8-1-10-7" />
            </g>
          </g>
        </g>
      </g>
    </g>
  </g>
</svg>
