<svg xmlns="http://www.w3.org/2000/svg" shape-rendering="crispEdges" viewBox="0 0 48 48" width="48" height="48"><g style="display:inline"><path d="M18.047 4.563a.804.804 0 0 0-.803.802v9.393H8.158a.806.806 0 0 0-.804.803v24.427H5.129c-.221 0-.402.255-.402.567v2.318c0 .312.18.565.402.565h37.744c.221 0 .4-.253.4-.565v-2.318c0-.312-.179-.567-.4-.567h-2.227V15.561a.804.804 0 0 0-.802-.803h-9.086V5.365a.804.804 0 0 0-.803-.803z" style="clip-rule:evenodd;display:inline;fill:#50dd96;fill-rule:evenodd;stroke:#8ce9c7;stroke-width:5;stroke-linejoin:round;stroke-miterlimit:4;stroke-dasharray:none;stroke-opacity:1"/><path fill="#636c77" d="M17.978 4.562h12.044c.223 0 .404.36.404.803v9.926c0 .442-.181.803-.404.803H17.978c-.223 0-.404-.36-.404-.803V5.365c0-.442.181-.803.404-.803" style="clip-rule:evenodd;fill:#21ab5d;fill-rule:evenodd;stroke-width:8.83787"/><path fill="#cad0d7" d="M40.646 15.561v25.942H7.354V15.561c0-.442.36-.803.803-.803h31.686c.442 0 .803.361.803.803" style="clip-rule:evenodd;fill-rule:evenodd;stroke-width:12.4522;fill:#50dd96"/><path fill="#d5a889" d="M19.888 29.417h8.224v12.796h-8.224z" style="clip-rule:evenodd;fill-rule:evenodd;stroke-width:12.4522"/><path fill="#a9b0bb" d="M5.128 39.989h37.744c.221 0 .402.254.402.565v2.319c0 .311-.18.565-.402.565H5.128c-.221 0-.402-.254-.402-.565v-2.319c0-.311.18-.565.402-.565" style="clip-rule:evenodd;fill-rule:evenodd;stroke-width:12.4522;fill:#21ab5d"/></g></svg>
