<?xml version="1.0" encoding="UTF-8" standalone="no"?>
<!-- Created with Inkscape (http://www.inkscape.org/) -->

<svg
   width="48"
   height="48"
   viewBox="0 0 48 48"
   version="1.1"
   id="svg55"
   inkscape:version="1.4.3 (0d15f75042, 2025-12-25)"
   sodipodi:docname="accommodation.svg"
   shape-rendering="crispEdges"
   xmlns:inkscape="http://www.inkscape.org/namespaces/inkscape"
   xmlns:sodipodi="http://sodipodi.sourceforge.net/DTD/sodipodi-0.dtd"
   xmlns="http://www.w3.org/2000/svg"
   xmlns:svg="http://www.w3.org/2000/svg">
  <sodipodi:namedview
     id="namedview57"
     pagecolor="#ffffff"
     bordercolor="#666666"
     borderopacity="1.0"
     inkscape:pageshadow="2"
     inkscape:pageopacity="0.0"
     inkscape:pagecheckerboard="false"
     inkscape:document-units="px"
     showgrid="true"
     units="px"
     showguides="true"
     inkscape:guide-bbox="true"
     inkscape:zoom="11.313709"
     inkscape:cx="12.418562"
     inkscape:cy="35.620503"
     inkscape:window-width="2560"
     inkscape:window-height="1375"
     inkscape:window-x="2240"
     inkscape:window-y="0"
     inkscape:window-maximized="1"
     inkscape:current-layer="layer7"
     guidecolor="#a375ff"
     guideopacity="0.49803922"
     inkscape:lockguides="true"
     borderlayer="true"
     inkscape:snap-bbox="true"
     inkscape:bbox-paths="true"
     inkscape:bbox-nodes="true"
     inkscape:snap-bbox-edge-midpoints="true"
     inkscape:snap-bbox-midpoints="true"
     guidetolerance="10000"
     inkscape:snap-global="false"
     inkscape:showpageshadow="2"
     inkscape:deskcolor="#d1d1d1">
    <sodipodi:guide
       position="44,24"
       orientation="1,0"
       id="guide2872"
       inkscape:locked="true" />
    <sodipodi:guide
       position="6.35,11.641667"
       orientation="0,-1"
       id="guide2912"
       inkscape:locked="true" />
    <sodipodi:guide
       position="4,24"
       orientation="1,0"
       id="guide7803"
       inkscape:locked="true" />
    <sodipodi:guide
       position="6.35,1.0583333"
       orientation="0,-1"
       id="guide7805"
       inkscape:locked="true" />
    <sodipodi:guide
       position="6.35,12.7"
       orientation="1,0"
       id="guide7807"
       inkscape:locked="true" />
    <sodipodi:guide
       position="4,24"
       orientation="0,-1"
       id="guide7809"
       inkscape:locked="true" />
    <sodipodi:guide
       position="44,48"
       orientation="0,48"
       id="guide7813"
       inkscape:locked="true" />
    <sodipodi:guide
       position="12.7,12.7"
       orientation="48,0"
       id="guide7815"
       inkscape:locked="true" />
    <sodipodi:guide
       position="12.7,0"
       orientation="0,-48"
       id="guide7817"
       inkscape:locked="true" />
    <sodipodi:guide
       position="0,0"
       orientation="-48,0"
       id="guide7819"
       inkscape:locked="true" />
    <inkscape:grid
       type="xygrid"
       id="grid929"
       empspacing="4"
       empcolor="#0000e8"
       empopacity="0.23921569"
       originx="0"
       originy="0"
       spacingy="1"
       spacingx="1"
       units="px" />
  </sodipodi:namedview>
  <defs
     id="defs52" />
  <g
     inkscape:groupmode="layer"
     id="layer5"
     inkscape:label="background"
     sodipodi:insensitive="true"
     style="display:none">
    <rect
       style="opacity:1;fill:#ffffff;fill-opacity:1;stroke:none;stroke-width:0.2;stroke-linecap:round;stroke-linejoin:round;stroke-miterlimit:4;stroke-dasharray:none;stroke-dashoffset:0;stroke-opacity:1;stop-color:#000000"
       id="rect6631"
       width="48"
       height="48"
       x="0"
       y="0" />
  </g>
  <g
     inkscape:groupmode="layer"
     id="layer7"
     inkscape:label="simple"
     style="display:inline">
    <path
       id="path1489-7-2"
       style="clip-rule:evenodd;display:inline;fill:#50dd96;fill-rule:evenodd;stroke:#8ce9c7;stroke-width:5;stroke-linejoin:round;stroke-miterlimit:4;stroke-dasharray:none;stroke-opacity:1"
       d="m 18.046875,4.5625 c -0.442331,0 -0.802734,0.360484 -0.802734,0.802734 v 9.392579 H 8.158203 c -0.442331,0 -0.804687,0.360403 -0.804687,0.802734 v 24.427734 h -2.22461 c -0.221166,0 -0.402344,0.254839 -0.402344,0.566407 v 2.318359 c 0,0.311456 0.181178,0.564453 0.402344,0.564453 h 37.744141 c 0.221166,0 0.400391,-0.252997 0.400391,-0.564453 v -2.318359 c -10e-7,-0.311456 -0.179225,-0.566407 -0.400391,-0.566407 H 40.646484 V 15.560547 c 0,-0.442251 -0.360403,-0.802734 -0.802734,-0.802734 H 30.757812 V 5.365234 c 0,-0.442332 -0.360403,-0.802734 -0.802734,-0.802734 z"
       sodipodi:nodetypes="sscsscsssssssscsscsss" />
    <path
       d="m 17.978317,4.5619098 h 12.043366 c 0.222819,0 0.404537,0.3607395 0.404537,0.8030709 v 9.9258763 c 0,0.442331 -0.181718,0.803071 -0.404537,0.803071 H 17.978317 c -0.222818,0 -0.404536,-0.36074 -0.404536,-0.803071 V 5.3649004 c 0,-0.4422511 0.181718,-0.8029906 0.404536,-0.8029906 z"
       fill="#636c77"
       id="path1489-7"
       style="clip-rule:evenodd;fill:#21ab5d;fill-rule:evenodd;stroke-width:8.83787" />
    <path
       d="m 40.646054,15.561411 v 25.9416 H 7.3538661 v -25.9416 c 0,-0.442331 0.3607395,-0.803071 0.8030709,-0.803071 h 31.686046 c 0.442331,0 0.803071,0.36082 0.803071,0.803071 z"
       fill="#cad0d7"
       id="path1493-3"
       style="clip-rule:evenodd;fill-rule:evenodd;stroke-width:12.4522;fill:#50dd96" />
    <path
       d="m 19.888277,29.416954 h 8.223446 v 12.796373 h -8.223446 z"
       fill="#d5a889"
       id="path1495-5"
       style="clip-rule:evenodd;fill-rule:evenodd;stroke-width:12.4522" />
    <path
       d="M 5.1278339,39.988645 H 42.872166 c 0.221166,0 0.401536,0.254003 0.401536,0.565459 v 2.318608 c 0,0.311456 -0.18037,0.56546 -0.401536,0.56546 H 5.1278339 c -0.2211657,0 -0.4015355,-0.254004 -0.4015355,-0.56546 v -2.318608 c 0,-0.311568 0.1803698,-0.565459 0.4015355,-0.565459 z"
       fill="#a9b0bb"
       id="path1501-9"
       style="clip-rule:evenodd;fill-rule:evenodd;stroke-width:12.4522;fill:#21ab5d" />
  </g>
  <g
     inkscape:groupmode="layer"
     id="layer3"
     inkscape:label="helper_lines"
     style="display:none"
     sodipodi:insensitive="true">
    <circle
       style="opacity:0.594356;fill:none;stroke:#cec3ff;stroke-width:0.1;stroke-linecap:round;stroke-linejoin:round;stroke-miterlimit:4;stroke-dasharray:none;stroke-dashoffset:0;stroke-opacity:1;stop-color:#000000"
       id="path1371"
       cx="24"
       cy="24"
       r="24" />
    <circle
       style="display:inline;opacity:0.250356;fill:none;stroke:#cec3ff;stroke-width:0.0999995;stroke-linecap:round;stroke-linejoin:round;stroke-miterlimit:4;stroke-dasharray:none;stroke-dashoffset:0;stroke-opacity:1;stop-color:#000000"
       id="path1371-7"
       cx="24"
       cy="24"
       r="15.95" />
    <circle
       style="display:inline;opacity:0.594356;fill:none;stroke:#b3a3ff;stroke-width:0.2;stroke-linecap:round;stroke-linejoin:round;stroke-miterlimit:4;stroke-dasharray:none;stroke-dashoffset:0;stroke-opacity:1;stop-color:#000000"
       id="path1371-3"
       cx="24"
       cy="24"
       r="19.950001" />
    <path
       style="opacity:0.594356;fill:none;stroke:#b3a3ff;stroke-width:0.1;stroke-linecap:round;stroke-linejoin:round;stroke-miterlimit:4;stroke-dasharray:none;stroke-dashoffset:0;stroke-opacity:1;stop-color:#000000"
       d="M 0,0 C 48,48 48,48 48,48"
       id="path3612" />
    <path
       style="opacity:0.594356;fill:none;stroke:#b3a3ff;stroke-width:0.1;stroke-linecap:round;stroke-linejoin:round;stroke-miterlimit:4;stroke-dasharray:none;stroke-dashoffset:0;stroke-opacity:1;stop-color:#000000"
       d="M 48,0 C 0,48 0,48 0,48"
       id="path3614" />
  </g>
  <g
     inkscape:groupmode="layer"
     id="layer4"
     inkscape:label="helper_trim"
     style="display:none"
     sodipodi:insensitive="true">
    <path
       id="rect4286"
       style="opacity:1;fill:#ecf8e3;fill-opacity:1;stroke:none;stroke-width:0.2;stroke-linecap:round;stroke-linejoin:round;stroke-miterlimit:4;stroke-dasharray:none;stroke-dashoffset:0;stroke-opacity:1;stop-color:#000000"
       d="M 0,0 V 48 H 48 V 0 Z M 24,4.0507812 A 19.950001,19.950001 0 0 1 43.949219,24 19.950001,19.950001 0 0 1 24,43.949219 19.950001,19.950001 0 0 1 4.0507812,24 19.950001,19.950001 0 0 1 24,4.0507812 Z" />
  </g>
</svg>
