<svg xmlns="http://www.w3.org/2000/svg" shape-rendering="crispEdges" viewBox="0 0 48 48" width="48" height="48"><g style="display:inline"><path d="M12.063 5.998c-1.72 0-3.105 1.31-3.346 2.969H6.545c-2.18 0-3.77 2.241-3.004 4.304.592 1.597 2.003 2.565 3.588 3.028v1.836c0 1.295.364 2.472.867 3.533-.027.131-.06.224-.06.473v.216c0 2.208 1.431 3.987 3.347 4.772v2.9l.002.018v9.535c0 1.267 1.153 2.42 2.42 2.42h3.08c.579 0 1.107-.29 1.54-.672.432.383.96.672 1.54.672h3.08c1.268 0 2.42-1.153 2.42-2.42v-4.871h5.211v4.871c0 1.267 1.153 2.42 2.42 2.42h3.08c.58 0 1.109-.29 1.541-.672.432.382.96.672 1.54.672h3.081c1.268 0 2.42-1.153 2.42-2.42V18.705c0-4.333-3.556-7.887-7.888-7.887h-9.336c-.523-1.021-1.414-1.851-2.672-1.851H22.59c-.242-1.66-1.627-2.969-3.346-2.969h-.076c-1.72 0-3.103 1.311-3.344 2.969h-.342c-.24-1.658-1.623-2.969-3.343-2.969z" style="display:inline;fill:#a86b42;fill-opacity:1;stroke-width:12.8"/><path fill="#d88a55" d="M14.872 32.29a2.344 2.344 0 0 1-2.344-2.343v9.635h3.08v-7.291zm16.948 0h3.081v7.292h-3.08z" style="stroke-width:12.8" transform="translate(1.177)"/><path fill="#32569d" d="M31.82 37.14h3.081v2.442h-3.08z" style="stroke-width:12.8" transform="translate(1.177)"/><path fill="#ea9b58" d="M35.593 13.237H23.767a2.92 2.92 0 0 1-3.161.927l-.102-.033v4.004a6 6 0 0 1-.872 3.108c.093.283.144.585.144.898v.217a2.905 2.905 0 0 1-2.897 2.897h-4.35v4.692a2.344 2.344 0 0 0 2.343 2.344h3.036c.431 0 .78.35.78.78v6.511h3.081v-6.51c0-.431.35-.781.781-.781H37.2c.431 0 .781.35.781.78v6.511h3.08V18.706a5.47 5.47 0 0 0-5.468-5.469" style="stroke-width:12.8" transform="translate(1.177)"/><path fill="#e7b795" d="M11.983 11.388v-1.95c0-.561-.46-1.02-1.02-1.02h-.077c-.561 0-1.02.459-1.02 1.02v1.95zm7.107 0v-1.95c0-.561-.46-1.02-1.021-1.02h-.077c-.56 0-1.02.459-1.02 1.02v1.95z" style="stroke-width:12.8" transform="translate(1.177)"/><path fill="#f6a96c" d="M23.585 11.388h-3.003v2.851a3 3 0 0 0 3.74-1.809.78.78 0 0 0-.737-1.042m-15.212 0H5.37a.78.78 0 0 0-.737 1.042 3 3 0 0 0 3.74 1.809z" style="stroke-width:12.8" transform="translate(1.177)"/><path fill="#d88a55" d="M8.373 11.388v6.747c0 1.175.338 2.275.92 3.21a2.91 2.91 0 0 1 2.782-2.1h4.805c1.316 0 2.434.89 2.783 2.1a6.07 6.07 0 0 0 .919-3.21v-6.747z" style="stroke-width:12.8" transform="translate(1.177)"/><path fill="#edcab2" d="M16.88 25.255h-4.805a2.905 2.905 0 0 1-2.896-2.897v-.217a2.905 2.905 0 0 1 2.896-2.896h4.805a2.905 2.905 0 0 1 2.896 2.896v.217a2.905 2.905 0 0 1-2.896 2.897" style="stroke-width:12.8" transform="translate(1.177)"/><path fill="#32569d" d="M12.528 37.14h3.08v2.442h-3.08zm25.453 0h3.08v2.442h-3.08zm-19.292 0h3.08v2.442h-3.08z" style="stroke-width:12.8" transform="translate(1.177)"/><path d="M11.3 15.723v1.178a.586.586 0 1 0 1.172 0v-1.178a.586.586 0 1 0-1.172 0m5.183 0v1.178a.586.586 0 1 0 1.172 0v-1.178a.586.586 0 1 0-1.172 0m-3.568 5.66h-.937a.586.586 0 1 0 0 1.172h.937a.586.586 0 1 0 0-1.172m4.648.586a.586.586 0 0 0-.586-.586h-.937a.586.586 0 1 0 0 1.172h.937a.586.586 0 0 0 .586-.586" style="stroke-width:1" transform="translate(1.177)"/></g></svg>
