<svg xmlns="http://www.w3.org/2000/svg" shape-rendering="crispEdges" viewBox="0 0 48 48" width="48" height="48"><g style="display:inline"><path d="M23.888 14.758c-5.06.02-9.727 2.018-13.205 5.299h-.004q-.302.285-.592.584l-.021.023q-.318.327-.62.668l-.048.057a20 20 0 0 0-.524.623l-.076.093q-.26.327-.506.666l-.107.15q-.203.285-.397.577l-.058.088a19.3 19.3 0 0 0-2.23 4.707h-.004a19 19 0 0 0-.412 1.51l-.021.091q-.1.443-.178.893l-.012.065q-.083.48-.142.97c-.22 1.821-.115 2.928-.143 5.883v.863c0 .918.28 1.77.758 2.477v.002A4.45 4.45 0 0 0 7.703 42.8q.626.197 1.318.199h29.961a4.43 4.43 0 0 0 4.431-4.432v-4.393c0-.998-.08-1.98-.226-2.94h.006q-.047-.297-.102-.59v-.006q-.078-.423-.174-.838l-.002-.012-.005-.02a19 19 0 0 0-.6-2.064h-.006a19.4 19.4 0 0 0-2.031-4.12l-.084-.126a19 19 0 0 0-.405-.588l-.027-.039-.025-.033a20 20 0 0 0-.436-.578q-.016-.023-.033-.043a19 19 0 0 0-.549-.668l-.004-.004a20 20 0 0 0-.54-.604l-.024-.025-.01-.01-.008-.008q-.281-.298-.574-.584l-.021-.021-.208-.197h-.005a19.34 19.34 0 0 0-10.377-5.073q-1.546-.234-3.055-.226z" style="display:inline;fill:#cdcbd9;fill-opacity:1;stroke:#cdcbd9;stroke-width:5;stroke-linejoin:round;stroke-miterlimit:4;stroke-dasharray:none;stroke-opacity:1"/><path fill="#efedff" d="M26.943 15.399C15.966 13.724 6.024 21.526 4.732 32.236c-.22 1.822-.114 2.929-.142 5.883v.863a4.43 4.43 0 0 0 4.432 4.432h29.96a4.43 4.43 0 0 0 4.432-4.432V34.59c0-9.638-7.049-17.753-16.47-19.191" style="fill:#a8a6b2;fill-opacity:1;stroke-width:12.8001"/><path fill="#d4d4ff" d="M4.59 38.12v.862a4.43 4.43 0 0 0 4.432 4.432h29.96a4.43 4.43 0 0 0 4.432-4.432v-.863z" style="fill:#75758c;fill-opacity:1;stroke-width:12.8001"/><path fill="#51558c" d="M24.002 29.295c-5 0-9.09 3.9-9.393 8.824-.03.465-.014.72-.019 1.706a3.59 3.59 0 0 0 3.53 3.588h11.764a3.59 3.59 0 0 0 3.53-3.588v-1.117c0-5.197-4.212-9.413-9.412-9.413" style="stroke-width:12.8001"/><path fill="#efedff" d="M22.623 32.989a5.884 5.884 0 0 0-4.503 5.719v4.705h11.765v-4.705c0-3.804-3.558-6.61-7.262-5.719" style="stroke-width:12.8001"/><path fill="#b8c3ff" d="M12.238 30.471c0 .974-.79 1.765-1.765 1.765H4.732c.146-1.215.405-2.394.766-3.53h4.975c.975 0 1.765.79 1.765 1.765" style="fill:#8b93c1;fill-opacity:1;stroke-width:12.8001"/><path fill="#b8c3ff" d="M16.943 22.235c0 .974-.789 1.765-1.764 1.765H7.73a19.5 19.5 0 0 1 2.95-3.53h4.499c.975 0 1.764.79 1.764 1.765" style="fill:#8891bd;fill-opacity:1;stroke-width:12.8001"/><path fill="#d4d4ff" d="M40.274 24H34.59a1.764 1.764 0 1 1 0-3.53h2.735a19.5 19.5 0 0 1 2.95 3.53" style="fill:#797991;fill-opacity:1;stroke-width:12.8001"/><path fill="#d4d4ff" d="M42.31 28.118c.4 1.133.698 2.313.883 3.53h-7.426a1.764 1.764 0 1 1 0-3.53z" style="fill:#81819b;fill-opacity:1;stroke-width:12.8001"/></g></svg>
