<svg xmlns="http://www.w3.org/2000/svg" shape-rendering="crispEdges" viewBox="0 0 48 48" width="48" height="48"><g style="display:inline"><path d="M37.068 39.273H6.932l14.07-23.21a1.168 1.168 0 0 1 1.997 0z" style="display:inline;fill:#b48341;fill-opacity:1;stroke:#b48341;stroke-width:5;stroke-linecap:round;stroke-linejoin:round;stroke-miterlimit:4;stroke-dasharray:none;stroke-opacity:1"/><path d="M36.789 39.629H6.652l14.07-23.21a1.168 1.168 0 0 1 1.997 0z" style="fill:#fcb75b;stroke-width:1"/><path d="M36.789 39.629H6.652l14.07-23.21a1.168 1.168 0 0 1 1.997 0z" style="fill:#fed159;stroke-width:1"/><g style="stroke-width:12.8"><path d="M236.828 155.61a14.94 14.94 0 0 0-22.789 3.345L33.949 456.047h20.012l180.091-297.093a15 15 0 0 1 2.776-3.344" style="fill:#fcb75b;stroke-width:12.8" transform="translate(4 4)scale(.07813)"/><path d="M226.822 151.756c-4.936 0-9.873 2.399-12.782 7.198L33.949 456.048h192.873z" style="fill:#fcb75b;stroke-width:12.8" transform="translate(4 4)scale(.07813)"/></g><path d="m226.822 385.512-70.536 70.535h70.536z" style="fill:#a88a3a;stroke-width:12.8;fill-opacity:1" transform="translate(4 4)scale(.07813)"/></g></svg>
