<svg xmlns="http://www.w3.org/2000/svg" shape-rendering="crispEdges" viewBox="0 0 48 48" width="48" height="48"><g style="display:inline"><path d="m10.807 11.587-.508 1.305 4.156 1.78-5.773 8.34-1.775 2.471 1.036.942 1.533-2.204 4.886 1.084-2.103 2.38 1.148.802 1.43-1.414v3.085h1.398v-4.665l6.526-.543-2.186 2.988 1.132.828 2.58-3.527 1.879 2.116 2.965 7.835 1.237-.66-2.504-6.97 1.684-.14v3.035h1.401v-3.151l3.89-.323 2.77 4.114 1.095-.876-2.613-3.916 2.608-2.607 1.112.492.896-1.076-1.58-.881-7.72-7.724 2.8-1.62-.67-1.23-3.624 2.068v.002l-.012.005-4.65 2.656-9.49-2.712Z" style="display:inline;fill:#80b874;fill-opacity:1;stroke:#70a165;stroke-width:4.55004;stroke-linecap:round;stroke-linejoin:round;stroke-miterlimit:4;stroke-dasharray:none;stroke-opacity:1"/><path fill="#a08f6d" d="m21.633 28.946-1.13-.827 3.173-4.339a.7.7 0 0 1 .979-.152.7.7 0 0 1 .152.98z" style="stroke-width:15.4389"/><path fill="#3f5039" d="m15.463 14.521-6.305 9.107 6.305 1.402 8.697-.725 1.111-6.982z" style="stroke-width:15.4389"/><path fill="#8f5521" d="M29.475 25.73h1.4v4.904h-1.4z" style="stroke-width:15.4389"/><path fill="#70a165" d="m15.463 14.521 11.21 12.61 8.406-.7 3.503-3.503-8.407-8.407-4.904 2.802z" style="stroke-width:15.4389"/><path fill="#57704c" d="m30.175 14.521-4.904 2.802 8.933 3.853a13.52 13.52 0 0 1-8.44 3.915l-.843.07 1.751 1.97 8.407-.7 3.503-3.503z" style="stroke-width:15.4389"/><path d="m31.333 14.687 2.801-1.62-.67-1.23-3.624 2.069-.012.006-4.648 2.656-9.493-2.712-4.953-2.09-.508 1.307 4.156 1.779-5.773 8.34-1.775 2.471 1.037.943 1.532-2.205 4.886 1.085-2.103 2.377 1.148.804 1.429-1.415v3.086h1.4v-4.664l6.525-.543-2.186 2.988 1.131.827 2.58-3.527 1.88 2.115 2.966 7.835 1.236-.66-2.503-6.968 1.683-.14v3.033h1.4v-3.15l3.89-.324 2.772 4.114 1.094-.875-2.613-3.916 2.607-2.607 1.112.493.897-1.077-1.579-.882zm-16.57 2.077v7.392l-4.436-.985zm1.4 7.505v-7.905l6.542 7.36zm18.602 1.485-7.802.65-9.375-10.547 7.476 2.136 4.19 1.396.442-1.33-2.717-.905 3.08-1.76 7.533 7.534z" style="fill:#33402e;fill-opacity:1;stroke-width:1.30001"/></g></svg>
