<svg xmlns="http://www.w3.org/2000/svg" shape-rendering="crispEdges" viewBox="0 0 48 48" width="48" height="48"><g style="display:inline"><path d="M12.894 7.087a8 8 0 0 0-2.132.882c-.947.563-2.237 1.852-2.797 2.8a8.13 8.13 0 0 0 0 8.217c.56.949 1.856 2.21 2.637 2.99l.615.616a2 2 90.008 0 1 0 2.828l-.615.613c-.781.781-2.077 2.042-2.637 2.99a8.13 8.13 0 0 0 0 8.219c.56.949 1.85 2.239 2.799 2.799a8.13 8.13 0 0 0 8.207.005c.95-.559 1.58-1.222 1.582-1.224l2.048-2.018a2.01 2.01 0 0 1 2.83.003l.597.597c.78.78 2.041 2.076 2.99 2.637a8.13 8.13 0 0 0 8.218 0c.949-.56 2.239-1.85 2.799-2.8a8.13 8.13 0 0 0 0-8.218c-.56-.948-1.856-2.209-2.637-2.99l-.614-.613a2 2 89.992 0 1 0-2.828l.614-.615c.781-.781 2.077-2.042 2.637-2.99a8.13 8.13 0 0 0 0-8.217c-.56-.949-1.85-2.238-2.797-2.8a8 8 0 0 0-2.132-.883c-1.067-.27-2.89-.27-3.958 0a8 8 0 0 0-2.132.882c-.947.563-2.208 1.858-2.989 2.639l-.613.613a2 2 0 0 1-2.828 0l-.613-.613c-.781-.781-2.042-2.076-2.99-2.639a8 8 0 0 0-2.13-.882c-1.068-.27-2.892-.27-3.96 0m3.92 3.52c.842.382 2.01 1.587 2.792 2.368l1.796 1.796c.781.781 2.31 2.18 3.264 1.767.317-.137 1.15-.986 1.932-1.767l1.796-1.796c.781-.781 2.057-2.104 3.084-2.488.867-.325 2.59-.333 3.59.12.842.382 2.067 1.598 2.445 2.626a4.8 4.8 0 0 1 0 3.29c-.378 1.028-1.7 2.305-2.482 3.087l-1.798 1.798c-.781.781-2.18 2.31-1.767 3.264.137.317.986 1.15 1.767 1.931l1.798 1.798c.781.78 2.104 2.057 2.482 3.086a4.8 4.8 0 0 1 0 3.292c-.378 1.028-1.712 2.362-2.74 2.74a4.8 4.8 0 0 1-3.292 0c-1.028-.378-2.305-1.701-3.086-2.482l-1.788-1.789c-.78-.78-2.31-2.18-3.263-1.767-.323.14-1.155.998-1.93 1.784-.224.226-.475.452-.443.452l-.006.006-.01.01-1.425 1.403-1.339 1.315c-2.73 1.457-3.906 1.457-4.964 1.068-1.028-.378-2.362-1.712-2.74-2.74a4.8 4.8 0 0 1 0-3.292c.378-1.029 1.7-2.306 2.482-3.086l1.798-1.798c.781-.78 2.18-2.31 1.767-3.263-.137-.318-.986-1.15-1.767-1.932L12.97 19.61c-.781-.781-2.104-2.059-2.482-3.087a4.8 4.8 0 0 1 0-3.29c.378-1.028 1.71-2.362 2.737-2.746.867-.325 1.649-.3 1.649-.3z" style="color:#000;fill:#ff5353;stroke-linecap:round;stroke-linejoin:round;-inkscape-stroke:none"/><path d="M15.642 12.158a3.48 3.48 0 0 0-2.463 1.02 3.483 3.483 0 0 0 0 4.926l5.897 5.897-5.897 5.898a3.483 3.483 0 0 0 0 4.925 3.483 3.483 0 0 0 4.925 0l5.897-5.897 5.897 5.897a3.483 3.483 0 0 0 4.926 0 3.483 3.483 0 0 0 0-4.925L28.927 24l5.897-5.897a3.483 3.483 0 0 0 0-4.925 3.48 3.48 0 0 0-2.463-1.02 3.48 3.48 0 0 0-2.463 1.02l-5.897 5.897-5.897-5.897a3.48 3.48 0 0 0-2.462-1.02" style="color:#000;fill:#ffefef;fill-opacity:1;stroke:none;stroke-width:1.39331;stroke-linecap:round;stroke-linejoin:round;-inkscape-stroke:none"/><path d="m23.996 29.38 6.439 6.438a3.803 3.803 0 0 0 5.378-5.378l-6.439-6.438 6.439-6.439a3.803 3.803 0 0 0-5.378-5.377l-6.439 6.438-6.438-6.438a3.803 3.803 0 1 0-5.378 5.377l6.439 6.439-6.439 6.438a3.803 3.803 0 0 0 5.378 5.378l2.817-2.773z" style="color:#000;fill:none;stroke:#ff3a3a;stroke-width:3.34667;stroke-linecap:round;stroke-linejoin:round;stroke-miterlimit:4;stroke-dasharray:none;stroke-opacity:1"/></g></svg>
