<svg xmlns="http://www.w3.org/2000/svg" shape-rendering="crispEdges" viewBox="0 0 48 48" width="48" height="48"><g style="display:inline"><path d="M8 10.187v8h2.2v6.199H7.8v19.201h32.4V24.386h-1.8v-6.2H40v-8z" style="display:inline;fill:#98a4ab;fill-opacity:1;stroke:#98a4ab;stroke-width:5;stroke-linecap:round;stroke-linejoin:round;stroke-miterlimit:4;stroke-dasharray:none;stroke-opacity:1"/><path fill="#cfdfe8" d="M7.8 24.2h32.4v19.2H7.8Zm0 0" style="stroke-width:21.3334"/><path fill="#f4f4e6" d="M8 10h32v8H8Zm0 0" style="fill:#a5a59b;fill-opacity:1;stroke-width:21.3334"/><path fill="#2d75bb" d="M11.2 26.6H21v4.8h-9.8zm15.8 0h10.2v4.8H27Zm-16.2 7.2h4.8v4.8h-4.8zm21.6 0h4.8v4.8h-4.8zm0 0" style="stroke-width:21.3334"/><path fill="#aec7d3" d="M18 33.8h6v9.6h-6zm0 0" style="stroke-width:21.3334"/><path fill="#94b3bf" d="M24 33.8h6v9.6h-6zm0 0" style="stroke-width:21.3334"/><path fill="#394d5c" d="M7.8 41H18v2.4H7.8ZM30 41h10.2v2.4H30Zm0 0" style="stroke-width:21.3334"/><path fill="#394d5c" d="M10.2 18H16v6.2h-5.8zM32 18h6.4v6.2H32zm0 0" style="fill:#84847c;fill-opacity:1;stroke-width:21.3334"/><path d="M12.155 11.968H36.03v4.063H12.155z" style="fill:#95958d;fill-opacity:1;stroke:none;stroke-width:5;stroke-linecap:round;stroke-linejoin:round;stroke-miterlimit:4;stroke-dasharray:none;stroke-opacity:1;stop-color:#000"/></g></svg>
