<svg xmlns="http://www.w3.org/2000/svg" shape-rendering="crispEdges" viewBox="0 0 48 48" width="48" height="48"><g style="display:inline"><path d="m13.302 6.337-.443 9.633-8.12.376v25.273h27.63l.552-.044h10.197V16.302l-8.122-.299-.607-9.666Z" style="display:inline;fill:#fc5143;fill-opacity:1;stroke:#fc5143;stroke-width:5;stroke-linecap:round;stroke-linejoin:round;stroke-miterlimit:4;stroke-dasharray:none;stroke-opacity:1"/><path fill="#fc6559" d="M32.38 16.346h10.89v25.273H32.38Zm-27.631 0H15.64v25.273H4.75Z" style="stroke-width:92.0609"/><path fill="#fc8b7f" d="M14.925 8.478h18.15v33.141h-18.15Z" style="stroke-width:92.0609"/><path fill="#f6f2fb" d="M18.728 34.417h10.544v7.202H18.728Z" style="stroke-width:92.0609"/><path fill="#ffd740" d="M13.456 6.382h21.087V11H13.456Z" style="stroke-width:92.0609"/><path fill="#ece1f7" d="M39.477 32.331v1.631a1.76 1.76 0 0 1-1.758 1.758h-1.631v.782h4.171v-4.17Z" style="stroke-width:92.0609"/><path fill="#f7f2fc" d="M7.761 30.45h4.171v7H7.761Zm0-11.207h4.171v7H7.761Zm10.312-7.183h4.172v7h-4.172zm0 10.94h4.172v7h-4.172zm7.502 0h4.17v7h-4.17zm0-10.94h4.17v7h-4.17z" style="stroke-width:92.0609"/><path fill="#ffd740" d="M17.366 32.331h13.267v3.711H17.366Z" style="stroke-width:92.0609"/><path fill="#f7f2fc" d="M36.088 30.45h4.171v7h-4.171zm0-11.207h4.171v7h-4.171z" style="stroke-width:92.0609"/></g></svg>
