<svg xmlns="http://www.w3.org/2000/svg" shape-rendering="crispEdges" viewBox="0 0 48 48" width="48" height="48"><g style="display:inline"><path d="M24.13 12.629c-1.637.004-2.688 1.385-3.765 2.41-4.923 4.804-9.875 9.58-14.781 14.4-1.412 1.605-.964 4.37.907 5.42a3.62 3.62 0 0 0 2.325.49c-.013 4.514.026 9.057-.02 13.551-1.009.65-1.226 1.914-1.114 3.025-.108 1.127.087 2.42 1.115 3.08 1.175.756 2.639.323 3.95.438 8.656-.014 17.315.03 25.97-.021 1.463-.13 2.455-1.634 2.246-3.043.035-1.14.123-2.505-.885-3.29-.513-.33-.134-1.083-.25-1.602.003-4.045-.005-8.1.004-12.137 2.058.327 4.095-1.453 4.07-3.534.058-1.363-.81-2.517-1.814-3.343l-3.164-3.078v-6.153c1.112-.598 1.376-1.947 1.254-3.105.099-1.093-.06-2.354-1.044-3.02-1.138-.83-2.619-.385-3.92-.498-1.332.065-2.695-.132-4.007.102-1.327.329-2.05 1.765-1.863 3.063-.015.596-.8-.632-1.147-.825-1.06-1.04-2.151-2.368-3.783-2.34-.094-.025-.189.007-.283.01z" style="display:inline;fill:#b4becb;fill-opacity:1;stroke-width:2.01460004;stroke:#b4becb;stroke-miterlimit:4;stroke-dasharray:none;stroke-opacity:1" transform="matrix(1 0 0 .98556 -.13 -9.447)"/></g><g style="display:inline"><path fill="#dfebfa" d="M60.322-17.74 46.817-4.603v19.298h27.01V-4.603Z" style="display:inline;fill:#89919a;fill-opacity:1;stroke-width:12.7984" transform="translate(-36.322 25.968)"/><g style="display:inline;stroke-width:8.88903"><g style="stroke-width:8.88903"><path fill="#695d67" d="M361.903 42.635v62.701l55.362 53.853V42.635Z" style="stroke-width:113.779" transform="matrix(.12644 0 0 .10007 -14.76 3.07)"/></g></g><path fill="#ff656f" d="M77.41-5.397 61.45-20.922a1.62 1.62 0 0 0-2.256 0L43.234-5.397a1.618 1.618 0 1 0 2.256 2.32L60.1-17.29c.124-.12.32-.12.444 0l14.61 14.212a1.618 1.618 0 1 0 2.256-2.319" style="display:inline;fill:#ff656f;fill-opacity:1;stroke-width:12.7984" transform="translate(-36.322 25.968)"/><path fill="#7b6c79" d="M74.836-19.071v-2.21a.67.67 0 0 0-.668-.674h-6.751a.67.67 0 0 0-.669.674v2.21c0 .372.3.673.669.673h6.75c.37 0 .67-.301.67-.673" style="display:inline;stroke-width:12.7984" transform="translate(-36.322 25.968)"/><path fill="#43cb8e" d="M74.398 14.024H46.246c-.312 0-.564.29-.564.647v2.125c0 .357.252.647.564.647h28.152c.312 0 .565-.29.565-.647V14.67c0-.357-.253-.647-.565-.647" style="display:inline;stroke-width:12.7984" transform="translate(-36.322 25.968)"/><path fill="#ab6b51" d="M13.976 25.37h9.06v14.626h-9.06z" style="display:inline;stroke-width:12.7984"/></g></svg>
