<svg xmlns="http://www.w3.org/2000/svg" shape-rendering="crispEdges" viewBox="0 0 48 48" width="48" height="48"><g style="display:inline"><path d="M24 6.705a6.97 6.97 0 0 0-6.86 5.807h-5.333l-3.485 10.45v1.743c0 .962.78 1.742 1.742 1.742v15.098h27.871V26.447c.963 0 1.743-.78 1.743-1.742v-1.742l-3.485-10.451H30.87A6.97 6.97 0 0 0 24 6.705m-12.193 18c0 .204.037.4.101.582h-.203a1.7 1.7 0 0 0 .102-.582m3.484 0c0 .204.037.4.102.582h-.204a1.7 1.7 0 0 0 .102-.582m3.482 0c0 .204.037.4.102.582h-.203a1.7 1.7 0 0 0 .101-.582m3.485 0c0 .204.037.4.101.582h-.203a1.7 1.7 0 0 0 .102-.582m3.484 0c0 .204.037.4.102.582h-.203a1.7 1.7 0 0 0 .101-.582m3.485 0c0 .204.037.4.101.582h-.203a1.7 1.7 0 0 0 .102-.582m3.482 0c0 .204.037.4.102.582h-.204a1.7 1.7 0 0 0 .102-.582m3.484 0c0 .204.037.4.102.582h-.203a1.7 1.7 0 0 0 .101-.582" style="display:inline;fill:#fb7d88;fill-opacity:1;stroke:#fb7d88;stroke-width:4;stroke-linecap:round;stroke-linejoin:round;stroke-miterlimit:4;stroke-dasharray:none;stroke-opacity:1"/><path d="M10.065 25.161h27.871v16.258H10.065z" style="fill:#ececec;stroke-width:1"/><path d="M10.065 39.677h27.871v1.742H10.065z" style="fill:#b6c1ce;stroke-width:1"/><path d="M36.194 12.387H11.806L8.323 22.84v1.742a1.742 1.742 0 1 0 3.483 0 1.742 1.742 0 1 0 3.484 0 1.742 1.742 0 1 0 3.484 0 1.742 1.742 0 1 0 3.484 0 1.742 1.742 0 1 0 3.484 0 1.742 1.742 0 1 0 3.484 0 1.742 1.742 0 1 0 3.484 0 1.742 1.742 0 1 0 3.484 0 1.742 1.742 0 1 0 3.483 0V22.84Z" style="fill:#fb5968;stroke-width:1"/><circle cx="24" cy="13.548" r="6.968" style="fill:#ffeaa7;stroke-width:1"/><ellipse cx="24" cy="14" rx="4.5" ry="4.274" style="display:inline;fill:#fff2c8;fill-opacity:1;stroke-width:1"/><path d="M19.355 28.645h9.29v12.774h-9.29z" style="fill:#eabd8c;stroke-width:1"/><path d="M19.355 39.677h9.29v1.742h-9.29z" style="fill:#d3a06c;stroke-width:1"/></g></svg>
