<svg xmlns="http://www.w3.org/2000/svg" shape-rendering="crispEdges" viewBox="0 0 48 48" width="48" height="48"><g style="display:inline"><path d="M24.008 8.598c-.426 0-.852.15-1.193.45L7.217 22.85a1.802 1.802 0 0 0 2.39 2.7C19 35 33 32 38.412 25.55a1.81 1.81 0 0 0 2.543-.155 1.81 1.81 0 0 0-.157-2.545l-5.392-4.77v-7.082a1.2 1.2 0 0 0-1.2-1.2h-2.4a1.2 1.2 0 0 0-1.199 1.2v2.832l-5.405-4.78a1.8 1.8 0 0 0-1.194-.451Zm0 12.002a3.6 3.6 0 0 0-3.6 3.6c0 .21.02.423.061.63a5.395 5.395 0 0 0-4.859 5.371v4.2a2.406 2.406 0 0 0 2.4 2.4h1.2v4.201a2.399 2.399 0 1 0 4.799 0 2.399 2.399 0 1 0 4.799 0v-4.201h1.2a2.4 2.4 0 0 0 2.399-2.4v-4.2a5.395 5.395 0 0 0-4.86-5.37q.063-.313.061-.632a3.6 3.6 0 0 0-3.6-3.6z" style="display:inline;fill:#487e12;fill-opacity:1;fill-rule:evenodd;stroke:#487e12;stroke-width:5;stroke-miterlimit:4;stroke-dasharray:none;stroke-opacity:1"/><path d="M24 8.596c-.426 0-.852.15-1.193.45L7.209 22.849a1.802 1.802 0 0 0 2.389 2.7L24 12.804 38.404 25.55a1.81 1.81 0 0 0 2.543-.156 1.81 1.81 0 0 0-.156-2.545l-5.393-4.77v-7.082a1.2 1.2 0 0 0-1.199-1.2h-2.4a1.2 1.2 0 0 0-1.2 1.2v2.832l-5.406-4.781A1.8 1.8 0 0 0 24 8.596" style="fill:sienna;fill-opacity:1;fill-rule:evenodd;stroke-width:30.5283"/><path fill="#783e22" d="m23.1 13.6-.9-.797" style="fill-rule:evenodd;stroke-width:30.5283"/><path fill="#02a9f4" d="M24 32.599v8.4a2.4 2.4 0 1 1-4.799 0v-4.2h.6a1.8 1.8 0 0 0 1.8-1.8 1.825 1.825 0 0 0-1.8-1.8h-.6v-.6a2.4 2.4 0 0 1 2.4-2.4 2.447 2.447 0 0 1 2.4 2.4" style="fill:#539214;fill-opacity:1;fill-rule:evenodd;stroke-width:30.5283"/><path fill="#02a9f4" d="M26.4 35a1.8 1.8 0 0 0 1.8 1.8h.6V41a2.4 2.4 0 1 1-4.8 0v-8.401a2.4 2.4 0 0 1 2.4-2.4 2.435 2.435 0 0 1 2.4 2.4v.6h-.6a1.82 1.82 0 0 0-1.8 1.8" style="fill:#539214;fill-opacity:1;fill-rule:evenodd;stroke-width:30.5283"/><path fill="#ffe0b2" d="M27.6 24.198a3 3 0 0 1-.06.63 3.594 3.594 0 0 1-7.079 0 3 3 0 0 1-.06-.63 3.6 3.6 0 1 1 7.199 0" style="fill-rule:evenodd;stroke-width:30.5283"/><path fill="#60a917" d="M32.4 30.199v4.2a2.4 2.4 0 0 1-2.4 2.4h-1.8a1.8 1.8 0 0 1-1.8-1.8 1.82 1.82 0 0 1 1.8-1.8h.6v-.6a2.435 2.435 0 0 0-2.4-2.4 2.4 2.4 0 0 0-2.4 2.4 2.447 2.447 0 0 0-2.4-2.4 2.4 2.4 0 0 0-2.399 2.4v.6h.6a1.825 1.825 0 0 1 1.8 1.8 1.8 1.8 0 0 1-1.8 1.8h-1.8a2.405 2.405 0 0 1-2.4-2.4v-4.2a5.395 5.395 0 0 1 4.86-5.371 3.594 3.594 0 0 0 7.079 0 5.395 5.395 0 0 1 4.86 5.37" style="fill-rule:evenodd;stroke-width:30.5283"/></g></svg>
