<svg xmlns="http://www.w3.org/2000/svg" shape-rendering="crispEdges" viewBox="0 0 48 48" width="48" height="48"><g style="display:inline"><path d="M28.846 7.5 15.377 32.696h-5.82v3.6h9.674V40.3h6.101v-4.006h10.393V40.3h6.59v-4.006h1.252v-3.6h-1.243l-4.677-8.744V12.783h-5.975z" style="fill:#607fd2;fill-opacity:1;stroke:#607fd2;stroke-width:5;stroke-linecap:round;stroke-linejoin:round;stroke-miterlimit:4;stroke-dasharray:none;stroke-opacity:1"/><g style="stroke-width:12.8"><path fill="#6e91ef" d="m351.71 106.113 77.035 142.94v-142.94z" style="stroke-width:163.84" transform="translate(4 4)scale(.07813)"/></g><path fill="#e5ecf5" d="m28.696 7.006-13.47 25.196h26.947z" style="fill:#b2cff5;fill-opacity:1;stroke-width:12.8"/><path fill="#6e91ef" d="m28.694 11.908-10.85 20.294h21.699z" style="stroke-width:12.8"/><g style="fill:#92acef;fill-opacity:1;stroke-width:12.8"><path fill="#c2fef1" d="M271.193 263.475h89.766v98.511h-89.766z" style="fill:#92acef;fill-opacity:1;stroke-width:163.84" transform="translate(4 4)scale(.07813)"/></g><g style="stroke-width:10.6245"><path fill="#a7696a" d="M217.316 391.049h53.807v67.29h-53.807z" style="stroke-width:135.993" transform="matrix(.1134 0 0 .07813 -5.563 4)"/></g><g style="stroke-width:8.87633"><path fill="#a7696a" d="M458.473 391.049h30.033v90.894h-30.033z" style="stroke-width:113.617" transform="matrix(.21945 0 0 .05784 -65.037 11.934)"/></g><g style="stroke-width:11.0477"><path fill="#a7696a" d="M7.596 360.986h496.915v30.063H7.596Z" style="stroke-width:141.41" transform="matrix(.06844 0 0 .11971 8.886 -11.012)"/></g></g></svg>
