<svg xmlns="http://www.w3.org/2000/svg" shape-rendering="crispEdges" viewBox="0 0 48 48" width="48" height="48"><g style="display:inline"><path d="M24 6.5c-.416 0-.832.108-1.205.324L5.455 16.861a1.744 1.744 0 0 0-.635 2.383l.664 1.149a1.744 1.744 0 0 0 2.383.634l1.465-.847v19.482h29.336V20.18l1.465.847c.833.483 1.9.199 2.383-.634l.664-1.149c.482-.833.198-1.9-.635-2.383L25.205 6.824A2.4 2.4 0 0 0 24 6.5" style="display:inline;fill:#f9dcf9;fill-opacity:1;stroke:#f9dcf9;stroke-width:5;stroke-linecap:round;stroke-linejoin:round;stroke-miterlimit:4;stroke-dasharray:none;stroke-opacity:1"/><path fill="#f9f6f9" d="M38.667 17.425V39.69H9.333V17.425l2.546-1.473L24 8.934Z" style="stroke-width:12.8006;fill:#f9c8f9;fill-opacity:1"/><path fill="#e49542" d="M40.133 21.055 24 11.715l-16.133 9.34c-.833.482-1.9.198-2.382-.635l-.665-1.15a1.743 1.743 0 0 1 .635-2.382L22.795 6.85a2.4 2.4 0 0 1 2.41 0l17.34 10.038a1.743 1.743 0 0 1 .635 2.382l-.665 1.149a1.743 1.743 0 0 1-2.382.635" style="stroke-width:12.8006;fill:#e49542;fill-opacity:.75038856"/><path d="M24.055 15.357c-3.401-.093-6.583 2.61-7.03 5.985-.332 1.45.177 3.158 1.573 3.852.7.398 1.569.498 2.343.279-.21 1.113-.115 2.28-.06 3.41.348 1.861 2.51 3.06 4.263 2.322a3.2 3.2 0 0 0 1.993-2.47c3.013-1.423 4.642-5.145 3.627-8.32-.831-2.927-3.666-5.064-6.71-5.058m.033 6.352c.875.065.766 1.492-.112 1.419-.478.003-.987.302-.714-.38-.043-.512.214-1.125.826-1.039m-.284 11.451c-1.99.046-3.49 2.253-2.832 4.125.496 1.912 2.973 2.875 4.634 1.809 1.84-.98 2.106-3.82.5-5.139a3.1 3.1 0 0 0-2.302-.795" style="fill:#b894b8;fill-opacity:1;stroke-width:12.801;stroke-miterlimit:4;stroke-dasharray:none"/></g></svg>
