<svg xmlns="http://www.w3.org/2000/svg" viewBox="0 0 256 256" width="48" height="48"><path fill="#efefef" d="M185.231 149.801v-10.54l-58.56-26.68-58.56 26.68v10.54H3.991l28.41-60.1c1.16-2.44 4.97-2.88 6.83-.78l14.26 16.13c1.99 2.25 6.12 1.56 6.99-1.16l17.65-55.79c1.04-3.29 6.44-3.36 7.61-.11l14.14 39.32h-24.32c-.69 0-1.25.56-1.25 1.24v8.34c0 .7.56 1.25 1.25 1.25h30.15c.7 0 1.25-.55 1.25-1.25v-2.55c.94-.33 1.75-.98 2.17-1.95l16.89-38.57c1.06-2.44 4.79-2.98 6.74-.99l14.29 14.6c2.02 2.07 5.91 1.39 6.82-1.2l17.34-48.87c1.14-3.24 6.5-3.21 7.59.04l17.93 53.1c.8 2.37 4.18 3.24 6.37 1.65l13.99-10.17c2.2-1.59 5.58-.71 6.37 1.67l28.55 86.15z"/><path fill="#eee" d="M104.368 98.136v10.168L76.9 120.825V98.136z"/><path fill="#aeaeae" d="M76.9 98.136h27.468v9.185H76.9z"/><path fill="#efbf27" d="M185.231 139.261v88.159H68.111v-88.159l58.56-26.681z"/><path fill="#e7a523" d="M185.231 139.261v7.699l-58.56-26.69-58.56 26.681v-7.69l58.56-26.681z"/><path fill="#fc5d3d" d="m198.134 133.606-3.261 7.156a2.624 2.624 0 0 1-3.472 1.307l-6.173-2.813-58.557-26.684-58.557 26.684-6.173 2.813a2.625 2.625 0 0 1-3.472-1.307l-3.261-7.156a2.627 2.627 0 0 1 1.294-3.485l20.399-9.297 27.468-12.521 22.303-10.168 70.169 31.986a2.63 2.63 0 0 1 1.293 3.485"/><path fill="#71c1e8" d="M97.709 159.951h-11.35a3 3 0 0 1-3-3V145.6a3 3 0 0 1 3-3h11.35a3 3 0 0 1 3 3v11.35a3 3 0 0 1-3 3.001m34.637 0h-11.35a3 3 0 0 1-3-3V145.6a3 3 0 0 1 3-3h11.35a3 3 0 0 1 3 3v11.35a3 3 0 0 1-3 3.001m34.637 0h-11.35a3 3 0 0 1-3-3V145.6a3 3 0 0 1 3-3h11.35a3 3 0 0 1 3 3v11.35a3 3 0 0 1-3 3.001m-69.274 26.031h-11.35a3 3 0 0 1-3-3v-11.35a3 3 0 0 1 3-3h11.35a3 3 0 0 1 3 3v11.35a3 3 0 0 1-3 3m34.637 0h-11.35a3 3 0 0 1-3-3v-11.35a3 3 0 0 1 3-3h11.35a3 3 0 0 1 3 3v11.35a3 3 0 0 1-3 3m34.637 0h-11.35a3 3 0 0 1-3-3v-11.35a3 3 0 0 1 3-3h11.35a3 3 0 0 1 3 3v11.35a3 3 0 0 1-3 3m-69.274 26.032h-11.35a3 3 0 0 1-3-3v-11.35a3 3 0 0 1 3-3h11.35a3 3 0 0 1 3 3v11.35a3 3 0 0 1-3 3m42.743 15.405H112.89v-29.756a3 3 0 0 1 3-3h21.562a3 3 0 0 1 3 3zm26.531-15.405h-11.35a3 3 0 0 1-3-3v-11.35a3 3 0 0 1 3-3h11.35a3 3 0 0 1 3 3v11.35a3 3 0 0 1-3 3"/><path fill="#efefef" d="M190.787 241.201H62.554a2 2 0 0 1-2-2v-9.781a2 2 0 0 1 2-2h128.233a2 2 0 0 1 2 2v9.781a2 2 0 0 1-2 2"/><path fill="#fc5d3d" d="M106.961 88.551v8.34c0 .7-.55 1.25-1.25 1.25h-30.15c-.69 0-1.25-.55-1.25-1.25v-8.34c0-.68.56-1.24 1.25-1.24h30.15a1.24 1.24 0 0 1 1.25 1.24"/><path fill="#efbf27" d="M19.081 226.23h11.68v14.97h-11.68z"/><path fill="#e7a523" d="M19.081 226.23h11.68v7h-11.68z"/><path fill="#0bbe6e" d="M41.65 226.232H8.192a1.4 1.4 0 0 1-1.253-2.029l8.487-16.961H11.12a1.402 1.402 0 0 1-1.254-2.028L23.674 177.6c.517-1.033 1.991-1.033 2.507 0l13.795 27.614a1.4 1.4 0 0 1-1.254 2.028h-4.306l8.487 16.961a1.4 1.4 0 0 1-1.253 2.029"/><path fill="#efbf27" d="M222.581 226.23h11.68v14.97h-11.68z"/><path fill="#e7a523" d="M222.581 226.23h11.68v7h-11.68z"/><path fill="#0bbe6e" d="M245.15 226.232h-33.458a1.4 1.4 0 0 1-1.253-2.029l8.487-16.961h-4.305a1.402 1.402 0 0 1-1.254-2.028l13.807-27.614c.517-1.033 1.991-1.033 2.507 0l13.795 27.614a1.402 1.402 0 0 1-1.254 2.028h-4.306l8.487 16.961a1.4 1.4 0 0 1-1.253 2.029"/><path d="M104.499 41.353c-1.81-7.804-4.475-8.684-8.163-9.902-2.303-.761-2.309-4.037 0-4.8 3.543-1.167 6.311-1.922 8.164-9.903.603-2.601 4.322-2.594 4.923 0 1.812 7.804 4.339 8.639 8.164 9.903 2.303.761 2.309 4.037 0 4.799-6.353 2.099-7.073 5.203-8.163 9.902-.607 2.607-4.32 2.606-4.925.001"/><path fill="#f0c020" d="M110.865 29.112c-1.82 1.24-3.06 2.67-3.96 4.18-1.08-1.92-2.33-3.24-3.73-4.22 1.34-.96 2.64-2.32 3.78-4.37 1.12 2.03 2.44 3.4 3.91 4.41"/><path d="M44.468 182.3c-1.81-7.804-4.475-8.684-8.163-9.902-2.303-.761-2.309-4.037 0-4.8 3.543-1.167 6.311-1.922 8.164-9.903.603-2.601 4.322-2.594 4.923 0 1.812 7.804 4.339 8.639 8.164 9.903 2.303.761 2.309 4.037 0 4.799-6.353 2.099-7.073 5.203-8.163 9.902-.606 2.607-4.32 2.606-4.925.001"/><path fill="#f0c020" d="M50.835 170.059c-1.82 1.24-3.06 2.67-3.96 4.18-1.08-1.92-2.33-3.24-3.73-4.22 1.34-.96 2.64-2.32 3.78-4.37 1.12 2.03 2.44 3.4 3.91 4.41"/><path d="M206.609 182.3c-1.81-7.804-4.475-8.684-8.163-9.902-2.303-.761-2.309-4.037 0-4.8 3.543-1.167 6.311-1.922 8.164-9.903.603-2.601 4.322-2.594 4.923 0 1.812 7.804 4.339 8.639 8.164 9.903 2.303.761 2.309 4.037 0 4.799-6.353 2.099-7.073 5.203-8.163 9.902-.606 2.607-4.32 2.606-4.925.001"/><path fill="#f0c020" d="M212.976 170.059c-1.82 1.24-3.06 2.67-3.96 4.18-1.08-1.92-2.33-3.24-3.73-4.22 1.34-.96 2.64-2.32 3.78-4.37 1.12 2.03 2.44 3.4 3.91 4.41"/><path fill="#fff" d="M184.887 74.499 172.49 37.784a2.5 2.5 0 0 1 1.568-3.168 2.496 2.496 0 0 1 3.168 1.568l12.397 36.715a2.5 2.5 0 0 1-1.568 3.168 2.5 2.5 0 0 1-3.168-1.568m-46.77 1.676-8.283-8.464a2.5 2.5 0 0 1 .038-3.536 2.504 2.504 0 0 1 3.536.038l8.283 8.464a2.501 2.501 0 0 1-3.574 3.498m-93.992 37.154-8.421-9.525a2.5 2.5 0 1 1 3.746-3.312l8.421 9.525a2.5 2.5 0 1 1-3.746 3.312m191.664 27.257-.943-2.848a2.5 2.5 0 0 1 1.587-3.159 2.496 2.496 0 0 1 3.159 1.587l.943 2.848a2.499 2.499 0 1 1-4.746 1.572m-4.09-12.34-17.482-52.753a2.5 2.5 0 0 1 1.587-3.159 2.496 2.496 0 0 1 3.159 1.587l17.482 52.753a2.5 2.5 0 1 1-4.746 1.572M83.305 78.155l-3.34-9.289a2.5 2.5 0 0 1 4.705-1.691l3.34 9.289a2.5 2.5 0 0 1-4.705 1.691"/><circle cx="185.23" cy="179.26" r="2.5"/><path d="M167.631 116.81c.57-1.26.01-2.74-1.24-3.319-1.22-.551-2.76.029-3.31 1.239a2.497 2.497 0 0 0 1.239 3.311c1.321.597 2.755-.039 3.311-1.231m-64.422 28.791c0-3.032-2.467-5.5-5.5-5.5h-11.35a5.506 5.506 0 0 0-5.5 5.5v11.351c0 3.032 2.467 5.5 5.5 5.5H97.71c3.033 0 5.5-2.468 5.5-5.5zm-5 11.35a.5.5 0 0 1-.5.5h-11.35a.5.5 0 0 1-.5-.5V145.6a.5.5 0 0 1 .5-.5H97.71a.5.5 0 0 1 .5.5zm39.636-11.35c0-3.032-2.468-5.5-5.5-5.5h-11.35a5.506 5.506 0 0 0-5.5 5.5v11.351c0 3.032 2.467 5.5 5.5 5.5h11.35c3.032 0 5.5-2.468 5.5-5.5zm-5 11.35c0 .275-.225.5-.5.5h-11.35a.5.5 0 0 1-.5-.5V145.6a.5.5 0 0 1 .5-.5h11.35c.275 0 .5.225.5.5zm39.637-11.35c0-3.032-2.468-5.5-5.5-5.5h-11.35a5.507 5.507 0 0 0-5.5 5.5v11.351c0 3.032 2.468 5.5 5.5 5.5h11.35c3.032 0 5.5-2.468 5.5-5.5zm-5 11.35c0 .275-.225.5-.5.5h-11.35a.5.5 0 0 1-.5-.5V145.6c0-.275.225-.5.5-.5h11.35c.275 0 .5.225.5.5zm-64.273 14.681c0-3.032-2.467-5.5-5.5-5.5h-11.35a5.506 5.506 0 0 0-5.5 5.5v11.351c0 3.032 2.467 5.5 5.5 5.5H97.71c3.033 0 5.5-2.468 5.5-5.5zm-5 11.35a.5.5 0 0 1-.5.5h-11.35a.5.5 0 0 1-.5-.5v-11.351a.5.5 0 0 1 .5-.5H97.71a.5.5 0 0 1 .5.5zm34.136-16.85h-11.35a5.506 5.506 0 0 0-5.5 5.5v11.351c0 3.032 2.467 5.5 5.5 5.5h11.35c3.032 0 5.5-2.468 5.5-5.5v-11.351c0-3.032-2.467-5.5-5.5-5.5m.5 16.85c0 .275-.225.5-.5.5h-11.35a.5.5 0 0 1-.5-.5v-11.351a.5.5 0 0 1 .5-.5h11.35c.275 0 .5.225.5.5zm39.637-11.35c0-3.032-2.468-5.5-5.5-5.5h-11.35a5.507 5.507 0 0 0-5.5 5.5v11.351c0 3.032 2.468 5.5 5.5 5.5h11.35c3.032 0 5.5-2.468 5.5-5.5zm-5 11.35c0 .275-.225.5-.5.5h-11.35a.5.5 0 0 1-.5-.5v-11.351c0-.275.225-.5.5-.5h11.35c.275 0 .5.225.5.5zm-69.773 9.182h-11.35a5.506 5.506 0 0 0-5.5 5.5v11.35c0 3.032 2.467 5.5 5.5 5.5H97.71c3.033 0 5.5-2.468 5.5-5.5v-11.35a5.51 5.51 0 0 0-5.501-5.5m.5 16.85a.5.5 0 0 1-.5.5h-11.35a.5.5 0 0 1-.5-.5v-11.35a.5.5 0 0 1 .5-.5H97.71a.5.5 0 0 1 .5.5zm68.773-16.85h-11.35a5.507 5.507 0 0 0-5.5 5.5v11.35c0 3.032 2.468 5.5 5.5 5.5h11.35c3.032 0 5.5-2.468 5.5-5.5v-11.35c0-3.032-2.468-5.5-5.5-5.5m.5 16.85c0 .275-.225.5-.5.5h-11.35a.5.5 0 0 1-.5-.5v-11.35c0-.275.225-.5.5-.5h11.35c.275 0 .5.225.5.5zm58.352-146.152c-1.333-4.011-6.652-5.477-10.213-2.904l-13.989 10.17c-.9.654-2.307.239-2.532-.428l-17.929-53.095c-1.847-5.508-10.391-5.556-12.316-.081l-17.342 48.877c-.269.764-1.903 1.073-2.675.28L134.546 51.08c-3.202-3.267-9.058-2.308-10.815 1.737l-11.32 25.851a2.5 2.5 0 1 0 4.58 2.006l11.323-25.857c.328-.755 1.919-.996 2.66-.237l14.288 14.598c3.286 3.367 9.431 2.255 10.966-2.11l17.342-48.877c.365-1.038 2.536-.963 2.863.011l17.93 53.1c1.356 4.013 6.687 5.429 10.208 2.873l13.984-10.166c.909-.655 2.311-.241 2.533.43l28.55 86.15a2.5 2.5 0 1 0 4.746-1.572zM22.151 111.38c-1.21-.58-2.75-.021-3.33 1.189a2.515 2.515 0 0 0 1.2 3.33c1.207.587 2.716.07 3.33-1.199.573-1.23.069-2.737-1.2-3.32m5.469-5.71 7.04-14.9c.29-.755 2.003-.991 2.7-.189l14.26 16.13c3.166 3.577 9.653 2.688 11.24-2.061l17.65-55.79c.373-1.069 2.579-.976 2.88-.02l10.78 29.97c.45 1.26 1.92 1.96 3.19 1.51 1.3-.47 1.98-1.909 1.51-3.199l-10.78-29.98c-2.058-5.594-10.669-5.255-12.34.21l-17.66 55.79c-.121.756-1.967 1.123-2.73.25L41.1 87.26c-2.97-3.355-8.929-2.787-10.96 1.37l-7.04 14.899a2.49 2.49 0 0 0 1.19 3.33c1.211.58 2.761.011 3.33-1.189M3.99 152.3c.96 0 1.85-.56 2.26-1.43l12.82-27.12c.59-1.25.06-2.74-1.19-3.33-1.22-.58-2.76-.021-3.33 1.189l-12.82 27.12c-.611 1.286-.009 2.77 1.19 3.33.34.161.7.241 1.07.241"/><path d="M250.612 238.7h-13.851v-9.968h8.388c2.898 0 4.788-3.048 3.489-5.647l-6.676-13.343c3.473 0 4.95-3.242 3.749-5.645l-13.794-27.615c-1.438-2.876-5.544-2.873-6.98 0l-13.807 27.613c-1.205 2.409.278 5.646 3.748 5.646l-6.677 13.344c-1.297 2.599.593 5.646 3.49 5.646h8.39v9.968h-24.795v-9.28c0-2.481-2.019-4.5-4.5-4.5h-3.057v-35.66a2.5 2.5 0 0 0-5 0v35.66h-39.778v-27.256c0-3.032-2.468-5.5-5.5-5.5h-21.563a5.506 5.506 0 0 0-5.5 5.5v27.256h-39.78v-84.051l56.063-25.55 56.06 25.553v28.388a2.5 2.5 0 0 0 5 0V143.15l2.63 1.199c2.564 1.146 5.611.037 6.79-2.55l3.261-7.16c1.181-2.601.004-5.619-2.521-6.79l-22.399-10.21c-1.221-.55-2.761.03-3.311 1.24a2.49 2.49 0 0 0 1.24 3.31l22.38 10.21c.05.021.07.07.07.11 0 .01 0 .03-.011.06l-3.26 7.16a.124.124 0 0 1-.17.061l-64.72-29.49c-.66-.3-1.43-.3-2.08 0L60.9 139.8h-.04c-.05 0-.1-.03-.11-.07l-3.27-7.16c-.02-.04-.02-.04-.02-.06.01-.03.02-.09.08-.12l69.13-31.51 28.55 13.01c1.22.561 2.75-.02 3.311-1.229a2.507 2.507 0 0 0-1.24-3.311l-29.58-13.49c-.66-.3-1.42-.3-2.08 0l-18.763 8.554v-3.979c1.497-.49 2.589-1.884 2.589-3.543v-8.339a3.75 3.75 0 0 0-3.745-3.744H75.556a3.75 3.75 0 0 0-3.745 3.744v8.339c0 1.659 1.092 3.053 2.589 3.543v18.781l-18.939 8.634c-2.54 1.172-3.74 4.205-2.52 6.8l3.25 7.15c1.196 2.623 4.289 3.682 6.78 2.55l2.637-1.202v81.772h-3.053a4.505 4.505 0 0 0-4.5 4.5v9.28H33.261v-9.968h8.388c2.903 0 4.785-3.055 3.489-5.647l-6.677-13.343c3.472 0 4.952-3.24 3.75-5.645l-13.795-27.614c-1.437-2.879-5.542-2.875-6.979-.001L7.631 204.096c-1.208 2.415.285 5.646 3.749 5.646l-6.676 13.343c-1.299 2.597.59 5.647 3.489 5.647h8.39v9.968H5.39a2.5 2.5 0 1 0 0 5h245.222a2.5 2.5 0 1 0 0-5M101.868 106.693 79.4 116.936v-16.3h22.468zM76.811 89.809h27.646v5.827H76.811zM28.261 238.7h-6.68v-9.968h6.68zM9.97 223.732l7.691-15.371c.833-1.666-.384-3.619-2.236-3.619h-2.528l12.03-24.058 12.018 24.058h-2.529c-1.855 0-3.067 1.956-2.236 3.619l7.691 15.371zm105.419-26.068a.5.5 0 0 1 .5-.5h21.563c.275 0 .5.225.5.5v27.256h-22.563zm74.898 41.036H63.054v-8.78h127.232v8.78zm41.474 0h-6.68v-9.968h6.68zm-18.292-14.968 7.691-15.371c.833-1.666-.383-3.619-2.235-3.619h-2.527l12.029-24.059 12.018 24.059h-2.529c-1.855 0-3.067 1.956-2.235 3.619l7.691 15.371z"/></svg>
