<svg xmlns="http://www.w3.org/2000/svg" shape-rendering="crispEdges" viewBox="0 0 48 48" width="48" height="48"><g style="display:inline"><g fill-rule="evenodd" clip-rule="evenodd" style="stroke-width:12.4522"><g style="stroke-width:12.4522"><path fill="#636c77" d="M107.146 13.953h297.708c5.508 0 10 4.492 10 10v123.599c0 5.508-4.492 10-10 10H107.146c-5.508 0-10-4.492-10-10v-123.6c0-5.507 4.492-9.999 10-9.999" style="stroke-width:155.057" transform="translate(3.441 3.441)scale(.0803)"/><path fill="#fdcd56" d="m254.139 44.622-8.271 21.004a1.96 1.96 0 0 1-1.739 1.263l-22.531 1.376a1.965 1.965 0 0 0-1.78 1.378 1.97 1.97 0 0 0 .63 2.161l17.42 14.358c.614.506.863 1.274.664 2.044l-5.654 21.854c-.21.812.082 1.626.761 2.119a1.97 1.97 0 0 0 2.25.069l19.037-12.131a1.96 1.96 0 0 1 2.149 0l19.037 12.131a1.97 1.97 0 0 0 2.25-.069 1.97 1.97 0 0 0 .761-2.119l-5.654-21.854c-.199-.77.05-1.538.664-2.044l17.42-14.358a1.97 1.97 0 0 0 .63-2.161 1.97 1.97 0 0 0-1.78-1.378L267.87 66.89a1.96 1.96 0 0 1-1.739-1.263l-8.271-21.004a1.97 1.97 0 0 0-1.861-1.267 1.96 1.96 0 0 0-1.86 1.266m98.651 0-8.272 21.004a1.96 1.96 0 0 1-1.739 1.263l-22.531 1.376a1.965 1.965 0 0 0-1.78 1.378 1.97 1.97 0 0 0 .63 2.161l17.42 14.358c.614.506.863 1.274.664 2.044l-5.654 21.854c-.21.812.083 1.626.761 2.119a1.97 1.97 0 0 0 2.25.069l19.037-12.131a1.96 1.96 0 0 1 2.149 0l19.037 12.131a1.97 1.97 0 0 0 2.25-.069 1.97 1.97 0 0 0 .761-2.119l-5.654-21.854c-.199-.77.05-1.538.664-2.044l17.42-14.358a1.97 1.97 0 0 0 .63-2.161 1.97 1.97 0 0 0-1.78-1.378l-22.532-1.376a1.96 1.96 0 0 1-1.739-1.263l-8.272-21.004a1.97 1.97 0 0 0-1.861-1.267c-.839 0-1.552.487-1.859 1.267m-197.302 0-8.271 21.004a1.96 1.96 0 0 1-1.739 1.263l-22.531 1.376a1.965 1.965 0 0 0-1.78 1.378 1.97 1.97 0 0 0 .63 2.161l17.42 14.358c.614.506.863 1.274.664 2.044l-5.654 21.854c-.21.812.083 1.626.761 2.119a1.97 1.97 0 0 0 2.25.069l19.037-12.131a1.96 1.96 0 0 1 2.149 0l19.037 12.131a1.97 1.97 0 0 0 2.25-.069 1.97 1.97 0 0 0 .761-2.119l-5.654-21.854c-.199-.77.05-1.538.664-2.044l17.42-14.358a1.97 1.97 0 0 0 .63-2.161 1.97 1.97 0 0 0-1.78-1.378l-22.532-1.376a1.96 1.96 0 0 1-1.739-1.263l-8.271-21.004a1.97 1.97 0 0 0-1.861-1.267c-.839 0-1.554.487-1.861 1.267" style="stroke-width:155.057" transform="translate(3.441 3.441)scale(.0803)"/><path fill="#cad0d7" d="M463.28 150.921v323.03H48.719v-323.03c0-5.508 4.492-10 10-10H453.28c5.508 0 10 4.493 10 10" style="stroke-width:155.057" transform="translate(3.441 3.441)scale(.0803)"/><path fill="#d5a889" d="M204.8 323.453h102.4v159.343H204.8Z" style="stroke-width:155.057" transform="translate(3.441 3.441)scale(.0803)"/><path fill="#a4d4ff" d="M341.477 323.454h69.694v84.249h-69.694zm-241.559 0h69.694v84.249H99.918ZM87.774 201.149h336.452v47.898H87.774Z" style="stroke-width:155.057" transform="translate(3.441 3.441)scale(.0803)"/><path fill="#a9b0bb" d="M21 467.546h470c2.754 0 5 2.246 5 5v20.502c0 2.754-2.246 5-5 5H21a5.01 5.01 0 0 1-5-5v-20.502c0-2.755 2.246-5 5-5" style="stroke-width:155.057" transform="translate(3.441 3.441)scale(.0803)"/></g><path d="M489.003 491.044H23.002v-16.499h466.002v16.499zm-188.804-30.5h-88.398V330.455h88.398zm-244.48-312.62v312.62h142.083v-137.09a7 7 0 0 1 6.997-7h102.402a7 7 0 0 1 7.002 7v137.091h142.078v-312.62zm48.434-126.97h303.708v112.97H104.153ZM496 460.544h-25.72v-319.62c0-3.869-3.129-7-6.997-7H421.86V13.953a7 7 0 0 0-7.002-6.997H97.151a6.994 6.994 0 0 0-7.002 6.997v119.971H48.722a7.004 7.004 0 0 0-7.002 7v319.62H16a7.003 7.003 0 0 0-7.002 6.999v30.501c0 3.869 3.143 7 7.002 7h480a7 7 0 0 0 7.002-7v-30.501a7 7 0 0 0-7.002-6.999m-78.77-218.5h-70.122v-33.9h70.122zm-322.45-33.9h70.112v33.9H94.78Zm154.218 33.9H178.89v-33.9h70.108zm14.004-33.9h70.108v33.9h-70.108zm168.227 40.9a7 7 0 0 1-6.997 7.001H87.783a6.995 6.995 0 0 1-7.002-7.001v-47.899a7 7 0 0 1 7.002-7.001h336.449c3.859 0 6.997 3.141 6.997 7.001zm-268.62 151.661h-55.69v-70.25h55.69zm7.002-84.251a6.994 6.994 0 0 1 6.997 7v84.251a7 7 0 0 1-6.997 7H99.923a7 7 0 0 1-7.002-7v-84.251c0-3.869 3.129-7 7.002-7zm234.556 84.251h-55.685v-70.25h55.685zm7.002-84.251a6.995 6.995 0 0 1 7.002 7v84.251c0 3.86-3.129 7-7.002 7H341.48a7.004 7.004 0 0 1-7.002-7v-84.251c0-3.869 3.134-7 7.002-7zM367.351 81.575l8.611-7.101-11.133-.68a6.99 6.99 0 0 1-6.089-4.42l-4.089-10.37-4.08 10.37a7 7 0 0 1-6.089 4.42l-11.133.68 8.611 7.101a7.01 7.01 0 0 1 2.32 7.148l-2.79 10.801 9.402-5.999a7.02 7.02 0 0 1 7.529 0l9.402 5.999-2.79-10.801a6.98 6.98 0 0 1 2.318-7.148m33.429-15.16a7.01 7.01 0 0 0-6.23-4.831l-24.417-1.489-8.96-22.761a7.01 7.01 0 0 0-6.522-4.437 7 7 0 0 0-6.513 4.437l-8.959 22.761-24.417 1.489a7.02 7.02 0 0 0-6.239 4.831 7 7 0 0 0 2.207 7.56l18.883 15.56-6.131 23.689a7 7 0 0 0 2.659 7.411 7 7 0 0 0 7.882.239l20.629-13.139 20.638 13.139a6.9 6.9 0 0 0 3.76 1.101c1.44 0 2.889-.45 4.112-1.34a6.99 6.99 0 0 0 2.668-7.411l-6.131-23.689 18.883-15.56a7 7 0 0 0 2.198-7.56m-230.731 15.16 8.602-7.101-11.128-.68a6.98 6.98 0 0 1-6.079-4.42l-4.094-10.37-4.089 10.37a6.97 6.97 0 0 1-6.079 4.42l-11.129.68 8.602 7.101a6.99 6.99 0 0 1 2.324 7.148l-2.79 10.801 9.402-5.999a7 7 0 0 1 3.76-1.09c1.313 0 2.621.36 3.764 1.09l9.406 5.999-2.8-10.801a7 7 0 0 1 2.328-7.148m27.203-19.991-24.422-1.489-8.969-22.761a6.99 6.99 0 0 0-6.512-4.437 6.98 6.98 0 0 0-6.508 4.437l-8.969 22.761-24.422 1.489a7.01 7.01 0 0 0-6.23 4.831 7 7 0 0 0 2.212 7.56l18.879 15.56-6.131 23.689a6.99 6.99 0 0 0 2.659 7.411 7 7 0 0 0 7.882.239l20.629-13.139 20.634 13.139a6.93 6.93 0 0 0 3.769 1.101c1.44 0 2.889-.45 4.108-1.34a6.99 6.99 0 0 0 2.663-7.411l-6.131-23.689 18.878-15.56a7 7 0 0 0 2.212-7.56 7.01 7.01 0 0 0-6.231-4.831M268.7 81.575l8.602-7.101-11.129-.68a6.98 6.98 0 0 1-6.084-4.42L256 59.003l-4.08 10.37a6.99 6.99 0 0 1-6.089 4.42l-11.129.68 8.597 7.101a6.99 6.99 0 0 1 2.329 7.148l-2.79 10.801 9.402-5.999a7 7 0 0 1 7.519 0l9.411 5.999-2.8-10.801a7 7 0 0 1 2.33-7.147m27.203-19.991-24.422-1.489-8.959-22.761A7.01 7.01 0 0 0 256 32.897a6.99 6.99 0 0 0-6.508 4.437l-8.973 22.761-24.417 1.489a7.01 7.01 0 0 0-6.23 4.831 7 7 0 0 0 2.212 7.56l18.878 15.56-6.131 23.689a7 7 0 0 0 2.659 7.411 7 7 0 0 0 7.882.239L256 107.735l20.643 13.139a6.9 6.9 0 0 0 3.755 1.101c1.445 0 2.894-.45 4.113-1.34a6.99 6.99 0 0 0 2.659-7.411l-6.117-23.689 18.878-15.56a7 7 0 0 0 2.197-7.56 7 7 0 0 0-6.225-4.831" style="stroke-width:12.4522" transform="translate(3.441 3.441)scale(.0803)"/></g></g></svg>
