<svg xmlns="http://www.w3.org/2000/svg" shape-rendering="crispEdges" viewBox="0 0 48 48" width="48" height="48"><g style="display:inline"><g style="stroke-width:12.8"><path fill="#efedff" d="M293.675 145.907C153.167 124.464 25.914 224.339 9.366 361.426c-2.822 23.312-1.453 37.483-1.807 75.303v11.044c0 31.33 25.395 56.728 56.722 56.728H447.78c31.322 0 56.722-25.402 56.722-56.728v-56.226c-.001-123.359-90.227-227.234-210.827-245.64" style="stroke-width:163.841;fill:#a8a6b2;fill-opacity:1" transform="translate(4 4)scale(.07812)"/><path fill="#d4d4ff" d="M208.509 175.473c26.701-15.203 55.608-25.054 85.166-29.566C153.167 124.464 25.914 224.339 9.366 361.426c-2.822 23.312-1.453 37.483-1.807 75.303v11.044c0 31.33 25.395 56.728 56.722 56.728h18.587c.086-98.966.048-89.351.045-90.017-.049-11.702 7.248-22.137 18.219-26.206 20.08-7.449 34.427-26.802 34.427-49.444 0-10.075-6.45-22.302-13.296-32.443-5.827-8.632.404-20.269 10.818-20.269h9.213c35.938 0 62.269-34.729 50.848-69.223-5.232-15.804.9-33.189 15.367-41.426" style="stroke-width:163.841;fill:#84849f;fill-opacity:1" transform="translate(4 4)scale(.07812)"/><path fill="#d4d4ff" d="M7.559 436.728v11.044c0 31.326 25.399 56.728 56.722 56.728H447.78c31.322 0 56.722-25.402 56.722-56.728v-11.044z" style="stroke-width:163.841;fill:#75758c;fill-opacity:1" transform="translate(4 4)scale(.07812)"/><path fill="#b8c3ff" d="M7.559 436.728v11.044c0 31.326 25.399 56.728 56.722 56.728h18.587v-67.773z" style="stroke-width:163.841;fill:#4c5069;fill-opacity:1" transform="translate(4 4)scale(.07812)"/><path fill="#ff8e9e" d="M329.376 26.297 278.969 8.495c-11.204-3.946-22.94 4.358-22.94 16.235v59.128c0 11.878 11.736 20.181 22.94 16.235l50.407-17.802c26.414-9.316 26.414-46.676 0-55.994" style="stroke-width:163.841" transform="translate(4 4)scale(.07812)"/><path fill="#ea5b70" d="M289.293 12.141 278.97 8.496c-11.204-3.946-22.94 4.358-22.94 16.235v59.128c0 11.878 11.736 20.181 22.94 16.235l32.211-11.375c-24.506-17.852-32.851-49.584-21.888-76.578" style="stroke-width:163.841" transform="translate(4 4)scale(.07812)"/><path fill="#51558c" d="M256.03 323.774c-64 0-116.355 49.921-120.23 112.954-.384 5.953-.189 9.222-.241 21.838 0 25.121 20.159 45.523 45.176 45.925h150.588c25.018-.402 45.177-20.804 45.177-45.925v-14.308c.001-66.517-53.916-120.484-120.47-120.484" style="stroke-width:163.841" transform="translate(4 4)scale(.07812)"/><path fill="#384073" d="M272.129 324.848c-70.146-9.368-132.091 42.938-136.329 111.881-.384 5.953-.189 9.222-.241 21.838 0 25.121 20.159 45.523 45.176 45.925h47.049c-20.123-63.026-3.509-132.499 44.345-179.644" style="stroke-width:163.841" transform="translate(4 4)scale(.07812)"/><path fill="#efedff" d="M238.37 371.06c-33.059 7.951-57.634 37.697-57.634 73.199v60.232c.411.016 150.202.016 150.588 0v-60.232c0-48.693-45.541-84.602-92.954-73.199" style="stroke-width:163.841" transform="translate(4 4)scale(.07812)"/><path fill="#d4d4ff" d="M238.37 371.06c-33.059 7.951-57.634 37.697-57.634 73.199v60.232c.302.012-2.542.012 47.052.011-13.586-42.542-10.99-90.8 10.582-133.442" style="stroke-width:163.841" transform="translate(4 4)scale(.07812)"/><path fill="#b8c3ff" d="M105.442 338.835c0 12.465-10.1 22.591-22.588 22.591H9.366a246.6 246.6 0 0 1 9.808-45.182h63.679c12.479 0 22.589 10.11 22.589 22.591" style="stroke-width:163.841;fill:#8b93c1;fill-opacity:1" transform="translate(4 4)scale(.07812)"/><path fill="#b8c3ff" d="M165.677 233.411c0 12.465-10.1 22.591-22.588 22.591H47.746a249.8 249.8 0 0 1 37.748-45.182h57.595c12.478 0 22.588 10.11 22.588 22.591" style="stroke-width:163.841;fill:#8891bd;fill-opacity:1" transform="translate(4 4)scale(.07812)"/><path fill="#d4d4ff" d="M464.314 256.001H391.56c-12.479 0-22.588-10.111-22.588-22.591 0-12.412 10.048-22.591 22.588-22.591h35.007c14.227 13.412 26.972 28.653 37.747 45.182" style="stroke-width:163.841;fill:#797991;fill-opacity:1" transform="translate(4 4)scale(.07812)"/><path fill="#d4d4ff" d="M490.366 308.714a247 247 0 0 1 11.304 45.182h-95.051c-12.479 0-22.588-10.111-22.588-22.591 0-12.412 10.048-22.591 22.588-22.591z" style="stroke-width:163.841;fill:#81819b;fill-opacity:1" transform="translate(4 4)scale(.07812)"/><g style="stroke-width:12.8"><path d="M184.488 161.344c72.976-22.684 157.02-10.123 222.024 41.976H391.56c-8.037 0-15.594 3.13-21.276 8.814-18.869 18.872-5.567 51.368 21.276 51.368h68.62a240.3 240.3 0 0 1 19.299 37.712h-72.86c-16.63 0-30.088 13.459-30.088 30.091 0 16.592 13.497 30.091 30.088 30.091h88.51a244 244 0 0 1 1.795 23.818 7.5 7.5 0 0 0 7.493 7.307c4.257 0 7.609-3.51 7.501-7.693-3.493-136.081-112.968-245.249-248.388-249.16v-29.101a24.67 24.67 0 0 0 17.936.599l50.405-17.801c33.09-11.672 33.059-58.479.002-70.14L281.461 1.422C265.4-4.236 248.53 7.697 248.53 24.731v110.935c-23.36.672-46.367 4.476-68.495 11.354a7.501 7.501 0 0 0 4.453 14.324m222.13 185.051c-8.319 0-15.088-6.77-15.088-15.091 0-8.339 6.748-15.091 15.088-15.091h78.38a241 241 0 0 1 7.783 30.182zm43.341-97.894h-58.4c-13.732 0-19.911-16.519-10.669-25.762a15 15 0 0 1 10.669-4.42h31.997c.967.935 1.927 1.874 2.866 2.813a242.6 242.6 0 0 1 23.537 27.369M263.53 24.731c0-6.725 6.627-11.387 12.942-9.164l50.409 17.803c19.743 6.964 19.737 34.887-.002 41.851L276.478 93.02c-6.329 2.23-12.948-2.445-12.948-9.161z" style="stroke-width:12.8" transform="translate(4 4)scale(.07812)"/><path d="M504.501 412.662a7.5 7.5 0 0 0-7.5 7.5v9.066H383.11c-7.355-62.764-60.575-112.954-127.08-112.954-65.114 0-119.625 49.079-127.082 112.954H15.042c-.056-30.848-.297-46.307 1.047-60.303h66.764c16.591 0 30.088-13.499 30.088-30.091s-13.497-30.091-30.088-30.091H29.8A243 243 0 0 1 52.118 263.5h90.971c16.591 0 30.088-13.499 30.088-30.091s-13.497-30.091-30.088-30.091H105.69c14.387-11.574 30.159-21.554 47.082-29.592a7.5 7.5 0 0 0-6.435-13.549C69.606 196.623 12.789 270.925 1.905 360.659-.512 380.691.06 390.128.06 447.773c0 35.416 28.81 64.228 64.222 64.228H447.78c35.412 0 64.222-28.813 64.222-64.228v-27.611a7.5 7.5 0 0 0-7.501-7.5M256.03 331.274c62.625 0 112.971 50.794 112.971 112.984v14.308c0 18.242-12.976 33.717-30.177 37.531v-51.839c0-45.752-37.034-82.803-82.794-82.803-45.652 0-82.794 37.145-82.794 82.803v51.839c-17.201-3.813-30.177-19.285-30.177-37.5.051-12.403-.14-15.73.228-21.409 3.65-59.391 53.174-105.914 112.743-105.914m67.794 165.727H188.236v-52.743c0-37.387 30.412-67.803 67.794-67.803 37.46 0 67.794 30.333 67.794 67.803zM82.853 323.744c8.319 0 15.088 6.77 15.088 15.091s-6.769 15.091-15.088 15.091H17.987a236 236 0 0 1 6.825-30.182zm5.878-105.424h54.358c8.319 0 15.088 6.77 15.088 15.091s-6.769 15.091-15.088 15.091H62.365a245 245 0 0 1 26.366-30.182M15.059 447.773l-.001-3.544h113c-.012 2.425.026 8.218.001 14.338 0 15.021 6.338 28.682 16.467 38.435H64.281c-27.141-.001-49.222-22.085-49.222-49.229m432.72 49.228h-80.245c10.129-9.753 16.467-23.414 16.467-38.435v-14.338h113v3.544c0 27.145-22.081 49.229-49.222 49.229" style="stroke-width:12.8" transform="translate(4 4)scale(.07812)"/><path d="M185.835 188.229v12.048a7.5 7.5 0 0 0 7.5 7.5 7.5 7.5 0 0 0 7.5-7.5v-12.048a7.5 7.5 0 0 0-7.5-7.5 7.5 7.5 0 0 0-7.5 7.5m125.389 0v12.048a7.5 7.5 0 0 0 15 0v-12.048a7.5 7.5 0 0 0-15 0m-44.33 6.766c-5.74 6.603-15.996 6.595-21.729 0a7.5 7.5 0 0 0-11.32 9.842c11.721 13.481 32.661 13.465 44.369 0a7.5 7.5 0 1 0-11.32-9.842" style="stroke-width:12.8" transform="translate(4 4)scale(.07812)"/></g></g></g></svg>
