<svg xmlns="http://www.w3.org/2000/svg" shape-rendering="crispEdges" viewBox="0 0 48 48" width="48" height="48"><g style="display:inline"><g style="stroke-width:14.845"><path d="m144.717 145.58-56.615 81.78-79.098 87.007c-4.496 4.947-4.123 12.825.82 17.324h.002l11.842 10.768c4.948 4.498 12.83 4.122 17.328-.826l72.092-79.297 30.932 6.875-38.622 55.174v.002c-3.832 5.478-2.459 13.246 3.018 17.08l13.107 9.178h.002c5.479 3.832 13.246 2.459 17.08-3.018l19.13-27.33v55.705c.001 6.685 5.578 12.262 12.263 12.264h16.004c6.685-.002 12.262-5.579 12.264-12.264V274.648l36.46-3.039-9.09 12.428c-3.945 5.397-2.735 13.193 2.661 17.14l12.916 9.448c5.397 3.946 13.193 2.736 17.14-2.66l20.489-28.012 10.41 11.707 62.865 117.875c3.148 5.9 10.698 8.196 16.598 5.049l14.117-7.531h.002c5.897-3.148 8.193-10.693 5.049-16.592l-.002-.002-31.209-58.516c5.433-1.249 9.592-6.174 9.594-11.941v-24.688l26.654-2.22 57.254 71.568h.002c4.178 5.222 12.023 6.093 17.244 1.914l12.492-10 .002-.002c5.217-4.177 6.087-12.014 1.914-17.234h-.002l-52.668-65.836 14.084-14.086 33.784 28.152c5.136 4.281 12.996 3.567 17.277-1.57l10.244-12.293h-.002c4.282-5.138 3.567-12.999-1.572-17.28l-47.293-39.404-76.195-76.205s-16.337-12.618-31.234-26.422c-46.36 24.089-15.563 5.863-60.892 31.768l-102.886-29.398c-12.626-5.428-17.965-1.225-37.756 28.814zm196.45 16.295 5.763 5.763c-1.147-.977-3.023-2.365-4.522-2.865l-4.992-1.664zm5.616 5.57L411.34 232l-20.42 20.424-78.504 6.54-74.955-84.325 44.545 12.726 47.588 15.862v.002c6.343 2.112 13.399-1.418 15.513-7.76l5.061-15.182c1.55-4.652.02-9.653-3.385-12.842zm-150.517 21.862 36.966 41.588-36.966 3.084zm-40.532 11.57v29.857l-17.914-3.98z" style="color:#000;fill:#232d20;stroke:#000;stroke-width:7.71942;stroke-miterlimit:4;stroke-dasharray:none;stroke-opacity:1" transform="translate(2.478 3.947)scale(.0842)"/><path d="m156.174 142.072-62.25 89.916-79.428 87.371a4.845 4.845 0 0 0 .324 6.842l11.84 10.766a4.845 4.845 0 0 0 6.844-.326l74.99-82.485 45.97 10.217-44.984 64.268a4.845 4.845 0 0 0 1.192 6.746l13.107 9.175a4.845 4.845 0 0 0 6.746-1.19l32.631-46.624V376a4.845 4.845 0 0 0 4.844 4.844h16a4.845 4.845 0 0 0 4.844-4.844V267.818l59.478-4.957-18.693 25.557a4.845 4.845 0 0 0 1.05 6.77l12.915 9.445a4.845 4.845 0 0 0 6.77-1.051l25.915-35.432 17.106 19.239 63.281 118.652a4.845 4.845 0 0 0 6.555 1.994l14.117-7.531a4.845 4.845 0 0 0 1.994-6.553l-36.857-69.107H352a4.845 4.845 0 0 0 4.844-4.844v-31.516l37.402-3.115 59.725 74.656a4.845 4.845 0 0 0 6.81.756l12.492-10a4.845 4.845 0 0 0 .756-6.806l-56.816-71.022 23.574-23.576 38.99 32.49a4.845 4.845 0 0 0 6.825-.619l10.242-12.293a4.845 4.845 0 0 0-.621-6.824L448.67 222.51l-83.447-83.457s-14.434-21.766-27.373-14.332l-.016.02c.258-.15.327-.226-.336.18l.129-.077-51.3 29.316-106.223-30.351c-18.744-7.044-2.369 8.447-23.93 18.263m185.681 9.95L421.835 232l-27.589 27.596-84.912 7.074-94.38-106.182 69.245 19.785 47.74 15.913a4.845 4.845 0 0 0 6.127-3.065l5.059-15.18a4.845 4.845 0 0 0-3.064-6.127l-20.743-6.914zm-153.011 17.763 59.797 67.272-59.797 4.988zm-25.688 7.33v62.873l-37.722-8.383zm168 113.514v12.994l-6.636-12.443z" style="color:#000;fill:#232d21;-inkscape-stroke:none" transform="translate(2.478 3.947)scale(.0842)"/><path fill="#a08f6d" d="m126.554 340.588-7.958-5.982 51.83-84.31c2.534-3.62 7.668-4.996 11.288-2.462s2.563 2.478.03 6.098zm119.903-39.865-7.293-5.685 36.116-50.048c2.609-3.566 2.114-7.598 5.68-4.99a8 8 0 0 1 1.734 11.18z" style="stroke-width:176.3;fill:#7e6c49;fill-opacity:1" transform="translate(2.478 3.947)scale(.0842)"/><path fill="#8f5521" d="M336 264h16v56h-16z" style="stroke-width:176.3" transform="translate(2.478 3.947)scale(.0842)"/><path fill="#a08f6d" d="m29.919 333.382-6.685-6.494 80.677-87.253c2.972-3.269 7.157-8.136 10.426-5.164s.444 5.56-2.527 8.829z" style="stroke-width:176.3;fill:#7e6c49;fill-opacity:1" transform="translate(2.478 3.947)scale(.0842)"/><path fill="#8f5521" d="M168 169.222h16V376h-16z" style="stroke-width:163.644" transform="translate(2.478 3.947)scale(.0842)"/><path fill="#57704c" d="m344 136-56 32 102 44a154.43 154.43 0 0 1-96.373 44.7l-9.627.8 20 22.5 96-8 40-40z" style="stroke-width:176.3" transform="translate(2.478 3.947)scale(.0842)"/><g fill="#e0c999" style="stroke-width:176.3;stroke:none;fill:#7e6c49;fill-opacity:1"><path d="m367.766 400.312-66.78-122.959c-2.087-3.899-5.946-4.414-2.044-6.495a8 8 0 0 1 10.819 3.286l65.3 122.091zM457.753 357l-65.261-81.754a8 8 0 0 1 1.254-11.239c3.453-2.765 4.812 2.487 7.572 5.945l63.994 80.6zm25.125-78.854-46.56-38.415c-3.394-2.829-13.733-12.781-10.905-16.176 2.829-3.393 11.685 3.465 15.079 6.293l48.74 39.435z" style="stroke:none;stroke-width:14.845;fill:#7e6c49;fill-opacity:1" transform="translate(2.478 3.947)scale(.0842)"/></g><path fill="#3f5039" d="m176 136-72 104 72 16 99.31-8.276L288 168Z" style="stroke-width:176.3" transform="translate(2.478 3.947)scale(.0842)"/><path fill="#70a165" d="m176 136 128 144 96-8 40-40-96-96-56 32z" style="stroke-width:176.3" transform="translate(2.478 3.947)scale(.0842)"/></g></g></svg>
