<svg xmlns="http://www.w3.org/2000/svg" shape-rendering="crispEdges" viewBox="0 0 48 48" width="48" height="48"><g style="display:inline"><g style="stroke-width:12.8"><path d="M422.437 395.624c3.436 0 6.721.623 9.765 1.747v-55.158h-26.413v58.847a28.07 28.07 0 0 1 16.648-5.436" style="fill:#b78046;stroke-width:12.8" transform="translate(4 4)scale(.07813)"/><path d="M489.571 425.749a15 15 0 0 0-4.437.612c-1.843.544-3.84-.397-4.575-2.173-3.337-8.056-11.132-13.884-20.211-14.324a23 23 0 0 0-8.186 1.072c-2.169.697-4.472-.301-5.59-2.286-4.884-8.677-14.161-14.545-24.827-14.545-13.193 0-24.247 8.977-27.495 21.146l24.73 40.797h70.407c8.574 0 15.484-7.122 15.138-15.773-.32-7.951-6.998-14.429-14.954-14.526" style="fill:#99cc56;stroke-width:12.8" transform="translate(4 4)scale(.07813)"/><path d="M473.597 455.215c-.444-14.958-13.11-26.669-28.075-26.669H434.5a14.36 14.36 0 0 1-12.28-6.916l-14.453-23.842c-6.575 3.725-11.525 9.986-13.52 17.463l24.73 40.797h54.621c.002-.278.007-.554-.001-.833" style="fill:#8dbc42;stroke-width:12.8" transform="translate(4 4)scale(.07813)"/><path d="M493.959 338.193c-4.831-17.236-12.652-36.852-22.965-53.621-1.625-2.643.278-6.038 3.38-6.038h14.733c2.906 0 4.831-3.012 3.601-5.645-5.174-11.072-17.412-36.274-30.424-56.023-1.742-2.644.143-6.158 3.309-6.158h12.936c3.021 0 4.936-3.234 3.481-5.882-7.702-14.019-29.21-50.664-60.15-83.288a3.956 3.956 0 0 0-5.728 0c-12.591 13.275-24.618 27.216-33.79 40.028 11.47 16.791 19.501 30.872 23.381 38.002 1.233 2.267-.41 5.022-2.99 5.022H386.53c-2.724 0-4.331 3.035-2.819 5.301 14.333 21.482 27.908 49.683 33.087 60.828 1.048 2.254-.6 4.83-3.086 4.83h-17.944c-2.668 0-4.3 2.932-2.885 5.193 11.33 18.096 19.853 39.535 24.99 58.182.595 2.16-1.044 4.289-3.284 4.289h75.541c2.619-.001 4.536-2.498 3.829-5.02" style="fill:#56bb98;stroke-width:12.8" transform="translate(4 4)scale(.07813)"/><path d="M414.587 343.212h24.137a23.3 23.3 0 0 0-.57-9.6c-3.765-13.671-8.75-27.232-14.573-39.795a23.3 23.3 0 0 0 10.859-9.083c4.32-6.77 4.878-15.161 1.494-22.445-3.664-7.885-11.404-24.045-20.751-40.709a23.4 23.4 0 0 0 8.669-8.436c4.195-7.057 4.364-15.923.438-23.14-4.885-8.977-14.657-25.975-28.541-45.662-4.884 5.855-9.418 11.646-13.409 17.221 11.47 16.791 19.501 30.872 23.381 38.002 1.233 2.267-.41 5.022-2.99 5.022h-16.203c-2.724 0-4.331 3.035-2.82 5.301 14.334 21.482 27.908 49.683 33.087 60.828 1.047 2.254-.601 4.83-3.086 4.83h-17.943c-2.668 0-4.3 2.932-2.885 5.193 11.33 18.096 19.853 39.535 24.99 58.182.595 2.16-1.044 4.291-3.284 4.291" style="fill:#57aa8f;stroke-width:12.8" transform="translate(4 4)scale(.07813)"/><path d="M276.626 204.588h16.203c2.724 0 4.331 3.035 2.819 5.301-4.344 6.51-9.617 13.639-13.608 20.722l68.256 112.601h65.291c2.241 0 3.879-2.129 3.284-4.289-5.135-18.646-13.66-40.084-24.99-58.182-1.416-2.261.217-5.193 2.884-5.193h17.944c2.485 0 4.133-2.577 3.085-4.83-5.179-11.146-18.753-39.345-33.086-60.829-1.512-2.265.095-5.301 2.819-5.301h16.203c2.58 0 4.223-2.756 2.989-5.022-7.513-13.806-30.556-53.647-64.09-88.837a3.394 3.394 0 0 0-4.906 0c-33.534 35.189-56.575 75.031-64.09 88.837-1.231 2.266.412 5.022 2.993 5.022" style="fill:#54cca1;stroke-width:12.8" transform="translate(4 4)scale(.07813)"/><g style="stroke-width:12.8"><path d="M276.626 204.588h14.029L280.4 187.671a392 392 0 0 0-6.764 11.894c-1.234 2.267.409 5.023 2.99 5.023m73.67 138.624h24.389L294.71 211.278c-4.15 6.13-8.959 12.748-12.67 19.333z" style="fill:#56bb98;stroke-width:12.8" transform="translate(4 4)scale(.07813)"/></g><path d="M419.695 456.048H33.949L214.04 158.955a14.946 14.946 0 0 1 25.564 0z" style="fill:#fcb75b;stroke-width:12.8" transform="translate(4 4)scale(.07813)"/><path d="M419.695 456.048H33.949L214.04 158.955a14.946 14.946 0 0 1 25.564 0z" style="fill:#fed159;stroke-width:12.8" transform="translate(4 4)scale(.07813)"/><g style="stroke-width:12.8"><path d="M236.828 155.61a14.94 14.94 0 0 0-22.789 3.345L33.949 456.047h20.012l180.091-297.093a15 15 0 0 1 2.776-3.344" style="fill:#fcb75b;stroke-width:12.8" transform="translate(4 4)scale(.07813)"/><path d="M226.822 151.756c-4.936 0-9.873 2.399-12.782 7.198L33.949 456.048h192.873z" style="fill:#fcb75b;stroke-width:12.8" transform="translate(4 4)scale(.07813)"/></g><path d="M226.822 151.756c-4.936 0-9.873 2.399-12.782 7.198L33.949 456.047h20.334l172.538-284.632z" style="fill:#ed9a37;stroke-width:12.8" transform="translate(4 4)scale(.07813)"/><g style="stroke-width:12.8"><path d="M156.286 393.754v62.295l70.535-70.535h-62.295a8.24 8.24 0 0 0-8.24 8.24" style="fill:#fed159;stroke-width:12.8" transform="translate(4 4)scale(.07813)"/></g><path d="M156.286 456.047h70.536v-70.535z" style="fill:#616584;stroke-width:12.8" transform="translate(4 4)scale(.07813)"/><path d="M226.822 406.513v-21.001l-70.536 70.535h21.002z" style="fill:#4d5370;stroke-width:12.8" transform="translate(4 4)scale(.07813)"/><path d="M511.981 440.173c-.515-12.833-12.358-23.295-25.69-21.378-6.487-11.967-20.268-18.426-33.826-15.17a35.8 35.8 0 0 0-12.801-11.966V350.78h50.428c7.593 0 13.1-7.232 11.054-14.541l-.001-.003c-4.973-17.741-12.212-35.307-20.616-50.135h8.541c8.39 0 13.953-8.717 10.397-16.321-4.405-9.429-15.351-32.101-27.454-51.507h6.479c8.734 0 14.253-9.354 10.055-16.994-7.939-14.453-29.806-51.649-61.281-84.838-4.5-4.743-12.108-4.753-16.612 0-9.231 9.733-18.342 20.581-27.181 32.313-9.898-13.813-21.802-28.815-35.445-43.131-4.279-4.493-11.485-4.497-15.767-.001-31.584 33.142-53.86 69.966-63.453 87.168l-22.826-37.655c-4.103-6.768-11.279-10.811-19.194-10.811h-.002c-7.708 0-14.989 3.874-19.194 10.812L29.688 448.615H7.5a7.5 7.5 0 0 0-7.5 7.5 7.5 7.5 0 0 0 7.5 7.5h431.186a7.5 7.5 0 0 0 7.5-7.5 7.5 7.5 0 0 0-7.5-7.5h-14.804l-20.521-33.854c3.26-7.6 10.765-12.57 19.038-12.57 7.331 0 14.345 3.961 18.083 10.602 2.857 5.078 8.9 7.484 14.373 5.729 7.782-2.499 15.912 1.565 18.938 8.87a11.233 11.233 0 0 0 13.592 6.478c4.728-1.395 9.419 2.206 9.607 6.904a7.517 7.517 0 0 1-7.516 7.84h-15.787a7.5 7.5 0 0 0-7.5 7.5 7.5 7.5 0 0 0 7.5 7.5h15.787c12.783.002 23.02-10.598 22.505-23.441m-292.697 8.442h-44.927l44.927-44.927zm-55.534-10.608V393.82a.74.74 0 0 1 .74-.74h44.188zm55.534-59.927H164.49c-8.68 0-15.741 7.061-15.741 15.741v54.794H47.23l172.055-283.834V378.08Zm187.057 70.535H234.285V164.779c6.446 10.631 165.012 272.216 172.056 283.836M280.546 212.156h4.716a316 316 0 0 0-2.376 3.859zm84.031 138.623h33.674v45.844a36 36 0 0 0-3.579 3.803zm-9.093-15.001-63.78-105.216c3.526-6.105 6.93-11.624 10.147-16.443 4.836-7.245-.361-16.964-9.059-16.964h-9.228c9.672-16.996 29.369-48.707 56.576-78.02 21.474 23.134 41.135 50.945 56.573 78.019h-9.224c-8.712 0-13.886 9.729-9.06 16.965 11.982 17.958 23.488 40.849 29.774 53.995h-11.478c-8.56 0-13.769 9.446-9.243 16.673 9.619 15.359 17.404 33.705 22.608 50.991zm69.18 51.483c-3.737-.234-7.735.136-11.412 1.107v-37.589h11.412zm1.063-51.483c-5.415-19.255-13.226-37.714-21.766-52.663h10.713c7.961 0 13.242-8.273 9.889-15.492-4.751-10.226-16.503-34.668-29.54-55.467h8.674c8.272 0 13.531-8.843 9.578-16.108-5.579-10.25-12.753-22.206-20.805-34.279 8.605-11.713 17.489-22.53 26.49-32.253 25.692 27.75 44.437 57.896 53.506 73.756h-6.908a11.45 11.45 0 0 0-10.097 6.027 11.46 11.46 0 0 0 .523 11.759c11.109 16.86 21.766 38.063 27.51 50.042h-9.156a11.48 11.48 0 0 0-10.01 5.87 11.47 11.47 0 0 0 .24 11.598c8.317 13.523 15.632 30.135 20.817 47.21z" style="stroke-width:12.8" transform="translate(4 4)scale(.07813)"/></g></g></svg>
