<svg xmlns="http://www.w3.org/2000/svg" shape-rendering="crispEdges" viewBox="0 0 48 48" width="48" height="48"><circle cx="24" cy="24" r="15.503" style="fill:#ff5353;stroke:#000;stroke-width:.993536;stroke-miterlimit:4;stroke-dasharray:none;fill-opacity:1"/><path d="M23.496 8.496a16 16 0 0 0-1.326.096A15.503 15.503 0 0 1 36 24a15.503 15.503 0 0 1-14.004 15.396 16 16 0 0 0 1.5.108A15.503 15.503 0 0 0 39 24 15.503 15.503 0 0 0 23.496 8.496" style="fill:#730000;fill-opacity:.292003;stroke:none;stroke-width:.993536;stroke-miterlimit:4;stroke-dasharray:none"/><path d="M18 15.5a2.5 2.5 0 0 0-1.768.732 2.5 2.5 0 0 0 0 3.536L20.465 24l-4.233 4.232a2.5 2.5 0 0 0 0 3.536 2.5 2.5 0 0 0 3.536 0L24 27.535l4.232 4.233a2.5 2.5 0 0 0 3.536 0 2.5 2.5 0 0 0 0-3.536L27.535 24l4.233-4.232a2.5 2.5 0 0 0 0-3.536A2.5 2.5 0 0 0 30 15.5a2.5 2.5 0 0 0-1.768.732L24 20.465l-4.232-4.233A2.5 2.5 0 0 0 18 15.5" style="color:#000;fill:#ffefef;stroke-linecap:round;-inkscape-stroke:none;stroke:none;stroke-linejoin:round;fill-opacity:1"/><path d="m29.264 15.732-.054.543c.793 1.429.793 2.106.55 2.707-.206.509-.866 1.144-1.257 1.535l-2.818 2.818a1 1 90 0 0 0 1.414l2.818 2.818c.39.391 1.05 1.027 1.257 1.535a2.5 2.5 0 0 1 0 1.88c-.206.509-.446 1.399-.832 1.486 1.271.165 1.56.106 1.833-.002.51-.201 1.176-.86 1.382-1.369a2.5 2.5 0 0 0 0-1.88c-.206-.508-.866-1.144-1.256-1.534l-2.818-2.818a1 1 90 0 1 0-1.415l2.818-2.818c.39-.39 1.05-1.026 1.256-1.535a2.5 2.5 0 0 0 0-1.88c-.206-.508-.869-1.17-1.377-1.376-.49-.199-.94-.184-.94-.184z" style="color:#000;fill:#ffc4c4;fill-opacity:1;stroke:none;stroke-linecap:round;stroke-linejoin:round;-inkscape-stroke:none"/><path d="m22.41 29.18 1.586-1.645 4.233 4.233a2.5 2.5 0 0 0 3.535-3.536L27.532 24l4.232-4.232a2.5 2.5 0 0 0-3.535-3.536l-4.233 4.233-4.232-4.233a2.5 2.5 0 1 0-3.535 3.536L20.46 24l-4.232 4.232a2.5 2.5 0 0 0 3.535 3.536l1.058-1.059" style="color:#000;fill:none;stroke:#000;stroke-linecap:round;stroke-linejoin:round;-inkscape-stroke:none"/></svg>
