<svg xmlns="http://www.w3.org/2000/svg" shape-rendering="crispEdges" viewBox="0 0 48 48" width="48" height="48"><g style="display:inline"><g style="stroke-width:17.7778"><path fill="#cfdfe8" d="M24 216h432v256H24Zm0 0" style="stroke-width:284.445" transform="translate(6 8)scale(.075)"/><path fill="#f4f4e6" d="M8 8h464v128H8Zm0 0" style="stroke-width:284.445" transform="translate(6 8)scale(.075)"/><g fill="#da1c4b" style="stroke-width:284.445"><path d="M160 112h-32a8 8 0 0 1-8-8V40a8 8 0 0 1 8-8h32a8 8 0 0 1 8 8v64a8 8 0 0 1-8 8m-24-16h16V48h-16zm88 16h-40V96h32V80h-24a8 8 0 0 1-8-8V40a8 8 0 0 1 8-8h40v16h-32v16h24a8 8 0 0 1 8 8v32a8 8 0 0 1-8 8M88 64H72V32H56v80h16V80h16v32h16V32H88Zm160-16h16v64h16V48h16V32h-48zm112 0V32h-40a8 8 0 0 0-8 8v64a8 8 0 0 0 8 8h40V96h-32V80h32V64h-32V48Zm64 64h-40a8 8 0 0 1-8-8V32h16v64h32zm0 0" style="stroke-width:17.7778" transform="translate(6 8)scale(.075)"/></g><path fill="#2d75bb" d="M64 248h64v64H64Zm96 0h64v64h-64zm96 0h64v64h-64zm96 0h64v64h-64zM64 344h64v64H64Zm288 0h64v64h-64zm0 0" style="stroke-width:284.445" transform="translate(6 8)scale(.075)"/><path fill="#aec7d3" d="M160 344h80v128h-80zm0 0" style="stroke-width:284.445" transform="translate(6 8)scale(.075)"/><path fill="#94b3bf" d="M240 344h80v128h-80zm0 0" style="stroke-width:284.445" transform="translate(6 8)scale(.075)"/><path fill="#394d5c" d="M200 392h16v16h-16zm64 0h16v16h-16zM24 440h136v32H24Zm296 0h136v32H320ZM56 136h32v80H56Zm344 0h32v80h-32zm0 0" style="stroke-width:284.445" transform="translate(6 8)scale(.075)"/><path d="M472 0H8a8 8 0 0 0-8 8v128a8 8 0 0 0 8 8h40v64H24a8 8 0 0 0-8 8v256a8 8 0 0 0 8 8h432a8 8 0 0 0 8-8V216a8 8 0 0 0-8-8h-16v-64h32a8 8 0 0 0 8-8V8a8 8 0 0 0-8-8M64 144h16v64H64Zm328 0v64H96v-64ZM32 448h120v16H32Zm136-8v-88h64v112h-64zm80-88h64v112h-64Zm200 112H328v-16h120zm0-32H328v-88a8 8 0 0 0-8-8H160a8 8 0 0 0-8 8v88H32V224h416Zm-24-224h-16v-64h16zm40-80H16V16h448zm0 0" style="stroke-width:17.7778" transform="translate(6 8)scale(.075)"/><path d="M72 80h16v32h16V32H88v32H72V32H56v80h16zm56 32h32a8 8 0 0 0 8-8V40a8 8 0 0 0-8-8h-32a8 8 0 0 0-8 8v64a8 8 0 0 0 8 8m8-64h16v48h-16zm96 56V72a8 8 0 0 0-8-8h-24V48h32V32h-40a8 8 0 0 0-8 8v32a8 8 0 0 0 8 8h24v16h-32v16h40a8 8 0 0 0 8-8m32 8h16V48h16V32h-48v16h16zm56 0h40V96h-32V80h32V64h-32V48h32V32h-40a8 8 0 0 0-8 8v64a8 8 0 0 0 8 8m64 0h40V96h-32V32h-16v72a8 8 0 0 0 8 8M128 240H64a8 8 0 0 0-8 8v64a8 8 0 0 0 8 8h64a8 8 0 0 0 8-8v-64a8 8 0 0 0-8-8m-8 64H72v-48h48zm104-64h-64a8 8 0 0 0-8 8v64a8 8 0 0 0 8 8h64a8 8 0 0 0 8-8v-64a8 8 0 0 0-8-8m-8 64h-48v-48h48zm104-64h-64a8 8 0 0 0-8 8v64a8 8 0 0 0 8 8h64a8 8 0 0 0 8-8v-64a8 8 0 0 0-8-8m-8 64h-48v-48h48zm104-64h-64a8 8 0 0 0-8 8v64a8 8 0 0 0 8 8h64a8 8 0 0 0 8-8v-64a8 8 0 0 0-8-8m-8 64h-48v-48h48zm-280 32H64a8 8 0 0 0-8 8v64a8 8 0 0 0 8 8h64a8 8 0 0 0 8-8v-64a8 8 0 0 0-8-8m-8 64H72v-48h48zm296-64h-64a8 8 0 0 0-8 8v64a8 8 0 0 0 8 8h64a8 8 0 0 0 8-8v-64a8 8 0 0 0-8-8m-8 64h-48v-48h48zm-208-8h16v16h-16zm64 0h16v16h-16zm0 0" style="stroke-width:17.7778" transform="translate(6 8)scale(.075)"/></g></g></svg>
