<svg xmlns="http://www.w3.org/2000/svg" shape-rendering="crispEdges" viewBox="0 0 48 48" width="48" height="48"><g style="display:inline"><g style="stroke-width:11.5076" transform="translate(1.754 1.754)scale(.6952)"><path fill="#fc6559" d="M44.054 20.99h15.667v36.354H44.054Zm-39.746 0h15.667v36.354H4.308Z" style="stroke-width:132.425"/><path fill="#f05543" d="M44.054 20.99h3v36.354h-3zm-27.004 0h3v36.354h-3z" style="stroke-width:132.425"/><path fill="#fc8b7f" d="M18.946 9.672h26.109v47.672H18.946Z" style="stroke-width:132.425"/><path fill="#f6f2fb" d="M24.417 46.984h15.167v10.36H24.417Z" style="stroke-width:132.425"/><path fill="#eee6f8" d="M31.833 46.984h7.75v10.36h-7.75z" style="stroke-width:132.425"/><path fill="#ffd740" d="M16.833 6.657h30.333v4.015H16.833Z" style="stroke-width:132.425"/><path fill="#ffc93c" d="M45.75 6.657v.638a2.127 2.127 0 0 1-2.127 2.127h-26.79v1.25h30.334V6.657Z" style="stroke-width:132.425"/><path fill="#ece1f7" d="M54.263 43.984v2.346a2.53 2.53 0 0 1-2.529 2.529h-2.346v1.125h6v-6z" style="stroke-width:132.425"/><path fill="#f7f2fc" d="M8.641 43.984h6v6h-6zm0-9.414h6v6h-6zm0-9.413h6v6h-6zm14.834-.917h6v6h-6zm0-9.414h6v6h-6zm10.79 9.414h6v6h-6zm-10.79 9.027h6v6h-6zm10.79 0h6v6h-6zm0-18.441h6v6h-6z" style="stroke-width:132.425"/><path fill="#ffd740" d="M22.458 43.984h19.083v3H22.458Z" style="stroke-width:132.425"/><path fill="#ffc93c" d="M40.265 43.984a1.916 1.916 0 0 1-1.916 1.916H22.458v1.083h19.084v-3z" style="stroke-width:132.425"/><path fill="#f7f2fc" d="M49.388 43.984h6v6h-6zm0-18.827h6v6h-6zm0 9.413h6v6h-6z" style="stroke-width:132.425"/><g fill="#ece1f7" style="stroke-width:132.425"><path d="M54.263 34.57v2.346a2.53 2.53 0 0 1-2.529 2.529h-2.346v1.125h6v-6zm0-9.413V27.5a2.53 2.53 0 0 1-2.529 2.529h-2.346v1.125h6v-6zM39.14 14.826v2.346a2.53 2.53 0 0 1-2.53 2.528h-2.345v1.125h6v-6zm-10.79 0v2.346a2.53 2.53 0 0 1-2.53 2.528h-2.345v1.125h6v-6zm0 9.414v2.346a2.53 2.53 0 0 1-2.529 2.529h-2.346v1.125h6v-6zm0 9.027v2.346a2.53 2.53 0 0 1-2.529 2.529h-2.346v1.125h6v-6zm-14.834-8.11V27.5a2.53 2.53 0 0 1-2.529 2.529H8.641v1.125h6v-6zm0 9.413v2.346a2.53 2.53 0 0 1-2.529 2.529H8.641v1.125h6v-6zm0 9.414v2.346a2.53 2.53 0 0 1-2.529 2.529H8.641v1.125h6v-6zM39.14 24.24v2.346a2.53 2.53 0 0 1-2.529 2.529h-2.346v1.125h6v-6zm0 9.027v2.346a2.53 2.53 0 0 1-2.529 2.529h-2.346v1.125h6v-6z" style="stroke-width:11.5076"/></g><path fill="#ffeca5" d="M25.583 7.621h-2.754a.976.976 0 0 0-.892 1.043.976.976 0 0 0 .892 1.043h2.753a.976.976 0 0 0 .892-1.043.976.976 0 0 0-.891-1.043" style="stroke-width:132.425"/><circle cx="28.822" cy="8.664" r="1.043" fill="#ffeca5" style="stroke-width:132.425"/><path d="M23.375 6.656a1 1 0 0 1 1-1h.141a1 1 0 0 1 0 2h-.141a1 1 0 0 1-1-1M60.769 20.99v36.354a1 1 0 0 1-1 1H4.231a1 1 0 0 1-1-1V20.99a1 1 0 0 1 1-1h13.763v-8.318h-1.113a1 1 0 0 1-1-1V6.656a1 1 0 0 1 1-1h4.26a1 1 0 0 1 0 2h-3.26v2.016h28.333V7.656H27.547a1 1 0 0 1 0-2h19.667a1 1 0 0 1 1 1v4.016a1 1 0 0 1-1 1H46.1v8.318h13.669a1 1 0 0 1 1 1M17.994 56.344V21.99H5.231v34.354zm14.888-8.36v8.36h5.75v-8.36zm7.708-3H23.506v1h17.083zm-15.125 3v8.36h5.417v-8.36zm18.635 8.36V11.672H19.994v44.672h3.471v-8.36h-.958a1 1 0 0 1-1-1v-3a1 1 0 0 1 1-1h19.082a1 1 0 0 1 1 1v3a1 1 0 0 1-1 1h-.958v8.36zM58.769 21.99H46.1v34.354h12.669ZM48.436 49.983v-6a1 1 0 0 1 1-1h6a1 1 0 0 1 1 1v6a1 1 0 0 1-1 1h-6a1 1 0 0 1-1-1m2-1h4v-4h-4zm-2-8.413v-6a1 1 0 0 1 1-1h6a1 1 0 0 1 1 1v6a1 1 0 0 1-1 1h-6a1 1 0 0 1-1-1m2-1h4v-4h-4zm-2-8.414v-6a1 1 0 0 1 1-1h6a1 1 0 0 1 1 1v6a1 1 0 0 1-1 1h-6a1 1 0 0 1-1-1m2-1h4v-4h-4zM15.564 43.983v6a1 1 0 0 1-1 1h-6a1 1 0 0 1-1-1v-6a1 1 0 0 1 1-1h6a1 1 0 0 1 1 1m-2 1h-4v4h4zm2-10.413v6a1 1 0 0 1-1 1h-6a1 1 0 0 1-1-1v-6a1 1 0 0 1 1-1h6a1 1 0 0 1 1 1m-2 1h-4v4h4zm2-10.414v6a1 1 0 0 1-1 1h-6a1 1 0 0 1-1-1v-6a1 1 0 0 1 1-1h6a1 1 0 0 1 1 1m-2 1h-4v4h4zm16.958-1.916v6a1 1 0 0 1-1 1h-6a1 1 0 0 1-1-1v-6a1 1 0 0 1 1-1h6a1 1 0 0 1 1 1m-2 1h-4v4h4zm2-10.414v6a1 1 0 0 1-1 1h-6a1 1 0 0 1-1-1v-6a1 1 0 0 1 1-1h6a1 1 0 0 1 1 1m-2 1h-4v4h4zm12.79 8.414v6a1 1 0 0 1-1 1h-6a1 1 0 0 1-1-1v-6a1 1 0 0 1 1-1h6a1 1 0 0 1 1 1m-2 1h-4v4h4zm-8.79 8.027v6a1 1 0 0 1-1 1h-6a1 1 0 0 1-1-1v-6a1 1 0 0 1 1-1h6a1 1 0 0 1 1 1.001zm-2 1h-4v4h4zm12.79-1v6a1 1 0 0 1-1 1h-6a1 1 0 0 1-1-1v-6a1 1 0 0 1 1-1h6a1 1 0 0 1 1 1.001zm-2 1h-4v4h4zm2-19.441v6a1 1 0 0 1-1 1h-6a1 1 0 0 1-1-1v-6a1 1 0 0 1 1-1h6a1 1 0 0 1 1 1m-2 1h-4v4h4z" style="stroke-width:11.5076"/></g></g></svg>
