<svg xmlns="http://www.w3.org/2000/svg" shape-rendering="crispEdges" viewBox="0 0 48 48" width="48" height="48"><g style="display:inline"><g style="stroke-width:12.8"><g style="stroke-width:12.8" transform="translate(4 4)scale(.07812)"><g style="stroke-width:12.8"><path fill="#dfebfa" d="M255.949 54.053 83.061 222.227v247.044h345.777V222.227Z" style="fill:#89919a;fill-opacity:1;stroke-width:163.839"/></g><path fill="#b1dbfc" d="M124.063 247.45a21.84 21.84 0 0 1 6.612-15.655l154-149.8-28.726-27.942L83.061 222.227v247.045h41.003V247.45Z" style="fill:#737a82;fill-opacity:1;stroke-width:163.839"/><g style="stroke-width:12.8"><path fill="#695d67" d="M361.903 42.635v62.701l55.362 53.853V42.635Z" style="stroke-width:163.839"/></g><path fill="#544e55" d="M393.965 109.597a14.47 14.47 0 0 1-4.381-10.372v-56.59h-27.681v62.701l55.362 53.852v-26.926z" style="stroke-width:163.839"/><path fill="#ff656f" d="M474.705 212.062 270.389 13.318c-8.039-7.821-20.841-7.821-28.88 0L37.193 212.062c-8.199 7.974-8.38 21.086-.405 29.284s21.087 8.38 29.284.404L253.107 59.817a4.075 4.075 0 0 1 5.683 0L445.825 241.75c8.202 7.978 21.313 7.792 29.284-.404 7.976-8.199 7.795-21.31-.404-29.284" style="stroke-width:163.839"/><g style="stroke-width:12.8"><path fill="#ff4756" d="M253.107 59.817a4.04 4.04 0 0 1 2.53-1.125l18.205-17.708c5.376-5.23 12.878-6.943 19.665-5.178l-23.119-22.489c-8.039-7.821-20.841-7.821-28.88 0L37.193 212.062c-8.199 7.974-8.38 21.086-.405 29.284s21.087 8.38 29.284.404z" style="stroke-width:163.839"/></g><path fill="#7b6c79" d="M433.325 38.403v-23.72a7.23 7.23 0 0 0-7.232-7.231h-73.019a7.23 7.23 0 0 0-7.231 7.231v23.72a7.23 7.23 0 0 0 7.231 7.231h73.019a7.23 7.23 0 0 0 7.232-7.231" style="stroke-width:163.839"/><path fill="#695d67" d="M373.524 38.403v-23.72a7.23 7.23 0 0 1 7.231-7.231h-27.681a7.23 7.23 0 0 0-7.231 7.231v23.72a7.23 7.23 0 0 0 7.231 7.232h27.681a7.23 7.23 0 0 1-7.231-7.232" style="stroke-width:163.839"/><path fill="#ab6b51" d="M123.063 282.028h115.973v187.243H123.063Z" style="stroke-width:163.839"/><path fill="#965a44" d="M123.063 282.028h37.559v187.243h-37.559z" style="stroke-width:163.839"/><path fill="#60b8fe" d="M272.862 283.028v140.029a5.59 5.59 0 0 0 5.592 5.592h104.789a5.59 5.59 0 0 0 5.592-5.592V283.028Z" style="stroke-width:163.839"/><path fill="#23a8fe" d="M310.421 423.057V283.028h-37.559v140.029a5.59 5.59 0 0 0 5.592 5.592h37.559a5.59 5.59 0 0 1-5.592-5.592" style="stroke-width:163.839"/><path fill="#23a8fe" d="M383.243 247.616H278.454a5.59 5.59 0 0 0-5.592 5.592v30.82h115.973v-30.82a5.59 5.59 0 0 0-5.592-5.592" style="stroke-width:163.839"/><path fill="#0193fa" d="M316.013 247.616h-37.559a5.59 5.59 0 0 0-5.592 5.592v30.82h37.559v-30.82a5.59 5.59 0 0 1 5.592-5.592" style="stroke-width:163.839"/><path fill="#bc7c63" d="M233.444 247.616H128.655a5.59 5.59 0 0 0-5.592 5.592v30.821h115.973v-30.821a5.59 5.59 0 0 0-5.592-5.592" style="stroke-width:163.839"/><path fill="#ab6b51" d="M166.214 247.616h-37.559a5.59 5.59 0 0 0-5.592 5.592v30.821h37.559v-30.821a5.59 5.59 0 0 1 5.592-5.592" style="stroke-width:163.839"/><circle cx="198.619" cy="364.622" r="15.014" fill="#dfebfa" style="stroke-width:163.839"/><path fill="#43cb8e" d="M436.138 466.271H75.76a7.23 7.23 0 0 0-7.231 7.231v23.72a7.23 7.23 0 0 0 7.231 7.231h360.378a7.23 7.23 0 0 0 7.232-7.231v-23.72a7.23 7.23 0 0 0-7.232-7.231" style="stroke-width:163.839"/><path fill="#00ba66" d="M114.278 497.223v-23.72a7.23 7.23 0 0 1 7.231-7.231H75.76a7.23 7.23 0 0 0-7.231 7.231v23.72a7.23 7.23 0 0 0 7.231 7.232h45.75a7.233 7.233 0 0 1-7.232-7.232" style="stroke-width:163.839"/></g><g style="stroke-width:12.8"><path d="M31.494 246.682c10.882 11.187 28.736 11.402 39.89.551l4.258-4.142v215.796c-8.03.108-14.531 6.666-14.531 14.721v23.72c0 8.123 6.608 14.732 14.73 14.732H436.22c8.123 0 14.731-6.609 14.731-14.732v-23.72c0-8.056-6.502-14.613-14.532-14.721V243.091l4.258 4.142c11.332 11.021 29.153 10.489 39.89-.551 10.871-11.176 10.628-29.018-.551-39.89l-55.169-53.665v-47.14a7.5 7.5 0 0 0-7.5-7.5 7.5 7.5 0 0 0-7.5 7.5v32.549l-40.362-39.262V53.241h40.362v17.746a7.5 7.5 0 0 0 7.5 7.5 7.5 7.5 0 0 0 7.5-7.5V53.241c10.603 0 16.06-7.337 16.06-14.731V14.79c0-8.123-6.608-14.731-14.731-14.731h-73.019c-8.123 0-14.731 6.608-14.731 14.731v23.72c0 7.378 5.416 14.731 16.06 14.731v31.443L275.7 8.048c-11.03-10.731-28.31-10.73-39.34 0L32.045 206.792c-11.177 10.87-11.423 28.712-.551 39.89m404.457 250.379H76.11v-23.184h359.841ZM233.525 240.222H198.63a7.5 7.5 0 0 0-7.5 7.5c0 4.143 3.357 7.5 7.5 7.5h32.986v21.412H130.645v-21.412h32.986c4.143 0 7.5-3.357 7.5-7.5s-3.357-7.5-7.5-7.5h-34.895c-7.219 0-13.092 5.873-13.092 13.092v205.563H90.642V228.5L256.03 67.622 421.419 228.5v230.377H246.617V253.313c0-7.218-5.873-13.091-13.092-13.091m-1.908 51.412v167.243H130.645V291.634ZM353.425 38.241V15.058h72.481v23.183ZM42.504 217.544 246.819 18.8c5.165-5.025 13.255-5.025 18.422 0l204.315 198.745c5.234 5.088 5.348 13.444.258 18.678-5.108 5.252-13.466 5.328-18.679.258L261.26 51.783a7.5 7.5 0 0 0-10.459 0L60.924 236.481c-5.218 5.079-13.575 4.986-18.678-.259-5.09-5.233-4.976-13.588.258-18.678" style="stroke-width:12.8" transform="translate(4 4)scale(.07812)"/><path d="M278.535 436.255h104.789c7.219 0 13.092-5.873 13.092-13.092v-169.85c0-7.219-5.873-13.092-13.092-13.092H278.535c-7.219 0-13.092 5.873-13.092 13.092v169.85c0 7.219 5.873 13.092 13.092 13.092m102.881-15H338.43v-57.31h42.986zm0-72.31H338.43v-57.312h42.986zm-100.973-93.723h100.973v21.412H280.443Zm0 36.412h42.986v57.312h-42.986zm0 72.311h42.986v57.31h-42.986zM198.7 387.242c12.415 0 22.515-10.1 22.515-22.514s-10.1-22.515-22.515-22.515-22.515 10.1-22.515 22.515c.001 12.415 10.1 22.514 22.515 22.514m0-30.028c4.144 0 7.515 3.371 7.515 7.515 0 4.143-3.371 7.514-7.515 7.514s-7.515-3.371-7.515-7.514c.001-4.144 3.372-7.515 7.515-7.515" style="stroke-width:12.8" transform="translate(4 4)scale(.07812)"/></g></g></g></svg>
