<svg xmlns="http://www.w3.org/2000/svg" shape-rendering="crispEdges" viewBox="0 0 48 48" width="48" height="48"><g style="display:inline"><g style="stroke-width:14.2222"><g style="stroke-width:14.2222" transform="translate(6 7.802)scale(.0713)"><path d="M414.97 457.906H89.95v-297.51l162.51-86.01 162.51 86.01z" style="fill:#ff8431;stroke-width:14.2222"/><path d="M89.95 426.653h324.484v31.249H89.95zm0-170.126h324.484v31.249H89.95zm0 85.06h324.484v31.249H89.95zm0-173.491 162.51-87.53 162.51 87.53v56.79l-162.51-87.53-162.51 87.53z" style="fill:#db6a1d;stroke-width:14.2222"/><path d="m252.459 52.574 244.959 131.941-23.711 44.02-221.248-119.17-221.248 119.17L7.5 184.515z" style="fill:#ff8431;stroke-width:14.2222"/><circle cx="89.946" cy="415.371" r="42.531" style="fill:#ffa161;stroke-width:14.2222"/><circle cx="89.946" cy="330.308" r="42.531" style="fill:#ffa161;stroke-width:14.2222"/><circle cx="89.946" cy="245.246" r="42.531" style="fill:#ffa161;stroke-width:14.2222"/><circle cx="414.972" cy="415.371" r="42.531" style="fill:#ffa161;stroke-width:14.2222"/><circle cx="414.972" cy="330.308" r="42.531" style="fill:#ffa161;stroke-width:14.2222"/><circle cx="414.972" cy="245.246" r="42.531" style="fill:#ffa161;stroke-width:14.2222"/><path d="M168.144 239.517h168.629V389.75H168.144z" style="fill:#ccc;stroke-width:14.2222"/><path d="M193.145 264.517h118.629V364.75H193.145z" style="fill:#bde9ff;stroke-width:14.2222"/></g><g style="stroke-width:14.2222"><path d="M504.602 182.361a7.5 7.5 0 0 0-3.627-4.449C403.935 126.23 353.679 98.723 256.016 45.97a7.5 7.5 0 0 0-7.113 0l-156.139 84.1a7.5 7.5 0 0 0-3.046 10.16 7.5 7.5 0 0 0 10.16 3.046L252.46 61.091 487.259 187.56l-16.598 30.814-214.645-115.612a7.5 7.5 0 0 0-7.113 0L34.257 218.376 17.66 187.561l53.932-29.049a7.5 7.5 0 1 0-7.114-13.206L3.943 177.912a7.497 7.497 0 0 0-3.046 10.16l23.711 44.021a7.5 7.5 0 0 0 10.16 3.046l7.141-3.846a49.9 49.9 0 0 0-1.995 13.954c0 17.941 9.497 33.699 23.724 42.531-14.226 8.832-23.724 24.59-23.724 42.531s9.497 33.699 23.724 42.531c-14.226 8.832-23.724 24.59-23.724 42.531 0 27.587 22.444 50.031 50.031 50.031h233.267a7.5 7.5 0 0 0 0-15H125.621c8.871-9.032 14.356-21.401 14.356-35.031 0-13.632-5.487-26.002-14.36-35.035h35.027v9.414a7.5 7.5 0 0 0 7.5 7.5h168.629a7.5 7.5 0 0 0 7.5-7.5v-9.414H379.3c-8.873 9.033-14.36 21.403-14.36 35.035 0 13.63 5.485 25.999 14.356 35.031h-26.083a7.5 7.5 0 0 0 0 15h61.758c27.587 0 50.031-22.444 50.031-50.031 0-17.941-9.497-33.699-23.724-42.531 14.226-8.832 23.724-24.59 23.724-42.531s-9.497-33.699-23.724-42.531c14.226-8.832 23.724-24.59 23.724-42.531 0-4.843-.705-9.522-1.995-13.954l7.142 3.847a7.5 7.5 0 0 0 10.159-3.047l23.711-44.021a7.5 7.5 0 0 0 .583-5.711m-167.828 49.656h-168.63a7.5 7.5 0 0 0-7.5 7.5v40.759h-35.022c8.87-9.032 14.355-21.4 14.355-35.03s-5.485-25.999-14.357-35.032h253.676c-8.871 9.033-14.357 21.401-14.357 35.032s5.485 25.997 14.355 35.03h-35.022v-40.759a7.497 7.497 0 0 0-7.498-7.5m-84.315-114.133 143.569 77.33H108.89Zm-162.514 92.33c19.316 0 35.032 15.715 35.032 35.032 0 19.297-15.684 34.998-34.974 35.03h-.053l-.021.001c-19.309-.009-35.015-15.72-35.015-35.031 0-19.316 15.715-35.032 35.031-35.032m0 85.063c19.316 0 35.032 15.715 35.032 35.031 0 19.265-15.632 34.944-34.878 35.027h-.15l-.053.003c-19.294-.026-34.983-15.73-34.983-35.03.001-19.316 15.716-35.031 35.032-35.031M54.914 415.371c0-19.316 15.715-35.031 35.031-35.031s35.032 15.715 35.032 35.031-15.715 35.031-35.032 35.031-35.031-15.715-35.031-35.031m70.711-50.035c8.869-9.032 14.353-21.399 14.353-35.027 0-13.631-5.486-26-14.358-35.033h35.025v70.06zm50.019 16.914V247.017h153.629v40.681c0 .026-.004.051-.004.077s.004.051.004.077v84.905c0 .026-.004.051-.004.077s.004.051.004.077v9.337H175.644Zm168.63-86.974h35.025c-8.872 9.033-14.358 21.402-14.358 35.033 0 13.628 5.484 25.995 14.353 35.027h-35.02zm105.73 120.095c0 19.316-15.715 35.031-35.031 35.031s-35.032-15.715-35.032-35.031 15.715-35.031 35.032-35.031 35.031 15.715 35.031 35.031m0-85.063c0 19.3-15.688 35.003-34.981 35.03l-.052-.003h-.152c-19.245-.084-34.878-15.763-34.878-35.027 0-19.316 15.715-35.031 35.032-35.031s35.031 15.715 35.031 35.031m-35.014-50.031-.02-.001h-.055c-19.29-.031-34.974-15.733-34.974-35.03 0-19.316 15.715-35.032 35.032-35.032s35.031 15.715 35.031 35.032c0 19.31-15.706 35.021-35.014 35.031" style="stroke-width:14.2222" transform="translate(6 7.802)scale(.0713)"/><path d="M414.972 440.403c13.802 0 25.031-11.229 25.031-25.032a7.5 7.5 0 0 0-15 0c0 5.532-4.5 10.032-10.031 10.032s-10.031-4.5-10.031-10.032c0-5.531 4.5-10.031 10.031-10.031a7.5 7.5 0 0 0 0-15c-13.802 0-25.031 11.229-25.031 25.031 0 13.803 11.229 25.032 25.031 25.032m0-85.063c13.802 0 25.031-11.229 25.031-25.032a7.5 7.5 0 0 0-15 0c0 5.532-4.5 10.032-10.031 10.032s-10.031-4.5-10.031-10.032c0-5.531 4.5-10.031 10.031-10.031a7.5 7.5 0 0 0 0-15c-13.802 0-25.031 11.229-25.031 25.031 0 13.803 11.229 25.032 25.031 25.032m17.532-117.595a7.5 7.5 0 0 0-7.5 7.5c0 5.532-4.5 10.032-10.031 10.032s-10.031-4.5-10.031-10.032c0-5.531 4.5-10.031 10.031-10.031a7.5 7.5 0 0 0 0-15c-13.802 0-25.031 11.229-25.031 25.031 0 13.803 11.229 25.032 25.031 25.032s25.031-11.229 25.031-25.032a7.5 7.5 0 0 0-7.5-7.5M107.477 407.871a7.5 7.5 0 0 0-7.5 7.5c0 5.532-4.5 10.032-10.031 10.032s-10.031-4.5-10.031-10.032c0-5.531 4.5-10.031 10.031-10.031a7.5 7.5 0 0 0 0-15c-13.802 0-25.031 11.229-25.031 25.031 0 13.803 11.229 25.032 25.031 25.032s25.031-11.229 25.031-25.032a7.5 7.5 0 0 0-7.5-7.5M89.945 355.34c13.802 0 25.031-11.229 25.031-25.032a7.5 7.5 0 0 0-15 0c0 5.532-4.5 10.032-10.031 10.032s-10.031-4.5-10.031-10.032c0-5.531 4.5-10.031 10.031-10.031a7.5 7.5 0 0 0 0-15c-13.802 0-25.031 11.229-25.031 25.031 0 13.803 11.229 25.032 25.031 25.032m0-85.063c13.802 0 25.031-11.229 25.031-25.032a7.5 7.5 0 0 0-15 0c0 5.532-4.5 10.032-10.031 10.032s-10.031-4.5-10.031-10.032c0-5.531 4.5-10.031 10.031-10.031a7.5 7.5 0 0 0 0-15c-13.802 0-25.031 11.229-25.031 25.031 0 13.803 11.229 25.032 25.031 25.032m221.829-13.26H193.145a7.5 7.5 0 0 0-7.5 7.5V364.75a7.5 7.5 0 0 0 7.5 7.5h118.629a7.5 7.5 0 0 0 7.5-7.5V264.517a7.5 7.5 0 0 0-7.5-7.5m-7.5 50.116H259.96v-35.116h44.314zm-59.315-35.116v35.116h-44.314v-35.116zm-44.314 50.116h44.314v35.117h-44.314zm59.314 35.117v-35.117h44.314v35.117z" style="stroke-width:14.2222" transform="translate(6 7.802)scale(.0713)"/></g></g></g></svg>
