<svg xmlns="http://www.w3.org/2000/svg" shape-rendering="crispEdges" viewBox="0 0 48 48" width="48" height="48"><g style="display:inline"><g style="fill:none;fill-rule:evenodd;stroke-width:14.2226"><g style="stroke-width:14.2226"><path fill="#ff9801" d="M49 4v11.8l-8-7.08V4a2.006 2.006 0 0 1 2-2h4a2.006 2.006 0 0 1 2 2" style="stroke-width:50.8818" transform="matrix(.5999 0 0 .60006 6.003 8.596)"/><path fill="#f57c00" d="M47 2h-3a2.006 2.006 0 0 1 2 2v9.145l3 2.655V4a2.006 2.006 0 0 0-2-2" style="stroke-width:50.8818" transform="matrix(.5999 0 0 .60006 6.003 8.596)"/><path fill="sienna" d="M58.25 27.99a3.015 3.015 0 0 1-4.24.26L30 7.01 5.99 28.25a3.004 3.004 0 0 1-3.98-4.5l26-23c1.138-1 2.842-1 3.98 0L41 8.72l8 7.08 8.99 7.95a3.015 3.015 0 0 1 .26 4.24" style="stroke-width:50.8818" transform="matrix(.5999 0 0 .60006 6.003 8.596)"/><path fill="#783e22" d="M57.99 23.75 49 15.8l-8-7.08L31.99.75A3.01 3.01 0 0 0 28.5.4a3 3 0 0 1 .49.346L38 8.72l8 7.08 8.99 7.95a3.015 3.015 0 0 1 .26 4.24c-.22.24-.477.443-.762.6a3 3 0 0 0 3.5-4.842zM28.5 8.337 27 7.01" style="stroke-width:50.8818" transform="matrix(.5999 0 0 .60006 6.003 8.596)"/><path fill="#02a9f4" d="M30 40v14a4 4 0 1 1-8 0v-7h1a3 3 0 0 0 3-3 3.04 3.04 0 0 0-3-3h-1v-1a4 4 0 0 1 4-4 4.08 4.08 0 0 1 4 4" style="fill:#4d8713;fill-opacity:1;stroke-width:50.8818" transform="matrix(.5999 0 0 .60006 6.003 8.596)"/><path fill="#0377bc" d="M26 36a4 4 0 0 0-1.525.3A4.09 4.09 0 0 1 27 40v14a4 4 0 0 1-2.5 3.7A3.992 3.992 0 0 0 30 54V40a4.08 4.08 0 0 0-4-4" style="fill:#417110;fill-opacity:1;stroke-width:50.8818" transform="matrix(.5999 0 0 .60006 6.003 8.596)"/><path fill="#02a9f4" d="M34 44a3 3 0 0 0 3 3h1v7a4 4 0 1 1-8 0V40a4 4 0 0 1 4-4 4.06 4.06 0 0 1 4 4v1h-1a3.035 3.035 0 0 0-3 3" style="fill:#4d8713;fill-opacity:1;stroke-width:50.8818" transform="matrix(.5999 0 0 .60006 6.003 8.596)"/><path fill="#0377bc" d="M37 41h1v-1a4.06 4.06 0 0 0-4-4 4 4 0 0 0-1.519.3A4.06 4.06 0 0 1 35 40v1h-1a3.035 3.035 0 0 0-3 3 3 3 0 0 0 3 3h1v7a4 4 0 0 1-2.5 3.7A3.992 3.992 0 0 0 38 54v-7h-1a3 3 0 0 1-3-3 3.035 3.035 0 0 1 3-3" style="fill:#417110;fill-opacity:1;stroke-width:50.8818" transform="matrix(.5999 0 0 .60006 6.003 8.596)"/><path fill="#ffe0b2" d="M36 26q.003.53-.1 1.05a5.991 5.991 0 0 1-11.8 0A5.2 5.2 0 0 1 24 26a6 6 0 1 1 12 0" style="stroke-width:50.8818" transform="matrix(.5999 0 0 .60006 6.003 8.596)"/><path fill="#dfc49c" d="M30 20c-.506.003-1.01.07-1.5.2A6 6 0 0 1 33 26q.003.53-.1 1.05a5.98 5.98 0 0 1-4.4 4.737 5.9 5.9 0 0 0 7.4-4.737q.103-.52.1-1.05a6 6 0 0 0-6-6" style="stroke-width:50.8818" transform="matrix(.5999 0 0 .60006 6.003 8.596)"/><path fill="#60a917" d="M44 36v7a4 4 0 0 1-4 4h-3a3 3 0 0 1-3-3 3.035 3.035 0 0 1 3-3h1v-1a4.06 4.06 0 0 0-4-4 4 4 0 0 0-4 4 4.08 4.08 0 0 0-4-4 4 4 0 0 0-4 4v1h1a3.04 3.04 0 0 1 3 3 3 3 0 0 1-3 3h-3a4.01 4.01 0 0 1-4-4v-7a8.99 8.99 0 0 1 8.1-8.95 5.991 5.991 0 0 0 11.8 0A8.99 8.99 0 0 1 44 36" style="stroke-width:50.8818" transform="matrix(.5999 0 0 .60006 6.003 8.596)"/><g fill="#549414" style="stroke-width:50.8818"><path d="M23 41h-1v-1a4 4 0 0 1 2.475-3.7A3.8 3.8 0 0 0 23 36a4 4 0 0 0-4 4v1h1a3.04 3.04 0 0 1 3 3 3 3 0 0 1-3 3h3a3 3 0 0 0 3-3 3.04 3.04 0 0 0-3-3m4-9a6 6 0 0 0 1.5-.213 5.98 5.98 0 0 1-4.4-4.737 9 9 0 0 0-2.8.756A5.98 5.98 0 0 0 27 32m8.9-4.95q-.074.385-.2.756A8.98 8.98 0 0 1 41 36v7a4 4 0 0 1-4 4h3a4 4 0 0 0 4-4v-7a8.99 8.99 0 0 0-8.1-8.95m-3.419 9.25A3.9 3.9 0 0 0 31 36a3.97 3.97 0 0 0-2.523.919A4.02 4.02 0 0 1 30 40a4 4 0 0 1 2.481-3.7" style="stroke-width:14.2226" transform="matrix(.5999 0 0 .60006 6.003 8.596)"/></g><path fill="#ff9801" d="M59 51v2a5 5 0 0 1-5 5h-4a5 5 0 0 1-5-5v-2a1 1 0 0 1 1-1h12a1 1 0 0 1 1 1" style="stroke-width:50.8818" transform="matrix(.5999 0 0 .60006 6.003 8.596)"/><path fill="#f57c00" d="M58 50h-3a1 1 0 0 1 1 1v2a5 5 0 0 1-5 5h3a5 5 0 0 0 5-5v-2a1 1 0 0 0-1-1" style="stroke-width:50.8818" transform="matrix(.5999 0 0 .60006 6.003 8.596)"/><path fill="#ffdc00" d="M53 48a2.97 2.97 0 0 1-.77 2h-4.46a2.97 2.97 0 0 1-.77-2 3 3 0 0 1 3-3 3.01 3.01 0 0 1 3 3" style="stroke-width:50.8818" transform="matrix(.5999 0 0 .60006 6.003 8.596)"/><path fill="#fec108" d="M57 48a2.97 2.97 0 0 1-.77 2h-4a2.985 2.985 0 0 0-.23-4.23 2.97 2.97 0 0 1 2-.77 3 3 0 0 1 3 3" style="stroke-width:50.8818" transform="matrix(.5999 0 0 .60006 6.003 8.596)"/><path fill="#ff9801" d="M17 45.64V56a2.006 2.006 0 0 1-2 2H3a2.006 2.006 0 0 1-2-2V44a2.006 2.006 0 0 1 2-2h3v5a1 1 0 0 0 1 1h4a1 1 0 0 0 1-1v-5h3a2 2 0 0 1 1 .27V43a4 4 0 0 0 1 2.64" style="stroke-width:50.8818" transform="matrix(.5999 0 0 .60006 6.003 8.596)"/><path fill="#f57c00" d="M16 43v-.73a2 2 0 0 0-1-.27h-3a2 2 0 0 1 1 .27V43a4 4 0 0 0 1 2.64V56a2.006 2.006 0 0 1-2 2h3a2.006 2.006 0 0 0 2-2V45.64A4 4 0 0 1 16 43M4 48h3a1 1 0 0 1-1-1v-5H3v5a1 1 0 0 0 1 1" style="stroke-width:50.8818" transform="matrix(.5999 0 0 .60006 6.003 8.596)"/><path fill="sienna" d="M12 42v5a1 1 0 0 1-1 1H7a1 1 0 0 1-1-1v-5z" style="stroke-width:50.8818" transform="matrix(.5999 0 0 .60006 6.003 8.596)"/><path fill="#783e22" d="M9 42v5a1 1 0 0 1-1 1h3a1 1 0 0 0 1-1v-5z" style="stroke-width:50.8818" transform="matrix(.5999 0 0 .60006 6.003 8.596)"/></g><g fill="#000" style="stroke-width:50.8818"><g fill-rule="nonzero" style="stroke-width:182.03"><path d="M5 31a4 4 0 0 0 2.65-1L31 9.345 54.351 30a4.003 4.003 0 0 0 5.3-6L51 16.348V5a3 3 0 0 0-3-3h-4a3 3 0 0 0-3 3v2.5L33.649 1a4.03 4.03 0 0 0-5.3 0l-26 23A4 4 0 0 0 5 31M43 5a1 1 0 0 1 1-1h4a1 1 0 0 1 1 1v9.578L43 9.27ZM3.672 25.5l26-23a2.026 2.026 0 0 1 2.658 0l26 23a2.002 2.002 0 0 1-2.653 3L31.662 7.261a1 1 0 0 0-1.324 0L6.329 28.5a2.004 2.004 0 0 1-2.657-3M59 50h-.143A3.978 3.978 0 0 0 53 45.547 3.962 3.962 0 0 0 47.143 50H47a2 2 0 0 0-2 2v2a6.006 6.006 0 0 0 6 6h4a6.006 6.006 0 0 0 6-6v-2a2 2 0 0 0-2-2m-2-1c0 .352-.095.697-.274 1h-1.869a3.76 3.76 0 0 0-.37-2.924q.252-.072.513-.076a2 2 0 0 1 2 2m-8 0a2 2 0 0 1 3.343-1.476A1.98 1.98 0 0 1 52.726 50h-3.452A2 2 0 0 1 49 49m10 5a4 4 0 0 1-4 4h-4a4 4 0 0 1-4-4v-2h12z" style="stroke-width:14.2226" transform="matrix(.5999 0 0 .60006 5.403 7.996)"/><path d="M4 60h12a3 3 0 0 0 3-3v-8.424A4.95 4.95 0 0 0 21 49h1v6a4.985 4.985 0 0 0 9 2.969A4.985 4.985 0 0 0 40 55v-6h1a5.006 5.006 0 0 0 5-5v-7a9.95 9.95 0 0 0-8.01-9.8c0-.068.01-.135.01-.2a7 7 0 0 0-14 0c0 .069.008.136.01.2A9.95 9.95 0 0 0 16 37v5H4a3 3 0 0 0-3 3v12a3 3 0 0 0 3 3m23-2a3 3 0 0 1-3-3v-6a4 4 0 0 0 4-4 4.054 4.054 0 0 0-4-4 3 3 0 0 1 3-3 3.08 3.08 0 0 1 3 3v14a3 3 0 0 1-3 3m11-3a3 3 0 0 1-6 0V41a3 3 0 0 1 3-3 3.04 3.04 0 0 1 3 3 4.054 4.054 0 0 0-4 4 4 4 0 0 0 4 4zm-7-33a5 5 0 1 1 0 10 5 5 0 0 1 0-10M18 37a7.96 7.96 0 0 1 6.351-7.822 7 7 0 0 0 13.3 0A7.96 7.96 0 0 1 44 37v7a3 3 0 0 1-3 3h-3a2 2 0 0 1-2-2 2.027 2.027 0 0 1 2-2h3a1 1 0 1 0 0-2h-1a5.067 5.067 0 0 0-5-5 4.98 4.98 0 0 0-4.015 2.049A4.966 4.966 0 0 0 22 41h-1a1 1 0 1 0 0 2h3a2.053 2.053 0 0 1 2 2 2 2 0 0 1-2 2h-3a3 3 0 0 1-3-3zm-6 7v4H8v-4zm-9 1a1 1 0 0 1 1-1h2v4a2 2 0 0 0 2 2h4a2 2 0 0 0 2-2v-4h2a4.95 4.95 0 0 0 1 2.969V57a1 1 0 0 1-1 1H4a1 1 0 0 1-1-1Z" style="stroke-width:14.2226" transform="matrix(.5999 0 0 .60006 5.403 7.996)"/></g><path d="M6 56a1 1 0 0 0 1-1v-1a1 1 0 1 0-2 0v1a1 1 0 0 0 1 1m4 0a1 1 0 0 0 1-1v-1a1 1 0 1 0-2 0v1a1 1 0 0 0 1 1" style="stroke-width:14.2226" transform="matrix(.5999 0 0 .60006 5.403 7.996)"/></g></g></g></svg>
