<svg xmlns="http://www.w3.org/2000/svg" shape-rendering="crispEdges" viewBox="0 0 48 48" width="48" height="48"><g style="display:inline"><g style="stroke-width:12.8"><g style="stroke-width:12.8"><g style="stroke-width:12.8"><path fill="#a7696a" d="M83.652 286.113h30.033v74.872H83.652Z" style="stroke-width:163.84" transform="translate(4 4)scale(.07813)"/></g><g style="stroke-width:12.8"><path fill="#6e91ef" d="m351.71 106.113 77.035 142.94v-142.94z" style="stroke-width:163.84" transform="translate(4 4)scale(.07813)"/></g><g style="stroke-width:12.8"><path fill="#3d6dea" d="M375.907 106.113H351.71l77.035 142.94v-44.899z" style="stroke-width:163.84" transform="translate(4 4)scale(.07813)"/></g><g style="stroke-width:12.8"><path fill="#e5ecf5" d="M316.106 38.475 143.688 360.986h344.929z" style="stroke-width:163.84" transform="translate(4 4)scale(.07813)"/></g><g style="stroke-width:12.8"><path fill="#cad8eb" d="M476.771 338.839H180.386l58.796-109.979 6.614 3.821 7.595-14.206-6.611-3.827 81.759-152.931-12.433-23.242-172.418 322.511h344.929z" style="stroke-width:163.84" transform="translate(4 4)scale(.07813)"/></g><g style="stroke-width:12.8"><path fill="#6e91ef" d="M316.077 101.221 177.204 360.986H454.95c-.001 0-135.207-252.905-138.873-259.765" style="stroke-width:163.84" transform="translate(4 4)scale(.07813)"/></g><g style="stroke-width:12.8"><path fill="#3d6dea" d="M443.04 338.709H214.134l114.453-214.086-12.51-23.401-138.873 259.765H454.95z" style="stroke-width:163.84" transform="translate(4 4)scale(.07813)"/></g><g style="stroke-width:12.8"><path fill="#c2fef1" d="M271.193 263.475h89.766v98.511h-89.766z" style="stroke-width:163.84" transform="translate(4 4)scale(.07813)"/></g><g style="stroke-width:12.8"><path fill="#a7feeb" d="M293.491 338.709v-75.234h-22.298v98.511h89.766v-23.277z" style="stroke-width:163.84" transform="translate(4 4)scale(.07813)"/></g><g style="stroke-width:12.8"><path fill="#a7696a" d="M23.616 391.049h30.033v90.894H23.616Z" style="stroke-width:163.84" transform="translate(4 4)scale(.07813)"/></g><g style="stroke-width:12.8"><path fill="#a7696a" d="M23.616 270.091h30.033v90.894H23.616Z" style="stroke-width:163.84" transform="translate(4 4)scale(.07813)"/></g><g style="stroke-width:12.8"><path fill="#814b4c" d="M23.616 338.709h30.033v22.277H23.616Z" style="stroke-width:163.84" transform="translate(4 4)scale(.07813)"/></g><g style="stroke-width:12.8"><path fill="#814b4c" d="M23.616 459.666h30.033v22.277H23.616Z" style="stroke-width:163.84" transform="translate(4 4)scale(.07813)"/></g><g style="stroke-width:12.8"><path fill="#814b4c" d="M83.652 338.709h30.033v22.277H83.652Z" style="stroke-width:163.84" transform="translate(4 4)scale(.07813)"/></g><g style="stroke-width:12.8"><path fill="#a7696a" d="M113.544 391.049h30.033v90.894h-30.033z" style="stroke-width:163.84" transform="translate(4 4)scale(.07813)"/></g><g style="stroke-width:12.8"><path fill="#a7696a" d="M241.09 391.049h30.033v90.894H241.09Z" style="stroke-width:163.84" transform="translate(4 4)scale(.07813)"/></g><g style="stroke-width:12.8"><path fill="#814b4c" d="M113.544 459.666h30.033v22.277h-30.033z" style="stroke-width:163.84" transform="translate(4 4)scale(.07813)"/></g><g style="stroke-width:12.8"><path fill="#814b4c" d="M240.984 459.666h30.033v22.277h-30.033z" style="stroke-width:163.84" transform="translate(4 4)scale(.07813)"/></g><g style="stroke-width:12.8"><path fill="#a7696a" d="M458.473 391.049h30.033v90.894h-30.033z" style="stroke-width:163.84" transform="translate(4 4)scale(.07813)"/></g><g style="stroke-width:12.8"><path fill="#814b4c" d="M458.473 459.666h30.033v22.277h-30.033z" style="stroke-width:163.84" transform="translate(4 4)scale(.07813)"/></g><g style="stroke-width:12.8"><path fill="#a7696a" d="M7.596 360.986h496.915v30.063H7.596Z" style="stroke-width:163.84" transform="translate(4 4)scale(.07813)"/></g><g style="stroke-width:12.8"><path fill="#814b4c" d="M7.596 360.986h21.83v30.063H7.596Z" style="stroke-width:163.84" transform="translate(4 4)scale(.07813)"/></g><g style="stroke-width:12.8"><path fill="#fff" d="M293.5 285.975h15v15h-15z" style="stroke-width:163.84" transform="translate(4 4)scale(.07813)"/></g><g style="stroke-width:12.8"><path fill="#fff" d="M293.5 188.475h15v15h-15z" style="stroke-width:163.84" transform="translate(4 4)scale(.07813)"/></g><g style="stroke-width:12.8"><path fill="#fff" d="M323.5 188.475h15v15h-15z" style="stroke-width:163.84" transform="translate(4 4)scale(.07813)"/></g><g style="stroke-width:12.8"><path fill="#fff" d="M46.367 106.401h15v15h-15z" style="stroke-width:163.84" transform="translate(4 4)scale(.07813)"/></g></g><g style="stroke-width:12.8"><path d="M390.969 383.564h15.002v15.002h-15.002z" style="stroke-width:12.8" transform="translate(4 4)scale(.07813)"/><path d="M512 353.495h-18.903l-56.875-106.329V98.581h-79.479l-40.682-76.056-136.906 256.086H61.063v-15.024h-45.04v89.908H0v45.071h16.023v90.909h45.04v-16.066h44.792v16.066h45.263v-90.909h82.304v90.909h45.263v-90.909h97.282v-15.002H15.002v-15.066h481.995v15.066h-76.023v15.002h29.866v90.909h45.263v-90.909H512ZM31.026 474.472v-75.906h15.035v75.906zm30.037-75.906h44.792v14.923H61.063Zm0 59.84v-29.914h44.792v29.914zm75.052 16.066h-15.258v-75.906h15.258zm127.567 0h-15.258v-75.906h15.258zm157.537-360.889v105.536l-56.451-105.536ZM316.065 54.339l160.018 299.156h-16.659L316.037 85.28l-69.315 129.646 13.23 7.073 56.082-104.9 126.379 236.397h-73.947v-97.527H263.682v97.527h-74.029l62.703-117.288-13.231-7.073-66.485 124.361h-16.508zm37.398 299.156h-74.778v-82.524h74.778zm-214.342 0h-18.263v-59.882h50.277zm-33.266 0H91.072v-59.882h14.783zm-29.786-59.882v59.882H61.063v-59.882Zm-45.043-15.024h15.035v74.906H31.026Zm450.075 195.883h-15.258v-75.906h15.258z" style="stroke-width:12.8" transform="translate(4 4)scale(.07813)"/></g></g></g></svg>
