<svg xmlns="http://www.w3.org/2000/svg" shape-rendering="crispEdges" viewBox="0 0 48 48" width="48" height="48"><g style="display:inline"><g style="stroke-width:12.8"><g style="stroke-width:12.8"><path fill="#f9f6f9" d="M443.721 171.838v284.964H68.259V171.838l32.589-18.864 155.136-89.821z" style="stroke-width:163.841" transform="translate(4 4)scale(.07813)"/><path fill="#dddaec" d="M443.721 171.838v61.741L255.984 124.894 68.259 233.579v-61.741l32.589-18.864 155.136-89.821z" style="stroke-width:163.841" transform="translate(4 4)scale(.07813)"/><path fill="#dddaec" d="M100.848 152.974v303.828H68.259V171.838Z" style="stroke-width:163.841" transform="translate(4 4)scale(.07813)"/><path fill="#e49542" d="M462.485 218.293 255.988 98.745 49.491 218.293c-10.662 6.173-24.31 2.533-30.483-8.129l-8.512-14.704c-6.173-10.662-2.533-24.31 8.129-30.483l221.93-128.482a30.8 30.8 0 0 1 30.865 0l221.931 128.482c10.662 6.173 14.302 19.82 8.129 30.483l-8.512 14.704c-6.173 10.662-19.82 14.301-30.483 8.129" style="stroke-width:163.841" transform="translate(4 4)scale(.07813)"/><path fill="#e27d47" d="M282.372 42.849c-5.039.148-10.054 1.515-14.551 4.14L45.892 175.462c-10.67 6.173-14.305 19.825-8.132 30.483l8.132 14.046c-9.968 3.598-21.39-.333-26.885-9.82l-8.514-14.711c-6.173-10.658-2.538-24.31 8.132-30.483L240.554 36.504a30.77 30.77 0 0 1 30.864 0z" style="stroke-width:163.841" transform="translate(4 4)scale(.07813)"/><path fill="#b3e59f" d="M35.285 458.393c0-21.166 17.158-38.324 38.324-38.324 17.06 0 31.509 11.15 36.476 26.557 4.967-15.408 19.416-26.557 36.476-26.557s31.509 11.15 36.476 26.557c4.967-15.408 19.416-26.557 36.476-26.557s31.509 11.15 36.476 26.557c4.967-15.408 19.416-26.557 36.476-26.557s31.509 11.15 36.476 26.557c4.967-15.408 19.416-26.557 36.476-26.557s31.509 11.15 36.476 26.557c4.967-15.408 19.416-26.557 36.476-26.557 21.166 0 38.324 17.158 38.324 38.324v21.221H35.285Z" style="stroke-width:163.841" transform="translate(4 4)scale(.07813)"/><path fill="#95d6a4" d="M168.107 426.706c-10.116 6.9-16.757 18.519-16.757 31.69v21.217H35.285v-21.217c0-21.168 17.151-38.331 38.319-38.331 17.065 0 31.518 11.151 36.483 26.564 4.965-15.414 19.418-26.564 36.471-26.564 7.996 0 15.413 2.44 21.549 6.641" style="stroke-width:163.841" transform="translate(4 4)scale(.07813)"/><g style="stroke-width:12.8"><g style="stroke-width:12.8"><path fill="#dd636e" d="M255.99 325.326c-8.284 0-15-6.716-15-15V285.44c0-8.284 6.716-15 15-15 9.614 0 18.562-3.847 25.192-10.832 6.627-6.979 10.001-16.135 9.501-25.78-.938-18.064-15.858-32.501-33.97-32.866-17.641-.386-32.704 12.487-35.13 29.871a35 35 0 0 0-.336 4.864c0 8.284-6.716 15-15 15s-15-6.716-15-15c0-3.015.21-6.047.623-9.011 4.526-32.425 32.623-56.393 65.447-55.718 33.761.681 61.576 27.609 63.324 61.305.932 17.942-5.355 34.985-17.704 47.991-8.672 9.134-19.85 15.493-31.948 18.395v11.667c.001 8.285-6.715 15-14.999 15" style="stroke-width:163.841" transform="translate(4 4)scale(.07813)"/></g><path fill="#dd636e" d="M255.99 378.016c-8.284 0-15-6.716-15-15v-.5c0-8.284 6.716-15 15-15s15 6.716 15 15v.5c0 8.284-6.716 15-15 15" style="stroke-width:163.841" transform="translate(4 4)scale(.07813)"/></g></g><g style="stroke-width:12.8"><path d="M497.109 158.486 275.179 30.005c-11.838-6.854-26.545-6.853-38.381 0L14.867 158.486C.644 166.721-4.23 184.993 4.005 199.217l8.512 14.704c8.235 14.223 26.508 19.096 40.732 10.862l7.51-4.348v193.982c-19.029 5.569-32.973 23.168-32.973 43.974v21.22a7.5 7.5 0 0 0 7.5 7.5h101.061a7.5 7.5 0 0 0 7.5-7.5 7.5 7.5 0 0 0-7.5-7.5H42.786v-13.72c0-16.994 13.826-30.82 30.82-30.82 13.429 0 25.22 8.582 29.342 21.354a7.5 7.5 0 0 0 14.276.001 30.735 30.735 0 0 1 29.333-21.354c13.429 0 25.22 8.582 29.342 21.354a7.5 7.5 0 0 0 14.276 0c4.122-12.772 15.914-21.354 29.343-21.354a30.73 30.73 0 0 1 29.332 21.354 7.5 7.5 0 0 0 14.276 0c4.122-12.772 15.914-21.354 29.343-21.354 13.431 0 25.218 8.58 29.331 21.35a7.5 7.5 0 0 0 7.137 5.201h.002a7.5 7.5 0 0 0 7.138-5.197c4.122-12.772 15.913-21.354 29.342-21.354 13.432 0 25.219 8.58 29.332 21.35a7.5 7.5 0 0 0 7.137 5.201h.002a7.5 7.5 0 0 0 7.138-5.197c4.122-12.772 15.913-21.354 29.342-21.354 16.994 0 30.82 13.826 30.82 30.82v13.72H166.35a7.5 7.5 0 0 0-7.5 7.5 7.5 7.5 0 0 0 7.5 7.5h310.34a7.5 7.5 0 0 0 7.5-7.5v-21.22c0-20.803-13.939-38.4-32.965-43.972V220.438l7.506 4.345a29.6 29.6 0 0 0 14.885 4.005c10.297 0 20.327-5.333 25.848-14.868l8.512-14.703c8.23-14.224 3.357-32.496-10.867-40.731m-60.887 254.148c-13.802.636-26.264 7.359-34.332 17.977-8.479-11.166-21.818-18.04-36.474-18.04-14.651 0-27.992 6.874-36.476 18.04-8.479-11.166-21.819-18.04-36.474-18.04-14.653 0-27.996 6.876-36.48 18.043-8.481-11.167-21.821-18.043-36.47-18.043-14.654 0-27.997 6.875-36.48 18.044-8.483-11.169-21.826-18.044-36.479-18.044-14.649 0-27.988 6.875-36.471 18.044-8.066-10.619-20.526-17.343-34.327-17.981V211.752l180.229-104.34 180.233 104.343zm58.767-220.932-8.511 14.703c-4.092 7.067-13.169 9.488-20.235 5.396L259.746 92.255a7.5 7.5 0 0 0-7.516 0L45.733 211.802c-7.065 4.089-16.145 1.67-20.234-5.396l-8.512-14.704c-4.092-7.066-1.671-16.144 5.396-20.234l221.93-128.482a23.36 23.36 0 0 1 23.35 0l221.931 128.481c7.066 4.091 9.487 13.169 5.395 20.235" style="stroke-width:12.8" transform="translate(4 4)scale(.07813)"/><path d="M184.437 225.662a73 73 0 0 0-.691 10.04c0 12.407 10.094 22.5 22.5 22.5s22.5-10.093 22.5-22.5q0-1.957.269-3.836c1.872-13.444 13.399-23.412 26.953-23.412q.296 0 .596.006c14.198.29 25.896 11.606 26.633 25.76.393 7.565-2.254 14.75-7.443 20.222-5.215 5.481-12.234 8.5-19.767 8.5-12.406 0-22.5 10.093-22.5 22.5v24.88c0 12.407 10.094 22.5 22.5 22.5s22.5-10.093 22.5-22.5v-5.995a72.05 72.05 0 0 0 29.888-18.899c13.781-14.507 20.8-33.522 19.763-53.547a71.9 71.9 0 0 0-11.244-34.952 7.5 7.5 0 1 0-12.632 8.087 56.9 56.9 0 0 1 8.896 27.645c.822 15.871-4.738 30.941-15.661 42.44-7.626 8.04-17.397 13.666-28.257 16.269a7.5 7.5 0 0 0-5.752 7.293v11.66c0 4.136-3.364 7.5-7.5 7.5s-7.5-3.364-7.5-7.5v-24.88c0-4.135 3.364-7.5 7.5-7.5 11.681 0 22.56-4.674 30.642-13.169 8.055-8.492 12.156-19.619 11.549-31.331-1.144-21.968-19.287-39.529-41.299-39.979q-.462-.01-.923-.01c-21.009 0-38.892 15.474-41.793 36.313a42 42 0 0 0-.416 5.935c0 4.136-3.364 7.5-7.5 7.5s-7.5-3.364-7.5-7.5c0-2.666.185-5.351.548-7.973 4.007-28.682 28.903-49.838 57.873-49.259a56.93 56.93 0 0 1 28.03 8.058 7.5 7.5 0 1 0 7.697-12.874 71.95 71.95 0 0 0-35.423-10.181c-36.573-.745-67.977 25.975-73.036 62.189m71.552 114.354c-12.406 0-22.5 10.093-22.5 22.5v.5c0 12.407 10.094 22.5 22.5 22.5s22.5-10.093 22.5-22.5v-.5c0-12.407-10.094-22.5-22.5-22.5m7.5 23c0 4.136-3.364 7.5-7.5 7.5s-7.5-3.364-7.5-7.5v-.5c0-4.136 3.364-7.5 7.5-7.5s7.5 3.364 7.5 7.5z" style="stroke-width:12.8" transform="translate(4 4)scale(.07813)"/></g></g></g></svg>
