<?xml version="1.0" encoding="iso-8859-1"?>
<!-- Generator: Adobe Illustrator 19.0.0, SVG Export Plug-In . SVG Version: 6.00 Build 0)  -->
<svg version="1.1" id="Layer_1" xmlns="http://www.w3.org/2000/svg" xmlns:xlink="http://www.w3.org/1999/xlink" x="0px" y="0px"
	 viewBox="0 0 512.001 512.001" style="enable-background:new 0 0 512.001 512.001;" xml:space="preserve">
<g>
	<path style="fill:#F5F5F5;" d="M0.001,323.368V400c0,61.381,49.379,111.22,110.579,111.982V323.368H0.001z"/>
	<path style="fill:#F5F5F5;" d="M245.317,512h154.684c61.856,0,112-50.144,112-112v-76.632H245.317V512z"/>
	<path style="fill:#F5F5F5;" d="M110.58,0.018C49.38,0.78,0.001,50.619,0.001,112v76.632H110.58V0.018z"/>
	<path style="fill:#F5F5F5;" d="M400.001,0H245.317v188.632H512V112C512,50.144,461.857,0,400.001,0z"/>
</g>
<path style="fill:#41479B;" d="M245.317,0H112.001c-0.475,0-0.947,0.012-1.421,0.018v188.614H0.001v134.737H110.58v188.614
	c0.474,0.006,0.946,0.018,1.421,0.018h133.316V323.368H512V188.632H245.317V0z"/>
<polygon style="fill:#FF4B55;" points="512,215.579 218.369,215.579 218.369,0 137.527,0 137.527,215.579 0.001,215.579
	0.001,296.421 137.527,296.421 137.527,512 218.369,512 218.369,296.421 512,296.421 "/>
<g>
</g>
<g>
</g>
<g>
</g>
<g>
</g>
<g>
</g>
<g>
</g>
<g>
</g>
<g>
</g>
<g>
</g>
<g>
</g>
<g>
</g>
<g>
</g>
<g>
</g>
<g>
</g>
<g>
</g>
</svg>
