<svg id="Layer_1" height="512" viewBox="0 0 256 256" width="512" xmlns="http://www.w3.org/2000/svg"><g><g><g><g><path d="m185.231 149.801v-10.54l-58.56-26.68-58.56 26.68v10.54h-64.12l28.41-60.1c1.16-2.44 4.97-2.88 6.83-.78l14.26 16.13c1.99 2.25 6.12 1.56 6.99-1.16l17.65-55.79c1.04-3.29 6.44-3.36 7.61-.11l14.14 39.32h-24.32c-.69 0-1.25.56-1.25 1.24v8.34c0 .7.56 1.25 1.25 1.25h30.15c.7 0 1.25-.55 1.25-1.25v-2.55c.94-.33 1.75-.98 2.17-1.95l16.89-38.57c1.06-2.44 4.79-2.98 6.74-.99l14.29 14.6c2.02 2.07 5.91 1.39 6.82-1.2l17.34-48.87c1.14-3.24 6.5-3.21 7.59.04l17.93 53.1c.8 2.37 4.18 3.24 6.37 1.65l13.99-10.17c2.2-1.59 5.58-.71 6.37 1.67l28.55 86.15z" fill="#efefef"/></g><g><path d="m104.368 98.136v10.168l-27.468 12.521v-22.689z" fill="#eee"/></g><g><path d="m76.9 98.136h27.468v9.185h-27.468z" fill="#aeaeae"/></g><g><path d="m185.231 139.261v88.159h-117.12v-88.159l58.56-26.681z" fill="#efbf27"/></g><g><path d="m185.231 139.261v7.699l-58.56-26.69-58.56 26.681v-7.69l58.56-26.681z" fill="#e7a523"/></g><g><g><path d="m198.134 133.606-3.261 7.156c-.597 1.319-2.153 1.905-3.472 1.307l-6.173-2.813-58.557-26.684-58.557 26.684-6.173 2.813c-1.319.597-2.875.012-3.472-1.307l-3.261-7.156c-.61-1.319-.025-2.874 1.294-3.485l20.399-9.297 27.468-12.521 22.303-10.168 70.169 31.986c1.318.611 1.903 2.167 1.293 3.485z" fill="#fc5d3d"/></g></g><g><path d="m97.709 159.951h-11.35c-1.657 0-3-1.343-3-3v-11.351c0-1.657 1.343-3 3-3h11.35c1.657 0 3 1.343 3 3v11.35c0 1.658-1.343 3.001-3 3.001z" fill="#71c1e8"/></g><g><path d="m132.346 159.951h-11.35c-1.657 0-3-1.343-3-3v-11.351c0-1.657 1.343-3 3-3h11.35c1.657 0 3 1.343 3 3v11.35c0 1.658-1.343 3.001-3 3.001z" fill="#71c1e8"/></g><g><path d="m166.983 159.951h-11.35c-1.657 0-3-1.343-3-3v-11.351c0-1.657 1.343-3 3-3h11.35c1.657 0 3 1.343 3 3v11.35c0 1.658-1.344 3.001-3 3.001z" fill="#71c1e8"/></g><g><path d="m97.709 185.982h-11.35c-1.657 0-3-1.343-3-3v-11.35c0-1.657 1.343-3 3-3h11.35c1.657 0 3 1.343 3 3v11.35c0 1.657-1.343 3-3 3z" fill="#71c1e8"/></g><g><path d="m132.346 185.982h-11.35c-1.657 0-3-1.343-3-3v-11.35c0-1.657 1.343-3 3-3h11.35c1.657 0 3 1.343 3 3v11.35c0 1.657-1.343 3-3 3z" fill="#71c1e8"/></g><g><path d="m166.983 185.982h-11.35c-1.657 0-3-1.343-3-3v-11.35c0-1.657 1.343-3 3-3h11.35c1.657 0 3 1.343 3 3v11.35c0 1.657-1.344 3-3 3z" fill="#71c1e8"/></g><g><path d="m97.709 212.014h-11.35c-1.657 0-3-1.343-3-3v-11.35c0-1.657 1.343-3 3-3h11.35c1.657 0 3 1.343 3 3v11.35c0 1.657-1.343 3-3 3z" fill="#71c1e8"/></g><g><path d="m140.452 227.419h-27.562v-29.756c0-1.657 1.343-3 3-3h21.562c1.657 0 3 1.343 3 3z" fill="#71c1e8"/></g><g><path d="m166.983 212.014h-11.35c-1.657 0-3-1.343-3-3v-11.35c0-1.657 1.343-3 3-3h11.35c1.657 0 3 1.343 3 3v11.35c0 1.657-1.344 3-3 3z" fill="#71c1e8"/></g><g><path d="m190.787 241.201h-128.233c-1.105 0-2-.895-2-2v-9.781c0-1.105.895-2 2-2h128.233c1.105 0 2 .895 2 2v9.781c0 1.104-.895 2-2 2z" fill="#efefef"/></g><g><path d="m106.961 88.551v8.34c0 .7-.55 1.25-1.25 1.25h-30.15c-.69 0-1.25-.55-1.25-1.25v-8.34c0-.68.56-1.24 1.25-1.24h30.15c.7-.001 1.25.559 1.25 1.24z" fill="#fc5d3d"/></g><g><g><g><g><path d="m19.081 226.23h11.68v14.97h-11.68z" fill="#efbf27"/></g><g><path d="m19.081 226.23h11.68v7h-11.68z" fill="#e7a523"/></g><g><path d="m41.65 226.232h-33.458c-1.042 0-1.72-1.097-1.253-2.029l8.487-16.961h-4.306c-1.042 0-1.719-1.096-1.254-2.028l13.808-27.614c.517-1.033 1.991-1.033 2.507 0l13.795 27.614c.466.932-.212 2.028-1.254 2.028h-4.306l8.487 16.961c.466.933-.211 2.029-1.253 2.029z" fill="#0bbe6e"/></g></g></g><g><g><g><path d="m222.581 226.23h11.68v14.97h-11.68z" fill="#efbf27"/></g><g><path d="m222.581 226.23h11.68v7h-11.68z" fill="#e7a523"/></g><g><path d="m245.15 226.232h-33.458c-1.042 0-1.72-1.097-1.253-2.029l8.487-16.961h-4.305c-1.042 0-1.719-1.096-1.254-2.028l13.807-27.614c.517-1.033 1.991-1.033 2.507 0l13.795 27.614c.465.932-.212 2.028-1.254 2.028h-4.306l8.487 16.961c.466.933-.211 2.029-1.253 2.029z" fill="#0bbe6e"/></g></g></g></g></g><g><g><path d="m104.499 41.353c-1.81-7.804-4.475-8.684-8.163-9.902-2.303-.761-2.309-4.037 0-4.8 3.543-1.167 6.311-1.922 8.164-9.903.603-2.601 4.322-2.594 4.923 0 1.812 7.804 4.339 8.639 8.164 9.903 2.303.761 2.309 4.037 0 4.799-6.353 2.099-7.073 5.203-8.163 9.902-.607 2.607-4.32 2.606-4.925.001z"/></g><g><path d="m110.865 29.112c-1.82 1.24-3.06 2.67-3.96 4.18-1.08-1.92-2.33-3.24-3.73-4.22 1.34-.96 2.64-2.32 3.78-4.37 1.12 2.03 2.44 3.4 3.91 4.41z" fill="#f0c020"/></g></g><g><g><g><path d="m44.468 182.3c-1.81-7.804-4.475-8.684-8.163-9.902-2.303-.761-2.309-4.037 0-4.8 3.543-1.167 6.311-1.922 8.164-9.903.603-2.601 4.322-2.594 4.923 0 1.812 7.804 4.339 8.639 8.164 9.903 2.303.761 2.309 4.037 0 4.799-6.353 2.099-7.073 5.203-8.163 9.902-.606 2.607-4.32 2.606-4.925.001z"/></g><g><path d="m50.835 170.059c-1.82 1.24-3.06 2.67-3.96 4.18-1.08-1.92-2.33-3.24-3.73-4.22 1.34-.96 2.64-2.32 3.78-4.37 1.12 2.03 2.44 3.4 3.91 4.41z" fill="#f0c020"/></g></g><g><g><path d="m206.609 182.3c-1.81-7.804-4.475-8.684-8.163-9.902-2.303-.761-2.309-4.037 0-4.8 3.543-1.167 6.311-1.922 8.164-9.903.603-2.601 4.322-2.594 4.923 0 1.812 7.804 4.339 8.639 8.164 9.903 2.303.761 2.309 4.037 0 4.799-6.353 2.099-7.073 5.203-8.163 9.902-.606 2.607-4.32 2.606-4.925.001z"/></g><g><path d="m212.976 170.059c-1.82 1.24-3.06 2.67-3.96 4.18-1.08-1.92-2.33-3.24-3.73-4.22 1.34-.96 2.64-2.32 3.78-4.37 1.12 2.03 2.44 3.4 3.91 4.41z" fill="#f0c020"/></g></g></g></g><g><g><path d="m184.887 74.499-12.397-36.715c-.442-1.309.26-2.727 1.568-3.168 1.312-.444 2.727.261 3.168 1.568l12.397 36.715c.442 1.309-.26 2.727-1.568 3.168-1.314.445-2.729-.266-3.168-1.568z" fill="#fff"/></g><g><path d="m138.117 76.175-8.283-8.464c-.965-.987-.948-2.57.038-3.536.989-.964 2.569-.947 3.536.038l8.283 8.464c.966.987.948 2.57-.038 3.536-.989.965-2.569.949-3.536-.038z" fill="#fff"/></g><g><path d="m44.125 113.329-8.421-9.525c-.915-1.035-.817-2.615.217-3.529 1.035-.913 2.615-.816 3.529.217l8.421 9.525c.915 1.035.817 2.615-.217 3.529-1.037.915-2.615.816-3.529-.217z" fill="#fff"/></g><g><path d="m235.789 140.586-.943-2.848c-.435-1.311.276-2.726 1.587-3.159 1.315-.437 2.726.277 3.159 1.587l.943 2.848c.435 1.311-.276 2.726-1.587 3.159-1.3.433-2.723-.268-3.159-1.587zm-4.09-12.34-17.482-52.753c-.435-1.311.276-2.725 1.587-3.159 1.314-.437 2.726.277 3.159 1.587l17.482 52.753c.435 1.311-.276 2.725-1.587 3.159-1.3.433-2.722-.268-3.159-1.587z" fill="#fff"/></g><g><path d="m83.305 78.155-3.34-9.289c-.467-1.299.208-2.731 1.506-3.198 1.3-.468 2.731.206 3.199 1.507l3.34 9.289c.467 1.299-.208 2.731-1.506 3.198-1.302.468-2.733-.208-3.199-1.507z" fill="#fff"/></g></g><circle cx="185.23" cy="179.26" r="2.5"/><path d="m167.631 116.81c.57-1.26.01-2.74-1.24-3.319-1.22-.551-2.76.029-3.31 1.239-.57 1.261-.021 2.74 1.239 3.311 1.321.597 2.755-.039 3.311-1.231z"/><path d="m103.209 145.601c0-3.032-2.467-5.5-5.5-5.5h-11.35c-3.033 0-5.5 2.468-5.5 5.5v11.351c0 3.032 2.467 5.5 5.5 5.5h11.351c3.033 0 5.5-2.468 5.5-5.5v-11.351zm-5 11.35c0 .275-.224.5-.5.5h-11.35c-.276 0-.5-.225-.5-.5v-11.351c0-.275.224-.5.5-.5h11.351c.276 0 .5.225.5.5v11.351z"/><path d="m137.845 145.601c0-3.032-2.468-5.5-5.5-5.5h-11.35c-3.033 0-5.5 2.468-5.5 5.5v11.351c0 3.032 2.467 5.5 5.5 5.5h11.35c3.032 0 5.5-2.468 5.5-5.5zm-5 11.35c0 .275-.225.5-.5.5h-11.35c-.276 0-.5-.225-.5-.5v-11.351c0-.275.224-.5.5-.5h11.35c.275 0 .5.225.5.5z"/><path d="m172.482 145.601c0-3.032-2.468-5.5-5.5-5.5h-11.35c-3.032 0-5.5 2.468-5.5 5.5v11.351c0 3.032 2.468 5.5 5.5 5.5h11.35c3.032 0 5.5-2.468 5.5-5.5zm-5 11.35c0 .275-.225.5-.5.5h-11.35c-.275 0-.5-.225-.5-.5v-11.351c0-.275.225-.5.5-.5h11.35c.275 0 .5.225.5.5z"/><path d="m103.209 171.632c0-3.032-2.467-5.5-5.5-5.5h-11.35c-3.033 0-5.5 2.468-5.5 5.5v11.351c0 3.032 2.467 5.5 5.5 5.5h11.351c3.033 0 5.5-2.468 5.5-5.5v-11.351zm-5 11.35c0 .275-.224.5-.5.5h-11.35c-.276 0-.5-.225-.5-.5v-11.351c0-.275.224-.5.5-.5h11.351c.276 0 .5.225.5.5v11.351z"/><path d="m132.345 166.132h-11.35c-3.033 0-5.5 2.468-5.5 5.5v11.351c0 3.032 2.467 5.5 5.5 5.5h11.35c3.032 0 5.5-2.468 5.5-5.5v-11.351c0-3.032-2.467-5.5-5.5-5.5zm.5 16.85c0 .275-.225.5-.5.5h-11.35c-.276 0-.5-.225-.5-.5v-11.351c0-.275.224-.5.5-.5h11.35c.275 0 .5.225.5.5z"/><path d="m172.482 171.632c0-3.032-2.468-5.5-5.5-5.5h-11.35c-3.032 0-5.5 2.468-5.5 5.5v11.351c0 3.032 2.468 5.5 5.5 5.5h11.35c3.032 0 5.5-2.468 5.5-5.5zm-5 11.35c0 .275-.225.5-.5.5h-11.35c-.275 0-.5-.225-.5-.5v-11.351c0-.275.225-.5.5-.5h11.35c.275 0 .5.225.5.5z"/><path d="m97.709 192.164h-11.35c-3.033 0-5.5 2.468-5.5 5.5v11.35c0 3.032 2.467 5.5 5.5 5.5h11.351c3.033 0 5.5-2.468 5.5-5.5v-11.35c-.001-3.032-2.468-5.5-5.501-5.5zm.5 16.85c0 .275-.224.5-.5.5h-11.35c-.276 0-.5-.225-.5-.5v-11.35c0-.275.224-.5.5-.5h11.351c.276 0 .5.225.5.5v11.35z"/><path d="m166.982 192.164h-11.35c-3.032 0-5.5 2.468-5.5 5.5v11.35c0 3.032 2.468 5.5 5.5 5.5h11.35c3.032 0 5.5-2.468 5.5-5.5v-11.35c0-3.032-2.468-5.5-5.5-5.5zm.5 16.85c0 .275-.225.5-.5.5h-11.35c-.275 0-.5-.225-.5-.5v-11.35c0-.275.225-.5.5-.5h11.35c.275 0 .5.225.5.5z"/><path d="m225.834 62.862c-1.333-4.011-6.652-5.477-10.213-2.904l-13.989 10.17c-.9.654-2.307.239-2.532-.428l-17.929-53.095c-1.847-5.508-10.391-5.556-12.316-.081l-17.342 48.877c-.269.764-1.903 1.073-2.675.28l-14.292-14.601c-3.202-3.267-9.058-2.308-10.815 1.737l-11.32 25.851c-.554 1.265.022 2.739 1.287 3.293 1.267.554 2.739-.022 3.293-1.287l11.323-25.857c.328-.755 1.919-.996 2.66-.237l14.288 14.598c3.286 3.367 9.431 2.255 10.966-2.11l17.342-48.877c.365-1.038 2.536-.963 2.863.011l17.93 53.1c1.356 4.013 6.687 5.429 10.208 2.873l13.984-10.166c.909-.655 2.311-.241 2.533.43l28.55 86.15c.437 1.319 1.86 2.02 3.159 1.587 1.311-.435 2.021-1.849 1.587-3.159z"/><path d="m22.151 111.38c-1.21-.58-2.75-.021-3.33 1.189-.58 1.24-.05 2.74 1.2 3.33 1.207.587 2.716.07 3.33-1.199.573-1.23.069-2.737-1.2-3.32z"/><path d="m27.62 105.67 7.04-14.9c.29-.755 2.003-.991 2.7-.189l14.26 16.13c3.166 3.577 9.653 2.688 11.24-2.061l17.65-55.79c.373-1.069 2.579-.976 2.88-.02l10.78 29.97c.45 1.26 1.92 1.96 3.19 1.51 1.3-.47 1.98-1.909 1.51-3.199l-10.78-29.98c-2.058-5.594-10.669-5.255-12.34.21l-17.66 55.79c-.121.756-1.967 1.123-2.73.25l-14.26-16.131c-2.97-3.355-8.929-2.787-10.96 1.37l-7.04 14.899c-.585 1.214-.092 2.721 1.19 3.33 1.211.58 2.761.011 3.33-1.189z"/><path d="m3.99 152.3c.96 0 1.85-.56 2.26-1.43l12.82-27.12c.59-1.25.06-2.74-1.19-3.33-1.22-.58-2.76-.021-3.33 1.189l-12.82 27.12c-.611 1.286-.009 2.77 1.19 3.33.34.161.7.241 1.07.241z"/><path d="m250.612 238.7h-13.851v-9.968h8.388c2.898 0 4.788-3.048 3.489-5.647l-6.676-13.343c3.473 0 4.95-3.242 3.749-5.645l-13.794-27.615c-1.438-2.876-5.544-2.873-6.98 0l-13.807 27.613c-1.205 2.409.278 5.646 3.748 5.646l-6.677 13.344c-1.297 2.599.593 5.646 3.49 5.646h8.39v9.968h-24.795v-9.28c0-2.481-2.019-4.5-4.5-4.5h-3.057v-35.66c0-1.38-1.12-2.5-2.5-2.5s-2.5 1.12-2.5 2.5v35.66h-39.778v-27.256c0-3.032-2.468-5.5-5.5-5.5h-21.563c-3.033 0-5.5 2.468-5.5 5.5v27.256h-39.78v-84.051l56.063-25.55 56.06 25.553v28.388c0 1.38 1.12 2.5 2.5 2.5s2.5-1.12 2.5-2.5v-26.109l2.63 1.199c2.564 1.146 5.611.037 6.79-2.55l3.261-7.16c1.181-2.601.004-5.619-2.521-6.79l-22.399-10.21c-1.221-.55-2.761.03-3.311 1.24-.584 1.272 0 2.762 1.24 3.31l22.38 10.21c.05.021.07.07.07.11 0 .01 0 .03-.011.06l-3.26 7.16c-.03.07-.109.09-.17.061l-64.72-29.49c-.66-.3-1.43-.3-2.08 0-2.611 1.19-62.006 28.259-64.73 29.5-.01 0-.02 0-.04 0-.05 0-.1-.03-.11-.07l-3.27-7.16c-.02-.04-.02-.04-.02-.06.01-.03.02-.09.08-.12 3.292-1.5 69.109-31.5 69.13-31.51l28.55 13.01c1.22.561 2.75-.02 3.311-1.229.569-1.261.01-2.74-1.24-3.311l-29.58-13.49c-.66-.3-1.42-.3-2.08 0l-18.763 8.554v-3.979c1.497-.49 2.589-1.884 2.589-3.543v-8.339c0-2.064-1.68-3.744-3.745-3.744h-30.156c-2.065 0-3.745 1.68-3.745 3.744v8.339c0 1.659 1.092 3.053 2.589 3.543v18.781l-18.939 8.634c-2.54 1.172-3.74 4.205-2.52 6.8l3.25 7.15c1.196 2.623 4.289 3.682 6.78 2.55l2.637-1.202v81.772h-3.053c-2.481 0-4.5 2.019-4.5 4.5v9.28h-24.794v-9.968h8.388c2.903 0 4.785-3.055 3.489-5.647l-6.677-13.343c3.472 0 4.952-3.24 3.75-5.645l-13.795-27.614c-1.437-2.879-5.542-2.875-6.979-.001l-13.806 27.614c-1.208 2.415.285 5.646 3.749 5.646l-6.676 13.343c-1.299 2.597.59 5.647 3.489 5.647h8.39v9.968h-11.193c-1.381 0-2.5 1.119-2.5 2.5s1.119 2.5 2.5 2.5h245.222c1.381 0 2.5-1.119 2.5-2.5s-1.119-2.5-2.5-2.5zm-148.744-132.007-22.468 10.243v-16.3h22.468zm-25.057-16.884h27.646v5.827h-.089-27.468-.089zm-48.55 148.891h-6.68v-9.968h6.68zm-18.291-14.968 7.691-15.371c.833-1.666-.384-3.619-2.236-3.619h-2.528l12.03-24.058 12.018 24.058h-2.529c-1.855 0-3.067 1.956-2.236 3.619l7.691 15.371c-3.471 0-27.229 0-29.901 0zm105.419-26.068c0-.275.224-.5.5-.5h21.563c.275 0 .5.225.5.5v27.256h-22.563zm74.898 41.036h-127.233v-8.78h127.232v8.78zm41.474 0h-6.68v-9.968h6.68zm-18.292-14.968 7.691-15.371c.833-1.666-.383-3.619-2.235-3.619h-2.527l12.029-24.059 12.018 24.059h-2.529c-1.855 0-3.067 1.956-2.235 3.619l7.691 15.371c-2.683 0-26.421 0-29.903 0z"/></g></svg>
