<?xml version="1.0" encoding="iso-8859-1"?>
<!-- Generator: Adobe Illustrator 19.0.0, SVG Export Plug-In . SVG Version: 6.00 Build 0)  -->
<svg version="1.1" id="Layer_1" xmlns="http://www.w3.org/2000/svg" xmlns:xlink="http://www.w3.org/1999/xlink" x="0px" y="0px"
	 viewBox="0 0 512 512" style="enable-background:new 0 0 512 512;" xml:space="preserve">
<path style="fill:#FFFFFF;" d="M503.742,384.642V127.358c0-20.17-16.35-36.519-36.519-36.519H44.777
	c-20.169,0-36.519,16.35-36.519,36.519v257.285c0,20.168,16.35,36.519,36.519,36.519h422.446
	C487.392,421.161,503.742,404.811,503.742,384.642z"/>
<g>
	<path style="fill:#259245;" d="M503.742,373.977v12.726c0,19.031-15.427,34.458-34.458,34.458H42.716
		c-19.031,0-34.458-15.427-34.458-34.458v-12.726L503.742,373.977L503.742,373.977z"/>
	<rect x="8.258" y="279.596" style="fill:#259245;" width="495.484" height="47.199"/>
	<rect x="223.243" y="185.223" style="fill:#259245;" width="280.499" height="47.185"/>
	<path style="fill:#259245;" d="M223.243,90.839v47.185h280.499v-5.819c0-22.846-18.52-41.366-41.366-41.366H223.243z"/>
</g>
<path style="fill:#ED1F34;" d="M8.258,124.114v108.294h214.985V90.839H41.534C23.156,90.839,8.258,105.736,8.258,124.114z"/>
<path style="fill:#FFFFFF;" d="M101.002,159.529v25.883c0,8.146,6.603,14.749,14.749,14.749s14.749-6.603,14.749-14.749v-25.883
	H101.002z"/>
<path style="fill:#1A1C20;" d="M115.751,208.97c-12.989,0-23.559-10.568-23.559-23.559v-25.882c0-4.866,3.943-8.809,8.809-8.809
	h29.499c4.866,0,8.809,3.943,8.809,8.809v25.882C139.309,198.402,128.74,208.97,115.751,208.97z M109.809,168.338v17.073
	c0,3.276,2.665,5.941,5.941,5.941c3.277,0,5.941-2.665,5.941-5.941v-17.073H109.809z"/>
<path style="fill:#FFFFFF;" d="M177.327,192.919c-4.561,0-8.258-3.697-8.258-8.258c0-29.4-23.919-53.318-53.318-53.318
	s-53.318,23.919-53.318,53.318c0,4.561-3.697,8.258-8.258,8.258s-8.258-3.697-8.258-8.258c0-38.507,31.328-69.835,69.835-69.835
	s69.835,31.328,69.835,69.835C185.585,189.222,181.888,192.919,177.327,192.919z"/>
<path style="fill:#1A1C20;" d="M468.324,82.581H43.676C19.593,82.581,0,102.173,0,126.256v259.487
	c0,24.084,19.593,43.676,43.676,43.676h424.648c24.083,0,43.675-19.593,43.675-43.676V126.256
	C512,102.173,492.407,82.581,468.324,82.581z M231.501,193.481h263.983v30.669H231.501V193.481z M495.484,240.665v30.669H16.516
	v-30.669H495.484z M16.516,287.851h478.968v30.683H16.516V287.851z M495.484,126.256v3.509H470.71c-4.561,0-8.258,3.697-8.258,8.258
	s3.697,8.258,8.258,8.258h24.774v30.683H231.501v-30.683h206.176c4.561,0,8.258-3.697,8.258-8.258s-3.697-8.258-8.258-8.258H231.501
	V99.097h236.823C483.3,99.097,495.484,111.28,495.484,126.256z M43.676,99.097h171.309v125.052H16.516v-97.893
	C16.516,111.28,28.7,99.097,43.676,99.097z M468.324,412.903H43.676c-14.977,0-27.16-12.183-27.16-27.16v-3.509h421.161
	c4.561,0,8.258-3.697,8.258-8.258c0-4.561-3.697-8.258-8.258-8.258H16.516v-30.669h478.968v30.669H470.71
	c-4.561,0-8.258,3.697-8.258,8.258c0,4.561,3.697,8.258,8.258,8.258h24.774v3.509C495.484,400.72,483.3,412.903,468.324,412.903z"/>
<g>
</g>
<g>
</g>
<g>
</g>
<g>
</g>
<g>
</g>
<g>
</g>
<g>
</g>
<g>
</g>
<g>
</g>
<g>
</g>
<g>
</g>
<g>
</g>
<g>
</g>
<g>
</g>
<g>
</g>
</svg>
