<?xml version="1.0" encoding="iso-8859-1"?>
<!-- Generator: Adobe Illustrator 19.0.0, SVG Export Plug-In . SVG Version: 6.00 Build 0)  -->
<svg version="1.1" id="Layer_1" xmlns="http://www.w3.org/2000/svg" xmlns:xlink="http://www.w3.org/1999/xlink" x="0px" y="0px"
	 viewBox="0 0 512 512" style="enable-background:new 0 0 512 512;" xml:space="preserve">
<path style="fill:#FFE000;" d="M470.707,90.847H41.293c-18.244,0-33.034,14.791-33.034,33.034v3.668h495.484v-3.668
	C503.742,105.638,488.952,90.847,470.707,90.847z"/>
<rect x="8.258" y="127.549" style="fill:#ED1F34;" width="495.484" height="36.699"/>
<rect x="8.258" y="164.248" style="fill:#FFE000;" width="495.484" height="36.699"/>
<rect x="8.258" y="200.958" style="fill:#ED1F34;" width="495.484" height="36.699"/>
<rect x="8.258" y="237.657" style="fill:#FFE000;" width="495.484" height="36.699"/>
<rect x="8.258" y="274.355" style="fill:#ED1F34;" width="495.484" height="36.699"/>
<rect x="8.258" y="311.065" style="fill:#FFE000;" width="495.484" height="36.699"/>
<rect x="8.258" y="347.764" style="fill:#ED1F34;" width="495.484" height="36.699"/>
<path style="fill:#FFE000;" d="M503.742,384.467H8.258v3.668c0,18.245,14.791,33.034,33.034,33.034h429.414
	c18.245,0,33.034-14.79,33.034-33.034v-3.668H503.742z"/>
<path style="fill:#6806C1;" d="M256,256.008H8.258v-131.03c0-18.85,15.281-34.131,34.131-34.131H256V256.008z"/>
<rect x="63.482" y="169.621" style="fill:#FFFFFF;" width="137.293" height="42.348"/>
<g>
	<path style="fill:#1A1C20;" d="M212.053,203.707h-3.019v-28.255c1.493-1.494,2.416-3.556,2.416-5.837
		c0-4.562-3.696-8.258-8.258-8.258h-10.27v-8.682c0-4.562-3.696-8.258-8.258-8.258c-4.562,0-8.258,3.696-8.258,8.258v8.682h-9.75
		v-8.682c0-4.562-3.696-8.258-8.258-8.258s-8.258,3.696-8.258,8.258v8.682h-9.752V134.89c0-4.562-3.696-8.258-8.258-8.258
		c-4.562,0-8.258,3.696-8.258,8.258v26.468h-9.751v-8.682c0-4.562-3.696-8.258-8.258-8.258s-8.258,3.696-8.258,8.258v8.682h-9.751
		v-8.682c0-4.562-3.696-8.258-8.258-8.258c-4.562,0-8.258,3.696-8.258,8.258v8.682H61.068c-4.561,0-8.258,3.696-8.258,8.258
		c0,2.279,0.924,4.343,2.416,5.837v28.255h-3.019c-4.562,0-8.258,3.696-8.258,8.258c0,4.562,3.696,8.258,8.258,8.258h159.847
		c4.562,0,8.258-3.696,8.258-8.258C220.311,207.405,216.615,203.707,212.053,203.707z M192.518,203.707h-52.13v-6.141
		c0-4.562-3.696-8.258-8.258-8.258c-4.562,0-8.258,3.696-8.258,8.258v6.141h-52.13v-25.833h120.776v25.833H192.518z"/>
	<path style="fill:#1A1C20;" d="M468.324,82.583H256.107c-0.036,0-0.07-0.006-0.107-0.006c-0.036,0-0.07,0.004-0.107,0.006H43.676
		C19.594,82.583,0,102.177,0,126.26v259.486c0,24.083,19.594,43.676,43.676,43.676h424.647c24.083,0,43.676-19.594,43.676-43.676
		V126.26C512,102.177,492.406,82.583,468.324,82.583z M43.676,99.1h204.066V247.75l-231.226-0.006V126.26
		C16.516,111.284,28.7,99.1,43.676,99.1z M495.484,385.746c0,14.977-12.183,27.16-27.16,27.16H43.676
		c-14.977,0-27.16-12.183-27.16-27.16V264.261L256,264.266c2.19,0,4.29-0.87,5.84-2.418c1.548-1.549,2.418-3.649,2.418-5.84V99.1
		h204.066c14.977,0,27.16,12.183,27.16,27.16V385.746z"/>
</g>
<g>
</g>
<g>
</g>
<g>
</g>
<g>
</g>
<g>
</g>
<g>
</g>
<g>
</g>
<g>
</g>
<g>
</g>
<g>
</g>
<g>
</g>
<g>
</g>
<g>
</g>
<g>
</g>
<g>
</g>
</svg>
