<?xml version="1.0" encoding="iso-8859-1"?>
<!-- Generator: Adobe Illustrator 19.0.0, SVG Export Plug-In . SVG Version: 6.00 Build 0)  -->
<svg version="1.1" id="Layer_1" xmlns="http://www.w3.org/2000/svg" xmlns:xlink="http://www.w3.org/1999/xlink" x="0px" y="0px"
	 viewBox="0 0 512.001 512.001" style="enable-background:new 0 0 512.001 512.001;" xml:space="preserve">
<path style="fill:#ED1F34;" d="M42.866,90.838h426.267c19.114,0,34.608,15.494,34.608,34.608v261.106
	c0,19.114-15.494,34.608-34.608,34.608H42.866c-19.114,0.002-34.608-15.493-34.608-34.607V125.447
	C8.258,106.333,23.752,90.838,42.866,90.838z"/>
<path style="fill:#259245;" d="M503.179,392.004L299.173,255.999l204.006-136.004c-2.957-16.572-17.432-29.158-34.855-29.158h-7.756
	L256,227.217L51.431,90.838h-7.756c-17.423,0-31.897,12.585-34.855,29.158l204.006,136.004L8.821,392.004
	c2.957,16.572,17.432,29.156,34.855,29.156h7.756L256,284.782l204.569,136.379h7.756
	C485.747,421.161,500.222,408.576,503.179,392.004z"/>
<polygon style="fill:#FFFFFF;" points="8.258,279.947 232.052,279.947 232.052,421.161 279.948,421.161 279.948,279.947
	503.742,279.947 503.742,232.05 279.948,232.05 279.948,90.838 232.052,90.838 232.052,232.05 8.258,232.05 "/>
<path style="fill:#1A1C20;" d="M512,126.256c0-1.573-0.088-3.125-0.251-4.654c0.537-2.172,0.203-4.553-1.136-6.561
	c-0.041-0.062-0.087-0.115-0.129-0.174c-5.024-18.575-22.017-32.286-42.16-32.286h-7.71c-0.002,0-0.004,0-0.006,0H51.405
	c-0.009,0-0.018,0-0.025,0h-7.702c-20.143,0-37.136,13.711-42.16,32.286c-0.042,0.059-0.089,0.113-0.129,0.174
	c-1.339,2.008-1.674,4.389-1.136,6.561C0.088,123.132,0,124.684,0,126.256v259.486c0,1.573,0.088,3.125,0.251,4.655
	c-0.537,2.172-0.203,4.553,1.136,6.561c0.04,0.059,0.087,0.109,0.127,0.166c5.022,18.58,22.017,32.295,42.162,32.295h7.746
	c0.006,0,0.012,0.001,0.018,0.001c0.006,0,0.01-0.001,0.015-0.001h409.09c0.005,0,0.01,0.001,0.015,0.001s0.012-0.001,0.018-0.001
	h7.746c20.145,0,37.14-13.714,42.162-32.293c0.041-0.058,0.088-0.108,0.127-0.166c1.339-2.008,1.674-4.389,1.136-6.561
	c0.163-1.531,0.251-3.082,0.251-4.655V126.256H512z M288.206,99.096h145.088l-145.088,96.725V99.096z M288.206,215.67
	L463.068,99.096h5.255c11.513,0,21.367,7.203,25.314,17.336l-161.041,107.36h-44.39V215.67z M223.794,99.096v96.725L78.706,99.096
	H223.794z M43.676,99.096h5.255L223.794,215.67v8.123h-44.389L18.363,116.433C22.309,106.299,32.164,99.096,43.676,99.096z
	 M16.516,288.206H149.63L16.516,376.948V288.206z M223.794,412.903H78.706l145.088-96.725V412.903z M223.794,296.328L48.932,412.903
	h-5.255c-11.513,0-21.367-7.203-25.314-17.336l161.041-107.36h44.39V296.328z M468.324,412.903h-5.255L288.206,296.328v-8.123
	h44.391l161.04,107.36C489.691,405.699,479.836,412.903,468.324,412.903z M495.484,376.948l-133.112-88.741h133.112V376.948z
	 M495.484,271.689H335.13c-0.047,0-0.095-0.001-0.142,0h-55.039c-4.562,0-8.258,3.696-8.258,8.258v75.148
	c0,4.562,3.696,8.258,8.258,8.258s8.258-3.696,8.258-8.258v-38.919l145.088,96.726H288.206v-24.774c0-4.562-3.696-8.258-8.258-8.258
	s-8.258,3.696-8.258,8.258v24.774H240.31V300.802c0-0.008,0-0.017,0-0.017v-20.838c0-4.562-3.696-8.258-8.258-8.258h-55.102
	c-0.002,0-0.004,0-0.006,0H16.516v-31.381H41.29c4.562,0,8.258-3.696,8.258-8.258c0-4.562-3.696-8.258-8.258-8.258H16.516V135.05
	l133.113,88.742H74.323c-4.562,0-8.258,3.696-8.258,8.258c0,4.562,3.696,8.258,8.258,8.258h157.729c4.562,0,8.258-3.696,8.258-8.258
	v-20.829c0,0,0-0.018,0-0.025v-112.1h31.381v112.102c0,0.008,0,0.017,0,0.017v20.838c0,4.562,3.696,8.258,8.258,8.258h55.139
	c0.005,0,0.012,0.001,0.018,0.001c0.004,0,0.01-0.001,0.015-0.001h160.364V271.689z M495.484,223.792H362.37l133.113-88.741V223.792
	z"/>
<g>
</g>
<g>
</g>
<g>
</g>
<g>
</g>
<g>
</g>
<g>
</g>
<g>
</g>
<g>
</g>
<g>
</g>
<g>
</g>
<g>
</g>
<g>
</g>
<g>
</g>
<g>
</g>
<g>
</g>
</svg>
