<?xml version="1.0" encoding="iso-8859-1"?>
<!-- Generator: Adobe Illustrator 19.0.0, SVG Export Plug-In . SVG Version: 6.00 Build 0)  -->
<svg version="1.1" id="Layer_1" xmlns="http://www.w3.org/2000/svg" xmlns:xlink="http://www.w3.org/1999/xlink" x="0px" y="0px"
	 viewBox="0 0 512 512" style="enable-background:new 0 0 512 512;" xml:space="preserve">
<path style="fill:#103B9B;" d="M8.258,383.725V116.715c0-14.747,11.954-26.701,26.701-26.701h442.082
	c14.747,0,26.701,11.954,26.701,26.701V388.13c0,18.396-14.912,33.308-33.308,33.308H45.97
	C25.142,421.437,8.258,404.552,8.258,383.725z"/>
<path style="fill:#FFFFFF;" d="M503.742,237.556c-24.401,0.001-37.165,6.129-48.429,11.536c-9.643,4.628-17.259,8.283-34.148,8.283
	s-24.504-3.656-34.148-8.283c-11.265-5.407-24.034-11.536-48.44-11.536c-24.404,0-37.174,6.129-48.44,11.536
	c-9.641,4.628-17.257,8.283-34.144,8.283s-24.502-3.656-34.143-8.283c-11.265-5.407-24.034-11.536-48.437-11.536
	s-37.172,6.129-48.436,11.537c-9.641,4.628-17.256,8.282-34.141,8.282c-16.886,0-24.502-3.656-34.143-8.283
	c-11.264-5.406-24.035-11.535-48.435-11.536v33.032c16.882,0.001,24.501,3.656,34.141,8.283
	c11.265,5.407,24.033,11.536,48.437,11.536c24.402,0,37.171-6.129,48.435-11.536c9.641-4.628,17.256-8.283,34.142-8.283
	s24.502,3.656,34.143,8.283c11.265,5.407,24.033,11.536,48.437,11.536s37.173-6.129,48.437-11.536
	c9.642-4.628,17.258-8.283,34.147-8.283c16.888,0,24.504,3.656,34.148,8.283c11.265,5.407,24.034,11.536,48.44,11.536
	c24.405,0,37.174-6.129,48.44-11.536c9.642-4.628,17.253-8.282,34.137-8.283L503.742,237.556L503.742,237.556z"/>
<path style="fill:#103B9B;" d="M503.742,256.275H8.258V124.696c0-18.548,15.035-33.583,33.583-33.583h428.318
	c18.548,0,33.583,15.035,33.583,33.583V256.275z"/>
<path style="fill:#FFFFFF;" d="M476.945,91.113h-53.597l-167.35,55.784L88.649,91.113H35.055c-14.8,0-26.797,11.998-26.797,26.798
	l0,0l167.348,55.783L8.258,229.478v26.797h80.39l167.35-55.783l167.35,55.783h80.394v-26.797L336.39,173.694l167.352-55.783l0,0
	C503.742,103.112,491.745,91.113,476.945,91.113z"/>
<path style="fill:#ED1F34;" d="M480.631,91.113h-30.487l-220.933,73.652L31.824,96.767c-8.344-2.781-16.96,3.429-16.96,12.224l0,0
	l214.051,73.73L8.258,256.275h53.593l220.945-73.648l220.946,73.648v-17.484l-221.256-73.926l199.331-66.443
	C485.854,97.077,484.886,91.113,480.631,91.113z"/>
<polygon style="fill:#FFFFFF;" points="503.742,151.397 300.591,151.397 300.591,91.113 211.404,91.113 211.404,151.397
	8.258,151.397 8.258,195.992 211.404,195.992 211.404,256.275 300.591,256.275 300.591,195.992 503.742,195.992 "/>
<polygon style="fill:#ED1F34;" points="503.742,161.72 279.946,161.72 279.946,91.113 232.049,91.113 232.049,161.72 8.258,161.72
	8.258,185.669 232.049,185.669 232.049,256.275 279.946,256.275 279.946,185.669 503.742,185.669 "/>
<g>
	<path style="fill:#FFFFFF;" d="M503.742,311.33c-24.401,0.001-37.165,6.129-48.429,11.536c-9.643,4.628-17.259,8.283-34.148,8.283
		s-24.504-3.656-34.148-8.283c-11.265-5.407-24.034-11.536-48.44-11.536c-24.404,0-37.174,6.129-48.44,11.536
		c-9.641,4.628-17.257,8.283-34.144,8.283s-24.502-3.656-34.143-8.283c-11.265-5.407-24.034-11.536-48.437-11.536
		s-37.172,6.129-48.436,11.536c-9.641,4.628-17.256,8.283-34.141,8.283c-16.886,0-24.502-3.656-34.143-8.283
		c-11.264-5.407-24.035-11.536-48.435-11.536v33.032c16.882,0.001,24.501,3.656,34.141,8.283
		c11.265,5.407,24.033,11.536,48.437,11.536c24.402,0,37.171-6.129,48.435-11.536c9.641-4.628,17.256-8.283,34.142-8.283
		s24.502,3.656,34.143,8.283c11.265,5.407,24.033,11.536,48.437,11.536s37.173-6.129,48.437-11.536
		c9.642-4.628,17.258-8.283,34.147-8.283c16.888,0,24.504,3.656,34.148,8.283c11.265,5.407,24.034,11.536,48.44,11.536
		c24.405,0,37.174-6.129,48.44-11.536c9.642-4.628,17.253-8.282,34.137-8.283V311.33z"/>
	<path style="fill:#FFFFFF;" d="M503.742,390.333v-5.231c-24.401,0.001-37.165,6.129-48.429,11.536
		c-9.643,4.628-17.259,8.283-34.148,8.283s-24.504-3.656-34.148-8.283c-11.265-5.407-24.034-11.536-48.44-11.536
		c-24.404,0-37.174,6.129-48.44,11.536c-9.641,4.628-17.257,8.283-34.144,8.283s-24.502-3.656-34.143-8.283
		c-11.265-5.407-24.034-11.536-48.437-11.536s-37.172,6.129-48.436,11.536c-9.641,4.628-17.256,8.283-34.141,8.283
		c-16.886,0-24.502-3.656-34.143-8.283c-11.264-5.407-24.035-11.536-48.435-11.536v5.222c0,14.105,9.079,26.508,22.432,31.053
		c0.058,0.02,0.118,0.04,0.176,0.061h119.939c5.849-2.012,12.595-3.303,22.609-3.303s16.761,1.292,22.609,3.303h119.942
		c5.85-2.012,12.596-3.303,22.612-3.303c10.015,0,16.763,1.292,22.613,3.303H481.14c0.058-0.02,0.117-0.04,0.176-0.061
		C494.665,416.834,503.742,404.433,503.742,390.333z"/>
</g>
<path style="fill:#FFE000;" d="M52.531,421.437h406.933c-41.953-68.359-117.381-113.961-203.467-113.961
	S94.485,353.077,52.531,421.437z"/>
<path style="fill:#1A1C20;" d="M468.324,82.305H43.676C19.594,82.305,0,101.898,0,125.981v259.486
	c0,24.083,19.594,43.676,43.676,43.676h5.903c1.933,0.743,4.031,0.709,5.893,0h401.04c0.944,0.361,1.947,0.552,2.96,0.552
	c0.98,0,1.964-0.192,2.912-0.552h5.939c24.083,0,43.676-19.594,43.676-43.676V125.981C512,101.898,492.406,82.305,468.324,82.305z
	 M43.676,98.821h424.647c14.977,0,27.16,12.183,27.16,27.16v122.035H16.516V125.981C16.516,111.005,28.7,98.821,43.676,98.821z
	 M68.25,412.629c43.227-60.952,112.302-96.895,187.748-96.895c75.447,0,144.521,35.942,187.748,96.895H68.25z M468.324,412.629
	h-4.674c-21.472-33.344-50.843-61.279-85.267-80.974c-37.09-21.22-79.408-32.437-122.383-32.437
	c-42.974,0-85.294,11.216-122.383,32.437c-34.424,19.695-63.795,47.63-85.267,80.974h-4.67c-14.979,0-27.162-12.185-27.162-27.161
	V264.533h478.968v120.934C495.484,400.444,483.3,412.629,468.324,412.629z"/>
<g>
</g>
<g>
</g>
<g>
</g>
<g>
</g>
<g>
</g>
<g>
</g>
<g>
</g>
<g>
</g>
<g>
</g>
<g>
</g>
<g>
</g>
<g>
</g>
<g>
</g>
<g>
</g>
<g>
</g>
</svg>
