<?xml version="1.0" encoding="iso-8859-1"?>
<!-- Generator: Adobe Illustrator 19.0.0, SVG Export Plug-In . SVG Version: 6.00 Build 0)  -->
<svg version="1.1" id="Layer_1" xmlns="http://www.w3.org/2000/svg" xmlns:xlink="http://www.w3.org/1999/xlink" x="0px" y="0px"
	 viewBox="0 0 512 512" style="enable-background:new 0 0 512 512;" xml:space="preserve">
<rect x="173.419" y="90.839" style="fill:#3DB4EA;" width="165.161" height="330.323"/>
<path style="fill:#FFE000;" d="M338.581,90.839v330.323h127.174c20.98,0,37.987-17.007,37.987-37.987V128.826
	c0-20.98-17.007-37.987-37.987-37.987H338.581z"/>
<path style="fill:#FFFFFF;" d="M8.258,128.826v254.348c0,20.98,17.007,37.987,37.987,37.987h127.174V90.839H46.245
	C25.265,90.839,8.258,107.846,8.258,128.826z"/>
<path style="fill:#1A1C20;" d="M468.324,82.581H43.676C19.593,82.581,0,102.174,0,126.257v259.486
	c0,24.083,19.593,43.676,43.676,43.676h424.648c24.083,0,43.675-19.594,43.675-43.676V126.257
	C512,102.174,492.407,82.581,468.324,82.581z M16.516,385.743V126.257c0-14.977,12.183-27.16,27.16-27.16h121.485v24.774
	c0,4.562,3.697,8.258,8.258,8.258s8.258-3.696,8.258-8.258V99.097h148.645v313.806H181.677v-256c0-4.562-3.697-8.258-8.258-8.258
	s-8.258,3.696-8.258,8.258v256H43.676C28.7,412.903,16.516,400.72,16.516,385.743z M495.484,385.743
	c0,14.977-12.183,27.16-27.16,27.16H346.839V99.097h121.485c14.977,0,27.16,12.183,27.16,27.16V385.743z"/>
<g>
</g>
<g>
</g>
<g>
</g>
<g>
</g>
<g>
</g>
<g>
</g>
<g>
</g>
<g>
</g>
<g>
</g>
<g>
</g>
<g>
</g>
<g>
</g>
<g>
</g>
<g>
</g>
<g>
</g>
</svg>
