<?xml version="1.0" encoding="iso-8859-1"?>
<!-- Generator: Adobe Illustrator 19.0.0, SVG Export Plug-In . SVG Version: 6.00 Build 0)  -->
<svg version="1.1" id="Layer_1" xmlns="http://www.w3.org/2000/svg" xmlns:xlink="http://www.w3.org/1999/xlink" x="0px" y="0px"
	 viewBox="0 0 512 512" style="enable-background:new 0 0 512 512;" xml:space="preserve">
<path style="fill:#FFFFFF;" d="M466.571,90.839H45.429c-20.53,0-37.171,16.643-37.171,37.171v255.98
	c0,20.53,16.642,37.171,37.171,37.171h421.141c20.53,0,37.171-16.643,37.171-37.171V128.01
	C503.742,107.481,487.1,90.839,466.571,90.839z"/>
<path style="fill:#333333;" d="M231.784,136.878c49.94,0,90.426,40.485,90.426,90.426c0,25.314-10.414,48.185-27.176,64.599
	l22.987,58.9c-0.001,0.001-88.587,34.574-88.587,34.574c0.006-0.002-22.354-57.296-22.354-57.296l-40.089,0.142
	c-14.157,0-25.632-11.475-25.632-25.632v-75.286C141.358,177.363,181.844,136.878,231.784,136.878z"/>
<path style="fill:#FFFFFF;" d="M182.692,151.381l133.559,43.633c0.003,0.008-168.937,0.008-168.937,0.008
	C154.211,176.988,166.712,161.737,182.692,151.381z"/>
<g>
	<path style="fill:#1A1C20;" d="M234.581,219.157c-2.417-0.396-4.889,0.295-6.744,1.896c-1.856,1.601-2.905,3.944-2.862,6.396
		l0.193,11.068c0.079,4.56,3.804,8.204,8.4,8.113c3.624-0.064,6.662-2.451,7.716-5.717c0.197,0.243,0.388,0.492,0.57,0.75
		c2.387,3.334,3.332,7.398,2.661,11.445c-1.384,8.349-9.305,14.021-17.655,12.635c-4.491-0.736-8.751,2.298-9.497,6.798
		c-0.745,4.499,2.297,8.75,6.797,9.497c1.756,0.291,3.501,0.432,5.226,0.432c15.299,0,28.84-11.081,31.422-26.66
		c1.392-8.398-0.57-16.834-5.524-23.757C250.332,225.127,242.979,220.549,234.581,219.157z"/>
	<path style="fill:#1A1C20;" d="M384.674,118.366h-31.569c-4.562,0-8.258,3.696-8.258,8.258v31.569
		c0,13.962-10.068,25.609-23.323,28.082c-15.602-33.99-49.958-57.654-89.74-57.654c-18.299,0-35.447,5.013-50.154,13.728
		l-9.36-3.058c-4.335-1.415-8.998,0.95-10.414,5.285c-1.227,3.754,0.386,7.748,3.654,9.673c-9.966,9.05-18.079,20.103-23.694,32.518
		h-6.2c-4.561,0-8.258,3.696-8.258,8.258c0,4.562,3.697,8.258,8.258,8.258h0.448c-1.774,7.067-2.785,14.433-2.938,22.007
		l-13.173,26.126c-2.054,4.073-0.416,9.039,3.656,11.092c1.194,0.601,2.461,0.886,3.712,0.886c2.148,0,4.229-0.854,5.781-2.377
		v19.641c-3.205,1.135-5.505,4.184-5.505,7.778c0,3.595,2.3,6.643,5.505,7.778v6.376c0,18.687,15.204,33.89,33.92,33.89
		l34.426-0.121c7.759,19.882,19.665,50.393,20.258,51.921c0.38,1.011,0.961,1.956,1.733,2.773c1.59,1.68,3.772,2.582,5.999,2.582
		c1.009,0,2.025-0.184,3-0.566l74.744-29.17c15.455-6.033,15.455-6.033,16.679-7.256c2.318-2.318,3.046-5.788,1.854-8.842
		l-21.061-53.968c16.688-18.225,25.815-41.642,25.815-66.529c0-7.363-0.817-14.537-2.353-21.445
		c9.861,4.51,16.733,14.46,16.733,25.993v118.949c0,4.562,3.696,8.258,8.258,8.258h31.569c4.562,0,8.258-3.696,8.258-8.258v-22.021
		c0-4.562-3.696-8.258-8.258-8.258c-4.562,0-8.258,3.696-8.258,8.258v13.763h-15.053V231.853c0-10.739-3.773-20.612-10.064-28.365
		c14.131,1.711,25.117,13.78,25.117,28.365v63.895c0,4.562,3.696,8.258,8.258,8.258c4.562,0,8.258-3.696,8.258-8.258v-63.895
		c0-15.2-7.569-28.658-19.128-36.83c11.559-8.172,19.128-21.631,19.128-36.831v-31.569
		C392.932,122.062,389.236,118.366,384.674,118.366z M231.784,145.136c28.083,0,52.911,14.17,67.737,35.727l-95.033-31.047
		C213.035,146.795,222.217,145.136,231.784,145.136z M184.025,160.504l80.383,26.262H160.357
		C166.267,176.393,174.364,167.431,184.025,160.504z M289.257,286.003c-2.365,2.316-3.118,5.819-1.916,8.902l19.984,51.208
		c-16.759,6.542-56.429,22.023-73.198,28.566l-19.355-49.601c-1.238-3.17-4.292-5.255-7.693-5.255c-0.01,0-0.02,0-0.029,0
		l-40.06,0.142c-9.58,0-17.374-7.793-17.374-17.374v-6.376c3.205-1.135,5.505-4.184,5.505-7.778c0-3.595-2.3-6.643-5.505-7.778
		v-45.095h11.887c0.435,2.56,2.067,4.876,4.588,6.077c1.147,0.547,2.357,0.806,3.549,0.806c3.085,0,6.044-1.736,7.46-4.706
		l3.281-6.882c1.22-2.558,1.042-5.564-0.47-7.961c-1.513-2.397-4.15-3.85-6.984-3.85h-22.896c0.544-5.427,1.624-10.698,3.176-15.764
		h157.154c2.329,7.602,3.591,15.668,3.591,24.022C313.952,249.562,305.182,270.409,289.257,286.003z M376.416,158.193
		c0,14.586-10.985,26.654-25.117,28.366c6.292-7.753,10.065-17.627,10.065-28.366v-23.311h15.053v23.311H376.416z"/>
	<path style="fill:#1A1C20;" d="M468.324,82.581H43.676C19.593,82.581,0,102.174,0,126.257v259.486
		c0,24.083,19.593,43.676,43.676,43.676h424.648c24.082,0,43.675-19.594,43.675-43.676V126.257
		C512,102.174,492.406,82.581,468.324,82.581z M495.484,385.743c0,14.977-12.183,27.16-27.16,27.16H43.676
		c-14.977,0-27.16-12.183-27.16-27.16V126.257c0-14.977,12.183-27.16,27.16-27.16h424.648c14.976,0,27.159,12.183,27.159,27.16
		V385.743z"/>
</g>
<g>
</g>
<g>
</g>
<g>
</g>
<g>
</g>
<g>
</g>
<g>
</g>
<g>
</g>
<g>
</g>
<g>
</g>
<g>
</g>
<g>
</g>
<g>
</g>
<g>
</g>
<g>
</g>
<g>
</g>
</svg>
