<?xml version="1.0" encoding="UTF-8" standalone="no"?>
<svg
   id="Capa_1"
   enable-background="new 0 0 511.999 511.999"
   height="512"
   viewBox="0 0 511.999 511.999"
   width="512"
   version="1.1"
   sodipodi:docname="country.svg"
   inkscape:version="1.4.3 (0d15f75042, 2025-12-25)"
   xmlns:inkscape="http://www.inkscape.org/namespaces/inkscape"
   xmlns:sodipodi="http://sodipodi.sourceforge.net/DTD/sodipodi-0.dtd"
   xmlns="http://www.w3.org/2000/svg"
   xmlns:svg="http://www.w3.org/2000/svg">
  <defs
     id="defs15" />
  <sodipodi:namedview
     id="namedview15"
     pagecolor="#ffffff"
     bordercolor="#000000"
     borderopacity="0.25"
     inkscape:showpageshadow="2"
     inkscape:pageopacity="0.0"
     inkscape:pagecheckerboard="0"
     inkscape:deskcolor="#d1d1d1"
     inkscape:zoom="1.6020388"
     inkscape:cx="237.19775"
     inkscape:cy="300.24242"
     inkscape:window-width="2560"
     inkscape:window-height="1375"
     inkscape:window-x="2240"
     inkscape:window-y="0"
     inkscape:window-maximized="1"
     inkscape:current-layer="Capa_1" />
  <g
     id="g15"
     transform="translate(0,-51.781)">
    <g
       id="g7">
      <path
         d="M 464.343,504.499 H 47.656 C 25.478,504.499 7.5,486.52 7.5,464.343 V 151.219 c 0,-22.178 17.979,-40.156 40.156,-40.156 h 416.686 c 22.178,0 40.156,17.979 40.156,40.156 v 313.124 c 0.001,22.177 -17.978,40.156 -40.155,40.156 z"
         fill="#b1e4f9"
         id="path1" />
      <g
         fill="#9bd069"
         id="g6">
        <path
           d="m 157.383,331.773 h 2.494 c 12.397,0 22.446,10.05 22.446,22.446 0,12.397 -10.05,22.446 -22.446,22.446 h -8.48 v 17.994 c 0,20.386 -16.526,36.912 -36.912,36.912 v -74.858 h -5.487 c -16.805,0 -30.427,-13.623 -30.427,-30.427 0,-16.805 13.623,-30.427 30.427,-30.427 h 12.47 c 19.836,0 35.915,16.079 35.915,35.914 z"
           id="path2" />
        <path
           d="m 108.998,295.859 v -32.921 c 22.314,0 40.404,-18.089 40.404,-40.404 v -3.492 h 13.468 c 16.805,0 30.427,-13.623 30.427,-30.427 0,-16.805 -13.623,-30.427 -30.427,-30.427 H 70.59 v 5.487 c 0,11.295 -9.156,20.451 -20.451,20.451 -9.642,0 -17.458,7.816 -17.458,17.458 0,9.642 7.816,17.458 17.458,17.458 h 10.974 c 7.438,0 13.468,6.03 13.468,13.468 0,7.438 -6.03,13.468 -13.468,13.468 H 44.652 v 6.769 c 0,23.81 19.302,43.112 43.112,43.112 z"
           id="path3" />
        <path
           d="m 247.355,240.657 h 43.081 v 3.829 c 0,17.72 14.365,32.085 32.085,32.085 h 15.801 v -20.285 c 0,-6.795 5.509,-12.304 12.304,-12.304 6.795,0 12.304,5.509 12.304,12.304 v 32.922 c 0,7.346 5.955,13.302 13.302,13.302 7.346,0 13.302,-5.955 13.302,-13.302 v -22.28 c 0,-6.428 5.211,-11.639 11.639,-11.639 6.428,0 11.639,5.211 11.639,11.639 v 14.299 c 16.162,0 29.264,-13.102 29.264,-29.264 V 222.7 c 8.081,0 14.632,-6.551 14.632,-14.632 v -4.656 c 0,-9.917 8.04,-17.957 17.957,-17.957 v -2.798 c 0,-15.718 -12.742,-28.461 -28.461,-28.461 h -42.038 c -6.979,0 -12.637,5.658 -12.637,12.637 0,7.714 -6.253,13.967 -13.967,13.967 -7.714,0 -13.967,-6.253 -13.967,-13.967 0,-6.979 -5.658,-12.637 -12.637,-12.637 h -20.65 c -9.165,0 -16.595,7.43 -16.595,16.595 V 180.8 h -40.072 c -8.723,0 -15.794,7.071 -15.794,15.794 v 3.493 h -15.419 c -9.115,0 -16.505,7.389 -16.505,16.505 v 2.633 c 0,11.837 9.595,21.432 21.432,21.432 z"
           id="path4" />
        <path
           d="m 316.592,276.016 h -44.113 v -6.427 c 0,-6.061 -4.913,-10.974 -10.974,-10.974 -22.957,0 -41.567,18.61 -41.567,41.568 v 5.409 c 0,19.97 16.189,36.159 36.159,36.159 8.313,0 15.053,6.739 15.053,15.053 v 37.73 c 0,9.417 7.634,17.05 17.05,17.05 21.07,0 38.151,-17.081 38.151,-38.151 v -35.008 c 14.325,0 25.938,-11.613 25.938,-25.938 v -0.665 h -9.562 c -14.434,0 -26.134,-11.701 -26.134,-26.134 v -9.672 z"
           id="path5" />
        <path
           d="m 399.509,394.956 h -26.603 v -14.851 c 0,-20.816 16.874,-37.69 37.69,-37.69 h 31.033 c 20.816,0 37.69,16.874 37.69,37.69 v 7.038 c 0,18.273 -14.813,33.086 -33.086,33.086 h -21.45 c -0.001,-13.958 -11.316,-25.273 -25.274,-25.273 z"
           id="path6" />
      </g>
    </g>
    <g
       id="g14">
      <path
         d="M 464.343,103.563 H 346.751 L 165.248,103.562 H 47.656 C 21.378,103.563 0,124.941 0,151.219 v 313.124 c 0,26.278 21.378,47.656 47.656,47.656 h 416.687 c 26.278,0 47.656,-21.378 47.656,-47.656 V 151.219 c 0,-26.278 -21.378,-47.656 -47.656,-47.656 z m -141.077,0 H 188.732 Z m 173.733,360.78 c 0,18.007 -14.649,32.656 -32.656,32.656 H 47.656 C 29.649,496.999 15,482.35 15,464.343 V 151.219 c 0,-18.007 14.649,-32.656 32.656,-32.656 h 416.687 c 18.007,0 32.656,14.649 32.656,32.656 z"
         id="path8"
         sodipodi:nodetypes="scccssssssscccsssssssss" />
      <path
         d="m 142.873,256.402 c 8.094,-8.094 12.934,-18.577 13.863,-29.863 h 6.134 c 20.915,0 37.93,-17.011 37.93,-37.92 0,-10.135 -3.944,-19.661 -11.111,-26.828 -7.172,-7.159 -16.697,-11.102 -26.818,-11.102 h -31.92 c -4.142,0 -7.5,3.358 -7.5,7.5 0,4.142 3.358,7.5 7.5,7.5 h 31.92 c 6.12,0 11.881,2.386 16.217,6.713 4.329,4.329 6.713,10.088 6.713,16.217 0,12.638 -10.286,22.92 -22.93,22.92 h -13.47 c -4.142,0 -7.5,3.358 -7.5,7.5 v 3.49 c 0,8.792 -3.421,17.055 -9.637,23.271 -6.208,6.216 -14.47,9.64 -23.263,9.64 -4.142,0 -7.5,3.358 -7.5,7.5 v 25.42 h -13.74 c -19.391,0 -35.211,-15.581 -35.603,-34.88 h 8.953 c 5.592,0 10.856,-2.176 14.845,-6.148 3.95,-3.967 6.125,-9.23 6.125,-14.822 0,-11.563 -9.407,-20.97 -20.97,-20.97 H 50.14 c -2.659,0 -5.158,-1.035 -7.037,-2.913 -1.885,-1.886 -2.923,-4.388 -2.923,-7.047 0,-2.653 1.038,-5.152 2.923,-7.037 1.879,-1.879 4.378,-2.914 7.037,-2.914 14.732,0 26.839,-11.462 27.877,-25.94 h 23.212 c 4.142,0 7.5,-3.358 7.5,-7.5 0,-4.142 -3.358,-7.5 -7.5,-7.5 h -30.64 c -4.142,0 -7.5,3.358 -7.5,7.5 v 5.48 c 0,7.146 -5.809,12.96 -12.95,12.96 -6.666,0 -12.932,2.595 -17.644,7.307 -4.718,4.718 -7.316,10.984 -7.316,17.643 0,6.665 2.598,12.935 7.317,17.654 4.712,4.711 10.978,7.306 17.643,7.306 h 10.97 c 3.292,0 5.97,2.678 5.97,5.97 0,1.597 -0.623,3.102 -1.732,4.216 -1.136,1.131 -2.641,1.754 -4.238,1.754 h -16.46 c -4.142,0 -7.5,3.358 -7.5,7.5 v 6.77 c 0,25.047 18.294,45.891 42.219,49.901 -5.186,6.488 -8.298,14.703 -8.298,23.636 0,20.238 15.933,36.825 35.915,37.875 v 67.411 c 0,4.142 3.358,7.5 7.5,7.5 24.489,0 44.412,-19.923 44.412,-44.412 v -10.494 h 0.979 c 16.513,0 29.947,-13.434 29.947,-29.946 0,-15.014 -11.105,-27.483 -25.534,-29.623 -3.431,-20.535 -21.327,-36.238 -42.821,-36.238 H 116.5 v -18.5 c 9.952,-1.555 19.125,-6.199 26.373,-13.457 z m 7.01,75.371 c 0,4.142 3.358,7.5 7.5,7.5 h 2.494 c 8.242,0 14.947,6.705 14.947,14.947 0,8.241 -6.705,14.946 -14.947,14.946 h -8.479 c -4.142,0 -7.5,3.358 -7.5,7.5 v 17.994 c 0,13.626 -9.316,25.119 -21.912,28.443 v -66.39 c 0,-4.142 -3.358,-7.5 -7.5,-7.5 h -5.487 c -12.643,0 -22.928,-10.285 -22.928,-22.927 0,-12.642 10.285,-22.927 22.928,-22.927 H 109 121.469 c 15.667,0 28.414,12.746 28.414,28.414 z"
         id="path9" />
      <path
         d="m 376.231,310.009 c 11.47,0 20.802,-9.332 20.802,-20.801 v -22.28 c 0,-2.282 1.857,-4.139 4.139,-4.139 2.282,0 4.139,1.857 4.139,4.139 v 14.299 c 0,4.142 3.358,7.5 7.5,7.5 20.271,0 36.764,-16.492 36.764,-36.764 v -23.072 c 8.523,-3.079 14.632,-11.252 14.632,-20.824 v -4.655 c 0,-5.766 4.691,-10.457 10.457,-10.457 4.142,0 7.5,-3.358 7.5,-7.5 v -2.798 c 0,-19.829 -16.132,-35.96 -35.961,-35.96 h -42.038 c -11.104,0 -20.137,9.033 -20.137,20.136 0,3.566 -2.901,6.467 -6.467,6.467 -3.565,0 -6.466,-2.901 -6.466,-6.467 0,-11.103 -9.033,-20.136 -20.137,-20.136 h -20.65 c -13.286,0 -24.095,10.809 -24.095,24.094 v 2.509 h -32.572 c -11.478,0 -21.044,8.346 -22.95,19.287 h -8.264 c -13.236,0 -24.005,10.769 -24.005,24.005 v 2.633 c 0,15.953 12.979,28.932 28.932,28.932 h 35.75 c 0.703,7.612 3.574,14.604 7.983,20.358 h -11.14 c -0.557,-9.689 -8.616,-17.401 -18.443,-17.401 -27.056,0 -49.068,22.012 -49.068,49.067 v 5.409 c 0,24.073 19.585,43.659 43.659,43.659 4.165,0 7.553,3.388 7.553,7.552 v 37.73 c 0,13.537 11.013,24.55 24.55,24.55 25.172,0 45.651,-20.479 45.651,-45.651 v -28.356 c 14.838,-3.414 25.938,-16.73 25.938,-32.59 v -0.665 c 0,-4.142 -3.358,-7.5 -7.5,-7.5 h -9.562 c -10.275,0 -18.634,-8.359 -18.634,-18.635 v -1.615 h 14.23 c 4.142,0 7.5,-3.358 7.5,-7.5 v -20.285 c 0,-2.649 2.155,-4.804 4.804,-4.804 2.649,0 4.804,2.155 4.804,4.804 v 32.921 c 0.001,11.473 9.332,20.804 20.802,20.804 z m -33.505,9.312 h 0.749 c -2.721,6.792 -9.372,11.603 -17.125,11.603 -4.142,0 -7.5,3.358 -7.5,7.5 v 35.008 c 0,16.901 -13.75,30.651 -30.651,30.651 -5.266,0 -9.55,-4.284 -9.55,-9.55 v -37.73 c 0,-12.436 -10.117,-22.552 -22.553,-22.552 -15.802,0 -28.659,-12.856 -28.659,-28.659 v -5.409 c 0,-18.785 15.283,-34.067 34.068,-34.067 1.916,0 3.474,1.558 3.474,3.474 v 6.428 c 0,4.142 3.358,7.5 7.5,7.5 h 36.613 v 2.17 c 0,18.544 15.088,33.633 33.634,33.633 z m 7.899,-82.839 c -10.92,0 -19.804,8.884 -19.804,19.804 v 12.785 h -8.301 c -13.556,0 -24.585,-11.029 -24.585,-24.585 v -3.829 c 0,-4.142 -3.358,-7.5 -7.5,-7.5 h -43.081 c -7.682,0 -13.932,-6.25 -13.932,-13.932 v -2.633 c 0,-4.965 4.04,-9.005 9.005,-9.005 h 15.419 c 4.142,0 7.5,-3.358 7.5,-7.5 v -3.493 c 0,-4.574 3.721,-8.294 8.294,-8.294 h 40.072 c 4.142,0 7.5,-3.358 7.5,-7.5 v -10.009 c 0,-5.015 4.08,-9.094 9.095,-9.094 h 20.65 c 2.833,0 5.137,2.304 5.137,5.136 0,11.837 9.63,21.467 21.467,21.467 11.836,0 21.466,-9.63 21.466,-21.467 0,-2.832 2.304,-5.136 5.137,-5.136 h 42.038 c 10.372,0 19.008,7.572 20.671,17.478 -10.238,3.298 -17.667,12.917 -17.667,24.238 v 4.655 c 0,3.933 -3.199,7.132 -7.132,7.132 -4.142,0 -7.5,3.358 -7.5,7.5 v 29.264 c 0,9.366 -5.948,17.369 -14.264,20.432 v -5.467 c 0,-10.553 -8.585,-19.139 -19.139,-19.139 -10.554,0 -19.139,8.586 -19.139,19.139 v 22.28 c 0,3.199 -2.603,5.801 -5.802,5.801 -3.199,0 -5.801,-2.603 -5.801,-5.801 v -32.921 c 0.001,-10.921 -8.884,-19.806 -19.804,-19.806 z"
         id="path10" />
      <path
         d="M 441.629,334.919 H 425.6 c -4.142,0 -7.5,3.358 -7.5,7.5 0,4.142 3.358,7.5 7.5,7.5 h 16.03 c 16.647,0 30.19,13.543 30.19,30.19 v 7.03 c 0,14.11 -11.479,25.59 -25.59,25.59 h -14.807 c -1.372,-5.889 -4.359,-11.292 -8.74,-15.673 -6.188,-6.188 -14.418,-9.597 -23.173,-9.597 h -19.1 v -7.35 c 0,-12.148 7.226,-23.062 18.408,-27.805 3.813,-1.617 5.594,-6.02 3.977,-9.833 -1.617,-3.813 -6.02,-5.594 -9.833,-3.977 -16.737,7.099 -27.552,23.433 -27.552,41.615 v 14.85 c 0,4.142 3.358,7.5 7.5,7.5 h 26.6 c 4.749,0 9.211,1.848 12.567,5.203 3.356,3.355 5.203,7.818 5.203,12.567 0,4.142 3.358,7.5 7.5,7.5 h 21.45 c 22.381,0 40.59,-18.208 40.59,-40.59 v -7.03 c -10e-4,-24.918 -20.273,-45.19 -45.191,-45.19 z"
         id="path11" />
      <path
         d="m 475.661,213.537 c -4.142,0 -7.5,3.358 -7.5,7.5 v 32.921 c 0,4.142 3.358,7.5 7.5,7.5 4.142,0 7.5,-3.358 7.5,-7.5 v -32.921 c 0,-4.142 -3.358,-7.5 -7.5,-7.5 z"
         id="path12" />
      <path
         d="m 131.554,460.959 h -87.79 c -4.142,0 -7.5,3.358 -7.5,7.5 0,4.142 3.358,7.5 7.5,7.5 h 87.791 c 4.142,0 7.5,-3.358 7.5,-7.5 0,-4.142 -3.359,-7.5 -7.501,-7.5 z"
         id="path13" />
      <path
         d="m 43.764,452.996 h 41.9 c 4.142,0 7.5,-3.358 7.5,-7.5 0,-4.142 -3.358,-7.5 -7.5,-7.5 h -41.9 c -4.142,0 -7.5,3.358 -7.5,7.5 0,4.142 3.358,7.5 7.5,7.5 z"
         id="path14" />
    </g>
  </g>
</svg>
