<?xml version="1.0" encoding="iso-8859-1"?>
<!-- Generator: Adobe Illustrator 19.0.0, SVG Export Plug-In . SVG Version: 6.00 Build 0)  -->
<svg version="1.1" id="Layer_1" xmlns="http://www.w3.org/2000/svg" xmlns:xlink="http://www.w3.org/1999/xlink" x="0px" y="0px"
	 viewBox="0 0 512 512" style="enable-background:new 0 0 512 512;" xml:space="preserve">
<rect x="8.258" y="204.249" style="fill:#FFFFFF;" width="495.484" height="103.501"/>
<path style="fill:#164FCE;" d="M503.742,307.751H8.258v74.522c0,21.478,17.411,38.889,38.889,38.889h417.706
	c21.478,0,38.889-17.411,38.889-38.889V307.751z"/>
<path style="fill:#259245;" d="M464.853,90.839H47.147c-21.478,0-38.889,17.411-38.889,38.889v74.522h495.484v-74.522
	C503.742,108.25,486.331,90.839,464.853,90.839z"/>
<path style="fill:#1A1C20;" d="M468.324,82.581H43.676C19.594,82.581,0,102.174,0,126.257v259.486
	c0,24.083,19.594,43.676,43.676,43.676h424.647c24.083,0,43.676-19.594,43.676-43.676V126.257
	C512,102.174,492.406,82.581,468.324,82.581z M16.516,212.508h478.968v86.985H16.516V212.508z M43.676,99.097h424.647
	c14.977,0,27.16,12.183,27.16,27.16v69.734H16.516v-69.734C16.516,111.28,28.7,99.097,43.676,99.097z M468.324,412.903H43.676
	c-14.977,0-27.16-12.183-27.16-27.16v-69.734h478.968v69.734C495.484,400.72,483.3,412.903,468.324,412.903z"/>
<g>
</g>
<g>
</g>
<g>
</g>
<g>
</g>
<g>
</g>
<g>
</g>
<g>
</g>
<g>
</g>
<g>
</g>
<g>
</g>
<g>
</g>
<g>
</g>
<g>
</g>
<g>
</g>
<g>
</g>
</svg>
