<?xml version="1.0" encoding="iso-8859-1"?>
<!-- Generator: Adobe Illustrator 19.0.0, SVG Export Plug-In . SVG Version: 6.00 Build 0)  -->
<svg version="1.1" id="Layer_1" xmlns="http://www.w3.org/2000/svg" xmlns:xlink="http://www.w3.org/1999/xlink" x="0px" y="0px"
	 viewBox="0 0 512 512" style="enable-background:new 0 0 512 512;" xml:space="preserve">
<rect x="173.419" y="90.839" style="fill:#FFE000;" width="165.161" height="330.323"/>
<g>
	<path style="fill:#164FCE;" d="M173.419,90.839v330.323H44.777c-20.169,0-36.519-16.35-36.519-36.519V127.358
		c0-20.17,16.35-36.519,36.519-36.519H173.419z"/>
	<path style="fill:#164FCE;" d="M503.742,127.358v256.551c0,20.575-16.679,37.253-37.253,37.253H338.581V90.839h128.642
		C487.392,90.839,503.742,107.189,503.742,127.358z"/>
</g>
<polygon style="fill:#FFFFFF;" points="308.852,243.82 274.788,243.82 274.788,209.755 243.82,209.755 243.82,243.82
	209.755,243.82 209.755,274.788 243.82,274.788 243.82,308.852 274.788,308.852 274.788,274.788 308.852,274.788 "/>
<g>
	<path style="fill:#ED1F34;" d="M308.852,294.056c-4.562,0-8.258-3.696-8.258-8.258v-52.989c0-4.562,3.696-8.258,8.258-8.258
		s8.258,3.696,8.258,8.258v52.989C317.11,290.359,313.413,294.056,308.852,294.056z"/>
	<path style="fill:#ED1F34;" d="M274.788,317.11c-4.562,0-8.258-3.696-8.258-8.258v-34.065c0-4.562,3.696-8.258,8.258-8.258h34.064
		c4.562,0,8.258,3.696,8.258,8.258c0,4.562-3.696,8.258-8.258,8.258h-25.807v25.807C283.046,313.413,279.348,317.11,274.788,317.11z
		"/>
	<path style="fill:#ED1F34;" d="M285.798,317.11h-52.989c-4.562,0-8.258-3.696-8.258-8.258s3.696-8.258,8.258-8.258h52.989
		c4.562,0,8.258,3.696,8.258,8.258S290.359,317.11,285.798,317.11z"/>
	<path style="fill:#ED1F34;" d="M243.82,317.11c-4.562,0-8.258-3.696-8.258-8.258v-25.807h-25.807c-4.562,0-8.258-3.696-8.258-8.258
		s3.696-8.258,8.258-8.258h34.065c4.562,0,8.258,3.696,8.258,8.258v34.065C252.078,313.413,248.381,317.11,243.82,317.11z"/>
	<path style="fill:#ED1F34;" d="M209.755,294.056c-4.562,0-8.258-3.696-8.258-8.258v-52.989c0-4.562,3.696-8.258,8.258-8.258
		c4.562,0,8.258,3.696,8.258,8.258v52.989C218.013,290.359,214.317,294.056,209.755,294.056z"/>
	<path style="fill:#ED1F34;" d="M243.82,252.078h-34.065c-4.562,0-8.258-3.696-8.258-8.258c0-4.562,3.696-8.258,8.258-8.258h25.807
		v-25.807c0-4.562,3.696-8.258,8.258-8.258c4.562,0,8.258,3.696,8.258,8.258v34.065C252.078,248.381,248.381,252.078,243.82,252.078
		z"/>
	<path style="fill:#ED1F34;" d="M285.798,218.013h-52.989c-4.562,0-8.258-3.696-8.258-8.258c0-4.562,3.696-8.258,8.258-8.258h52.989
		c4.562,0,8.258,3.696,8.258,8.258C294.056,214.317,290.359,218.013,285.798,218.013z"/>
	<path style="fill:#ED1F34;" d="M308.852,252.078h-34.065c-4.562,0-8.258-3.696-8.258-8.258v-34.065
		c0-4.562,3.696-8.258,8.258-8.258c4.562,0,8.258,3.696,8.258,8.258v25.807h25.807c4.562,0,8.258,3.696,8.258,8.258
		C317.11,248.382,313.413,252.078,308.852,252.078z"/>
</g>
<path style="fill:#1A1C20;" d="M468.324,82.581H43.676C19.594,82.581,0,102.174,0,126.257v259.486
	c0,24.083,19.594,43.676,43.676,43.676h424.647c24.083,0,43.676-19.594,43.676-43.676V126.257
	C512,102.174,492.406,82.581,468.324,82.581z M16.516,385.743V126.257c0-14.977,12.183-27.16,27.16-27.16h121.485v313.806H43.676
	C28.7,412.903,16.516,400.72,16.516,385.743z M495.484,385.743c0,14.977-12.183,27.16-27.16,27.16H346.839v-256
	c0-4.562-3.696-8.258-8.258-8.258s-8.258,3.696-8.258,8.258v256H181.677V99.097h148.645v24.774c0,4.562,3.696,8.258,8.258,8.258
	s8.258-3.696,8.258-8.258V99.097h121.485c14.977,0,27.16,12.183,27.16,27.16V385.743z"/>
<g>
</g>
<g>
</g>
<g>
</g>
<g>
</g>
<g>
</g>
<g>
</g>
<g>
</g>
<g>
</g>
<g>
</g>
<g>
</g>
<g>
</g>
<g>
</g>
<g>
</g>
<g>
</g>
<g>
</g>
</svg>
