<?xml version="1.0" encoding="iso-8859-1"?>
<!-- Generator: Adobe Illustrator 19.0.0, SVG Export Plug-In . SVG Version: 6.00 Build 0)  -->
<svg version="1.1" id="Layer_1" xmlns="http://www.w3.org/2000/svg" xmlns:xlink="http://www.w3.org/1999/xlink" x="0px" y="0px"
	 viewBox="0 0 512 512" style="enable-background:new 0 0 512 512;" xml:space="preserve">
<rect x="8.258" y="200.946" style="fill:#ED1F34;" width="495.484" height="110.108"/>
<path style="fill:#FFFFFF;" d="M503.742,200.946H8.258v-76.073c0-18.796,15.238-34.034,34.034-34.034h427.417
	c18.796,0,34.033,15.238,34.033,34.034V200.946z"/>
<path style="fill:#FFE000;" d="M467.533,421.161H44.467c-19.998,0-36.209-16.211-36.209-36.209v-73.899h495.484v73.899
	C503.742,404.95,487.531,421.161,467.533,421.161z"/>
<path style="fill:#1A1C20;" d="M468.324,82.581H43.676C19.594,82.581,0,102.173,0,126.256v259.487
	c0,24.084,19.594,43.676,43.676,43.676h424.647c24.083,0,43.676-19.593,43.676-43.676V126.256
	C512,102.173,492.406,82.581,468.324,82.581z M43.676,99.097h424.647c14.977,0,27.16,12.183,27.16,27.159v66.432h-57.806
	c-4.562,0-8.258,3.697-8.258,8.258s3.696,8.258,8.258,8.258h57.806v93.591H16.516v-93.591h388.129c4.562,0,8.258-3.697,8.258-8.258
	s-3.696-8.258-8.258-8.258H16.516v-66.432C16.516,111.28,28.7,99.097,43.676,99.097z M468.324,412.903H43.676
	c-14.977,0-27.16-12.183-27.16-27.16v-66.431h478.968v66.431C495.484,400.72,483.3,412.903,468.324,412.903z"/>
<g>
</g>
<g>
</g>
<g>
</g>
<g>
</g>
<g>
</g>
<g>
</g>
<g>
</g>
<g>
</g>
<g>
</g>
<g>
</g>
<g>
</g>
<g>
</g>
<g>
</g>
<g>
</g>
<g>
</g>
</svg>
