<?xml version="1.0" encoding="iso-8859-1"?>
<!-- Generator: Adobe Illustrator 19.0.0, SVG Export Plug-In . SVG Version: 6.00 Build 0)  -->
<svg version="1.1" id="Layer_1" xmlns="http://www.w3.org/2000/svg" xmlns:xlink="http://www.w3.org/1999/xlink" x="0px" y="0px"
	 viewBox="0 0 512 512" style="enable-background:new 0 0 512 512;" xml:space="preserve">
<path style="fill:#FFFFFF;" d="M8.258,388.847V123.153c0-17.846,14.468-32.314,32.314-32.314h430.854
	c17.847,0,32.314,14.468,32.314,32.314v265.693c0,17.847-14.468,32.314-32.314,32.314H40.572
	C22.726,421.161,8.258,406.693,8.258,388.847z"/>
<path style="fill:#ED1F34;" d="M359.98,198.359c-11.947,17.266-28.085,31.405-46.939,40.963
	c-2.496-6.838-9.039-11.729-16.741-11.729c-9.85,0-17.836,7.986-17.836,17.836c0,1.86,0.286,3.653,0.815,5.339
	c-7.546,1.406-15.326,2.146-23.279,2.146s-15.733-0.74-23.279-2.146c0.527-1.686,0.815-3.479,0.815-5.339
	c0-9.85-7.986-17.836-17.836-17.836c-7.702,0-14.245,4.891-16.741,11.729c-18.854-9.558-34.993-23.697-46.939-40.963h-48.225
	c7.859,77.127,73.003,137.305,152.205,137.305s144.345-60.178,152.205-137.305H359.98z"/>
<g>
	<path style="fill:#1A1C20;" d="M435.072,190.1h-26.833c-0.029,0-0.056,0-0.085,0h-61.606c-4.561,0-8.258,3.696-8.258,8.258
		c0,3.439,2.102,6.384,5.09,7.626c-7.97,8.752-17.227,16.299-27.419,22.323c-4.868-5.576-12.002-8.974-19.659-8.974
		c-13.842,0-25.2,10.833-26.045,24.466c-9.449,1.137-19.064,1.137-28.513,0c-0.845-13.632-12.203-24.466-26.045-24.466
		c-7.658,0-14.792,3.398-19.66,8.974c-10.192-6.024-19.449-13.571-27.419-22.323c2.988-1.242,5.09-4.187,5.09-7.626
		c0-4.562-3.697-8.258-8.258-8.258h-13.527c-0.003,0-0.006,0-0.009,0h-48.094c-0.014,0-0.029,0-0.043,0H76.928
		c-4.561,0-8.258,3.696-8.258,8.258c0,4.562,3.697,8.258,8.258,8.258h19.59c5.061,33.775,20.926,65.42,45.164,89.782
		c25.996,26.129,60.417,42.677,96.92,46.594c0.299,0.032,0.597,0.048,0.892,0.048c4.165,0,7.746-3.144,8.201-7.377
		c0.487-4.535-2.795-8.605-7.33-9.093c-64.434-6.916-116.549-56.695-127.128-119.954h34.545
		c12.462,16.809,28.783,30.611,47.443,40.071c2.107,1.069,4.569,1.183,6.765,0.316c2.197-0.867,3.918-2.633,4.727-4.85
		c1.376-3.77,4.986-6.304,8.983-6.304c5.282,0,9.578,4.296,9.578,9.578c0,0.979-0.148,1.945-0.438,2.872
		c-0.706,2.254-0.413,4.702,0.804,6.724c1.217,2.024,3.243,3.429,5.565,3.861c8.14,1.516,16.481,2.285,24.792,2.285
		c8.311,0,16.652-0.769,24.792-2.285c2.321-0.433,4.347-1.838,5.565-3.861c1.217-2.024,1.511-4.471,0.804-6.724
		c-0.291-0.928-0.438-1.894-0.438-2.872c0-5.282,4.296-9.578,9.578-9.578c3.997,0,7.606,2.534,8.983,6.304
		c0.809,2.219,2.53,3.984,4.727,4.85c2.196,0.867,4.659,0.753,6.765-0.316c18.66-9.459,34.981-23.262,47.443-40.071h34.545
		c-10.579,63.259-62.695,113.04-127.128,119.954c-4.535,0.487-7.817,4.557-7.33,9.093c0.455,4.236,4.034,7.377,8.201,7.377
		c0.295,0,0.592-0.017,0.892-0.048c36.503-3.919,70.924-20.466,96.92-46.594c24.238-24.362,40.103-56.006,45.164-89.782h19.59
		c4.561,0,8.258-3.696,8.258-8.258C443.33,193.797,439.633,190.1,435.072,190.1z"/>
	<path style="fill:#1A1C20;" d="M468.324,82.581H43.676C19.593,82.581,0,102.174,0,126.257v259.486
		c0,24.083,19.593,43.676,43.676,43.676h424.648c24.083,0,43.675-19.594,43.675-43.676V126.257
		C512,102.174,492.407,82.581,468.324,82.581z M495.484,385.743c0,14.977-12.183,27.16-27.16,27.16H43.676
		c-14.977,0-27.16-12.183-27.16-27.16V126.257c0-14.977,12.183-27.16,27.16-27.16h424.648c14.976,0,27.159,12.183,27.159,27.16
		V385.743z"/>
</g>
<g>
</g>
<g>
</g>
<g>
</g>
<g>
</g>
<g>
</g>
<g>
</g>
<g>
</g>
<g>
</g>
<g>
</g>
<g>
</g>
<g>
</g>
<g>
</g>
<g>
</g>
<g>
</g>
<g>
</g>
</svg>
