<?xml version="1.0" encoding="iso-8859-1"?>
<!-- Generator: Adobe Illustrator 19.0.0, SVG Export Plug-In . SVG Version: 6.00 Build 0)  -->
<svg version="1.1" id="Layer_1" xmlns="http://www.w3.org/2000/svg" xmlns:xlink="http://www.w3.org/1999/xlink" x="0px" y="0px"
	 viewBox="0 0 512 512" style="enable-background:new 0 0 512 512;" xml:space="preserve">
<polygon style="fill:#FFFFFF;" points="503.742,256 256,421.161 8.258,256 256,90.839 "/>
<polygon style="fill:#FFE000;" points="169.169,227.787 233.102,224.484 256,164.701 278.898,224.484 342.831,227.787
	293.049,268.038 309.664,329.862 256,294.956 202.336,329.862 218.951,268.038 "/>
<g>
	<path style="fill:#ED1F34;" d="M256,90.839L8.258,256V129.376c0-21.284,17.254-38.538,38.538-38.538H256z"/>
	<path style="fill:#ED1F34;" d="M503.742,129.376V256L256,90.839h209.204C486.488,90.839,503.742,108.093,503.742,129.376z"/>
</g>
<g>
	<path style="fill:#164FCE;" d="M256,421.161H46.796c-21.284,0-38.538-17.254-38.538-38.538V256L256,421.161z"/>
	<path style="fill:#164FCE;" d="M503.742,256v126.624c0,21.284-17.254,38.538-38.538,38.538H256L503.742,256z"/>
</g>
<g>
	<path style="fill:#1A1C20;" d="M343.256,219.54l-58.567-3.026l-20.977-54.766c-1.223-3.194-4.29-5.304-7.712-5.304
		c-3.422,0-6.489,2.11-7.712,5.304l-20.977,54.766l-58.567,3.026c-3.418,0.177-6.371,2.442-7.428,5.695
		c-1.057,3.254,0.001,6.822,2.661,8.974l45.604,36.874l-15.221,56.637c-0.889,3.304,0.353,6.813,3.122,8.824
		c2.768,2.012,6.489,2.106,9.357,0.242L256,304.808l49.161,31.977c1.372,0.892,2.939,1.336,4.503,1.336
		c1.707,0,3.41-0.527,4.854-1.578c2.768-2.011,4.01-5.52,3.122-8.824l-15.221-56.637l45.604-36.874
		c2.66-2.151,3.718-5.72,2.661-8.974C349.627,221.982,346.674,219.716,343.256,219.54z M287.857,261.617
		c-2.54,2.054-3.63,5.411-2.782,8.565l11.02,41.002l-35.59-23.15c-1.369-0.891-2.937-1.336-4.503-1.336
		c-1.567,0-3.135,0.445-4.503,1.336l-35.59,23.15l11.02-41.002c0.848-3.155-0.243-6.512-2.782-8.565l-33.015-26.696l42.4-2.19
		c3.262-0.168,6.119-2.244,7.286-5.294l15.186-39.649l15.186,39.649c1.167,3.05,4.023,5.124,7.286,5.294l42.4,2.19L287.857,261.617z
		"/>
	<path style="fill:#1A1C20;" d="M468.324,82.581H43.676C19.594,82.581,0,102.173,0,126.256v259.487
		c0,24.084,19.594,43.676,43.676,43.676h424.647c24.083,0,43.676-19.593,43.676-43.676V126.256
		C512,102.173,492.406,82.581,468.324,82.581z M495.484,126.256V240.57L283.275,99.097h185.05
		C483.3,99.097,495.484,111.28,495.484,126.256z M43.676,99.097h185.05L16.516,240.57V126.256
		C16.516,111.28,28.7,99.097,43.676,99.097z M16.516,385.743V271.429l212.21,141.474H43.676
		C28.7,412.903,16.516,400.72,16.516,385.743z M468.324,412.903H283.275l148.418-98.945c3.794-2.529,4.82-7.657,2.29-11.451
		c-2.529-3.795-7.657-4.82-11.451-2.29L256,411.236L23.146,256L256,100.764L488.854,256l-38.839,25.894
		c-3.794,2.529-4.82,7.657-2.29,11.451c2.53,3.795,7.659,4.821,11.451,2.29l36.308-24.205v114.314
		C495.484,400.72,483.3,412.903,468.324,412.903z"/>
</g>
<g>
</g>
<g>
</g>
<g>
</g>
<g>
</g>
<g>
</g>
<g>
</g>
<g>
</g>
<g>
</g>
<g>
</g>
<g>
</g>
<g>
</g>
<g>
</g>
<g>
</g>
<g>
</g>
<g>
</g>
</svg>
