<?xml version="1.0" encoding="iso-8859-1"?>
<!-- Generator: Adobe Illustrator 19.0.0, SVG Export Plug-In . SVG Version: 6.00 Build 0)  -->
<svg version="1.1" id="Layer_1" xmlns="http://www.w3.org/2000/svg" xmlns:xlink="http://www.w3.org/1999/xlink" x="0px" y="0px"
	 viewBox="0 0 512 512" style="enable-background:new 0 0 512 512;" xml:space="preserve">
<path style="fill:#ED1F34;" d="M503.742,121.669v268.662c0,17.027-13.803,30.83-30.83,30.83H39.088
	c-17.027,0-30.83-13.803-30.83-30.83V121.669c0-17.027,13.803-30.83,30.83-30.83h433.824
	C489.939,90.839,503.742,104.642,503.742,121.669z"/>
<rect x="32.482" y="115.062" style="fill:#103B9B;" width="447.037" height="281.875"/>
<polygon style="fill:#FFFFFF;" points="421.161,256 256,366.108 90.839,256 256,145.892 "/>
<path style="fill:#259245;" d="M321.523,222.417c-33.435,0-60.7,26.378-62.141,59.458h-31.82
	c-5.143-10.726-16.102-18.133-28.792-18.133c-0.544,0-1.085,0.014-1.622,0.041c-7.168-8.781-18.074-14.39-30.293-14.39
	c-19.061,0-34.916,13.651-38.37,31.704l52.367,34.911h150.297l52.459-34.972C381.743,248.353,354.674,222.417,321.523,222.417z"/>
<g>
	<path style="fill:#ED1F34;" d="M256,374.366c-1.597,0-3.194-0.462-4.58-1.387L86.258,262.871c-2.297-1.532-3.678-4.109-3.678-6.871
		c0-2.762,1.38-5.34,3.678-6.871L251.42,139.022c2.774-1.85,6.388-1.85,9.161,0l165.161,110.108
		c2.297,1.532,3.678,4.109,3.678,6.871c0,2.762-1.38,5.34-3.678,6.871L260.58,372.978C259.194,373.903,257.597,374.366,256,374.366z
		 M105.726,256L256,356.182L406.274,256L256,155.818L105.726,256z"/>
	<path style="fill:#ED1F34;" d="M256,154.151c-4.561,0-8.258-3.697-8.258-8.258V90.839c0-4.561,3.697-8.258,8.258-8.258
		c4.561,0,8.258,3.697,8.258,8.258v55.054C264.258,150.453,260.561,154.151,256,154.151z"/>
	<path style="fill:#ED1F34;" d="M90.839,264.258H8.258C3.697,264.258,0,260.562,0,256c0-4.561,3.697-8.258,8.258-8.258h82.581
		c4.561,0,8.258,3.697,8.258,8.258C99.097,260.562,95.399,264.258,90.839,264.258z"/>
	<path style="fill:#ED1F34;" d="M503.742,264.258h-82.581c-4.561,0-8.258-3.696-8.258-8.258c0-4.561,3.697-8.258,8.258-8.258h82.581
		c4.561,0,8.258,3.697,8.258,8.258C512,260.562,508.303,264.258,503.742,264.258z"/>
	<path style="fill:#ED1F34;" d="M256,429.419c-4.561,0-8.258-3.696-8.258-8.258v-55.054c0-4.562,3.697-8.258,8.258-8.258
		c4.561,0,8.258,3.696,8.258,8.258v55.054C264.258,425.723,260.561,429.419,256,429.419z"/>
</g>
<circle style="fill:#FFE000;" cx="256.044" cy="205.373" r="24.751"/>
<path style="fill:#1A1C20;" d="M468.324,429.419H43.676C19.593,429.419,0,409.826,0,385.743V126.256
	c0-24.083,19.593-43.675,43.676-43.675h424.648c24.083,0,43.675,19.593,43.675,43.675v259.487
	C512,409.826,492.407,429.419,468.324,429.419z M43.676,99.097c-14.977,0-27.16,12.183-27.16,27.159v259.487
	c0,14.977,12.183,27.16,27.16,27.16h424.648c14.976,0,27.159-12.183,27.159-27.16V126.256c0-14.976-12.183-27.159-27.16-27.159
	H43.676z"/>
<g>
</g>
<g>
</g>
<g>
</g>
<g>
</g>
<g>
</g>
<g>
</g>
<g>
</g>
<g>
</g>
<g>
</g>
<g>
</g>
<g>
</g>
<g>
</g>
<g>
</g>
<g>
</g>
<g>
</g>
</svg>
