<?xml version="1.0" encoding="iso-8859-1"?>
<!-- Generator: Adobe Illustrator 19.0.0, SVG Export Plug-In . SVG Version: 6.00 Build 0)  -->
<svg version="1.1" id="Layer_1" xmlns="http://www.w3.org/2000/svg" xmlns:xlink="http://www.w3.org/1999/xlink" x="0px" y="0px"
	 viewBox="0 0 512 512" style="enable-background:new 0 0 512 512;" xml:space="preserve">
<path style="fill:#ED1F34;" d="M503.742,126.257v259.487c0,19.561-15.857,35.418-35.418,35.418H43.676
	c-19.561-0.001-35.418-15.858-35.418-35.419V126.257c0-19.562,15.858-35.418,35.418-35.418h424.648
	C487.885,90.839,503.742,106.695,503.742,126.257z"/>
<rect x="8.258" y="214.71" style="fill:#259245;" width="495.484" height="82.581"/>
<path style="fill:#1A1C20;" d="M468.324,82.581H43.676C19.594,82.581,0,102.173,0,126.256v259.487
	c0,24.084,19.594,43.676,43.676,43.676h424.647c24.083,0,43.676-19.593,43.676-43.676V126.256
	C512,102.173,492.406,82.581,468.324,82.581z M16.516,222.968h478.968v66.065H16.516V222.968z M43.676,99.097h424.647
	c14.977,0,27.16,12.183,27.16,27.159v80.196H16.516v-80.196C16.516,111.28,28.7,99.097,43.676,99.097z M468.324,412.903H43.676
	c-14.977,0-27.16-12.183-27.16-27.16v-80.195h478.968v80.195C495.484,400.72,483.3,412.903,468.324,412.903z"/>
<g>
</g>
<g>
</g>
<g>
</g>
<g>
</g>
<g>
</g>
<g>
</g>
<g>
</g>
<g>
</g>
<g>
</g>
<g>
</g>
<g>
</g>
<g>
</g>
<g>
</g>
<g>
</g>
<g>
</g>
</svg>
