<?xml version="1.0" encoding="UTF-8"?>
<svg xmlns="http://www.w3.org/2000/svg" xmlns:xlink="http://www.w3.org/1999/xlink" version="1.1" id="Capa_1" x="0px" y="0px" viewBox="0 0 511.941 511.941" style="enable-background:new 0 0 511.941 511.941;" xml:space="preserve" width="512" height="512">
<g>
	<g>
		<path style="fill:#99DA90;" d="M481.85,240.91v112.94H30.09v-75.29l6.37-14.1l-6.37-16.021v-90.59c0-33.13,26.86-60,60-60h271.76&#10;&#9;&#9;&#9;c10.23,0,20.17,1.28,29.65,3.7L481.85,240.91z"/>
		<path style="fill:#79CE6F;" d="M171.9,97.85c-7.51,4.81-21.34,16.94-21.34,40.99v19.19l-8.78,22.65l8.78,22.64v150.53H30.09&#10;&#9;&#9;&#9;v-75.29l6.37-14.1l-6.37-16.021v-90.59c0-33.13,26.86-60,60-60H171.9z"/>
		<path style="fill:#7C88AD;" d="M504.44,353.85c0,12.48-10.11,22.59-22.59,22.59H30.09c-6.24,0-11.89-2.53-15.98-6.61&#10;&#9;&#9;&#9;c-4.08-4.09-6.61-9.74-6.61-15.98c0-12.47,10.11-22.59,22.59-22.59l31.39,6.18l23.23-6.18h397.14c6.24,0,11.89,2.53,15.98,6.62&#10;&#9;&#9;&#9;C501.91,341.97,504.44,347.61,504.44,353.85z"/>
		<path style="fill:#6171A3;" d="M150.56,331.26v45.18H30.09c-6.24,0-11.89-2.53-15.98-6.61c-4.08-4.09-6.61-9.74-6.61-15.98&#10;&#9;&#9;&#9;c0-12.47,10.11-22.59,22.59-22.59H150.56z"/>
		<path style="fill:#6171A3;" d="M180.68,361.38c0,22.7-14.36,42.06-34.49,49.47c-5.67,2.1-11.81,3.24-18.22,3.24&#10;&#9;&#9;&#9;c-23.88,0-44.04-15.88-50.52-37.65l23.54-51.64l41.47-14.1C164.52,316.99,180.68,337.3,180.68,361.38z"/>
		<path style="fill:#475A99;" d="M146.19,410.85c-5.67,2.1-11.81,3.24-18.22,3.24c-29.11,0-52.71-23.6-52.71-52.71&#10;&#9;&#9;&#9;c0-29.11,23.6-52.7,52.71-52.7c5.03,0,9.89,0.7,14.49,2.02C131.77,325.15,108.67,365.88,146.19,410.85z"/>
		<path style="fill:#6171A3;" d="M436.68,361.38c0,22.7-14.36,42.06-34.49,49.47c-5.67,2.1-11.81,3.24-18.22,3.24&#10;&#9;&#9;&#9;c-23.88,0-44.05-15.88-50.53-37.66l19.19-49.16l45.83-16.57C420.52,316.99,436.68,337.3,436.68,361.38z"/>
		<path style="fill:#475A99;" d="M402.186,410.85c-5.67,2.1-11.81,3.24-18.22,3.24c-29.11,0-52.71-23.6-52.71-52.71&#10;&#9;&#9;&#9;c0-29.11,23.6-52.7,52.71-52.7c5.03,0,9.89,0.7,14.49,2.02C387.766,325.15,364.666,365.88,402.186,410.85z"/>
		<path style="fill:#7C88AD;" d="M406.56,361.38c0,11.75-8.97,21.41-20.44,22.48l-14.94-9.78l-3.57-20.43l16.87-14.85&#10;&#9;&#9;&#9;C396.73,339.07,406.56,349.08,406.56,361.38z"/>
		<path style="fill:#6171A3;" d="M386.116,383.86c-0.71,0.08-1.42,0.11-2.15,0.11c-12.48,0-22.59-10.11-22.59-22.59&#10;&#9;&#9;&#9;c0-12.47,10.11-22.59,22.59-22.59c0.17,0,0.34,0,0.51,0.01C380.846,351.49,379.836,366.98,386.116,383.86z"/>
		<path style="fill:#7C88AD;" d="M150.56,361.38c0,11.75-8.97,21.41-20.44,22.48l-16.55-10.17l-1.54-25.27l16.45-9.62&#10;&#9;&#9;&#9;C140.73,339.07,150.56,349.08,150.56,361.38z"/>
		<path style="fill:#6171A3;" d="M130.12,383.86c-0.71,0.08-1.42,0.11-2.15,0.11c-12.48,0-22.59-10.11-22.59-22.59&#10;&#9;&#9;&#9;c0-12.47,10.11-22.59,22.59-22.59c0.17,0,0.34,0,0.51,0.01C124.85,351.49,123.84,366.98,130.12,383.86z"/>
		<path style="fill:#DEDDF5;" d="M135.558,218.323H90.264c-8.284,0-15-6.716-15-15v-45.294c0-8.284,6.716-15,15-15h45.294&#10;&#9;&#9;&#9;c8.284,0,15,6.716,15,15v45.294C150.558,211.608,143.843,218.323,135.558,218.323z"/>
		<path style="fill:#EEECFF;" d="M240.97,218.323h-45.294c-8.284,0-15-6.716-15-15v-45.294c0-8.284,6.716-15,15-15h45.294&#10;&#9;&#9;&#9;c8.284,0,15,6.716,15,15v45.294C255.97,211.608,249.254,218.323,240.97,218.323z"/>
		<path style="fill:#EEECFF;" d="M346.382,218.323h-45.294c-8.284,0-15-6.716-15-15v-45.294c0-8.284,6.716-15,15-15h45.294&#10;&#9;&#9;&#9;c8.284,0,15,6.716,15,15v45.294C361.382,211.608,354.666,218.323,346.382,218.323z"/>
		<path style="fill:#7C88AD;" d="M316.21,263.5c0,4.16-1.69,7.93-4.41,10.65c-2.73,2.72-6.49,4.41-10.65,4.41H150.56l-11.72-12.48&#10;&#9;&#9;&#9;l11.72-17.64h150.59C309.46,248.44,316.21,255.18,316.21,263.5z"/>
		<rect x="30.09" y="248.44" style="fill:#6171A3;" width="120.47" height="30.12"/>
		<path style="fill:#EEECFF;" d="M481.85,217.85v23.06H436.5c-24.85,0-45-20.15-45-45v-94.36&#10;&#9;&#9;&#9;C443.44,114.74,481.85,161.81,481.85,217.85z"/>
		<path style="fill:#FBF6B2;" d="M489.382,301.147h-15.059c-8.317,0-15.059-6.742-15.059-15.059v0&#10;&#9;&#9;&#9;c0-8.317,6.742-15.059,15.059-15.059h15.059c8.317,0,15.059,6.742,15.059,15.059v0&#10;&#9;&#9;&#9;C504.441,294.405,497.699,301.147,489.382,301.147z"/>
	</g>
	<g>
		<path style="fill:none;stroke:#000000;stroke-width:15;stroke-linecap:round;stroke-linejoin:round;stroke-miterlimit:10;" d="&#10;&#9;&#9;&#9;M341.23,97.85h20.62c66.28,0,120,53.73,120,120v52.57"/>
		<path style="fill:none;stroke:#000000;stroke-width:15;stroke-linecap:round;stroke-linejoin:round;stroke-miterlimit:10;" d="&#10;&#9;&#9;&#9;M30.09,328.85v-171c0-33.13,26.86-60,60-60h216.14"/>
		
			<line style="fill:none;stroke:#000000;stroke-width:15;stroke-linecap:round;stroke-linejoin:round;stroke-miterlimit:10;" x1="481.85" y1="301.76" x2="481.85" y2="328.85"/>
		
			<line style="fill:none;stroke:#000000;stroke-width:15;stroke-linecap:round;stroke-linejoin:round;stroke-miterlimit:10;" x1="332.57" y1="376.44" x2="180.02" y2="376.44"/>
		
			<line style="fill:none;stroke:#000000;stroke-width:15;stroke-linecap:round;stroke-linejoin:round;stroke-miterlimit:10;" x1="339.69" y1="331.26" x2="173" y2="331.26"/>
		<path style="fill:none;stroke:#000000;stroke-width:15;stroke-linecap:round;stroke-linejoin:round;stroke-miterlimit:10;" d="&#10;&#9;&#9;&#9;M428.25,331.26h53.6c12.478,0,22.59,10.113,22.59,22.59c0,12.48-10.11,22.59-22.59,22.59h-46.48"/>
		<path style="fill:none;stroke:#000000;stroke-width:15;stroke-linecap:round;stroke-linejoin:round;stroke-miterlimit:10;" d="&#10;&#9;&#9;&#9;M75.92,376.44H30.09c-12.486,0-22.59-10.104-22.59-22.59c0-12.47,10.11-22.59,22.59-22.59h52.85"/>
		
			<circle style="fill:none;stroke:#000000;stroke-width:15;stroke-linecap:round;stroke-linejoin:round;stroke-miterlimit:10;" cx="127.97" cy="361.382" r="52.706"/>
		<path style="fill:none;stroke:#000000;stroke-width:15;stroke-linecap:round;stroke-linejoin:round;stroke-miterlimit:10;" d="&#10;&#9;&#9;&#9;M381.89,414.04c0.69,0.04,1.38,0.05,2.08,0.05c29.11,0,52.71-23.6,52.71-52.71c0-29.11-23.6-52.7-52.71-52.7&#10;&#9;&#9;&#9;c-29.11,0-52.71,23.59-52.71,52.7c0,15.8,6.95,29.97,17.96,39.63"/>
		
			<circle style="fill:none;stroke:#000000;stroke-width:15;stroke-linecap:round;stroke-linejoin:round;stroke-miterlimit:10;" cx="383.97" cy="361.382" r="22.588"/>
		
			<circle style="fill:none;stroke:#000000;stroke-width:15;stroke-linecap:round;stroke-linejoin:round;stroke-miterlimit:10;" cx="127.97" cy="361.382" r="22.588"/>
		<path style="fill:none;stroke:#000000;stroke-width:15;stroke-linecap:round;stroke-linejoin:round;stroke-miterlimit:10;" d="&#10;&#9;&#9;&#9;M135.558,218.323H90.264c-8.284,0-15-6.716-15-15v-45.294c0-8.284,6.716-15,15-15h45.294c8.284,0,15,6.716,15,15v45.294&#10;&#9;&#9;&#9;C150.558,211.608,143.843,218.323,135.558,218.323z"/>
		<path style="fill:none;stroke:#000000;stroke-width:15;stroke-linecap:round;stroke-linejoin:round;stroke-miterlimit:10;" d="&#10;&#9;&#9;&#9;M240.97,218.323h-45.294c-8.284,0-15-6.716-15-15v-45.294c0-8.284,6.716-15,15-15h45.294c8.284,0,15,6.716,15,15v45.294&#10;&#9;&#9;&#9;C255.97,211.608,249.254,218.323,240.97,218.323z"/>
		<path style="fill:none;stroke:#000000;stroke-width:15;stroke-linecap:round;stroke-linejoin:round;stroke-miterlimit:10;" d="&#10;&#9;&#9;&#9;M346.382,218.323h-45.294c-8.284,0-15-6.716-15-15v-45.294c0-8.284,6.716-15,15-15h45.294c8.284,0,15,6.716,15,15v45.294&#10;&#9;&#9;&#9;C361.382,211.608,354.666,218.323,346.382,218.323z"/>
		<path style="fill:none;stroke:#000000;stroke-width:15;stroke-linecap:round;stroke-linejoin:round;stroke-miterlimit:10;" d="&#10;&#9;&#9;&#9;M130.91,248.44h170.24c8.31,0,15.06,6.74,15.06,15.06c0,8.317-6.743,15.06-15.06,15.06H33.09"/>
		
			<line style="fill:none;stroke:#000000;stroke-width:15;stroke-linecap:round;stroke-linejoin:round;stroke-miterlimit:10;" x1="95.91" y1="248.44" x2="33.09" y2="248.44"/>
		<path style="fill:none;stroke:#000000;stroke-width:15;stroke-linecap:round;stroke-linejoin:round;stroke-miterlimit:10;" d="&#10;&#9;&#9;&#9;M391.5,103.553v92.36c0,24.85,20.15,45,45,45h43.35"/>
		<path style="fill:none;stroke:#000000;stroke-width:15;stroke-linecap:round;stroke-linejoin:round;stroke-miterlimit:10;" d="&#10;&#9;&#9;&#9;M489.382,301.147h-15.059c-8.317,0-15.059-6.742-15.059-15.059c0-8.317,6.742-15.059,15.059-15.059h15.059&#10;&#9;&#9;&#9;c8.317,0,15.059,6.742,15.059,15.059C504.441,294.405,497.699,301.147,489.382,301.147z"/>
	</g>
</g>















</svg>
