<?xml version="1.0" encoding="UTF-8" standalone="no"?>
<!-- Created with Inkscape (http://www.inkscape.org/) -->

<svg
   version="1.1"
   id="svg6660"
   xml:space="preserve"
   width="682.66669"
   height="682.66669"
   viewBox="0 0 682.66669 682.66669"
   xmlns="http://www.w3.org/2000/svg"
   xmlns:svg="http://www.w3.org/2000/svg"><defs
     id="defs6664"><clipPath
       clipPathUnits="userSpaceOnUse"
       id="clipPath6674"><path
         d="M 0,512 H 512 V 0 H 0 Z"
         id="path6672" /></clipPath></defs><g
     id="g6666"
     transform="matrix(1.3333333,0,0,-1.3333333,0,682.66667)"><g
       id="g6668"><g
         id="g6670"
         clip-path="url(#clipPath6674)"><g
           id="g6676"
           transform="translate(500.8799,186)"><path
             d="M 0,0 C -3.5,-31.15 -15.05,-59 -31.899,-80 H -185.86 c -16.85,21 -28.4,48.85 -31.9,80 z"
             style="fill:#a0e5a5;fill-opacity:1;fill-rule:nonzero;stroke:none"
             id="path6678" /></g><g
           id="g6680"
           transform="translate(491.4004,266)"><path
             d="m 0,0 h -198.801 c 5.591,14.99 13.21,28.52 22.42,40 H -22.42 C -13.21,28.52 -5.591,14.99 0,0"
             style="fill:#a0e5a5;fill-opacity:1;fill-rule:nonzero;stroke:none"
             id="path6682" /></g><path
           d="M 442,306 H 342 v 40 h 100 z"
           style="fill:#ffda8f;fill-opacity:1;fill-rule:nonzero;stroke:none"
           id="path6684" /><g
           id="g6686"
           transform="translate(392,456)"><path
             d="m 0,0 c 11.05,0 20,-8.95 20,-20 0,-11.05 -8.95,-20 -20,-20 -11.055,0 -20,8.949 -20,20 0,11.05 8.95,20 20,20"
             style="fill:#ffda8f;fill-opacity:1;fill-rule:nonzero;stroke:none"
             id="path6688" /></g><g
           id="g6690"
           transform="translate(491.4004,266)"><path
             d="m 0,0 h -198.801 c -6.8,-18.189 -10.599,-38.53 -10.599,-60 0,-6.79 0.379,-13.47 1.12,-20 H 9.479 c 0.741,6.53 1.121,13.21 1.121,20 0,21.47 -3.8,41.811 -10.6,60"
             style="fill:#eefaff;fill-opacity:1;fill-rule:nonzero;stroke:none"
             id="path6692" /></g><g
           id="g6694"
           transform="translate(228.8799,126)"><path
             d="M 0,0 C -3.5,-31.15 -15.05,-59 -31.899,-80 H -185.86 c -16.85,21 -28.4,48.85 -31.9,80 z"
             style="fill:#ff7b79;fill-opacity:1;fill-rule:nonzero;stroke:none"
             id="path6696" /></g><g
           id="g6698"
           transform="translate(219.4004,206)"><path
             d="m 0,0 h -198.801 c 5.591,14.99 13.21,28.52 22.42,40 H -22.42 C -13.21,28.52 -5.591,14.99 0,0"
             style="fill:#ff7b79;fill-opacity:1;fill-rule:nonzero;stroke:none"
             id="path6700" /></g><path
           d="M 170,246 H 70 v 40 h 100 z"
           style="fill:#ffda8f;fill-opacity:1;fill-rule:nonzero;stroke:none"
           id="path6702" /><g
           id="g6704"
           transform="translate(140,376)"><path
             d="m 0,0 c 0,-11.05 -8.95,-20 -20,-20 -11.05,0 -20,8.95 -20,20 0,11.05 8.95,20 20,20 C -8.945,20 0,11.051 0,0"
             style="fill:#ffda8f;fill-opacity:1;fill-rule:nonzero;stroke:none"
             id="path6706" /></g><g
           id="g6708"
           transform="translate(219.4004,206)"><path
             d="m 0,0 h -198.801 c -6.8,-18.189 -10.599,-38.53 -10.599,-60 0,-6.79 0.379,-13.47 1.12,-20 H 9.479 c 0.741,6.53 1.121,13.21 1.121,20 0,21.47 -3.8,41.811 -10.6,60"
             style="fill:#eefaff;fill-opacity:1;fill-rule:nonzero;stroke:none"
             id="path6710" /></g><g
           id="g6712"
           transform="translate(10,346)"><path
             d="M 0,0 91.32,22.83"
             style="fill:none;stroke:#000000;stroke-width:20;stroke-linecap:round;stroke-linejoin:round;stroke-miterlimit:10;stroke-dasharray:none;stroke-opacity:1"
             id="path6714" /></g><g
           id="g6716"
           transform="translate(139.8496,378.46)"><path
             d="M 0,0 232.301,55.08"
             style="fill:none;stroke:#000000;stroke-width:20;stroke-linecap:round;stroke-linejoin:round;stroke-miterlimit:10;stroke-dasharray:none;stroke-opacity:1"
             id="path6718" /></g><g
           id="g6720"
           transform="translate(410.6797,443.1699)"><path
             d="M 0,0 91.32,22.83"
             style="fill:none;stroke:#000000;stroke-width:20;stroke-linecap:round;stroke-linejoin:round;stroke-miterlimit:10;stroke-dasharray:none;stroke-opacity:1"
             id="path6722" /></g><g
           id="g6724"
           transform="translate(170,246)"><path
             d="m 0,0 h 26.98 c 9.21,-11.48 16.83,-25.01 22.42,-40 6.8,-18.19 10.6,-38.53 10.6,-60 0,-6.79 -0.38,-13.47 -1.12,-20 -3.5,-31.15 -15.05,-59 -31.9,-80 h -153.96 c -16.85,21 -28.4,48.85 -31.9,80 -0.74,6.53 -1.12,13.21 -1.12,20 0,21.47 3.8,41.81 10.6,60 5.59,14.99 13.21,28.52 22.42,40 H -100 Z"
             style="fill:none;stroke:#000000;stroke-width:20;stroke-linecap:round;stroke-linejoin:round;stroke-miterlimit:10;stroke-dasharray:none;stroke-opacity:1"
             id="path6726" /></g><g
           id="g6728"
           transform="translate(228.8896,126)"><path
             d="m 0,0 h -0.01 -58.88 -100 -58.88 -0.009"
             style="fill:none;stroke:#000000;stroke-width:20;stroke-linecap:round;stroke-linejoin:round;stroke-miterlimit:10;stroke-dasharray:none;stroke-opacity:1"
             id="path6730" /></g><g
           id="g6732"
           transform="translate(20.5898,206)"><path
             d="m 0,0 h 0.01 49.4 100 49.401 0.009"
             style="fill:none;stroke:#000000;stroke-width:20;stroke-linecap:round;stroke-linejoin:round;stroke-miterlimit:10;stroke-dasharray:none;stroke-opacity:1"
             id="path6734" /></g><g
           id="g6736"
           transform="translate(70,126)"><path
             d="M 0,0 V 80"
             style="fill:none;stroke:#000000;stroke-width:20;stroke-linecap:round;stroke-linejoin:round;stroke-miterlimit:10;stroke-dasharray:none;stroke-opacity:1"
             id="path6738" /></g><g
           id="g6740"
           transform="translate(170,206)"><path
             d="M 0,0 V -80"
             style="fill:none;stroke:#000000;stroke-width:20;stroke-linecap:round;stroke-linejoin:round;stroke-miterlimit:10;stroke-dasharray:none;stroke-opacity:1"
             id="path6742" /></g><g
           id="g6744"
           transform="translate(90,86)"><path
             d="M 0,0 H 60"
             style="fill:none;stroke:#000000;stroke-width:20;stroke-linecap:round;stroke-linejoin:round;stroke-miterlimit:10;stroke-dasharray:none;stroke-opacity:1"
             id="path6746" /></g><g
           id="g6748"
           transform="translate(139.8496,378.46)"><path
             d="m 0,0 c 0.101,-0.81 0.15,-1.63 0.15,-2.46 0,-11.05 -8.95,-20 -20,-20 -11.049,0 -20,8.95 -20,20 0,11.05 8.951,20 20,20 C -9.63,17.54 -1.21,9.89 0,0 Z"
             style="fill:none;stroke:#000000;stroke-width:20;stroke-linecap:round;stroke-linejoin:round;stroke-miterlimit:10;stroke-dasharray:none;stroke-opacity:1"
             id="path6750" /></g><g
           id="g6752"
           transform="translate(120,356)"><path
             d="M 0,0 V -70"
             style="fill:none;stroke:#000000;stroke-width:20;stroke-linecap:round;stroke-linejoin:round;stroke-miterlimit:10;stroke-dasharray:none;stroke-opacity:1"
             id="path6754" /></g><g
           id="g6756"
           transform="translate(70,246)"><path
             d="m 0,0 v 40 h 50 50 V 0"
             style="fill:none;stroke:#000000;stroke-width:20;stroke-linecap:round;stroke-linejoin:round;stroke-miterlimit:10;stroke-dasharray:none;stroke-opacity:1"
             id="path6758" /></g><g
           id="g6760"
           transform="translate(500.8896,186)"><path
             d="m 0,0 h -0.01 -58.88 -100 -58.88 -0.009"
             style="fill:none;stroke:#000000;stroke-width:20;stroke-linecap:round;stroke-linejoin:round;stroke-miterlimit:10;stroke-dasharray:none;stroke-opacity:1"
             id="path6762" /></g><g
           id="g6764"
           transform="translate(292.5898,266)"><path
             d="m 0,0 h 0.01 49.4 100 49.401 0.009"
             style="fill:none;stroke:#000000;stroke-width:20;stroke-linecap:round;stroke-linejoin:round;stroke-miterlimit:10;stroke-dasharray:none;stroke-opacity:1"
             id="path6766" /></g><g
           id="g6768"
           transform="translate(342,186)"><path
             d="M 0,0 V 80"
             style="fill:none;stroke:#000000;stroke-width:20;stroke-linecap:round;stroke-linejoin:round;stroke-miterlimit:10;stroke-dasharray:none;stroke-opacity:1"
             id="path6770" /></g><g
           id="g6772"
           transform="translate(442,266)"><path
             d="M 0,0 V -80"
             style="fill:none;stroke:#000000;stroke-width:20;stroke-linecap:round;stroke-linejoin:round;stroke-miterlimit:10;stroke-dasharray:none;stroke-opacity:1"
             id="path6774" /></g><g
           id="g6776"
           transform="translate(362,146)"><path
             d="M 0,0 H 60"
             style="fill:none;stroke:#000000;stroke-width:20;stroke-linecap:round;stroke-linejoin:round;stroke-miterlimit:10;stroke-dasharray:none;stroke-opacity:1"
             id="path6778" /></g><g
           id="g6780"
           transform="translate(372.1504,433.54)"><path
             d="m 0,0 c -0.101,0.81 -0.15,1.63 -0.15,2.46 0,11.05 8.95,20 20,20 11.049,0 20,-8.95 20,-20 0,-11.05 -8.951,-20 -20,-20 C 9.63,-17.54 1.21,-9.89 0,0 Z"
             style="fill:none;stroke:#000000;stroke-width:20;stroke-linecap:round;stroke-linejoin:round;stroke-miterlimit:10;stroke-dasharray:none;stroke-opacity:1"
             id="path6782" /></g><g
           id="g6784"
           transform="translate(392,416)"><path
             d="M 0,0 V -70"
             style="fill:none;stroke:#000000;stroke-width:20;stroke-linecap:round;stroke-linejoin:round;stroke-miterlimit:10;stroke-dasharray:none;stroke-opacity:1"
             id="path6786" /></g><g
           id="g6788"
           transform="translate(342,306)"><path
             d="m 0,0 v 40 h 50 50 V 0"
             style="fill:none;stroke:#000000;stroke-width:20;stroke-linecap:round;stroke-linejoin:round;stroke-miterlimit:10;stroke-dasharray:none;stroke-opacity:1"
             id="path6790" /></g><g
           id="g6792"
           transform="translate(402,106)"><path
             d="m 0,0 c 0,-5.522 -4.478,-10 -10,-10 -5.522,0 -10,4.478 -10,10 0,5.522 4.478,10 10,10 C -4.478,10 0,5.522 0,0"
             style="fill:#000000;fill-opacity:1;fill-rule:nonzero;stroke:none"
             id="path6794" /></g><g
           id="g6796"
           transform="translate(347,106)"><path
             d="m 0,0 h -31.98 c -16.85,21 -28.4,48.85 -31.9,80 -0.74,6.53 -1.12,13.21 -1.12,20 0,21.47 3.8,41.81 10.6,60 5.59,14.99 13.21,28.52 22.42,40 H -5 95 121.98 c 9.21,-11.48 16.83,-25.01 22.42,-40 6.8,-18.19 10.6,-38.53 10.6,-60 0,-6.79 -0.38,-13.47 -1.12,-20 -3.5,-31.15 -15.05,-59 -31.9,-80 H 90"
             style="fill:none;stroke:#000000;stroke-width:20;stroke-linecap:round;stroke-linejoin:round;stroke-miterlimit:10;stroke-dasharray:none;stroke-opacity:1"
             id="path6798" /></g></g></g></g></svg>
