<svg height="511pt" viewBox="-74 0 511 511.99939" width="511pt" xmlns="http://www.w3.org/2000/svg"><path d="m343.953125 273.773438h-323.949219c-6.628906 0-12.003906-5.375-12.003906-12v-214.621094c0-21.898438 17.753906-39.652344 39.652344-39.652344h271.296875c20.4375 0 37.003906 16.566406 37.003906 37.003906v217.269532c0 6.628906-5.371094 12-12 12zm0 0" fill="#7ca1b1"/><path d="m318.949219 7.5h-21.730469c.945312 3.222656 1.460938 6.628906 1.460938 10.160156v217.425782c0 7.023437-5.695313 12.71875-12.71875 12.71875h-277.960938v13.96875c0 6.628906 5.375 12 12.003906 12h323.949219c6.628906 0 12-5.371094 12-12v-217.269532c0-20.4375-16.566406-37.003906-37.003906-37.003906zm0 0" fill="#678d98"/><g fill="#d5f3f7"><path d="m101.636719 152.960938h-44.035157c-8.011718 0-14.503906-6.496094-14.503906-14.503907v-80.039062c0-8.011719 6.492188-14.503907 14.503906-14.503907h44.035157c7.179687 0 13 5.820313 13 13v83.046876c0 7.179687-5.820313 13-13 13zm0 0"/><path d="m204.746094 152.960938h-44.035156c-8.007813 0-14.503907-6.496094-14.503907-14.503907v-80.039062c0-8.011719 6.496094-14.503907 14.503907-14.503907h44.035156c7.179687 0 13 5.820313 13 13v83.046876c0 7.179687-5.820313 13-13 13zm0 0"/><path d="m307.332031 152.960938h-44.03125c-8.011719 0-14.507812-6.496094-14.507812-14.503907v-80.039062c0-8.011719 6.496093-14.503907 14.507812-14.503907h44.03125c7.183594 0 13.003907 5.820313 13.003907 13v83.046876c0 7.179687-5.824219 13-13.003907 13zm0 0"/></g><path d="m101.636719 43.914062h-22.398438c7.300781 0 13.214844 5.917969 13.214844 13.214844v82.613282c0 7.300781-5.917969 13.21875-13.214844 13.21875h22.398438c7.179687 0 13-5.820313 13-13.003907v-83.042969c0-7.179687-5.820313-13-13-13zm0 0" fill="#a7e8f1"/><path d="m204.746094 43.914062h-22.398438c7.300782 0 13.21875 5.917969 13.21875 13.214844v82.613282c0 7.300781-5.917968 13.21875-13.21875 13.21875h22.398438c7.179687 0 13-5.820313 13-13.003907v-83.042969c0-7.179687-5.820313-13-13-13zm0 0" fill="#a7e8f1"/><path d="m307.332031 43.914062h-22.394531c7.296875 0 13.214844 5.917969 13.214844 13.214844v82.613282c0 7.300781-5.917969 13.21875-13.214844 13.21875h22.394531c7.183594 0 13.003907-5.820313 13.003907-13.003907v-83.042969c0-7.179687-5.824219-13-13.003907-13zm0 0" fill="#a7e8f1"/><path d="m100.871094 429.398438c0 12.15625-9.851563 22.007812-22.003906 22.007812-12.152344 0-22.007813-9.851562-22.007813-22.007812 0-12.152344 9.855469-22.003907 22.007813-22.003907 12.152343 0 22.003906 9.851563 22.003906 22.003907zm0 0" fill="#9c9c9c"/><path d="m293.195312 316.386719c0 12.152343-9.851562 22.003906-22.007812 22.003906-12.152344 0-22.003906-9.851563-22.003906-22.003906 0-12.15625 9.851562-22.007813 22.003906-22.007813 12.15625 0 22.007812 9.851563 22.007812 22.007813zm0 0" fill="#9c9c9c"/><path d="m78.867188 407.394531c-5.019532 0-9.640626 1.683594-13.34375 4.511719 11.957031.226562 21.585937 9.980469 21.585937 21.996094 0 7.132812-3.398437 13.472656-8.664063 17.492187.140626.003907.28125.011719.421876.011719 12.152343 0 22.003906-9.851562 22.003906-22.007812 0-12.152344-9.851563-22.003907-22.003906-22.003907zm0 0" fill="#838383"/><path d="m271.1875 294.378906c-5.015625 0-9.640625 1.683594-13.34375 4.511719 11.960938.226563 21.585938 9.984375 21.585938 21.996094 0 7.132812-3.398438 13.472656-8.660157 17.492187.140625.003906.277344.011719.417969.011719 12.15625 0 22.007812-9.851563 22.007812-22.003906 0-12.15625-9.851562-22.007813-22.007812-22.007813zm0 0" fill="#838383"/><path d="m40.007812 501.203125-11.511718-19.921875c-1.84375-3.1875-.753906-7.265625 2.4375-9.109375l304.109375-175.855469c3.1875-1.84375 7.269531-.75 9.113281 2.4375l11.511719 19.917969c1.84375 3.191406.753906 7.269531-2.433594 9.113281l-304.113281 175.855469c-3.1875 1.84375-7.269532.75-9.113282-2.4375zm0 0" fill="#9c9c9c"/><path d="m355.671875 318.671875-11.515625-19.917969c-1.84375-3.1875-5.921875-4.28125-9.113281-2.4375l-14.253907 8.242188 9.492188 16.425781c1.84375 3.1875.753906 7.269531-2.433594 9.109375l-289.859375 167.617188 2.019531 3.492187c1.84375 3.1875 5.921876 4.277344 9.113282 2.4375l304.113281-175.855469c3.1875-1.84375 4.277344-5.921875 2.4375-9.113281zm0 0" fill="#838383"/><path d="m57.601562 160.460938h42.527344c12.136719 0 22.007813-9.871094 22.007813-22.003907v-80.039062c0-12.132813-9.871094-22.007813-22.007813-22.007813h-42.527344c-12.132812 0-22.003906 9.875-22.003906 22.007813v80.039062c0 12.132813 9.871094 22.003907 22.003906 22.003907zm-7.003906-102.042969c0-3.863281 3.144532-7.003907 7.003906-7.003907h42.527344c3.863282 0 7.007813 3.140626 7.007813 7.003907v80.039062c0 3.859375-3.144531 7.003907-7.007813 7.003907h-42.527344c-3.859374 0-7.003906-3.144532-7.003906-7.003907zm0 0"/><path d="m160.710938 160.460938h42.53125c12.132812 0 22.007812-9.871094 22.007812-22.003907v-21.535156c0-4.144531-3.359375-7.5-7.503906-7.5-4.140625 0-7.5 3.355469-7.5 7.5v21.535156c0 3.859375-3.140625 7.003907-7.003906 7.003907h-42.53125c-3.859376 0-7.003907-3.144532-7.003907-7.003907v-80.039062c0-3.863281 3.144531-7.003907 7.003907-7.003907h42.53125c3.863281 0 7.003906 3.140626 7.003906 7.003907v26.5c0 4.144531 3.359375 7.5 7.5 7.5 4.144531 0 7.503906-3.355469 7.503906-7.5v-26.5c0-12.132813-9.875-22.007813-22.007812-22.007813h-42.53125c-12.132813 0-22.003907 9.875-22.003907 22.007813v80.039062c0 12.132813 9.871094 22.003907 22.003907 22.003907zm0 0"/><path d="m263.300781 160.460938h42.527344c12.136719 0 22.007813-9.871094 22.007813-22.003907v-80.039062c0-12.132813-9.871094-22.007813-22.007813-22.007813h-42.527344c-12.136719 0-22.007812 9.875-22.007812 22.007813v80.039062c0 12.132813 9.871093 22.003907 22.007812 22.003907zm-7.003906-102.042969c0-3.863281 3.140625-7.003907 7.003906-7.003907h42.527344c3.863281 0 7.003906 3.140626 7.003906 7.003907v80.039062c0 3.859375-3.140625 7.003907-7.003906 7.003907h-42.527344c-3.863281 0-7.003906-3.144532-7.003906-7.003907zm0 0"/><path d="m362.164062 314.917969-11.515624-19.917969c-1.894532-3.277344-4.949219-5.617188-8.605469-6.597656-3.65625-.976563-7.476563-.476563-10.753907 1.421875l-31.761718 18.363281c-.738282-2.550781-1.808594-4.964844-3.167969-7.183594l34.175781-19.730468h11.460938c11.832031 0 21.460937-9.625 21.460937-21.460938v-212.660156c0-26-21.152343-47.152344-47.152343-47.152344h-268.65625c-25.996094 0-47.148438 21.152344-47.148438 47.152344v212.660156c0 11.207031 8.636719 20.417969 19.597656 21.367188v166.339843c0 2.679688 1.429688 5.15625 3.75 6.496094 1.160156.671875 2.457032 1.007813 3.75 1.007813 1.296875 0 2.59375-.335938 3.753906-1.007813l20.855469-12.042969c1.148438 2.421875 2.609375 4.683594 4.359375 6.710938l-29.390625 16.996094c-6.761719 3.910156-9.085937 12.59375-5.175781 19.355468l11.515625 19.921875c3.96875 6.871094 12.8125 8.960938 19.359375 5.175781l25.925781-14.984374c3.585938-2.074219 4.8125-6.664063 2.738281-10.25-2.074218-3.585938-6.664062-4.8125-10.25-2.738282l-25.203124 14.570313-10.683594-18.480469 302.671875-175.023438 10.683593 18.480469-247.839843 143.738281c-3.585938 2.078126-4.804688 6.667969-2.726563 10.25 2.078125 3.585938 6.667969 4.804688 10.25 2.726563l248.542969-144.140625c3.277344-1.894531 5.621094-4.953125 6.601563-8.609375.976562-3.65625.472656-7.476563-1.421876-10.753906zm-98.375 13.9375c-4.339843-2.574219-7.105468-7.273438-7.105468-12.46875 0-8 6.507812-14.507813 14.503906-14.507813 7.9375 0 14.394531 6.40625 14.496094 14.316406zm-160.691406 83.738281 142.195313-82.101562c1.261719 2.320312 2.820312 4.464843 4.652343 6.367187l-143.222656 82.820313c-.890625-2.535157-2.113281-4.917969-3.625-7.085938zm181.832032-122.308594c-4.109376-2.171875-8.78125-3.40625-13.742188-3.40625-15.882812 0-28.871094 12.617188-29.476562 28.355469l-50.226563 29v-62.957031h109.046875zm-269.429688-30.472656v-212.660156c0-17.726563 14.421875-32.148438 32.148438-32.148438h268.65625c17.726562 0 32.148437 14.421875 32.148437 32.148438v212.660156c0 3.5625-2.898437 6.460938-6.457031 6.460938h-188.53125c-4.144532 0-7.503906 3.355468-7.503906 7.5 0 4.144531 3.359374 7.5 7.503906 7.5h23.019531v62.953124l-109.03125-62.953124h52.007813c4.140624 0 7.5-3.355469 7.5-7.5 0-4.144532-3.359376-7.5-7.5-7.5h-97.5c-3.5625 0-6.460938-2.898438-6.460938-6.460938zm19.601562 21.460938h2.359376c.0625.039062.125.082031.191406.117187l131.34375 75.832031-78.246094 45.175782c-3.640625-1.605469-7.65625-2.507813-11.882812-2.507813-15.183594 0-27.726563 11.535156-29.328126 26.300781l-14.4375 8.335938zm29.261719 148.125c0-7.996094 6.503907-14.503907 14.503907-14.503907 7.347656 0 13.417968 5.496094 14.363281 12.589844l-23.203125 13.414063c-3.511719-2.714844-5.664063-6.960938-5.664063-11.5zm0 0"/><path d="m271.390625 210.148438c-14.394531 0-22-6.554688-28.109375-11.820313-5.511719-4.75-9.496094-8.179687-18.316406-8.179687-8.820313 0-12.800782 3.429687-18.3125 8.179687-6.113282 5.269531-13.71875 11.820313-28.109375 11.820313s-21.996094-6.554688-28.109375-11.820313c-5.511719-4.75-9.492188-8.179687-18.3125-8.179687-8.816406 0-12.800782 3.429687-18.3125 8.179687-6.113282 5.269531-13.71875 11.820313-28.109375 11.820313s-21.996094-6.554688-28.105469-11.820313c-5.511719-4.75-9.496094-8.179687-18.3125-8.179687-4.144531 0-7.503906-3.359376-7.503906-7.503907 0-4.140625 3.359375-7.5 7.503906-7.5 14.390625 0 21.996094 6.554688 28.105469 11.820313 5.511719 4.75 9.492187 8.183594 18.3125 8.183594 8.820312 0 12.800781-3.433594 18.3125-8.183594 6.113281-5.265625 13.71875-11.820313 28.109375-11.820313s21.996094 6.554688 28.109375 11.820313c5.511719 4.75 9.492187 8.183594 18.3125 8.183594 8.816406 0 12.800781-3.433594 18.3125-8.183594 6.113281-5.265625 13.71875-11.820313 28.109375-11.820313s21.996094 6.554688 28.109375 11.820313c5.511719 4.75 9.496093 8.183594 18.316406 8.183594s12.804687-3.433594 18.316406-8.183594c6.109375-5.265625 13.714844-11.820313 28.109375-11.820313 4.144532 0 7.5 3.359375 7.5 7.5 0 4.144531-3.355468 7.503907-7.5 7.503907-8.820312 0-12.804687 3.429687-18.316406 8.179687-6.109375 5.265625-13.714844 11.820313-28.109375 11.820313zm0 0"/></svg>