<svg id="Capa_1" enable-background="new 0 0 512 512" height="512" viewBox="0 0 512 512" width="512" xmlns="http://www.w3.org/2000/svg"><g><g><path d="m39.234 122.835h433.667v308.737h-433.667z" fill="#f9f3f1"/></g><g><path d="m452.931 122.835h19.97v308.737h-19.97z" fill="#f3eae6"/></g><g><path d="m420.721 357.905h-329.442c-2.918 0-5.284-2.366-5.284-5.284v-61.909c0-2.918 2.366-5.284 5.284-5.284h329.442c2.918 0 5.284 2.366 5.284 5.284v61.909c0 2.918-2.366 5.284-5.284 5.284z" fill="#e19974"/></g><g><path d="m37.883 504.352h-28.909c-.746 0-1.351-.605-1.351-1.351v-380.166h31.61v380.167c.001.746-.604 1.35-1.35 1.35z" fill="#e19974"/></g><g><path d="m504.512 122.835h-497.024v-16.617c0-30.856 25.014-55.87 55.87-55.87h385.284c30.856 0 55.87 25.014 55.87 55.87z" fill="#c1e9af"/></g><g><path d="m504.508 106.136v16.695h-18.562v-16.695c0-30.814-24.973-55.786-55.787-55.786h18.562c30.815 0 55.787 24.972 55.787 55.786z" fill="#ade194"/></g><g><path d="m372.182 83.623h-232.364c-3.437 0-6.223-2.786-6.223-6.223v-63.529c0-3.437 2.786-6.223 6.223-6.223h232.364c3.437 0 6.223 2.786 6.223 6.223v63.529c.001 3.437-2.786 6.223-6.223 6.223z" fill="#e1d3ce"/></g><g><path d="m378.407 13.864v63.545c0 3.435-2.786 6.211-6.211 6.211h-19.97c3.425 0 6.211-2.776 6.211-6.211v-63.545c0-3.435-2.786-6.221-6.211-6.221h19.97c3.425.001 6.211 2.787 6.211 6.221z" fill="#cdbfba"/></g><g><path d="m503.161 504.352h-28.909c-.746 0-1.351-.605-1.351-1.351v-380.166h31.61v380.167c.001.746-.604 1.35-1.35 1.35z" fill="#e19974"/></g><g><path d="m504.508 122.831v380.172c0 .749-.599 1.348-1.348 1.348h-15.806c.749 0 1.348-.599 1.348-1.348v-380.172z" fill="#dc8758"/></g><g><path d="m423.314 455.923h-334.628c-2.365 0-4.283-1.917-4.283-4.283v-30.324c0-7.785 6.311-14.096 14.096-14.096h315.001c7.785 0 14.096 6.311 14.096 14.096v30.324c.001 2.366-1.917 4.283-4.282 4.283z" fill="#e19974"/></g><g><path d="m426.006 290.7v61.927c0 2.916-2.366 5.282-5.272 5.282h-20.569c2.916 0 5.272-2.367 5.272-5.282v-61.927c0-2.906-2.356-5.272-5.272-5.272h20.569c2.905 0 5.272 2.367 5.272 5.272z" fill="#dc8758"/></g><g><path d="m427.593 421.295v30.354c0 2.357-1.907 4.274-4.274 4.274h-20.559c2.357 0 4.274-1.917 4.274-4.274v-30.354c0-7.768-6.301-14.079-14.079-14.079h20.569c7.769 0 14.069 6.311 14.069 14.079z" fill="#dc8758"/></g><g><path d="m448.725 42.859h-62.831v-28.997c0-7.556-6.147-13.703-13.703-13.703h-232.382c-7.556 0-13.703 6.147-13.703 13.703v28.997h-62.831c-34.89 0-63.275 28.385-63.275 63.275l.135 396.869c0 4.873 3.965 8.837 8.837 8.837h28.914c4.873 0 8.837-3.965 8.837-8.837v-63.943h30.191v12.587c0 6.487 5.278 11.765 11.766 11.765h27.969v40.941c0 4.136 3.352 7.489 7.489 7.489 4.136 0 7.489-3.352 7.489-7.489v-40.941h248.747v40.941c0 4.136 3.353 7.489 7.489 7.489s7.489-3.352 7.489-7.489v-40.941h27.969c6.487 0 11.766-5.277 11.766-11.765v-12.587h30.327v63.943c0 4.873 3.965 8.837 8.837 8.837h28.913c4.873 0 8.837-3.965 8.837-8.837v-396.869c-.001-34.89-28.386-63.275-63.276-63.275zm-416.98 454.005h-16.633v-366.54h16.633zm388.363-48.43h-328.216v-27.139c0-3.631 2.955-6.586 6.587-6.586h315.042c3.632 0 6.587 2.955 6.587 6.586zm-288.482-83.04h248.747v34.337h-248.747zm-38.142-14.977v-57.5h325.031v57.5zm403.538 146.447h-16.632v-107.425c0-4.136-3.352-7.489-7.489-7.489s-7.489 3.352-7.489 7.489v34.644h-30.327v-2.788c0-11.891-9.674-21.563-21.564-21.563h-18.17v-34.337h25.378c7.038 0 12.764-5.727 12.764-12.765v-61.925c0-7.038-5.726-12.765-12.764-12.765h-329.458c-7.038 0-12.764 5.727-12.764 12.765v61.925c0 7.038 5.726 12.765 12.764 12.765h25.378v34.337h-18.17c-11.89 0-21.564 9.673-21.564 21.563v2.788h-30.192v-293.759h418.689v224.037c0 4.136 3.353 7.489 7.489 7.489s7.489-3.352 7.489-7.489v-224.037h16.632zm0-381.518h-482.044v-9.212c0-26.631 21.666-48.298 48.297-48.298h62.831v19.574c0 7.556 6.147 13.703 13.703 13.703h36.676c4.136 0 7.489-3.352 7.489-7.489 0-4.136-3.352-7.489-7.489-7.489h-35.401v-60.999h229.834v60.999h-160.097c-4.136 0-7.489 3.352-7.489 7.489 0 4.136 3.352 7.489 7.489 7.489h161.371c7.556 0 13.703-6.147 13.703-13.703v-19.574h62.831c26.631 0 48.297 21.667 48.297 48.298v9.212z"/><path d="m353.01 45.636c0-4.136-3.353-7.489-7.489-7.489h-179.042c-4.136 0-7.489 3.353-7.489 7.489s3.353 7.489 7.489 7.489h179.043c4.136 0 7.488-3.353 7.488-7.489z"/></g></g></svg>