<?xml version="1.0" encoding="UTF-8" standalone="no"?>
<svg
   id="Capa_1"
   enable-background="new 0 0 512 512"
   height="512"
   viewBox="0 0 512 512"
   width="512"
   version="1.1"
   sodipodi:docname="populated_place.svg"
   inkscape:version="1.4.3 (0d15f75042, 2025-12-25)"
   xmlns:inkscape="http://www.inkscape.org/namespaces/inkscape"
   xmlns:sodipodi="http://sodipodi.sourceforge.net/DTD/sodipodi-0.dtd"
   xmlns="http://www.w3.org/2000/svg"
   xmlns:svg="http://www.w3.org/2000/svg">
  <defs
     id="defs32" />
  <sodipodi:namedview
     id="namedview32"
     pagecolor="#ffffff"
     bordercolor="#000000"
     borderopacity="0.25"
     inkscape:showpageshadow="2"
     inkscape:pageopacity="0.0"
     inkscape:pagecheckerboard="0"
     inkscape:deskcolor="#d1d1d1"
     inkscape:zoom="0.8010194"
     inkscape:cx="121.7199"
     inkscape:cy="38.700686"
     inkscape:window-width="2560"
     inkscape:window-height="1375"
     inkscape:window-x="2240"
     inkscape:window-y="0"
     inkscape:window-maximized="1"
     inkscape:current-layer="g32" />
  <g
     id="g32"
     transform="matrix(0.9213747,0,0,0.9213747,15.040465,20.128078)">
    <path
       id="path31-6"
       style="fill:#e0ae00;fill-opacity:1"
       sodipodi:type="inkscape:offset"
       inkscape:radius="9.9872789"
       inkscape:original="M 121.2207 -117.85938 C 102.91753 -117.85937 87.832031 -102.775 87.832031 -84.470703 L 87.832031 -72.490234 C 87.832031 -58.707332 96.410039 -46.848097 108.45117 -41.789062 L 108.45117 20.923828 L -50.492188 20.923828 C -69.885861 20.923828 -85.857422 36.895388 -85.857422 56.289062 L -85.857422 79.130859 C -85.857422 95.371482 -74.601434 109.07709 -59.570312 113.14844 L -59.570312 335.5 L -59.570312 337.51953 L -59.570312 379.14062 L -76.5 379.14062 C -87.05148 379.14062 -95.859375 387.94988 -95.859375 398.5 C -95.859375 409.05012 -87.05148 417.85937 -76.5 417.85938 L 420.5 417.85938 C 431.05148 417.85938 439.85938 409.05012 439.85938 398.5 C 439.85938 387.94988 431.05148 379.14062 420.5 379.14062 L 407.88086 379.14062 L 407.88086 -41.789062 C 419.92212 -46.848209 428.5 -58.707688 428.5 -72.490234 L 428.5 -84.470703 C 428.5 -102.77629 413.41255 -117.85937 395.10938 -117.85938 L 121.2207 -117.85938 z M 126.55078 -79.140625 L 389.7793 -79.140625 L 389.7793 -77.820312 L 335.66016 -77.820312 L 327.56055 -77.820312 L 126.55078 -77.820312 L 126.55078 -79.140625 z M 147.16992 -39.101562 L 327.56055 -39.101562 L 335.66016 -39.101562 L 369.16211 -39.101562 L 369.16211 379.14062 L 220.58008 379.14062 C 220.58296 374.35541 220.57756 371.97006 220.58008 367.19336 C 220.59505 367.03501 220.64786 366.73981 220.66016 366.5957 C 220.73151 365.75932 220.76012 365.03898 220.78906 364.14648 C 220.84695 362.36149 220.8786 360.04648 220.89648 357.27344 C 220.93225 351.72736 220.9083 344.42791 220.86133 337.12305 C 220.76738 322.51332 220.58008 307.9082 220.58008 307.9082 C 220.57704 303.81721 220.58324 297.16754 220.58008 293.20898 C 220.58998 292.93676 220.76573 288.1508 220.85938 283.04297 C 220.90751 280.41742 220.93506 277.79822 220.89453 275.60547 C 220.87427 274.50909 220.85162 273.57735 220.74414 272.43359 C 220.72221 272.20023 220.613 271.72069 220.58008 271.44531 C 220.57875 267.35425 220.58008 261.54288 220.58008 257.55469 L 220.58008 237.17578 L 220.58008 222.99219 C 220.59505 222.83384 220.64786 222.53864 220.66016 222.39453 C 220.73151 221.55815 220.76012 220.83781 220.78906 219.94531 C 220.84695 218.16032 220.8786 215.8453 220.89648 213.07227 C 220.93225 207.52619 220.9083 200.22674 220.86133 192.92188 C 220.76738 178.31215 220.58008 163.70703 220.58008 163.70703 L 220.58008 149.00781 C 220.58999 148.73557 220.76573 143.95098 220.85938 138.84375 C 220.90751 136.2185 220.93506 133.59888 220.89453 131.40625 C 220.87427 130.30994 220.85161 129.37806 220.74414 128.23438 C 220.72221 128.00103 220.613 127.52144 220.58008 127.24609 L 220.58008 113.39258 C 224.46369 112.46303 228.57168 110.86031 232.64258 108.02539 C 240.12533 102.81451 246.28737 92.670801 246.34961 80.228516 L 246.34766 80.427734 L 246.86719 56.546875 L 246.80273 57.554688 C 246.80273 57.554688 247.95877 48.913026 243.84766 39.703125 C 239.73654 30.493224 228.08712 20.924465 211.50195 20.923828 L 200.4707 20.923828 L 147.16992 20.923828 L 147.16992 -39.101562 z M -47.138672 59.642578 L 208.15039 59.642578 L 208.15039 75.777344 L -47.138672 75.777344 L -47.138672 59.642578 z M -20.851562 114.5 L 181.86133 114.5 L 181.86133 379.14062 L -20.851562 379.14062 L -20.851562 337.51953 L -20.851562 335.5 L -20.851562 114.5 z "
       d="m 121.2207,-127.8457 c -23.79044,10e-6 -43.374997,19.58335 -43.374997,43.374997 v 11.980469 c 0,15.474369 8.30691,29.04944 20.619141,36.703125 V 10.9375 H -50.492187 c -24.876988,0 -45.351563,20.474574 -45.351563,45.351562 v 22.841797 c 0,18.087789 10.839331,33.683421 26.287109,40.917971 V 335.5 337.51953 369.1543 H -76.5 c -16.110292,0 -29.3457,13.23691 -29.3457,29.3457 0,16.10879 13.23542,29.34569 29.3457,29.3457 h 497 c 16.11029,0 29.3457,-13.23691 29.3457,-29.3457 0,-16.10879 -13.23541,-29.3457 -29.3457,-29.3457 h -2.63281 V -35.787109 c 12.3123,-7.653807 20.61914,-21.229024 20.61914,-36.703125 v -11.980469 c 0,-23.793257 -19.58698,-43.374987 -43.37696,-43.374997 z m 35.93555,98.730466 h 170.4043 8.09961 23.51562 V 369.1543 H 230.56641 c 4e-5,-0.46768 -2e-4,-0.84147 0,-1.35743 0.0166,-0.0948 -0.0164,0.36748 0.0449,-0.35156 0.0934,-1.09499 0.12995,-2.04298 0.16015,-2.97461 0.0631,-1.94673 0.0932,-4.31962 0.11133,-7.13281 0.0363,-5.63135 0.0119,-12.95349 -0.0352,-20.2793 -0.0942,-14.65228 -0.28125,-29.27929 -0.28125,-29.27929 -0.003,-4.03676 0.003,-10.46178 0,-14.41993 0.015,-0.41218 0.18551,-5.01779 0.27929,-10.13281 0.0491,-2.67742 0.0799,-5.3814 0.0352,-7.80469 -0.0209,-1.12935 -0.0508,-2.40522 -0.19336,-3.92187 -0.12134,-1.29117 -0.10039,-0.80818 -0.12109,-0.78516 -0.001,-4.03394 0,-9.37852 0,-13.16015 V 237.17578 223.5957 c 0.0166,-0.0948 -0.0164,0.36748 0.0449,-0.35156 0.0934,-1.09499 0.12995,-2.04299 0.16015,-2.97461 0.0631,-1.94673 0.0932,-4.31963 0.11133,-7.13281 0.0363,-5.63135 0.0119,-12.95349 -0.0352,-20.2793 -0.0942,-14.65228 -0.28125,-29.27929 -0.28125,-29.2793 V 149.1582 c 0.0151,-0.4149 0.18551,-5.01643 0.27929,-10.13086 0.0491,-2.67648 0.0799,-5.38194 0.0352,-7.80468 -0.0209,-1.12933 -0.0509,-2.40528 -0.19336,-3.92188 -0.12134,-1.29109 -0.10039,-0.80813 -0.12109,-0.78515 v -5.96485 c 2.58093,-1.11789 5.20176,-2.5324 7.7832,-4.33008 10.26707,-7.14984 17.74781,-20.003307 17.95898,-35.525388 a 9.9882777,9.9882777 0 0 0 0.0234,-0.05078 l 0.50781,-23.386719 c 0.23678,-3.351836 0.35914,-12.143868 -3.87304,-21.625 C 247.04274,22.361484 231.92836,10.938285 211.50195,10.9375 H 200.4707 157.15625 Z M -10.865234,124.48633 H 171.875 V 369.1543 H -10.865234 V 337.51953 335.5 Z"
       transform="translate(89.521763,106)" />
    <g
       id="g23">
      <path
         d="M 211.81,31.082 H 472.522 V 504.5 H 211.81 Z"
         fill="#ffe07d"
         id="path1" />
      <g
         id="g6"
         style="fill:#ffd141;fill-opacity:1">
        <g
           id="g4"
           style="fill:#ffd141;fill-opacity:1">
          <path
             d="m 317.091,191.584 h -22.079 c -9.963,0 -18.039,-8.077 -18.039,-18.039 v -72.967 c 0,-9.963 8.077,-18.039 18.039,-18.039 h 22.079 c 9.963,0 18.039,8.077 18.039,18.039 v 72.967 c 10e-4,9.963 -8.076,18.039 -18.039,18.039 z"
             fill="#3342aa"
             id="path4"
             style="fill:#ffd141;fill-opacity:1" />
        </g>
        <g
           id="g5"
           style="fill:#ffd141;fill-opacity:1">
          <path
             d="m 420.575,191.584 h -22.079 c -9.963,0 -18.039,-8.077 -18.039,-18.039 v -72.967 c 0,-9.963 8.077,-18.039 18.039,-18.039 h 22.079 c 9.963,0 18.039,8.077 18.039,18.039 v 72.967 c 0,9.963 -8.076,18.039 -18.039,18.039 z"
             fill="#3342aa"
             id="path5"
             style="fill:#ffd141;fill-opacity:1" />
        </g>
      </g>
      <g
         id="g9"
         style="fill:#ffd141;fill-opacity:1">
        <g
           id="g7"
           style="fill:#ffd141;fill-opacity:1">
          <path
             d="m 317.091,335.786 h -22.079 c -9.963,0 -18.039,-8.077 -18.039,-18.039 V 244.78 c 0,-9.963 8.077,-18.039 18.039,-18.039 h 22.079 c 9.963,0 18.039,8.077 18.039,18.039 v 72.967 c 10e-4,9.962 -8.076,18.039 -18.039,18.039 z"
             fill="#3342aa"
             id="path6"
             style="fill:#ffd141;fill-opacity:1" />
        </g>
        <g
           id="g8"
           style="fill:#ffd141;fill-opacity:1">
          <path
             d="m 420.575,335.786 h -22.079 c -9.963,0 -18.039,-8.077 -18.039,-18.039 V 244.78 c 0,-9.963 8.077,-18.039 18.039,-18.039 h 22.079 c 9.963,0 18.039,8.077 18.039,18.039 v 72.967 c 0,9.962 -8.076,18.039 -18.039,18.039 z"
             fill="#3342aa"
             id="path7"
             style="fill:#ffd141;fill-opacity:1" />
        </g>
      </g>
      <g
         id="g12"
         style="fill:#ffd141;fill-opacity:1">
        <g
           id="g10"
           style="fill:#ffd141;fill-opacity:1">
          <path
             d="m 317.091,479.988 h -22.079 c -9.963,0 -18.039,-8.077 -18.039,-18.039 v -72.967 c 0,-9.963 8.077,-18.039 18.039,-18.039 h 22.079 c 9.963,0 18.039,8.077 18.039,18.039 v 72.967 c 10e-4,9.962 -8.076,18.039 -18.039,18.039 z"
             fill="#3342aa"
             id="path9"
             style="fill:#ffd141;fill-opacity:1" />
        </g>
        <g
           id="g11"
           style="fill:#ffd141;fill-opacity:1">
          <path
             d="m 420.575,479.988 h -22.079 c -9.963,0 -18.039,-8.077 -18.039,-18.039 v -72.967 c 0,-9.963 8.077,-18.039 18.039,-18.039 h 22.079 c 9.963,0 18.039,8.077 18.039,18.039 v 72.967 c 0,9.962 -8.076,18.039 -18.039,18.039 z"
             fill="#3342aa"
             id="path10"
             style="fill:#ffd141;fill-opacity:1" />
        </g>
      </g>
      <path
         d="M 43.792,181.808 H 285.217 V 504.5 H 43.792 Z"
         fill="#b1e4f9"
         id="path12" />
      <path
         d="M 295.502,146.283 H 33.507 c -8.84,0 -16.006,7.166 -16.006,16.006 v 22.841 c 0,8.84 7.166,16.006 16.006,16.006 h 261.996 c 8.84,0 16.006,-7.166 16.006,-16.006 v -22.84 c -0.001,-8.84 -7.167,-16.007 -16.007,-16.007 z"
         fill="#f6f9f9"
         id="path15"
         style="fill:#ffeeb4;fill-opacity:1" />
      <g
         id="g19"
         style="fill:#4ec2f5;fill-opacity:1">
        <g
           id="g17"
           style="fill:#4ec2f5;fill-opacity:1">
          <path
             d="m 127.267,330.508 h -20.199 c -9.115,0 -16.504,-7.389 -16.504,-16.504 v -66.755 c 0,-9.115 7.389,-16.504 16.504,-16.504 h 20.199 c 9.115,0 16.504,7.389 16.504,16.504 v 66.755 c 0,9.115 -7.389,16.504 -16.504,16.504 z"
             fill="#3342aa"
             id="path17"
             style="fill:#4ec2f5;fill-opacity:1" />
        </g>
        <g
           id="g18"
           style="fill:#4ec2f5;fill-opacity:1">
          <path
             d="m 221.941,330.508 h -20.199 c -9.115,0 -16.504,-7.389 -16.504,-16.504 v -66.755 c 0,-9.115 7.389,-16.504 16.504,-16.504 h 20.199 c 9.115,0 16.504,7.389 16.504,16.504 v 66.755 c 0,9.115 -7.389,16.504 -16.504,16.504 z"
             fill="#3342aa"
             id="path18"
             style="fill:#4ec2f5;fill-opacity:1" />
        </g>
      </g>
      <g
         id="g22"
         style="fill:#4ec2f5;fill-opacity:1">
        <g
           id="g20"
           style="fill:#4ec2f5;fill-opacity:1">
          <path
             d="m 127.267,467.182 h -20.199 c -9.115,0 -16.504,-7.389 -16.504,-16.504 v -66.755 c 0,-9.115 7.389,-16.504 16.504,-16.504 h 20.199 c 9.115,0 16.504,7.389 16.504,16.504 v 66.755 c 0,9.115 -7.389,16.504 -16.504,16.504 z"
             fill="#3342aa"
             id="path19"
             style="fill:#4ec2f5;fill-opacity:1" />
        </g>
        <g
           id="g21"
           style="fill:#4ec2f5;fill-opacity:1">
          <path
             d="m 221.941,467.182 h -20.199 c -9.115,0 -16.504,-7.389 -16.504,-16.504 v -66.755 c 0,-9.115 7.389,-16.504 16.504,-16.504 h 20.199 c 9.115,0 16.504,7.389 16.504,16.504 v 66.755 c 0,9.115 -7.389,16.504 -16.504,16.504 z"
             fill="#3342aa"
             id="path20"
             style="fill:#4ec2f5;fill-opacity:1" />
        </g>
      </g>
      <path
         d="M 479.108,7.5 H 205.224 c -7.749,0 -14.032,6.282 -14.032,14.032 v 11.979 c 0,7.749 6.282,14.032 14.032,14.032 h 273.884 c 7.749,0 14.032,-6.282 14.032,-14.032 V 21.532 C 493.139,13.782 486.857,7.5 479.108,7.5 Z"
         fill="#dd636e"
         id="path22"
         style="fill:#ffeeb4;fill-opacity:1" />
    </g>
    <g
       id="g31">
      <path
         d="M 484.96397,497 H 480.021 V 54.994 C 491.469,54.512 500.64,45.074 500.64,33.51 V 21.53 C 500.64,9.658 490.981,0 479.11,0 H 205.22 c -11.871,0 -21.529,9.658 -21.529,21.53 v 11.98 c 0,11.565 9.172,21.002 20.62,21.484 v 83.789 H 33.507 c -12.961,0 -23.506,10.545 -23.506,23.506 v 22.841 c 0,12.961 10.545,23.506 23.506,23.506 H 36.29 V 443.52 c 0,4.142 3.357,7.5 7.5,7.5 4.143,0 7.5,-3.358 7.5,-7.5 V 208.64 H 277.72 V 497 H 51.29 v -55.5 c 0,-4.142 -3.357,-7.5 -7.5,-7.5 -4.143,0 -7.5,3.358 -7.5,7.5 V 497 h -4.912635 c -4.143,0 -7.5,3.358 -7.5,7.5 0,4.142 3.357,7.5 7.5,7.5 H 484.96397 c 4.143,0 7.5,-3.358 7.5,-7.5 0,-4.142 -3.357,-7.5 -7.5,-7.5 z M 25.001,185.131 V 162.29 c 0,-4.69 3.815,-8.506 8.506,-8.506 h 261.995 c 4.69,0 8.507,3.816 8.507,8.506 v 22.841 c 0,4.69 -3.816,8.506 -8.507,8.506 H 33.507 c -4.691,0 -8.506,-3.816 -8.506,-8.506 z M 319.009,162.29 c 0,-12.961 -10.545,-23.506 -23.507,-23.506 H 284.471 Z M 292.72,414.06 c 0,0 0.749,58.319 0,58.152 z m 0,-15 v -20.343 c 0.749,-0.167 0,20.343 0,20.343 z m 0,-129.2 c 0,0 0.749,58.319 0,58.152 z m 0,-15 v -20.342 c 0.749,-0.166 0,20.342 0,20.342 z m 0,242.14 v -9.624 c 0.0863,-65.95508 0,-88.316 0,-123.822 V 343.176 219.354 208.637 h 2.782 c 7.743,0 22.89686,-4.09503 22.98876,-22.46735 L 319.009,162.29 c 0,0 2.524,-23.505 -23.507,-23.506 l -76.191,-0.001 V 55.04 h 200.35 c 4.143,0 7.5,-3.358 7.5,-7.5 0,-4.142 -3.357,-7.5 -7.5,-7.5 H 205.22 c -3.601,0 -6.529,-2.93 -6.529,-6.53 V 21.53 c 0,-3.601 2.929,-6.53 6.529,-6.53 h 273.89 c 3.601,0 6.529,2.929 6.529,6.53 v 11.98 c 0,3.601 -2.929,6.53 -6.529,6.53 h -67.55 c -4.143,0 -7.5,3.358 -7.5,7.5 0,4.142 3.357,7.5 7.5,7.5 h 53.461 V 497 Z"
         id="path31"
         sodipodi:nodetypes="sccssssssccsssscsssccccssscssssssssssssssssscsccccccccccccccccccscscccssssssssssssssccc"
         style="fill:#ffeeb4;fill-opacity:1" />
    </g>
  </g>
</svg>
