<svg xmlns="http://www.w3.org/2000/svg" width="256" height="256"><path fill="#1976D2" fill-opacity=".016" fill-rule="evenodd" d="M0 128.004v128.004l128.25-.254 128.25-.254.254-127.75L257.008 0H0v128.004m.485.496c0 70.4.119 99.053.265 63.672.146-35.38.146-92.98 0-128C.604 29.153.485 58.1.485 128.5"/><path fill="#1976D2" fill-opacity=".342" fill-rule="evenodd" d="M143.242 5.25c-.551.688-1.323 4.78-1.716 9.094C140.514 25.463 139.819 26 126.45 26 116.291 26 110 27.486 110 29.887c0 .459-2.62 1.073-5.822 1.363-11.327 1.027-8.85-1.262-70.484 65.143-16.281 17.542-30.364 33.499-31.295 35.46-5.282 11.131-.929 23.664 9.984 28.745 2.841 1.323 7.007 2.387 9.367 2.392 2.337.006 4.25.135 4.25.288 0 1.764 7.18 65.013 7.631 67.222 1.762 8.624 9.254 16.539 18.089 19.107 5.095 1.481 7.616 1.275 74.497-6.088 51.499-5.669 70.256-8.08 73.253-9.415 5.897-2.626 12.12-9.887 13.992-16.324 1.492-5.134 1.392-6.921-2.234-40.013l-3.795-34.639 4.082-1.027c14.865-3.744 21.828-20.425 13.388-32.076l-2.83-3.907 6.713-6.358a2899.496 2899.496 0 0 1 15.805-14.809C254.573 75.673 256 73.603 256 68.408c0-3.094-1.413-5.007-12.25-16.586-6.738-7.198-13.528-14.612-15.09-16.476-4.827-5.758-6.121-6.043-31.072-6.844-22.205-.713-22.984-.807-25.25-3.073-2.007-2.007-2.338-3.333-2.338-9.36 0-8.506-1.048-9.507-11.534-11.023-9.392-1.357-14.021-1.295-15.224.204"/><path fill="#1976D2" fill-opacity=".582" fill-rule="evenodd" d="M143.652 5.491C142.43 6.712 142 8.968 142 14.148c0 6.42-.246 7.252-2.942 9.948l-2.942 2.942-11.129-.269-11.13-.269-2.811 3.134c-3.165 3.529-3.347 5.377-4.642 46.976l-.626 20.11 3.023 3.383c3.007 3.366 3.08 3.387 14.218 4.025 13.563.777 15.212 1.819 15.212 9.614 0 6.745-.885 9.027-4.153 10.718-2.466 1.275-5.342 1.15-25.464-1.111-12.477-1.401-23.681-2.289-24.899-1.972-1.218.317-10.09 6.868-19.715 14.559-18.393 14.696-20.621 17.412-18.98 23.134.718 2.502 25.859 34.955 29.233 37.735.948.781 10.554 2.315 23.916 3.82 27.846 3.137 27.348 2.85 26.33 15.167l-.686 8.293 2.344-.501c1.289-.275 7.293-.988 13.343-1.584 15.246-1.502 15.5-1.577 15.5-4.569 0-3.843 2.74-8.328 5.514-9.024 1.363-.342 6.414-.163 11.225.398 10.197 1.188 14.245.094 16.563-4.476.849-1.675 2.779-15.124 4.731-32.973 2.838-25.942 3.115-30.584 1.991-33.297-1.634-3.946-4.867-5.618-12.524-6.479-7.689-.864-11.273-2.288-12.069-4.796-.863-2.722-.913-13.793-.073-16.382 1.274-3.928 4.273-4.335 27.833-3.776l22.309.528 17.227-16.194c14.187-13.338 17.341-16.805 17.875-19.654.357-1.902.196-4.437-.357-5.633-1.309-2.825-29.763-33.345-32.41-34.761-1.124-.602-12.295-1.486-25.103-1.986-21.705-.848-23.215-1.031-25.404-3.088-1.986-1.865-2.328-3.167-2.328-8.857 0-7.809-1.142-9.353-8.016-10.834-10.07-2.171-16.584-2.404-18.332-.656"/><path fill="#1976D2" fill-opacity=".971" fill-rule="evenodd" d="M144.58 5.318c-1.294.946-1.928 3.421-2.459 9.605C141.128 26.481 140.406 27 125.344 27c-10.721 0-11.584.149-13.823 2.388-3.165 3.165-3.326 4.55-4.313 37.112-.963 31.778-.705 33.559 5.224 36.036 2.083.871 6.74 1.464 11.489 1.464 12.68 0 15.876 2.623 14.752 12.11-.789 6.665-3.621 9.908-8.597 9.844-1.967-.025-12.801-1.091-24.076-2.369-12.703-1.44-21.359-2.001-22.76-1.475-3.202 1.202-36.83 28.38-37.601 30.389-1.754 4.571-.574 7.457 7.028 17.187 15.101 19.33 20.572 25.831 22.686 26.957 1.181.628 11.372 2.144 22.647 3.369 11.275 1.224 21.621 2.739 22.991 3.366 3.967 1.816 5.053 5.236 4.009 12.624-.5 3.533-.749 6.583-.553 6.778.848.849 29.107-3.055 29.78-4.114.409-.641.749-2.078.758-3.193.02-2.712 2.706-6.405 5.402-7.43 1.209-.46 6.323-.369 11.445.203 10.22 1.141 12.963.523 15.612-3.521 1.064-1.623 2.653-12.002 5.063-33.075 4.409-38.548 4.683-37.577-11.194-39.694-10.628-1.418-12.313-3.249-12.313-13.377 0-6.01.39-7.805 2.193-10.098l2.194-2.788 22.601.614c20.276.551 22.876.439 25.275-1.096 5.2-3.326 31.558-28.758 33.232-32.065 1.48-2.924 1.525-3.778.351-6.666-1.701-4.184-30.401-35.152-33.236-35.862-1.161-.291-11.785-.835-23.61-1.21-28.002-.888-29-1.388-29-14.524 0-5.81-.096-6.026-3.25-7.337-1.787-.744-5.95-1.644-9.25-2.002-3.3-.358-6.94-.842-8.088-1.076-1.149-.234-2.873.148-3.832.849m-24.817 28.247c-5.062 2.747-5.514 5.016-6.305 31.662l-.734 24.697 3.429 3.429c3.297 3.297 3.792 3.452 12.888 4.036 5.202.334 24.352 1.112 42.554 1.728 25.642.867 33.6.849 35.34-.082 2.286-1.224 25.563-22.154 27.783-24.983.67-.854 1.233-3.477 1.25-5.829.031-4.1-.468-4.812-12.116-17.301-6.682-7.163-13.426-13.685-14.988-14.493-2.193-1.133-11.793-1.803-42.102-2.937-46.942-1.756-43.618-1.761-46.999.073M91.5 133.116c-4.917 1.526-29.862 19.164-31.281 22.119-.705 1.467-.997 3.8-.65 5.183.702 2.797 24.53 28.174 27.223 28.994.94.285 20.577 2.568 43.639 5.071 44.341 4.814 46.163 4.833 50.079.506 1.356-1.499 2.32-6.892 4.271-23.909 2.386-20.819 2.43-22.11.82-24.566-.934-1.426-3.139-3.239-4.9-4.027-1.886-.846-19.014-3.097-41.701-5.481-21.175-2.225-39.85-4.22-41.5-4.433-1.65-.213-4.35.031-6 .543"/></svg>
