<svg xmlns="http://www.w3.org/2000/svg" viewBox="0 0 40 40"><linearGradient id="a" gradientTransform="matrix(27.28 0 0 -16.564 562.035 -1652.1352)" gradientUnits="userSpaceOnUse" x1="-19.6402" x2="-19.6402" y1="-102.03373" y2="-101.0255"><stop offset="0" stop-color="#cbcbcb"/><stop offset=".4852" stop-color="#d8d8d8"/><stop offset="1" stop-color="#e1e1e1"/></linearGradient><path d="m19.064 1c.9204 2.022 1.4448 4.2598 1.4448 6.624 0 7.624-5.3379 13.9971-12.49903 15.6651 2.37403 2.3125 5.62113 3.7402 9.20703 3.7402 7.2734 0 13.1699-5.8594 13.1699-13.0864 0-6.6031-4.9277-12.0489-11.3227-12.9429z" fill="#ffe958"/><path d="m34.209 24.1973c-.626 0-1.2236.1015-1.7881.2841-1.5234-1.9384-3.8809-3.1894-6.5322-3.1894-2.5244 0-4.7852 1.1338-6.3086 2.915-.0708-.0019-.1382-.0097-.2095-.0097-3.7949 0-6.8701 2.9228-6.8701 6.52926 0 3.60742 3.0752 6.53125 6.8701 6.53125.8247 0 1.6138-.14648 2.3462-.39844 1.2275.7168 2.6484 1.13282 4.1719 1.13282 2.3906 0 4.541-1.01953 6.0615-2.63965.6934.29785 1.457.46191 2.2607.46191 3.2012 0 5.7891-2.59961 5.7891-5.80761-.002-3.21094-2.5918-5.80954-5.791-5.80954z" fill="url(#a)"/><path d="m19.064 1c.9204 2.022 1.4448 4.2598 1.4448 6.624 0 7.624-5.3379 13.9971-12.49903 15.6651 2.37403 2.3125 5.62113 3.7402 9.20703 3.7402 7.2734 0 13.1699-5.8594 13.1699-13.0864 0-6.6031-4.9277-12.0489-11.3227-12.9429z" fill="#ffe958" opacity=".4"/></svg>
