<svg xmlns="http://www.w3.org/2000/svg" viewBox="0 0 40 40"><linearGradient id="wolke-dunkel" gradientTransform="matrix(27.28 0 0 16.564 23010.72 -848.0467)" gradientUnits="userSpaceOnUse" x1="-842.64111" x2="-842.64111" y1="52.20438" y2="51.19621"><stop offset="0" stop-color="#888"/><stop offset="1" stop-color="#bebebe"/></linearGradient><linearGradient id="wolke-dunkel-2" gradientUnits="userSpaceOnUse" x1="19.5923" y1="39.7422" x2="19.5923" y2="38.7422" gradientTransform="matrix(38 0 0 23.047 -725.5 -887.2656)"><stop offset="0" style="stop-color:#888"/><stop offset="1" style="stop-color:#bebebe"/></linearGradient><path d="m19.064 0c.9204 2.022 1.44479 4.2598 1.44479 6.624 0 7.624-5.33789 13.9971-12.49902 15.6651 2.37403 2.3125 5.62113 3.7402 9.20703 3.7402 7.2734 0 13.1699-5.8594 13.1699-13.0864 0-6.6031-4.9277-12.0489-11.3227-12.9429z" fill="#ffe958"/><path d="m31.4297 14.1978c-.62601 0-1.2236.1015-1.7881.2836-1.5234-1.9389-3.8809-3.1894-6.5322-3.1894-2.5244 0-4.7847 1.1333-6.3086 2.9155-.0708-.0019-.1382-.0097-.2095-.0097-3.7949 0-6.87011 2.9223-6.87011 6.5288 0 3.6074 3.07521 6.5312 6.87011 6.5312.8252 0 1.6138-.1465 2.3467-.3984 1.227.7168 2.64789 1.1328 4.1714 1.1328 2.3906 0 4.54099-1.0195 6.0615-2.6397.6934.2979 1.45699.462 2.26069.462 3.20121 0 5.7891-2.5997 5.7891-5.8077-.00189-3.2109-2.5918-5.809-5.79099-5.809z" fill="url(#wolke-dunkel)"/><path d="m30 20.9521c-.8633 0-1.69141.1407-2.47071.3936-2.1055-2.6777-5.36329-4.4019-9.02929-4.4019-3.4893 0-6.6089 1.564-8.71777 4.022-.09717-.0019-.19141-.0137-.28809-.0137-5.24414 0-9.49414 4.0362-9.49414 9.0127 0 4.97856 4.25 9.01372 9.49414 9.01372 1.13966 0 2.22806-.20118 3.24076-.55176 1.6972.98926 3.6621 1.56445 5.7651 1.56445 3.30659 0 6.27539-1.40527 8.374-3.6416.96.40625 2.0166.63476 3.126.63476 4.4189 0 8-3.58984 8-8.01857 0-4.4258-3.5811-8.0137-8-8.0137z" fill="url(#wolke-dunkel-2)"/><path d="m19.064 0c.9204 2.022 1.44479 4.2598 1.44479 6.624 0 7.624-5.33789 13.9971-12.49902 15.6651 2.37403 2.3125 5.62113 3.7402 9.20703 3.7402 7.2734 0 13.1699-5.8594 13.1699-13.0864 0-6.6031-4.9277-12.0489-11.3227-12.9429z" fill="#ffe958" opacity=".4"/></svg>
