<svg xmlns="http://www.w3.org/2000/svg" viewBox="0 0 40 40"><linearGradient id="wolke-dunkel" gradientTransform="matrix(27.28 0 0 16.564 23010.72 -848.0467)" gradientUnits="userSpaceOnUse" x1="-842.64111" x2="-842.64111" y1="52.20438" y2="51.19621"><stop offset="0" stop-color="#888"/><stop offset="1" stop-color="#bebebe"/></linearGradient><linearGradient id="wolke-dunkel-2" gradientUnits="userSpaceOnUse" x1="19.5923" y1="39.7422" x2="19.5923" y2="38.7422" gradientTransform="matrix(38 0 0 23.047 -725.5 -887.2656)"><stop offset="0" style="stop-color:#888"/><stop offset="1" style="stop-color:#bebebe"/></linearGradient><path d="m19.064 0c.9204 2.022 1.44479 4.2598 1.44479 6.624 0 7.624-5.33789 13.9971-12.49902 15.6651 2.37402 2.3125 5.62112 3.7402 9.20703 3.7402 7.27339 0 13.1699-5.8594 13.1699-13.0864 0-6.6031-4.9277-12.0489-11.3227-12.9429z" fill="#ffe958"/><path d="m31.4297 14.1978c-.62601 0-1.2236.1015-1.7881.2836-1.5234-1.9389-3.8809-3.1894-6.5332-3.1894-2.5244 0-4.7847 1.1333-6.3086 2.9155-.0708-.0019-.1382-.0097-.20951-.0097-3.79489 0-6.87008 2.9223-6.87008 6.5288 0 3.6074 3.07519 6.5312 6.87008 6.5312.82521 0 1.61331-.1465 2.34671-.3994 1.2271.7168 2.648 1.1328 4.1714 1.1328 2.3906 0 4.541-1.0185 6.0605-2.6396.6944.2978 1.4581.4619 2.2618.4619 3.20019 0 5.79-2.5996 5.79-5.8067-.0019-3.2109-2.59181-5.809-5.791-5.809z" fill="url(#wolke-dunkel)"/><path d="m30 20.9521c-.8633 0-1.69141.1407-2.4707.3936-2.1055-2.6777-5.3633-4.4019-9.0293-4.4019-3.4893 0-6.6089 1.564-8.71777 4.022-.09717-.0019-.19141-.0137-.28809-.0137-5.24414 0-9.49414 4.0362-9.49414 9.0127 0 4.97856 4.25 9.01372 9.49414 9.01372 1.13965 0 2.22805-.20118 3.24075-.55176 1.69721.98926 3.66211 1.56445 5.76511 1.56445 3.30659 0 6.2754-1.40527 8.374-3.6416.96.40723 2.0166.63476 3.126.63476 4.4189 0 8-3.58984 8-8.01757 0-4.4268-3.5811-8.0147-8-8.0147z" fill="url(#wolke-dunkel-2)"/><path d="m19.064 0c.9204 2.022 1.44479 4.2598 1.44479 6.624 0 7.624-5.33789 13.9971-12.49902 15.6651 2.37402 2.3125 5.62112 3.7402 9.20703 3.7402 7.27339 0 13.1699-5.8594 13.1699-13.0864 0-6.6031-4.9277-12.0489-11.3227-12.9429z" fill="#ffe958" opacity=".4"/><path d="m23.248 30.0625-2.5156 1.45508 2.5156 1.45508c.44929.25976.6016.83593.3438 1.28613-.2598.45019-.834.60449-1.28521.34473l-2.51359-1.45508v2.91015c0 .52051-.42191.94043-.94.94043-.52 0-.9399-.4209-.9399-.94043v-2.91015l-2.51421 1.45508c-.44969.26269-1.02489.10546-1.2837-.34473-.25919-.4502-.1064-1.02637.34381-1.28613l2.5141-1.45508-2.5141-1.45508c-.4522-.2578-.605-.8359-.34381-1.2852.25881-.4502.83401-.6044 1.2837-.3457l2.51421 1.4541v-2.9072c-.002-.5215.4199-.9433.9399-.9424.51809 0 .94.4209.94.9424v2.9072l2.51359-1.4541c.45121-.2607 1.02541-.1045 1.28521.3438.2598.4512.10549 1.0273-.3438 1.2871z" fill="#d3e6eb"/></svg>
