<svg xmlns="http://www.w3.org/2000/svg" viewBox="0 0 40 40"><linearGradient id="wolke-dunkel" gradientTransform="matrix(27.28 0 0 16.564 23010.72 -848.0467)" gradientUnits="userSpaceOnUse" x1="-842.64111" x2="-842.64111" y1="52.20438" y2="51.19621"><stop offset="0" stop-color="#888"/><stop offset="1" stop-color="#bebebe"/></linearGradient><linearGradient id="wolke-dunkel-2" gradientUnits="userSpaceOnUse" x1="19.5923" y1="39.7422" x2="19.5923" y2="38.7422" gradientTransform="matrix(38 0 0 23.047 -725.5 -887.2656)"><stop offset="0" style="stop-color:#888"/><stop offset="1" style="stop-color:#bebebe"/></linearGradient><path d="m27.72068 8.8618c-.4375.438-1.14748.438-1.58498 0s-.43842-1.1474 0-1.5854l2.59088-2.5909c.43842-.4379 1.14842-.4379 1.5849 0 .43852.438.43952 1.1475 0 1.5855zm-8.72168 15.188c-4.438 0-8.0498-3.6133-8.0498-8.0503 0-4.4385 3.6118-8.0503 8.0498-8.0503 4.43848 0 8.0498 3.6118 8.0498 8.0503 0 4.437-3.61132 8.0503-8.0498 8.0503zm-8.7221-15.188-2.59184-2.5908c-.43848-.438-.43848-1.1475 0-1.5855.43848-.4379 1.14795-.4379 1.58642 0l2.59132 2.5909c.4375.438.4375 1.1474 0 1.5854-.438.438-1.1484.438-1.5859 0zm.00088 14.2749c.4375-.4394 1.14852-.4375 1.58602 0s.4375 1.1465 0 1.584l-2.59134 2.5928c-.4375.4385-1.14795.4385-1.58545 0-.43847-.4375-.43847-1.1475 0-1.5869zm17.4429-.0019 2.5908 2.5918c.44052.4384.44052 1.1464 0 1.5839-.43648.4385-1.14548.4385-1.5849 0l-2.59088-2.5898c-.43842-.4375-.4375-1.1484 0-1.5859.4395-.4375 1.14748-.4375 1.58498 0zm-7.8022-18.3492c0 .6192-.38718 1.1211-1.0059 1.1211-.61868-.0009-1.0054-.5019-1.0054-1.1211v-3.664c0-.6196.38672-1.1216 1.0054-1.1216.61872 0 1.0059.502 1.0059 1.1216zm-12.13284 12.1333h-3.66455c-.61914 0-1.12109-.3877-1.12109-1.0053 0-.6216.50195-1.0059 1.12109-1.0059h3.66455c.62012 0 1.1211.3843 1.1211 1.0059 0 .6176-.50098 1.0053-1.1211 1.0053zm22.42826-2.0112h3.6631c.621 0 1.123.3843 1.123 1.0059 0 .6176-.502 1.0053-1.123 1.0053h-3.6631c-.6201 0-1.12212-.3877-1.12212-1.0053 0-.6216.501-1.0059 1.12212-1.0059z" fill="#ffc600"/><path d="m31.4297 14.1978c-.62602 0-1.2236.1015-1.7881.2836-1.5234-1.9389-3.8809-3.1894-6.5332-3.1894-2.5244 0-4.7847 1.1333-6.3086 2.9155-.0708-.0019-.13822-.0097-.20952-.0097-3.79488 0-6.87007 2.9223-6.87007 6.5288 0 3.6074 3.07519 6.5312 6.87007 6.5312.82522 0 1.61332-.1465 2.3462-.3994 1.2276.7168 2.64852 1.1328 4.17192 1.1328 2.3906 0 4.54098-1.0185 6.0605-2.6396.6944.2978 1.4581.4619 2.2618.4619 3.20018 0 5.78998-2.5996 5.78998-5.8067-.00188-3.2109-2.5918-5.809-5.79098-5.809z" fill="url(#wolke-dunkel)"/><path d="m30 20.9521c-.8633 0-1.69142.1407-2.47072.3936-2.10548-2.6777-5.36328-4.4019-9.02928-4.4019-3.4893 0-6.6089 1.564-8.71777 4.022-.09717-.0019-.19141-.0137-.28809-.0137-5.24414 0-9.49414 4.0362-9.49414 9.0127 0 4.97856 4.25 9.01372 9.49414 9.01372 1.13964 0 2.22804-.20118 3.24074-.55176 1.6972.98926 3.66212 1.56445 5.76512 1.56445 3.30658 0 6.2754-1.40527 8.374-3.6416.96.40723 2.0166.63476 3.126.63476 4.4189 0 8-3.58984 8-8.01757 0-4.4268-3.5811-8.0147-8-8.0147z" fill="url(#wolke-dunkel-2)"/><path d="m27.72068 8.8618c-.4375.438-1.14748.438-1.58498 0s-.43842-1.1474 0-1.5854l2.59088-2.5909c.43842-.4379 1.14842-.4379 1.5849 0 .43852.438.43952 1.1475 0 1.5855zm-8.72168 15.188c-4.438 0-8.0498-3.6133-8.0498-8.0503 0-4.4385 3.6118-8.0503 8.0498-8.0503 4.43848 0 8.0498 3.6118 8.0498 8.0503 0 4.437-3.61132 8.0503-8.0498 8.0503zm-8.7221-15.188-2.59184-2.5908c-.43848-.438-.43848-1.1475 0-1.5855.43848-.4379 1.14795-.4379 1.58642 0l2.59132 2.5909c.4375.438.4375 1.1474 0 1.5854-.438.438-1.1484.438-1.5859 0zm.00088 14.2749c.4375-.4394 1.14852-.4375 1.58602 0s.4375 1.1465 0 1.584l-2.59134 2.5928c-.4375.4385-1.14795.4385-1.58545 0-.43847-.4375-.43847-1.1475 0-1.5869zm17.4429-.0019 2.5908 2.5918c.44052.4384.44052 1.1464 0 1.5839-.43648.4385-1.14548.4385-1.5849 0l-2.59088-2.5898c-.43842-.4375-.4375-1.1484 0-1.5859.4395-.4375 1.14748-.4375 1.58498 0zm-7.8022-18.3492c0 .6192-.38718 1.1211-1.0059 1.1211-.61868-.0009-1.0054-.5019-1.0054-1.1211v-3.664c0-.6196.38672-1.1216 1.0054-1.1216.61872 0 1.0059.502 1.0059 1.1216zm-12.13284 12.1333h-3.66455c-.61914 0-1.12109-.3877-1.12109-1.0053 0-.6216.50195-1.0059 1.12109-1.0059h3.66455c.62012 0 1.1211.3843 1.1211 1.0059 0 .6176-.50098 1.0053-1.1211 1.0053zm22.42826-2.0112h3.6631c.621 0 1.123.3843 1.123 1.0059 0 .6176-.502 1.0053-1.123 1.0053h-3.6631c-.6201 0-1.12212-.3877-1.12212-1.0053 0-.6216.501-1.0059 1.12212-1.0059z" fill="#ffc600" opacity=".2"/><path fill="#d3e6eb" d="m23.248 30.0625-2.5156 1.45508 2.5156 1.45508c.44928.25976.60158.83593.34378 1.28613-.25978.45019-.83398.60449-1.2852.34473l-2.51358-1.45508v2.91015c0 .52051-.42192.94043-.94.94043-.52 0-.93992-.4209-.93992-.94043v-2.91015l-2.5142 1.45508c-.44968.26269-1.02488.10546-1.2837-.34473-.25918-.4502-.1064-1.02637.34382-1.28613l2.5141-1.45508-2.5141-1.45508c-.4522-.2578-.605-.8359-.34382-1.2852.25882-.4502.83402-.6044 1.2837-.3457l2.5142 1.4541v-2.9072c-.00198-.5215.41992-.9433.93992-.9424.51808 0 .94.4209.94.9424v2.9072l2.51358-1.4541c.45122-.2607 1.02542-.1045 1.2852.3438.2598.4512.1055 1.0273-.34378 1.2871z"/><path fill="#d3e6eb" d="m10.72408 30.05371-2.00289.42676 1.37109 1.52539c.24612.27344.2231.69336-.0488.93945-.27297.2461-.69241.22461-.93703-.04883l-1.3711-1.52636-.6333 1.95215c-.11279.35058-.48682.54101-.83594.42773-.34765-.11426-.53906-.48828-.42382-.83789l.63279-1.95313-2.00487.42579c-.35888.0791-.70996-.1504-.78808-.50977-.07471-.36133.1543-.71289.51123-.78906l2.00488-.42674-1.37109-1.5264c-.24512-.2715-.22412-.6933.04931-.9375.27198-.2441.69092-.2226.93602.0488l1.3716 1.5254.6333-1.9511c.1128-.3516.48682-.5411.83496-.4278.3501.1133.54102.4873.42579.8379l-.63282 1.9531 2.00389-.4267c.35788-.0781.70998.1533.7871.5107.07718.3604-.15092.7129-.51222.78811z"/></svg>
