<svg xmlns="http://www.w3.org/2000/svg" viewBox="0 0 40 40"><linearGradient id="wolke-dunkel" gradientTransform="matrix(27.28 0 0 16.564 23010.72 -848.0467)" gradientUnits="userSpaceOnUse" x1="-842.64111" x2="-842.64111" y1="52.20438" y2="51.19621"><stop offset="0" stop-color="#888"/><stop offset="1" stop-color="#bebebe"/></linearGradient><linearGradient id="wolke-dunkel-2" gradientUnits="userSpaceOnUse" x1="19.5923" y1="39.7422" x2="19.5923" y2="38.7422" gradientTransform="matrix(38 0 0 23.047 -725.5 -887.2656)"><stop offset="0" style="stop-color:#888"/><stop offset="1" style="stop-color:#bebebe"/></linearGradient><path d="m31.4297 2.9058c-.62603 0-1.2236.1015-1.7881.2837-1.5234-1.939-3.8809-3.1895-6.5332-3.1895-2.5244 0-4.7847 1.1333-6.3086 2.9155-.0708-.0019-.13822-.0097-.20952-.0097-3.79488 0-6.87007 2.9223-6.87007 6.5288 0 3.6074 3.07519 6.5312 6.87007 6.5312.82522 0 1.61332-.1465 2.3462-.3994 1.2276.7168 2.64852 1.1328 4.17192 1.1328 2.3906 0 4.54098-1.0185 6.0605-2.6396.6944.2978 1.4581.4619 2.2618.4619 3.20017 0 5.78997-2.5996 5.78997-5.8067-.00187-3.2109-2.5918-5.809-5.79097-5.809z" fill="url(#wolke-dunkel)"/><path d="m30 9.6602c-.8633 0-1.69142.1406-2.47072.3935-2.10548-2.6777-5.36328-4.4018-9.02928-4.4018-3.4893 0-6.6089 1.5639-8.71777 4.0219-.09717-.0019-.19141-.0136-.28809-.0136-5.24414 0-9.49414 4.0361-9.49414 9.0127 0 4.9785 4.25 9.0136 9.49414 9.0136 1.13964 0 2.22804-.2011 3.24074-.5517 1.6972.9892 3.66212 1.5644 5.76512 1.5644 3.30658 0 6.2754-1.4053 8.374-3.6416.96.4072 2.0166.6348 3.126.6348 4.4189 0 8-3.5899 8-8.0176 0-4.4268-3.5811-8.0146-8-8.0146z" fill="url(#wolke-dunkel-2)"/><path d="m31.28417 21.0391c-1.4385 0-2.60447-1.169-2.60447-2.6114 0-1.4394 1.38477-3.0996 2.60447-4.6963 1.1553 1.6475 2.6045 3.2569 2.6045 4.6963 0 1.4424-1.166 2.6114-2.6045 2.6114zm-12.33597 4.9609c-1.81292 0-3.28412-1.4736-3.28412-3.291 0-1.8184 1.7451-3.9082 3.28412-5.9229 1.45608 2.0782 3.28228 4.1045 3.28228 5.9229 0 1.8174-1.46878 3.291-3.28228 3.291z" fill="#9cdeff"/><path d="m31.28417 35.03906c-1.4385 0-2.60447-1.16894-2.60447-2.61133 0-1.43945 1.38477-3.09963 2.60447-4.69633 1.1553 1.6475 2.6045 3.25688 2.6045 4.69633 0 1.44239-1.166 2.61133-2.6045 2.61133zm-12.33597 4.96094c-1.81292 0-3.28412-1.47363-3.28412-3.29102 0-1.81836 1.7451-3.9082 3.28412-5.92285 1.45608 2.07813 3.28228 4.10449 3.28228 5.92285 0 1.81739-1.46878 3.29102-3.28228 3.29102z" fill="#7ac4e9"/></svg>
