<svg xmlns="http://www.w3.org/2000/svg" viewBox="0 0 40 40"><linearGradient id="wolke-dunkel" gradientTransform="matrix(27.28 0 0 16.564 23010.72 -848.0467)" gradientUnits="userSpaceOnUse" x1="-842.64111" x2="-842.64111" y1="52.20438" y2="51.19621"><stop offset="0" stop-color="#888"/><stop offset="1" stop-color="#bebebe"/></linearGradient><linearGradient id="wolke-dunkel-2" gradientUnits="userSpaceOnUse" x1="19.5923" y1="39.7422" x2="19.5923" y2="38.7422" gradientTransform="matrix(38 0 0 23.047 -725.5 -887.2656)"><stop offset="0" style="stop-color:#888"/><stop offset="1" style="stop-color:#bebebe"/></linearGradient><path d="m31.4297 2.9058c-.626 0-1.2236.1015-1.7881.2837-1.5234-1.939-3.8809-3.1895-6.5332-3.1895-2.5244 0-4.7847 1.1333-6.3086 2.9155-.0708-.0019-.1382-.0097-.2095-.0097-3.7949 0-6.87009 2.9223-6.87009 6.5288 0 3.6074 3.07519 6.5312 6.87009 6.5312.8252 0 1.6133-.1465 2.3462-.3994 1.2276.7168 2.6485 1.1328 4.1719 1.1328 2.3906 0 4.541-1.0185 6.0605-2.6396.6944.2978 1.4581.4619 2.2618.4619 3.2002 0 5.79-2.5996 5.79-5.8067-.0019-3.2109-2.5918-5.809-5.791-5.809z" fill="url(#wolke-dunkel)"/><path d="m30 9.6602c-.8633 0-1.6914.1406-2.4707.3935-2.1055-2.6777-5.3633-4.4018-9.0293-4.4018-3.4893 0-6.6089 1.5639-8.71777 4.0219-.09717-.0019-.19141-.0136-.28809-.0136-5.24414 0-9.49414 4.0361-9.49414 9.0127 0 4.9785 4.25 9.0136 9.49414 9.0136 1.13966 0 2.22806-.2011 3.24076-.5517 1.6972.9892 3.6621 1.5644 5.7651 1.5644 3.3066 0 6.2754-1.4053 8.374-3.6416.96.4072 2.0166.6348 3.126.6348 4.4189 0 8-3.5899 8-8.0176 0-4.4268-3.5811-8.0146-8-8.0146z" fill="url(#wolke-dunkel-2)"/><path d="m31.2842 35.03906c-1.4385 0-2.6045-1.16894-2.6045-2.61133 0-1.43945 1.3848-3.09963 2.6045-4.69633 1.1553 1.6475 2.6045 3.25688 2.6045 4.69633 0 1.44239-1.166 2.61133-2.6045 2.61133zm-12.336 4.96094c-1.8129 0-3.2841-1.47363-3.2841-3.29102 0-1.81836 1.7451-3.9082 3.2841-5.92285 1.4561 2.07813 3.2823 4.10449 3.2823 5.92285 0 1.81739-1.4688 3.29102-3.2823 3.29102z" fill="#7ac4e9"/><path d="m23.248 20.0625-2.5156 1.4551 2.5156 1.4551c.4493.2597.6016.8359.3438 1.2861-.2598.4502-.834.6045-1.2852.3447l-2.5136-1.4551v2.9102c0 .5205-.4219.9404-.94.9404-.52 0-.9399-.4209-.9399-.9404v-2.9102l-2.5142 1.4551c-.4497.2627-1.0249.1055-1.2837-.3447-.2592-.4502-.1064-1.0264.3438-1.2861l2.5141-1.4551-2.5141-1.4551c-.4522-.2578-.605-.8359-.3438-1.2852.2588-.4502.834-.6044 1.2837-.3457l2.5142 1.4541v-2.9072c-.002-.5215.4199-.9433.9399-.9424.5181 0 .94.4209.94.9424v2.9072l2.5136-1.4541c.4512-.2607 1.0254-.1045 1.2852.3438.2598.4512.1055 1.0273-.3438 1.2871z" fill="#d3e6eb"/><path d="m10.7241 20.0537-2.00291.4268 1.37111 1.5254c.2461.2734.2231.6933-.0488.9394-.27299.2461-.69243.2246-.93705-.0488l-1.3711-1.5264-.6333 1.9522c-.11279.3506-.48682.541-.83594.4277-.34765-.1143-.53906-.4883-.42382-.8379l.63281-1.9531-2.00489.4258c-.35888.0791-.70996-.1504-.78808-.5098-.07471-.3613.1543-.7129.51123-.7891l2.00488-.4267-1.37109-1.5264c-.24512-.2715-.22412-.6933.04931-.9375.27198-.2441.69092-.2226.93604.0488l1.37158 1.5254.6333-1.9511c.1128-.3516.48682-.5411.83496-.4278.3501.1133.54102.4873.42579.8379l-.63282 1.9531 2.00389-.4267c.3579-.0781.71.1533.7871.5107.0772.3604-.1509.7129-.5122.7881z" fill="#d3e6eb"/></svg>
