<svg xmlns="http://www.w3.org/2000/svg" viewBox="0 0 40 40"><linearGradient id="a" gradientUnits="userSpaceOnUse" x1="18.9995" x2="18.9995" y1="22.00001" y2="5"><stop offset="0" stop-color="#cbcbcb"/><stop offset=".4852" stop-color="#d8d8d8"/><stop offset="1" stop-color="#e1e1e1"/></linearGradient><linearGradient id="b" gradientUnits="userSpaceOnUse" x1="18.9995" x2="18.9995" y1="40.00001" y2="23"><stop offset="0" stop-color="#cbcbcb"/><stop offset=".4852" stop-color="#d8d8d8"/><stop offset="1" stop-color="#e1e1e1"/></linearGradient><path d="m.99902 7c-.61719.002-1-.3965-.99902-1.0122 0-.6148.38281-.9868.99902-.9878h35.99998c.6162 0 1 .373 1 .9878 0 .6167-.3838 1.0122-1 1.0122zm0 3c-.61719.002-1-.3965-.99902-1.0122 0-.6148.38281-.9868.99902-.9878h35.99998c.6162 0 1 .373 1 .9878 0 .6167-.3838 1.0122-1 1.0122zm0 3c-.61719.002-1-.3965-.99902-1.0122 0-.6148.38281-.9868.99902-.9878h35.99998c.6162 0 1 .373 1 .9878 0 .6167-.3838 1.0122-1 1.0122zm0 3c-.61719.002-1-.3965-.99902-1.0122 0-.6148.38281-.9868.99902-.9878h35.99998c.6162 0 1 .373 1 .9878 0 .6167-.3838 1.0122-1 1.0122zm0 3c-.61719.002-1-.3965-.99902-1.0117 0-.6153.38281-.9873.99902-.9883h35.99998c.6162 0 1 .373 1 .9883 0 .6162-.3838 1.0117-1 1.0117zm0 3c-.61719.002-1-.3965-.99902-1.0117 0-.6153.38281-.9873.99902-.9883h35.99998c.6162 0 1 .373 1 .9883 0 .6162-.3838 1.0117-1 1.0117z" fill="url(#a)"/><path d="m.99902 25c-.61719.002-1-.3965-.99902-1.0117 0-.6153.38281-.9873.99902-.9883h35.99998c.6162 0 1 .373 1 .9883 0 .6162-.3838 1.0117-1 1.0117zm0 3c-.61719.002-1-.3965-.99902-1.0117 0-.6153.38281-.9873.99902-.9883h35.99998c.6162 0 1 .373 1 .9883 0 .6162-.3838 1.0117-1 1.0117zm0 3c-.61719.00195-1-.39648-.99902-1.0117 0-.6153.38281-.9873.99902-.9883h35.99998c.6162 0 1 .373 1 .9883 0 .61619-.3838 1.0117-1 1.0117zm0 3c-.61719.00195-1-.39648-.99902-1.01172 0-.61523.38281-.9873.99902-.98828h35.99998c.6162 0 1 .37305 1 .98828 0 .61621-.3838 1.01172-1 1.01172zm0 3c-.61719.00195-1-.39648-.99902-1.01172 0-.61523.38281-.9873.99902-.98828h35.99998c.6162 0 1 .37305 1 .98828 0 .61621-.3838 1.01172-1 1.01172zm0 3c-.61719.00195-1-.39648-.99902-1.01172 0-.61523.38281-.9873.99902-.98828h35.99998c.6162 0 1 .37305 1 .98828 0 .61621-.3838 1.01172-1 1.01172z" fill="url(#b)"/></svg>
