<svg xmlns="http://www.w3.org/2000/svg" viewBox="0 0 40 40"><linearGradient id="wolke-hell" gradientTransform="matrix(27.28 0 0 -16.564 44712.435 -1652.1352)" gradientUnits="userSpaceOnUse" x1="-1638.15851" x2="-1638.15851" y1="-101.43001" y2="-100.42178"><stop offset="0" stop-color="#cbcbcb"/><stop offset=".75" stop-color="#d8d8d8"/><stop offset="1" stop-color="#e1e1e1"/></linearGradient><linearGradient id="wolke-hell-2" gradientUnits="userSpaceOnUse" x1="19" x2="19" y1="39.99121" y2="16.9438"><stop offset="0" stop-color="#cbcbcb"/><stop offset=".4852" stop-color="#d8d8d8"/><stop offset="1" stop-color="#e1e1e1"/></linearGradient><path d="m19.064 0c.9204 2.022 1.4448 4.2598 1.4448 6.624 0 7.624-5.3379 13.9971-12.49903 15.6651 2.37403 2.3125 5.62113 3.7402 9.20703 3.7402 7.2734 0 13.1699-5.8594 13.1699-13.0864 0-6.6031-4.9277-12.0489-11.3227-12.9429z" fill="#ffe958"/><path d="m31.4297 14.1978c-.626 0-1.2236.1015-1.7881.2836-1.5234-1.9389-3.8809-3.1894-6.5322-3.1894-2.5244 0-4.7847 1.1333-6.3086 2.9155-.0708-.0019-.1382-.0097-.2095-.0097-3.7949 0-6.87011 2.9223-6.87011 6.5288 0 3.6074 3.07521 6.5312 6.87011 6.5312.8252 0 1.6138-.1465 2.3467-.3984 1.227.7168 2.6479 1.1328 4.1714 1.1328 2.3906 0 4.541-1.0195 6.0615-2.6397.6934.2979 1.457.462 2.2607.462 3.2012 0 5.7891-2.5997 5.7891-5.8077-.0019-3.2109-2.5918-5.809-5.791-5.809z" fill="url(#wolke-hell)"/><path d="m30 20.9521c-.8633 0-1.6914.1407-2.4707.3936-2.1055-2.6777-5.3633-4.4019-9.0293-4.4019-3.4893 0-6.6089 1.564-8.71777 4.022-.09717-.0019-.19141-.0137-.28809-.0137-5.24414 0-9.49414 4.0362-9.49414 9.0127 0 4.97856 4.25 9.01372 9.49414 9.01372 1.13966 0 2.22806-.20118 3.24076-.55176 1.6972.98926 3.6621 1.56445 5.7651 1.56445 3.3066 0 6.2754-1.40527 8.374-3.6416.96.40625 2.0166.63476 3.126.63476 4.4189 0 8-3.58984 8-8.01857 0-4.4258-3.5811-8.0137-8-8.0137z" fill="url(#wolke-hell-2)"/><path d="m19.064 0c.9204 2.022 1.4448 4.2598 1.4448 6.624 0 7.624-5.3379 13.9971-12.49903 15.6651 2.37403 2.3125 5.62113 3.7402 9.20703 3.7402 7.2734 0 13.1699-5.8594 13.1699-13.0864 0-6.6031-4.9277-12.0489-11.3227-12.9429z" fill="#ffe958" opacity=".4"/><path d="m23.248 30.0625-2.5156 1.45508 2.5156 1.45508c.4493.25976.6016.83593.3438 1.28613-.2598.45019-.834.60449-1.2852.34473l-2.5136-1.45508v2.91015c0 .52051-.4219.94043-.94.94043-.52 0-.9399-.4209-.9399-.94043v-2.91015l-2.5142 1.45508c-.4497.26269-1.0249.10546-1.2837-.34473-.2592-.4502-.1064-1.02637.3438-1.28613l2.5141-1.45508-2.5141-1.45508c-.4522-.2578-.605-.8359-.3438-1.2852.2588-.4502.834-.6044 1.2837-.3457l2.5142 1.4541v-2.9072c-.002-.5215.4199-.9433.9399-.9424.5181 0 .94.4209.94.9424v2.9072l2.5136-1.4541c.4512-.2607 1.0254-.1045 1.2852.3438.2598.4512.1055 1.0273-.3438 1.2871z" fill="#93b9ba"/></svg>
