<svg xmlns="http://www.w3.org/2000/svg" viewBox="0 0 40 40"><linearGradient id="wolke-dunkel" gradientTransform="matrix(27.28 0 0 16.564 23010.72 -848.0467)" gradientUnits="userSpaceOnUse" x1="-842.64111" x2="-842.64111" y1="52.20438" y2="51.19621"><stop offset="0" stop-color="#888"/><stop offset="1" stop-color="#bebebe"/></linearGradient><linearGradient id="wolke-dunkel-2" gradientUnits="userSpaceOnUse" x1="19.5923" y1="39.7422" x2="19.5923" y2="38.7422" gradientTransform="matrix(38 0 0 23.047 -725.5 -887.2656)"><stop offset="0" style="stop-color:#888"/><stop offset="1" style="stop-color:#bebebe"/></linearGradient><path d="m19.064 0c.9204 2.022 1.4448 4.2598 1.4448 6.624 0 7.624-5.3379 13.9971-12.49903 15.6651 2.37403 2.3125 5.62113 3.7402 9.20703 3.7402 7.2734 0 13.1699-5.8594 13.1699-13.0864 0-6.6031-4.9277-12.0489-11.3227-12.9429z" fill="#ffe958"/><path d="m31.4297 14.1978c-.626 0-1.2236.1015-1.7881.2836-1.5234-1.9389-3.8809-3.1894-6.5332-3.1894-2.5244 0-4.7847 1.1333-6.3086 2.9155-.0708-.0019-.1382-.0097-.2095-.0097-3.7949 0-6.87009 2.9223-6.87009 6.5288 0 3.6074 3.07519 6.5312 6.87009 6.5312.8252 0 1.6133-.1465 2.3462-.3994 1.2276.7168 2.6485 1.1328 4.1719 1.1328 2.3906 0 4.541-1.0185 6.0605-2.6396.6944.2978 1.4581.4619 2.2618.4619 3.2002 0 5.79-2.5996 5.79-5.8067-.0019-3.2109-2.5918-5.809-5.791-5.809z" fill="url(#wolke-dunkel)"/><path d="m30 20.9521c-.8633 0-1.6914.1407-2.4707.3936-2.1055-2.6777-5.3633-4.4019-9.0293-4.4019-3.4893 0-6.6089 1.564-8.71777 4.022-.09717-.0019-.19141-.0137-.28809-.0137-5.24414 0-9.49414 4.0362-9.49414 9.0127 0 4.97856 4.25 9.01372 9.49414 9.01372 1.13966 0 2.22806-.20118 3.24076-.55176 1.6972.98926 3.6621 1.56445 5.7651 1.56445 3.3066 0 6.2754-1.40527 8.374-3.6416.96.40723 2.0166.63476 3.126.63476 4.4189 0 8-3.58984 8-8.01757 0-4.4268-3.5811-8.0147-8-8.0147z" fill="url(#wolke-dunkel-2)"/><path d="m19.064 0c.9204 2.022 1.4448 4.2598 1.4448 6.624 0 7.624-5.3379 13.9971-12.49903 15.6651 2.37403 2.3125 5.62113 3.7402 9.20703 3.7402 7.2734 0 13.1699-5.8594 13.1699-13.0864 0-6.6031-4.9277-12.0489-11.3227-12.9429z" fill="#ffe958" opacity=".4"/><path d="m7.58398 33.12109c-1.42919 0-2.58789-1.14648-2.58789-2.56054 0-1.41605 1.375-3.04105 2.58789-4.60745 1.14698 1.6153 2.58692 3.1934 2.58692 4.60745s-1.15772 2.56054-2.58692 2.56054zm23.70022-.90234c-1.4385 0-2.6045-1.16895-2.6045-2.61135 0-1.4394 1.3848-3.0996 2.6045-4.6963 1.1553 1.6475 2.6045 3.2569 2.6045 4.6963 0 1.4424-1.166 2.61135-2.6045 2.61135zm-12.336 4.96094c-1.8129 0-3.2841-1.47364-3.2841-3.29102 0-1.81836 1.7451-3.90817 3.2841-5.92287 1.4561 2.07815 3.2823 4.10451 3.2823 5.92287 0 1.81738-1.4688 3.29102-3.2823 3.29102z" fill="#9cdeff"/></svg>
