<svg xmlns="http://www.w3.org/2000/svg" viewBox="0 0 40 40"><linearGradient id="wolke-dunkel" gradientTransform="matrix(27.28 0 0 16.564 23010.72 -848.0467)" gradientUnits="userSpaceOnUse" x1="-842.64111" x2="-842.64111" y1="52.20438" y2="51.19621"><stop offset="0" stop-color="#888"/><stop offset="1" stop-color="#bebebe"/></linearGradient><linearGradient id="wolke-dunkel-2" gradientUnits="userSpaceOnUse" x1="19.5923" y1="39.7422" x2="19.5923" y2="38.7422" gradientTransform="matrix(38 0 0 23.047 -725.5 -887.2656)"><stop offset="0" style="stop-color:#888"/><stop offset="1" style="stop-color:#bebebe"/></linearGradient><path d="m19.064 0c.9204 2.022 1.4448 4.2598 1.4448 6.624 0 7.624-5.3379 13.9971-12.49903 15.6651 2.37403 2.3125 5.62113 3.7402 9.20703 3.7402 7.2734 0 13.1699-5.8594 13.1699-13.0864 0-6.6031-4.9277-12.0489-11.3227-12.9429z" fill="#ffe958"/><path d="m31.4297 14.1978c-.626 0-1.2236.1015-1.7881.2836-1.5234-1.9389-3.8809-3.1894-6.5332-3.1894-2.5244 0-4.7847 1.1333-6.3086 2.9155-.0708-.0019-.1382-.0097-.2095-.0097-3.7949 0-6.87009 2.9223-6.87009 6.5288 0 3.6074 3.07519 6.5312 6.87009 6.5312.8252 0 1.6133-.1465 2.3462-.3994 1.2276.7168 2.6485 1.1328 4.1719 1.1328 2.3906 0 4.541-1.0185 6.0605-2.6396.6944.2978 1.4581.4619 2.2618.4619 3.2002 0 5.79-2.5996 5.79-5.8067-.0019-3.2109-2.5918-5.809-5.791-5.809z" fill="url(#wolke-dunkel)"/><path d="m30 20.9521c-.8633 0-1.6914.1407-2.4707.3936-2.1055-2.6777-5.3633-4.4019-9.0293-4.4019-3.4893 0-6.6089 1.564-8.71777 4.022-.09717-.0019-.19141-.0137-.28809-.0137-5.24414 0-9.49414 4.0362-9.49414 9.0127 0 4.97856 4.25 9.01372 9.49414 9.01372 1.13966 0 2.22806-.20118 3.24076-.55176 1.6972.98926 3.6621 1.56445 5.7651 1.56445 3.3066 0 6.2754-1.40527 8.374-3.6416.96.40723 2.0166.63476 3.126.63476 4.4189 0 8-3.58984 8-8.01757 0-4.4268-3.5811-8.0147-8-8.0147z" fill="url(#wolke-dunkel-2)"/><path d="m19.064 0c.9204 2.022 1.4448 4.2598 1.4448 6.624 0 7.624-5.3379 13.9971-12.49903 15.6651 2.37403 2.3125 5.62113 3.7402 9.20703 3.7402 7.2734 0 13.1699-5.8594 13.1699-13.0864 0-6.6031-4.9277-12.0489-11.3227-12.9429z" fill="#ffe958" opacity=".4"/><g fill="#d3e6eb"><path d="m33.7012 28.8311-2.003.4287 1.3702 1.53512c.2461.27539.2246.69727-.0489.94531-.2715.24805-.6914.22657-.9365-.04882l-1.3701-1.53711-.6338 1.96679c-.1123.35157-.4873.54297-.8359.42871-.3506-.11425-.5391-.48925-.4258-.84277l.6338-1.96583-2.0049.42872c-.3584.0791-.7109-.15039-.7871-.51372-.0762-.3623.1513-.7167.5107-.7949l2.0059-.4277-1.3711-1.5371c-.2461-.2744-.2256-.6973.0488-.9444.2705-.246.6914-.2236.9356.0499l1.372 1.5371.6338-1.9668c.1133-.3536.4864-.545.834-.4297.3506.1142.541.4902.4258.8437l-.6328 1.9658 2.0039-.4306c.3594-.0781.7109.1543.7871.5156.0781.3613-.1504.7168-.5117.794z"/><path d="m23.248 30.0625-2.5156 1.45508 2.5156 1.45508c.4493.25976.6016.83593.3438 1.28613-.2598.45019-.834.60449-1.2852.34473l-2.5136-1.45508v2.91015c0 .52051-.4219.94043-.94.94043-.52 0-.9399-.4209-.9399-.94043v-2.91015l-2.5142 1.45508c-.4497.26269-1.0249.10546-1.2837-.34473-.2592-.4502-.1064-1.02637.3438-1.28613l2.5141-1.45508-2.5141-1.45508c-.4522-.2578-.605-.8359-.3438-1.2852.2588-.4502.834-.6044 1.2837-.3457l2.5142 1.4541v-2.9072c-.002-.5215.4199-.9433.9399-.9424.5181 0 .94.4209.94.9424v2.9072l2.5136-1.4541c.4512-.2607 1.0254-.1045 1.2852.3438.2598.4512.1055 1.0273-.3438 1.2871z"/><path d="m10.7241 30.05371-2.00291.42676 1.37111 1.52539c.2461.27344.2231.69336-.0488.93945-.27299.2461-.69243.22461-.93705-.04883l-1.3711-1.52636-.6333 1.95215c-.11279.35058-.48682.54101-.83594.42773-.34765-.11426-.53906-.48828-.42382-.83789l.63281-1.95313-2.00489.42579c-.35888.0791-.70996-.1504-.78808-.50977-.07471-.36133.1543-.71289.51123-.78906l2.00488-.42674-1.37109-1.5264c-.24512-.2715-.22412-.6933.04931-.9375.27198-.2441.69092-.2226.93604.0488l1.37158 1.5254.6333-1.9511c.1128-.3516.48682-.5411.83496-.4278.3501.1133.54102.4873.42579.8379l-.63282 1.9531 2.00389-.4267c.3579-.0781.71.1533.7871.5107.0772.3604-.1509.7129-.5122.78811z"/></g></svg>
