<svg xmlns="http://www.w3.org/2000/svg" viewBox="0 0 40 40"><linearGradient id="wolke-hell" gradientTransform="matrix(27.28 0 0 -16.564 52596.435 -1652.1352)" gradientUnits="userSpaceOnUse" x1="-1927.16144" x2="-1927.16144" y1="-101.12815" y2="-100.11992"><stop offset="0" stop-color="#cbcbcb"/><stop offset=".75" stop-color="#d8d8d8"/><stop offset="1" stop-color="#e1e1e1"/></linearGradient><linearGradient id="wolke-hell-2" gradientUnits="userSpaceOnUse" x1="19" x2="19" y1="34.99121" y2="11.9438"><stop offset="0" stop-color="#cbcbcb"/><stop offset=".4852" stop-color="#d8d8d8"/><stop offset="1" stop-color="#e1e1e1"/></linearGradient><path d="m31.4297 9.1978c-.626 0-1.2236.1015-1.7881.2836-1.5234-1.9389-3.8809-3.1894-6.5322-3.1894-2.5244 0-4.7847 1.1333-6.3086 2.9155-.0708-.0019-.1382-.0097-.2095-.0097-3.7949 0-6.87011 2.9223-6.87011 6.5288 0 3.6074 3.07521 6.5312 6.87011 6.5312.8252 0 1.6138-.1465 2.3467-.3984 1.227.7168 2.6479 1.1328 4.1714 1.1328 2.3906 0 4.541-1.0195 6.0615-2.6397.6934.2979 1.457.462 2.2607.462 3.2012 0 5.7891-2.5997 5.7891-5.8077-.0019-3.2109-2.5918-5.809-5.791-5.809z" fill="url(#wolke-hell)"/><path d="m30 15.9521c-.8633 0-1.6914.1407-2.4707.3936-2.1055-2.6777-5.3633-4.4019-9.0293-4.4019-3.4893 0-6.6089 1.564-8.71777 4.022-.09717-.0019-.19141-.0137-.28809-.0137-5.24414 0-9.49414 4.0362-9.49414 9.0127 0 4.9786 4.25 9.01372 9.49414 9.01372 1.13966 0 2.22806-.20118 3.24076-.55176 1.6972.98926 3.6621 1.56445 5.7651 1.56445 3.3066 0 6.2754-1.40527 8.374-3.6416.96.40625 2.0166.63476 3.126.63476 4.4189 0 8-3.58987 8-8.01857 0-4.4258-3.5811-8.0137-8-8.0137z" fill="url(#wolke-hell-2)"/></svg>
