<svg xmlns="http://www.w3.org/2000/svg" viewBox="0 0 40 40"><defs><linearGradient id="wolke-hell" gradientTransform="matrix(27.28 0 0 -16.564 43135.635 -1652.1352)" gradientUnits="userSpaceOnUse" x1="-1580.35792" x2="-1580.35792" y1="-101.43001" y2="-100.42178"><stop offset="0" stop-color="#cbcbcb"/><stop offset=".75" stop-color="#d8d8d8"/><stop offset="1" stop-color="#e1e1e1"/></linearGradient><linearGradient id="wolke-hell-2" gradientUnits="userSpaceOnUse" x1="19" x2="19" y1="39.99121" y2="16.9438"><stop offset="0" stop-color="#cbcbcb"/><stop offset=".4852" stop-color="#d8d8d8"/><stop offset="1" stop-color="#e1e1e1"/></linearGradient><filter id="flash-shadow"><feDropShadow dx="0" dy="0" flood-color="#000" flood-opacity="0.3" stdDeviation="1"/></filter></defs><path d="M19.064,0c.9204,2.022,1.4448,4.2598,1.4448,6.624,0,7.624-5.3379,13.9971-12.49903,15.6651,2.37403,2.3125,5.62113,3.7402,9.20703,3.7402,7.2734,0,13.1699-5.8594,13.1699-13.0864,0-6.6031-4.9277-12.0489-11.3227-12.9429Z" fill="#ffe958" stroke-width="0"/><path d="M31.4297,14.19794c-.6072.00036-1.21058.09606-1.7881.2836-2.81342-3.60751-8.01861-4.25126-11.62612-1.43784-.44335.34575-.85034.73575-1.21468,1.16394-.0708-.0019-.1382-.0097-.2095-.0097-3.69926-.09232-6.77397,2.82963-6.87011,6.5288.09559,3.69978,3.17023,6.62274,6.87011,6.5312.79891-.00181,1.59196-.13645,2.3467-.3984,3.34276,1.95713,7.59623,1.33076,10.2329-1.5069.71428.30623,1.48355.46344,2.2607.462,3.20786-.01084,5.79956-2.6201,5.78873-5.82796-.01079-3.19329-2.59734-5.77899-5.79063-5.78874Z" fill="url(#wolke-hell)" stroke-width="0"/><path d="M30,20.95224c-.83914.00052-1.67294.13335-2.4707.3936-3.89824-4.98641-11.10068-5.86855-16.08709-1.9703-.60524.47316-1.16136,1.00597-1.65998,1.5904-.09717-.0019-.19141-.0137-.28809-.0137-5.10912-.1293-9.35763,3.90377-9.49414,9.0127.13569,5.10946,4.38452,9.1433,9.49414,9.01372,1.10348-.00174,2.19888-.18823,3.24076-.55176,4.61838,2.70177,10.49291,1.83875,14.1391-2.07715,4.07816,1.71905,8.77772-.19338,10.49677-4.27153,1.71905-4.07816-.19338-8.77772-4.27153-10.49677-.98103-.41353-2.03462-.62743-3.09924-.62921Z" fill="url(#wolke-hell-2)" stroke-width="0"/><path d="M19.064,0c.9204,2.022,1.4448,4.2598,1.4448,6.624,0,7.624-5.3379,13.9971-12.49903,15.6651,2.37403,2.3125,5.62113,3.7402,9.20703,3.7402,7.2734,0,13.1699-5.8594,13.1699-13.0864,0-6.6031-4.9277-12.0489-11.3227-12.9429Z" fill="#ffe958" isolation="isolate" opacity=".4" stroke-width="0"/><path d="M23.248,30.06264l-2.5156,1.45508,2.5156,1.45508c.45035.25996.60469.83578.34473,1.28613-.25996.45035-.83578.60469-1.28613.34473l-2.5136-1.45508v2.91015c.00536.51912-.41113.94429-.93025.94965s-.94429-.41113-.94965-.93025c-.00007-.00647-.00007-.01293,0-.01939v-2.91015l-2.5142,1.45508c-.45086.25866-1.02604.10286-1.2847-.348-.25794-.44961-.10379-1.02315.3448-1.28286l2.5141-1.45508-2.5141-1.45508c-.44956-.26093-.60248-.8369-.34155-1.28646.2598-.44761.83225-.60148,1.28145-.34444l2.5142,1.4541v-2.9072c-.00536-.51912.41113-.94429.93025-.94965s.94429.41113.94965.93025c.00007.00646.00007.01293,0,.01939v2.9072l2.5136-1.4541c.45036-.25996,1.02619-.10561,1.28615.34475s.10561,1.02619-.34475,1.28615Z" fill="#93b9ba" stroke-width="0"/><polygon filter="url(#flash-shadow)" points="18.94752 14.32865 13.76832 22.34475 17.52762 22.34475 5.99932 36.70755 10.91532 25.35155 4.54522 25.35155 10.24542 14.32965 18.94752 14.32965 18.94752 14.32865" fill="#fff57a" stroke-width="0"/></svg>
