<svg xmlns="http://www.w3.org/2000/svg" viewBox="0 0 40 40"><defs><linearGradient id="wolke-dunkel" gradientTransform="matrix(27.28 0 0 16.564 23010.72 -848.0467)" gradientUnits="userSpaceOnUse" x1="-842.64111" x2="-842.64111" y1="52.20438" y2="51.19621"><stop offset="0" stop-color="#888"/><stop offset="1" stop-color="#bebebe"/></linearGradient><linearGradient id="wolke-dunkel-2" gradientUnits="userSpaceOnUse" x1="19.5923" y1="39.7422" x2="19.5923" y2="38.7422" gradientTransform="matrix(38 0 0 23.047 -725.5 -887.2656)"><stop offset="0" style="stop-color:#888"/><stop offset="1" style="stop-color:#bebebe"/></linearGradient><filter id="flash-shadow"><feDropShadow dx="0" dy="0" flood-color="#000" flood-opacity="0.3" stdDeviation="1"/></filter></defs><path d="M19.064,0c.9204,2.022,1.4448,4.2598,1.4448,6.624,0,7.624-5.3379,13.9971-12.49903,15.6651,2.37403,2.3125,5.62113,3.7402,9.20703,3.7402,7.2734,0,13.1699-5.8594,13.1699-13.0864,0-6.6031-4.9277-12.0489-11.3227-12.9429Z" fill="#ffe958" stroke-width="0"/><path d="M31.4297,14.19794c-.6072.00036-1.21058.09606-1.7881.2836-2.81399-3.6078-8.01988-4.2513-11.62768-1.43731-.44312.34562-.84992.73543-1.21412,1.16341-.0708-.0019-.1382-.0097-.2095-.0097-3.69926-.09232-6.77396,2.82964-6.87009,6.5288.09559,3.69977,3.17021,6.62274,6.87009,6.5312.79884-.00165,1.59181-.13664,2.3462-.3994,3.34257,1.95711,7.59588,1.33078,10.2324-1.5068.71472.30606,1.48431.46322,2.2618.4619,3.20759-.01081,5.79909-2.61983,5.78828-5.82741-.01075-3.19271-2.59658-5.77808-5.78928-5.78829Z" fill="url(#wolke-dunkel)" stroke-width="0"/><path d="M30,20.95224c-.83914.00052-1.67294.13335-2.4707.3936-3.89824-4.98641-11.10068-5.86855-16.08709-1.9703-.60524.47316-1.16136,1.00597-1.65998,1.5904-.09717-.0019-.19141-.0137-.28809-.0137-5.10912-.1293-9.35763,3.90377-9.49414,9.0127.13569,5.10946,4.38452,9.1433,9.49414,9.01372,1.10348-.00174,2.19888-.18823,3.24076-.55176,4.61838,2.70177,10.49291,1.83875,14.1391-2.07715,4.07816,1.71905,8.77772-.19338,10.49677-4.27153,1.71905-4.07816-.19338-8.77772-4.27153-10.49677-.98103-.41353-2.03462-.62743-3.09924-.62921Z" fill="url(#wolke-dunkel-2)" stroke-width="0"/><path d="M19.064,0c.9204,2.022,1.4448,4.2598,1.4448,6.624,0,7.624-5.3379,13.9971-12.49903,15.6651,2.37403,2.3125,5.62113,3.7402,9.20703,3.7402,7.2734,0,13.1699-5.8594,13.1699-13.0864,0-6.6031-4.9277-12.0489-11.3227-12.9429Z" fill="#ffe958" isolation="isolate" opacity=".4" stroke-width="0"/><path d="M7.55149,33.10995c-1.42179.00752-2.58048-1.13898-2.588-2.56077v-.00023c0-1.416,1.375-3.041,2.588-4.607,1.147,1.615,2.587,3.193,2.587,4.607-.00727,1.42154-1.16546,2.56809-2.587,2.561ZM31.25149,32.20795c-1.44006-.00199-2.60587-1.17094-2.604-2.611,0-1.439,1.385-3.1,2.604-4.696,1.155,1.647,2.604,3.257,2.604,4.696.00258,1.43943-1.16222,2.60842-2.60165,2.611-.00078,0-.00156,0-.00235,0ZM18.91549,37.16895c-1.81545-.00238-3.28548-1.47555-3.284-3.291,0-1.818,1.745-3.908,3.284-5.923,1.456,2.078,3.282,4.104,3.282,5.923.00276,1.8148-1.46619,3.28823-3.28099,3.291h-.00101Z" fill="#9cdeff" stroke-width="0"/><polygon filter="url(#flash-shadow)" points="22.94752 13.32865 17.76832 21.34475 21.52762 21.34475 9.99932 35.70755 14.91532 24.35155 8.54522 24.35155 14.24542 13.32965 22.94752 13.32965 22.94752 13.32865" fill="#fff57a" stroke-width="0"/></svg>
