<svg xmlns="http://www.w3.org/2000/svg" viewBox="0 0 40 40"><defs><linearGradient id="wolke-dunkel" gradientTransform="matrix(27.28 0 0 16.564 23010.72 -848.0467)" gradientUnits="userSpaceOnUse" x1="-842.64111" x2="-842.64111" y1="52.20438" y2="51.19621"><stop offset="0" stop-color="#888"/><stop offset="1" stop-color="#bebebe"/></linearGradient><linearGradient id="wolke-dunkel-2" gradientUnits="userSpaceOnUse" x1="19.5923" y1="39.7422" x2="19.5923" y2="38.7422" gradientTransform="matrix(38 0 0 23.047 -725.5 -887.2656)"><stop offset="0" style="stop-color:#888"/><stop offset="1" style="stop-color:#bebebe"/></linearGradient><filter id="flash-shadow"><feDropShadow dx="0" dy="0" flood-color="#000" flood-opacity="0.3" stdDeviation="1"/></filter></defs><path d="M19.064,0c.9204,2.022,1.4448,4.2598,1.4448,6.624,0,7.624-5.3379,13.9971-12.49903,15.6651,2.37403,2.3125,5.62113,3.7402,9.20703,3.7402,7.2734,0,13.1699-5.8594,13.1699-13.0864,0-6.6031-4.9277-12.0489-11.3227-12.9429Z" fill="#ffe958" stroke-width="0"/><path d="M31.4297,14.19794c-.6072.00036-1.21058.09606-1.7881.2836-2.81399-3.6078-8.01988-4.2513-11.62768-1.43731-.44312.34562-.84992.73543-1.21412,1.16341-.0708-.0019-.1382-.0097-.2095-.0097-3.69926-.09232-6.77396,2.82964-6.87009,6.5288.09559,3.69977,3.17021,6.62274,6.87009,6.5312.79884-.00165,1.59181-.13664,2.3462-.3994,3.34257,1.95711,7.59588,1.33078,10.2324-1.5068.71472.30606,1.48431.46322,2.2618.4619,3.20759-.01081,5.79909-2.61983,5.78828-5.82741-.01075-3.19271-2.59658-5.77808-5.78928-5.78829Z" fill="url(#wolke-dunkel)" stroke-width="0"/><path d="M30,20.95224c-.83914.00052-1.67294.13335-2.4707.3936-3.89824-4.98641-11.10068-5.86855-16.08709-1.9703-.60524.47316-1.16136,1.00597-1.65998,1.5904-.09717-.0019-.19141-.0137-.28809-.0137-5.10912-.1293-9.35763,3.90377-9.49414,9.0127.13569,5.10946,4.38452,9.1433,9.49414,9.01372,1.10348-.00174,2.19888-.18823,3.24076-.55176,4.61838,2.70177,10.49291,1.83875,14.1391-2.07715,4.07816,1.71905,8.77772-.19338,10.49677-4.27153,1.71905-4.07816-.19338-8.77772-4.27153-10.49677-.98103-.41353-2.03462-.62743-3.09924-.62921Z" fill="url(#wolke-dunkel-2" stroke-width="0"/><path d="M19.064,0c.9204,2.022,1.4448,4.2598,1.4448,6.624,0,7.624-5.3379,13.9971-12.49903,15.6651,2.37403,2.3125,5.62113,3.7402,9.20703,3.7402,7.2734,0,13.1699-5.8594,13.1699-13.0864,0-6.6031-4.9277-12.0489-11.3227-12.9429Z" fill="#ffe958" isolation="isolate" opacity=".4" stroke-width="0"/><path d="M33.66083,28.88071l-2.003.429,1.37,1.535c.24644.27483.22454.69713-.049.945-.26781.24545-.68388.22732-.92933-.04049-.00258-.00282-.00513-.00565-.00767-.00851l-1.37-1.537-.634,1.967c-.11201.34925-.48593.54157-.83518.42957-.34925-.11201-.54157-.48594-.42956-.83519.0009-.0028.00181-.00559.00275-.00838l.634-1.966-2.005.429c-.35576.07767-.70713-.14777-.7848-.50353-.00076-.00348-.00149-.00698-.0022-.01047-.07756-.36049.15086-.71586.511-.795l2.006-.428-1.371-1.537c-.24697-.27427-.22504-.69677.049-.944.2702-.24477.68767-.22416.93244.04604.00119.00132.00238.00264.00356.00396l1.372,1.537.634-1.967c.10762-.34701.47618-.54108.8232-.43345.00361.00112.00721.00227.0108.00345.35006.11416.5413.49049.42713.84056-.00037.00115-.00075.0023-.00113.00344l-.633,1.966,2.004-.431c.36238-.07291.71526.16175.78817.52414.07205.3581-.15632.70783-.51317.78586Z" fill="#d3e6eb" stroke-width="0"/><path d="M23.20782,30.11171l-2.516,1.455,2.516,1.455c.45039.25985.60485.83561.345,1.286-.25985.45039-.83561.60485-1.286.345l-2.514-1.455v2.91c-.00049.51915-.42174.9396-.94089.93911-.51846-.00049-.93863-.42066-.93911-.93911v-2.91l-2.514,1.455c-.45039.25957-1.02593.10489-1.2855-.3455-.25957-.45039-.10489-1.02592.3455-1.2855h0l2.514-1.455-2.514-1.455c-.44947-.26117-.60211-.83726-.34094-1.28673.25986-.44721.83189-.60096,1.28094-.34427l2.514,1.454v-2.907c-.00049-.51915.41997-.9404.93911-.94089.51915-.00049.9404.41997.94089.93911v2.90877l2.514-1.454c.45039-.25985,1.02615-.10539,1.286.345.25985.45039.10539,1.02615-.345,1.286Z" fill="#d3e6eb" stroke-width="0"/><path d="M33.66083,28.88071l-2.003.429,1.37,1.535c.24644.27483.22454.69713-.049.945-.26781.24545-.68388.22732-.92933-.04049-.00258-.00282-.00513-.00565-.00767-.00851l-1.37-1.537-.634,1.967c-.11201.34925-.48593.54157-.83518.42957-.34925-.11201-.54157-.48594-.42956-.83519.0009-.0028.00181-.00559.00275-.00838l.634-1.966-2.005.429c-.35576.07767-.70713-.14777-.7848-.50353-.00076-.00348-.00149-.00698-.0022-.01047-.07756-.36049.15086-.71586.511-.795l2.006-.428-1.371-1.537c-.24697-.27427-.22504-.69677.049-.944.2702-.24477.68767-.22416.93244.04604.00119.00132.00238.00264.00356.00396l1.372,1.537.634-1.967c.10762-.34701.47618-.54108.8232-.43345.00361.00112.00721.00227.0108.00345.35006.11416.5413.49049.42713.84056-.00037.00115-.00075.0023-.00113.00344l-.633,1.966,2.004-.431c.36238-.07291.71526.16175.78817.52414.07205.3581-.15632.70783-.51317.78586Z" fill="#d3e6eb" stroke-width="0"/><path d="M23.20782,30.11171l-2.516,1.455,2.516,1.455c.45039.25985.60485.83561.345,1.286-.25985.45039-.83561.60485-1.286.345l-2.514-1.455v2.91c-.00049.51915-.42174.9396-.94089.93911-.51846-.00049-.93863-.42066-.93911-.93911v-2.91l-2.514,1.455c-.45039.25957-1.02593.10489-1.2855-.3455-.25957-.45039-.10489-1.02592.3455-1.2855h0l2.514-1.455-2.514-1.455c-.44947-.26117-.60211-.83726-.34094-1.28673.25986-.44721.83189-.60096,1.28094-.34427l2.514,1.454v-2.907c-.00049-.51915.41997-.9404.93911-.94089.51915-.00049.9404.41997.94089.93911v2.90877l2.514-1.454c.45039-.25985,1.02615-.10539,1.286.345.25985.45039.10539,1.02615-.345,1.286Z" fill="#d3e6eb" stroke-width="0"/><polygon filter="url(#flash-shadow)" points="19.94752 13.32865 14.76832 21.34475 18.52762 21.34475 6.99932 35.70755 11.91532 24.35155 5.54522 24.35155 11.24542 13.32965 19.94752 13.32965 19.94752 13.32865" fill="#fff57a" stroke-width="0"/></svg>
