<svg xmlns="http://www.w3.org/2000/svg" viewBox="0 0 40 40"><defs><linearGradient id="wolke-dunkel" gradientTransform="matrix(27.28 0 0 16.564 23010.72 -848.0467)" gradientUnits="userSpaceOnUse" x1="-842.64111" x2="-842.64111" y1="52.20438" y2="51.19621"><stop offset="0" stop-color="#888"/><stop offset="1" stop-color="#bebebe"/></linearGradient><linearGradient id="wolke-dunkel-2" gradientUnits="userSpaceOnUse" x1="19.5923" y1="39.7422" x2="19.5923" y2="38.7422" gradientTransform="matrix(38 0 0 23.047 -725.5 -887.2656)"><stop offset="0" style="stop-color:#888"/><stop offset="1" style="stop-color:#bebebe"/></linearGradient><filter id="flash-shadow"><feDropShadow dx="0" dy="0" flood-color="#000" flood-opacity="0.3" stdDeviation="1"/></filter></defs><path d="M32.43,9.20662c-.60719.0005-1.21054.09633-1.788.284-2.81369-3.60737-8.01899-4.25076-11.62636-1.43707-.44334.3458-.85032.73583-1.21464,1.16407-.071-.002-.138-.01-.209-.01-3.69937-.09244-6.77414,2.82972-6.87,6.529.09567,3.69967,3.17022,6.62251,6.87,6.531.79899-.00166,1.59213-.13616,2.347-.398,3.34274,1.95745,7.59647,1.33101,10.233-1.507.71435.30635,1.48374.46356,2.261.462,3.20822-.00083,5.80833-2.60228,5.8075-5.8105-.00083-3.20822-2.60228-5.80833-5.8105-5.8075Z" fill="url(#wolke-dunkel)" stroke-width="0"/><path d="M31,15.96062c-.83925.00068-1.67315.13365-2.471.394-3.8981-4.98641-11.10042-5.86866-16.08683-1.97057-.60531.4732-1.1615,1.00607-1.66017,1.59057-.097-.002-.191-.014-.288-.014-5.1092-.12927-9.3577,3.90398-9.494,9.013.13548,5.10954,4.38431,9.14355,9.494,9.014,1.10359-.00161,2.1991-.18819,3.241-.552,4.61858,2.70134,10.49297,1.83799,14.139-2.078,4.07798,1.71918,8.77751-.19301,10.49669-4.271,1.71917-4.07798-.19302-8.77751-4.271-10.49668-.98116-.41363-2.03491-.62757-3.09969-.62932Z" fill="url(#wolke-dunkel-2)" stroke-width="0"/><polygon filter="url(#flash-shadow)" points="23.94752 8.18464 18.76832 16.20074 22.52762 16.20074 10.99932 30.56354 15.91532 19.20754 9.54522 19.20754 15.24542 8.18564 23.94752 8.18564 23.94752 8.18464" fill="#fff57a" stroke-width="0"/></svg>
