<svg xmlns="http://www.w3.org/2000/svg" viewBox="0 0 40 40"><linearGradient id="wolke-dunkel" gradientTransform="matrix(27.28 0 0 16.564 23010.72 -848.0467)" gradientUnits="userSpaceOnUse" x1="-842.64111" x2="-842.64111" y1="52.20438" y2="51.19621"><stop offset="0" stop-color="#888"/><stop offset="1" stop-color="#bebebe"/></linearGradient><linearGradient id="wolke-dunkel-2" gradientUnits="userSpaceOnUse" x1="19.5923" y1="39.7422" x2="19.5923" y2="38.7422" gradientTransform="matrix(38 0 0 23.047 -725.5 -887.2656)"><stop offset="0" style="stop-color:#888"/><stop offset="1" style="stop-color:#bebebe"/></linearGradient><path d="m31.4297 2.9058c-.62602 0-1.2236.1015-1.7881.2837-1.5234-1.939-3.8809-3.1895-6.5332-3.1895-2.5244 0-4.7847 1.1333-6.3086 2.9155-.0708-.0019-.13822-.0097-.20952-.0097-3.79488 0-6.87007 2.9223-6.87007 6.5288 0 3.6074 3.07519 6.5312 6.87007 6.5312.82522 0 1.61332-.1465 2.3462-.3994 1.2276.7168 2.64852 1.1328 4.17192 1.1328 2.3906 0 4.54098-1.0185 6.0605-2.6396.6944.2978 1.4581.4619 2.2618.4619 3.20018 0 5.78998-2.5996 5.78998-5.8067-.00188-3.2109-2.5918-5.809-5.79098-5.809z" fill="url(#wolke-dunkel)"/><path d="m30 9.6602c-.8633 0-1.69142.1406-2.47072.3935-2.10548-2.6777-5.36328-4.4018-9.02928-4.4018-3.4893 0-6.6089 1.5639-8.71777 4.0219-.09717-.0019-.19141-.0136-.28809-.0136-5.24414 0-9.49414 4.0361-9.49414 9.0127 0 4.9785 4.25 9.0136 9.49414 9.0136 1.13964 0 2.22804-.2011 3.24074-.5517 1.6972.9892 3.66212 1.5644 5.76512 1.5644 3.30658 0 6.2754-1.4053 8.374-3.6416.96.4072 2.0166.6348 3.126.6348 4.4189 0 8-3.5899 8-8.0176 0-4.4268-3.5811-8.0146-8-8.0146z" fill="url(#wolke-dunkel-2)"/><path fill="#b5cdd2" d="m23.248 33.06348-2.5156 1.45507 2.5156 1.45508c.44928.25977.60158.83594.34378 1.28614-.25978.45019-.83398.60449-1.2852.34472l-2.51358-1.45508v2.91016c0 .52051-.42192.94043-.94.94043-.52 0-.93992-.4209-.93992-.94043v-2.91016l-2.5142 1.45508c-.44968.2627-1.02488.10547-1.2837-.34472-.25918-.4502-.1064-1.02637.34382-1.28614l2.5141-1.45508-2.5141-1.45507c-.4522-.25782-.605-.83594-.34382-1.28516.25882-.4502.83402-.60449 1.2837-.3457l2.5142 1.4541v-2.90722c-.00198-.5215.41992-.9434.93992-.9424.51808 0 .94.4209.94.9424v2.90722l2.51358-1.4541c.45122-.26075 1.02542-.1045 1.2852.34375.2598.45117.1055 1.02734-.34378 1.28711z"/><path fill="#b5cdd2" d="m10.72408 33.05469-2.00289.42676 1.37109 1.52539c.24612.27343.2231.69336-.0488.93945-.27297.24609-.69241.22461-.93703-.04883l-1.3711-1.52637-.6333 1.95215c-.11279.35059-.48682.54102-.83594.42774-.34765-.11426-.53906-.48828-.42382-.83789l.63279-1.95313-2.00487.42578c-.35888.0791-.70996-.15039-.78808-.50976-.07471-.36133.1543-.71289.51123-.78907l2.00488-.42675-1.37109-1.52637c-.24512-.27149-.22412-.69336.04931-.9375.27198-.24419.69092-.22269.93602.04883l1.3716 1.52539.6333-1.95121c.1128-.3515.48682-.541.83496-.4277.3501.1133.54102.4873.42579.83789l-.63282 1.95313 2.00389-.42676c.35788-.07813.70998.15332.7871.51074.07718.36035-.15092.71289-.51222.78809z"/></svg>
