<svg xmlns="http://www.w3.org/2000/svg" viewBox="0 0 40 40"><linearGradient id="a" gradientTransform="matrix(27.28 0 0 -16.564 562.035 -528.0392)" gradientUnits="userSpaceOnUse" x1="-19.6402" x2="-19.6402" y1="-34.1704" y2="-33.16217"><stop offset="0" stop-color="#cbcbcb"/><stop offset=".4852" stop-color="#d8d8d8"/><stop offset="1" stop-color="#e1e1e1"/></linearGradient><path d="m27.7207 9.8623c-.4375.438-1.1475.438-1.585 0-.4375-.4385-.4384-1.1475 0-1.5859l2.5909-2.5904c.4394-.4384 1.1494-.4384 1.5849 0 .4395.438.4405 1.147 0 1.5855zm-8.7217 15.1885c-4.438 0-8.0498-3.6133-8.0498-8.0508 0-4.4385 3.6118-8.0503 8.0498-8.0503 4.4385 0 8.0498 3.6118 8.0498 8.0503 0 4.4375-3.6113 8.0508-8.0498 8.0508zm-8.7221-15.1885-2.59184-2.5908c-.43848-.4385-.43848-1.1475 0-1.5855.43848-.4384 1.14795-.4384 1.58642 0l2.59132 2.5904c.4375.4384.4375 1.1474 0 1.5859-.438.438-1.1484.438-1.5859 0zm.0009 14.2754c.4375-.4395 1.1485-.4375 1.586 0s.4375 1.1465 0 1.584l-2.59134 2.5928c-.4375.4384-1.14795.4384-1.58545 0-.43847-.4375-.43847-1.1465 0-1.587zm17.4429-.002 2.5908 2.5918c.4405.4385.4405 1.1465 0 1.584-.4365.4385-1.1455.4385-1.5849 0l-2.5909-2.5898c-.4384-.4375-.4375-1.1485 0-1.586.4395-.4375 1.1475-.4375 1.585 0zm-7.8022-18.3496c0 .6187-.3872 1.1206-1.0059 1.1206-.6187-.0009-1.0054-.5019-1.0054-1.1206v-3.6645c0-.6196.3867-1.1216 1.0054-1.1216s1.0059.502 1.0059 1.1216zm-12.13286 12.1333h-3.66455c-.61914 0-1.12109-.3877-1.12109-1.0053 0-.6216.50195-1.0059 1.12109-1.0059h3.66455c.62012 0 1.1211.3843 1.1211 1.0059 0 .6176-.50098 1.0053-1.1211 1.0053zm10.12156 10.2945c0-.6202.3867-1.1231 1.0054-1.1211.6187 0 1.0059.5009 1.0059 1.1211v3.66501c0 .61718-.3872 1.12109-1.0059 1.12109-.6196 0-1.0054-.50391-1.0054-1.12109zm12.3067-12.3057h3.6631c.621 0 1.123.3843 1.123 1.0059 0 .6176-.502 1.0053-1.123 1.0053h-3.6631c-.6201 0-1.1221-.3877-1.1221-1.0053 0-.6216.501-1.0059 1.1221-1.0059z" fill="#ffc600"/><path d="m34.209 24.2051c-.626 0-1.2236.1015-1.7881.2842-1.5234-1.9385-3.8809-3.1895-6.5322-3.1895-2.5244 0-4.7852 1.1338-6.3086 2.915-.0708-.0019-.1382-.0097-.2095-.0097-3.7949 0-6.8701 2.9228-6.8701 6.52927 0 3.60743 3.0752 6.53125 6.8701 6.53125.8247 0 1.6138-.14648 2.3462-.39843 1.2275.71679 2.6484 1.13281 4.1719 1.13281 2.3906 0 4.541-1.01953 6.0615-2.63965.6934.29785 1.457.46192 2.2607.46192 3.2012 0 5.7891-2.59961 5.7891-5.80762-.002-3.21095-2.5918-5.80955-5.791-5.80955z" fill="url(#a)"/><path d="m27.7207 9.8623c-.4375.438-1.1475.438-1.585 0-.4375-.4385-.4384-1.1475 0-1.5859l2.5909-2.5904c.4394-.4384 1.1494-.4384 1.5849 0 .4395.438.4405 1.147 0 1.5855zm-8.7217 15.1885c-4.438 0-8.0498-3.6133-8.0498-8.0508 0-4.4385 3.6118-8.0503 8.0498-8.0503 4.4385 0 8.0498 3.6118 8.0498 8.0503 0 4.4375-3.6113 8.0508-8.0498 8.0508zm-8.7221-15.1885-2.59184-2.5908c-.43848-.4385-.43848-1.1475 0-1.5855.43848-.4384 1.14795-.4384 1.58642 0l2.59132 2.5904c.4375.4384.4375 1.1474 0 1.5859-.438.438-1.1484.438-1.5859 0zm.0009 14.2754c.4375-.4395 1.1485-.4375 1.586 0s.4375 1.1465 0 1.584l-2.59134 2.5928c-.4375.4384-1.14795.4384-1.58545 0-.43847-.4375-.43847-1.1465 0-1.587zm17.4429-.002 2.5908 2.5918c.4405.4385.4405 1.1465 0 1.584-.4365.4385-1.1455.4385-1.5849 0l-2.5909-2.5898c-.4384-.4375-.4375-1.1485 0-1.586.4395-.4375 1.1475-.4375 1.585 0zm-7.8022-18.3496c0 .6187-.3872 1.1206-1.0059 1.1206-.6187-.0009-1.0054-.5019-1.0054-1.1206v-3.6645c0-.6196.3867-1.1216 1.0054-1.1216s1.0059.502 1.0059 1.1216zm-12.13286 12.1333h-3.66455c-.61914 0-1.12109-.3877-1.12109-1.0053 0-.6216.50195-1.0059 1.12109-1.0059h3.66455c.62012 0 1.1211.3843 1.1211 1.0059 0 .6176-.50098 1.0053-1.1211 1.0053zm10.12156 10.2945c0-.6202.3867-1.1231 1.0054-1.1211.6187 0 1.0059.5009 1.0059 1.1211v3.66501c0 .61718-.3872 1.12109-1.0059 1.12109-.6196 0-1.0054-.50391-1.0054-1.12109zm12.3067-12.3057h3.6631c.621 0 1.123.3843 1.123 1.0059 0 .6176-.502 1.0053-1.123 1.0053h-3.6631c-.6201 0-1.1221-.3877-1.1221-1.0053 0-.6216.501-1.0059 1.1221-1.0059z" fill="#ffc600" opacity=".2"/></svg>
