<svg xmlns="http://www.w3.org/2000/svg" viewBox="0 0 40 40"><defs><linearGradient id="wolke-dunkel-hinten" x1="-2853.68248" y1="24.8734" x2="-2866.47262" y2="2.72022" gradientTransform="translate(-2838.918) rotate(-180) scale(1 -1)" gradientUnits="userSpaceOnUse"><stop offset=".63319" stop-color="#888"/><stop offset="1" stop-color="#bebebe"/></linearGradient><linearGradient id="wolke-dunkel" x1="16.5774" y1="29.623" x2="16.57741" y2="0" gradientUnits="userSpaceOnUse"><stop offset="0" stop-color="#888"/><stop offset="1" stop-color="#bebebe"/></linearGradient><filter id="outer-glow" filterUnits="userSpaceOnUse"><feOffset dx="0" dy="0"/><feGaussianBlur result="blur" stdDeviation="4"/><feFlood flood-color="#000" flood-opacity=".2"/><feComposite in2="blur" operator="in"/><feComposite in="SourceGraphic"/></filter><filter id="flash-shadow"><feDropShadow dx="0" dy="0" flood-color="#000" flood-opacity="0.3" stdDeviation="1"/></filter></defs><path d="M11.86281,9.8789c.0097-.0039.0195-.0068.0288-.0107.1138-.0425.2261-.087.3428-.1236.6416-.2217,1.33-.3481,2.0483-.3481.0625,0,.125.0058.1875.0083,1.0889-1.3189,2.5962-2.2486,4.3057-2.584.4428-1.2632,1.5996-2.1694,2.9668-2.1694.3447,0,.6728.0576.9814.1611.835-1.1021,2.1279-1.8125,3.5801-1.8125,1.3838,0,2.6221.644,3.458,1.6562.0371-.0009.0752-.0048.1143-.0048,2.08,0,3.7646,1.6611,3.7646,3.7114,0,1.3433-.7305,2.5093-1.8154,3.1606.04.0547.0703.1172.1084.1734.0283.0405.0517.083.0791.1245.4541.7031.7529,1.5166.8506,2.4004.0175.1445.0273.2905.0351.438.002.06.0156.1167.0156.1772,0,.0195-.0039.0381-.0039.0576,0,.0196.0039.0391.0039.0591,0,3.1831-2.5029,5.7632-5.5888,5.7632-.5889,0-1.1563-.0938-1.6885-.2686-.7861.5791-1.7422.9268-2.7813.9268-1.1093,0-2.1181-.4023-2.9306-1.0527-1.2173,1.9257-3.3174,3.2031-5.7124,3.2031-3.7705,0-6.82668-3.1524-6.82668-7.042,0-3.0361,1.86621-5.6157,4.47658-6.6045Z" fill="url(#wolke-dunkel-hinten)" stroke-width="0"/><path d="M27.60591,16.0161c.3038-.7866.4766-1.6387.4766-2.5327,0-3.0361-1.9238-5.6157-4.6172-6.6045-.0097-.0039-.0195-.0068-.0293-.0107-.1172-.0425-.2344-.087-.3535-.1236-.6621-.2217-1.373-.3481-2.1133-.3481-.0644,0-.1289.0058-.1933.0083-1.1231-1.3189-2.6783-2.2486-4.4419-2.584-.4571-1.2632-1.6504-2.1694-3.0606-2.1694-.3554,0-.6933.0576-1.0117.1611-.8613-1.1021-2.1953-1.8125-3.69335-1.8125-1.42774,0-2.70508.644-3.56641,1.6562-.03906-.0009-.07813-.0048-.11816-.0048-2.14551,0-3.88379,1.6611-3.88379,3.7114,0,1.3433.7539,2.5093,1.87304,3.1606-.04199.0547-.07226.1172-.1123.1734-.02832.0405-.05371.083-.08106.1245-.46875.7031-.77734,1.5166-.87793,2.4004-.01855.1445-.02832.29-.03613.4385-.00195.0595-.01562.1162-.01562.1767,0,.0195.0039.0381.0039.0576,0,.0196-.0039.0391-.0039.0586,0,3.0225,2.32763,5.4966,5.28759,5.7398-1.29834,1.1836-2.11084,2.8491-2.11084,4.6997,0,3.5898,3.04493,6.5019,6.80276,6.5019.8169,0,1.5971-.1445,2.3227-.3984,1.2149.7129,2.6221,1.1269,4.1299,1.1269,2.3682,0,4.4971-1.0136,6.001-2.6269.6875.2969,1.4443.459,2.2393.459,3.1679,0,5.7324-2.5879,5.7324-5.7813,0-2.7851-1.9502-5.1079-4.5489-5.6577Z" fill="url(#wolke-dunkel)" stroke-width="0"/><path d="M30.92531,35.02441c-1.4385,0-2.6045-1.17285-2.6045-2.61816s1.3828-3.10835,2.6045-4.71285c1.1553,1.6533,2.6045,3.26754,2.6045,4.71285s-1.166,2.61816-2.6045,2.61816ZM18.92531,40c-1.813,0-3.2842-1.47852-3.2842-3.30078s1.7451-3.91797,3.2842-5.94043c1.456,2.08398,3.2822,4.11816,3.2822,5.94043,0,1.82324-1.4687,3.30078-3.2822,3.30078Z" fill="#7ac4e9" stroke-width="0"/><path d="M22.20751,22.627c0,1.8242-1.4687,3.3017-3.2822,3.3017-1.813,0-3.2842-1.4775-3.2842-3.3017,0-1.8223,1.7451-3.9195,3.2842-5.9405,1.456,2.084,3.2822,4.1182,3.2822,5.9405Z" fill="#9cdeff" filter="url(#outer-glow)" stroke-width="0"/><path d="M9.53027,35.42187c0,1.44532-1.16602,2.61915-2.60498,2.61915-1.43799,0-2.60498-1.17383-2.60498-2.61915,0-1.44628,1.38476-3.11035,2.60498-4.71289,1.15478,1.65235,2.60498,3.26661,2.60498,4.71289Z" fill="#7ac4e9" stroke-width="0"/><polygon filter="url(#flash-shadow)" points="36.85201 7.9805 32.99071 14.0112 35.79341 14.0112 27.19871 24.6318 30.86381 16.0234 26.11471 16.0234 30.36471 7.9814 36.85201 7.9814 36.85201 7.9805" fill="#fff57a" stroke-width="0"/><polygon filter="url(#flash-shadow)" points="22.84321 0 17.66401 8.0161 21.42331 8.0161 9.89501 22.3789 14.81101 11.0229 8.44091 11.0229 14.14111 .001 22.84321 .001 22.84321 0" fill="#fff57a" stroke-width="0"/></svg>
