<svg xmlns="http://www.w3.org/2000/svg" viewBox="0 0 40 40"><linearGradient id="prefix__a" gradientTransform="matrix(1 0 0 -1 0 54.742)" gradientUnits="userSpaceOnUse" x1="21" x2="21" y1="39.988" y2="34.729"><stop offset="0" stop-color="#cbcbcb"/><stop offset=".175" stop-color="#d8d8d8"/><stop offset="1" stop-color="#ebebeb"/></linearGradient><linearGradient id="prefix__b" gradientTransform="matrix(1 0 0 -1 0 54.742)" gradientUnits="userSpaceOnUse" x1="19" x2="19" y1="44.988" y2="39.729"><stop offset="0" stop-color="#cbcbcb"/><stop offset=".175" stop-color="#d8d8d8"/><stop offset="1" stop-color="#ebebeb"/></linearGradient><linearGradient id="prefix__c" gradientTransform="matrix(1 0 0 -1 0 54.742)" gradientUnits="userSpaceOnUse" x1="17" x2="17" y1="49.988" y2="44.729"><stop offset="0" stop-color="#cbcbcb"/><stop offset=".175" stop-color="#d8d8d8"/><stop offset="1" stop-color="#ebebeb"/></linearGradient><linearGradient id="prefix__d" gradientTransform="matrix(1 0 0 -1 0 54.742)" gradientUnits="userSpaceOnUse" x1="15" x2="15" y1="54.729" y2="49.471"><stop offset="0" stop-color="#cbcbcb"/><stop offset=".175" stop-color="#d8d8d8"/><stop offset="1" stop-color="#ebebeb"/></linearGradient><path d="M27.722 16.862a1.121 1.121 0 01-1.584-1.585l2.589-2.591a1.122 1.122 0 011.586 1.585zM19 32.05c-4.438 0-8.05-3.61-8.05-8.049 0-4.44 3.612-8.051 8.05-8.051 4.437 0 8.05 3.612 8.05 8.051S23.438 32.05 19 32.05zm-8.723-15.188l-2.592-2.591a1.121 1.121 0 111.587-1.585l2.591 2.591a1.121 1.121 0 11-1.586 1.585zm.001 14.277a1.12 1.12 0 111.586 1.585l-2.59 2.591a1.123 1.123 0 01-1.587 0 1.125 1.125 0 010-1.586zm17.446-.004l2.59 2.594a1.121 1.121 0 01-1.585 1.585l-2.591-2.59a1.122 1.122 0 111.586-1.589zm-7.805-18.35c0 .62-.388 1.122-1.005 1.122-.62 0-1.006-.502-1.006-1.121V9.122c0-.62.386-1.122 1.006-1.122.617 0 1.005.502 1.005 1.122zM7.786 24.919H4.122c-.62 0-1.122-.386-1.122-1.005 0-.621.502-1.005 1.122-1.005h3.664c.62 0 1.121.384 1.121 1.005 0 .62-.5 1.005-1.12 1.005zm10.122 10.296c0-.618.386-1.122 1.006-1.12.617 0 1.005.502 1.005 1.12v3.664c0 .618-.388 1.122-1.005 1.122-.621 0-1.006-.504-1.006-1.122zm12.306-12.306h3.666c.619 0 1.12.384 1.12 1.005 0 .62-.501 1.005-1.12 1.005h-3.666c-.618 0-1.12-.386-1.12-1.005 0-.621.5-1.005 1.12-1.005z" fill="#ffc600"/><path d="M32.358 20c-2.36 0-16.43-1.52-26.358-2.627v-1.257C15.473 16.924 28.77 18 32.358 18a3.262 3.262 0 003.258-3.259C36.758 17.622 35.261 20 32.358 20z" fill="url(#prefix__a)"/><path d="M30.358 15c-2.36 0-16.43-1.52-26.358-2.627v-1.257C13.473 11.924 26.77 13 30.358 13a3.262 3.262 0 003.258-3.259C34.758 12.622 33.261 15 30.358 15z" fill="url(#prefix__b)"/><path d="M28.358 10C25.998 10 11.928 8.48 2 7.373V6.116C11.473 6.924 24.77 8 28.358 8a3.262 3.262 0 003.258-3.259C32.758 7.622 31.261 10 28.358 10z" fill="url(#prefix__c)"/><path d="M26.358 5.259c-2.36 0-16.43-1.52-26.358-2.627V1.375c9.473.808 22.77 1.884 26.358 1.884A3.262 3.262 0 0029.616 0c1.142 2.88-.355 5.259-3.258 5.259z" fill="url(#prefix__d)"/><path d="M27.722 16.862a1.12 1.12 0 01-1.585 0 1.123 1.123 0 010-1.585l2.589-2.591a1.122 1.122 0 011.586 1.585zM19 32.05c-4.439 0-8.05-3.61-8.05-8.049 0-4.44 3.611-8.051 8.05-8.051 4.437 0 8.05 3.612 8.05 8.051S23.438 32.05 19 32.05zm-8.723-15.188l-2.592-2.591a1.12 1.12 0 111.587-1.585l2.591 2.591a1.121 1.121 0 11-1.586 1.585zm.001 14.277a1.12 1.12 0 111.586 1.585l-2.591 2.591a1.123 1.123 0 01-1.586-1.586zm17.446-.004l2.588 2.594a1.121 1.121 0 01-1.585 1.585l-2.59-2.59a1.128 1.128 0 010-1.59 1.123 1.123 0 011.587 0zm-7.805-18.35c0 .62-.388 1.122-1.005 1.122-.62 0-1.006-.502-1.006-1.121V9.122c0-.62.386-1.122 1.006-1.122.617 0 1.005.502 1.005 1.122zM7.786 24.919H4.12c-.62 0-1.121-.386-1.121-1.005 0-.621.502-1.005 1.121-1.005h3.665c.62 0 1.12.384 1.12 1.005 0 .62-.5 1.005-1.12 1.005zm10.122 10.296c0-.618.386-1.122 1.006-1.12.617 0 1.005.502 1.005 1.12v3.664c0 .618-.388 1.122-1.005 1.122-.621 0-1.006-.504-1.006-1.122zm12.305-12.306h3.666c.618 0 1.121.384 1.121 1.005 0 .62-.503 1.005-1.121 1.005h-3.666c-.618 0-1.12-.386-1.12-1.005 0-.621.5-1.005 1.12-1.005z" fill="#ffc600" opacity=".2"/></svg>
