<svg xmlns="http://www.w3.org/2000/svg" viewBox="0 0 40 40"><linearGradient id="wolke-dunkel" gradientTransform="matrix(27.28 0 0 16.564 23010.72 -848.0467)" gradientUnits="userSpaceOnUse" x1="-842.64111" x2="-842.64111" y1="52.20438" y2="51.19621"><stop offset="0" stop-color="#888"/><stop offset="1" stop-color="#bebebe"/></linearGradient><linearGradient id="wolke-dunkel-2" gradientUnits="userSpaceOnUse" x1="19.5923" y1="39.7422" x2="19.5923" y2="38.7422" gradientTransform="matrix(38 0 0 23.047 -725.5 -887.2656)"><stop offset="0" style="stop-color:#888"/><stop offset="1" style="stop-color:#bebebe"/></linearGradient><path d="m27.7207 8.8618c-.4375.438-1.1475.438-1.585 0s-.4384-1.1474 0-1.5854l2.5909-2.5909c.4384-.4379 1.1484-.4379 1.5849 0 .4385.438.4395 1.1475 0 1.5855zm-8.7217 15.188c-4.438 0-8.0498-3.6133-8.0498-8.0503 0-4.4385 3.6118-8.0503 8.0498-8.0503 4.4385 0 8.0498 3.6118 8.0498 8.0503 0 4.437-3.6113 8.0503-8.0498 8.0503zm-8.7221-15.188-2.59184-2.5908c-.43848-.438-.43848-1.1475 0-1.5855.43848-.4379 1.14795-.4379 1.58642 0l2.59132 2.5909c.4375.438.4375 1.1474 0 1.5854-.438.438-1.1484.438-1.5859 0zm.0009 14.2749c.4375-.4394 1.1485-.4375 1.586 0s.4375 1.1465 0 1.584l-2.59134 2.5928c-.4375.4385-1.14795.4385-1.58545 0-.43847-.4375-.43847-1.1475 0-1.5869zm17.4429-.0019 2.5908 2.5918c.4405.4384.4405 1.1464 0 1.5839-.4365.4385-1.1455.4385-1.5849 0l-2.5909-2.5898c-.4384-.4375-.4375-1.1484 0-1.5859.4395-.4375 1.1475-.4375 1.585 0zm-7.8022-18.3492c0 .6192-.3872 1.1211-1.0059 1.1211-.6187-.0009-1.0054-.5019-1.0054-1.1211v-3.664c0-.6196.3867-1.1216 1.0054-1.1216s1.0059.502 1.0059 1.1216zm-12.13286 12.1333h-3.66455c-.61914 0-1.12109-.3877-1.12109-1.0053 0-.6216.50195-1.0059 1.12109-1.0059h3.66455c.62012 0 1.1211.3843 1.1211 1.0059 0 .6176-.50098 1.0053-1.1211 1.0053zm22.42826-2.0112h3.6631c.621 0 1.123.3843 1.123 1.0059 0 .6176-.502 1.0053-1.123 1.0053h-3.6631c-.6201 0-1.1221-.3877-1.1221-1.0053 0-.6216.501-1.0059 1.1221-1.0059z" fill="#ffc600"/><path d="m31.4297 14.1978c-.626 0-1.2236.1015-1.7881.2836-1.5234-1.9389-3.8809-3.1894-6.5332-3.1894-2.5244 0-4.7847 1.1333-6.3086 2.9155-.0708-.0019-.1382-.0097-.2095-.0097-3.7949 0-6.87009 2.9223-6.87009 6.5288 0 3.6074 3.07519 6.5312 6.87009 6.5312.8252 0 1.6133-.1465 2.3462-.3994 1.2276.7168 2.6485 1.1328 4.1719 1.1328 2.3906 0 4.541-1.0185 6.0605-2.6396.6944.2978 1.4581.4619 2.2618.4619 3.2002 0 5.79-2.5996 5.79-5.8067-.0019-3.2109-2.5918-5.809-5.791-5.809z" fill="url(#wolke-dunkel)"/><path d="m30 20.9521c-.8633 0-1.6914.1407-2.4707.3936-2.1055-2.6777-5.3633-4.4019-9.0293-4.4019-3.4893 0-6.6089 1.564-8.71777 4.022-.09717-.0019-.19141-.0137-.28809-.0137-5.24414 0-9.49414 4.0362-9.49414 9.0127 0 4.97856 4.25 9.01372 9.49414 9.01372 1.13966 0 2.22806-.20118 3.24076-.55176 1.6972.98926 3.6621 1.56445 5.7651 1.56445 3.3066 0 6.2754-1.40527 8.374-3.6416.96.40723 2.0166.63476 3.126.63476 4.4189 0 8-3.58984 8-8.01757 0-4.4268-3.5811-8.0147-8-8.0147z" fill="url(#wolke-dunkel-2)"/><path d="m27.7207 8.8618c-.4375.438-1.1475.438-1.585 0s-.4384-1.1474 0-1.5854l2.5909-2.5909c.4384-.4379 1.1484-.4379 1.5849 0 .4385.438.4395 1.1475 0 1.5855zm-8.7217 15.188c-4.438 0-8.0498-3.6133-8.0498-8.0503 0-4.4385 3.6118-8.0503 8.0498-8.0503 4.4385 0 8.0498 3.6118 8.0498 8.0503 0 4.437-3.6113 8.0503-8.0498 8.0503zm-8.7221-15.188-2.59184-2.5908c-.43848-.438-.43848-1.1475 0-1.5855.43848-.4379 1.14795-.4379 1.58642 0l2.59132 2.5909c.4375.438.4375 1.1474 0 1.5854-.438.438-1.1484.438-1.5859 0zm.0009 14.2749c.4375-.4394 1.1485-.4375 1.586 0s.4375 1.1465 0 1.584l-2.59134 2.5928c-.4375.4385-1.14795.4385-1.58545 0-.43847-.4375-.43847-1.1475 0-1.5869zm17.4429-.0019 2.5908 2.5918c.4405.4384.4405 1.1464 0 1.5839-.4365.4385-1.1455.4385-1.5849 0l-2.5909-2.5898c-.4384-.4375-.4375-1.1484 0-1.5859.4395-.4375 1.1475-.4375 1.585 0zm-7.8022-18.3492c0 .6192-.3872 1.1211-1.0059 1.1211-.6187-.0009-1.0054-.5019-1.0054-1.1211v-3.664c0-.6196.3867-1.1216 1.0054-1.1216s1.0059.502 1.0059 1.1216zm-12.13286 12.1333h-3.66455c-.61914 0-1.12109-.3877-1.12109-1.0053 0-.6216.50195-1.0059 1.12109-1.0059h3.66455c.62012 0 1.1211.3843 1.1211 1.0059 0 .6176-.50098 1.0053-1.1211 1.0053zm22.42826-2.0112h3.6631c.621 0 1.123.3843 1.123 1.0059 0 .6176-.502 1.0053-1.123 1.0053h-3.6631c-.6201 0-1.1221-.3877-1.1221-1.0053 0-.6216.501-1.0059 1.1221-1.0059z" fill="#ffc600" opacity=".2"/><path d="m7.58398 33.12109c-1.42919 0-2.58789-1.14648-2.58789-2.56054 0-1.41605 1.375-3.04105 2.58789-4.60745 1.14698 1.6153 2.58692 3.1934 2.58692 4.60745s-1.15772 2.56054-2.58692 2.56054zm23.70022-.90234c-1.4385 0-2.6045-1.16895-2.6045-2.61135 0-1.4394 1.3848-3.0996 2.6045-4.6963 1.1553 1.6475 2.6045 3.2569 2.6045 4.6963 0 1.4424-1.166 2.61135-2.6045 2.61135zm-12.336 4.96094c-1.8129 0-3.2841-1.47364-3.2841-3.29102 0-1.81836 1.7451-3.90817 3.2841-5.92287 1.4561 2.07815 3.2823 4.10451 3.2823 5.92287 0 1.81738-1.4688 3.29102-3.2823 3.29102z" fill="#9cdeff"/></svg>
