<svg xmlns="http://www.w3.org/2000/svg" viewBox="0 0 40 40"><defs><linearGradient id="wolke-hell" gradientTransform="matrix(27.28 0 0 -16.564 43135.635 -528.0392)" gradientUnits="userSpaceOnUse" x1="-1580.35792" x2="-1580.35792" y1="-33.56621" y2="-32.55798"><stop offset="0" stop-color="#cbcbcb"/><stop offset=".75" stop-color="#d8d8d8"/><stop offset="1" stop-color="#e1e1e1"/></linearGradient><linearGradient id="wolke-hell-2" gradientUnits="userSpaceOnUse" x1="19" x2="19" y1="39.99121" y2="16.9438"><stop offset="0" stop-color="#cbcbcb"/><stop offset=".4852" stop-color="#d8d8d8"/><stop offset="1" stop-color="#e1e1e1"/></linearGradient><filter id="flash-shadow"><feDropShadow dx="0" dy="0" flood-color="#000" flood-opacity="0.3" stdDeviation="1"/></filter></defs><path d="M27.6387,8.85904c-.43769.43633-1.14622.43524-1.58255-.00245-.43633-.43769-.43523-1.14622.00245-1.58255h0l2.582-2.5898c.43686-.43713,1.14537-.43735,1.5825-.00049.43713.43686.43735,1.14537.00049,1.5825-.00096.00096-.00193.00193-.0029.00289l-2.582,2.5899ZM18.9468,24.04214c-4.44457.01416-8.05908-3.57739-8.07324-8.02196-.01416-4.44457,3.57739-8.05908,8.02196-8.07324,4.44457-.01416,8.05908,3.57739,8.07324,8.02196.00003.00845.00004.01689.00004.02534.00125,4.43514-3.58687,8.03485-8.022,8.0479ZM10.2549,8.85904l-2.58302-2.5899c-.43544-.4388-.43271-1.14752.00609-1.58296.43566-.43232,1.13819-.43318,1.57491-.00194l2.58212,2.5898c.43769.43633.43878,1.14486.00245,1.58255s-1.14486.43878-1.58255.00245ZM10.2559,23.12904c.43741-.4363,1.14569-.43541,1.582.002.43631.43741.43541,1.14569-.002,1.582h0l-2.582,2.5918c-.43866.43587-1.14761.43361-1.58349-.00505-.43524-.43802-.43371-1.14571.00341-1.58185l2.58208-2.5889ZM27.6387,23.12714l2.582,2.5908c.43694.4368.43706,1.14511.00026,1.58205-.43614.43629-1.14315.43716-1.58036.00195l-2.582-2.5889c-.43793-.43633-.43923-1.14507-.0029-1.583s1.14507-.43923,1.583-.0029h0ZM19.8633,4.78434c.06191.5535-.3366,1.05239-.8901,1.1143-.5535.06191-1.05239-.3366-1.1143-.8901-.00833-.0745-.00833-.1497,0-.2242V1.12124c-.06221-.5535.33606-1.05263.88956-1.11484.5535-.06221,1.05263.33606,1.11484.88956.00841.07486.00841.15042,0,.22528v3.6631ZM7.772,16.91324h-3.65188c-.55513.05879-1.05281-.34358-1.11159-.89871-.05879-.55513.34358-1.05281.89871-1.11159.07076-.00749.14212-.00749.21288,0h3.65188c.55513-.05879,1.0528.34358,1.11159.89871.05879.55513-.34358,1.0528-.89871,1.11159-.07076.00749-.14212.00749-.21288,0ZM17.8589,27.20424c-.06221-.5535.33606-1.05263.88956-1.11484.5535-.06221,1.05263.33606,1.11484.88956.00841.07486.00841.15042,0,.22528v3.66309c.06216.5535-.33615,1.05259-.88965,1.11475-.5535.06216-1.05259-.33615-1.11475-.88965-.0084-.0748-.0084-.1503,0-.2251v-3.66309ZM30.123,14.90294h3.6504c.55513-.05998,1.05377.34142,1.11375.89655.05998.55513-.34142,1.05377-.89655,1.11375-.07219.0078-.14502.0078-.21721,0h-3.6504c-.55513.05926-1.05319-.34273-1.11244-.89786-.05926-.55513.34273-1.05319.89786-1.11244.07133-.00761.14326-.00761.21459,0Z" fill="#ffc600" stroke-width="0"/><path d="M31.4297,14.19794c-.6072.00036-1.21058.09606-1.7881.2836-2.81342-3.60751-8.01861-4.25126-11.62612-1.43784-.44335.34575-.85034.73575-1.21468,1.16394-.0708-.0019-.1382-.0097-.2095-.0097-3.69926-.09232-6.77397,2.82963-6.87011,6.5288.09559,3.69978,3.17023,6.62274,6.87011,6.5312.79891-.00181,1.59196-.13645,2.3467-.3984,3.34276,1.95713,7.59623,1.33076,10.2329-1.5069.71428.30623,1.48355.46344,2.2607.462,3.20786-.01084,5.79956-2.6201,5.78873-5.82796-.01079-3.19329-2.59734-5.77899-5.79063-5.78874Z" fill="url(#wolke-hell)" stroke-width="0"/><path d="M30,20.95224c-.83914.00052-1.67294.13335-2.4707.3936-3.89824-4.98641-11.10068-5.86855-16.08709-1.9703-.60524.47316-1.16136,1.00597-1.65998,1.5904-.09717-.0019-.19141-.0137-.28809-.0137-5.10912-.1293-9.35763,3.90377-9.49414,9.0127.13569,5.10946,4.38452,9.1433,9.49414,9.01372,1.10348-.00174,2.19888-.18823,3.24076-.55176,4.61838,2.70177,10.49291,1.83875,14.1391-2.07715,4.07816,1.71905,8.77772-.19338,10.49677-4.27153,1.71905-4.07816-.19338-8.77772-4.27153-10.49677-.98103-.41353-2.03462-.62743-3.09924-.62921Z" fill="url(#wolke-hell-2)" stroke-width="0"/><path d="M27.6387,8.85904c-.43769.43633-1.14622.43524-1.58255-.00245-.43633-.43769-.43523-1.14622.00245-1.58255h0l2.582-2.5898c.43686-.43713,1.14537-.43735,1.5825-.00049.43713.43686.43735,1.14537.00049,1.5825-.00096.00096-.00193.00193-.0029.00289l-2.582,2.5899ZM18.9468,24.04214c-4.44457.01416-8.05908-3.57739-8.07324-8.02196-.01416-4.44457,3.57739-8.05908,8.02196-8.07324,4.44457-.01416,8.05908,3.57739,8.07324,8.02196.00003.00845.00004.01689.00004.02534.00125,4.43514-3.58687,8.03485-8.022,8.0479ZM10.2549,8.85904l-2.58302-2.5899c-.43544-.4388-.43271-1.14752.00609-1.58296.43566-.43232,1.13819-.43318,1.57491-.00194l2.58212,2.5898c.43769.43633.43878,1.14486.00245,1.58255s-1.14486.43878-1.58255.00245ZM10.2559,23.12904c.43741-.4363,1.14569-.43541,1.582.002.43631.43741.43541,1.14569-.002,1.582h0l-2.582,2.5918c-.43866.43587-1.14761.43361-1.58349-.00505-.43524-.43802-.43371-1.14571.00341-1.58185l2.58208-2.5889ZM27.6387,23.12714l2.582,2.5908c.43694.4368.43706,1.14511.00026,1.58205-.43614.43629-1.14315.43716-1.58036.00195l-2.582-2.5889c-.43793-.43633-.43923-1.14507-.0029-1.583s1.14507-.43923,1.583-.0029h0ZM19.8633,4.78434c.06191.5535-.3366,1.05239-.8901,1.1143-.5535.06191-1.05239-.3366-1.1143-.8901-.00833-.0745-.00833-.1497,0-.2242V1.12124c-.06221-.5535.33606-1.05263.88956-1.11484.5535-.06221,1.05263.33606,1.11484.88956.00841.07486.00841.15042,0,.22528v3.6631ZM7.772,16.91324h-3.65188c-.55513.05879-1.05281-.34358-1.11159-.89871-.05879-.55513.34358-1.05281.89871-1.11159.07076-.00749.14212-.00749.21288,0h3.65188c.55513-.05879,1.0528.34358,1.11159.89871.05879.55513-.34358,1.0528-.89871,1.11159-.07076.00749-.14212.00749-.21288,0ZM30.123,14.90294h3.6504c.55513-.05998,1.05377.34142,1.11375.89655.05998.55513-.34142,1.05377-.89655,1.11375-.07219.0078-.14502.0078-.21721,0h-3.6504c-.55513.05926-1.05319-.34273-1.11244-.89786-.05926-.55513.34273-1.05319.89786-1.11244.07133-.00761.14326-.00761.21459,0Z" fill="#ffc600" isolation="isolate" opacity=".2" stroke-width="0"/><path d="M23.248,30.06264l-2.5156,1.45508,2.5156,1.45508c.45035.25996.60469.83578.34473,1.28613-.25996.45035-.83578.60469-1.28613.34473l-2.5136-1.45508v2.91015c.00536.51912-.41113.94429-.93025.94965s-.94429-.41113-.94965-.93025c-.00007-.00647-.00007-.01293,0-.01939v-2.91015l-2.5142,1.45508c-.45086.25866-1.02604.10286-1.2847-.348-.25794-.44961-.10379-1.02315.3448-1.28286l2.5141-1.45508-2.5141-1.45508c-.44956-.26093-.60248-.8369-.34155-1.28646.2598-.44761.83225-.60148,1.28145-.34444l2.5142,1.4541v-2.9072c-.00536-.51912.41113-.94429.93025-.94965s.94429.41113.94965.93025c.00007.00646.00007.01293,0,.01939v2.9072l2.5136-1.4541c.45036-.25996,1.02619-.10561,1.28615.34475s.10561,1.02619-.34475,1.28615Z" fill="#93b9ba" stroke-width="0"/><polygon filter="url(#flash-shadow)" points="18.94752 14.32865 13.76832 22.34475 17.52762 22.34475 5.99932 36.70755 10.91532 25.35155 4.54522 25.35155 10.24542 14.32965 18.94752 14.32965 18.94752 14.32865" fill="#fff57a" stroke-width="0"/></svg>
