<svg xmlns="http://www.w3.org/2000/svg" viewBox="0 0 40 40"><linearGradient id="wolke-dunkel" gradientTransform="matrix(27.28 0 0 16.564 23010.72 -848.0467)" gradientUnits="userSpaceOnUse" x1="-842.64111" x2="-842.64111" y1="52.20438" y2="51.19621"><stop offset="0" stop-color="#888"/><stop offset="1" stop-color="#bebebe"/></linearGradient><linearGradient id="wolke-dunkel-2" gradientUnits="userSpaceOnUse" x1="19.5923" y1="39.7422" x2="19.5923" y2="38.7422" gradientTransform="matrix(38 0 0 23.047 -725.5 -887.2656)"><stop offset="0" style="stop-color:#888"/><stop offset="1" style="stop-color:#bebebe"/></linearGradient><path d="m27.72069 8.8623c-.4375.438-1.14749.438-1.58499 0-.4375-.4385-.43841-1.1475 0-1.5859l2.59089-2.5904c.43941-.4384 1.14941-.4384 1.5849 0 .43951.438.44051 1.147 0 1.5855zm-8.72169 15.1885c-4.438 0-8.0498-3.6133-8.0498-8.0508 0-4.4385 3.6118-8.0503 8.0498-8.0503 4.43849 0 8.04979 3.6118 8.04979 8.0503 0 4.4375-3.6113 8.0508-8.04979 8.0508zm-8.7221-15.1885-2.59184-2.5908c-.43848-.4385-.43848-1.1475 0-1.5855.43848-.4384 1.14795-.4384 1.58642 0l2.59132 2.5904c.4375.4384.4375 1.1474 0 1.5859-.438.438-1.1484.438-1.5859 0zm.0009 14.2754c.4375-.4395 1.1485-.4375 1.586 0s.4375 1.1465 0 1.584l-2.59134 2.5928c-.4375.4384-1.14795.4384-1.58545 0-.43847-.4375-.43847-1.1465 0-1.587zm17.44289-.002 2.5908 2.5918c.44051.4385.44051 1.1465 0 1.584-.43649.4385-1.14549.4385-1.5849 0l-2.59089-2.5898c-.43841-.4375-.4375-1.1485 0-1.586.4395-.4375 1.14749-.4375 1.58499 0zm-7.8022-18.3496c0 .6187-.38719 1.1206-1.0059 1.1206-.61869-.0009-1.0054-.5019-1.0054-1.1206v-3.6645c0-.6196.3867-1.1216 1.0054-1.1216s1.0059.502 1.0059 1.1216zm-12.13285 12.1333h-3.66455c-.61914 0-1.12109-.3877-1.12109-1.0053 0-.6216.50195-1.0059 1.12109-1.0059h3.66455c.62012 0 1.1211.3843 1.1211 1.0059 0 .6176-.50098 1.0053-1.1211 1.0053zm10.12156 10.2945c0-.6202.3867-1.1231 1.0054-1.1211.61871 0 1.0059.5009 1.0059 1.1211v3.66501c0 .61718-.38719 1.12109-1.0059 1.12109-.61959 0-1.0054-.50391-1.0054-1.12109zm12.3067-12.3057h3.6631c.621 0 1.123.3843 1.123 1.0059 0 .6176-.502 1.0053-1.123 1.0053h-3.6631c-.6201 0-1.12211-.3877-1.12211-1.0053 0-.6216.501-1.0059 1.12211-1.0059z" fill="#ffc600"/><path d="m31.4297 14.1978c-.62601 0-1.2236.1015-1.7881.2836-1.5234-1.9389-3.8809-3.1894-6.5322-3.1894-2.5244 0-4.7847 1.1333-6.3086 2.9155-.0708-.0019-.1382-.0097-.2095-.0097-3.7949 0-6.87011 2.9223-6.87011 6.5288 0 3.6074 3.07521 6.5312 6.87011 6.5312.8252 0 1.6138-.1465 2.3467-.3984 1.227.7168 2.64789 1.1328 4.1714 1.1328 2.3906 0 4.54099-1.0195 6.0615-2.6397.6934.2979 1.45699.462 2.26069.462 3.20121 0 5.7891-2.5997 5.7891-5.8077-.00189-3.2109-2.5918-5.809-5.79099-5.809z" fill="url(#wolke-dunkel)"/><path d="m30 20.9521c-.8633 0-1.69141.1407-2.47071.3936-2.1055-2.6777-5.36329-4.4019-9.02929-4.4019-3.4893 0-6.6089 1.564-8.71777 4.022-.09717-.0019-.19141-.0137-.28809-.0137-5.24414 0-9.49414 4.0362-9.49414 9.0127 0 4.97856 4.25 9.01372 9.49414 9.01372 1.13966 0 2.22806-.20118 3.24076-.55176 1.6972.98926 3.6621 1.56445 5.7651 1.56445 3.30659 0 6.27539-1.40527 8.374-3.6416.96.40625 2.0166.63476 3.126.63476 4.4189 0 8-3.58984 8-8.01857 0-4.4258-3.5811-8.0137-8-8.0137z" fill="url(#wolke-dunkel-2)"/><path d="m27.72069 8.8623c-.4375.438-1.14749.438-1.58499 0-.4375-.4385-.43841-1.1475 0-1.5859l2.59089-2.5904c.43941-.4384 1.14941-.4384 1.5849 0 .43951.438.44051 1.147 0 1.5855zm-8.72169 15.1885c-4.438 0-8.0498-3.6133-8.0498-8.0508 0-4.4385 3.6118-8.0503 8.0498-8.0503 4.43849 0 8.04979 3.6118 8.04979 8.0503 0 4.4375-3.6113 8.0508-8.04979 8.0508zm-8.7221-15.1885-2.59184-2.5908c-.43848-.4385-.43848-1.1475 0-1.5855.43848-.4384 1.14795-.4384 1.58642 0l2.59132 2.5904c.4375.4384.4375 1.1474 0 1.5859-.438.438-1.1484.438-1.5859 0zm.0009 14.2754c.4375-.4395 1.1485-.4375 1.586 0s.4375 1.1465 0 1.584l-2.59134 2.5928c-.4375.4384-1.14795.4384-1.58545 0-.43847-.4375-.43847-1.1465 0-1.587zm17.44289-.002 2.5908 2.5918c.44051.4385.44051 1.1465 0 1.584-.43649.4385-1.14549.4385-1.5849 0l-2.59089-2.5898c-.43841-.4375-.4375-1.1485 0-1.586.4395-.4375 1.14749-.4375 1.58499 0zm-7.8022-18.3496c0 .6187-.38719 1.1206-1.0059 1.1206-.61869-.0009-1.0054-.5019-1.0054-1.1206v-3.6645c0-.6196.3867-1.1216 1.0054-1.1216s1.0059.502 1.0059 1.1216zm-12.13285 12.1333h-3.66455c-.61914 0-1.12109-.3877-1.12109-1.0053 0-.6216.50195-1.0059 1.12109-1.0059h3.66455c.62012 0 1.1211.3843 1.1211 1.0059 0 .6176-.50098 1.0053-1.1211 1.0053zm10.12156 10.2945c0-.6202.3867-1.1231 1.0054-1.1211.61871 0 1.0059.5009 1.0059 1.1211v3.66501c0 .61718-.38719 1.12109-1.0059 1.12109-.61959 0-1.0054-.50391-1.0054-1.12109zm12.3067-12.3057h3.6631c.621 0 1.123.3843 1.123 1.0059 0 .6176-.502 1.0053-1.123 1.0053h-3.6631c-.6201 0-1.12211-.3877-1.12211-1.0053 0-.6216.501-1.0059 1.12211-1.0059z" fill="#ffc600" opacity=".2"/></svg>
