<svg xmlns="http://www.w3.org/2000/svg" viewBox="0 0 40 40"><linearGradient id="wolke-dunkel" gradientTransform="matrix(27.28 0 0 16.564 23010.72 -848.0467)" gradientUnits="userSpaceOnUse" x1="-842.64111" x2="-842.64111" y1="52.20438" y2="51.19621"><stop offset="0" stop-color="#888"/><stop offset="1" stop-color="#bebebe"/></linearGradient><linearGradient id="wolke-dunkel-2" gradientUnits="userSpaceOnUse" x1="19.5923" y1="39.7422" x2="19.5923" y2="38.7422" gradientTransform="matrix(38 0 0 23.047 -725.5 -887.2656)"><stop offset="0" style="stop-color:#888"/><stop offset="1" style="stop-color:#bebebe"/></linearGradient><path d="m27.72069 8.8618c-.4375.438-1.14749.438-1.58499 0s-.43841-1.1474 0-1.5854l2.59089-2.5909c.43841-.4379 1.14841-.4379 1.5849 0 .43851.438.43951 1.1475 0 1.5855zm-8.7212 15.188c-4.43849 0-8.05029-3.6133-8.05029-8.0503 0-4.4385 3.6118-8.0503 8.05029-8.0503 4.438 0 8.04931 3.6118 8.04931 8.0503 0 4.437-3.61131 8.0503-8.04931 8.0503zm-8.72259-15.188-2.59184-2.5908c-.43848-.438-.43848-1.1475 0-1.5855.43848-.4379 1.14795-.4379 1.58642 0l2.59132 2.5909c.4375.438.4375 1.1474 0 1.5854-.438.438-1.1484.438-1.5859 0zm.00089 14.2749c.4375-.4394 1.14851-.4375 1.58601 0s.4375 1.1465 0 1.584l-2.59134 2.5928c-.4375.4385-1.14795.4385-1.58545 0-.43847-.4375-.43847-1.1475 0-1.5869zm17.4429-.0019 2.5908 2.5918c.44051.4384.44051 1.1464 0 1.5839-.43649.4385-1.14549.4385-1.5849 0l-2.59089-2.5898c-.43841-.4375-.4375-1.1484 0-1.5859.4395-.4375 1.14749-.4375 1.58499 0zm-7.8022-18.3492c0 .6192-.3877 1.1211-1.0054 1.1211-.61919-.0009-1.0059-.5019-1.0059-1.1211v-3.664c0-.6196.38671-1.1216 1.0059-1.1216.6177 0 1.0054.502 1.0054 1.1216zm-12.13285 12.1333h-3.66455c-.61914 0-1.12109-.3877-1.12109-1.0053 0-.6216.50195-1.0059 1.12109-1.0059h3.66455c.62012 0 1.1211.3843 1.1211 1.0059 0 .6176-.50098 1.0053-1.1211 1.0053zm22.42826-2.0112h3.6631c.621 0 1.123.3843 1.123 1.0059 0 .6176-.502 1.0053-1.123 1.0053h-3.6631c-.6201 0-1.12211-.3877-1.12211-1.0053 0-.6216.501-1.0059 1.12211-1.0059z" fill="#ffc600"/><path d="m31.4297 14.1978c-.62601 0-1.2236.1015-1.7881.2836-1.5234-1.9389-3.8809-3.1894-6.5332-3.1894-2.5244 0-4.7847 1.1333-6.3086 2.9155-.0708-.0019-.1382-.0097-.20951-.0097-3.79489 0-6.87008 2.9223-6.87008 6.5288 0 3.6074 3.07519 6.5312 6.87008 6.5312.82521 0 1.61331-.1465 2.34671-.3994 1.22709.7168 2.648 1.1328 4.1714 1.1328 2.3906 0 4.54099-1.0185 6.0605-2.6396.6944.2978 1.4581.4619 2.2618.4619 3.20019 0 5.78999-2.5996 5.78999-5.8067-.00189-3.2109-2.5918-5.809-5.79099-5.809z" fill="url(#wolke-dunkel)"/><path d="m30 20.9521c-.8633 0-1.69141.1407-2.47071.3936-2.10549-2.6777-5.36329-4.4019-9.02929-4.4019-3.4893 0-6.6089 1.564-8.71777 4.022-.09717-.0019-.19141-.0137-.28809-.0137-5.24414 0-9.49414 4.0362-9.49414 9.0127 0 4.97856 4.25 9.01372 9.49414 9.01372 1.13965 0 2.22805-.20118 3.24075-.55176 1.6972.98926 3.66211 1.56445 5.76511 1.56445 3.30659 0 6.27539-1.40527 8.374-3.6416.96.40723 2.0166.63476 3.126.63476 4.4189 0 8-3.58984 8-8.01757 0-4.4268-3.5811-8.0147-8-8.0147z" fill="url(#wolke-dunkel-2)"/><path d="m27.72069 8.8618c-.4375.438-1.14749.438-1.58499 0s-.43841-1.1474 0-1.5854l2.59089-2.5909c.43841-.4379 1.14841-.4379 1.5849 0 .43851.438.43951 1.1475 0 1.5855zm-8.7212 15.188c-4.43849 0-8.05029-3.6133-8.05029-8.0503 0-4.4385 3.6118-8.0503 8.05029-8.0503 4.438 0 8.04931 3.6118 8.04931 8.0503 0 4.437-3.61131 8.0503-8.04931 8.0503zm-8.72259-15.188-2.59184-2.5908c-.43848-.438-.43848-1.1475 0-1.5855.43848-.4379 1.14795-.4379 1.58642 0l2.59132 2.5909c.4375.438.4375 1.1474 0 1.5854-.438.438-1.1484.438-1.5859 0zm.00089 14.2749c.4375-.4394 1.14851-.4375 1.58601 0s.4375 1.1465 0 1.584l-2.59134 2.5928c-.4375.4385-1.14795.4385-1.58545 0-.43847-.4375-.43847-1.1475 0-1.5869zm17.4429-.0019 2.5908 2.5918c.44051.4384.44051 1.1464 0 1.5839-.43649.4385-1.14549.4385-1.5849 0l-2.59089-2.5898c-.43841-.4375-.4375-1.1484 0-1.5859.4395-.4375 1.14749-.4375 1.58499 0zm-7.8022-18.3492c0 .6192-.3877 1.1211-1.0054 1.1211-.61919-.0009-1.0059-.5019-1.0059-1.1211v-3.664c0-.6196.38671-1.1216 1.0059-1.1216.6177 0 1.0054.502 1.0054 1.1216zm-12.13285 12.1333h-3.66455c-.61914 0-1.12109-.3877-1.12109-1.0053 0-.6216.50195-1.0059 1.12109-1.0059h3.66455c.62012 0 1.1211.3843 1.1211 1.0059 0 .6176-.50098 1.0053-1.1211 1.0053zm22.42826-2.0112h3.6631c.621 0 1.123.3843 1.123 1.0059 0 .6176-.502 1.0053-1.123 1.0053h-3.6631c-.6201 0-1.12211-.3877-1.12211-1.0053 0-.6216.501-1.0059 1.12211-1.0059z" fill="#ffc600" opacity=".2"/><path d="m31.28419 32.21875c-1.4385 0-2.60449-1.16895-2.60449-2.61135 0-1.4394 1.38479-3.0996 2.60449-4.6963 1.1553 1.6475 2.6045 3.2569 2.6045 4.6963 0 1.4424-1.166 2.61135-2.6045 2.61135z" fill="#9cdeff"/><path d="m23.248 30.0625-2.5156 1.45508 2.5156 1.45508c.44929.25976.60159.83593.34379 1.28613-.25979.45019-.83399.60449-1.2852.34473l-2.51359-1.45508v2.91015c0 .52051-.42191.94043-.94.94043-.52 0-.93991-.4209-.93991-.94043v-2.91015l-2.5142 1.45508c-.44969.26269-1.02489.10546-1.2837-.34473-.25919-.4502-.1064-1.02637.34381-1.28613l2.5141-1.45508-2.5141-1.45508c-.4522-.2578-.605-.8359-.34381-1.2852.25881-.4502.83401-.6044 1.2837-.3457l2.5142 1.4541v-2.9072c-.00199-.5215.41991-.9433.93991-.9424.51809 0 .94.4209.94.9424v2.9072l2.51359-1.4541c.45121-.2607 1.02541-.1045 1.2852.3438.2598.4512.1055 1.0273-.34379 1.2871z" fill="#d3e6eb"/></svg>
