<svg xmlns="http://www.w3.org/2000/svg" xmlns:xlink="http://www.w3.org/1999/xlink" viewBox="0 0 512 512"><defs><symbol id="e" viewBox="0 0 214.3 140.1"><path fill="none" stroke="#000" stroke-linejoin="round" stroke-width="15" d="M7.5 100.2a32.4 32.4 0 0 0 32.4 32.4h129.8v-.1l2.3.1a34.8 34.8 0 0 0 6.5-68.9A32.4 32.4 0 0 0 130 30.6a48.6 48.6 0 0 0-88.6 37.2h-1.5a32.4 32.4 0 0 0-32.4 32.4Z"/></symbol><symbol id="a" viewBox="0 0 359 231"><path fill="none" stroke="#000" stroke-linecap="round" stroke-linejoin="round" stroke-width="15" d="M295.5 223.5a56 56 0 1 0 0-112l-2.5.1a84 84 0 0 0-153-64.2 56 56 0 0 0-83.8 57.2 60 60 0 0 0 11.2 118.9"/></symbol><symbol id="f" viewBox="0 0 437 362.5"><use xlink:href="#a" width="359" height="231" transform="translate(0 131.5)"/><g clip-path="url(#c)"><use xlink:href="#e" width="214.3" height="140.1" transform="translate(195.51 156.01)"/></g></symbol><symbol id="i" viewBox="0 0 502.4 362.5"><use xlink:href="#f" width="437" height="362.5" transform="translate(65.34)"/><g clip-path="url(#g)"><use xlink:href="#h" width="199" height="199" transform="translate(37.5 78.5)"/></g></symbol><symbol id="j" viewBox="0 0 128 109"><path d="M8 56a8 8 0 0 1-8-8V8a8 8 0 1 1 16 0v40a8 8 0 0 1-8 8m56 53a8 8 0 0 1-8-8V61a8 8 0 1 1 16 0v40a8 8 0 0 1-8 8m56-35a8 8 0 0 1-8-8V26a8 8 0 1 1 16 0v40a8 8 0 0 1-8 8"/></symbol><symbol id="h" viewBox="0 0 199 199"><g fill="none" stroke="#000" stroke-miterlimit="10" stroke-width="15"><circle cx="99.5" cy="99.5" r="40"/><path stroke-linecap="round" d="M99.5 32.9V7.5m0 184v-25.4m47.1-113.7 18-18M34.4 164.6l18-18m0-94.2-18-18m130.2 130.2-18-18M7.5 99.5h25.4m158.6 0h-25.4"/></g></symbol><clipPath id="c"><path fill="none" d="M369.5 299c0-34.6-24-63.8-56-71.8V223c0-56.2-45.8-102-102-102V0H437v299z"/></clipPath><clipPath id="g"><path fill="none" d="M0 0v286h54.5a81.1 81.1 0 0 1 47.7-65 77.1 77.1 0 0 1 98.5-67.9 103.9 103.9 0 0 1 69.3-34.7V0z"/></clipPath></defs><use xlink:href="#i" width="502.4" height="362.5" transform="translate(-1 9)"/><use xlink:href="#j" width="128" height="109" transform="translate(192 344)"/></svg>
