<svg xmlns="http://www.w3.org/2000/svg" viewBox="0 0 512 512"><defs><clipPath id="a"><path fill="none" d="M119 428.7h271V305.3h-53.1L325 312l-14-9 2-14 12-7h65V81.6H119V282h68l13 8v15l-13 7-15.2-9H119z"/></clipPath></defs><circle cx="325" cy="297" r="15" fill="none" stroke="#000" stroke-miterlimit="10" stroke-width="6"/><circle cx="187" cy="297" r="15" fill="none" stroke="#000" stroke-miterlimit="10" stroke-width="6"/><g clip-path="url(#a)"><circle cx="256" cy="330" r="84" fill="none" stroke="#000" stroke-miterlimit="10" stroke-width="9"/><circle cx="256" cy="202" r="60" fill="none" stroke="#000" stroke-miterlimit="10" stroke-width="9"/><path d="M259 231a3 3 0 1 1-6 0 3 3 0 0 1 6 0m-12-5a3 3 0 1 0 0 6 3 3 0 0 0 0-6m-8-6a3 3 0 1 0 0 6 3 3 0 0 0 0-6m26 6a3 3 0 1 0 0 6 3 3 0 0 0 0-6m8-6a3 3 0 1 0 0 6 3 3 0 0 0 0-6m7-34a8 8 0 1 1-16 0 8 8 0 0 1 16 0m-40-8a8 8 0 1 0 0 16 8 8 0 0 0 0-16m40 88h-65.2a7 7 0 0 1-6.8-7.1V249a7 7 0 0 1 7.3-7h81.4a7 7 0 0 1 7.3 7v9.8a7 7 0 0 1-6.8 7.1H280Zm17-121.7-2.7-10.2a6.7 6.7 0 0 0-8.3-4.7l-24.1 6.5c-.2 0-.3 0-.4-.2l-9.2-34.5a4 4 0 0 0-5-2.8l-38.5 10.3a4 4 0 0 0-2.9 5l9.3 34.4c0 .1 0 .3-.2.3l-24.2 6.5a6.7 6.7 0 0 0-4.7 8.2l2.7 10.2c1 3.6 4.7 5.7 8.3 4.8l95.2-25.5c3.5-1 5.7-4.6 4.7-8.2Zm-80.3 1.6-1-3.9 42.4-11.3 1 3.8z"/><circle cx="256" cy="205.2" r="8"/><path d="M264 324a8 8 0 1 1-16 0 8 8 0 0 1 16 0m-8 16a8 8 0 1 0 0 16 8 8 0 0 0 0-16m0-48a8 8 0 1 0 0 16 8 8 0 0 0 0-16"/></g></svg>
