<svg xmlns="http://www.w3.org/2000/svg" shape-rendering="crispEdges" viewBox="0 0 48 48" width="48" height="48"><g style="display:inline"><path d="M-24 5.066A18.913 18.933 0 0 1-5.088 24 18.913 18.933 0 0 1-24 42.934 18.913 18.933 0 0 1-42.912 24 18.913 18.933 0 0 1-24 5.066M-24 12a12 12 0 0 0-12 12 12 12 0 0 0 12 12 12 12 0 0 0 12-12 12 12 0 0 0-12-12" style="color:#000;clip-rule:nonzero;display:inline;overflow:visible;visibility:visible;opacity:.9;isolation:auto;mix-blend-mode:normal;color-interpolation:sRGB;color-interpolation-filters:linearRGB;solid-color:#000;solid-opacity:1;fill:#000;fill-opacity:1;fill-rule:nonzero;stroke:#000;stroke-width:2.13333;stroke-linecap:round;stroke-linejoin:round;stroke-miterlimit:4;stroke-dasharray:none;stroke-dashoffset:0;stroke-opacity:1;color-rendering:auto;image-rendering:auto;shape-rendering:auto;text-rendering:auto" transform="scale(-1 1)"/></g></svg>
