<svg xmlns="http://www.w3.org/2000/svg" shape-rendering="crispEdges" viewBox="0 0 48 48" width="48" height="48"><g style="display:inline"><path d="M20.763 33.014q-1.729 0-2.89-1.4-1.163-1.431-.835-3.16.774-4.023 4.082-6.377 3.308-2.325 3.338-5.663 0-3.099-4.35-3.308-2.504-.119-4.084 1.58t-3.337.715q-1.073-.656-1.61-2.205-.536-1.55.209-3.01.775-1.43 2.056-1.758 4.143-1.073 8.285-1.073 5.543 0 8.434 2.503t2.86 5.811q0 3.308-1.4 5.871t-3.606 3.576q-2.95 1.401-3.308 4.53-.149 1.4-1.251 2.384-1.073.984-2.504.984z" style="font-size:61.0334px;font-family:Dyuthi;-inkscape-font-specification:&quot;Dyuthi, Normal&quot;;stroke-width:8.14725;stroke-linecap:round;stroke-linejoin:round" transform="matrix(1.10364 0 0 .9061 -.156 -.45)"/><path d="M18.126 37.7q.026-1.972 1.303-3.24 1.277-1.27 3.309-1.27t3.283 1.27 1.303 3.24-1.199 3.267q-1.329 1.269-3.44 1.269-2.084 0-3.334-1.27-1.225-1.295-1.225-3.267" style="font-size:61.0334px;font-family:Dyuthi;-inkscape-font-specification:&quot;Dyuthi, Normal&quot;;stroke-width:7.25165;stroke-linecap:round;stroke-linejoin:round" transform="translate(-.156 -.45)"/></g></svg>
