<svg xmlns="http://www.w3.org/2000/svg" xml:space="preserve" viewBox="0 0 512 512" width="48" height="48"><path d="M407.092.391H104.908C59.752 3.213 21.849 32.786 6.871 73.455h498.258C490.151 32.786 452.248 3.213 407.092.391" style="fill:#73af00"/><path d="M511.999 112.074c-.01-13.574-2.436-26.582-6.87-38.619H6.871C2.428 85.518 0 98.556 0 112.161v34.358h511.999z" style="fill:#f5f5f5"/><path d="M0 146.52h512v73.06H0z" style="fill:#73af00"/><path d="M0 219.58h512v73.06H0z" style="fill:#f5f5f5"/><path d="M0 292.65h512v73.06H0z" style="fill:#73af00"/><path d="M0 365.711v34.45c0 13.57 2.415 26.577 6.836 38.614h498.328c4.412-12.012 6.824-24.988 6.835-38.527v-34.537z" style="fill:#f5f5f5"/><path d="M103.459 511.839h305.083c44.552-3.36 81.828-32.783 96.623-73.064H6.836c14.795 40.281 52.071 69.704 96.623 73.064" style="fill:#73af00"/><path d="M342.667.161H112c-61.856 0-112 50.144-112 112v107.015h342.667z" style="fill:#ff4b55"/><path d="M184.473 201.885h-21.684a4.715 4.715 0 0 1-4.421-3.077l-6.981-18.848a58.8 58.8 0 0 1-3.599-23.027l2.43-54.439a3.42 3.42 0 0 1 2.249-3.063c2.231-.811 4.59.841 4.59 3.215v24.791a1.256 1.256 0 0 0 2.509.062l1.949-39.529a3.355 3.355 0 0 1 6.703.043l1.345 36.853a1.262 1.262 0 0 0 2.522-.021l.808-40.951c.044-2.236 2.243-3.789 4.365-3.081a3.32 3.32 0 0 1 2.264 2.987l1.998 41.392a1.276 1.276 0 0 0 2.548-.022l1.002-32.071c.076-2.422 2.613-3.969 4.801-2.927a3.36 3.36 0 0 1 1.909 2.833l2.333 39.363 6.245 18.216c.351 1.023 1.788 1.042 2.16.027 1.769-4.828 5.783-13.843 12.225-17.814 1.141-.703 2.604-.612 3.676.192 1.577 1.183 1.762 3.464.413 4.901-3.14 3.342-7.717 10.366-7.386 22.717.042 1.572-.413 3.117-1.342 4.386l-17.595 24.038a17.8 17.8 0 0 0-3.286 8.174l-.079.59a4.71 4.71 0 0 1-4.671 4.09M173.688 18.578l3.533 10.594 11.167.087c.865.007 1.224 1.111.528 1.625l-8.984 6.634 3.368 10.648c.261.825-.678 1.507-1.382 1.004l-9.085-6.494-9.085 6.494c-.704.503-1.643-.179-1.382-1.004l3.368-10.648-8.984-6.634c-.696-.514-.337-1.618.528-1.625l11.167-.087 3.533-10.594c.275-.821 1.436-.821 1.71 0m-52.532 15.243 3.533 10.594 11.167.087c.865.007 1.224 1.111.528 1.625l-8.984 6.634 3.369 10.647c.261.825-.678 1.507-1.382 1.004l-9.085-6.494-9.086 6.494c-.704.503-1.643-.179-1.382-1.004l3.369-10.647-8.984-6.634c-.696-.514-.337-1.618.528-1.625l11.167-.087 3.533-10.594c.275-.821 1.435-.821 1.709 0m106.343 0 3.533 10.594 11.167.087c.865.007 1.224 1.111.528 1.625l-8.984 6.634 3.368 10.647c.261.825-.678 1.507-1.382 1.004l-9.085-6.494-9.085 6.494c-.704.503-1.643-.179-1.382-1.004l3.369-10.647-8.984-6.634c-.696-.514-.337-1.618.528-1.625l11.167-.087 3.533-10.594c.274-.821 1.435-.821 1.709 0M262.73 73.88l3.533 10.594 11.167.087c.865.007 1.224 1.111.528 1.625l-8.984 6.634 3.368 10.647c.261.825-.678 1.507-1.382 1.004l-9.085-6.494-9.085 6.494c-.704.503-1.643-.179-1.382-1.004l3.369-10.647-8.984-6.634c-.696-.514-.337-1.618.528-1.625l11.167-.087 3.533-10.594c.274-.821 1.435-.821 1.709 0m-179.736 0 3.533 10.594 11.167.087c.865.007 1.224 1.111.528 1.625l-8.984 6.634 3.369 10.647c.261.825-.678 1.507-1.382 1.004l-9.085-6.494-9.086 6.494c-.704.503-1.643-.179-1.382-1.004l3.369-10.647-8.984-6.634c-.696-.514-.337-1.618.528-1.625l11.167-.087 3.533-10.594c.274-.821 1.435-.821 1.709 0m189.868 52.544 3.533 10.594 11.167.087c.865.007 1.224 1.111.528 1.625l-8.984 6.634 3.369 10.647c.261.825-.678 1.507-1.382 1.004l-9.085-6.494-9.086 6.494c-.704.503-1.643-.179-1.382-1.004l3.369-10.647-8.984-6.634c-.696-.514-.337-1.618.528-1.625l11.167-.087 3.533-10.594c.274-.821 1.435-.821 1.709 0m-203.558 0 3.533 10.594 11.167.087c.865.007 1.224 1.111.528 1.625l-8.984 6.634 3.369 10.647c.261.825-.678 1.507-1.382 1.004l-9.085-6.494-9.085 6.494c-.704.503-1.643-.179-1.382-1.004l3.369-10.647-8.984-6.634c-.696-.514-.337-1.618.528-1.625l11.167-.087 3.533-10.594c.273-.821 1.434-.821 1.708 0" style="fill:#f5f5f5"/></svg>
