<svg xmlns="http://www.w3.org/2000/svg" xml:space="preserve" viewBox="0 0 512 512" width="48" height="48"><path d="M112 0C50.151 0 .011 50.134 0 111.981v288.038C.011 461.866 50.151 512 112 512h58.667V0z" style="fill:#464655"/><path d="M170.67 0h170.67v512H170.67z" style="fill:#ff4b55"/><path d="M512 400V112C512 50.144 461.856 0 400 0h-58.666v512H400c61.856 0 112-50.144 112-112" style="fill:#73af00"/><path d="M279.038 273.307h-46.075l2.559-5.12h40.956zm0-40.956h-46.075l2.559 5.12h40.956z" style="fill:#f5f5f5"/><path d="M268.799 234.911h-25.597l5.119-5.12h15.359zM235.52 260.51h7.679v5.12h-7.679zm0-7.68h7.679v5.12h-7.679zm0-12.8h7.679v5.12h-7.679zm0 7.68h7.679v2.56h-7.679zm33.28 12.8h7.679v5.12H268.8zm0-7.68h7.679v5.12H268.8zm0-12.8h7.679v5.12H268.8zm0 7.68h7.679v2.56H268.8zm-30.72-28.16h5.12v10.239h-5.12zm5.122-2.557h-5.119v-2.8a2.32 2.32 0 0 1 2.32-2.32h.48a2.32 2.32 0 0 1 2.32 2.32zm25.598 2.557h5.119v10.239H268.8zm5.118-2.557h-5.119v-2.8a2.32 2.32 0 0 1 2.32-2.32h.48a2.32 2.32 0 0 1 2.32 2.32zM256.96 240.03h-1.92a9.28 9.28 0 0 0-9.279 9.279v16.318h20.478v-16.318a9.28 9.28 0 0 0-9.279-9.279" style="fill:#f5f5f5"/><path d="m239.053 256.156-13.937-16.26c.091-.262.167-.533.167-.826a2.56 2.56 0 1 0-2.56 2.56c.154 0 .288-.061.434-.087l1.442 1.682-6.996 16.323 7.679 7.679 6.63-15.47 5.197 6.064zm-12.452 5.348-6.127-6.127 2.764-6.451 6.127 6.128zm48.353-3.683 5.197-6.064 6.63 15.47 7.679-7.679-6.996-16.323 1.442-1.682c.147.026.28.087.434.087a2.56 2.56 0 1 0-2.56-2.56c0 .293.076.564.167.826l-13.936 16.26zm7.745-2.768 6.127-6.128 2.764 6.451-6.127 6.127zm-23.801-40.174c-.805-.237-1.521-.676-1.976-1.381a17 17 0 0 1-.921-1.625 17 17 0 0 1-.921 1.625c-.455.705-1.171 1.144-1.976 1.381-4.241 1.249-7.342 5.148-7.342 9.793 0 .889.149 1.737.362 2.56h19.754c.213-.823.362-1.671.362-2.56-.001-4.645-3.102-8.544-7.342-9.793m-61.558 37.649a59 59 0 0 1-.214-4.819c0-3.288.298-6.523.826-9.695a47 47 0 0 1 2.314 1.704 56.5 56.5 0 0 0-.581 7.992c0 1.893.097 3.763.28 5.608l5.411 1.626c-.338-2.37-.572-4.772-.572-7.234 0-1.223.073-2.434.17-3.638 2.826 3.134 5.056 6.92 5.056 11.104 0 .107 8.212-12.159-6.719-25.704l-.107 5.759-8.6-.091a1.6 1.6 0 0 0-1.592 1.305 64.3 64.3 0 0 0-1.006 11.264q0 1.63.082 3.241z" style="fill:#f5f5f5"/><path d="M220.053 201.099a2.559 2.559 0 1 0-3.13-4.05c-11.585 8.947-19.535 21.239-22.979 35.008l5.276.068c3.322-12.186 10.506-23.05 20.833-31.026" style="fill:#f5f5f5"/><path d="M216.623 207.484c-5.567 5.452-9.781 11.869-12.648 18.839a28.7 28.7 0 0 1 3.957 3.922c2.58-7.107 6.689-13.632 12.274-19.101a2.56 2.56 0 0 0 .038-3.62 2.56 2.56 0 0 0-3.621-.04m-8.896 73.786a59 59 0 0 1-8.497-18.117l2.976 1.093a56.5 56.5 0 0 0 8.293 16.516l5.649-1.034a51.6 51.6 0 0 1-7.728-13.199l3.34 1.227a48.8 48.8 0 0 0 7.255 11.447l5.88-1.077c-2.312-2.361-4.334-5.017-6.076-7.883l-3.406-6.811a8.53 8.53 0 0 0-5.178-4.356l-8.059-2.422-1.863-.56-2.682-.806-5.335-1.603-2.848-.856 1.763 5.288a5.2 5.2 0 0 0 2.188 2.766 63.7 63.7 0 0 0 8.8 21.4zm101.068-46.039-.107-5.759c-14.932 13.545-6.719 25.811-6.719 25.704 0-4.184 2.23-7.97 5.056-11.104.098 1.205.17 2.415.17 3.638 0 2.462-.234 4.864-.572 7.234l5.411-1.626a57 57 0 0 0 .28-5.608c0-2.701-.207-5.367-.581-7.992a48 48 0 0 1 2.314-1.704c.529 3.173.827 6.408.827 9.695a59 59 0 0 1-.214 4.819l5.251-1.578a65 65 0 0 0 .082-3.241c0-3.823-.353-7.586-1.007-11.264a1.6 1.6 0 0 0-1.592-1.305z" style="fill:#f5f5f5"/><path d="m312.78 232.126 5.276-.068c-3.444-13.769-11.393-26.061-22.978-35.008a2.559 2.559 0 1 0-3.13 4.05c10.326 7.975 17.511 18.839 20.832 31.026" style="fill:#f5f5f5"/><path d="M308.026 226.323c-2.867-6.97-7.081-13.387-12.648-18.839a2.557 2.557 0 0 0-3.62.04 2.56 2.56 0 0 0 .038 3.62c5.584 5.469 9.693 11.994 12.274 19.101a28.5 28.5 0 0 1 3.956-3.922m11.679 27.362-5.335 1.603-2.683.806-1.863.56-8.059 2.422a8.53 8.53 0 0 0-5.178 4.356l-3.406 6.811c-1.741 2.866-3.763 5.522-6.076 7.883l5.88 1.077a48.8 48.8 0 0 0 7.255-11.447l3.34-1.227a51.6 51.6 0 0 1-7.728 13.199l5.65 1.034a56.6 56.6 0 0 0 8.293-16.516l2.975-1.093a59 59 0 0 1-8.497 18.117l5.53 1.012a63.7 63.7 0 0 0 8.8-21.4 5.2 5.2 0 0 0 2.188-2.766l1.763-5.288zm-37.027 28.301-.132.117c-7.448 5.747-16.696 9.122-26.545 9.122s-19.098-3.375-26.545-9.122l-.132-.117a4.08 4.08 0 0 0-3.828-1.255l-25.809 5.374 5.727 5.02a7.58 7.58 0 0 0 5.457 1.854 64.5 64.5 0 0 0 15.723 11.522l-1.677 3.095a64.9 64.9 0 0 0 31.084 7.888 64.9 64.9 0 0 0 31.084-7.888l-1.677-3.095a64.6 64.6 0 0 0 15.723-11.522 7.58 7.58 0 0 0 5.457-1.854l5.727-5.02-25.809-5.374a4.08 4.08 0 0 0-3.828 1.255m-53.638 17.997c-4.64-2.415-8.888-5.463-12.71-8.969l2.485-1.185c3.472 3.072 7.29 5.762 11.438 7.915zm66.63-8.969c-3.822 3.506-8.07 6.555-12.71 8.969l-1.213-2.239c4.149-2.153 7.966-4.843 11.438-7.915zm-39.67 7.89c-12.192 0-23.364-4.325-32.159-11.473l2.555-1.218c8.305 6.397 18.626 10.131 29.604 10.131s21.299-3.734 29.604-10.131l2.555 1.218c-8.795 7.148-19.966 11.473-32.159 11.473" style="fill:#f5f5f5"/><path d="M227.912 278.358a44 44 0 0 0 3.427 2.629h49.322a44 44 0 0 0 3.427-2.629l-2.491-2.491h-51.195z" style="fill:#f5f5f5"/></svg>
