<svg xmlns="http://www.w3.org/2000/svg" xml:space="preserve" viewBox="0 0 512 512" width="48" height="48"><path d="M400 0H112C50.144 0 0 50.144 0 112v288c0 61.856 50.144 112 112 112h288c61.856 0 112-50.144 112-112V112C512 50.144 461.856 0 400 0" style="fill:#41479b"/><path d="M467.204 489.602a112.7 112.7 0 0 0 19.443-18.635L56.713 256 486.647 41.034a112.6 112.6 0 0 0-19.443-18.635L0 256z" style="fill:#ff4b55"/><path d="M486.647 470.966C502.49 451.646 512 426.935 512 400V112c0-26.935-9.511-51.646-25.353-70.967L56.713 256z" style="fill:#f5f5f5"/><path d="M450.583 211.231s31.476 1.334 34.41-1.067 3.468-18.406-6.936-20.806-38.678 13.071-38.678 13.071z" style="fill:#fff5dc"/><path d="M388.965 236.039s-.356.889-.534 4.801.534 14.049 12.804 18.495l-2.845 11.915 12.982 7.825s9.603-14.227 10.136-26.141c.533-11.916-32.543-16.895-32.543-16.895m-38.945-8.003 5.068-5.068s-10.375 6.33-14.315.622c-5.157-7.469 1.778-15.294 8.98-18.761 7.202-3.468 21.607-.8 21.607-.8l9.069 23.207-27.475 17.339zm85.092-44.28 24.541-2.934s-7.202 10.403-21.34 18.139c0 0 14.671 0 18.939 5.068s-4.268 9.87-7.469 11.47-30.943 18.672-30.943 18.672l-24.807-2.934z" style="fill:#d27d69"/><path d="M453.34 164.906s5.335-12.448 5.157-21.162l-17.961 12.448s4.09-1.956 2.668-9.069l-58.685 31.832-11.915 21.162 36.278 11.203z" style="fill:#d27d69"/><path d="m409.104 261.913-6.135 9.736s-10.937-2.401-14.671.267-4.135 12.671 2.401 13.471c0 0 4.535 2.801 7.202.533 0 0 5.468 2.134 6.402-1.334s-.267-6.402-.267-6.402h3.868l6.802-12.137z" style="fill:#ffe15a"/><path d="M354.288 240.84s17.072-8.536 17.072-21.34-15.827-13.515-28.631-9.247c0 0-7.647-6.046-1.245-12.092 8.776-8.289 46.948-25.608 46.948-25.608l-4.268 21.34s15.205 8.003 21.34 4.268c5.156-3.138 55.483-42.68 55.483-42.68s-4.268 21.34-34.144 42.68l-3.166 15.828a11.49 11.49 0 0 1-6.129 8.025l-12.045 6.022s34.144 4.268 34.144 8.536-8.536 25.608-25.608 34.144l-8.536-8.536 4.268-12.804s-12.804-4.268-21.34-8.536c0 0-12.804 4.268-21.34 4.268s-12.803-4.268-12.803-4.268" style="fill:#b95546"/><path d="M328.68 262.18v-8.868a9.5 9.5 0 0 1 2.783-6.719l18.557-18.557 4.268 8.536h17.072l-4.268 4.268v4.268l-21.34 12.804z" style="fill:#fff5dc"/><path d="M337.216 257.912h-8.536s-8.536 12.804 0 12.804c0 0 12.804-8.536 17.072-12.804 0 0 0-4.268-8.536 0m104.108 18.933h-59.001a2.63 2.63 0 0 0-1.938-.862S370.05 271.7 368.58 271.7h-1.211a2.66 2.66 0 0 0-2.661 2.661v2.484H351.22v-2.484a2.66 2.66 0 0 0-2.661-2.661h-1.211a2.66 2.66 0 0 0-2.661 2.661v.045c-5.781-.236-18.14-.972-24.541-3.106L286 279.836l34.144 8.536c6.401-2.134 18.76-2.871 24.541-3.107v.045a2.66 2.66 0 0 0 2.661 2.661h1.211a2.66 2.66 0 0 0 2.661-2.661v-2.484h13.488v2.484a2.66 2.66 0 0 0 2.661 2.661h1.211c1.47 0 11.805-4.283 11.805-4.283a2.63 2.63 0 0 0 1.937-.862h59.002a2.991 2.991 0 0 0 .002-5.981" style="fill:#ffe15a"/><path d="M438.758 288.321c-3.557-.712-44.28 6.402-44.28 6.402s-2.49-2.49 4.979-9.425l-3.557-.889s-7.824 5.513-11.025 6.224c-2.757.613-8.915 3.606-10.238 7.604l-24.795 4.133.534 2.134 24.321-2.85c1.161 3.737 4.983 4.498 7.689 3.384 0 0 3.557 1.423 6.758-1.067 0 0 6.402 1.067 6.757-4.801l44.636-6.758c-.001-.001 1.777-3.379-1.779-4.091" style="fill:#ffe15a"/><path d="M413.505 318.375s-3.379 4.446-11.737.534-18.139.356-23.474-.889-13.337-4.446-20.806-1.6-11.559 2.668-9.959-.889 2.49-6.224 0-7.469l2.845-3.557-.534-2.134s-14.226-5.513-23.829 2.134-6.758 25.074 9.247 26.319c0 0 4.979 6.224 17.25 4.446 0 0 8.002 5.513 21.695 3.023 0 0 .534 1.6 9.425.889s18.85.356 17.072 6.402c0 0 6.58-1.245 2.668-7.291 0 0 7.825-.356 13.159 4.268 0 0 .356-5.335-4.801-8.18 0 0 8.714-3.023 13.515 0 0 0-3.201-6.758-11.737-5.868 0 0 6.224-4.979 9.069-3.735 0 0-2.668-3.201-10.492 0 .002-.001 4.981-3.024 1.424-6.403" style="fill:#ffe15a"/></svg>
