<svg xmlns="http://www.w3.org/2000/svg" xml:space="preserve" viewBox="0 0 512 512" width="48" height="48"><path d="M400 0H112C50.144 0 0 50.144 0 112v288c0 61.856 50.144 112 112 112h288c61.856 0 112-50.144 112-112V112C512 50.144 461.856 0 400 0" style="fill:#41479b"/><path d="M148.21 256.046h13.474v-81.77L256 236.069v-19.964l-83.768-54.375h24.748L256 200.041v-12.294l-39.71-26.017H256v-13.473H148.21zm-53.894 0h13.473V148.257H0v13.473h39.71L0 187.747v18.9l69.197-44.917h24.748L0 222.712v13.357l94.316-61.793zM107.789.087c-4.566.169-9.063.608-13.474 1.308v80.421l-66.561-43.61a112.4 112.4 0 0 0-10.867 14.641l63.955 41.515H56.094l-45.65-29.633a111 111 0 0 0-3.437 8.207L39.71 94.362H1.387a113 113 0 0 0-1.302 13.474h107.704zM256 107.836V94.362h-39.71L256 68.345V49.203l-69.568 45.159h-24.748L256 33.138V20.023l-94.316 61.793V.046H148.21v107.79z" style="fill:#f5f5f5"/><path d="M107.789 256.046h40.421v-107.79H256v-40.421H148.21V.046h-39.347c-.359.01-.716.027-1.074.041v107.749H.085A113 113 0 0 0 0 112v36.256h107.789z" style="fill:#ff4b55"/><path d="M69.197 161.73 0 206.647v16.065l93.945-60.982zm103.035 0L256 216.105v-16.064l-59.02-38.311zm-91.39-67.368L16.887 52.847a112 112 0 0 0-6.443 11.882l45.65 29.633zm105.59 0L256 49.203V33.138l-94.316 61.224z" style="fill:#ff4b55"/><path d="M331.911 289.65c-1.407 18.749-7.225 137.888 68.365 164.82 75.617-26.94 69.775-146.075 68.365-164.82-9.159 3.59-42.312 14.471-68.365-4.072-26.053 18.54-59.201 7.665-68.365 4.072" style="fill:#f5f5f5"/><path d="M437.418 313.686c-4.144-3.223-11.818 2.763-20.413 2.148-7.971-.569-17.796-8.642-30.565-5.162-3.528-3.249-1.819-10.8-1.819-10.8-8.866 5.73-9.501 13.576-8.944 17.831-6.322 8.354-5.895 21.1-4.716 24.991 1.535 5.065 4.451 5.679 4.911 11.357.46 5.679 2.609 3.684 2.609 3.684 4.44-2.49 5.085-7.186 6.952-14.873 7.212.921 11.927-5.54 11.927-5.54-4.733 1.485-7.716-1.124-9.343-3.421.254-.758.457-1.459.748-2.258 5.372-14.734 31.076-10.684 33.459-6.6 4.298 7.367 9.976 10.13 9.976 10.13 0-7.68-5.679-14.427-5.679-14.427 8.595-1.535 10.897-7.06 10.897-7.06m-61.852 31.617a1.535 1.535 0 1 1 0-3.07 1.535 1.535 0 0 1 0 3.07" style="fill:#ffa028"/><path d="M412.108 407.969c5.005-1.584 4.43-11.299 9.812-18.028 4.991-6.241 17.213-9.751 21.592-22.241 4.677-1.062 9.926 4.629 9.926 4.629.311-10.552-5.789-15.526-9.609-17.481-3.292-9.945-14.031-16.826-17.904-18.062-5.041-1.61-7.201.443-12.139-2.399s-4.514.059-4.514.059c-.469 5.069 3.033 8.264 8.303 14.162-4.85 5.417-2.204 12.965-2.204 12.965 1.462-4.74 5.303-5.716 8.118-5.753.481.639.942 1.204 1.434 1.897 9.086 12.783-8.833 31.652-13.548 31.297-8.505-.641-14.002 2.468-14.002 2.468 6.324 4.357 15.102 3.509 15.102 3.509-3.611 7.947-.367 12.978-.367 12.978m9.056-68.872a1.535 1.535 0 1 1 2.528 1.742 1.535 1.535 0 0 1-2.528-1.742" style="fill:#ffa028"/><path d="M344.441 339.747c-.669 5.207 8.386 8.773 12.225 16.487 3.561 7.154 1.602 19.718 11.09 28.946-1.005 4.689-8.376 7.056-8.376 7.056 9.441 4.723 16.52 1.282 19.901-1.36 10.407 1.198 21.168-5.648 23.919-8.64 3.582-3.896 2.628-6.719 7.285-10.002s1.846-4.119 1.846-4.119c-4.401-2.558-8.773-.727-16.342 1.572-2.873-6.679-10.833-7.455-10.833-7.455 3.684 3.321 2.954 7.216 1.803 9.785-.782.167-1.489.348-2.325.503-15.419 2.863-24.996-21.333-22.69-25.46 4.16-7.445 3.653-13.74 3.653-13.74-6.614 3.903-9.538 12.223-9.538 12.223-5.689-6.621-11.618-5.796-11.618-5.796m58.666 37.198a1.535 1.535 0 1 1-2.644 1.56 1.535 1.535 0 0 1 2.644-1.56" style="fill:#ffa028"/><path d="m400.276 458.373-.604-.209c-85.117-29.609-71.363-169.961-71.214-171.378l.266-2.536 2.326 1.054c.401.183 39.891 17.698 68.122-3.482l1.104-.827 1.104.827c28.272 21.209 67.726 3.662 68.12 3.482l2.327-1.058.266 2.54c.149 1.417 13.903 141.769-71.214 171.378zM331.911 289.65c-1.407 18.749-7.225 137.888 68.365 164.82 75.617-26.94 69.775-146.075 68.365-164.82-9.159 3.59-42.312 14.471-68.365-4.072-26.053 18.54-59.201 7.665-68.365 4.072" style="fill:#cdce0c"/><path d="M352.868 412.221c10.324 18.723 25.397 34.407 47.408 42.249 22.017-7.844 37.093-23.527 47.418-42.249z" style="fill:#82afff"/></svg>
