<svg xmlns="http://www.w3.org/2000/svg" xml:space="preserve" viewBox="0 0 512 512" width="48" height="48"><path d="M512 400V112C512 50.144 461.856 0 400 0H112C51.25 0 1.801 48.368.052 108.695v294.61C1.801 463.632 51.25 512 112 512h288c61.856 0 112-50.144 112-112" style="fill:#464655"/><path d="m256.052 62.478 13.536 70.712 39.565-60.15-14.555 70.509 59.572-40.43-40.431 59.572 70.51-14.555-60.15 39.565 70.712 13.535-70.712 13.535 60.15 39.566-70.51-14.556 40.431 59.572-59.572-40.43 14.555 70.509-39.565-60.15-13.536 70.713-13.535-70.713-39.565 60.15 14.555-70.509-59.572 40.43 40.431-59.572-70.51 14.556 60.15-39.566-70.712-13.535 70.712-13.535-60.15-39.565 70.51 14.555-40.431-59.572 59.572 40.43-14.555-70.509 39.565 60.15z" style="fill:#ffe15a"/><path d="M0 112v288c0 61.856 50.144 112 112 112h144.052L22.401 44.792C8.337 63.513 0 86.782 0 112m512 288V112c0-25.197-8.323-48.45-22.366-67.163L256.052 512H400c61.856 0 112-50.144 112-112" style="fill:#ff4b55"/><path d="M155 309.895h202.105L411 202.105H101.105z" style="fill:#4173cd"/><path d="M155 309.895 256.052 512l101.053-202.105z" style="fill:#f5f5f5"/></svg>
