<svg xmlns="http://www.w3.org/2000/svg" xml:space="preserve" viewBox="0 0 512 512" width="48" height="48"><path d="M400 0H112C50.144 0 0 50.144 0 112v288c0 61.856 50.144 112 112 112h288c61.856 0 112-50.144 112-112V112C512 50.144 461.856 0 400 0" style="fill:#4173cd"/><path d="M0 350.32h512v26.947H0zm4.397 80.838h503.207a112 112 0 0 0 4.31-26.947H.087a111.8 111.8 0 0 0 4.31 26.947" style="fill:#ffe15a"/><path d="m99.565 133.805-50.137-17.119 50.137-17.12 17.12-50.132 17.12 50.132 50.137 17.12-50.137 17.119-17.12 50.132z" style="fill:#ff4b55"/><path d="m116.685 58.444 14.826 43.416 43.416 14.826-43.416 14.826-14.826 43.415-14.826-43.415-43.416-14.826 43.416-14.826zm0-18.023-5.512 16.14-13.902 40.711-40.71 13.902-16.14 5.511 16.14 5.511 40.71 13.902 13.902 40.711 5.512 16.14 5.512-16.14 13.902-40.711 40.71-13.902 16.14-5.511-16.14-5.511-40.71-13.902-13.902-40.711z" style="fill:#f5f5f5"/></svg>
