<svg xmlns="http://www.w3.org/2000/svg" xml:space="preserve" viewBox="0 0 512 512" width="48" height="48"><path d="M400 0H112C50.144 0 0 50.144 0 112v288c0 61.856 50.144 112 112 112h288c61.856 0 112-50.144 112-112V112C512 50.144 461.856 0 400 0" style="fill:#41479b"/><path d="m130.415 337.445 8.482 28 27.18-10.827c2.319-.924 4.427 1.721 3.011 3.776l-16.603 24.089 25.411 14.5c2.168 1.237 1.415 4.534-1.075 4.708l-29.185 2.038 4.507 28.907c.384 2.466-2.663 3.934-4.351 2.095L128 413.184l-19.79 21.547c-1.688 1.838-4.736.371-4.351-2.095l4.507-28.907-29.186-2.039c-2.49-.174-3.242-3.471-1.075-4.708l25.411-14.5-16.603-24.089c-1.416-2.055.692-4.699 3.011-3.776l27.179 10.827 8.482-28c.724-2.388 4.106-2.388 4.83.001m255.019-250.57 4.143 13.678 13.277-5.289c1.133-.451 2.163.84 1.471 1.844l-8.11 11.767 12.413 7.083c1.059.604.691 2.215-.525 2.3l-14.257.996 2.202 14.121c.188 1.205-1.301 1.921-2.125 1.024l-9.667-10.526-9.667 10.526c-.825.898-2.313.181-2.125-1.024l2.202-14.121-14.257-.996c-1.216-.085-1.584-1.696-.525-2.3l12.413-7.083-8.11-11.767c-.692-1.004.338-2.295 1.471-1.844l13.277 5.289 4.143-13.678c.351-1.167 2.003-1.167 2.356 0M293.05 212.234l4.143 13.678 13.277-5.289c1.133-.451 2.163.84 1.471 1.844l-8.11 11.767 12.413 7.083c1.059.604.691 2.215-.525 2.3l-14.257.996 2.202 14.121c.188 1.205-1.301 1.922-2.125 1.024l-9.667-10.526-9.667 10.526c-.825.898-2.313.181-2.125-1.024l2.202-14.121-14.257-.996c-1.216-.085-1.584-1.696-.525-2.3l12.413-7.083-8.11-11.767c-.692-1.004.338-2.296 1.471-1.844l13.277 5.289 4.143-13.678c.35-1.167 2.002-1.167 2.356 0m179.787-65.321 4.143 13.678 13.277-5.289c1.133-.451 2.163.84 1.471 1.844l-8.11 11.767 12.413 7.083c1.059.604.691 2.215-.525 2.3l-14.257.996 2.202 14.121c.188 1.205-1.301 1.922-2.125 1.023l-9.667-10.525-9.667 10.525c-.825.898-2.313.181-2.125-1.023l2.202-14.121-14.257-.996c-1.216-.085-1.584-1.696-.525-2.3l12.413-7.083-8.11-11.767c-.692-1.004.338-2.296 1.471-1.844l13.277 5.289 4.143-13.678c.35-1.166 2.002-1.166 2.356 0m-87.403 221.161 4.143 13.678 13.277-5.289c1.133-.451 2.163.84 1.471 1.844l-8.11 11.767 12.413 7.083c1.059.604.691 2.215-.525 2.3l-14.257.996 2.202 14.121c.188 1.205-1.301 1.922-2.125 1.024l-9.667-10.525-9.667 10.525c-.825.898-2.313.181-2.125-1.024l2.202-14.121-14.257-.996c-1.216-.085-1.584-1.696-.525-2.3l12.413-7.083-8.11-11.767c-.692-1.004.338-2.296 1.471-1.844l13.277 5.289 4.143-13.678c.351-1.167 2.003-1.167 2.356 0m32.055-121.105-3.326 9.974-10.513.081c-1.361.011-1.926 1.748-.831 2.556l8.458 6.246-3.171 10.024c-.41 1.298 1.067 2.371 2.174 1.58l8.553-6.114 8.553 6.114c1.107.792 2.585-.282 2.174-1.58l-3.171-10.024 8.458-6.246c1.095-.809.531-2.546-.831-2.556l-10.514-.081-3.326-9.974c-.43-1.292-2.257-1.292-2.687 0" style="fill:#f5f5f5"/><path d="M94.316 1.395C67.937 5.579 44.627 18.971 27.779 38.177L94.316 81.77zM7.021 72.899a111 111 0 0 0-5.627 21.417H39.71zM0 161.684v26.017l39.71-26.017zM256 19.977V0h-94.316v81.77zm0 167.724v-26.017h-39.71zM161.684 256H256v-19.977l-94.316-61.793zM256 94.316V68.299l-39.71 26.017zM94.316 174.23 0 236.023V256h94.316z" style="fill:#41479b"/><path d="M148.21 256h13.474v-81.77L256 236.023v-19.964l-83.768-54.375h24.748L256 199.995v-12.294l-39.71-26.017H256V148.21H148.21zm-53.894 0h13.473V148.21H0v13.474h39.71L0 187.701v18.901l69.197-44.918h24.748L0 222.666v13.357l94.316-61.793zM107.789.087c-4.566.169-9.063.608-13.474 1.308V81.77L27.779 38.177a112.4 112.4 0 0 0-10.872 14.637l63.935 41.502H56.094L10.461 64.694q-1.878 4.02-3.44 8.205L39.71 94.316H1.394c-.7 4.411-1.139 8.907-1.308 13.474h107.703zM256 107.79V94.316h-39.71L256 68.299V49.157l-69.568 45.159h-24.748L256 33.092V19.977L161.684 81.77V0H148.21v107.79z" style="fill:#f5f5f5"/><path d="M107.789 256h40.421V148.21H256v-40.42H148.21V0H112c-1.411 0-2.813.035-4.211.087V107.79H.087A113 113 0 0 0 0 112v36.21h107.789z" style="fill:#ff4b55"/><path d="M69.197 161.684 0 206.602v16.064l93.945-60.982zm103.035 0L256 216.059v-16.064l-59.02-38.311zm-91.39-67.368L16.907 52.814a112 112 0 0 0-6.447 11.88l45.634 29.622zm105.59 0L256 49.157V33.092l-94.316 61.224z" style="fill:#ff4b55"/></svg>
