<svg xmlns="http://www.w3.org/2000/svg" xml:space="preserve" viewBox="0 0 512 512" width="48" height="48"><path d="M111.974 0C51.224 0 1.775 48.368.026 108.695v294.61C1.775 463.632 51.224 512 111.974 512h91.087V0z" style="fill:#41479b"/><path d="M511.974 400V112c0-61.856-50.144-112-112-112H203.061v512h196.913c61.856 0 112-50.144 112-112" style="fill:#f5f5f5"/><path d="M278.247 339.37a20.7 20.7 0 0 0-12.938 4.538l-22.277 17.821a20.7 20.7 0 0 1-12.939 4.539h-6.184v-3.557c0-5.463 4.429-9.892 9.892-9.892h10.282v-4.794a8.656 8.656 0 0 0-8.656-8.656h-4.794a6.725 6.725 0 0 0-6.725-6.725c-18.569 0-33.623 15.054-33.623 33.623h-12.909c-4.703 0-9.265-1.6-12.937-4.538l-22.278-17.822a20.7 20.7 0 0 0-12.937-4.538H31.126c-3.305 0-4.96 3.996-2.623 6.333l33.954 33.954a23.17 23.17 0 0 0 16.381 6.785h24.027l19.726 14.794a26.9 26.9 0 0 0 16.139 5.38h24.657c4.233 0 8.219-1.993 10.759-5.38l2.69-3.587v15.691l-16.595 33.19c-1.644 3.289.747 7.158 4.424 7.158h54.297a4.945 4.945 0 0 0 4.946-4.946v-60.059l9.415 12.553a13.45 13.45 0 0 0 10.759 5.38h24.657c5.82 0 11.483-1.888 16.139-5.38l19.726-14.794h24.028a23.17 23.17 0 0 0 16.381-6.785l33.955-33.955c2.337-2.337.682-6.333-2.623-6.333h-98.098zm-73.213-108.958 3.215 9.64 10.162.079c1.316.01 1.861 1.689.803 2.471l-8.175 6.037 3.065 9.689c.397 1.254-1.031 2.292-2.102 1.527l-8.267-5.909-8.267 5.909c-1.07.765-2.498-.273-2.102-1.527l3.065-9.689-8.175-6.037c-1.058-.781-.513-2.46.803-2.471l10.162-.079 3.215-9.64c.417-1.248 2.182-1.248 2.598 0M55.766 291.165l9.09 4.543 7.241-7.13c.938-.923 2.51-.122 2.315 1.179L72.9 299.806l9.019 4.684c1.168.606.891 2.35-.406 2.566l-10.024 1.667-1.667 10.024c-.216 1.298-1.96 1.574-2.566.406l-4.684-9.018-10.049 1.512c-1.301.196-2.103-1.377-1.179-2.315l7.13-7.241-4.543-9.09c-.59-1.176.658-2.424 1.835-1.836m297.776 1.837-4.543 9.09 7.13 7.241c.923.938.122 2.51-1.179 2.315l-10.049-1.512-4.684 9.018c-.606 1.168-2.35.891-2.566-.406l-1.667-10.024-10.024-1.667c-1.298-.216-1.574-1.96-.406-2.566l9.018-4.684-1.512-10.049c-.196-1.301 1.377-2.102 2.315-1.179l7.241 7.13 9.09-4.543c1.176-.589 2.424.659 1.836 1.836m-229.184-47.059 6.659 7.676 9.418-3.816c1.219-.494 2.366.848 1.687 1.976l-5.242 8.706 6.54 7.778c.847 1.007-.076 2.512-1.357 2.215l-9.899-2.296-5.377 8.623c-.696 1.116-2.413.704-2.526-.606l-.876-10.124-9.863-2.449c-1.277-.317-1.415-2.077-.204-2.59l9.358-3.962-.719-10.137c-.092-1.313 1.539-1.988 2.401-.994m161.155.994-.719 10.137 9.358 3.962c1.212.513 1.073 2.273-.204 2.59l-9.863 2.449-.876 10.124c-.113 1.311-1.83 1.723-2.526.606l-5.377-8.623-9.899 2.296c-1.282.297-2.204-1.208-1.357-2.215l6.54-7.778-5.242-8.706c-.679-1.127.468-2.47 1.687-1.976l9.418 3.816 6.659-7.676c.863-.994 2.494-.319 2.401.994m-121.582-12.733 5.034 8.828 9.982-1.905c1.292-.247 2.155 1.294 1.269 2.267l-6.84 7.516 4.896 8.905c.634 1.153-.564 2.449-1.763 1.908l-9.261-4.183-6.956 7.409c-.9.959-2.504.22-2.359-1.088l1.116-10.101-9.195-4.326c-1.191-.56-.983-2.313.305-2.58l9.951-2.06 1.273-10.082c.165-1.306 1.896-1.651 2.548-.508m157.865 32.415-2.682 9.802 8.405 5.711c1.088.739.609 2.439-.705 2.5l-10.151.478-2.834 9.759c-.367 1.263-2.131 1.333-2.596.102l-3.591-9.506-10.157.32c-1.315.042-1.926-1.615-.899-2.437l7.931-6.353-3.443-9.561c-.446-1.238.941-2.331 2.04-1.608l8.493 5.58 8.029-6.229c1.04-.808 2.508.173 2.16 1.442m-233.961-1.443 8.029 6.229 8.493-5.58c1.1-.723 2.486.37 2.04 1.608l-3.443 9.561 7.931 6.353c1.027.823.416 2.479-.899 2.437l-10.157-.32-3.591 9.506c-.465 1.231-2.229 1.161-2.596-.102l-2.834-9.759-10.151-.478c-1.314-.062-1.793-1.761-.705-2.5l8.406-5.711-2.683-9.802c-.348-1.268 1.12-2.249 2.16-1.442m158.253-30.465 1.273 10.082 9.951 2.06c1.288.267 1.496 2.02.305 2.58l-9.195 4.326 1.116 10.101c.145 1.308-1.459 2.047-2.359 1.088l-6.956-7.409-9.261 4.183c-1.199.542-2.397-.755-1.763-1.908l4.896-8.905-6.84-7.516c-.885-.973-.023-2.513 1.269-2.267l9.982 1.905 5.034-8.828c.651-1.142 2.383-.797 2.548.508" style="fill:#ffe15a"/><path d="M116.368 71.606v35.213c0 14.562-11.847 26.409-26.409 26.409S63.55 121.381 63.55 106.819V71.606zM125.171 54H54.746a8.803 8.803 0 0 0-8.803 8.803v44.016c0 24.309 19.707 44.016 44.016 44.016s44.016-19.706 44.016-44.016V62.803A8.804 8.804 0 0 0 125.171 54" style="fill:#ff4b55"/><path d="M116.368 71.606v35.213c0 14.562-11.847 26.409-26.409 26.409S63.55 121.381 63.55 106.819V71.606z" style="fill:#f5f5f5"/><path d="M58.198 60c2.885 4.458-1.866 9.209-6.324 6.324a2.4 2.4 0 0 1-.717-.717c-2.885-4.458 1.866-9.209 6.324-6.324.284.184.533.432.717.717m70.425 0c2.885 4.458-1.866 9.209-6.324 6.324a2.4 2.4 0 0 1-.717-.717c-2.885-4.458 1.866-9.209 6.324-6.324.284.184.533.432.717.717M58.198 95.213c2.885 4.458-1.866 9.209-6.324 6.324a2.4 2.4 0 0 1-.717-.717c-2.885-4.458 1.866-9.209 6.324-6.324.284.183.533.432.717.717m70.425 0c2.885 4.458-1.866 9.209-6.324 6.324a2.4 2.4 0 0 1-.717-.717c-2.885-4.458 1.866-9.209 6.324-6.324.284.183.533.432.717.717M93.41 60c2.885 4.458-1.866 9.209-6.324 6.324a2.45 2.45 0 0 1-.717-.717c-2.885-4.458 1.866-9.209 6.324-6.324.284.184.533.432.717.717m26.428 67.674c2.885 4.458-1.866 9.209-6.324 6.324a2.4 2.4 0 0 1-.717-.717c-2.885-4.458 1.866-9.209 6.324-6.324.283.184.532.433.717.717m-52.337 0c2.885 4.458-1.866 9.209-6.324 6.324a2.4 2.4 0 0 1-.717-.717c-2.885-4.458 1.866-9.209 6.324-6.324.284.184.533.433.717.717" style="fill:#ffe15a"/><path d="M95.644 95.784v7.58a5.69 5.69 0 0 1-5.685 5.685 5.69 5.69 0 0 1-5.685-5.685v-7.58zm0-17.973v7.58a5.69 5.69 0 0 1-5.685 5.685 5.69 5.69 0 0 1-5.685-5.685v-7.58zm0 36.13v7.581a5.69 5.69 0 0 1-5.685 5.685 5.69 5.69 0 0 1-5.685-5.685v-7.581zm15.313-18.157v7.58a5.69 5.69 0 0 1-5.685 5.685 5.69 5.69 0 0 1-5.685-5.685v-7.58zm-30.627 0v7.58a5.69 5.69 0 0 1-5.685 5.685 5.69 5.69 0 0 1-5.685-5.685v-7.58z" style="fill:#41479b"/></svg>
