<svg xmlns="http://www.w3.org/2000/svg" xml:space="preserve" viewBox="0 0 512 512" width="48" height="48"><path d="M400 0H112C50.144 0 0 50.144 0 112v58.667h512V112C512 50.144 461.856 0 400 0M0 400c0 61.853 50.139 111.995 111.99 112h288.02C461.861 511.995 512 461.853 512 400v-58.667H0z" style="fill:#82afff"/><path d="M0 170.67h512v170.67H0z" style="fill:#ffe15a"/><path d="M244.324 249.017 32.496 33.12C12.411 53.363 0 81.231 0 112v288c0 30.769 12.411 58.637 32.496 78.88l211.829-215.897c3.492-3.569 3.492-10.397-.001-13.966" style="fill:#464655"/></svg>
