<svg xmlns="http://www.w3.org/2000/svg" xml:space="preserve" viewBox="0 0 512 512" width="48" height="48"><path d="M112 0C50.144 0 0 50.144 0 112v288c0 61.856 50.144 112 112 112h97.368V0z" style="fill:#f5f5f5"/><path d="M400 0H112c-3.084 0-6.138.13-9.159.375L209.368 32 101.579 64l107.789 32-107.789 32 107.789 32-107.789 32 107.789 32-107.789 32 107.789 32-107.789 32 107.789 32-107.789 32 107.789 32-107.789 32 107.789 32-106.527 31.625c3.021.245 6.075.375 9.159.375h288c61.856 0 112-50.144 112-112V112C512 50.144 461.856 0 400 0" style="fill:#ff4b55"/></svg>
