<svg xmlns="http://www.w3.org/2000/svg" xml:space="preserve" viewBox="0 0 512 512" width="48" height="48"><path d="M400 0H112C70.18 0 33.718 22.924 14.482 56.889h483.036C478.282 22.924 441.82 0 400 0" style="fill:#ffe15a"/><path d="M14.482 56.889C5.266 73.161 0 91.964 0 112v1.778h512V112c0-20.036-5.266-38.839-14.482-55.111z" style="fill:#ff4b55"/><path d="M0 113.78h512v56.889H0z" style="fill:#ffe15a"/><path d="M0 170.67h512v56.889H0z" style="fill:#ff4b55"/><path d="M0 227.56h512v56.889H0zM112 512h288c41.82 0 78.282-22.924 97.518-56.889H14.482C33.718 489.076 70.18 512 112 512" style="fill:#ffe15a"/><path d="M0 284.44h512v56.889H0z" style="fill:#ff4b55"/><path d="M0 341.33h512v56.889H0z" style="fill:#ffe15a"/><path d="M0 400c0 20.036 5.266 38.839 14.482 55.111h483.036C506.734 438.839 512 420.036 512 400v-1.778H0z" style="fill:#ff4b55"/><path d="M353.737 245.629V0H112C50.144 0 0 50.144 0 112v144h343.366c5.728 0 10.371-4.643 10.371-10.371" style="fill:#64466e"/><path d="M316.989 115.778h-26.972V84.953h3.853v-7.706h-38.532v7.706h3.853v30.825h-15.413V84.953h3.853v-7.706H209.1v7.706h3.853v30.825h-23.119V77.247h3.853V69.54h-38.532v7.706h3.853v38.532h-23.119V84.953h3.853v-7.706H101.21v7.706h3.853v30.825H89.651V84.953h3.853v-7.706H54.972v7.706h3.853v30.825H28v7.706h3.853v69.357h53.944v-23.119a7.706 7.706 0 1 1 15.412 0v23.119h38.532v-23.119a7.706 7.706 0 1 1 15.412 0v23.119h7.706V165.87c0-6.384 5.175-11.56 11.56-11.56 6.384 0 11.56 5.176 11.56 11.56v26.972h7.706v-23.119a7.706 7.706 0 1 1 15.412 0v23.119h38.532v-23.119a7.706 7.706 0 1 1 15.412 0v23.119h53.944v-69.357h3.853v-7.706zM81.945 146.604H66.532v-23.119a7.706 7.706 0 1 1 15.412 0zm46.238 0H112.77v-23.119a7.706 7.706 0 1 1 15.412 0v23.119zm53.944-23.119h-15.413v-15.413a7.706 7.706 0 1 1 15.412 0v15.413zm53.945 23.119h-15.413v-23.119a7.706 7.706 0 1 1 15.412 0v23.119zm46.238 0h-15.413v-23.119a7.706 7.706 0 1 1 15.412 0z" style="fill:#f5f5f5"/></svg>
