<svg xmlns="http://www.w3.org/2000/svg" xml:space="preserve" viewBox="0 0 512 512" width="48" height="48"><path d="M512 400V112C512 50.144 461.856 0 400 0H112C50.151 0 .011 50.134 0 111.981v288.038C.011 461.867 50.151 512 112 512h288c61.856 0 112-50.144 112-112" style="fill:#ff4b55"/><path d="M502.818 444.465C508.721 430.834 512 415.801 512 400v-2.658L296.266 256 512 114.658V112c0-15.659-3.218-30.564-9.022-44.098L256 229.619 9.104 67.715C3.251 81.293.003 96.257 0 111.982v2.676L215.735 256 0 397.343v2.676c.003 15.721 3.25 30.683 9.1 44.259L256 282.382z" style="fill:#73af00"/><path d="M512 233.931H278.069V0h-44.138v233.931H0v44.138h233.931V512h44.138V278.069H512z" style="fill:#f5f5f5"/></svg>
