<svg xmlns="http://www.w3.org/2000/svg" xml:space="preserve" viewBox="0 0 512 512" width="48" height="48"><path d="M0 400c0 61.856 50.144 112 112 112h288c61.856 0 112-50.144 112-112v-22.737H0z" style="fill:#73af00"/><path d="M400 0H112C50.144 0 0 50.144 0 112v265.263h512V112C512 50.144 461.856 0 400 0" style="fill:#ff4b55"/><path d="M0 112v288c0 60.445 47.886 109.698 107.789 111.913V.087C47.886 2.302 0 51.555 0 112" style="fill:#f5f5f5"/><path d="M65.837 377.844h-2.418v-6.679h-7.138v6.679h-4.767v-6.679h-7.113v6.679H42.03v6.677h-2.396v9.001h2.396v6.677h2.371v6.677h7.113v-6.677h4.767v6.677h7.138v-6.677h2.418v-6.677h2.324v-9.001h-2.324zm-14.323 13.451h-2.346v4.452h-2.421v-4.452h-2.346v-4.549h2.346v-4.45h2.421v4.45h2.346zm11.905 0h-2.346v4.452h-2.396v-4.452h-2.396v-4.549h2.396v-4.45h2.396v4.45h2.346zm16.597-257.139h2.346v6.679h7.162v-6.679h2.371v-6.677h2.346v-8.904h-2.346v-6.773h-2.371v-6.677h-7.162v6.677h-2.346v6.773H77.62v8.904h2.395zm2.346-13.451h2.371v-4.355h2.396v4.355h2.396v4.549h-2.396v4.45h-2.396v-4.45h-2.371zM51.51 87.32h4.767v13.356H51.51zM27.755 377.844h-2.396v-6.679h-7.113v6.679h-2.371v6.677h-2.393v9.001h2.393v6.677h2.371v6.677h7.113v-6.677h2.396v-6.677h2.324v-9.001h-2.324zm-2.396 13.451h-2.321v4.452h-2.396v-4.452h-2.396v-4.549h2.396v-4.45h2.396v4.45h2.321zM51.51 411.42h4.767v13.356H51.51zm38.06 64.85h4.744v13.356H89.57zm-57.048-33.58h4.717v11.129h-4.717z" style="fill:#ff4b55"/><path d="M42.03 476.266h4.717V465.04h4.767v-11.226h4.767v11.226h4.791v11.226h4.764v11.129h4.742v11.132h4.744v-11.132h4.742v-11.129h4.765V465.04h4.766v-11.226h4.72v-11.129h-4.744v-11.228H84.83v-11.129h-4.765v-11.226h-4.742v-11.129h-4.744v11.129H65.79v11.226h-4.717v11.129h-4.791v11.228h-4.767v-11.228h-4.767v-11.129H42.03v-11.226h-4.792v-11.129h-4.717v11.129h-4.767v11.226h-4.717v11.129h-4.792v11.228h-4.764v10.632q.136.25.276.497h4.489v7.466c.832 1.27 1.685 2.526 2.567 3.759h2.225v2.998a112.7 112.7 0 0 0 18.924 19.357h.068zm19.042-33.58h4.764v-11.228h4.742v-11.129h4.744v11.129h4.742v11.228h4.765v11.129h-4.765v11.226h-4.742v11.226h-4.744V465.04h-4.742v-11.226h-4.764zm-23.833 33.58h-4.717V465.04h-4.767v-11.226h-4.717v-11.129h4.717v-11.228h4.767v-11.129h4.717v11.129h4.792v11.228h4.717v11.129H42.03v11.226h-4.792zM51.51 22.475h4.767v13.356H51.51z" style="fill:#ff4b55"/><path d="M51.51 476.27h4.767v13.356H51.51zM13.482 87.32h4.764v13.356h-4.764zm28.548 46.933h2.371v6.679h7.113v-6.679h4.767v6.679h7.138v-6.679h2.418v-6.774h2.324v-8.904h-2.324v-6.773h-2.418v-6.58h-7.138v6.58h-4.767v-6.58h-7.113v6.58H42.03v6.773h-2.396v8.904h2.396zm14.251-13.451h2.396v-4.452h2.396v4.452h2.346v4.452h-2.346v4.549h-2.396v-4.549h-2.396zm-11.88 0h2.346v-4.452h2.421v4.452h2.346v4.452h-2.346v4.549h-2.421v-4.549h-2.346zM13.482 201.32h4.764v8.902h-4.764zM89.57 22.475h4.744v13.356H89.57zM13.482 145.38h4.764v13.45h-4.764zm4.764 110.717v-6.774h-4.764v13.451h4.764zM51.51 145.38h4.767v13.45H51.51zM13.482 353.26h4.764v13.354h-4.764zm2.393-219.007h2.371v6.679h7.113v-6.679h2.396v-6.774h2.324v-8.904h-2.324v-6.773h-2.396v-6.58h-7.113v6.58h-2.371v6.773h-2.393v8.904h2.393zm2.371-13.451h2.349v-4.452h2.443v4.452h2.321v4.452h-2.321v4.549h-2.443v-4.549h-2.349zM13.482 411.42h4.764v13.356h-4.764zm0-109.55h4.764v8.902h-4.764zM70.58 442.69h4.744v11.129H70.58zm-19.07-174.3h4.767v11.129H51.51zM63.419 256v6.774h4.742v-13.451h-4.742zM51.51 232.58h4.767v11.129H51.51zm-7.109 23.517v-6.774h-4.766v13.451h4.766z" style="fill:#ff4b55"/><path d="M58.677 245.936h-2.396v3.387h-4.767v-3.387h-2.346v-4.452h-4.767v6.677h2.346v3.387h2.421v8.904h-2.421v3.387h-2.346v6.677h4.767v-4.45h2.346v-3.292h4.767v3.292h2.396v4.45h4.742v-6.677h-2.347v-3.387h-2.395v-8.904h2.395v-3.387h2.347v-6.677h-4.742zM89.57 87.32h4.744v13.356H89.57zm0 58.06h4.744v13.45H89.57z" style="fill:#ff4b55"/><path d="M89.571 165.514H84.83v-11.228h-4.765v-11.129h-4.742v-11.226h-4.744v11.226H65.79v11.129h-4.717v11.228h-4.791v11.129h-4.767v-11.129h-4.767v-11.228H42.03v-11.129h-4.792v-11.226h-4.717v11.226h-4.767v11.129h-4.767v11.228h-4.742v11.129h-4.764v11.226h4.764v11.226h4.742v11.129h4.767v11.132h4.767v-11.132h4.717v-11.129h4.792v-11.226h-4.792v-13.453h4.792v9h4.717v17.905h2.421v11.032l-7.138.097v8.904h-4.792v6.677h-4.717v11.226h-4.767v-11.226h-4.767v-6.677h-4.742v-6.679h-4.764v20.13h4.764v9.001h4.742v7.742h4.767v8.904h-4.767v7.935h-4.742v8.904h-4.764v20.13h4.764v-6.776h4.742v-6.677h4.767V272.84h4.767v11.129h4.717v6.677h4.792v9.001l7.138.097v11.032h-2.421v17.905H42.03v9.001h-4.792v-13.549h4.792v-11.129h-4.792v-11.129h-4.717v-11.228h-4.767v11.228h-4.767v11.129h-4.742v11.129h-4.764v11.226h4.764v11.129h4.792v11.228h4.717v11.226h4.767v11.129h4.717V368.94h4.792v-11.226h4.717v-11.228h4.767v-11.129h4.767v11.129h4.791v11.228h4.764v11.226h4.742v11.129h4.744V368.94h4.742v-11.226h4.765v-11.228h4.742v-11.129h4.744v-11.226h-4.744v-11.129H84.83v-11.129h-4.765v-11.228h-4.742v11.228h-4.744v11.129H65.79v11.129h4.789v13.55H65.79v-9.001h-4.717v-17.905h-2.396v-11.129h7.16v-9.001h4.742v-6.677h4.744V272.84h4.742v11.129h4.765v6.677h4.766v6.776h4.72v-20.13h-4.72v-8.904H84.83v-7.935h-4.765v-8.905h4.765v-7.742h4.766v-9.001h4.72v-20.13h-4.72v6.679H84.83v6.677h-4.765v11.226h-4.742v-11.226h-4.744v-6.677h-4.742v-8.904h-7.16v-11.129h2.396v-17.905h4.717v-9h4.789v13.453H65.79v11.226h4.789v11.129h4.744v11.132h4.742v-11.132h4.765v-11.129h4.742v-11.226h4.744v-11.226h-4.744zm-23.734 69.291v9.001h4.742v7.742h4.744v8.904h-4.744v7.935h-4.742v8.904h-7.16v10.549h-2.396v5.032h-4.767v-5.032h-2.346v-10.549H42.03v-8.904h-4.792v-7.935h-4.717v-8.904h4.717v-7.742h4.792v-9.001h7.138v-10.547h2.346v-5.131h4.767v5.032h2.396v10.646z" style="fill:#ff4b55"/><path d="M89.57 201.32h4.744v8.902H89.57zM18.246 69.414v11.129h4.792v11.226h4.717v11.226h4.767v11.129h4.717v-11.129h4.792V91.768h4.717V80.543h4.767V69.414h4.767v11.129h4.791v11.226h4.717v11.226h4.789v11.129h4.744v-11.129h4.742V91.768h4.765V80.543h4.742V69.414h4.744V58.185h-4.72V47.056H84.83V35.831h-4.765V24.702h-4.742V13.474h-4.744v11.228h-4.742v11.129h-4.764v11.226h-4.791v11.129h-4.767v-11.13h-4.767V35.831H42.03V24.702h-.188a112.7 112.7 0 0 0-18.805 19.26v3.095h-2.295a112 112 0 0 0-2.496 3.663v7.466h-4.489l-.276.497v10.731zm42.826-11.229h4.764V47.056h4.742V35.831h4.744v11.226h4.742v11.129h4.765v11.228h-4.765v11.129h-4.742v11.226h-4.744V80.543h-4.742V69.414h-4.764zm-38.034 0h4.717V47.056h4.767V35.831h4.717v11.226h4.792v11.129h4.717v11.228H42.03v11.129h-4.792v11.226h-4.717V80.543h-4.767V69.414h-4.717zm68.857 335.337h2.346v-8.904h-2.346v-6.773h-2.371v-6.583h-7.162v6.583h-2.346v6.773H77.62v8.904h2.395v6.677h2.346v6.677h7.162v-6.677h2.371zm-2.371-2.227h-2.396v4.549h-2.396v-4.549h-2.371v-4.45h2.371v-4.452h2.396v4.452h2.396zM89.571 256v6.774h4.745v-13.451h-4.745z" style="fill:#ff4b55"/><path d="M32.522 58.19h4.717v11.228h-4.717zM51.51 353.26h4.767v13.354H51.51zm38.06 0h4.744v13.354H89.57zm0 58.16h4.744v13.356H89.57zm0-109.55h4.744v8.902H89.57zM70.58 58.19h4.744v11.228H70.58z" style="fill:#ff4b55"/></svg>
