<svg xmlns="http://www.w3.org/2000/svg" xml:space="preserve" viewBox="0 0 512 512" width="48" height="48"><path d="M400 0H112C71.419 0 35.88 21.582 16.233 53.895h479.534C476.12 21.582 440.581 0 400 0M112 512h288c40.581 0 76.12-21.582 95.767-53.895H16.233C35.88 490.418 71.419 512 112 512" style="fill:#ff4b55"/><path d="M16.233 53.895C5.932 70.835 0 90.725 0 112v288c0 21.275 5.932 41.165 16.233 58.105h479.534C506.068 441.165 512 421.275 512 400V112c0-21.275-5.932-41.165-16.233-58.105z" style="fill:#41479b"/><path d="M397.748 147.023c110.799 175.788-74.937 361.524-250.725 250.725a104.8 104.8 0 0 1-32.77-32.77C3.454 189.189 189.189 3.454 364.978 114.252a104.8 104.8 0 0 1 32.77 32.771" style="fill:#f5f5f5"/><path d="m222.39 348.104-27.021 4.504c-3.406.568-6.507-2.059-6.507-5.512v-10.168h33.528zm67.056 0 27.021 4.504c3.406.568 6.507-2.059 6.507-5.512v-10.168h-33.528z" style="fill:#82afff"/><path d="M250.33 166.326h-2.336a7.33 7.33 0 0 1-6.581-4.065l-4.134-8.267 3.749-1.877 4.134 8.267a3.15 3.15 0 0 0 2.832 1.752h2.336z" style="fill:#965032"/><path d="M200.896 163.479h15.491v4.193h-15.491z" style="fill:#965032" transform="rotate(63.435 208.64 165.575)"/><path d="m263.602 230.757-11.451-11.449a13.46 13.46 0 0 1-3.915-9.452v-3.853a9.2 9.2 0 0 0-.969-4.098l-2.854-5.708a3.48 3.48 0 0 0-3.124-1.932h-9.855a7.64 7.64 0 0 1-6.873-4.246l-4.044-8.087 3.749-1.877 4.044 8.087a3.48 3.48 0 0 0 3.124 1.932h9.855a7.64 7.64 0 0 1 6.873 4.245l2.854 5.708a13.46 13.46 0 0 1 1.411 5.975v3.853c0 2.417.98 4.78 2.688 6.483l4.297 4.3v-19.525a23.5 23.5 0 0 0-5.13-14.619 27.7 27.7 0 0 1-6.046-17.239v-16.202h4.191v16.202a23.5 23.5 0 0 0 5.13 14.619 27.7 27.7 0 0 1 6.046 17.239z" style="fill:#965032"/><path d="M253.632 219.919h-6.221a9.27 9.27 0 0 1-8.647-6.008l-1.574-4.246 3.929-1.462 1.574 4.245a5.05 5.05 0 0 0 4.717 3.28h6.221zm-2.573-18.106-3.837-1.692 23.542-53.5 3.836 1.691zm29.307-7.547h-20.257v-4.191h16.065v-20.257h4.192z" style="fill:#965032"/><path d="M245.353 214.522h-23.574a4.977 4.977 0 0 1-4.977-4.977v-6.81a4.977 4.977 0 0 1 4.977-4.977h23.574a4.977 4.977 0 0 1 4.977 4.977v6.81a4.977 4.977 0 0 1-4.977 4.977m39.116 0h-23.574a4.977 4.977 0 0 1-4.977-4.977v-6.81a4.977 4.977 0 0 1 4.977-4.977h23.574a4.977 4.977 0 0 1 4.977 4.977v6.81a4.977 4.977 0 0 1-4.977 4.977" style="fill:#73af00"/><path d="M301.233 197.758h-29.162a4.977 4.977 0 0 1-4.977-4.977v-6.81a4.977 4.977 0 0 1 4.977-4.977h29.162a4.977 4.977 0 0 1 4.977 4.977v6.81a4.977 4.977 0 0 1-4.977 4.977m5.588-22.352h-45.926a4.977 4.977 0 0 1-4.977-4.977v-6.81a4.977 4.977 0 0 1 4.977-4.977h45.926a4.977 4.977 0 0 1 4.977 4.977v6.81a4.977 4.977 0 0 1-4.977 4.977m-22.352-22.352h-17.986a4.977 4.977 0 0 1-4.977-4.977v-6.81a4.977 4.977 0 0 1 4.977-4.977h17.986a4.977 4.977 0 0 1 4.977 4.977v6.81a4.977 4.977 0 0 1-4.977 4.977m-72.643 11.176h-12.398a4.977 4.977 0 0 1-4.977-4.977v-6.81a4.977 4.977 0 0 1 4.977-4.977h12.398a4.977 4.977 0 0 1 4.977 4.977v6.81a4.98 4.98 0 0 1-4.977 4.977m39.115-5.588h-23.574a4.977 4.977 0 0 1-4.977-4.977v-6.81a4.977 4.977 0 0 1 4.977-4.977h23.574a4.977 4.977 0 0 1 4.977 4.977v6.81a4.977 4.977 0 0 1-4.977 4.977m-5.588 27.94h-40.338a4.977 4.977 0 0 1-4.977-4.977v-6.81a4.977 4.977 0 0 1 4.977-4.977h40.338a4.977 4.977 0 0 1 4.977 4.977v6.81a4.977 4.977 0 0 1-4.977 4.977M339.738 303.4H172.099c-6.172 0-11.176 5.003-11.176 11.176 0 6.172 5.004 11.176 11.176 11.176h44.704c0 6.172 5.004 11.176 11.176 11.176h55.88c6.172 0 11.176-5.004 11.176-11.176h44.704c6.172 0 11.176-5.004 11.176-11.176-.001-6.172-5.005-11.176-11.177-11.176" style="fill:#73af00"/><path d="M367.328 204.214c-.417-.838-2.598.157-3.958-.349-16.881-6.275-39.547-17.707-54.361-25.5l-2.974-4.709-28.08-13.648a3.77 3.77 0 0 0-4.924 1.527l-1.384 2.434a3.77 3.77 0 0 0 1.537 5.206l26.739 13.911 7.556-.559 29.367 15.098s19.952 10.206 21.013 10.956 1.669 4.947 3.648 4.598c1.416-.251 7.628-5.333 5.821-8.965" style="fill:#be7855"/><path d="M182.11 311.782s1.863 8.266.117 9.197-11.06.931-10.827-1.048 1.513-8.964 1.513-8.964zm15.484-4.424s-1.513 6.17 1.513 6.403c3.027.233 20.14.116 20.606-.349.466-.466 1.048-1.63 1.048-1.63l-15.833-4.424z" style="fill:#ffbe3c"/><path d="M180.219 230.408s-4.162 9.895-5.675 44.18c-.403 9.122.699 6.985-3.842 36.322l5.388 2.813a5.07 5.07 0 0 0 4.967-.158l5.245-3.179s-2.561-32.829 5.821-51.689c0 0 4.424 8.149 4.424 14.203s-.233 35.158-.233 35.158 9.779 1.63 14.203 1.164c0 0-2.794-63.156-5.588-78.028z" style="fill:#eaf3f5"/><path d="M181.004 226.217s-1.659 1.222-.786 4.191c0 0 12.747 5.501 24.709.786 0 0 1.31-1.921-.349-4.278zm-17.055-30.269c-7.255 2.697-18.277 9.43-17.579 14.785s4.494 4.048 5.677 2.734 4.583-5.535 5.644-6.284c1.061-.75 18.219-9.559 18.219-9.559l45.431-23.357s.349-2.27-2.357-4.104c.001-.001-27.793 15.657-55.035 25.785" style="fill:#965032"/><path d="m185.37 169.638-.262 1.921s-.698 12.311 3.318 15.629c0 0 .873 2.532-.524 3.755s-15.192 8.207-15.192 8.207-3.58 7.422-3.492 11.613c0 0-3.405-1.31-3.056-2.969s2.357-6.025 1.746-8.12c-.611-2.096-2.881-1.484-2.881-1.484s-1.135 1.222.698 2.008l-.611 2.619-7.422 4.366 1.659 2.008s.087 15.367 9.168 17.375c0 0 4.802.349 10.477-10.477 0 0 3.056 5.413 2.008 10.128 0 0 9.954 5.413 23.574.698l.175-9.43s2.096 14.494 9.255 13.097c0 0 19.833-7.634 16.531-10.536-7.683-6.752-16.961-1.046-16.961-1.046-.45-9.808-1.271-22.494-2.538-23.867-2.096-2.27-8.557-1.048-9.837-3.958-1.281-2.91-.931-8.033.466-13.97s-5.704-10.128-5.704-10.128z" style="fill:#ffbe3c"/><path d="M185.108 171.559s7.13 1.804 12.718-.408l2.445 6.054h1.397s3.367-11.203-1.104-11.072c0 0-.017-3.637-7.823-3.484-6.705.132-9.03 4.486-7.633 8.91" style="fill:#464655"/><path d="M330.647 311.782s-1.863 8.266-.116 9.197 11.06.931 10.827-1.048-1.513-8.964-1.513-8.964zm-15.483-4.424s1.513 6.17-1.513 6.403c-3.027.233-20.14.116-20.606-.349-.466-.466-1.048-1.63-1.048-1.63l15.833-4.424z" style="fill:#965032"/><path d="M332.539 230.408s4.162 9.895 5.675 44.18c.403 9.122-.698 6.985 3.842 36.322l-5.388 2.813a5.07 5.07 0 0 1-4.967-.158l-5.245-3.179s2.561-32.829-5.821-51.689c0 0-4.424 8.149-4.424 14.203s.233 35.158.233 35.158-9.779 1.63-14.203 1.164c0 0 2.794-63.156 5.588-78.028z" style="fill:#eaf3f5"/><path d="M331.753 226.217s1.659 1.222.786 4.191c0 0-12.748 5.501-24.709.786 0 0-1.31-1.921.349-4.278z" style="fill:#be7855"/><path d="m327.388 169.638.262 1.921s.698 12.311-3.318 15.629c0 0-.873 2.532.524 3.755s15.192 8.207 15.192 8.207 3.58 7.422 3.493 11.613c0 0 3.405-1.31 3.056-2.969s-2.357-6.025-1.746-8.12c.611-2.096 2.881-1.484 2.881-1.484s1.135 1.222-.698 2.008l.611 2.619 7.421 4.366-1.659 2.008s-.087 15.367-9.168 17.375c0 0-4.802.349-10.477-10.477 0 0-3.056 5.413-2.008 10.128 0 0-9.954 5.413-23.574.698l-.175-9.43s-2.095 14.494-9.255 13.097c0 0-19.833-7.634-16.531-10.536 7.683-6.752 16.961-1.046 16.961-1.046.45-9.808 1.271-22.494 2.538-23.867 2.095-2.27 8.557-1.048 9.837-3.958 1.281-2.91.931-8.033-.466-13.97s5.704-10.128 5.704-10.128z" style="fill:#965032"/><path d="M327.65 171.559s-7.13 1.804-12.718-.408l-2.445 6.054h-1.397s-3.366-11.203 1.104-11.072c0 0 .017-3.637 7.823-3.484 6.705.132 9.03 4.486 7.633 8.91" style="fill:#464655"/><path d="M207.862 176.225c-.583-1.418.394-1.808.394-1.808s7.067-3.879 7.889-3.813c1.359.11 3.024 2.498 3.024 4.536s2.654 7.328 8.111 8.643c0 0-6.81 9.255-16.263 7.99 0-.001.634-6.331-3.155-15.548" style="fill:#eaf3f5"/><path d="M217.767 219.581c-2.094 0-3.792 1.811-3.792 4.044v46.247c0 11.176 5.239 50.292 41.91 61.468 36.671-11.176 41.91-50.292 41.91-61.468v-46.247c0-2.234-1.698-4.044-3.792-4.044z" style="fill:#82afff"/><path d="M297.795 269.872v-46.247c0-2.234-1.697-4.044-3.792-4.044h-38.118v39.116l36.837 36.837c4.079-10.765 5.073-20.828 5.073-25.662" style="fill:#ffe15a"/><path d="M213.975 269.872v-46.247c0-2.234 1.697-4.044 3.792-4.044h38.118v39.116l-36.837 36.837c-4.079-10.765-5.073-20.828-5.073-25.662" style="fill:#eaf3f5"/><path d="m231.171 294.338 9.697 10.255h27.008l5.726-7.339-6.586 2.635h-21.827z" style="fill:#8c5a28"/><path d="m241.614 281.104-1.48 14.928-6.737-2.572c.001 0 3.1-7.194 8.217-12.356" style="fill:#f5f5f5"/><path d="M254.91 275.19h.996v25.42h-.996zm9.21 2.15h.996v23.269h-.996zm-18.39 0h.996v23.269h-.996z" style="fill:#8c5a28"/><path d="M259.105 298.195h-7.391a.49.49 0 0 1-.491-.491v-4.381c0-.271.22-.491.491-.491h7.391c.271 0 .491.22.491.491v4.381c0 .271-.22.491-.491.491m0-7.15h-7.391a.49.49 0 0 1-.491-.491v-4.381c0-.271.22-.491.491-.491h7.391c.271 0 .491.22.491.491v4.381c0 .271-.22.491-.491.491m0-6.586h-7.391a.49.49 0 0 1-.491-.491v-4.381c0-.271.22-.491.491-.491h7.391c.271 0 .491.22.491.491v4.381a.49.49 0 0 1-.491.491m8.646 13.736h-6.262a.49.49 0 0 1-.491-.491v-4.381c0-.271.22-.491.491-.491h6.262c.271 0 .491.22.491.491v4.381c0 .271-.22.491-.491.491m0-6.583h-6.262a.49.49 0 0 1-.491-.491v-3.54c0-.271.22-.491.491-.491h6.262c.271 0 .491.22.491.491v3.54c0 .271-.22.491-.491.491m0-6.526h-6.262a.49.49 0 0 1-.491-.491v-2.814c0-.271.22-.491.491-.491h6.262c.271 0 .491.22.491.491v2.814a.49.49 0 0 1-.491.491m-18.395 13.109h-6.262a.49.49 0 0 1-.491-.491v-4.381c0-.271.22-.491.491-.491h6.262c.271 0 .491.22.491.491v4.381c0 .271-.22.491-.491.491m0-6.583h-6.262a.49.49 0 0 1-.491-.491v-3.54c0-.271.22-.491.491-.491h6.262c.271 0 .491.22.491.491v3.54c0 .271-.22.491-.491.491m0-6.526h-6.262a.49.49 0 0 1-.491-.491v-2.814c0-.271.22-.491.491-.491h6.262c.271 0 .491.22.491.491v2.814a.49.49 0 0 1-.491.491" style="fill:#f5f5f5"/><path d="M264.118 277.343v3.007l-4.426-1.531zm-18.383 0v3.007l-4.426-1.531zm9.209-2.161v3.007l-4.426-1.53z" style="fill:#ff4b55"/><path d="M289.147 303.4h-66.523a64 64 0 0 0 3.297 5.588h59.93a64 64 0 0 0 3.296-5.588" style="fill:#4173cd"/><path d="M285.85 308.988h-59.93a56.2 56.2 0 0 0 9.781 11.176h40.367a56 56 0 0 0 9.782-11.176" style="fill:#73af00"/><path d="M235.702 320.164c5.363 4.698 11.944 8.664 20.184 11.176 8.24-2.512 14.821-6.477 20.184-11.176z" style="fill:#ffe15a"/><path d="M248.707 261.98s-.41.143-.849.093c-.34-.147-1.036-.169-.616-1.459.204-.64.632-1.542.322-1.776l-.813-.942-1.95-2.258c-1.468-1.618-3.208-3.478-5.237-5.312l-3.122-2.834c-1.101-.928-2.119-1.969-3.319-2.834-.679-.357-1.541-.536-2.295-.815-.736-.297-1.197-.856-1.736-1.331l-3.096-2.859c-2.039-1.825-3.829-3.637-5.361-5.192a98 98 0 0 1-3.532-3.716 2.224 2.224 0 0 1 .111-3.096l2.483-2.396a2.224 2.224 0 0 1 3.098-.001c.91.88 2.157 2.126 3.588 3.663 1.5 1.587 3.247 3.441 4.997 5.544l2.746 3.197c.455.556.997 1.036 1.268 1.783.252.764.401 1.632.733 2.323.822 1.23 1.824 2.285 2.713 3.418l2.721 3.221c1.76 2.094 3.557 3.899 5.121 5.424l2.187 2.03.912.846c.223.318 1.14-.077 1.786-.258 1.305-.374 1.303.323 1.437.668.034.441-.123.846-.123.846z" style="fill:#be7855"/><path d="M221.34 266.38a2.094 2.094 0 0 1-1.683-3.339l19.907-27.007a2.095 2.095 0 0 1 3.372 2.488l-19.907 27.007a2.1 2.1 0 0 1-1.689.851" style="fill:#965032"/><path d="m237.292 234.249 10.361 6.869 4.423-6.17-9.662-7.8z" style="fill:#f5f5f5"/><path d="m264.825 231.594 26.551 32.743s3.732.17 3.223-2.799l-27.484-32.234z" style="fill:#965032"/><path d="M258.887 236.089s7.465-1.357 10.603-6.023l4.241 5.005s-6.956 4.92-7.634 10.264c0 0-5.683-1.526-7.21-9.246" style="fill:#eaf3f5"/><path d="M287.558 232.866c-.488 0-.957-.265-1.201-.726-.755-1.431-.885-2.725-.387-3.849.697-1.575 2.338-2.036 2.521-2.083.74-.164 1.466.254 1.654.975a1.356 1.356 0 0 1-.962 1.649c-.151.048-.596.244-.737.567-.133.318-.021.843.313 1.479a1.357 1.357 0 0 1-1.201 1.988m-21.812 20.201c0-.488-.265-.957-.726-1.201-1.431-.756-2.725-.885-3.849-.387-1.574.697-2.036 2.338-2.083 2.521-.164.74.254 1.466.975 1.654a1.356 1.356 0 0 0 1.649-.962c.048-.151.244-.596.567-.737.318-.132.843-.021 1.479.313a1.356 1.356 0 0 0 1.988-1.201" style="fill:#965032"/><path d="m288.463 229.812-24.996 24.543 5.882 6.56 24.43-24.656z" style="fill:#eaf3f5"/><path d="M161.505 194.435c1.674-.388 3.143 1.863 1.63 3.492s-5.887 4.574-7.218 4.307c-2.329-.465-3.958-5.587 5.588-7.799" style="fill:#ffbe3c"/><path d="M351.156 196.792c-1.553-.388-2.914 1.863-1.511 3.493s5.458 4.574 6.692 4.307c2.159-.466 3.67-5.588-5.181-7.8" style="fill:#965032"/><path d="M294.003 219.581c2.094 0 3.792 1.811 3.792 4.044v46.247c0 11.176-5.239 50.292-41.91 61.468-36.671-11.176-41.91-50.292-41.91-61.468v-46.247c0-2.233 1.698-4.044 3.792-4.044zm0-2.794h-76.236c-3.631 0-6.586 3.067-6.586 6.838v46.247c0 2.67.36 16.757 7.467 31.92 7.556 16.12 20.151 27.261 36.422 32.22l.814.248.815-.248c16.271-4.959 28.866-16.1 36.422-32.22 7.107-15.163 7.467-29.25 7.467-31.92v-46.247c.001-3.771-2.953-6.838-6.585-6.838" style="fill:#464655"/><path d="M322.974 331.995c-11.874-3.98-24.613-2.143-36.627 5.872-15.356 10.237-25.536 10.237-30.428 10.237s-15.072 0-30.428-10.237c-12.012-8.009-24.756-9.848-36.627-5.872v11.979c7.481-3.576 18.028-5.072 30.428 3.192 18.172 12.115 31.105 12.115 36.627 12.115s18.456 0 36.627-12.115c12.401-8.273 22.947-6.772 30.428-3.194z" style="fill:#eaf3f5"/><path d="M255.918 395.602c-78.57 0-142.493-63.923-142.493-142.493s63.923-142.493 142.493-142.493 142.493 63.923 142.493 142.493-63.923 142.493-142.493 142.493m0-279.399c-75.489 0-136.905 61.413-136.905 136.905s61.416 136.905 136.905 136.905S392.823 328.6 392.823 253.108c0-75.491-61.415-136.905-136.905-136.905" style="fill:#965032"/><path d="M100.037 264.983s-.582-17.462 16.182-17.462c0 0 .349 6.868-5.704 9.895-4.896 2.447-10.478 7.567-10.478 7.567" style="fill:#73af00"/><path d="M132.404 264.983s.582-17.462-16.182-17.462c0 0-.349 6.868 5.704 9.895 4.896 2.447 10.478 7.567 10.478 7.567m279.279-17.462s.582 17.462-16.182 17.462c0 0-.349-6.869 5.704-9.895 4.895-2.448 10.478-7.567 10.478-7.567" style="fill:#73af00"/><path d="M379.315 247.521s-.582 17.462 16.182 17.462c0 0 .349-6.869-5.704-9.895-4.895-2.448-10.478-7.567-10.478-7.567M264.591 412.075s-17.462.582-17.462-16.182c0 0 6.869-.349 9.895 5.704 2.448 4.895 7.567 10.478 7.567 10.478" style="fill:#73af00"/><path d="M264.591 379.707s-17.462-.582-17.462 16.182c0 0 6.869.349 9.895-5.704 2.448-4.895 7.567-10.478 7.567-10.478m-17.462-279.278s17.462-.582 17.462 16.182c0 0-6.868.349-9.895-5.704-2.448-4.896-7.567-10.478-7.567-10.478" style="fill:#73af00"/><path d="M247.129 132.796s17.462.582 17.462-16.182c0 0-6.868-.349-9.895 5.704-2.448 4.896-7.567 10.478-7.567 10.478M151.85 372.609s-12.759-11.936-.906-23.79c0 0 5.104 4.61 2.963 11.031-1.729 5.192-2.057 12.759-2.057 12.759" style="fill:#73af00"/><path d="M174.738 349.722s-11.936-12.759-23.79-.905c0 0 4.61 5.104 11.031 2.963 5.191-1.731 12.759-2.058 12.759-2.058m185.131-209.827s12.759 11.936.906 23.79c0 0-5.104-4.61-2.963-11.031 1.73-5.192 2.057-12.759 2.057-12.759" style="fill:#73af00"/><path d="M336.982 162.782s11.936 12.759 23.79.906c0 0-4.61-5.104-11.031-2.964-5.191 1.73-12.759 2.058-12.759 2.058m35.235 197.479s-11.936 12.759-23.79.905c0 0 4.61-5.104 11.031-2.964 5.192 1.732 12.759 2.059 12.759 2.059" style="fill:#73af00"/><path d="M349.33 337.374s-12.759 11.936-.905 23.79c0 0 5.104-4.61 2.964-11.031-1.732-5.191-2.059-12.759-2.059-12.759M139.503 152.242s11.936-12.759 23.79-.905c0 0-4.61 5.104-11.031 2.963-5.192-1.73-12.759-2.058-12.759-2.058" style="fill:#73af00"/><path d="M162.39 175.13s12.759-11.936.906-23.79c0 0-5.104 4.61-2.964 11.031 1.731 5.191 2.058 12.759 2.058 12.759m-47.15 148.819s-7.22-15.91 8.268-22.326c0 0 2.951 6.212-1.483 11.325-3.587 4.135-6.785 11.001-6.785 11.001" style="fill:#73af00"/><path d="M145.143 311.563s-6.145-16.356-21.633-9.941c0 0 2.306 6.479 9.057 6.959 5.46.388 12.576 2.982 12.576 2.982M396.48 188.554s7.22 15.911-8.267 22.326c0 0-2.951-6.212 1.483-11.325 3.586-4.134 6.784-11.001 6.784-11.001" style="fill:#73af00"/><path d="M366.577 200.941s6.145 16.356 21.633 9.941c0 0-2.306-6.479-9.057-6.959-5.46-.389-12.576-2.982-12.576-2.982m-43.02 195.931s-15.91 7.22-22.326-8.267c0 0 6.212-2.951 11.325 1.483 4.135 3.586 11.001 6.784 11.001 6.784" style="fill:#73af00"/><path d="M311.171 366.969s-16.356 6.145-9.941 21.633c0 0 6.479-2.306 6.959-9.057.388-5.46 2.982-12.576 2.982-12.576M188.163 115.632s15.91-7.22 22.326 8.268c0 0-6.212 2.951-11.325-1.483-4.135-3.587-11.001-6.785-11.001-6.785" style="fill:#73af00"/><path d="M200.549 145.535s16.356-6.145 9.941-21.633c0 0-6.479 2.306-6.959 9.057-.388 5.46-2.982 12.576-2.982 12.576m3.747 258.02s-16.356-6.145-9.941-21.633c0 0 6.479 2.306 6.959 9.057.388 5.459 2.982 12.576 2.982 12.576" style="fill:#73af00"/><path d="M216.682 373.651s-15.91-7.22-22.326 8.268c0 0 6.212 2.951 11.325-1.483 4.135-3.587 11.001-6.785 11.001-6.785m90.742-264.702s16.356 6.145 9.941 21.633c0 0-6.479-2.306-6.959-9.057-.388-5.459-2.982-12.576-2.982-12.576" style="fill:#73af00"/><path d="M295.038 138.853s15.91 7.22 22.326-8.268c0 0-6.212-2.951-11.325 1.483-4.135 3.586-11.001 6.785-11.001 6.785m108.125 168.963s-6.145 16.356-21.633 9.941c0 0 2.306-6.479 9.057-6.959 5.459-.388 12.576-2.982 12.576-2.982" style="fill:#73af00"/><path d="M373.259 295.43s-7.22 15.91 8.268 22.326c0 0 2.951-6.212-1.483-11.325-3.587-4.135-6.785-11.001-6.785-11.001m-264.702-90.742s6.145-16.356 21.633-9.941c0 0-2.306 6.479-9.057 6.959-5.459.388-12.576 2.982-12.576 2.982" style="fill:#73af00"/><path d="M138.461 217.074s7.22-15.91-8.268-22.326c0 0-2.951 6.212 1.483 11.325 3.586 4.135 6.785 11.001 6.785 11.001m-33.727 78.141s-3.978-17.013 12.464-20.284c0 0 1.683 6.668-3.664 10.818-4.323 3.356-8.8 9.466-8.8 9.466" style="fill:#73af00"/><path d="M136.48 288.9s-2.836-17.241-19.278-13.97c0 0 .997 6.805 7.525 8.592 5.279 1.446 11.753 5.378 11.753 5.378m270.505-71.611s3.978 17.013-12.464 20.284c0 0-1.683-6.668 3.664-10.818 4.324-3.356 8.8-9.466 8.8-9.466" style="fill:#73af00"/><path d="M375.24 223.604s2.836 17.24 19.278 13.97c0 0-.997-6.805-7.525-8.592-5.279-1.446-11.753-5.378-11.753-5.378m-80.417 183.773s-17.013 3.978-20.284-12.464c0 0 6.668-1.682 10.818 3.664 3.356 4.324 9.466 8.8 9.466 8.8" style="fill:#73af00"/><path d="M288.508 375.632s-17.24 2.836-13.97 19.278c0 0 6.805-.997 8.592-7.525 1.446-5.279 5.378-11.753 5.378-11.753m-71.611-270.506s17.013-3.978 20.284 12.464c0 0-6.668 1.683-10.818-3.664-3.356-4.323-9.466-8.8-9.466-8.8" style="fill:#73af00"/><path d="M223.212 136.872s17.24-2.836 13.97-19.278c0 0-6.805.997-8.592 7.525-1.446 5.279-5.378 11.753-5.378 11.753m-46.663 253.793s-14.843-9.218-5.529-23.156c0 0 5.905 3.526 5.058 10.241-.684 5.429.471 12.915.471 12.915" style="fill:#73af00"/><path d="M194.531 363.752s-14.196-10.186-23.51 3.753c0 0 5.517 4.106 11.397.755 4.755-2.711 12.113-4.508 12.113-4.508m140.64-241.913s14.843 9.218 5.529 23.156c0 0-5.905-3.526-5.059-10.241.685-5.429-.47-12.915-.47-12.915" style="fill:#73af00"/><path d="M317.188 148.752s14.196 10.186 23.51-3.753c0 0-5.517-4.106-11.397-.755-4.754 2.71-12.113 4.508-12.113 4.508m73.085 186.811s-9.218 14.843-23.156 5.529c0 0 3.526-5.905 10.241-5.059 5.429.685 12.915-.47 12.915-.47" style="fill:#73af00"/><path d="M363.36 317.58s-10.186 14.196 3.753 23.51c0 0 4.106-5.517.754-11.397-2.709-4.754-4.507-12.113-4.507-12.113M121.447 176.941s9.218-14.843 23.156-5.529c0 0-3.526 5.905-10.241 5.059-5.429-.685-12.915.47-12.915.47" style="fill:#73af00"/><path d="M148.36 194.923s10.186-14.196-3.753-23.51c0 0-4.106 5.517-.755 11.397 2.71 4.755 4.508 12.113 4.508 12.113m-17.211 155.159s-10.186-14.196 3.753-23.51c0 0 4.106 5.517.755 11.397-2.711 4.755-4.508 12.113-4.508 12.113" style="fill:#73af00"/><path d="M158.061 332.1s-9.218-14.843-23.156-5.529c0 0 3.526 5.905 10.241 5.059 5.429-.686 12.915.47 12.915.47m222.51-169.678s10.186 14.196-3.753 23.51c0 0-4.106-5.517-.754-11.397 2.71-4.755 4.507-12.113 4.507-12.113" style="fill:#73af00"/><path d="M353.659 180.404s9.218 14.843 23.156 5.529c0 0-3.526-5.905-10.241-5.059-5.429.685-12.915-.47-12.915-.47m-3.969 200.559s-14.196 10.185-23.51-3.753c0 0 5.517-4.106 11.397-.754 4.755 2.71 12.113 4.507 12.113 4.507" style="fill:#73af00"/><path d="M331.708 354.051s-14.843 9.218-5.529 23.156c0 0 5.905-3.525 5.059-10.241-.686-5.43.47-12.915.47-12.915M162.03 131.541s14.196-10.186 23.51 3.753c0 0-5.517 4.106-11.397.755-4.755-2.711-12.113-4.508-12.113-4.508" style="fill:#73af00"/><path d="M180.012 158.453s14.843-9.218 5.529-23.156c0 0-5.905 3.525-5.059 10.241.685 5.429-.47 12.915-.47 12.915m54.012 252.331s-17.24-2.836-13.97-19.278c0 0 6.805.997 8.592 7.525 1.446 5.279 5.378 11.753 5.378 11.753" style="fill:#73af00"/><path d="M240.338 379.039s-17.013-3.978-20.284 12.464c0 0 6.668 1.683 10.818-3.664 3.356-4.324 9.466-8.8 9.466-8.8m37.358-277.319s17.24 2.836 13.97 19.278c0 0-6.805-.997-8.592-7.525-1.446-5.279-5.378-11.753-5.378-11.753" style="fill:#73af00"/><path d="M271.381 133.465s17.013 3.978 20.284-12.464c0 0-6.668-1.683-10.818 3.664-3.355 4.324-9.466 8.8-9.466 8.8m139.011 144.623s-2.836 17.24-19.278 13.97c0 0 .997-6.805 7.525-8.592 5.279-1.446 11.753-5.378 11.753-5.378" style="fill:#73af00"/><path d="M378.647 271.773s-3.978 17.013 12.464 20.284c0 0 1.682-6.668-3.664-10.818-4.324-3.355-8.8-9.466-8.8-9.466m-277.319-37.357s2.836-17.241 19.278-13.97c0 0-.997 6.805-7.525 8.592-5.279 1.446-11.753 5.378-11.753 5.378" style="fill:#73af00"/><path d="M133.073 240.73s3.978-17.013-12.464-20.284c0 0-1.683 6.669 3.664 10.818 4.324 3.356 8.8 9.466 8.8 9.466" style="fill:#73af00"/></svg>
