<svg xmlns="http://www.w3.org/2000/svg" xml:space="preserve" viewBox="0 0 512 512" width="48" height="48"><path d="M400 0H112C50.144 0 0 50.144 0 112v288c0 61.856 50.144 112 112 112h288c61.827 0 111.952-50.097 111.999-111.913V111.913C511.953 50.097 461.828 0 400 0" style="fill:#ff4b55"/><path d="M305.477 261.891a3.89 3.89 0 0 0-3.891 3.891v143.96c0 11.672 7.782 50.58 81.707 62.253C457.219 460.322 465 421.414 465 409.742v-143.96a3.89 3.89 0 0 0-3.891-3.891z" style="fill:#f5f5f5"/><path d="M383.294 471.995c61.711-9.744 77.319-38.456 80.796-54.471H302.497c3.477 16.015 19.086 44.727 80.797 54.471" style="fill:#73af00"/><path d="M433.875 343.598s3.891-3.891 0-11.672l-50.581-2.263-50.581 2.263c-3.891 7.782 0 11.672 0 11.672-3.891 3.891-3.891 7.782-3.891 7.782h7.782l8.43 13.942 38.259 21.076 38.26-21.076 8.43-13.942h7.782c.001 0 .001-3.891-3.89-7.782" style="fill:#82afff"/><path d="M421.555 365.322s-2.432-5.35-8.916-4.701c0 0-3.567-4.701-9.565-3.404 0 0-6.971-4.053-11.024 3.404 0 0-12.889-1.31-13.578 8.504 0 0 20.062 30.241 20.549 30.566s23.993.162 23.993.162l10.863-11.985-10.701-15.413z" style="fill:#f5f5f5"/><path d="M383.781 374.887s-17.019-27.803-19.454-30.154c-2.351-2.27-6.971-4.377-11.673-.486 0 0-14.104-1.135-12.159 9.565l4.053 16.212s-3.567 11.186-5.188 12.321-7.62 4.215-7.62 4.215l3.405 13.456 45.393-2.27z" style="fill:#f0c850"/><path d="m403.396 362.728-.054.023-1.256-2.963a.967.967 0 0 0-1.288-.509l-8.444 3.723-10.043-16.441a1.45 1.45 0 0 0 .429-1.591 1.46 1.46 0 0 0-1.866-.885l-2.238.801-1.514-4.475a.98.98 0 0 0-1.233-.612.975.975 0 0 0-.61 1.235l1.525 4.508-2.393.857a1.462 1.462 0 0 0 .492 2.835c.085 0 .17-.029.255-.044l3.311 19.936-2.136.941a.97.97 0 0 0-.522 1.216l1.211 3.372c.029.568.028 1.525-.165 2.738l-13.582-23.298c.57-.357.855-1.051.62-1.707a1.457 1.457 0 0 0-1.866-.885l-2.238.801-1.514-4.475a.974.974 0 0 0-1.233-.612.975.975 0 0 0-.61 1.235l1.525 4.508-2.393.857a1.46 1.46 0 0 0-.882 1.866c.194.544.69.865 1.229.923l5.896 36.794c-.761.32-1.508.644-2.346.942 0 0-2.756 13.131-.648 13.78s23.831 7.295 23.831 7.295 29.992-14.266 30.64-14.591 1.945-9.727 1.945-9.727zm-1.841.79-2.511 1.079-.832-2.052 2.468-1.089zm-15.177 4.246 2.064-.91.793 1.956-2.186.939zm-1.123 2.754-2.442 1.049-.768-1.893 2.545-1.122zm5.766-2.475-.8-1.974 2.205-.973.809 1.996zm3.182-3.731 2.23-.983.825 2.034-2.239.961zm-13.703-16.99 10.061 16.471-4.81 2.121-6.177-18.26zm-3.471 1.243.714-.255 6.222 18.393-3.656 1.612zm3.237 21.893.761 1.876-2.401 1.031-.677-1.886zm-18.821-15.644 14.733 25.273c-.742 2.144-2.14 4.632-4.594 7.075l-10.856-32.091zm-3.638 1.302 1.088-.389 11.118 32.866c-1.685 1.399-3.783 2.749-6.364 3.988z" style="fill:#965032"/><path d="M437.401 326.029c-1.034-1.641-4.35-.939-4.35-.939s-.946-1.892-3.448-2.076c-2.502-.183-2.96 2.045-2.96 2.045s-.468-.349-3.224-.267-2.189 4.62-2.189 4.62-1.054 0-4.62-1.135c-3.567-1.135-5.917-.324-5.917-.324-.162-1.864-1.135-3.242-1.135-3.242-2.999 1.216-5.35-.162-5.917-1.216-.568-1.053.892-2.675.892-4.053s-1.905-1.317-2.574-2.533 0-1.885 1.763-2.675 3.404-3.708 2.31-6.079-4.256-1.945-4.256-1.945c1.094.182 2.006 2.249.243 2.675s-3.344-6.019-3.344-6.019c4.073 2.736 7.052 1.094 7.903-1.277s-1.398-4.012-1.398-4.012c-1.763 2.857-4.803.365-3.161-1.459s1.783-4.884 1.783-4.884c-3.648 1.783-5.917-.486-5.917-.486 4.783-3.323 3.404-8.025 3.404-8.025-1.783-.811-5.593-.162-5.593-.162.81-1.621.649-4.539.649-4.539-2.027-.324-4.296.973-4.296.973.649-2.269-.243-6.241-.243-6.241-1.459.243-4.215 1.054-4.215 1.054-1.135-2.594-4.296-4.134-4.296-4.134s-3.161 1.54-4.296 4.134c0 0-2.756-.811-4.215-1.054 0 0-.892 3.972-.243 6.241 0 0-2.27-1.297-4.296-.973 0 0-.162 2.918.649 4.539 0 0-3.81-.649-5.593.162 0 0-1.378 4.702 3.405 8.025 0 0-2.27 2.27-5.917.486 0 0 .142 3.06 1.783 4.884s-1.398 4.316-3.161 1.459c0 0-2.249 1.642-1.398 4.012.851 2.371 3.83 4.012 7.903 1.277 0 0-1.581 6.444-3.344 6.019-1.763-.426-.851-2.493.243-2.675 0 0-3.161-.426-4.256 1.945-1.094 2.371.547 5.289 2.31 6.079s2.432 1.459 1.763 2.675-2.573 1.155-2.573 2.533 1.459 2.999.891 4.053c-.567 1.054-2.918 2.432-5.917 1.216 0 0-.973 1.378-1.135 3.242 0 0-2.351-.811-5.917.324-3.567 1.135-4.62 1.135-4.62 1.135s.567-4.539-2.189-4.62-3.224.267-3.224.267-.458-2.228-2.96-2.045-3.448 2.076-3.448 2.076-3.317-.703-4.35.939c-1.034 1.641-1.155 4.134.79 5.167 1.945 1.034 7.113 5.35 7.113 5.35l7.295 3.161 25.533-11.308 13.375 3.526 13.375-3.526 25.533 11.308 7.295-3.161s5.168-4.316 7.113-5.35c1.943-1.033 1.823-3.526.789-5.167" style="fill:#ff4b55"/><path d="M375.328 284.824s.275 3.433 5.356 2.518c.001 0-.137-3.571-5.356-2.518" style="fill:#f5f5f5"/><path d="M356.531 420.442s-3.648-.122-7.417 2.675-5.431.81-9.2.81-4.661 3.931-4.661 3.931-7.295 1.824-4.377 7.174c1.845 3.384 4.414 3.312 6.057 2.804-.083 2.273.434 4.772 3.062 5.221 4.985.851 7.174-1.824 6.079-5.958 0 0 .608 4.256 3.891 4.134s5.471-1.945 5.107-6.322c-.365-4.377 5.471-1.702 9.97-8.146z" style="fill:#ff4b55"/><path d="M335.211 436.086s-2.27 2.999-1.621 5.917c0 0-4.863-1.54-2.27-8.754 0 0 3.326-.892 3.891 2.837m7.641 3.931s-1.337 3.769.486 7.113c0 0-6.079-.182-4.864-7.66 0 0 1.945-2.006 4.378.547m6.078-.365s1.094 3.161 0 6.201c0 0 4.985-.304 4.134-7.478.001.001-2.673-.972-4.134 1.277" style="fill:#82afff"/><path d="M344.492 366.943c-.46-3.749-23.953-5.958-22.494 13.78 0 0-2.606-.048-3.888 2.378s-4.028 1.831-4.852.961c0 0 .183 4.394 5.63 4.211 0 0-1.724 1.358-1.48 3.342s1.678 4.486 1.587 6.195c-.092 1.709-1.709 4.089-1.709 4.089s4.181-1.434 4.455-4.425c.275-2.991-.397-5.493.427-7.019 0 0-.397 2.106 1.465 4.761s1.953 5.89 1.19 7.904c0 0 4.639-2.289 3.754-6.714s-1.831-4.028-1.404-6.5c0 0 4.822 4.913 3.998 9.094 0 0 1.541-1.846 1.404-5.325s-2.552-5.819-2.552-5.819 16.05-8.025 14.469-20.913m65.565 53.499s3.648-.122 7.417 2.675 5.431.81 9.2.81 4.661 3.931 4.661 3.931 7.295 1.824 4.377 7.174c-1.845 3.384-4.414 3.312-6.057 2.804.083 2.273-.434 4.772-3.062 5.221-4.985.851-7.174-1.824-6.079-5.958 0 0-.608 4.256-3.891 4.134s-5.471-1.945-5.107-6.322c.365-4.377-5.471-1.702-9.97-8.146z" style="fill:#ff4b55"/><path d="M431.375 436.086s2.27 2.999 1.621 5.917c0 0 4.864-1.54 2.27-8.754 0 0-3.323-.892-3.891 2.837m-7.64 3.931s1.338 3.769-.486 7.113c0 0 6.079-.182 4.864-7.66-.001 0-1.946-2.006-4.378.547m-6.079-.365s-1.094 3.161 0 6.201c0 0-4.985-.304-4.134-7.478.001.001 2.676-.972 4.134 1.277" style="fill:#82afff"/><path d="M422.094 366.943c.46-3.749 23.953-5.958 22.494 13.78 0 0 2.606-.048 3.888 2.378s4.028 1.831 4.852.961c0 0-.183 4.394-5.63 4.211 0 0 1.724 1.358 1.48 3.342s-1.678 4.486-1.587 6.195 1.709 4.089 1.709 4.089-4.181-1.434-4.455-4.425c-.275-2.991.397-5.493-.427-7.019 0 0 .397 2.106-1.465 4.761-1.861 2.655-1.953 5.89-1.19 7.904 0 0-4.638-2.289-3.753-6.714s1.831-4.028 1.404-6.5c0 0-4.822 4.913-3.998 9.094 0 0-1.541-1.846-1.404-5.325s2.552-5.819 2.552-5.819-16.051-8.025-14.47-20.913" style="fill:#ff4b55"/><path d="M431.706 333.301a1.936 1.936 0 0 0-2.696.551c-1.231 1.858-2.852 2.945-4.955 3.321-6.961 1.208-16.998-5.646-19.912-7.789-4.224-3.105-9.443-3.644-12.907-1.51-1.383.457-5.608 1.79-7.941 1.79s-6.558-1.333-7.941-1.79c-3.464-2.134-8.683-1.595-12.907 1.51-2.914 2.143-12.951 8.997-19.912 7.789-2.103-.376-3.724-1.463-4.955-3.321a1.936 1.936 0 0 0-2.696-.551 1.943 1.943 0 0 0-.549 2.694c1.824 2.758 4.352 4.442 7.518 5.008.8.144 1.617.209 2.449.209 7.424 0 15.825-5.297 20.448-8.69 3.437-2.523 7.29-2.519 9.024-1.056.439.372.937.958.817 1.645-.065.376-.312.714-.724.999a1.945 1.945 0 0 0-3.293-1.695c-.99.984-1.098 2.584-.264 3.883.838 1.303 2.643 2.257 4.788 1.463 1.09-.406 1.961-1.182 2.564-2.133 2.956-.86 5.633-.866 5.633-.866s2.677.006 5.633.866c.603.951 1.475 1.727 2.564 2.133 2.145.794 3.95-.159 4.787-1.463.834-1.299.726-2.899-.264-3.883a1.945 1.945 0 0 0-3.293 1.695c-.412-.285-.659-.623-.724-.999-.12-.688.378-1.273.817-1.645 1.735-1.463 5.587-1.467 9.024 1.056 4.622 3.393 13.023 8.69 20.448 8.69.832 0 1.649-.065 2.449-.209 3.165-.566 5.694-2.249 7.517-5.008a1.943 1.943 0 0 0-.547-2.694" style="fill:#ffe15a"/><path d="M333.721 335.45s-.32-4.349-.458-5.768c-.137-1.419-2.792-2.472-3.799-1.053s-1.282 4.029 4.257 6.821m.938-1.396s3.83-3.1 3.344-4.742-1.52-2.493-2.797-2.006c-1.276.486-1.883 3.465-.547 6.748m7.477-2.432c.55-.55.729-3.222-.79-3.526s-3.526 2.067-3.405 4.985c.002 0 3.161-.426 4.195-1.459m-1.581 1.52c-1.764.564-3.465 2.067-3.465 2.067s3.161 2.31 5.35 1.581 1.156-4.621-1.885-3.648" style="fill:#82afff"/><path d="M391.258 284.824s-.275 3.433-5.356 2.518c.002 0 .14-3.571 5.356-2.518" style="fill:#f5f5f5"/><path d="M432.867 335.45s.321-4.349.458-5.768 2.792-2.472 3.799-1.053c1.009 1.42 1.282 4.029-4.257 6.821m-.937-1.396s-3.83-3.1-3.344-4.742 1.52-2.493 2.797-2.006c1.276.486 1.883 3.465.547 6.748m-7.479-2.432c-.551-.55-.729-3.222.79-3.526s3.526 2.067 3.404 4.985c.001 0-3.161-.426-4.194-1.459m1.58 1.52c1.764.564 3.465 2.067 3.465 2.067s-3.161 2.31-5.35 1.581-1.154-4.621 1.885-3.648" style="fill:#82afff"/><path d="m381.281 292.915 1.543 1.543c.259.259.68.259.939 0l1.543-1.543a.664.664 0 0 0-.469-1.133h-3.086a.664.664 0 0 0-.47 1.133" style="fill:#464655"/><path d="M380.474 299.242c-1.144 0-2.133-.41-2.806-1.167-.695-.786-.992-1.869-.815-2.971.063-.369.433-.593.781-.562.372.061.623.41.564.783-.112.695.066 1.368.49 1.847.437.49 1.104.718 1.924.707 1.71-.068 1.997-1.74 2.008-1.809l-.008-3.051a.68.68 0 1 1 1.36 0v3.158c-.165 1.091-1.056 2.971-3.307 3.063q-.096.003-.191.002" style="fill:#464655"/><path d="M386.112 299.242q-.095.001-.192-.004c-2.251-.091-3.142-1.972-3.3-2.956l-.008-3.264a.68.68 0 1 1 1.36 0v3.158c.023.068.342 1.638 2 1.702.844.015 1.486-.209 1.924-.707.424-.479.602-1.151.49-1.847a.684.684 0 0 1 .564-.783c.355-.046.72.19.781.562.177 1.102-.12 2.185-.815 2.971-.669.757-1.658 1.168-2.804 1.168" style="fill:#464655"/><path d="M406.638 398.069s-4.863-7.782-10.538-2.594-7.782 11.51-14.266 11.024c-3.559-.267-5.376-1.892-6.32-3.312 1.723-1.418 2.945-3.573 1.619-6.74-2.918-6.971-13.618-4.863-16.536 2.756 0 0 3.405-11.186-8.43-7.457 0 0-1.459-7.782-8.268-5.674-3.702 1.146-5.073 3.425-5.581 5.281-1.432-.333-3.272-.322-4.957 1.041l8.592 23.183 12.969.162 2.918 4.377 17.022 10.7 3.08 6.485h10.7s.81-6.647 6.485-8.592c5.674-1.945 14.915-5.999 15.887-9.565l.973-3.566 10.376.162c1.135-.811 8.754-13.293 8.754-13.293l3.537-16.078c-1.951-.283-24.295-3.182-28.016 11.7m28.047-11.834-.03.134.192.028z" style="fill:#f5f5f5"/><path d="M364.073 422.927c-4.204-1.695-5.705-4.069-6.224-5.335-.483-1.17-.388-1.999-.257-2.302.268-.619.593-1.014.895-1.09.285-.068.646.095.711.137.137.156.209.65.078.771a1.947 1.947 0 0 0-.084 2.751 1.95 1.95 0 0 0 2.751.084c.8-.752 1.258-1.805 1.29-2.964.036-1.243-.418-2.481-1.212-3.317-.796-.844-2.432-1.611-4.176-1.299-.359.063-.764.21-1.178.41.273-2.695-.766-4.075-1.529-4.632-1.282-.931-3.108-.954-4.643-.053-1.571.923-2.42 2.538-2.213 4.21.133 1.068 1.204 1.706 2.247 1.562 1.066-.129 1.904-1.231 1.773-2.295.22-.201.511-.27.501-.315.004.004.26.429-.049 1.801-.484 2.151-1.622 3.473-3.382 3.936-2.19.604-4.996-.319-6.655-2.139-2.306-2.538-7.134-16.008-10.004-24.979 12.305-5.836 13.817-15.533 13.584-20.936-.355-8.23-5.28-16.65-10.755-18.386-2.154-.68-5.382-.821-7.725.388-1.326.691-2.247 1.752-2.662 3.07-.845 2.69.847 4.913 2.871 5.639 2.096.752 4.21-.152 5.023-2.154.403-.996-.036-2.135-1.032-2.538-1.001-.414-2.09.072-2.493 1.064-.082.046-.351-.057-.553-.285-.146-.167-.177-.331-.104-.555.065-.205.211-.509.747-.786 1.271-.665 3.397-.562 4.753-.133 3.133.992 7.707 7.12 8.042 14.845.199 4.616-1.203 13.078-12.82 17.9a1.946 1.946 0 0 0-1.111 2.379c.758 2.428 7.525 23.869 11.359 28.083 2.061 2.268 5.179 3.587 8.158 3.587.807 0 1.605-.095 2.369-.296 1.299-.344 2.385-1.014 3.328-1.856a8.6 8.6 0 0 0 .559 2.175c.752 1.831 2.838 5.236 8.663 7.584 11.783 4.727 12.902 7.888 12.837 9.032a1.3 1.3 0 0 1-.688 1.117 1.4 1.4 0 0 1-.361.144 1.95 1.95 0 0 0 .129-2.101 1.943 1.943 0 0 0-2.646-.749c-1.324.741-2.247 2.485-1.455 4.392.617 1.482 2.061 2.379 3.731 2.379q.402 0 .819-.072c2.422-.41 4.212-2.42 4.354-4.886.343-5.909-8.553-10.176-15.561-12.987m38.443 0c4.204-1.695 5.705-4.069 6.224-5.335.483-1.17.388-1.999.257-2.302-.268-.619-.593-1.014-.895-1.09-.285-.068-.646.095-.711.137-.137.156-.209.65-.078.771.783.737.819 1.968.084 2.751a1.95 1.95 0 0 1-2.751.084c-.8-.752-1.258-1.805-1.29-2.964-.036-1.243.418-2.481 1.212-3.317.796-.844 2.432-1.611 4.176-1.299.359.063.764.21 1.178.41-.273-2.695.766-4.075 1.529-4.632 1.282-.931 3.108-.954 4.643-.053 1.571.923 2.42 2.538 2.213 4.21-.133 1.068-1.204 1.706-2.247 1.562-1.066-.129-1.904-1.231-1.773-2.295-.22-.201-.511-.27-.501-.315-.004.004-.26.429.049 1.801.484 2.151 1.622 3.473 3.382 3.936 2.19.604 4.996-.319 6.655-2.139 2.306-2.538 7.134-16.008 10.004-24.979-12.305-5.836-13.817-15.533-13.584-20.936.355-8.23 5.28-16.65 10.755-18.386 2.154-.68 5.382-.821 7.725.388 1.326.691 2.247 1.752 2.662 3.07.845 2.69-.847 4.913-2.871 5.639-2.095.752-4.21-.152-5.023-2.154-.403-.996.036-2.135 1.032-2.538 1.001-.414 2.09.072 2.492 1.064.082.046.352-.057.553-.285.146-.167.177-.331.104-.555-.065-.205-.211-.509-.747-.786-1.271-.665-3.397-.562-4.753-.133-3.133.992-7.708 7.12-8.042 14.845-.199 4.616 1.203 13.078 12.82 17.9a1.946 1.946 0 0 1 1.111 2.379c-.758 2.428-7.525 23.869-11.359 28.083-2.061 2.268-5.179 3.587-8.158 3.587a9.3 9.3 0 0 1-2.369-.296c-1.299-.344-2.385-1.014-3.328-1.856a8.6 8.6 0 0 1-.559 2.175c-.752 1.831-2.838 5.236-8.663 7.584-11.783 4.727-12.902 7.888-12.837 9.032.036.627.395.954.688 1.117.127.072.253.118.361.144a1.95 1.95 0 0 1-.129-2.101 1.943 1.943 0 0 1 2.647-.749c1.324.741 2.247 2.485 1.455 4.392-.617 1.482-2.061 2.379-3.731 2.379a4.7 4.7 0 0 1-.819-.072c-2.422-.41-4.212-2.42-4.354-4.886-.343-5.909 8.553-10.176 15.561-12.987" style="fill:#ffe15a"/><path d="M94.318 1.395C67.939 5.579 44.629 18.971 27.781 38.177L94.318 81.77zM7.023 72.899a111 111 0 0 0-5.626 21.417h38.315zM.002 161.684v26.017l39.71-26.017zM256 19.977V0h-94.314v81.77zm0 167.724v-26.017h-39.71zM161.686 256H256v-19.977l-94.314-61.793zM256 94.316V68.299l-39.71 26.017zM94.318 174.23.002 236.023V256h94.316z" style="fill:#41479b"/><path d="M148.213 256h13.473v-81.77L256 236.023v-19.964l-83.768-54.375h24.748L256 199.995v-12.294l-39.71-26.017H256V148.21H148.213zm-53.895 0h13.474V148.21H.002v13.474h39.71L.002 187.701v18.901l69.197-44.918h24.748L.002 222.666v13.357l94.316-61.793zM107.792.087c-4.566.169-9.063.608-13.474 1.308V81.77L27.781 38.177a112.4 112.4 0 0 0-10.872 14.637l63.935 41.502H56.096L10.463 64.694q-1.878 4.02-3.44 8.205l32.689 21.417H1.397c-.7 4.411-1.139 8.907-1.308 13.474h107.703zM256 107.79V94.316h-39.71L256 68.299V49.157l-69.566 45.159h-24.748L256 33.093V19.977L161.686 81.77V0h-13.473v107.79z" style="fill:#f5f5f5"/><path d="M107.792 256h40.421V148.21H256v-40.42H148.213V0h-36.211c-1.41 0-2.813.035-4.21.087V107.79H.089c-.052 1.397-.087 2.8-.087 4.21v36.21h107.79z" style="fill:#ff4b55"/><path d="M69.199 161.684.002 206.602v16.064l93.945-60.982zm103.033 0L256 216.059v-16.064l-59.02-38.311zM80.844 94.316 16.909 52.814a112 112 0 0 0-6.447 11.88l45.634 29.622zm105.59 0L256 49.157V33.093l-94.314 61.223z" style="fill:#ff4b55"/></svg>
