<svg xmlns="http://www.w3.org/2000/svg" xml:space="preserve" viewBox="0 0 498.373 498.373" width="48" height="48"><path d="M466.442 31.931 31.931 466.441c19.729 19.729 46.983 31.931 77.088 31.931h280.335c60.21 0 109.019-48.809 109.019-109.019V109.019c0-30.105-12.203-57.36-31.931-77.088" style="fill:#ff6e55"/><path d="M389.354 0H109.019C48.809 0 0 48.81 0 109.019v280.335c0 30.105 12.202 57.36 31.931 77.088L466.442 31.931C446.713 12.203 419.458 0 389.354 0" style="fill:#ffe15a"/><path d="M287.103 133.341c-6.59 1.412-16.945-2.118-16.945-2.118 2.133 3.674 7.838 6.147 12.983 7.705a116 116 0 0 1-14.16.532c-21.181-.471-31.065 13.414-31.065 13.414 7.531-4.707 15.297-4.707 26.828-3.06 11.532 1.648 36.006-5.649 36.006-5.649l2.118-9.414c.001.003-9.177-2.822-15.765-1.41" style="fill:#fff5dc"/><path d="M308.87 89.216s10.951 2.321 22.067 8.698q-1.003.528-1.919 1.284c-3.592-1.785-7.931-3.231-13.559-3.805 0 0 5.826 1.515 11.422 5.899-1.45 1.707-2.643 3.648-3.563 5.375-12.312-13.202-25.627-4.391-25.627-4.391 16.517-1.257 20.414 9.357 21.342 14.482-3.198-2.138-6.211-3.899-9.038-5.333.415-.311.626-.59 1.11-.91 0 0-1.035.041-2.469.255-21.079-10.131-31.421-2.139-31.421-2.139 9.361-1.145 18.012 1.291 24.877 4.32-3.017 1.737-5.06 4.795-3.374 9.996-11.822-3.217-26.679-6.385-33.976-4.432-13.18 3.53-8.943 15.768-8.943 15.768s.236-8.237 9.178-10.12c6.695-1.409 40.008 9.178 40.008 9.178l10.825-5.176-4.471-3.766s-8.594-3.449-4.908-9.377c6.161 3.284 10.085 6.553 10.085 6.553l2.649-3.871c.129 1.001.175 1.753.175 1.753l7.531-3.294 1.647-2.354c.66-3.573 1.751-6.112 3.005-8.013a24.66 24.66 0 0 1 4.879 10.307l6.825.706s-1.109-7.889-8.745-14.163c.677-.483 1.346-.88 2.005-1.148 5.029 3.608 9.719 8.122 12.975 13.781l12.591-.176c.004.001-20.706-23.063-53.183-25.887M441.712 190.51c10.119 15.883-6.721 32.723-22.605 22.605a9.15 9.15 0 0 1-2.797-2.798c-10.119-15.883 6.721-32.723 22.605-22.605a9.2 9.2 0 0 1 2.797 2.798M409.16 319.723c13.76 21.381-8.985 44.126-30.367 30.367a11.9 11.9 0 0 1-3.558-3.558c-13.76-21.381 8.985-44.126 30.367-30.367a11.9 11.9 0 0 1 3.558 3.558m-164.714-7.379c10.76 16.888-7.147 34.795-24.035 24.035a9.75 9.75 0 0 1-2.975-2.975c-10.76-16.888 7.147-34.795 24.035-24.035a9.7 9.7 0 0 1 2.975 2.975m-36.466 78.003c12.421 19.498-8.25 40.17-27.748 27.748a11.3 11.3 0 0 1-3.434-3.434c-12.421-19.498 8.25-40.17 27.748-27.748a11.3 11.3 0 0 1 3.434 3.434M376.766 159.23s36.253 12.92 45.008 17.297c12.355 6.178 31.77-11.826 45.362 2.118 0 0-2.354-9.296-13.65-10.002 0 0 .236-9.178-10.355-8.708 0 0 7.767 5.649 3.295 9.649 0 0-3.059-6.825-11.767-5.649 0 0 6.59 2.589 4.942 6.59 0 0-10.473 5.06-15.179 1.765-4.707-3.295-41.891-23.357-53.657-23.828z" style="fill:#fff5dc"/><path d="M367.47 170.526s7.766 2.294 19.063 14.12c5.236 5.481 18.709 5.825 16.591-4.766-2.118-10.59-28.241-17.121-31.065-17.121s-4.589 7.767-4.589 7.767" style="fill:#f5f5f5"/><path d="m424.069 147.227-14.827 4.942s1.647 10.061-6.825 14.473c-5.218 2.718-8.707 9.766-8.472 14.943 0 0 4.942-6.824 12.002-10.59 1.663-.887 3.195-1.664 4.591-2.453-.28 3.528-.356 7.232.116 10.455 1.412 9.648-1.648 12.943-1.648 12.943s8.237-6.354 7.296-16.708c-.362-3.978.291-6.797 1.304-8.937.729 7.211 4.58 10.585 4.58 10.585-2.824-5.649 3.059-11.768 5.413-16.71s-3.53-12.943-3.53-12.943m37.478-20.474c-5.837-1.986-11.472 1.589-14.827 4.59-1.427 1.277-5.191 1.926-9.041 2.275 2.571-1.819 5.306-3.966 6.746-5.805 3.177-4.06 9.002-4.766 13.944-6.354s7.06-7.943 7.06-7.943-2.648 3.883-10.061 3.53-9.884-.706-14.827 4.59c-1.518 1.627-3.648 2.887-5.854 3.898.047-2.314.247-5.256.912-7.252 1.235-3.707 6.884-6.707 7.237-14.12s.706-6.708 4.942-11.12 5.471-12.709 4.236-10.061-6.884 5.825-11.649 10.237c-4.766 4.412-1.412 9.354-3.883 13.238-2.471 3.883-8.295 4.766-8.649 12.002s-5.471 11.472-5.471 11.472-12.532 6.884 2.471 12.355 27.14-9.751 34.595-9.355c16.591.883 21.004-4.59 21.004-4.59-2.824.001-10.061 1.414-18.885-1.587M279.571 243.01c-.941-.706-17.18-18.592-22.592-21.181l1.177 4.472s-3.53-.236-9.884-8.001c-6.354-7.767-11.061-9.884-11.061-9.884s4.472 7.06 4.236 11.532c0 0-9.649-.706-20.004 4.236 0 0-4.706-9.178-8.708-10.826 0 0 1.412 9.649-1.883 12.002s31.065 18.592 35.771 19.063c4.708.469 32.948-1.413 32.948-1.413m21.416-35.065c-.335-.084-2.071 1.138-4.312 2.738-.991-5.714-2.983-17.27-2.983-17.8 0-.706-16.003-23.062-16.474-24.005-.008-.017-.061-.018-.072-.033 1.554-3.759 3.228-10.158-6.281-5.145-12.944 6.825-18.121 22.592-18.121 22.592 2.951-3.079 8.1-5.428 12.21-6.956.085 1.92.1 4.199-2.561 8.133-5.413 8-2.354 11.061-2.354 11.061 4.236-7.296 13.65-8.002 13.65-8.002-1.412 8.708 3.53 13.65 3.53 13.65l4.001-4.706c-.493 6.738 3.114 13.967 5.354 17.766-.886.427-1.694.755-2.294.824-4.001.471-10.355 3.53-10.355 3.53s5.149-1.098 8.074 1.161c2.923 2.258 7.575 3.987 10.1 3.456 0 0-1.196 6.113.133 8.373 0 0-3.322-.932-7.177-.798-3.855.133-6.659-2.542-6.659-2.542s7.06 10.118 12.238 12.236c5.177 2.118 14.12-5.649 14.12-5.649s-2.826-29.65-3.767-29.884m-121.67 147.558s-4.472.471-8.708 6.824l-1.883-6.59s-5.177 3.765-10.826 1.412c0 0 5.177-1.177 6.119-5.883.941-4.706 2.824-5.177 2.824-5.177s-3.53-3.765-7.296-3.53c0 0 10.355-5.413 16.003-.236 5.649 5.177 3.767 13.18 3.767 13.18m124.494-52.011s-4.472.471-8.708 6.824l-1.883-6.59s-5.177 3.765-10.825 1.412c0 0 5.177-1.177 6.119-5.883.941-4.707 2.824-5.177 2.824-5.177s-3.53-3.765-7.296-3.53c0 0 10.355-5.413 16.003-.236 5.648 5.179 3.766 13.18 3.766 13.18m76.333-66.952s-2.183 3.931.585 11.048l-6.475-2.244s.108 6.401-5.063 9.673c0 0 2.011-4.915-1.301-8.389s-2.616-5.285-2.616-5.285-5.11.727-7.08 3.944c0 0 1.517-11.585 8.999-13.235s12.951 4.488 12.951 4.488" style="fill:#fff5dc"/><path d="m402.804 316.072 4.556 2.717c-1.326-1.139-2.899-1.993-4.556-2.717" style="fill:#ff6e55"/><path d="M145.9 338.793s-20.945 29.418-44.95 35.772l8.472-10.826s-11.296 9.884-24.005 12.002l15.297-17.65s-34.124 31.77-77.897 38.36c0 0 33.888-21.415 40.714-28.947 0 0-16.474 6.59-31.3 6.825 0 0 42.596-16.474 49.656-23.063 0 0-16.945 3.765-27.534.236 0 0 36.713-10.59 41.891-9.178 0 0-21.181-8.472-33.888-7.531 0 0 21.651-5.177 46.832 0l-5.413-5.883s14.355-3.765 28.476-4.706 7.06-2.118 7.06-2.118l1.647-4.707s-9.178 1.177-16.709 0c0 0 22.592-12.708 28.946-18.356s2.118-3.059 2.118-3.059-11.767 4.001-16.003 4.706c0 0 10.59-12.237 13.885-20.24 0 0-9.649 3.765-17.886 0 0 0 9.884-2.824 14.827-7.766s12.237-17.239 12.237-17.239l-8.472 3.707s7.413-12.709 13.944-15.886c0 0-11.12.883-14.649-1.765 0 0 11.826-2.824 15.356-5.649 3.53-2.824 11.296-10.237 19.239-7.413 0 0 11.12-10.237 7.413-16.945 0 0 7.237.53 10.943 4.942 3.707 4.412 9.531 8.119 9.531 8.119l-30.241 23.651-23.063 74.838z" style="fill:#fff5dc"/><path d="M442.19 197.589c8.708 14.12-2.118 15.532-2.118 15.532-1.647-13.414-12.943-11.766-12.943-11.766l3.059 9.884c-18.826 2.354-17.415-16.475-17.415-16.475-2.824 2.354-7.531 12.002-7.531 12.002s-50.833 16.946-85.194-33.416c0 0-.941-8.943 1.884-13.18l-21.181-16.002-27.3 3.766s-10.825 24.475 2.354 39.537 28.711 36.241 25.887 46.126c-1.674 5.859-6.656 8.246-13.573 7.746-4.752-.343-10.417-2.047-16.55-4.922-15.062-7.06-51.775-22.121-78.133-9.884-26.357 12.238-29.217 33.414-34.359 49.893-4.552 14.588-14.653 51.827-86.615 85.803-3.437 1.623-1.689 6.848 2 5.931 31.194-7.757 73.72-20.677 86.85-35.959l10.59.353-3.883 16.238s13.768 4.236 15.886 24.357c0 0-24.122 6.589-10.473 27.299 0 0 2.118-15.062 18.826-15.768 0 0 3.766 4.942 12.002 5.649 0 0 4.236 6.825 2.118 12.474 0 0 16.709-5.177 2.589-25.182 0 0 15.768-3.764 17.885 16.004 0 0 10.12-32.007-26.005-29.653 0 0 0-5.648-9.531-15.886 0 0-2.354-5.766 0-13.768a97 97 0 0 0 1.883-7.454c1.961 1.088 4.981 2.376 8.942 2.512 0 0 5.884 9.648 23.299 8 0 0-12.709-5.882-11.532-17.178s16.003-17.416 22.358-12.944c0 0-1.648-14.827-24.71-5.177 0 0 0-11.061 12.237-11.766 0 0-19.768-15.062-24.239 13.65l-8.18 2.045c-3.997-11.08-9.059-36.803 13.357-46.171 23.651-9.885 48.362 12.355 92.135 14.473 0 0-4.236 25.769 9.885 32.124 14.12 6.354 48.715 12.355 48.715 12.355-.353 37.183 26.711 32.24 26.711 32.24-13.135-7.871-13.135-22.888-5.028-31.659 11.05-11.955 30.209-.581 30.209-.581-.27-18.098-25.652-15.298-25.652-15.298 4.001-11.766 19.768-14.827 19.768-14.827-21.887-8-40.008 15.651-40.008 15.651l-37.065-10.59s-1.412-7.413 7.413-17.297 16.238-26.476 13.768-44.126c0 0 10.237-7.179 22.946-.119 12.708 7.06 40.008-8.472 40.008-8.472 11.767 15.061 39.771 12.238 43.538-5.882 3.766-18.124-9.884-20.242-9.884-20.242" style="fill:#f5f5f5"/><path d="M403.359 154.288c-7.001-4.083-19.533-7.531-23.769 1.883s-8.943 18.827-23.534 18.356c-14.591-.47-21.181 12.002-31.3 8.472 0 0 9.414-3.059 11.296-7.531 1.883-4.472 9.414-12.709 9.414-12.709l-.941-8.472s-17.415.939-22.592 5.882-24.71-4.235-24.71-4.235l2.354-20.474s15.062-23.063 36.006-21.415 24.475-3.765 34.595-3.059 15.297 11.061 26.123 13.414c10.826 2.354 32.477-2.118 35.301 4.472s-5.413 9.178-7.531 18.356c-2.121 9.178-6.591 15.296-20.712 7.06" style="fill:#f5f5f5"/><path d="M342.171 148.404s-10.119 6.824-18.592 4.001c-8.472-2.824-16.003-1.883-24.71.941 0 0 16.003-1.883 22.592 4.236 6.59 6.119 23.299 2.118 24.475-.47z" style="fill:#fff5dc"/><path d="M347.348 164.171s-9.885 7.06-19.768 5.177-18.827 2.118-18.827 2.118 7.296-8.001 17.179-6.59c9.884 1.412 13.414-8.237 13.414-8.237l6.59.471z" style="fill:#fff5dc"/><path d="M366.025 147.279c8.315 13.218-5.642 27.174-18.859 18.859a7.95 7.95 0 0 1-2.489-2.489c-8.315-13.218 5.642-27.174 18.859-18.859a8 8 0 0 1 2.489 2.489" style="fill:#fff5dc"/><path d="M347.584 145.58s-5.177-6.59-18.121-4.001-16.003-2.118-16.003-2.118 6.119 9.414 15.768 8.237 13.65 5.413 13.65 5.413zm43.542-16.48c1.164-1.604 2.626-3.131 4.626-4.296 1.18-.686 2.394-1.119 3.595-1.477.268-1.786.005-3.714-1.014-5.464-2.224-3.819-6.85-5.268-10.332-3.24-3.481 2.029-4.501 6.767-2.276 10.586 1.251 2.146 3.266 3.437 5.401 3.891m-11.559 15.163c.663-1.868 1.632-3.747 3.222-5.43.937-.993 1.979-1.751 3.03-2.433-.249-1.789-1.046-3.564-2.519-4.954-3.214-3.033-8.061-3.115-10.826-.184s-2.402 7.764.813 10.797c1.805 1.703 4.103 2.372 6.28 2.204" style="fill:#fff5dc"/></svg>
