<svg xmlns="http://www.w3.org/2000/svg" xml:space="preserve" viewBox="0 0 512 512" width="48" height="48"><path d="M0 400c0 61.856 50.144 112 112 112h288c61.856 0 112-50.144 112-112v-58.667H0z" style="fill:#73af00"/><path d="M400 0H112C50.144 0 0 50.144 0 112v58.667h512V112C512 50.144 461.856 0 400 0" style="fill:#ff4b55"/><path d="M0 170.67h512v170.67H0z" style="fill:#ffe15a"/><path d="m238.597 179.617-.997 1.247a40 40 0 0 0-2.244 3.441c-1.749 3.051-3.583 7.781-3.632 13.42-.018 2.749.55 6.087 1.488 8.742 1.017 2.93 2.703 5.733 4.836 8.236 2.136 2.526 4.988 4.473 8.038 5.911 1.513.768 3.173 1.209 4.821 1.616.818.249 1.687.262 2.524.426.421.08.857.044 1.284.077l.643.029.322.016.161.009.08.004.04.002c-.13.004.347-.007-.281.01 1.044-.061 2.311-.069 3.172-.173.751-.175 1.383-.144 2.243-.4 1.648-.406 3.308-.848 4.821-1.616 3.05-1.438 5.902-3.386 8.038-5.911 2.132-2.503 3.819-5.305 4.836-8.236.973-2.982 1.493-5.833 1.486-8.754-.047-5.614-1.883-10.361-3.631-13.408a36 36 0 0 0-2.281-3.475l-.926-1.184-.081-.103a1.704 1.704 0 0 1 2.263-2.486l1.43.917c.882.661 2.249 1.599 3.722 3.112 2.956 2.927 6.794 8.141 8.178 15.719.685 3.626.76 8.013-.185 12.326-.916 4.356-2.773 8.86-5.772 12.802-2.945 3.959-6.903 7.461-11.609 9.823-2.32 1.238-4.848 2.137-7.44 2.762-1.242.365-2.819.516-4.224.737-1.316.145-2.252.147-3.398.228l-.446.002-.125-.006-.25-.012-.501-.025-1.001-.054c-.666-.054-1.336-.044-1.997-.159-1.317-.232-2.658-.34-3.943-.712-2.592-.626-5.12-1.524-7.44-2.762-4.706-2.362-8.664-5.864-11.609-9.823-2.999-3.942-4.856-8.447-5.772-12.802-.98-4.64-.857-8.541-.184-12.338 1.382-7.553 5.222-12.786 8.177-15.707 1.468-1.507 2.839-2.452 3.759-3.146l1.359-.854a1.72 1.72 0 0 1 2.367.54 1.73 1.73 0 0 1-.119 1.992" style="fill:#73af00"/><path d="M252.614 313.795v21.324c0 2.127-2.572 3.193-4.076 1.689l-1.173-1.173a5.2 5.2 0 0 1-1.522-3.675v-18.164h6.771z" style="fill:#ff4b55"/><path d="M242.456 310.409v15.477c0 .93.37 1.823 1.028 2.481l2.359 2.358v-20.317h-3.387z" style="fill:#ffe15a"/><path d="M239.07 310.409v8.307a4.47 4.47 0 0 0 1.309 3.161l2.077 2.077V310.41h-3.386z" style="fill:#73af00"/><path d="M259.386 313.795v21.324c0 2.127 2.572 3.193 4.076 1.689l1.173-1.173a5.2 5.2 0 0 0 1.522-3.675v-18.164h-6.771z" style="fill:#ff4b55"/><path d="M269.545 310.409v15.477c0 .93-.37 1.823-1.028 2.481l-2.359 2.358v-20.317h3.387z" style="fill:#ffe15a"/><path d="M272.931 310.409v8.307a4.47 4.47 0 0 1-1.309 3.161l-2.077 2.077V310.41h3.386z" style="fill:#73af00"/><path d="m272.931 249.46 37.247-27.089v55.707c0 15.986-12.959 28.945-28.945 28.945a28.95 28.95 0 0 1-15.341-4.4l-20.049-12.531v-41.103z" style="fill:#ff4b55"/><path d="M296.633 232.221v39.084c0 15.986-12.959 28.945-28.945 28.945-2.403 0-4.774-.347-7.082-.931l-14.764-9.228v-41.103l27.089.47z" style="fill:#ffe15a"/><path d="M286.475 239.609v25.232c0 15.986-12.959 28.945-28.945 28.945-2.403 0-4.774-.347-7.081-.931l-4.606-2.879v-40.988l27.089.47z" style="fill:#73af00"/><path d="m312.209 216.276 14.899-7.449-10.835 13.544h-6.095z" style="fill:#f5f5f5"/><path d="m293.247 266.39 37.247-27.089v55.707c0 15.986-12.959 28.945-28.945 28.945a28.95 28.95 0 0 1-15.341-4.4l-20.049-12.531V265.92z" style="fill:#ff4b55"/><path d="M306.791 256.54v25.232c0 15.986-12.959 28.945-28.945 28.945-2.403 0-4.774-.347-7.081-.931l-4.606-2.879V265.92l27.089.47z" style="fill:#73af00"/><path d="m332.526 233.206 14.899-7.449-10.836 13.544h-6.095z" style="fill:#f5f5f5"/><path d="m283.089 259.618 37.247-27.089v55.707c0 15.986-12.959 28.945-28.945 28.945a28.95 28.95 0 0 1-15.341-4.4L256 300.251v-41.103z" style="fill:#ff4b55"/><path d="M306.791 242.38v39.084c0 15.986-12.959 28.945-28.945 28.945-2.403 0-4.774-.347-7.081-.931L256 300.251v-41.103l27.089.47z" style="fill:#ffe15a"/><path d="M296.633 249.767v25.232c0 15.986-12.959 28.945-28.945 28.945-2.403 0-4.774-.347-7.082-.931L256 300.135v-40.988l27.089.47z" style="fill:#73af00"/><path d="m322.367 226.434 14.899-7.449-10.835 13.544h-6.095z" style="fill:#f5f5f5"/><path d="m239.07 249.46-37.247-27.089v55.707c0 15.986 12.959 28.945 28.945 28.945a28.95 28.95 0 0 0 15.341-4.4l20.049-12.531v-41.103z" style="fill:#ff4b55"/><path d="M215.367 232.221v39.084c0 15.986 12.959 28.945 28.945 28.945 2.403 0 4.774-.347 7.082-.931l14.764-9.228v-41.103l-27.089.47z" style="fill:#ffe15a"/><path d="M225.525 239.609v25.232c0 15.986 12.959 28.945 28.945 28.945 2.403 0 4.774-.347 7.082-.931l4.606-2.879v-40.988l-27.089.47z" style="fill:#73af00"/><path d="m199.791 216.276-14.899-7.449 10.836 13.544h6.095z" style="fill:#f5f5f5"/><path d="m218.753 266.39-37.247-27.089v55.707c0 15.986 12.959 28.945 28.945 28.945a28.95 28.95 0 0 0 15.341-4.4l20.049-12.531V265.92z" style="fill:#ff4b55"/><path d="M205.209 256.54v25.232c0 15.986 12.959 28.945 28.945 28.945 2.403 0 4.774-.347 7.081-.931l4.606-2.879V265.92l-27.089.47z" style="fill:#73af00"/><path d="m179.475 233.206-14.899-7.449 10.835 13.544h6.095z" style="fill:#f5f5f5"/><path d="m228.912 259.618-37.247-27.089v55.707c0 15.986 12.959 28.945 28.945 28.945a28.95 28.95 0 0 0 15.341-4.4L256 300.251v-41.103z" style="fill:#ff4b55"/><path d="M205.209 242.38v39.084c0 15.986 12.959 28.945 28.945 28.945 2.403 0 4.774-.347 7.081-.931L256 300.251v-41.103l-27.089.47z" style="fill:#ffe15a"/><path d="M215.367 249.767v25.232c0 15.986 12.959 28.945 28.945 28.945 2.403 0 4.774-.347 7.082-.931l4.606-2.879v-40.988l-27.089.47z" style="fill:#73af00"/><path d="m211.657 309.962-4.464-4.464a6.77 6.77 0 0 1 .162-9.734l73.9-69.441 9.577 9.577-69.441 73.9a6.77 6.77 0 0 1-9.734.162" style="fill:#ffbe5a"/><path d="M212.856 308.159c-.877 3.944-5.986 3.944-6.863 0a2 2 0 0 1 0-.857c.877-3.944 5.986-3.944 6.863 0 .062.279.062.578 0 .857" style="fill:#ffbe5a"/><ellipse cx="286.037" cy="231.109" rx="6.772" ry="3.386" style="fill:#f5f5f5" transform="rotate(225 286.037 231.109)"/><path d="m300.344 309.962 4.464-4.464a6.77 6.77 0 0 0-.162-9.734l-73.9-69.441-9.577 9.577 69.441 73.9a6.77 6.77 0 0 0 9.734.162" style="fill:#ffbe5a"/><path d="M299.144 308.159c.877 3.944 5.986 3.944 6.863 0a2 2 0 0 0 0-.857c-.877-3.944-5.986-3.944-6.863 0a2 2 0 0 0 0 .857" style="fill:#ffbe5a"/><ellipse cx="225.961" cy="231.121" rx="6.772" ry="3.386" style="fill:#f5f5f5" transform="rotate(-45 225.961 231.121)"/><ellipse cx="256" cy="271.47" rx="29.94" ry="35.554" style="fill:#ffbe5a"/><path d="m256 239.301 1.589 6.898 3.643-6.069-.62 7.051 5.34-4.646-2.769 6.514 6.514-2.769-4.646 5.34 7.051-.62-6.069 3.643 6.898 1.589-6.898 1.589 6.069 3.643-7.051-.621 4.646 5.34-6.514-2.768 2.769 6.514-5.34-4.646.62 7.051-3.643-6.069-1.589 6.897-1.589-6.897-3.643 6.069.62-7.051-5.339 4.646 2.768-6.514-6.514 2.768 4.646-5.34-7.051.621 6.069-3.643-6.897-1.589 6.897-1.589-6.069-3.643 7.051.62-4.646-5.34 6.514 2.769-2.768-6.514 5.339 4.646-.62-7.051 3.643 6.069z" style="fill:#ff4b55"/><path d="M293.459 270.834s-11.216 2.963-18.518-3.174c-8.114-6.82-14.199-10.041-16.805-11.251a3.28 3.28 0 0 0-2.785-.002c-1.867.862-5.305 2.649-8.346 5.328-4.444 3.915-18.094 11.64-20.846 11.64v16.833l21.48 18.615 25.396-.741z" style="fill:#73af00"/><path d="M256 315.488c-21.472 0-38.94-19.748-38.94-44.019S234.528 227.45 256 227.45s38.94 19.748 38.94 44.019-17.468 44.019-38.94 44.019m0-77.88c-15.871 0-28.782 15.191-28.782 33.861S240.129 305.33 256 305.33s28.782-15.191 28.782-33.861-12.911-33.861-28.782-33.861" style="fill:#3cc8ff"/><path d="m250.166 306.285.746 2.237 2.358.018a.317.317 0 0 1 .186.573l-1.897 1.401.711 2.248a.318.318 0 0 1-.488.354l-1.919-1.371-1.919 1.371a.318.318 0 0 1-.488-.354l.711-2.248-1.897-1.401a.317.317 0 0 1 .186-.573l2.358-.018.746-2.237c.1-.289.51-.289.606 0m-10.585-4.55.746 2.237 2.358.018a.317.317 0 0 1 .186.573l-1.897 1.401.711 2.248a.318.318 0 0 1-.488.354l-1.919-1.371-1.919 1.371a.318.318 0 0 1-.488-.354l.711-2.248-1.897-1.401a.317.317 0 0 1 .186-.573l2.358-.018.746-2.237c.1-.289.509-.289.606 0m-8.501-7.724.746 2.237 2.358.018a.317.317 0 0 1 .186.573l-1.897 1.401.711 2.248a.318.318 0 0 1-.488.354l-1.919-1.371-1.919 1.371a.318.318 0 0 1-.488-.354l.711-2.248-1.897-1.401a.317.317 0 0 1 .186-.573l2.358-.018.746-2.237c.1-.29.51-.29.606 0m-5.796-10.282.746 2.237 2.358.018a.317.317 0 0 1 .186.573l-1.897 1.401.711 2.248a.318.318 0 0 1-.488.354l-1.919-1.371-1.919 1.371a.318.318 0 0 1-.488-.354l.711-2.248-1.897-1.401a.317.317 0 0 1 .186-.573l2.358-.018.746-2.237c.1-.29.509-.29.606 0m-2.559-11.957.746 2.237 2.358.018a.317.317 0 0 1 .186.573l-1.897 1.401.711 2.248a.318.318 0 0 1-.488.354l-1.919-1.371-1.919 1.371a.318.318 0 0 1-.488-.354l.711-2.248-1.897-1.401a.317.317 0 0 1 .186-.573l2.358-.018.746-2.237c.1-.29.509-.29.606 0m39.093 34.513-.746 2.237-2.358.018a.317.317 0 0 0-.186.573l1.897 1.401-.711 2.248a.318.318 0 0 0 .488.354l1.919-1.371 1.918 1.371a.318.318 0 0 0 .488-.354l-.711-2.248 1.897-1.401a.317.317 0 0 0-.186-.573l-2.358-.018-.746-2.237a.32.32 0 0 0-.605 0m10.586-4.55-.746 2.237-2.358.018a.317.317 0 0 0-.186.573l1.897 1.401-.711 2.248a.318.318 0 0 0 .488.354l1.919-1.371 1.918 1.371a.318.318 0 0 0 .488-.354l-.711-2.248 1.897-1.401a.317.317 0 0 0-.186-.573l-2.358-.018-.746-2.237c-.099-.289-.509-.289-.605 0m8.5-7.724-.746 2.237-2.358.018a.317.317 0 0 0-.186.573l1.897 1.401-.711 2.248a.318.318 0 0 0 .488.354l1.919-1.371 1.919 1.371a.318.318 0 0 0 .488-.354l-.711-2.248 1.897-1.401a.317.317 0 0 0-.186-.573l-2.358-.018-.746-2.237c-.099-.29-.509-.29-.606 0m5.797-10.282-.746 2.237-2.358.018a.317.317 0 0 0-.186.573l1.897 1.401-.711 2.248a.318.318 0 0 0 .488.354l1.918-1.371 1.918 1.371a.318.318 0 0 0 .488-.354l-.711-2.248 1.897-1.401a.317.317 0 0 0-.186-.573l-2.358-.018-.746-2.237c-.098-.29-.508-.29-.604 0m2.559-11.957-.746 2.237-2.358.018a.317.317 0 0 0-.186.573l1.897 1.401-.711 2.248a.318.318 0 0 0 .488.354l1.918-1.371 1.919 1.371a.318.318 0 0 0 .488-.354l-.711-2.248 1.897-1.401a.317.317 0 0 0-.186-.573l-2.358-.018-.746-2.237c-.099-.29-.509-.29-.605 0" style="fill:#ffbe5a"/><path d="m241.288 293.177 1.125 5.381h.484v-3.671s.801 2.561 1.932 3.671h.917c-.438-.562-1.226-1.732-1.226-2.94 0-1.666 1.325-1.893 1.325-3.673h1.136v6.613h.664l1.229-5.894s1.014 3.686 2.923 5.894h.848c-.611-.9-1.883-3.219-1.65-6.727 0 0 1.817-.909 1.817-3.37v-3.501c0-.656.531-1.187 1.187-1.187h.817s-1.214-2.355-2.514-2.698v-1.476l-.979 1.478c-.934.202-1.485 1.066-1.485 1.991v2.132c0 .655-.531 1.187-1.187 1.187h-4.244c-1.257 0-3.269 1.257-3.269 2.866s1.207 2.665 1.207 2.665z" style="fill:#f5f5f5"/><path d="M260.303 287.814h-.39c-3.077.169-4.795 2.191-4.795 2.191l3.122 3.122V299h3.736v-5.873l3.121-3.122c0-.001-1.717-2.022-4.794-2.191" style="fill:#ffbe5a"/><path d="M266.86 278.21h1.129v20.81h-1.129z" style="fill:#f5f5f5"/><path d="m267.464 278.047-6.084 7.354s-.794-3.545 2.751-7.037l-7.83 1.428s2.381-4.444 8.624-3.968l-6.402-5.344s5.502-.317 8.306 3.809c0 0 1.587-4.762 6.031-4.973l-3.668 5.573s3.668-1.869 8.747-.229l-7.566 2.01s4.233.423 5.979 6.613l-6.561-4.497s2.011 2.381 1.27 7.037zm-77.831-51.613-14.899-7.449 10.836 13.544h6.095z" style="fill:#f5f5f5"/><path d="m266.593 217.809 40.199-12.369-21.339-8.002a33.9 33.9 0 0 0-11.889-2.156h-4.018a3.386 3.386 0 0 0-3.386 3.386v3.386h-20.318v-3.386a3.386 3.386 0 0 0-3.386-3.386h-4.018c-4.06 0-8.088.73-11.889 2.156l-21.339 8.002 40.199 12.369a3.387 3.387 0 0 1 2.033 4.751l-4.985 9.969h27.089l-4.985-9.969a3.385 3.385 0 0 1 2.032-4.751" style="fill:#825546"/><path d="M261.387 201.082c4.512 6.887-2.858 14.257-9.746 9.746a3.6 3.6 0 0 1-1.028-1.028c-4.512-6.887 2.858-14.257 9.746-9.746.408.267.761.619 1.028 1.028" style="fill:#f5f5f5"/><path d="M259.386 205.44a3.386 3.386 0 0 1-3.386 3.386h-13.544l5.78-5.78a3.4 3.4 0 0 1 2.394-.992H256a3.386 3.386 0 0 1 3.386 3.386" style="fill:#ffbe5a"/></svg>
