<svg xmlns="http://www.w3.org/2000/svg" xml:space="preserve" viewBox="0 0 512 512" width="48" height="48"><path d="M512 400V112C512 50.144 461.856 0 400 0H112C50.152 0 .014 50.131 0 111.976v288.048C.014 461.869 50.152 512 112 512h288c61.856 0 112-50.144 112-112" style="fill:#41479b"/><path d="M400 0H112C50.144 0 0 50.144 0 112v288c0 30.928 12.536 58.928 32.804 79.196L479.196 32.804C458.928 12.536 430.928 0 400 0" style="fill:#f5f5f5"/><path d="M224.779 0H112C50.148 0 .007 50.138 0 111.988V224.78z" style="fill:#ffe15a"/><path d="M196.481 223.236c-4.006-26.737-25.089-47.82-51.825-51.826l-9.207-18.416-9.207 18.416c-26.736 4.005-47.819 25.088-51.825 51.826L56 232.443l18.415 9.207c4.006 26.737 25.089 47.82 51.825 51.825l9.207 18.416 9.207-18.416c26.736-4.005 47.819-25.088 51.825-51.825l18.415-9.207zm-61.033 62.173c-29.252 0-52.965-23.713-52.965-52.965s23.713-52.965 52.965-52.965 52.965 23.713 52.965 52.965c.001 29.251-23.712 52.965-52.965 52.965" style="fill:#464655"/><path d="m135.448 198.498 9.505 17.483 19.892-.51-10.388 16.972 10.388 16.972-19.892-.51-9.505 17.483-9.504-17.483-19.893.51 10.388-16.972-10.388-16.972 19.893.51z" style="fill:#ff4b55"/></svg>
