<svg xmlns="http://www.w3.org/2000/svg" xml:space="preserve" viewBox="0 0 512 512" width="48" height="48"><path d="M400 0H112C50.144 0 0 50.144 0 112v288c0 61.856 50.144 112 112 112h288c61.856 0 112-50.144 112-112V112C512 50.144 461.856 0 400 0" style="fill:#41479b"/><path d="M400 0H112q-3.002.002-5.965.159l331.188 505.498a110 110 0 0 0 4.156-1.553V7.896C428.578 2.803 414.617 0 400 0" style="fill:#ffe15a"/><path d="m211.686 196.751 7.321 21.951 23.139.179c1.793.014 2.536 2.302 1.094 3.367l-18.614 13.746 6.98 22.062c.541 1.709-1.405 3.123-2.864 2.081l-18.825-13.456-18.825 13.456c-1.458 1.043-3.404-.371-2.864-2.081l6.98-22.062-18.614-13.746c-1.442-1.065-.699-3.353 1.094-3.367l23.139-.179 7.321-21.951c.565-1.7 2.97-1.7 3.538 0m-42-61.282 7.321 21.951 23.139.179c1.793.014 2.536 2.302 1.094 3.367l-18.614 13.746 6.98 22.062c.541 1.709-1.405 3.123-2.864 2.081l-18.825-13.456-18.825 13.456c-1.458 1.042-3.404-.372-2.864-2.081l6.98-22.062-18.614-13.746c-1.442-1.065-.699-3.353 1.094-3.367l23.139-.179 7.321-21.951c.565-1.7 2.97-1.7 3.538 0m-37-62.224 7.321 21.951 23.139.179c1.793.014 2.536 2.302 1.094 3.367l-18.614 13.746 6.98 22.062c.541 1.709-1.405 3.123-2.864 2.081l-18.825-13.456-18.827 13.455c-1.458 1.042-3.405-.371-2.864-2.081l6.98-22.062-18.614-13.745c-1.442-1.065-.699-3.353 1.094-3.367l23.139-.179 7.321-21.951c.567-1.701 2.972-1.701 3.54 0M89.854 11.963l7.321 21.951 23.139.179c1.793.014 2.536 2.302 1.094 3.367l-18.614 13.746 6.98 22.062c.541 1.709-1.405 3.123-2.864 2.081L88.084 61.892 69.259 75.348c-1.458 1.042-3.405-.371-2.864-2.081l6.98-22.062L54.761 37.46c-1.442-1.065-.699-3.353 1.094-3.367l23.139-.179 7.321-21.951c.567-1.701 2.972-1.701 3.539 0m279.441 424.296 7.321 21.951 23.139.179c1.793.014 2.536 2.302 1.094 3.367l-18.614 13.746 6.98 22.062c.541 1.709-1.405 3.123-2.864 2.081l-18.825-13.456-18.826 13.455c-1.458 1.042-3.405-.372-2.864-2.081l6.98-22.062-18.614-13.746c-1.442-1.065-.699-3.353 1.094-3.367l23.139-.179 7.321-21.951c.566-1.7 2.972-1.7 3.539.001m-37.441-59.396 7.321 21.951 23.139.179c1.793.014 2.536 2.302 1.094 3.367l-18.614 13.746 6.98 22.062c.541 1.709-1.405 3.123-2.864 2.081l-18.825-13.456-18.825 13.456c-1.458 1.042-3.404-.371-2.864-2.081l6.98-22.062-18.614-13.746c-1.442-1.065-.699-3.353 1.094-3.367l23.139-.179 7.321-21.951c.566-1.701 2.971-1.701 3.538 0m-41-60.34 7.321 21.951 23.139.179c1.793.014 2.536 2.302 1.094 3.366l-18.614 13.746 6.98 22.062c.541 1.709-1.405 3.123-2.864 2.081l-18.825-13.456-18.825 13.456c-1.458 1.042-3.404-.372-2.864-2.081l6.98-22.062-18.614-13.746c-1.442-1.065-.699-3.353 1.094-3.366l23.139-.179 7.321-21.951c.566-1.7 2.971-1.7 3.538 0m-42-59.396 7.321 21.951 23.139.179c1.793.014 2.536 2.302 1.094 3.366l-18.614 13.746 6.98 22.062c.541 1.709-1.405 3.123-2.864 2.081l-18.825-13.456-18.825 13.456c-1.458 1.042-3.404-.371-2.864-2.081l6.98-22.062-18.614-13.746c-1.442-1.065-.699-3.353 1.094-3.366l23.139-.179 7.321-21.951c.566-1.701 2.971-1.701 3.538 0" style="fill:#f5f5f5"/></svg>
