<svg xmlns="http://www.w3.org/2000/svg" xml:space="preserve" viewBox="0 0 512 512" width="48" height="48"><path d="M400 0H112C50.144 0 0 50.144 0 112v288c0 61.856 50.144 112 112 112h288c61.856 0 112-50.144 112-112V112C512 50.144 461.856 0 400 0" style="fill:#73af00"/><path d="M108.216 108.214h295.567v295.567H108.216z" style="fill:#ffe15a" transform="rotate(45 256 255.998)"/><circle cx="256" cy="256" r="86.62" style="fill:#41479b"/><path d="M181.671 211.689a86 86 0 0 0-9.327 22.172c48.019-3.614 119.052 9.819 164.264 53.69a86 86 0 0 0 5.63-23.946c-46.685-39.289-111.225-53.261-160.567-51.916m77.916 73.87 2.306 6.915 7.29.056c.944.007 1.335 1.212.576 1.772l-5.864 4.331 2.199 6.95c.285.9-.74 1.644-1.508 1.095l-5.931-4.239-5.931 4.239c-.768.549-1.792-.196-1.508-1.095l2.199-6.95-5.864-4.33c-.759-.561-.368-1.765.576-1.772l7.29-.056 2.306-6.915c.299-.896 1.566-.896 1.864-.001m28.332 17.889.993 2.977 3.137.024a.423.423 0 0 1 .248.763l-2.524 1.864.946 2.991a.423.423 0 0 1-.649.471l-2.553-1.824-2.553 1.824a.423.423 0 0 1-.649-.471l.946-2.991-2.524-1.864a.423.423 0 0 1 .248-.763l3.138-.024.993-2.977c.13-.385.675-.385.803 0m-40.581-31.025.993 2.977 3.137.024a.423.423 0 0 1 .248.763l-2.524 1.864.946 2.991a.422.422 0 0 1-.649.471l-2.553-1.824-2.553 1.824a.423.423 0 0 1-.649-.471l.946-2.991-2.524-1.864a.423.423 0 0 1 .248-.763l3.137-.024.993-2.977a.424.424 0 0 1 .804 0m-54.96-3.609.993 2.977 3.137.024a.423.423 0 0 1 .248.763l-2.524 1.864.946 2.991a.423.423 0 0 1-.649.471l-2.553-1.824-2.553 1.824a.423.423 0 0 1-.649-.471l.947-2.991-2.524-1.864a.423.423 0 0 1 .248-.763l3.137-.024.993-2.977a.423.423 0 0 1 .803 0m45.977 33.607.993 2.977 3.138.024a.423.423 0 0 1 .248.763l-2.524 1.864.946 2.991a.422.422 0 0 1-.649.471l-2.553-1.824-2.553 1.824a.423.423 0 0 1-.649-.471l.946-2.991-2.524-1.864a.423.423 0 0 1 .248-.763l3.137-.024.993-2.977c.13-.385.675-.385.803 0m-25.298-35.684.812 2.434 2.566.02c.332.003.47.427.203.624l-2.064 1.524.774 2.446c.1.317-.26.579-.531.386l-2.087-1.492-2.087 1.492a.346.346 0 0 1-.531-.386l.774-2.446-2.064-1.524a.346.346 0 0 1 .203-.624l2.566-.02.812-2.434c.103-.315.549-.315.654 0m77.065-50.241 1.015 3.044 3.209.025a.432.432 0 0 1 .253.78l-2.581 1.906.968 3.06a.432.432 0 0 1-.664.482l-2.611-1.866-2.611 1.866a.432.432 0 0 1-.664-.482l.968-3.06-2.581-1.906a.432.432 0 0 1 .253-.78l3.209-.025 1.015-3.044a.434.434 0 0 1 .822 0m-94.209 35.353.812 2.434 2.566.02c.332.003.47.426.203.624l-2.064 1.524.774 2.446c.1.317-.26.579-.531.386l-2.088-1.492-2.087 1.492a.346.346 0 0 1-.531-.386l.774-2.446-2.064-1.524a.346.346 0 0 1 .203-.624l2.566-.02.812-2.434a.345.345 0 0 1 .655 0m12.389 34.301 1.229 3.686 3.886.03a.524.524 0 0 1 .307.945l-3.126 2.308 1.172 3.705a.524.524 0 0 1-.804.584l-3.161-2.26-3.161 2.26a.524.524 0 0 1-.804-.584l1.172-3.705-3.126-2.308a.524.524 0 0 1 .307-.945l3.886-.03 1.229-3.686a.524.524 0 0 1 .994 0m95.415 18.071.773 2.319 2.445.019a.33.33 0 0 1 .193.594l-1.967 1.452.737 2.331a.33.33 0 0 1-.506.367l-1.989-1.422-1.989 1.422a.33.33 0 0 1-.506-.367l.737-2.331-1.967-1.452a.33.33 0 0 1 .193-.594l2.445-.019.773-2.319c.103-.3.528-.3.628 0m8.554-17.7.993 2.977 3.138.024a.423.423 0 0 1 .248.763l-2.524 1.864.946 2.992a.422.422 0 0 1-.649.471l-2.553-1.824-2.553 1.824a.423.423 0 0 1-.649-.471l.946-2.992-2.524-1.864a.423.423 0 0 1 .248-.763l3.137-.024.993-2.977c.13-.385.675-.385.803 0" style="fill:#f5f5f5"/></svg>
