<svg xmlns="http://www.w3.org/2000/svg" xml:space="preserve" viewBox="0 0 512.001 512.001" width="48" height="48"><path d="M400 0H112C50.144 0 0 50.146 0 112v288c0 61.856 50.144 112 112 112h288c61.856 0 112-50.144 112-112V112C512 50.146 461.856 0 400 0" style="fill:#f5f5f5"/><path d="M409.487 363.789c-25.611 0-25.611-13.474-51.221-13.474-25.589 0-25.589 13.474-51.177 13.474-25.602 0-25.602-13.474-51.205-13.474-25.596 0-25.596 13.474-51.191 13.474s-25.595-13.474-51.191-13.474c-25.595 0-25.595 13.474-51.191 13.474-25.584 0-25.584-13.474-51.168-13.474-25.572 0-25.572 13.474-51.143 13.474V400c0 1.41.035 2.811.087 4.209 25.482-.031 25.515-13.472 51.056-13.472 25.584 0 25.584 13.474 51.168 13.474 25.595 0 25.595-13.474 51.191-13.474 25.595 0 25.595 13.474 51.191 13.474s25.596-13.474 51.191-13.474c25.602 0 25.602 13.474 51.205 13.474 25.588 0 25.588-13.474 51.177-13.474 25.611 0 25.611 13.474 51.221 13.474 25.628 0 25.628-13.474 51.257-13.474 25.599 0 25.631 13.441 51.17 13.472.051-1.396.086-2.799.086-4.209v-36.211c-25.628 0-25.628-13.474-51.257-13.474s-25.628 13.474-51.256 13.474m0-161.684c-25.611 0-25.611-13.474-51.221-13.474-25.589 0-25.589 13.474-51.177 13.474-25.602 0-25.602-13.474-51.205-13.474-25.596 0-25.596 13.474-51.191 13.474s-25.595-13.474-51.191-13.474c-25.595 0-25.595 13.474-51.191 13.474-25.584 0-25.584-13.474-51.168-13.474-25.572 0-25.572 13.474-51.143 13.474v40.421c25.571 0 25.571-13.474 51.143-13.474 25.584 0 25.584 13.474 51.168 13.474 25.595 0 25.595-13.474 51.191-13.474 25.595 0 25.595 13.474 51.191 13.474s25.596-13.474 51.191-13.474c25.602 0 25.602 13.474 51.205 13.474 25.588 0 25.588-13.474 51.177-13.474 25.611 0 25.611 13.474 51.221 13.474 25.628 0 25.628-13.474 51.257-13.474s25.628 13.474 51.257 13.474v-40.421c-25.628 0-25.628-13.474-51.257-13.474s-25.629 13.474-51.257 13.474m0-80.842c-25.611 0-25.611-13.474-51.221-13.474-25.589 0-25.589 13.474-51.177 13.474-25.602 0-25.602-13.474-51.205-13.474-25.596 0-25.596 13.474-51.191 13.474s-25.595-13.474-51.191-13.474c-25.595 0-25.595 13.474-51.191 13.474-25.584 0-25.584-13.474-51.168-13.474-25.572 0-25.572 13.474-51.143 13.474v40.421c25.571 0 25.571-13.474 51.143-13.474 25.584 0 25.584 13.474 51.168 13.474 25.595 0 25.595-13.474 51.191-13.474 25.595 0 25.595 13.474 51.191 13.474s25.596-13.474 51.191-13.474c25.602 0 25.602 13.474 51.205 13.474 25.588 0 25.588-13.474 51.177-13.474 25.611 0 25.611 13.474 51.221 13.474 25.628 0 25.628-13.474 51.257-13.474s25.628 13.474 51.257 13.474v-40.421c-25.628 0-25.628-13.474-51.257-13.474s-25.629 13.474-51.257 13.474M102.311 80.842c25.595 0 25.595-13.474 51.191-13.474 25.595 0 25.595 13.474 51.191 13.474s25.596-13.474 51.191-13.474c25.602 0 25.602 13.474 51.205 13.474 25.588 0 25.588-13.474 51.177-13.474 25.611 0 25.611 13.474 51.221 13.474 25.628 0 25.628-13.474 51.257-13.474 24.055 0 25.534 11.869 46.816 13.326-5.894-20.284-17.366-38.191-32.65-51.951-3.793-1.087-8.305-1.796-14.166-1.796-25.628 0-25.628 13.474-51.257 13.474-25.611 0-25.611-13.474-51.221-13.474-25.589 0-25.589 13.474-51.177 13.474-25.602 0-25.602-13.474-51.205-13.474-25.596 0-25.596 13.474-51.191 13.474s-25.595-13.474-51.191-13.474c-25.595 0-25.595 13.474-51.191 13.474-25.584 0-25.584-13.474-51.168-13.474-5.784 0-10.253.693-14.012 1.76C21.827 42.473 10.339 60.395 4.44 80.694c21.226-1.46 22.705-13.326 46.703-13.326 25.584 0 25.584 13.474 51.168 13.474m307.176 202.105c-25.611 0-25.611-13.474-51.221-13.474-25.589 0-25.589 13.474-51.177 13.474-25.602 0-25.602-13.474-51.205-13.474-25.596 0-25.596 13.474-51.191 13.474s-25.595-13.474-51.191-13.474c-25.595 0-25.595 13.474-51.191 13.474-25.584 0-25.584-13.474-51.168-13.474-25.572 0-25.572 13.474-51.143 13.474v40.421c25.571 0 25.571-13.474 51.143-13.474 25.584 0 25.584 13.474 51.168 13.474 25.595 0 25.595-13.474 51.191-13.474 25.595 0 25.595 13.474 51.191 13.474s25.596-13.474 51.191-13.474c25.602 0 25.602 13.474 51.205 13.474 25.588 0 25.588-13.474 51.177-13.474 25.611 0 25.611 13.474 51.221 13.474 25.628 0 25.628-13.474 51.257-13.474s25.628 13.474 51.257 13.474v-40.421c-25.628 0-25.628-13.474-51.257-13.474s-25.629 13.474-51.257 13.474m0 161.685c-25.611 0-25.611-13.474-51.221-13.474-25.589 0-25.589 13.474-51.177 13.474-25.602 0-25.602-13.474-51.205-13.474-25.596 0-25.596 13.474-51.191 13.474s-25.595-13.474-51.191-13.474c-25.595 0-25.595 13.474-51.191 13.474-25.584 0-25.584-13.474-51.168-13.474-22.166 0-25.128 10.118-42.176 12.815a112.1 112.1 0 0 0 20.896 32.158c5.228-2.5 11.307-4.552 21.28-4.552 25.584 0 25.584 13.474 51.168 13.474 25.595 0 25.595-13.474 51.191-13.474 25.595 0 25.595 13.474 51.191 13.474s25.596-13.474 51.191-13.474c25.602 0 25.602 13.474 51.205 13.474 25.588 0 25.588-13.474 51.177-13.474 25.611 0 25.611 13.474 51.221 13.474 25.628 0 25.628-13.474 51.257-13.474 10.024 0 16.124 2.063 21.373 4.573a112.1 112.1 0 0 0 20.915-32.176c-17.103-2.692-20.065-12.818-42.289-12.818-25.628 0-25.628 13.474-51.256 13.474" style="fill:#41479b"/><path d="M396.23 461.929h-3.293a5.537 5.537 0 0 1-5.538-5.538V224.84h14.369v231.551a5.54 5.54 0 0 1-5.538 5.538" style="fill:#965032"/><path d="m495.167 253.579-14.37-7.184-52.904-6.612 32.733-42.086 5.08-15.241-15.24 5.08-42.085 32.733-6.613-52.903-7.185-14.371-7.184 14.371-6.613 52.903-42.085-32.733-15.241-5.08 5.08 15.241 32.733 42.086-52.904 6.612L294 253.579l14.369 7.184 52.904 6.612-32.733 42.085-5.08 15.241 15.241-5.08 45.722-35.561 10.16-16.113 10.161 16.113 45.722 35.561 15.24 5.08-5.08-15.241-32.733-42.085 52.904-6.612z" style="fill:#73af00"/><path d="M425.861 337.253c-6.456-6.444-20.283-4.076-27.686-2.207v-6.03a3.592 3.592 0 1 0-7.184 0v6.029c-7.402-1.875-21.226-4.243-27.686 2.208-6.158 6.155-1.697 20.996 2.54 31.313v9.553a4.78 4.78 0 0 0 4.781 4.781h47.915c2.64 0 4.781-2.14 4.781-4.781v-9.553c4.236-10.318 8.697-25.158 2.539-31.313m-5.079 5.079c2.742 2.745-.329 14.775-5.278 26.198h-17.328v-26.065c8.065-2.283 19.113-3.632 22.606-.133m-52.397 0c3.49-3.499 14.538-2.15 22.606.134v26.064h-17.328c-4.949-11.423-8.02-23.453-5.278-26.198" style="fill:#ffe15a"/><path d="M94.316 1.395C67.937 5.579 44.628 18.971 27.779 38.177L94.316 81.77zM7.021 72.899a111 111 0 0 0-5.626 21.417H39.71zM0 161.686v26.016l39.71-26.016zM256 19.977V0h-94.316v81.77zm0 167.725v-26.016h-39.71zM161.684 256H256v-19.977l-94.316-61.793zM256 94.316V68.299l-39.71 26.017zM94.316 174.23 0 236.023V256h94.316z" style="fill:#41479b"/><path d="M148.211 256h13.473v-81.77L256 236.023v-19.962l-83.768-54.375h24.748L256 199.995v-12.293l-39.71-26.016H256v-13.474H148.211zm-53.895 0h13.474V148.212H0v13.474h39.71L0 187.702v18.902l69.197-44.918h24.748L0 222.668v13.355l94.316-61.793zM107.79.087c-4.566.169-9.063.608-13.474 1.308V81.77L27.779 38.177a112.4 112.4 0 0 0-10.872 14.637l63.935 41.502H56.094L10.461 64.694q-1.878 4.02-3.44 8.205L39.71 94.316H1.395c-.7 4.411-1.139 8.907-1.308 13.474H107.79zM256 107.79V94.316h-39.71L256 68.299v-19.14l-69.568 45.157h-24.748L256 33.093V19.977L161.684 81.77V0h-13.473v107.79z" style="fill:#f5f5f5"/><path d="M107.79 256h40.421V148.21H256v-40.42H148.211V0H112c-1.411 0-2.813.035-4.211.087V107.79H.087C.035 109.187 0 110.59 0 112v36.21h107.79z" style="fill:#ff4b55"/><path d="M69.197 161.686 0 206.604v16.064l93.945-60.982zm103.035 0L256 216.061v-16.066l-59.02-38.309zm-91.39-67.37L16.907 52.814a112 112 0 0 0-6.447 11.88l45.634 29.622zm105.59 0L256 49.159V33.093l-94.316 61.223z" style="fill:#ff4b55"/></svg>
