<svg xmlns="http://www.w3.org/2000/svg" xml:space="preserve" viewBox="0 0 512 512" width="48" height="48"><path d="M400.002.004H112.007C50.152.004.009 50.147.009 112.002v287.995c0 61.855 50.143 111.998 111.998 111.998h287.995c61.855 0 111.998-50.143 111.998-111.998V112.002C512 50.147 461.857.004 400.002.004" style="fill:#41479b"/><path d="M.057 256v147.206c1.699 60.371 51.168 108.789 111.949 108.789h287.995c61.624 0 111.617-49.771 111.989-111.308V256zM371.701 94.318l112.441-56.227c-12.496-14.215-28.538-25.234-46.743-31.683L286.687 81.773V.004h-61.326v81.769L74.63 6.399c-18.208 6.445-34.25 17.465-46.749 31.679l112.468 56.24H1.406a112.5 112.5 0 0 0-1.349 14.476v52.892h140.292L.057 231.839V256h61.785l163.519-81.769V256h61.326v-81.769L450.206 256h61.785v-24.161l-140.292-70.154h140.292v-50.373a113 113 0 0 0-1.387-16.994z" style="fill:#f5f5f5"/><path d="M.058 107.789h511.93v40.42H.058z" style="fill:#ff4b55"/><path d="M242.789.004h26.48v256h-26.48z" style="fill:#ff4b55"/><path d="m325.118 104.529-19.877 10.276-7.85-18.262c-.81-1.884-4.061-2.222-5.482-.569l-16.19 18.832-16.928-26.253c-1.134-1.759-4.373-1.759-5.507 0l-16.928 26.253-16.19-18.832c-1.421-1.653-4.672-1.315-5.482.569l-7.85 18.262-19.877-10.276c-2.627-1.358-5.873.864-4.461 3.054l19.418 30.114h-.84c-2.253 0-4.08 1.417-4.08 3.164v8.934c0 1.747 1.827 3.164 4.08 3.164H311c2.254 0 4.08-1.417 4.08-3.164v-8.934c0-1.747-1.827-3.164-4.08-3.164h-.84l19.418-30.114c1.413-2.189-1.833-4.412-4.46-3.054" style="fill:#ffe15a"/><path d="M178.983 161.686.058 250.304V256h20.983l190.365-94.314zM511.991 256v-12.276L346.4 161.686h-32.423L504.299 256z" style="fill:#ff4b55"/><path d="M511.934 330.104c-25.633 0-25.633-11.789-51.266-11.789-25.616 0-25.616 11.789-51.231 11.789-25.594 0-25.594-11.789-51.186-11.789-25.59 0-25.59 11.789-51.179 11.789-25.597 0-25.597-11.789-51.194-11.789s-25.597 11.789-51.193 11.789-25.597-11.789-51.193-11.789c-25.586 0-25.586 11.789-51.171 11.789-25.573 0-25.573-11.789-51.145-11.789-25.587-.001-25.587 11.789-51.175 11.789v-35.367c25.589 0 25.589-11.789 51.176-11.789 25.573 0 25.573 11.789 51.145 11.789 25.586 0 25.586-11.789 51.171-11.789 25.597 0 25.597 11.789 51.193 11.789s25.597-11.789 51.193-11.789 25.597 11.789 51.194 11.789c25.59 0 25.59-11.789 51.179-11.789 25.594 0 25.594 11.789 51.186 11.789 25.616 0 25.616-11.789 51.231-11.789 25.633 0 25.633 11.789 51.266 11.789zm0 70.736c-25.633 0-25.633-11.79-51.266-11.79-25.616 0-25.616 11.79-51.231 11.79-25.594 0-25.594-11.79-51.186-11.79-25.59 0-25.59 11.79-51.179 11.79-25.597 0-25.597-11.79-51.194-11.79s-25.597 11.79-51.193 11.79-25.597-11.79-51.193-11.79c-25.586 0-25.586 11.79-51.171 11.79-25.573 0-25.573-11.79-51.145-11.79-25.589 0-25.589 11.79-51.176 11.79v-35.367c25.589 0 25.589-11.789 51.176-11.789 25.573 0 25.573 11.789 51.145 11.789 25.586 0 25.586-11.789 51.171-11.789 25.597 0 25.597 11.789 51.193 11.789s25.597-11.789 51.193-11.789 25.597 11.789 51.194 11.789c25.59 0 25.59-11.789 51.179-11.789 25.594 0 25.594 11.789 51.186 11.789 25.616 0 25.616-11.789 51.231-11.789 25.633 0 25.633 11.789 51.266 11.789zm-102.497 35.367c-25.594 0-25.594-11.789-51.186-11.789-25.59 0-25.59 11.789-51.179 11.789-25.597 0-25.597-11.789-51.194-11.789s-25.597 11.789-51.193 11.789-25.597-11.789-51.193-11.789c-25.586 0-25.586 11.789-51.171 11.789-25.573 0-25.573-11.789-51.145-11.789-23.444 0-25.423 9.89-45.266 11.549a111.7 111.7 0 0 0 16.449 31.171c7.67-3.343 13.892-7.353 28.817-7.353 25.573 0 25.573 11.789 51.145 11.789 25.586 0 25.586-11.789 51.171-11.789 25.597 0 25.597 11.789 51.193 11.789s25.597-11.789 51.193-11.789 25.597 11.789 51.194 11.789c25.59 0 25.59-11.789 51.179-11.789 25.594 0 25.594 11.789 51.186 11.789 25.616 0 25.616-11.789 51.231-11.789 15.007 0 21.231 4.04 28.953 7.39a111.7 111.7 0 0 0 16.475-31.202c-19.956-1.638-21.911-11.555-45.428-11.555-25.616 0-25.616 11.789-51.231 11.789" style="fill:#41479b"/><path d="M194.24 94.318 46.52 21.143a113 113 0 0 0-12.07 10.065l127.365 63.111zm138.34 0 138.797-68.626a112 112 0 0 0-13.43-9.55l-157.79 78.176z" style="fill:#ff4b55"/><path d="M428.55 497.913c21.962-11.311 29.862-28.275 32.739-34.577 4.358-9.546 24.576-17.247 24.576-17.247s-24.977.117-38.343 17.472c-12.324 16-34.512 17.376-55.911 29.617a175 175 0 0 0-6.318-7.522l66.678-80.715-80.715 66.678a175 175 0 0 0-9.788-8.099c2.126-5.525 6.319-14.064 14.551-23.788 15.961-18.854 16.77-37.55 17.015-44.473.373-10.488 16.105-25.339 16.105-25.339s-23.03 9.666-28.739 30.815c-5.26 19.488-25.214 29.25-40.296 48.729a173 173 0 0 0-8.721-4.562l30.695-100.027-49.04 92.462c-3.99-1.391-8.04-2.65-12.157-3.751-.146-5.921.466-15.398 4.341-27.503 7.531-23.527 1.122-41.109-1.3-47.599-3.668-9.833 5.182-29.573 5.182-29.573s-17.578 17.744-14.758 39.467c2.598 20.023-12.111 36.682-18.588 60.462-3.24-.368-6.501-.66-9.792-.848l-9.925-104.209-9.925 104.209c-4.262.241-8.473.667-12.647 1.211-2.404-5.41-5.478-14.414-6.533-27.113-2.045-24.619-14.695-38.41-19.416-43.479-7.153-7.679-6.53-29.304-6.53-29.304s-9.449 23.12 1.469 42.11c10.061 17.501 2.853 38.517 5.963 62.958a172 172 0 0 0-9.378 2.963l-49.04-92.462 30.695 100.029c-3.827 1.853-7.552 3.878-11.216 5.996-4.291-4.079-10.572-11.22-16.401-22.539-11.312-21.962-28.276-29.862-34.577-32.739-9.547-4.358-17.247-24.575-17.247-24.575s.117 24.976 17.472 38.343c16 12.324 17.376 34.512 29.617 55.911a175 175 0 0 0-7.523 6.318l-80.715-66.678 66.678 80.715a174 174 0 0 0-8.098 9.788c-5.525-2.126-14.065-6.319-23.788-14.551-18.854-15.962-37.55-16.769-44.473-17.016-10.488-.373-25.339-16.104-25.339-16.104s9.666 23.03 30.814 28.738c17.127 4.623 26.802 20.574 42.104 34.613 4.586.572 9.257.869 13.998.869H400q4.419-.002 8.752-.338c4.274-4.022 10.584-8.997 19.798-13.743" style="fill:#ffe15a"/></svg>
