<svg xmlns="http://www.w3.org/2000/svg" xml:space="preserve" viewBox="0 0 512 512" width="48" height="48"><path d="M512 400V112C512 50.144 461.856 0 400 0H112C50.152 0 .013 50.131 0 111.976v288.048C.013 461.869 50.152 512 112 512h288c61.856 0 112-50.144 112-112" style="fill:#ffe15a"/><path d="M512 400v-76.632L40.645 25.671C19.92 42.82 5.474 67.288 1.266 95.116l509.467 321.769A113 113 0 0 0 512 400" style="fill:#f5f5f5"/><path d="M471.355 486.329c20.725-17.149 35.171-41.618 39.379-69.445L1.266 95.116A113 113 0 0 0 0 111.976v76.656z" style="fill:#464655"/><path d="m305.589 240.326.006-.251-.338-3.479c-.067-1.135-.327-2.514-.672-4.124-.266-1.624-.78-3.44-1.439-5.443-1.326-3.977-3.367-8.725-6.891-13.322-.426-.568-.93-1.129-1.394-1.694 2-2.292 3.949-4.958 5.788-8.176 0 0-10.081.462-21.402-4.478-3.738-1.946-7.796-3.543-12.249-4.589l-2.112-8.446a4.06 4.06 0 0 0-3.938-3.074h-2.919v-4.059h14.206l-4.059-8.118 4.059-8.118H258.03v-4.059h-4.059v24.354h-2.919a4.06 4.06 0 0 0-3.938 3.074l-2.066 8.264c-2.742.584-5.473 1.326-8.123 2.452-2.169.869-4.267 1.957-6.315 3.173-10.413 3.996-19.257 3.624-19.257 3.624 1.838 3.216 3.785 5.88 5.783 8.171-.405.493-.854.934-1.246 1.44-2.766 3.755-4.973 7.977-6.658 12.46-1.603 4.353-2.514 9.878-2.82 13.917l-.008 3.905c-.041 1.226.1 2.441.229 3.66.16 2.457.703 4.855 1.215 7.271 1.266 4.758 3.118 9.387 5.643 13.637 5.054 8.514 12.763 15.225 21.404 19.385 4.465 1.967 8.683 3.466 13.716 4.182 2.682.499 4.351.491 6.337.664l.361.027.18.013.59.015.845-.035 1.684-.076c1.117-.075 2.235-.061 3.331-.224 8.832-.969 16.794-4.403 23.009-8.862 6.215-4.538 10.679-10.074 13.737-15.349 3.106-5.281 4.708-10.391 5.696-14.576.472-2.09.824-4 .951-5.797.201-1.778.318-3.234.265-4.186zm-73.768 28.605c-2.821-2.198-5.369-4.817-7.693-7.707-2.237-2.959-4.024-6.297-5.427-9.846-1.323-3.473-2.051-7.648-2.409-11.052-.1-4.723.122-7.943 1.024-11.971.983-3.824 2.416-7.568 4.411-11.023.116-.2.273-.37.392-.568 9.227 7.207 18.97 6.694 25.764 3.197v7.938c2.241 0 4.059 4.543 4.059 10.147s-1.817 10.147-4.059 10.147v4.059c7.612 10.15 4.12 18.713-.559 23.707-2.123-.461-4.325-1.081-6.386-1.892-3.194-1.243-6.229-3.033-9.117-5.136m63.882-29.061-.322 3.092c-.062 1.109-.307 2.16-.591 3.322-.202 1.173-.631 2.593-1.182 4.203-1.099 3.154-2.752 6.92-5.626 10.528a40.6 40.6 0 0 1-11.325 9.989c-3.594 2.133-7.818 3.576-12.281 4.602-4.52-5.037-7.703-13.428-.259-23.354v-4.059c-2.241 0-4.059-4.543-4.059-10.147s1.817-10.147 4.059-10.147v-7.938c6.802 3.502 16.56 4.013 25.796-3.221.157.266.351.536.5.801 2.456 4.292 3.67 8.42 4.432 11.782.363 1.697.63 3.211.693 4.557.141 1.331.242 2.457.184 3.384z" style="fill:#ff4b55"/><path d="M256 300.959c-14.987 0-28.581-5.838-38.727-15.326-1.863-1.742-4.81-1.53-6.469.406l-15.543 18.133c-1.652 1.927-.283 4.905 2.256 4.905h9.776l13.031 6.515a4.06 4.06 0 0 0 5.193-1.379l4.195-6.292a68.7 68.7 0 0 0 26.289 5.214 68.8 68.8 0 0 0 26.289-5.214l4.194 6.292a4.06 4.06 0 0 0 5.193 1.379l13.031-6.515h9.776c2.539 0 3.908-2.978 2.256-4.905l-15.543-18.133c-1.66-1.936-4.607-2.148-6.469-.406-10.147 9.488-23.74 15.326-38.728 15.326m-56.825-16.235H178.88l4.059-36.53s-14.207-7.103-12.719-27.955c.181-2.536 2.325-4.516 4.867-4.516h3.464c2.392 0 4.397 1.734 4.793 4.093.854 5.091 3.511 13.448 11.772 16.202zm113.65 0h20.295l-4.059-36.53s14.207-7.103 12.719-27.955c-.181-2.536-2.325-4.516-4.867-4.516h-3.464c-2.392 0-4.397 1.734-4.793 4.093-.854 5.091-3.511 13.448-11.772 16.202z" style="fill:#ff4b55"/><path d="M201.395 288.783h-24.734a1.84 1.84 0 0 1-1.839-1.839v-.38c0-1.016.823-1.839 1.839-1.839h24.734c1.016 0 1.839.823 1.839 1.839v.38a1.84 1.84 0 0 1-1.839 1.839m133.945 0h-24.734a1.84 1.84 0 0 1-1.839-1.839v-.38c0-1.016.823-1.839 1.839-1.839h24.734c1.016 0 1.839.823 1.839 1.839v.38a1.84 1.84 0 0 1-1.839 1.839" style="fill:#ffe15a"/></svg>
