<svg xmlns="http://www.w3.org/2000/svg" xml:space="preserve" viewBox="0 0 512 512" width="48" height="48"><path d="M400 0H112C50.144 0 0 50.144 0 112v144h512V112C512 50.144 461.856 0 400 0" style="fill:#ff4b55"/><path d="M0 400c0 61.856 50.144 112 112 112h288c61.856 0 112-50.144 112-112V256H0z" style="fill:#73af00"/><path d="m260.15 182.515 16.951 50.826 53.577.415c4.151.032 5.872 5.329 2.533 7.795l-43.101 31.828 16.161 51.083c1.252 3.958-3.254 7.231-6.631 4.818l-43.589-31.156-43.589 31.156c-3.377 2.414-7.883-.86-6.631-4.818l16.161-51.083-43.101-31.828c-3.339-2.466-1.618-7.763 2.533-7.795l53.577-.415 16.951-50.826c1.315-3.937 6.885-3.937 8.198 0" style="fill:#ffe15a"/></svg>
