<svg xmlns="http://www.w3.org/2000/svg" xml:space="preserve" viewBox="0 0 512 512" width="48" height="48"><path d="M403.962.077H108.038C48.018 2.165 0 51.471 0 112v288c0 60.529 48.018 109.835 108.038 111.923h295.924C463.982 509.835 512 460.529 512 400V112C512 51.471 463.982 2.165 403.962.077" style="fill:#73af00"/><path d="M497.756 57.315C478.584 23.117 441.995 0 400 0H112C69.94 0 33.302 23.188 14.155 57.474L253.24 217.59zM14.274 454.738C33.454 488.907 70.027 512 112 512h288c42.037 0 78.658-23.164 97.814-57.419L256.052 296.332z" style="fill:#ff4b55"/><path d="M334.934 163.986c-21.21-18.215-48.729-29.29-78.882-29.29-30.152 0-57.672 11.076-78.882 29.29L14.383 57.066C5.229 73.298 0 92.037 0 112v16.453l140.177 91.804c-3.467 11.278-5.351 23.251-5.351 35.665s1.884 24.387 5.351 35.665L0 383.411V400c0 19.879 5.186 38.545 14.269 54.729l162.902-106.87c21.21 18.215 48.73 29.29 78.882 29.29s57.672-11.076 78.882-29.29l162.884 106.716C506.847 438.426 512 419.816 512 400v-16.641l-140.072-91.771c3.467-11.278 5.351-23.251 5.351-35.665s-1.884-24.388-5.351-35.665L512 128.486V112c0-19.863-5.177-38.513-14.246-54.688z" style="fill:#f5f5f5"/><path d="m247.325 217.158-18.264.474 9.536-15.588-9.536-15.587 18.264.473 8.727-16.061 8.728 16.061 18.264-.473-9.536 15.587 9.536 15.588-18.264-.474-8.728 16.061z" style="fill:#ff4b55"/><path d="m256.052 175.105 7.543 13.874 15.787-.405-8.244 13.47 8.244 13.47-15.787-.404-7.543 13.874-7.543-13.874-15.787.404 8.244-13.47-8.244-13.47 15.787.405zm0-8.46-3.55 6.529-6.362 11.702-13.315-.342-7.43-.191 3.88 6.34 6.953 11.36-6.953 11.36-3.88 6.34 7.43-.191 13.315-.342 6.362 11.702 3.55 6.529 3.55-6.529 6.362-11.702 13.315.342 7.43.191-3.88-6.34-6.953-11.36 6.953-11.36 3.88-6.34-7.43.191-13.315.342-6.362-11.702z" style="fill:#73af00"/><path d="m197.164 306.435-18.264.474 9.536-15.588-9.536-15.587 18.264.474 8.727-16.061 8.728 16.061 18.264-.474-9.536 15.587 9.536 15.588-18.264-.474-8.728 16.061z" style="fill:#ff4b55"/><path d="m205.891 264.382 7.543 13.874 15.787-.404-8.244 13.47 8.244 13.47-15.787-.404-7.543 13.874-7.543-13.874-15.787.404 8.244-13.47-8.244-13.47 15.787.404zm0-8.459-3.55 6.529-6.362 11.702-13.315-.342-7.43-.191 3.88 6.34 6.953 11.36-6.953 11.36-3.88 6.34 7.43-.191 13.315-.342 6.362 11.702 3.55 6.529 3.55-6.529 6.362-11.702 13.315.342 7.43.191-3.88-6.34-6.953-11.36 6.953-11.36 3.88-6.34-7.43.191-13.315.342-6.362-11.702z" style="fill:#73af00"/><path d="m297.486 306.435-18.265.474 9.537-15.588-9.537-15.587 18.265.474 8.727-16.061 8.728 16.061 18.264-.474-9.536 15.587 9.536 15.588-18.264-.474-8.728 16.061z" style="fill:#ff4b55"/><path d="m306.213 264.382 7.543 13.874 15.787-.404-8.244 13.47 8.244 13.47-15.787-.404-7.543 13.874-7.543-13.874-15.787.404 8.244-13.47-8.244-13.47 15.787.404zm0-8.459-3.55 6.529-6.362 11.702-13.315-.342-7.43-.191 3.88 6.34 6.953 11.36-6.953 11.36-3.88 6.34 7.43-.191 13.315-.342 6.362 11.702 3.55 6.529 3.55-6.529 6.362-11.702 13.315.342 7.43.191-3.88-6.34-6.953-11.36 6.953-11.36 3.88-6.34-7.43.191-13.315.342-6.362-11.702z" style="fill:#73af00"/></svg>
