<svg xmlns="http://www.w3.org/2000/svg" xml:space="preserve" viewBox="0 0 512 512" width="48" height="48"><path d="M512 400V112C512 50.144 461.856 0 400 0H112C50.151 0 .011 50.134 0 111.981V400.02C.011 461.866 50.151 512 112 512h288c61.856 0 112-50.144 112-112" style="fill:#41479b"/><path d="M0 121.26h512v269.47H0z" style="fill:#ff4b55"/><path d="M434.298 358.16v-19.103h-6.368v-12.736h-6.368v-12.735h-6.368V300.85h-19.103v-38.206h-.002l6.37-6.368v-19.104h-6.368v-12.735h-6.368v-19.103h-6.367v-12.736h-6.368v-12.735h-6.368v-6.368h-12.736v6.368h-6.367v12.735h-6.368v12.736h-6.368v19.103h-6.367v12.735h-38.207v-19.103h-6.368v-19.103h-6.368v-19.103h-6.367v-12.736h-6.368v-12.736h-6.368v-6.367h-3.184v-6.368h-6.368v6.368h-3.183v6.367h-6.368v12.736h-6.368v12.736h-6.368v19.103h-6.368v19.103h-6.367v19.103h-38.207v-12.735h-6.368v-19.103h-6.367v-12.736h-6.368v-12.735h-6.368v-6.368H141.38v6.368h-6.367v12.735h-6.368v12.736h-6.368v19.103h-6.368v12.735h-6.367v19.104l6.364 6.368h.003v38.206H96.806v12.736h-6.368v12.735h-6.367v12.736h-6.368v19.103h-6.368v19.103h369.33V358.16z" style="fill:#f5f5f5"/></svg>
