<svg xmlns="http://www.w3.org/2000/svg" xml:space="preserve" viewBox="0 0 512 512" width="48" height="48"><path d="M112 0C50.152 0 .013 50.131 0 111.976v288.048C.013 461.869 50.152 512 112 512h58.667V0z" style="fill:#73af00"/><path d="M170.67 0h170.67v512H170.67z" style="fill:#ff4b55"/><path d="M512 400V112C512 50.144 461.856 0 400 0h-58.666v512H400c61.856 0 112-50.144 112-112M258.434 213.061l10.065 30.178 31.811.247c2.465.019 3.487 3.164 1.504 4.628l-25.591 18.898 9.596 30.331c.743 2.35-1.932 4.294-3.937 2.86L256 281.704l-25.881 18.499c-2.005 1.433-4.68-.511-3.937-2.86l9.596-30.331-25.591-18.898c-1.983-1.464-.961-4.609 1.504-4.628l31.811-.247 10.065-30.178c.78-2.338 4.087-2.338 4.867 0" style="fill:#ffe15a"/></svg>
