<svg xmlns="http://www.w3.org/2000/svg" xml:space="preserve" viewBox="0 0 512 512" width="48" height="48"><path d="M112 0C50.152 0 .013 50.131 0 111.976v288.048C.013 461.869 50.152 512 112 512h58.667V0z" style="fill:#f5f5f5"/><path d="M170.67 0h170.67v512H170.67z" style="fill:#4173cd"/><path d="M512 400V112C512 50.144 461.856 0 400 0h-58.666v512H400c61.856 0 112-50.144 112-112" style="fill:#ffe15a"/><path d="M229.356 265.746c-.101 2.636-4.055 3.751-4.055 3.751-.405-4.46 4.156-12.671 5.069-13.381.912-.71 4.562-4.055.912-3.345-3.649.71-7.197 8.92-8.008 10.34s-2.737 1.318-2.737 1.318v-8.008c0-1.419 6.285-4.46 6.285-4.46s1.014-6.082.101-6.691c-.912-.608-2.838 1.115-5.575 1.318s-6.082.304-8.921 2.94-2.94 4.46-2.94 8.921v10.746c0 10.745-10.036 18.247-13.786 21.997-1.021 1.021-1.413 2.269-1.445 3.58-.754.707-2.416 1.735-3.806 1.437-2.135-.458-2.453-4.212-2.453-6.41a1.215 1.215 0 1 0-2.433 0c0 7.432 3.163 8.755 5.049 8.883q.155.01.314.009c1.249 0 2.592-.494 3.707-1.18.725 2.624 2.252 5.062 2.69 6.048.811 1.825-3.649 4.764-3.649 4.764l3.649 11.252h4.967c0-2.788-3.396-2.23-3.903-2.939s-1.115-7.147-1.115-7.147l7.048-5.896a2.4 2.4 0 0 0 .859-1.838v-3.138s5.17.836 6.462 1.977c1.292 1.14.152 4.562.152 5.018s6.538 6.234 6.538 6.234h4.486c0-2.053-2.129-1.977-3.193-2.357s-4.258-4.334-4.258-4.334 1.723-5.348 1.723-6.665-7.4-6.69-7.4-6.69 1.014-1.723 8.515-6.386 6.893-9.934 6.893-9.934l6.488-7.299v-5.271c0-.002-2.129.201-2.23 2.836m53.473 0c.102 2.636 4.055 3.751 4.055 3.751.405-4.46-4.156-12.671-5.069-13.381-.912-.71-4.562-4.055-.912-3.345 3.649.71 7.197 8.92 8.008 10.34s2.737 1.318 2.737 1.318v-8.008c0-1.419-6.285-4.46-6.285-4.46s-1.014-6.082-.102-6.691c.912-.608 2.839 1.115 5.576 1.318s6.082.304 8.921 2.94 2.94 4.46 2.94 8.921v10.746c0 10.745 10.036 18.247 13.786 21.997 1.021 1.021 1.413 2.269 1.445 3.58.753.707 2.416 1.735 3.806 1.437 2.135-.458 2.453-4.212 2.453-6.41a1.215 1.215 0 1 1 2.432 0c0 7.432-3.163 8.755-5.049 8.883a5 5 0 0 1-.314.009c-1.249 0-2.592-.494-3.707-1.18-.725 2.624-2.252 5.062-2.69 6.048-.811 1.825 3.649 4.764 3.649 4.764l-3.649 11.252h-4.967c0-2.788 3.396-2.23 3.903-2.939s1.115-7.147 1.115-7.147l-7.048-5.896a2.4 2.4 0 0 1-.859-1.838v-3.138s-5.17.836-6.462 1.977c-1.293 1.14-.152 4.562-.152 5.018s-6.538 6.234-6.538 6.234h-4.486c0-2.053 2.129-1.977 3.193-2.357s4.258-4.334 4.258-4.334-1.723-5.348-1.723-6.665 7.4-6.69 7.4-6.69-1.014-1.723-8.515-6.386-6.893-9.934-6.893-9.934l-6.488-7.299v-5.271c.001-.002 2.129.201 2.231 2.836" style="fill:#c17400"/><path d="m246.335 258.802-7.298 7.299h14.597zm19.464 0-7.299 7.299h14.597zm-19.464 12.165-7.298 7.299h14.597zm19.464 0-7.299 7.299h14.597zm-19.464 12.165-7.298 7.298h14.597zm19.464 0-7.299 7.298h14.597zm-9.732 12.164-7.299 7.299h14.598z" style="fill:#c8c8c8"/><path d="M254.85 219.88h2.433v14.597h-2.433z" style="fill:#ffe15a"/><path d="M242.723 234.768c-.04-.157-.937-3.892 1.579-6.614 2.215-2.4 6.246-3.132 11.965-2.179l-.399 2.4c-4.798-.803-8.178-.306-9.779 1.428-1.607 1.742-1.012 4.35-1.006 4.376z" style="fill:#ffe15a"/><path d="M236.06 242.86c-3.04-1.52-4.534-5.935-3.263-9.641.533-1.554 2.928-6.491 11.345-4.804l-.477 2.385c-4.445-.896-7.561.283-8.565 3.207-.867 2.526.111 5.707 2.049 6.676zm33.351-8.092-2.359-.589 1.18.295-1.182-.29c.007-.026.611-2.649-1.018-4.395-1.607-1.725-4.985-2.214-9.765-1.414l-.399-2.4c5.726-.955 9.751-.221 11.965 2.179 2.515 2.722 1.619 6.457 1.578 6.614" style="fill:#ffe15a"/><path d="m276.074 242.86-1.088-2.176c1.939-.969 2.916-4.151 2.049-6.676-1.004-2.925-4.125-4.101-8.565-3.207l-.478-2.385c8.421-1.684 10.811 3.253 11.345 4.804 1.272 3.706-.223 8.12-3.263 9.64" style="fill:#ffe15a"/><path d="M265.799 234.474s-4.866-2.433-9.732-2.433-9.732 2.433-9.732 2.433c-4.866-2.433-12.165 0-12.165 4.866s7.299 12.164 7.299 12.164h29.194s7.299-7.299 7.299-12.164-7.298-7.299-12.163-4.866" style="fill:#ff4b55"/><path d="M253.63 221.09h4.866v2.433h-4.866z" style="fill:#ffe15a"/><path d="M231.74 207.71h48.658v9.732H231.74z" style="fill:#c8c8c8"/><path d="M225.645 212.182h7.297v15.387h-7.297z" style="fill:#c8c8c8" transform="rotate(71.572 229.293 219.876)"/><path d="M275.138 216.223h15.387v7.298h-15.387z" style="fill:#c8c8c8" transform="rotate(18.433 282.83 219.872)"/><path d="M256.067 311.11c-14.085 0-25.545-7.094-25.545-15.814v-41.359a3.653 3.653 0 0 1 3.649-3.649h43.792a3.653 3.653 0 0 1 3.649 3.649v41.359c0 8.719-11.46 15.814-25.545 15.814m-21.896-58.39c-.671 0-1.216.546-1.216 1.216v41.359c0 7.377 10.368 13.381 23.112 13.381s23.113-6.004 23.113-13.381v-41.359c0-.67-.545-1.216-1.216-1.216z" style="fill:#464655"/></svg>
