<svg xmlns="http://www.w3.org/2000/svg" xml:space="preserve" viewBox="0 0 512.001 512.001" width="48" height="48"><path d="M400 0H112C50.144 0 0 50.144 0 112v288c0 61.856 50.144 112 112 112h288c61.856 0 112-50.144 112-112V112C512 50.144 461.856 0 400 0" style="fill:#41479b"/><path d="M0 296.421h512v35.93H0zM0 400c0 1.41.035 2.813.087 4.21h511.827c.052-1.398.087-2.8.087-4.21v-31.72H0z" style="fill:#f5f5f5"/><path d="M0 332.35h512v35.93H0z" style="fill:#ff4b55"/><path d="m185.465 223.434 4.133 12.391 13.062.101c1.012.008 1.431 1.299.617 1.9l-10.508 7.759 3.94 12.454c.305.965-.793 1.763-1.617 1.174l-10.627-7.596-10.627 7.596c-.823.588-1.922-.21-1.617-1.174l3.94-12.454-10.508-7.759c-.814-.601-.394-1.892.618-1.9l13.062-.101 4.133-12.391c.321-.96 1.678-.96 1.999 0m0 217.74 4.133 12.391 13.062.101c1.012.008 1.431 1.299.617 1.9l-10.508 7.759 3.94 12.454c.305.965-.793 1.763-1.617 1.174l-10.627-7.596-10.627 7.596c-.823.588-1.922-.21-1.617-1.174l3.94-12.454-10.508-7.759c-.814-.601-.394-1.892.618-1.9l13.062-.101 4.133-12.391c.321-.959 1.678-.959 1.999 0m-70.68 12.168 10.503-7.765L136.035 453c.833.575 1.918-.24 1.597-1.2l-4.14-12.389 10.382-7.927c.804-.614.364-1.899-.648-1.89l-13.062.109-4.331-12.323c-.336-.955-1.693-.933-1.998.032l-3.933 12.456-13.058.311c-1.012.024-1.41 1.322-.587 1.91l10.631 7.59-3.74 12.515c-.288.969.823 1.75 1.637 1.148m21.006-177.01-10.665-7.542-10.588 7.649c-.82.592-1.923-.2-1.622-1.166l3.877-12.473-10.547-7.706c-.817-.597-.404-1.891.608-1.903l13.061-.167 4.07-12.412c.315-.962 1.673-.968 1.998-.01l4.195 12.37 13.062.036c1.012.003 1.438 1.292.627 1.897l-10.468 7.812 4.003 12.434c.31.962-.785 1.766-1.611 1.181m98.368.16 10.503-7.765 10.747 7.424c.833.575 1.918-.241 1.598-1.2l-4.14-12.389 10.382-7.927c.804-.614.364-1.899-.648-1.89l-13.062.108-4.331-12.323c-.335-.955-1.693-.933-1.998.032l-3.933 12.456-13.058.311c-1.012.024-1.411 1.322-.587 1.91l10.631 7.59-3.739 12.515c-.29.97.821 1.75 1.635 1.148m21.007 176.69-10.665-7.542-10.588 7.649c-.82.593-1.923-.2-1.623-1.166l3.877-12.473-10.546-7.706c-.817-.597-.404-1.891.608-1.903l13.061-.167 4.07-12.412c.315-.962 1.673-.968 1.998-.01l4.195 12.37 13.062.036c1.012.003 1.438 1.292.627 1.897l-10.469 7.812 4.003 12.434c.31.961-.784 1.765-1.61 1.181M99.163 377.077l-13.062.087-4.31-12.33c-.334-.955-1.692-.936-1.998.029l-3.954 12.449-13.059.289c-1.012.022-1.413 1.32-.59 1.909l10.618 7.607-3.76 12.509c-.291.969.819 1.751 1.633 1.151l10.516-7.748 10.735 7.442c.832.577 1.919-.237 1.599-1.198l-4.119-12.396 10.395-7.91c.806-.611.368-1.897-.644-1.89m-36.38-67.134 13.06-.247 3.994-12.436c.31-.964 1.667-.979 1.998-.022l4.27 12.344 13.062-.044c1.012-.003 1.446 1.283.639 1.893l-10.421 7.876 4.078 12.409c.316.961-.774 1.772-1.603 1.193l-10.711-7.477-10.541 7.713c-.817.598-1.924-.188-1.63-1.156l3.801-12.497-10.593-7.642c-.82-.592-.415-1.888.597-1.907m243.337-.482-13.062.087-4.31-12.33c-.334-.955-1.692-.936-1.998.029l-3.954 12.449-13.059.289c-1.012.022-1.413 1.32-.59 1.909l10.618 7.607-3.76 12.509c-.291.969.818 1.751 1.633 1.151l10.516-7.748 10.735 7.442c.832.577 1.919-.237 1.599-1.198l-4.119-12.396 10.395-7.91c.806-.611.368-1.897-.644-1.89m-36.38 68.099 13.06-.247 3.994-12.436c.309-.964 1.667-.979 1.998-.022l4.27 12.344 13.062-.044c1.012-.003 1.446 1.283.639 1.893l-10.421 7.876 4.078 12.409c.316.961-.774 1.772-1.603 1.192l-10.711-7.477-10.541 7.713c-.817.598-1.924-.188-1.63-1.156l3.801-12.497-10.593-7.642c-.82-.591-.415-1.887.597-1.906" style="fill:#ffe15a"/></svg>
