<svg xmlns="http://www.w3.org/2000/svg" xml:space="preserve" viewBox="0 0 512 512" width="48" height="48"><path d="M0 400c0 61.856 50.144 112 112 112h288c61.856 0 112-50.144 112-112v-16H0z" style="fill:#ffe15a"/><path d="M0 256h512v128H0z" style="fill:#73af00"/><path d="M0 128h512v128H0z" style="fill:#f5f5f5"/><path d="M400 0H112C50.144 0 0 50.144 0 112v16h512v-16C512 50.144 461.856 0 400 0" style="fill:#41479b"/><path d="M192 0h128v512H192z" style="fill:#ff4b55"/><path d="m91.062 17.245 11.243 33.71 35.535.275c2.753.021 3.895 3.535 1.68 5.17l-28.586 21.11 10.719 33.881c.83 2.625-2.158 4.796-4.398 3.195l-28.91-20.664-28.91 20.664c-2.24 1.601-5.228-.57-4.398-3.195L65.755 77.51 37.169 56.4c-2.215-1.635-1.073-5.149 1.68-5.17l35.535-.275 11.243-33.71c.87-2.612 4.564-2.612 5.435 0" style="fill:#ffe15a"/></svg>
