<svg xmlns="http://www.w3.org/2000/svg" xml:space="preserve" viewBox="0 0 512 512" width="48" height="48"><path d="M511.989 400V112c0-61.856-50.144-112-112-112h-288C51.239 0 1.79 48.368.041 108.695v294.61C1.79 463.632 51.239 512 111.989 512h288c61.856 0 112-50.144 112-112" style="fill:#f5f5f5"/><path d="M256.041 0H111.989c-30.915 0-58.904 12.525-79.17 32.778L256.041 256zm255.948 256V112c0-30.926-12.535-58.925-32.801-79.193L256.041 256zM.041 256l-.03 145.781c.472 30.222 12.905 57.54 32.785 77.418L256.041 256zm256 256h143.948c30.93 0 58.931-12.538 79.199-32.808L256.041 256z" style="fill:#464655"/><path d="M288.378 237.137v43.116c0 17.831-14.506 32.337-32.337 32.337s-32.337-14.506-32.337-32.337v-43.116zm10.779-21.558h-86.232c-5.953 0-10.779 4.826-10.779 10.779v53.895c0 29.765 24.13 53.895 53.895 53.895s53.895-24.13 53.895-53.895v-53.895c0-5.953-4.826-10.779-10.779-10.779" style="fill:#ff4b55"/><path d="M288.378 237.137v43.116c0 17.831-14.506 32.337-32.337 32.337s-32.337-14.506-32.337-32.337v-43.116z" style="fill:#f5f5f5"/><path d="M217.143 222.912c3.554 5.467-2.281 11.302-7.748 7.748a2.9 2.9 0 0 1-.856-.856c-3.554-5.467 2.281-11.302 7.748-7.748.34.221.635.516.856.856m86.232 0c3.554 5.467-2.281 11.302-7.748 7.748a2.9 2.9 0 0 1-.856-.856c-3.554-5.467 2.281-11.302 7.748-7.748.34.221.635.516.856.856m-86.232 43.115c3.554 5.467-2.281 11.302-7.748 7.748a2.9 2.9 0 0 1-.856-.856c-3.554-5.467 2.281-11.302 7.748-7.748.34.222.635.516.856.856m86.232 0c3.554 5.467-2.281 11.302-7.748 7.748a2.9 2.9 0 0 1-.856-.856c-3.554-5.467 2.281-11.302 7.748-7.748.34.222.635.516.856.856m-43.116-43.115c3.554 5.467-2.281 11.302-7.748 7.748a2.9 2.9 0 0 1-.856-.856c-3.554-5.467 2.281-11.302 7.748-7.748.34.221.635.516.856.856m0 97.433c3.554 5.467-2.281 11.302-7.748 7.748a2.9 2.9 0 0 1-.856-.856c-3.554-5.467 2.281-11.302 7.748-7.748.34.221.635.516.856.856m32.359-14.57c3.554 5.467-2.281 11.302-7.748 7.748a2.9 2.9 0 0 1-.856-.856c-3.554-5.467 2.281-11.302 7.748-7.748.34.221.635.516.856.856m-64.083 0c3.554 5.467-2.281 11.302-7.748 7.748a2.9 2.9 0 0 1-.856-.856c-3.554-5.467 2.281-11.302 7.748-7.748.34.221.635.516.856.856" style="fill:#ffe15a"/><path d="M263.003 266.741v9.282a6.97 6.97 0 0 1-6.961 6.961 6.97 6.97 0 0 1-6.961-6.961v-9.282zm0-22.007v9.282a6.97 6.97 0 0 1-6.961 6.961 6.97 6.97 0 0 1-6.961-6.961v-9.282zm0 44.239v9.282a6.97 6.97 0 0 1-6.961 6.961 6.97 6.97 0 0 1-6.961-6.961v-9.282zm18.751-22.232v9.282c0 3.839-3.123 6.961-6.961 6.961s-6.961-3.123-6.961-6.961v-9.282zm-37.502 0v9.282a6.97 6.97 0 0 1-6.961 6.961 6.97 6.97 0 0 1-6.961-6.961v-9.282z" style="fill:#41479b"/><path d="M310.797 215.579H201.819a3.765 3.765 0 0 1-3.765-3.765v-9.115a3.765 3.765 0 0 1 3.765-3.765h108.978a3.765 3.765 0 0 1 3.765 3.765v9.115a3.765 3.765 0 0 1-3.765 3.765" style="fill:#ffe15a"/><path d="m256.308 203.096-8.322 4.161 8.322 4.161 8.322-4.161z" style="fill:#ff4b55"/><ellipse cx="283.36" cy="207.26" rx="6.241" ry="4.161" style="fill:#4173cd"/><ellipse cx="229.26" cy="207.26" rx="6.241" ry="4.161" style="fill:#4173cd"/><path d="M272.562 205.973c1.299 2.081-.893 4.273-2.974 2.974a1.3 1.3 0 0 1-.407-.407c-1.299-2.081.893-4.273 2.974-2.974.162.101.306.245.407.407m24.966 0c1.299 2.081-.893 4.273-2.974 2.974a1.3 1.3 0 0 1-.407-.407c-1.299-2.081.893-4.273 2.974-2.974.162.101.306.245.407.407m-54.093 0c1.299 2.081-.893 4.273-2.974 2.974a1.3 1.3 0 0 1-.407-.407c-1.299-2.081.893-4.273 2.974-2.974.162.101.306.245.407.407m-24.966 0c1.299 2.081-.893 4.273-2.974 2.974a1.3 1.3 0 0 1-.407-.407c-1.299-2.081.893-4.273 2.974-2.974.162.101.306.245.407.407" style="fill:#f5f5f5"/><path d="M198.054 205.176v4.161l4.161 2.081 8.322-4.161-8.322-4.161zm116.508 4.161v-4.161l-4.161-2.08-8.322 4.161 8.322 4.161z" style="fill:#ff4b55"/><path d="M228.617 171.868c-1.327-.654-2.906-.252-4.234.776.682-1.009 1.073-2.354.999-3.819-.152-2.977-2.135-5.295-4.43-5.178s-4.033 2.624-3.881 5.6c.08 1.582.697 2.942 1.584 3.886-1.792-.875-3.752-.789-4.95.409-1.625 1.624-1.234 4.651.873 6.758s5.133 2.499 6.758.874c.454-.454.713-1.028.859-1.65.331.87.842 1.625 1.652 2.025 2.061 1.016 4.8-.328 6.118-3.001 1.317-2.673.714-5.664-1.348-6.68m-6.117 3.002a6.8 6.8 0 0 0-.589 1.88c-.31-.821-.746-1.629-1.449-2.332-.121-.122-.268-.179-.395-.29.456.189.932.324 1.434.299.674-.035 1.272-.321 1.815-.718-.29.366-.596.714-.816 1.161m59.618 3.678c1.317 2.673 4.056 4.017 6.118 3.001.81-.399 1.32-1.154 1.652-2.025.146.622.405 1.196.859 1.65 1.625 1.625 4.651 1.234 6.758-.874s2.499-5.133.873-6.758c-1.198-1.199-3.158-1.284-4.95-.409.887-.943 1.504-2.304 1.585-3.886.151-2.977-1.586-5.484-3.881-5.6-2.295-.117-4.278 2.201-4.43 5.178-.075 1.465.316 2.81.999 3.819-1.329-1.028-2.907-1.43-4.234-.776-2.063 1.016-2.667 4.007-1.349 6.68m6.649-4.84c.544.397 1.142.684 1.815.718.502.025.978-.11 1.434-.299-.127.11-.274.168-.395.29-.703.703-1.139 1.512-1.449 2.332a6.7 6.7 0 0 0-.589-1.88c-.22-.446-.527-.794-.816-1.161" style="fill:#f5f5f5"/><path d="M331.981 159.645c-5.994-2.133-18.603-3.275-23.401 7.619a4.16 4.16 0 0 0 2.129 5.486c2.033.897 4.369.009 5.363-1.956l1.569 1.858c-1.312 3.688-1.839 6.987-1.986 8.123-2.141 8.875-10.38 9.838-13.842 9.838-5.585 0-8.743-5.986-8.773-6.046a4.2 4.2 0 0 0-2.822-2.166 4.17 4.17 0 0 0-3.462.78c-2.28 1.792-9.372 6.632-14.724 7.485-2.58.415-4.685-.016-6.107-1.235-1.152-.983-1.56-2.219-1.56-2.979 0-1.865 2.294-4.161 4.161-4.161 1.414 0 1.956.906 1.956.906a4.165 4.165 0 0 0 5.545 1.991 4.163 4.163 0 0 0 1.981-5.542c-.807-1.707-3.032-4.339-6.685-5.292 2.22-3.522 4.259-7.804 5.525-12.867l-12.483-4.161s4.161-12.483-8.322-12.483-8.322 12.483-8.322 12.483l-12.483 4.161c1.266 5.063 3.305 9.345 5.525 12.867-3.653.953-5.878 3.586-6.685 5.292a4.16 4.16 0 0 0 1.981 5.542 4.16 4.16 0 0 0 5.54-1.983s.546-.914 1.961-.914c1.867 0 4.161 2.296 4.161 4.161 0 .76-.408 1.995-1.56 2.979-1.422 1.219-3.527 1.65-6.107 1.235-5.352-.853-12.444-5.693-14.724-7.485a4.17 4.17 0 0 0-3.462-.78 4.2 4.2 0 0 0-2.822 2.166c-.03.061-3.188 6.046-8.773 6.046-3.462 0-11.701-.963-13.842-9.838-.147-1.136-.674-4.435-1.986-8.123l1.569-1.858c.993 1.965 3.33 2.853 5.363 1.956a4.16 4.16 0 0 0 2.129-5.486c-4.799-10.894-17.408-9.752-23.402-7.619a4.16 4.16 0 0 0 .309 7.94c5.098 1.369 7.385 11.114 7.784 14.417.018.142.045.293.075.435 2.326 10.175 10.758 16.498 22.002 16.498 6.445 0 10.9-3.649 13.487-6.672 3.645 2.401 9.51 5.75 14.986 6.619q1.576.251 3.082.252c3.759 0 7.141-1.158 9.736-3.373 2.806-2.393 4.48-5.876 4.48-9.309 0 3.434 1.674 6.916 4.48 9.309 2.595 2.215 5.977 3.373 9.736 3.373q1.507 0 3.082-.252c5.475-.87 11.341-4.218 14.986-6.619 2.586 3.023 7.042 6.672 13.487 6.672 11.244 0 19.675-6.323 22.002-16.498.03-.142.057-.293.075-.435.398-3.304 2.686-13.048 7.784-14.417a4.159 4.159 0 0 0 .304-7.94" style="fill:#ffe15a"/><ellipse cx="186.174" cy="173.977" rx="4.161" ry="6.241" style="fill:#4173cd" transform="rotate(157.474 186.174 173.977)"/><ellipse cx="325.914" cy="173.974" rx="4.161" ry="6.241" style="fill:#4173cd" transform="rotate(22.526 325.914 173.974)"/><ellipse cx="256.04" cy="169.81" rx="6.241" ry="8.322" style="fill:#4173cd"/></svg>
