<svg xmlns="http://www.w3.org/2000/svg" xml:space="preserve" viewBox="0 0 512 512" width="48" height="48"><path d="M400 0H112C50.144 0 0 50.144 0 112v130.526h17.655V256H512V112C512 50.144 461.856 0 400 0" style="fill:#f5f5f5"/><path d="M17.655 242.526H0V400c0 61.856 50.144 112 112 112h288c61.856 0 112-50.144 112-112V256H17.655z" style="fill:#ff4b55"/><path d="M256 0H112C50.144 0 0 50.144 0 112v144h256z" style="fill:#41479b"/><path d="m133.19 70.533 12.845 38.515 40.599.315c5.256.041 7.436 6.749 3.207 9.871l-32.661 24.118 12.247 38.709c1.585 5.012-4.121 9.157-8.397 6.101L128 164.554l-33.031 23.609c-4.276 3.057-9.982-1.089-8.397-6.101l12.247-38.709-32.66-24.118c-4.229-3.123-2.049-9.831 3.207-9.871l40.599-.315 12.845-38.515c1.663-4.987 8.717-4.987 10.38-.001" style="fill:#f5f5f5"/></svg>
