<svg xmlns="http://www.w3.org/2000/svg" xml:space="preserve" viewBox="0 0 512 512" width="48" height="48"><path d="M32.804 32.804C12.541 53.067.007 81.057 0 111.976v288.048C.013 461.869 50.152 512 112 512h288c30.928 0 58.928-12.536 79.196-32.804z" style="fill:#41479b"/><path d="M512 400V112C512 50.144 461.856 0 400 0H112C81.072 0 53.072 12.536 32.804 32.804l446.392 446.392C499.464 458.928 512 430.928 512 400" style="fill:#73af00"/><path d="M316.831 211.555c44.388 73.235-32.04 149.663-105.275 105.275a48.7 48.7 0 0 1-16.386-16.386c-44.388-73.235 32.04-149.663 105.275-105.275a48.7 48.7 0 0 1 16.386 16.386" style="fill:#ffe15a"/><path d="m44.838 327.549 3.064 7.761 7.978-2.443a.511.511 0 0 1 .593.743l-4.157 7.234 6.884 4.714a.511.511 0 0 1-.212.927l-8.248 1.26.607 8.322a.51.51 0 0 1-.856.412l-6.128-5.663-6.128 5.663a.51.51 0 0 1-.856-.412l.607-8.322-8.248-1.26a.511.511 0 0 1-.212-.927l6.884-4.714-4.157-7.234a.51.51 0 0 1 .593-.743l7.978 2.443 3.064-7.761a.51.51 0 0 1 .95 0m111.578-20.921 3.064 7.761 7.978-2.443a.511.511 0 0 1 .593.743l-4.157 7.234 6.884 4.714a.511.511 0 0 1-.212.927l-8.248 1.26.607 8.322a.511.511 0 0 1-.857.412l-6.128-5.663-6.128 5.663a.51.51 0 0 1-.856-.412l.607-8.322-8.248-1.26a.511.511 0 0 1-.212-.927l6.884-4.714-4.157-7.234a.51.51 0 0 1 .593-.743l7.978 2.443 3.064-7.761a.511.511 0 0 1 .951 0m-55.789-50.31 3.064 7.761 7.978-2.443a.511.511 0 0 1 .593.743l-4.157 7.234 6.884 4.714a.511.511 0 0 1-.211.927l-8.248 1.26.607 8.321a.51.51 0 0 1-.856.412l-6.128-5.663-6.128 5.663a.51.51 0 0 1-.856-.412l.607-8.321-8.248-1.26a.511.511 0 0 1-.212-.927l6.884-4.714-4.157-7.234a.51.51 0 0 1 .593-.743l7.978 2.443 3.064-7.761a.51.51 0 0 1 .949 0m0 182.809 3.064 7.761 7.978-2.443a.511.511 0 0 1 .593.743l-4.157 7.234 6.884 4.714a.511.511 0 0 1-.211.927l-8.248 1.26.607 8.321a.511.511 0 0 1-.856.413l-6.128-5.663-6.128 5.663a.51.51 0 0 1-.856-.413l.607-8.321-8.248-1.26a.511.511 0 0 1-.212-.927l6.884-4.714-4.157-7.234a.51.51 0 0 1 .593-.743l7.978 2.443 3.064-7.761a.51.51 0 0 1 .949 0m22.835-104.555 2.139 6.413 6.76.052a.545.545 0 0 1 .32.984l-5.438 4.016 2.039 6.446c.158.499-.411.912-.837.608l-5.5-3.931-5.5 3.931a.545.545 0 0 1-.837-.608l2.039-6.446-5.438-4.016a.545.545 0 0 1 .32-.984l6.76-.052 2.139-6.413a.545.545 0 0 1 1.034 0" style="fill:#f5f5f5"/><path d="M212.115 224.182c-3.025-.706-6.065 7.076-2.696 9.772s9.435 7.75 5.728 10.783c-3.706 3.033-5.054 3.37-5.728 7.076s0 4.38-3.033 6.065-10.109 5.054-7.076 8.424 7.076 1.348 9.772-4.043c0 0 18.87-.674 19.543.674.674 1.348 2.359 6.402 6.402 5.054l4.044-1.348s2.359-1.011 4.043 1.011 5.728 2.696 10.446 2.696c4.717 0 8.761 2.696 8.424 9.098-.216 4.101-1.261 12.628-1.985 18.227a5.61 5.61 0 0 0 4.651 6.254l8.628 1.438a3.936 3.936 0 0 0 4.58-3.534c.406-4.61.993-11.363.973-11.602-.194-2.422 4.717-14.826 4.38-20.554l-.337-5.728s5.054-.674 7.076-4.043 6.402-11.793 15.163-14.826l2.359-5.728s-6.739-3.033-5.391-5.054 2.022-7.413 1.011-11.793-1.348-10.446-1.348-10.446-2.402-1.015-2.91.381c-.507 1.395-1.015 2.157-2.283 1.903s-3.171-.381-3.679-1.522-1.903-2.283-3.171-1.649-3.425 9.133-6.469 10.021c0 0-.254-3.679-2.156-2.918s-1.776 2.537-2.03 5.708-21.565 24.61-40.213 18.901c0 0-2.03-4.059-6.216-3.679s-8.245.254-10.656-2.664c-2.41-2.92-6.247-11.514-9.846-12.355" style="fill:#73af00"/><path d="M305.597 180.72c4.024 4.276 48.24 16.316 92.932-7.094s71.295-30.15 71.295-30.15.355-6.03 5.853-6.917 2.838-3.192 1.419-4.966-8.335-6.562-17.735-2.483c0 0-10.937.414-12.592-14.72s-2.365-30.504-6.148-37.126c-3.784-6.621-34.997-39.727-38.781-37.126s9.459 35.47 21.755 47.057c0 0 2.838 20.336-.709 21.282s-23.174-17.026-58.171-21.282c0 0 14.897 20.336 33.106 28.849 18.208 8.513 23.174 16.316 22.701 19.627s-6.621 19.154-16.789 26.484-35.707 27.194-93.642 16.789c-.001.003-6.386-.234-4.494 1.776" style="fill:#ffe15a"/></svg>
