<svg xmlns="http://www.w3.org/2000/svg" xml:space="preserve" viewBox="0 0 512 512" width="48" height="48"><path d="M400 0H112C50.144 0 0 50.144 0 112v16h512v-16C512 50.144 461.856 0 400 0" style="fill:#ffe15a"/><path d="M0 128h512v128H0z" style="fill:#f5f5f5"/><path d="M0 256h512v128H0z" style="fill:#ff4b55"/><path d="M0 400c0 61.856 50.144 112 112 112h288c61.856 0 112-50.144 112-112v-16H0z" style="fill:#4173cd"/><path d="M253.285 249.017 33.086 32.528C12.654 52.818 0 80.93 0 112v288c0 31.07 12.654 59.182 33.086 79.471l220.198-216.488c3.621-3.569 3.621-10.397.001-13.966" style="fill:#73af00"/><path d="M63.777 256c0-42.49 27.774-78.442 66.144-90.824 2.017-.651 1.736-3.596-.365-3.871a93 93 0 0 0-12.065-.796C64.753 160.509 22 203.262 22 256s42.753 95.491 95.491 95.491c4.092 0 8.115-.278 12.065-.796 2.102-.275 2.382-3.22.365-3.871C91.552 334.442 63.777 298.49 63.777 256" style="fill:#f5f5f5"/><path d="m130.41 183.063 2.629 7.882 8.308.064c1.076.008 1.522 1.381.656 2.02l-6.684 4.936 2.506 7.922c.325 1.026-.843 1.874-1.718 1.248l-6.76-4.831-6.759 4.831c-.875.626-2.043-.223-1.718-1.248l2.506-7.922-6.684-4.936c-.865-.639-.419-2.012.656-2.02l8.308-.064 2.629-7.882c.342-1.02 1.785-1.02 2.125 0m0 39.943 2.629 7.882 8.308.064c1.076.008 1.522 1.381.656 2.02l-6.684 4.936 2.506 7.922c.325 1.026-.843 1.874-1.718 1.249l-6.76-4.831-6.759 4.831c-.875.626-2.043-.223-1.718-1.249l2.506-7.922-6.684-4.936c-.865-.639-.419-2.012.656-2.02l8.308-.064 2.629-7.882c.342-1.02 1.785-1.02 2.125 0m0 39.942 2.629 7.882 8.308.064c1.076.008 1.522 1.381.656 2.02l-6.684 4.936 2.506 7.922c.325 1.026-.843 1.874-1.718 1.249l-6.76-4.831-6.759 4.831c-.875.625-2.043-.223-1.718-1.249l2.506-7.922-6.684-4.936c-.865-.639-.419-2.012.656-2.02l8.308-.064 2.629-7.882c.342-1.02 1.785-1.02 2.125 0m0 39.943 2.629 7.882 8.308.065c1.076.008 1.522 1.381.656 2.02l-6.684 4.936 2.506 7.922c.325 1.026-.843 1.874-1.718 1.249l-6.76-4.831-6.759 4.831c-.875.626-2.043-.223-1.718-1.249l2.506-7.922-6.684-4.936c-.865-.639-.419-2.012.656-2.02l8.308-.065 2.629-7.882c.342-1.02 1.785-1.02 2.125 0" style="fill:#f5f5f5"/></svg>
