<svg xmlns="http://www.w3.org/2000/svg" xml:space="preserve" viewBox="0 0 512 512" width="48" height="48"><path d="M400 0H112C50.144 0 0 50.144 0 112v288c0 61.856 50.144 112 112 112h288c61.856 0 112-50.144 112-112V112C512 50.144 461.856 0 400 0" style="fill:#41479b"/><path d="M148.21 256.046h13.474v-81.77L256 236.069v-19.964l-83.768-54.375h24.748L256 200.041v-12.294l-39.71-26.017H256v-13.473H148.21zm-53.894 0h13.473V148.257H0v13.473h39.71L0 187.747v18.9l69.197-44.917h24.748L0 222.712v13.357l94.316-61.793zM107.789.087c-4.566.169-9.063.608-13.474 1.308v80.421l-66.561-43.61a112.5 112.5 0 0 0-10.867 14.641l63.955 41.515H56.094l-45.65-29.633a111 111 0 0 0-3.437 8.207L39.71 94.362H1.387a113 113 0 0 0-1.302 13.474h107.704zM256 107.836V94.362h-39.71L256 68.345V49.203l-69.568 45.159h-24.748L256 33.138V20.023l-94.316 61.793V.046H148.21v107.79z" style="fill:#f5f5f5"/><path d="M107.789 256.046h40.421v-107.79H256v-40.421H148.21V.046h-39.347c-.359.01-.716.027-1.074.041v107.749H.085A113 113 0 0 0 0 112v36.256h107.789z" style="fill:#ff4b55"/><path d="M69.197 161.73 0 206.647v16.065l93.945-60.982zm103.035 0L256 216.105v-16.064l-59.02-38.311zm-91.39-67.368L16.887 52.847a112 112 0 0 0-6.443 11.882l45.65 29.633zm105.59 0L256 49.203V33.138l-94.316 61.224z" style="fill:#ff4b55"/><path d="m366.172 241.595 3.447 10.335 10.895.085c.844.007 1.194 1.084.515 1.585l-8.764 6.472 3.286 10.387c.255.805-.662 1.47-1.348.98l-8.863-6.335-8.863 6.335c-.687.491-1.603-.175-1.348-.98l3.286-10.387-8.764-6.472c-.679-.501-.329-1.579.515-1.585l10.895-.085 3.447-10.335c.264-.8 1.397-.8 1.664 0m-46.325 12.712 7.353 8.04 9.987-4.354c.774-.337 1.531.504 1.115 1.238l-5.374 9.477 7.227 8.153c.56.632-.006 1.612-.833 1.443l-10.674-2.183-5.52 9.393c-.428.728-1.536.492-1.63-.346l-1.223-10.826-10.639-2.348c-.824-.182-.943-1.308-.174-1.657l9.918-4.508-1.055-10.844c-.083-.84.952-1.301 1.522-.678m-37.15 30.455 9.987 4.354 7.353-8.04c.57-.623 1.604-.162 1.523.678l-1.055 10.844 9.918 4.508c.768.349.65 1.476-.174 1.658l-10.639 2.348-1.223 10.826c-.095.839-1.202 1.074-1.63.347l-5.52-9.393-10.674 2.182c-.827.169-1.393-.812-.833-1.443l7.227-8.153-5.375-9.478c-.417-.734.341-1.576 1.115-1.238m-21.551 42.932 10.895-.084 3.447-10.335c.267-.801 1.4-.801 1.667 0l3.447 10.335 10.895.084c.844.007 1.194 1.084.515 1.585l-8.764 6.472 3.286 10.387c.255.805-.662 1.47-1.348.98l-8.863-6.335-8.863 6.335c-.687.491-1.603-.175-1.348-.98l3.286-10.387-8.764-6.472c-.682-.502-.332-1.579.512-1.585m-2.226 47.986 9.918-4.508-1.055-10.844c-.082-.84.953-1.301 1.523-.678l7.353 8.04 9.987-4.354c.774-.337 1.532.504 1.115 1.238l-5.374 9.477 7.227 8.153c.56.632-.006 1.612-.833 1.443l-10.674-2.182-5.52 9.393c-.428.728-1.535.492-1.63-.346l-1.223-10.826-10.639-2.348c-.825-.183-.943-1.309-.175-1.658m17.485 44.742 7.227-8.153-5.374-9.477c-.416-.734.341-1.576 1.115-1.239l9.987 4.354 7.353-8.04c.57-.623 1.604-.162 1.523.678l-1.055 10.844 9.918 4.508c.768.349.65 1.476-.174 1.658l-10.639 2.348-1.223 10.826c-.095.839-1.203 1.074-1.63.346l-5.52-9.393-10.674 2.182c-.828.171-1.394-.81-.834-1.442m34.171 33.763 3.286-10.387-8.764-6.472c-.679-.501-.329-1.579.515-1.585l10.895-.084 3.447-10.335c.267-.801 1.4-.801 1.667 0l3.447 10.335 10.895.084c.844.007 1.194 1.084.515 1.585l-8.764 6.472L331 454.185c.255.805-.662 1.47-1.348.98l-8.863-6.335-8.864 6.335c-.687.49-1.604-.175-1.349-.98m44.95 16.945-1.223-10.826-10.639-2.348c-.824-.182-.943-1.308-.174-1.658l9.918-4.508-1.055-10.844c-.082-.84.953-1.301 1.523-.678l7.353 8.04 9.987-4.354c.774-.337 1.532.504 1.115 1.238l-5.374 9.477 7.227 8.153c.56.632-.006 1.612-.833 1.443l-10.674-2.182-5.52 9.393c-.429.728-1.537.493-1.631-.346m47.955-2.802-5.52-9.393-10.674 2.183c-.827.169-1.393-.812-.833-1.443l7.227-8.153-5.374-9.477c-.416-.734.341-1.576 1.115-1.239l9.987 4.354 7.353-8.04c.57-.623 1.604-.162 1.523.678l-1.055 10.844 9.918 4.508c.768.349.65 1.476-.174 1.658l-10.639 2.348-1.223 10.826c-.095.838-1.203 1.074-1.631.346m42.67-22.066-8.863-6.335-8.864 6.335c-.687.491-1.603-.175-1.348-.98l3.286-10.387-8.764-6.472c-.679-.501-.329-1.578.515-1.585l10.895-.084 3.447-10.335c.267-.801 1.4-.801 1.667 0l3.447 10.335 10.895.084c.844.007 1.194 1.084.515 1.585l-8.764 6.472 3.286 10.387c.253.805-.663 1.471-1.35.98m30.006-37.513-10.674-2.182-5.52 9.393c-.428.728-1.535.492-1.63-.346l-1.223-10.826-10.639-2.348c-.824-.182-.943-1.308-.174-1.658l9.918-4.508-1.055-10.844c-.082-.84.953-1.301 1.523-.678l7.353 8.04 9.987-4.354c.774-.337 1.532.504 1.115 1.239l-5.374 9.477 7.227 8.153c.559.631-.007 1.611-.834 1.442m12.154-46.474-10.639 2.348-1.223 10.826c-.095.839-1.203 1.074-1.63.346l-5.52-9.393-10.674 2.182c-.827.169-1.393-.812-.833-1.443l7.227-8.153-5.374-9.477c-.416-.734.341-1.576 1.115-1.239l9.987 4.354 7.353-8.04c.57-.623 1.604-.162 1.523.678l-1.055 10.844 9.918 4.508c.767.35.649 1.477-.175 1.659m-7.8-47.4-8.764 6.472 3.286 10.387c.255.805-.662 1.47-1.348.98l-8.863-6.335-8.863 6.335c-.687.491-1.603-.175-1.348-.98l3.286-10.387-8.764-6.472c-.679-.501-.329-1.578.515-1.585l10.894-.084 3.447-10.335c.267-.801 1.4-.801 1.667 0l3.447 10.335 10.895.084c.842.006 1.192 1.083.513 1.585m-26.405-40.13-5.374 9.477 7.227 8.153c.56.632-.006 1.612-.833 1.443l-10.674-2.182-5.52 9.393c-.428.728-1.535.492-1.63-.346l-1.223-10.826-10.639-2.348c-.824-.182-.943-1.308-.174-1.658l9.918-4.508-1.055-10.844c-.082-.84.953-1.301 1.523-.678l7.353 8.04 9.987-4.354c.773-.338 1.53.504 1.114 1.238m-40.444-25.92-1.055 10.844 9.918 4.508c.768.349.65 1.476-.174 1.658l-10.639 2.348-1.223 10.826c-.095.839-1.203 1.074-1.63.346l-5.52-9.393-10.674 2.182c-.827.169-1.393-.812-.833-1.443l7.227-8.153-5.374-9.477c-.416-.734.342-1.576 1.115-1.239l9.987 4.354 7.353-8.04c.569-.622 1.604-.161 1.522.679" style="fill:#f5f5f5"/><path d="m366.172 241.595 3.447 10.335 10.895.085c.844.007 1.194 1.084.515 1.585l-8.764 6.472 3.286 10.387c.255.805-.662 1.47-1.348.98l-8.863-6.335-8.863 6.335c-.687.491-1.603-.175-1.348-.98l3.286-10.387-8.764-6.472c-.679-.501-.329-1.579.515-1.585l10.895-.085 3.447-10.335c.264-.8 1.397-.8 1.664 0" style="fill:#f5f5f5"/></svg>
