<svg xmlns="http://www.w3.org/2000/svg" xml:space="preserve" viewBox="0 0 512 512" width="48" height="48"><path d="M0 175.16h512v161.68H0z" style="fill:#ff4b55"/><path d="M400 0H112C58.533 0 13.823 37.468 2.678 87.579h506.644C498.177 37.468 453.467 0 400 0" style="fill:#41479b"/><path d="M2.678 87.579A112.3 112.3 0 0 0 0 112v63.158h512V112c0-8.389-.929-16.559-2.678-24.421z" style="fill:#f5f5f5"/><path d="M112 512h288c53.467 0 98.177-37.468 109.322-87.579H2.678C13.823 474.532 58.533 512 112 512" style="fill:#41479b"/><path d="M0 400c0 8.389.929 16.559 2.678 24.421h506.644A112.3 112.3 0 0 0 512 400v-63.158H0z" style="fill:#f5f5f5"/><ellipse cx="117.02" cy="256" rx="63.02" ry="67.37" style="fill:#f5f5f5"/><path d="M84.42 229.92h65.19v32.598H84.42z" style="fill:#3cc8ff"/><path d="m93.117 248.458.744 7.192 2.93-6.61-1.515 7.069 4.829-5.38-3.625 6.255 6.255-3.625-5.381 4.829 7.069-1.515-6.609 2.93 7.191.743-7.191.744 6.609 2.93-7.069-1.515 5.381 4.829-6.255-3.625 3.625 6.255-4.829-5.381 1.515 7.07-2.93-6.61-.744 7.192-.744-7.192-2.93 6.61 1.515-7.07-4.828 5.381 3.625-6.255-6.256 3.625 5.381-4.829-7.069 1.515 6.609-2.93-7.191-.744 7.191-.743-6.609-2.93 7.069 1.515-5.381-4.829 6.256 3.625-3.625-6.255 4.828 5.38-1.515-7.069 2.93 6.61z" style="fill:#ffe15a"/><path d="M130.061 308.156h-26.078l-23.905-19.558v-28.252h76.061v28.252z" style="fill:#41479b"/><path d="M143.1 251.654h-.003a1.085 1.085 0 0 0-2.168 0h-.003c0 3.772-2.185 8.988-4.866 12.724-3.742-4.725-5.15-10.205-5.68-13.655a2.448 2.448 0 0 0-3.522-1.814c-.717.359-1.2 1.059-1.324 1.851-1.664 10.658-6.688 15.187-9.941 17.049-4.871-4.709-6.476-12.33-7.005-16.834a2.533 2.533 0 0 0-3.657-1.968 2.56 2.56 0 0 0-1.27 1.497c-6.816 20.778-25.757 22.883-25.757 22.883v6.52h76.061v-10.865c-8.692-2.176-10.865-17.388-10.865-17.388" style="fill:#73af00"/><path d="M153.966 232.095c-8.693-4.346-8.693-8.693-8.693-8.693s-10.866-4.346-19.559-4.346c0 0 2.173-4.346-2.173-4.346h-13.04c-4.346 0-2.173 4.346-2.173 4.346-8.693 0-19.559 4.346-19.559 4.346s0 4.346-8.693 8.693-8.693 14.126-8.693 14.126a3.26 3.26 0 1 0 6.52 0c0-.371-.075-.722-.19-1.055l.19-.031 21.732-15.212h34.77l21.732 15.212.19.031c-.115.333-.19.684-.19 1.055a3.26 3.26 0 1 0 6.52 0c.002 0 .002-9.779-8.691-14.126" style="fill:#f0aa00"/><path d="M160.486 258.173c-2.173 0-8.693 0-8.693-6.52s8.693-6.519 8.693-6.519l-13.039-4.346C143.1 256 151.793 256 151.793 275.559c0 17.521-19.559 28.251-26.078 28.251-6.52 0-8.693 4.346-8.693 4.346s-2.173-4.346-8.693-4.346-26.078-10.731-26.078-28.251c0-19.559 8.693-19.559 4.346-34.771l-13.039 4.346s8.693 0 8.693 6.519-6.52 6.52-8.693 6.52-10.866 0-10.866 10.866 10.866 23.905 26.078 32.598 8.693 17.385 28.251 17.385 13.039-8.693 28.251-17.385 26.078-21.732 26.078-32.598c.001-10.866-8.691-10.866-10.864-10.866" style="fill:#f0aa00"/><path d="m112.676 224.159-5.257-2.362a4.35 4.35 0 0 0-2.772-.269c-3.389.783-11.795 3.358-18.049 10.567l6.52 2.173zm8.692 0 5.257-2.362a4.35 4.35 0 0 1 2.772-.269c3.389.783 11.795 3.358 18.049 10.567l-6.52 2.173z" style="fill:#73af00"/><path d="m117.79 225.576 3.962-3.962a.543.543 0 0 0-.768-.768l-3.962 3.962-3.962-3.962a.543.543 0 0 0-.768.768l3.962 3.962-3.962 3.962a.543.543 0 0 0 .768.768l3.962-3.962 3.962 3.962a.54.54 0 0 0 .768 0 .543.543 0 0 0 0-.768z" style="fill:#73af00"/><path d="M160.486 245.134c0-3.698-3.494-5.296-6.52-5.989v-1.721c-4.091-.383-6.374-1.921-10.341-4.623-1.528-1.042-3.261-2.222-5.352-3.493-7.641-4.642-13.515-5.312-16.905-5.15v3.59h-8.693v-3.59c-3.39-.162-9.264.508-16.905 5.15-2.092 1.271-3.824 2.451-5.352 3.493-3.967 2.702-6.249 4.24-10.341 4.623v1.721c-3.026.693-6.52 2.291-6.52 5.989l6.52-2.173v.991c6.167-.454 9.694-2.822 14.011-5.762 1.463-.998 3.121-2.127 5.067-3.309 4.963-3.017 8.82-3.95 11.347-4.17v3.557h13.039v-3.557c2.526.22 6.384 1.153 11.347 4.17 1.946 1.182 3.604 2.311 5.067 3.309 4.317 2.94 7.844 5.308 14.011 5.762v-.991z" style="fill:#f5f5f5"/><path d="M143.1 210.879v-2.689h-6.054c1.058-.908 1.707-1.978 1.707-3.26 0-6.004-13.66-7.606-21.732-7.606s-21.732 1.602-21.732 7.606c0 1.282.65 2.352 1.707 3.26h-6.054v2.689c-5.32 1.187-9.67 4.043-9.898 4.195l2.411 3.616c.059-.04 6.039-3.981 11.834-3.981v-2.173h43.464v2.173c5.795 0 11.774 3.941 11.834 3.981l2.411-3.616c-.228-.152-4.577-3.008-9.898-4.195m-17.385-3.29v-1.651c0-1.064-1-1.844-2.032-1.586l-6.661 1.665-6.661-1.665a1.636 1.636 0 0 0-2.032 1.586v1.651c-4.882-.717-7.769-1.911-8.556-2.658 1.176-1.116 6.934-3.26 17.249-3.26s16.073 2.143 17.248 3.26c-.786.746-3.673 1.941-8.555 2.658" style="fill:#3cc8ff"/><path d="m117.293 235.089.551 1.651 1.74.014a.234.234 0 0 1 .137.423l-1.4 1.034.525 1.66a.234.234 0 0 1-.36.261l-1.416-1.012-1.416 1.012a.234.234 0 0 1-.36-.261l.525-1.66-1.4-1.034a.234.234 0 0 1 .137-.423l1.74-.014.551-1.651c.073-.214.375-.214.446 0m-8.519.556.721 1.584 1.732-.169a.234.234 0 0 1 .181.406l-1.284 1.175.696 1.595a.235.235 0 0 1-.331.298l-1.514-.858-1.302 1.155a.234.234 0 0 1-.385-.222l.348-1.705-1.501-.881c-.194-.114-.132-.41.092-.435l1.729-.196.374-1.7c.05-.22.351-.252.444-.047m-8.748 2.331 1.047 1.39 1.655-.54a.234.234 0 0 1 .265.357l-.999 1.425 1.025 1.407a.234.234 0 0 1-.258.362l-1.664-.51-1.021 1.41a.234.234 0 0 1-.424-.133l-.03-1.74-1.656-.535a.235.235 0 0 1-.004-.445l1.646-.566-.003-1.741a.234.234 0 0 1 .421-.141m-8.768 3.696 1.222 1.24 1.568-.755a.234.234 0 0 1 .31.319l-.801 1.545 1.202 1.258a.234.234 0 0 1-.208.393l-1.717-.285-.825 1.533c-.107.198-.405.147-.438-.076l-.26-1.721-1.713-.311a.234.234 0 0 1-.063-.44l1.556-.779-.233-1.725a.235.235 0 0 1 .4-.196m34.11-6.027-.721 1.584-1.732-.169a.234.234 0 0 0-.181.406l1.284 1.175-.696 1.595a.235.235 0 0 0 .331.298l1.514-.858 1.302 1.155c.168.15.43-.001.385-.222l-.348-1.705 1.501-.881c.194-.114.132-.41-.092-.435l-1.729-.196-.374-1.7c-.05-.22-.351-.252-.444-.047m8.748 2.331-1.047 1.39-1.654-.54a.234.234 0 0 0-.265.357l.999 1.425-1.025 1.407a.234.234 0 0 0 .258.362l1.664-.51 1.021 1.41a.234.234 0 0 0 .424-.133l.03-1.74 1.656-.535a.235.235 0 0 0 .004-.445l-1.646-.566.003-1.741a.235.235 0 0 0-.422-.141m8.768 3.696-1.222 1.24-1.568-.755a.234.234 0 0 0-.31.319l.801 1.545-1.202 1.258a.234.234 0 0 0 .208.393l1.717-.285.825 1.533c.107.198.405.147.438-.076l.26-1.721 1.712-.311a.234.234 0 0 0 .063-.44l-1.557-.779.233-1.725a.234.234 0 0 0-.398-.196" style="fill:#f5f5f5"/><path d="m102.014 287.239 11.069 7.403h13.379l6.18-5.297-4.754 1.901h-15.756z" style="fill:#8c5a28"/><path d="m109.552 277.687-1.068 10.775-4.863-1.856s2.237-5.193 5.931-8.919" style="fill:#f5f5f5"/><path d="M119.15 273.42h.719v18.349h-.719zm6.65 1.55h.719v16.796h-.719zm-13.28 0h.719v16.796h-.719z" style="fill:#8c5a28"/><path d="M122.04 290.024h-5.062a.49.49 0 0 1-.491-.491v-2.889c0-.271.22-.491.491-.491h5.062c.271 0 .491.22.491.491v2.889a.49.49 0 0 1-.491.491m0-5.161h-5.062a.49.49 0 0 1-.491-.491v-2.889c0-.271.22-.491.491-.491h5.062c.271 0 .491.22.491.491v2.889a.49.49 0 0 1-.491.491m0-4.754h-5.062a.49.49 0 0 1-.491-.491v-2.889c0-.271.22-.491.491-.491h5.062c.271 0 .491.22.491.491v2.889a.49.49 0 0 1-.491.491m6.242 9.915h-4.247a.49.49 0 0 1-.491-.491v-2.889c0-.271.22-.491.491-.491h4.247c.271 0 .491.22.491.491v2.889c0 .271-.22.491-.491.491m0-4.752h-4.247a.49.49 0 0 1-.491-.491v-2.283c0-.271.22-.491.491-.491h4.247c.271 0 .491.22.491.491v2.283c0 .271-.22.491-.491.491m0-4.711h-4.247a.49.49 0 0 1-.491-.491v-1.758c0-.271.22-.491.491-.491h4.247c.271 0 .491.22.491.491v1.758a.49.49 0 0 1-.491.491m-13.278 9.463h-4.247a.49.49 0 0 1-.491-.491v-2.889c0-.271.22-.491.491-.491h4.247c.271 0 .491.22.491.491v2.889c0 .271-.22.491-.491.491m0-4.752h-4.247a.49.49 0 0 1-.491-.491v-2.283c0-.271.22-.491.491-.491h4.247c.271 0 .491.22.491.491v2.283c0 .271-.22.491-.491.491m0-4.711h-4.247a.49.49 0 0 1-.491-.491v-1.758c0-.271.22-.491.491-.491h4.247c.271 0 .491.22.491.491v1.758a.49.49 0 0 1-.491.491m-1.765-5.589v2.17l3.195-1.105zm13.269 0v2.17l3.195-1.105zm-6.647-1.56v2.171l3.195-1.105z" style="fill:#f5f5f5"/><path d="m111.373 258.748 3.846 2.572h4.648l2.147-1.84-1.651.66h-5.474z" style="fill:#8c5a28"/><path d="m113.992 255.429-.371 3.744-1.689-.645s.777-1.804 2.06-3.099" style="fill:#f5f5f5"/><path d="M117.33 253.95h.25v6.375h-.25zm2.31.54h.25v5.835h-.25zm-4.62 0h.25v5.835h-.25z" style="fill:#8c5a28"/><path d="M118.331 259.715h-1.759a.17.17 0 0 1-.171-.171v-1.004a.17.17 0 0 1 .171-.171h1.759a.17.17 0 0 1 .171.171v1.004a.17.17 0 0 1-.171.171m0-1.793h-1.759a.17.17 0 0 1-.171-.171v-1.004a.17.17 0 0 1 .171-.17h1.759a.17.17 0 0 1 .171.17v1.004a.17.17 0 0 1-.171.171m0-1.651h-1.759a.17.17 0 0 1-.171-.171v-1.004a.17.17 0 0 1 .171-.171h1.759a.17.17 0 0 1 .171.171v1.004a.17.17 0 0 1-.171.171m2.168 3.444h-1.476a.17.17 0 0 1-.171-.171v-1.004a.17.17 0 0 1 .171-.171h1.476a.17.17 0 0 1 .171.171v1.004a.17.17 0 0 1-.171.171m0-1.65h-1.476a.17.17 0 0 1-.171-.171v-.793a.17.17 0 0 1 .171-.171h1.476a.17.17 0 0 1 .171.171v.793a.17.17 0 0 1-.171.171m0-1.637h-1.476a.17.17 0 0 1-.171-.17v-.611a.17.17 0 0 1 .171-.171h1.476a.17.17 0 0 1 .171.171v.611a.17.17 0 0 1-.171.17m-4.613 3.287h-1.476a.17.17 0 0 1-.17-.171v-1.004a.17.17 0 0 1 .17-.171h1.476a.17.17 0 0 1 .171.171v1.004a.17.17 0 0 1-.171.171m0-1.65h-1.476a.17.17 0 0 1-.17-.171v-.793a.17.17 0 0 1 .17-.171h1.476a.17.17 0 0 1 .171.171v.793a.17.17 0 0 1-.171.171m0-1.637h-1.476a.17.17 0 0 1-.17-.17v-.611a.17.17 0 0 1 .17-.171h1.476a.17.17 0 0 1 .171.171v.611a.17.17 0 0 1-.171.17m-.613-1.942v.754l1.11-.384zm4.61 0v.754l1.11-.384zm-2.309-.542v.754l1.11-.383zm-8.169-6.637h-4.323a1.1 1.1 0 0 1-1.098-1.098v-1.503c0-.604.494-1.098 1.098-1.098h4.323c.604 0 1.098.494 1.098 1.098v1.503c0 .604-.495 1.098-1.098 1.098m21.45 0h-3.363a1.1 1.1 0 0 1-1.098-1.098v-1.503c0-.606.492-1.098 1.098-1.098h3.363c.607 0 1.098.492 1.098 1.098v1.503c0 .607-.491 1.098-1.098 1.098m12.891 2.785h-2.497a.63.63 0 0 1-.628-.628v-1.034c0-.347.281-.628.628-.628h2.497c.347 0 .628.281.628.628v1.034a.63.63 0 0 1-.628.628" style="fill:#f5f5f5"/></svg>
