<svg xmlns="http://www.w3.org/2000/svg" xml:space="preserve" viewBox="0 0 512 512" width="48" height="48"><path d="M0 341.333h512V368c0 79.529-64.471 144-144 144H144C64.471 512 0 447.529 0 368z" style="fill:#41479b"/><path d="M512 111.913C511.953 50.097 461.828 0 400.001 0h-288c-61.856 0-112 50.144-112 112v58.667H512z" style="fill:#ff4b55"/><path d="M0 170.67h512v170.67H0z" style="fill:#f5f5f5"/><path d="M161.68 175.16h37.726v43.12H161.68zm75.46 0h37.726v43.12H237.14zm-37.73 43.11h37.726v43.12H199.41zm113.18-43.11h37.726v43.12H312.59z" style="fill:#ff4b55"/><path d="M274.86 218.27h37.726v43.12H274.86z" style="fill:#ff4b55"/><path d="M199.41 175.16h37.726v43.12H199.41zm75.45 0h37.726v43.12H274.86zm-113.18 43.11h37.726v43.12H161.68z" style="fill:#f5f5f5"/><path d="M237.14 218.27h37.726v43.12H237.14zm75.45 0h37.726v43.12H312.59z" style="fill:#f5f5f5"/><path d="M237.14 261.39h37.726v43.12H237.14zm-37.73 43.12h37.726v43.12H199.41zm75.45 0h37.726v43.12H274.86z" style="fill:#ff4b55"/><path d="M199.41 261.39h37.726v43.12H199.41zm75.45 0h37.726v43.12H274.86zm-37.72 43.12h37.726v43.12H237.14z" style="fill:#f5f5f5"/><path d="M350.316 175.157V296.42c0 52.089-42.227 94.316-94.316 94.316s-94.316-42.227-94.316-94.316V175.157zm6.737-6.736H154.947v128c0 55.72 45.332 101.053 101.053 101.053s101.053-45.332 101.053-101.053z" style="fill:#ff4b55"/><path d="M199.41 304.505v-43.116h-37.726v35.032c0 2.729.181 5.414.408 8.084z" style="fill:#ff4b55"/><path d="M349.908 304.505H312.59v43.116h22.549a93.7 93.7 0 0 0 14.769-43.116M176.861 347.62h22.549v-43.116h-37.318a93.7 93.7 0 0 0 14.769 43.116" style="fill:#f5f5f5"/><path d="M312.59 304.505h37.318c.227-2.67.408-5.354.408-8.084v-35.032H312.59zm-113.18 67.24v-24.124h-22.549c6.042 9.319 13.695 17.461 22.549 24.124m135.729-24.125H312.59v24.124c8.854-6.662 16.507-14.804 22.549-24.124" style="fill:#ff4b55"/><path d="M199.41 371.745c10.981 8.264 23.761 14.263 37.726 17.098v-41.222H199.41zm75.454 17.098c13.965-2.835 26.745-8.834 37.726-17.098v-24.124h-37.726z" style="fill:#f5f5f5"/><path d="M274.864 347.62h-37.727v41.222a94.7 94.7 0 0 0 18.864 1.894c6.46 0 12.768-.656 18.863-1.894z" style="fill:#ff4b55"/><path d="M187.729 103.812a276 276 0 0 0-25.167-2.715 290 290 0 0 0-18.924 17.018l18.046 43.568a246.6 246.6 0 0 1 37.009-12.007zm91.17-7.152A282 282 0 0 0 256 86.334a283 283 0 0 0-22.899 10.326l3.678 47.014a246 246 0 0 1 38.442 0zm89.463 21.456a290 290 0 0 0-18.924-17.018 277 277 0 0 0-25.167 2.715l-10.965 45.865a246.5 246.5 0 0 1 37.009 12.007z" style="fill:#4173cd"/><path d="M233.101 96.66a280 280 0 0 0-24.26-6.635 287 287 0 0 0-21.112 13.787l10.965 45.865a246 246 0 0 1 38.085-6.003zm91.17 7.152a287 287 0 0 0-21.112-13.787 280 280 0 0 0-24.26 6.635l-3.678 47.014a246.4 246.4 0 0 1 38.085 6.003z" style="fill:#41479b"/><path d="M234.572 115.466a274.6 274.6 0 0 0-42.457 6.692l-2.193-9.174a284.4 284.4 0 0 1 43.914-6.922zm1.471 18.805a256 256 0 0 0-39.542 6.233l-2.193-9.173a265 265 0 0 1 41-6.463z" style="fill:#ff4b55"/><path d="M300.762 137.436a255 255 0 0 0-9.893-1.559c-5.436-.751-9.485-5.366-9.014-10.555.47-5.185 5.668-8.948 11.585-8.132q5.323.733 10.622 1.674c5.889 1.04 9.703 6.229 8.554 11.305-1.148 5.085-6.439 8.221-11.854 7.267" style="fill:#ffe15a"/><path d="M353.925 152.97a256 256 0 0 0-38.426-12.466l2.193-9.173a265 265 0 0 1 39.842 12.925z" style="fill:#ff4b55"/><path d="M350.559 124.674c-1.333 3.674-5.826 5.422-10.072 4.041-4.245-1.382-6.842-5.419-5.768-9.176 1.075-3.757 5.625-5.746 10.13-4.283 4.505 1.461 7.043 5.745 5.71 9.418m-173.278-5.135c1.074 3.761-1.527 7.798-5.768 9.176-4.244 1.375-8.738-.373-10.072-4.041-1.335-3.674 1.206-7.957 5.71-9.418 4.502-1.459 9.058.528 10.13 4.283m76.567-6.175c.009 3.125-2.8 5.669-6.279 5.775-3.478.112-6.444-2.26-6.627-5.373s2.625-5.808 6.275-5.927c3.651-.115 6.617 2.4 6.631 5.525m17.21.402c-.186 3.118-3.151 5.484-6.628 5.373-3.478-.107-6.288-2.651-6.279-5.775.013-3.121 2.98-5.642 6.631-5.525 3.653.11 6.456 2.811 6.276 5.927m-8.941 14.145c-.087 3.125-2.825 5.582-6.117 5.581-3.292-.002-6.028-2.456-6.117-5.581-.085-3.115 2.651-5.732 6.117-5.724 3.466-.006 6.203 2.607 6.117 5.724" style="fill:#ffe15a"/></svg>
