<svg xmlns="http://www.w3.org/2000/svg" xml:space="preserve" viewBox="0 0 512 512" width="48" height="48"><path d="M400 0H112C53.379 0 5.284 45.039.414 102.4h511.172C506.716 45.039 458.621 0 400 0M112 512h288c58.621 0 106.716-45.039 111.586-102.4H.414C5.284 466.961 53.379 512 112 512" style="fill:#41479b"/><path d="M.414 102.4A113 113 0 0 0 0 112v92.8h512V112c0-3.235-.145-6.435-.414-9.6z" style="fill:#f5f5f5"/><path d="M0 204.8h512v102.4H0z" style="fill:#41479b"/><path d="M0 400c0 3.235.145 6.435.414 9.6h511.172c.269-3.165.414-6.365.414-9.6v-92.8H0z" style="fill:#f5f5f5"/><path d="M253.908 250.09 33.056 32.558C12.641 52.846 0 80.946 0 112v288c0 31.054 12.641 59.154 33.056 79.442L253.908 261.91c2.789-2.746 2.789-9.074 0-11.82" style="fill:#ff4b55"/><path d="m102.751 191.042 13.834 41.479 43.723.339c3.387.026 4.792 4.349 2.067 6.361l-35.174 25.974 13.189 41.688c1.022 3.23-2.656 5.901-5.411 3.932l-35.572-25.426-35.572 25.426c-2.756 1.97-6.433-.702-5.411-3.932l13.189-41.688-35.174-25.974c-2.725-2.012-1.32-6.335 2.067-6.361l43.724-.339 13.834-41.479c1.069-3.214 5.615-3.214 6.687 0" style="fill:#f5f5f5"/></svg>
