<svg xmlns="http://www.w3.org/2000/svg" xml:space="preserve" viewBox="0 0 512 512" width="48" height="48"><path d="M400 0H112C50.144 0 0 50.144 0 112v288c0 61.856 50.144 112 112 112h288c61.856 0 112-50.144 112-112V112C512 50.144 461.856 0 400 0" style="fill:#41479b"/><path d="M0 400c0 6.018.481 11.923 1.394 17.684h509.211A113 113 0 0 0 512 400v-49.684H0z" style="fill:#ffe15a"/><path d="m181.548 126.06-13.252 39.736-41.886.325c-4.017.031-5.682 5.157-2.451 7.543l33.696 24.883-12.635 39.936c-1.212 3.83 3.149 6.998 6.417 4.662l34.077-24.357 34.077 24.357c3.268 2.336 7.628-.832 6.417-4.662l-12.635-39.937 33.696-24.883c3.231-2.386 1.566-7.512-2.451-7.543l-41.886-.325-13.252-39.736c-1.272-3.81-6.661-3.81-7.932.001M86.074 52.733l-7.671 23-24.244.188c-2.325.018-3.289 2.985-1.419 4.366L72.244 94.69l-7.313 23.116c-.701 2.217 1.823 4.05 3.714 2.699l19.725-14.098 19.724 14.098c1.892 1.352 4.415-.482 3.714-2.698l-7.313-23.116 19.504-14.403c1.87-1.381.906-4.348-1.419-4.366l-24.244-.188-7.671-23c-.736-2.207-3.856-2.207-4.591-.001" style="fill:#f5f5f5"/></svg>
