<svg xmlns="http://www.w3.org/2000/svg" xml:space="preserve" viewBox="0 0 512 512" width="48" height="48"><path d="M400 0H112C50.144 0 0 50.144 0 112v288c0 61.856 50.144 112 112 112h288c61.856 0 112-50.144 112-112V112C512 50.144 461.856 0 400 0" style="fill:#f5f5f5"/><path d="M238.335 415.571c7.454-5.568 13.931-7.388 23.954-9.209 10.025-1.82 20.614-4.927 26.167-6.426 5.601-1.552-18.816 7.388-25.036 9.157-6.116 1.872-25.085 6.478-25.085 6.478m40.354-15.679c-2.006-12.594 2.979-25.857 14.392-31.152 2.674 9.151-5.501 24.674-14.392 31.152m19.482-6.528c-6.117-10.539 4.164-24.059 11.823-30.639 3.548 6.322-2.674 25.188-11.823 30.639m17.94-8.122c-6.477-8.996 1.234-24.728 9.459-30.947 3.187 8.893 0 24.827-9.459 30.947m17.992-11.31c-5.962-8.483-1.798-21.643 6.785-30.229 6.12 7.096.874 22.415-6.785 30.229m14.447-11.31c-4.988-8.02 1.129-27.194 9.149-32.49 3.445 7.094.874 27.145-9.149 32.49m11.463-3.032c-1.44-11.465 18.608-24.162 26.783-23.801-.874 9.354-9.46 19.635-26.783 23.801m-11.208 12.953c9.46-9.662 27.71-9.662 34.185-7.659-1.695 5.655-23.285 17.942-34.185 7.659" style="fill:#73af00"/><path d="M335.851 382.26c13.263-3.548 21.848-6.427 29.765 1.798-5.603 7.095-27.091 4.987-29.765-1.798m-18.917 8.585c12.697-6.788 28.068 3.237 30.381 9.046-14.136 5.912-30.638-7.556-30.381-9.046m-17.376 9.715c11.568-4.422 24.83 1.44 30.073 7.917-6.169 2.982-22.311 6.22-30.073-7.917m-15.832 4.985c13.263-1.49 25.96 8.586 28.736 14.292-16.863 1.645-23.39-3.443-28.736-14.292m-4.266 10.026c-7.351-5.568-13.828-7.388-23.854-9.209s-20.614-4.927-26.267-6.426c-5.501-1.552 18.916 7.388 25.136 9.157 6.169 1.872 24.985 6.478 24.985 6.478m-40.354-15.679c2.106-12.594-2.88-25.857-14.395-31.152-2.571 9.151 5.604 24.674 14.395 31.152m-19.382-6.528c6.222-10.539-4.164-24.059-11.823-30.639-3.548 6.322 2.674 25.188 11.823 30.639m-18.043-8.122c6.58-8.996-1.132-24.728-9.357-30.947-3.237 8.893.001 24.827 9.357 30.947m-17.942-11.31c5.911-8.483 1.8-21.643-6.733-30.229-6.117 7.096-.874 22.415 6.733 30.229m-14.392-11.31c5.088-8.02-1.132-27.194-9.152-32.49-3.547 7.094-.873 27.145 9.152 32.49m-11.568-3.032c1.542-11.465-18.506-24.162-26.681-23.801.875 9.354 9.308 19.635 26.681 23.801m11.31 12.953c-9.459-9.662-27.707-9.662-34.185-7.659 1.798 5.655 23.286 17.942 34.185 7.659" style="fill:#73af00"/><path d="M182.044 382.26c-13.263-3.548-21.848-6.427-29.765 1.798 5.5 7.095 27.091 4.987 29.765-1.798m18.814 8.585c-12.644-6.788-27.965 3.237-30.279 9.046 14.136 5.912 30.536-7.556 30.279-9.046m17.323 9.715c-11.515-4.422-24.725 1.44-29.968 7.917 6.22 2.982 22.362 6.22 29.968-7.917m16.04 4.985c-13.365-1.49-26.062 8.586-28.786 14.292 16.963 1.645 23.44-3.443 28.786-14.292" style="fill:#73af00"/><path d="M91.105 215.085s-3.681 4.801 2.572 16.963 1.762 26.197 8.498 30.688c6.737 4.491.284 13.398 8.002 19.33 7.718 5.933 28 19.585 41.999 21.18s27.6-12.548 35.677-2.108 6.312 17.799 13.931 18.611 7.619-2.557 7.058-7.609 5.053-19.088 17.965-19.088 26.592-1.537 48.384-9.751 32.458-12.144 35.265-25.056 10.788-28.179 26.166-21.107 14.344 3.755 19.072.361 20.579 6.424 24.162 1.234-28.048-30.868-26.267-44.415 6.047-24.799 19.072-25.91 9.656-15.707 23.13-23.006 19.68-8.132 30.331-18.943 38.659-32.695 38.659-32.695-54.491 26.096-65.39 28.481-15.39 18.104-45.706 26.526c-30.316 8.421-32 11.789-55.017 16.842-20.729 4.55-67.555 3.022-95.254-5.866-3.819-1.226-7.615 1.791-7.277 5.788 1.14 13.463.821 37.671-15.531 41.426 0 0-22.288-16.647-36.324-9.349s-24.016 33.325-34.464 29.294C99.368 222.877 98 206.17 91.105 215.085" style="fill:#ffc850"/></svg>
