<svg xmlns="http://www.w3.org/2000/svg" xml:space="preserve" viewBox="0 0 512 512" width="48" height="48"><path d="M400 0H112C50.144 0 0 50.144 0 112v288c0 61.856 50.144 112 112 112h288c61.856 0 112-50.144 112-112V112C512 50.144 461.856 0 400 0" style="fill:#82afff"/><path d="M457.649 15.962 0 377.263V400c0 1.388.034 2.768.084 4.144L475.231 29.028a112.5 112.5 0 0 0-17.582-13.066m-420.88 467.01a112.3 112.3 0 0 0 17.582 13.066L512 134.737V112c0-1.388-.034-2.768-.084-4.144z" style="fill:#ffe15a"/><path d="M475.231 29.028.084 404.144c1.137 31.231 15.053 59.202 36.685 78.828l475.146-375.116c-1.136-31.232-15.052-59.202-36.684-78.828" style="fill:#ff4b55"/><path d="M122.682 61.068 135.4 99.203l40.199.312c2.248.017 3.18 2.886 1.372 4.221l-32.338 23.881 12.126 38.328c.678 2.143-1.762 3.916-3.591 2.609l-32.705-23.376-32.705 23.376c-1.829 1.307-4.269-.466-3.591-2.609l12.126-38.328-32.338-23.881c-1.808-1.335-.876-4.204 1.372-4.221l40.199-.312 12.719-38.135c.709-2.132 3.726-2.132 4.437 0" style="fill:#ffe15a"/></svg>
