<svg xmlns="http://www.w3.org/2000/svg" xml:space="preserve" viewBox="0 0 512 512" width="48" height="48"><path d="M400 0H112C50.144 0 0 50.144 0 112v144h512V112C512 50.144 461.856 0 400 0" style="fill:#82afff"/><path d="M0 400c0 61.856 50.144 112 112 112h288c61.856 0 112-50.144 112-112V256H0z" style="fill:#73af00"/><path d="M32.804 32.804C12.536 53.072 0 81.072 0 112v288c0 30.928 12.536 58.928 32.804 79.196L256 256z" style="fill:#f5f5f5"/><path d="m60.158 311.88 12.125-41.391-35.237-24.871c-1.932-1.364-1.016-4.401 1.347-4.47l43.112-1.259L94.27 198.69c.7-2.259 3.872-2.327 4.668-.1l14.52 40.613 43.126-.59c2.364-.032 3.409 2.963 1.538 4.408l-34.138 26.359 13.888 40.833c.761 2.239-1.765 4.158-3.718 2.825l-35.618-24.322-34.543 25.827c-1.894 1.415-4.5-.394-3.835-2.663" style="fill:#ff4b55"/></svg>
