<svg id="Capa_1" enable-background="new 0 0 512 512" height="512" viewBox="0 0 512 512" width="512" xmlns="http://www.w3.org/2000/svg"><g><path d="m114.198 0h283.604c63.07 0 114.198 51.128 114.198 114.198v283.604c0 63.07-51.128 114.198-114.198 114.198h-283.604c-63.07 0-114.198-51.128-114.198-114.198v-283.604c0-63.07 51.128-114.198 114.198-114.198z" fill="#f5f5f5"/><path d="m202.104 0h-90.112c-61.856.005-111.992 50.146-111.992 112.002v90.102h202.104zm0 0" fill="#41479b"/><path d="m309.891 512h90.107c61.855 0 112.002-50.147 112.002-112.002v-90.107h-202.109zm0 0" fill="#41479b"/><path d="m400.008 0h-90.117v202.104h202.109v-90.102c0-61.856-50.142-111.997-111.992-112.002zm0 0" fill="#ff4b55"/><path d="m0 309.891v90.107c0 61.855 50.141 112.002 112.002 112.002h90.102v-202.109zm0 0" fill="#ff4b55"/><path d="m248.26 294.417s8.052 2.95 7.002 13.052l3.251-.059s-2.05-11.68-3.75-13.076c-1.693-1.4-6.503.083-6.503.083zm0 0" fill="#64b496"/><path d="m256.331 292.86c-3.412 0-9.38-.005-15.659-1.699 1.401-1.46 3.335-4.39 3.335-9.507 0-8.007-5.517-2.9-5.517-2.9s-3.632 3.051-1.435 11.22c-2.144-.815-4.264-1.87-6.29-3.217 1.26-1.581 3.77-5.269 5.23-11.107 0 0-9.195-1.817-11.709 5.106-1.544-1.957-2.861-4.155-3.965-6.591 2.367.029 5.664-1.529 5.664-10.532 0 0-6.006.01-7.612 5.22-.63-2.177-1.112-4.511-1.465-6.977 2.397.699 8.594 1.196 8.594-12.256 0 0-7.441.01-9.165 6.606-.092-1.689-.131-3.432-.116-5.229 3.617-1.89 8.607-6.05 8.085-14.59 0 0-3.432.776-6.581 3.412.62-3.236.366-7.972-4.6-11.929 0 0-4.56 8.072 2.1 14.63-.576.815-1.085 1.742-1.5 2.772-1.499-2.28-3.901-4.399-7.762-5.687 0 0-1.782 10.815 8.315 15.336.239 6.319 1.225 11.895 2.925 16.749-2.896-2.55-5.235-6.055-5.235-6.055 0-12.012-9.849-12.315-9.849-12.315-1.84 13.711 8.301 14.267 8.301 14.267l5.551 6.06c-12.016-2.007-12.016 8.007-12.016 8.007 8.012 2.003 12.016-2.001 12.016-2.001l4.331 2.226c-7.68.225-10.336 7.782-10.336 7.782 9.657 1.613 16.714-.659 19.121-1.611 9.721 6.802 21.709 6.812 27.245 6.812v-2.002zm0 0" fill="#64b496"/><path d="m255.652 292.86c3.414 0 9.38-.005 15.655-1.699-1.396-1.46-3.33-4.39-3.33-9.507 0-8.007 5.517-2.9 5.517-2.9s3.633 3.051 1.435 11.22c2.144-.815 4.262-1.87 6.29-3.217-1.26-1.581-3.77-5.269-5.23-11.107 0 0 9.194-1.817 11.709 5.106 1.544-1.957 2.861-4.155 3.965-6.591-2.367.029-5.664-1.529-5.664-10.532 0 0 6.005.01 7.612 5.22.63-2.177 1.113-4.511 1.464-6.977-2.396.699-8.592 1.196-8.592-12.256 0 0 7.441.01 9.165 6.606.092-1.689.131-3.432.111-5.229-3.612-1.89-8.602-6.05-8.08-14.59 0 0 3.432.776 6.576 3.412-.62-3.236-.361-7.972 4.605-11.929 0 0 4.56 8.072-2.105 14.63.581.815 1.084 1.742 1.504 2.772 1.495-2.28 3.897-4.399 7.764-5.687 0 0 1.783 10.815-8.315 15.336-.239 6.319-1.225 11.895-2.925 16.749 2.891-2.55 5.235-6.055 5.235-6.055 0-12.012 9.849-12.315 9.849-12.315 1.84 13.711-8.301 14.267-8.301 14.267l-5.552 6.06c12.012-2.007 12.012 8.007 12.012 8.007-8.007 2.003-12.012-2.001-12.012-2.001l-4.335 2.226c7.685.225 10.341 7.782 10.341 7.782-9.657 1.613-16.719-.659-19.121-1.611-9.726 6.802-21.709 6.812-27.246 6.812v-2.002zm0 0" fill="#64b496"/><path d="m222.211 205.56c-7.041 4.512-13.252 10.259-18.252 17.046 2.149 1.582 4.296 3.169 6.445 4.751 4.414-5.986 9.892-11.06 16.104-15.044zm0 0" fill="#41479b"/><path d="m256.024 257.626h28.032v16.02c0 4.424-3.584 8.007-8.007 8.007h-12.016c-3.291 0-6.187 1.611-8.009 4.062zm0 0" fill="#ff6b71"/><path d="m262.03 239.604v-22.027h30.034l-8.007 8.009v22.026h-22.027zm0 0" fill="#5f64b9"/><path d="m274.046 247.611h10.01v10.01h-10.01z" fill="#f5f5f5"/><path d="m256.024 257.626h-28.036v16.02c0 4.424 3.584 8.007 8.007 8.007h12.016c3.291 0 6.186 1.611 8.012 4.062v-28.089zm0 0" fill="#ff6b71"/><path d="m251.014 282.137c1.997.64 3.721 1.885 4.961 3.52h.092c1.241-1.635 2.965-2.88 4.961-3.52v-16.504h-10.015v16.504zm0 0" fill="#f5f5f5"/><path d="m250.014 239.604v-22.027h-30.04l8.014 8.009v22.026h22.026zm0 0" fill="#5f64b9"/><path d="m227.988 247.611h10.01v10.01h-10.01z" fill="#f5f5f5"/><path d="m238.001 227.586v6.011l6.006 4.004v-4.004zm0 0" fill="#41479b"/><path d="m244.008 233.598v6.006l8.007 4.004v-2.002zm0 0" fill="#f5f5f5"/><path d="m274.041 227.586v6.011l-6.005 4.004v-4.004zm0 0" fill="#41479b"/><path d="m268.036 233.598v6.006l-8.009 4.004v-2.002zm0 0" fill="#f5f5f5"/><path d="m268.104 271.644h-24.155c-5.492 0-9.946-4.482-9.946-10.014v-30.972l22.172 14.951 21.875-14.951v30.972c0 5.531-4.453 10.014-9.946 10.014zm0 0" fill="#ff4b55"/><g fill="#41479b"><path d="m242.005 235.599-8.012-6.01v22.031l8.012 4.004zm0 0"/><path d="m270.037 235.599 8.012-6.01v22.031l-8.012 4.004zm0 0"/><path d="m244.008 255.619h24.034v10.01h-24.034z"/></g><path d="m244.008 237.601 12.016 6.006 12.012-6.006v18.022h-24.029v-18.022zm0 0" fill="#ff4b55"/><path d="m265.032 239.496v20.131c0 1.655-1.348 3.003-3.003 3.003h-12.016c-1.655 0-3.004-1.348-3.004-3.003v-20.054l-6.005-4.024v24.077c0 4.971 4.037 9.009 9.009 9.009h12.016c4.966 0 9.009-4.038 9.009-9.009v-24.214zm0 0" fill="#f5f5f5"/><path d="m267.127 253.48c-3.369.303-7.167.645-11.104 2.016-3.94-1.371-7.739-1.714-11.107-2.016-5.645-.507-8.995-1.001-10.914-4.404v5.781c2.945 1.914 6.675 2.265 10.552 2.613 3.481.312 7.08.639 10.756 2.031l.712.263.709-.263c3.676-1.392 7.275-1.719 10.756-2.031 3.882-.348 7.617-.694 10.561-2.607v-5.801c-1.917 3.417-5.266 3.911-10.921 4.418zm0 0" fill="#f5f5f5"/><path d="m260.027 234.599h-3.002v-3.009h-2.006v3.009h-3.004v2.001h3.004v9.009h2.006v-9.009h3.002zm0 0" fill="#ffe15a"/><path d="m236.278 226.625 1.099-1.099 17.594 17.597-1.099 1.099zm0 0" fill="#464655"/><path d="m233.529 222.753 2.197 4.405 2.202-2.202zm0 0" fill="#ffe15a"/><path d="m240.16 223.568 1.26-.917 14.647 20.117-1.254.912zm0 0" fill="#464655"/><path d="m238.031 219.34 1.489 4.687 2.515-1.831zm0 0" fill="#ffe15a"/><path d="m232.988 230.453.893-1.274 20.401 14.242-.889 1.275zm0 0" fill="#464655"/><path d="m229.609 227.161 2.934 3.951 1.782-2.554zm0 0" fill="#ffe15a"/><path d="m258.134 244.203-1.104-1.099 17.597-17.597 1.099 1.104zm0 0" fill="#464655"/><path d="m278.505 222.753-2.202 4.405-2.197-2.202zm0 0" fill="#ffe15a"/><path d="m257.245 243.68-1.26-.917 14.654-20.112 1.26.914zm0 0" fill="#464655"/><path d="m274.002 219.34-1.489 4.687-2.515-1.831zm0 0" fill="#ffe15a"/><path d="m258.636 244.72-.894-1.274 20.406-14.249.887 1.275zm0 0" fill="#464655"/><path d="m282.425 227.161-2.934 3.951-1.783-2.554zm0 0" fill="#ffe15a"/><path d="m255.004 281.087s-7.744-8.32-6.24-15.952c1.206-6.142 4.872-12.91 7.739-14.555 0 0 4.057-.249 3.042 3.271-1.021 3.525-2.256 4.434-1.895 7.905.625 6.006 1.596 13.13-2.646 19.331zm0 0" fill="#f5f5f5"/><path d="m257.357 250.619c-.484-.064-.855-.039-.855-.039-2.866 1.645-6.532 8.412-7.739 14.555-.684 3.473.551 7.076 2.095 9.986-.977-12.589 2.696-17.056 6.499-24.502zm0 0" fill="#41479b"/><path d="m257.65 261.756c-.361-3.471.874-4.38 1.89-7.905.712-2.466-1.055-3.081-2.182-3.227 0 0-2.589 5.937-2.754 9.921-.148 3.506.751 17.774.4 20.542 4.242-6.201 3.271-13.325 2.646-19.331zm0 0" fill="#ff4b55"/><path d="m252.396 253.593c1.611-1.572 3.881-2.275 6.104-1.895-1.055-3.392-2.11-6.781-3.164-10.17-2.217-.386-4.487.321-6.099 1.894 1.049 3.388 2.104 6.782 3.159 10.171zm0 0" fill="#f5f0f0"/><path d="m258.5 251.698c1.611-1.571 3.881-2.28 6.099-1.899-1.05-3.389-2.105-6.782-3.16-10.171-2.216-.381-4.487.327-6.102 1.9 1.053 3.388 2.108 6.777 3.163 10.17zm0 0" fill="#f5f5f5"/><path d="m246.874 207.699c-10.869-.254-21.606 2.422-31.094 7.74-1.304-2.33-2.612-4.659-3.916-6.987 10.737-6.021 22.891-9.044 35.195-8.76-.063 2.666-.126 5.336-.185 8.007zm0 0" fill="#5f64b9"/><path d="m289.832 205.56c7.041 4.512 13.252 10.259 18.252 17.046-2.149 1.582-4.297 3.169-6.446 4.751-4.414-5.986-9.892-11.06-16.102-15.044zm0 0" fill="#41479b"/><path d="m265.17 207.699c10.869-.254 21.606 2.422 31.089 7.74 1.309-2.33 2.612-4.659 3.921-6.987-10.737-6.021-22.891-9.044-35.196-8.76.063 2.666.127 5.336.186 8.007zm0 0" fill="#5f64b9"/><path d="m272.04 205.56c-10.484-2.866-21.547-2.866-32.036 0-.708-2.572-1.411-5.151-2.115-7.724 11.871-3.247 24.395-3.247 36.265 0-.703 2.573-1.407 5.152-2.114 7.724zm0 0" fill="#41479b"/><path d="m229.184 295.311c-8.642 2.256-17.09 5.302-25.225 9.136 1.137 2.411 2.275 4.829 3.412 7.245 7.852-3.7 16.011-6.62 24.361-8.764zm0 0" fill="#ff6b71"/><path d="m282.86 295.311c8.642 2.256 17.09 5.302 25.225 9.136-1.137 2.411-2.276 4.829-3.414 7.245-7.851-3.7-16.01-6.62-24.36-8.764zm0 0" fill="#ff6b71"/><path d="m288.236 301.507c-21.065-5.059-43.022-5.059-64.082 0-.62-2.597-1.245-5.19-1.87-7.787 22.29-5.352 45.532-5.352 67.822 0-.625 2.597-1.25 5.19-1.87 7.787zm0 0" fill="#ff4b55"/><path d="m256.024 303.68-5.522 1.382c-1.264.318-2.49-.64-2.49-1.944v-2.881c0-1.304 1.226-2.255 2.49-1.942l5.522 1.381zm0 0" fill="#ff4b55"/><path d="m256.024 299.676 5.517-1.381c1.265-.312 2.491.644 2.491 1.942v2.881c0 1.304-1.226 2.261-2.491 1.944l-5.517-1.382zm0 0" fill="#ff4b55"/><path d="m256.449 303.68h-.854c-.87 0-1.572-.703-1.572-1.573v-.859c0-.869.702-1.573 1.572-1.573h.854c.869 0 1.577.704 1.577 1.573v.859c0 .87-.708 1.573-1.577 1.573zm0 0" fill="#ff6b71"/></g></svg>
