<svg xmlns="http://www.w3.org/2000/svg" viewBox="0 0 512 512" width="48" height="48"><path fill="#f5f5f5" d="M114.198 0h283.604C460.872 0 512 51.128 512 114.198v283.604C512 460.872 460.872 512 397.802 512H114.198C51.128 512 0 460.872 0 397.802V114.198C0 51.128 51.128 0 114.198 0"/><path fill="#41479b" d="M202.104 0h-90.112C50.136.005 0 50.146 0 112.002v90.102h202.104zm107.787 512h90.107C461.853 512 512 461.853 512 399.998v-90.107H309.891zm0 0"/><path fill="#ff4b55" d="M400.008 0h-90.117v202.104H512v-90.102C512 50.146 461.858.005 400.008 0M0 309.891v90.107C0 461.853 50.141 512 112.002 512h90.102V309.891zm0 0"/><path fill="#64b496" d="M248.26 294.417s8.052 2.95 7.002 13.052l3.251-.059s-2.05-11.68-3.75-13.076c-1.693-1.4-6.503.083-6.503.083m0 0"/><path fill="#64b496" d="M256.331 292.86c-3.412 0-9.38-.005-15.659-1.699 1.401-1.46 3.335-4.39 3.335-9.507 0-8.007-5.517-2.9-5.517-2.9s-3.632 3.051-1.435 11.22a31.6 31.6 0 0 1-6.29-3.217c1.26-1.581 3.77-5.269 5.23-11.107 0 0-9.195-1.817-11.709 5.106-1.544-1.957-2.861-4.155-3.965-6.591 2.367.029 5.664-1.529 5.664-10.532 0 0-6.006.01-7.612 5.22-.63-2.177-1.112-4.511-1.465-6.977 2.397.699 8.594 1.196 8.594-12.256 0 0-7.441.01-9.165 6.606a83 83 0 0 1-.116-5.229c3.617-1.89 8.607-6.05 8.085-14.59 0 0-3.432.776-6.581 3.412.62-3.236.366-7.972-4.6-11.929 0 0-4.56 8.072 2.1 14.63a13.6 13.6 0 0 0-1.5 2.772c-1.499-2.28-3.901-4.399-7.762-5.687 0 0-1.782 10.815 8.315 15.336.239 6.319 1.225 11.895 2.925 16.749-2.896-2.55-5.235-6.055-5.235-6.055 0-12.012-9.849-12.315-9.849-12.315-1.84 13.711 8.301 14.267 8.301 14.267l5.551 6.06c-12.016-2.007-12.016 8.007-12.016 8.007 8.012 2.003 12.016-2.001 12.016-2.001l4.331 2.226c-7.68.225-10.336 7.782-10.336 7.782 9.657 1.613 16.714-.659 19.121-1.611 9.721 6.802 21.709 6.812 27.245 6.812zm0 0"/><path fill="#64b496" d="M255.652 292.86c3.414 0 9.38-.005 15.655-1.699-1.396-1.46-3.33-4.39-3.33-9.507 0-8.007 5.517-2.9 5.517-2.9s3.633 3.051 1.435 11.22a31.7 31.7 0 0 0 6.29-3.217c-1.26-1.581-3.77-5.269-5.23-11.107 0 0 9.194-1.817 11.709 5.106 1.544-1.957 2.861-4.155 3.965-6.591-2.367.029-5.664-1.529-5.664-10.532 0 0 6.005.01 7.612 5.22.63-2.177 1.113-4.511 1.464-6.977-2.396.699-8.592 1.196-8.592-12.256 0 0 7.441.01 9.165 6.606q.14-2.534.111-5.229c-3.612-1.89-8.602-6.05-8.08-14.59 0 0 3.432.776 6.576 3.412-.62-3.236-.361-7.972 4.605-11.929 0 0 4.56 8.072-2.105 14.63a13.6 13.6 0 0 1 1.504 2.772c1.495-2.28 3.897-4.399 7.764-5.687 0 0 1.783 10.815-8.315 15.336-.239 6.319-1.225 11.895-2.925 16.749 2.891-2.55 5.235-6.055 5.235-6.055 0-12.012 9.849-12.315 9.849-12.315 1.84 13.711-8.301 14.267-8.301 14.267l-5.552 6.06c12.012-2.007 12.012 8.007 12.012 8.007-8.007 2.003-12.012-2.001-12.012-2.001l-4.335 2.226c7.685.225 10.341 7.782 10.341 7.782-9.657 1.613-16.719-.659-19.121-1.611-9.726 6.802-21.709 6.812-27.246 6.812v-2.002zm0 0"/><path fill="#41479b" d="M222.211 205.56c-7.041 4.512-13.252 10.259-18.252 17.046 2.149 1.582 4.296 3.169 6.445 4.751 4.414-5.986 9.892-11.06 16.104-15.044zm0 0"/><path fill="#ff6b71" d="M256.024 257.626h28.032v16.02a8.005 8.005 0 0 1-8.007 8.007h-12.016c-3.291 0-6.187 1.611-8.009 4.062zm0 0"/><path fill="#5f64b9" d="M262.03 239.604v-22.027h30.034l-8.007 8.009v22.026H262.03zm0 0"/><path fill="#f5f5f5" d="M274.046 247.611h10.01v10.01h-10.01z"/><path fill="#ff6b71" d="M256.024 257.626h-28.036v16.02a8.005 8.005 0 0 0 8.007 8.007h12.016c3.291 0 6.186 1.611 8.012 4.062zm0 0"/><path fill="#f5f5f5" d="M251.014 282.137a10.1 10.1 0 0 1 4.961 3.52h.092a10.1 10.1 0 0 1 4.961-3.52v-16.504h-10.015zm0 0"/><path fill="#5f64b9" d="M250.014 239.604v-22.027h-30.04l8.014 8.009v22.026h22.026zm0 0"/><path fill="#f5f5f5" d="M227.988 247.611h10.01v10.01h-10.01z"/><path fill="#41479b" d="M238.001 227.586v6.011l6.006 4.004v-4.004zm0 0"/><path fill="#f5f5f5" d="M244.008 233.598v6.006l8.007 4.004v-2.002zm0 0"/><path fill="#41479b" d="M274.041 227.586v6.011l-6.005 4.004v-4.004zm0 0"/><path fill="#f5f5f5" d="M268.036 233.598v6.006l-8.009 4.004v-2.002zm0 0"/><path fill="#ff4b55" d="M268.104 271.644h-24.155c-5.492 0-9.946-4.482-9.946-10.014v-30.972l22.172 14.951 21.875-14.951v30.972c0 5.531-4.453 10.014-9.946 10.014m0 0"/><path fill="#41479b" d="m242.005 235.599-8.012-6.01v22.031l8.012 4.004zm28.032 0 8.012-6.01v22.031l-8.012 4.004zm-26.029 20.02h24.034v10.01h-24.034z"/><path fill="#ff4b55" d="m244.008 237.601 12.016 6.006 12.012-6.006v18.022h-24.029v-18.022zm0 0"/><path fill="#f5f5f5" d="M265.032 239.496v20.131a3.01 3.01 0 0 1-3.003 3.003h-12.016a3.01 3.01 0 0 1-3.004-3.003v-20.054l-6.005-4.024v24.077c0 4.971 4.037 9.009 9.009 9.009h12.016c4.966 0 9.009-4.038 9.009-9.009v-24.214zm0 0"/><path fill="#f5f5f5" d="M267.127 253.48c-3.369.303-7.167.645-11.104 2.016-3.94-1.371-7.739-1.714-11.107-2.016-5.645-.507-8.995-1.001-10.914-4.404v5.781c2.945 1.914 6.675 2.265 10.552 2.613 3.481.312 7.08.639 10.756 2.031l.712.263.709-.263c3.676-1.392 7.275-1.719 10.756-2.031 3.882-.348 7.617-.694 10.561-2.607v-5.801c-1.917 3.417-5.266 3.911-10.921 4.418m0 0"/><path fill="#ffe15a" d="M260.027 234.599h-3.002v-3.009h-2.006v3.009h-3.004v2.001h3.004v9.009h2.006V236.6h3.002zm0 0"/><path fill="#464655" d="m236.278 226.625 1.099-1.099 17.594 17.597-1.099 1.099zm0 0"/><path fill="#ffe15a" d="m233.529 222.753 2.197 4.405 2.202-2.202zm0 0"/><path fill="#464655" d="m240.16 223.568 1.26-.917 14.647 20.117-1.254.912zm0 0"/><path fill="#ffe15a" d="m238.031 219.34 1.489 4.687 2.515-1.831zm0 0"/><path fill="#464655" d="m232.988 230.453.893-1.274 20.401 14.242-.889 1.275zm0 0"/><path fill="#ffe15a" d="m229.609 227.161 2.934 3.951 1.782-2.554zm0 0"/><path fill="#464655" d="m258.134 244.203-1.104-1.099 17.597-17.597 1.099 1.104zm0 0"/><path fill="#ffe15a" d="m278.505 222.753-2.202 4.405-2.197-2.202zm0 0"/><path fill="#464655" d="m257.245 243.68-1.26-.917 14.654-20.112 1.26.914zm0 0"/><path fill="#ffe15a" d="m274.002 219.34-1.489 4.687-2.515-1.831zm0 0"/><path fill="#464655" d="m258.636 244.72-.894-1.274 20.406-14.249.887 1.275zm0 0"/><path fill="#ffe15a" d="m282.425 227.161-2.934 3.951-1.783-2.554zm0 0"/><path fill="#f5f5f5" d="M255.004 281.087s-7.744-8.32-6.24-15.952c1.206-6.142 4.872-12.91 7.739-14.555 0 0 4.057-.249 3.042 3.271-1.021 3.525-2.256 4.434-1.895 7.905.625 6.006 1.596 13.13-2.646 19.331m0 0"/><path fill="#41479b" d="M257.357 250.619c-.484-.064-.855-.039-.855-.039-2.866 1.645-6.532 8.412-7.739 14.555-.684 3.473.551 7.076 2.095 9.986-.977-12.589 2.696-17.056 6.499-24.502m0 0"/><path fill="#ff4b55" d="M257.65 261.756c-.361-3.471.874-4.38 1.89-7.905.712-2.466-1.055-3.081-2.182-3.227 0 0-2.589 5.937-2.754 9.921-.148 3.506.751 17.774.4 20.542 4.242-6.201 3.271-13.325 2.646-19.331m0 0"/><path fill="#f5f0f0" d="M252.396 253.593a7.04 7.04 0 0 1 6.104-1.895l-3.164-10.17a7.02 7.02 0 0 0-6.099 1.894 6959 6959 0 0 0 3.159 10.171m0 0"/><path fill="#f5f5f5" d="M258.5 251.698a7.04 7.04 0 0 1 6.099-1.899 7919 7919 0 0 0-3.16-10.171 7.04 7.04 0 0 0-6.102 1.9zm0 0"/><path fill="#5f64b9" d="M246.874 207.699a60.7 60.7 0 0 0-31.094 7.74c-1.304-2.33-2.612-4.659-3.916-6.987a68.7 68.7 0 0 1 35.195-8.76q-.095 4-.185 8.007m0 0"/><path fill="#41479b" d="M289.832 205.56c7.041 4.512 13.252 10.259 18.252 17.046-2.149 1.582-4.297 3.169-6.446 4.751-4.414-5.986-9.892-11.06-16.102-15.044zm0 0"/><path fill="#5f64b9" d="M265.17 207.699a60.67 60.67 0 0 1 31.089 7.74c1.309-2.33 2.612-4.659 3.921-6.987a68.7 68.7 0 0 0-35.196-8.76q.096 4 .186 8.007m0 0"/><path fill="#41479b" d="M272.04 205.56a60.76 60.76 0 0 0-32.036 0c-.708-2.572-1.411-5.151-2.115-7.724a68.7 68.7 0 0 1 36.265 0c-.703 2.573-1.407 5.152-2.114 7.724m0 0"/><path fill="#ff6b71" d="M229.184 295.311a145 145 0 0 0-25.225 9.136c1.137 2.411 2.275 4.829 3.412 7.245 7.852-3.7 16.011-6.62 24.361-8.764zm53.676 0a145 145 0 0 1 25.225 9.136l-3.414 7.245c-7.851-3.7-16.01-6.62-24.36-8.764zm0 0"/><path fill="#ff4b55" d="M288.236 301.507a137.2 137.2 0 0 0-64.082 0c-.62-2.597-1.245-5.19-1.87-7.787a145.25 145.25 0 0 1 67.822 0c-.625 2.597-1.25 5.19-1.87 7.787m0 0"/><path fill="#ff4b55" d="m256.024 303.68-5.522 1.382a2.003 2.003 0 0 1-2.49-1.944v-2.881a2.004 2.004 0 0 1 2.49-1.942l5.522 1.381zm0-4.004 5.517-1.381a2.008 2.008 0 0 1 2.491 1.942v2.881a2.004 2.004 0 0 1-2.491 1.944l-5.517-1.382zm0 0"/><path fill="#ff6b71" d="M256.449 303.68h-.854a1.57 1.57 0 0 1-1.572-1.573v-.859c0-.869.702-1.573 1.572-1.573h.854c.869 0 1.577.704 1.577 1.573v.859c0 .87-.708 1.573-1.577 1.573m0 0"/></svg>
