<svg xmlns="http://www.w3.org/2000/svg" xml:space="preserve" viewBox="0 0 512 512" width="48" height="48"><path d="M400 0H112C50.144 0 0 50.144 0 112v288c0 61.856 50.144 112 112 112h288c61.856 0 112-50.144 112-112V112C512 50.144 461.856 0 400 0" style="fill:#ff4b55"/><path d="M345.999 247.632 38.461 27.527C14.896 48.06 0 78.289 0 112v288c0 33.716 14.9 63.949 38.471 84.482 90.193-64.516 307.719-220.129 307.528-220.113 5.139-3.678 5.139-13.06 0-16.737" style="fill:#ffe15a"/><path d="M235.601 246.731 32.056 33.57C12.231 53.775 0 81.457 0 112v288c0 30.543 12.231 58.225 32.056 78.43l203.545-213.161c4.596-4.806 4.596-13.732 0-18.538" style="fill:#464655"/><path d="m68.134 183.534 1.284 48.494-45.467 16.914c-4.36 1.622-4.146 7.86.314 9.18l46.517 13.764 2.036 48.468c.195 4.648 6.194 6.373 8.828 2.538l27.465-39.987 46.725 13.042c4.481 1.251 7.975-3.922 5.142-7.612l-29.543-38.478 26.842-40.408c2.574-3.875-1.266-8.796-5.65-7.242l-45.724 16.207-30.136-38.015c-2.889-3.646-8.756-1.515-8.633 3.135" style="fill:#f5f5f5"/></svg>
