<svg xmlns="http://www.w3.org/2000/svg" xml:space="preserve" viewBox="0 0 512 512" width="48" height="48"><path d="M0 400c0 59.199 45.931 107.665 104.1 111.719h303.8C466.069 507.665 512 459.199 512 400v-16.141H0z" style="fill:#ff4b55"/><path d="M407.899.281H104.101C45.932 4.335 0 52.8 0 112v144h512V112C512 52.8 466.068 4.335 407.899.281" style="fill:#ffe15a"/><path d="M0 256h512v127.86H0z" style="fill:#41479b"/><path d="m246.789 305.224 64.48-55.268v79.987c0 13.481-10.928 24.409-24.409 24.409a24.4 24.4 0 0 1-16.329-6.266l-23.743-21.368z" style="fill:#ffe15a"/><path d="m280.801 336.675-18.66-16.794v-27.815l33.775-28.951v66.828c0 4.994-4.063 9.056-9.056 9.056a9.04 9.04 0 0 1-6.059-2.324" style="fill:#ff4b55"/><path d="M271.352 284.17v31.617l15.352 13.861v-58.637l9.211-7.896v66.828c0 4.994-4.063 9.056-9.056 9.056a9.05 9.05 0 0 1-6.059-2.325l-18.66-16.794v-27.815z" style="fill:#41479b"/><path d="m265.211 305.224-64.48-55.268v79.987c0 13.481 10.928 24.409 24.409 24.409 6.03 0 11.846-2.232 16.328-6.266l23.743-21.368z" style="fill:#ffe15a"/><path d="m231.199 336.675 18.66-16.794v-27.815l-33.775-28.951v66.828c0 4.994 4.063 9.056 9.056 9.056a9.04 9.04 0 0 0 6.059-2.324" style="fill:#ff4b55"/><path d="M240.648 284.17v31.617l-15.352 13.861v-58.637l-9.211-7.896v66.828c0 4.994 4.063 9.056 9.056 9.056a9.05 9.05 0 0 0 6.059-2.325l18.66-16.794v-27.815zm68.392-33.94h4.414v26.448h-4.414zm-110.53 0h4.414v26.448h-4.414z" style="fill:#41479b"/><path d="M246.789 237.674s6.141-29.169-15.352-25.331-21.493 9.979-46.057 22.261c0 0 27.634 6.141 39.916 3.07 0 0 9.211 12.282 18.423 15.352h9.211zm18.422 0s-6.141-29.169 15.352-25.331 21.493 9.979 46.057 22.261c0 0-27.634 6.141-39.916 3.07 0 0-9.211 12.282-18.423 15.352h-9.211z" style="fill:#5a4646"/><path d="M265.211 253.027h-18.423v-15.466a9.1 9.1 0 0 1 9.098-9.098h.227a9.1 9.1 0 0 1 9.098 9.098z" style="fill:#5a4646"/><circle cx="256" cy="237.67" r="6.141" style="fill:#e6e1cd"/><path d="m242.823 233.708 11.547 6.166a2.494 2.494 0 0 0 2.938-3.963l-7.448-7.448h-1.791a5.245 5.245 0 0 0-5.246 5.245" style="fill:#ffd0af"/><path d="M246.827 234.604h-9.249l4.048-4.738a4 4 0 0 1 3.042-1.402h5.192v3.109a3.034 3.034 0 0 1-3.033 3.031" style="fill:#ffaf94"/><path d="M282.186 253.034c-2.072-2.459-2.513-5.717-1.504-8.541 2.954-.516 6.091.471 8.162 2.93 1.77 2.1 2.283 4.773 1.784 7.271a90 90 0 0 1 2.189 3.963c.041-.225.032-.448.096-.673.724-2.545 2.743-4.347 5.135-4.958 1.712 1.778 2.483 4.373 1.759 6.918-.623 2.19-2.227 3.777-4.18 4.581a86 86 0 0 1 2.246 5.69c.041-.118.044-.238.091-.355 1-2.451 3.206-4.019 5.65-4.362 1.506 1.955 1.986 4.62.986 7.069-.875 2.144-2.69 3.558-4.763 4.121 1.068 4.213 1.776 8.683 1.776 13.183h-3.07c0-3.921-.602-7.85-1.51-11.608-1.895.612-4.012.482-5.844-.641-2.236-1.37-3.416-3.778-3.361-6.223 2.153-1.16 4.835-1.202 7.071.167.08.049.135.121.212.174a83 83 0 0 0-2.077-5.365c-1.842.871-4.012 1.005-6.001.07-2.373-1.115-3.812-3.379-4.026-5.815 2.006-1.386 4.656-1.722 7.024-.62a91 91 0 0 0-2.205-4.002c-2.119-.238-4.156-1.212-5.64-2.974m-52.372 0c2.072-2.459 2.513-5.717 1.504-8.541-2.954-.516-6.091.471-8.162 2.93-1.77 2.1-2.283 4.773-1.784 7.271a90 90 0 0 0-2.189 3.963c-.041-.225-.032-.448-.096-.673-.724-2.545-2.743-4.347-5.135-4.958-1.712 1.778-2.483 4.373-1.759 6.918.623 2.19 2.227 3.777 4.18 4.581a86 86 0 0 0-2.247 5.69c-.041-.118-.044-.238-.091-.355-1-2.451-3.206-4.019-5.65-4.362-1.506 1.955-1.986 4.62-.986 7.069.875 2.144 2.69 3.558 4.763 4.121-1.068 4.213-1.776 8.683-1.776 13.183h3.07c0-3.921.602-7.85 1.51-11.608 1.895.612 4.012.482 5.844-.641 2.236-1.37 3.416-3.778 3.361-6.223-2.153-1.16-4.835-1.202-7.071.167-.08.049-.135.121-.212.174a83 83 0 0 1 2.076-5.365c1.842.871 4.012 1.005 6.001.07 2.373-1.115 3.812-3.379 4.026-5.815-2.006-1.386-4.656-1.722-7.024-.62a91 91 0 0 1 2.205-4.002c2.121-.238 4.158-1.212 5.642-2.974" style="fill:#8cb400"/><path d="m256 320.577-64.48-55.268v79.987c0 13.48 10.928 24.409 24.409 24.409 6.03 0 11.847-2.232 16.329-6.266L256 342.07z" style="fill:#ffe15a"/><path d="m221.987 352.027 18.66-16.794v-27.815l-33.775-28.951v66.828c0 4.994 4.063 9.056 9.056 9.056a9.04 9.04 0 0 0 6.059-2.324" style="fill:#ff4b55"/><path d="M231.436 299.522v31.617L216.084 345v-58.637l-9.211-7.896v66.828c0 4.994 4.063 9.056 9.056 9.056a9.05 9.05 0 0 0 6.059-2.325l18.66-16.794v-27.815z" style="fill:#41479b"/><path d="m256 320.577 64.48-55.268v79.987c0 13.48-10.928 24.409-24.409 24.409a24.4 24.4 0 0 1-16.329-6.266L256 342.07z" style="fill:#ffe15a"/><path d="m290.013 352.027-18.66-16.794v-27.815l33.775-28.951v66.828c0 4.994-4.063 9.056-9.056 9.056a9.04 9.04 0 0 1-6.059-2.324" style="fill:#ff4b55"/><path d="M280.564 299.522v31.617L295.916 345v-58.637l9.211-7.896v66.828c0 4.994-4.063 9.056-9.056 9.056a9.05 9.05 0 0 1-6.059-2.325l-18.66-16.794v-27.815z" style="fill:#41479b"/><ellipse cx="256" cy="299.08" rx="30.705" ry="46.06" style="fill:#69c3ff"/><path d="M228.366 311.365h55.268l3.07-12.282-13.993 2.332a9.62 9.62 0 0 1-7.839-2.184l-15.884-13.615a7.83 7.83 0 0 0-10.635.409l-9.988 9.988z" style="fill:#009b64"/><path d="m253.087 297.021 5.275-3.37-9.374-8.035a7.83 7.83 0 0 0-10.635.409l-9.988 9.988v3.07l15.352-3.07 2.715 1.357a6.75 6.75 0 0 0 6.655-.349" style="fill:#f5f5f5"/><path d="m228.366 311.365 3.07 18.423 15.353 15.353H256l12.282-3.071 12.282-12.282 3.07-18.423z" style="fill:#5aa0e6"/><path d="M256 348.211c-18.624 0-33.775-22.039-33.775-49.127s15.151-49.127 33.775-49.127 33.775 22.039 33.775 49.127-15.151 49.127-33.775 49.127m0-92.114c-15.237 0-27.634 19.283-27.634 42.987 0 23.703 12.397 42.987 27.634 42.987s27.634-19.283 27.634-42.987-12.397-42.987-27.634-42.987" style="fill:#ffc88c"/><path d="M234.339 344.865c-2.575-3.554-6.406-5.865-10.747-5.865s-8.172 2.311-10.747 5.865c4.389 1.217 7.982 4.781 9.683 9.479a18 18 0 0 1 1.063 6.149c.001-7.596 4.591-13.921 10.748-15.628" style="fill:#e1e1e1"/><path d="M226.031 354.552s-.24 4.094-2.339 6.013l-.088-.072c-2.099-1.919-2.339-6.013-2.339-6.013z" style="fill:#e1e1e1"/><path d="M294.4 355.887h-76.8a1.516 1.516 0 0 1-1.516-1.516v-.038c0-.837.679-1.516 1.516-1.516h76.8c.837 0 1.516.679 1.516 1.516v.038c0 .837-.679 1.516-1.516 1.516" style="fill:#966446"/><path d="M271.428 360.493h-30.856a6.065 6.065 0 0 1-6.065-6.065v-.151a6.065 6.065 0 0 1 6.065-6.065h30.856a6.065 6.065 0 0 1 6.065 6.065v.151a6.065 6.065 0 0 1-6.065 6.065" style="fill:#be915a"/><path d="M228.366 352.817h-10.747a1.535 1.535 0 1 0 0 3.07h10.747z" style="fill:#b9b9b9"/><path d="M256 360.493v28.054l-12.282-3.491 6.141-24.563z" style="fill:#ff4b55"/><path d="m252.93 360.493-6.141 21.493-12.282-3.07 9.211-18.423z" style="fill:#41479b"/><path d="m240.648 360.493-9.212 12.282 9.212 3.07 6.141-15.352z" style="fill:#ffe15a"/><path d="M256 360.493v28.054l12.282-3.491-6.141-24.563z" style="fill:#ff4b55"/><path d="m259.07 360.493 6.141 21.493 12.282-3.07-9.211-18.423z" style="fill:#41479b"/><path d="m271.352 360.493 9.212 12.282-9.212 3.07-6.141-15.352z" style="fill:#ffe15a"/><path d="m193.728 291.753-4.413-4.448v-22h4.413zm128.919-4.448-4.414 4.448v-26.448h4.414z" style="fill:#41479b"/></svg>
