<svg xmlns="http://www.w3.org/2000/svg" xml:space="preserve" viewBox="0 0 512 512" width="48" height="48"><path d="M405.409.066H106.591C47.248 2.888 0 51.891 0 111.934v58.711h512v-58.711C512 51.891 464.752 2.888 405.409.066" style="fill:#ff4b55"/><path d="M0 399.934c0 61.856 50.144 112 112 112h288c61.856 0 112-50.144 112-112v-58.711H0z" style="fill:#464655"/><path d="M0 170.65h512v170.58H0z" style="fill:#f5f5f5"/><path d="M293.79 232.565c0-5.869-5.75-10.013-11.318-8.157l-10.462 3.488-2.54-15.342a18.83 18.83 0 0 0-18.643-15.795h-9.786l-10.235 12.597h13.552l-3.793 18.733-11.038-3.68c-5.568-1.856-11.318 2.288-11.318 8.157v63.65l15.234-15.234-7.179 21.533h-8.056v12.597h75.58v-12.597h-8.056l-7.179-21.533 15.234 15.234v-63.651zm-44.088 69.948h-10.155l6.983-18.648 3.172 4.051zm12.596 0v-14.597l3.172-4.051 6.983 18.648zM256 279.682s-19.485-13.187-18.698-37.79c0 0 12.006-1.968 18.698-12.597 6.692 10.628 18.698 12.597 18.698 12.597.787 24.603-18.698 37.79-18.698 37.79" style="fill:#f0c727"/></svg>
