<svg xmlns="http://www.w3.org/2000/svg" xml:space="preserve" viewBox="0 0 512 512" width="48" height="48"><path d="M400 0H112C50.144 0 0 50.144 0 112v58.667h512V112C512 50.144 461.856 0 400 0M0 400c0 61.856 50.144 112 112 112h288c61.856 0 112-50.144 112-112v-58.667H0z" style="fill:#41479b"/><path d="M0 170.67h512v170.67H0z" style="fill:#f5f5f5"/><path d="M255.678 313.332c-32.503 0-58.947-26.444-58.947-58.947a58.98 58.98 0 0 1 13.859-37.97l2.576 2.171a55.6 55.6 0 0 0-13.066 35.799c0 30.645 24.933 55.579 55.579 55.579z" style="fill:#50af69"/><path d="M234.115 295.927c-.736 1.256-1.099 2.98-1.26 4.732a14.7 14.7 0 0 0-2.138-1.298s-1.159 4.081-.252 7.02c0 0-3.072.381-5.892 3.21 0 0 .972.688 2.641 1.404-2.801 2.186-3.665 4.346-3.665 4.346 16.53 8.265 24.452-3.264 24.796-3.782-4.049-11.555-14.23-15.632-14.23-15.632m14.23 15.633.033.084v-.132zm-29.495-26.651c-1.08.79-2.016 2.111-2.792 3.528a13.4 13.4 0 0 0-1.328-1.876s-2.469 3.017-2.779 5.826c0 0-2.729-.802-6.141.552 0 0 .568.935 1.713 2.149-3.16.819-4.679 2.324-4.679 2.324 10.912 13.012 21.807 6.189 22.286 5.879.813-11.222-6.28-18.382-6.28-18.382" style="fill:#50af69"/><path d="m225.13 303.291-.003.083.048-.112zm-15.751-32.784c-1.18.248-2.438.987-3.601 1.863a12 12 0 0 0-.396-2.033s-3.146 1.563-4.442 3.755c0 0-1.945-1.67-5.249-1.822 0 0 .12.979.611 2.4-2.899-.499-4.704.175-4.704.175 4.142 14.731 15.618 13.164 16.127 13.087 4.826-8.916 1.654-17.425 1.654-17.425m-1.653 17.425-.033.067.081-.074zm-2.096-33.843c-1.119.073-2.421.561-3.669 1.181.086-.595.133-1.199.11-1.811 0 0-3.19.976-4.859 2.721 0 0-1.367-1.684-4.306-2.216 0 0-.117.864-.001 2.156-2.495-.783-4.274-.417-4.274-.417.348 13.282 11.037 13.31 11.513 13.305 6.389-7.152 5.486-14.919 5.486-14.919m-5.486 14.919-.045.054.09-.054zm6.728-28.513c-.957-.228-2.176-.156-3.383.042.226-.477.422-.971.561-1.491 0 0-2.928-.007-4.78 1.025 0 0-.711-1.766-3.039-2.973 0 0-.321.694-.559 1.809-1.89-1.303-3.477-1.456-3.477-1.456-3.144 11.231 5.815 14.02 6.215 14.139 7.211-4.347 8.462-11.095 8.462-11.095m-8.461 11.095-.052.034.089-.022zm1.371-27.628s-3.053 8 1.684 12.632c0 0 6.176-1.824 9.228-8.246l-2.596-.491-1.333-4-4.421 1.965zm8.6-12.858s-4.785 7.101-1.22 12.685c0 0 6.428-.378 10.856-5.941l-2.418-1.067-.393-4.198-4.751.913zm47.94 102.228v-3.368c30.646 0 55.579-24.934 55.579-55.579a55.6 55.6 0 0 0-13.066-35.799l2.576-2.171a58.98 58.98 0 0 1 13.858 37.97c.001 32.503-26.443 58.947-58.947 58.947" style="fill:#50af69"/><path d="M277.885 295.927c.736 1.256 1.099 2.98 1.26 4.732a14.6 14.6 0 0 1 2.138-1.298s1.158 4.081.252 7.02c0 0 3.072.381 5.892 3.21 0 0-.972.688-2.641 1.404 2.801 2.186 3.665 4.346 3.665 4.346-16.53 8.265-24.452-3.264-24.796-3.782 4.049-11.555 14.23-15.632 14.23-15.632m-14.23 15.633-.033.084v-.132zm29.494-26.651c1.08.79 2.016 2.111 2.792 3.528.386-.647.817-1.28 1.328-1.876 0 0 2.469 3.017 2.779 5.826 0 0 2.729-.802 6.141.552 0 0-.568.935-1.713 2.149 3.16.819 4.679 2.324 4.679 2.324-10.912 13.012-21.807 6.189-22.286 5.879-.812-11.222 6.28-18.382 6.28-18.382" style="fill:#50af69"/><path d="m286.87 303.291.003.083-.048-.112zm15.751-32.784c1.18.248 2.438.987 3.601 1.863a12 12 0 0 1 .396-2.033s3.146 1.563 4.442 3.755c0 0 1.944-1.67 5.249-1.822 0 0-.12.979-.611 2.4 2.899-.499 4.704.175 4.704.175-4.142 14.731-15.618 13.164-16.127 13.087-4.827-8.916-1.654-17.425-1.654-17.425m1.653 17.425.033.067-.081-.074zm2.096-33.843c1.119.073 2.421.561 3.669 1.181a10 10 0 0 1-.11-1.811s3.19.976 4.859 2.721c0 0 1.367-1.684 4.306-2.216 0 0 .117.864.001 2.156 2.495-.783 4.274-.417 4.274-.417-.348 13.282-11.037 13.31-11.513 13.305-6.389-7.152-5.486-14.919-5.486-14.919m5.485 14.919.045.054-.09-.054zm-6.727-28.513c.957-.228 2.176-.156 3.383.042a9 9 0 0 1-.561-1.491s2.928-.007 4.78 1.025c0 0 .711-1.766 3.039-2.973 0 0 .321.694.559 1.809 1.89-1.303 3.477-1.456 3.477-1.456 3.144 11.231-5.815 14.02-6.215 14.139-7.211-4.347-8.462-11.095-8.462-11.095m8.461 11.095.052.034-.089-.022zm-1.371-27.628s3.053 8-1.684 12.632c0 0-6.176-1.824-9.228-8.246l2.596-.491 1.333-4 4.421 1.965zm-8.601-12.858s4.785 7.101 1.221 12.685c0 0-6.428-.378-10.856-5.941l2.418-1.067.393-4.198 4.751.913z" style="fill:#50af69"/><path d="m256 277.895-5.207 7.811a3.36 3.36 0 0 0 .42 4.244l4.787 4.787 4.787-4.787a3.36 3.36 0 0 0 .42-4.244z" style="fill:#41479b"/><path d="m258.219 285.705-2.219-7.81-2.219 7.811c-.379 1.334-.304 3.11.179 4.244l2.04 4.787 2.04-4.787c.483-1.134.558-2.911.179-4.245" style="fill:#f5f5f5"/><path d="M256 208v-21.053s-8 11.509-6.737 28.351m-29.14-7.226c-11.572 25.116.298 45.784 2.79 49.674.066.104 16.526-26.522 16.526-26.522z" style="fill:#41479b"/><path d="M232.306 242.742c-1.825-5.686-2.09-12.324.102-19.943l-7.161-8.584c-5.885 15.855-3.449 27.563 2.44 35.962 1.447-2.324 3.053-4.91 4.619-7.435" style="fill:#f5f5f5"/><path d="M239.159 232.628c-.502 0-.998-.224-1.331-.651l-21.12-27.155a1.682 1.682 0 1 1 2.658-2.066l21.12 27.155a1.682 1.682 0 0 1-1.327 2.717" style="fill:#ffe15a"/><path d="M205.473 234.172c-6.737 67.368 47.158 50.526 50.526 43.789l-33.684-16.842 6.737-13.474z" style="fill:#41479b"/><path d="m221.76 241.923-9.387-5.633c-2.112 40.032 19.266 46.699 35.033 44.713-12.784-1.716-25.555-11.155-25.646-39.08" style="fill:#f5f5f5"/><path d="M229.049 249.326c-.304 0-.613-.082-.891-.257l-26.946-16.839a1.683 1.683 0 0 1-.535-2.319 1.677 1.677 0 0 1 2.321-.536l26.946 16.839a1.683 1.683 0 0 1-.895 3.112" style="fill:#ffe15a"/><path d="M291.877 208.005c11.572 25.116-.298 45.784-2.79 49.674-.066.104-16.526-26.522-16.526-26.522z" style="fill:#41479b"/><path d="M279.694 242.675c1.825-5.686 2.09-12.324-.102-19.943l7.161-8.584c5.885 15.855 3.449 27.563-2.44 35.962a4225 4225 0 0 1-4.619-7.435" style="fill:#f5f5f5"/><path d="M272.84 232.562a1.68 1.68 0 0 1-1.327-2.717l21.12-27.155a1.687 1.687 0 0 1 2.363-.296 1.68 1.68 0 0 1 .294 2.362l-21.12 27.155a1.68 1.68 0 0 1-1.33.651" style="fill:#ffe15a"/><path d="M306.526 234.105c6.737 67.368-47.158 50.526-50.526 43.789l33.684-16.842-6.737-13.474z" style="fill:#41479b"/><path d="m290.239 241.856 9.388-5.633c2.112 40.032-19.266 46.699-35.033 44.713 12.784-1.715 25.555-11.155 25.645-39.08" style="fill:#f5f5f5"/><path d="M282.951 249.26a1.684 1.684 0 0 1-.895-3.112l26.946-16.839a1.677 1.677 0 0 1 2.321.536 1.683 1.683 0 0 1-.535 2.319l-26.946 16.839a1.67 1.67 0 0 1-.891.257" style="fill:#ffe15a"/><circle cx="256" cy="237.47" r="13.474" style="fill:#ffe6e6"/><circle cx="256" cy="237.47" r="6.737" style="fill:#f5f5f5"/><path d="M256 259.368a1.683 1.683 0 0 1-1.684-1.684v-20.211c0-.931.753-1.684 1.684-1.684s1.684.753 1.684 1.684v20.211c0 .931-.753 1.684-1.684 1.684" style="fill:#ffe15a"/><path d="M302.035 277.614h-90.246l10.527-20.03h67.649z" style="fill:#5aa0e6"/><path d="M258.741 261.333h23.47l-7.301-7.301a3.14 3.14 0 0 0-1.223-.756l-2.541-.847a3.13 3.13 0 0 0-2.725.365l-8.114 5.41z" style="fill:#ffb750"/><path d="M250.76 262.596h28.012l-8.714-8.714c-.41-.41-.91-.719-1.46-.902l-3.033-1.011a3.73 3.73 0 0 0-3.253.436l-9.685 6.457z" style="fill:#ffc455"/><path d="M241.015 264h33.827l-10.523-10.523a4.5 4.5 0 0 0-1.763-1.09l-3.663-1.221a4.51 4.51 0 0 0-3.928.526l-11.695 7.797z" style="fill:#ffcd55"/><path d="M231.373 265.263h38.732l-12.049-12.049a5.16 5.16 0 0 0-2.019-1.247l-4.194-1.398a5.17 5.17 0 0 0-4.498.602l-13.392 8.928z" style="fill:#ffd25a"/><path d="M215.579 267.789h50.526l-15.718-15.718a6.7 6.7 0 0 0-2.633-1.627l-5.471-1.824a6.74 6.74 0 0 0-5.867.786l-17.469 11.646z" style="fill:#ffe15a"/><path d="M259.636 240.495h-7.283l1.677-7.032h2.531c.82 0 1.533.563 1.723 1.36z" style="fill:#ff4b55"/><path d="M259.217 241.625h-6.538a.97.97 0 0 1-.969-.969v-.323a.97.97 0 0 1 .969-.969h6.538a.97.97 0 0 1 .969.969v.323a.97.97 0 0 1-.969.969m-4.322-4.96-1.636-.414a.724.724 0 0 1-.413-1.12l1.183-1.668z" style="fill:#ff4b55"/><path d="m247.598 220.171-.239 1.856c2.617-1.588 5.506-2.542 8.641-2.541 3.134.003 6.023.95 8.641 2.541l-.239-1.856c-2.604-1.359-5.406-2.14-8.402-2.138-2.995-.002-5.798.778-8.402 2.138" style="fill:#41479b"/><path d="m247.702 219.364-.239 1.856c2.589-1.592 5.442-2.546 8.537-2.549 3.095.003 5.949.957 8.537 2.549l-.239-1.856c-2.575-1.368-5.341-2.144-8.298-2.146-2.957.002-5.723.78-8.298 2.146" style="fill:#5aa0e6"/><path d="m247.798 218.618-.239 1.856c2.563-1.597 5.383-2.559 8.441-2.557 3.059 0 5.878.96 8.441 2.557l-.239-1.856c-2.547-1.368-5.28-2.153-8.202-2.154s-5.654.786-8.202 2.154" style="fill:#9bc800"/><path d="m247.908 217.766-.239 1.856c2.533-1.602 5.315-2.566 8.331-2.565 3.016.003 5.798.962 8.331 2.565l-.239-1.856c-2.517-1.374-5.211-2.161-8.092-2.162-2.88.001-5.575.787-8.092 2.162" style="fill:#ffe14e"/><path d="m248.016 216.928-.239 1.856c2.504-1.607 5.247-2.573 8.223-2.574 2.975.004 5.719.964 8.223 2.574l-.239-1.856c-2.486-1.377-5.143-2.169-7.984-2.171-2.84.003-5.498.792-7.984 2.171" style="fill:#ffb14e"/><path d="m248.062 216.571-.167 1.3c2.471-1.609 5.175-2.584 8.105-2.583 2.93-.002 5.634.972 8.105 2.583l-.167-1.3c-2.473-1.379-5.115-2.173-7.938-2.174-2.823-.003-5.465.792-7.938 2.174" style="fill:#ff4b55"/><path d="M303.158 279.579h-94.316a1.685 1.685 0 0 1-1.401-2.618l47.158-70.737c.625-.934 2.178-.934 2.803 0l47.158 70.737c.344.516.377 1.181.084 1.73a1.69 1.69 0 0 1-1.486.888m-91.17-3.369h88.023L256 210.194zM256 192a1.683 1.683 0 0 1-1.684-1.684v-6.737c0-.931.753-1.684 1.684-1.684s1.684.753 1.684 1.684v6.737c0 .931-.753 1.684-1.684 1.684" style="fill:#ffe15a"/><path d="M259.368 192h-6.737c-.931 0-1.684-.753-1.684-1.684s.753-1.684 1.684-1.684h6.737c.931 0 1.684.753 1.684 1.684a1.68 1.68 0 0 1-1.684 1.684" style="fill:#ffe15a"/><path d="M256 313.263q-.184 0-.365-.039c-1.648-.368-7.15-1.688-8.771-3.296a5.275 5.275 0 0 1-.028-7.447 5.23 5.23 0 0 1 3.717-1.553h.018c1.4 0 2.715.543 3.709 1.53 1.622 1.612 2.984 7.099 3.362 8.743a1.69 1.69 0 0 1-.446 1.566 1.7 1.7 0 0 1-1.196.496m-5.429-8.967c-.447.148-.987.201-1.345.559a1.9 1.9 0 0 0 .012 2.681c.408.398 2.229 1.086 4.411 1.707-.638-2.174-1.339-3.99-1.742-4.398l1.186-1.194-1.188 1.194a1.88 1.88 0 0 0-1.334-.549" style="fill:#41479b"/><path d="M256 313.263a1.683 1.683 0 0 1-1.642-2.063c.378-1.645 1.74-7.132 3.362-8.743.998-.99 2.188-1.441 3.727-1.53a5.22 5.22 0 0 1 3.715 1.553 5.27 5.27 0 0 1-.025 7.444c-1.623 1.612-7.125 2.931-8.773 3.299a1.7 1.7 0 0 1-.364.04m2.908-9.612 1.186 1.194c-.403.408-1.104 2.224-1.742 4.398 2.182-.622 4.003-1.309 4.413-1.711a1.895 1.895 0 0 0-1.329-3.237h-.007a1.88 1.88 0 0 0-1.334.549zm0 0h.033z" style="fill:#41479b"/><path d="M249.263 323.368a1.683 1.683 0 0 1-1.684-1.684c0-7.691 7.355-11.454 7.668-11.612a1.68 1.68 0 0 1 2.255.75 1.686 1.686 0 0 1-.743 2.26c-.059.03-5.811 3.016-5.811 8.602a1.684 1.684 0 0 1-1.685 1.684" style="fill:#41479b"/><path d="M262.737 323.368a1.683 1.683 0 0 1-1.684-1.684c0-5.586-5.752-8.572-5.811-8.602a1.686 1.686 0 0 1-.743-2.26 1.68 1.68 0 0 1 2.255-.75c.313.158 7.668 3.921 7.668 11.612a1.684 1.684 0 0 1-1.685 1.684" style="fill:#41479b"/></svg>
