<svg xmlns="http://www.w3.org/2000/svg" xml:space="preserve" viewBox="0 0 512 512" width="48" height="48"><path d="M400 0H112C50.144 0 0 50.144 0 112v58.667h512V112C512 50.144 461.856 0 400 0" style="fill:#73af00"/><path d="M0 400c0 61.856 50.144 112 112 112h288c61.856 0 112-50.144 112-112v-58.667H0z" style="fill:#ff4b55"/><path d="M0 170.67h512v170.67H0z" style="fill:#f5f5f5"/><path d="M138.987 244.276 24.177 42.493C9.042 61.591 0 85.739 0 112v288c0 26.261 9.042 50.409 24.177 69.507l114.809-201.783c3.912-6.874 3.912-16.574.001-23.448" style="fill:#4173cd"/><path d="M252.767 268.052c0 .33-.107 32.004-8.208 47.585h22.761c-8.101-15.581-8.208-47.256-8.208-47.585 0-10.914 11.311-19.586 11.425-19.672l-3.812-5.071c-.297.223-4.066 3.112-7.613 7.807v-8.442h-6.345v8.442c-3.548-4.695-7.316-7.584-7.613-7.807l-3.812 5.071c.114.086 11.425 8.758 11.425 19.672" style="fill:#b46446"/><path d="M287.663 229.984c-.194 0-.373.051-.564.063-1.293-3.72-4.793-6.407-8.954-6.407-1.5 0-2.9.378-4.162.996-1.343-2.471-3.931-4.169-6.941-4.169-.865 0-1.683.173-2.462.429-1.687-3.981-5.631-6.774-10.227-6.774-5.648 0-10.261 4.234-10.961 9.691-.567-.089-1.136-.174-1.729-.174-6.132 0-11.103 4.971-11.103 11.103 0 .721.081 1.421.212 2.103a9.47 9.47 0 0 0-5.991 5.885c-.189-.017-.372-.057-.565-.057a6.345 6.345 0 1 0 0 12.69c1.619 0 3.08-.625 4.201-1.623a9.47 9.47 0 0 0 5.316 1.623c1.742 0 3.354-.503 4.758-1.32 1.405.818 3.016 1.32 4.759 1.32a9.517 9.517 0 0 0 9.517-9.517c0-.402-.07-.785-.118-1.174 1.478.728 3.118 1.174 4.877 1.174 2.206 0 4.25-.662 5.978-1.771 1.621 2.934 4.709 4.944 8.298 4.944.772 0 1.512-.117 2.23-.291 1.746 2.099 4.344 3.463 7.287 3.463 2.843 0 5.367-1.272 7.111-3.25 4.891-.396 8.751-4.446 8.751-9.44-.001-5.256-4.262-9.517-9.518-9.517" style="fill:#73af00"/><path d="M278.146 237.915c0-.33.069-.641.097-.964-1.697 1.57-3.948 2.55-6.442 2.55a9.5 9.5 0 0 1-7.931-4.268 9.5 9.5 0 0 1-7.931 4.268c-2.548 0-4.85-1.015-6.558-2.646-.988 5.12-5.482 8.99-10.89 8.99-.549 0-1.075-.085-1.602-.161.001.055.016.106.016.161 0 4.148-2.67 7.64-6.373 8.943a9.5 9.5 0 0 0 3.2.574c1.742 0 3.354-.503 4.758-1.32 1.405.818 3.016 1.32 4.759 1.32a9.517 9.517 0 0 0 9.517-9.517c0-.402-.07-.785-.118-1.174 1.478.728 3.118 1.174 4.877 1.174 2.206 0 4.25-.662 5.978-1.771 1.621 2.934 4.709 4.944 8.298 4.944.772 0 1.512-.117 2.23-.291 1.746 2.099 4.344 3.463 7.287 3.463 2.843 0 5.367-1.272 7.111-3.25l.02-.004c-5.752-.416-10.303-5.164-10.303-11.021" style="fill:#5fa000"/><path d="M255.939 335.858c-.51 0-.962-.325-1.128-.806-.121-.356-3.107-8.708-14.734-8.708h-15.862c-9.402 0-17.051-7.649-17.051-17.051V204.605c0-.657.533-1.19 1.19-1.19h98.343c.657 0 1.19.533 1.19 1.19v104.688c0 9.402-7.649 17.051-17.051 17.051h-19.034c-11.697 0-14.705 8.616-14.733 8.702a1.19 1.19 0 0 1-1.126.812zm-46.395-130.064v103.498c0 8.089 6.582 14.672 14.672 14.672h15.862c9.416 0 13.974 5.056 15.862 8.095 1.888-3.039 6.445-8.095 15.862-8.095h19.034c8.09 0 14.672-6.583 14.672-14.672V205.794z" style="fill:#464655"/><path d="m243.765 176.318 3.013 4.826 5.686.197-2.672 5.023 2.672 5.023-5.686.197-3.013 4.826-3.014-4.826-5.686-.197 2.672-5.023-2.672-5.023 5.686-.197zm-26.801 4.375 4.058 3.989 5.575-1.137-1.425 5.508 3.771 4.26-5.482 1.52-1.803 5.396-4.058-3.988-5.575 1.136 1.425-5.508-3.772-4.26 5.483-1.519zm-25.713 7.611 4.823 3.018 5.198-2.313-.203 5.686 4.602 3.345-5.025 2.667-.596 5.659-4.823-3.019-5.198 2.314.203-5.686-4.602-3.345 5.025-2.668zm76.984-11.986-3.013 4.826-5.687.197 2.673 5.023-2.673 5.023 5.687.197 3.013 4.826 3.014-4.826 5.686-.197-2.672-5.023 2.672-5.023-5.686-.197zm26.8 4.375-4.057 3.989-5.575-1.137 1.425 5.508-3.772 4.26 5.483 1.52 1.803 5.396 4.058-3.988 5.575 1.136-1.425-5.508 3.772-4.26-5.483-1.519zm25.714 7.611-4.822 3.018-5.199-2.313.203 5.686-4.603 3.345 5.026 2.667.596 5.659 4.822-3.019 5.199 2.314-.203-5.686 4.603-3.345-5.026-2.668z" style="fill:#ffe15a"/></svg>
