<svg xmlns="http://www.w3.org/2000/svg" xml:space="preserve" viewBox="0 0 512 512" width="48" height="48"><path d="M400 0H112C50.144 0 0 50.144 0 112v58.667h512V112C512 50.144 461.856 0 400 0" style="fill:#73af00"/><path d="M0 400c0 61.856 50.144 112 112 112h288c61.856 0 112-50.144 112-112v-58.667H0z" style="fill:#ff4b55"/><path d="M0 170.67h512v170.67H0z" style="fill:#ffe15a"/><path d="M417.706 256.15c0 89.177-72.4 161.706-161.706 161.706S94.294 345.327 94.294 256.15c0-89.435 72.4-161.835 161.706-161.835s161.706 72.401 161.706 161.835" style="fill:#4173cd"/><path d="M133.008 215.497h93.954l21.26-65.429 5.646 17.55-30.874 95.114-9.198-6.71 9.617-29.553h-75.562zm46.945 144.671 29.037-89.306-55.653-40.525h18.356l80.888 58.722-9.195 6.71-25.198-18.326-23.391 72.013zm152.091 0L256 304.934l-55.623 40.393 5.679-17.292 80.821-58.851 3.452 10.84-25.135 18.198 61.141 44.526zm46.944-144.671-75.981 55.365 21.263 65.432-14.841-10.843-30.845-95.114h11.293l9.614 29.685 61.174-44.526zM256 126.191l29.037 89.306h68.819l-14.874 10.972h-99.954l3.518-10.972h31.165l-23.391-71.885z" style="fill:#f2dd30"/><path d="M258.709 385.465h-5.389v-70.077h5.389zm119.473-86.986-66.625-21.551 1.678-5.032 66.658 21.551zm-244.397 0-1.678-5.032 66.688-21.551 1.649 5.032zm159.287-88.79-4.391-3.096 41.202-56.657 4.292 3.099zm-74.045 0-41.268-56.654 4.358-3.099 41.169 56.657z" style="fill:#f2dd30"/></svg>
