<svg xmlns="http://www.w3.org/2000/svg" xml:space="preserve" viewBox="0 0 512 512" width="48" height="48"><path d="M400 0H112C50.144 0 0 50.144 0 112v288c0 61.856 50.144 112 112 112h288c61.856 0 112-50.144 112-112V112C512 50.144 461.856 0 400 0" style="fill:#41479b"/><path d="M148.21 256h13.474v-81.77L256 236.023v-19.964l-83.768-54.375h24.748L256 199.995v-12.294l-39.71-26.017H256V148.21H148.21zm-53.894 0h13.473V148.21H0v13.474h39.71L0 187.701v18.901l69.197-44.918h24.748L0 222.666v13.357l94.316-61.793zM107.789.087c-4.566.169-9.063.608-13.474 1.308V81.77L27.779 38.177a112.4 112.4 0 0 0-10.872 14.637l63.935 41.502H56.094L10.461 64.694q-1.878 4.02-3.44 8.205L39.71 94.316H1.394c-.7 4.411-1.139 8.907-1.308 13.474h107.703zM256 107.79V94.316h-39.71L256 68.299V49.157l-69.568 45.159h-24.748L256 33.092V19.977L161.684 81.77V0H148.21v107.79z" style="fill:#f5f5f5"/><path d="M107.789 256h40.421V148.21H256v-40.42H148.21V0H112c-1.411 0-2.813.035-4.211.087V107.79H.087A113 113 0 0 0 0 112v36.21h107.789z" style="fill:#ff4b55"/><path d="M69.197 161.684 0 206.602v16.064l93.945-60.982zm103.035 0L256 216.059v-16.064l-59.02-38.311zm-91.39-67.368L16.907 52.814a112 112 0 0 0-6.447 11.88l45.634 29.622zm105.59 0L256 49.157V33.092l-94.316 61.224z" style="fill:#ff4b55"/><path d="m330.247 453.306-4.484-10.464 2.242 5.232-2.268-5.219c.945-.417 23.138-10.542 23.138-40.315h11.384c-.001 37.472-28.786 50.24-30.012 50.766" style="fill:#e67346"/><path d="m334.697 427.849-8.049-8.048c15.387-15.387 23.384-19.608 24.246-20.04l5.091 10.183-2.546-5.091 2.59 5.069c-.071.036-7.279 3.874-21.332 17.927" style="fill:#eb7d4b"/><path d="m447.22 453.306 4.484-10.464-2.242 5.232 2.268-5.219c-.945-.417-23.138-10.542-23.138-40.315h-11.384c.001 37.472 28.786 50.24 30.012 50.766" style="fill:#e67346"/><path d="m442.77 427.849 8.048-8.048c-15.387-15.387-23.384-19.608-24.245-20.04l-5.091 10.183 2.546-5.091-2.59 5.069c.071.036 7.278 3.874 21.332 17.927" style="fill:#eb7d4b"/><path d="M388.717 254.554h-60.712v91.068c0 18.972 3.794 68.301 60.712 87.274 56.918-18.973 60.712-68.301 60.712-87.274v-91.068z" style="fill:#4173cd"/><path d="M415.278 277.321h-32.621a15.18 15.18 0 0 1-9.482-3.326l-12.736-10.189a7.6 7.6 0 0 0-4.741-1.663h-1.133a7.59 7.59 0 0 0-7.589 7.589h-5.692a5.692 5.692 0 0 0 0 11.384h5.692a3.794 3.794 0 0 1 3.794 3.794v18.973c0 7.064 4.848 12.949 11.384 14.641v11.92h7.589l2.846-11.384h35.099l3.794 3.794v7.589h3.794v-11.384h3.795v11.384h3.794v-12.436c2.259-1.314 3.794-3.734 3.794-6.536v-22.767c.003-6.286-5.094-11.383-11.381-11.383" style="fill:#c8c8c8"/><path d="m346.977 326.65 7.589 22.767h68.301l7.589-22.767z" style="fill:#73af00"/><path d="M429.143 341.828c-10.116 0-10.116 7.589-20.232 7.589-10.114 0-10.114-7.589-20.227-7.589s-10.112 7.589-20.225 7.589c-10.115 0-10.115-7.589-20.231-7.589-10.094 0-10.118 7.554-20.17 7.586.122 4.227.484 9.397 1.417 15.11 8.649-.707 9.161-7.518 18.752-7.518 10.115 0 10.115 7.589 20.231 7.589 10.112 0 10.112-7.589 20.225-7.589s10.114 7.589 20.227 7.589c10.116 0 10.116-7.589 20.232-7.589 9.618 0 10.123 6.825 18.814 7.52.933-5.713 1.296-10.883 1.418-15.11-10.096-.019-10.11-7.588-20.231-7.588" style="fill:#f5f5f5"/><path d="M429.143 357.006c-10.116 0-10.116 7.589-20.232 7.589-10.114 0-10.114-7.589-20.227-7.589s-10.112 7.589-20.225 7.589c-10.115 0-10.115-7.589-20.231-7.589-9.591 0-10.103 6.812-18.752 7.518a98 98 0 0 0 3.49 14.466c5.535-1.933 7.151-6.807 15.262-6.807 10.115 0 10.115 7.589 20.231 7.589 10.112 0 10.112-7.589 20.225-7.589s10.114 7.589 20.227 7.589c10.116 0 10.116-7.589 20.232-7.589 8.141 0 9.75 4.893 15.32 6.819a98 98 0 0 0 3.494-14.477c-8.69-.694-9.195-7.519-18.814-7.519" style="fill:#4173cd"/><path d="M429.143 372.184c-10.116 0-10.116 7.589-20.232 7.589-10.114 0-10.114-7.589-20.227-7.589s-10.112 7.589-20.225 7.589c-10.115 0-10.115-7.589-20.231-7.589-8.111 0-9.727 4.873-15.262 6.807a86 86 0 0 0 5.038 12.247c2.566-1.924 5.094-3.876 10.224-3.876 10.115 0 10.115 7.589 20.231 7.589 10.112 0 10.112-7.589 20.225-7.589s10.114 7.589 20.227 7.589c10.116 0 10.116-7.589 20.232-7.589 5.16 0 7.693 1.968 10.274 3.9a86 86 0 0 0 5.046-12.259c-5.569-1.926-7.178-6.819-15.32-6.819" style="fill:#f5f5f5"/><path d="M429.143 387.362c-10.116 0-10.116 7.589-20.232 7.589-10.114 0-10.114-7.589-20.227-7.589s-10.112 7.589-20.225 7.589c-10.115 0-10.115-7.589-20.231-7.589-5.13 0-7.659 1.952-10.224 3.876a79 79 0 0 0 7.157 11.584 16.4 16.4 0 0 1 3.068-.282c10.115 0 10.115 7.589 20.231 7.589 10.112 0 10.112-7.589 20.225-7.589s10.114 7.589 20.227 7.589c10.116 0 10.116-7.589 20.232-7.589 1.17 0 2.193.11 3.123.289a79 79 0 0 0 7.151-11.568c-2.581-1.931-5.114-3.899-10.275-3.899" style="fill:#4173cd"/><path d="M432.267 402.829a16.4 16.4 0 0 0-3.123-.289c-10.116 0-10.116 7.589-20.232 7.589-10.114 0-10.114-7.589-20.227-7.589s-10.112 7.589-20.225 7.589c-10.115 0-10.115-7.589-20.231-7.589-1.147 0-2.151.108-3.068.282 6.15 8.256 14.492 15.996 25.782 22.293 7.687-1.135 8.542-7.397 17.741-7.397 9.22 0 10.058 6.29 17.793 7.404 11.293-6.297 19.638-14.037 25.79-22.293" style="fill:#f5f5f5"/><path d="M386.82 341.83h3.795v64.51h-3.795z" style="fill:#ff965a"/><path d="M377.33 351.31h22.767v3.795H377.33zm0 22.77h22.767v3.795H377.33z" style="fill:#ff965a"/><path d="M377.33 355.1h22.767v15.01H377.33z" style="fill:#ffe15a"/><path d="M386.82 341.828v7.589l-11.384-3.795z" style="fill:#ff4b55"/><path d="M412.12 341.83h3.794v44.585h-3.794z" style="fill:#ff965a"/><path d="M402.63 351.31h22.767v3.795H402.63zm0 22.77h22.767v3.795H402.63z" style="fill:#ff965a"/><path d="M402.63 355.1h22.767v15.01H402.63z" style="fill:#ffe15a"/><path d="M412.116 341.828v7.589l-11.383-3.795z" style="fill:#ff4b55"/><path d="M361.37 341.83h3.794v44.27h-3.794z" style="fill:#ff965a"/><path d="M351.88 351.31h22.767v3.795H351.88zm0 22.77h22.767v3.795H351.88z" style="fill:#ff965a"/><path d="M351.88 355.1h22.767v15.01H351.88z" style="fill:#ffe15a"/><path d="M361.365 341.828v7.589l-11.384-3.795z" style="fill:#ff4b55"/><path d="M407.689 383.567c0 10.461-8.512 18.973-18.973 18.973s-18.973-8.512-18.973-18.973h-7.558l-25.699-5.803-.837 3.702 11.328 2.558v3.338l8.351 3.341c3.292 15.415 17.006 27.016 33.388 27.016 16.219 0 29.807-11.377 33.271-26.561h12.263v-11.384z" style="fill:#ff965a"/><path d="M449.429 254.554v91.068c0 18.972-3.794 68.301-60.712 87.274-56.918-18.973-60.712-68.301-60.712-87.274v-91.068zm3.794-3.794H324.21v94.862c0 44.993 22.483 77.266 63.307 90.873l1.2.4 1.2-.4c40.824-13.608 63.307-45.881 63.307-90.873z" style="fill:#f5f5f5"/><path d="M388.717 451.868c-27.929 0-53.829-9.357-69.283-25.027l10.806-10.657c12.664 12.84 34.525 20.507 58.478 20.507s45.814-7.667 58.478-20.507L458 426.841c-15.454 15.671-41.354 25.027-69.283 25.027" style="fill:#ff965a"/></svg>
