<svg xmlns="http://www.w3.org/2000/svg" xml:space="preserve" viewBox="0 0 512.001 512.001" width="48" height="48"><path d="M.001 323.368V400c0 61.381 49.379 111.22 110.579 111.982V323.368zM245.317 512h154.684c61.856 0 112-50.144 112-112v-76.632H245.317zM110.58.018C49.38.78.001 50.619.001 112v76.632H110.58zM400.001 0H245.317v188.632H512V112C512 50.144 461.857 0 400.001 0" style="fill:#f5f5f5"/><path d="M245.317 0H112.001c-.475 0-.947.012-1.421.018v188.614H.001v134.737H110.58v188.614c.474.006.946.018 1.421.018h133.316V323.368H512V188.632H245.317z" style="fill:#41479b"/><path d="M512 215.579H218.369V0h-80.842v215.579H.001v80.842h137.526V512h80.842V296.421H512z" style="fill:#ff4b55"/></svg>
