<svg xmlns="http://www.w3.org/2000/svg" xml:space="preserve" viewBox="0 0 512 512" width="48" height="48"><path d="M0 400c0 61.856 50.144 112 112 112h288c61.856 0 112-50.144 112-112v-22.737H0zM400 0H112C50.144 0 0 50.144 0 112v22.737h512V112C512 50.144 461.856 0 400 0" style="fill:#ff4b55"/><path d="M0 134.74h512v242.53H0z" style="fill:#f5f5f5"/><path d="m344.824 221.594-85.529 34.912c-.034-.087-.074-.165-.114-.248l82.601-41.367a96 96 0 0 0-11.837-18.192l-71.213 58.893c-.072-.089-.112-.202-.191-.284l65.28-65.345a96.3 96.3 0 0 0-15.337-12.445l-50.542 77.363c-.115-.077-.218-.167-.341-.23L298.895 172a95.2 95.2 0 0 0-21.101-7.613l-20.986 90.002c-.267-.064-.521-.163-.808-.163s-.541.099-.808.163l-20.986-90.002A95.2 95.2 0 0 0 213.105 172l41.294 82.651c-.124.064-.227.154-.342.23l-50.542-77.363a96.4 96.4 0 0 0-15.337 12.445l65.28 65.345c-.079.082-.12.195-.191.284l-71.213-58.893a96 96 0 0 0-11.837 18.192l82.601 41.367c-.04.083-.081.161-.114.248l-85.529-34.912a95.2 95.2 0 0 0-5.678 19.895l91.056 15.765c-.012.079-.04.152-.047.233l-91.912-9.575a97 97 0 0 0-.503 9.864c0 5.759.536 11.39 1.509 16.87l94.4-9.766 94.399 9.765a96.4 96.4 0 0 0 1.509-16.87c0-3.331-.171-6.621-.503-9.864l-91.912 9.575c-.007-.081-.035-.154-.047-.233l91.056-15.765a95 95 0 0 0-5.678-19.894" style="fill:#ffb955"/><path d="M163.306 282.429a95 95 0 0 0 2.265 7.317h180.858a95 95 0 0 0 2.265-7.317c-8.861-1.145-9.961-6.892-20.754-6.892-11.984 0-11.984 7.104-23.967 7.104-11.984 0-11.984-7.104-23.968-7.104-11.987 0-11.987 7.104-23.974 7.104-11.98 0-11.98-7.104-23.961-7.104-11.991 0-11.991 7.104-23.982 7.104-11.999 0-11.999-7.104-23.998-7.104-10.808 0-11.908 5.748-20.784 6.892m161.809 17.973c-11.535-.002-11.537-7.104-23.075-7.104-11.54 0-11.54 7.104-23.08 7.104s-11.54-7.104-23.08-7.104c-11.543 0-11.543 7.104-23.086 7.104-11.537 0-11.537-7.104-23.074-7.104-11.547 0-11.547 7.104-23.094 7.104-10.245 0-11.423-5.574-19.607-6.841a95.6 95.6 0 0 0 6.957 13.945h164.048a95.7 95.7 0 0 0 6.971-13.98c-8.429 1.185-9.529 6.874-19.88 6.876m9.172 12.743c-2.233-1.17-4.878-2.086-9.011-2.086-11.54 0-11.54 7.104-23.08 7.104s-11.54-7.104-23.08-7.104c-11.543 0-11.543 7.104-23.086 7.104-11.537 0-11.537-7.104-23.074-7.104-11.547 0-11.547 7.104-23.094 7.104-11.555 0-11.555-7.104-23.109-7.104-4.147 0-6.798.92-9.036 2.093a96.4 96.4 0 0 0 10.154 12.116h136.257a96.4 96.4 0 0 0 10.159-12.123M315.1 333.282c-3.487-2.021-6.291-4.463-13.061-4.463-11.54 0-11.54 7.104-23.08 7.104s-11.54-7.104-23.08-7.104c-11.543 0-11.543 7.104-23.086 7.104-11.537 0-11.537-7.104-23.074-7.104-6.681 0-9.501 2.375-12.924 4.38a96 96 0 0 0 15.284 9.828h87.842a96 96 0 0 0 15.179-9.745m-82.143 13.298c-3.782 0-6.317.767-8.433 1.792a95.7 95.7 0 0 0 31.477 5.312h.018c-11.525-.005-11.53-7.104-23.062-7.104m23.129 7.102a95.7 95.7 0 0 0 31.432-5.324c-2.109-1.018-4.638-1.778-8.401-1.778-11.524 0-11.547 7.078-23.031 7.102" style="fill:#4173cd"/><path d="m268.616 245.633-30.392-8.784a4.01 4.01 0 0 1-2.908-3.806c-.14-11.254-.629-50.882-.629-56.967 0-7.104 7.104-17.761 21.313-17.761h11.203c1.061 0 1.38 1.443.405 1.861-5.131 2.2-11.608 6.783-11.608 15.9 0 10.824 10.308 15.464 15.218 17.06a3.66 3.66 0 0 1 2.543 3.483v45.144c0 2.682-2.57 4.614-5.145 3.87m-26.807 39.756c1.114-.675 2.435.452 1.934 1.654-2.975 7.142-10.265 20.463-23.265 20.463-17.761 0-21.313-14.209-21.313-24.865v-75.346a2.8 2.8 0 0 1 2.801-2.801h5.054a2.8 2.8 0 0 1 2.801 2.801v71.794c.001 9.604 20.199 13.438 31.988 6.3m26.891 0c-1.114-.675-2.435.452-1.934 1.654 2.975 7.142 10.265 20.463 23.265 20.463 17.761 0 21.313-14.209 21.313-24.865v-75.346a2.8 2.8 0 0 0-2.801-2.801h-5.054a2.8 2.8 0 0 0-2.801 2.801v71.794c0 9.604-20.198 13.438-31.988 6.3" style="fill:#ff4b55"/><path d="M294.056 273.761h-76.111a1.02 1.02 0 0 1-1.018-1.018v-1.516c0-.562.456-1.018 1.018-1.018h76.111c.562 0 1.018.456 1.018 1.018v1.516c0 .562-.456 1.018-1.018 1.018m-69.582-13.409 3.846-5.129c.59-.784.43-1.898-.355-2.487a1.78 1.78 0 0 0-2.486.357l-1.497 1.996v-1.378c0-.982-.794-1.776-1.776-1.776s-1.776.794-1.776 1.776v1.249l-1.4-1.867a1.775 1.775 0 1 0-2.841 2.13l3.846 5.129-3.846 5.129a1.775 1.775 0 1 0 2.84 2.13l3.224-4.299 3.224 4.299a1.773 1.773 0 0 0 2.485.357c.786-.59.945-1.703.355-2.487zm33.153 0 3.846-5.129c.59-.784.43-1.898-.355-2.487a1.78 1.78 0 0 0-2.486.357l-1.497 1.996v-1.378c0-.982-.794-1.776-1.776-1.776s-1.776.794-1.776 1.776v1.249l-1.4-1.867a1.776 1.776 0 1 0-2.841 2.13l3.846 5.129-3.846 5.129a1.775 1.775 0 1 0 2.841 2.13l3.224-4.299 3.224 4.299a1.773 1.773 0 0 0 2.485.357c.786-.59.945-1.703.355-2.487zm-16.576 0 3.846-5.129c.59-.784.43-1.898-.355-2.487a1.78 1.78 0 0 0-2.486.357l-1.497 1.996v-1.378c0-.982-.794-1.776-1.776-1.776s-1.776.794-1.776 1.776v1.249l-1.4-1.867a1.776 1.776 0 1 0-2.841 2.13l3.846 5.129-3.846 5.129a1.775 1.775 0 1 0 2.841 2.13l3.224-4.299 3.224 4.299a1.773 1.773 0 0 0 2.485.357c.786-.59.945-1.703.355-2.487zm33.153 0 3.846-5.129a1.774 1.774 0 1 0-2.841-2.13l-1.497 1.996v-1.378c0-.982-.794-1.776-1.776-1.776s-1.776.794-1.776 1.776v1.249l-1.4-1.867a1.776 1.776 0 1 0-2.841 2.13l3.846 5.129-3.846 5.129a1.775 1.775 0 1 0 2.841 2.13l3.224-4.299 3.224 4.299a1.773 1.773 0 0 0 2.485.357c.786-.59.945-1.703.356-2.487zm16.577 0 3.846-5.129c.59-.784.43-1.898-.356-2.487a1.78 1.78 0 0 0-2.486.357l-1.497 1.996v-1.378c0-.982-.794-1.776-1.776-1.776s-1.776.794-1.776 1.776v1.249l-1.4-1.867a1.775 1.775 0 1 0-2.842 2.13l3.846 5.129-3.846 5.129a1.775 1.775 0 1 0 2.841 2.13l3.224-4.299 3.224 4.299a1.773 1.773 0 0 0 2.485.357c.786-.59.945-1.703.356-2.487zm-69.586 24.379c2.627 1.149 18.059 1.313 21.999-2.791s3.119-5.91 3.119-5.91l-18.716.164zm68.86 0c-2.627 1.149-18.059 1.313-22-2.791s-3.119-5.91-3.119-5.91l18.716.164z" style="fill:#aa4650"/></svg>
