<svg xmlns="http://www.w3.org/2000/svg" xml:space="preserve" viewBox="0 0 512 512" width="48" height="48"><path d="M400 0H112C50.144 0 0 50.144 0 112v288c0 61.856 50.144 112 112 112h288c61.856 0 112-50.144 112-112V112C512 50.144 461.856 0 400 0" style="fill:#f5f5f5"/><path d="M512 215.579H296.421V0h-80.842v215.579H0v80.842h215.579V512h80.842V296.421H512z" style="fill:#ff4b55"/><path d="M160 89.376c-13.345 1.342-26.42 2.687-39.513 4.031 1.345-13.095 2.69-26.17 4.033-39.513a143.4 143.4 0 0 1-36.828 0c1.342 13.345 2.687 26.42 4.033 39.513-13.094-1.345-26.17-2.689-39.514-4.031a143.4 143.4 0 0 1 0 36.826c13.345-1.342 26.42-2.687 39.514-4.032-1.346 13.095-2.691 26.17-4.033 39.513a143.4 143.4 0 0 1 36.828 0c-1.343-13.345-2.688-26.42-4.033-39.513 13.094 1.345 26.17 2.69 39.513 4.032a143.4 143.4 0 0 1 0-36.826m301 0c-13.345 1.342-26.42 2.687-39.513 4.031 1.345-13.095 2.69-26.17 4.033-39.513a143.4 143.4 0 0 1-36.828 0c1.342 13.345 2.687 26.42 4.033 39.513-13.094-1.345-26.17-2.689-39.514-4.031a143.4 143.4 0 0 1 0 36.826c13.345-1.342 26.42-2.687 39.514-4.032-1.346 13.095-2.691 26.17-4.033 39.513a143.4 143.4 0 0 1 36.828 0c-1.343-13.345-2.688-26.42-4.033-39.513 13.094 1.345 26.17 2.69 39.513 4.032a143.4 143.4 0 0 1 0-36.826M160 385.797c-13.345 1.342-26.42 2.687-39.513 4.032 1.345-13.095 2.69-26.17 4.033-39.513a143.4 143.4 0 0 1-36.828 0c1.342 13.345 2.687 26.42 4.033 39.513-13.094-1.345-26.17-2.69-39.514-4.032a143.4 143.4 0 0 1 0 36.826c13.345-1.342 26.42-2.687 39.514-4.031-1.346 13.095-2.691 26.17-4.033 39.513a143.4 143.4 0 0 1 36.828 0c-1.343-13.345-2.688-26.42-4.033-39.513 13.094 1.345 26.17 2.689 39.513 4.031a143.4 143.4 0 0 1 0-36.826m301 0c-13.345 1.342-26.42 2.687-39.513 4.032 1.345-13.095 2.69-26.17 4.033-39.513a143.4 143.4 0 0 1-36.828 0c1.342 13.345 2.687 26.42 4.033 39.513-13.094-1.345-26.17-2.69-39.514-4.032a143.4 143.4 0 0 1 0 36.826c13.345-1.342 26.42-2.687 39.514-4.031-1.346 13.095-2.691 26.17-4.033 39.513a143.4 143.4 0 0 1 36.828 0c-1.343-13.345-2.688-26.42-4.033-39.513 13.094 1.345 26.17 2.689 39.513 4.031a143.4 143.4 0 0 1 0-36.826" style="fill:#ff4b55"/></svg>
