<svg xmlns="http://www.w3.org/2000/svg" xml:space="preserve" viewBox="0 0 512 512" width="48" height="48"><path d="M400 0H112C50.144 0 0 50.144 0 112v58.667h512V112C512 50.144 461.856 0 400 0" style="fill:#ff4b55"/><path d="M0 400c0 61.856 50.144 112 112 112h288c61.856 0 112-50.144 112-112v-58.667H0z" style="fill:#73af00"/><path d="M0 170.67h512v170.67H0z" style="fill:#ffe15a"/><path d="m261.681 191.755 14.061 42.161 44.443.344c5.754.045 8.14 7.388 3.511 10.806l-35.753 26.402 13.406 42.374c1.736 5.486-4.511 10.024-9.192 6.678L256 294.677l-36.158 25.844c-4.681 3.346-10.928-1.192-9.192-6.678l13.406-42.374-35.753-26.402c-4.629-3.418-2.243-10.761 3.511-10.806l44.443-.344 14.061-42.161c1.821-5.46 9.543-5.46 11.363-.001" style="fill:#464655"/></svg>
