<svg xmlns="http://www.w3.org/2000/svg" xml:space="preserve" viewBox="0 0 512 512" width="48" height="48"><path d="M400 0H112C50.144 0 0 50.144 0 112v288c0 61.856 50.144 112 112 112h288c61.856 0 112-50.144 112-112V112C512 50.144 461.856 0 400 0" style="fill:#f5f5f5"/><path d="M0 400c0 61.856 50.144 112 112 112h288c61.856 0 112-50.144 112-112v-63.158H0zm388.495-201.504v-24.09h-24.09V114.18h12.045V90.09h-72.271v24.09h12.045v60.226h-36.135V90.09h12.045V66h-72.271v24.09h12.046v84.316h-36.136V114.18h12.045V90.09h-72.27v24.09h12.045v60.226h-24.09v24.09h12.045v96.361h-12.045v24.09h264.992v-24.09H376.45v-96.361z" style="fill:#ff4b55"/><path d="M280.089 306.902h-48.18v-56.271c0-8.837 7.163-16 16-16h16.18c8.837 0 16 7.163 16 16zm-24.09-168.631c-6.652 0-12.045 5.392-12.045 12.045v36.135h24.09v-36.135c0-6.653-5.393-12.045-12.045-12.045m84.316 12.045c-6.652 0-12.045 5.393-12.045 12.045v24.09h24.09v-24.09c0-6.653-5.393-12.045-12.045-12.045m-168.632 0c-6.652 0-12.045 5.393-12.045 12.045v24.09h24.09v-24.09c0-6.653-5.393-12.045-12.045-12.045M352.36 306.902h-48.181v-44.226c0-8.837 7.164-16 16-16h16.181c8.836 0 16 7.163 16 16zm-144.542 0h-48.18v-44.226c0-8.837 7.163-16 16-16h16.18c8.837 0 16 7.163 16 16z" style="fill:#464655"/><path d="M293.052 357.053a6.74 6.74 0 0 0-3-5.605l-27.316-18.21v-5.704l23.224-11.612a6.737 6.737 0 0 0 3.013-9.04 6.73 6.73 0 0 0-9.039-3.013L256 315.836l-23.934-11.967a6.735 6.735 0 0 0-9.039 3.013 6.737 6.737 0 0 0 3.013 9.04l23.224 11.612v5.704l-27.316 18.21a6.738 6.738 0 0 0 0 11.21l27.316 18.211v57.026h-26.947v10.316a6.733 6.733 0 0 0 6.737 6.737 6.73 6.73 0 0 0 5.954-3.579h14.257v13.474H234.89a6.73 6.73 0 0 0-5.835-3.368 6.733 6.733 0 0 0-6.737 6.737v10.105h26.947v6.737a6.733 6.733 0 0 0 6.737 6.737 6.733 6.733 0 0 0 6.737-6.737V380.87l27.316-18.211a6.75 6.75 0 0 0 2.997-5.606m-37.053 12.111-18.171-12.112 18.171-12.112 18.171 12.112z" style="fill:#ffe15a"/></svg>
