<svg xmlns="http://www.w3.org/2000/svg" xml:space="preserve" viewBox="0 0 512 512" width="48" height="48"><path d="M400 0H112C50.144 0 0 50.144 0 112v144h512V112C512 50.144 461.856 0 400 0" style="fill:#f5f5f5"/><path d="M0 400c0 61.856 50.144 112 112 112h288c61.856 0 112-50.144 112-112V256H0zm176.552-258.759c-63.379 0-114.759 51.379-114.759 114.759H291.31c0-63.379-51.379-114.759-114.758-114.759" style="fill:#ff4b55"/><path d="M176.552 370.759c63.379 0 114.759-51.379 114.759-114.759H61.793c0 63.379 51.379 114.759 114.759 114.759" style="fill:#f5f5f5"/></svg>
