<svg xmlns="http://www.w3.org/2000/svg" xml:space="preserve" viewBox="0 0 512 512" width="48" height="48"><path d="M512 400V112C512 50.144 461.856 0 400 0H112C50.151 0 .011 50.134 0 111.981V400.02C.011 461.866 50.151 512 112 512h288c61.856 0 112-50.144 112-112" style="fill:#ff4b55"/><path d="M446 66v380H66V66z" style="fill:#ffe15a"/><path d="m66 66 190 190L66 446zm380 0L256 256l190 190z" style="fill:#73af00"/><path d="M292.417 231.331c23.993 42.01-19.076 85.078-61.086 61.085a31.6 31.6 0 0 1-11.748-11.748c-23.993-42.01 19.076-85.078 61.085-61.086a31.6 31.6 0 0 1 11.749 11.749" style="fill:#ff4b55"/><path d="m258.737 224.266 6.774 20.31 21.409.166c2.772.021 3.921 3.559 1.691 5.205l-17.223 12.718 6.458 20.413c.836 2.643-2.173 4.829-4.428 3.217L256 273.846l-17.418 12.45c-2.255 1.612-5.264-.574-4.428-3.217l6.458-20.413-17.223-12.718c-2.23-1.647-1.081-5.184 1.691-5.205l21.409-.166 6.774-20.31c.878-2.63 4.597-2.63 5.474-.001m-1.418-207.412 3.263 9.784 10.313.08c1.335.01 1.889 1.714.815 2.508l-8.297 6.127 3.111 9.833c.403 1.273-1.047 2.326-2.133 1.55L256 40.738l-8.391 5.997c-1.086.777-2.536-.277-2.133-1.55l3.111-9.833-8.296-6.127c-1.074-.793-.52-2.497.815-2.508l10.313-.08 3.263-9.784c.422-1.265 2.214-1.265 2.637.001m116.138 0 3.263 9.784 10.313.08c1.335.01 1.889 1.714.815 2.508l-8.296 6.127 3.111 9.833c.403 1.273-1.047 2.326-2.133 1.55l-8.39-5.997-8.391 5.997c-1.086.777-2.536-.277-2.133-1.55l3.111-9.833-8.296-6.127c-1.074-.793-.521-2.497.815-2.508l10.313-.08 3.263-9.784c.42-1.266 2.212-1.266 2.635 0m-232.276 0 3.263 9.784 10.313.08c1.335.01 1.889 1.714.815 2.508l-8.297 6.127 3.111 9.833c.403 1.273-1.047 2.326-2.133 1.55l-8.391-5.997-8.391 5.997c-1.086.777-2.536-.277-2.133-1.55l3.111-9.833-8.297-6.127c-1.074-.793-.521-2.497.815-2.508l10.313-.08 3.263-9.784c.424-1.266 2.215-1.266 2.638 0m116.138 445 3.263 9.784 10.313.08c1.335.01 1.889 1.714.815 2.508l-8.297 6.127 3.111 9.833c.403 1.273-1.047 2.326-2.133 1.55l-8.39-5.997-8.391 5.997c-1.086.776-2.536-.277-2.133-1.55l3.111-9.833-8.296-6.127c-1.074-.793-.52-2.497.815-2.508l10.313-.08 3.263-9.784c.421-1.266 2.213-1.266 2.636 0m116.138 0 3.263 9.784 10.313.08c1.335.01 1.889 1.714.815 2.508l-8.296 6.127 3.111 9.833c.403 1.273-1.047 2.326-2.133 1.55l-8.39-5.997-8.391 5.997c-1.086.776-2.536-.277-2.133-1.55l3.111-9.833-8.296-6.127c-1.074-.793-.521-2.497.815-2.508l10.313-.08 3.263-9.784c.42-1.266 2.212-1.266 2.635 0m-232.276 0 3.263 9.784 10.313.08c1.335.01 1.889 1.714.815 2.508l-8.297 6.127 3.111 9.833c.403 1.273-1.047 2.326-2.133 1.55l-8.391-5.997-8.391 5.997c-1.086.776-2.536-.277-2.133-1.55l3.111-9.833-8.297-6.127c-1.074-.793-.521-2.497.815-2.508l10.313-.08 3.263-9.784c.424-1.266 2.215-1.266 2.638 0m-9.216-227.923h-28.034v28.034c0 15.483 12.552 28.034 28.034 28.034C147.448 290 160 277.448 160 261.966c0-15.484-12.552-28.035-28.035-28.035" style="fill:#ffe15a"/><path d="m160 290-15.41-2.988-12.625-25.046 25.047 12.624z" style="fill:#ff4b55"/></svg>
