<svg xmlns="http://www.w3.org/2000/svg" xml:space="preserve" viewBox="0 0 512 512" width="48" height="48"><path d="M511.974 403.5v-295c0-59.923-48.577-108.5-108.5-108.5h-291.5C51.224 0 1.775 48.368.026 108.695v294.61C1.775 463.632 51.224 512 111.974 512h291.5c59.923 0 108.5-48.577 108.5-108.5" style="fill:#41479b"/><path d="M256.026 121.263c-51.207 26.94-85.742 91.105-85.742 134.737s34.535 107.797 85.742 134.737c51.206-26.94 85.742-91.105 85.742-134.737s-34.535-107.797-85.742-134.737" style="fill:#3cc8ff"/><path d="M267.082 209.864c8.272-4.361 22.397-9.16 38.447-3.27 0 0-15.458-17.218-36.908-3.189 5.771-6.998 14.438-15.662 23.822-18.075 0 0-18.678-6.975-29.979 17.934 2.189-12.563 1.789-32.343-18.459-43.826 0 0 11.323 24.298 12.434 44.46-.658-3.577-1.976-7.318-5.451-10.943-10.706-11.172-20.017-12.103-20.017-12.103s14.845 16.451 22.139 32.016c-4.202-5.027-11.607-11.466-23.535-11.068-27.931.931-33.982 17.689-33.982 17.689 11.579-4.875 29.954-7.303 44.199-6.099-18.391 3.24-24.924 26.152-24.924 26.152 14.766-18.414 30.885-21.404 37.321-21.842-11.755 9.725-11.039 27.633-11.039 27.633 2.731-10.082 13.315-21.572 18.473-26.721 13.887 15.024 15.53 31.911 15.53 31.911s3.039-5.081 1.637-15.422c-1.326-9.762-7.451-16.171-12.127-19.937 24.519 3.378 40.517 21.164 40.517 21.164-8.02-23.409-28.094-26.457-38.098-26.464" style="fill:#73af00"/><path d="M403.474 0h-291.5C51.224 0 1.775 48.368.026 108.695v294.61C1.775 463.632 51.224 512 111.974 512h291.5c59.923 0 108.5-48.577 108.5-108.5v-295c0-59.923-48.577-108.5-108.5-108.5m81.605 392.693c0 51.009-41.351 92.36-92.36 92.36H119.334c-51.009 0-92.36-41.351-92.36-92.36V119.307c0-51.009 41.351-92.36 92.36-92.36h273.385c51.009 0 92.36 41.351 92.36 92.36z" style="fill:#ff4b55"/><path d="m228.658 288.561 12.351-21.333 101.473-2.245-6.736 28.07z" style="fill:#ff965a"/><path d="M173.987 282.947c10.17 39.917 40.646 86.012 82.04 107.79 41.393-21.777 71.869-67.873 82.039-107.79z" style="fill:#4173cd"/><path d="M188.658 323.368s29.389-1.455 47.044 5.795c4.41 1.811 4.982 7.769.999 10.39-8.601 5.659-21.096 15.401-21.096 24.237zm51.649 53.895c-1.123-11.228 8.812-19.396 22.456-24.702 17.684-6.877 8-17.824-.842-24.982-10.545-8.536 3.088-10.947 60.351-12.07l-28.07 43.79-38.175 31.439z" style="fill:#ffe15a"/><path d="m256.026 398.355-3.138-1.658C199.447 368.592 163.546 301.25 163.546 256s35.901-112.592 89.342-140.697l3.138-1.658 3.138 1.658c53.441 28.105 89.342 95.447 89.342 140.697s-35.901 112.592-89.342 140.697zm0-269.421c-47.401 26.763-79.007 86.632-79.007 127.066s31.605 100.303 79.007 127.066c47.401-26.763 79.007-86.632 79.007-127.066s-31.605-100.303-79.007-127.066" style="fill:#ff4b55"/><path d="M284.658 332.91a3.34 3.34 0 0 1-1.789-.513c-18.309-11.507-28.809-30.553-28.809-52.257v-62.033a3.366 3.366 0 0 1 3.368-3.368 3.366 3.366 0 0 1 3.368 3.368v62.033c0 19.336 9.349 36.303 25.651 46.546a3.37 3.37 0 0 1 1.066 4.645 3.38 3.38 0 0 1-2.855 1.579" style="fill:#a54b37"/><path d="M263.291 213.573c4.908 7.494-3.11 15.512-10.604 10.604a3.9 3.9 0 0 1-1.119-1.119c-4.908-7.494 3.11-15.512 10.604-10.604.445.291.828.675 1.119 1.119" style="fill:#a54b37"/></svg>
