<svg xmlns="http://www.w3.org/2000/svg" xml:space="preserve" viewBox="0 0 512 512" width="48" height="48"><path d="M112 0C50.144 0 0 50.144 0 112v288c0 61.856 50.144 112 112 112h58.667V0z" style="fill:#82afff"/><path d="M170.67 0h170.67v512H170.67z" style="fill:#f5f5f5"/><path d="M400 0h-58.667v512H400c61.856 0 112-50.144 112-112V112C512 50.144 461.856 0 400 0" style="fill:#82afff"/><path d="m253.455 205.688-5.785 2.892 5.322 2.198z" style="fill:#ffc855"/><path d="M256 312.589c-32.153 0-58.31-26.159-58.31-58.31 0-19.974 10.053-38.339 26.892-49.128l1.497 2.337c-16.038 10.277-25.612 27.769-25.612 46.791 0 30.622 24.913 55.533 55.533 55.533z" style="fill:#73af00"/><path d="M222.628 316.228c2.222.452 5.649-.133 9.17-1.773s6.174-3.888 7.256-5.88c-2.221-.452-5.649.133-9.169 1.773-3.521 1.641-6.174 3.888-7.257 5.88m16.426-7.653c.453-2.222-.133-5.649-1.773-9.169s-3.888-6.174-5.88-7.256c-.452 2.221.133 5.649 1.773 9.169 1.641 3.52 3.888 6.173 5.88 7.256m-28.043.522c2.131.774 5.607.698 9.331-.408s6.678-2.939 8.041-4.751c-2.131-.774-5.607-.698-9.331.408s-6.677 2.939-8.041 4.751" style="fill:#73af00"/><path d="M228.383 303.939c.774-2.131.698-5.607-.408-9.331s-2.939-6.678-4.751-8.041c-.774 2.131-.698 5.607.408 9.331s2.94 6.677 4.751 8.041m-28.117-4.565c1.957 1.144 5.391 1.694 9.252 1.275s7.097-1.692 8.763-3.229c-1.957-1.144-5.391-1.693-9.252-1.275s-7.097 1.692-8.763 3.229m18.015-1.955c1.144-1.957 1.693-5.391 1.275-9.252s-1.692-7.097-3.229-8.763c-1.144 1.957-1.693 5.391-1.275 9.252s1.692 7.097 3.229 8.763m-26.898-11.472c1.724 1.473 5.006 2.621 8.88 2.893s7.284-.409 9.197-1.626c-1.724-1.473-5.006-2.621-8.88-2.893s-7.285.408-9.197 1.626m18.077 1.266c1.473-1.724 2.621-5.006 2.893-8.88s-.409-7.284-1.626-9.197c-1.473 1.724-2.622 5.006-2.893 8.88-.272 3.875.408 7.285 1.626 9.197m-23.278-16.057c1.376 1.802 4.342 3.616 8.073 4.696s7.207 1.133 9.333.345c-1.376-1.802-4.342-3.616-8.073-4.696-3.73-1.081-7.207-1.133-9.333-.345m17.407 5.041c1.802-1.376 3.616-4.342 4.696-8.073s1.133-7.207.345-9.333c-1.802 1.376-3.616 4.342-4.696 8.073-1.081 3.73-1.134 7.207-.345 9.333m-19.607-22.31c.866 2.095 3.266 4.611 6.594 6.614 3.327 2.004 6.674 2.948 8.931 2.733-.866-2.095-3.266-4.611-6.594-6.614s-6.674-2.948-8.931-2.733m15.525 9.347c2.095-.866 4.611-3.266 6.614-6.594 2.003-3.327 2.948-6.674 2.733-8.931-2.095.866-4.611 3.266-6.614 6.594s-2.948 6.674-2.733 8.931m-13.439-25.651c.407 2.23 2.227 5.193 5.061 7.849s5.907 4.282 8.159 4.544c-.407-2.23-2.227-5.193-5.061-7.849s-5.907-4.281-8.159-4.544m13.22 12.394c2.23-.407 5.193-2.227 7.849-5.061s4.282-5.907 4.544-8.159c-2.23.407-5.193 2.227-7.849 5.061s-4.281 5.907-4.544 8.159m-5.029-30.037c-.467 2.219.097 5.65 1.715 9.181s3.848 6.198 5.834 7.293c.467-2.219-.097-5.65-1.715-9.181s-3.849-6.198-5.834-7.293" style="fill:#73af00"/><path d="M201.808 236.414c2.219.467 5.65-.097 9.181-1.715s6.198-3.848 7.293-5.834c-2.219-.467-5.65.097-9.181 1.715s-6.198 3.849-7.293 5.834m2.246-29.539c-1.046 2.012-1.425 5.468-.816 9.304s2.041 7.005 3.659 8.593c1.046-2.012 1.425-5.468.816-9.304s-2.041-7.005-3.659-8.593m2.843 17.897c2.012 1.046 5.468 1.425 9.304.815 3.836-.609 7.005-2.041 8.593-3.659-2.012-1.046-5.468-1.425-9.304-.816s-7.004 2.042-8.593 3.66m6.763-26.991c-1.331 1.836-2.215 5.198-2.177 9.082s.987 7.229 2.353 9.038c1.331-1.836 2.215-5.198 2.177-9.082s-.987-7.229-2.353-9.038" style="fill:#73af00"/><path d="M213.835 215.901c1.836 1.331 5.198 2.215 9.082 2.177s7.229-.987 9.038-2.353c-1.836-1.331-5.198-2.215-9.082-2.177-3.883.038-7.228.987-9.038 2.353m4.662-4.763c2.26.183 5.592-.808 8.891-2.858s5.664-4.599 6.5-6.706c-2.26-.183-5.592.808-8.891 2.858-3.298 2.05-5.664 4.598-6.5 6.706M256 312.589v-2.777c30.621 0 55.533-24.911 55.533-55.533 0-19.022-9.575-36.514-25.612-46.791l1.497-2.337c16.839 10.789 26.892 29.155 26.892 49.128 0 32.152-26.157 58.31-58.31 58.31" style="fill:#73af00"/><path d="M289.372 316.228c-2.222.452-5.649-.133-9.17-1.773s-6.174-3.888-7.256-5.88c2.221-.452 5.649.133 9.169 1.773 3.521 1.641 6.174 3.888 7.257 5.88m-16.426-7.653c-.453-2.222.133-5.649 1.773-9.169s3.888-6.174 5.88-7.256c.452 2.221-.133 5.649-1.773 9.169-1.641 3.52-3.888 6.173-5.88 7.256m28.043.522c-2.131.774-5.607.698-9.331-.408s-6.678-2.939-8.041-4.751c2.131-.774 5.607-.698 9.331.408s6.677 2.939 8.041 4.751" style="fill:#73af00"/><path d="M283.617 303.939c-.774-2.131-.698-5.607.408-9.331s2.939-6.678 4.75-8.041c.774 2.131.698 5.607-.408 9.331s-2.939 6.677-4.75 8.041m28.117-4.565c-1.957 1.144-5.391 1.694-9.252 1.275s-7.097-1.692-8.763-3.229c1.957-1.144 5.391-1.693 9.252-1.275s7.097 1.692 8.763 3.229m-18.015-1.955c-1.144-1.957-1.694-5.391-1.275-9.252s1.692-7.097 3.229-8.763c1.144 1.957 1.693 5.391 1.275 9.252s-1.692 7.097-3.229 8.763m26.898-11.472c-1.724 1.473-5.006 2.621-8.88 2.893s-7.284-.409-9.197-1.626c1.724-1.473 5.006-2.621 8.88-2.893s7.285.408 9.197 1.626m-18.077 1.266c-1.473-1.724-2.621-5.006-2.893-8.88s.409-7.284 1.626-9.197c1.473 1.724 2.621 5.006 2.893 8.88s-.408 7.285-1.626 9.197m23.278-16.057c-1.376 1.802-4.342 3.616-8.073 4.696s-7.207 1.133-9.333.345c1.376-1.802 4.342-3.616 8.073-4.696 3.73-1.081 7.207-1.133 9.333-.345m-17.407 5.041c-1.802-1.376-3.616-4.342-4.696-8.073s-1.133-7.207-.345-9.333c1.802 1.376 3.616 4.342 4.696 8.073 1.081 3.73 1.134 7.207.345 9.333m19.607-22.31c-.866 2.095-3.266 4.611-6.594 6.614-3.327 2.004-6.674 2.948-8.931 2.733.866-2.095 3.266-4.611 6.594-6.614 3.327-2.003 6.674-2.948 8.931-2.733m-15.525 9.347c-2.095-.866-4.611-3.266-6.614-6.594-2.003-3.327-2.948-6.674-2.733-8.931 2.095.866 4.611 3.266 6.614 6.594s2.948 6.674 2.733 8.931m13.439-25.651c-.407 2.23-2.227 5.193-5.061 7.849s-5.907 4.282-8.159 4.544c.407-2.23 2.227-5.193 5.061-7.849s5.907-4.281 8.159-4.544m-13.22 12.394c-2.23-.407-5.193-2.227-7.849-5.061s-4.282-5.907-4.544-8.159c2.23.407 5.193 2.227 7.849 5.061s4.281 5.907 4.544 8.159m5.029-30.037c.467 2.219-.097 5.65-1.715 9.181s-3.849 6.198-5.834 7.293c-.467-2.219.097-5.65 1.715-9.181s3.849-6.198 5.834-7.293m-7.549 16.474c-2.219.467-5.65-.097-9.181-1.715s-6.198-3.848-7.294-5.834c2.219-.467 5.65.097 9.181 1.715 3.532 1.619 6.199 3.849 7.294 5.834m-2.246-29.539c1.046 2.012 1.425 5.468.816 9.304s-2.041 7.005-3.659 8.593c-1.046-2.012-1.425-5.468-.815-9.304.608-3.836 2.04-7.005 3.658-8.593m-2.843 17.897c-2.012 1.046-5.468 1.425-9.304.815-3.836-.609-7.005-2.041-8.593-3.659 2.012-1.046 5.468-1.425 9.304-.816 3.835.61 7.004 2.042 8.593 3.66m-6.763-26.991c1.331 1.836 2.215 5.198 2.177 9.082s-.987 7.229-2.353 9.038c-1.331-1.836-2.215-5.198-2.177-9.082s.987-7.229 2.353-9.038m-.176 18.12c-1.835 1.331-5.198 2.215-9.082 2.177s-7.229-.987-9.038-2.353c1.836-1.331 5.198-2.215 9.082-2.177s7.229.987 9.038 2.353m-4.661-4.763c-2.26.183-5.592-.808-8.891-2.858s-5.664-4.599-6.5-6.706c2.26-.183 5.592.808 8.891 2.858s5.664 4.598 6.5 6.706" style="fill:#73af00"/><path d="m224.168 299.675-10.107 10.107-4.984-9.968 14.952-14.952 4.984 4.984-1.44 4.319a14.1 14.1 0 0 1-3.405 5.51" style="fill:#966446"/><path d="m278.853 225.054-54.824 54.824a3.525 3.525 0 0 0 0 4.984l2.492 2.492 9.968-9.968 39.872-44.856 4.984-4.984z" style="fill:#b9b9b9"/><path d="M237.521 271.37a3.52 3.52 0 0 0-1.032 2.492v3.524l39.872-44.856z" style="fill:#966446"/><path d="m281.345 227.546-2.492-2.492-2.492 2.492 2.492 2.492 2.492 2.492 27.412-32.396z" style="fill:#a0a0a0"/><path d="m290.609 299.675 10.107 10.107 4.984-9.968-14.952-14.952-4.984 4.984 1.44 4.319a14.1 14.1 0 0 0 3.405 5.51" style="fill:#966446"/><path d="m235.924 225.054 54.824 54.824a3.525 3.525 0 0 1 0 4.984l-2.492 2.492-9.968-9.968-39.872-44.856-4.984-4.984z" style="fill:#b9b9b9"/><path d="M277.256 271.37a3.52 3.52 0 0 1 1.032 2.492v3.524l-39.872-44.856z" style="fill:#966446"/><path d="m233.432 227.546 2.492-2.492 2.492 2.492-2.492 2.492-2.492 2.492-27.412-32.396z" style="fill:#a0a0a0"/><path d="m236.932 297.601 2.476 2.259c9.035-9.906 24.847-27.241 49.911-49.746.001 0-20.763 12.818-52.387 47.487" style="fill:#b9b9b9"/><path d="M229.926 307.77a2.18 2.18 0 0 1-.142-3.078l5.308-5.82a2.179 2.179 0 1 1 3.219 2.936l-5.308 5.82a2.177 2.177 0 0 1-3.077.142" style="fill:#ffe15a"/><path d="m234.922 295.768-1.438.64c-1.279.636-4.643 2.54-5.223 5.251-.276 1.285.113 2.536 1.111 3.721.094-.245.225-.481.412-.687l.668-.732c-.452-.656-.691-1.3-.554-1.947.363-1.697 2.627-3.21 4.048-3.96l6.358 5.8 1.581-1.733z" style="fill:#ffc855"/><path d="m277.82 300.344-2.476 2.259c-9.035-9.906-24.847-27.241-49.911-49.746-.001-.001 20.764 12.817 52.387 47.487" style="fill:#b9b9b9"/><path d="M284.826 310.512a2.18 2.18 0 0 0 .142-3.078l-5.308-5.82a2.18 2.18 0 0 0-3.22 2.936l5.308 5.82a2.18 2.18 0 0 0 3.078.142" style="fill:#ffe15a"/><path d="m279.83 298.51 1.438.64c1.279.636 4.643 2.54 5.223 5.251.276 1.285-.113 2.536-1.111 3.721a2.2 2.2 0 0 0-.412-.687l-.668-.732c.452-.656.691-1.3.554-1.947-.363-1.697-2.627-3.21-4.048-3.961l-6.358 5.8-1.581-1.733z" style="fill:#ffc855"/><path d="M258.47 208.632a4.2 4.2 0 0 0 .307-1.556 4.165 4.165 0 0 0-8.33 0c0 1.371.671 2.577 1.693 3.336-1.505 12.098 10.421 13.021 14.966 14.712 6.896 2.566 15.546 7.757 15.002 22.266-.529 14.104-9.448 27.713-9.448 27.713l7.405-10.065c-2.708 11.451-9.029 26.037-24.065 43.385 0 0 10.28-10.056 18.858-23.023-6.311 14.849-13.305 28.577-13.305 28.577s12.379-16.082 22.387-43.906c12.133-33.734-13.389-54-25.47-61.439" style="fill:#69b469"/><path d="M236.56 258.44h11.11v5.553h-11.11z" style="fill:#f4e08f"/><circle cx="236.56" cy="264" r="5.553" style="fill:#ecd077"/><circle cx="236.56" cy="227.9" r="5.553" style="fill:#ecd077"/><path d="M269.883 233.454a5.553 5.553 0 1 0 0-11.106h-33.32a5.553 5.553 0 1 1-5.553 5.553c0 9.321 7.801 20.593 10.316 30.543 0 0 .79 2.486.79 5.553a5.553 5.553 0 0 1-5.553 5.553h33.32a5.553 5.553 0 0 0 5.553-5.553c0-9.321-7.801-20.593-10.316-30.543z" style="fill:#fcf0a8"/><path d="M242.117 227.901a5.553 5.553 0 0 1-5.553 5.553h33.32a5.553 5.553 0 0 0 5.553-5.553zm0 36.097a5.553 5.553 0 0 1-5.553 5.553h33.32a5.553 5.553 0 0 0 5.553-5.553z" style="fill:#f4e08f"/></svg>
