<svg xmlns="http://www.w3.org/2000/svg" xml:space="preserve" viewBox="0 0 512 512" width="48" height="48"><path d="M400 0H112C50.144 0 0 50.144 0 112v288c0 61.856 50.144 112 112 112h288c61.856 0 112-50.144 112-112V112C512 50.144 461.856 0 400 0" style="fill:#f5f5f5"/><path d="M512 202.105H309.895V0h-107.79v202.105H0v107.79h202.105V512h107.79V309.895H512z" style="fill:#ff4b55"/><path d="M417.684 296.421v-80.842l-20.21 20.211H114.527l-20.211-20.211v80.842l20.211-20.21h282.947z" style="fill:#ffe15a"/><path d="M215.579 417.684h80.842l-20.21-20.21V114.526l20.21-20.21h-80.842l20.211 20.21v282.948z" style="fill:#ffe15a"/></svg>
