<svg xmlns="http://www.w3.org/2000/svg" xml:space="preserve" viewBox="0 0 512 512" width="48" height="48"><path d="M400 0H112C50.144 0 0 50.144 0 112v144h512V112C512 50.144 461.856 0 400 0" style="fill:#ffe15a"/><path d="M0 400c0 61.856 50.144 112 112 112h288c61.856 0 112-50.144 112-112V256H0z" style="fill:#73af00"/><path d="M112 0C50.144 0 0 50.144 0 112v288c0 61.856 50.144 112 112 112h55.724V0z" style="fill:#ff4b55"/><path d="m82.197 211.96-9.732 29.179-30.758.239c-1.686.013-2.385 2.165-1.029 3.167l24.744 18.272-9.278 29.327c-.509 1.608 1.322 2.938 2.694 1.957l25.024-17.886 25.024 17.886c1.372.981 3.202-.349 2.694-1.957l-9.278-29.327 24.744-18.272c1.356-1.002.657-3.154-1.029-3.167l-30.758-.238-9.732-29.179c-.534-1.601-2.796-1.601-3.33-.001" style="fill:#464655"/></svg>
