<svg xmlns="http://www.w3.org/2000/svg" xml:space="preserve" viewBox="0 0 512 512" width="48" height="48"><path d="M0 192h512v64H0z" style="fill:#f5f5f5"/><path d="M512 320H0v-77.474h11.035V256H512z" style="fill:#ff4b55"/><path d="M0 400c0 17.179 3.873 33.451 10.785 48h490.431C508.127 433.451 512 417.179 512 400v-16H0z" style="fill:#f5f5f5"/><path d="M112 512h288c44.677 0 83.239-26.163 101.216-64H10.785C28.761 485.837 67.323 512 112 512" style="fill:#ff4b55"/><path d="M0 320h512v64H0z" style="fill:#41479b"/><path d="M400 0H112C67.323 0 28.761 26.163 10.785 64h490.431C483.239 26.163 444.677 0 400 0" style="fill:#f5f5f5"/><path d="M10.785 64C3.873 78.549 0 94.821 0 112v16h512v-16c0-17.179-3.873-33.451-10.784-48z" style="fill:#ff4b55"/><path d="M0 128h512v64H0zM94.316 1.395C67.937 5.579 44.627 18.971 27.779 38.177L94.316 81.77zM7.021 72.899a111 111 0 0 0-5.626 21.417H39.71z" style="fill:#41479b"/><path d="M0 161.685v26.016l39.71-26.016zM256 19.977V0h-94.316v81.77zm0 167.724v-26.016h-39.71zM161.684 256H256v-19.977l-94.316-61.793zM256 94.316V68.299l-39.71 26.017zM94.316 174.23 0 236.023V256h94.316z" style="fill:#41479b"/><path d="M148.211 256h13.473v-81.77L256 236.023v-19.964l-83.768-54.374h24.748l59.02 38.31v-12.294l-39.71-26.016H256V148.21H148.211zm-53.895 0h13.473V148.21H0v13.475h39.71L0 187.701v18.901l69.197-44.917h24.748L0 222.666v13.357l94.316-61.793zM107.789.087c-4.566.169-9.063.608-13.474 1.308V81.77L27.779 38.177a112.4 112.4 0 0 0-10.872 14.638l63.935 41.501H56.094L10.461 64.694q-1.878 4.02-3.44 8.205L39.71 94.316H1.395c-.7 4.411-1.139 8.907-1.308 13.474H107.79zM256 107.79V94.316h-39.71L256 68.299V49.157l-69.568 45.159h-24.748L256 33.093V19.977L161.684 81.77V0h-13.473v107.79z" style="fill:#f5f5f5"/><path d="M107.789 256h40.421V148.21H256v-40.42H148.211V0H112c-1.41 0-2.813.035-4.211.087V107.79H.087A113 113 0 0 0 0 112v36.21h107.789z" style="fill:#ff4b55"/><path d="M69.197 161.685 0 206.602v16.064l93.945-60.981zm103.035 0L256 216.059v-16.064l-59.02-38.31zm-91.39-67.369L16.907 52.814a112 112 0 0 0-6.447 11.879l45.634 29.622zm105.59 0L256 49.157V33.093l-94.316 61.223z" style="fill:#ff4b55"/></svg>
