<svg xmlns="http://www.w3.org/2000/svg" xml:space="preserve" viewBox="0 0 512 512" width="48" height="48"><path d="M400 0H112C50.144 0 0 50.144 0 112v58.667h512V112C512 50.144 461.856 0 400 0M0 400c0 61.856 50.144 112 112 112h288c61.856 0 112-50.144 112-112v-58.667H0z" style="fill:#4173cd"/><path d="M0 170.67h512v170.67H0z" style="fill:#f5f5f5"/><path d="m257.948 233.988 4.822 14.458 15.241.118c1.973.015 2.791 2.534 1.204 3.706l-12.261 9.054 4.597 14.531c.595 1.881-1.547 3.438-3.152 2.29L256 269.283l-12.4 8.863c-1.605 1.147-3.747-.409-3.152-2.29l4.597-14.531-12.261-9.054c-1.587-1.172-.769-3.69 1.204-3.706l15.241-.118 4.822-14.458c.625-1.873 3.273-1.873 3.897-.001m-137.632 38.805 4.822 14.458 15.241.118c1.973.015 2.791 2.533 1.204 3.706l-12.261 9.054 4.597 14.531c.595 1.881-1.547 3.438-3.152 2.29l-12.4-8.863-12.399 8.863c-1.605 1.147-3.747-.409-3.152-2.29l4.597-14.531-12.261-9.054c-1.587-1.172-.769-3.69 1.204-3.706l15.241-.118 4.822-14.458c.625-1.872 3.273-1.872 3.897 0m0-77.609 4.822 14.458 15.241.118c1.973.015 2.791 2.534 1.204 3.706l-12.261 9.054 4.597 14.531c.595 1.881-1.547 3.438-3.152 2.29l-12.4-8.863-12.399 8.863c-1.605 1.148-3.747-.409-3.152-2.29l4.597-14.531-12.261-9.054c-1.587-1.172-.769-3.69 1.204-3.706l15.241-.118 4.822-14.458c.625-1.872 3.273-1.872 3.897 0m275.264 77.609 4.822 14.458 15.241.118c1.973.015 2.791 2.533 1.204 3.706l-12.261 9.054 4.597 14.531c.595 1.881-1.547 3.438-3.152 2.29l-12.4-8.863-12.4 8.863c-1.605 1.147-3.747-.409-3.152-2.29l4.597-14.531-12.261-9.054c-1.587-1.172-.769-3.69 1.204-3.706l15.241-.118 4.822-14.458c.626-1.872 3.273-1.872 3.898 0m0-77.609 4.822 14.458 15.241.118c1.973.015 2.791 2.534 1.204 3.706l-12.261 9.054 4.597 14.531c.595 1.881-1.547 3.438-3.152 2.29l-12.4-8.863-12.4 8.863c-1.605 1.148-3.747-.409-3.152-2.29l4.597-14.531-12.261-9.054c-1.587-1.172-.769-3.69 1.204-3.706l15.241-.118 4.822-14.458c.626-1.872 3.273-1.872 3.898 0" style="fill:#4173cd"/></svg>
