<svg xmlns="http://www.w3.org/2000/svg" xml:space="preserve" viewBox="0 0 512 512" width="48" height="48"><path d="M407.817.276H104.183C45.975 4.29 0 52.772 0 112v58.759h512V112C512 52.772 466.025 4.29 407.817.276" style="fill:#fab446"/><path d="M0 400c0 59.228 45.976 107.711 104.184 111.724h303.632C466.024 507.711 512 459.228 512 400v-58.759H0z" style="fill:#73af00"/><path d="M0 170.76h512v170.48H0z" style="fill:#f5f5f5"/><path d="M256 314.448c-32.229 0-58.448-26.219-58.448-58.448s26.219-58.448 58.448-58.448 58.448 26.219 58.448 58.448-26.219 58.448-58.448 58.448m0-106.022c-26.235 0-47.574 21.339-47.574 47.574s21.339 47.574 47.574 47.574 47.574-21.339 47.574-47.574-21.339-47.574-47.574-47.574" style="fill:#41479b"/><circle cx="256" cy="256" r="6.626" style="fill:#41479b"/><path d="m256 256.994-16.839 1.7-36.172-1.7v-1.988l36.172-1.7 16.839 1.7z" style="fill:#41479b"/><path d="m256 256.994 16.839 1.7 36.172-1.7v-1.988l-36.172-1.7-16.839 1.7z" style="fill:#41479b"/><path d="m255.006 256-1.7-16.839 1.7-36.172h1.988l1.7 36.172-1.7 16.839z" style="fill:#41479b"/><path d="m255.006 256-1.7 16.839 1.7 36.172h1.988l1.7-36.172-1.7-16.839z" style="fill:#41479b"/><path d="m255.297 256.703-13.109-10.705-24.375-26.78 1.405-1.405 26.78 24.375 10.705 13.109zm0 0 10.705 13.109 26.78 24.376 1.405-1.406-24.375-26.78-13.109-10.705z" style="fill:#41479b"/><path d="m255.297 255.297 10.705-13.109 26.78-24.375 1.405 1.405-24.375 26.78-13.109 10.705zm0 0-13.109 10.705-24.375 26.78 1.405 1.406 26.78-24.376 10.705-13.109z" style="fill:#41479b"/><path d="m256.38 256.918-14.906 8.015-34.07 12.272-.76-1.837 32.768-15.413 16.208-4.873z" style="fill:#41479b"/><path d="m256.38 256.918 16.208-4.873 32.768-15.413-.76-1.837-34.07 12.272-14.906 8.015z" style="fill:#41479b"/><path d="m255.082 256.38-8.015-14.906-12.272-34.07 1.837-.76 15.413 32.768 4.873 16.208z" style="fill:#41479b"/><path d="m255.082 256.38 4.873 16.208 15.413 32.768 1.837-.76-12.272-34.07-8.015-14.906z" style="fill:#41479b"/><path d="m255.62 256.918-16.208-4.873-32.768-15.413.76-1.837 34.07 12.272 14.906 8.015z" style="fill:#41479b"/><path d="m255.62 256.918 14.906 8.015 34.07 12.272.76-1.837-32.768-15.413-16.208-4.873z" style="fill:#41479b"/><path d="m255.082 255.62 4.873-16.208 15.413-32.768 1.837.76-12.272 34.07-8.015 14.906z" style="fill:#41479b"/><path d="m255.082 255.62-8.015 14.906-12.272 34.07 1.837.76 15.413-32.768 4.873-16.208z" style="fill:#41479b"/><circle cx="256" cy="256" r="7.257" style="fill:#f5f5f5"/><circle cx="256" cy="256" r="5.359" style="fill:#41479b"/></svg>
