<svg xmlns="http://www.w3.org/2000/svg" xml:space="preserve" viewBox="0 0 512 512" width="48" height="48"><path d="M0 170.61h512v170.78H0z" style="fill:#f5f5f5"/><path d="M400 0H112C50.144 0 0 50.144 0 112v58.782h512V112C512 50.144 461.856 0 400 0" style="fill:#73af00"/><path d="M0 400c0 61.856 50.144 112 112 112h288c61.856 0 112-50.144 112-112v-58.782H0z" style="fill:#ff4b55"/><path d="M9.174 141.666v-.233c0-1.171-.95-2.121-2.121-2.121H0v4.475h7.052c1.172 0 2.122-.95 2.122-2.121" style="fill:#f5f5f5"/><path d="M9.174 159.45v-.122a2.12 2.12 0 0 0-2.121-2.121H2.57a2.12 2.12 0 0 1-2.121-2.121v-.23c0-1.171.95-2.121 2.121-2.121h8.789c1.171 0 2.121.95 2.121 2.121v4.594c0 1.171.95 2.121 2.121 2.121h17.68a2.12 2.12 0 0 0 2.121-2.121v-18.018c0-1.171-.95-2.121-2.121-2.121h-.119c-1.171 0-2.121.95-2.121 2.121v13.654c0 1.171-.95 2.121-2.121 2.121h-.176a2.12 2.12 0 0 1-2.121-2.121v-13.654c0-1.171-.95-2.121-2.121-2.121h-.064a2.12 2.12 0 0 0-2.121 2.121v13.654c0 1.171-.95 2.121-2.121 2.121h-.176a2.12 2.12 0 0 1-2.121-2.121v-13.654c0-1.171-.95-2.121-2.121-2.121h-.176c-1.171 0-2.121.95-2.121 2.121v4.706c0 1.171-.95 2.121-2.121 2.121H0v13.312h7.052a2.12 2.12 0 0 0 2.122-2.121m111.462-20.139h-.119c-1.171 0-2.121.95-2.121 2.121v13.654c0 1.171-.95 2.121-2.121 2.121h-.064a2.12 2.12 0 0 1-2.121-2.121v-13.654c0-1.171-.95-2.121-2.121-2.121h-.176a2.12 2.12 0 0 0-2.121 2.121v13.654c0 1.171-.95 2.121-2.121 2.121h-.176a2.12 2.12 0 0 1-2.121-2.121v-13.654c0-1.171-.95-2.121-2.121-2.121h-.122c-1.171 0-2.121.95-2.121 2.121v4.706c0 1.171-.95 2.121-2.121 2.121H85.564c-1.171 0-2.121.95-2.121 2.121v9.07c0 1.171.95 2.121 2.121 2.121h8.901c1.171 0 2.121-.95 2.121-2.121v-.122a2.12 2.12 0 0 0-2.121-2.121h-4.54a2.12 2.12 0 0 1-2.121-2.121v-.23c0-1.171.95-2.121 2.121-2.121h8.843c1.171 0 2.121.95 2.121 2.121v4.594c0 1.171.95 2.121 2.121 2.121h17.625a2.12 2.12 0 0 0 2.121-2.121v-18.018a2.12 2.12 0 0 0-2.12-2.121m-69.906 22.26c1.171 0 2.121-.95 2.121-2.121v-.122a2.12 2.12 0 0 0-2.121-2.121h-.119a2.12 2.12 0 0 0-2.121 2.121v.122c0 1.171.95 2.121 2.121 2.121z" style="fill:#f5f5f5"/><path d="M41.887 143.787h52.579c1.171 0 2.121-.95 2.121-2.121v-.233c0-1.171-.95-2.121-2.121-2.121H41.887c-1.171 0-2.121.95-2.121 2.121v.233a2.12 2.12 0 0 0 2.121 2.121m35.072 4.472h-8.843c-1.171 0-2.121.95-2.121 2.121v.233c0 1.171.95 2.121 2.121 2.121h4.483a2.12 2.12 0 0 1 2.121 2.121v.23c0 1.171-.95 2.121-2.121 2.121h-8.901a2.12 2.12 0 0 1-2.121-2.121v-4.706a2.12 2.12 0 0 0-2.121-2.121H41.887c-1.171 0-2.121.95-2.121 2.121v9.07c0 1.171.95 2.121 2.121 2.121h.119c1.171 0 2.121-.95 2.121-2.121v-4.594c0-1.171.95-2.121 2.121-2.121h8.846a2.12 2.12 0 0 1 2.121 2.121v4.594c0 1.171.95 2.121 2.121 2.121h17.623c1.171 0 2.121-.95 2.121-2.121v-9.07c0-1.17-.95-2.12-2.121-2.12m61.127 13.312c1.171 0 2.121-.95 2.121-2.121v-.122a2.12 2.12 0 0 0-2.121-2.121h-.119a2.12 2.12 0 0 0-2.121 2.121v.122c0 1.171.95 2.121 2.121 2.121zm-8.844-17.784h52.521c1.171 0 2.121-.95 2.121-2.121v-.233c0-1.171-.95-2.121-2.121-2.121h-52.521c-1.171 0-2.121.95-2.121 2.121v.233c0 1.171.95 2.121 2.121 2.121" style="fill:#f5f5f5"/><path d="M207.992 139.311h-.119c-1.171 0-2.121.95-2.121 2.121v13.654c0 1.171-.95 2.121-2.121 2.121h-.122a2.12 2.12 0 0 1-2.121-2.121v-13.654c0-1.171-.95-2.121-2.121-2.121h-.176c-1.171 0-2.121.95-2.121 2.121v13.654c0 1.171-.95 2.121-2.121 2.121h-.064a2.12 2.12 0 0 1-2.121-2.121v-13.654c0-1.171-.95-2.121-2.121-2.121h-.119a2.12 2.12 0 0 0-2.121 2.121v4.706c0 1.171-.95 2.121-2.121 2.121h-13.319c-1.171 0-2.121.95-2.121 2.121v9.07c0 1.171.95 2.121 2.121 2.121h8.901c1.171 0 2.121-.95 2.121-2.121v-.122a2.12 2.12 0 0 0-2.121-2.121h-4.482a2.12 2.12 0 0 1-2.121-2.121v-.23c0-1.171.95-2.121 2.121-2.121h8.901c1.171 0 2.121.95 2.121 2.121v4.594a2.12 2.12 0 0 0 2.121 2.121h17.568c1.171 0 2.121-.95 2.121-2.121v-18.018a2.123 2.123 0 0 0-2.122-2.121m-43.678 8.948h-8.901c-1.171 0-2.121.95-2.121 2.121v.233c0 1.171.95 2.121 2.121 2.121h4.483c1.171 0 2.121.95 2.121 2.121v.23c0 1.171-.95 2.121-2.121 2.121h-8.843a2.12 2.12 0 0 1-2.121-2.121v-4.706a2.12 2.12 0 0 0-2.121-2.121h-17.568c-1.171 0-2.121.95-2.121 2.121v9.07c0 1.171.95 2.121 2.121 2.121h.119c1.171 0 2.121-.95 2.121-2.121v-4.594c0-1.171.95-2.121 2.121-2.121h8.843c1.171 0 2.121.95 2.121 2.121v4.594c0 1.171.95 2.121 2.121 2.121h17.625a2.12 2.12 0 0 0 2.121-2.121v-9.07a2.12 2.12 0 0 0-2.121-2.12m131.034-8.948h-.122c-1.171 0-2.121.95-2.121 2.121v13.654c0 1.171-.95 2.121-2.121 2.121h-.119a2.12 2.12 0 0 1-2.121-2.121v-13.654c0-1.171-.95-2.121-2.121-2.121h-.119c-1.171 0-2.121.95-2.121 2.121v13.654c0 1.171-.95 2.121-2.121 2.121h-.122a2.12 2.12 0 0 1-2.121-2.121v-13.654c0-1.171-.95-2.121-2.121-2.121h-.119c-1.171 0-2.121.95-2.121 2.121v4.706c0 1.171-.95 2.121-2.121 2.121h-13.264c-1.171 0-2.121.95-2.121 2.121v9.07c0 1.171.95 2.121 2.121 2.121h8.901c1.171 0 2.121-.95 2.121-2.121v-.122a2.12 2.12 0 0 0-2.121-2.121h-4.537a2.12 2.12 0 0 1-2.121-2.121v-.23c0-1.171.95-2.121 2.121-2.121h8.901c1.171 0 2.121.95 2.121 2.121v4.594c0 1.171.95 2.121 2.121 2.121h17.568c1.171 0 2.121-.95 2.121-2.121v-18.018c0-1.171-.95-2.121-2.121-2.121m-43.678 8.948h-8.901c-1.171 0-2.121.95-2.121 2.121v.233c0 1.171.95 2.121 2.121 2.121h4.537c1.171 0 2.121.95 2.121 2.121v.23c0 1.171-.95 2.121-2.121 2.121h-8.844a2.12 2.12 0 0 1-2.121-2.121v-4.706a2.12 2.12 0 0 0-2.121-2.121h-17.625c-1.171 0-2.121.95-2.121 2.121v9.07c0 1.171.95 2.121 2.121 2.121h.122c1.171 0 2.121-.95 2.121-2.121v-4.594c0-1.171.95-2.121 2.121-2.121h8.843c1.171 0 2.121.95 2.121 2.121v4.594c0 1.171.95 2.121 2.121 2.121h17.626c1.171 0 2.121-.95 2.121-2.121v-9.07c0-1.17-.95-2.12-2.121-2.12" style="fill:#f5f5f5"/><path d="M216.595 143.787h52.578c1.171 0 2.121-.95 2.121-2.121v-.233c0-1.171-.95-2.121-2.121-2.121h-52.578c-1.171 0-2.121.95-2.121 2.121v.233c0 1.171.95 2.121 2.121 2.121m8.846 17.784c1.171 0 2.121-.95 2.121-2.121v-.122a2.12 2.12 0 0 0-2.121-2.121h-.064a2.12 2.12 0 0 0-2.121 2.121v.122c0 1.171.95 2.121 2.121 2.121zm113.584-13.312h-8.846c-1.171 0-2.121.95-2.121 2.121v.233c0 1.171.95 2.121 2.121 2.121h4.428c1.171 0 2.121.95 2.121 2.121v.23c0 1.171-.95 2.121-2.121 2.121h-8.789a2.12 2.12 0 0 1-2.121-2.121v-4.706a2.12 2.12 0 0 0-2.121-2.121h-17.625c-1.171 0-2.121.95-2.121 2.121v9.07c0 1.171.95 2.121 2.121 2.121h.122a2.12 2.12 0 0 0 2.121-2.121v-4.594c0-1.171.95-2.121 2.121-2.121h8.844c1.171 0 2.121.95 2.121 2.121v4.594c0 1.171.95 2.121 2.121 2.121h17.625c1.171 0 2.121-.95 2.121-2.121v-9.07a2.12 2.12 0 0 0-2.122-2.12m43.678-8.948h-.122c-1.171 0-2.121.95-2.121 2.121v13.654c0 1.171-.95 2.121-2.121 2.121h-.119a2.12 2.12 0 0 1-2.121-2.121v-13.654c0-1.171-.95-2.121-2.121-2.121h-.122c-1.171 0-2.121.95-2.121 2.121v13.654c0 1.171-.95 2.121-2.121 2.121h-.119a2.12 2.12 0 0 1-2.121-2.121v-13.654c0-1.171-.95-2.121-2.121-2.121h-.122a2.12 2.12 0 0 0-2.121 2.121v4.706c0 1.171-.95 2.121-2.121 2.121h-13.204a2.12 2.12 0 0 0-2.121 2.121v9.07c0 1.171.95 2.121 2.121 2.121h8.843c1.171 0 2.121-.95 2.121-2.121v-.122a2.12 2.12 0 0 0-2.121-2.121h-4.537a2.12 2.12 0 0 1-2.121-2.121v-.23c0-1.171.95-2.121 2.121-2.121h8.898c1.171 0 2.121.95 2.121 2.121v4.594c0 1.171.95 2.121 2.121 2.121h17.571a2.12 2.12 0 0 0 2.121-2.121v-18.018a2.12 2.12 0 0 0-2.12-2.121" style="fill:#f5f5f5"/><path d="M312.797 161.571c1.171 0 2.121-.95 2.121-2.121v-.122a2.12 2.12 0 0 0-2.121-2.121h-.064a2.12 2.12 0 0 0-2.121 2.121v.122c0 1.171.95 2.121 2.121 2.121zm-8.846-17.784h52.579c1.171 0 2.121-.95 2.121-2.121v-.233c0-1.171-.95-2.121-2.121-2.121h-52.579c-1.171 0-2.121.95-2.121 2.121v.233a2.12 2.12 0 0 0 2.121 2.121m96.256 17.784c1.171 0 2.121-.95 2.121-2.121v-.122a2.12 2.12 0 0 0-2.121-2.121h-.176a2.12 2.12 0 0 0-2.121 2.121v.122c0 1.171.95 2.121 2.121 2.121zm-8.901-17.784h52.578a2.12 2.12 0 0 0 2.121-2.121v-.233c0-1.171-.95-2.121-2.121-2.121h-52.578c-1.171 0-2.121.95-2.121 2.121v.233c0 1.171.95 2.121 2.121 2.121" style="fill:#f5f5f5"/><path d="M470.056 139.311h-.061c-1.171 0-2.121.95-2.121 2.121v13.654c0 1.171-.95 2.121-2.121 2.121h-.176a2.12 2.12 0 0 1-2.121-2.121v-13.654c0-1.171-.95-2.121-2.121-2.121h-.122c-1.171 0-2.121.95-2.121 2.121v13.654c0 1.171-.95 2.121-2.121 2.121h-.119a2.12 2.12 0 0 1-2.121-2.121v-13.654c0-1.171-.95-2.121-2.121-2.121h-.122c-1.171 0-2.121.95-2.121 2.121v4.706c0 1.171-.95 2.121-2.121 2.121h-13.204c-1.171 0-2.121.95-2.121 2.121v9.07c0 1.171.95 2.121 2.121 2.121h8.843a2.12 2.12 0 0 0 2.121-2.121v-.122a2.12 2.12 0 0 0-2.121-2.121h-4.428a2.12 2.12 0 0 1-2.121-2.121v-.23c0-1.171.95-2.121 2.121-2.121h8.789c1.171 0 2.121.95 2.121 2.121v4.594c0 1.171.95 2.121 2.121 2.121h17.568c1.171 0 2.121-.95 2.121-2.121v-18.018c0-1.171-.95-2.121-2.121-2.121m-43.675 8.948h-8.846c-1.171 0-2.121.95-2.121 2.121v.233c0 1.171.95 2.121 2.121 2.121h4.54c1.171 0 2.121.95 2.121 2.121v.23c0 1.171-.95 2.121-2.121 2.121h-8.958a2.12 2.12 0 0 1-2.121-2.121v-4.706a2.12 2.12 0 0 0-2.121-2.121h-17.568c-1.171 0-2.121.95-2.121 2.121v9.07c0 1.171.95 2.121 2.121 2.121h.122c1.171 0 2.121-.95 2.121-2.121v-4.594c0-1.171.95-2.121 2.121-2.121h8.898c1.171 0 2.121.95 2.121 2.121v4.594c0 1.171.95 2.121 2.121 2.121h17.571c1.171 0 2.121-.95 2.121-2.121v-9.07a2.123 2.123 0 0 0-2.122-2.12m76.446 2.122v.233c0 1.171.95 2.121 2.121 2.121h4.48a2.12 2.12 0 0 1 2.121 2.121v.23c0 1.171-.95 2.121-2.121 2.121h-8.898a2.12 2.12 0 0 1-2.121-2.121v-4.706a2.12 2.12 0 0 0-2.121-2.121h-17.571c-1.171 0-2.121.95-2.121 2.121v9.07c0 1.171.95 2.121 2.121 2.121h.064c1.171 0 2.121-.95 2.121-2.121v-4.594c0-1.171.95-2.121 2.121-2.121h8.846a2.12 2.12 0 0 1 2.121 2.121v4.594c0 1.171.95 2.121 2.121 2.121H512v-13.312h-7.052c-1.172 0-2.121.95-2.121 2.122m-26.232-8.949v.233c0 1.171.95 2.121 2.121 2.121H512v-4.475h-33.284c-1.171 0-2.121.95-2.121 2.121" style="fill:#f5f5f5"/><path d="M487.441 161.571h.122c1.171 0 2.121-.95 2.121-2.121v-.122a2.12 2.12 0 0 0-2.121-2.121h-.122a2.12 2.12 0 0 0-2.121 2.121v.122a2.12 2.12 0 0 0 2.121 2.121M35.402 172.982v-4.706c0-1.171-.95-2.121-2.121-2.121H0v8.948h33.281a2.12 2.12 0 0 0 2.121-2.121m41.557-6.826H41.887c-1.171 0-2.121.95-2.121 2.121v4.706a2.12 2.12 0 0 0 2.121 2.121h35.072c1.171 0 2.121-.95 2.121-2.121v-4.706a2.12 2.12 0 0 0-2.121-2.121m43.677 0H85.564c-1.171 0-2.121.95-2.121 2.121v4.706a2.12 2.12 0 0 0 2.121 2.121h35.072a2.12 2.12 0 0 0 2.121-2.121v-4.706a2.12 2.12 0 0 0-2.121-2.121m43.678 0h-35.072c-1.171 0-2.121.95-2.121 2.121v4.706a2.12 2.12 0 0 0 2.121 2.121h35.072a2.12 2.12 0 0 0 2.121-2.121v-4.706a2.12 2.12 0 0 0-2.121-2.121m43.678 0h-35.129c-1.171 0-2.121.95-2.121 2.121v4.706a2.12 2.12 0 0 0 2.121 2.121h35.129c1.171 0 2.121-.95 2.121-2.121v-4.706a2.12 2.12 0 0 0-2.121-2.121m43.678 0h-35.075c-1.171 0-2.121.95-2.121 2.121v4.706a2.12 2.12 0 0 0 2.121 2.121h35.075c1.171 0 2.121-.95 2.121-2.121v-4.706a2.12 2.12 0 0 0-2.121-2.121m43.678 0h-35.075c-1.171 0-2.121.95-2.121 2.121v4.706a2.12 2.12 0 0 0 2.121 2.121h35.075c1.171 0 2.121-.95 2.121-2.121v-4.706a2.12 2.12 0 0 0-2.121-2.121m87.355 0h-35.017a2.12 2.12 0 0 0-2.121 2.121v4.706a2.12 2.12 0 0 0 2.121 2.121h35.017a2.12 2.12 0 0 0 2.121-2.121v-4.706a2.12 2.12 0 0 0-2.121-2.121m-43.678 0H303.95c-1.171 0-2.121.95-2.121 2.121v4.706a2.12 2.12 0 0 0 2.121 2.121h35.075c1.171 0 2.121-.95 2.121-2.121v-4.706a2.12 2.12 0 0 0-2.121-2.121m87.356 0h-35.075c-1.171 0-2.121.95-2.121 2.121v4.706a2.12 2.12 0 0 0 2.121 2.121h35.075c1.171 0 2.121-.95 2.121-2.121v-4.706a2.12 2.12 0 0 0-2.121-2.121m43.675 0h-35.015c-1.171 0-2.121.95-2.121 2.121v4.706a2.12 2.12 0 0 0 2.121 2.121h35.015c1.171 0 2.121-.95 2.121-2.121v-4.706a2.12 2.12 0 0 0-2.121-2.121m6.539 2.121v4.706a2.12 2.12 0 0 0 2.121 2.121H512v-8.948h-33.284a2.12 2.12 0 0 0-2.121 2.121m26.232 184.273v.122c0 1.171.95 2.121 2.121 2.121h4.483c1.171 0 2.121.95 2.121 2.121v.23c0 1.171-.95 2.121-2.121 2.121h-8.789a2.12 2.12 0 0 1-2.121-2.121v-4.594c0-1.171-.95-2.121-2.121-2.121h-17.68c-1.171 0-2.121.95-2.121 2.121v18.018a2.12 2.12 0 0 0 2.121 2.121h.119c1.171 0 2.121-.95 2.121-2.121v-13.654c0-1.171.95-2.121 2.121-2.121h.176c1.171 0 2.121.95 2.121 2.121v13.654a2.12 2.12 0 0 0 2.121 2.121h.064c1.171 0 2.121-.95 2.121-2.121v-13.654c0-1.171.95-2.121 2.121-2.121h.176c1.171 0 2.121.95 2.121 2.121v13.654a2.12 2.12 0 0 0 2.121 2.121h.176c1.171 0 2.121-.95 2.121-2.121v-4.706c0-1.171.95-2.121 2.121-2.121H512v-13.312h-7.052a2.12 2.12 0 0 0-2.121 2.121" style="fill:#f5f5f5"/><path d="M502.827 370.334v.233a2.12 2.12 0 0 0 2.121 2.121H512v-4.475h-7.052a2.12 2.12 0 0 0-2.121 2.121m-41.438-15.541a2.12 2.12 0 0 0 2.121-2.121v-.122c0-1.171-.95-2.121-2.121-2.121h-.119c-1.171 0-2.121.95-2.121 2.121v.122c0 1.171.95 2.121 2.121 2.121zm-32.832 6.827v-9.07c0-1.171-.95-2.121-2.121-2.121h-8.901c-1.171 0-2.121.95-2.121 2.121v.122c0 1.171.95 2.121 2.121 2.121h4.54c1.171 0 2.121.95 2.121 2.121v.23c0 1.171-.95 2.121-2.121 2.121h-8.844a2.12 2.12 0 0 1-2.121-2.121v-4.594c0-1.171-.95-2.121-2.121-2.121h-17.625c-1.171 0-2.121.95-2.121 2.121v18.018a2.12 2.12 0 0 0 2.121 2.121h.119c1.171 0 2.121-.95 2.121-2.121v-13.654c0-1.171.95-2.121 2.121-2.121h.064c1.171 0 2.121.95 2.121 2.121v13.654a2.12 2.12 0 0 0 2.121 2.121h.176c1.171 0 2.121-.95 2.121-2.121v-13.654c0-1.171.95-2.121 2.121-2.121h.176c1.171 0 2.121.95 2.121 2.121v13.654a2.12 2.12 0 0 0 2.121 2.121h.122c1.171 0 2.121-.95 2.121-2.121v-4.706c0-1.171.95-2.121 2.121-2.121h13.204c1.172 0 2.122-.95 2.122-2.121" style="fill:#f5f5f5"/><path d="M470.113 368.213h-52.579a2.12 2.12 0 0 0-2.121 2.121v.233a2.12 2.12 0 0 0 2.121 2.121h52.579c1.171 0 2.121-.95 2.121-2.121v-.233a2.12 2.12 0 0 0-2.121-2.121m0-17.784h-.119c-1.171 0-2.121.95-2.121 2.121v4.594c0 1.171-.95 2.121-2.121 2.121h-8.846a2.12 2.12 0 0 1-2.121-2.121v-4.594c0-1.171-.95-2.121-2.121-2.121h-17.622c-1.171 0-2.121.95-2.121 2.121v9.07c0 1.171.95 2.121 2.121 2.121h8.843a2.12 2.12 0 0 0 2.121-2.121v-.233a2.12 2.12 0 0 0-2.121-2.121h-4.483a2.12 2.12 0 0 1-2.121-2.121v-.23c0-1.171.95-2.121 2.121-2.121h8.901c1.171 0 2.121.95 2.121 2.121v4.706c0 1.171.95 2.121 2.121 2.121h17.568c1.171 0 2.121-.95 2.121-2.121v-9.07a2.12 2.12 0 0 0-2.121-2.122M341.258 361.62v-9.07c0-1.171-.95-2.121-2.121-2.121h-8.901c-1.171 0-2.121.95-2.121 2.121v.122c0 1.171.95 2.121 2.121 2.121h4.483c1.171 0 2.121.95 2.121 2.121v.23c0 1.171-.95 2.121-2.121 2.121h-8.901a2.12 2.12 0 0 1-2.121-2.121v-4.594a2.12 2.12 0 0 0-2.121-2.121h-17.568c-1.171 0-2.121.95-2.121 2.121v18.018a2.12 2.12 0 0 0 2.121 2.121h.119c1.171 0 2.121-.95 2.121-2.121v-13.654c0-1.171.95-2.121 2.121-2.121h.122c1.171 0 2.121.95 2.121 2.121v13.654a2.12 2.12 0 0 0 2.121 2.121h.176c1.171 0 2.121-.95 2.121-2.121v-13.654c0-1.171.95-2.121 2.121-2.121h.064c1.171 0 2.121.95 2.121 2.121v13.654a2.12 2.12 0 0 0 2.121 2.121h.119c1.171 0 2.121-.95 2.121-2.121v-4.706c0-1.171.95-2.121 2.121-2.121h13.319a2.12 2.12 0 0 0 2.121-2.121" style="fill:#f5f5f5"/><path d="M382.758 368.213h-52.521a2.12 2.12 0 0 0-2.121 2.121v.233a2.12 2.12 0 0 0 2.121 2.121h52.521c1.171 0 2.121-.95 2.121-2.121v-.233c0-1.171-.95-2.121-2.121-2.121m-8.725-13.42c1.171 0 2.121-.95 2.121-2.121v-.122c0-1.171-.95-2.121-2.121-2.121h-.119c-1.171 0-2.121.95-2.121 2.121v.122c0 1.171.95 2.121 2.121 2.121z" style="fill:#f5f5f5"/><path d="M382.758 350.429h-.119c-1.171 0-2.121.95-2.121 2.121v4.594c0 1.171-.95 2.121-2.121 2.121h-8.844a2.12 2.12 0 0 1-2.121-2.121v-4.594c0-1.171-.95-2.121-2.121-2.121h-17.625a2.12 2.12 0 0 0-2.121 2.121v9.07c0 1.171.95 2.121 2.121 2.121h8.901c1.171 0 2.121-.95 2.121-2.121v-.233a2.12 2.12 0 0 0-2.121-2.121h-4.483a2.12 2.12 0 0 1-2.121-2.121v-.23c0-1.171.95-2.121 2.121-2.121h8.844c1.171 0 2.121.95 2.121 2.121v4.706c0 1.171.95 2.121 2.121 2.121h17.568c1.171 0 2.121-.95 2.121-2.121v-9.07c0-1.172-.95-2.122-2.121-2.122m-128.91 11.191v-9.07c0-1.171-.95-2.121-2.121-2.121h-8.901c-1.171 0-2.121.95-2.121 2.121v.122c0 1.171.95 2.121 2.121 2.121h4.537a2.12 2.12 0 0 1 2.121 2.121v.23c0 1.171-.95 2.121-2.121 2.121h-8.901a2.12 2.12 0 0 1-2.121-2.121v-4.594c0-1.171-.95-2.121-2.121-2.121h-17.568c-1.171 0-2.121.95-2.121 2.121v18.018a2.12 2.12 0 0 0 2.121 2.121h.122c1.171 0 2.121-.95 2.121-2.121v-13.654c0-1.171.95-2.121 2.121-2.121h.119c1.171 0 2.121.95 2.121 2.121v13.654a2.12 2.12 0 0 0 2.121 2.121h.119c1.171 0 2.121-.95 2.121-2.121v-13.654c0-1.171.95-2.121 2.121-2.121h.122c1.171 0 2.121.95 2.121 2.121v13.654a2.12 2.12 0 0 0 2.121 2.121h.119c1.171 0 2.121-.95 2.121-2.121v-4.706c0-1.171.95-2.121 2.121-2.121h13.264a2.12 2.12 0 0 0 2.121-2.121m32.775-6.827c1.171 0 2.121-.95 2.121-2.121v-.122c0-1.171-.95-2.121-2.121-2.121h-.064a2.12 2.12 0 0 0-2.121 2.121v.122a2.12 2.12 0 0 0 2.121 2.121z" style="fill:#f5f5f5"/><path d="M295.405 350.429h-.122c-1.171 0-2.121.95-2.121 2.121v4.594c0 1.171-.95 2.121-2.121 2.121h-8.843a2.12 2.12 0 0 1-2.121-2.121v-4.594c0-1.171-.95-2.121-2.121-2.121H260.33c-1.171 0-2.121.95-2.121 2.121v9.07c0 1.171.95 2.121 2.121 2.121h8.901c1.171 0 2.121-.95 2.121-2.121v-.233a2.12 2.12 0 0 0-2.121-2.121h-4.537a2.12 2.12 0 0 1-2.121-2.121v-.23c0-1.171.95-2.121 2.121-2.121h8.843c1.171 0 2.121.95 2.121 2.121v4.706c0 1.171.95 2.121 2.121 2.121h17.625c1.171 0 2.121-.95 2.121-2.121v-9.07a2.12 2.12 0 0 0-2.12-2.122m0 17.784h-52.579a2.12 2.12 0 0 0-2.121 2.121v.233a2.12 2.12 0 0 0 2.121 2.121h52.579c1.171 0 2.121-.95 2.121-2.121v-.233c0-1.171-.95-2.121-2.121-2.121m-87.356-17.784h-.122a2.12 2.12 0 0 0-2.121 2.121v4.594c0 1.171-.95 2.121-2.121 2.121h-8.844a2.12 2.12 0 0 1-2.121-2.121v-4.594c0-1.171-.95-2.121-2.121-2.121h-17.626c-1.171 0-2.121.95-2.121 2.121v9.07c0 1.171.95 2.121 2.121 2.121h8.846c1.171 0 2.121-.95 2.121-2.121v-.233a2.12 2.12 0 0 0-2.121-2.121h-4.428a2.12 2.12 0 0 1-2.121-2.121v-.23c0-1.171.95-2.121 2.121-2.121h8.789c1.171 0 2.121.95 2.121 2.121v4.706a2.12 2.12 0 0 0 2.121 2.121h17.625c1.171 0 2.121-.95 2.121-2.121v-9.07a2.12 2.12 0 0 0-2.119-2.122" style="fill:#f5f5f5"/><path d="M199.267 354.793c1.171 0 2.121-.95 2.121-2.121v-.122c0-1.171-.95-2.121-2.121-2.121h-.064c-1.171 0-2.121.95-2.121 2.121v.122c0 1.171.95 2.121 2.121 2.121zm8.782 13.42H155.47a2.12 2.12 0 0 0-2.121 2.121v.233a2.12 2.12 0 0 0 2.121 2.121h52.579c1.171 0 2.121-.95 2.121-2.121v-.233a2.12 2.12 0 0 0-2.121-2.121" style="fill:#f5f5f5"/><path d="M166.435 361.62v-9.07c0-1.171-.95-2.121-2.121-2.121h-8.843c-1.171 0-2.121.95-2.121 2.121v.122c0 1.171.95 2.121 2.121 2.121h4.537c1.171 0 2.121.95 2.121 2.121v.23c0 1.171-.95 2.121-2.121 2.121h-8.898a2.12 2.12 0 0 1-2.121-2.121v-4.594c0-1.171-.95-2.121-2.121-2.121h-17.571c-1.171 0-2.121.95-2.121 2.121v18.018a2.12 2.12 0 0 0 2.121 2.121h.122c1.171 0 2.121-.95 2.121-2.121v-13.654c0-1.171.95-2.121 2.121-2.121h.119c1.171 0 2.121.95 2.121 2.121v13.654a2.12 2.12 0 0 0 2.121 2.121h.122c1.171 0 2.121-.95 2.121-2.121v-13.654a2.12 2.12 0 0 1 2.121-2.121h.119c1.171 0 2.121.95 2.121 2.121v13.654a2.12 2.12 0 0 0 2.121 2.121h.122c1.171 0 2.121-.95 2.121-2.121v-4.706c0-1.171.95-2.121 2.121-2.121h13.204a2.12 2.12 0 0 0 2.12-2.121m-54.466-6.827c1.171 0 2.121-.95 2.121-2.121v-.122c0-1.171-.95-2.121-2.121-2.121h-.176a2.12 2.12 0 0 0-2.121 2.121v.122c0 1.171.95 2.121 2.121 2.121z" style="fill:#f5f5f5"/><path d="M120.694 350.429h-.122a2.12 2.12 0 0 0-2.121 2.121v4.594c0 1.171-.95 2.121-2.121 2.121h-8.898a2.12 2.12 0 0 1-2.121-2.121v-4.594c0-1.171-.95-2.121-2.121-2.121H85.619a2.12 2.12 0 0 0-2.121 2.121v9.07c0 1.171.95 2.121 2.121 2.121h8.846c1.171 0 2.121-.95 2.121-2.121v-.233a2.12 2.12 0 0 0-2.121-2.121h-4.54a2.12 2.12 0 0 1-2.121-2.121v-.23c0-1.171.95-2.121 2.121-2.121h8.958a2.12 2.12 0 0 1 2.121 2.121v4.706c0 1.171.95 2.121 2.121 2.121h17.568c1.171 0 2.121-.95 2.121-2.121v-9.07a2.12 2.12 0 0 0-2.12-2.122M79.08 361.62v-9.07c0-1.171-.95-2.121-2.121-2.121h-8.843c-1.171 0-2.121.95-2.121 2.121v.122c0 1.171.95 2.121 2.121 2.121h4.428c1.171 0 2.121.95 2.121 2.121v.23c0 1.171-.95 2.121-2.121 2.121h-8.789a2.12 2.12 0 0 1-2.121-2.121v-4.594c0-1.171-.95-2.121-2.121-2.121H41.944c-1.171 0-2.121.95-2.121 2.121v18.018a2.12 2.12 0 0 0 2.121 2.121h.062c1.171 0 2.121-.95 2.121-2.121v-13.654c0-1.171.95-2.121 2.121-2.121h.176c1.171 0 2.121.95 2.121 2.121v13.654a2.12 2.12 0 0 0 2.121 2.121h.122c1.171 0 2.121-.95 2.121-2.121v-13.654c0-1.171.95-2.121 2.121-2.121h.119c1.171 0 2.121.95 2.121 2.121v13.654a2.12 2.12 0 0 0 2.121 2.121h.122c1.171 0 2.121-.95 2.121-2.121v-4.706c0-1.171.95-2.121 2.121-2.121h13.204c1.171 0 2.121-.95 2.121-2.121" style="fill:#f5f5f5"/><path d="M120.694 368.213H68.115a2.12 2.12 0 0 0-2.121 2.121v.233a2.12 2.12 0 0 0 2.121 2.121h52.579c1.171 0 2.121-.95 2.121-2.121v-.233c0-1.171-.95-2.121-2.121-2.121M9.174 361.62v-.233a2.12 2.12 0 0 0-2.121-2.121h-4.48a2.12 2.12 0 0 1-2.121-2.121v-.23c0-1.171.95-2.121 2.121-2.121h8.898a2.12 2.12 0 0 1 2.121 2.121v4.706c0 1.171.95 2.121 2.121 2.121h17.571c1.171 0 2.121-.95 2.121-2.121v-9.07c0-1.171-.95-2.121-2.121-2.121h-.064c-1.171 0-2.121.95-2.121 2.121v4.594c0 1.171-.95 2.121-2.121 2.121h-8.846a2.12 2.12 0 0 1-2.121-2.121v-4.594c0-1.171-.95-2.121-2.121-2.121H0v13.312h7.052a2.123 2.123 0 0 0 2.122-2.122m26.231 8.948v-.233a2.12 2.12 0 0 0-2.121-2.121H0v4.475h33.284c1.171 0 2.121-.95 2.121-2.121" style="fill:#f5f5f5"/><path d="M24.559 350.429h-.122a2.12 2.12 0 0 0-2.121 2.121v.122c0 1.171.95 2.121 2.121 2.121h.122c1.171 0 2.121-.95 2.121-2.121v-.122c0-1.171-.95-2.121-2.121-2.121m452.039-11.411v4.706c0 1.171.95 2.121 2.121 2.121H512v-8.948h-33.281a2.12 2.12 0 0 0-2.121 2.121m-85.234 6.827h35.072c1.171 0 2.121-.95 2.121-2.121v-4.706c0-1.171-.95-2.121-2.121-2.121h-35.072c-1.171 0-2.121.95-2.121 2.121v4.706a2.12 2.12 0 0 0 2.121 2.121m78.749-8.948h-35.072c-1.171 0-2.121.95-2.121 2.121v4.706c0 1.171.95 2.121 2.121 2.121h35.072c1.171 0 2.121-.95 2.121-2.121v-4.706a2.12 2.12 0 0 0-2.121-2.121m-87.355 0h-35.072a2.12 2.12 0 0 0-2.121 2.121v4.706c0 1.171.95 2.121 2.121 2.121h35.072c1.171 0 2.121-.95 2.121-2.121v-4.706a2.12 2.12 0 0 0-2.121-2.121m-78.75 8.948h35.129a2.12 2.12 0 0 0 2.121-2.121v-4.706c0-1.171-.95-2.121-2.121-2.121h-35.129c-1.171 0-2.121.95-2.121 2.121v4.706a2.12 2.12 0 0 0 2.121 2.121m-87.356 0h35.075c1.171 0 2.121-.95 2.121-2.121v-4.706c0-1.171-.95-2.121-2.121-2.121h-35.075c-1.171 0-2.121.95-2.121 2.121v4.706c0 1.171.95 2.121 2.121 2.121m78.753-8.948H260.33c-1.171 0-2.121.95-2.121 2.121v4.706c0 1.171.95 2.121 2.121 2.121h35.075c1.171 0 2.121-.95 2.121-2.121v-4.706a2.12 2.12 0 0 0-2.121-2.121m-87.356 0h-35.075c-1.171 0-2.121.95-2.121 2.121v4.706c0 1.171.95 2.121 2.121 2.121h35.075c1.171 0 2.121-.95 2.121-2.121v-4.706a2.12 2.12 0 0 0-2.121-2.121m-78.752 8.948h35.017a2.12 2.12 0 0 0 2.121-2.121v-4.706c0-1.171-.95-2.121-2.121-2.121h-35.017c-1.171 0-2.121.95-2.121 2.121v4.706a2.12 2.12 0 0 0 2.121 2.121m-8.603-8.948H85.619a2.12 2.12 0 0 0-2.121 2.121v4.706c0 1.171.95 2.121 2.121 2.121h35.075c1.171 0 2.121-.95 2.121-2.121v-4.706a2.12 2.12 0 0 0-2.121-2.121m-78.75 8.948h35.015c1.171 0 2.121-.95 2.121-2.121v-4.706c0-1.171-.95-2.121-2.121-2.121H41.944c-1.171 0-2.121.95-2.121 2.121v4.706c0 1.171.95 2.121 2.121 2.121m-6.539-2.121v-4.706c0-1.171-.95-2.121-2.121-2.121H0v8.948h33.284c1.171 0 2.121-.95 2.121-2.121" style="fill:#f5f5f5"/><path d="M247.267 206.081c3.133.836 6.475-.084 8.771-2.423 3.466 3.509 9.146 3.592 12.738.169 2.34-2.256 3.3-5.682 2.464-8.771-3.047 4.929-9.48 6.516-14.409 3.425-.25-.168-.584-.336-.793-.502-4.636 3.425-11.192 2.506-14.701-2.087-.126-.253-.376-.586-.543-.836-1.253 4.845 1.67 9.855 6.473 11.025m19.457 97.579c11.227-6.163 20.596-15.875 25.733-28.665 8.748-21.925 3.239-46.672-13.495-62.724-.575-.552-1.449.186-1.032.866 16.505 26.915 10.003 62.286-15.537 81.667l1.221-78.185a3.45 3.45 0 0 0-1.282-2.74l-4.153-3.357a3.454 3.454 0 0 0-4.357.012l-4.093 3.346a3.45 3.45 0 0 0-1.267 2.726l1.186 78.241c-25.544-19.372-32.06-54.774-15.581-81.708.416-.68-.458-1.417-1.033-.865-16.703 16.052-22.246 40.797-13.499 62.721 5.137 12.79 14.505 22.501 25.735 28.664-7.146 2.449-14.658 3.748-22.254 3.53-.802-.023-.964 1.106-.196 1.339 9.65 2.929 19.575 3.131 28.907 1.039l3.664 7.109a.681.681 0 0 0 1.21.002l3.689-7.105c9.333 2.088 19.261 1.883 28.918-1.045.768-.233.607-1.361-.195-1.338-7.601.216-15.131-1.082-22.289-3.53" style="fill:#ff4b55"/><path d="M312.422 230.974a48.45 48.45 0 0 0-26.648-22.858c-.712-.25-1.267.69-.685 1.169 25.077 20.658 30.104 57.45 10.711 84.087-1.003 1.337-2.089 2.757-3.133 3.924 23.807-12.778 32.619-42.515 19.755-66.322m-96.186 62.399c-19.393-26.637-14.406-63.428 10.667-84.086.582-.48.027-1.419-.685-1.169-11.345 3.987-20.821 12.122-26.605 22.857-12.946 23.807-4.05 53.544 19.797 66.323-1.127-1.169-2.213-2.588-3.174-3.925" style="fill:#ff4b55"/></svg>
