<svg xmlns="http://www.w3.org/2000/svg" xml:space="preserve" viewBox="0 0 512 512" width="48" height="48"><path d="M400 0H112C50.144 0 0 50.144 0 112v58.814h512V112C512 50.144 461.856 0 400 0" style="fill:#ff4b55"/><path d="M0 400c0 61.856 50.144 112 112 112h288c61.856 0 112-50.144 112-112v-58.372H0z" style="fill:#464655"/><path d="M0 170.81h512v170.81H0z" style="fill:#f5f5f5"/><path d="M308.065 233.525c-.928-.484-2.027-2.211-1.684-2.967.361-.794-.2-.725 1.696-.161 3.43.889 5.649.484 7.829-1.372l1.936-1.533 2.26 1.13c1.25.564 2.542.967 2.905.886 1.05-.242 3.068-2.825 3.027-3.713-.041-1.209.847-.886 1.291.405.928 2.422-.779 6.599-3.12 7.163-1.128.322-2.178.242-3.955-.322-2.097-.808-2.422-.808-3.55 0-2.339 1.856-5.688 2.019-8.635.484m8.835-9.343c-1.132-1.587-2.492-7.141-2.095-8.499.395-1.248.792-1.474 1.869-1.134 1.927.679 2.382 1.927 2.153 6.462-.34 3.397-.793 4.531-1.927 3.171m-75.895 24.548c-4.651 2.646-11.568 3.101-11.568 10.434-10.13.378-22.075.831-32.85.604 2.92-3.771 21.401-20.853 29.086-27.623 1.272-1.12 1.704-3.289.964-4.814l-.199-.41c-1.108-2.285-4.122-2.829-5.957-1.074-7.658 7.325-15.247 14.152-16.483 15.323-9.915 10.02-12.822 12.94-14.38 14.508a5.9 5.9 0 0 0-1.718 4.2l.001.102a5.94 5.94 0 0 0 5.942 5.911h43.381c2.458 0-.565-8.543 2.609-8.543 2.207 0 2.41 3.066 2.313 6.312-.074 2.47-2.108 4.424-4.579 4.427-18.755.026-38.279.205-56.651.222a2.737 2.737 0 0 1-2.736-2.747v-3.304c0-2.802-3.112-4.432-5.454-2.893l-.254.163c-1.223.764-1.85 2.263-1.372 3.624.31.883.444 1.96.475 3.085.04 1.488-1.171 2.713-2.658 2.759-6.076.186-12.679.24-14.555-3.342-1.058-2.02-3.309-2.974-5.349-1.955l-.272.136c-2.148 1.074-3.008 3.731-1.831 5.823 2.238 3.979 4.28 8.594 3.22 15.06-.864 2.038-2.492 3.313-4.256 4.461-1.959 1.276-.73 4.261 1.569 3.836 5.574-1.03 9.414-5.443 10.589-10.642h86.42a5.74 5.74 0 0 0 5.739-5.739v-18.756c-.794-5.594-6.805-5.368-9.186-9.148m109.615-24.783c1.274.82 2.552 1.641 3.974 2.32 1.556.743 2.15 2.642 1.241 4.107-.241.387-.441.82-.556 1.346v37.197c2.542.528 4.001.028 5.16-.771a2.264 2.264 0 0 1 3.489 1.288c.877 3.263 2.313 6.45 3.079 9.352a2.855 2.855 0 0 1-2.759 3.588h-14.572a2.336 2.336 0 0 1-2.336-2.336v-54.299c0-1.685 1.863-2.703 3.28-1.792m-17.644 9.058c.011 10.271.131 21.336.148 32.346a2.58 2.58 0 0 1-2.582 2.583h-.167a2.58 2.58 0 0 1-2.58-2.58v-26.09c0-1.42-1.669-2.18-2.737-1.244l-3.42 2.955a3.17 3.17 0 0 0-1.104 2.397l-.064 21.994a2.577 2.577 0 0 1-2.58 2.569h-.234a2.576 2.576 0 0 1-2.58-2.557c-.025-3.59-.07-10.246-.088-15.237-.005-1.436-1.704-2.186-2.784-1.24-3.543 3.105-4.361 3.807-6.22 5.728.151.983.908 0 1.361.755v4.991c-12.908-2.43-13.872 7.881-13.388 18.946a3.11 3.11 0 0 0 3.102 2.979h40.526a2.72 2.72 0 0 0 2.721-2.721v-50.381c0-1.683-1.997-2.547-3.238-1.411-.99.906-2.047 1.813-2.955 2.634a3.46 3.46 0 0 0-1.137 2.584m-29.826 34.551c-.794-2.268 3.668-3.101 4.196-1.059.19 2.495-3.213 2.571-4.196 1.059" style="fill:#73af00"/><path d="M169.296 286.38c1.55 0 2.797 1.285 2.797 2.797a2.767 2.767 0 0 1-2.797 2.799c-1.587 0-2.874-1.21-2.874-2.799 0-1.512 1.287-2.797 2.874-2.797m92.144-61.293c.757.455 1.535.89 2.364 1.281 1.496.707 2.086 2.566 1.171 3.945a4.4 4.4 0 0 0-.648 1.482v37.122c2.694.599 4.167.012 5.341-.857 1.169-.865 2.853-.267 3.228 1.138.673 2.52 1.685 5.012 2.466 7.378.956 2.893-1.19 5.874-4.237 5.874H259.76a3.333 3.333 0 0 1-3.333-3.333v-51.153c0-2.574 2.807-4.203 5.013-2.877" style="fill:#73af00"/></svg>
