<svg xmlns="http://www.w3.org/2000/svg" xml:space="preserve" viewBox="0 0 512 512" width="48" height="48"><path d="M112 512h288c55.678 0 101.859-40.631 110.53-93.858H1.47C10.141 471.369 56.322 512 112 512M400 0H112C56.322 0 10.141 40.631 1.47 93.858h509.06C501.859 40.631 455.678 0 400 0" style="fill:#41479b"/><path d="M1.47 93.858A113 113 0 0 0 0 112v288c0 6.178.508 12.236 1.47 18.142h509.06A113 113 0 0 0 512 400V112c0-6.178-.508-12.236-1.47-18.142z" style="fill:#f5f5f5"/><path d="m317.474 256 30.734-53.234h-61.469L256 149.523l-30.739 53.243h-61.469L194.526 256l-30.734 53.234h61.469L256 362.477l30.739-53.243h61.469zm.58-35.824-10.632 18.415-10.632-18.415zM297.371 256l-20.683 35.824h-41.376L214.629 256l20.683-35.824h41.376zM256 184.344l10.636 18.422h-21.272zm-62.054 35.832h21.264l-10.632 18.415zm0 71.648 10.632-18.415 10.632 18.415zM256 327.656l-10.636-18.422h21.272zm51.422-54.247 10.632 18.415h-21.263z" style="fill:#41479b"/></svg>
