<svg xmlns="http://www.w3.org/2000/svg" xml:space="preserve" viewBox="0 0 512 512" width="48" height="48"><path d="M60.73 499.599C76.093 507.523 93.523 512 112 512h288c18.477 0 35.907-4.477 51.27-12.401L256 304.329zM451.27 12.401C435.907 4.477 418.477 0 400 0H112C93.523 0 76.093 4.477 60.73 12.401L256 207.671z" style="fill:#73af00"/><path d="M499.599 60.73a112.5 112.5 0 0 0-48.329-48.329L256 207.671 60.73 12.401A112.5 112.5 0 0 0 12.401 60.73L207.671 256 12.401 451.27a112.5 112.5 0 0 0 48.329 48.329L256 304.329l195.27 195.27a112.5 112.5 0 0 0 48.329-48.329L304.329 256z" style="fill:#ffe15a"/><path d="m304.329 256 195.27 195.27C507.523 435.907 512 418.477 512 400V112c0-18.477-4.477-35.907-12.401-51.27zM12.401 60.73C4.477 76.093 0 93.523 0 112v288c0 18.477 4.477 35.907 12.401 51.27L207.671 256z" style="fill:#464655"/></svg>
