<svg xmlns="http://www.w3.org/2000/svg" xml:space="preserve" viewBox="0 0 512 512" width="48" height="48"><path d="M400 0H112C50.144 0 0 50.144 0 112v288c0 61.856 50.144 112 112 112h288c61.856 0 112-50.144 112-112V112C512 50.144 461.856 0 400 0" style="fill:#f5f5f5"/><path d="M493.652 50.564a112.6 112.6 0 0 0-32.216-32.216L256 223.784 50.564 18.348a112.6 112.6 0 0 0-32.216 32.216L223.784 256 18.348 461.435a112.6 112.6 0 0 0 32.216 32.216L256 288.216l205.436 205.436a112.6 112.6 0 0 0 32.216-32.216L288.216 256z" style="fill:#ff4b55"/><path d="M282.556 54.768s-2.795-4.193-6.988-1.398c0 0 4.848 3.494 1.572 7.163-3.467 3.883-8.233.085-8.532-2.698a2.455 2.455 0 0 0 2.277-2.444 2.463 2.463 0 0 0-4.926 0c0 1.062.676 1.959 1.618 2.305-.601 2.382-6.849 4.205-8.65.26-2.028-4.442 1.179-8.212 5.504-7.687 0 0-.83-5.503-6.683-3.188 0 0 2.446-6.29-1.747-10.483-4.193 4.193-1.747 10.483-1.747 10.483-5.853-2.315-6.683 3.188-6.683 3.188 4.324-.524 7.531 3.246 5.503 7.687-1.801 3.944-8.049 2.122-8.65-.26a2.457 2.457 0 0 0-.845-4.768 2.463 2.463 0 0 0-2.463 2.463 2.455 2.455 0 0 0 2.277 2.444c-.299 2.783-5.065 6.58-8.532 2.698-3.276-3.669 1.572-7.163 1.572-7.163-4.193-2.795-6.989 1.398-6.989 1.398-1.398-5.591-6.988-4.193-6.988-4.193 5.591 6.988 9.702 21.404 9.702 21.404h47.686s4.111-14.415 9.702-21.404c-.001 0-5.592-1.398-6.99 4.193" style="fill:#ffe15a"/><path d="M279.843 71.979A71.7 71.7 0 0 0 256 67.901a71.7 71.7 0 0 0-23.843 4.078C219.65 126.779 256 141.426 256 141.426s36.35-14.647 23.843-69.447" style="fill:#ff4b55"/><path d="M238.561 91.476s-1.146-.216-2.143.581c0 0-.349-1.379 1.445-1.711s.698 1.13.698 1.13m-1.38-1.744s-.908-.732-2.163-.5c0 0 .344-1.38 2.082-.825s.081 1.325.081 1.325" style="fill:#82afff"/><path d="M237.932 90.446s-1.253-.216-2.342.581c0 0-.381-1.378 1.579-1.711 1.961-.332.763 1.13.763 1.13m21.691 3.662s-1.165.055-1.95 1.061c0 0-.658-1.26 1.01-1.998 1.668-.739.94.937.94.937m-1.708-1.502s-1.053-.502-2.22.014c0 0 .016-1.422 1.834-1.284s.386 1.27.386 1.27" style="fill:#82afff"/><path d="M258.773 93.252s-1.268.08-2.144 1.107c0 0-.69-1.253 1.141-2.03s1.003.923 1.003.923m14.158 1.574s-.436 0-1.217.735c0 0-.56-1.25 1.087-1.863s.13 1.128.13 1.128m-.836-1.716s-.983-.544-2.136-.115c0 0 .097-1.366 1.839-1.128s.297 1.243.297 1.243" style="fill:#82afff"/><path d="M272.883 93.781s-1.224.003-2.126.94c0 0-.591-1.245 1.215-1.886 1.805-.64.911.946.911.946m-36.239-10.954s-1.053-.7-2.387-.328c0 0 .238-1.52 2.171-1.091 1.933.428.216 1.419.216 1.419m-.087-2.622s-.68-1.07-2.131-1.163c0 0 .939-1.441 2.588-.335 1.649 1.104-.457 1.498-.457 1.498" style="fill:#82afff"/><path d="M236.563 81.598s-1.11-.82-2.577-.517c0 0 .329-1.603 2.408-1.011s.169 1.528.169 1.528" style="fill:#82afff"/><path d="M269.568 86.394c1.844.05 4.036-.681 4.384-2.591.401-2.195-1.478-3.305-4.003-3.205-1.842.073-6.507 1.131-9.849 1.013-3.305-.116-3.395-3.386 1.611-3.039 7.424.515 8.603-.448 8.603-.448-3.986.747-5.58-.648-9.815-.648s-5.048 2.933-3.338 4.534c1.916 1.794 8.869.598 10.712.249s4.183-.368 4.368.93c.166 1.163-2.923 1.1-5.111 1.016-3.483-.134-8.55.811-13.059 1.043-3.756.194-4.279-.865-5.134-1.95.2-.361.314-.763.314-1.189a2.4 2.4 0 0 0-.089-.624c.284-.312.582-.809.719-1.618 0 0-.961-.169-1.687.198a3.56 3.56 0 0 0-2.206-.746c-.854 0-1.625.287-2.206.746-.726-.366-1.687-.198-1.687-.198.137.81.435 1.306.719 1.618a2.4 2.4 0 0 0-.089.624c0 .782.377 1.489.983 1.996.293.244.51.567.583.942l.105.531a.78.78 0 0 0 .39.526c-3.096-.319-4.561-2.265-5.314-3.347-.849-1.22-1.378-3.92-2.674-4.218l-.764 4.069s1.638 3.786 4.683 5.331c3.438 1.744 4.086 1.794 5.215 2.292.133.598-2.126.963-4.418.498-1.6-.325-3.756-2.648-4.985-2.482l1.431 3.179c3.886 2.458 7.283 2.51 10.197 1.993 2.059-.365 2.843-2.042 2.978-2.759.841-.156 1.757-.33 4.595-1.027 1.189-.292 2.557-.446 3.92-.509.384.876 1.263 1.999 4.285 2.104 0 0 .731 1.162-1.76.93s-3.131-1.009-4.592-.843l1.304 3.102s3.189-1.096 7.108-.698c0 0 .731.199 1.163-.432s.232-.997-.166-1.561c-.224-.317-.354-1.349-.424-2.191 1.435.361 5.841-.533 7.433-.4 1.594.133 1.827 1.993 1.461 2.624s-3.704.091-3.704.091l1.121 3.064s.336-.162 1.187-.963c.692-.651 3.521-.432 3.521-.93v-5.676a.46.46 0 0 0-.502-.455c-6.24.544-7.517-.496-7.517-.496" style="fill:#ffe15a"/><path d="M244.679 84.376c.093.183.163.382.201.593l.094.531c.033.186.18.321.35.321h1.447c.17 0 .317-.135.35-.321l.094-.531c.037-.21.107-.409.201-.593z" style="fill:#ff4b55"/><path d="M246.047 85.425c-.334 0-.594.04-.559.506l.135 1.985c.023.304.206.535.424.535s.401-.231.424-.535l.135-1.985c.035-.465-.225-.506-.559-.506m-4.311 25.655s-.935-.176-1.748.474c0 0-.284-1.124 1.179-1.395s.569.921.569.921m-1.125-1.422s-.741-.597-1.764-.408c0 0 .281-1.125 1.698-.673 1.417.453.066 1.081.066 1.081" style="fill:#82afff"/><path d="M241.223 110.24s-1.022-.176-1.91.474c0 0-.311-1.124 1.288-1.395s.622.921.622.921m17.693 2.987s-.95.045-1.591.866c0 0-.537-1.028.824-1.63 1.361-.603.767.764.767.764m-1.393-1.225s-.859-.409-1.811.011c0 0 .013-1.16 1.496-1.047s.315 1.036.315 1.036" style="fill:#82afff"/><path d="M258.223 112.529s-1.035.065-1.749.903c0 0-.563-1.022.93-1.656 1.494-.633.819.753.819.753m11.549 1.284s-.356 0-.993.599c0 0-.457-1.02.887-1.52 1.343-.499.106.921.106.921m-.682-1.399s-.802-.443-1.742-.094c0 0 .079-1.114 1.5-.92 1.42.193.242 1.014.242 1.014" style="fill:#82afff"/><path d="M269.732 112.96s-.999.002-1.734.767c0 0-.482-1.015.991-1.538 1.473-.522.743.771.743.771m-29.56-8.934s-.858-.571-1.947-.268c0 0 .194-1.24 1.771-.89 1.577.349.176 1.158.176 1.158m-.07-2.14s-.555-.873-1.738-.949c0 0 .766-1.175 2.111-.274 1.345.902-.373 1.223-.373 1.223" style="fill:#82afff"/><path d="M240.107 103.023s-.906-.669-2.102-.422c0 0 .269-1.307 1.964-.824 1.696.483.138 1.246.138 1.246" style="fill:#82afff"/><path d="M267.028 106.935c1.504.041 3.292-.555 3.576-2.113.327-1.79-1.206-2.696-3.265-2.615-1.503.059-5.307.922-8.033.826-2.696-.095-2.769-2.762 1.314-2.479 6.056.42 7.017-.366 7.017-.366-3.251.61-4.552-.528-8.006-.528s-4.117 2.392-2.723 3.698c1.563 1.464 7.234.488 8.738.203 1.504-.284 3.412-.3 3.563.759.135.948-2.384.897-4.169.829-2.841-.109-6.974.662-10.652.851-3.064.158-3.491-.706-4.188-1.59a2 2 0 0 0 .256-.97c0-.176-.028-.345-.072-.509.231-.254.475-.66.586-1.32 0 0-.784-.138-1.376.161a2.9 2.9 0 0 0-1.799-.608 2.9 2.9 0 0 0-1.799.608c-.592-.299-1.376-.161-1.376-.161.112.66.355 1.066.586 1.32a2 2 0 0 0-.072.509c0 .638.307 1.215.802 1.628.239.199.416.463.476.768l.086.433c.038.189.16.338.318.429-2.525-.26-3.721-1.848-4.335-2.73-.692-.995-1.124-3.197-2.181-3.441l-.623 3.319s1.336 3.089 3.82 4.349c2.804 1.423 3.333 1.463 4.254 1.869.108.488-1.734.786-3.604.406-1.305-.265-3.064-2.16-4.066-2.024l1.167 2.593c3.17 2.005 5.941 2.047 8.318 1.626 1.68-.298 2.319-1.665 2.429-2.251.686-.127 1.433-.269 3.748-.838.97-.238 2.086-.364 3.197-.416.313.715 1.03 1.63 3.495 1.716 0 0 .596.948-1.436.759-2.032-.19-2.554-.823-3.746-.688l1.064 2.53s2.601-.894 5.798-.569c0 0 .596.163.948-.352s.19-.813-.135-1.273c-.183-.259-.288-1.1-.346-1.787 1.171.294 4.764-.435 6.063-.326 1.301.108 1.49 1.626 1.192 2.14s-3.021.075-3.021.075l.914 2.499s.274-.132.969-.786c.564-.531 2.872-.352 2.872-.759v-4.63c0-.22-.19-.391-.409-.371-5.092.446-6.134-.403-6.134-.403" style="fill:#ffe15a"/><path d="M246.726 105.289q.116.226.164.483l.077.433c.027.152.147.262.285.262h1.18c.138 0 .258-.11.285-.262l.077-.433c.03-.172.088-.334.164-.483z" style="fill:#ff4b55"/><path d="M247.842 106.145c-.273 0-.485.033-.456.412l.11 1.619c.019.248.168.436.346.436s.327-.188.346-.436l.11-1.619c.029-.379-.183-.412-.456-.412m-2.576 20.517s-.7-.132-1.308.355c0 0-.213-.842.882-1.045 1.096-.203.426.69.426.69m-.842-1.065s-.554-.447-1.321-.306c0 0 .21-.843 1.271-.504 1.062.34.05.81.05.81" style="fill:#82afff"/><path d="M244.883 126.033s-.765-.132-1.43.355c0 0-.233-.842.965-1.045 1.196-.203.465.69.465.69m13.247 2.236s-.711.034-1.191.648c0 0-.402-.77.617-1.221 1.019-.45.574.573.574.573m-1.043-.917s-.643-.307-1.356.008c0 0 .009-.868 1.12-.784 1.111.085.236.776.236.776" style="fill:#82afff"/><path d="M257.611 127.746s-.775.049-1.309.676c0 0-.421-.765.697-1.24 1.117-.473.612.564.612.564m8.647.962s-.266 0-.743.449c0 0-.342-.764.664-1.138s.079.689.079.689m-.51-1.048s-.601-.332-1.304-.071c0 0 .06-.835 1.123-.689s.181.76.181.76" style="fill:#82afff"/><path d="M266.229 128.07s-.748.002-1.298.574c0 0-.361-.76.742-1.152s.556.578.556.578m-22.133-6.69s-.643-.427-1.458-.201c0 0 .146-.928 1.326-.666s.132.867.132.867m-.053-1.602s-.415-.653-1.301-.711c0 0 .573-.88 1.581-.205 1.006.676-.28.916-.28.916" style="fill:#82afff"/><path d="M244.046 120.629s-.678-.501-1.574-.316c0 0 .201-.979 1.471-.617s.103.933.103.933" style="fill:#82afff"/><path d="M264.204 123.558c1.126.031 2.465-.416 2.678-1.582.245-1.34-.903-2.019-2.444-1.958-1.125.044-3.974.691-6.015.619-2.018-.071-2.074-2.068.984-1.856 4.534.314 5.254-.274 5.254-.274-2.434.456-3.408-.396-5.995-.396-2.586 0-3.083 1.791-2.039 2.769 1.17 1.096 5.417.365 6.542.152s2.555-.225 2.668.568c.101.71-1.785.672-3.121.62-2.127-.082-5.222.495-7.976.637-2.294.118-2.614-.528-3.136-1.191a1.5 1.5 0 0 0 .192-.726 1.5 1.5 0 0 0-.054-.381c.173-.19.355-.494.439-.988 0 0-.587-.103-1.031.121-.355-.28-.826-.455-1.347-.455s-.992.175-1.347.455c-.443-.224-1.03-.121-1.03-.121.084.494.266.798.439.988-.033.123-.054.25-.054.381 0 .478.23.909.601 1.219.179.149.311.347.356.575l.064.324c.028.142.12.253.238.322-1.891-.195-2.786-1.383-3.245-2.044-.518-.745-.842-2.394-1.633-2.576l-.467 2.485s1 2.312 2.86 3.256c2.1 1.065 2.495 1.096 3.185 1.4.081.365-1.298.588-2.698.304-.977-.198-2.294-1.617-3.044-1.516l.874 1.942c2.374 1.501 4.448 1.533 6.228 1.217 1.258-.223 1.736-1.247 1.819-1.685.513-.095 1.073-.202 2.807-.628.726-.178 1.562-.272 2.394-.311.235.535.771 1.221 2.617 1.285 0 0 .446.71-1.075.568s-1.912-.616-2.805-.515l.796 1.894s1.948-.67 4.341-.426c0 0 .446.122.71-.264.264-.385.142-.609-.101-.953-.137-.194-.216-.824-.259-1.338.877.22 3.567-.325 4.54-.244.974.081 1.116 1.217.893 1.603s-2.262.056-2.262.056l.685 1.872s.205-.099.725-.588c.422-.398 2.15-.264 2.15-.568v-3.467a.28.28 0 0 0-.306-.278c-3.815.333-4.595-.303-4.595-.303" style="fill:#ffe15a"/><path d="M249.003 122.326q.087.169.123.362l.058.324c.02.114.11.196.213.196h.884c.104 0 .193-.082.214-.196l.057-.324a1.3 1.3 0 0 1 .123-.362z" style="fill:#ff4b55"/><path d="M249.839 122.967c-.204 0-.363.025-.342.309l.082 1.212c.014.186.126.326.259.326s.245-.141.259-.326l.082-1.212c.023-.285-.137-.309-.34-.309" style="fill:#82afff"/></svg>
