<svg xmlns="http://www.w3.org/2000/svg" xml:space="preserve" viewBox="0 0 512 512" width="48" height="48"><path d="M400 0H112C50.144 0 0 50.144 0 112v58.667h512V112C512 50.144 461.856 0 400 0" style="fill:#464655"/><path d="M0 400c0 61.856 50.144 112 112 112h288c61.856 0 112-50.144 112-112v-58.667H0z" style="fill:#73af00"/><path d="M0 170.67h512v170.67H0z" style="fill:#f5f5f5"/><path d="M302.368 250.546 35.95 29.788C13.844 50.247 0 79.505 0 112v288c0 32.495 13.844 61.753 35.95 82.212l266.419-220.757c2.837-2.347 2.837-8.563-.001-10.909" style="fill:#ff4b55"/><path d="m100.083 215.575 9.288 20.147 21.543-5.3c1.345-.331 2.46 1.067 1.838 2.304l-9.961 19.823 17.575 13.538c1.097.845.7 2.588-.656 2.873l-21.709 4.572.373 22.182c.023 1.385-1.587 2.16-2.656 1.279l-17.11-14.122L81.5 296.994c-1.068.882-2.679.106-2.655-1.279l.373-22.182-21.709-4.572c-1.355-.285-1.753-2.028-.656-2.873l17.575-13.538-9.961-19.823c-.622-1.238.493-2.635 1.838-2.304l21.543 5.3 9.288-20.147c.58-1.259 2.368-1.259 2.947-.001" style="fill:#f5f5f5"/></svg>
