<svg xmlns="http://www.w3.org/2000/svg" xml:space="preserve" viewBox="0 0 512 512" width="48" height="48"><path d="M400 0H112C50.144 0 0 50.144 0 112v288c0 61.856 50.144 112 112 112h288c61.856 0 112-50.144 112-112V112C512 50.144 461.856 0 400 0" style="fill:#82c3d2"/><path d="M54.642 477.74c-1.21-3.627-5.908-13.36-6.064-13.684a22.9 22.9 0 0 1-1.966-9.258c0-4.425 2.567-8.298 6.244-9.421 2.99-.925 6.067-.426 8.454 1.339a9.15 9.15 0 0 1 3.747 7.421c0 3.699-2.372 4.923-3.392 5.278-1.579.552-3.089.234-3.576-.384-.411-.522-.369-1.952 1.105-4.269a3.074 3.074 0 0 0-.937-4.245 3.093 3.093 0 0 0-4.245.943c-3.927 6.155-1.831 10.009-.748 11.384 2.185 2.756 6.259 3.703 10.188 2.424-1.291 5.476-2.48 10.652 2.504 15.637.6.6 1.387.9 2.174.9s1.573-.3 2.174-.9a3.073 3.073 0 0 0 0-4.347c-2.462-2.462-2.141-4.485-.844-9.973.778-3.29 1.744-7.391 1.744-12.447 0-4.818-2.309-9.406-6.168-12.297 3.859-2.891 6.168-7.478 6.168-12.297 0-5.056-.967-9.156-1.744-12.447-1.297-5.488-1.618-7.511.844-9.973 1.201-1.201 1.201-3.146 0-4.347s-3.146-1.201-4.347 0c-4.985 4.985-3.796 10.16-2.504 15.637-3.929-1.284-8.003-.338-10.188 2.424-1.084 1.375-3.179 5.23.748 11.384a3.08 3.08 0 0 0 4.245.943 3.075 3.075 0 0 0 .937-4.245c-1.474-2.318-1.516-3.747-1.105-4.269.486-.618 1.996-.937 3.576-.384 1.021.354 3.392 1.579 3.392 5.278a9.15 9.15 0 0 1-3.747 7.421c-2.387 1.765-5.476 2.27-8.454 1.339-3.678-1.123-6.244-4.996-6.244-9.421 0-3.164.678-6.365 1.966-9.259l20.132-45.296a28.8 28.8 0 0 0 2.495-11.756c0-5.245-2.385-10.035-6.138-12.957 3.753-2.923 6.138-7.713 6.138-12.957 0-4.077-.841-8.034-2.495-11.756l-20.132-45.296a22.9 22.9 0 0 1-1.966-9.258c0-4.425 2.567-8.298 6.244-9.421 2.99-.925 6.067-.426 8.454 1.339a9.15 9.15 0 0 1 3.747 7.421c0 3.698-2.372 4.923-3.392 5.278-1.579.558-3.089.234-3.576-.384-.411-.522-.369-1.951 1.105-4.269a3.074 3.074 0 0 0-.937-4.245 3.093 3.093 0 0 0-4.245.943c-3.927 6.154-1.831 10.009-.748 11.384 2.185 2.756 6.259 3.703 10.188 2.424-1.291 5.476-2.48 10.651 2.504 15.636.6.601 1.387.901 2.174.901s1.573-.3 2.174-.901a3.073 3.073 0 0 0 0-4.347c-2.462-2.462-2.141-4.485-.844-9.973.778-3.29 1.744-7.391 1.744-12.447 0-3.365-1.183-6.581-3.173-9.223h.099c1.699 0 3.074-1.375 3.074-3.074s-1.375-3.074-3.074-3.074h-.099c1.99-2.642 3.173-5.858 3.173-9.223 0-5.056-.967-9.156-1.744-12.447-1.297-5.488-1.618-7.511.844-9.973 1.201-1.201 1.201-3.146 0-4.347s-3.146-1.201-4.347 0c-4.985 4.985-3.796 10.161-2.504 15.637-3.929-1.279-8.003-.332-10.188 2.424-1.084 1.375-3.179 5.23.748 11.384a3.087 3.087 0 0 0 4.245.943 3.075 3.075 0 0 0 .937-4.245c-1.474-2.318-1.516-3.746-1.105-4.269.486-.618 1.996-.937 3.576-.384 1.021.354 3.392 1.579 3.392 5.278a9.15 9.15 0 0 1-3.747 7.421c-2.387 1.765-5.476 2.264-8.454 1.339-3.678-1.123-6.244-4.996-6.244-9.421 0-3.164.678-6.365 1.966-9.258l20.132-45.296a28.8 28.8 0 0 0 2.495-11.756c0-5.245-2.385-10.035-6.138-12.957 3.753-2.923 6.138-7.713 6.138-12.957 0-4.077-.841-8.034-2.495-11.756l-20.135-45.3a22.9 22.9 0 0 1-1.966-9.259c0-4.425 2.567-8.298 6.244-9.421 2.99-.925 6.067-.426 8.454 1.339a9.15 9.15 0 0 1 3.747 7.421c0 3.699-2.372 4.924-3.392 5.278-1.579.552-3.089.228-3.576-.384-.411-.522-.369-1.951 1.105-4.269a3.074 3.074 0 0 0-.937-4.245 3.09 3.09 0 0 0-4.245.943c-3.927 6.154-1.831 10.009-.748 11.384 2.185 2.756 6.259 3.703 10.188 2.424-1.291 5.476-2.48 10.652 2.504 15.637.6.6 1.387.901 2.174.901s1.573-.3 2.174-.901a3.073 3.073 0 0 0 0-4.347c-2.462-2.462-2.141-4.485-.844-9.973.778-3.29 1.744-7.391 1.744-12.447 0-3.365-1.183-6.581-3.173-9.223h.099c1.699 0 3.074-1.375 3.074-3.074s-1.375-3.074-3.074-3.074h-.099c1.99-2.642 3.173-5.858 3.173-9.222 0-5.056-.967-9.157-1.744-12.447-1.297-5.488-1.618-7.511.844-9.973 1.201-1.201 1.201-3.146 0-4.347s-3.146-1.201-4.347 0c-4.985 4.985-3.796 10.16-2.504 15.637-3.929-1.284-8.003-.332-10.188 2.424-1.084 1.375-3.179 5.23.748 11.384a3.08 3.08 0 0 0 4.245.943 3.075 3.075 0 0 0 .937-4.245c-1.474-2.318-1.516-3.747-1.105-4.269.486-.618 1.996-.943 3.576-.384 1.021.354 3.392 1.579 3.392 5.278a9.15 9.15 0 0 1-3.747 7.421c-2.387 1.765-5.476 2.264-8.454 1.339-3.678-1.123-6.244-4.996-6.244-9.421 0-3.164.678-6.364 1.924-9.168.198-.414 4.897-10.147 6.106-13.774 2.393-7.175-.039-10.784-1.699-12.291-2.222-2.023-5.467-2.528-8.262-1.303-.424.188-.775.461-1.144.715-.182-.125-.361-.256-.545-.378A113 113 0 0 0 31.66 33.977c.16.943.403 1.955.772 3.063 1.21 3.626 5.908 13.359 6.064 13.684a22.9 22.9 0 0 1 1.966 9.259c0 4.425-2.567 8.298-6.244 9.421-2.987.925-6.067.432-8.454-1.339a9.15 9.15 0 0 1-3.747-7.421c0-3.699 2.372-4.924 3.392-5.278 1.585-.558 3.086-.234 3.576.384.411.522.369 1.951-1.105 4.269a3.074 3.074 0 0 0 .937 4.245 3.074 3.074 0 0 0 4.245-.943c3.927-6.154 1.831-10.009.748-11.384-2.185-2.756-6.259-3.708-10.188-2.424.621-2.634 1.211-5.198 1.109-7.704-2.98 3.7-5.732 7.592-8.229 11.657-.365 2.146-.633 4.528-.633 7.177 0 3.364 1.182 6.581 3.173 9.222h-.099c-1.699 0-3.074 1.375-3.074 3.074s1.375 3.074 3.074 3.074h.099c-1.99 2.642-3.173 5.858-3.173 9.223 0 5.056.967 9.157 1.744 12.447 1.297 5.488 1.618 7.511-.844 9.973a3.073 3.073 0 0 0 2.174 5.248c.787 0 1.573-.3 2.174-.901 4.985-4.985 3.796-10.161 2.505-15.637 3.929 1.279 8.003.332 10.188-2.424 1.084-1.375 3.179-5.23-.748-11.384a3.077 3.077 0 0 0-4.245-.943 3.075 3.075 0 0 0-.937 4.245c1.474 2.318 1.516 3.747 1.105 4.269-.489.613-1.99.937-3.576.384-1.021-.354-3.392-1.579-3.392-5.278a9.15 9.15 0 0 1 3.747-7.421c2.387-1.765 5.473-2.27 8.454-1.339 3.678 1.123 6.244 4.995 6.244 9.421 0 3.164-.679 6.365-1.966 9.259L18.364 140.45a28.8 28.8 0 0 0-2.495 11.756c0 5.245 2.385 10.035 6.138 12.957-3.753 2.923-6.138 7.712-6.138 12.957 0 4.077.841 8.034 2.495 11.756l20.132 45.296a22.9 22.9 0 0 1 1.966 9.258c0 4.425-2.567 8.298-6.244 9.421-2.987.931-6.067.432-8.454-1.339a9.15 9.15 0 0 1-3.747-7.421c0-3.699 2.372-4.924 3.392-5.278 1.585-.552 3.086-.234 3.576.384.411.523.369 1.951-1.105 4.269a3.074 3.074 0 0 0 .937 4.245 3.07 3.07 0 0 0 4.245-.943c3.927-6.154 1.831-10.009.748-11.384-2.185-2.756-6.259-3.703-10.188-2.424 1.291-5.476 2.48-10.652-2.505-15.637-1.201-1.201-3.146-1.201-4.347 0s-1.201 3.146 0 4.347c2.462 2.462 2.141 4.485.844 9.973-.778 3.29-1.744 7.391-1.744 12.447 0 3.365 1.182 6.581 3.173 9.223h-.099c-1.699 0-3.074 1.375-3.074 3.074s1.375 3.074 3.074 3.074h.099c-1.99 2.642-3.173 5.858-3.173 9.223 0 5.055.967 9.156 1.744 12.447 1.297 5.488 1.618 7.511-.844 9.973a3.073 3.073 0 0 0 2.174 5.248c.787 0 1.573-.3 2.174-.901 4.985-4.985 3.796-10.161 2.505-15.636 3.929 1.279 8.003.332 10.188-2.424 1.084-1.375 3.179-5.23-.748-11.384a3.077 3.077 0 0 0-4.245-.943 3.075 3.075 0 0 0-.937 4.245c1.474 2.318 1.516 3.747 1.105 4.269-.489.618-1.99.943-3.576.384-1.021-.354-3.392-1.579-3.392-5.278a9.15 9.15 0 0 1 3.747-7.421c2.387-1.765 5.473-2.27 8.454-1.339 3.678 1.123 6.244 4.996 6.244 9.421 0 3.164-.679 6.365-1.966 9.258l-20.132 45.296a28.8 28.8 0 0 0-2.495 11.756c0 5.245 2.385 10.035 6.138 12.957-3.753 2.923-6.138 7.712-6.138 12.957 0 4.077.841 8.034 2.495 11.756l20.132 45.296a22.9 22.9 0 0 1 1.966 9.259c0 4.425-2.567 8.298-6.244 9.421-2.987.931-6.067.426-8.454-1.339a9.15 9.15 0 0 1-3.747-7.421c0-3.698 2.372-4.924 3.392-5.278 1.585-.552 3.086-.234 3.576.384.411.522.369 1.951-1.105 4.269a3.074 3.074 0 0 0 .937 4.245 3.07 3.07 0 0 0 4.245-.943c3.927-6.155 1.831-10.009.748-11.384-2.185-2.762-6.259-3.708-10.188-2.424 1.291-5.477 2.48-10.652-2.505-15.637-1.201-1.201-3.146-1.201-4.347 0s-1.201 3.146 0 4.347c2.462 2.462 2.141 4.485.844 9.973-.778 3.29-1.744 7.391-1.744 12.447 0 4.818 2.309 9.406 6.168 12.297-3.859 2.891-6.168 7.479-6.168 12.297 0 1.271.061 2.481.165 3.634a112 112 0 0 0 8.537 12.225c-.208-1.553-.573-3.128-.95-4.728 3.929 1.279 8.003.332 10.188-2.424 1.084-1.375 3.179-5.229-.748-11.384a3.08 3.08 0 0 0-4.245-.943 3.075 3.075 0 0 0-.937 4.245c1.474 2.317 1.516 3.747 1.105 4.269-.489.618-1.99.937-3.576.384-1.021-.354-3.392-1.579-3.392-5.278a9.15 9.15 0 0 1 3.747-7.421c2.387-1.765 5.473-2.264 8.454-1.339 3.678 1.123 6.244 4.996 6.244 9.421 0 3.164-.679 6.365-1.924 9.168-.198.414-4.896 10.147-6.106 13.774-.094.282-.168.55-.248.821a113 113 0 0 0 5.419 5.15c-.077-.973.083-2.299.659-4.026.795-2.378 3.672-8.564 5.274-11.923 1.567 3.28 4.474 9.529 5.275 11.923 1.093 3.278.711 5.146-.009 5.8-.483.439-1.192.42-1.636.222-.555-.246-.555-.637-.555-.829 0-1.699-1.375-3.074-3.074-3.074s-3.074 1.375-3.074 3.074c0 .192 0 .582-.554.828a113 113 0 0 0 8.195 6.281 7.58 7.58 0 0 0 4.839-1.957c1.659-1.504 4.09-5.112 1.698-12.287M38.262 35.093c-1.093-3.278-.712-5.146.009-5.8.471-.444 1.186-.426 1.636-.222.555.246.555.636.555.829 0 1.699 1.375 3.074 3.074 3.074s3.074-1.375 3.074-3.074c0-.192 0-.582.555-.829.444-.204 1.153-.222 1.636.222.721.655 1.102 2.522.009 5.8-.795 2.378-3.672 8.564-5.274 11.923-1.566-3.28-4.473-9.529-5.274-11.923m8.339 37.845a15.2 15.2 0 0 0-3.064 3.214 15.2 15.2 0 0 0-3.064-3.214 15.2 15.2 0 0 0 3.064-3.214 15.2 15.2 0 0 0 3.064 3.214m-22.617 70.01 19.553-43.993 19.553 43.993a22.9 22.9 0 0 1 1.966 9.259c0 4.425-2.567 8.298-6.244 9.421-2.984.931-6.07.426-8.454-1.339a9.15 9.15 0 0 1-3.747-7.421c0-3.699 2.372-4.923 3.392-5.278 1.582-.552 3.089-.234 3.576.384.411.522.369 1.951-1.105 4.269a3.074 3.074 0 0 0 .937 4.245c1.444.907 3.338.492 4.245-.943 3.927-6.154 1.831-10.009.747-11.384-2.228-2.81-6.412-3.771-10.417-2.378a11 11 0 0 0-1.375.586v-7.776l.005.005a3.075 3.075 0 0 0 3.069 2.897 3.07 3.07 0 0 0 3.074-3.074c0-2.005-1.402-5.483-6.148-6.561v-5.735c0-1.699-1.375-3.074-3.074-3.074s-3.074 1.375-3.074 3.074v5.735c-4.746 1.078-6.148 4.556-6.148 6.561 0 1.699 1.372 3.176 3.068 3.176 1.699 0 3.068-1.273 3.068-2.972.001-.006.01-.012.012-.018v7.761a11 11 0 0 0-1.375-.586c-4.005-1.393-8.193-.432-10.417 2.378-1.084 1.375-3.179 5.23.748 11.384a3.09 3.09 0 0 0 4.245.943 3.075 3.075 0 0 0 .937-4.245c-1.474-2.318-1.516-3.747-1.105-4.269.483-.618 1.991-.937 3.576-.384 1.021.354 3.392 1.579 3.392 5.278a9.15 9.15 0 0 1-3.747 7.421c-2.387 1.765-5.47 2.27-8.454 1.339-3.678-1.123-6.244-4.996-6.244-9.421a22.9 22.9 0 0 1 1.965-9.258m22.647 22.216c-1.214.91-2.211 2.024-3.094 3.224-.883-1.2-1.881-2.315-3.094-3.224 1.214-.91 2.211-2.024 3.094-3.224.882 1.199 1.88 2.314 3.094 3.224m-22.647 22.215a22.9 22.9 0 0 1-1.966-9.259c0-4.425 2.567-8.298 6.244-9.421 2.987-.924 6.07-.426 8.454 1.339a9.15 9.15 0 0 1 3.747 7.421c0 3.699-2.372 4.924-3.392 5.278-1.585.558-3.092.234-3.576-.384-.411-.522-.369-1.951 1.105-4.269a3.074 3.074 0 0 0-.937-4.245 3.083 3.083 0 0 0-4.245.943c-3.927 6.155-1.831 10.009-.748 11.384 2.225 2.81 6.413 3.771 10.417 2.378a11 11 0 0 0 1.375-.586v7.775l-.006-.008a3.073 3.073 0 0 0-6.142.18c0 2.006 1.402 5.483 6.148 6.561v5.735c0 1.699 1.375 3.074 3.074 3.074s3.074-1.375 3.074-3.074v-5.735c4.746-1.078 6.148-4.556 6.148-6.561 0-1.699-1.372-3.176-3.068-3.176-1.699 0-3.068 1.273-3.068 2.972-.001.006-.01.012-.01.012l-.001-7.755c.457.232.918.428 1.375.586 4.005 1.393 8.19.432 10.417-2.378 1.084-1.375 3.179-5.23-.747-11.384a3.072 3.072 0 1 0-5.182 3.302c1.474 2.318 1.516 3.747 1.105 4.269-.486.618-1.993.943-3.576.384-1.021-.354-3.392-1.579-3.392-5.278a9.15 9.15 0 0 1 3.747-7.421c2.387-1.765 5.476-2.263 8.454-1.339 3.678 1.123 6.244 4.996 6.244 9.421a22.9 22.9 0 0 1-1.966 9.259l-19.553 43.993zm22.617 70.01a15.2 15.2 0 0 0-3.064 3.214 15.2 15.2 0 0 0-3.064-3.214 15.2 15.2 0 0 0 3.064-3.214 15.2 15.2 0 0 0 3.064 3.214m-22.617 70.01 19.553-43.992 19.553 43.992a22.9 22.9 0 0 1 1.966 9.259c0 4.425-2.567 8.298-6.244 9.421-2.984.931-6.07.426-8.454-1.339a9.15 9.15 0 0 1-3.747-7.421c0-3.699 2.372-4.923 3.392-5.278 1.582-.552 3.089-.234 3.576.384.411.522.369 1.951-1.105 4.269a3.074 3.074 0 0 0 .937 4.245 3.07 3.07 0 0 0 4.245-.943c3.927-6.154 1.831-10.009.747-11.384-2.228-2.81-6.412-3.765-10.417-2.378a11 11 0 0 0-1.375.586v-7.776l.006.008a3.073 3.073 0 0 0 6.142-.18c0-2.005-1.402-5.483-6.148-6.561v-5.736c0-1.699-1.375-3.074-3.074-3.074s-3.074 1.375-3.074 3.074v5.736c-4.746 1.078-6.148 4.556-6.148 6.561 0 1.699 1.372 3.176 3.068 3.176 1.699 0 3.068-1.273 3.068-2.972.001-.006.01-.012.01-.012l.002 7.755a11 11 0 0 0-1.375-.586c-4.005-1.387-8.193-.432-10.417 2.378-1.084 1.375-3.179 5.23.748 11.384a3.09 3.09 0 0 0 4.245.943 3.075 3.075 0 0 0 .937-4.245c-1.474-2.318-1.516-3.747-1.105-4.269.483-.618 1.991-.937 3.576-.384 1.021.354 3.392 1.579 3.392 5.278a9.15 9.15 0 0 1-3.747 7.421c-2.387 1.765-5.47 2.27-8.454 1.339-3.678-1.123-6.244-4.995-6.244-9.421a22.9 22.9 0 0 1 1.965-9.258m22.647 22.216c-1.214.91-2.211 2.024-3.094 3.224-.883-1.2-1.881-2.315-3.094-3.224 1.214-.91 2.211-2.024 3.094-3.224.882 1.2 1.88 2.314 3.094 3.224m-22.647 22.216a22.9 22.9 0 0 1-1.966-9.259c0-4.425 2.567-8.298 6.244-9.421 2.987-.925 6.07-.426 8.454 1.339a9.15 9.15 0 0 1 3.747 7.421c0 3.699-2.372 4.924-3.392 5.278-1.585.552-3.092.234-3.576-.384-.411-.522-.369-1.952 1.105-4.269a3.074 3.074 0 0 0-.937-4.245 3.093 3.093 0 0 0-4.245.943c-3.927 6.155-1.831 10.009-.748 11.384 2.225 2.81 6.413 3.777 10.417 2.378a11 11 0 0 0 1.375-.586v7.775l-.005-.005a3.075 3.075 0 0 0-3.069-2.897 3.07 3.07 0 0 0-3.074 3.074c0 2.006 1.402 5.483 6.148 6.561v5.736c0 1.699 1.375 3.074 3.074 3.074s3.074-1.375 3.074-3.074v-5.736c4.746-1.078 6.148-4.556 6.148-6.561 0-1.699-1.372-3.176-3.068-3.176-1.699 0-3.068 1.273-3.068 2.972-.001.006-.01.012-.012.018v-7.761q.688.349 1.375.586c4.005 1.399 8.19.432 10.417-2.378 1.084-1.375 3.179-5.23-.747-11.384a3.083 3.083 0 0 0-4.245-.943 3.075 3.075 0 0 0-.937 4.245c1.474 2.318 1.516 3.747 1.105 4.269-.486.618-1.993.937-3.576.384-1.021-.354-3.392-1.579-3.392-5.278a9.15 9.15 0 0 1 3.747-7.421c2.387-1.765 5.476-2.27 8.454-1.339 3.678 1.123 6.244 4.996 6.244 9.421a22.9 22.9 0 0 1-1.966 9.259l-19.553 43.992zm19.553 73.223a15.2 15.2 0 0 0-3.064-3.214 15.2 15.2 0 0 0 3.064-3.214 15.2 15.2 0 0 0 3.064 3.214 15.2 15.2 0 0 0-3.064 3.214" style="fill:#ffe15a"/><circle cx="270.3" cy="227.86" r="58.36" style="fill:#ffe15a"/><path d="M274.674 153.443a4.377 4.377 0 0 1-8.754 0c0-2.417 4.377-13.132 4.377-13.132s4.377 10.715 4.377 13.132m-8.754 148.826a4.377 4.377 0 0 1 8.754 0c0 2.418-4.377 13.132-4.377 13.132s-4.377-10.714-4.377-13.132m78.79-70.035a4.377 4.377 0 0 1 0-8.754c2.418 0 13.132 4.377 13.132 4.377s-10.714 4.377-13.132 4.377m-148.826-8.755a4.377 4.377 0 0 1 0 8.754c-2.417 0-13.132-4.377-13.132-4.377s10.715-4.377 13.132-4.377m130.126-45.145a4.378 4.378 0 0 1-6.19-6.19c1.709-1.71 12.381-6.19 12.381-6.19s-4.481 10.67-6.191 12.38m-111.426 99.045a4.378 4.378 0 0 1 6.19 6.19c-1.709 1.709-12.381 6.19-12.381 6.19s4.482-10.67 6.191-12.38m105.236 6.19a4.378 4.378 0 0 1 6.19-6.19c1.709 1.71 6.19 12.381 6.19 12.381s-10.671-4.481-12.38-6.191m-99.046-111.426a4.378 4.378 0 0 1-6.19 6.19c-1.709-1.709-6.19-12.381-6.19-12.381s10.671 4.482 12.38 6.191m25.091-14.71a4.377 4.377 0 1 1-8.088 3.35c-.925-2.233-.981-13.807-.981-13.807s8.143 8.223 9.069 10.457M294.73 298.28a4.377 4.377 0 1 1 8.088-3.35c.925 2.233.981 13.807.981 13.807s-8.144-8.224-9.069-10.457m45.991-94.856a4.377 4.377 0 1 1-3.35-8.088c2.233-.925 13.807-.981 13.807-.981s-8.224 8.144-10.457 9.069m-140.847 48.865a4.377 4.377 0 1 1 3.35 8.088c-2.233.925-13.807.981-13.807.981s8.223-8.144 10.457-9.069m102.944-91.506a4.377 4.377 0 1 1-8.088-3.35c.925-2.233 9.069-10.457 9.069-10.457s-.056 11.573-.981 13.807M237.777 294.93a4.377 4.377 0 1 1 8.088 3.35c-.925 2.233-9.069 10.457-9.069 10.457s.055-11.574.981-13.807m99.594-34.553a4.378 4.378 0 0 1 3.35-8.088c2.233.925 10.457 9.069 10.457 9.069s-11.574-.056-13.807-.981m-134.147-65.041a4.378 4.378 0 0 1-3.35 8.088c-2.234-.925-10.457-9.069-10.457-9.069s11.573.056 13.807.981m56.849-41.317a4.377 4.377 0 1 1-8.586 1.708c-.472-2.371 1.731-13.733 1.731-13.733s6.383 9.654 6.855 12.025m20.448 147.674a4.377 4.377 0 1 1 8.586-1.708c.472 2.371-1.731 13.733-1.731 13.733s-6.383-9.654-6.855-12.025m63.613-84.061a4.377 4.377 0 1 1-1.708-8.586c2.371-.472 13.733 1.731 13.733 1.731s-9.654 6.384-12.025 6.855M196.46 238.081a4.376 4.376 0 1 1 1.708 8.586c-2.371.472-13.733-1.731-13.733-1.731s9.654-6.384 12.025-6.855m118.818-69.665a4.377 4.377 0 1 1-7.279-4.863c1.343-2.01 10.935-8.487 10.935-8.487s-2.313 11.34-3.656 13.35m-89.962 118.881a4.377 4.377 0 1 1 7.279 4.863c-1.343 2.01-10.935 8.487-10.935 8.487s2.313-11.34 3.656-13.35m104.421-14.46a4.377 4.377 0 1 1 4.863-7.279c2.01 1.343 8.487 10.935 8.487 10.935s-11.34-2.312-13.35-3.656m-118.88-89.962a4.377 4.377 0 1 1-4.863 7.279c-2.01-1.343-8.487-10.935-8.487-10.935s11.34 2.313 13.35 3.656m21.738-19.322a4.377 4.377 0 1 1-7.279 4.863c-1.343-2.01-3.656-13.35-3.656-13.35s9.592 6.476 10.935 8.487m75.404 128.607a4.377 4.377 0 1 1 7.279-4.863c1.343 2.01 3.656 13.35 3.656 13.35s-9.592-6.477-10.935-8.487m26.602-102.006a4.377 4.377 0 1 1-4.863-7.279c2.01-1.343 13.35-3.656 13.35-3.656s-6.477 9.592-8.487 10.935m-128.608 75.404a4.377 4.377 0 1 1 4.863 7.279c-2.01 1.343-13.35 3.656-13.35 3.656s6.477-9.592 8.487-10.935m83.115-109.831a4.377 4.377 0 1 1-8.586-1.708c.472-2.371 6.855-12.025 6.855-12.025s2.202 11.362 1.731 13.733m-37.621 144.259a4.377 4.377 0 1 1 8.586 1.708c-.472 2.371-6.855 12.025-6.855 12.025s-2.203-11.362-1.731-13.733m90.939-53.319a4.377 4.377 0 1 1 1.708-8.586c2.371.472 12.025 6.855 12.025 6.855s-11.362 2.202-13.733 1.731m-144.258-37.621a4.377 4.377 0 1 1-1.708 8.586c-2.371-.472-12.025-6.855-12.025-6.855s11.362-2.203 13.733-1.731" style="fill:#ffe15a"/><path d="M407.577 243.212c-1.709-.719-3.664.105-4.376 1.804v.007c-.013.033-.078.19-.193.458-2.53 5.909-7.763 14.545-13.048 22.67 4.922-15.846 9.423-32.77 9.737-33.96a3.347 3.347 0 0 0-6.459-1.759c-2.298 8.23-6.995 19.062-11.329 28.233.794-10.224.945-19.696.954-20.382a3.35 3.35 0 0 0-3.203-3.393c-1.703.052-3.347 1.294-3.481 3.105-4.285 58.951-61.01 85.321-66.533 87.746-2.889.288-16.349 1.804-28.567 6.047-1.386.482-2.564.963-3.74 1.441a3.4 3.4 0 0 0-1.398-.225c-37.496 2.713-67.393-12.669-88.88-45.622-16.235-24.899-21.327-51.034-21.376-51.296-.343-1.817-2.082-2.987-3.909-2.667a3.346 3.346 0 0 0-2.667 3.909c.136.721 2.369 12.129 8.523 27.142-8.232-12.995-13.968-28.738-15.988-36.935-.04-.164-.145-.288-.207-.44-.094-.232-.174-.464-.313-.665-.099-.142-.227-.246-.345-.369-.183-.193-.359-.382-.581-.526-.128-.083-.272-.124-.41-.189-.248-.115-.489-.229-.764-.28-.19-.037-.386-.013-.583-.016-.2-.002-.39-.054-.595-.018-.045.007-.079.037-.124.047-.043.008-.085-.006-.128.005-.179.044-.316.156-.48.226-.209.09-.423.158-.606.285-.18.124-.314.285-.465.44-.149.154-.307.289-.424.467-.119.181-.184.384-.267.585-.081.196-.174.38-.217.592-.044.217-.024.44-.023.665 0 .181-.049.353-.018.538.013.078.039.158.052.236v.012l.013.047c2.07 12.199 7.005 24.845 11.466 34.488-7.086-8.04-13.005-17.303-15.104-22.788-.061-.16-.182-.271-.264-.415-.125-.222-.233-.448-.401-.631-.118-.13-.264-.215-.399-.324-.203-.163-.397-.329-.632-.441-.151-.072-.314-.095-.474-.144-.247-.075-.486-.157-.749-.172-.207-.014-.411.038-.62.065-.193.025-.384 0-.577.06-.037.012-.062.041-.098.054-.036.011-.072.005-.108.018-.182.07-.311.204-.474.3-.191.114-.394.206-.556.352-.167.15-.281.334-.412.512-.124.167-.263.318-.354.504-.096.196-.131.409-.187.619-.055.206-.128.399-.142.615-.015.216.038.431.067.651.025.189-.001.377.058.565 3.641 11.747 12.401 25.723 19.261 35.568-5.717-4.406-9.92-9.172-11.139-10.61l-.392-.471a3.346 3.346 0 0 0-5.191 4.223c.062.078.314.392.732.883 5.02 5.975 10.492 11.551 15.447 16.258l-6.779-2.889a3.34 3.34 0 0 0-4.21 1.405 3.35 3.35 0 0 0 .892 4.354c.66.49 12.665 9.459 23.059 14.76-.981.059-2.131-.013-3.419-.111-1.572-.15-3.118.974-3.501 2.569a3.346 3.346 0 0 0 1.981 3.863c.255.105 3.422 1.412 7.334 2.804a3.34 3.34 0 0 0-1.938 2.131 3.34 3.34 0 0 0 1.53 3.863c.35.203 5.083 2.916 10.936 5.321a3.35 3.35 0 0 0 .906 4.583c1.016.699 23.749 16.127 50.299 16.127 1.742 0 3.504-.065 5.275-.209 1.84-.144 3.216-1.759 3.069-3.602s-1.745-3.236-3.605-3.066c-16.679 1.36-32.747-4.903-42.304-9.688 1.262-.307 1.987-.588 2.167-.66a3.347 3.347 0 0 0-1.19-6.452c-3.88-.078-9.253-1.968-13.881-3.994 1.749-.876 2.768-1.713 2.86-1.785a3.36 3.36 0 0 0 1.088-3.458 3.35 3.35 0 0 0-2.693-2.419c-1.422-.235-3.193-.693-5.05-1.255 1.804-1.039 2.572-2.183 2.867-2.765a3.36 3.36 0 0 0 .029-2.948 3.34 3.34 0 0 0-2.314-1.824c-.876-.19-1.866-.51-2.938-.928a3.354 3.354 0 0 0-.301-5.014c-.069-.052-2.667-2.092-6.599-5.485a3.3 3.3 0 0 0 1.575-1.229 3.34 3.34 0 0 0-.141-3.994c-.074-.092-2.676-3.363-6.261-8.331 1.183.919 2.367 1.858 3.548 2.617a3.4 3.4 0 0 0 1.811.53c.846 0 1.683-.32 2.327-.941.265-.256.472-.551.635-.865 2.03 2.169 4.164 4.139 6.405 5.82.292.219.646.214.975.324a148 148 0 0 0 2.973 4.781c20.324 31.272 48.981 48.023 83.353 49.028-3.165 1.922-6.6 3.908-12.041 6.026-1.187.462-2.236.927-3.292 1.391-.509.1-.987.284-1.386.6-9.495 4.396-13.426 8.738-15.022 11.776-1.592 3.02-.219 6.119 1.726 7.727a3.38 3.38 0 0 0 2.144.752c.529 0 1.059-.118 1.54-.36 1.183-.588 1.974-1.837 1.922-3.151.137-.15.719-.634 2.543-.693 1.33-.111 4.128.19 7.393.451 3.106.256 6.832.546 10.794.75a6686 6686 0 0 1-5.359 6.238 3.34 3.34 0 0 0-.48 3.628 3.37 3.37 0 0 0 3.131 1.902c2.644-.092 4.442-.144 5.622-.17 1.03 1.347 2.291 1.883 3.105 2.092 2.301.588 4.595-.333 6.324-1.425a8.26 8.26 0 0 0 3.651 1.49c2.337.32 4.501-.359 6.066-1.131a8.07 8.07 0 0 0 4.419 1.314h.055c2.612-.013 4.896-1.275 6.514-2.51a8.2 8.2 0 0 0 3.85 1.17c2.396.085 4.383-.837 5.704-1.7 4.716.948 8.782-1.275 11.469-3.726 1.226.713 2.393.889 3.321.843 2.389-.085 4.21-1.536 5.377-2.837 5.347.647 9.184-.34 11.404-2.974 1.209-1.432 1.7-3.046 1.834-4.517 14.836-.085 16.179-8.184 16.287-9.184a3.34 3.34 0 0 0-.771-2.517 3.33 3.33 0 0 0-2.353-1.183l-38.895-2.34c-1.628-.118-3.079.974-3.458 2.563-.007.026-.67 2.497-2.746 4.471-2.792 2.665-7.287 4.074-12.178 4.819a3.3 3.3 0 0 0-.216-1.348c-.667-1.726-2.608-2.563-4.328-1.915-8.03 3.116-21.031 2.724-31.202 2.016 1.561-1.276 3.438-2.537 4.939-3.362a3.35 3.35 0 0 0 1.68-3.556c-.195-1.035-.943-1.755-1.846-2.219 2.829-1.427 5.147-2.807 7.347-4.149 3.818-2.34 7.426-4.543 13.996-6.825 12.682-4.406 27.357-5.746 27.504-5.759.333-.026.66-.111.971-.235.523-.216 41.918-17.558 61.422-57.571a38 38 0 0 1-.827 3.282 3.348 3.348 0 0 0 5.471 3.445c-1.232 3.249-2.347 5.805-3.255 7.315a3.353 3.353 0 0 0 2.124 5.001c-1.51 2.21-3.04 4.301-4.566 6.217a3.35 3.35 0 0 0 .105 4.295c-2.621 2.745-4.945 5.007-6.71 6.445a3.34 3.34 0 0 0-1 3.831c-1.703.974-3.102 1.66-4.073 1.954a3.344 3.344 0 0 0-.978 5.923 104 104 0 0 1-6.717 1.562 3.35 3.35 0 0 0-2.651 2.745 3.35 3.35 0 0 0 1.644 3.445c.105.059 1.248.706 2.997 1.451-6.475 2.608-18.036 6.014-37.006 7.884a3.35 3.35 0 0 0-3 3.661c.18 1.837 1.768 3.112 3.661 3.007 36.012-3.563 47.132-12.577 47.586-12.963a3.35 3.35 0 0 0 1.039-3.582 3.35 3.35 0 0 0-1.647-1.948c11.505-3.621 16.444-7.629 16.702-7.844a3.35 3.35 0 0 0 .749-4.275c-.837-1.419-2.579-2.033-4.099-1.419-.428.163-1.111.333-1.974.503 7.72-5.289 15.918-11.584 19.523-14.395a38 38 0 0 0 1.716-1.347 3.346 3.346 0 0 0-4.226-5.19q-.784.618-1.628 1.275c-1.664 1.236-3.792 2.634-6.112 4.073 8.763-9.949 17.584-20.735 20.104-23.834.229-.281.454-.562.683-.843a3.343 3.343 0 0 0-.507-4.7 3.33 3.33 0 0 0-4.703.497l-.007.007-.003.007c-.062.072-.347.425-.824 1.013a182 182 0 0 1-8.161 9.256c8.926-16.179 15.685-32.103 16.676-34.463l.105-.255a3.34 3.34 0 0 0-1.802-4.37M250.706 356.034l.914.118a15.8 15.8 0 0 0-2.758 3.435c-1.59-.128-3.031-.24-4.161-.291 1.557-1.017 3.561-2.121 6.005-3.262" style="fill:#ffe15a"/></svg>
