<svg xmlns="http://www.w3.org/2000/svg" xml:space="preserve" viewBox="0 0 512 512" width="48" height="48"><path d="M0 400c0 61.856 50.144 112 112 112h288c61.856 0 112-50.144 112-112v-58.667H0z" style="fill:#73af00"/><path d="M400 0H112C50.144 0 0 50.144 0 112v58.667h512V112C512 50.144 461.856 0 400 0" style="fill:#464655"/><path d="M0 170.67h512v170.67H0z" style="fill:#c8414b"/><path d="M0 161.68h512v26.947H0zm0 161.69h512v26.947H0z" style="fill:#f5f5f5"/><path d="M328.147 142.469c10.85-22.371 22.169-74.194 22.169-74.194s-33.69 40.973-44.54 63.344c-2.274 4.689-1.31 10.081 1.976 13.729L184.171 400.142l8.389 4.069 123.581-254.794c4.9.322 9.731-2.259 12.006-6.948" style="fill:#f5f5f5"/><path d="M183.854 142.469c-10.85-22.371-22.169-74.194-22.169-74.194s33.69 40.973 44.54 63.344c2.274 4.689 1.31 10.081-1.976 13.729L327.83 400.142l-8.389 4.069-123.582-254.794c-4.899.322-9.731-2.259-12.005-6.948" style="fill:#f5f5f5"/><path d="M323.368 256c0 74.413-54.966 134.737-67.368 134.737S188.632 330.413 188.632 256 243.598 121.263 256 121.263 323.368 181.587 323.368 256" style="fill:#c8414b"/><path d="M309.895 321.007c7.937-19.28 13.474-41.424 13.474-65.007 0-23.582-5.537-45.727-13.474-65.007-7.937 19.28-13.474 41.424-13.474 65.007 0 23.582 5.537 45.727 13.474 65.007m-107.79-130.014c-7.937 19.28-13.474 41.424-13.474 65.007 0 23.582 5.537 45.727 13.474 65.007 7.937-19.28 13.474-41.424 13.474-65.007 0-23.582-5.537-45.727-13.474-65.007" style="fill:#464655"/><ellipse cx="256" cy="256" rx="13.474" ry="20.21" style="fill:#f5f5f5"/><path d="M258.021 121.263V235.79c3.673-7.647 10.189-30.243 10.189-57.263.001-27.022-6.515-49.617-10.189-57.264m-4.042 0c-3.674 7.647-10.189 30.241-10.189 57.263 0 27.02 6.516 49.616 10.189 57.263zm4.042 154.948v114.526c3.673-7.647 10.189-30.243 10.189-57.263.001-27.022-6.515-49.617-10.189-57.263m-4.042 0c-3.674 7.647-10.189 30.241-10.189 57.263 0 27.02 6.516 49.616 10.189 57.263z" style="fill:#f5f5f5"/></svg>
