<svg xmlns="http://www.w3.org/2000/svg" xml:space="preserve" viewBox="0 0 511.95 511.95" width="48" height="48"><path d="M511.896 399.96V111.99C511.896 50.14 461.757.001 399.907.001h-287.97C51.193.001 1.749 48.364 0 108.685v294.58c1.749 60.321 51.193 108.684 111.937 108.684h287.971c61.849 0 111.988-50.139 111.988-111.989" style="fill:#ff4b55"/><path d="M331.468 260.217c-3.418-2.94-7.294-5.078-11.184-6.643 21.991-4.337 39.677-22.916 39.677-22.916-10.69 4.691-15.66 5.64-32.675.047-4.282-1.407-8.681-1.901-12.874-1.858 18.656-12.423 27.885-36.354 27.885-36.354-8.082 8.424-12.31 11.204-30.17 12.548-4.495.338-8.749 1.567-12.607 3.211 12.484-18.616 11.852-44.258 11.852-44.258-4.243 10.876-7.085 15.061-23.071 23.138-4.023 2.033-7.483 4.796-10.417 7.789 4.408-21.975-5.987-45.424-5.987-45.424.242 11.671-.783 16.626-12.461 30.206-2.939 3.418-5.078 7.294-6.643 11.184-4.337-21.99-22.916-39.676-22.916-39.676 4.69 10.69 5.64 15.659.047 32.675-1.408 4.282-1.902 8.682-1.858 12.874-12.423-18.656-36.354-27.885-36.354-27.885 8.424 8.082 11.204 12.31 12.548 30.17.338 4.495 1.567 8.748 3.211 12.606-18.616-12.483-44.258-11.851-44.258-11.851 10.876 4.243 15.061 7.085 23.138 23.071 2.033 4.024 4.797 7.483 7.791 10.418-21.977-4.41-45.426 5.987-45.426 5.987 11.672-.242 16.627.783 30.207 12.461 3.417 2.939 7.294 5.078 11.183 6.643-21.99 4.336-39.676 22.916-39.676 22.916 10.691-4.69 15.66-5.64 32.676-.047 4.283 1.408 8.682 1.901 12.875 1.857-18.656 12.422-27.887 36.354-27.887 36.354 8.082-8.424 12.311-11.203 30.17-12.548 4.495-.338 8.749-1.567 12.606-3.211-12.483 18.616-11.851 44.259-11.851 44.259 4.243-10.877 7.085-15.062 23.071-23.139 4.023-2.033 7.483-4.797 10.417-7.79-4.409 21.976 5.988 45.425 5.988 45.425-.242-11.672.783-16.627 12.461-30.206 2.939-3.418 5.078-7.294 6.643-11.183 4.337 21.989 22.916 39.676 22.916 39.676-4.69-10.691-5.64-15.66-.047-32.676 1.408-4.282 1.902-8.682 1.858-12.874 12.423 18.656 36.354 27.885 36.354 27.885-8.424-8.082-11.204-12.31-12.548-30.17-.338-4.494-1.567-8.748-3.211-12.605 18.615 12.482 44.259 11.851 44.259 11.851-10.876-4.244-15.061-7.085-23.138-23.072-2.033-4.023-4.796-7.483-7.789-10.417 21.976 4.408 45.424-5.988 45.424-5.988-11.674.242-16.629-.782-30.209-12.46" style="fill:#ffe15a"/><path d="m310.009 266.724 53.743-10.749-53.743-10.749 45.539-30.496-53.766 10.635 30.402-45.601-45.602 30.402 10.636-53.766-30.497 45.538-10.748-53.742-10.748 53.742-30.497-45.538 10.636 53.766-45.602-30.402 30.402 45.601-53.766-10.635 45.539 30.496-53.743 10.749 53.743 10.749-45.539 30.496 53.766-10.636-30.402 45.602 45.602-30.402-10.636 53.765 30.496-45.538 10.749 53.743 10.749-53.743 30.496 45.538-10.636-53.765 45.602 30.402-30.402-45.602 53.766 10.636z" style="fill:#ffd25a"/><path d="M299.747 222.705c33.692 53.921-23.122 110.734-77.042 77.042a33 33 0 0 1-10.502-10.502c-33.692-53.921 23.122-110.734 77.042-77.042a33.04 33.04 0 0 1 10.502 10.502" style="fill:#ffe15a"/><path d="M0 336.813c25.476.043 25.525 13.469 51.083 13.469 25.586 0 25.586-13.473 51.172-13.473 25.607 0 25.607 13.473 51.216 13.473 25.625 0 25.625-13.473 51.251-13.473s25.625 13.473 51.252 13.473c25.569 0 25.569-13.473 51.138-13.473 25.582 0 25.582 13.473 51.164 13.473 25.592 0 25.592-13.473 51.186-13.473 25.592 0 25.592 13.473 51.185 13.473s25.593-13.473 51.187-13.473c.041 0 .075.004.116.004v-40.417c-.041 0-.075-.004-.116-.004-25.593 0-25.593 13.473-51.187 13.473-25.592 0-25.592-13.473-51.185-13.473-25.592 0-25.592 13.473-51.186 13.473-25.581 0-25.581-13.473-51.164-13.473-25.568 0-25.568 13.473-51.138 13.473-25.625 0-25.625-13.473-51.252-13.473-25.625 0-25.625 13.473-51.251 13.473-25.608 0-25.608-13.473-51.216-13.473-25.585 0-25.585 13.473-51.172 13.473-25.558 0-25.606-13.426-51.083-13.469z" style="fill:#41479b"/><path d="M0 377.23c25.476.043 25.525 13.469 51.083 13.469 25.586 0 25.586-13.473 51.172-13.473 25.607 0 25.607 13.473 51.216 13.473 25.625 0 25.625-13.473 51.251-13.473s25.625 13.473 51.252 13.473c25.569 0 25.569-13.473 51.138-13.473 25.582 0 25.582 13.473 51.164 13.473 25.592 0 25.592-13.473 51.186-13.473 25.592 0 25.592 13.473 51.185 13.473s25.593-13.473 51.187-13.473c.041 0 .075.004.116.004v-40.417c-.041 0-.075-.004-.116-.004-25.593 0-25.593 13.473-51.187 13.473-25.592 0-25.592-13.473-51.185-13.473-25.592 0-25.592 13.473-51.186 13.473-25.581 0-25.581-13.473-51.164-13.473-25.568 0-25.568 13.473-51.138 13.473-25.625 0-25.625-13.473-51.252-13.473-25.625 0-25.625 13.473-51.251 13.473-25.608 0-25.608-13.473-51.216-13.473-25.585 0-25.585 13.473-51.172 13.473-25.558 0-25.606-13.426-51.083-13.469zm0-80.834c25.476.043 25.525 13.469 51.083 13.469 25.586 0 25.586-13.473 51.172-13.473 25.607 0 25.607 13.473 51.216 13.473 25.625 0 25.625-13.473 51.251-13.473s25.625 13.473 51.252 13.473c25.569 0 25.569-13.473 51.138-13.473 25.582 0 25.582 13.473 51.164 13.473 25.592 0 25.592-13.473 51.186-13.473 25.592 0 25.592 13.473 51.185 13.473s25.593-13.473 51.187-13.473c.041 0 .075.004.116.004v-40.417c-.041 0-.075-.004-.116-.004-25.593 0-25.593 13.473-51.187 13.473-25.592 0-25.592-13.473-51.185-13.473-25.592 0-25.592 13.473-51.186 13.473-25.581 0-25.581-13.473-51.164-13.473-25.568 0-25.568 13.473-51.138 13.473-25.625 0-25.625-13.473-51.252-13.473-25.625 0-25.625 13.473-51.251 13.473-25.608 0-25.608-13.473-51.216-13.473-25.585 0-25.585 13.473-51.172 13.473-25.558 0-25.606-13.426-51.083-13.469z" style="fill:#f5f5f5"/><path d="M102.256 417.643c25.607 0 25.607 13.473 51.216 13.473 25.625 0 25.625-13.473 51.251-13.473s25.625 13.473 51.252 13.473c25.569 0 25.569-13.473 51.138-13.473 25.582 0 25.582 13.473 51.164 13.473 25.592 0 25.592-13.473 51.186-13.473 25.592 0 25.592 13.473 51.185 13.473 25.134 0 25.602-12.984 49.852-13.45a113 113 0 0 0 1.398-17.704V377.23l-.064-.002c-25.593 0-25.593 13.473-51.187 13.473-25.592 0-25.592-13.473-51.185-13.473-25.592 0-25.592 13.473-51.186 13.473-25.581 0-25.581-13.473-51.164-13.473-25.568 0-25.568 13.473-51.138 13.473-25.625 0-25.625-13.473-51.252-13.473-25.625 0-25.625 13.473-51.251 13.473-25.608 0-25.608-13.473-51.216-13.473-25.585 0-25.585 13.473-51.172 13.473-25.558 0-25.606-13.426-51.083-13.469v26.035c.142 4.888.598 9.695 1.347 14.407 24.123.511 24.642 13.444 49.737 13.444 25.586-.003 25.586-13.475 51.172-13.475" style="fill:#41479b"/><path d="M102.256 458.06c25.607 0 25.607 13.473 51.216 13.473 25.625 0 25.625-13.473 51.251-13.473s25.625 13.473 51.252 13.473c25.569 0 25.569-13.473 51.138-13.473 25.582 0 25.582 13.473 51.164 13.473 25.592 0 25.592-13.473 51.186-13.473 25.592 0 25.592 13.473 51.185 13.473 17.521 0 23.05-6.313 33.006-10.296a111.3 111.3 0 0 0 16.847-43.571c-24.25.466-24.717 13.45-49.852 13.45-25.592 0-25.592-13.473-51.185-13.473-25.592 0-25.592 13.473-51.186 13.473-25.581 0-25.581-13.473-51.164-13.473-25.568 0-25.568 13.473-51.138 13.473-25.625 0-25.625-13.473-51.252-13.473-25.625 0-25.625 13.473-51.251 13.473-25.608 0-25.608-13.473-51.216-13.473-25.585 0-25.585 13.473-51.172 13.473-25.093 0-25.613-12.933-49.737-13.444a111.3 111.3 0 0 0 16.896 43.641c9.847 3.986 15.42 10.22 32.841 10.22 25.585-.001 25.585-13.473 51.171-13.473" style="fill:#f5f5f5"/><path d="M493.651 461.236c-9.955 3.983-15.483 10.296-33.006 10.296-25.592 0-25.592-13.473-51.185-13.473-25.592 0-25.592 13.473-51.186 13.473-25.581 0-25.581-13.473-51.164-13.473-25.568 0-25.568 13.473-51.138 13.473-25.625 0-25.625-13.473-51.252-13.473-25.625 0-25.625 13.473-51.251 13.473-25.608 0-25.608-13.473-51.216-13.473-25.585 0-25.585 13.473-51.172 13.473-17.42 0-22.994-6.234-32.841-10.22 20.009 30.495 54.496 50.637 93.693 50.637h287.971c39.233 0 73.746-20.176 93.747-50.713" style="fill:#41479b"/><path d="M284.025 71.562c65.514-2.534 98.813-31.127 98.813-31.127-4.706 1.809-78.182 7.962-99.175 9.773-13.259 1.142-29.798 16.258-40.214 27.264-2.805-7.621-8.288-15.527-19.147-17.13-22.079-3.258-80.715-6.876-95.193-13.755 0 0 9.345 14.447 57.641 20.994 23.14 3.137 35.898 11.075 41.975 16.476l-5.508-.189-9.41-4.707c-9.411-4.705-18.822 3.258-18.822 3.258h-14.989c-1.877 0-2.949 2.143-1.823 3.645l1.442 1.923a7.8 7.8 0 0 0 6.238 3.119h15.284c5.429 9.411 26.06 19.184 43.073 19.184 17.011 0 69.132-23.165 74.2-23.165l-47.15-1.614z" style="fill:#ffe15a"/></svg>
