<svg xmlns="http://www.w3.org/2000/svg" xml:space="preserve" viewBox="0 0 512 512" width="48" height="48"><path d="M400 0H112C50.144 0 0 50.144 0 112v288c0 61.856 50.144 112 112 112h288c61.856 0 112-50.144 112-112V112C512 50.144 461.856 0 400 0" style="fill:#41479b"/><path d="M267.31 202.483c-5.103-.965-11.31-7.448-9.103-11.035s-1.931-11.586-6.897-8.828c-4.965 2.759-8.276 6.069-12.965 7.173-4.69 1.103-8.552 4.69-4.965 8s9.104 9.931 3.862 16.827-3.586 2.207-9.931 5.241c-6.345 3.035-10.759 9.104-8.827 12.69 1.931 3.586 3.586 4.965-1.931 7.448s-8 .828-12.414 1.931-15.172 6.621-18.483 11.31c-3.31 4.69-10.483.276-13.517-.276-3.035-.552-9.103 1.655-10.483 5.241-1.379 3.586 1.103 6.897 6.345 8.552 5.241 1.655 7.448 1.931 4.965 6.345s-.828 12.965 3.31 15.448 12.138 10.207 12.138 15.448-1.104 12.966 6.621 14.069c7.724 1.104 19.586 4.414 23.724 11.586s5.241 11.31 6.069 15.724c.827 4.414 1.655 8 4.138 12.965 2.483 4.966 4.138 13.517 1.655 15.448s-4.414 3.31-2.483 7.034 2.345 5.104 5.931 3.035 3.586.138 5.517-.276 10.759-3.586 9.104-7.862-5.241-14.069-.138-19.172c5.104-5.104 12-5.931 16.414-9.379s11.724-4 17.379-9.517 11.724-2.207 12.69 1.655 2.483 11.31 6.897 11.172 5.379-.138 6.207-5.517 7.724-17.379 10.483-15.862 5.241.276 5.379-2.069 5.379-4.414 7.586-1.103 7.035 5.931 6.897 1.793-5.793-3.586-5.931-8.138 4.552-7.448 8.69-9.379 1.655-6.896 2.897-9.655 8-6.207 8.276-8.966-1.655-3.862 1.241-4.552 6.483-1.931 4.414-5.103-1.379-5.517.828-7.035 3.242-8.719.023-9.654-9.035 1.766-10.489 3.531-7.374-5.816-10.178-7.685-20.875-.727-20.459-3.843 8-14.488 4.69-16.281-8.552-4.414-12.828-5.793-3.31 3.31-5.655-.414-3.172-16.965-5.793-16.965-4.552 5.517-5.655 3.448.414-16.414-5.655-16.69-6.207 3.31-9.655.69-2.958-1.435-9.935-2.755" style="fill:#ff9b55"/><path d="m229.837 124.013-4.582 13.74-14.483.112c-.794.006-1.123 1.019-.484 1.491l11.651 8.604-4.369 13.809c-.24.757.622 1.383 1.268.922l11.783-8.422 11.783 8.422c.646.462 1.508-.165 1.268-.922l-4.369-13.809 11.651-8.604c.639-.472.31-1.485-.484-1.491l-14.483-.112-4.582-13.74c-.252-.753-1.317-.753-1.568 0m51.034 0-4.582 13.74-14.483.112c-.794.006-1.123 1.019-.484 1.491l11.651 8.604-4.369 13.809c-.239.757.622 1.383 1.268.922l11.783-8.422 11.783 8.422c.646.462 1.508-.165 1.269-.922l-4.369-13.809 11.651-8.604c.639-.472.31-1.485-.484-1.491l-14.483-.112-4.582-13.74c-.252-.753-1.318-.753-1.569 0m-101.379 8.414-4.582 13.74-14.483.112c-.794.006-1.123 1.02-.484 1.491l11.651 8.604-4.369 13.809c-.24.757.622 1.383 1.268.922l11.783-8.422 11.783 8.422c.646.462 1.508-.165 1.269-.922l-4.369-13.809 11.651-8.604c.639-.472.309-1.485-.484-1.491l-14.483-.112-4.582-13.74c-.252-.753-1.318-.753-1.569 0m-47.633 17.313-4.582 13.74-14.483.112c-.794.006-1.123 1.02-.485 1.491l11.651 8.604-4.369 13.809c-.24.757.622 1.383 1.269.922l11.783-8.422 11.783 8.422c.646.462 1.508-.165 1.268-.922l-4.369-13.809 11.651-8.604c.639-.472.31-1.485-.485-1.491l-14.483-.112-4.582-13.74c-.25-.753-1.316-.753-1.567 0m200.788-17.313 4.582 13.74 14.483.112c.794.006 1.123 1.02.484 1.491l-11.651 8.604 4.369 13.809c.24.757-.622 1.383-1.268.922l-11.783-8.422-11.783 8.422c-.646.462-1.508-.165-1.268-.922l4.369-13.809-11.651-8.604c-.639-.472-.31-1.485.484-1.491l14.483-.112 4.582-13.74c.251-.753 1.317-.753 1.568 0m47.633 17.313 4.582 13.74 14.483.112c.794.006 1.123 1.02.484 1.491l-11.651 8.604 4.369 13.809c.239.757-.623 1.383-1.269.922l-11.783-8.422-11.783 8.422c-.646.462-1.508-.165-1.268-.922l4.369-13.809-11.651-8.604c-.639-.472-.309-1.485.485-1.491l14.483-.112 4.582-13.74c.251-.753 1.317-.753 1.568 0" style="fill:#f5f5f5"/></svg>
