<svg xmlns="http://www.w3.org/2000/svg" xml:space="preserve" viewBox="0 0 512 512" width="48" height="48"><path d="M400 0H112C50.144 0 0 50.144 0 112v58.667h512V112C512 50.144 461.856 0 400 0" style="fill:#73af00"/><path d="M0 400c0 61.856 50.144 112 112 112h288c61.856 0 112-50.144 112-112v-58.667H0z" style="fill:#ff4b55"/><path d="M0 170.67h512v170.67H0z" style="fill:#f5f5f5"/><path d="M141.238 170.433 29.79 35.948C11.304 55.921 0 82.638 0 112v288c0 29.362 11.304 56.079 29.79 76.052l111.451-134.489z" style="fill:#464655"/></svg>
