<svg xmlns="http://www.w3.org/2000/svg" xml:space="preserve" viewBox="0 0 512.001 512.001" width="48" height="48"><path d="M400 .001H112C51.5.001 2.212 47.973.081 107.953H511.92C509.788 47.973 460.5.001 400 .001M112 512h288c60.5 0 109.788-47.972 111.919-107.952H.081C2.212 464.03 51.5 512 112 512" style="fill:#ff4b55"/><path d="M.081 107.953A113 113 0 0 0 0 112.001v288c0 1.356.033 2.704.081 4.048H511.92c.048-1.344.081-2.692.081-4.048v-288c0-1.356-.033-2.704-.081-4.048z" style="fill:#41479b"/><circle cx="256" cy="256.001" r="92.21" style="fill:#f5f5f5"/></svg>
