<svg xmlns="http://www.w3.org/2000/svg" xml:space="preserve" viewBox="0 0 512.001 512.001" width="48" height="48"><path d="M400 0H112C51.555 0 2.302 47.885.087 107.789h511.827C509.698 47.885 460.445 0 400 0M112 512h288c60.445 0 109.698-47.886 111.913-107.79H.087C2.302 464.115 51.555 512 112 512" style="fill:#ff4b55"/><path d="M.087 107.789C.035 109.187 0 110.589 0 112v288c0 1.411.035 2.813.087 4.21h511.827c.052-1.398.087-2.8.087-4.21V112c0-1.411-.035-2.813-.087-4.211z" style="fill:#f5f5f5"/><path d="m284.79 346.632 124.519-24.904c8.986-1.797 12.998-12.375 7.465-19.679a12.42 12.42 0 0 0-7.987-4.772l-132.654-20.683a6.787 6.787 0 0 1-5.647-7.822c.597-3.685 4.331-6.032 8.032-5.545l91.975 12.102c7.475.984 12.06-7.949 6.904-13.449l-7.383-7.875a19.2 19.2 0 0 0-10.357-5.718l-76.833-14.879 65.511 4.719c5.022.362 7.931-5.574 4.568-9.322l-3.359-3.743a14.27 14.27 0 0 0-7.705-4.439l-65.041-13.592 46.224-1.338c4.087-.118 6.166-4.964 3.435-8.007l-2.073-2.309a12.94 12.94 0 0 0-6.06-3.795l-41.225-11.836h32.398c3.205 0 5.361-3.284 4.086-6.224L312.491 171a11.7 11.7 0 0 0-6.96-6.417L275.57 154.39l14.735-.048c4.379-.014 7.316-4.503 5.575-8.521a15.33 15.33 0 0 0-7.01-7.514L256 121.263l-32.867 17.04a15.33 15.33 0 0 0-7.01 7.514c-1.741 4.018 1.195 8.507 5.574 8.521l14.735.048-29.961 10.193a11.7 11.7 0 0 0-6.96 6.417l-1.092 2.521c-1.274 2.941.881 6.224 4.086 6.224h32.397l-41.225 11.836a12.95 12.95 0 0 0-6.06 3.795l-2.073 2.309c-2.731 3.043-.652 7.889 3.435 8.007l46.224 1.338-65.041 13.592a14.28 14.28 0 0 0-7.705 4.439l-3.359 3.743c-3.363 3.747-.454 9.683 4.568 9.322l65.511-4.719-76.833 14.879A19.2 19.2 0 0 0 141.987 254l-7.383 7.875c-5.157 5.501-.572 14.433 6.904 13.449l91.975-12.102c3.701-.487 7.435 1.86 8.032 5.545a6.786 6.786 0 0 1-5.647 7.822l-132.653 20.683a12.42 12.42 0 0 0-7.987 4.772c-5.534 7.305-1.522 17.882 7.465 19.679l124.519 24.904v15.54c0 8.484-3.37 16.62-9.369 22.619l-19.42 19.42h115.156l-19.42-19.42a32 32 0 0 1-9.369-22.619z" style="fill:#73af00"/></svg>
