<svg xmlns="http://www.w3.org/2000/svg" xml:space="preserve" viewBox="0 0 512 512" width="48" height="48"><path d="M0 400c0 61.856 50.144 112 112 112h288c61.856 0 112-50.144 112-112v-58.667H0z" style="fill:#73af00"/><path d="M400 0H112C50.144 0 0 50.144 0 112v58.667h512V112C512 50.144 461.856 0 400 0" style="fill:#41479b"/><path d="M0 170.67h512v170.67H0z" style="fill:#f5f5f5"/><path d="m302.518 286.394-3.133 1.595c-.427.217-.887.404-1.321.614l-27.668-34.949c5.687-12.362 9.058-29.234 9.058-36.903 0-12.602-8.27-23.102-19.151-25.324a4.68 4.68 0 0 0-4.281-2.795 4.68 4.68 0 0 0-4.281 2.795c-10.881 2.222-19.151 12.722-19.151 25.324 0 7.669 3.371 24.541 9.058 36.903l-27.667 34.948c-.432-.209-.889-.395-1.313-.611l-3.133-1.595-11.689 22.977 3.133 1.593c15.951 8.114 34.984 12.403 55.043 12.403 20.061 0 39.098-4.291 55.053-12.405l3.133-1.593zm-27.75-69.643c0 5.7-2.117 17.684-6.04 28.668a86 86 0 0 1-1.589 4.12l-4.087-5.162v-18.253h7.03l-9.373-9.373v-20.395c8.071 2.35 14.059 10.589 14.059 20.395m-31.452 28.668c-3.923-10.984-6.04-22.968-6.04-28.668 0-9.806 5.988-18.045 14.06-20.395v20.395l-9.373 9.373h7.03v18.253l-4.087 5.162a85 85 0 0 1-1.59-4.12m-31.514 52.023.957 3.937-3.436.937zm-4.091 8.957 5.878-1.603 1.08 4.442c-2.37-.876-4.702-1.807-6.958-2.839m8.914-8.956a94 94 0 0 0 8.316 2.823l.846 2.592-7.401 1.826zm3.303 13.587-.712-2.929 7.664-1.891 2.376 7.283c-3.18-.694-6.29-1.519-9.328-2.463m10.403-9.353c2.941.686 5.936 1.276 8.993 1.723l1.273 2.277-8.134 2.535zm4.186 12.829-.963-2.952 8.796-2.742 3.986 7.13c-4.01-.297-7.955-.774-11.819-1.436m10.565-10.414c3.61.342 7.265.53 10.939.53.783 0 1.561-.043 2.342-.059l.979 1.501-10.813 4.193zm10.94 12.247c-1.393 0-2.769-.059-4.15-.103l-1.61-2.88 11.044-4.282 4.476 6.863c-3.221.24-6.468.402-9.76.402m7.782-12.01c3.716-.25 7.386-.672 10.987-1.268l1.054 1.347-8.56 5.259zm7.245 11.11-1.844-2.828 8.818-5.418 4.903 6.268c-3.869.85-7.835 1.506-11.877 1.978m8.924-13.36a103 103 0 0 0 8.971-2.345l1.091 1.412-6.223 5.84zm7.966 10.184-1.953-2.497 6.207-5.825 4.327 5.604c-2.797 1.006-5.646 1.933-8.581 2.718m5.687-14.134c1.974-.732 3.914-1.504 5.779-2.351l.917 1.801-2.994 5.342zm7.458 9.656-1.421-1.84 2.577-4.596 2.485 4.884c-1.19.551-2.419 1.046-3.641 1.552" style="fill:#464655"/></svg>
