<svg xmlns="http://www.w3.org/2000/svg" xml:space="preserve" viewBox="0 0 512 512" width="48" height="48"><path d="M400 0H112C74.581 0 41.454 18.354 21.115 46.545h469.77C470.546 18.354 437.418 0 400 0" style="fill:#ff4b55"/><path d="M490.885 46.545H21.115A111.4 111.4 0 0 0 1.597 93.091h508.805c-2.918-17.161-9.737-32.99-19.517-46.546" style="fill:#f5f5f5"/><path d="M1.597 93.091A113 113 0 0 0 0 112v27.637h512V112c0-6.446-.552-12.761-1.597-18.909z" style="fill:#ff4b55"/><path d="M0 139.64h512v46.545H0z" style="fill:#f5f5f5"/><path d="M0 215.579h13.471l.003 17.148H512v-46.545H0z" style="fill:#ff4b55"/><path d="M13.471 215.579H0v63.694h512v-46.546H13.474z" style="fill:#f5f5f5"/><path d="M0 279.27h512v46.546H0z" style="fill:#ff4b55"/><path d="M0 325.82h512v46.545H0z" style="fill:#f5f5f5"/><path d="M0 400c0 6.446.552 12.762 1.597 18.909h508.805A112.6 112.6 0 0 0 512 400v-27.636H0z" style="fill:#ff4b55"/><path d="M21.115 465.455h469.77a111.4 111.4 0 0 0 19.518-46.545H1.597a111.4 111.4 0 0 0 19.518 46.545" style="fill:#f5f5f5"/><path d="M112 512h288c37.418 0 70.546-18.354 90.885-46.545H21.115C41.454 493.646 74.581 512 112 512" style="fill:#ff4b55"/><path d="M229.053 0H112C50.144 0 0 50.144 0 112v120.727h229.053z" style="fill:#41479b"/><path d="M110.677 60.23 97.813 98.801l-40.658.315c-3.899.03-5.516 5.006-2.379 7.322l32.708 24.153-12.264 38.765c-1.176 3.717 3.057 6.793 6.229 4.525l33.078-23.643 33.078 23.643c3.172 2.267 7.405-.808 6.229-4.525l-12.264-38.765 32.708-24.153c3.136-2.316 1.52-7.292-2.379-7.322l-40.658-.315-12.864-38.57c-1.235-3.7-6.467-3.7-7.7-.001" style="fill:#f5f5f5"/></svg>
