<svg xmlns="http://www.w3.org/2000/svg" xml:space="preserve" viewBox="0 0 512 512" width="48" height="48"><path d="M0 400c0 61.856 50.144 112 112 112h288c61.856 0 112-50.144 112-112v-22.737H0z" style="fill:#73af00"/><path d="M400 0H112C50.144 0 0 50.144 0 112v22.737h512V112C512 50.144 461.856 0 400 0" style="fill:#ff4b55"/><path d="M0 134.74h512v242.53H0z" style="fill:#464655"/><path d="m332.405 212.395 20.278 26.527 31.663-10.598c1.771-.593 3.276 1.41 2.216 2.946L367.6 258.752l19.864 26.838c1.111 1.501-.328 3.552-2.117 3.018l-31.997-9.542-19.386 27.185c-1.084 1.52-3.479.786-3.525-1.081l-.813-33.379-31.845-10.037c-1.781-.561-1.822-3.066-.061-3.686l31.495-11.088-.295-33.388c-.018-1.866 2.351-2.68 3.485-1.197" style="fill:#f5f5f5"/><path d="M277.369 321.475c-36.132 0-65.442-29.31-65.442-65.475 0-36.098 29.31-65.474 65.442-65.474 13.443 0 25.841 4.135 36.171 11.132 1.582 1.072 3.388-1.007 2.063-2.385-15.44-16.053-37.294-25.846-61.523-25.02-41.628 1.421-76.089 34.796-78.749 76.363-3.047 47.612 34.653 87.179 81.591 87.179 23.121 0 43.9-9.666 58.74-25.121 1.311-1.365-.499-3.413-2.066-2.351-10.343 7.012-22.76 11.152-36.227 11.152" style="fill:#f5f5f5"/></svg>
