<svg xmlns="http://www.w3.org/2000/svg" xml:space="preserve" viewBox="0 0 512 512" width="48" height="48"><path d="M400 0h-58.667v512H400c61.856 0 112-50.144 112-112V112C512 50.144 461.856 0 400 0" style="fill:#41479b"/><path d="M170.67 0h170.67v512H170.67z" style="fill:#ffe15a"/><path d="M112 0C50.144 0 0 50.144 0 112v288c0 61.856 50.144 112 112 112h58.667V0z" style="fill:#41479b"/><path d="M300.138 233.931h-22.069v-22.069l13.241-17.655h-70.62l13.241 17.655v22.069h-22.069l-17.655-13.241v70.62l17.655-13.241h22.069v22.069l-13.241 17.655h70.62l-13.241-17.655v-22.069h22.069l17.655 13.241v-70.62z" style="fill:#ff4b55"/><path d="M300.138 247.172h-35.31v-35.31h-17.656v35.31h-35.31v17.656h35.31v35.31h17.656v-35.31h35.31z" style="fill:#f5f5f5"/></svg>
