<svg xmlns="http://www.w3.org/2000/svg" xml:space="preserve" viewBox="0 0 512 512" width="48" height="48"><path d="M0 400c0 61.856 50.144 112 112 112h288c61.856 0 112-50.144 112-112v-58.667H0z" style="fill:#73af00"/><path d="M400 0H112C50.144 0 0 50.144 0 112v58.667h512V112C512 50.144 461.856 0 400 0" style="fill:#464655"/><path d="M0 170.67h512v170.67H0zm360.681-16.096C339.651 118.572 300.702 94.316 256 94.316s-83.651 24.257-104.681 60.258zm-97.72-117.521c0 6.046-6.961 43.789-6.961 43.789s-6.961-37.743-6.961-43.789 3.117-10.947 6.961-10.947c3.845-.001 6.961 4.901 6.961 10.947m123.901 57.088c-4.275 4.275-35.886 26.041-35.886 26.041s21.766-31.611 26.041-35.886 9.945-5.537 12.663-2.818 1.457 8.388-2.818 12.663m-251.879-9.845c4.275 4.275 26.041 35.886 26.041 35.886s-31.611-21.766-35.886-26.041-5.537-9.945-2.818-12.663 8.388-1.457 12.663 2.818m59.291-36.35c2.314 5.586 10.326 43.12 10.326 43.12s-20.875-32.206-23.189-37.792-1.31-11.307 2.242-12.778 8.307 1.864 10.621 7.45m136.315 5.328C328.276 58.86 307.4 91.066 307.4 91.066s8.012-37.534 10.326-43.12 7.069-8.921 10.621-7.45 4.556 7.192 2.242 12.778m-103.17-14.051c1.202 5.925 1.882 44.299 1.882 44.299s-14.325-35.606-15.527-41.532.878-11.348 4.646-12.113c3.769-.763 7.798 3.421 8.999 9.346m132.776 31.321c-3.34 5.04-29.994 32.655-29.994 32.655s15.048-35.307 18.388-40.347 8.646-7.403 11.85-5.279c3.206 2.124 3.096 7.931-.244 12.971m-248.809 40.419c5.04 3.34 32.655 29.994 32.655 29.994s-35.307-15.048-40.346-18.388c-5.04-3.34-7.403-8.646-5.279-11.851s7.93-3.095 12.97.245m50.882-47.41c3.378 5.014 18.691 40.207 18.691 40.207s-26.861-27.414-30.238-32.429c-3.378-5.014-3.531-10.821-.343-12.969s8.512.176 11.89 5.191m245.337 57.872c-5.014 3.378-40.207 18.691-40.207 18.691s27.414-26.86 32.429-30.238c5.014-3.378 10.821-3.531 12.969-.343s-.176 8.513-5.191 11.89M296.922 41.678c-1.157 5.934-15.214 41.648-15.214 41.648s.391-38.378 1.549-44.312 5.154-10.148 8.928-9.413 5.895 6.143 4.737 12.077m4.149 1.031c-1.756 5.785-6.058 43.924-6.058 43.924s17.624-34.094 19.38-39.88c1.756-5.785.197-11.381-3.482-12.497-3.678-1.117-8.084 2.668-9.84 8.453M165.93 61.348c2.849 5.333 26.775 35.342 26.775 35.342s-11.646-36.57-14.495-41.903-7.908-8.187-11.299-6.375-3.83 7.604-.981 12.936m243.88 63.74c-5.333 2.849-35.342 26.775-35.342 26.775s36.57-11.646 41.903-14.495 8.187-7.908 6.375-11.299-7.604-3.83-12.936-.981m-46.177-52.004c-3.836 4.673-22.406 38.262-22.406 38.262s29.33-24.754 33.166-29.427 4.538-10.439 1.566-12.878c-2.97-2.44-8.489-.63-12.326 4.043m-249.707 34.44c4.673 3.836 38.262 22.405 38.262 22.405s-24.754-29.33-29.427-33.166-10.439-4.538-12.878-1.566-.63 8.491 4.043 12.327m117.721-68.936c.592 6.017 11.212 42.898 11.212 42.898s3.235-38.243 2.644-44.261c-.592-6.017-4.173-10.59-7.999-10.214-3.826.377-6.449 5.56-5.857 11.577m35.13-1.345c-.601 6.016 2.574 44.264 2.574 44.264s10.679-36.865 11.28-42.881-2.013-11.203-5.839-11.585-7.414 4.186-8.015 10.202M137.815 81.732c3.829 4.679 33.12 29.48 33.12 29.48s-18.516-33.618-22.345-38.297-9.345-6.498-12.32-4.063-2.284 8.201 1.545 12.88m251.61 15.241c-4.679 3.829-29.479 33.12-29.479 33.12s33.618-18.516 38.297-22.345 6.498-9.345 4.063-12.321-8.202-2.283-12.881 1.546M334.042 54.91c-2.858 5.328-14.561 41.88-14.561 41.88s23.973-29.972 26.831-35.3 2.427-11.121-.961-12.938c-3.389-1.816-8.452 1.03-11.309 6.358m-238.29 82.206c5.328 2.857 41.88 14.561 41.88 14.561s-29.972-23.973-35.3-26.831c-5.328-2.857-11.121-2.427-12.938.961s1.03 8.452 6.358 11.309m102.119-90.454c1.747 5.788 19.318 39.91 19.318 39.91s-4.242-38.145-5.989-43.933-6.147-9.58-9.828-8.469-5.248 6.703-3.501 12.492" style="fill:#ff4b55"/></svg>
