<svg xmlns="http://www.w3.org/2000/svg" xml:space="preserve" viewBox="0 0 512 512" width="48" height="48"><path d="M400 0H112C79.199 0 49.693 14.102 29.209 36.571H482.79C462.307 14.102 432.801 0 400 0" style="fill:#ff4b55"/><path d="M482.791 36.571H29.209A112 112 0 0 0 6.928 73.143h498.143a112 112 0 0 0-22.28-36.572" style="fill:#f5f5f5"/><path d="M505.072 73.143H6.928C2.7 84.571.286 96.878.029 109.714h511.942c-.257-12.836-2.671-25.143-6.899-36.571" style="fill:#ff4b55"/><path d="M.029 109.714C.014 110.475 0 111.236 0 112v34.286h512V112c0-.764-.014-1.525-.029-2.286z" style="fill:#f5f5f5"/><path d="M0 146.29h512v36.571H0z" style="fill:#ff4b55"/><path d="M0 182.86h512v36.571H0z" style="fill:#f5f5f5"/><path d="M0 219.43h512v36.571H0z" style="fill:#ff4b55"/><path d="M0 269.474h13.474l.003 23.098H512V256H0z" style="fill:#f5f5f5"/><path d="M13.474 269.474H0v59.669h512v-36.571H13.477z" style="fill:#ff4b55"/><path d="M0 329.14h512v36.571H0z" style="fill:#f5f5f5"/><path d="M0 400c0 .764.014 1.525.029 2.286h511.942c.015-.761.029-1.521.029-2.286v-34.286H0z" style="fill:#ff4b55"/><path d="M6.928 438.857h498.143c4.228-11.428 6.642-23.735 6.899-36.571H.029c.257 12.836 2.671 25.143 6.899 36.571" style="fill:#f5f5f5"/><path d="M29.209 475.429H482.79a112 112 0 0 0 22.281-36.571H6.928a112 112 0 0 0 22.281 36.571" style="fill:#ff4b55"/><path d="M112 512h288c32.801 0 62.307-14.102 82.791-36.571H29.209C49.693 497.898 79.199 512 112 512" style="fill:#f5f5f5"/><path d="M292.571 0h-180.59C50.134.011 0 50.151 0 112v180.571h292.571z" style="fill:#41479b"/><path d="M62.745 146.139c0-43.482 35.293-78.754 78.735-78.754a78.3 78.3 0 0 1 30.789 6.27c1.229.523 2.154-1.187 1.05-1.938-15.662-10.662-34.814-16.502-55.357-15.435-45.165 2.348-82.096 38.726-85.016 83.858-3.396 52.496 38.145 95.984 89.809 95.984 18.67 0 36.026-5.753 50.439-15.507 1.11-.751.19-2.465-1.044-1.942a78.3 78.3 0 0 1-30.67 6.22c-43.442 0-78.735-35.272-78.735-78.756" style="fill:#ffe15a"/><path d="m242.731 146.139 33.286-12.88c1.646-.637 1.085-3.094-.674-2.953l-35.565 2.848 24.441-26.126c1.205-1.288-.365-3.257-1.889-2.368l-30.889 18.02 10.661-34.09c.526-1.683-1.743-2.775-2.729-1.313L219.376 116.9l-5.13-35.357c-.253-1.746-2.773-1.748-3.029-.002l-3.277 22.372-1.36 9.467-.523 3.52-19.997-29.597c-.988-1.462-3.257-.368-2.728 1.315l10.701 34.062-30.887-18.02c-1.524-.889-3.094 1.079-1.889 2.368l24.44 26.126-35.574-2.848c-1.76-.141-2.321 2.317-.674 2.953l33.316 12.879-33.317 12.882c-1.646.637-1.086 3.094.674 2.953l35.575-2.848-24.441 26.192c-1.204 1.29.37 3.256 1.892 2.365l30.885-18.083-10.701 34.062c-.529 1.683 1.741 2.778 2.728 1.316l19.996-29.598.523 3.603 1.36 9.384 3.277 22.431c.255 1.747 2.776 1.745 3.029-.002l5.13-35.416 19.997 29.623c.987 1.462 3.256.37 2.729-1.313l-10.661-34.09 30.887 18.083c1.522.891 3.096-1.075 1.892-2.365l-24.442-26.192 35.566 2.848c1.759.141 2.321-2.316.674-2.953z" style="fill:#ffe15a"/></svg>
