<svg xmlns="http://www.w3.org/2000/svg" xml:space="preserve" viewBox="0 0 512 512" width="48" height="48"><path d="M400 0H112C50.144 0 0 50.144 0 112v288c0 61.856 50.144 112 112 112h288c61.856 0 112-50.144 112-112V112C512 50.144 461.856 0 400 0" style="fill:#ff4b55"/><path d="M404.211 107.789V404.21H107.789V107.789z" style="fill:#73af00"/><path d="M229.102 256.04c0-51.016 34.75-93.742 81.791-106.117 1.566-.412 1.453-2.677-.152-2.884-4.268-.548-8.608-.864-13.025-.864-60.725 0-109.883 49.15-109.883 109.865 0 60.452 49.158 109.736 109.883 109.736 4.423 0 8.768-.318 13.041-.869 1.605-.207 1.717-2.471.153-2.883-47.05-12.395-81.808-55.182-81.808-105.984" style="fill:#f5f5f5"/></svg>
