<svg xmlns="http://www.w3.org/2000/svg" xml:space="preserve" viewBox="0 0 512 512" width="48" height="48"><path d="M400 0H112C50.144 0 0 50.144 0 112v288c0 61.856 50.144 112 112 112h288c61.856 0 112-50.144 112-112V112C512 50.144 461.856 0 400 0" style="fill:#41479b"/><path d="M29.23 475.45a113 113 0 0 0 11.415 10.879L512 188.632V112c0-5.677-.426-11.254-1.241-16.704z" style="fill:#f5f5f5"/><path d="M478.298 31.928 20.94 465.215a113 113 0 0 0 8.29 10.236L510.759 95.296c-3.69-24.675-15.431-46.713-32.461-63.368" style="fill:#ff9b55"/><path d="m176.42 146.853 57.132-7.134-57.132-7.134 28.955-17.76-36.026 8.809 21.925-29.913-29.913 21.925 8.809-36.027-17.759 28.956-7.135-57.132-7.135 57.132-17.759-28.956 8.809 36.027-29.913-21.925 21.925 29.913-36.027-8.809 28.956 17.76L57 139.719l57.131 7.134-28.955 17.76 36.027-8.809-21.925 29.913 29.913-21.925-8.809 36.026 17.759-28.955 7.135 57.132 7.135-57.132 17.759 28.955-8.809-36.026 29.913 21.925-21.925-29.913 36.026 8.809z" style="fill:#f5f5f5"/></svg>
