<svg xmlns="http://www.w3.org/2000/svg" xml:space="preserve" viewBox="0 0 512 512" width="48" height="48"><path d="M400 0H112C50.144 0 0 50.144 0 112v288c0 61.856 50.144 112 112 112h288c61.856 0 112-50.144 112-112V112C512 50.144 461.856 0 400 0" style="fill:#73af00"/><path d="M351.048 224.98c-.236-1.509-2.424-1.433-2.596.084-5.265 46.402-44.626 82.453-92.452 82.453-47.811 0-87.184-36.05-92.453-82.451-.172-1.517-2.359-1.593-2.596-.084a92.4 92.4 0 0 0-1.132 14.315c0 53.067 43.07 96.151 96.18 96.151 53.127 0 96.179-43.083 96.179-96.151a92 92 0 0 0-1.13-14.317" style="fill:#ffe15a"/><path d="m254.81 185.266-6.955 20.855-21.983.17c-1.205.009-1.705 1.547-.735 2.263l17.684 13.059-6.631 20.96c-.364 1.149.945 2.1 1.925 1.399L256 231.189l17.885 12.783c.98.701 2.289-.25 1.925-1.399l-6.631-20.96 17.685-13.059c.97-.716.47-2.254-.735-2.263l-21.983-.17-6.955-20.855c-.382-1.143-2-1.143-2.381 0" style="fill:#ffe15a"/></svg>
