<svg xmlns="http://www.w3.org/2000/svg" xml:space="preserve" viewBox="0 0 512 512" width="48" height="48"><path d="M112 0C50.144 0 0 50.144 0 112v288c0 61.856 50.144 112 112 112h58.667V0z" style="fill:#73af00"/><path d="M170.67 0h170.67v512H170.67z" style="fill:#f5f5f5"/><path d="M400 0h-58.667v512H400c61.856 0 112-50.144 112-112V112C512 50.144 461.856 0 400 0" style="fill:#ff4b55"/><path d="M271.225 263.896 256 271.509v7.613h7.613z" style="fill:#ffd250"/><path d="M256 298.154a3.803 3.803 0 0 1-3.806-3.806v-15.226c0-2.104 1.702-3.806 3.806-3.806s3.806 1.702 3.806 3.806v15.226a3.804 3.804 0 0 1-3.806 3.806" style="fill:#00c3a0"/><path d="M256 282.928c-14.95 0-29.388-5.769-40.655-16.244a3.807 3.807 0 0 1-.197-5.379 3.82 3.82 0 0 1 5.379-.197c9.854 9.163 22.452 14.207 35.473 14.207s25.619-5.044 35.473-14.207a3.807 3.807 0 0 1 5.182 5.576c-11.267 10.475-25.705 16.244-40.655 16.244" style="fill:#00c3a0"/><path d="M256 298.154a49.26 49.26 0 0 1-27.336-8.248l4.215-6.341c13.739 9.129 32.503 9.129 46.242 0l4.215 6.341A49.26 49.26 0 0 1 256 298.154" style="fill:#00aadc"/><path d="m249.973 246.768-8.405 13.005-1.428 4.282 21.887-5.075z" style="fill:#732d37"/><path d="M232.704 268.238c-10.062 0-22.139-8.468-25.344-27.336l7.509-1.271c2.661 15.69 12.315 21.006 18.11 20.991 1.777-.048 3.632-.662 3.777-1.918.171-1.502.212-1.859-3.769-3.204-2.163-.732-4.617-1.561-6.338-3.531-6.962-7.951 2.464-16.367 6.992-20.411.799-.714 1.13-1.32 1.045-1.55-.249-.65-1.743-1.635-3.427-1.635-4.836 0-8.505-2.732-9.572-7.126-1.108-4.55.985-9.345 4.97-11.404l3.494 6.765c-.933.483-1.305 1.859-1.067 2.84.093.394.32 1.312 2.174 1.312 4.661 0 9.096 2.751 10.538 6.535.617 1.613 1.546 5.806-3.085 9.943-5 4.464-7.992 7.825-6.334 9.717.375.427 1.985.974 3.048 1.331 3.427 1.16 9.806 3.316 8.891 11.289-.572 5.014-5.048 8.494-11.129 8.657-.159.002-.323.006-.483.006" style="fill:#aad264"/><path d="M263.613 225.833s7.613-15.225-7.613-22.838c0 0 53.289-7.613 45.676 60.902l-.004-.003c-4.996-3.997-12.414-11.301-15.063-17.125l-22.997-13.323v-7.613z" style="fill:#874150"/><path d="m256 241.058 38.064 22.838-15.225 7.613L256 248.671z" style="fill:#732d37"/><path d="M240.775 218.22a7.613 7.613 0 0 1 7.613 7.613l-.008.008a14.92 14.92 0 0 0-2.795 17.224l1.72 3.441a15 15 0 0 0 2.795 3.878l21.126 21.126v-10.521a84.4 84.4 0 0 0-8.913-37.756 22.84 22.84 0 0 0-20.427-12.625h-1.111z" style="fill:#783c46"/><path d="m240.775 210.607-7.613 7.613v7.613s9.056-4.592 12.108-6.054c2.133-1.022 1.745-3.44.521-4.604-.953-.906-5.016-4.568-5.016-4.568" style="fill:#ffd250"/><path d="M256 313.379c-35.681 0-64.708-29.027-64.708-64.708h7.613c0 31.484 25.611 57.096 57.096 57.096s57.096-25.611 57.096-57.096h7.613c-.002 35.681-29.029 64.708-64.71 64.708" style="fill:#aad264"/><circle cx="199.31" cy="271.26" r="5.167" style="fill:#ffe15a"/><circle cx="210.73" cy="289.5" r="5.167" style="fill:#ffe15a"/><circle cx="229.29" cy="303.3" r="5.167" style="fill:#ffe15a"/><circle cx="313.23" cy="271.26" r="5.167" style="fill:#ffe15a"/><circle cx="301.81" cy="289.5" r="5.167" style="fill:#ffe15a"/><circle cx="283.25" cy="303.3" r="5.167" style="fill:#ffe15a"/><path d="M259.806 301.96h-7.613a7.613 7.613 0 0 1 0-15.226h7.613a7.613 7.613 0 0 1 7.613 7.613 7.61 7.61 0 0 1-7.613 7.613" style="fill:#ffb478"/><path d="M286.61 246.768c2.538 7.454 7.93 14.274 15.063 17.125l.004.003C309.289 195.382 256 202.994 256 202.994c38.064 0 30.61 43.774 30.61 43.774" style="fill:#9b4b5a"/></svg>
