<svg xmlns="http://www.w3.org/2000/svg" xml:space="preserve" viewBox="0 0 512 512" width="48" height="48"><path d="M400 0H112C50.144 0 0 50.144 0 112v288c0 61.856 50.144 112 112 112h288c61.856 0 112-50.144 112-112V112C512 50.144 461.856 0 400 0" style="fill:#82afff"/><path d="m254.837 136.569-6.801 20.392-21.495.167c-1.178.009-1.667 1.513-.719 2.213l17.292 12.769-6.484 20.495c-.355 1.124.924 2.053 1.883 1.368l17.488-12.5 17.488 12.5c.959.685 2.238-.244 1.883-1.368l-6.484-20.495 17.292-12.769c.948-.7.459-2.204-.719-2.213l-21.495-.167-6.801-20.392c-.374-1.118-1.956-1.118-2.328 0m0 182.062-6.801 20.392-21.495.167c-1.178.009-1.667 1.513-.719 2.213l17.292 12.769-6.484 20.495c-.355 1.124.924 2.053 1.883 1.368l17.488-12.5 17.488 12.5c.959.685 2.238-.244 1.883-1.368l-6.484-20.495 17.292-12.77c.948-.7.459-2.204-.719-2.213l-21.495-.167-6.801-20.392c-.374-1.117-1.956-1.117-2.328.001m120.594-63.795-20.392-6.801-.167-21.495c-.009-1.178-1.513-1.667-2.213-.719l-12.77 17.292-20.495-6.484c-1.124-.355-2.053.924-1.368 1.883l12.5 17.488-12.5 17.488c-.685.959.244 2.238 1.368 1.883l20.495-6.484 12.77 17.292c.7.948 2.204.459 2.213-.719l.167-21.495 20.392-6.801c1.118-.374 1.118-1.955 0-2.328m-238.862 0 20.392-6.801.167-21.495c.009-1.178 1.513-1.667 2.213-.719l12.77 17.292 20.495-6.484c1.124-.355 2.053.924 1.368 1.883L181.473 256l12.5 17.488c.685.959-.244 2.238-1.368 1.883l-20.495-6.484-12.77 17.292c-.7.948-2.204.459-2.213-.719l-.167-21.495-20.392-6.801c-1.117-.374-1.117-1.955.001-2.328" style="fill:#f5f5f5"/></svg>
