<svg xmlns="http://www.w3.org/2000/svg" xml:space="preserve" viewBox="0 0 512 512" width="48" height="48"><path d="M400 0h-58.667v512H400c61.856 0 112-50.144 112-112V112C512 50.144 461.856 0 400 0" style="fill:#ff4b55"/><path d="M170.67 0h170.67v512H170.67z" style="fill:#ffe15a"/><path d="M112 0C50.144 0 0 50.144 0 112v288c0 61.856 50.144 112 112 112h58.667V0z" style="fill:#41479b"/><path d="M276.622 286.616h5.666v31.668h-5.666z" style="fill:#ffcd5a" transform="rotate(140.808 279.455 302.45)"/><path d="M268.192 288.607h11.33v13.937h-11.33z" style="fill:#ffbe5a" transform="rotate(140.832 273.857 295.575)"/><path d="M232.144 286.624h5.666v31.668h-5.666z" style="fill:#ffcd5a" transform="rotate(39.192 234.977 302.458)"/><path d="M234.915 288.602h11.33v13.937h-11.33z" style="fill:#ffbe5a" transform="rotate(39.168 240.58 295.57)"/><path d="m250.14 297.586-14.164 28.327 19.829 14.164v-39.658z" style="fill:#ffe15a"/><path d="m261.47 297.586 14.164 28.327-19.829 14.164v-39.658z" style="fill:#ffcd5a"/><path d="M216.148 297.586v-73.65h8.498v56.654c0 8.498-8.498 16.996-8.498 16.996" style="fill:#ffbe5a"/><path d="M210.482 311.75v-87.813h8.498v70.817c0 8.498-8.498 16.996-8.498 16.996" style="fill:#ffcd5a"/><path d="M204.817 323.08v-99.144h8.498v82.148c0 8.498-8.498 16.996-8.498 16.996" style="fill:#ffe15a"/><path d="M224.646 226.769v53.821c0 14.163 20.537 12.275 31.16 22.661 10.623-10.387 31.16-8.498 31.16-22.661v-53.821z" style="fill:#ff4b55"/><path d="M224.646 257.929v22.661c0 14.163 20.537 12.275 31.16 22.661 10.623-10.387 31.16-8.498 31.16-22.661v-22.661z" style="fill:#41479b"/><path d="m255.805 294.754-8.498-5.666v-2.833l2.833-2.832v-16.996l-8.498-5.666 8.498-11.33h2.833l2.832 2.832 2.833-2.832h2.832l8.499 11.33-8.499 5.666v16.996l2.833 2.832v2.833z" style="fill:#ffe15a"/><path d="M244.474 229.602s-11.331 2.833-11.331 14.163 11.331 16.996 11.331 16.996l5.665-8.498c-16.995-5.665-5.665-22.661-5.665-22.661m22.662 0s11.331 2.833 11.331 14.163-11.331 16.996-11.331 16.996l-5.665-8.498c16.996-5.665 5.665-22.661 5.665-22.661m-39.658 28.327 5.666 2.832 5.665-2.832-5.665-2.833zm45.323 0 5.666 2.832 5.665-2.832-5.665-2.833zm-16.996-26.911 2.06 2.109 2.948-.035-.035 2.948 2.109 2.06-2.109 2.06.035 2.947-2.948-.035-2.06 2.11-2.06-2.11-2.947.035.035-2.947-2.11-2.06 2.11-2.06-.035-2.948 2.947.035zm-19.236 39.281 2.043 2.272 2.84-1.126c1.47-.583 2.851 1.017 2.059 2.386l-1.53 2.645 1.949 2.354c1.009 1.218-.086 3.025-1.633 2.696l-2.988-.637-1.636 2.581c-.847 1.336-2.904.853-3.068-.72l-.317-3.039-2.96-.759c-1.532-.393-1.709-2.498-.263-3.141l2.792-1.241-.193-3.049c-.101-1.58 1.847-2.398 2.905-1.222m37.729 6.459c.625-3.223 3.283-5.503 6.383-5.847-.635-.342-1.312-.624-2.057-.769a7.317 7.317 0 1 0-2.786 14.368c.745.145 1.478.135 2.195.056-2.747-1.477-4.36-4.586-3.735-7.808m-29.824-49.989 5.665-28.327-11.331-8.498 2.833-2.833h5.665s2.833-2.833 8.498-2.833 11.331 2.833 11.331 11.331 2.833 31.16 2.833 31.16z" style="fill:#ffe15a"/><path d="M224.646 215.438c-6.258 0-11.331 5.073-11.331 11.331h22.661c0-6.258-5.072-11.331-11.33-11.331" style="fill:#ffaa5a"/><path d="M221.813 226.769h-16.996v-18.855a6.64 6.64 0 0 1 6.639-6.639h3.717a6.64 6.64 0 0 1 6.639 6.639zm73.65 70.817v-73.65h-8.498v56.654c0 8.498 8.498 16.996 8.498 16.996" style="fill:#ffbe5a"/><path d="M301.128 311.75v-87.813h-8.498v70.817c0 8.498 8.498 16.996 8.498 16.996" style="fill:#ffcd5a"/><path d="M306.793 323.08v-99.144h-8.498v82.148c0 8.498 8.498 16.996 8.498 16.996" style="fill:#ffe15a"/><path d="M286.965 215.438c6.258 0 11.331 5.073 11.331 11.331h-22.661c-.001-6.258 5.072-11.331 11.33-11.331" style="fill:#ffaa5a"/><path d="M289.797 226.769h16.996v-18.855a6.64 6.64 0 0 0-6.64-6.639h-3.717a6.64 6.64 0 0 0-6.639 6.639z" style="fill:#ffbe5a"/><path d="M298.825 252.362h4.249v76.27h-4.249z" style="fill:#ffaa5a" transform="rotate(31.34 300.95 290.497)"/><path d="M282.411 308.806h11.331v8.855h-11.331z" style="fill:#ffe15a" transform="rotate(128.638 288.076 313.234)"/><path d="M312.972 256.741h7.082v16.344h-7.082z" style="fill:#ffcd5a" transform="rotate(31.326 316.513 264.913)"/><path d="M176.236 290.331h73.65v2.833h-73.65z" style="fill:#73af00" transform="rotate(57.119 213.061 291.747)"/><path d="M219.413 289.386c-1.016 1.152-1.69 2.898-1.86 4.913-1.397-1.41-3.001-2.309-4.496-2.549-.394 1.461-.234 3.293.479 5.146-1.906-.672-3.775-.774-5.243-.321.413 2.088 2.114 4.354 4.721 5.909 2.607 1.556 5.409 1.976 7.442 1.348l.581-.376c1.407-1.596 2.174-4.324 1.826-7.34s-1.716-5.496-3.45-6.73" style="fill:#73af00"/><circle cx="220.75" cy="303.64" r="2.833" style="fill:#ff4b55"/><path d="M208.648 272.734c-1.016 1.152-1.69 2.898-1.86 4.912-1.397-1.41-3.001-2.309-4.496-2.549-.394 1.461-.233 3.293.479 5.146-1.906-.672-3.775-.774-5.243-.321.413 2.087 2.114 4.354 4.721 5.909 2.607 1.556 5.409 1.976 7.442 1.348l.581-.376c1.407-1.596 2.174-4.324 1.826-7.34s-1.716-5.496-3.45-6.729" style="fill:#73af00"/><circle cx="209.98" cy="286.99" r="2.833" style="fill:#ff4b55"/><path d="M197.883 256.081c-1.016 1.152-1.69 2.898-1.86 4.913-1.397-1.41-3.001-2.309-4.496-2.549-.394 1.461-.234 3.293.479 5.146-1.906-.672-3.775-.774-5.243-.321.413 2.087 2.114 4.354 4.721 5.909s5.409 1.976 7.442 1.348l.581-.376c1.407-1.596 2.174-4.324 1.826-7.34s-1.716-5.496-3.45-6.73" style="fill:#73af00"/><circle cx="199.22" cy="270.34" r="2.833" style="fill:#ff4b55"/><path d="M220.705 308.815h11.331v8.855h-11.331z" style="fill:#ffe15a" transform="rotate(51.362 226.37 313.243)"/><path d="M238.81 178.61h2.833v19.829h-2.833z" style="fill:#ffe15a"/><path d="M235.98 181.45h8.498v2.833h-8.498z" style="fill:#ffe15a"/><path d="m238.809 189.944 8.498 6.374v-9.207h-5.665z" style="fill:#ff875a"/><path d="M241.642 178.613v2.833h2.833v2.833h-2.833v2.833h5.665s2.833-2.833 8.498-2.833 11.331 2.833 11.331 11.331 2.833 31.16 2.833 31.16h5.665c0-6.258 5.073-11.331 11.331-11.331.984 0 1.922.165 2.833.401v-6.066a8.498 8.498 0 0 1 16.996 0v67.022l3.658-6.01-1.21-.736 8.498-13.962 1.21.736v-.001l1.815 1.105 3.025 1.841-8.498 13.962-1.21-.737-7.288 11.973v38.113s-6.765-6.783-8.212-14.288c-1.035-1.33-2.227-3.026-3.276-4.952l-3.242 5.326 3.014 2.409-7.075 8.851-1.879-1.501-3.202 5.261-3.629-2.21 3.485-5.726-1.692-1.352 2.409-3.014-7.432-9.115-2.197 1.789-6.609-8.111c-1.759.708-3.498 1.484-5.171 2.372l13.547 27.095-19.829 14.163-19.829-14.163 13.548-27.095c-1-.53-2.016-1.034-3.056-1.491l-5.891 7.23-2.196-1.789-7.432 9.115 2.409 3.014-2.406 1.923 3.288 5.086-2.379 1.538-3.133-4.846-2.287 1.828-7.075-8.851 3.179-2.541-1.685-2.607q-.06.003-.12.002c-.925 0-1.833-.413-2.372-1.248a2.8 2.8 0 0 1-.41-1.135 9.5 9.5 0 0 1-1.635-.242c-1.053 1.941-2.253 3.651-3.294 4.988-1.447 7.505-8.212 14.288-8.212 14.288v-36.132c-.856-.269-1.719-.611-2.568-1.117-2.607-1.555-4.307-3.822-4.72-5.909a6.7 6.7 0 0 1 1.961-.276c1.03 0 2.149.198 3.282.598-.369-.96-.583-1.91-.656-2.81l-2.786-4.31-.119.002c-.926 0-1.833-.413-2.372-1.248a2.8 2.8 0 0 1-.41-1.136c-1.568-.094-3.286-.573-4.944-1.563-2.607-1.555-4.307-3.822-4.721-5.909a6.7 6.7 0 0 1 1.961-.276c1.03 0 2.149.198 3.282.597-.712-1.853-.873-3.685-.479-5.146 1.494.24 3.099 1.139 4.496 2.549.17-2.014.844-3.76 1.86-4.913 1.734 1.234 3.102 3.715 3.45 6.731.222 1.918-.046 3.682-.605 5.15.335.212.637.485.867.84.563.871.543 1.918.113 2.783l2.786 4.31c.108.06.214.133.322.198v-66.32a8.498 8.498 0 0 1 16.996 0v6.066c.911-.236 1.849-.401 2.833-.401 6.258 0 11.331 5.073 11.331 11.331h8.498l5.665-28.327-2.833-2.124-5.665-4.249v6.374h-2.833v-14.163h-2.833v-2.833h2.833v-2.833h2.834m45.472 128.741 1.047-1.309.557.445 4.566-7.501c-.399-1.387-.653-2.81-.653-4.237v-.498c-2.472-3.251-5.665-8.454-5.665-13.666 0 5.966-3.662 9.074-8.674 11.461l4.359 5.35-2.195 1.788zm-62.345-.099 1.514-1.21 1.047 1.309 6.659-8.167-2.195-1.788 3.605-4.424c-6.051-2.527-10.752-5.623-10.752-12.388 0 3.792-1.693 7.579-3.567 10.616.89 1.306 1.562 2.976 1.785 4.91.221 1.918-.046 3.682-.605 5.15.335.212.637.485.867.84.563.871.543 1.917.113 2.783zm16.873-130.768h-2.833a2.125 2.125 0 0 0-2.125 2.124v.708h-.708a2.124 2.124 0 0 0-2.124 2.125v2.833c0 1.173.951 2.125 2.124 2.125h.708v12.039c0 1.173.951 2.124 2.125 2.124h2.833a2.125 2.125 0 0 0 2.125-2.124v-2.124l2.266 1.7 1.762 1.321-5.061 25.306h-4.799c-1.021-6.414-6.591-11.331-13.288-11.331q-.352 0-.708.022v-3.563c0-5.857-4.765-10.623-10.622-10.623s-10.623 4.765-10.623 10.623v49.574c-.767-2.116-2.014-3.885-3.577-4.997a2.124 2.124 0 0 0-2.826.326c-.654.742-1.192 1.647-1.593 2.667-.93-.505-1.887-.844-2.831-.996a2.124 2.124 0 0 0-2.388 1.544c-.249.922-.332 1.935-.254 2.989a10 10 0 0 0-.498-.012c-.92 0-1.79.125-2.588.371a2.124 2.124 0 0 0-1.458 2.442c.549 2.777 2.686 5.514 5.716 7.322a13.4 13.4 0 0 0 4.457 1.685 4.86 4.86 0 0 0 3.243 2.44l1.548 2.394-.154-.001c-.92 0-1.79.125-2.588.371a2.124 2.124 0 0 0-1.457 2.442c.549 2.777 2.686 5.514 5.716 7.321.485.289.988.545 1.532.776v34.649a2.123 2.123 0 0 0 3.629 1.5c.289-.289 6.952-7.042 8.688-14.879a41 41 0 0 0 1.974-2.833 4.88 4.88 0 0 0 2.643 1.564l.091.141-1.679 1.342a2.13 2.13 0 0 0-.333 2.986l7.075 8.851a2.13 2.13 0 0 0 2.986.333l.452-.361 1.857 2.873a2.124 2.124 0 0 0 2.938.631l1.374-.888-.312.623a2.126 2.126 0 0 0 .665 2.679l19.829 14.163a2.12 2.12 0 0 0 2.47 0l19.829-14.163a2.124 2.124 0 0 0 .665-2.679l-12.597-25.194a55 55 0 0 1 1.674-.753l5.609 6.883a2.12 2.12 0 0 0 2.989.306l.55-.448 5.007 6.14-1.338 1.674a2.126 2.126 0 0 0 .333 2.986l.232.185-2.513 4.129a2.124 2.124 0 0 0 .71 2.919l3.629 2.21a2.13 2.13 0 0 0 2.92-.71l1.947-3.199a2.12 2.12 0 0 0 2.979-.339l7.075-8.851c.26-.326.409-.705.452-1.091 2.309 6.903 7.837 12.506 8.1 12.769a2.124 2.124 0 0 0 3.629-1.5v-37.517l5.936-9.753q.217.045.435.045c.717 0 1.417-.363 1.817-1.02l8.498-13.961a2.125 2.125 0 0 0-.71-2.92l-3.025-1.841-1.814-1.105-1.212-.737a2.124 2.124 0 0 0-2.919.711l-7.007 11.512v-56.722c0-5.857-4.765-10.623-10.623-10.623s-10.622 4.765-10.622 10.623v3.563a11 11 0 0 0-.708-.022c-6.697 0-12.266 4.917-13.288 11.331h-1.827c-.669-5.577-2.59-22.173-2.59-29.035 0-9.921-6.951-13.455-13.455-13.455-4.816 0-7.925 1.836-9.258 2.833h-.069c.078-.221.121-.46.121-.708v-2.833a2.125 2.125 0 0 0-2.125-2.125h-.708v-.708a2.13 2.13 0 0 0-2.127-2.124M223.55 291.202a30 30 0 0 0 1.426-2.831c1.771 2.376 4.319 4.067 7.031 5.405l-1.86 2.283a2.126 2.126 0 0 0 .305 2.989l.547.445-3.785 4.643a2.15 2.15 0 0 0-.93-.215q-.32 0-.621.093a4.8 4.8 0 0 0-.982-3.386c.379-1.519.48-3.138.294-4.756a13.4 13.4 0 0 0-1.425-4.67m58.03 1.522c1.871-1.092 3.688-2.473 5.066-4.33 1.084 2.477 2.511 4.73 3.861 6.569a16.7 16.7 0 0 0 .491 3.695l-3.225 5.299q-.282.052-.543.178l-3.785-4.642.547-.445a2.13 2.13 0 0 0 .306-2.989zm-41.004 13.958c.617 0 1.228-.267 1.648-.783l3.582-4.397-9.697 19.395a2 2 0 0 0-.086-.145l-2.245-3.472.905-.724a2.13 2.13 0 0 0 .333-2.986l-1.338-1.674 5.007-6.14.55.448c.394.321.869.478 1.341.478m54.275 1.992.463-.76q.61.897 1.287 1.788.06.269.126.534a2 2 0 0 0-.323-.32z" style="fill:#ffaa5a"/></svg>
