<svg xmlns="http://www.w3.org/2000/svg" xml:space="preserve" viewBox="0 0 512 512" width="48" height="48"><path d="M400 0h-58.667v512H400c61.856 0 112-50.144 112-112V112C512 50.144 461.856 0 400 0" style="fill:#ff4b55"/><path d="M170.67 0h170.67v512H170.67z" style="fill:#41479b"/><path d="M112 0C50.144 0 0 50.144 0 112v288c0 61.856 50.144 112 112 112h58.667V0z" style="fill:#ff4b55"/><path d="M85.689 306.389c-13.341 0-24.775-8.038-29.814-19.518-.003.175-.051.337-.051.513 0 16.494 13.371 29.866 29.865 29.866s29.865-13.371 29.865-29.866c0-.175-.049-.337-.052-.512-5.038 11.48-16.473 19.517-29.813 19.517" style="fill:#f9cf02"/><circle cx="85.69" cy="279.24" r="21.72" style="fill:#f9cf02"/><path d="M72.114 238.513c0 7.497 6.078 13.575 13.575 13.575s13.575-6.078 13.575-13.575c0-5.43-3.394-6.109-3.394-8.145s2.036-4.751-2.036-8.145c2.036 3.394-1.357 4.073-1.357 7.466s1.357 3.394 1.357 6.109a2.715 2.715 0 1 1-5.43 0c0-2.715 2.715-5.43 2.715-9.503s-.679-5.43-2.715-8.824-5.43-6.109-2.715-8.824c-4.073 1.358-2.036 6.788-2.036 10.181s-2.715 5.43-2.715 9.503c0 4.072 2.036 4.751 2.036 7.466a2.715 2.715 0 1 1-5.43 0c0-2.715 1.357-2.715 1.357-6.109s-3.394-4.073-1.357-7.466c-4.073 3.394-2.036 6.109-2.036 8.145 0 2.038-3.394 2.716-3.394 8.146m-46.155 86.408v125.838a2.24 2.24 0 0 0 2.242 2.242h22.667a2.24 2.24 0 0 0 2.242-2.242V324.921a2.24 2.24 0 0 0-2.242-2.242H28.2a2.24 2.24 0 0 0-2.241 2.242m92.31 0v125.838a2.24 2.24 0 0 0 2.242 2.242h22.667a2.24 2.24 0 0 0 2.242-2.242V324.921a2.24 2.24 0 0 0-2.242-2.242h-22.667a2.24 2.24 0 0 0-2.242 2.242m-59.73 21.72v6.377a2.24 2.24 0 0 0 2.242 2.242h49.817a2.24 2.24 0 0 0 2.242-2.242v-6.377a2.24 2.24 0 0 0-2.242-2.242H60.78a2.24 2.24 0 0 0-2.241 2.242m0 76.02v6.377a2.24 2.24 0 0 0 2.242 2.241h49.817a2.24 2.24 0 0 0 2.242-2.241v-6.377a2.24 2.24 0 0 0-2.242-2.241H60.78a2.24 2.24 0 0 0-2.241 2.241m4.046-99.982h46.208c1.137 0 1.551 1.497.577 2.082l-21.951 13.17a3.36 3.36 0 0 1-3.46 0l-21.951-13.17c-.974-.585-.559-2.082.577-2.082m0 114.031h46.208c1.137 0 1.551 1.497.577 2.082l-21.951 13.17a3.36 3.36 0 0 1-3.46 0l-21.951-13.17c-.974-.585-.559-2.082.577-2.082m25.756-75.809c-.856-.082-1.685-.259-2.562-.259-14.931 0-27.077 12.147-27.077 27.077 0 8.862 4.329 16.662 10.943 21.583.761.566 1.767-.252 1.397-1.126a15.6 15.6 0 0 1-1.239-6.106c0-8.826 7.194-16.002 16.026-15.975 4.643.014 9.094-2.279 11.149-6.443 4.251-8.611-.937-17.171-8.637-18.751m-2.562 17.883a5.416 5.416 0 1 1 0-10.831 5.416 5.416 0 0 1 0 10.831" style="fill:#f9cf02"/><path d="M101.912 366.136c-.761-.567-1.767.252-1.397 1.126a15.6 15.6 0 0 1 1.239 6.106c0 8.826-7.195 16.003-16.027 15.976-4.643-.015-9.095 2.279-11.149 6.443-4.249 8.612.938 17.172 8.638 18.751.856.082 1.685.259 2.562.259 14.93 0 27.077-12.147 27.077-27.078.001-8.861-4.329-16.661-10.943-21.583m-16.133 41.35a5.416 5.416 0 1 1 0-10.831 5.416 5.416 0 0 1 0 10.831" style="fill:#f9cf02"/></svg>
