<svg xmlns="http://www.w3.org/2000/svg" xml:space="preserve" viewBox="0 0 512 512" width="48" height="48"><path d="M384.108 469.842H127.892c-45.26 0-81.95-36.69-81.95-81.95V124.108c0-45.26 36.69-81.95 81.95-81.95h256.217c45.26 0 81.95 36.69 81.95 81.95v263.784c0 45.26-36.691 81.95-81.951 81.95" style="fill:#c8414b"/><path d="M400 0H112C50.144 0 0 50.144 0 112v288c0 61.856 50.144 112 112 112h288c61.856 0 112-50.144 112-112V112C512 50.144 461.856 0 400 0m-16.359 469.842H127.425c-45.002 0-81.484-36.481-81.484-81.484V123.642c0-45.002 36.481-81.484 81.484-81.484h256.216c45.002 0 81.484 36.481 81.484 81.484v264.717c0 45.002-36.481 81.483-81.484 81.483" style="fill:#e6b432"/><path d="M378.255 332.943c1.199 12.107-8.892 22.198-20.999 20.999-8.959-.887-16.205-8.134-17.092-17.092-1.199-12.107 8.892-22.198 20.999-20.999 8.958.887 16.205 8.133 17.092 17.092" style="fill:#41479b"/><path d="M392.801 224.995c-14.088 11.844-23.562 12.342-23.562 12.342 25.058-10.223 22.44-29.671 22.44-29.671-11.844 15.583-23.936 19.947-23.936 19.947 25.183-17.08 21.193-40.018 21.193-40.018-8.228 18.202-18.638 25.308-18.638 25.308 20.944-27.863 10.659-45.815 10.659-45.815-8.228 25.806-15.147 33.286-15.147 33.286 16.082-43.01 2.307-55.415 2.307-55.415 0 23.064-8.602 36.278-8.602 36.278 8.976-30.419-5.111-47.873-5.111-47.873s-.132 24.799-4.909 37.79c-1.146-1.74-1.824-1.511-1.824-1.511-2.428 15.929-10.989 27.143-14.685 31.364-.82-3.97-3.289-5.186-3.289-5.186s-.446 3.897-3.942 9.645c-2.291 3.766-13.115 12.547-14.86 20.277-1.4 6.197 4.737 11.345 6.732 12.592s4.114 3.491 3.241 7.106-7.355 3.241-11.968 3.117-5.236 7.48-10.347 7.231l-.866 5.671-2.001.438s-20.944 41.735-22.727 55.937l-15.421 2.034-15.421-2.034c-1.783-14.202-22.727-55.937-22.727-55.937l-2.001-.438-.866-5.671c-5.111.249-5.735-7.355-10.347-7.231-4.613.124-11.096.499-11.968-3.117-.873-3.615 1.246-5.859 3.241-7.106s8.132-6.395 6.732-12.592c-1.745-7.729-12.569-16.511-14.86-20.277-3.497-5.747-3.942-9.645-3.942-9.645s-2.469 1.215-3.289 5.186c-3.696-4.221-12.257-15.435-14.685-31.364 0 0-.677-.229-1.824 1.511-4.777-12.991-4.908-37.79-4.908-37.79s-14.088 17.454-5.111 47.873c0 0-8.602-13.215-8.602-36.278 0 0-13.776 12.404 2.307 55.415 0 0-6.919-7.48-15.147-33.286 0 0-10.285 17.952 10.659 45.815 0 0-10.41-7.106-18.638-25.308 0 0-3.989 22.939 21.193 40.018 0 0-12.093-4.363-23.936-19.947 0 0-2.618 19.448 22.44 29.671 0 0-9.475-.499-23.562-12.342 0 0-2.493 17.204 30.17 26.056 0 0-13.34-.249-26.928-9.35 0 0-.374 16.955 27.552 20.321 0 0-9.226 1.371-19.573-2.369 0 0 .374 13.713 24.684 15.459 0 0-9.599.748-15.833-.748 0 0 .623 14.088 19.822 11.719 0 0-6.483 2.12-8.602 2.743 0 0 .374 11.501 20.383 7.387 0 0-3.553 2.213-8.415 2.961 0 0 4.114 9.6 20.82 5.361l-3.428 3.74s12.903 7.48 22.814-2.805l-3.553 6.358s8.415 3.179 13.651-5.049c0 0-1.434 12.342-18.887 14.586 0 0 .624 2.618 1.372 3.615 0 0-1.122 2.119-11.22 3.865 0 0 2.119 3.241 4.363 4.239 0 0-4.363 3.74-6.732 4.488 0 0 3.74 1.87 6.109 2.244 0 0-5.236 5.112-11.719 5.236-6.483.125-18.077-.623-18.077-.623s-.125-6.233-3.117-11.594-3.99-5.766-3.99-5.766.655-4.301-1.215-6.078c-1.87-1.776-2.898-2.618-2.898-2.618s.997-8.602-1.745-13.963-12.467-17.079-12.965-25.806c-.499-8.727-.125-11.968-.125-11.968l-2.992.748-1.994-4.114 3.366-.374-1.372-6.233-4.613 1.745-.623-5.361-5.485 2.244 2.743 4.862-4.862 1.372 2.867 5.735 3.74-2.369.997 4.987s-2.244.499-3.491 2.493c0 0 6.168 4.095 7.979 8.976 2.868 7.729 1.995 25.183 6.109 30.419s7.355 8.852 7.355 8.852-1.153 3.553.156 5.517 3.179 2.525 3.179 2.525-1.122 7.948 1.777 13.184 4.582 6.545 4.582 6.545-10.566 6.452-3.086 13.932c0 0-.997 6.794 6.109 8.415 0 0 .374 5.361 6.483 4.737 0 0 2.992-.873 3.74.623s0 10.098 0 10.098 2.743-.249 4.488-1.496l5.485 2.743.125-6.109 6.857-2.743s-2.992.499-9.101-5.236c0 0 .997-.624 1.745-5.486 0 0 4.862-3.865 5.859-6.982s7.854-9.973 15.833-12.217l1.091 4.862s11.407-10.098 16.176-10.659l3.927 5.174s14.711-21.817 21.194-25.682c-.498 1.745 3.117 1.995-4.924 10.971s-3.055 16.082-3.055 16.082c-4.987 4.114-3.989 7.854-4.613 12.093-.623 4.239-17.204 15.21-17.204 15.21 5.236 6.607 11.096 5.111 11.096 5.111-3.242 2.12-2.244 9.226-2.244 9.226 4.737 1.247 9.475-.873 9.475-.873-1.621 4.488.872 7.605.872 7.605 2.992-1.87 9.849-2.992 9.849-2.992-.873 7.729 4.114 11.844 4.114 11.844l4.363-4.738c.748 8.727 8.478 13.714 8.478 13.714s7.73-4.987 8.478-13.714l4.363 4.738s4.987-4.114 4.114-11.844c0 0 6.857 1.122 9.849 2.992 0 0 2.493-3.116.873-7.605 0 0 4.737 2.119 9.475.873 0 0 .998-7.106-2.244-9.226 0 0 5.859 1.496 11.096-5.111 0 0-16.581-10.971-17.204-15.21s.374-7.979-4.613-12.093c0 0 4.987-7.106-3.055-16.082s-4.426-9.226-4.924-10.971c6.483 3.865 21.194 25.682 21.194 25.682l3.927-5.174c4.769.561 16.176 10.659 16.176 10.659l1.091-4.862.205-.224c5.948 3.202 15.771 7.535 19.742 10.571 4.239 3.242 7.729 3.491 17.952 0s29.243-8.859 26.43-15.21c-.153-.347-.328-.578-.495-.849.447-1.641.63-4.503-2.373-7.005 0 0 .035.697.011 1.591l-9.746-3.632c-.323-.862-.803-1.708-1.734-2.447 0 0 .015.749-.119 1.756l-2.5-.932 4.988-14.035c-.377-.211-.802-.329-1.193-.514.1-1.27.342-3.028.712-4.865 1.218.426 2.331.952 3.138 1.612l1.408-5.139s-1.513-.099-3.511-.473c.505-1.55 1.103-2.942 1.814-3.841l-6.607-1.995s.171 2.001.054 4.501c-1.26-.512-2.465-1.161-3.436-1.994l-1.549 5.702c.532.031 2.336.188 4.426.559-.377 1.674-1.042 3.159-1.997 4.274-.236-.032-.453-.116-.692-.14l-4.844 13.63-13.139-4.896c-.564.887-.997 1.853-1.404 2.83.07-.143.132-.365.205-.455 0 0-5.084 2.658-5.013 6.564-.935.355-1.756 1.057-2.22 2.275-1.496 3.927 7.667 12.716 5.423 13.838-2.202 1.101-13.713-8.379-15.557-9.971 2.373-.461 5.833-2.184 5.833-2.184-2.369-.748-6.732-4.488-6.732-4.488 2.244-.997 4.363-4.239 4.363-4.239-10.098-1.745-11.22-3.865-11.22-3.865.748-.997 1.371-3.615 1.371-3.615-17.454-2.244-18.887-14.586-18.887-14.586 5.236 8.228 13.651 5.049 13.651 5.049l-3.553-6.358c9.911 10.285 22.814 2.805 22.814 2.805l-3.428-3.74c16.706 4.239 20.82-5.361 20.82-5.361-4.862-.748-8.415-2.961-8.415-2.961 20.009 4.114 20.383-7.387 20.383-7.387-2.119-.623-8.602-2.743-8.602-2.743 19.199 2.369 19.822-11.719 19.822-11.719-6.234 1.496-15.833.748-15.833.748 24.31-1.745 24.684-15.459 24.684-15.459-10.348 3.74-19.573 2.369-19.573 2.369 27.926-3.366 27.552-20.321 27.552-20.321-13.589 9.101-26.928 9.35-26.928 9.35 32.653-8.849 30.16-26.054 30.16-26.054M364.47 348.323c-1.331-2.164 1.843-4.097 3.273-6.157l5.525 2.059c-1.877 2.236-7.425 6.328-8.798 4.098m-3.691-8.752c-1.792 2.776-3.039 5.892-8.557 6.041-6.919.187-8.041-5.984-9.537-9.35-.436-.981-1.188-1.723-2.052-2.23-.004-.603.028-1.268.083-1.937z" style="fill:#e6b432"/><path d="M255.479 207.854s-8.883-7.574-11.501-11.688c0 0 2.992-1.215 4.488-3.085 0 0-8.041-4.301-12.342-8.696 0 0 2.805-.467 4.956-2.244 0 0-7.222-1.305-10.884-7.219 8.35-2.85 5.555-10.64 5.555-10.64-1.683 2.244-8.602 5.049-16.082 1.87s-15.708-.935-15.708 3.179c0 0-16.83-4.862-12.623 11.407 0 0 2.712-6.078 8.696-3.834s12.062 9.911 12.062 9.911-3.74 2.057-10.659-.187c0 0 2.805 10.753 15.428 5.33 0 0 4.987 2.68 5.236 10.534 0 0 2.12-1.122 3.491-3.615 0 0 1.995 7.605-.623 13.838 0 0 3.49-.623 4.613-1.745 0 0 .997 6.607-3.366 11.968 0 0 19.168 9.132 31.323-.873 0 0-4.582-5.236-6.078-10.098-.002.001 2.522-1.028 4.018-4.113" style="fill:#e6b432"/><path d="M311.112 169.331c0-4.114-8.228-6.358-15.708-3.179s-14.399.374-16.082-1.87c0 0-2.795 7.79 5.555 10.64-3.663 5.914-10.884 7.219-10.884 7.219 2.15 1.777 4.955 2.244 4.955 2.244-4.301 4.395-12.342 8.696-12.342 8.696 1.496 1.87 4.488 3.085 4.488 3.085-2.618 4.114-11.501 11.688-11.501 11.688 1.496 3.086 4.021 4.114 4.021 4.114-1.496 4.862-6.078 10.098-6.078 10.098 12.155 10.005 31.323.873 31.323.873-4.363-5.361-3.366-11.968-3.366-11.968 1.122 1.122 4.613 1.745 4.613 1.745-2.618-6.233-.623-13.838-.623-13.838 1.371 2.493 3.491 3.615 3.491 3.615.249-7.854 5.236-10.534 5.236-10.534 12.623 5.423 15.428-5.33 15.428-5.33-6.919 2.244-10.659.187-10.659.187s6.077-7.667 12.062-9.911 8.696 3.834 8.696 3.834c4.206-16.27-12.625-11.408-12.625-11.408" style="fill:#e6b432"/><path d="M303.492 268.66c-1.641-9.555-3.056-17.808 1.066-27.265l.768-1.766-16.325-18.747-1.93.643c-.167.057-17.23 5.635-28.171.164l-1.364-.682-1.364.682c-10.889 5.457-27.998-.107-28.174-.167l-1.93-.637-16.322 18.744.768 1.766c4.122 9.457 2.707 17.71 1.066 27.265-1.546 9.022-3.3 19.25-.214 31.724 3.351 13.54 14.63 18.353 24.581 22.604 7.67 3.273 14.913 6.365 19.009 12.855l2.579 4.089 2.579-4.089c4.095-6.49 11.339-9.582 19.009-12.855 9.951-4.25 21.231-9.064 24.581-22.604 3.088-12.474 1.333-22.703-.212-31.724m-86.648-27.897 11.205-12.864c5.075 1.394 18.794 4.414 29.487-.125 10.69 4.539 24.409 1.519 29.487.125l11.205 12.864c-3.935 10.362-2.386 19.396-.751 28.927 1.224 7.141 2.442 14.499 1.42 22.972h-82.722c-1.022-8.473.196-15.831 1.42-22.972 1.635-9.531 3.184-18.565-.751-28.927m59.886 76.613c-6.934 2.961-14.067 6.005-19.193 11.783-5.126-5.778-12.26-8.822-19.193-11.783-9.73-4.155-18.125-7.785-20.892-17.98h80.171c-2.768 10.194-11.163 13.825-20.893 17.98" style="fill:#e6b432"/><path d="m216.844 240.763 11.205-12.864c5.075 1.394 18.794 4.414 29.487-.125 10.69 4.539 24.409 1.519 29.487.125l11.205 12.864c-3.935 10.362-2.386 19.396-.751 28.927 1.224 7.141 2.442 14.499 1.42 22.972h-82.722c-1.022-8.473.196-15.831 1.42-22.972 1.635-9.531 3.184-18.565-.751-28.927" style="fill:#41479b"/><path d="M217.02 297.616c.096.438.158.858.268 1.302 2.621 10.589 11.163 14.234 21.055 18.458 6.934 2.961 14.067 6.005 19.193 11.783 5.126-5.778 12.259-8.822 19.193-11.783 9.892-4.223 18.434-7.869 21.055-18.458.11-.444.171-.864.268-1.302z" style="fill:#73af00"/><path d="M294.136 262.256c0-5.516-5.242-6.386-10.008-6.291s-11.738-.775-11.914-4.48c-.11-2.31 3.766-2.525 6.291-1.716 1.466.47 10.58 2.097 13.439-4.003 0 0-3.334.108-6.85-.682-2.711-.609-13.833.777-15.834 5.066-2.002 4.289 4.453 8.569 11.887 8.569s8.454 1.488 8.396 3.301c-.077 2.382-5.971 3.057-9.36 3.025-5.333-1.937-17.779-.419-17.839-.656-.072-.287-2.871-5.095-2.871-5.095s5.095-.359 5.741-1.292-3.866-4.515-3.866-4.515 3.794-1.513 3.938-2.589c.158-1.184-3.08-3.987-3.08-3.987s1.251-1.234 2.192-3.336c.673-1.504-4.67-1.906-4.67-1.906.286-1.144.176-2.253-1.239-2.764-1.094-.395-5.147 1.144-7.911 1.144s-3.813 2.002-3.813 2.002-4.861.572-5.528 1.144.191 4.289.191 4.289c-2.478-.381-3.622-2.573-3.622-2.573-1.239 5.623 4.575 6.195 4.575 6.195l.953 3.05 2.383.286c2.383.286 1.239 2.573-2.478 2.573s-5.295 4.434-5.295 4.434c-2.583.072-4.019-2.009-4.593-4.665-.632-2.923-.26-7.413.216-10.262.574-3.445-1.149-4.449-1.149-4.449l-1.148 2.87c-.072-2.942-2.655-3.229-2.655-3.229l-.431 3.588c-1.292-2.368-3.517-1.292-3.517-1.292s2.153 7.751 2.081 8.181c-.072.431-.789.789-1.794-.287s-1.722-.359-1.722-.359c1.076 7.751 5.233 6.614 5.233 6.614s.186 2.427 1.441 7.357c1.34 5.263 6.851 4.271 6.851 4.271 0 1.716 1.334 4.194 1.716 9.912s-4.861 9.722-4.861 9.722c-4.766-.095-4.289 4.575-4.289 4.575h13.153c0-12.162 5.228-14.248 5.228-14.248 7.75.359 15.214-2.871 15.214-2.871-1.148 4.665.861 6.602.861 6.602 3.158-.43 1.579 5.813.646 5.813h-4.019c-1.148 0-4.449 3.588-4.449 3.588h13.635s2.081-3.014 2.799-4.521c.717-1.507-1.579-3.588-1.722-5.167s2.368-2.584 2.368-2.584c2.655 3.732 8.755 3.947 8.755 3.947l-.143-2.799s3.158 1.077 3.875 2.009c.717.933.574 5.239-3.229 5.741s-4.091 3.229-4.091 3.229h10.406c1.722 0 3.086-3.229 3.086-4.449v-10.908c0-1.722-1.435-1.507-4.808-1.866-3.064-.326-2.771-3.678-4.033-7.569 4.431-.148 11.281-1.117 11.281-5.687m-.807-130.41c-.853-7.525-6.852-17.108-29.702-21.599a5.96 5.96 0 0 0-3.704-5.352v-4.193h3.74v-4.488h-3.74v-3.74h-4.488v3.74h-3.74v4.488h3.74v4.193a5.96 5.96 0 0 0-3.704 5.352c-22.85 4.492-28.849 14.074-29.702 21.599-1.064 9.383 5.656 18.281 11.714 21.691v4.761h47.872v-4.761c6.058-3.41 12.778-12.307 11.714-21.691m-25.061 14.484h-6.7v-27.599c5.523 2.495 8.94 6.321 9.934 11.576 1.239 6.543-1.377 13.215-3.234 16.023m-24.413-16.026c.995-5.254 4.411-9.081 9.934-11.574v27.6h-6.701c-1.858-2.809-4.474-9.483-3.233-16.026m-5.539-7.58c-1.101 2.204-1.801 4.409-2.16 6.434-1.084 6.131.159 12.361 2.21 17.172h-1.573c-3.357-2.312-7.67-7.997-7.033-13.607.444-3.924 3.42-7.292 8.556-9.999m40.248 23.606h-1.575c2.052-4.81 3.294-11.039 2.213-17.169-.358-2.026-1.059-4.233-2.161-6.438 5.137 2.706 8.113 6.075 8.557 10 .636 5.611-3.677 11.296-7.034 13.607" style="fill:#e6b432"/></svg>
