<svg xmlns="http://www.w3.org/2000/svg" xml:space="preserve" viewBox="0 0 512 512" width="48" height="48"><path d="M400 0H112C50.144 0 0 50.144 0 112v288c0 61.856 50.144 112 112 112h288c61.856 0 112-50.144 112-112V112C512 50.144 461.856 0 400 0" style="fill:#41479b"/><path d="M148.21 256h13.474v-81.77L256 236.023v-19.964l-83.768-54.375h24.748L256 199.995v-12.294l-39.71-26.017H256V148.21H148.21zm-53.894 0h13.474V148.21H0v13.474h39.71L0 187.701v18.901l69.197-44.918h24.748L0 222.666v13.357l94.316-61.793zM107.79.087c-4.566.169-9.063.608-13.474 1.308V81.77L27.779 38.177a112.4 112.4 0 0 0-10.872 14.638l63.935 41.502H56.094L10.461 64.694a111 111 0 0 0-3.44 8.205L39.71 94.316H1.395c-.7 4.411-1.139 8.907-1.308 13.474H107.79zM256 107.789V94.316h-39.71L256 68.299V49.157l-69.568 45.159h-24.748L256 33.092V19.976L161.684 81.77V0H148.21v107.789z" style="fill:#f5f5f5"/><path d="M107.79 256h40.421V148.21H256v-40.421H148.21V0H112c-1.41 0-2.813.035-4.21.087V107.79H.087A113 113 0 0 0 0 112v36.21h107.79z" style="fill:#ff4b55"/><path d="M69.197 161.684 0 206.602v16.064l93.945-60.982zm103.035 0L256 216.059v-16.064l-59.02-38.311zm-91.39-67.368L16.907 52.814a112 112 0 0 0-6.447 11.88l45.634 29.622zm105.59 0L256 49.157V33.092l-94.316 61.224z" style="fill:#ff4b55"/><path d="M305.73 280.18h137.56v106.29H305.73z" style="fill:#82afff"/><path d="M305.726 386.477c0 36.258 40.642 65.652 68.778 65.652 25.01 0 68.778-29.394 68.778-65.652z" style="fill:#c86464"/><path d="M392.871 319.002c2.214.391 5.992.912 6.383 6.253s-1.563 24.359-3.517 26.704c0 0 6.383 14.459 6.643 23.056s-.912 34.324-.13 38.427 3.712 12.505 3.712 12.505-8.988-5.276-12.505-1.954-16.413 7.816-21.493 2.54c0 0 6.057-17.194 6.057-36.734v-67.801s2.54-2.019 5.862-2.084c3.322-.066 8.988-.912 8.988-.912" style="fill:#73af00"/><path d="M394.174 422.299c.391 2.475 1.433 4.299.912 5.21-.521.912-3.908 9.249-1.954 9.249s5.341-1.042 6.253-2.866 1.303-4.559 1.824-5.341-.912-4.689-2.084-5.341c-1.173-.65-4.951-.911-4.951-.911m-22.535-97.826-7.164.912s.912-4.689 1.042-7.946.391-9.248.391-9.248 5.08-3.126 5.211-3.648c.065-.26.668-1.889.195-2.735s-2.019-.912-2.019-.912-5.992 3.126-5.992 3.647 0 3.648-.651 4.82-4.299 10.942-4.559 13.547-.651 8.076.391 8.337 11.854 1.433 13.026.912c1.171-.522.129-7.686.129-7.686" style="fill:#fff5e1"/><path d="M404.096 298.746h-26.074v-12.31h-8.989v12.31h-26.074v8.988h26.074v118.213h8.989V307.734h26.074z" style="fill:#464655"/><path d="M388.703 314.703s8.727 2.513 9.9-.391c1.368-3.387-3.191-3.843-4.038-7.425-.095-.401-.912-5.211-4.429-6.122-3.517-.912-6.774 0-6.904 2.345-.13 2.344 5.471 11.593 5.471 11.593" style="fill:#963c3c"/><path d="M384.013 325.775c-.257.043-.651-2.605-.13-5.862s0-4.299 0-4.299-3.647.391-3.647-1.042.782-8.076 2.996-11.463c0 0 1.563 1.954 4.429 1.954 0 0-.13 2.345 1.433 3.908 0 0-1.954 1.693-1.042 2.866.912 1.172 2.605 2.605 2.605 2.605s.13 2.736 2.215 4.559c-.001.001-2.606 5.732-8.859 6.774" style="fill:#fff5e1"/><path d="M348.32 382.31h.781v15.5h-.781zm3.15-3h.782v21.502h-.782zm3.14-2.74h.782v26.986h-.782zm3.15-3.92h.782v34.823h-.782zm3.14-5.13h.781v45.07h-.781zm3.15 0h.782v47.18h-.782z" style="fill:#464655"/><path d="M378.152 392.209c-3.454-17.963-13.026-28.397-16.413-28.918s-5.862 2.215-6.122 4.169-2.084 7.816-5.862 10.551-10.812 4.299-12.375 9.379 2.605 7.295 5.08 6.773c.185-.039.368-.111.552-.172l26.629 32.756c.967 1.19 2.85.995 3.524-.383 2.738-5.595 7.932-18.839 4.987-34.155m-32.905.363c1.044-1.12 1.484-2.667.339-4.271-1.954-2.736-4.168 1.172-4.168 1.172s-.651-3.387 4.429-5.08 10.812-4.559 13.417-10.681 2.475-4.95 2.475-4.95 10.421 5.862 11.854 24.229-3.647 25.792-3.647 25.792z" style="fill:#ffe15a"/><path d="M369.033 352.909c-1.196.766-2.274 1.424-3.029 1.817-2.442 1.27-5.373 2.54-5.666 3.712s-1.954 2.149-1.856 3.517 0 5.471 0 5.471c1.465-.293 4.396-.782 5.373-2.54s1.856-5.178 4.983-6.643c.056-.026.137-.053.195-.079zm25.89-24.952c-1.466.684-5.862 5.959-6.546 8.402s-2.833 8.207-2.833 8.207-4.439.58-7.523 2.305v8.532c1.708-.495 3.22-.982 4.103-1.458 2.54-1.368 6.155-3.908 8.011-4.396s3.419-3.615 4.103-5.471 2.833-7.327 3.126-11.04c.295-3.713-.976-5.765-2.441-5.081" style="fill:#fff5e1"/><path d="m374.504 454.346-.342-.055c-69.823-11.024-70.625-71.499-70.625-74.066v-102.23h141.935v102.23c0 2.568-.803 63.042-70.625 74.066zm-66.589-171.973v97.852c0 2.412.756 59.1 66.589 69.688 65.834-10.588 66.589-67.276 66.589-69.688v-97.852z" style="fill:#f5f5f5"/></svg>
