<svg xmlns="http://www.w3.org/2000/svg" xml:space="preserve" viewBox="0 0 512 512" width="48" height="48"><path d="M400 0H112C50.144 0 0 50.144 0 112v288c0 61.856 50.144 112 112 112h288c61.856 0 112-50.144 112-112V112C512 50.144 461.856 0 400 0" style="fill:#ff4b55"/><path d="m301.335 279.981 72.873-53.469h-90.246L256 140.449l-27.962 86.063h-90.246l72.873 53.469-27.746 85.397 73.01-52.185.071.052.071-.052 73.01 52.185zm14.619-34.39-20.827 15.282-4.965-15.282zm-82.882 27.168 8.828-27.168h28.2l8.828 27.168L256 289.582zM256 202.197l7.901 24.315H248.1zm-59.954 43.394h25.793l-4.965 15.282zm22.927 70.561 7.891-24.285 12.872 9.444zm66.163-24.285 7.891 24.285-20.762-14.841z" style="fill:#5a8250"/></svg>
