<svg xmlns="http://www.w3.org/2000/svg" xml:space="preserve" viewBox="0 0 512 512" width="48" height="48"><path d="M400 0H112C50.144 0 0 50.144 0 112v58.667h512V112C512 50.144 461.856 0 400 0" style="fill:#5aa587"/><path d="M0 400c0 61.856 50.144 112 112 112h288c61.856 0 112-50.144 112-112v-58.667H0z" style="fill:#ffe15a"/><path d="M0 170.67h512v170.67H0z" style="fill:#464655"/><path d="M0 155.51h512v21.281H0zm0 179.7h512v21.281H0z" style="fill:#f5f5f5"/><path d="M244.324 249.017 32.496 33.12C12.411 53.363 0 81.231 0 112v288c0 30.769 12.411 58.637 32.496 78.88l211.829-215.897c3.492-3.569 3.492-10.397-.001-13.966" style="fill:#ff4b55"/><path d="m102.443 168.354 19.698 59.061 62.257.483c3.481.027 4.925 4.47 2.124 6.538l-50.083 36.984 18.78 59.359c1.05 3.319-2.729 6.065-5.561 4.04l-50.651-36.203-50.651 36.203c-2.832 2.024-6.611-.721-5.561-4.04l18.779-59.359-50.083-36.984c-2.801-2.068-1.357-6.511 2.124-6.538l62.257-.483 19.698-59.061c1.101-3.302 5.772-3.302 6.873 0" style="fill:#ffe15a"/><path d="m95.396 278.051-4.87 4.9H49.808l11.113-40.779 4.541-2.271-7.289 36.357c-.06.448.03.896.328 1.255.269.359.687.538 1.135.538zm9.769 6.781a10.3 10.3 0 0 1-6.154 2.061c-2.241 0-4.392-.747-6.154-2.061l6.154-6.154zm43.049-1.882h-40.719l-4.87-4.9h35.76c.448 0 .866-.179 1.135-.538.299-.358.388-.807.329-1.255L132.56 239.9l4.541 2.271z" style="fill:#f5f5f5"/><path d="M136.563 275.063h-36.058v-37.194c6.035-5.109 21.958-1.613 28.709.478zm-39.046-37.194v37.194H61.459l7.349-36.716c6.751-2.091 22.674-5.586 28.709-.478" style="fill:#f5f5f5"/><path d="m151.62 284.055-11.8-43.318c-.119-.388-.388-.747-.777-.926l-7.887-3.943c-.03-.03-.06-.03-.12-.03-.03 0-.03-.03-.06-.06-.956-.329-22.794-7.439-31.966-.478-9.172-6.961-31.01.149-31.966.478l-.06.06c-.06 0-.09 0-.12.03l-7.887 3.943c-.388.179-.657.538-.777.926l-11.8 43.318c-.12.448-.03.926.239 1.285.299.358.747.598 1.195.598H89.66c2.48 2.479 5.826 3.943 9.351 3.943s6.871-1.464 9.351-3.943h41.824c.448 0 .896-.239 1.195-.598.269-.359.358-.837.239-1.285m-51.115-46.186c6.035-5.109 21.958-1.613 28.709.478l7.349 36.716h-36.058zm-31.697.478c6.752-2.091 22.675-5.587 28.709-.478v37.194H61.459zm-19 44.603 11.113-40.779 4.541-2.271-7.289 36.357c-.06.448.03.896.328 1.255.269.359.687.538 1.135.538h35.76l-4.87 4.9zm49.203 3.943c-2.241 0-4.392-.747-6.154-2.061l6.154-6.154 6.154 6.154a10.3 10.3 0 0 1-6.154 2.061m8.484-3.943-4.87-4.9h35.76c.448 0 .866-.179 1.135-.538.299-.358.388-.807.329-1.255L132.56 239.9l4.541 2.271 11.113 40.779z" style="fill:#464655"/><path d="M136.359 198.851a3.83 3.83 0 0 1-4.901-.434l-1.987-1.987v4.864l-12.16 12.16h-4.864l-19.456 19.455h-4.864L50.72 270.317a3.44 3.44 0 0 0-.831 3.52l1.76 5.279-7.296 7.296h-4.864l-14.872 14.872a3.043 3.043 0 0 0 0 4.303l9.814 9.814a3.44 3.44 0 0 0 5.043-.194l21.902-26.364 2.432-7.296 4.864-4.864 9.728 14.592 7.296-7.296-7.782-11.673 1.938-1.938a4.826 4.826 0 0 0 0-6.824l-1.452-1.452 1.367-1.367c10.379 8.895 22.844 11.194 34.712 6.108l-4.063-9.483c-9.805 4.202-17.812.687-23.382-3.891l20.55-20.55-.811-4.053 5.674-5.674h4.864l36.479-36.479z" style="fill:#464655"/><path d="m63.809 193.998-4.864 4.864a3.44 3.44 0 0 0 0 4.864l.81.81-8.106 1.622-21.887 21.888 12.16 12.16 21.888-21.887 1.621-8.107 3.243 3.243 2.432-2.432 80.895 80.895 4.864-4.864-80.895-80.895 2.432-2.432-9.728-9.728a3.44 3.44 0 0 0-4.865-.001" style="fill:#464655"/></svg>
