<svg xmlns="http://www.w3.org/2000/svg" xml:space="preserve" viewBox="0 0 512 512" width="48" height="48"><path d="M112 0C50.144 0 0 50.144 0 112v278.737L388.414 0z" style="fill:#41479b"/><path d="M400 512c61.856 0 112-50.144 112-112V121.263L123.586 512z" style="fill:#73af00"/><path d="M400 0h-16.861L0 383.14V400c0 61.856 50.144 112 112 112h16.861L512 128.86V112C512 50.144 461.856 0 400 0" style="fill:#f5f5f5"/><path d="M427.941 3.514 3.514 427.94c10.119 39.405 41.14 70.426 80.545 80.545L508.486 84.06c-10.119-39.405-41.14-70.427-80.545-80.546" style="fill:#ff4b55"/><path d="M100.241 76.413c9.889 0 18.841 4.006 25.324 10.484l3.555-24.677-19.611 15.432-9.268-23.17-9.268 23.17-19.611-15.431 3.555 24.677c6.483-6.479 15.436-10.485 25.324-10.485m-25.344 61.152c-6.478-6.483-10.484-15.435-10.484-25.324S68.419 93.4 74.897 86.917L50.22 83.362l15.432 19.611-23.17 9.268 23.17 9.268L50.22 141.12zM158 112.241l-23.17-9.268 15.432-19.611-24.677 3.555c6.478 6.483 10.484 15.435 10.484 25.324 0 9.888-4.006 18.841-10.484 25.324l24.677 3.555-15.432-19.611zm-57.759 35.829c-9.889 0-18.841-4.006-25.324-10.484l-3.555 24.676 19.611-15.432 9.268 23.17 9.268-23.17 19.611 15.432-3.555-24.676c-6.483 6.477-15.435 10.484-25.324 10.484" style="fill:#ffe15a"/><circle cx="100.24" cy="112.24" r="29.25" style="fill:#ffe15a"/></svg>
