<svg xmlns="http://www.w3.org/2000/svg" xml:space="preserve" viewBox="0 0 512 512" width="48" height="48"><path d="M400 0H112C50.144 0 0 50.144 0 112v288c0 61.856 50.144 112 112 112h288c61.856 0 112-50.144 112-112V112C512 50.144 461.856 0 400 0" style="fill:#41479b"/><path d="m396.582 252.895-36.473-8.105c-5.239-48.86-44.034-87.638-92.895-92.88l-8.109-36.491c-.646-2.906-5.564-2.906-6.21 0l-8.09 36.405c-48.881 5.228-87.671 44.09-92.912 92.966l-36.475 8.105c-1.453.323-2.49 1.615-2.49 3.105s1.037 2.782 2.49 3.105l36.476 8.106c5.24 48.868 44.031 87.686 92.901 92.921l8.1 36.45a3.18 3.18 0 0 0 3.105 2.49 3.18 3.18 0 0 0 3.105-2.49l8.112-36.506c48.857-5.242 87.652-44.007 92.891-92.865l36.474-8.105a3.183 3.183 0 0 0 0-6.211m-42.91-9.536L284.1 227.9l-15.451-69.533c44.232 5.706 79.325 40.759 85.023 84.992m-110.318-85.004L227.9 227.9l-69.549 15.455c5.702-44.229 40.773-79.296 85.003-85m-13.801 75.694L251.504 256H130.762zm-71.201 34.596L227.9 284.1l15.458 69.563c-44.234-5.699-79.304-40.786-85.006-85.018M256 381.237l-21.951-98.79L256 260.496zm0-129.733V130.762l21.951 98.79zm12.661 102.076 15.44-69.48 69.57-15.46c-5.7 44.224-40.789 79.226-85.01 84.94m13.786-75.629L260.496 256h120.742zm-189.74-18.772H28.593c-.633 0-1.145-1.422-1.145-3.179s.512-3.179 1.145-3.179h64.114c.633 0 1.145 1.422 1.145 3.179s-.512 3.179-1.145 3.179m387.342 0h-60.815c-.6 0-1.086-1.422-1.086-3.179s.486-3.179 1.086-3.179h60.815c.6 0 1.086 1.422 1.086 3.179s-.485 3.179-1.086 3.179M256 93.852a3.177 3.177 0 0 1-3.179-3.179v-50.87A3.177 3.177 0 0 1 256 36.624a3.177 3.177 0 0 1 3.179 3.179v50.87A3.177 3.177 0 0 1 256 93.852m0 381.525a3.177 3.177 0 0 1-3.179-3.179v-50.87a3.177 3.177 0 0 1 3.179-3.179 3.177 3.177 0 0 1 3.179 3.179v50.87a3.177 3.177 0 0 1-3.179 3.179" style="fill:#f5f5f5"/></svg>
