<svg xmlns="http://www.w3.org/2000/svg" xml:space="preserve" viewBox="0 0 512 512" width="48" height="48"><path d="M400 0H112C50.144 0 0 50.144 0 112v288c0 61.856 50.144 112 112 112h288c61.856 0 112-50.144 112-112V112C512 50.144 461.856 0 400 0" style="fill:#41479b"/><path d="M0 229.05h512v53.895H0z" style="fill:#ffe15a"/><path d="m129.368 335 7.847 31.349 22.469-23.226-8.879 31.072 31.072-8.879-23.226 22.469L190 395.632l-31.349 7.846 23.226 22.469-31.072-8.879 8.879 31.072-22.469-23.226-7.847 31.349-7.846-31.349-22.469 23.226 8.879-31.072-31.072 8.879 23.226-22.469-31.349-7.846 31.349-7.847-23.226-22.469 31.072 8.879-8.879-31.072 22.469 23.226z" style="fill:#f5f5f5"/></svg>
