<svg xmlns="http://www.w3.org/2000/svg" xml:space="preserve" viewBox="0 0 512 512" width="48" height="48"><path d="M400 0H112C50.144 0 0 50.144 0 112v288c0 61.856 50.144 112 112 112h288c61.856 0 112-50.144 112-112V112C512 50.144 461.856 0 400 0" style="fill:#f5f5f5"/><path d="M350.316 256 38.103 27.845A113 113 0 0 0 25.77 40.527l270.89 197.956H81.57l26.187 29.209 203.33 226.791H51.838C69.216 505.572 89.857 512 112 512h238.316L120.799 256zM0 112v288c0 22.142 6.428 42.783 17.516 60.161V51.839C6.428 69.217 0 89.857 0 112" style="fill:#41479b"/><path d="M107.757 267.692 81.57 238.483h215.09L25.77 40.527a112 112 0 0 0-8.254 11.313v408.321a112.6 112.6 0 0 0 34.322 34.323h259.249z" style="fill:#ff4b55"/><path d="m102.79 317.66 10.787 22.258 20.47-13.883c.903-.613 2.115.087 2.036 1.176l-1.788 24.669 24.669-1.788c1.089-.079 1.788 1.133 1.176 2.036l-13.883 20.47 22.258 10.786c.982.476.982 1.875 0 2.351l-22.258 10.786 13.883 20.47c.613.903-.087 2.115-1.176 2.036l-24.669-1.788 1.788 24.669c.079 1.089-1.133 1.788-2.036 1.176l-20.47-13.883-10.787 22.258c-.476.982-1.875.982-2.351 0l-10.786-22.258-20.47 13.883c-.903.613-2.115-.087-2.036-1.176l1.788-24.669-24.669 1.788c-1.089.079-1.788-1.133-1.176-2.036l13.883-20.47-22.258-10.786c-.982-.476-.982-1.875 0-2.351l22.258-10.786-13.883-20.47c-.613-.903.087-2.115 1.176-2.036l24.669 1.788-1.788-24.669c-.079-1.089 1.133-1.788 2.036-1.176l20.47 13.883 10.786-22.258c.475-.982 1.875-.982 2.351 0m28.005-128.725-9.365-6.397 8.244-8.64-11.748-2.143 4.018-11.244-11.604 2.82-.904-11.906-9.453 7.295-5.669-10.51-5.669 10.51-9.453-7.295-.904 11.906-11.604-2.82 4.018 11.244-11.748 2.143 8.244 8.64-9.365 6.397c-11.815-5.517-22.203-13.576-30.379-23.547 5.492 31.993 33.296 56.366 66.858 56.366s61.367-24.372 66.858-56.366c-8.172 9.971-18.56 18.031-30.375 23.547" style="fill:#f5f5f5"/></svg>
