<svg xmlns="http://www.w3.org/2000/svg" xml:space="preserve" viewBox="0 0 512 512" width="48" height="48"><path d="M400 0H112C50.144 0 0 50.144 0 112v288c0 61.856 50.144 112 112 112h288c61.856 0 112-50.144 112-112V112C512 50.144 461.856 0 400 0" style="fill:#41479b"/><path d="M94.316 1.395C67.937 5.579 44.627 18.971 27.779 38.177L94.316 81.77zM7.021 72.899a111 111 0 0 0-5.626 21.417H39.71zM0 161.684v26.017l39.71-26.017zM256 19.977V0h-94.316v81.77zm0 167.724v-26.017h-39.71zM161.684 256H256v-19.977l-94.316-61.793zM256 94.316V68.299l-39.71 26.017zM94.316 174.23 0 236.023V256h94.316z" style="fill:#41479b"/><path d="M148.21 256h13.474v-81.77L256 236.023v-19.964l-83.768-54.375h24.748L256 199.995v-12.294l-39.71-26.017H256V148.21H148.21zm-53.894 0h13.473V148.21H0v13.474h39.71L0 187.701v18.901l69.197-44.918h24.748L0 222.666v13.357l94.316-61.793zM107.789.087c-4.566.169-9.063.608-13.474 1.308V81.77L27.779 38.177a112.4 112.4 0 0 0-10.872 14.637l63.935 41.502H56.094L10.461 64.694q-1.878 4.02-3.44 8.205L39.71 94.316H1.395c-.7 4.411-1.139 8.907-1.308 13.474H107.79zM256 107.79V94.316h-39.71L256 68.299V49.157l-69.568 45.159h-24.748L256 33.093V19.977L161.684 81.77V0H148.21v107.79z" style="fill:#f5f5f5"/><path d="M107.789 256h40.421V148.21H256v-40.42H148.21V0H112c-1.41 0-2.813.035-4.211.087V107.79H.087A113 113 0 0 0 0 112v36.21h107.789z" style="fill:#ff4b55"/><path d="M69.197 161.684 0 206.602v16.064l93.945-60.982zm103.035 0L256 216.059v-16.064l-59.02-38.311zm-91.39-67.368L16.907 52.814a112 112 0 0 0-6.447 11.88l45.634 29.622zm105.59 0L256 49.157V33.093l-94.316 61.223zm209.154 346.915c-.358 0-.72-.112-1.026-.328l-10.448-7.465-10.448 7.465a1.77 1.77 0 0 1-2.065-.008 1.78 1.78 0 0 1-.647-1.965l3.875-12.241-10.327-7.621a1.77 1.77 0 0 1-.634-1.965 1.77 1.77 0 0 1 1.668-1.224l12.841-.103 4.06-12.181c.241-.716.918-1.207 1.677-1.207s1.435.491 1.677 1.207l4.06 12.181 12.841.103c.763.009 1.431.5 1.668 1.224a1.77 1.77 0 0 1-.634 1.965l-10.328 7.621 3.875 12.241a1.78 1.78 0 0 1-.646 1.965c-.31.224-.677.336-1.039.336" style="fill:#ff4b55"/><path d="m384.112 404.153 4.462 13.378 14.102.109-11.345 8.377 4.254 13.446-11.473-8.201-11.473 8.201 4.254-13.446-11.345-8.377 14.102-.109zm0-3.531c-1.52 0-2.869.973-3.35 2.414l-3.663 10.984-11.578.09a3.53 3.53 0 0 0-2.07 6.371l9.314 6.878-3.492 11.039a3.532 3.532 0 0 0 5.42 3.939l9.42-6.733 9.42 6.733a3.53 3.53 0 0 0 4.129-.017 3.53 3.53 0 0 0 1.291-3.922l-3.492-11.039 9.314-6.878a3.53 3.53 0 0 0-2.07-6.371l-11.578-.09-3.663-10.984a3.54 3.54 0 0 0-3.352-2.414" style="fill:#f5f5f5"/><path d="M395.586 267.606c-.362 0-.72-.112-1.026-.328l-10.448-7.474-10.448 7.474a1.8 1.8 0 0 1-1.026.328 1.78 1.78 0 0 1-1.039-.336 1.78 1.78 0 0 1-.647-1.966l3.875-12.241-10.327-7.629a1.78 1.78 0 0 1-.634-1.965 1.78 1.78 0 0 1 1.668-1.224l12.841-.095 4.06-12.181c.241-.715.918-1.207 1.677-1.207s1.435.491 1.677 1.207l4.06 12.181 12.841.095c.759.009 1.431.5 1.668 1.224a1.77 1.77 0 0 1-.634 1.965l-10.328 7.629 3.875 12.241a1.78 1.78 0 0 1-.646 1.966c-.31.224-.677.336-1.039.336" style="fill:#ff4b55"/><path d="m384.112 230.526 4.462 13.378 14.102.109-11.345 8.377 4.254 13.446-11.473-8.2-11.473 8.2 4.254-13.446-11.345-8.377 14.102-.109zm0-3.531c-1.52 0-2.869.973-3.35 2.414l-3.663 10.984-11.578.09a3.53 3.53 0 0 0-2.07 6.372l9.314 6.878-3.492 11.039a3.532 3.532 0 0 0 5.42 3.938l9.42-6.733 9.42 6.733a3.53 3.53 0 0 0 5.42-3.938l-3.492-11.039 9.314-6.878a3.532 3.532 0 0 0-2.07-6.372l-11.578-.09-3.663-10.984a3.535 3.535 0 0 0-3.352-2.414" style="fill:#f5f5f5"/><path d="M457.379 332.744c-.362 0-.72-.112-1.026-.328l-10.448-7.474-10.448 7.474a1.78 1.78 0 0 1-2.065-.008 1.78 1.78 0 0 1-.647-1.966l3.875-12.241-10.328-7.629a1.78 1.78 0 0 1-.634-1.966 1.78 1.78 0 0 1 1.668-1.224l12.841-.095 4.06-12.181c.241-.715.918-1.207 1.677-1.207s1.435.491 1.677 1.207l4.06 12.181 12.841.095c.759.009 1.431.5 1.668 1.224a1.77 1.77 0 0 1-.634 1.966l-10.328 7.629 3.875 12.241a1.78 1.78 0 0 1-.647 1.966 1.77 1.77 0 0 1-1.037.336" style="fill:#ff4b55"/><path d="m445.905 295.664 4.462 13.378 14.102.109-11.344 8.377 4.254 13.446-11.473-8.2-11.473 8.2 4.254-13.446-11.344-8.377 14.102-.109zm0-3.531c-1.52 0-2.869.973-3.35 2.414l-3.663 10.984-11.578.09a3.53 3.53 0 0 0-2.07 6.372l9.314 6.878-3.492 11.039a3.532 3.532 0 0 0 5.42 3.939l9.42-6.733 9.42 6.733a3.53 3.53 0 0 0 4.129-.017 3.53 3.53 0 0 0 1.291-3.922l-3.492-11.039 9.314-6.878a3.533 3.533 0 0 0-2.07-6.372l-11.578-.09-3.663-10.984a3.535 3.535 0 0 0-3.352-2.414" style="fill:#f5f5f5"/><path d="M333.793 350.399c-.362 0-.72-.112-1.026-.328l-10.448-7.474-10.448 7.474a1.8 1.8 0 0 1-1.026.328 1.78 1.78 0 0 1-1.039-.336 1.78 1.78 0 0 1-.647-1.966l3.875-12.241-10.328-7.629a1.78 1.78 0 0 1-.634-1.965 1.78 1.78 0 0 1 1.668-1.224l12.84-.095 4.06-12.181c.241-.716.918-1.207 1.677-1.207s1.435.491 1.677 1.207l4.06 12.181 12.84.095c.759.009 1.431.5 1.668 1.224a1.77 1.77 0 0 1-.634 1.965l-10.328 7.629 3.875 12.241a1.78 1.78 0 0 1-.647 1.966 1.76 1.76 0 0 1-1.035.336" style="fill:#ff4b55"/><path d="m322.319 313.319 4.462 13.378 14.102.109-11.345 8.377 4.254 13.446-11.473-8.2-11.473 8.2 4.254-13.446-11.345-8.377 14.102-.109zm0-3.531c-1.52 0-2.869.973-3.35 2.414l-3.663 10.984-11.578.09a3.53 3.53 0 0 0-2.07 6.372l9.314 6.878-3.493 11.039a3.532 3.532 0 0 0 5.42 3.938l9.42-6.733 9.42 6.733a3.53 3.53 0 0 0 5.42-3.938l-3.492-11.039 9.314-6.878a3.532 3.532 0 0 0-2.07-6.372l-11.578-.09-3.663-10.984a3.53 3.53 0 0 0-3.351-2.414" style="fill:#f5f5f5"/></svg>
