<svg xmlns="http://www.w3.org/2000/svg" xml:space="preserve" viewBox="0 0 512 512" width="48" height="48"><path d="M400 0H112C50.144 0 0 50.144 0 112v58.667h512V112C512 50.144 461.856 0 400 0M0 400c0 61.856 50.144 112 112 112h288c61.856 0 112-50.144 112-112v-58.667H0z" style="fill:#41479b"/><path d="M0 170.67h512v170.67H0z" style="fill:#f5f5f5"/><path d="m256 206.664-41.1 60.441h82.2z" style="fill:#afebff"/><path d="m214.9 267.105-26.594 38.683h135.388L297.1 267.105z" style="fill:#557de6"/><path d="M266.518 263.727c.164-.338.336-.669.484-1.014-.148.344-.321.677-.484 1.014m1.131-2.786c.1-.303.223-.599.309-.907-.086.308-.209.603-.309.907m-2.53 5.323c.207-.331.413-.66.606-1-.192.339-.399.67-.606 1m4.359-10.623c-.513.399-.862.956-.941 1.592l-.001.004.001-.004c.079-.635.428-1.193.941-1.592m-1.247 18.04a51 51 0 0 0 1.72 1.562c3.068-2.656 6.27-6.032 8.517-9.979-.161.283-.336.557-.506.835-2.098-3.859-3.206-7.197-3.743-9.176-.307-1.131-1.476-1.917-2.811-1.919.512 4.509 1.616 12.795-3.177 18.677m12.16-12.74c.1-.303.223-.599.309-.907-.087.308-.209.603-.309.907m1.828-5.3c-.513.399-.862.956-.941 1.592l-.001.004.001-.004c.08-.635.429-1.193.941-1.592m-2.959 8.086c.164-.338.336-.669.483-1.014-.147.344-.32.677-.483 1.014" style="fill:#73af00"/><path d="M305.359 276.776c-4.66 0-9.07-2.236-11.762-6.04-4.055-5.73-5.894-11.072-6.638-13.813-.307-1.132-1.479-1.92-2.816-1.92l.005.001c.612 5.381 2.073 16.142-6.671 21.771h-5.693c-.234-.186-.462-.362-.7-.558l.016.013c-1.593 2.08-4.78 2.663-7.252 1.39-10.347-5.331-8.739-16.956-8.095-22.617-1.335.002-2.504.788-2.811 1.919-.537 1.979-1.645 5.317-3.743 9.176-.171-.277-.345-.552-.506-.835 2.528 4.442 6.278 8.19 9.666 10.967-1.593 2.08-4.78 2.663-7.252 1.39-10.347-5.331-8.739-16.956-8.095-22.617-1.335.002-2.504.788-2.811 1.919-.537 1.979-1.645 5.317-3.743 9.176-.171-.277-.345-.552-.506-.835 2.528 4.442 6.278 8.19 9.666 10.967-1.593 2.08-4.78 2.663-7.252 1.39-10.347-5.331-8.739-16.956-8.095-22.617l.005-.001c-1.337 0-2.509.787-2.816 1.92-.743 2.741-2.583 8.082-6.638 13.813-2.692 3.804-7.101 6.04-11.762 6.04h-3.829v4.835h101.542v-4.835z" style="fill:#73af00"/><path d="M260.158 262.713c.148.345.32.676.483 1.014-.163-.337-.336-.67-.483-1.014m-.957-2.679c.086.308.209.603.309.907-.1-.304-.223-.599-.309-.907m-.578-2.797-.001-.004c-.079-.635-.428-1.193-.941-1.592.513.399.862.956.941 1.592zm2.81 8.027c.193.34.399.669.606 1-.206-.33-.413-.661-.606-1m2.222 3.352-.072-.099q.309-.414.606-.838-.298.422-.609.833a33 33 0 0 1-.609-.833q.334.474.684.937m1.062 1.338c.236.283.469.563.711.837-.241-.273-.476-.555-.711-.837m2.582 2.836c-.225-.225-.446-.462-.669-.695.224.233.443.469.669.695" style="fill:#73af00"/><path d="m284.149 255.004-.005-.001a3.14 3.14 0 0 0-1.924.638c-.513.399-.862.956-.941 1.592l-.001.004a19 19 0 0 1-.578 2.797c-.087.308-.209.603-.309.907-.198.598-.4 1.194-.647 1.772-.148.345-.32.676-.483 1.014a26 26 0 0 1-.792 1.537c-2.247 3.947-5.449 7.323-8.517 9.979a52 52 0 0 1-1.72-1.562c4.793-5.882 3.689-14.167 3.176-18.676l-.005-.001c-.367 0-.72.06-1.045.17s-.622.27-.879.468c-.513.399-.862.956-.941 1.592l-.001.004a19 19 0 0 1-.578 2.797c-.086.308-.209.603-.309.907-.198.598-.4 1.194-.647 1.772-.148.345-.32.676-.484 1.014a26 26 0 0 1-.792 1.537c-.193.34-.399.669-.606 1a31 31 0 0 1-1.537 2.253 32 32 0 0 1-.612-.838 31 31 0 0 1-.931-1.415c-.207-.331-.413-.66-.606-1a25 25 0 0 1-.792-1.537c-.164-.338-.336-.669-.483-1.014a22 22 0 0 1-.647-1.772c-.1-.303-.223-.599-.309-.907a19 19 0 0 1-.578-2.797l-.001-.004c-.079-.636-.428-1.193-.941-1.592a3.14 3.14 0 0 0-1.924-.638l-.005.001c-.644 5.661-2.251 17.286 8.095 22.617 1.745.899 3.838.865 5.48.037 1.049-.529 2.174-.882 3.348-.882h4.801c8.743-5.631 7.282-16.391 6.67-21.773" style="fill:#ffe15a"/><path d="M246.459 260.034c.087.308.209.603.309.907-.1-.304-.222-.599-.309-.907m-.577-2.797-.001-.004c-.079-.635-.428-1.193-.941-1.592.513.399.862.956.941 1.592zm1.534 5.476c.148.345.32.676.484 1.014-.164-.337-.337-.67-.484-1.014m-4.4-7.71" style="fill:#73af00"/><path d="M251.106 277.621c2.472 1.273 5.659.69 7.252-1.39-3.388-2.777-7.138-6.525-9.666-10.967a26 26 0 0 1-.792-1.537c-.164-.338-.336-.669-.484-1.014a22 22 0 0 1-.647-1.772c-.1-.303-.223-.599-.309-.907a19 19 0 0 1-.578-2.797l-.001-.004c-.079-.636-.428-1.193-.941-1.592a3 3 0 0 0-.879-.468 3.3 3.3 0 0 0-1.045-.17l-.005.001c-.644 5.661-2.252 17.286 8.095 22.617" style="fill:#ffe15a"/><path d="M233.718 260.034c.087.308.209.603.309.907-.101-.304-.223-.599-.309-.907m.956 2.679c.148.345.32.676.484 1.014-.164-.337-.336-.67-.484-1.014m-1.534-5.476-.001-.004c-.079-.635-.428-1.193-.941-1.592.513.399.862.956.941 1.592z" style="fill:#73af00"/><path d="M238.364 277.621c2.472 1.273 5.659.69 7.252-1.39-3.388-2.777-7.138-6.525-9.666-10.967a25 25 0 0 1-.792-1.537c-.164-.338-.336-.669-.484-1.014a22 22 0 0 1-.647-1.772c-.101-.303-.223-.599-.309-.907a19 19 0 0 1-.578-2.797l-.001-.004c-.079-.636-.428-1.193-.941-1.592a3.14 3.14 0 0 0-1.924-.638l-.005.001c-.644 5.661-2.252 17.286 8.095 22.617" style="fill:#ffe15a"/><path d="m235.631 235.779-.603 2.314c6.6-1.979 13.882-3.168 21.787-3.168 7.903.004 15.187 1.185 21.787 3.168l-.603-2.314a84.4 84.4 0 0 0-21.184-2.665c-7.552-.001-14.618.97-21.184 2.665" style="fill:#41479b"/><path d="m235.893 234.774-.603 2.314c6.527-1.984 13.721-3.174 21.525-3.177 7.804.003 14.999 1.193 21.525 3.177l-.603-2.314c-6.492-1.706-13.467-2.672-20.922-2.675-7.456.002-14.43.972-20.922 2.675" style="fill:#5aa0e6"/><path d="m236.136 233.844-.603 2.314a71.9 71.9 0 0 1 21.282-3.187 72 72 0 0 1 21.282 3.187l-.603-2.314a80.3 80.3 0 0 0-20.679-2.684 80.2 80.2 0 0 0-20.679 2.684" style="fill:#9bc800"/><path d="m236.413 232.781-.603 2.314a70 70 0 0 1 21.005-3.198 70.1 70.1 0 0 1 21.005 3.198l-.603-2.314a78 78 0 0 0-20.402-2.695 78 78 0 0 0-20.402 2.695" style="fill:#ffe14e"/><path d="m236.685 231.738-.603 2.313a68.3 68.3 0 0 1 20.733-3.208 68.3 68.3 0 0 1 20.733 3.208l-.603-2.313a76 76 0 0 0-20.13-2.706 75.8 75.8 0 0 0-20.13 2.706" style="fill:#ffb14e"/><path d="m236.801 231.292-.422 1.62a66.4 66.4 0 0 1 20.437-3.22 66.2 66.2 0 0 1 20.436 3.22l-.422-1.62a75 75 0 0 0-20.014-2.71 74.7 74.7 0 0 0-20.015 2.71" style="fill:#ff4b55"/><path d="M323.695 308.135h-135.39a2.42 2.42 0 0 1-2.132-1.275 2.43 2.43 0 0 1 .12-2.484l67.695-101.542c.897-1.341 3.126-1.341 4.023 0l67.694 101.542a2.415 2.415 0 0 1-2.01 3.759M192.822 303.3h126.356L256 208.534z" style="fill:#ffe15a"/><path d="M260.624 245.213c0-2.126-2.156-5.361-5.606-5.361-2.017 0-3.652 1.232-3.652 2.753 0 .759.408 1.445 1.066 1.943l-.008.084c-.824.505-1.361 1.265-1.361 2.128 0 1.451 1.494 2.626 3.382 2.732l1.554 3.108 1.403-2.805c1.843-.472 3.222-2.34 3.222-4.582" style="fill:#ff4b55"/></svg>
