<svg xmlns="http://www.w3.org/2000/svg" xml:space="preserve" viewBox="0 0 512 512" width="48" height="48"><path d="M400 0H112C50.144 0 0 50.144 0 112v288c0 61.856 50.144 112 112 112h288c61.856 0 112-50.144 112-112V112C512 50.144 461.856 0 400 0" style="fill:#ffe15a"/><path d="M94.316 1.395C67.937 5.579 44.627 18.971 27.779 38.177L94.316 81.77zM7.021 72.899a111 111 0 0 0-5.627 21.417H39.71zM0 161.684v26.017l39.71-26.017zM256 19.977V0h-94.316v81.77zm0 167.724v-26.017h-39.71zM161.684 256H256v-19.977l-94.316-61.793zM256 94.316V68.299l-39.71 26.017zM94.316 174.23 0 236.023V256h94.316z" style="fill:#41479b"/><path d="M148.21 256h13.474v-81.77L256 236.023v-19.964l-83.768-54.375h24.748L256 199.995v-12.294l-39.71-26.017H256V148.21H148.21zm-53.894 0h13.473V148.21H0v13.474h39.71L0 187.701v18.901l69.197-44.918h24.748L0 222.666v13.357l94.316-61.793zM107.789.087c-4.566.169-9.063.608-13.474 1.308V81.77L27.779 38.177a112.4 112.4 0 0 0-10.872 14.637l63.935 41.502H56.094L10.461 64.694q-1.878 4.02-3.44 8.205L39.71 94.316H1.394c-.7 4.411-1.139 8.907-1.308 13.474h107.703zM256 107.79V94.316h-39.71L256 68.299V49.157l-69.568 45.159h-24.748L256 33.092V19.977L161.684 81.77V0H148.21v107.79z" style="fill:#f5f5f5"/><path d="M107.789 256h40.421V148.21H256v-40.42H148.21V0H112c-1.411 0-2.813.035-4.211.087V107.79H.087A113 113 0 0 0 0 112v36.21h107.789z" style="fill:#ff4b55"/><path d="M69.197 161.684 0 206.602v16.064l93.945-60.982zm103.035 0L256 216.059v-16.064l-59.02-38.311zm-91.39-67.368L16.907 52.814a112 112 0 0 0-6.447 11.88l45.634 29.622zm105.59 0L256 49.157V33.092l-94.316 61.224z" style="fill:#ff4b55"/><path d="M160.662 102.774c25.689 40.615-17.273 83.578-57.888 57.888a24 24 0 0 1-7.435-7.435c-25.689-40.616 17.273-83.578 57.888-57.888a24 24 0 0 1 7.435 7.435" style="fill:#41479b"/><path d="m130.221 94.611 6.753 20.248 21.344.165c2.763.021 3.909 3.548 1.686 5.19l-17.17 12.679 6.438 20.35c.833 2.635-2.166 4.814-4.415 3.207l-17.365-12.412-17.365 12.412c-2.248 1.607-5.248-.573-4.414-3.207l6.438-20.35-17.17-12.679c-2.223-1.642-1.077-5.168 1.686-5.19l21.344-.165 6.753-20.248c.874-2.621 4.582-2.621 5.457 0m-80.644 16.226 3.631 10.887 11.475.089c1.486.012 2.102 1.908.907 2.79l-9.232 6.817 3.461 10.941c.448 1.416-1.165 2.588-2.373 1.724l-9.336-6.673-9.336 6.673c-1.209.864-2.822-.308-2.374-1.724l3.462-10.941-9.232-6.817c-1.195-.883-.579-2.779.907-2.79l11.476-.089 3.631-10.887c.47-1.409 2.463-1.409 2.933 0m159.779 0 3.631 10.887 11.476.089c1.486.012 2.102 1.908.907 2.79l-9.232 6.817 3.462 10.941c.448 1.416-1.165 2.588-2.374 1.724l-9.336-6.673-9.336 6.673c-1.209.864-2.822-.308-2.373-1.724l3.462-10.941-9.232-6.817c-1.195-.883-.579-2.779.907-2.79l11.475-.089 3.631-10.887c.469-1.409 2.462-1.409 2.932 0m-80.224-81.78 3.631 10.886 11.476.089c1.486.011 2.102 1.907.907 2.79l-9.232 6.817 3.462 10.941c.448 1.417-1.165 2.588-2.374 1.724l-9.336-6.673-9.336 6.673c-1.209.864-2.822-.308-2.373-1.724l3.462-10.941-9.232-6.817c-1.195-.883-.579-2.779.907-2.79l11.476-.089 3.631-10.886c.468-1.409 2.461-1.409 2.931 0m0 165.486 3.631 10.887 11.476.089c1.486.012 2.102 1.908.907 2.79l-9.232 6.817 3.462 10.941c.448 1.417-1.165 2.588-2.374 1.724l-9.336-6.673-9.336 6.673c-1.209.864-2.822-.308-2.373-1.724l3.462-10.941-9.232-6.817c-1.195-.883-.579-2.779.907-2.79l11.476-.089 3.631-10.887c.468-1.41 2.461-1.41 2.931 0" style="fill:#ffe15a"/></svg>
