<svg xmlns="http://www.w3.org/2000/svg" xml:space="preserve" viewBox="0 0 512 512" width="48" height="48"><path d="M112 0C50.15 0 .011 50.134 0 111.98v288.04C.011 461.866 50.15 512 112 512h58.667V0z" style="fill:#73af00"/><path d="M170.67 0h170.67v512H170.67z" style="fill:#f5f5f5"/><path d="M512 400V112C512 50.144 461.856 0 400 0h-58.666v512H400c61.856 0 112-50.144 112-112m-197.04-57.401-27.396-159.812a50 50 0 0 0-6.402-17.265L256 123.586l-25.161 41.935a50 50 0 0 0-6.402 17.265l-27.396 159.812a4.997 4.997 0 0 0 4.925 5.841h44.041v39.974h19.987V348.44h44.041a4.997 4.997 0 0 0 4.925-5.841" style="fill:#73af00"/></svg>
