<svg xmlns="http://www.w3.org/2000/svg" xml:space="preserve" viewBox="0 0 512 512" width="48" height="48"><path d="M112 512h288c45.991 0 85.5-27.724 102.745-67.369H9.255C26.5 484.276 66.009 512 112 512M400 0H112C66.009 0 26.5 27.724 9.255 67.368h493.49C485.5 27.724 445.991 0 400 0" style="fill:#41479b"/><path d="M502.745 67.368H9.255a111.2 111.2 0 0 0-7.86 26.947h509.211a111.2 111.2 0 0 0-7.861-26.947M9.255 444.631h493.49a111.2 111.2 0 0 0 7.86-26.947H1.395a111.2 111.2 0 0 0 7.86 26.947" style="fill:#f5f5f5"/><path d="M1.395 94.316A113 113 0 0 0 0 112v288c0 6.018.481 11.923 1.395 17.684h509.211A113 113 0 0 0 512 400V112c0-6.018-.48-11.923-1.395-17.684z" style="fill:#ff4b55"/><circle cx="163.21" cy="256" r="107.79" style="fill:#f5f5f5"/><path d="m166.081 157.866 21.623 64.835 68.344.53c2.907.023 4.113 3.733 1.774 5.46l-54.98 40.6 20.615 65.163c.877 2.772-2.279 5.065-4.644 3.374l-55.603-39.743-55.603 39.743c-2.365 1.691-5.521-.602-4.644-3.374l20.616-65.163-54.98-40.6c-2.339-1.727-1.133-5.437 1.774-5.46l68.344-.53 21.623-64.835c.92-2.758 4.821-2.758 5.741 0" style="fill:#ff4b55"/></svg>
