<svg xmlns="http://www.w3.org/2000/svg" xml:space="preserve" viewBox="0 0 512 512" width="48" height="48"><path d="M400 0H112C50.144 0 0 50.144 0 112v288c0 61.856 50.144 112 112 112h288c61.856 0 112-50.144 112-112V112C512 50.144 461.856 0 400 0" style="fill:#f5f5f5"/><path d="M496.366 54.906H15.634C6.259 70.695.653 88.981.058 108.531h511.883c-.595-19.55-6.2-37.836-15.575-53.625M15.634 457.094h480.732c9.375-15.789 14.98-34.075 15.575-53.625H.058c.595 19.55 6.201 37.836 15.576 53.625m232.869-228.261 12.426 16.256 19.404-6.495c1.085-.363 2.008.864 1.358 1.805l-11.62 16.842 12.173 16.447c.681.92-.201 2.177-1.297 1.85l-19.608-5.847-11.88 16.66c-.664.931-2.132.481-2.16-.662l-.498-20.456-19.515-6.151c-1.091-.344-1.117-1.879-.037-2.259l19.3-6.795-.181-20.461c-.012-1.144 1.44-1.643 2.135-.734m-64.015 90.763c-35.095 0-63.565-28.469-63.565-63.596 0-35.063 28.469-63.595 63.565-63.595 13.057 0 25.099 4.016 35.133 10.813 1.537 1.041 3.291-.979 2.004-2.316-14.997-15.592-36.224-25.105-59.758-24.302-40.433 1.38-73.906 33.798-76.49 74.172-2.959 46.246 33.658 84.678 79.249 84.678 22.458 0 42.641-9.389 57.054-24.4 1.274-1.326-.484-3.315-2.006-2.283-10.044 6.808-22.105 10.829-35.186 10.829" style="fill:#ff4b55"/></svg>
