<svg xmlns="http://www.w3.org/2000/svg" xml:space="preserve" viewBox="0 0 512 512" width="48" height="48"><path d="M400 0H112C50.144 0 0 50.144 0 112v288c0 61.856 50.144 112 112 112h288c61.827 0 111.952-50.097 111.999-111.913V111.913C511.953 50.097 461.828 0 400 0" style="fill:#4173cd"/><path d="M255.999 384c-70.578 0-128-57.422-128-128s57.422-128 128-128 128 57.422 128 128-57.421 128-128 128m0-229.517c-55.979 0-101.517 45.539-101.517 101.517s45.539 101.517 101.517 101.517S357.516 311.978 357.516 256s-45.539-101.517-101.517-101.517" style="fill:#f5f5f5"/><path d="M255.999 375.172c-65.711 0-119.172-53.461-119.172-119.172s53.461-119.172 119.172-119.172S375.172 190.289 375.172 256s-53.461 119.172-119.173 119.172m0-229.517c-60.845 0-110.345 49.5-110.345 110.345s49.5 110.345 110.345 110.345S366.344 316.845 366.344 256s-49.5-110.345-110.345-110.345" style="fill:#ffdc00"/><path d="M149.293 252.246c3.214 7.701-4.104 15.019-11.805 11.805a8.03 8.03 0 0 1-4.297-4.297c-3.214-7.702 4.103-15.019 11.805-11.805a8.04 8.04 0 0 1 4.297 4.297m229.517 0c3.214 7.701-4.103 15.019-11.805 11.805a8.03 8.03 0 0 1-4.297-4.297c-3.214-7.702 4.104-15.019 11.805-11.805a8.03 8.03 0 0 1 4.297 4.297M259.753 149.292c-7.701 3.214-15.019-4.104-11.805-11.805a8.03 8.03 0 0 1 4.297-4.297c7.702-3.214 15.019 4.103 11.805 11.805a8.03 8.03 0 0 1-4.297 4.297m-76.551 28.6c-3.173 7.719-13.522 7.719-16.695 0a8.03 8.03 0 0 1 0-6.077c3.173-7.719 13.522-7.719 16.695 0a8.04 8.04 0 0 1 0 6.077m150.905 5.309c-7.719-3.173-7.719-13.522 0-16.695a8.03 8.03 0 0 1 6.077 0c7.719 3.173 7.719 13.522 0 16.695a8.03 8.03 0 0 1-6.077 0m33.917 22.334c5.917 5.885 1.956 15.446-6.389 15.424a8.03 8.03 0 0 1-5.615-2.326c-5.917-5.885-1.956-15.446 6.389-15.424a8.03 8.03 0 0 1 5.615 2.326m-149.391-49.556c-5.885 5.917-15.446 1.956-15.424-6.389a8.03 8.03 0 0 1 2.326-5.615c5.885-5.917 15.446-1.956 15.424 6.389a8.04 8.04 0 0 1-2.326 5.615m-59.781 55.718c.022 8.345-9.539 12.306-15.424 6.389a8.03 8.03 0 0 1-2.326-5.615c-.022-8.345 9.539-12.306 15.424-6.389a8.03 8.03 0 0 1 2.326 5.615m141.45-52.845c-8.345.022-12.306-9.539-6.389-15.424a8.03 8.03 0 0 1 5.615-2.326c8.345-.022 12.306 9.539 6.389 15.424a8.03 8.03 0 0 1-5.615 2.326m75.414 69.507c4.655 6.926-1.094 15.531-9.275 13.881a8.04 8.04 0 0 1-5.053-3.376c-4.655-6.926 1.095-15.531 9.275-13.881a8.03 8.03 0 0 1 5.053 3.376m-136.851-77.748c-6.926 4.655-15.531-1.094-13.881-9.275a8.04 8.04 0 0 1 3.376-5.053c6.926-4.655 15.531 1.095 13.881 9.275a8.03 8.03 0 0 1-3.376 5.053m-69.504 42.984c-1.606 8.189-11.756 10.208-16.374 3.257a8.03 8.03 0 0 1-1.186-5.96c1.606-8.189 11.756-10.208 16.374-3.257a8.03 8.03 0 0 1 1.186 5.96m149.043-24.234c-8.189-1.606-10.208-11.756-3.257-16.374a8.03 8.03 0 0 1 5.96-1.186c8.189 1.606 10.208 11.756 3.257 16.374a8.03 8.03 0 0 1-5.96 1.186m37.622 15.288c6.951 4.618 4.932 14.768-3.257 16.374a8.03 8.03 0 0 1-5.96-1.186c-6.951-4.618-4.932-14.768 3.257-16.374a8.04 8.04 0 0 1 5.96 1.186M199.839 165.19c-4.618 6.951-14.768 4.932-16.374-3.257a8.03 8.03 0 0 1 1.186-5.96c4.618-6.951 14.768-4.932 16.374 3.257a8.05 8.05 0 0 1-1.186 5.96m-47.763 66.311c1.65 8.181-6.955 13.93-13.881 9.275a8.03 8.03 0 0 1-3.376-5.053c-1.65-8.181 6.955-13.93 13.881-9.275a8.03 8.03 0 0 1 3.376 5.053m128.422-79.426c-8.181 1.65-13.93-6.955-9.275-13.881a8.03 8.03 0 0 1 5.053-3.376c8.181-1.65 13.93 6.955 9.275 13.881a8.03 8.03 0 0 1-5.053 3.376" style="fill:#ffdc00"/><path d="M370.758 260.414a4.41 4.41 0 0 1-4.414-4.414c0-60.845-49.5-110.345-110.345-110.345S145.656 195.155 145.656 256c0 2.44-1.974 4.414-4.414 4.414s-4.414-1.974-4.414-4.414c0-65.711 53.461-119.172 119.172-119.172S375.172 190.289 375.172 256a4.41 4.41 0 0 1-4.414 4.414" style="fill:#ffa000"/><path d="M280.526 388.414h-49.054c-10.482 0-18.656-9.079-17.558-19.503l15.602-148.221h52.965l15.602 148.221c1.099 10.424-7.075 19.503-17.557 19.503" style="fill:#b4b4b4"/><path d="M282.232 220.69H229.56a4.547 4.547 0 0 1-4.52-4.055l-3.29-30.302c-.567-5.222 3.523-9.781 8.776-9.781h50.945c5.253 0 9.343 4.559 8.776 9.781l-3.268 30.097a4.776 4.776 0 0 1-4.747 4.26" style="fill:#aaa"/><path d="m258.044 186.833 16.364 47.078 49.831 1.016c2.051.042 2.898 2.649 1.263 3.888l-39.717 30.111 14.433 47.706c.594 1.964-1.623 3.575-3.308 2.403L256 290.567l-40.911 28.468c-1.684 1.172-3.902-.439-3.308-2.403l14.433-47.706-39.717-30.111c-1.635-1.24-.788-3.846 1.263-3.888l49.831-1.016 16.364-47.078c.675-1.938 3.415-1.938 4.089 0" style="fill:#f5f5f5"/></svg>
