<svg xmlns="http://www.w3.org/2000/svg" xml:space="preserve" viewBox="0 0 512 512" width="48" height="48"><path d="M400 0H112C50.144 0 0 50.144 0 112v58.667h512V112C512 50.144 461.856 0 400 0" style="fill:#f5f5f5"/><path d="M0 400c0 61.856 50.144 112 112 112h288c61.856 0 112-50.144 112-112v-58.667H0z" style="fill:#73af00"/><path d="M0 170.67h512v170.67H0z" style="fill:#ff4b55"/><path d="M112 0C50.144 0 0 50.144 0 112v288c0 61.856 50.144 112 112 112h90.105V0z" style="fill:#ff4b55"/><path d="M55.033 111.677q-1.13.13-2.191.271v9.596q1.07.274 2.191.538zm33.193 18.289c-2.001-.16-5.074-.468-8.744-.916l-23.014 20.469c2.981.456 6.554 1.059 8.046 1.535 5.911-5.174 13.839-12.224 23.712-21.088m34.629-32.556v-1.972H82.022v2.936h40.833zm-30.23-58.397c0 2.875 4.333 5.304 9.464 5.304 5.13 0 9.464-2.429 9.464-5.304s-4.333-5.304-9.464-5.304-9.464 2.429-9.464 5.304m-8.851 71.365c-9.218-.045-18.416.293-25.937 1.004v11.328c8.836 1.896 19.129 3.349 25.937 4.072zM36.29 166.284c3.643-.077 11.646-1.517 17.064-5.751 1.68-1.312 4.547-3.727 8.578-7.229-2.734-.561-7.319-1.24-9.765-1.577zm52.742-73.65v-5.15l-2.13-3.167-6.269 4.559c1.247 2.144 2.048 3.507 2.195 3.758zm-48.236 23.254c-.021.085-.07.279.246.685 1.164 1.491 4.53 2.915 8.997 4.211v-8.42c-5.365.89-8.878 2.065-9.243 3.524m71.72-4.02v-10.69h-20.68v26.112h5.257c8.504 0 15.423-6.919 15.423-15.422M79.279 73.036c-11.072-16.321-22.897-33.471-25.782-36.87.414 1.52 1.412 4.373 3.743 9.715 3.009 6.895 10.311 20.114 16.355 30.754zm-4.294 6.04c1.574 2.757 3.018 5.264 4.233 7.363l6.116-4.448a4224 4224 0 0 0-4.481-6.631zm14.047 48.164v-16.796q-1.223-.026-2.454-.045v16.657c.946.084 1.77.145 2.454.184m2.808-49.02h20.68v2.935H91.84zm49.417 14.239v.175h1.051c.775 0 1.402.627 1.402 1.402v5.74c0 .775-.627 1.402-1.402 1.402h-1.051v.175c0 .772.628 1.402 1.402 1.402h23.659c.774 0 1.402-.63 1.402-1.402v-8.894c0-.772-.628-1.402-1.402-1.402h-23.659c-.774 0-1.402.63-1.402 1.402m26.471 73.745-15.789-14.477c-2.445.337-7.031 1.016-9.765 1.577 4.105 3.56 6.97 5.975 8.578 7.232 5.333 4.165 13.171 5.624 16.976 5.668m-32.43-69.802v1.972h5.608v-2.936h-5.608zm4.29 54.654c1.49-.478 5.07-1.082 8.055-1.538l-33.905-30.257a18.3 18.3 0 0 1-3.78 5.505l.892.797c12.285 10.996 21.885 19.51 28.738 25.493m-75.967-49.703v-.175h-1.052a1.4 1.4 0 0 1-1.402-1.402v-5.74c0-.775.627-1.402 1.402-1.402h1.052v-.175c0-.772-.628-1.402-1.402-1.402H38.56c-.773 0-1.402.63-1.402 1.402v8.894c0 .772.629 1.402 1.402 1.402h23.659c.773 0 1.402-.63 1.402-1.402m5.958-3.943v-1.972h-5.608v2.936h5.608zm53.892-8.535-6.269-4.559-1.883 2.801v5.517h5.956c.148-.251.949-1.614 2.196-3.759M93.713 69.633h16.934l-3.727-4.135h-9.48zM91.84 72.57h20.68v2.848H91.84zm10.248-25.449c-1.362 0-2.64-.175-3.856-.434v15.848h7.799V46.669a18.3 18.3 0 0 1-3.943.452M91.836 86.895h20.589a1.4 1.4 0 0 1 .09-.516V83.96h-20.68zm26.934-4.905 6.116 4.448c1.215-2.099 2.66-4.606 4.234-7.363l-5.869-3.716a4224 4224 0 0 0-4.481 6.631M91.84 89.7h20.68v2.935H91.84zm38.67-13.066c6.044-10.64 13.346-23.858 16.355-30.753 2.337-5.356 3.335-8.212 3.747-9.726-2.834 3.326-14.688 20.519-25.787 36.881z" style="fill:#f5f5f5"/><path d="m171.633 165.982-18.284-16.766a1.37 1.37 0 0 0-1.135-.356c-.155.02-.508.068-.977.134-.025-.026-.036-.06-.063-.085l-36.444-32.522c.371-1.448.59-2.957.59-4.519v-10.69h8.84c1.138 1.481 2.908 2.453 4.917 2.453s3.779-.972 4.917-2.453h4.459v.175a4.21 4.21 0 0 0 4.206 4.206h23.659a4.21 4.21 0 0 0 4.206-4.206v-8.894a4.21 4.21 0 0 0-4.206-4.206h-23.659a4.21 4.21 0 0 0-4.206 4.206v.175h-4.459c-1.138-1.481-2.908-2.453-4.917-2.453-1.522 0-2.899.57-3.982 1.481 4.726-8.09 19.572-33.731 24.341-44.658 5.115-11.725 4.703-13.24 3.493-14.212-1.276-1.021-2.89.153-3.499.6-2.345 1.704-25.093 35.31-34.109 48.703v-11.06c0-.031-.016-.057-.018-.088l-.001-.004a1.37 1.37 0 0 0-.686-1.098l-5.78-6.41V45.81c3.342-1.434 5.52-3.913 5.52-6.797 0-4.546-5.389-8.108-12.268-8.108S89.82 34.468 89.82 39.013c0 2.908 2.218 5.4 5.608 6.828v17.7l-5.671 6.29c-.426.241-.725.68-.725 1.204v11.426c-8.843-13.137-31.99-47.35-34.355-49.069-.612-.444-2.228-1.618-3.501-.6-1.21.972-1.622 2.486 3.493 14.212 4.617 10.58 18.68 34.952 23.859 43.834a6.15 6.15 0 0 0-2.727-.657c-2.009 0-3.779.972-4.917 2.453h-4.459v-.175a4.21 4.21 0 0 0-4.206-4.206H38.56a4.21 4.21 0 0 0-4.206 4.206v8.894a4.21 4.21 0 0 0 4.206 4.206h23.659a4.21 4.21 0 0 0 4.206-4.206v-.175h4.459c1.138 1.481 2.908 2.453 4.917 2.453s3.779-.972 4.917-2.453h8.314v6.455c-12.999-.279-48.983-.32-50.956 7.576-.183.731-.201 1.865.756 3.089 3.793 4.858 23.014 8.404 36.959 10.278l-22.858 20.33c-.028.025-.04.06-.065.087l-.977-.134c-.422-.06-.83.074-1.135.356l-18.285 16.766a1.4 1.4 0 0 0-.129 1.93c.607.728 2.146 1.084 4.205 1.084 5.069 0 13.29-2.16 18.531-6.254 4.32-3.374 16.286-13.864 35.569-31.184.835-.749 1.388-1.247 1.633-1.465h4.813c3.999 0 7.69-1.31 10.699-3.503l1.188 1.06c22.201 19.872 35.673 31.677 40.046 35.091 5.241 4.096 13.46 6.254 18.529 6.254 2.061 0 3.6-.356 4.207-1.084a1.4 1.4 0 0 0-.129-1.928M91.836 127.29v-26.112h20.68v10.69c0 8.502-6.918 15.422-15.422 15.422zm-41.797-6.506c-4.467-1.296-7.833-2.72-8.997-4.211-.316-.405-.267-.6-.246-.685.365-1.459 3.878-2.634 9.243-3.524zm3.458-84.619c2.885 3.399 14.71 20.55 25.782 36.87l-5.684 3.599C67.551 65.994 60.249 52.775 57.24 45.88c-2.331-5.342-3.329-8.195-3.743-9.715m33.405 48.152 2.13 3.167v5.15h-6.204c-.147-.251-.948-1.614-2.195-3.758zm-7.683 2.122a1432 1432 0 0 1-4.233-7.363l5.869-3.716c1.529 2.257 3.025 4.472 4.481 6.631zm9.813 24.006v16.796c-.685-.039-1.508-.1-2.454-.184V110.4q1.23.017 2.454.045m-31.195.937c7.521-.711 16.719-1.049 25.937-1.004v16.404c-6.808-.723-17.101-2.175-25.937-4.072zm-4.994.566q1.06-.142 2.191-.271v10.406c-.749-.176-1.476-.356-2.191-.538zm26.639 17.101c3.67.448 6.743.757 8.744.916-9.873 8.864-17.801 15.914-23.712 21.088-1.492-.476-5.064-1.079-8.046-1.535zm-17.551 24.255c-4.031 3.502-6.898 5.917-8.578 7.229-5.418 4.233-13.42 5.674-17.064 5.751l15.877-14.557c2.446.337 7.031 1.016 9.765 1.577m20.091-54.93v-2.936h40.833v2.936zm29.53-59.361c0 2.875-4.333 5.304-9.464 5.304-5.13 0-9.464-2.429-9.464-5.304s4.333-5.304 9.464-5.304c5.13 0 9.464 2.429 9.464 5.304M91.836 81.156V78.22h20.68v2.935zm20.68 2.804v2.419q-.096.254-.09.516h-20.59V83.96zm-20.68-8.544v-2.848h20.68v2.848zm15.084-9.918 3.728 4.135H93.713l3.728-4.135zm-8.687-2.963V46.687c1.215.26 2.493.434 3.856.434 1.395 0 2.703-.18 3.943-.452v15.866zm-6.397 27.164h20.68v2.935h-20.68zm55.029-43.818c-3.009 6.895-10.311 20.114-16.355 30.753l-5.684-3.599c11.098-16.362 22.952-33.555 25.787-36.881-.413 1.515-1.411 4.371-3.748 9.727m-14.371 50.521v1.008c0 1.884-1.533 3.417-3.417 3.417s-3.417-1.533-3.417-3.417v-1.008c0-1.884 1.533-3.417 3.417-3.417s3.417 1.533 3.417 3.417m-7.608-9.964-6.116-4.448c1.455-2.159 2.951-4.373 4.48-6.631l5.869 3.716a1361 1361 0 0 1-4.233 7.363m-9.566.68 1.883-2.801 6.269 4.559a970 970 0 0 1-2.196 3.759h-5.956zm-1.582 32.143 33.905 30.257c-2.985.456-6.565 1.06-8.055 1.538-6.853-5.983-16.453-14.496-28.738-25.493l-.892-.797a18.3 18.3 0 0 0 3.78-5.505m38.201 32.466 15.789 14.477c-3.805-.044-11.643-1.503-16.976-5.668-1.607-1.257-4.473-3.672-8.578-7.232 2.734-.561 7.32-1.24 9.765-1.577m15.781-59.268v8.894c0 .772-.628 1.402-1.402 1.402h-23.659c-.774 0-1.402-.63-1.402-1.402v-.175h1.051c.775 0 1.402-.627 1.402-1.402v-5.74c0-.775-.627-1.402-1.402-1.402h-1.051v-.175c0-.772.628-1.402 1.402-1.402h23.659c.773 0 1.402.63 1.402 1.402m-26.814 5.915h-5.608v-2.936h5.608zm-103.748 2.979v-8.894c0-.772.629-1.402 1.402-1.402h23.659c.774 0 1.402.63 1.402 1.402v.175h-1.052c-.775 0-1.402.627-1.402 1.402v5.74c0 .775.627 1.402 1.402 1.402h1.052v.175c0 .772-.628 1.402-1.402 1.402H38.56c-.774 0-1.402-.63-1.402-1.402m26.813-5.915h5.608v2.936h-5.608zm15.247 1.972c0 1.884-1.533 3.417-3.417 3.417s-3.417-1.533-3.417-3.417v-1.008a3.42 3.42 0 0 1 3.417-3.417 3.42 3.42 0 0 1 3.417 3.417z" style="fill:#d23741"/></svg>
