<svg xmlns="http://www.w3.org/2000/svg" xml:space="preserve" viewBox="0 0 512 512" width="48" height="48"><path d="M400 0H132.414v512H400c61.856 0 112-50.144 112-112V112C512 50.144 461.856 0 400 0" style="fill:#73af00"/><path d="M112 0C50.144 0 0 50.144 0 112v288c0 61.856 50.144 112 112 112h20.414V0zm308.635 306.14c-44.151 39.331-111.736 35.289-150.988-8.94-39.176-44.147-35.21-111.929 8.938-151.257l.193-.171c1.043-.918.035-2.583-1.26-2.079-43.539 16.955-74.408 59.305-74.408 108.891 0 64.591 52.233 116.903 116.67 116.903 44.575 0 83.204-25.081 102.827-61.901.655-1.229-.88-2.424-1.918-1.496zm-56.791-140.819 15.342 17.213 21.253-8.944c2.752-1.158 5.394 1.853 3.888 4.431l-11.63 19.911 15.074 17.449c1.952 2.259-.095 5.702-3.012 5.067l-22.53-4.908-11.937 19.728c-1.545 2.554-5.453 1.671-5.75-1.299l-2.295-22.944-22.451-5.256c-2.907-.681-3.274-4.669-.541-5.87l21.112-9.272-1.939-22.977c-.25-2.976 3.43-4.558 5.416-2.329" style="fill:#f5f5f5"/></svg>
