<svg xmlns="http://www.w3.org/2000/svg" xml:space="preserve" viewBox="0 0 512 512" width="48" height="48"><path d="M400 0H112C50.144 0 0 50.144 0 112v58.667h512V112C512 50.144 461.856 0 400 0" style="fill:#464655"/><path d="M0 400c0 61.856 50.144 112 112 112h288c61.856 0 112-50.144 112-112v-58.667H0z" style="fill:#73af00"/><path d="M0 170.67h512v170.67H0z" style="fill:#f5f5f5"/><path d="M244.324 249.017 32.496 33.12C12.411 53.362 0 81.231 0 112v288c0 30.769 12.411 58.638 32.496 78.88l211.829-215.897c3.492-3.569 3.492-10.397-.001-13.966" style="fill:#ff4b55"/></svg>
