<svg xmlns="http://www.w3.org/2000/svg" xml:space="preserve" viewBox="0 0 512 512" width="48" height="48"><path d="M400 0H112C50.144 0 0 50.144 0 112v288c0 61.856 50.144 112 112 112h288c61.856 0 112-50.144 112-112V112C512 50.144 461.856 0 400 0" style="fill:#f5f5f5"/><path d="M400 0H256v256h256V112C512 50.144 461.856 0 400 0" style="fill:#ff4b55"/><path d="M0 256v144c0 61.856 50.144 112 112 112h144V256zM131.4 90.349l8.416 25.234 26.6.206c3.444.027 4.872 4.422 2.101 6.467l-21.398 15.802 8.023 25.361c1.039 3.283-2.7 6-5.501 3.997L128 151.949l-21.641 15.468c-2.802 2.003-6.54-.714-5.501-3.997l8.023-25.361-21.398-15.802c-2.77-2.046-1.342-6.441 2.101-6.467l26.599-.206 8.416-25.234c1.09-3.268 5.712-3.268 6.801-.001" style="fill:#4173cd"/><path d="m387.4 346.349 8.416 25.234 26.6.206c3.444.027 4.872 4.422 2.101 6.467l-21.398 15.802 8.023 25.361c1.039 3.284-2.7 6-5.501 3.997L384 407.949l-21.641 15.468c-2.802 2.003-6.54-.714-5.501-3.997l8.023-25.361-21.398-15.802c-2.77-2.046-1.342-6.441 2.101-6.467l26.6-.206 8.416-25.234c1.09-3.268 5.71-3.268 6.8-.001" style="fill:#ff4b55"/></svg>
