<svg xmlns="http://www.w3.org/2000/svg" xml:space="preserve" viewBox="0 0 512 512" width="48" height="48"><path d="M400 0H112C50.144 0 0 50.144 0 112v288c0 61.856 50.144 112 112 112h288c61.856 0 112-50.144 112-112V112C512 50.144 461.856 0 400 0" style="fill:#ff4b55"/><path d="M0 112v288c0 61.856 50.144 112 112 112h288c30.928 0 58.928-12.536 79.196-32.804L32.804 32.804C12.536 53.072 0 81.072 0 112" style="fill:#464655"/><path d="m71.604 292.026-5.052 15.148-15.968.124c-1.531.012-2.166 1.966-.934 2.876l12.845 9.486-4.817 15.224c-.462 1.46 1.2 2.668 2.446 1.777l12.991-9.285 12.991 9.285c1.246.89 2.908-.317 2.446-1.777l-4.816-15.224 12.845-9.486c1.232-.91.597-2.864-.934-2.876l-15.967-.124-5.052-15.148c-.485-1.452-2.54-1.452-3.024 0m108.783 0-5.052 15.148-15.967.124c-1.531.012-2.166 1.966-.934 2.876l12.845 9.486-4.816 15.224c-.462 1.46 1.2 2.668 2.446 1.777l12.991-9.285 12.991 9.285c1.246.89 2.908-.317 2.446-1.777l-4.816-15.224 12.845-9.486c1.232-.91.597-2.864-.934-2.876l-15.967-.124-5.052-15.148c-.487-1.452-2.541-1.452-3.026 0m-54.392-65.937-5.052 15.148-15.967.124c-1.531.012-2.166 1.966-.934 2.876l12.845 9.486-4.817 15.224c-.462 1.46 1.2 2.668 2.446 1.777l12.991-9.285 12.991 9.285c1.246.89 2.908-.317 2.446-1.777l-4.817-15.224 12.845-9.486c1.232-.91.597-2.864-.934-2.876l-15.968-.124-5.052-15.148c-.483-1.452-2.538-1.452-3.023 0m0 162.149-5.052 15.148-15.967.124c-1.531.012-2.166 1.966-.934 2.876l12.845 9.486-4.817 15.224c-.462 1.46 1.2 2.668 2.446 1.777l12.991-9.285 12.991 9.285c1.246.89 2.908-.317 2.446-1.777l-4.817-15.224 12.845-9.486c1.232-.91.597-2.864-.934-2.876l-15.968-.124-5.052-15.148c-.483-1.453-2.538-1.453-3.023 0m25.338-39.508-2.687 8.055-8.491.066c-.814.006-1.152 1.045-.497 1.529l6.831 5.044-2.561 8.096c-.246.776.638 1.419 1.301.945l6.908-4.938 6.908 4.938c.662.473 1.546-.169 1.301-.945l-2.561-8.096 6.831-5.044c.655-.484.317-1.523-.497-1.529l-8.491-.066-2.687-8.055c-.257-.772-1.35-.772-1.608 0" style="fill:#f5f5f5"/><path d="M426.266 191.875c-1.292-10.003-5.565-19.889-8.671-25.995 1.533.766 3.917 2.148 3.917 2.148l-2.104-7.628c5.261 2.104 9.206 6.181 9.206 6.181-2.63-13.152-6.707-19.333-6.707-19.333l3.288 1.184c-6.181-15.256-15.387-19.596-15.387-19.596l5.261-1.315c-7.759-9.732-18.675-13.02-18.675-13.02l7.102-3.419c-18.807-10.653-36.956.526-36.956.526s6.313-6.576 8.68-9.338-3.288-3.682-3.288-3.682 5.524-3.814 5.261-6.05-5.261-1.052-5.261-1.052 4.34-4.472 4.34-6.97c0-2.499-4.471-.921-4.471-.921s1.447-3.025 1.841-5.392c.395-2.367-3.945-.395-3.945-.395s4.866-8.68 4.603-10.521-12.757 5.918-21.7 14.467-7.869 22.286-7.077 25.554 1.287 10.893-2.674 13.566-11.029-3.874-14.536-7.907-7.891-2.63-12.45-1.052-13.152-.526-15.782-.877c-2.63-.35 2.981 2.63 7.715 4.384 4.735 1.753 6.839 5.962 13.502 8.417 5.837 2.151 10.511 7.611 5.918 10.127-3.579 1.96-3.551-1.184-19.333-5.261s-34.72 36.036-34.72 36.036c10.139-1.253 15.321-7.326 15.321-7.326l-2.739 7.856c7.493-1.419 11.156-5.975 11.156-5.975l-1.98 7.922c5.744-1.783 9.704-7.922 9.704-7.922l-1.684 7.823c5.644-2.673 8.615-7.823 8.615-7.823.594 2.872 1.061 8.733 1.061 8.733 8.742-4.673 10.784-11.31 10.784-11.31 9.995 30.249 24.462 35.246 24.462 35.246l.789-7.891c4.472 6.313 10.784 9.469 10.784 9.469l-1.052-6.839c15.519 18.938 33.405 23.673 33.405 23.673l-4.58-10.481 5.632 1.144c-6.05-5.129-8.285-14.072-8.285-14.072l4.734.789c-7.628-6.97-11.442-14.993-11.442-14.993l4.603.789c-1.447-2.236-2.63-10.127-2.63-10.127 8.417 2.63 12.757 5.918 12.757 5.918l.498-2.864c7.22 5.203 19.079 14.889 27.297 27.066.011 3.973-.631 7.984-2.281 12.009-7.538 18.386-27.355 17.185-36.123 13.327 0 0 27.18 21.218 42.085-8.943.944-1.911 1.536-3.956 1.959-6.054 1.86 4.434 3.144 9.059 3.39 13.857 1.578 30.775-30.512 27.881-30.512 27.881s35.51 14.204 37.088-26.829c.35-9.124-3.513-18.246-9.713-26.919m-32.264-30.718.154-.888c5.392 1.578 11.047 5.392 11.047 5.392l1.249-3.748c5.335 6.411 9.596 13.309 11.968 20.452-7.2-7.738-15.831-14.924-24.418-21.208" style="fill:#ffe15a"/></svg>
