<svg xmlns="http://www.w3.org/2000/svg" xml:space="preserve" viewBox="0 0 512 512" width="48" height="48"><path d="M400 0H112C50.144 0 0 50.144 0 112v58.667h512V112C512 50.144 461.856 0 400 0" style="fill:#ff4b55"/><path d="M0 400c0 61.856 50.144 112 112 112h288c61.856 0 112-50.144 112-112v-58.667H0z" style="fill:#41479b"/><path d="M0 170.67h512v170.67H0z" style="fill:#f5f5f5"/><path d="M256 188.631c-37.206 0-67.368 30.161-67.368 67.368s30.162 67.368 67.368 67.368 67.368-30.161 67.368-67.368-30.162-67.368-67.368-67.368m0 118.176c-28.06 0-50.807-22.747-50.807-50.807S227.94 205.193 256 205.193 306.807 227.94 306.807 256 284.06 306.807 256 306.807" style="fill:#ff4b55"/><circle cx="256" cy="256" r="23.368" style="fill:#41479b"/><path d="m257.522 238.299 3.767 11.294 11.905.092c1.541.012 2.18 1.979.94 2.895l-9.577 7.072 3.591 11.351c.465 1.47-1.208 2.685-2.462 1.789L256 265.868l-9.685 6.923c-1.254.896-2.927-.319-2.462-1.789l3.591-11.351-9.577-7.072c-1.24-.916-.601-2.883.941-2.895l11.905-.092 3.767-11.294c.486-1.461 2.554-1.461 3.042.001" style="fill:#ffe15a"/><path d="M300.202 256.544s1.335-6.176-5.234 1.234c0 0 .095-2.109-.089-3.849 1.444-1.565 3.237-4.986 2.817-12.29 0 0-1.03-6.234-4.413 3.073 0 0-.923-2.745-1.905-4.266.816-1.69 1.444-4.77-.51-10.605 0 0-2.285-4.99-2.997 3.583 0 0-1.876-2.806-3.095-3.495.236-1.383.05-3.757-2.709-7.603 0 0-2.754-3.083-1.362 3.245 0 0-2.52-2.042-3.326-1.8-.418-1.208-1.629-3.252-5.692-5.941 0 0-3.522-1.929.519 3.103 0 0-3.571-1.416-3.529-.605s1.769 2.309 3.187 2.978c0 0-5.237.544-3.087 1.71 0 0 5.314 1.832 8.506.069.256.93.776 1.972 1.549 2.721 0 0-6.233-1.21-4.546.661 0 0 4.675 3.436 9.295 2.909-.022 1.273.363 2.917 1.04 4.148 0 0-7.432-3.974-6.024-.94 0 0 4.445 5.944 10.358 7.236-.243 1.322-.237 2.921.082 4.242 0 0-7.055-6.663-6.408-2.867 0 0 2.949 7.817 8.927 11.139-.487.992-.887 2.103-1.033 3.137 0 0-4.11-8.793-4.905-5.023 0 0-.136 8.782 4.553 14.034-.999.83-1.977 1.993-2.577 3.132 0 0-.9-9.661-2.921-6.384 0 0-2.793 7.32-.903 13.628-1.249.368-2.612 1.051-3.619 1.868 0 0 2.981-9.235-.169-7.02 0 0-5.609 6.066-6.036 12.893-1.487-.03-3.5.505-4.958 1.376 0 0 4.266-8.715.832-6.97 0 0-6.118 4.996-7.697 11.483-1.446.825-3.904 2.228-6.359 3.621-1.427-.828-2.816-1.636-4.003-2.327l.04-.064-13.907-11.657.276 3.813-6.983-12.488-.862 4.25-2.287-13.806-2.028 2.037.785-12.88-2.643 1.425 4.801-9.58-2.256.637 5.933-5.688-3.135.267 7.5-3.406-2.742-.421 7.322-3.707-3.154-.154 9.492-3.283-1.738-1.52 8.216-2.424-9.845-.75 2.805-3.451-7.512 3.844 1.078-5.196-6.57 6.766 1.143-4.738-6.15 6.119.398-4.618-6.081 10.297-.784-4.608-5.053 11.561-1.391-5.037-2.256 14.337-1.882-2.133 2.474 13.83-3.138-2.353 5.754 12.421s-4.184-1.83-4.707-1.83 10.003 10.689 10.003 10.689l-5.492-.588 10.611 7.461-3.943.974 8.826 3.431-2.158 1.668 18.273 1.306s1.762 1.467 4.158 3.166a307 307 0 0 1-3.067 1.712 2.58 2.58 0 0 1-2.24.112 461 461 0 0 0-5.455-2.238s.117 5.194 5.525 5.324c2.222.051 5.25-1.362 8.066-3.036 2.883 1.798 6.064 3.384 8.363 3.33 5.29-.13 5.406-5.324 5.406-5.324a441 441 0 0 0-5.337 2.238 2.47 2.47 0 0 1-2.191-.112c-.75-.419-1.982-1.124-3.396-1.94a73 73 0 0 0 3.505-2.522c1.33 1.046 5.14 2.884 13.655-.313 0 0 5.647-2.836-4.245-3.301 0 0 1.836-1.347 3.075-2.627 1.622.835 5.633 1.824 13.255-2.361 0 0 5.186-3.612-4.671-2.662 0 0 1.316-1.281 2.351-2.586 1.701.191 5.9-.264 11.468-7.385 0 0 3.342-5.363-5.343-.607 0 0 1.123-2.677 1.388-4.469 1.917-.921 4.843-3.443 7.138-10.39" style="fill:#64c86e"/></svg>
