<svg xmlns="http://www.w3.org/2000/svg" xml:space="preserve" viewBox="0 0 512 512" width="48" height="48"><path d="M32.804 32.804C12.536 53.072 0 81.072 0 112v288c0 30.928 12.536 58.928 32.804 79.196L256 256z" style="fill:#f5f5f5"/><path d="M32.804 479.196C53.072 499.464 81.072 512 112 512h288c61.856 0 112-50.144 112-112V256H256z" style="fill:#ff4b55"/><path d="M400 0H112C81.072 0 53.072 12.536 32.804 32.804L256 256h256V112C512 50.144 461.856 0 400 0" style="fill:#41479b"/><circle cx="91.62" cy="256" r="28.69" style="fill:#ffe15a"/><path d="m91.621 256-10.759-43.035 10.759-14.344 10.758 14.344zm0 0 10.758 43.034-10.758 14.345-10.759-14.345zm0 0-43.035 10.759L34.241 256l14.345-10.759zm0 0 43.034-10.759L149 256l-14.345 10.759zm0 0 22.822-38.037 17.751-2.536-2.536 17.751zm0 0-22.823 38.038-17.751 2.535 2.536-17.75zm0 0-38.038-22.822-2.536-17.751 17.751 2.536zm0 0 38.037 22.823 2.536 17.75-17.751-2.535zM28.365 74.724l1.496 11.16-10.075 5.028c-1.304.651-1.029 2.588.405 2.85l11.076 2.026 1.669 11.136c.216 1.442 2.143 1.779 2.835.496l5.35-9.908 11.106 1.854c1.438.24 2.354-1.488 1.348-2.544l-7.77-8.15L51 78.682c.673-1.293-.688-2.699-2.002-2.068l-10.152 4.871-7.896-8.028c-1.021-1.038-2.778-.178-2.585 1.267m3.755 332.419-1.89 11.1-11.114 1.806c-1.439.234-1.752 2.165-.461 2.841l9.973 5.227-1.717 11.128c-.222 1.441 1.517 2.335 2.56 1.317l8.053-7.87 10.053 5.072c1.302.657 2.69-.721 2.043-2.028l-4.996-10.091 7.931-7.994c1.027-1.035.145-2.781-1.297-2.57l-11.141 1.633-5.152-10.012c-.667-1.295-2.6-.996-2.845.441m170.614-167.588-6.48 9.209-10.811-3.15c-1.4-.408-2.513 1.201-1.638 2.367l6.755 9.009-6.337 9.308c-.82 1.205.365 2.761 1.745 2.29l10.655-3.641 6.894 8.903c.893 1.153 2.739.506 2.717-.952l-.17-11.259 10.598-3.806c1.372-.493 1.327-2.448-.066-2.878l-10.76-3.318-.344-11.255c-.045-1.457-1.918-2.019-2.758-.827" style="fill:#ffe15a"/></svg>
