<svg xmlns="http://www.w3.org/2000/svg" xml:space="preserve" viewBox="0 0 512 512" width="48" height="48"><path d="M400 0H112C50.144 0 0 50.144 0 112v288c0 61.856 50.144 112 112 112h288c61.856 0 112-50.144 112-112V112C512 50.144 461.856 0 400 0" style="fill:#41479b"/><path d="M391.184 257.438a.96.96 0 0 1-.575-.193c-.138-.106-13.838-10.783-5.769-28.88a.957.957 0 0 1 1.259-.482c.48.216.696.777.482 1.259-7.443 16.687 4.662 26.191 5.181 26.587a.951.951 0 0 1-.578 1.709" style="fill:#73af00"/><path d="M383.293 241.807q-.055 0-.112-.006a.954.954 0 0 1-.837-1.056c.396-3.422 1.683-5.81 3.827-7.097 3.45-2.074 7.761-.417 7.941-.344a.952.952 0 0 1-.694 1.772c-.037-.015-3.638-1.382-6.277.208-1.605.969-2.583 2.879-2.905 5.68a.95.95 0 0 1-.943.843m2.587-12.275c-.082-.21-2.141-5.098-11.447-3.018-10.539 2.362-10.662 16.263-10.662 16.403a.954.954 0 0 0 .952.952.95.95 0 0 0 .921-.71c3.928-14.961 18.556-12.449 19.177-12.339a.95.95 0 0 0 .908-.331.95.95 0 0 0 .151-.957" style="fill:#73af00"/><path d="M383.687 237.283s-6.348-4.047-8.966 1.111-.635 10.712.397 12.934c0 0 3.784-4.183 7.379-4.761 4.444-.714 5.554-6.269 2.46-9.046-3.698-3.318-1.27-.238-1.27-.238m6.935-9.48c-.091 5.553 3.004 6.282 3.004 6.282 2.003-5.099-3.004-6.282-3.004-6.282" style="fill:#73af00"/><path d="M389.653 239.469c.042-5.27 3.617-5.862 3.617-5.862 2.166 4.899-3.617 5.862-3.617 5.862" style="fill:#73af00"/><path d="M410.269 235.22s-5.053-.747-6.992-1.662c-1.613-.762-3.719-2.599-6.445-2.241a3.77 3.77 0 0 0-3.772 3.772c0 2.083 1.431 4.579 8.917 4.025 3.629-.269 6.721 1.389 6.721 1.389-.475-1.984 1.571-5.283 1.571-5.283" style="fill:#ff4b55"/><path d="M405.025 236.873s-7.752.538-9.455-.717c-1.571-1.158-1.161-3.003.448-3.181 2.42-.269 9.007 3.898 9.007 3.898" style="fill:#ffe15a"/><path d="m420.108 245.654-17.139 10.712-1.964-1.904 9.403-9.105 2.202.893 2.142-2.857-5.118-2.678s-13.569 12.795-25.114 13.866c-3.884.36-7.842.107-10.928-1.164l-6.925 9.972 14.521 12.378 21.305-.833 17.615-23.924 3.095 1.428 2.618-3.095z" style="fill:#b49b91"/><path d="M372.343 274.497c-4.768 0-8.648-3.879-8.648-8.646s3.879-8.648 8.648-8.648c4.767 0 8.646 3.879 8.646 8.648 0 4.766-3.88 8.646-8.646 8.646m0-14.437c-3.193 0-5.791 2.598-5.791 5.791s2.598 5.789 5.791 5.789 5.789-2.596 5.789-5.789-2.596-5.791-5.789-5.791" style="fill:#9b8278"/><path d="M408.365 282.512s1.587-1.031 3.174-5.872l-3.253.476s.635-2.698-.079-4.682l-3.65 2.857s-1.666-3.491-2.38-3.967c0 0-2.539 3.571-3.967 4.047 0 0-1.428-5.158-2.857-6.189l-2.46 3.491-3.65-2.857s0 2.46-.079 3.015-4.761-4.92-4.761-4.92-2.063.873-4.84 5.316l-3.491-3.571-1.428 4.682-4.84-1.27.793 2.777-4.205-.317s.714 4.126 2.777 5.554zm-42.055 17.655s-13.092 16.663-37.849 14.759l26.899 3.69 13.807-13.092z" style="fill:#73af00"/><path d="M323.581 312.426c2.618 1.904 18.806 6.546 30.47.952 0 0 .238 2.737-1.071 4.285 0 0 8.57-3.452 13.211-9.879 4.642-6.427-9.641 13.807-9.641 13.807l-21.9 4.047-8.927-7.379zm-1.721-60.004c-2.908.244-6.054 1.995-7.662 4.122-.876-.372-2.823-.538-4.436.538-2.148 1.432-6.117 6.604-9.45 5.236 0 0-.298 4.88 4.88 4.701 0 0-1.309 2.023-1.071 5.237s-2.083 5.356-2.083 5.356 10.474 1.488 10.891-6.665c.051-.997.101-1.874.15-2.657 5.466 2.952 7.617-1.215 7.617-1.215s-3.284-3.102.059-7.52 12.533 5.996 12.533 5.996c.177-4.167-.196-14.073-11.428-13.129" style="fill:#ffe15a"/><path d="M362.342 279.893s-3.015 2.063-12.378.159c0 0 2.063-4.602 1.111-7.3 0 0-2.539 2.38-8.729 4.761-6.189 2.38-13.807 9.998-16.028 14.918 0 0 13.92-32.088 2.738-35.35-3.835-1.119-7.134.695-8.302 2.474.564.667 1.106 1.615 1.161 2.882.119 2.738-2.618 21.186-6.665 33.921 0 0-1.19-4.404-3.095-6.546-1.904-2.142-3.333-5.594-3.333-5.594s-3.214 2.142-2.737 6.07c0 0-1.785-1.428-5.237-.476s-4.761-1.309-4.761-1.309-2.857 7.617 5.594 11.545c0 0-2.261 1.071-3.333 1.904-1.071.833-2.737.833-2.737.833s2.976 5.475 9.284 6.07 9.208 2.394 11.188 5.634c6.427 10.514 18.726 18.488 38.801 6.189 0 0-28.565 8.887-29.835-9.363-1.111-15.965 16.346-19.202 18.091-15.711s-.159 6.507-.159 6.507 9.522-2.222 4.92-10.95c0-.001 9.363 1.428 14.441-11.268m91.688 32.533c-2.618 1.904-19.163 9.046-30.589-2.38s-15.882-28.582-15.235-26.661H396.78l3.809 34.279 42.372 7.975 8.927-7.379zm1.721-60.004c2.908.244 6.054 1.995 7.662 4.122.876-.372 2.823-.538 4.436.538 2.148 1.432 6.117 6.604 9.45 5.236 0 0 .298 4.88-4.88 4.701 0 0 1.309 2.023 1.071 5.237s2.083 5.356 2.083 5.356-10.474 1.488-10.891-6.665c-.051-.997-.101-1.874-.15-2.657-5.466 2.952-7.617-1.215-7.617-1.215s3.284-3.102-.059-7.52-12.533 5.996-12.533 5.996c-.178-4.167.195-14.073 11.428-13.129" style="fill:#73af00"/><path d="M415.268 279.893s3.015 2.063 12.378.159c0 0-2.063-4.602-1.111-7.3 0 0 2.539 2.38 8.728 4.761 6.189 2.38 13.807 9.998 16.028 14.918 0 0-13.92-32.088-2.738-35.35 3.835-1.119 7.134.695 8.302 2.474-.564.667-1.106 1.615-1.161 2.882-.119 2.738 2.618 21.186 6.665 33.921 0 0 1.19-4.404 3.095-6.546 1.904-2.142 3.333-5.594 3.333-5.594s3.214 2.142 2.737 6.07c0 0 1.785-1.428 5.237-.476s4.761-1.309 4.761-1.309 2.857 7.617-5.594 11.545c0 0 2.262 1.071 3.333 1.904s2.737.833 2.737.833-2.976 5.475-9.284 6.07-9.207 2.394-11.188 5.634c-6.427 10.514-18.726 18.488-38.801 6.189 0 0 28.565 8.887 29.835-9.363 1.111-15.965-16.346-19.202-18.091-15.711s.159 6.507.159 6.507-9.522-2.222-4.92-10.95c.001-.001-9.362 1.428-14.44-11.268" style="fill:#ffe15a"/><path d="M407.174 306.554c4.682 6.824 11.188 13.013 30.073 18.885s23.932 6.745 33.829 14.749c0 0 1.88 1.985 2.6 5.168.846 3.738-4.92 14.521-4.92 14.521s.555-2.539-2.936-7.459-24.122-13.807-34.913-16.505-29.439-15.215-24.281-24.598zm63.885 33.604.018.03-.034-.039z" style="fill:#73af00"/><path d="M470.582 363.368s.476 3.452-2.38 6.427c-2.857 2.976-4.88 5.118-4.761 7.618 0 0-4.285-3.095-3.571-9.998 0 0-5.594 4.642-14.045.119 0 0 .833-8.451 11.783-9.522 0 0-4.285-3.333 1.309-8.451 0 0 .65 2.288 5.713 3.452 4.404 1.012 12.24-4.511 6.446-12.825 9.98 11.277 4.863 19.014-.494 23.18m-67.494-63.082s2.413 3.945 8.689 7.776c7.538 4.602 8.213 6.745 8.213 6.745l-5.118-.119s6.546 3.571 8.332 8.094c0 0-2.737.476-5.832-.357 0 0 2.5 2.261 1.309 9.522h-12.735z" style="fill:#ffe15a"/><path d="M377.736 332.898v-30.47s-10.342 17.693-19.275 30.47z" style="fill:#73af00"/><path d="M368.841 301.793c-2.539 4.602-10.474 19.758-29.359 25.629s-22.337 4.761-32.234 12.765c0 0-1.88 1.985-2.6 5.168-.846 3.738 4.92 14.521 4.92 14.521s-.556-2.539 2.936-7.459 24.006-14.324 34.913-16.505c15.085-3.015 28.733-19.202 26.511-29.676s-5.087-4.443-5.087-4.443" style="fill:#ffe15a"/><path d="m307.266 340.158-.018.03.034-.039zm.476 23.21s-.476 3.452 2.38 6.427c2.857 2.976 4.88 5.118 4.761 7.618 0 0 4.285-3.095 3.571-9.998 0 0 5.594 4.642 14.045.119 0 0-.833-8.451-11.783-9.522 0 0 4.285-3.333-1.309-8.451 0 0-.65 2.288-5.713 3.452-4.404 1.012-12.24-4.511-6.446-12.825-9.98 11.277-4.862 19.014.494 23.18" style="fill:#73af00"/><path d="M334.095 414.151s2.698 12.14 2.857 24.677c0 0 11.823.397 17.536-8.49 0 0-11.426-5.951-17.536-17.457z" style="fill:#ffe15a"/><path d="M331.555 387.331c-.476-5.713 2.063-20.155 13.648-30.629l.284-12.826s-3.45.358-6.512 3.038l-6.547 10.146-6.07 22.971z" style="fill:#73af00"/><path d="M331.873 391.457s0 12.22 5.078 21.424l-2.857 1.27s-10.236-8.054-12.378-24.598c0 0-9.165 6.07-12.537-6.348 0 0 9.839 3.967 13.013-5.078 2.864-8.162 5.757-23.02 16.783-31.212-5.241 8.055-13.133 28.673-7.023 35.973 1.618 1.933 6.268 3.571 11.358 1.397-.332 4.06-2.268 10.265-11.437 7.172" style="fill:#ffe15a"/><path d="m333.355 416.318-1.671-3.072a1.107 1.107 0 0 1 .444-1.503l3.051-1.659a1.107 1.107 0 0 1 1.502.444l1.671 3.072c.293.538.094 1.21-.444 1.503l-3.051 1.659a1.11 1.11 0 0 1-1.502-.444" style="fill:#ffce5a"/><path d="M436.613 414.151s-2.698 12.14-2.857 24.677c0 0-11.823.397-17.536-8.49 0 0 11.426-5.951 17.536-17.457zm2.539-26.82c.476-5.713-2.063-20.155-13.648-30.629l-.284-12.826s3.45.358 6.512 3.038l6.547 10.146 6.07 22.971z" style="fill:#ffe15a"/><path d="M427.397 384.284c5.09 2.174 9.741.536 11.358-1.397 6.11-7.3-1.782-27.918-7.023-35.973 11.026 8.192 13.919 23.05 16.783 31.212 3.174 9.046 13.013 5.078 13.013 5.078-3.372 12.418-12.537 6.348-12.537 6.348-2.142 16.544-12.378 24.598-12.378 24.598l-2.857-1.27c5.078-9.204 5.078-21.424 5.078-21.424-9.169 3.094-11.105-3.111-11.437-7.172" style="fill:#73af00"/><path d="m437.352 416.318 1.671-3.072a1.11 1.11 0 0 0-.444-1.503l-3.051-1.659a1.107 1.107 0 0 0-1.502.444l-1.671 3.072a1.11 1.11 0 0 0 .444 1.503l3.051 1.659c.537.292 1.21.093 1.502-.444" style="fill:#ffce5a"/><path d="M347.266 329.089a3.81 3.81 0 0 0-3.809 3.809v41.896c0 11.426 3.809 53.322 41.896 68.557 38.087-15.235 41.896-57.131 41.896-68.557v-41.896a3.81 3.81 0 0 0-3.809-3.809z" style="fill:#4173cd"/><path d="m383.045 329.089-36.121 69.231a84 84 0 0 0 3.447 9.864l34.983-67.053 34.983 67.053a84 84 0 0 0 3.447-9.864l-36.122-69.231z" style="fill:#ffe15a"/><path d="m420.337 408.184-34.983-67.053-34.983 67.053c5.762 13.638 16.188 27.649 34.984 35.167 18.794-7.518 29.221-21.529 34.982-35.167" style="fill:#73af00"/><path d="m399.517 412.524 2.304 1.105c-.966 1.427-2.977 3.738-6.823 5.83-2.905 1.581-5.713 3.452-7.74 4.885v-31.433l9.522-.979v-3.809l-9.522-.979v-4.734a1.904 1.904 0 0 0-1.904-1.904c-.897 0-1.614.633-1.816 1.468-.633-.453-1.367-.776-2.203-.776a3.87 3.87 0 0 0-3.866 3.866c0 1.003.408 1.901 1.037 2.589l-4.578.471v3.809l9.522.979v31.433c-2.027-1.434-4.835-3.305-7.74-4.885-3.846-2.092-5.857-4.403-6.823-5.83l2.304-1.105-8.689-11.069v15.235l2.929-1.404c1.159 1.867 3.608 4.881 8.46 7.519 4.058 2.209 7.997 5.079 9.559 6.255l1.904 1.477 1.904-1.477c1.561-1.175 5.5-4.046 9.559-6.255 4.852-2.638 7.302-5.652 8.46-7.519l2.929 1.404v-15.235zm-18.182-25.497c-1.082 0-1.962-.88-1.962-1.962s.88-1.962 1.962-1.962 1.962.88 1.962 1.962-.88 1.962-1.962 1.962" style="fill:#ffe15a"/><path d="M388.556 378.603h-6.405a2.51 2.51 0 0 1-2.511-2.511v-10.213a2.51 2.51 0 0 1 2.511-2.511h6.405a2.51 2.51 0 0 1 2.511 2.511v10.213a2.51 2.51 0 0 1-2.511 2.511" style="fill:#f5f5f5"/><path d="M412.015 329.089c-7.618-11.426-7.618-34.279-7.618-34.279s0-15.235-19.044-15.235c-9.647 0-14.398 3.909-16.746 7.767-9.14 3.673-13.724 11.276-13.724 11.276 3.897 1.948 7.339 2.877 10.462 3.115 6.209 7.389 8.274 14.524 8.824 19.656-3.576 3.652-5.559 12.46-.243 19.125 0 0 11.267-2.618 20.779-11.426z" style="fill:#b49b91"/><path d="M394.706 329.089h14.214c-.714-7.022-7.617-5.891-14.214 0" style="fill:#9b8278"/><path d="M408.566 321.899c-4.163-11.817-4.169-27.088-4.169-27.088s-.001-.248-.04-.676c-4.959-.673-10.035-.308-19.956 3.532-10.564 4.089-15.734 4.206-19.055 4.067 6.209 7.389 8.274 14.524 8.824 19.656l.154 8.096s5.951.873 19.044-6.665c6.53-3.76 12.066-4.082 15.198-.922m-20.277-28.755c7.726-1.932 12.655-1.733 15.83-.604-.851-4.243-4.348-12.964-18.765-12.964-9.647 0-14.398 3.909-16.746 7.767l-5.789 8.102s7.241 2.257 25.47-2.301" style="fill:#9b8278"/><path d="M372.767 277.909c.751.748 2.988 6.144 2.527 6.946-.297.516-6.257 1.997-7.223 1.241-.862-.674-1.871-6.486-1.293-7.156.523-.606 5.362-1.655 5.989-1.031" style="fill:#ffe15a"/><path d="M380.431 277.622c.691.793 2.259 6.068 1.638 6.741-.4.432-7.042.957-7.964.126-.822-.741-1.004-6.226-.278-6.761.656-.484 6.027-.768 6.604-.106" style="fill:#73af00"/><path d="M387.684 277.422c.717.747 2.353 5.706 1.711 6.337-.412.405-7.284.882-8.24.099-.853-.698-1.054-5.852-.305-6.353.679-.453 6.235-.707 6.834-.083" style="fill:#ffe15a"/><path d="M395.054 277.766c.635.816 1.831 6.02 1.165 6.623-.428.388-7.09.405-7.952-.465-.768-.775-.568-6.08.193-6.542.689-.418 6.065-.297 6.594.384m15.213 3.154c.491.909.443 5.744-.314 6.228-.487.312-6.485-.759-7.192-1.758-.63-.892.444-6.09 1.271-6.42.749-.299 5.825 1.191 6.235 1.95" style="fill:#73af00"/><path d="M403.277 278.859c.602.827 1.059 5.68.334 6.193-.466.33-7.33-.234-8.162-1.132-.742-.801-.199-5.803.614-6.175.736-.336 6.712.423 7.214 1.114" style="fill:#ffe15a"/><path d="M374.652 264.63c1.089 2.342-1.188 4.618-3.53 3.53a2.27 2.27 0 0 1-1.091-1.09c-1.088-2.342 1.188-4.618 3.53-3.53.477.221.87.614 1.091 1.09" style="fill:#9b8278"/><path d="M148.211 256h13.473v-81.77L256 236.023v-19.964l-83.768-54.374h24.748l59.02 38.31v-12.294l-39.71-26.016H256V148.21H148.211zm-53.895 0h13.473V148.21H0v13.475h39.71L0 187.701v18.901l69.197-44.917h24.748L0 222.666v13.357l94.316-61.793zM107.789.087c-4.566.169-9.063.608-13.474 1.308V81.77L27.779 38.177a112.4 112.4 0 0 0-10.872 14.638l63.935 41.501H56.094L10.461 64.694q-1.878 4.02-3.44 8.205L39.71 94.316H1.395c-.7 4.411-1.139 8.907-1.308 13.474H107.79zM256 107.79V94.316h-39.71L256 68.299V49.157l-69.568 45.159h-24.748L256 33.093V19.977L161.684 81.77V0h-13.473v107.79z" style="fill:#f5f5f5"/><path d="M107.789 256h40.421V148.21H256v-40.42H148.211V0H112c-1.41 0-2.813.035-4.211.087V107.79H.087A113 113 0 0 0 0 112v36.21h107.789z" style="fill:#ff4b55"/><path d="M69.197 161.685 0 206.602v16.064l93.945-60.981zm103.035 0L256 216.059v-16.064l-59.02-38.31zm-91.39-67.369L16.907 52.814a112 112 0 0 0-6.447 11.879l45.634 29.622zm105.59 0L256 49.157V33.093l-94.316 61.223z" style="fill:#ff4b55"/></svg>
