<svg xmlns="http://www.w3.org/2000/svg" xml:space="preserve" viewBox="0 0 512 512" width="48" height="48"><path d="M400 0H185.379v512H400c61.856 0 112-50.144 112-112V112C512 50.144 461.856 0 400 0" style="fill:#ff4b55"/><path d="M112 0C50.144 0 0 50.144 0 112v288c0 61.856 50.144 112 112 112h73.379V0z" style="fill:#73af00"/><circle cx="185.45" cy="256" r="112.38" style="fill:#ffe15a"/><path d="M222.941 218.508v49.99c0 20.673-16.819 37.492-37.492 37.492s-37.492-16.819-37.492-37.492v-49.99zm12.497-24.995h-99.98c-6.902 0-12.497 5.595-12.497 12.497v62.487c0 34.511 27.977 62.487 62.487 62.487s62.487-27.977 62.487-62.487V206.01c.001-6.902-5.595-12.497-12.497-12.497" style="fill:#ff4b55"/><path d="M211.931 229.517v35.31c0 14.603-11.88 26.483-26.483 26.483s-26.483-11.88-26.483-26.483v-35.31z" style="fill:#f5f5f5"/><circle cx="135.36" cy="206.01" r="6.249" style="fill:#ffe15a"/><circle cx="235.34" cy="206.01" r="6.249" style="fill:#ffe15a"/><circle cx="135.36" cy="256" r="6.249" style="fill:#ffe15a"/><circle cx="235.34" cy="256" r="6.249" style="fill:#ffe15a"/><circle cx="185.35" cy="206.01" r="6.249" style="fill:#ffe15a"/><circle cx="222.87" cy="302.08" r="6.249" style="fill:#ffe15a"/><circle cx="148.57" cy="302.08" r="6.249" style="fill:#ffe15a"/><path d="M193.52 252.832v10.762c0 4.451-3.621 8.071-8.071 8.071s-8.071-3.621-8.071-8.071v-10.762zm0-25.515v10.762c0 4.451-3.621 8.071-8.071 8.071s-8.071-3.621-8.071-8.071v-10.762zm0 51.291v10.762c0 4.451-3.621 8.071-8.071 8.071s-8.071-3.621-8.071-8.071v-10.762zm21.74-25.776v10.762c0 4.451-3.621 8.071-8.071 8.071s-8.071-3.621-8.071-8.071v-10.762zm-43.481 0v10.762c0 4.451-3.621 8.071-8.071 8.071s-8.071-3.621-8.071-8.071v-10.762z" style="fill:#41479b"/></svg>
