<svg xmlns="http://www.w3.org/2000/svg" xml:space="preserve" viewBox="0 0 512 512" width="48" height="48"><path d="M400 0H112C53.379 0 5.284 45.039.414 102.4h511.172C506.716 45.039 458.621 0 400 0" style="fill:#ff4b55"/><path d="M.414 102.4A113 113 0 0 0 0 112v92.8h512V112c0-3.235-.145-6.435-.414-9.6z" style="fill:#f5f5f5"/><path d="M0 204.8h512v102.4H0zM112 512h288c58.621 0 106.716-45.039 111.586-102.4H.414C5.284 466.961 53.379 512 112 512" style="fill:#ff4b55"/><path d="M0 400c0 3.234.145 6.435.414 9.6h511.172c.269-3.165.414-6.365.414-9.6v-92.8H0z" style="fill:#f5f5f5"/><path d="M266.758 247.598 34.041 31.596C13.05 51.952 0 80.45 0 112v288c0 31.55 13.05 60.047 34.041 80.404l232.716-216.002c4.273-3.966 4.273-12.838.001-16.804" style="fill:#41479b"/><path d="m109.034 199.093 12.802 38.386 40.463.314c5.239.041 7.411 6.726 3.197 9.838l-32.551 24.037 12.206 38.579c1.58 4.995-4.107 9.127-8.369 6.08l-32.92-23.53-32.92 23.53c-4.262 3.046-9.949-1.085-8.369-6.08l12.206-38.579-32.551-24.037c-4.214-3.112-2.042-9.798 3.197-9.838l40.463-.314 12.802-38.386c1.657-4.969 8.686-4.969 10.344 0" style="fill:#f5f5f5"/></svg>
