<svg xmlns="http://www.w3.org/2000/svg" xml:space="preserve" viewBox="0 0 512.001 512.001" width="48" height="48"><path d="M112.001 0C50.145 0 0 50.144 0 112v288c0 61.856 50.144 112 112 112h127.316V0z" style="fill:#f5f5f5"/><path d="M400.001 0H130.99c.356 0 .71.052 1.05.158l81.484 24.898c3.394 1.036 3.391 5.842-.003 6.877l-70.722 21.533c-3.395 1.035-3.397 5.839-.003 6.877l70.729 21.615c3.394 1.036 3.391 5.842-.003 6.875l-70.723 21.535c-3.395 1.034-3.397 5.839-.003 6.876l70.729 21.615c3.394 1.036 3.391 5.842-.003 6.875L142.82 167.26c-3.397 1.036-3.397 5.844 0 6.878l70.701 21.526c3.395 1.034 3.397 5.839.003 6.877l-70.729 21.615c-3.394 1.038-3.391 5.844.003 6.876l70.723 21.533c3.395 1.033 3.397 5.839.003 6.877l-70.729 21.615c-3.394 1.038-3.391 5.842.003 6.877l70.723 21.533c3.395 1.033 3.397 5.839.003 6.875l-70.729 21.615c-3.394 1.038-3.391 5.844.003 6.877l70.722 21.534c3.395 1.033 3.397 5.839.003 6.875l-70.729 21.614c-3.394 1.038-3.391 5.842.003 6.877l70.702 21.53c3.396 1.033 3.396 5.842 0 6.875l-70.702 21.53c-3.395 1.033-3.397 5.839-.003 6.875l70.729 21.615c3.394 1.036 3.391 5.842-.003 6.875l-81.484 24.811a3.6 3.6 0 0 1-1.047.156H400c61.856 0 112-50.144 112-112V112C512 50.144 461.857 0 400.001 0" style="fill:#873250"/></svg>
