<svg xmlns="http://www.w3.org/2000/svg" xml:space="preserve" viewBox="0 0 512 512" width="48" height="48"><path d="M400 0H112C50.144 0 0 50.144 0 112v288c0 61.856 50.144 112 112 112h288c61.856 0 112-50.144 112-112V112C512 50.144 461.856 0 400 0" style="fill:#f5f5f5"/><path d="M482.573 141.43a3.31 3.31 0 0 0-4.224 2.017c-2.185 6.169-4.552 11.696-7.003 16.92-6.239 6.173-14.009 10.777-21.507 12.14-12.138 2.207-18.023 8.092-18.023 8.092-21.333-6.253-25.379 5.517-30.161 10.667-2.678 2.884-6.149 3.884-9.279 3.917-11.426-6.232-19.121-13.828-19.264-13.968a3.31 3.31 0 1 0-4.707 4.655c.969.981 19.577 19.424 43.448 23.259-6.929 2.04-12.037 3.471-12.037 3.471s-7.724 0-30.896 18.759-39.357 20.598-49.655 20.23-18.023-4.046-29.058 4.414-25.379 6.989-34.207 6.989-23.173 1.471-34.207-6.989-18.759-4.782-29.058-4.414-26.483-1.471-49.655-20.23-30.896-18.759-30.896-18.759-5.107-1.431-12.037-3.471c23.871-3.835 42.478-22.277 43.448-23.259a3.31 3.31 0 0 0-.026-4.681 3.31 3.31 0 0 0-4.681.026c-.143.141-7.838 7.736-19.264 13.968-3.13-.032-6.601-1.033-9.279-3.917-4.782-5.15-8.828-16.92-30.161-10.667 0 0-5.885-5.885-18.023-8.092-7.498-1.363-15.268-5.967-21.507-12.14-2.451-5.224-4.818-10.752-7.003-16.92-.608-1.733-2.513-2.621-4.224-2.017a3.31 3.31 0 0 0-2.017 4.224c.066.187.142.345.209.532.323 1.692 7.038 35.57 31.6 59.057 17.299 16.54 34.075 41.781 41.196 55.908 23.172 45.977 67.31 107.77 155.586 107.77s132.414-61.793 155.586-107.77c7.12-14.127 23.897-39.368 41.196-55.908 24.562-23.487 31.277-57.365 31.6-59.057.066-.186.142-.345.208-.532a3.31 3.31 0 0 0-2.018-4.224" style="fill:#ff4b55"/></svg>
