<svg xmlns="http://www.w3.org/2000/svg" xml:space="preserve" viewBox="0 0 512 512" width="48" height="48"><path d="M400 0H112C50.144 0 0 50.144 0 112v288c0 61.856 50.144 112 112 112h288c61.856 0 112-50.144 112-112V112C512 50.144 461.856 0 400 0" style="fill:#ff4b55"/><path d="M189.327 262.901c-.238-2.301-.696-4.537-.696-6.901s.458-4.6.696-6.901l-.001.004L0 229.517v52.966l189.327-19.586zm56.203-73.214-.001-.001-.001.001zm10.47-1.055c3.587 0 7.036.515 10.47 1.055L296.421 0h-80.842l29.951 189.686c3.434-.54 6.883-1.054 10.47-1.054" style="fill:#ffe15a"/><path d="m266.472 189.687-.002-.001v.001zm56.201 59.412c.238 2.301.696 4.537.696 6.901s-.458 4.6-.696 6.901l.001-.004L512 282.483v-52.966l-189.327 19.585zm-77.145 73.215h.002zM256 323.368c-3.587 0-7.036-.515-10.471-1.055L215.579 512h80.842L266.47 322.314c-3.434.54-6.883 1.054-10.47 1.054m10.47-1.054h.002zm-56.674-115.132-.025.021L39.062 27.009C20.513 42.942 7.24 64.84 2.218 89.729L199.71 219.121c2.88-4.386 6.291-8.346 10.086-11.939m92.408 0c3.795 3.593 7.206 7.554 10.086 11.939L509.782 89.729c-5.022-24.889-18.296-46.787-36.844-62.72L302.229 207.202zm0 97.636.026-.02 170.709 180.193c18.548-15.933 31.822-37.83 36.844-62.72L312.289 292.879c-2.879 4.386-6.29 8.346-10.085 11.939m-92.408 0c-3.795-3.593-7.206-7.553-10.086-11.939L2.218 422.271c5.022 24.889 18.296 46.787 36.844 62.72l170.709-180.193z" style="fill:#ffe15a"/><circle cx="256" cy="256" r="35.31" style="fill:#ffe15a"/></svg>
