<svg xmlns="http://www.w3.org/2000/svg" xml:space="preserve" viewBox="0 0 512 512" width="48" height="48"><path d="M400 0H112C50.144 0 0 50.144 0 112v144h512V112C512 50.144 461.856 0 400 0" style="fill:#4173cd"/><path d="M0 256h512v128H0z" style="fill:#ffe15a"/><path d="M0 400c0 61.856 50.144 112 112 112h288c61.856 0 112-50.144 112-112v-16H0z" style="fill:#73af00"/><path d="m429.901 137.13 55.151-9.13-55.151-9.13 47.459-29.541L422.912 102l32.542-45.454L410 89.088l12.67-54.448-29.541 47.46L384 26.947l-9.13 55.152-29.541-47.46 12.67 54.448-45.454-32.542 32.542 45.454-54.448-12.671 47.459 29.541L282.947 128l55.151 9.13-47.459 29.54L345.086 154l-32.542 45.454 45.454-32.542-12.67 54.447 29.541-47.459 9.13 55.152 9.13-55.152 29.541 47.459L410 166.912l45.454 32.542L422.912 154l54.447 12.67zM384 161.684c-18.603 0-33.684-15.081-33.684-33.684S365.397 94.316 384 94.316s33.684 15.081 33.684 33.684-15.081 33.684-33.684 33.684" style="fill:#ffe15a"/><circle cx="384" cy="128" r="25.26" style="fill:#ffe15a"/></svg>
