<svg xmlns="http://www.w3.org/2000/svg" xml:space="preserve" viewBox="0 0 512 512" width="48" height="48"><path d="M512 400V256L256 512h144c61.856 0 112-50.144 112-112m-512 .024C.013 461.869 50.152 512 112 512h144L0 256z" style="fill:#41479b"/><path d="M256 0H112C50.152 0 .013 50.131 0 111.976V256zm256 112C512 50.144 461.856 0 400 0H256l256 256z" style="fill:#ff4b55"/><path d="M512 256 256 0 0 256l256 256z" style="fill:#f5f5f5"/><path d="m258.647 158.703 21.19 60.962 64.527 1.315c2.657.054 3.753 3.43 1.636 5.035l-51.43 38.992 18.689 61.775c.769 2.543-2.102 4.63-4.283 3.112L256 293.03l-52.976 36.864c-2.181 1.518-5.053-.569-4.283-3.112l18.689-61.775L166 226.015c-2.117-1.605-1.02-4.981 1.636-5.035l64.527-1.315 21.19-60.962c.872-2.51 4.422-2.51 5.294 0" style="fill:#ffe15a"/></svg>
