<svg xmlns="http://www.w3.org/2000/svg" xml:space="preserve" viewBox="0 0 512 512" width="48" height="48"><path d="M400 0H112C50.144 0 0 50.144 0 112v58.667h512V112C512 50.144 461.856 0 400 0" style="fill:#464655"/><path d="M0 400c0 61.856 50.144 112 112 112h288c61.856 0 112-50.144 112-112v-58.667H0z" style="fill:#73af00"/><path d="M0 170.67h512v170.67H0z" style="fill:#f5f5f5"/><path d="M244.324 249.017 32.496 33.12C12.411 53.362 0 81.231 0 112v288c0 30.769 12.411 58.638 32.496 78.88l211.829-215.897c3.492-3.569 3.492-10.397-.001-13.966m73.084 6.063c0-30.733 20.073-56.769 47.821-65.735 1.594-.515 1.385-2.849-.282-3.013a69.4 69.4 0 0 0-16.452.347c-32.593 4.574-57.738 32.137-59.309 65.011-1.897 39.693 29.723 72.469 68.999 72.469q3.41-.002 6.732-.329c1.674-.164 1.893-2.505.292-3.022-27.737-8.972-47.801-35.003-47.801-65.728" style="fill:#ff4b55"/><path d="m376.06 209.694-9.076 27.214-28.687.222c-3.714.029-5.254 4.768-2.266 6.975l23.077 17.042-8.653 27.352c-1.12 3.541 2.912 6.47 5.933 4.311l23.339-16.682 23.339 16.682c3.022 2.16 7.053-.77 5.933-4.311l-8.653-27.351 23.077-17.042c2.988-2.206 1.448-6.946-2.266-6.975l-28.687-.222-9.076-27.214c-1.175-3.524-6.158-3.524-7.334-.001" style="fill:#ff4b55"/></svg>
