<svg xmlns="http://www.w3.org/2000/svg" xml:space="preserve" viewBox="0 0 512 512" width="48" height="48"><path d="M512 400V112C512 50.144 461.856 0 400 0H112C50.15 0 .011 50.134 0 111.98v288.04C.011 461.866 50.15 512 112 512h288c61.856 0 112-50.144 112-112" style="fill:#73af00"/><path d="M400 0h-24.914L0 375.085v24.934c.001 4.884.316 9.694.923 14.414L414.432.923A113 113 0 0 0 400 0m112 112c0-4.891-.315-9.707-.923-14.433L97.568 511.077c4.725.608 9.542.923 14.432.923h24.914L512 136.914z" style="fill:#ffe15a"/><path d="M414.432.923.923 414.433c6.473 50.313 46.331 90.171 96.645 96.644l413.509-413.51c-6.473-50.313-46.331-90.17-96.645-96.644" style="fill:#464655"/><path d="m161.231 298.781 20.997 10.015 16.273-16.624c2.107-2.152 5.741-.384 5.348 2.602l-3.037 23.064 20.839 10.34c2.698 1.339 2.139 5.341-.822 5.89l-22.874 4.239-3.394 23.014c-.439 2.979-4.419 3.685-5.856 1.038l-11.1-20.444-22.936 3.884c-2.97.503-4.87-3.064-2.797-5.248l16.013-16.874-10.781-20.614c-1.396-2.669 1.409-5.579 4.127-4.282m146-148 20.997 10.015 16.273-16.624c2.107-2.152 5.741-.384 5.348 2.602l-3.037 23.064 20.839 10.34c2.698 1.339 2.139 5.341-.822 5.89l-22.874 4.239-3.394 23.014c-.439 2.979-4.419 3.685-5.856 1.038l-11.1-20.444-22.936 3.884c-2.97.503-4.87-3.064-2.797-5.248l16.013-16.874-10.781-20.614c-1.396-2.669 1.409-5.579 4.127-4.282" style="fill:#f5f5f5"/><path d="M512 400V136.914L136.914 512H400c61.856 0 112-50.144 112-112" style="fill:#ff4b55"/></svg>
