<svg xmlns="http://www.w3.org/2000/svg" xml:space="preserve" viewBox="0 0 512 512" width="48" height="48"><path d="M512 400V112C512 50.144 461.856 0 400 0H112C50.144 0 0 50.144 0 112v288c0 61.856 50.144 112 112 112h288c61.856 0 112-50.144 112-112" style="fill:#ff4b55"/><path d="M256 0H112C50.144 0 0 50.144 0 112v144h256z" style="fill:#41479b"/><path d="m128.775 170.064-6.185 18.546-19.55.152c-2.531.02-3.581 3.25-1.544 4.753l15.727 11.614-5.897 18.64c-.763 2.413 1.984 4.41 4.043 2.938l15.905-11.368 15.905 11.368c2.059 1.472 4.807-.524 4.043-2.938l-5.897-18.64 15.727-11.613c2.036-1.504.987-4.734-1.544-4.753l-19.55-.152-6.185-18.546c-.801-2.402-4.197-2.402-4.998-.001m.477-144.607-5.004 15.003-15.814.123c-2.047.016-2.896 2.629-1.249 3.845l12.722 9.395-4.77 15.078c-.618 1.952 1.605 3.567 3.271 2.376l12.866-9.196 12.866 9.196c1.666 1.191 3.888-.424 3.271-2.376l-4.77-15.078 12.722-9.395c1.647-1.216.798-3.829-1.249-3.845L138.3 40.46l-5.004-15.003c-.649-1.943-3.396-1.943-4.044 0m80 44.631-5.004 15.003-15.814.123c-2.048.016-2.896 2.629-1.249 3.845l12.722 9.395-4.77 15.078c-.618 1.952 1.605 3.567 3.271 2.376l12.866-9.196 12.866 9.196c1.666 1.191 3.888-.424 3.271-2.376l-4.77-15.078 12.722-9.395c1.647-1.216.798-3.829-1.249-3.845l-15.814-.123-5.004-15.003c-.649-1.942-3.396-1.942-4.044 0M50.936 87.773l-5.004 15.003-15.814.123c-2.048.016-2.896 2.629-1.249 3.845l12.722 9.395-4.77 15.078c-.618 1.952 1.605 3.567 3.271 2.376l12.866-9.196 12.866 9.196c1.666 1.191 3.888-.424 3.271-2.376l-4.77-15.078 12.722-9.395c1.647-1.216.798-3.829-1.249-3.845l-15.814-.123-5.004-15.003c-.648-1.943-3.396-1.943-4.044 0m123.834 48.976-2.809 8.422-8.878.069c-1.149.009-1.626 1.476-.701 2.159l7.142 5.274-2.678 8.464c-.347 1.096.901 2.002 1.836 1.334l7.223-5.163 7.223 5.163c.935.668 2.183-.238 1.836-1.334l-2.678-8.465 7.142-5.274c.925-.683.448-2.15-.701-2.159l-8.878-.069-2.809-8.422c-.364-1.089-1.906-1.089-2.27.001" style="fill:#f5f5f5"/></svg>
