<svg xmlns="http://www.w3.org/2000/svg" xml:space="preserve" viewBox="0 0 512 512" width="48" height="48"><path d="M400 0H112C50.144 0 0 50.144 0 112v144h512V112C512 50.144 461.856 0 400 0" style="fill:#f5f5f5"/><path d="M0 400c0 61.856 50.144 112 112 112h288c61.856 0 112-50.144 112-112V256H0z" style="fill:#82afff"/><path d="M257.251 365.865c-2.282-.099-56.154-2.855-83.191-39.897-15.757-21.584-18.901-50.296-9.347-85.332l3.861 1.052c-9.216 33.796-6.288 61.351 8.706 81.904 25.883 35.484 79.604 38.251 80.146 38.272z" style="fill:#b46446"/><path d="M164.675 225.101c-2.657 6.919-2.05 14.163 1.025 19.657 5.961-2.024 11.26-7.001 13.916-13.92s2.05-14.163-1.025-19.657c-5.961 2.023-11.26 7.001-13.916 13.92m33.746 95.652c-2.948 4.864-3.722 11.386-1.538 17.717 2.04 5.916 6.249 10.281 11.128 12.482-4.74-2.483-10.768-3.106-16.682-1.067-6.331 2.183-10.99 6.812-13.003 12.132 4.864 2.948 11.386 3.722 17.717 1.539s10.99-6.812 13.003-12.132l-.007-.003c2.924-4.859 3.69-11.355 1.514-17.664-2.183-6.332-6.812-10.992-12.132-13.004m-11.538-17.658c-4.549 3.414-7.699 9.177-8.034 15.866-.313 6.25 1.965 11.869 5.671 15.731-3.472-4.072-8.833-6.897-15.081-7.21-6.689-.335-12.738 2.223-16.589 6.408 3.414 4.549 9.177 7.699 15.866 8.034s12.737-2.223 16.589-6.408l-.003-.003c4.523-3.421 7.656-9.162 7.989-15.828.336-6.689-2.222-12.739-6.408-16.59m-4.988-19.905c-5.501 1.444-10.593 5.593-13.427 11.661-2.649 5.67-2.66 11.733-.685 16.708-1.679-5.081-5.577-9.721-11.245-12.368-6.068-2.835-12.634-2.749-17.781-.326 1.445 5.501 5.593 10.593 11.661 13.427s12.635 2.749 17.781.326l-.003-.007c5.48-1.458 10.549-5.593 13.373-11.639 2.834-6.069 2.749-12.636.326-17.782m2.829-19.754c-5.66-.563-11.878 1.552-16.649 6.252-4.458 4.392-6.581 10.071-6.463 15.423.197-5.348-1.841-11.055-6.231-15.511-4.7-4.771-10.885-6.978-16.553-6.501-.563 5.66 1.552 11.878 6.252 16.649s10.885 6.978 16.553 6.501v-.008c5.645.543 11.836-1.567 16.591-6.251 4.77-4.701 6.978-10.886 6.5-16.554" style="fill:#41aa5a"/><path d="M188.726 244.635c-5.489-1.492-11.971-.435-17.454 3.41-5.124 3.593-8.157 8.843-8.926 14.14 1.079-5.241.014-11.207-3.578-16.329-3.845-5.483-9.58-8.684-15.249-9.15-1.492 5.489-.435 11.971 3.41 17.454s9.58 8.684 15.249 9.15l.001-.005c5.477 1.466 11.932.41 17.397-3.422 5.483-3.844 8.684-9.58 9.15-15.248" style="fill:#41aa5a"/><path d="M193.66 345.719c2.71 4.213-1.771 8.694-5.983 5.983a2.4 2.4 0 0 1-.702-.702c-2.71-4.213 1.771-8.694 5.983-5.983.279.18.522.423.702.702m19.172 2.334c2.71 4.213-1.771 8.694-5.983 5.983a2.4 2.4 0 0 1-.702-.702c-2.71-4.213 1.77-8.694 5.983-5.983.28.18.523.423.702.702m-30.175-33.843c2.71 4.213-1.771 8.694-5.983 5.983a2.4 2.4 0 0 1-.702-.702c-2.71-4.213 1.771-8.694 5.983-5.983.279.18.522.423.702.702m-26.508-31.343c2.711 4.213-1.771 8.694-5.983 5.983a2.4 2.4 0 0 1-.702-.702c-2.71-4.213 1.771-8.694 5.983-5.983.279.18.523.423.702.702m18.505-21.228c2.711 4.213-1.77 8.694-5.983 5.983a2.4 2.4 0 0 1-.702-.702c-2.71-4.213 1.771-8.694 5.983-5.983.28.18.523.423.702.702m-7.015-21.75c2.71 4.213-1.771 8.694-5.983 5.983a2.4 2.4 0 0 1-.702-.702c-2.71-4.213 1.77-8.694 5.983-5.983.28.179.523.423.702.702" style="fill:#ffe15a"/><path d="m257.423 365.865-.175-4.001c.542-.021 54.263-2.787 80.146-38.272 14.994-20.553 17.922-48.108 8.706-81.904l3.861-1.052c9.555 35.036 6.411 63.748-9.346 85.332-27.037 37.042-80.91 39.798-83.192 39.897" style="fill:#b46446"/><path d="M349.999 225.101c2.657 6.919 2.05 14.163-1.025 19.657-5.961-2.024-11.26-7.001-13.916-13.92s-2.05-14.163 1.025-19.657c5.961 2.023 11.26 7.001 13.916 13.92m-33.746 95.652c2.948 4.864 3.722 11.386 1.538 17.717-2.04 5.916-6.249 10.281-11.128 12.482 4.74-2.483 10.768-3.106 16.682-1.067 6.331 2.183 10.99 6.812 13.003 12.132-4.864 2.948-11.386 3.722-17.717 1.539s-10.99-6.812-13.003-12.132l.004-.002c-2.921-4.86-3.687-11.356-1.511-17.665 2.184-6.332 6.813-10.992 12.132-13.004m11.538-17.658c4.549 3.414 7.699 9.177 8.034 15.866.313 6.25-1.965 11.869-5.671 15.731 3.472-4.072 8.833-6.897 15.081-7.21 6.689-.335 12.737 2.223 16.589 6.408-3.414 4.549-9.177 7.699-15.866 8.034s-12.737-2.223-16.589-6.408l.003-.003c-4.523-3.421-7.656-9.162-7.989-15.828-.336-6.689 2.222-12.739 6.408-16.59m4.988-19.905c5.501 1.444 10.593 5.593 13.427 11.661 2.649 5.67 2.66 11.733.685 16.708 1.679-5.081 5.577-9.721 11.245-12.368 6.068-2.835 12.634-2.749 17.781-.326-1.445 5.501-5.593 10.593-11.661 13.427s-12.634 2.749-17.781.326l.003-.007c-5.48-1.458-10.548-5.593-13.373-11.639-2.834-6.069-2.748-12.636-.326-17.782m-2.829-19.754c5.66-.563 11.878 1.552 16.649 6.252 4.458 4.392 6.581 10.071 6.463 15.423-.197-5.348 1.841-11.055 6.231-15.511 4.7-4.771 10.885-6.978 16.553-6.501.563 5.66-1.552 11.878-6.252 16.649s-10.885 6.978-16.553 6.501v-.008c-5.645.543-11.836-1.567-16.591-6.251-4.77-4.701-6.978-10.886-6.5-16.554" style="fill:#41aa5a"/><path d="M325.948 244.635c5.489-1.492 11.971-.435 17.454 3.41 5.123 3.593 8.157 8.843 8.926 14.14-1.079-5.241-.014-11.207 3.578-16.329 3.845-5.483 9.58-8.684 15.249-9.15 1.491 5.489.435 11.971-3.41 17.454s-9.58 8.684-15.249 9.15l-.001-.005c-5.478 1.466-11.932.41-17.397-3.422-5.482-3.844-8.683-9.58-9.15-15.248" style="fill:#41aa5a"/><path d="M321.014 345.719c-2.71 4.213 1.771 8.694 5.983 5.983.279-.18.522-.423.702-.702 2.71-4.213-1.771-8.694-5.983-5.983-.279.18-.522.423-.702.702m-19.172 2.334c-2.71 4.213 1.771 8.694 5.983 5.983.279-.18.522-.423.702-.702 2.71-4.213-1.771-8.694-5.983-5.983-.279.18-.523.423-.702.702m30.175-33.843c-2.71 4.213 1.771 8.694 5.983 5.983.279-.18.522-.423.702-.702 2.71-4.213-1.771-8.694-5.983-5.983-.279.18-.522.423-.702.702m26.508-31.343c-2.71 4.213 1.771 8.694 5.983 5.983.279-.18.522-.423.702-.702 2.71-4.213-1.771-8.694-5.983-5.983-.279.18-.522.423-.702.702m-18.505-21.228c-2.71 4.213 1.771 8.694 5.983 5.983.279-.18.522-.423.702-.702 2.71-4.213-1.771-8.694-5.983-5.983-.279.18-.523.423-.702.702m7.015-21.75c-2.71 4.213 1.771 8.694 5.983 5.983.279-.18.522-.423.702-.702 2.71-4.213-1.771-8.694-5.983-5.983a2.35 2.35 0 0 0-.702.702" style="fill:#ffe15a"/><path d="M280.798 225.845h-47.812c-14.883 0-26.947 12.064-26.947 26.947v42.118c0 14.885 12.064 26.947 26.947 26.947h47.812c14.882 0 26.947-12.063 26.947-26.947v-42.118c.001-14.882-12.064-26.947-26.947-26.947" style="fill:#8cd7ff"/><path d="M264.782 262.501v5.335h-5.335v-5.335h-4.108v5.335h-5.335v-5.335h-3.337v10.67l2.668 3.379v39.3h16.004v-39.3l2.668-3.379v-10.67zm-6.667-16.894c2.64-1.278 3.334 4.113 3.334 4.113 5.557-2.779 4.107-7.289 2.779-9.447-1.779-2.889-8.892-4.001-11.892 2.001s5.112 17.894 5.112 17.894c.445-3.668-2.778-12.892.667-14.561m34.091 26.842v5.335h-5.335v-5.335h-4.107v5.335h-5.335v-5.335h-3.337v10.67l2.667 3.378v39.301h16.005v-39.301l2.668-3.378v-10.67zm-6.666-16.894c2.64-1.278 3.334 4.113 3.334 4.113 5.557-2.779 4.107-7.289 2.779-9.448-1.779-2.89-8.892-4.001-11.892 2.001s5.112 17.895 5.112 17.895c.445-3.669-2.778-12.893.667-14.561m-48.183 16.894v5.335h-5.335v-5.335h-4.108v5.335h-5.335v-5.335h-3.336v10.67l2.667 3.378v39.301h16.005v-39.301l2.667-3.378v-10.67zm-6.667-16.894c2.64-1.278 3.334 4.113 3.334 4.113 5.557-2.779 4.107-7.289 2.779-9.448-1.779-2.89-8.892-4.001-11.893 2.001s5.113 17.895 5.113 17.895c.445-3.669-2.778-12.893.667-14.561" style="fill:#f5f5f5"/><path d="M301.109 318.695c-3.562-1.762-7.519-2.844-11.762-2.844-4.548 0-8.763 1.244-12.51 3.251-4.872-5.25-11.773-8.586-19.5-8.586s-14.628 3.336-19.499 8.586c-3.747-2.007-7.962-3.251-12.51-3.251-4.243 0-8.2 1.082-11.762 2.844 7.616 13.969 22.202 36.542 43.772 45.17 21.569-8.628 36.154-31.201 43.771-45.17" style="fill:#6ec86e"/><path d="m257.097 139.919.24-.12s-.08.021-.24.12m.24-.12.24.12c-.16-.099-.24-.12-.24-.12m51.182 22.84c-1.5-8.669-12.67-10.17-25.507-11.003s-18.339-8.169-18.339-8.169h-14.671s-5.502 7.335-18.339 8.169-24.007 2.334-25.507 11.003 9.503 22.34 9.503 22.34l9.669-7.836s-11.837-11.337-6.002-15.505c5.762-4.116 22.562-1.265 30.045-11.146-.317 2.064-.205 4.615 1.075 7.756 2.445 6.002 1.556 13.56 1.556 13.56h10.67s-.889-7.558 1.556-13.56c1.28-3.142 1.392-5.692 1.075-7.756 7.483 9.882 24.283 7.031 30.045 11.146 5.835 4.168-6.002 15.505-6.002 15.505l9.669 7.836c.001 0 11.004-13.671 9.504-22.34m-45.736-49.181h-2.779v-3.001a2.668 2.668 0 1 0-5.334 0v3.001h-2.89a2.667 2.667 0 1 0 0 5.334h2.89v7.669a2.668 2.668 0 1 0 5.334 0v-7.669h2.779a2.668 2.668 0 1 0 0-5.334" style="fill:#ffe15a"/><path d="M261.595 125.718c3.518 5.412-2.258 11.188-7.67 7.67a2.9 2.9 0 0 1-.847-.847c-3.518-5.412 2.258-11.188 7.67-7.67.337.219.629.51.847.847" style="fill:#fff0e1"/><path d="M219.104 236.494c2.149 1.073 4.659 2.001 7.224 2.001 8.839 0 13.171-4.998 13.171-13.837s-5.332-15.505-14.171-15.505c0 0-.997.017-2.594.262-.343.056-.684.107-1.02.184-8.496 1.62-29.496 9.451-33.731 47.569-5.921 53.287 37.344 101.363 69.354 112.033v-5.335c0-.002-75.578-57.796-38.233-127.372" style="fill:#ffc75a"/><path d="m225.328 214.487 32.009 10.67-32.009 10.67z" style="fill:#ffc75a"/><path d="m289.346 235.827-32.009-10.67 32.009-10.67zm-96.06 21.929c3.822-34.399 21.853-41.473 29.621-42.958.17-.039.343-.063.636-.111.976-.15 1.651-.191 1.86-.2 5.849.041 9.706 4.446 9.706 9.781 0 5.883-3.445 8.113-6.891 8.225 0 0 2.779-5.78-2.89-7.336-3.826-1.05-8.669 2.001-8.225 7.558.312 3.905 4.02 7.669 8.225 7.669 8.839 0 16.005-6.387 16.005-15.227s-7.165-16.005-16.005-16.005c0 0-.997.017-2.594.262-.343.056-.684.107-1.02.184-8.496 1.62-29.496 9.451-33.731 47.569-5.921 53.287 37.344 101.363 69.354 112.033v-5.335S246 358.197 238.25 352.691c-23.946-17.014-49.287-56.029-44.964-94.935" style="fill:#ffe15a"/><path d="M295.57 236.494c-2.149 1.073-4.659 2.001-7.224 2.001-8.839 0-13.171-4.998-13.171-13.837s5.332-15.505 14.171-15.505c0 0 .997.017 2.594.262.343.056.684.107 1.02.184 8.496 1.62 29.496 9.451 33.731 47.569 5.921 53.287-37.344 101.363-69.354 112.033v-5.335c0-.002 75.578-57.796 38.233-127.372" style="fill:#ffc75a"/><path d="m289.346 214.487-32.009 10.67 32.009 10.67z" style="fill:#ffc75a"/><path d="M321.388 257.756c-3.822-34.399-21.853-41.473-29.621-42.958-.17-.039-.343-.063-.636-.111a18 18 0 0 0-1.86-.2c-5.849.041-9.705 4.446-9.705 9.781 0 5.883 3.445 8.113 6.891 8.225 0 0-2.779-5.78 2.89-7.336 3.826-1.05 8.669 2.001 8.225 7.558-.312 3.905-4.02 7.669-8.225 7.669-8.839 0-16.005-6.387-16.005-15.227s7.165-16.005 16.005-16.005c0 0 .997.017 2.594.262.343.056.684.107 1.02.184 8.496 1.62 29.496 9.451 33.731 47.569 5.921 53.287-37.344 101.363-69.354 112.033v-5.335s11.337-5.668 19.087-11.174c23.946-17.014 49.286-56.029 44.963-94.935m-59.793-36.01c3.518 5.412-2.258 11.188-7.67 7.67a2.9 2.9 0 0 1-.847-.847c-3.518-5.412 2.258-11.188 7.67-7.669.337.218.629.509.847.846" style="fill:#ffe15a"/><path d="M295.432 182.311c1.417-3.668-.5-8.586-.5-8.586-4.918-.167-8.336 3.418-8.336 3.418.417-4.418-1.5-8.419-1.5-8.419-6.335.75-8.419 4.501-8.419 4.501-.333-6.919-4.501-9.753-4.501-9.753-5.502 1.667-7.169 7.669-7.169 7.669-.834-6.835-7.669-10.003-7.669-10.003s-6.835 3.167-7.669 10.003c0 0-1.667-6.002-7.169-7.669 0 0-4.168 2.834-4.501 9.753 0 0-2.084-3.751-8.419-4.501 0 0-1.917 4.001-1.5 8.419 0 0-3.418-3.584-8.336-3.418 0 0-1.917 4.918-.5 8.586 0 0-5.585-1.75-10.17.917 0 0 8.405 3.251 11.204 7.252h74.119c2.8-4.001 11.204-7.252 11.204-7.252-4.584-2.667-10.169-.917-10.169-.917" style="fill:#ffc75a"/><path d="M294.397 190.48c0 2.401-5.609 9.821-5.609 9.821s-18.185 2.532-31.451 2.532c-13.352 0-31.578-2.6-31.578-2.6s-5.482-7.381-5.482-9.753c0-6.822 16.592-12.353 37.06-12.353s37.06 5.531 37.06 12.353" style="fill:#ffe15a"/><ellipse cx="257.34" cy="198.48" rx="32.01" ry="10.67" style="fill:#ffc75a"/><path d="M265.173 139.299c0-3.501-2.612-7.947-7.836-4.835-5.224-3.112-7.836 1.334-7.836 4.835S245.5 143.3 245 142.967c0 0 3.334 4.335 7.169 1.5 0 0 2.056 3.001 5.168 3.001s5.168-3.001 5.168-3.001c3.834 2.834 7.169-1.5 7.169-1.5-.5.333-4.501-.167-4.501-3.668" style="fill:#ffc75a"/><path d="M246.665 397.874c-.3 0-.604-.068-.891-.214a1.996 1.996 0 0 1-.896-2.683l10.67-21.34a2 2 0 0 1 2.683-.891c.99.49 1.391 1.693.896 2.683l-10.67 21.34a2.01 2.01 0 0 1-1.792 1.105" style="fill:#b46446"/><path d="M268.009 397.874c-.735 0-1.44-.406-1.792-1.104l-10.67-21.34a1.996 1.996 0 0 1 .896-2.683c.985-.505 2.188-.094 2.683.891l10.67 21.34c.495.99.094 2.193-.896 2.683a1.95 1.95 0 0 1-.891.213" style="fill:#b46446"/><path d="M305.351 379.202a220.1 220.1 0 0 1-96.028 0v-20.656a220.1 220.1 0 0 0 96.028 0z" style="fill:#f5f5f5"/><path d="M235.775 371.425c-20.418 3.939-41.342 5.021-62.162 3.075.35 2.75 16.816 10.926 16.816 10.926s-14.528 7.022-14.204 9.564a220 220 0 0 0 59.551-2.56zm43.202 0c20.418 3.939 41.342 5.021 62.162 3.075-.35 2.75-16.816 10.926-16.816 10.926s14.529 7.022 14.204 9.564a220 220 0 0 1-59.551-2.56z" style="fill:#f5f5f5"/></svg>
