<svg xmlns="http://www.w3.org/2000/svg" xml:space="preserve" viewBox="0 0 512 512" width="48" height="48"><path d="M400 0H112C50.144 0 0 50.144 0 112v288c0 61.856 50.144 112 112 112h288c61.856 0 112-50.144 112-112V112C512 50.144 461.856 0 400 0" style="fill:#73af00"/><path d="M0 121.26h512v269.47H0z" style="fill:#ffe15a"/><path d="M140.415 249.017 24.05 42.651C8.99 61.725 0 85.812 0 112v288c0 26.189 8.99 50.275 24.05 69.349l116.365-206.365c2.007-3.57 2.007-10.398 0-13.967" style="fill:#ff4b55"/><path d="m230.663 203.329 10.031 30.076 31.704.246c4.105.032 5.807 5.27 2.505 7.708l-25.504 18.834 9.563 30.228c1.238 3.914-3.218 7.151-6.557 4.764l-25.793-18.436-25.793 18.436c-3.339 2.387-7.795-.851-6.557-4.764l9.563-30.228-25.504-18.834c-3.302-2.438-1.6-7.677 2.505-7.708l31.704-.246 10.031-30.076c1.295-3.894 6.803-3.894 8.102 0m146.356 0 10.031 30.076 31.704.246c4.105.032 5.807 5.27 2.505 7.708l-25.504 18.834 9.563 30.228c1.238 3.914-3.218 7.151-6.557 4.764l-25.793-18.436-25.793 18.436c-3.339 2.387-7.795-.851-6.557-4.764l9.563-30.228-25.504-18.834c-3.302-2.438-1.6-7.677 2.505-7.708l31.704-.246 10.031-30.076c1.295-3.894 6.803-3.894 8.102 0" style="fill:#464655"/></svg>
