<svg xmlns="http://www.w3.org/2000/svg" xml:space="preserve" viewBox="0 0 512 512" width="48" height="48"><path d="M400 0H112C50.144 0 0 50.144 0 112v288c0 61.856 50.144 112 112 112h288c61.856 0 112-50.144 112-112V112C512 50.144 461.856 0 400 0" style="fill:#4173cd"/><path d="M499.599 60.73a112.5 112.5 0 0 0-48.329-48.329L256 207.671 60.73 12.401A112.5 112.5 0 0 0 12.401 60.73L207.671 256 12.401 451.27a112.5 112.5 0 0 0 48.329 48.329L256 304.329l195.27 195.27a112.5 112.5 0 0 0 48.329-48.329L304.329 256z" style="fill:#f5f5f5"/></svg>
