<svg xmlns="http://www.w3.org/2000/svg" xml:space="preserve" viewBox="0 0 512 512" width="48" height="48"><path d="M112 0C50.144 0 0 50.144 0 112v288c0 61.856 50.144 112 112 112h58.667V0z" style="fill:#73af00"/><path d="M170.67 0h170.67v512H170.67z" style="fill:#ffe15a"/><path d="M400 0h-58.667v512H400c61.856 0 112-50.144 112-112V112C512 50.144 461.856 0 400 0" style="fill:#ff4b55"/><path d="m258.04 205.779 11.693 35.062 36.959.286c2.067.016 2.924 2.653 1.261 3.881l-29.732 21.956 11.149 35.239c.623 1.97-1.62 3.6-3.301 2.399L256 283.11l-30.069 21.492c-1.681 1.202-3.925-.428-3.301-2.399l11.149-35.239-29.732-21.956c-1.662-1.228-.806-3.865 1.261-3.881l36.959-.286 11.693-35.062c.653-1.96 3.427-1.96 4.08 0" style="fill:#73af00"/></svg>
