<svg xmlns="http://www.w3.org/2000/svg" xml:space="preserve" viewBox="0 0 512 512" width="48" height="48"><path d="M0 400c0 61.856 50.144 112 112 112h288c61.856 0 112-50.144 112-112v-58.609H0z" style="fill:#f5f5f5"/><path d="M400 0H112C50.144 0 0 50.144 0 112v58.609h512V112C512 50.144 461.856 0 400 0" style="fill:#ff4b55"/><path d="M0 170.61h512v170.78H0z" style="fill:#41479b"/><path d="M222.435 170.574h-97.076l-4.045-24.268h105.165z" style="fill:#ffe15a"/><path d="m124.348 164.507 1.011 6.067h97.076l1.011-6.067z" style="fill:#ffd350"/><path d="M171.87 89.68h4.045v16.179h-4.045z" style="fill:#ffe15a"/><path d="M167.83 93.72h12.134v4.045H167.83zm54.921 60.675a4.045 4.045 0 0 1-3.802-5.423l8.568-23.645a4.3 4.3 0 0 0-.274-3.543c-.318-.573-1.063-1.58-2.481-1.884-10.446-2.22-30.694-5.953-48.911-5.953h-3.906c-18.218 0-38.465 3.733-48.915 5.957-1.414.3-2.159 1.307-2.477 1.88a4.28 4.28 0 0 0-.272 3.543l8.566 23.645a4.045 4.045 0 0 1-2.423 5.182c-2.098.751-4.422-.328-5.181-2.425l-8.568-23.645a12.37 12.37 0 0 1 .804-10.223c1.675-3.022 4.541-5.163 7.865-5.87 10.762-2.291 31.644-6.134 50.602-6.134h3.906c18.958 0 39.84 3.843 50.598 6.13 3.328.711 6.194 2.852 7.868 5.874a12.38 12.38 0 0 1 .806 10.223l-8.57 23.645a4.05 4.05 0 0 1-3.803 2.666" style="fill:#ffe15a"/><path d="M173.913 150.856a4.044 4.044 0 0 1-4.045-4.045v-32.864c0-2.236 1.811-4.045 4.045-4.045s4.045 1.809 4.045 4.045v32.864a4.045 4.045 0 0 1-4.045 4.045" style="fill:#ffe15a"/><path d="M201.873 154.395q-.41 0-.826-.083a4.044 4.044 0 0 1-3.138-4.784l4.906-23.645c.638-3.081-.361-5.779-.928-6.253-5.609-2.058-16.861-5.684-26.872-5.684h-2.238c-10.011 0-21.263 3.626-27.079 5.791-.359.367-1.359 3.065-.721 6.146l4.906 23.645a4.046 4.046 0 0 1-3.138 4.784c-2.19.423-4.331-.952-4.781-3.14l-4.906-23.645c-1.223-5.894.654-13.442 5.816-15.37 7.732-2.876 19.191-6.3 29.904-6.3h2.238c10.713 0 22.172 3.425 29.9 6.296 5.167 1.932 7.043 9.48 5.82 15.374l-4.906 23.645a4.045 4.045 0 0 1-3.957 3.223" style="fill:#ffe15a"/><path d="M122.325 152.373h103.143l1.011-6.067H121.314z" style="fill:#ffd350"/><path d="M97.045 170.574A4.045 4.045 0 0 0 93 174.619v141.257c0 44.85 36.218 81.208 80.897 81.208 44.678 0 80.896-36.358 80.896-81.208V174.619a4.045 4.045 0 0 0-4.045-4.045z" style="fill:#ff4b55"/><path d="m181.986 304.054 8.09-20.224-16.179 4.045-16.179-4.045 8.09 20.224-20.224 68.762s12.134 8.09 28.314 8.09c16.179 0 28.314-8.09 28.314-8.09z" style="fill:#f5f5f5"/><path d="m144.601 320.356-7.136 1.783 15.698-28.256-7.071-3.927-19.067 34.322h-17.846v8.09h8.692l-11.218 8.974 5.052 6.32 9.53-7.623-3.759 11.273 7.675 2.56 7.388-22.164 14.025-3.508z" style="fill:#ffe15a"/><path d="m145.583 211.023-18.465-9.232a8.09 8.09 0 0 1-4.23-9.198l1.044-4.177c.725-2.899-1.468-5.707-4.456-5.707a4.59 4.59 0 0 0-3.586 1.724 67.55 67.55 0 0 0-14.8 42.193v85.518s16.891-3.378 32.148-25.57c2.801-4.075 7.413-6.486 12.328-6.739l-8.073 24.219 16.179 4.045 14.157-16.847z" style="fill:#f5f5f5"/><path d="m203.192 320.356 7.137 1.783-15.699-28.256 7.071-3.927 19.068 34.322h17.845v8.09h-8.692l11.218 8.974-5.052 6.32-9.53-7.623 3.759 11.273-7.675 2.56-7.388-22.164-14.025-3.508z" style="fill:#ffe15a"/><path d="m202.21 211.023 18.465-9.232a8.09 8.09 0 0 0 4.23-9.198l-1.044-4.177c-.725-2.899 1.468-5.707 4.456-5.707a4.59 4.59 0 0 1 3.586 1.724 67.55 67.55 0 0 1 14.8 42.193v85.518s-16.891-3.378-32.149-25.57c-2.801-4.075-7.413-6.486-12.328-6.739l8.073 24.219-16.179 4.045-14.157-16.847z" style="fill:#f5f5f5"/><path d="M149.628 182.709h-20.224l6.067 8.09 14.157 4.045-8.09 4.044h12.135zm48.538 0h20.224l-6.068 8.09-14.156 4.045 8.089 4.044h-12.134z" style="fill:#ffe15a"/><path d="m201.013 179.538-19.027 3.171-8.09 16.179-8.09-16.179-19.027-3.171c-2.182-.364-3.854 1.901-2.866 3.88l9.758 19.516-8.09 8.09h56.628l-8.09-8.09 9.758-19.516c.991-1.979-.682-4.244-2.864-3.88" style="fill:#f5f5f5"/><circle cx="173.9" cy="148.07" r="6.067" style="fill:#ffbe50"/><ellipse cx="173.81" cy="162.57" rx="4.795" ry="3.371" style="fill:#41479b"/><ellipse cx="149.88" cy="162.57" rx="4.795" ry="3.371" style="fill:#ff4b55"/><ellipse cx="125.95" cy="162.57" rx="4.795" ry="3.371" style="fill:#41479b"/><ellipse cx="221.68" cy="162.57" rx="4.795" ry="3.371" style="fill:#41479b"/><ellipse cx="197.74" cy="162.57" rx="4.795" ry="3.371" style="fill:#ff4b55"/><circle cx="202" cy="148.07" r="6.067" style="fill:#ffbe50"/><circle cx="224.19" cy="148.07" r="6.067" style="fill:#ffbe50"/><circle cx="145.81" cy="148.07" r="6.067" style="fill:#ffbe50"/><circle cx="123.62" cy="148.07" r="6.067" style="fill:#ffbe50"/><path d="M180.864 113.947c.695-1.194 1.122-2.564 1.122-4.045a8.09 8.09 0 1 0-16.18 0c0 1.481.427 2.851 1.122 4.045z" style="fill:#41479b"/><path d="M173.897 293.942c-16.728 0-30.336-13.608-30.336-30.336V209h60.672v54.605c0 16.729-13.608 30.337-30.336 30.337" style="fill:#ff4b55"/><path d="M202.21 211.023v52.583c0 15.637-12.676 28.314-28.314 28.314s-28.314-12.677-28.314-28.314v-52.583zm4.045-4.045h-64.718v56.628c0 17.843 14.516 32.359 32.359 32.359 17.842 0 32.359-14.516 32.359-32.359z" style="fill:#a54b50"/><path d="M167.829 291.251c1.956.428 3.983.668 6.067.668s4.111-.241 6.067-.668v-80.229h-12.134z" style="fill:#f5f5f5"/><path d="M145.58 244.39h56.628v12.134H145.58z" style="fill:#f5f5f5"/></svg>
