<svg xmlns="http://www.w3.org/2000/svg" xml:space="preserve" viewBox="0 0 512 512" width="48" height="48"><path d="M511.995 400v-58.649L52.083 494.639C69.409 505.631 89.956 512 111.994 512h288c61.856 0 112.001-50.144 112.001-112" style="fill:#73af00"/><path d="M111.994 0C51.146 0 1.633 48.524.036 108.988l-.03 291.91c.171 21.701 6.509 41.93 17.354 59.022L170.714 0z" style="fill:#41479b"/><path d="M170.714 0 17.359 459.92a112 112 0 0 0 9.105 12.381L341.38 0z" style="fill:#ffe15a"/><path d="M511.995 112c0-61.856-50.144-112-112-112H341.38L26.464 472.301a112.6 112.6 0 0 0 13.234 13.233l472.296-314.833V112z" style="fill:#ff4b55"/><path d="M511.995 170.701 39.698 485.534a112 112 0 0 0 12.384 9.105l459.912-153.288v-170.65z" style="fill:#f5f5f5"/></svg>
