<svg xmlns="http://www.w3.org/2000/svg" xml:space="preserve" viewBox="0 0 512 512" width="48" height="48"><path d="M512 112C512 50.144 461.856 0 400 0H112C50.144 0 0 50.144 0 112v144.5h512z" style="fill:#ff4b55"/><path d="M512 400V256.5H0V400c0 61.856 50.144 112 112 112h288c61.856 0 112-50.144 112-112M86.244 121.422c0-43.468 31.895-79.498 73.542-86.163 2.261-.362 2.363-3.473.132-3.987-10.311-2.372-21.262-3.045-32.634-1.497-44.92 6.118-79.641 44.99-80.275 90.32C46.285 171.853 88.013 214 139.527 214c7.012 0 13.822-.82 20.373-2.326 2.228-.512 2.117-3.631-.141-3.992-41.633-6.662-73.515-42.625-73.515-86.26" style="fill:#f5f5f5"/><path d="m160.47 144.681-3.913 11.733-12.368.096c-1.601.012-2.265 2.056-.977 3.007l9.949 7.347-3.731 11.792c-.483 1.527 1.255 2.79 2.558 1.858l10.062-7.192 10.062 7.192c1.303.931 3.041-.332 2.558-1.858l-3.731-11.792 9.949-7.347c1.288-.951.624-2.995-.977-3.007l-12.368-.096-3.913-11.733c-.504-1.519-2.653-1.519-3.16 0m61.136 0-3.913 11.733-12.368.096c-1.601.012-2.265 2.056-.977 3.007l9.949 7.347-3.731 11.792c-.483 1.527 1.255 2.79 2.558 1.858l10.062-7.192 10.062 7.192c1.303.931 3.041-.332 2.558-1.858l-3.731-11.792 9.949-7.347c1.288-.951.624-2.995-.977-3.007l-12.368-.096-3.913-11.733c-.505-1.519-2.654-1.519-3.16 0m-30.293-94.343L187.4 62.07l-12.368.096c-1.601.013-2.265 2.056-.977 3.007l9.949 7.347-3.731 11.792c-.483 1.527 1.255 2.79 2.558 1.858l10.062-7.192 10.062 7.192c1.303.931 3.041-.332 2.558-1.858l-3.731-11.792 9.949-7.347c1.288-.951.624-2.995-.977-3.007l-12.368-.096-3.913-11.733c-.504-1.518-2.653-1.518-3.16.001M142.57 86.482l-3.913 11.733-12.367.095c-1.601.012-2.265 2.056-.977 3.007l9.949 7.347-3.731 11.792c-.483 1.527 1.255 2.79 2.558 1.858l10.062-7.192 10.062 7.192c1.303.931 3.041-.332 2.558-1.858l-3.731-11.792 9.949-7.347c1.288-.951.624-2.995-.977-3.007l-12.368-.096-3.913-11.733c-.505-1.518-2.654-1.518-3.161.001m97.073 0-3.913 11.733-12.368.096c-1.601.012-2.265 2.056-.977 3.007l9.949 7.347-3.731 11.792c-.483 1.527 1.255 2.79 2.558 1.858l10.062-7.192 10.062 7.192c1.303.931 3.041-.332 2.558-1.858l-3.731-11.792 9.949-7.347c1.288-.951.624-2.995-.977-3.007l-12.368-.096-3.913-11.733c-.505-1.519-2.653-1.519-3.16 0" style="fill:#f5f5f5"/></svg>
