<svg xmlns="http://www.w3.org/2000/svg" xml:space="preserve" viewBox="0 0 512 512" width="48" height="48"><path d="M400 0H112C50.144 0 0 50.144 0 112v288c0 61.856 50.144 112 112 112h288c61.856 0 112-50.144 112-112V112C512 50.144 461.856 0 400 0" style="fill:#41479b"/><path d="M400 0H112C50.144 0 0 50.144 0 112v288c0 61.856 50.144 112 112 112h288c61.856 0 112-50.144 112-112V112C512 50.144 461.856 0 400 0M17.656 118.076c0-56.113 45.489-101.602 101.602-101.602h127.915V132L114 242.526H17.656zM247.173 496H119.257c-56.113 0-101.602-45.489-101.602-101.602V258.474H114L247.173 370zM124.798 249.98 256 149.98l131.203 100L256 356zm369.547 144.418c0 56.113-45.489 101.602-101.602 101.602H264.828V370L398 258.474h96.345zm0-151.872H398L264.828 132V16.474h127.915c56.113 0 101.602 45.489 101.602 101.602z" style="fill:#ff4b55"/><path d="M256 142 124.797 250l47.677 38.882L210.631 320 256 357l45.369-37 60.074-48.992L387.203 250z" style="fill:#f5f5f5"/><path d="m361.443 271.008-27.492-41.195h-9.652l-7.125 10.676-5.083-7.615h-10.166l-38.993 58.429h-48.951l-11.116-24.664h-14.107L183.2 278.31h-6.246l-4.48 10.572L210.631 320h90.738" style="fill:#73af00"/><path d="m258.919 194.021 3.509 10.52 11.09.086c1.436.011 2.031 1.843.876 2.696l-8.921 6.588 3.345 10.574c.433 1.369-1.125 2.501-2.294 1.666l-9.022-6.449-9.022 6.449c-1.168.835-2.727-.298-2.294-1.666l3.345-10.574-8.921-6.588c-1.155-.853-.56-2.685.876-2.696l11.09-.086 3.509-10.52c.453-1.361 2.38-1.361 2.834 0" style="fill:#ffe15a"/></svg>
