<svg xmlns="http://www.w3.org/2000/svg" xml:space="preserve" viewBox="0 0 512 512" width="48" height="48"><path d="M400 0H112C50.144 0 0 50.144 0 112v58.667h512V112C512 50.144 461.856 0 400 0" style="fill:#f5f5f5"/><path d="M0 400c0 61.856 50.144 112 112 112h288c61.856 0 112-50.144 112-112v-58.667H0z" style="fill:#ff4b55"/><path d="M0 170.67h512v170.67H0z" style="fill:#41479b"/><path d="M211.809 105.46s-2.713 86.432-14.842 110.703c-15.013 29.832-30.106 38.534-52.563 46.575-22.454-8.038-37.548-16.736-52.563-46.575C79.716 191.889 76.998 105.467 77 105.46a163.8 163.8 0 0 1 134.809 0" style="fill:#41479b"/><path d="M163.923 225.318c-1.642-1.053-2.827-1.807-5.522-1.807-2.688 0-3.873.753-5.507 1.807-1.872 1.192-4.202 2.684-8.532 2.684-4.333 0-6.663-1.492-8.535-2.691-1.635-1.046-2.816-1.799-5.504-1.799s-3.869.753-5.504 1.799c-1.769 1.134-4.006 2.485-7.893 2.636 8.183 9.98 16.763 14.713 27.472 18.825 10.702-4.111 19.28-8.842 27.465-18.821-3.918-.143-6.165-1.504-7.94-2.633m-53.128-15.967c1.635 1.046 2.812 1.799 5.493 1.799 2.688 0 3.869-.753 5.504-1.799 1.872-1.199 4.202-2.691 8.532-2.691s6.659 1.492 8.532 2.684c1.635 1.053 2.819 1.807 5.507 1.807s3.869-.753 5.504-1.799c1.872-1.199 4.202-2.691 8.535-2.691 4.337 0 6.67 1.492 8.543 2.684 1.642 1.053 2.823 1.807 5.518 1.807s3.88-.753 5.522-1.807c1.565-.997 3.529-2.15 6.64-2.52.816-2.123 1.606-4.541 2.345-7.48l-20.102-33.503-7.489 14.979-14.979-29.958-14.98 29.957-7.489-14.979-20.089 33.483c.735 2.937 1.524 5.367 2.34 7.502 3.098.371 5.052 1.523 6.613 2.525m70.209 4.732c-1.872 1.192-4.206 2.684-8.543 2.684-4.333 0-6.667-1.492-8.539-2.684-1.642-1.053-2.827-1.807-5.522-1.807-2.688 0-3.873.753-5.507 1.807-1.872 1.192-4.202 2.684-8.532 2.684-4.333 0-6.663-1.492-8.535-2.691-1.635-1.046-2.816-1.799-5.504-1.799s-3.869.753-5.504 1.799c-1.872 1.2-4.202 2.691-8.532 2.691-4.326 0-6.652-1.492-8.521-2.691l-.026-.016a109 109 0 0 0 4.398 7.332c1.094.599 2.236.993 4.148.993 2.688 0 3.869-.753 5.504-1.799 1.872-1.199 4.202-2.691 8.532-2.691s6.659 1.492 8.532 2.684c1.635 1.053 2.819 1.807 5.507 1.807s3.869-.753 5.504-1.799c1.872-1.199 4.202-2.691 8.535-2.691 4.337 0 6.67 1.492 8.543 2.684 1.642 1.053 2.823 1.807 5.518 1.807 1.941 0 3.095-.4 4.204-1.012a109 109 0 0 0 4.394-7.324z" style="fill:#f5f5f5"/><path d="m144.7 125.076 1.314 4.294 4.376-1.009a.31.31 0 0 1 .296.512l-3.062 3.285 3.062 3.285a.31.31 0 0 1-.296.512l-4.376-1.009-1.314 4.294a.309.309 0 0 1-.591 0l-1.314-4.294-4.376 1.009c-.297.068-.504-.289-.296-.512l3.062-3.285-3.062-3.285a.31.31 0 0 1 .296-.512l4.376 1.009 1.314-4.294c.089-.291.502-.291.591 0m-21.532-20.636 1.314 4.294 4.376-1.009a.31.31 0 0 1 .296.512l-3.062 3.285 3.062 3.285a.31.31 0 0 1-.296.512l-4.376-1.009-1.314 4.294a.309.309 0 0 1-.591 0l-1.314-4.294-4.376 1.009a.31.31 0 0 1-.296-.512l3.062-3.285-3.062-3.285a.31.31 0 0 1 .296-.512l4.376 1.009 1.314-4.294a.309.309 0 0 1 .591 0m43.22 0 1.314 4.294 4.376-1.009a.31.31 0 0 1 .296.512l-3.062 3.285 3.062 3.285a.31.31 0 0 1-.296.512l-4.376-1.009-1.314 4.294a.309.309 0 0 1-.591 0l-1.314-4.294-4.376 1.009a.31.31 0 0 1-.296-.512l3.062-3.285-3.062-3.285a.31.31 0 0 1 .296-.512l4.376 1.009 1.314-4.294a.309.309 0 0 1 .591 0" style="fill:#ffe15a"/><path d="M204.056 102.205c.045 2.388.085 4.799.085 7.4-1.081 27.021-5.101 85.868-13.864 103.59-12.917 25.942-24.844 34.516-45.873 42.419-21.029-7.901-32.954-16.473-45.863-42.398-8.793-17.791-12.843-77.637-13.876-103.609 0-2.605.042-4.988.079-7.397a165 165 0 0 0-7.72 3.24c.18 5.248 1.487 39.672 5.411 69.941 2.214 16.897 5.259 32.471 9.407 40.773 15.015 29.839 30.109 38.537 52.563 46.575 22.457-8.042 37.55-16.743 52.563-46.575 4.148-8.301 7.194-23.875 9.407-40.773 3.923-30.268 5.228-64.693 5.409-69.941a163 163 0 0 0-7.728-3.245" style="fill:#ff1722"/></svg>
