<svg xmlns="http://www.w3.org/2000/svg" xml:space="preserve" viewBox="0 0 512 512" width="48" height="48"><path d="M400 0H112C50.144 0 0 50.144 0 112v288c0 61.856 50.144 112 112 112h288c61.856 0 112-50.144 112-112V112C512 50.144 461.856 0 400 0" style="fill:#41479b"/><path d="M33.247 479.628C53.479 499.64 81.295 512 112 512h288c61.856 0 112-50.144 112-112V112c0-27.677-10.044-53.004-26.68-72.549z" style="fill:#73af00"/><path d="M466.185 21.648 21.648 466.186a112.7 112.7 0 0 0 24.166 24.166L490.352 45.814a112.6 112.6 0 0 0-24.167-24.166" style="fill:#ffe15a"/><path d="m62.983 41.744-6.133 18.39-19.385.15c-1.859.014-2.63 2.387-1.134 3.491l15.595 11.516-5.847 18.483c-.561 1.772 1.457 3.239 2.97 2.158L64.82 84.659l15.77 11.273c1.512 1.081 3.531-.385 2.97-2.158l-5.848-18.483 15.595-11.516c1.495-1.104.725-3.477-1.134-3.491l-19.385-.15-6.133-18.39c-.589-1.764-3.084-1.764-3.672 0m147.671 0-6.133 18.39-19.385.15c-1.859.014-2.63 2.387-1.134 3.491l15.595 11.516-5.848 18.483c-.561 1.772 1.457 3.239 2.97 2.158l15.771-11.273 15.771 11.273c1.512 1.081 3.531-.385 2.97-2.158l-5.847-18.483 15.595-11.516c1.495-1.104.725-3.477-1.134-3.491l-19.385-.15-6.133-18.39c-.59-1.764-3.085-1.764-3.673 0m-73.835 65.799-6.133 18.39-19.385.15c-1.859.014-2.63 2.387-1.134 3.491l15.595 11.516-5.847 18.483c-.561 1.772 1.457 3.239 2.97 2.158l15.771-11.273 15.771 11.273c1.512 1.081 3.53-.385 2.97-2.158l-5.848-18.483 15.595-11.516c1.495-1.104.725-3.477-1.134-3.491l-19.385-.15-6.133-18.39c-.591-1.764-3.085-1.764-3.673 0m-73.836 65.799-6.133 18.39-19.385.15c-1.859.014-2.63 2.387-1.134 3.491l15.595 11.516-5.847 18.483c-.561 1.772 1.457 3.239 2.97 2.158l15.771-11.273 15.77 11.273c1.512 1.081 3.531-.385 2.97-2.158l-5.848-18.483 15.595-11.516c1.495-1.104.725-3.477-1.134-3.491l-19.385-.15-6.133-18.39c-.589-1.763-3.084-1.763-3.672 0m147.671 0-6.133 18.39-19.385.15c-1.859.014-2.63 2.387-1.134 3.491l15.595 11.516-5.848 18.483c-.561 1.772 1.457 3.239 2.97 2.158l15.771-11.273 15.771 11.273c1.512 1.081 3.531-.385 2.97-2.158l-5.847-18.483 15.595-11.516c1.495-1.104.725-3.477-1.134-3.491l-19.385-.15-6.133-18.39c-.59-1.763-3.085-1.763-3.673 0" style="fill:#f5f5f5"/></svg>
