<svg xmlns="http://www.w3.org/2000/svg" xml:space="preserve" viewBox="0 0 512 512" width="48" height="48"><path d="M400 0H112C50.144 0 0 50.144 0 112v288c0 61.856 50.144 112 112 112h288c61.856 0 112-50.144 112-112V112C512 50.144 461.856 0 400 0" style="fill:#82afff"/><path d="m252.132 160.517-22.606 67.782-71.45.554c-3.917.03-5.541 5.029-2.39 7.356l57.479 42.445-21.553 68.124c-1.182 3.735 3.071 6.824 6.258 4.546L256 309.777l58.13 41.549c3.187 2.278 7.439-.812 6.258-4.546l-21.553-68.124 57.479-42.445c3.151-2.327 1.527-7.326-2.39-7.356l-71.45-.554-22.606-67.782c-1.24-3.718-6.496-3.718-7.736-.002" style="fill:#f5f5f5"/></svg>
