<svg xmlns="http://www.w3.org/2000/svg" xml:space="preserve" viewBox="0 0 512 512" width="48" height="48"><path d="M0 144.651v222.702L140.652 256z" style="fill:#464655"/><path d="M400 0H112a112 112 0 0 0-29.32 3.886l216.342 171.272H512V112C512 50.144 461.856 0 400 0" style="fill:#ff4b55"/><path d="M82.675 508.113A112 112 0 0 0 112 512h288c61.856 0 112-50.144 112-112v-63.158H299.02z" style="fill:#41479b"/><path d="M54.447 15.905C22.285 35.209.619 70.2.021 110.299L184.066 256 .021 401.705c.599 40.096 22.263 75.083 54.422 94.387l235.201-186.198H512v-107.79H289.646z" style="fill:#73af00"/><path d="M82.68 3.886a111.4 111.4 0 0 0-28.233 12.019l235.199 186.2H512v-26.947H299.022z" style="fill:#f5f5f5"/><path d="M.021 110.299C.013 110.866 0 111.431 0 112v32.651L140.652 256 0 367.353V400c0 .57.013 1.137.021 1.705L184.066 256z" style="fill:#ffe15a"/><path d="M54.443 496.092a111.4 111.4 0 0 0 28.232 12.02l216.345-171.27H512v-26.947H289.645z" style="fill:#f5f5f5"/></svg>
