<svg xmlns="http://www.w3.org/2000/svg" xml:space="preserve" viewBox="0 0 512 512" width="48" height="48"><path d="M512 111.912C511.953 50.097 461.828.001 400.001.001h-288c-61.856 0-112 50.144-112 112v58.667H512z" style="fill:#464655"/><path d="M.001 341.334V400c0 61.856 50.144 112 112 112h288c61.827 0 111.952-50.097 111.999-111.913v-58.753z" style="fill:#73af00"/><path d="M0 170.669h512v170.67H0z" style="fill:#ff4b55"/><path d="m95.399 233.163 5.247 11.381 12.169-2.994a.917.917 0 0 1 1.038 1.302l-5.627 11.198 9.928 7.648a.917.917 0 0 1-.37 1.623l-12.263 2.583.211 12.53a.917.917 0 0 1-1.5.722l-9.665-7.977-9.665 7.977a.917.917 0 0 1-1.5-.722l.211-12.53-12.263-2.583a.917.917 0 0 1-.37-1.623l9.928-7.648-5.627-11.198a.917.917 0 0 1 1.038-1.302l12.169 2.994 5.247-11.381a.916.916 0 0 1 1.664 0M0 161.689h512v22.905H0zM0 327.41h512v22.905H0z" style="fill:#f5f5f5"/><path d="M244.326 249.016 32.497 33.118C12.412 53.361.001 81.23.001 111.999v288c0 30.769 12.411 58.638 32.496 78.88l211.829-215.897c3.492-3.568 3.492-10.395 0-13.966" style="fill:#41479b"/><path d="m81.118 214.845 19.831 20.297 25.624-12.192c3.318-1.578 6.735 1.974 5.029 5.228l-13.176 25.132 19.514 20.602c2.526 2.667.204 7.015-3.418 6.399l-27.974-4.764-13.564 24.925c-1.756 3.227-6.609 2.362-7.142-1.273l-4.113-28.077-27.897-5.198c-3.612-.673-4.289-5.556-.996-7.186l25.432-12.588-3.677-28.137c-.476-3.643 3.959-5.796 6.527-3.168" style="fill:#ffe15a"/></svg>
