<svg xmlns="http://www.w3.org/2000/svg" xml:space="preserve" viewBox="0 0 512 512" width="48" height="48"><path d="M400 0H112C50.144 0 0 50.144 0 112v288c0 61.856 50.144 112 112 112h288c61.856 0 112-50.144 112-112V112C512 50.144 461.856 0 400 0" style="fill:#c8414b"/><path d="M0 106.63h512v298.74H0z" style="fill:#ffd250"/><path d="m223.091 256.412 8.255-33.665c.76-3.1-1.843-6.041-5.347-6.041h-5.815c-3.504 0-6.108 2.941-5.347 6.041z" style="fill:#c8414b"/><path d="M213.35 238.76h19.473v75H213.35z" style="fill:#f5f5f5"/><path d="M208.49 229.94h29.21v8.823h-29.21z" style="fill:#fab446"/><path d="M189.01 256.41h48.681v8.823H189.01zm48.686 35.296-29.209-8.824v-8.823l29.209 8.823zM77.047 256.412l8.255-33.665c.76-3.1-1.843-6.041-5.347-6.041H74.14c-3.504 0-6.108 2.941-5.347 6.041z" style="fill:#c8414b"/><path d="M111.124 229.941c-5.377 0-9.736 3.95-9.736 8.824v57.353c0 10.721 11.041 30.882 48.682 30.882s48.682-20.162 48.682-30.882v-57.353c0-4.873-4.359-8.824-9.736-8.824z" style="fill:#f5f5f5"/><path d="M150.069 274.059h-48.682V239.21a9.27 9.27 0 0 1 9.269-9.269h39.413zm0 0h48.682v20.946c0 12.797-10.374 23.172-23.172 23.172h-2.338c-12.797 0-23.172-10.374-23.172-23.172z" style="fill:#c8414b"/><path d="M101.387 274.059h48.682v20.946c0 12.797-10.374 23.172-23.172 23.172h-2.338c-12.797 0-23.172-10.374-23.172-23.172z" style="fill:#fab446"/><path d="M140.333 313.665v-39.606h-9.736v43.673c3.62-.667 6.893-2.12 9.736-4.067m-19.473 4.067v-43.673h-9.736v39.606c2.843 1.947 6.115 3.4 9.736 4.067" style="fill:#c8414b"/><path d="M111.12 256.41h29.21v8.823h-29.21z" style="fill:#ffb441"/><path d="M111.12 238.76h29.21v8.824h-29.21z" style="fill:#fab446"/><path d="M115.99 244.01h19.473v15.985H115.99z" style="fill:#fab446"/><path d="M67.31 238.76h19.473v75H67.31z" style="fill:#f5f5f5"/><path d="M62.44 309.35h29.21v8.823H62.44zm0-79.41h29.21v8.823H62.44z" style="fill:#fab446"/><path d="M57.57 318.18h38.945v8.823H57.57z" style="fill:#5064aa"/><path d="M213.35 309.35h29.21v8.823h-29.21z" style="fill:#fab446"/><path d="M203.62 318.18h38.945v8.823H203.62z" style="fill:#5064aa"/><path d="M120.86 221.12h58.42v8.823h-58.42z" style="fill:#fab446"/><path d="M145.2 194.65h9.736v26.471H145.2z" style="fill:#ffb441"/><path d="M140.333 207.882c-8.053 0-14.604-5.937-14.604-13.235s6.551-13.235 14.604-13.235 14.604 5.937 14.604 13.235-6.551 13.235-14.604 13.235m0-17.647c-2.686 0-4.868 1.978-4.868 4.412s2.182 4.412 4.868 4.412 4.868-1.978 4.868-4.412-2.182-4.412-4.868-4.412" style="fill:#f5f5f5"/><path d="M159.805 207.882c-8.053 0-14.604-5.937-14.604-13.235s6.551-13.235 14.604-13.235 14.604 5.937 14.604 13.235-6.55 13.235-14.604 13.235m0-17.647c-2.686 0-4.868 1.978-4.868 4.412s2.182 4.412 4.868 4.412 4.868-1.978 4.868-4.412-2.182-4.412-4.868-4.412" style="fill:#f5f5f5"/><path d="M179.278 216.706c-8.053 0-14.604-5.937-14.604-13.235s6.551-13.235 14.604-13.235 14.605 5.937 14.605 13.235-6.552 13.235-14.605 13.235m0-17.647c-2.686 0-4.868 1.978-4.868 4.412s2.182 4.412 4.868 4.412 4.868-1.978 4.868-4.412-2.182-4.412-4.868-4.412m-58.418 17.647c-8.053 0-14.604-5.937-14.604-13.235s6.551-13.235 14.604-13.235 14.604 5.937 14.604 13.235-6.551 13.235-14.604 13.235m0-17.647c-2.686 0-4.868 1.978-4.868 4.412s2.182 4.412 4.868 4.412 4.868-1.978 4.868-4.412-2.182-4.412-4.868-4.412" style="fill:#f5f5f5"/><path d="M179.278 291.706v4.412c0 2.433-2.184 4.412-4.868 4.412s-4.868-1.979-4.868-4.412v-4.412zm9.736-8.824h-29.209v13.235c0 7.298 6.552 13.235 14.604 13.235 8.053 0 14.605-5.938 14.605-13.235z" style="fill:#fab446"/><path d="M174.877 265.235h-.935a9.27 9.27 0 0 1-9.269-9.269v-7.933a9.27 9.27 0 0 1 9.269-9.269h.935a9.27 9.27 0 0 1 9.269 9.269v7.933c0 5.12-4.15 9.269-9.269 9.269" style="fill:#ffa0d2"/><ellipse cx="150.07" cy="274.06" rx="14.604" ry="13.235" style="fill:#5064aa"/><path d="M145.2 177h9.736v26.471H145.2z" style="fill:#fab446"/><path d="m120.86 221.118-9.736-8.824 5.703-5.169c8.816-7.99 20.774-12.478 33.242-12.478s24.426 4.489 33.242 12.478l5.703 5.169-9.736 8.824z" style="fill:#c8414b"/><ellipse cx="150.07" cy="212.29" rx="4.868" ry="4.412" style="fill:#ffd250"/><ellipse cx="130.6" cy="212.29" rx="4.868" ry="4.412" style="fill:#ffd250"/><ellipse cx="169.54" cy="212.29" rx="4.868" ry="4.412" style="fill:#ffd250"/><path d="M62.44 256.41h48.681v8.823H62.44zm.002 35.296 29.209-8.824v-8.823l-29.209 8.823z" style="fill:#c8414b"/></svg>
