<svg xmlns="http://www.w3.org/2000/svg" xml:space="preserve" viewBox="0 0 512 512" width="48" height="48"><path d="M400 0H112C50.144 0 0 50.144 0 112v288c0 61.856 50.144 112 112 112h288c61.856 0 112-50.144 112-112V112C512 50.144 461.856 0 400 0" style="fill:#ffd250"/><path d="M189.965 67.02v377.96c0 6.958 3.696 12.599 8.254 12.599h264.138c4.559 0 8.254-5.641 8.254-12.599V67.02c0-6.958-3.696-12.599-8.254-12.599H198.22c-4.559 0-8.255 5.641-8.255 12.599" style="fill:#963c3c"/><path d="M103.295 54.421H52.294c-6.023 0-10.906 4.883-10.906 10.906v381.346c0 6.023 4.883 10.906 10.906 10.906h51.001z" style="fill:#5aa587"/><path d="M154.297 54.421h-51.001v403.158h51.001c6.023 0 10.906-4.883 10.906-10.906V65.327c0-6.023-4.883-10.906-10.906-10.906" style="fill:#ff7350"/><path d="M384.158 317.599c-.265-1.767 1.29-4.048 3.693-7.326.869-1.185 2.125-2.901 2.464-3.723a7 7 0 0 0-.76.014c-1.33.065-3.341.156-5.099-1.795a3.7 3.7 0 0 1-.954-2.766c.131-2.123 1.865-4.21 2.94-5.314-2.773-1.947-5.422-3.97-7.865-6.413-4.668-4.669-9.993-6.918-15.872-6.795-.544 5.848 2.469 9.694 5.686 13.741.948 1.191 1.893 2.382 2.751 3.625 4.231 6.126 3.346 17.951 2.81 19.204-.607 1.42-3.953 4.569-8.542 3.955-2.111-.278-4.54.432-6.07 1.77-.658.576-1.444 1.533-1.444 2.818 0 .065.005.39.106.45.617.372 2.92-.355 4.569-1.246a1.21 1.21 0 0 1 1.404.181c3.243 3.037 6.5.413 6.859.104a1.22 1.22 0 0 1 1.554-.028c3.319 2.676 6.78-.249 6.927-.375a1.22 1.22 0 0 1 1.458-.098c1.44.945 2.758 1.215 3.933.811 1.027-.357 1.571-1.128 1.634-1.314.03-.491-.63-3.023-1.066-4.698-.461-1.759-.935-3.576-1.116-4.782" style="fill:#ffd250"/><path d="M420.11 205.616c-1-.076-1.724.14-2.22.631-.909.898-.835 2.516-.833 2.532.019.36-.123.712-.387.956-.265.244-.62.369-.98.317-1.798-.235-4.457-2.133-9.391-5.749-7.839-5.745-19.686-14.428-30.99-15.858-13.138-1.669-24.831 2.523-27.801 9.95-3.308 8.27 3.721 15.804 3.793 15.88.358.379.435.943.191 1.402-1.854 3.491-.45 6.069.816 7.481.396-1.166.989-1.962 1.806-2.452 1.972-1.178 4.546-.204 8.107 1.145 2.104.795 4.488 1.698 7.269 2.379 7.131 1.748 15.828.189 23.501-1.185 2.712-.486 5.328-.953 7.76-1.264 6.119-.779 12.254 1.933 13.941 6.184.817 2.059 1.254 6.192-4.998 10.738-11.242 8.178-62.51 4.404-65.53 4.174-.068.006-.133.012-.275.022 1.121 1.259 2.436 2.487 3.009 2.64a1.211 1.211 0 0 1-.293 2.382l-5.252.081.483 5.055c.035.372-.104.741-.377.997a1.25 1.25 0 0 1-1.018.316c-.205-.033-4.739-.759-7.874-2.5l-5.932 3.742a1.22 1.22 0 0 1-1.037.121 1.21 1.21 0 0 1-.748-.729l-2.264-6.154-2.683 5.368a1.21 1.21 0 0 1-1.025.669c-.436.046-.852-.194-1.085-.566l-2.3-3.666c-1.052 1.314-2.739 3.228-4.465 4.422a1.207 1.207 0 0 1-1.844-.629l-1.205-3.805c-1.066 1.349-2.609 3.136-4.242 4.475-.349.29-.833.358-1.251.175a1.22 1.22 0 0 1-.726-1.033l-.388-6.116c-1.38.704-3.261 1.62-4.302 1.945a1.211 1.211 0 0 1-1.41-1.76c1.869-3.245 3.584-7.297 3.714-9.311-1.239 1.484-2.974 2.904-4.913 4.481-4.124 3.357-9.256 7.533-13.032 14.842-2.638 5.108-4.532 14.018-1.191 22.326 2.851 7.087 8.989 12.375 18.183 15.772-.308-1.342-.543-2.66-.568-3.898-.12-6.293 1.186-12.037 1.243-12.278a1.2 1.2 0 0 1 1.451-.907c.653.15 1.059.8.909 1.451-.013.057-1.294 5.704-1.18 11.686.057 2.928 1.316 6.542 2.534 10.036 1.617 4.646 3.291 9.448 2.564 13.49-.991 5.495-7.831 6.888-14.181 5.827-1.805-.303-3.447.142-4.627 1.243-1.197 1.117-1.811 2.829-1.642 4.58.08.825.388.991.489 1.046.763.413 2.56-.148 3.532-.656a1.21 1.21 0 0 1 1.467.267c2.546 2.852 5.976.006 6.119-.118a1.214 1.214 0 0 1 1.668.095c.959 1.022 1.975 1.532 3.106 1.557 2.068.126 4.031-1.715 4.051-1.731a1.21 1.21 0 0 1 1.347-.233c3.996 1.828 6.093.767 6.179.716 3.467-2.956 1.464-9.972 1.443-10.043a1.2 1.2 0 0 1 .117-.953c.169-.289.45-.494.775-.57 4.857-1.114 7.572-4.231 8.885-6.298-2.4-.024-4.307-.864-5.43-2.62-1.81-2.833-.94-7.101 2.215-10.871 5.398-6.451 8.699-19.505 8.203-24.821a1.214 1.214 0 0 1 1.095-1.319 1.22 1.22 0 0 1 1.319 1.095c.432 4.656-1.667 14.315-5.499 21.599 4.855-1.343 9.286-3.308 13.909-5.418 4.595-2.096 9.349-4.264 15.059-6.053 9.653-3.023 18.167-.928 25.315 6.224 3.463 3.463 7.244 5.999 11.622 8.939 1.923 1.29 3.923 2.633 6 4.128 5.627 4.051 5.528 7.434 5.422 11.015-.031 1.092-.066 2.22.057 3.442.581 5.815-4.043 6.735-6.266 7.176-.305.06-.59.117-.839.178-.314.079-.689.156-1.104.24-2.258.457-5.668 1.15-6.506 4.038-.152.518-.093.699-.093.699.357.163 2.204-.257 3.676-.926a1.214 1.214 0 0 1 1.65.708c.429 1.257 1.098 1.472 1.317 1.543 1.526.477 4.021-.928 4.774-1.462a1.215 1.215 0 0 1 1.522.091c1.251 1.142 2.407 1.645 3.447 1.505 1.391-.194 2.235-1.503 2.245-1.518.2-.323.541-.535.921-.569.385-.021.754.115 1.01.396.003.005 1.063 1.123 3.232 1.809 1.423.445 1.781-.068 1.899-.238.601-.877.385-3.116-.787-4.58-1.537-1.922-2.25-4.843-1.817-7.443.398-2.393 1.688-4.345 3.729-5.645 3.74-2.381 4.595-4.946 4.356-5.435-.069-.033-.475-.087-.8-.129-1.669-.221-4.463-.59-7.336-5.895-2.537-4.682-.082-12.095 2.759-20.68 1.442-4.349 2.931-8.849 3.849-13.261 2.543-12.206-5.449-21.897-5.529-21.993a1.21 1.21 0 0 1 .099-1.663c5.61-5.263 8.022-10.142 7.165-14.501-.891-4.545-5.293-7.722-8.79-9.061-4.359-1.671-12.311-.721-20.005.194-6.429.764-12.505 1.488-16.427.669-2.021-.424-3.501-1.382-4.398-2.846-.74-1.207-.921-2.529-.913-3.561-1.948.732-3.264 2.537-3.28 2.559-.223.311-.581.5-.962.506-.478-.019-.749-.167-.981-.469-.991-1.281-1.39-2.694-1.182-4.203.267-1.95 1.525-3.627 2.557-4.709-4.51-1.584-7.967 2.196-8.126 2.376a1.225 1.225 0 0 1-1.541.229c-2.175-1.338-3.524-3.963-3.439-6.687.082-2.573 1.409-4.73 3.639-5.914 1.529-.811 2.994-.961 4.354-.448 1.294.487 2.201 1.494 2.772 2.347 1.65-1.882 1.789-5.13 1.789-5.168a1.2 1.2 0 0 1 .385-.854c.237-.221.566-.36.877-.325 2.87.118 5.097 1.155 6.62 3.079 2.081 2.633 2.276 6.29 2.153 8.554 4.583-2.34 4.002-7.74 3.972-7.992a1.215 1.215 0 0 1 1.608-1.286c4.864 1.716 6.634 6.053 7.05 9.281 1.377-1.314 1.398-3.001 1.398-3.023a1.212 1.212 0 0 1 2.275-.581c1.876 3.43 4.738 5.564 6.831 6.758l-1.442-3.494a1.212 1.212 0 0 1 1.695-1.528c2.4 1.292 4.3 2.754 6.312 4.304 2.426 1.868 4.936 3.799 8.471 5.46 3.452 1.623 5.78 1.314 7.12.771 1.388-.56 2.182-1.549 2.439-2.226.487-1.279.629-3.117-.153-4.335-.504-.781-1.354-1.216-2.53-1.294m-143.04 17.421.004.003.013.002c.09.03 9.148 2.888 17.374 3.378a1.214 1.214 0 0 1 .873 1.969l-.287.358c1.631-.245 3.684-.472 5.697-.48-.824-.981-1.851-2.23-2.904-3.538-2.2-.04-10.249-.39-16.798-3.547-1.59-.771-4.341-2.104-5.649-1.429-.226.117-.598.663-.536 1.333.077.85.863 1.544 2.213 1.951m27.296-17.512q-.19 0-.342.044c-.529.158-.797.756-.868 1.221-.088.596.063 1.398.756 1.86.904.601 1.871.189 2.421-.353.174-.169 1.005-1.059.391-2.03l-.002-.003c-.945-.435-1.775-.739-2.356-.739" style="fill:#ffd250"/><path d="M292.476 234.733c.587 1.399 1.497 2.483 2.25 3.21.286-.618.721-1.26 1.382-1.743.647-.471 1.767-.93 3.41-.588l.074.01c.047.01.084.006.132.018.042.01.07.043.111.055.059.021.12.023.176.053.042.023.068.061.106.088.618.262 1.133.686 1.407 1.325.918 2.142-.697 6.299-2.123 9.259a89 89 0 0 0 2.493-1.283 1.2 1.2 0 0 1 1.161.01c.361.2.595.571.62.981l.342 5.405a39 39 0 0 0 3.406-4.195 1.211 1.211 0 0 1 2.155.319l1.382 4.365c1.934-1.78 3.62-4.162 3.641-4.192a1.26 1.26 0 0 1 1.022-.514c.405.011.779.224.995.568l2.084 3.322 2.974-5.946c.216-.434.625-.707 1.152-.669.483.027.902.338 1.07.792l2.713 7.378 5.296-3.341c.401-.256.91-.249 1.311.013 1.727 1.131 4.381 1.86 6.053 2.235l-.453-4.742a1.21 1.21 0 0 1 1.187-1.327l3.03-.046a27 27 0 0 1-1.626-1.813 1.2 1.2 0 0 1-.262-.823c-2.232-.095-5.343-.493-8.453-1.835l-1.851 2.854a1.2 1.2 0 0 1-1.016.552c-.238 0-.473-.071-.675-.205l-6.998-4.695-1.286 3.501a1.21 1.21 0 0 1-2.051.379c-1.202-1.379-3.09-3.493-4.214-4.652-1.011.975-2.786 2.548-4.684 3.602a1.21 1.21 0 0 1-1.724-.636l-1.918-5.149a1.213 1.213 0 0 1 2.272-.846l1.399 3.756c2.03-1.41 3.725-3.226 3.745-3.248a1.21 1.21 0 0 1 1.645-.123c.705.565 2.62 2.674 3.957 4.173l1.115-3.038c.128-.349.41-.62.764-.734.35-.121.74-.065 1.049.145l7.257 4.868 1.754-2.704a1.207 1.207 0 0 1 1.557-.424c3.221 1.611 6.7 2 8.919 2.059-1.355-2.532-1.474-5.74-1.482-6.494a27 27 0 0 1-6.286-3.853l-.872 2.155a1.21 1.21 0 0 1-1.834.525l-3.501-2.54-.341 2.624a1.213 1.213 0 0 1-1.831.879c-.121-.073-3.002-1.833-4.719-3.764a1.21 1.21 0 1 1 1.811-1.609c.726.816 1.742 1.626 2.589 2.24l.352-2.702a1.213 1.213 0 0 1 1.914-.825l3.897 2.827.932-2.302a1.21 1.21 0 0 1 1.954-.426c3.021 2.843 6.29 4.378 8.323 5.13-.694-3.234-.959-7.29-.972-7.503-.002-.03.011-.056.012-.086-1.888-1.041-4.558-2.836-6.865-5.655-.011 1.494-.133 3.013-.499 3.974-.126.331-.39.59-.723.71a1.24 1.24 0 0 1-1.008-.087c-.147-.084-2.783-1.598-4.745-3.808-.339 1.218-.746 2.502-1.089 3.075a1.213 1.213 0 0 1-1.581.461c-.115-.057-1.972-.997-3.627-2.434-.161 1.614-.41 3.436-.765 4.324a1.2 1.2 0 0 1-.715.691 1.24 1.24 0 0 1-.991-.077 40 40 0 0 1-4.177-2.675l-.532 2.021a1.214 1.214 0 0 1-1.674.795c-.147-.066-3.611-1.66-5.585-4.072a1.21 1.21 0 0 1 .17-1.704 1.21 1.21 0 0 1 1.704.17c.943 1.152 2.387 2.116 3.428 2.72l.621-2.362a1.213 1.213 0 0 1 1.985-.591c1.158 1.048 2.724 2.078 3.838 2.761.237-1.495.421-3.658.5-5.061a1.211 1.211 0 0 1 2.275-.51c.666 1.227 2.267 2.422 3.474 3.177.331-1.036.74-2.565 1.046-3.884.118-.506.544-.88 1.062-.931a1.19 1.19 0 0 1 1.223.707c.757 1.677 2.59 3.21 3.9 4.149.142-1.767.011-4.277-.152-5.848a1.21 1.21 0 0 1 .869-1.289 1.216 1.216 0 0 1 1.423.628c2.437 4.943 6.747 7.681 8.989 8.833 1.223-13.371-2.698-18.487-2.739-18.539a1.218 1.218 0 0 1 .335-1.811c2.176-1.26 3.497-3.561 4.307-5.793-4.926 4.776-12.731 6.611-16.533 7.245l1.857 2.262c.282.346.353.819.183 1.232a1.21 1.21 0 0 1-1 .742c-4.659.465-8.058-.152-10.347-.923l.792 1.462c.208.383.194.85-.038 1.219-.23.371-.653.62-1.079.568-3.796-.163-7.116-1.726-9.846-3.108-.129.891-.569 1.759-1.301 2.474-.896.874-2.037 1.327-3.166 1.327-.8 0-1.595-.227-2.292-.692-1.369-.913-2.062-2.537-1.808-4.236.235-1.56 1.22-2.78 2.57-3.184 1.806-.536 3.868.508 6.476 1.836 2.07 1.055 4.539 2.311 7.23 2.874l-1.5-2.77a1.21 1.21 0 0 1 .308-1.524 1.22 1.22 0 0 1 1.554.033c.027.024 3.042 2.5 9.887 2.373l-1.726-2.105a1.213 1.213 0 0 1 .826-1.975c.13-.012 10.074-1.021 16.191-5.949-1.992.583-3.534.491-3.653.49a1.22 1.22 0 0 1-.855-.454c-2.803-3.521-5.67-4.61-7.116-4.947-.813 2.559-2.778 4.63-2.874 4.729-.26.27-.631.402-1 .366a1.22 1.22 0 0 1-.904-.566c-2.161-3.483-5.277-4.4-7.088-4.627.222 2.575-1.578 4.69-2.775 5.57a1.22 1.22 0 0 1-1.526-.072c-5.2-4.648-9.214-3.272-10.839-2.344.513 1.275.271 2.316-.076 3.02-2.483 5.031-17.842 6.042-20.896 6.193a1.2 1.2 0 0 1-1.002-.448 1.21 1.21 0 0 1-.229-1.074c.224-.838.074-1.742-.42-2.549-.505-.825-1.314-1.426-2.163-1.607-.798-.169-2.322-.06-3.232.939-1.041 1.145-1.112 3.262-.205 6.126 1.626 5.138 6.635 10.201 9.754 12.975a14 14 0 0 1-.003-1.227c.027-.518.379-.961.877-1.103.5-.147 1.03.046 1.327.472a12 12 0 0 0 3.191 3.102l.607-3.876a1.216 1.216 0 0 1 1.055-1.016c.536-.046 1.055.24 1.262.743 1.098 2.666 8.047 11.015 10.633 14.006.331.382.39.929.147 1.372-.243.442-.734.68-1.235.618-4.428-.631-10.934.842-10.999.857a1.21 1.21 0 0 1-1.216-1.938l.896-1.115c-6.148-.639-12.135-2.256-14.555-2.963l-2.034 5.525 5.479-.547c.413-.052.838.139 1.09.481.256.341.312.789.151 1.183l-1.033 2.526 4.513-1.194a1.2 1.2 0 0 1 1.437.726c.598 1.514 1.331 2.51 1.917 3.127l1.271-2.811c.2-.439.637-.745 1.122-.712.481.002.913.293 1.099.738m-15.69 61.957c4.779 3.191 8.641-.45 10.705-3.253-4.403-3.212-7.607-7.163-9.499-11.868-.619-1.538-1.021-3.092-1.335-4.643-.449-.353-7.098-5.619-12.666-11.773a7 7 0 0 1-.961 1.73c.391 1.59.011 2.89-.48 3.723.338 1.134.066 2.259-.326 3.081.842 1.271.995 2.516.456 3.712-.124.274-.29.526-.463.774.692.836 1.782 2.75 1.782 6.602 0 2.59.959 4.144 1.675 4.943.418-.361.875-.565 1.379-.618 1.529-.17 2.784 1.137 4.501 2.941 1.342 1.412 3.014 3.171 5.232 4.649m-23.769-32.846-.27-.001a26.6 26.6 0 0 1-4.803-.472c-.141.405.159 1.58.474 1.823.309.237.516.629.505 1.019-.011.388-.178.77-.5.989-.207.145-.822.694-.83 1.23-.008.522.609 1.063.978 1.341a1.21 1.21 0 0 1 .184 1.766c-.156.185-.601.858-.524 1.424.016.12.066.486.697.915a1.21 1.21 0 0 1 .287 1.729c.002 0-.339.497-.208.991.145.547.827.969 1.371 1.224 1.02.48 2.488.788 4.017.849.046-.008.094-.001.142-.003 1.289.037 2.613-.088 3.745-.505 1.109-.409 1.846-1.002 2.188-1.762.107-.237.33-.73-.623-1.843a1.215 1.215 0 0 1-.043-1.526c.002-.003.809-1.114.311-2a1.21 1.21 0 0 1 .199-1.451c.071-.079.823-.964.227-2.554a1.21 1.21 0 0 1 .305-1.308c.043-.044 1.14-1.184 1.115-2.919a44 44 0 0 1-.442-.544c-2.343.995-5.218 1.588-8.502 1.588m11.082-84.453c-4.9 2.635-15.348 10.896-15.649 33.514l.27 38.113c.033.053.079.109.106.16.633 1.193.333 2.739-.022 3.81 3.027 1.082 6.802.637 8.419.237-.323-.944-.578-2.47.517-4.199-.171-45.453 4.164-64.788 6.359-71.635" style="fill:#ffd250"/><path d="M264.604 255.765c0-1.937-1.461-3.445-2.906-3.934-.3-.103-1.319-.387-1.786.227-.875 1.145-.565 1.955-.267 2.739.167.435.339.885.21 1.399-.164.656-.762.926-.959 1.016-1.644.746-7.894 1.724-12.213-.505a1.215 1.215 0 0 1-.532-1.612c.456-.934.787-2.305.533-2.781-.02-.039-.077-.148-.418-.194a7 7 0 0 0-.961-.066c-1.475 0-2.843.464-3.583 1.256-.595.637-.781 1.448-.568 2.478.718 3.468 5.059 5.572 11.614 5.632 4.636-.016 8.625-1.111 10.615-3.084.811-.804 1.221-1.668 1.221-2.571m-10.429 28.747a1.2 1.2 0 0 1 1.199-.453c.842.177 2.936.62 4.138-.311.42-.322.514-1.201.193-1.773-.11-.197-.446-.792-1.708-.309-1.194.461-2.909.959-3.987-.009a1.9 1.9 0 0 1-.455-.653c-.324-.028-.646-.045-.964-.093a1.86 1.86 0 0 1-.489.746c-1.073.967-2.789.47-3.985.009-1.257-.478-1.6.112-1.708.309-.322.573-.229 1.451.189 1.772 1.204.928 3.299.489 3.986.344.446-.09.994.065 1.279.431.284.369.404.852.196 1.267-.273.546-1.459 2.865-2.619 4.313 1.514 2.215 2.827 6.164-.246 9.675-.251.284-.64.426-1.002.41a1.21 1.21 0 0 1-.929-.554c-.175-.265-.79-1-1.47-1.133-.205-.04-.53-.055-.999.265-.317.219-.495.945-.227 1.738.478 1.42 1.964 2.209 4.061 2.111.476-.047.992.281 1.185.762.191.481.055 1.03-.338 1.368l-1.975 1.694 3.225.786c.428.104.765.432.882.857.005.02.488 1.738 1.451 3.188.962-1.45 1.445-3.168 1.45-3.188.117-.424.454-.753.882-.857l3.225-.786-1.977-1.694a1.21 1.21 0 0 1-.338-1.368c.191-.481.672-.805 1.185-.762 2.071.091 3.583-.691 4.062-2.112.268-.792.09-1.518-.227-1.737-.477-.323-.805-.308-1.007-.263-.702.142-1.333.929-1.464 1.131-.205.32-.551.525-.929.554a1.22 1.22 0 0 1-1.002-.41c-3.072-3.512-1.759-7.46-.245-9.675-1.16-1.448-2.346-3.767-2.619-4.313a1.21 1.21 0 0 1 .121-1.277" style="fill:#ffd250"/><path d="M424.677 205.602c-.647-1.008-1.937-2.242-4.409-2.403-1.718-.123-3.095.339-4.097 1.341-.806.803-1.194 1.798-1.379 2.639-1.653-.869-4.297-2.807-7.059-4.831-8.041-5.894-20.193-14.799-32.119-16.307-9.674-1.229-20.676.701-26.727 6.314.09-.742.118-1.239.122-1.324.001-.016-.012-.028-.012-.044a1.2 1.2 0 0 0-.176-.627c-.024-.041-.052-.071-.081-.109a1.2 1.2 0 0 0-.524-.407c-.004-.001-.006-.007-.01-.008h-.006a1.2 1.2 0 0 0-.678-.015c-.042.01-.079.016-.12.031a1.2 1.2 0 0 0-.54.377c-.009.012-.026.013-.036.025a9.44 9.44 0 0 1-7.233 3.86c-4.537-5.387-9.331-5.555-9.538-5.559-.694.046-1.136.431-1.226 1.033-.189 1.279-.934 2.546-1.563 3.425-3.998-4.971-9.626-4.472-9.877-4.452a1.21 1.21 0 0 0-.983 1.707c.721 1.587-.153 2.969-.85 3.737-7.87-6.307-13.927-1.169-13.99-1.112a1.21 1.21 0 0 0-.199 1.6c.587.85.483 1.32.327 1.637-1.273 2.581-10.511 4.264-17.43 4.758a5.84 5.84 0 0 0-.876-2.83c-.858-1.401-2.215-2.388-3.721-2.712-1.675-.365-4.032.02-5.534 1.678-1.679 1.846-1.92 4.701-.721 8.487 1.873 5.916 7.496 11.481 10.776 14.346a27 27 0 0 1-2.358-.987c-1.931-.94-5.163-2.513-7.552-1.271-1.205.623-1.977 2.183-1.836 3.709.071.764.498 2.48 2.733 3.576l-2.689 7.306c-.144.391-.076.83.18 1.16.254.33.661.51 1.077.464l5.402-.54-1.191 2.914c-.174.426-.092.913.211 1.259.303.344.765.497 1.221.371l5.864-1.552c1.514 3.111 3.535 4.2 3.63 4.248a1.214 1.214 0 0 0 1.666-.573l.934-2.068a13 13 0 0 0 2.663 2.751c-.395.326-.782.646-1.21.994-4.072 3.313-9.647 7.852-13.654 15.61-2.013 3.896-3.58 9.839-3.113 16.161-2.918-2.454-8.422-7.32-12.473-12.3.488-.333 1.007-.647 1.398-1.035 1.267-1.254 1.936-2.739 1.936-4.289 0-3.221-2.36-5.488-4.551-6.23a4.7 4.7 0 0 0-2.315-.195c-.071-52.808 5.944-68.974 7.165-71.697a1.21 1.21 0 0 0-.192-1.292 1.21 1.21 0 0 0-1.254-.366c-.793.234-19.44 6.058-19.852 36.912l.26 36.811c-2.531-.267-4.934.453-6.334 1.947-.795.85-1.642 2.343-1.171 4.625.627 3.029 3.07 5.265 6.821 6.493a3.9 3.9 0 0 0-.088 1.351 5.4 5.4 0 0 0 .585 1.959c-.458.546-.907 1.325-.931 2.286-.022.926.347 1.795 1.098 2.592-.297.598-.555 1.407-.442 2.303.069.533.293 1.242.926 1.926a3.5 3.5 0 0 0-.098 1.98c.194.785.683 1.46 1.407 2.037-1.855-.344-3.159.493-3.769 1.582-.916 1.634-.546 3.824.827 4.879 1.118.86 2.448 1.134 3.66 1.071-.617 1.044-1.268 2.01-1.678 2.33a1.21 1.21 0 0 0-.155 1.77c.126.139 2.769 3.117 1.196 6.211-.486-.399-1.115-.773-1.865-.924-.973-.197-1.958.027-2.854.642-1.279.877-1.754 2.731-1.155 4.509.459 1.361 1.604 2.758 3.559 3.401l-1.701 1.458a1.211 1.211 0 0 0 .501 2.096l4.86 1.185c.372 1.068 1.224 3.13 2.647 4.553.227.227.659.355.981.355s.629-.128.857-.355c1.423-1.423 2.275-3.485 2.647-4.553l4.86-1.185a1.213 1.213 0 0 0 .501-2.096l-1.701-1.458c1.953-.645 3.1-2.04 3.559-3.401.599-1.778.125-3.633-1.155-4.509-.898-.617-1.888-.838-2.855-.642-.748.151-1.376.524-1.863.923-1.548-3.076 1.073-6.072 1.199-6.212a1.217 1.217 0 0 0-.157-1.767c-.409-.319-1.059-1.283-1.675-2.325 1.21.011 2.534-.21 3.655-1.076.246-.189.42-.448.6-.7.086 5.317 3.456 7.422 3.602 7.511a1.21 1.21 0 0 0 1.656-.409c.285-.465.456-.555.453-.56.426.024 1.622 1.283 2.496 2.201 1.426 1.5 3.202 3.368 5.645 4.996 1.791 1.194 3.482 1.664 5.037 1.664 4.362 0 7.629-3.681 9.023-5.573 2.717 1.705 5.797 3.184 9.308 4.383.12.041.242.057.362.06.419 1.36.877 2.729 1.349 4.086 1.516 4.349 3.082 8.847 2.467 12.262-.797 4.427-7.798 4.471-11.398 3.865-2.56-.417-4.936.238-6.679 1.863-1.743 1.628-2.641 4.089-2.398 6.585.169 1.743 1.043 2.564 1.746 2.944 1.617.869 3.803.219 4.991-.267 2.728 2.376 5.992 1.379 7.965.123 1.215 1.014 2.568 1.546 4.034 1.579q.072.002.145.002c2.215 0 4.078-1.166 5.01-1.879 4.693 1.899 7.377.483 7.845.193 3.81-3.214 3.184-8.99 2.687-11.502 7.829-2.371 10.354-9.175 10.462-9.478a1.22 1.22 0 0 0-.249-1.23 1.23 1.23 0 0 0-1.207-.349c-2.414.648-4.321.207-5.228-1.215-1.229-1.923-.432-5.069 2.03-8.011a24 24 0 0 0 1.484-2.013c6.05-1.352 11.219-3.706 16.69-6.201 4.529-2.065 9.213-4.201 14.78-5.946 1.561-.49 3.078-.778 4.572-.971-.453 6.564 2.914 10.888 6.221 15.049.913 1.148 1.827 2.295 2.653 3.493 3.546 5.135 2.865 15.9 2.578 16.872-.253.552-2.628 2.972-5.996 2.51-2.798-.372-5.932.549-7.986 2.347-1.466 1.283-2.272 2.931-2.272 4.641 0 1.458.7 2.182 1.289 2.532 1.754 1.043 4.659-.073 6.214-.817 1.454 1.123 2.947 1.538 4.327 1.538 1.716 0 3.259-.639 4.341-1.349 3.248 2.052 6.651.85 8.547-.443 2.376 1.289 4.286 1.035 5.517.549.4-.157.766-.356 1.098-.579.049.051.094.119.144.162 1.289 1.109 3.674.519 5.201-.035.694 1.15 1.614 1.667 2.34 1.899 2.243.715 4.819-.514 6.116-1.283 1.573 1.216 3.136 1.727 4.696 1.508 1.377-.191 2.415-.931 3.084-1.579a11.5 11.5 0 0 0 3.261 1.607 5.7 5.7 0 0 0 1.712.289c1.688 0 2.57-.962 2.915-1.466 1.401-2.046.67-5.51-.893-7.465-.923-1.153-1.69-3.311-1.32-5.531.197-1.183.814-2.836 2.639-3.997 3.291-2.094 5.451-4.928 5.501-7.219.022-.947-.338-1.727-1.014-2.201-.596-.418-1.265-.506-1.914-.592-1.442-.191-3.237-.428-5.523-4.647-2.037-3.761.375-11.048 2.931-18.764 1.461-4.416 2.974-8.981 3.92-13.528 2.344-11.254-3.307-20.32-5.353-23.144 5.69-5.597 8.076-10.969 7.093-15.974-1.082-5.517-6.225-9.297-10.3-10.857-4.925-1.887-13.179-.905-21.16.051-6.224.745-12.108 1.451-15.642.702-1.336-.279-2.286-.86-2.822-1.726-.934-1.507-.434-3.488-.429-3.508.098-.371.013-.77-.227-1.068s-.639-.489-.992-.453c-2.322.093-4.171 1.387-5.315 2.455a3 3 0 0 1-.03-1.005c.314-2.328 2.996-4.364 3.023-4.384a1.214 1.214 0 0 0-.096-2.005c-4.935-3.005-9.543-.779-11.901 1.311-.997-.977-1.598-2.469-1.551-3.972.03-.988.379-2.802 2.352-3.851.893-.475 1.66-.579 2.355-.323 1.164.434 1.937 1.865 2.138 2.381a1.217 1.217 0 0 0 1.741.612c2.701-1.576 3.565-4.886 3.84-6.722 1.589.259 2.8.932 3.681 2.043 2.469 3.114 1.459 8.599 1.45 8.654-.079.41.06.831.364 1.115s.735.39 1.139.284c5.484-1.469 7.238-5.922 7.509-9.213 4.193 2.611 3.908 8.011 3.892 8.265a1.214 1.214 0 0 0 1.664 1.204c2.007-.814 3.117-2.138 3.733-3.36 3.816 5.006 9.123 6.742 9.377 6.824a1.212 1.212 0 0 0 1.488-1.617l-1.185-2.871a84 84 0 0 1 2.847 2.13c2.53 1.947 5.145 3.96 8.918 5.733 4.242 1.992 7.265 1.546 9.06.827 1.79-.724 3.209-2.074 3.796-3.613.69-1.795.948-4.447-.374-6.506m-1.885 5.645c-.257.677-1.051 1.666-2.439 2.226-1.339.543-3.668.852-7.12-.771-3.535-1.661-6.045-3.592-8.471-5.46-2.011-1.549-3.912-3.012-6.312-4.304a1.212 1.212 0 0 0-1.695 1.528l1.442 3.494c-2.093-1.194-4.955-3.329-6.831-6.758a1.212 1.212 0 0 0-2.275.581c0 .022-.021 1.708-1.398 3.023-.417-3.228-2.186-7.564-7.05-9.281a1.2 1.2 0 0 0-1.161.196 1.22 1.22 0 0 0-.447 1.09c.03.252.611 5.652-3.972 7.992.123-2.264-.073-5.921-2.153-8.554-1.522-1.925-3.75-2.961-6.62-3.079-.311-.035-.641.104-.877.325a1.2 1.2 0 0 0-.385.854c0 .038-.139 3.286-1.789 5.168-.571-.854-1.478-1.86-2.772-2.347-1.36-.513-2.825-.363-4.354.448-2.231 1.185-3.557 3.341-3.639 5.914-.085 2.724 1.264 5.349 3.439 6.687a1.225 1.225 0 0 0 1.541-.229c.159-.18 3.616-3.96 8.126-2.376-1.032 1.082-2.291 2.759-2.557 4.709-.208 1.508.191 2.922 1.182 4.203.232.301.503.45.981.469a1.21 1.21 0 0 0 .962-.506c.016-.022 1.331-1.827 3.28-2.559-.008 1.032.174 2.354.913 3.561.898 1.464 2.377 2.422 4.398 2.846 3.922.819 9.999.095 16.427-.669 7.694-.915 15.646-1.865 20.005-.194 3.497 1.339 7.899 4.517 8.79 9.061.857 4.359-1.556 9.238-7.165 14.501a1.21 1.21 0 0 0-.099 1.663c.081.096 8.072 9.787 5.529 21.993-.918 4.412-2.407 8.912-3.849 13.261-2.841 8.585-5.296 15.998-2.759 20.68 2.873 5.305 5.667 5.674 7.336 5.895.325.043.73.096.8.129.24.489-.615 3.054-4.356 5.435-2.041 1.3-3.332 3.251-3.729 5.645-.432 2.6.281 5.521 1.817 7.443 1.172 1.464 1.388 3.702.787 4.58-.118.17-.476.683-1.899.238-2.169-.686-3.229-1.805-3.232-1.809a1.26 1.26 0 0 0-1.01-.396c-.38.035-.721.246-.921.569-.01.014-.854 1.324-2.245 1.518-1.04.14-2.196-.363-3.447-1.505a1.21 1.21 0 0 0-1.522-.091c-.753.535-3.248 1.939-4.774 1.462-.219-.071-.888-.286-1.317-1.543a1.214 1.214 0 0 0-1.65-.708c-1.472.669-3.319 1.089-3.676.928 0 0-.058-.183.093-.701.838-2.888 4.248-3.581 6.506-4.038.415-.084.79-.161 1.104-.24.249-.061.535-.118.839-.178 2.223-.442 6.847-1.361 6.266-7.176-.123-1.223-.088-2.351-.057-3.442.106-3.581.205-6.963-5.422-11.015-2.076-1.496-4.076-2.838-6-4.128-4.378-2.939-8.159-5.476-11.622-8.939-7.148-7.151-15.662-9.246-25.315-6.224-5.711 1.789-10.464 3.957-15.059 6.053-4.622 2.109-9.054 4.075-13.909 5.418 3.832-7.284 5.931-16.942 5.499-21.599a1.22 1.22 0 0 0-1.319-1.095 1.214 1.214 0 0 0-1.095 1.319c.495 5.316-2.805 18.371-8.203 24.821-3.155 3.77-4.024 8.038-2.215 10.871 1.123 1.756 3.03 2.597 5.43 2.62-1.313 2.067-4.028 5.184-8.885 6.298a1.22 1.22 0 0 0-.775.57 1.2 1.2 0 0 0-.117.953c.021.071 2.024 7.086-1.443 10.043-.087.051-2.183 1.112-6.179-.716a1.215 1.215 0 0 0-1.347.233c-.02.016-1.983 1.857-4.051 1.731-1.131-.025-2.147-.535-3.106-1.557a1.214 1.214 0 0 0-1.668-.095c-.143.125-3.573 2.97-6.119.118a1.21 1.21 0 0 0-1.467-.267c-.972.508-2.769 1.07-3.532.656-.101-.055-.409-.221-.489-1.046-.169-1.751.445-3.463 1.642-4.58 1.18-1.101 2.822-1.546 4.627-1.243 6.35 1.06 13.19-.333 14.181-5.827.727-4.042-.947-8.844-2.564-13.49-1.218-3.494-2.477-7.108-2.534-10.036-.114-5.982 1.167-11.63 1.18-11.686a1.21 1.21 0 0 0-.909-1.451 1.2 1.2 0 0 0-1.451.907c-.057.241-1.363 5.985-1.243 12.278.024 1.238.26 2.556.568 3.898-9.194-3.397-15.332-8.685-18.183-15.772-3.341-8.307-1.447-17.217 1.191-22.326 3.777-7.309 8.908-11.485 13.032-14.842 1.938-1.577 3.673-2.996 4.913-4.481-.13 2.015-1.845 6.066-3.714 9.311a1.21 1.21 0 0 0 1.41 1.76c1.041-.325 2.922-1.242 4.302-1.945l.388 6.116c.028.453.309.852.726 1.033.418.183.902.115 1.251-.175 1.633-1.339 3.176-3.127 4.242-4.475l1.205 3.805a1.212 1.212 0 0 0 1.844.629c1.726-1.194 3.412-3.108 4.465-4.422l2.3 3.666c.234.372.65.612 1.085.566.437-.02.83-.276 1.025-.669l2.683-5.368 2.264 6.154a1.212 1.212 0 0 0 1.785.608l5.932-3.742c3.135 1.742 7.669 2.467 7.874 2.5a1.212 1.212 0 0 0 1.395-1.313l-.483-5.055 5.252-.081a1.212 1.212 0 0 0 .293-2.382c-.573-.153-1.888-1.381-3.009-2.64.142-.01.207-.016.275-.022 3.02.23 54.288 4.004 65.53-4.174 6.252-4.546 5.815-8.68 4.998-10.738-1.686-4.252-7.822-6.963-13.941-6.184-2.433.311-5.048.778-7.76 1.264-7.673 1.374-16.37 2.933-23.501 1.185-2.781-.682-5.165-1.584-7.269-2.379-3.561-1.349-6.135-2.324-8.107-1.145-.817.489-1.41 1.286-1.806 2.452-1.265-1.412-2.669-3.99-.816-7.481a1.21 1.21 0 0 0-.191-1.402c-.071-.076-7.101-7.61-3.793-15.88 2.971-7.427 14.663-11.619 27.801-9.95 11.303 1.429 23.151 10.112 30.99 15.858 4.935 3.616 7.593 5.514 9.391 5.749a1.22 1.22 0 0 0 1.367-1.273c-.002-.016-.076-1.634.833-2.532.495-.491 1.219-.707 2.22-.631 1.175.077 2.026.513 2.529 1.295.784 1.216.642 3.054.154 4.334m-38.088 117.145c-1.175.404-2.493.134-3.933-.811a1.22 1.22 0 0 0-1.458.098c-.147.126-3.608 3.051-6.927.375a1.22 1.22 0 0 0-1.554.028c-.36.309-3.616 2.933-6.859-.104a1.21 1.21 0 0 0-1.404-.181c-1.649.891-3.952 1.619-4.569 1.246-.101-.06-.106-.385-.106-.45 0-1.284.786-2.242 1.444-2.818 1.53-1.338 3.96-2.048 6.07-1.77 4.589.614 7.935-2.535 8.542-3.955.536-1.253 1.421-13.078-2.81-19.204-.858-1.243-1.803-2.434-2.751-3.625-3.217-4.047-6.23-7.892-5.686-13.741 5.879-.123 11.204 2.125 15.872 6.795 2.443 2.443 5.092 4.466 7.865 6.413-1.075 1.104-2.809 3.191-2.94 5.314a3.7 3.7 0 0 0 .954 2.766c1.757 1.951 3.769 1.86 5.099 1.795.229-.013.536-.03.76-.014-.339.822-1.595 2.538-2.464 3.723-2.403 3.278-3.958 5.559-3.693 7.326.181 1.205.655 3.023 1.114 4.78.437 1.675 1.096 4.207 1.066 4.698-.061.187-.605.959-1.632 1.316m5.102-16.688c2.328-3.177 3.512-4.898 2.827-6.268-.702-1.407-2.139-1.346-3.19-1.292-1.128.054-2.198.101-3.185-.997-.257-.286-.361-.592-.338-.992.084-1.384 1.646-3.181 2.545-4.062.695.472 1.387.943 2.097 1.419 1.903 1.276 3.881 2.604 5.933 4.083 4.583 3.3 4.517 5.559 4.417 8.978-.033 1.114-.071 2.376.068 3.755.336 3.365-1.582 4.012-4.327 4.557-.347.069-.671.134-.956.205s-.623.139-.999.216c-1.751.355-4.549.953-6.494 2.767-.16-.656-.356-1.417-.588-2.305-.442-1.697-.899-3.452-1.062-4.529-.136-.911 2.068-3.918 3.252-5.535m-122.754-22.605a2.5 2.5 0 0 0-1.379.618c-.716-.798-1.675-2.352-1.675-4.943 0-3.852-1.09-5.767-1.782-6.602.173-.248.34-.5.463-.774.539-1.196.386-2.441-.456-3.712.393-.822.664-1.947.326-3.081.491-.833.871-2.133.48-3.723.303-.398.677-.988.961-1.73 5.568 6.155 12.216 11.42 12.666 11.773.314 1.552.717 3.106 1.335 4.643 1.892 4.705 5.097 8.656 9.499 11.868-2.064 2.803-5.926 6.444-10.705 3.253-2.218-1.478-3.89-3.237-5.233-4.651-1.715-1.801-2.971-3.109-4.5-2.939m-10.135 10.677a1.214 1.214 0 0 0 1.931-.144c.131-.202.762-.989 1.464-1.131.202-.044.53-.06 1.007.263.317.219.495.945.227 1.737-.48 1.421-1.991 2.204-4.062 2.112-.513-.043-.994.281-1.185.762s-.055 1.032.338 1.368l1.977 1.694-3.225.786a1.21 1.21 0 0 0-.882.857c-.005.02-.488 1.738-1.45 3.188-.964-1.45-1.447-3.168-1.451-3.188a1.21 1.21 0 0 0-.882-.857l-3.225-.786 1.975-1.694c.393-.338.529-.887.338-1.368-.192-.481-.708-.809-1.185-.762-2.097.098-3.583-.691-4.061-2.111-.268-.793-.09-1.519.227-1.738.469-.32.794-.305.999-.265.68.132 1.295.868 1.47 1.133.205.32.551.525.929.554.361.016.751-.126 1.002-.41 3.073-3.512 1.761-7.46.246-9.675 1.16-1.448 2.346-3.767 2.619-4.313.208-.415.088-.898-.196-1.267-.286-.366-.833-.521-1.279-.431-.688.145-2.783.584-3.986-.344-.418-.32-.511-1.199-.189-1.772.109-.197.451-.787 1.708-.309 1.196.461 2.912.958 3.985-.009.244-.219.387-.479.489-.746.318.048.641.065.964.093.104.233.24.459.455.653 1.077.969 2.792.47 3.987.009 1.262-.483 1.598.112 1.708.309.322.573.227 1.451-.193 1.773-1.202.931-3.296.487-4.138.311a1.2 1.2 0 0 0-1.199.453 1.21 1.21 0 0 0-.122 1.276c.273.546 1.459 2.865 2.619 4.313-1.513 2.216-2.826 6.164.246 9.676m3.929-34.056c-.357.334-.477.85-.305 1.308.596 1.59-.156 2.475-.227 2.554a1.21 1.21 0 0 0-.199 1.451c.499.887-.309 1.997-.311 2-.347.456-.33 1.09.043 1.526.953 1.112.73 1.606.623 1.843-.342.76-1.079 1.354-2.188 1.762-1.132.417-2.456.543-3.745.505-.048.002-.095-.005-.142.003-1.529-.061-2.997-.369-4.017-.849-.544-.256-1.226-.677-1.371-1.224-.131-.494.21-.991.208-.991a1.213 1.213 0 0 0-.287-1.729c-.631-.429-.682-.795-.697-.915-.077-.566.368-1.24.524-1.424a1.21 1.21 0 0 0-.184-1.766c-.369-.278-.986-.819-.978-1.341.008-.536.623-1.085.83-1.23.322-.219.489-.601.5-.989.011-.39-.196-.782-.505-1.019-.315-.242-.614-1.418-.474-1.823a26.6 26.6 0 0 0 4.803.472l.27.001c3.284 0 6.159-.593 8.503-1.587q.218.273.442.544c.024 1.734-1.072 2.874-1.116 2.918m-8.077-4.301c-6.555-.06-10.896-2.164-11.614-5.632-.213-1.03-.027-1.841.568-2.478.74-.792 2.108-1.256 3.583-1.256q.477 0 .961.066c.341.046.398.155.418.194.254.477-.077 1.847-.533 2.781a1.214 1.214 0 0 0 .532 1.612c4.319 2.229 10.57 1.251 12.213.505.197-.09.795-.36.959-1.016.129-.514-.043-.964-.21-1.399-.298-.784-.609-1.593.267-2.739.467-.614 1.486-.33 1.786-.227 1.445.489 2.906 1.997 2.906 3.934 0 .902-.41 1.767-1.219 2.57-1.992 1.975-5.98 3.07-10.617 3.085m4.454-6.195c-1.617.401-5.392.846-8.419-.237.355-1.071.655-2.617.022-3.81-.027-.051-.073-.107-.106-.16l-.27-38.113c.301-22.617 10.75-30.879 15.649-33.514-2.196 6.847-6.53 26.182-6.36 71.634-1.095 1.73-.839 3.256-.516 4.2m33.032-20.522-1.271 2.811c-.585-.617-1.319-1.612-1.917-3.127a1.2 1.2 0 0 0-1.437-.726l-4.513 1.194 1.033-2.526a1.21 1.21 0 0 0-.151-1.183 1.19 1.19 0 0 0-1.09-.481l-5.479.547 2.034-5.525c2.42.707 8.407 2.324 14.555 2.963l-.896 1.115a1.21 1.21 0 0 0 1.216 1.938c.065-.014 6.57-1.488 10.999-.857a1.23 1.23 0 0 0 1.235-.618 1.21 1.21 0 0 0-.147-1.372c-2.586-2.991-9.535-11.34-10.633-14.006-.207-.503-.726-.789-1.262-.743-.54.065-.97.48-1.055 1.016l-.609 3.878a12 12 0 0 1-3.191-3.102 1.2 1.2 0 0 0-1.327-.472 1.21 1.21 0 0 0-.877 1.103c-.006.118-.025.588.003 1.227-3.119-2.775-8.128-7.837-9.754-12.975-.907-2.863-.836-4.98.205-6.126.91-.999 2.434-1.107 3.232-.939.849.181 1.658.782 2.163 1.607.494.808.644 1.712.42 2.549-.099.374-.016.773.229 1.074.243.301.623.475 1.002.448 3.054-.152 18.413-1.163 20.896-6.193.347-.704.588-1.745.076-3.02 1.625-.928 5.64-2.303 10.839 2.344.424.38 1.06.41 1.526.072 1.197-.88 2.997-2.996 2.775-5.57 1.811.227 4.927 1.144 7.088 4.627a1.214 1.214 0 0 0 1.904.2c.096-.099 2.062-2.171 2.874-4.729 1.447.338 4.313 1.426 7.116 4.947.21.264.519.428.855.454.118.002 1.661.094 3.653-.49-6.118 4.929-16.061 5.937-16.191 5.949a1.213 1.213 0 0 0-.826 1.975l1.726 2.105c-6.845.128-9.86-2.349-9.887-2.373a1.22 1.22 0 0 0-1.554-.033 1.214 1.214 0 0 0-.308 1.524l1.5 2.77c-2.691-.563-5.16-1.819-7.23-2.874-2.608-1.328-4.669-2.373-6.476-1.836-1.35.404-2.335 1.623-2.57 3.184-.254 1.699.439 3.322 1.808 4.236a4.1 4.1 0 0 0 2.292.692c1.129 0 2.27-.453 3.166-1.327.732-.715 1.172-1.582 1.301-2.474 2.729 1.382 6.05 2.945 9.846 3.108.426.052.849-.197 1.079-.568.232-.369.246-.836.038-1.219l-.792-1.462c2.289.771 5.689 1.388 10.347.923a1.21 1.21 0 0 0 .817-1.974l-1.857-2.262c3.802-.634 11.608-2.469 16.533-7.245-.81 2.233-2.131 4.533-4.307 5.793a1.22 1.22 0 0 0-.581.827c-.065.347.027.708.246.984.041.052 3.961 5.168 2.739 18.539-2.242-1.152-6.552-3.89-8.989-8.833a1.216 1.216 0 0 0-1.423-.628 1.21 1.21 0 0 0-.869 1.289c.163 1.571.293 4.081.152 5.848-1.309-.939-3.143-2.472-3.9-4.149a1.19 1.19 0 0 0-1.223-.707 1.21 1.21 0 0 0-1.062.931 55 55 0 0 1-1.046 3.884c-1.207-.756-2.808-1.95-3.474-3.177a1.212 1.212 0 0 0-2.275.51c-.079 1.402-.263 3.565-.5 5.061-1.114-.683-2.68-1.713-3.838-2.761a1.2 1.2 0 0 0-1.158-.263c-.405.12-.718.443-.827.854l-.621 2.362c-1.041-.604-2.485-1.568-3.428-2.72a1.21 1.21 0 0 0-1.704-.17 1.21 1.21 0 0 0-.17 1.704c1.974 2.412 5.438 4.005 5.585 4.072a1.214 1.214 0 0 0 1.674-.795l.532-2.021a40 40 0 0 0 4.177 2.675 1.21 1.21 0 0 0 1.706-.614c.355-.888.604-2.71.765-4.324 1.655 1.437 3.512 2.377 3.627 2.434a1.213 1.213 0 0 0 1.581-.461c.342-.573.749-1.857 1.089-3.075 1.962 2.21 4.598 3.725 4.745 3.808.304.172.674.202 1.008.087.333-.12.596-.379.723-.71.366-.961.487-2.48.499-3.974 2.307 2.819 4.977 4.614 6.865 5.655 0 .03-.014.056-.012.086.013.213.278 4.269.972 7.503-2.033-.753-5.302-2.287-8.323-5.13a1.212 1.212 0 0 0-1.954.426l-.932 2.302-3.897-2.827a1.213 1.213 0 0 0-1.914.825l-.352 2.702c-.847-.614-1.863-1.425-2.589-2.24a1.21 1.21 0 1 0-1.811 1.609c1.716 1.931 4.597 3.691 4.719 3.764.352.216.786.234 1.153.057.371-.177.625-.529.678-.936l.341-2.624 3.501 2.54a1.21 1.21 0 0 0 1.834-.525l.872-2.155a27 27 0 0 0 6.286 3.853c.009.754.128 3.963 1.482 6.494-2.22-.058-5.698-.448-8.919-2.059a1.21 1.21 0 0 0-1.557.424l-1.754 2.704-7.257-4.868a1.18 1.18 0 0 0-1.049-.145 1.21 1.21 0 0 0-.764.734l-1.115 3.038c-1.336-1.499-3.251-3.608-3.957-4.173a1.21 1.21 0 0 0-1.645.123c-.021.022-1.715 1.838-3.745 3.248l-1.399-3.756a1.211 1.211 0 1 0-2.272.846l1.918 5.149a1.215 1.215 0 0 0 1.724.636c1.898-1.054 3.673-2.627 4.684-3.602 1.123 1.16 3.012 3.273 4.214 4.652a1.2 1.2 0 0 0 1.133.394 1.21 1.21 0 0 0 .918-.773l1.286-3.501 6.998 4.695a1.22 1.22 0 0 0 .918.18c.319-.065.596-.254.773-.527l1.851-2.854c3.11 1.342 6.222 1.741 8.453 1.835a1.2 1.2 0 0 0 .262.823c.295.361.898 1.074 1.626 1.813l-3.03.046a1.2 1.2 0 0 0-.883.404 1.2 1.2 0 0 0-.304.923l.453 4.742c-1.672-.376-4.326-1.104-6.053-2.235a1.2 1.2 0 0 0-1.311-.013l-5.296 3.341-2.713-7.378a1.21 1.21 0 0 0-1.07-.792c-.527-.038-.935.235-1.152.669l-2.974 5.946-2.084-3.322a1.22 1.22 0 0 0-.995-.568 1.26 1.26 0 0 0-1.022.514c-.021.03-1.707 2.412-3.641 4.192l-1.382-4.365a1.211 1.211 0 0 0-2.155-.319 39 39 0 0 1-3.406 4.195l-.342-5.405a1.2 1.2 0 0 0-.62-.981 1.2 1.2 0 0 0-1.161-.01c-.521.279-1.484.784-2.493 1.283 1.426-2.959 3.042-7.116 2.123-9.259-.274-.639-.789-1.063-1.407-1.325-.038-.027-.064-.066-.106-.088-.057-.03-.118-.033-.176-.053-.041-.012-.069-.045-.111-.055-.048-.012-.085-.007-.132-.018l-.074-.01c-1.643-.342-2.763.117-3.41.588-.661.483-1.096 1.125-1.382 1.743-.753-.727-1.663-1.811-2.25-3.21a1.21 1.21 0 0 0-1.099-.743c-.483-.03-.919.276-1.12.715m-9.214-13.52c6.55 3.157 14.598 3.507 16.798 3.547a223 223 0 0 0 2.904 3.538c-2.013.008-4.065.235-5.697.48l.287-.358a1.214 1.214 0 0 0-.873-1.969c-8.225-.489-17.284-3.348-17.374-3.378l-.011-.001-.007-.004c-1.35-.407-2.136-1.101-2.215-1.951-.062-.671.311-1.216.536-1.333 1.31-.675 4.061.658 5.652 1.429m11.447.683c.262-.188.454-.458.506-.779l.355-2.272c.726 1.056 1.606 2.226 2.514 3.405a50 50 0 0 1-3.375-.354m-2.134-.342a44 44 0 0 1-1.814-.378c.054-.26.023-.537-.102-.788a3 3 0 0 1-.098-.218 14.3 14.3 0 0 0 2.014 1.384m15.98-13.226c-.55.543-1.518.954-2.421.353-.693-.462-.844-1.264-.756-1.86.071-.465.339-1.063.868-1.221q.152-.044.342-.044c.581 0 1.41.305 2.357.738l.002.003c.613.972-.219 1.862-.392 2.031m46.066 18.135a1.21 1.21 0 0 0 1.849-.866c.202-1.524.574-2.459 1.109-2.78.965-.579 3.303.308 6.007 1.331 2.06.781 4.625 1.751 7.549 2.467 7.628 1.868 16.594.263 24.504-1.153 2.672-.478 5.247-.939 7.64-1.245 5.004-.637 10.106 1.458 11.382 4.674.964 2.428-.517 5.228-4.171 7.885-10.129 7.365-58.63 4.094-63.575 3.741-1.315-1.253-1.83-3.816-1.983-5.506a18 18 0 0 0 1.405.397q.124.025.249.025c.347 0 .683-.15.917-.418.287-.334.372-.797.221-1.21-.755-2.062-1.171-5.872-1.344-7.822.32.088.659.056.943-.12.315-.194.524-.522.568-.89 1.432-12.173-1.066-18.517-2.376-20.895.318-.243.616-.505.899-.778.088 5.753 3.424 10.378 4.789 12.031-2.436 5.519 1.1 9.664 3.418 11.132" style="fill:#464655"/><path d="M230.874 164.048c-.47-9.76-2.788-25.545-10.194-25.907-4.174-.192-6.231 2.377-6.317 2.488a1.25 1.25 0 0 1-1.035.475l-2.83-.17.506 1.876c.122.453-.031.939-.39 1.242-.172.145-4.174 3.62-1.739 8.047 1.855 3.373 7.852 4.969 12.229 6.134 1.955.52 3.644.97 4.741 1.507 1.956.954 3.668 2.566 5.029 4.308" style="fill:#ffd250"/><path d="M220.796 135.721c-4.259-.208-6.91 1.915-7.907 2.928l-3.926-.235a1.216 1.216 0 0 0-1.243 1.526l.754 2.797c-1.925 1.964-4.188 6.044-1.721 10.529 2.354 4.281 8.929 6.031 13.73 7.309 1.833.488 3.415.909 4.3 1.341 2.838 1.388 5.118 4.545 6.304 7.037a1.21 1.21 0 0 0 1.355.663c.551-.121.943-.607.95-1.171.012-1.311.167-32.102-12.596-32.724m.31 22.511c-4.378-1.164-10.374-2.761-12.229-6.134-2.436-4.427 1.566-7.902 1.739-8.047a1.22 1.22 0 0 0 .39-1.242l-.506-1.876 2.83.17c.39.021.79-.158 1.035-.475.085-.11 2.142-2.68 6.317-2.488 7.407.361 9.724 16.146 10.194 25.907-1.361-1.742-3.073-3.354-5.028-4.31-1.098-.535-2.788-.985-4.742-1.505" style="fill:#464655"/><path d="M433.393 164.048c.47-9.76 2.788-25.545 10.194-25.907 4.174-.192 6.231 2.377 6.317 2.488.245.317.645.495 1.035.475l2.83-.17-.506 1.876c-.121.453.031.939.39 1.242.172.145 4.174 3.62 1.739 8.047-1.855 3.373-7.852 4.969-12.229 6.134-1.955.52-3.644.97-4.741 1.507-1.956.954-3.668 2.566-5.029 4.308" style="fill:#ffd250"/><path d="M430.875 168.445a1.213 1.213 0 0 0 2.305.508c1.186-2.492 3.466-5.649 6.304-7.037.885-.432 2.467-.854 4.3-1.341 4.801-1.278 11.376-3.027 13.729-7.309 2.467-4.485.203-8.565-1.721-10.529l.754-2.797a1.214 1.214 0 0 0-1.243-1.526l-3.926.235c-.997-1.013-3.647-3.136-7.907-2.928-12.762.622-12.608 31.413-12.595 32.724m7.546-8.707c-1.955.956-3.666 2.568-5.028 4.31.47-9.76 2.788-25.545 10.194-25.907 4.174-.192 6.231 2.377 6.317 2.488.245.317.645.495 1.035.475l2.83-.17-.506 1.876c-.121.453.031.939.39 1.242.172.145 4.174 3.62 1.739 8.047-1.855 3.373-7.852 4.969-12.229 6.134-1.956.519-3.646.969-4.742 1.505" style="fill:#464655"/><path d="M433.393 344.483c.47 9.76 2.788 25.546 10.194 25.907 4.174.193 6.231-2.377 6.317-2.488a1.25 1.25 0 0 1 1.035-.475l2.83.17-.506-1.876a1.22 1.22 0 0 1 .39-1.241c.172-.145 4.174-3.621 1.739-8.047-1.855-3.373-7.852-4.969-12.229-6.133-1.955-.521-3.644-.97-4.741-1.507-1.956-.957-3.668-2.569-5.029-4.31" style="fill:#ffd250"/><path d="M443.47 372.809c4.259.208 6.91-1.915 7.907-2.928l3.926.235a1.216 1.216 0 0 0 1.243-1.526l-.754-2.797c1.925-1.964 4.188-6.044 1.721-10.529-2.354-4.281-8.929-6.031-13.729-7.309-1.833-.487-3.415-.909-4.3-1.341-2.838-1.388-5.118-4.545-6.304-7.037a1.21 1.21 0 0 0-1.355-.663 1.21 1.21 0 0 0-.95 1.171c-.013 1.312-.167 32.103 12.595 32.724m-.309-22.51c4.378 1.164 10.374 2.761 12.229 6.133 2.436 4.427-1.566 7.902-1.739 8.047a1.22 1.22 0 0 0-.39 1.241l.506 1.876-2.83-.17c-.39-.021-.79.158-1.035.475-.085.11-2.142 2.68-6.317 2.488-7.407-.361-9.724-16.146-10.194-25.907 1.361 1.742 3.073 3.354 5.028 4.31 1.098.537 2.788.986 4.742 1.507" style="fill:#464655"/><path d="M230.874 344.483c-.47 9.76-2.788 25.546-10.194 25.907-4.174.193-6.231-2.377-6.317-2.488a1.25 1.25 0 0 0-1.035-.475l-2.83.17.506-1.876a1.21 1.21 0 0 0-.39-1.241c-.172-.145-4.174-3.621-1.739-8.047 1.855-3.373 7.852-4.969 12.229-6.133 1.955-.521 3.644-.97 4.741-1.507 1.956-.957 3.668-2.569 5.029-4.31" style="fill:#ffd250"/><path d="M233.392 340.086a1.213 1.213 0 0 0-2.305-.508c-1.186 2.492-3.466 5.649-6.304 7.037-.885.432-2.467.854-4.3 1.341-4.801 1.278-11.376 3.027-13.73 7.309-2.467 4.485-.203 8.565 1.721 10.529l-.754 2.797a1.214 1.214 0 0 0 1.243 1.526l3.926-.235c.997 1.013 3.647 3.136 7.907 2.928 12.763-.622 12.608-31.413 12.596-32.724m-7.546 8.706c1.955-.956 3.666-2.568 5.028-4.31-.47 9.76-2.788 25.546-10.194 25.907-4.174.193-6.231-2.377-6.317-2.488a1.25 1.25 0 0 0-1.035-.475l-2.83.17.506-1.876a1.21 1.21 0 0 0-.39-1.241c-.172-.145-4.174-3.621-1.739-8.047 1.855-3.373 7.852-4.969 12.229-6.133 1.956-.521 3.646-.97 4.742-1.507" style="fill:#464655"/></svg>
