<svg xmlns="http://www.w3.org/2000/svg" xml:space="preserve" viewBox="0 0 512 512" width="48" height="48"><path d="M400 0H112C50.144 0 0 50.144 0 112v288c0 61.856 50.144 112 112 112h288c61.856 0 112-50.144 112-112V112C512 50.144 461.856 0 400 0" style="fill:#f5f5f5"/><path d="M184.058 356.96c-31.106-7.1-58.838-23.16-80.294-45.352v47.465c23.412 17.076 50.728 29.042 80.294 34.514zm143.809 0c31.106-7.1 58.838-23.16 80.294-45.352v47.465c-23.412 17.076-50.728 29.042-80.294 34.514z" style="fill:#ffecd7"/><path d="M170.276 254.084c-1.498.3-3.595 4.194-4.194 10.786s-4.794 34.454-13.782 31.458-14.98-16.179-14.98-16.179l-12.583 18.276s8.389-3.296 17.077.599 10.786 5.992 13.183 3.595 8.089-9.587 12.583-8.988l5.093-36.252zm-49.734 59.621s-2.097 17.377-.899 19.474 34.155 9.887 34.155 9.887-9.587 7.79-9.887 11.984c0 0-11.684 2.097-15.879 5.692l-15.579-25.766-.599-21.272h8.688z" style="fill:#ffe15a"/><path d="m110.131 155.664.225-8.988s-10.561-1.124-11.909 22.695l-3.82-10.561s-7.865 10.561-3.146 27.638l-2.022 1.573s-10.336-13.707-16.628-31.458c0 0-10.561 8.314 1.798 31.908l-15.28-19.324s-7.64 16.179 15.28 35.503l-21.571-15.28s-1.348 17.527 19.549 28.762L51.71 206.897s.674 16.853 24.942 25.167l-22.92-4.269s5.804 13.778 22.752 17.496c-3.559 3.973-6.846 9.312-7.697 16.209l17.077-9.438s-8.089 8.314-5.842 19.774l26.29-26.29-3.593-1.606c19.89-3.73 15.727-5.135 15.727-5.135s-14.681-37.75-4.794-63.816c9.887-26.065 18.576-29.661 18.576-30.86-.001-1.198-10.638-2.621-22.097 11.535" style="fill:#ffecd7"/><path d="M130.429 170.794s34.155 35.952 34.754 39.248-3.595 2.696-3.595 2.696-8.389-10.786-19.774-14.98-18.875-17.377-23.369-20.373 11.984-6.591 11.984-6.591" style="fill:#ffe15a"/><path d="M119.044 179.482c4.494 1.498 14.681-.599 14.381-9.887s-9.587-12.883-16.478-10.786-19.774 11.684-11.685 30.26 20.073 25.466 22.47 41.345c0 0-10.786 1.648-16.478.3-4.892-1.159-13.183-5.093-11.385-15.879s5.992-17.077 2.397-23.069-14.98-16.478-14.98-16.478-24.567 62.917 19.774 79.395c0 0-20.972 20.073-31.458 39.548l6.292 1.798s-11.085 11.984-17.377 16.478c0 0 20.673 7.19 41.046-16.179 0 0 5.093 8.389 6.292 17.377h8.688s2.996-14.381 16.778-26.365 27.769-29.073 26.365-44.641c-1.648-18.276-15.411-26.498-29.736-37.825-19.325-15.28-14.906-25.392-14.906-25.392" style="fill:#fff5e1"/><path d="M341.724 254.084c1.498.3 3.595 4.194 4.194 10.786s4.794 34.454 13.782 31.458 14.98-16.179 14.98-16.179l12.583 18.276s-8.389-3.296-17.077.599-10.786 5.992-13.183 3.595-8.089-9.587-12.583-8.988l-5.093-36.252zm49.734 59.621s2.097 17.377.899 19.474-34.155 9.887-34.155 9.887 9.587 7.79 9.887 11.984c0 0 11.685 2.097 15.879 5.692l15.579-25.766.599-21.272h-8.688z" style="fill:#ffe15a"/><path d="m401.87 155.664-.225-8.988s10.561-1.124 11.909 22.695l3.82-10.561s7.865 10.561 3.146 27.638l2.022 1.573s10.336-13.707 16.628-31.458c0 0 10.561 8.314-1.798 31.908l15.28-19.324s7.64 16.179-15.28 35.503l21.571-15.28s1.348 17.527-19.549 28.762l20.897-11.235s-.674 16.853-24.942 25.167l22.92-4.269s-5.804 13.778-22.752 17.496c3.559 3.973 6.846 9.312 7.697 16.209l-17.077-9.438s8.089 8.314 5.842 19.774l-26.29-26.29 3.593-1.606c-19.89-3.73-15.727-5.135-15.727-5.135s14.681-37.75 4.794-63.816c-9.887-26.065-18.576-29.661-18.576-30.86s10.637-2.621 22.097 11.535" style="fill:#ffecd7"/><path d="M381.571 170.794s-34.155 35.952-34.754 39.248 3.595 2.696 3.595 2.696 8.389-10.786 19.774-14.98 18.875-17.377 23.369-20.373-11.984-6.591-11.984-6.591" style="fill:#ffe15a"/><path d="M392.956 179.482c-4.494 1.498-14.681-.599-14.381-9.887s9.587-12.883 16.478-10.786 19.774 11.684 11.685 30.26-20.073 25.466-22.47 41.345c0 0 10.786 1.648 16.478.3 4.892-1.159 13.183-5.093 11.385-15.879s-5.992-17.077-2.397-23.069 14.98-16.478 14.98-16.478 24.568 62.917-19.774 79.395c0 0 20.972 20.073 31.458 39.548l-6.292 1.798s11.085 11.984 17.377 16.478c0 0-20.673 7.19-41.046-16.179 0 0-5.093 8.389-6.292 17.377h-8.689s-2.996-14.381-16.778-26.365-27.769-29.073-26.365-44.641c1.648-18.276 15.411-26.498 29.736-37.825 19.326-15.28 14.907-25.392 14.907-25.392" style="fill:#fff5e1"/><path d="M169.68 118.66h172.57v34.754H169.68z" style="fill:#464655"/><path d="M255.962 146.227h-86.286v115.048c0 21.571 14.381 79.095 86.286 100.667 71.905-21.572 86.286-79.095 86.286-100.667V146.227z" style="fill:#41479b"/><path d="M169.677 261.274c0 5.346.893 12.906 3.315 21.571h165.942c2.422-8.666 3.315-16.226 3.315-21.571v-43.143H169.677z" style="fill:#ff4b55"/><path d="m255.962 250.489-10.066 25.166 10.066-5.033 10.067 5.033zm0 0 10.067-25.167-10.067 5.033-10.066-5.033zm0 0-25.166-10.067 5.033 10.067-5.033 10.066zm0 0 25.167 10.066-5.033-10.066 5.033-10.067z" style="fill:#f5f5f5"/><path d="M267.267 171.651c-1.679.269-3.155.484-4.488 1.185 1.514-3.785 2.582-7.335 1.642-9.822-2.297-6.081-6.714-4.993-8.416-9.427v-.169c-.012.033-.03.051-.042.085-.012-.033-.031-.051-.042-.085v.169c-1.701 4.434-6.118 3.346-8.416 9.427-.94 2.487.128 6.036 1.643 9.822-1.333-.701-2.81-.916-4.489-1.185-3.427-.548-8.637 3.016-7.54 9.871s9.048 7.403 9.048 7.403c-1.097-1.097-2.056-2.879-1.508-4.798s4.524-3.564 6.581 2.879c2.056 6.443-4.935 15.629-4.935 15.629 2.393-.126 4.141-.872 5.403-1.628-1.66 5.411 3.77 9.599 4.214 9.926v.064l.042-.032.042.032v-.064c.444-.328 5.873-4.516 4.214-9.926 1.262.756 3.01 1.501 5.403 1.627 0 0-6.992-9.185-4.935-15.629 2.056-6.443 6.032-4.798 6.581-2.879s-.411 3.702-1.508 4.798c0 0 7.952-.548 9.048-7.403 1.095-6.854-4.115-10.419-7.542-9.87m52.911 0c-1.679.269-3.155.484-4.488 1.185 1.514-3.785 2.582-7.335 1.642-9.822-2.297-6.081-6.714-4.993-8.416-9.427v-.169c-.012.033-.03.051-.042.085-.012-.033-.03-.051-.042-.085v.169c-1.701 4.434-6.118 3.346-8.416 9.427-.94 2.487.128 6.036 1.642 9.822-1.333-.701-2.81-.916-4.489-1.185-3.427-.548-8.637 3.016-7.54 9.871s9.048 7.403 9.048 7.403c-1.097-1.097-2.056-2.879-1.508-4.798s4.524-3.564 6.581 2.879-4.935 15.629-4.935 15.629c2.393-.126 4.141-.872 5.403-1.628-1.66 5.411 3.77 9.599 4.214 9.926v.064l.042-.032.042.032v-.064c.444-.328 5.873-4.516 4.214-9.926 1.262.756 3.01 1.501 5.403 1.627 0 0-6.992-9.185-4.935-15.629 2.056-6.443 6.032-4.798 6.581-2.879.548 1.919-.411 3.702-1.508 4.798 0 0 7.952-.548 9.048-7.403s-4.113-10.419-7.541-9.87m-105.822 0c-1.679.269-3.155.484-4.488 1.185 1.515-3.785 2.582-7.335 1.642-9.822-2.297-6.081-6.714-4.993-8.416-9.427v-.169c-.012.033-.03.051-.042.085-.012-.033-.031-.051-.042-.085v.169c-1.701 4.434-6.118 3.346-8.416 9.427-.94 2.487.128 6.036 1.643 9.822-1.333-.701-2.81-.916-4.489-1.185-3.427-.548-8.637 3.016-7.54 9.871s9.048 7.403 9.048 7.403c-1.097-1.097-2.057-2.879-1.508-4.798s4.524-3.564 6.581 2.879c2.056 6.443-4.935 15.629-4.935 15.629 2.393-.126 4.141-.872 5.404-1.628-1.66 5.411 3.77 9.599 4.214 9.926v.064l.042-.032.042.032v-.064c.445-.328 5.873-4.516 4.214-9.926 1.262.756 3.01 1.501 5.403 1.627 0 0-6.992-9.185-4.935-15.629 2.056-6.443 6.032-4.798 6.581-2.879s-.411 3.702-1.508 4.798c0 0 7.952-.548 9.048-7.403 1.094-6.854-4.116-10.419-7.543-9.87m58.483 148.153s-3.845-.604-4.151 3.27c0 0 0 .444-.019 1.058a3.6 3.6 0 0 0-1.553-.371 3.679 3.679 0 1 0 0 7.358c.161 0 .299-.072.455-.092-.547 1.753-1.418 3.35-2.64 4.504h-4.911c-1.292-1.431-1.684-4.229-1.768-6.257.079.006.139.06.221.06a3.012 3.012 0 0 0 .058-6.026c.261-.447.451-.937.451-1.492a3.019 3.019 0 1 0-6.038 0c0 .554.19 1.045.451 1.492a3.01 3.01 0 0 0-2.96 3.007 3.02 3.02 0 0 0 3.019 3.019c.081 0 .141-.055.22-.06-.083 2.028-.476 4.827-1.768 6.257h-4.911c-1.222-1.153-2.093-2.751-2.64-4.504.156.02.294.092.455.092a3.679 3.679 0 1 0 0-7.358 3.6 3.6 0 0 0-1.553.371c-.019-.615-.019-1.058-.019-1.058-.306-3.874-4.151-3.27-4.151-3.27 2.39 7.296 1.761 15.727 1.761 15.727v7.417h30.188v-7.401l.043-.016c-.001 0-.63-8.431 1.76-15.727m-35.278-28.762s-3.845-.604-4.151 3.27c0 0 0 .444-.019 1.058a3.6 3.6 0 0 0-1.553-.371 3.679 3.679 0 1 0 0 7.358c.161 0 .299-.072.455-.092-.547 1.753-1.418 3.35-2.64 4.504h-4.911c-1.292-1.43-1.684-4.229-1.768-6.257.079.006.139.061.221.061a3.02 3.02 0 0 0 3.019-3.019 3.01 3.01 0 0 0-2.961-3.007c.261-.447.451-.938.451-1.492a3.019 3.019 0 1 0-6.038 0c0 .554.19 1.045.451 1.492a3.01 3.01 0 0 0-2.96 3.007 3.02 3.02 0 0 0 3.019 3.019c.081 0 .141-.055.22-.061-.083 2.028-.476 4.827-1.768 6.257h-4.911c-1.222-1.153-2.094-2.751-2.64-4.504.156.02.294.092.455.092a3.679 3.679 0 1 0 0-7.358c-.561 0-1.078.147-1.553.371-.019-.615-.019-1.058-.019-1.058-.306-3.874-4.151-3.27-4.151-3.27 2.39 7.296 1.761 15.727 1.761 15.727v7.417h30.188v-7.401l.044-.016c-.002 0-.631-8.431 1.759-15.727m70.557 0s-3.845-.604-4.151 3.27c0 0 0 .444-.019 1.058a3.6 3.6 0 0 0-1.553-.371 3.679 3.679 0 1 0 0 7.358c.161 0 .299-.072.455-.092-.547 1.753-1.418 3.35-2.64 4.504h-4.911c-1.292-1.43-1.684-4.229-1.768-6.257.079.006.139.061.221.061a3.02 3.02 0 0 0 3.019-3.019 3.01 3.01 0 0 0-2.961-3.007c.261-.447.451-.938.451-1.492a3.019 3.019 0 1 0-6.038 0c0 .554.19 1.045.451 1.492a3.01 3.01 0 0 0-2.96 3.007 3.02 3.02 0 0 0 3.019 3.019c.081 0 .141-.055.22-.061-.083 2.028-.476 4.827-1.768 6.257h-4.911c-1.222-1.153-2.094-2.751-2.64-4.504.156.02.294.092.455.092a3.679 3.679 0 1 0 0-7.358c-.561 0-1.078.147-1.553.371-.019-.615-.019-1.058-.019-1.058-.306-3.874-4.151-3.27-4.151-3.27 2.39 7.296 1.761 15.727 1.761 15.727v7.417h30.188v-7.401l.044-.016c-.002 0-.631-8.431 1.759-15.727m59.513-188.907a304 304 0 0 0-12.494-4.645l-3.516 10.192q-3.03-1.052-6.079-2.036l3.292-10.268a299 299 0 0 0-12.702-3.792l-2.842 10.402a295 295 0 0 0-6.169-1.623l2.615-10.462a305 305 0 0 0-12.869-2.94l-4.318 21.132a283 283 0 0 1 7.981 1.762l-1.642 7a273.7 273.7 0 0 0-47.094-6.868l.413-7.179q4.058.235 8.11.587l1.858-21.491a302 302 0 0 0-13.097-.853l-.465 10.775q-3.161-.137-6.324-.205l.233-10.783a302 302 0 0 0-13.119 0l.233 10.783q-3.164.069-6.324.205l-.465-10.775q-6.556.283-13.097.853l1.859 21.491q4.051-.352 8.11-.587l.413 7.179a274 274 0 0 0-47.094 6.868l-1.642-7a275 275 0 0 1 7.981-1.762l-4.318-21.132a301 301 0 0 0-12.869 2.94l2.615 10.462a296 296 0 0 0-6.169 1.623l-2.842-10.402a304 304 0 0 0-12.702 3.792l3.292 10.268a297 297 0 0 0-6.079 2.036q-1.757-5.097-3.516-10.192a305 305 0 0 0-12.494 4.645l7.917 20.056a283 283 0 0 1 7.723-2.936l9.77 27.04a252 252 0 0 1 28.259-8.44 252 252 0 0 1 43.407-6.33 252.35 252.35 0 0 1 100.851 14.77l9.77-27.04a282 282 0 0 1 7.723 2.936z" style="fill:#ffe15a"/><path d="M255.962 444.632c42.895 0 82.609-13.773 115.048-37.067v-47.061c-29.351 29.719-70.078 48.176-115.048 48.176-45.593 0-86.811-18.987-116.246-49.433v47.465c32.655 23.817 72.825 37.92 116.246 37.92" style="fill:#ffe1cd"/></svg>
