<svg xmlns="http://www.w3.org/2000/svg" xml:space="preserve" viewBox="0 0 512 512" width="48" height="48"><path d="M114.76 0h282.48v512H114.76z" style="fill:#ffe15a"/><path d="M512 400V112C512 50.144 461.856 0 400 0h-2.758v512H400c61.856 0 112-50.144 112-112" style="fill:#73af00"/><path d="M112 0C50.151 0 .011 50.134 0 111.98v288.04C.011 461.866 50.151 512 112 512h2.759V0z" style="fill:#4173cd"/><path d="m184.195 247.348 32.071 64.141 32.07-64.141-32.07-64.141zm79.469 0 32.071 64.141 32.07-64.141-32.07-64.141zm-39.734 77.111L256 388.6l32.071-64.141L256 260.318z" style="fill:#73af00"/></svg>
