<svg xmlns="http://www.w3.org/2000/svg" xml:space="preserve" viewBox="0 0 512 512" width="48" height="48"><path d="M400 0H112C50.144 0 0 50.144 0 112v288c0 61.856 50.144 112 112 112h288c61.856 0 112-50.144 112-112V112C512 50.144 461.856 0 400 0" style="fill:#73af00"/><path d="M0 400c0 6.018.481 11.923 1.395 17.684h509.211A113 113 0 0 0 512 400v-36.211H0zM1.395 94.316A113 113 0 0 0 0 112v36.211h512V112c0-6.018-.48-11.923-1.395-17.684z" style="fill:#f5f5f5"/><path d="M0 148.21h512v215.58H0z" style="fill:#c8414b"/><path d="m252.643 172.99-19.619 58.826-62.01.481c-3.4.026-4.809 4.365-2.074 6.384l49.884 36.837-18.705 59.123c-1.025 3.241 2.665 5.923 5.431 3.946L256 302.528l50.45 36.06c2.766 1.977 6.456-.704 5.431-3.946l-18.705-59.123 49.884-36.837c2.735-2.02 1.325-6.358-2.074-6.384l-62.01-.481-19.619-58.826c-1.076-3.226-5.638-3.226-6.714-.001" style="fill:#ffe15a"/></svg>
