<svg xmlns="http://www.w3.org/2000/svg" xml:space="preserve" viewBox="0 0 512 512" width="48" height="48"><path d="M112 512h288c55.838 0 102.126-40.863 110.605-94.316H1.395C9.874 471.137 56.162 512 112 512M400 0H112C56.162 0 9.874 40.863 1.395 94.316h509.211C502.126 40.863 455.838 0 400 0" style="fill:#4173cd"/><path d="M1.395 94.316A113 113 0 0 0 0 112v288c0 6.018.481 11.923 1.395 17.684h509.211A113 113 0 0 0 512 400V112c0-6.018-.481-11.923-1.395-17.684z" style="fill:#ff4b55"/><path d="M507.603 80.842H4.397a112 112 0 0 0-4.31 26.947h511.827a111.8 111.8 0 0 0-4.311-26.947M4.397 431.158h503.207a112 112 0 0 0 4.31-26.947H.087a111.8 111.8 0 0 0 4.31 26.947m447.968-166.364H59.074a4.3 4.3 0 0 1-4.3-4.3v-2.564a4.3 4.3 0 0 1 4.3-4.3h393.291a4.3 4.3 0 0 1 4.3 4.3v2.564a4.3 4.3 0 0 1-4.3 4.3" style="fill:#ffe15a"/><path d="m375.728 242.467 19.537-8.373 19.536 8.373-19.536 8.372z" style="fill:#f5f5f5"/><path d="M380.535 238.9H93.847a3.565 3.565 0 1 0 0 7.132h286.688a3.566 3.566 0 1 0 0-7.132" style="fill:#ffe15a"/><path d="m396.04 222.93 19.536-8.372 19.537 8.372-19.537 8.373z" style="fill:#f5f5f5"/><path d="M400.846 219.364H114.158a3.566 3.566 0 1 0 0 7.132h286.688a3.566 3.566 0 1 0 0-7.132" style="fill:#ffe15a"/><path d="M255.719 186.648c-49.577 0-92.831 28.075-115.997 69.773 23.166 41.698 66.42 69.773 115.997 69.773s92.831-28.075 115.997-69.773c-23.166-41.698-66.42-69.773-115.997-69.773" style="fill:#f5f5f5"/><path d="M139.722 256.421c23.166 41.698 66.42 69.773 115.997 69.773 8.279 0 16.359-.85 24.221-2.348-6.003-13.176-27.113-13.153-28.408-18.119-1.395-5.349 17.211-4.186 20.467-8.605s-17.676-6.28-18.606-10.698 8.373-7.443 10.001-14.42 5.349-9.07 8.14-13.257-4.651-5.582-6.512-19.536S252.23 223.396 246.881 212s3.256-19.769 8.838-25.351c-49.576-.001-92.831 28.074-115.997 69.772" style="fill:#464655"/><path d="M183.16 231.3h5.582v22.327h-5.582zm11.16 0h5.582v22.327h-5.582zm11.16 0h5.582v22.327h-5.582zm11.17 0h5.582v22.327h-5.582zm11.16 0h5.582v22.327h-5.582zm11.16 0h5.582v22.327h-5.582zm-55.81 33.49h5.582v22.327h-5.582zm11.16 0h5.582v22.327h-5.582zm11.16 0h5.582v22.327h-5.582zm11.17 0h5.582v22.327h-5.582zm11.16 0h5.582v22.327h-5.582zm11.16 0h5.582v22.327h-5.582z" style="fill:#f5f5f5"/><path d="M266.88 231.3h5.582v22.327h-5.582zm11.17 0h5.582v22.327h-5.582zm11.16 0h5.582v22.327h-5.582zm11.16 0h5.582v22.327h-5.582zm11.17 0h5.582v22.327h-5.582zm11.16 0h5.582v22.327H322.7zm-55.82 33.49h5.582v22.327h-5.582zm11.17 0h5.582v22.327h-5.582zm11.16 0h5.582v22.327h-5.582zm11.16 0h5.582v22.327h-5.582zm11.17 0h5.582v22.327h-5.582zm11.16 0h5.582v22.327H322.7z" style="fill:#464655"/><path d="M427.963 252.758c-4.47 10.385-17.191 11.606-10.143 38.077l3.61-3.665s3.782 9.977 12.893 16.697c0 0 11.174-9.367 12.034-24.231l4.642 2.036s-2.235-27.081-23.036-28.914" style="fill:#245dbd"/><path d="M444.466 274.036c-.357 0-.712-.165-.98-.49-4.378-5.281-9.955-6.974-10.008-6.993-.736-.216-1.187-1.101-1.005-1.973.183-.865.929-1.406 1.663-1.19.258.076 6.369 1.915 11.311 7.877.532.636.524 1.674-.016 2.303a1.26 1.26 0 0 1-.965.466m-3.151 12.319c-.411 0-.819-.216-1.09-.636-3.247-5.001-6.93-7.725-6.968-7.75-.647-.471-.846-1.476-.449-2.246.4-.764 1.246-.999 1.894-.528.169.121 4.153 3.073 7.704 8.539.462.713.349 1.737-.253 2.284a1.23 1.23 0 0 1-.838.337m-7.217 13.713q-.116.002-.236-.025c-.747-.153-1.252-.993-1.123-1.877.543-3.729.089-9.844-.655-13-.204-.865.223-1.763.953-2.011.739-.236 1.491.267 1.695 1.133.841 3.563 1.332 10.213.72 14.425-.116.795-.699 1.355-1.354 1.355m-9.673-15.043c-.392 0-.782-.197-1.053-.579-.489-.687-.416-1.718.164-2.297.035-.032 3.546-3.595 4.462-8.527.164-.878.892-1.432 1.638-1.241.741.191 1.212 1.063 1.048 1.941-1.123 6.032-5.203 10.149-5.378 10.321a1.25 1.25 0 0 1-.881.382m-3.82-10.422c-.462 0-.913-.274-1.174-.776-.397-.764-.196-1.769.451-2.24.051-.038 5.039-3.71 6.586-7.719.314-.827 1.136-1.19 1.824-.808.69.375.994 1.343.68 2.157-1.899 4.919-7.416 8.972-7.65 9.144a1.2 1.2 0 0 1-.717.242" style="fill:#ff4b55"/><path d="M79.452 256.254c-3.738 8.683-14.375 9.705-8.481 31.839l3.019-3.065s3.162 8.343 10.781 13.962c0 0 9.344-7.832 10.062-20.261l3.881 1.703c0-.001-1.869-22.646-19.262-24.178" style="fill:#245dbd"/><path d="M93.252 274.046c-.299 0-.595-.138-.82-.41-3.661-4.416-8.324-5.831-8.369-5.847-.616-.181-.993-.921-.84-1.649.153-.724.777-1.176 1.39-.995.216.064 5.326 1.602 9.458 6.587.445.532.438 1.399-.014 1.926-.223.26-.513.388-.805.388m-2.635 10.301c-.344 0-.685-.181-.912-.532-2.715-4.182-5.795-6.459-5.826-6.481-.541-.394-.707-1.234-.375-1.878.335-.638 1.042-.835 1.584-.442.141.101 3.472 2.57 6.442 7.14.386.596.292 1.452-.211 1.91-.21.192-.457.283-.702.283m-6.035 11.466a1 1 0 0 1-.198-.021c-.624-.128-1.047-.83-.939-1.57.454-3.118.074-8.231-.548-10.87-.171-.724.187-1.474.797-1.681.618-.197 1.247.224 1.417.947.703 2.979 1.114 8.54.602 12.062-.096.665-.583 1.133-1.131 1.133m-8.088-12.578c-.328 0-.654-.165-.88-.484-.409-.575-.348-1.437.137-1.921.029-.027 2.965-3.006 3.731-7.13.137-.734.746-1.197 1.37-1.037.62.16 1.013.888.876 1.623-.939 5.044-4.351 8.487-4.497 8.63a1.05 1.05 0 0 1-.737.319m-3.194-8.716c-.386 0-.764-.229-.982-.649-.332-.639-.164-1.479.377-1.873.043-.032 4.214-3.102 5.507-6.454.263-.692.95-.995 1.525-.676.577.314.831 1.123.568 1.804-1.588 4.113-6.201 7.502-6.397 7.646a1 1 0 0 1-.598.202" style="fill:#ff4b55"/></svg>
