<svg xmlns="http://www.w3.org/2000/svg" xml:space="preserve" viewBox="0 0 512 512" width="48" height="48"><path d="M400 0H112C50.144 0 0 50.144 0 112v288c0 61.856 50.144 112 112 112h288c61.856 0 112-50.144 112-112V112C512 50.144 461.856 0 400 0" style="fill:#ff4b55"/><path d="M364.357 216.597h-68.955v-68.955c0-5.44-4.41-9.851-9.851-9.851h-59.104c-5.44 0-9.851 4.41-9.851 9.851v68.955h-68.955c-5.44 0-9.851 4.41-9.851 9.851v59.104c0 5.44 4.41 9.851 9.851 9.851h68.955v68.955c0 5.44 4.41 9.851 9.851 9.851h59.104c5.44 0 9.851-4.41 9.851-9.851v-68.955h68.955c5.44 0 9.851-4.41 9.851-9.851v-59.104c0-5.44-4.41-9.851-9.851-9.851" style="fill:#f5f5f5"/></svg>
