<svg xmlns="http://www.w3.org/2000/svg" xml:space="preserve" viewBox="0 0 512 512" width="48" height="48"><path d="M400 0H112C50.144 0 0 50.144 0 112v58.092h512V112C512 50.144 461.856 0 400 0" style="fill:#ff4b55"/><path d="M0 400c0 61.856 50.144 112 112 112h288c61.856 0 112-50.144 112-112v-58.092H0z" style="fill:#464655"/><path d="M0 170.09h512v171.82H0z" style="fill:#f5f5f5"/><path d="m150.03 223.314 7.36 22.068 23.262.18c3.012.023 4.261 3.867 1.838 5.656l-18.714 13.819 7.017 22.18c.909 2.872-2.361 5.247-4.811 3.496l-18.926-13.527-18.925 13.527c-2.45 1.751-5.72-.624-4.811-3.496l7.017-22.18-18.714-13.819c-2.423-1.789-1.174-5.633 1.838-5.656l23.262-.18 7.36-22.068c.953-2.858 4.994-2.858 5.947 0m217.887 0 7.36 22.068 23.262.18c3.012.023 4.26 3.867 1.838 5.656l-18.714 13.819 7.017 22.18c.909 2.872-2.361 5.247-4.811 3.496l-18.926-13.527-18.926 13.527c-2.45 1.751-5.72-.624-4.811-3.496l7.017-22.18-18.714-13.819c-2.423-1.789-1.174-5.633 1.838-5.656l23.262-.18 7.36-22.068c.954-2.858 4.995-2.858 5.948 0" style="fill:#73af00"/></svg>
