<svg xmlns="http://www.w3.org/2000/svg" xml:space="preserve" viewBox="0 0 512 512" width="48" height="48"><path d="M400 0H112C50.144 0 0 50.144 0 112v288c0 61.856 50.144 112 112 112h288c61.856 0 112-50.144 112-112V112C512 50.144 461.856 0 400 0" style="fill:#ff4b55"/><path d="M3.75 256h243.125a9.124 9.124 0 0 0 9.125-9.125V3.75A3.75 3.75 0 0 0 252.25 0H112C50.144 0 0 50.144 0 112v140.25A3.75 3.75 0 0 0 3.75 256" style="fill:#41479b"/><path d="M88.287 128c0-10.962 4.442-20.886 11.623-28.072L66.636 90.41c-1.932-.553-3.316 1.846-1.872 3.242l24.899 24.075-33.601 8.4c-1.949.487-1.949 3.257 0 3.744l33.601 8.4-24.899 24.075c-1.444 1.396-.059 3.795 1.872 3.242l33.274-9.518c-7.181-7.184-11.623-17.108-11.623-28.07m11.641-28.089c7.186-7.181 17.11-11.623 28.072-11.623s20.886 4.442 28.072 11.623l9.518-33.274c.553-1.932-1.846-3.316-3.243-1.872l-24.075 24.899-8.4-33.601c-.487-1.949-3.257-1.949-3.744 0l-8.4 33.601-24.076-24.9c-1.396-1.444-3.795-.059-3.243 1.872zm56.144 56.179c-7.186 7.181-17.11 11.623-28.072 11.623s-20.886-4.442-28.072-11.623l-9.518 33.274c-.553 1.931 1.846 3.316 3.243 1.872l24.075-24.899 8.4 33.601c.487 1.949 3.257 1.949 3.744 0l8.4-33.601 24.075 24.899c1.396 1.444 3.795.059 3.243-1.872zm43.866-29.962-33.601-8.4 24.899-24.075c1.444-1.396.059-3.795-1.872-3.242l-33.274 9.518c7.181 7.186 11.623 17.11 11.623 28.072s-4.442 20.886-11.623 28.072l33.274 9.518c1.932.552 3.316-1.846 1.872-3.242l-24.899-24.075 33.601-8.4c1.949-.489 1.949-3.259 0-3.746" style="fill:#f5f5f5"/><circle cx="128" cy="128" r="31.621" style="fill:#f5f5f5"/></svg>
