<svg xmlns="http://www.w3.org/2000/svg" xml:space="preserve" viewBox="0 0 512 512" width="48" height="48"><path d="M0 400c0 61.856 50.144 112 112 112h288c61.856 0 112-50.144 112-112v-58.667H0z" style="fill:#73af00"/><path d="M400 0H112C50.144 0 0 50.144 0 112v58.667h512V112C512 50.144 461.856 0 400 0" style="fill:#ff4b55"/><path d="M0 170.67h512v170.67H0z" style="fill:#f5f5f5"/><path d="M211.842 304.133c5.602-2.823 8.88-7.474 10.632-10.833 10.036 6.556 18.635 4.329 23.116 2.233 4.373-2.048 7.973-5.39 10.377-8.795 2.404 3.405 6.004 6.747 10.376 8.795 4.479 2.097 13.079 4.32 23.116-2.233 1.752 3.358 5.03 8.009 10.632 10.833 3.23 1.627 6.789 2.443 10.653 2.443 3.968 0 8.255-.86 12.833-2.576l-2.223-5.931c-7.283 2.731-13.46 2.879-18.355.436-6.85-3.414-9.136-10.944-9.155-11.006l-1.336-4.676-3.736 3.111c-6.59 5.489-13.415 6.834-19.743 3.862-6.427-3.009-9.896-9.101-9.896-10.928v-27.332c1.37-3.015 4.394-5.126 7.917-5.126 1.211 0 2.407.263 3.555.779l3.92 1.769-.592-4.261c-1.243-8.952-8.966-15.703-17.965-15.703s-16.722 6.751-17.965 15.703l-.592 4.261 3.92-1.769a8.6 8.6 0 0 1 3.555-.779c3.522 0 6.546 2.111 7.916 5.126v27.332c0 1.828-3.468 7.92-9.896 10.928-6.326 2.972-13.154 1.63-19.743-3.862l-3.706-3.071-1.362 4.623c-.022.074-2.308 7.604-9.158 11.018-4.898 2.443-11.074 2.298-18.355-.436L188.355 304c4.578 1.716 8.866 2.576 12.833 2.576 3.863 0 7.424-.817 10.654-2.443m33.041-62.472q-.568-.001-1.132.049c2.12-4.725 6.862-7.966 12.215-7.966s10.095 3.241 12.215 7.966c-4.925-.433-9.582 1.973-12.215 5.783-2.431-3.522-6.493-5.832-11.083-5.832m-43.753 82.606 2.007 6.005c13.464-4.493 32.721-7.072 52.829-7.072s39.364 2.579 52.829 7.072l2.007-6.005c-14.086-4.704-34.073-7.4-54.836-7.4s-40.75 2.697-54.836 7.4" style="fill:#ffcd5a"/><path d="M255.966 310.534c3.301.01 6.21-1.952 8.18-4.595-1.31-.809-3.059-1.282-5.039-1.527.002-.073.025-.138.025-.211 0-2.715-1.282-5.059-3.167-6.333-1.885 1.274-3.167 3.618-3.167 6.333 0 .073.023.138.025.211-1.979.245-3.728.718-5.038 1.527 1.97 2.644 4.879 4.604 8.181 4.595m-29.066 2.993c3.236-.651 5.695-3.154 7.096-6.138-1.445-.531-3.254-.644-5.242-.489-.013-.071-.003-.14-.018-.212-.543-2.66-2.268-4.701-4.369-5.572-1.592 1.625-2.379 4.179-1.836 6.839.015.072.05.131.066.202-1.89.636-3.509 1.449-4.631 2.504 2.46 2.197 5.701 3.536 8.934 2.866m60.664-12.41c-2.102.871-3.826 2.912-4.369 5.572-.015.072-.005.14-.018.212-1.988-.155-3.797-.042-5.242.489 1.402 2.984 3.861 5.487 7.096 6.138 3.233.669 6.475-.669 8.934-2.866-1.122-1.055-2.741-1.868-4.631-2.504.016-.071.052-.13.066-.202.543-2.66-.244-5.214-1.836-6.839M255.12 184.491l-2.133 6.396-6.742.052c-.873.007-1.235 1.121-.533 1.639l5.424 4.005-2.034 6.428c-.263.832.684 1.521 1.394 1.013l5.485-3.921 5.485 3.921c.71.508 1.658-.181 1.394-1.013l-2.034-6.428 5.424-4.005c.702-.519.34-1.633-.533-1.639l-6.742-.052-2.133-6.396c-.274-.828-1.446-.828-1.722 0m-38.593 10.555-2.133 6.396-6.742.052c-.873.007-1.235 1.121-.533 1.639l5.424 4.005-2.034 6.428c-.263.832.684 1.521 1.394 1.013l5.485-3.921 5.485 3.921c.71.508 1.658-.181 1.394-1.013l-2.034-6.428 5.424-4.005c.702-.519.34-1.632-.533-1.639l-6.742-.052-2.133-6.396c-.274-.828-1.446-.828-1.722 0m-28.367 28.5-2.133 6.396-6.742.052c-.873.007-1.235 1.121-.533 1.639l5.424 4.005-2.034 6.428c-.263.832.684 1.521 1.394 1.013l5.485-3.921 5.485 3.921c.71.508 1.658-.181 1.394-1.013l-2.034-6.428 5.424-4.005c.702-.518.34-1.632-.533-1.639l-6.742-.052-2.133-6.396c-.275-.828-1.446-.828-1.722 0m-10.424 38.527-2.133 6.396-6.742.052c-.873.007-1.235 1.121-.533 1.639l5.424 4.005-2.034 6.428c-.263.832.684 1.521 1.394 1.013l5.485-3.921 5.485 3.921c.71.508 1.658-.181 1.395-1.013l-2.034-6.428 5.424-4.005c.702-.518.34-1.632-.533-1.639l-6.742-.052-2.133-6.396c-.275-.828-1.446-.828-1.723 0m117.737-67.027 2.133 6.396 6.742.052c.873.007 1.235 1.121.533 1.639l-5.424 4.005 2.034 6.428c.263.832-.684 1.521-1.394 1.013l-5.485-3.921-5.485 3.921c-.71.508-1.658-.181-1.394-1.013l2.034-6.428-5.424-4.005c-.702-.519-.34-1.632.533-1.639l6.742-.052 2.133-6.396c.274-.828 1.446-.828 1.722 0m28.367 28.5 2.133 6.396 6.742.052c.873.007 1.235 1.121.533 1.639l-5.424 4.005 2.034 6.428c.263.832-.684 1.521-1.394 1.013l-5.485-3.921-5.485 3.921c-.71.508-1.658-.181-1.394-1.013l2.034-6.428-5.424-4.005c-.702-.518-.34-1.632.533-1.639l6.742-.052 2.133-6.396c.275-.828 1.446-.828 1.722 0m10.424 38.527 2.133 6.396 6.742.052c.873.007 1.235 1.121.533 1.639l-5.424 4.005 2.034 6.428c.263.832-.684 1.521-1.394 1.013l-5.485-3.921-5.485 3.921c-.71.508-1.658-.181-1.395-1.013l2.034-6.428-5.424-4.005c-.702-.518-.34-1.632.533-1.639l6.742-.052 2.133-6.396c.275-.828 1.446-.828 1.723 0" style="fill:#ffcd5a"/></svg>
