<svg xmlns="http://www.w3.org/2000/svg" xml:space="preserve" viewBox="0 0 512 512" width="48" height="48"><path d="M112 0C50.144 0 0 50.144 0 112v278.737L388.414 0z" style="fill:#73af00"/><path d="M400 512c61.856 0 112-50.144 112-112V121.263L123.586 512z" style="fill:#4173cd"/><path d="M400 0h-16.861L0 383.14V400c0 61.856 50.144 112 112 112h16.861L512 128.86V112C512 50.144 461.856 0 400 0" style="fill:#ffe15a"/><path d="M427.941 3.514 3.514 427.94c10.119 39.405 41.14 70.427 80.545 80.546L508.486 84.06c-10.119-39.405-41.14-70.427-80.545-80.546" style="fill:#464655"/></svg>
