<svg xmlns="http://www.w3.org/2000/svg" xml:space="preserve" viewBox="0 0 512 512" width="48" height="48"><path d="M400 0H112C50.144 0 0 50.144 0 112v288c0 61.856 50.144 112 112 112h288c61.856 0 112-50.144 112-112V112C512 50.144 461.856 0 400 0" style="fill:#ffe15a"/><path d="M97.672 112.951v286.096c0 28.926 23.449 52.375 52.375 52.375h349.471C507.492 436.022 512 418.538 512 400V112c0-18.539-4.509-36.023-12.482-51.423H150.047c-28.926 0-52.375 23.449-52.375 52.374" style="fill:#41479b"/><path d="M304.836 255.352V60.577l103.583.001zm0 1.295L512 159.26V112c0-14.983-2.949-29.274-8.287-42.336zm0 0H512v97.388zm0 0L97.674 159.261v97.387zM201.256 60.578l-51.233-.001c-14.212.006-27.093 5.682-36.526 14.878l191.339 179.897z" style="fill:#ff4b55"/><path d="M97.674 354.036v45.076c.018 14.678 6.081 27.934 15.825 37.433l191.338-179.898z" style="fill:#ff4b55"/><path d="M348.55 274.434c.659-1.866 1.235-3.768 1.653-5.735l50.408 4.471-49.587-10.023c.121-1.366.209-2.741.209-4.138 0-1.345-.089-2.668-.201-3.984l49.182-10.358-49.963 4.84c-.438-2.101-1.059-4.129-1.771-6.115l44.646-23.341-46.837 18.206a46.3 46.3 0 0 0-4.152-6.754l37.02-34.134-40.598 29.841c-4.305-4.563-9.5-8.27-15.342-10.793l14.745-47.981-19.988 46.098a46.4 46.4 0 0 0-13.131-1.915 46.3 46.3 0 0 0-13.233 1.941l-19.999-46.124 14.759 48.029c-5.822 2.531-10.999 6.236-15.288 10.796l-40.666-29.891 37.087 34.196a46 46 0 0 0-4.124 6.73l-46.932-18.243 44.741 23.391c-.704 1.974-1.321 3.988-1.755 6.075l-50.073-4.851 49.293 10.382c-.111 1.308-.2 2.623-.2 3.96 0 1.389.088 2.757.207 4.115l-49.698 10.046 50.518-4.48c.415 1.953.985 3.843 1.637 5.696l-44.552 22.766 46.705-17.655c7.571 15.331 23.318 25.902 41.573 25.902 18.241 0 33.977-10.554 41.556-25.866l46.609 17.619z" style="fill:#ffe15a"/><path d="M300.101 260.796 113.484 436.532c9.439 9.208 22.334 14.89 36.563 14.89h349.471a113 113 0 0 0 1.77-3.593q.253-.539.501-1.081.64-1.393 1.244-2.806.149-.343.294-.686l-193.755-182.46c-2.928-2.757-6.544-2.757-9.471 0" style="fill:#f5f5f5"/><circle cx="307.54" cy="359.1" r="1.568" style="fill:#ff4b55"/><path d="M305.145 306.587c4.703 5.814-2.907 8.721-1.967 14.279 0 0-1.539-2.309-.941-5.558.599-3.249-1.454-4.275-1.454-4.275s.941 3.677-1.368 5.729-1.625 6.755-1.625 6.755-2.907-1.967-2.309-4.959c0 0-3.933 3.42-.427 9.149 0 0-2.309-.171-3.164-1.625 0 0-2.047 6.028 6.201 10.624 8.249 4.596 9.446-6.349 9.446-6.349l5.9 7.353s7.068-.199 10.431-7.781l-4.047.741c.257-2.138 5.672-2.708 3.534-9.12 0 0-.171 1.368-1.71 2.309 0 0 .057-4.418-3.135-7.325 0 0-.114 2.366-1.14 3.221 0 0 .342-3.05-1.539-5.444-1.798-2.288-1.967-4.389-1.967-4.389s-2.138 3.933-1.368 5.9c0 0-1.783-.433-1.967-2.822-.397-5.187-5.384-6.413-5.384-6.413" style="fill:#ff4b55"/><ellipse cx="307.54" cy="353.25" rx="13.345" ry="5.719" style="fill:#ffe15a"/><ellipse cx="307.54" cy="352" rx="11.539" ry="5.171" style="fill:#ff4b55"/><path d="M309.954 352.674h-4.838c-.086 1.509.598 3.697 2.415 4.491v.005l.002-.002.005.002v-.005c1.819-.794 2.502-2.983 2.416-4.491" style="fill:#ff82aa"/><path d="m313.801 351.743-4.389 1.03c.267 1.487 1.387 3.472 3.217 3.858l.001.005.003-.003.003.002v-.005c1.467-1.16 1.587-3.437 1.165-4.887" style="fill:#ff82aa"/><path d="m316.072 350.167-3.056 2.002c.773 1.297 2.404 2.845 3.987 2.757l.003.004.001-.004.004.001-.003-.004c.713-1.416-.055-3.53-.936-4.756" style="fill:#ff82aa"/><path d="m315.982 347.073-1.202 3.035c1.63 2.074 4.302 1.86 4.302 1.86.107-1.688-1.999-3.861-3.1-4.895m-14.752 4.67 4.389 1.03c-.267 1.487-1.387 3.472-3.217 3.858l-.001.005-.003-.003-.004.002.001-.005c-1.468-1.16-1.588-3.437-1.165-4.887" style="fill:#ff82aa"/><path d="m298.958 350.167 3.056 2.002c-.773 1.297-2.404 2.845-3.987 2.757l-.003.004-.001-.004-.004.001.003-.004c-.713-1.416.056-3.53.936-4.756" style="fill:#ff82aa"/><path d="m299.048 347.073 1.202 3.035c-1.63 2.074-4.302 1.86-4.302 1.86-.106-1.688 2-3.861 3.1-4.895" style="fill:#ff82aa"/><ellipse cx="307.54" cy="348.86" rx="9.366" ry="4.197" style="fill:#ffe15a"/><ellipse cx="307.54" cy="348.86" rx="6.968" ry="2.727" style="fill:#ff4b55"/><path d="M308.242 396.021c-4.555.387-8.556-2.999-8.945-7.547a4.136 4.136 0 1 1 8.243-.702 4.136 4.136 0 1 0 8.243-.702 8.28 8.28 0 0 1-7.541 8.951" style="fill:#41479b"/><path d="M299.297 388.474a4.136 4.136 0 1 1 8.243-.702 4.136 4.136 0 1 0 8.243-.702c-.381-4.559-4.387-7.933-8.942-7.546a8.28 8.28 0 0 0-7.544 8.95" style="fill:#ff9b55"/><path d="M307.539 374.228c-7.48 0-13.543 6.063-13.543 13.543s6.063 13.543 13.543 13.543 13.543-6.064 13.543-13.543c0-7.48-6.063-13.543-13.543-13.543m0 24.265c-5.922 0-10.722-4.8-10.722-10.722s4.8-10.722 10.722-10.722 10.722 4.8 10.722 10.722-4.801 10.722-10.722 10.722" style="fill:#ffe15a"/><path d="M307.539 377.049c-5.922 0-10.722 4.8-10.722 10.722s4.8 10.722 10.722 10.722 10.722-4.8 10.722-10.722-4.801-10.722-10.722-10.722m0 18.935a8.213 8.213 0 1 1 0-16.426 8.213 8.213 0 0 1 0 16.426" style="fill:#ff4b55"/><circle cx="303.37" cy="387.77" r="1.034" style="fill:#ff9b55"/><circle cx="311.65" cy="387.77" r="1.034" style="fill:#41479b"/><circle cx="307.54" cy="370.9" r="1.253" style="fill:#ff4b55"/><circle cx="308.79" cy="373.09" r="1.253" style="fill:#ff4b55"/><circle cx="306.29" cy="373.09" r="1.253" style="fill:#ff4b55"/><circle cx="307.54" cy="404.68" r="1.253" style="fill:#ff4b55"/><circle cx="306.29" cy="402.49" r="1.253" style="fill:#ff4b55"/><circle cx="308.79" cy="402.49" r="1.253" style="fill:#ff4b55"/><path d="M305.247 335.424c-.861-4.803-3.16-8.41-5.135-8.056s-2.879 4.535-2.018 9.338c.621 3.466 1.997 6.252 3.454 7.434-.601 1.032-.968 2.605-.976 4.555 1.082.092 2.197.087 3.342-.118 1.144-.205 2.192-.587 3.175-1.05-.685-1.825-1.575-3.173-2.497-3.932.954-1.615 1.276-4.705.655-8.171" style="fill:#ff9b55"/><path d="M309.803 335.424c.861-4.803 3.16-8.41 5.136-8.056s2.879 4.535 2.018 9.338c-.621 3.466-1.997 6.252-3.454 7.434.601 1.032.968 2.605.976 4.555-1.082.092-2.197.087-3.342-.118s-2.192-.587-3.175-1.05c.685-1.825 1.575-3.173 2.497-3.932-.954-1.615-1.277-4.705-.656-8.171" style="fill:#41479b"/><path d="M311.212 335.312c0-5.291-1.627-9.58-3.634-9.58s-3.634 4.289-3.634 9.58c0 3.818.862 7.055 2.088 8.595-.774.987-1.412 2.595-1.764 4.674 1.049.306 2.147.513 3.31.513s2.261-.208 3.31-.513c-.352-2.079-.99-3.688-1.764-4.674 1.226-1.54 2.088-4.777 2.088-8.595" style="fill:#f5f5f5"/><path d="M307.539 345.319c-2.367 0-4.539-.22-5.951-.61a.903.903 0 0 1-.639-1.114c.135-.483.646-.802 1.114-.632 2.498.667 8.453.667 10.951 0 .486-.178.983.149 1.114.632a.9.9 0 0 1-.639 1.114c-1.411.39-3.583.61-5.95.61m-7.781 14.366c.983-.128 2.223-.427 2.309-1.924 0 0-2.223-.214-2.223-.043-.001.172-.086 1.967-.086 1.967" style="fill:#ffe15a"/><path d="M277.441 354.127c1.112.314 2.195.542 2.537 1.91 0 0 1.14-2.28-.456-3.648-.29-.249-2.081 1.738-2.081 1.738m4.732-3.819c1.112.314 2.195.542 2.537 1.91 0 0 1.14-2.28-.456-3.648-.291-.249-2.081 1.738-2.081 1.738" style="fill:#ff4b55"/><path d="M277.784 358.232c-.684-.171-1.881-1.71-.342-4.104s-5.216 1.197-5.472 3.164-.513 5.472 1.026 4.532c1.538-.942 4.788-3.592 4.788-3.592" style="fill:#ffe15a"/><path d="M285.108 358.488c.228-1.254 0-2.109 1.596-3.249s1.824-1.767 1.824-2.508c0 0-.869.926-2.408 1.311-.942.235-1.753.912-1.753.912s-.399-1.425 1.026-2.223c0 0-2.508 0-2.907 2.28s.912 2.622-.969 2.85-6.27-.684-7.809 2.793 3.135.969 4.389.513 5.244.513 5.871-.342 1.14-2.337 1.14-2.337" style="fill:#ff4b55"/><path d="m268.677 364.73 6.755-11.116s6.712-2.594 6.769-2.936 2.223-3.135 2.223-3.534-.228-2.337-1.083-2.679-3.578.807-4.76 1.109-3.049-1.907-3.049-1.907-10.887 2.052-11.685 3.363-4.56 10.716-4.731 11.686c-.171.969 0 7.638.228 7.524.227-.114 9.333-1.51 9.333-1.51" style="fill:#fff5e6"/><path d="M284.823 345.491c-1.026-1.482-2.907-1.482-3.705-.285s-2.508 1.197-2.907 2.679c-.315 1.17 1.596 3.306 2.736 2.907s3.249-1.71 3.249-1.71 1.653-2.109.627-3.591m-3.121 3.018c-.468.598-1.643-.146-1.65-.81-.008-.664.972-.701 1.46-.356.318.225.572.679.19 1.166m1.757-1.477c-.684.329-1.41-.856-1.124-1.455s1.182-.2 1.467.325c.187.342.214.862-.343 1.13" style="fill:#ff4b55"/><path d="M286.984 388.613c1.136.113 2.64-.041 2.953-2.612.358-2.945 1.249-3.975 2.725-3.293s1.11 1.858 1.11 1.858 1.625 4.275.77 5.985-2.822 3.762-4.275 4.104-4.446-1.625-4.446-1.625z" style="fill:#fff5e6"/><path d="M278.781 378.667c.969-.456 12.94-8.778 14.365-11.914s.627-5.415 2.508-5.529 5.073-.228 4.788-2.565-3.42-.855-4.275-1.311-3.534-1.71-4.047.114 0 3.477-.741 4.389-4.047 2.508-4.617 2.394-1.788-.263-2.718.325c-.93.587-1.443 1.385-1.443 1.385s-3.506.143-4.004.613c-.499.47-2.38 2.978-2.38 2.978z" style="fill:#ffe6d7"/><path d="M280.035 376.786s2.28-.855 3.905-4.019 3.249-1.881 5.643-3.591.855-4.275.171-5.301-.214-3.677 2.138-3.591c1.547.056 6.498 4.874 4.275 9.662 0 0-.342-.855-1.197-1.881 0 0 1.283 3.164-1.71 6.669 0 0 .085-1.796-.855-2.993 0 0-.086 4.446-3.506 7.268 0 0 .428-2.907-.086-4.104 0 0-.513 3.848-5.558 7.353 0 0 .77-1.368.598-3.591l-4.275 2.223z" style="fill:#5aa587"/><path d="M247.515 391.407s-1.539 4.703 2.651 6.071 6.498-.427 8.037 0 1.197 3.164-.941 5.472-4.275 2.565-6.669.855-2.565-3.249-5.045-2.651-5.9-1.796-5.9-1.796 2.223-9.662 2.48-9.576 5.387 1.625 5.387 1.625" style="fill:#f5dcd2"/><path d="M225.776 379.642s2.953-2.839 14.422-6.359 17.602-4.997 17.602-4.997l8.971-2.839s4.222-.016 6.994-.803l2.772-.787s7.381 10.448 1.817 21.008l1.931 1.817s2.029.619 3.57 1.161.405 3.494.405 3.494l-5.905 2.725-17.261-.795s-.341-.795-6.019 1.022-8.176-2.271-19.078-2.612c-10.902-.338-10.221-12.035-10.221-12.035" style="fill:#fff5e6"/><path d="M274.848 338.879s1.739 1.739.798 3.591c0 0-1.938-1.995-3.534-2.451-2.457-.702-2.964.641-8.394.898-3.417.161-4.796 3.435-8.137 2.636-3.577-.855-6.526.784-6.526.784s2.052-.256 3.719 1.325 4.617 1.239 4.617 1.239-2.693 1.881-4.959.983-5.515.77-5.515.77c.598-.043 1.924.171 3.42 1.753s4.831 1.197 4.831 1.197c-.598.727-2.266 1.539-3.841 1.237-3.57-.684-7.381.908-7.381.908s2.271-.795 5.337 1.476 6.587.908 6.587.908c0 1.476-3.073 7.163-8.525 6.97-6.788-.241-8.509 3.705-8.509 3.705s2.725-.908 6.246-.341c6.819 1.1 11.47-2.839 11.47-2.839s-1.136 5.337-5.792 5.11-10.561 4.542-10.561 4.542 5.246-.945 12.02-1.029c2.228-.028 4.04-.906 5.588-1.951 4.073-2.751 7.836-2.752 7.836-2.752-4.446 1.026-6.755 5.9-6.755 5.9s3.42-2.992 8.379-2.992 6.499-5.814 6.499-5.814c-4.617.085-5.301-3.677-5.301-3.677s-1.368.428-2.65 1.967c-.811.973-2.183 1.304-3.122 1.435-.342-2.999 1.922-5.736 1.922-5.736s-3.066-4.656.909-9.653 13.059-3.407 13.059-3.407c.939-4.184-2.595-6.806-3.735-6.692" style="fill:#5aa587"/><path d="M265.613 355.41c1.482-.228 8.379-2.508 8.265-5.586s-4.218-1.995-3.99-.342 1.71 1.311 1.71 1.311-.143.745-3.192 1.368c-2.508.513-2.793 3.249-2.793 3.249m18.241 32.434s4.275-.684 4.104 2.394-2.622 6.327-7.695 7.752c0 0 1.881-1.625 1.454-2.565-.428-.941-2.565-1.197-3.677.427s-2.993 2.309-4.617 2.052c0 0 2.907-2.138.855-2.907-1.848-.693-1.14 2.309-5.558 2.822 0 0 3.249-2.565 1.368-3.249s-2.907 3.762-6.242 3.42c0 0 2.793-2.793 1.283-3.249-2.379-.718-2.993 3.42-7.268 1.625 0 0 2.138-.94.428-3.249s.684-5.216 1.881-6.413 2.052-1.967 1.71-3.164c0 0 3.05 1.91 1.511 5.273-1.445 3.158 4.405 1.414 8.949 1.026 4.674-.399 7.448 2.281 10.432 1.368 2.792-.855 1.082-3.363 1.082-3.363m-82.721 1.451s5.609 2.587 8.789-.025 4.044.48 7.791-1.792 3.52-1.022 6.473-1.022 5.11-4.77 3.293-8.063c0 0 6.167-2.391 4.902-7.336-.941-3.677-5.583-2.544-5.583-2.544s-4.899-3.08-8.29.908c-2.772 3.26-1.249 5.451-5.905 6.019s-5.337 5.337-10.334 4.769c0 0 3.407 4.429 8.63 1.59.001.001-.122 4.278-9.766 7.496m49.631 8.354s4.788 4.275-4.617 6.84c0 0 .599-.77 1.283-2.138 0 0-2.907 2.138-6.669 1.967 0 0 1.112-.855 1.368-1.881 0 0-3.42.94-5.9-.684 0 0 2.993-.171 4.874-2.993 0 0 .855 1.71 2.651.855s2.825.375 4.446.427c1.325.044 2.479-.64 2.564-2.393m-2.365-26.392s-3.42 1.596-1.824 4.617c1.064 2.014 4.397 2.498 5.7.627 1.111-1.596.23-3.145-.941-3.363-1.226-.228-1.967.285-2.537 1.311.001 0-2.108-.798-.398-3.192" style="fill:#5aa587"/><path d="M263.761 376.572s7.427.282 7.054 5.429c-.164 2.264-3.227 3.846-5.159 2.658-1.649-1.013-1.382-2.701-.522-3.449.947-.824 1.885-.527 2.815.182-.001.001.472-2.811-4.188-4.82m14.835-10.004s4.009-2.689 5.569.512c.687 1.409-.594 3.414-2.159 3.374-1.335-.034-1.76-1.134-1.506-1.878.28-.82.943-.967 1.743-.866 0 0 .243-2.082-3.647-1.142m5.447-1.998s3.698-2.481 5.137.473c.633 1.299-.548 3.149-1.992 3.112-1.232-.031-1.624-1.046-1.389-1.733.258-.757.869-.892 1.608-.799.001 0 .225-1.921-3.364-1.053" style="fill:#5aa587"/><path d="M270.192 380.971s6.391.243 6.07 4.672c-.141 1.948-2.776 3.309-4.44 2.287-1.419-.872-1.495-2.472-.879-3.235 1.069-1.325 2.351-.727 2.351-.727s.908-1.268-3.102-2.997" style="fill:#5aa587"/><path d="M274.876 384.481s7.054-.684 6.53 4.077c-.137 1.242-1.776 2.117-2.84 1.463-.908-.558-.957-1.581-.563-2.07.684-.848 1.504-.465 1.504-.465s-.441-2.107-4.631-3.005" style="fill:#5aa587"/><path d="M229.637 407.124s.965 1.96 1.59 3.861c.534 1.627 3.293 2.725 4.77 1.703s3.969-4.076 2.947-4.757-5.445-.126-6.127-2.51-.454-3.975-.454-3.975 5.918 1.761 8.74-2.685 2.418-8.788 3.524-10.942c.865-1.684 2.385-2.498 2.385-2.498-1.739-6.883-22.939-11.81-20.479 6.056l-3.331 7.571z" style="fill:#ffe6d7"/><path d="M222.121 406.826c1.454.941 6.783 3.648 10.089 1.596 2.704-1.678 2.736-3.591 1.026-4.019s-2.651.769-3.591 0c-.941-.77-6.242-5.13-4.275-6.498s3.031-2.475 2.993-4.874c-.029-1.767-1.568-3.477-3.392-3.648-2.275-.213-4.047.741-6.441.741l2.793 1.425c-1.796.855-1.938 3.278-4.076 3.705 0 0 1.454 1.653 3.278 1.14 0 0-.627 1.71-2.337 1.938 0 0 1.596 1.824 3.078 2.337 0 0-.969.684-2.48.399 0 0 2.366 3.477 5.9 4.361z" style="fill:#5aa587"/><path d="M232.421 400.315s.95-.164 1.031-1.321c.047-.667-.619-1.531-1.751-1.466-1.327.076-2.227 1.838-1.591 3.006 1.628 2.988 7.686 1.789 8.427.705 0 .001-4.845.229-6.116-.924" style="fill:#5aa587"/><path d="M235.26 414.521c.264-.371.477-1.375-.036-1.995 0 0 .278-1.432 1.368-.919 0 0 .463 1.147.093 1.945-.371.798-1.425.969-1.425.969" style="fill:#ffe15a"/><path d="M237.484 413.718c-.019-1.033-.25-1.598-1.084-1.683 0 0-.214-1.496 1.026-1.496 0 0 .919.812.928 1.692.008.879-.87 1.487-.87 1.487" style="fill:#ffe15a"/><path d="M238.858 412.717c-.203-1.013-.395-1.718-1.323-1.787 0 0-.494-1.225.874-1.396 0 0 .872.699 1.038 1.564.166.863-.589 1.619-.589 1.619" style="fill:#ffe15a"/><path d="M240.233 411.146c-.421-.943-.84-1.322-1.76-1.185 0 0-.791-1.111.299-1.71 0 0 1.327.379 1.679 1.185.353.807-.218 1.71-.218 1.71m16.231-5.783c.194-.411.226-1.438-.389-1.957 0 0 .019-1.459 1.183-1.147 0 0 .659 1.047.436 1.898-.222.851-1.23 1.206-1.23 1.206" style="fill:#ffe15a"/><path d="M258.511 404.178c-.202-1.013-.53-1.528-1.366-1.464 0 0-.476-1.435.744-1.655 0 0 1.048.636 1.213 1.5s-.591 1.619-.591 1.619" style="fill:#ffe15a"/><path d="M259.685 402.948c-.38-.961-.694-1.62-1.619-1.523 0 0-.703-1.118.613-1.529 0 0 .982.534 1.299 1.354s-.293 1.698-.293 1.698" style="fill:#ffe15a"/><path d="M260.76 401.158c-.582-.854-1.061-1.151-1.942-.853 0 0-.976-.954-.009-1.736 0 0 1.373.137 1.863.868.489.731.088 1.721.088 1.721" style="fill:#ffe15a"/><path d="M284.88 348.513c.185.925-.285 1.938-2.508 2.907s-2.166.57-3.648 2.451-1.653 1.938-3.477 2.28-2.679 5.985-.513 5.13 2.451-2.622 4.845-2.052 3.648 1.368 5.529-.741c0 0 1.824 2.451-1.596 3.477s-5.286 1.105-6.975 1.892-7.68 2.711-8.073-2.89c-.114-1.624 1.083-2.251 1.767-3.448s1.368-1.995 3.021-3.306.627-2.394 3.306-2.793 4.902-.342 5.7-2.28 2.394-1.767 2.622-.627" style="fill:#ffe6d7"/><path d="M239.991 375.688s-.514-2.043 1.868-2.908c-.56.17-1.073.322-1.661.503-.501.154-.898.298-1.368.449-.183.247-.428.378-.552.724-.724 2.029 1.068 4.662 3.205 4.375 1.823-.245 2.34-1.85 1.744-2.805-.623-1.001-1.996-1.235-3.236-.338m.738 21.684c-2.584.578-3.748-.42-3.748-.42s.95-.165 1.031-1.321c.047-.667-.619-1.531-1.751-1.466-1.327.076-2.227 1.838-1.591 3.007 1.4 2.57 5.378 1.962 7.131.141.092-.188.188-.374.271-.56-.384.24-.875.514-1.343.619m2.612-4.321c.066-.293.159-.587.214-.868-3.038 1.229-3.924-.319-3.924-.319s.95-.164 1.031-1.321c.047-.667-.619-1.531-1.751-1.466-1.327.076-2.227 1.838-1.591 3.006 1.485 2.726 4.131 1.968 6.021.968m6.834 1.446c-1.766 1.582-3.115 1.495-3.115 1.495s.706-.656.142-1.67c-.325-.585-1.354-.945-2.267-.272-1.07.788-.863 2.756.308 3.388 2.882 1.553 4.753-.849 5.754-2.784-.273-.037-.548-.101-.822-.157" style="fill:#5aa587"/><path d="M295.68 392.966c-.128-.63-.788-1.829-1.599-1.911 0 0-.958-1.681.131-2.292 0 0 1.197.648 1.595 1.804.399 1.158-.127 2.399-.127 2.399" style="fill:#ffe15a"/><path d="M296.44 389.915c-.828-.989-1.42-1.304-2.01-.538 0 0-1.317-1.243-.539-2.506 0 0 1.218-.144 1.919.706.7.849.63 2.338.63 2.338" style="fill:#ffe15a"/><path d="M296.51 387.537c-.928-.781-1.605-1.274-2.242-.395 0 0-1.278-.693-.556-2.254 0 0 1.1-.206 1.887.468.788.673.911 2.181.911 2.181" style="fill:#ffe15a"/><path d="M296.13 384.601c-1.01-.492-1.571-.434-2.04.638 0 0-1.374-.279-1.164-1.974 0 0 1.132-.983 1.99-.555s1.214 1.891 1.214 1.891" style="fill:#ffe15a"/><path d="M275.595 351.109a1.607 1.607 0 0 1-2.084 2.084 1.52 1.52 0 0 1-.892-.892 1.607 1.607 0 0 1 2.084-2.084c.408.149.743.484.892.892" style="fill:#f5f5f5"/><path d="M274.637 351.466c.202.5-.27.972-.77.769a.54.54 0 0 1-.292-.292.584.584 0 0 1 .77-.769.54.54 0 0 1 .292.292" style="fill:#41479b"/><path d="M278.628 345.45a1.303 1.303 0 0 1-1.655 1.655 1.26 1.26 0 0 1-.802-.802 1.303 1.303 0 0 1 1.655-1.655c.373.119.682.428.802.802" style="fill:#f5f5f5"/><path d="M277.83 345.684a.474.474 0 0 1-.624.624.44.44 0 0 1-.239-.239.474.474 0 0 1 .624-.624.43.43 0 0 1 .239.239" style="fill:#41479b"/><path d="M231.355 377.213c-1.476 1.136-6.584-1.368-10.175-.171-4.641 1.547-4.602 4.53-4.602 4.53s2.892-3.59 7.709-1.823c2.665.978 4.215 1.028 4.215 1.028z" style="fill:#fff5e6"/><path d="M315.238 359.685c-.983-.128-2.223-.427-2.309-1.924 0 0 2.223-.214 2.223-.043 0 .172.086 1.967.086 1.967" style="fill:#ffe15a"/><path d="M337.554 354.127c-1.111.314-2.194.542-2.537 1.91 0 0-1.14-2.28.456-3.648.291-.249 2.081 1.738 2.081 1.738m-4.731-3.819c-1.112.314-2.195.542-2.537 1.91 0 0-1.14-2.28.456-3.648.291-.249 2.081 1.738 2.081 1.738" style="fill:#ff4b55"/><path d="M337.212 358.232c.684-.171 1.881-1.71.342-4.104s5.216 1.197 5.472 3.164.513 5.472-1.026 4.532c-1.539-.942-4.788-3.592-4.788-3.592" style="fill:#ffe15a"/><path d="M329.887 358.488c-.228-1.254 0-2.109-1.596-3.249s-1.824-1.767-1.824-2.508c0 0 .869.926 2.408 1.311.942.235 1.753.912 1.753.912s.399-1.425-1.026-2.223c0 0 2.508 0 2.907 2.28s-.912 2.622.969 2.85 6.27-.684 7.809 2.793-3.135.969-4.389.513-5.244.513-5.871-.342-1.14-2.337-1.14-2.337" style="fill:#ff4b55"/><path d="m346.318 364.73-6.755-11.116s-6.712-2.594-6.769-2.936-2.223-3.135-2.223-3.534.228-2.337 1.083-2.679 3.578.807 4.76 1.109 3.049-1.907 3.049-1.907 10.888 2.052 11.686 3.363 4.56 10.716 4.731 11.686c.171.969 0 7.638-.228 7.524s-9.334-1.51-9.334-1.51" style="fill:#fff5e6"/><path d="M330.799 349.083s2.109 1.311 3.249 1.71 3.051-1.737 2.736-2.907c-.399-1.482-2.109-1.482-2.907-2.679s-2.679-1.197-3.705.285.627 3.591.627 3.591m2.685-1.74c.488-.345 1.468-.307 1.46.356-.008.664-1.182 1.408-1.65.81-.382-.487-.128-.941.19-1.166m-2.291-1.441c.286-.525 1.181-.924 1.467-.325s-.439 1.784-1.124 1.455c-.557-.268-.53-.788-.343-1.13" style="fill:#ff4b55"/><path d="M328.011 388.613c-1.136.113-2.64-.041-2.952-2.612-.358-2.945-1.249-3.975-2.725-3.293s-1.11 1.858-1.11 1.858-1.625 4.275-.77 5.985 2.822 3.762 4.275 4.104 4.446-1.625 4.446-1.625z" style="fill:#fff5e6"/><path d="M336.215 378.667c-.969-.456-12.94-8.778-14.365-11.914s-.627-5.415-2.508-5.529-5.073-.228-4.788-2.565 3.42-.855 4.275-1.311 3.534-1.71 4.047.114 0 3.477.741 4.389 4.047 2.508 4.617 2.394 1.787-.263 2.718.325c.93.587 1.443 1.385 1.443 1.385s3.506.143 4.004.613c.499.47 2.38 2.978 2.38 2.978z" style="fill:#ffe6d7"/><path d="M334.96 376.786s-2.28-.855-3.905-4.019-3.249-1.881-5.643-3.591-.855-4.275-.171-5.301.214-3.677-2.138-3.591c-1.548.056-6.498 4.874-4.275 9.662 0 0 .342-.855 1.197-1.881 0 0-1.283 3.164 1.71 6.669 0 0-.086-1.796.855-2.993 0 0 .085 4.446 3.506 7.268 0 0-.428-2.907.086-4.104 0 0 .513 3.848 5.558 7.353 0 0-.77-1.368-.599-3.591l4.275 2.223z" style="fill:#5aa587"/><path d="M367.48 391.407s1.539 4.703-2.651 6.071-6.498-.427-8.037 0-1.197 3.164.941 5.472 4.275 2.565 6.669.855 2.565-3.249 5.045-2.651 5.9-1.796 5.9-1.796-2.223-9.662-2.48-9.576c-.256.086-5.387 1.625-5.387 1.625" style="fill:#f5dcd2"/><path d="M389.22 379.642s-2.953-2.839-14.422-6.359-17.602-4.997-17.602-4.997l-8.971-2.839s-4.222-.016-6.994-.803l-2.772-.787s-7.381 10.448-1.817 21.008l-1.931 1.817s-2.029.619-3.57 1.161-.405 3.494-.405 3.494l5.905 2.725 17.261-.795s.341-.795 6.019 1.022 8.176-2.271 19.078-2.612c10.902-.338 10.221-12.035 10.221-12.035" style="fill:#fff5e6"/><path d="M340.148 338.879s-1.739 1.739-.798 3.591c0 0 1.938-1.995 3.534-2.451 2.457-.702 2.964.641 8.394.898 3.417.161 4.796 3.435 8.137 2.636 3.577-.855 6.526.784 6.526.784s-2.052-.256-3.719 1.325-4.617 1.239-4.617 1.239 2.693 1.881 4.959.983 5.515.77 5.515.77c-.598-.043-1.924.171-3.42 1.753s-4.831 1.197-4.831 1.197c.598.727 2.266 1.539 3.841 1.237 3.57-.684 7.381.908 7.381.908s-2.271-.795-5.337 1.476-6.586.908-6.586.908c0 1.476 3.073 7.163 8.525 6.97 6.788-.241 8.509 3.705 8.509 3.705s-2.725-.908-6.246-.341c-6.819 1.1-11.469-2.839-11.469-2.839s1.136 5.337 5.792 5.11 10.561 4.542 10.561 4.542-5.246-.945-12.02-1.029c-2.228-.028-4.04-.906-5.588-1.951-4.074-2.751-7.836-2.752-7.836-2.752 4.446 1.026 6.754 5.9 6.754 5.9s-3.42-2.992-8.379-2.992-6.499-5.814-6.499-5.814c4.617.085 5.301-3.677 5.301-3.677s1.368.428 2.65 1.967c.811.973 2.183 1.304 3.122 1.435.342-2.999-1.922-5.736-1.922-5.736s3.066-4.656-.909-9.653-13.059-3.407-13.059-3.407c-.94-4.184 2.594-6.806 3.734-6.692" style="fill:#5aa587"/><path d="M349.382 355.41c-1.482-.228-8.379-2.508-8.265-5.586s4.218-1.995 3.99-.342-1.71 1.311-1.71 1.311.144.745 3.192 1.368c2.508.513 2.793 3.249 2.793 3.249m-18.241 32.434s-4.275-.684-4.104 2.394 2.622 6.327 7.695 7.752c0 0-1.881-1.625-1.453-2.565.427-.941 2.565-1.197 3.677.427s2.993 2.309 4.617 2.052c0 0-2.907-2.138-.855-2.907 1.848-.693 1.14 2.309 5.558 2.822 0 0-3.249-2.565-1.368-3.249s2.907 3.762 6.242 3.42c0 0-2.793-2.793-1.283-3.249 2.379-.718 2.993 3.42 7.268 1.625 0 0-2.138-.94-.428-3.249s-.684-5.216-1.881-6.413-2.052-1.967-1.71-3.164c0 0-3.05 1.91-1.511 5.273 1.445 3.158-4.405 1.414-8.949 1.026-4.674-.399-7.448 2.281-10.431 1.368-2.794-.855-1.084-3.363-1.084-3.363m82.721 1.451s-5.609 2.587-8.789-.025-4.044.48-7.791-1.792-3.52-1.022-6.473-1.022-5.11-4.77-3.293-8.063c0 0-6.167-2.391-4.902-7.336.941-3.677 5.583-2.544 5.583-2.544s4.899-3.08 8.29.908c2.772 3.26 1.249 5.451 5.905 6.019s5.337 5.337 10.334 4.769c0 0-3.407 4.429-8.631 1.59.001.001.123 4.278 9.767 7.496m-49.631 8.354s-4.788 4.275 4.617 6.84c0 0-.599-.77-1.283-2.138 0 0 2.907 2.138 6.669 1.967 0 0-1.112-.855-1.368-1.881 0 0 3.42.94 5.9-.684 0 0-2.993-.171-4.874-2.993 0 0-.855 1.71-2.651.855s-2.825.375-4.446.427c-1.324.044-2.478-.64-2.564-2.393m2.366-26.392s3.42 1.596 1.824 4.617c-1.064 2.014-4.397 2.498-5.7.627-1.112-1.596-.23-3.145.94-3.363 1.226-.228 1.967.285 2.537 1.311 0 0 2.109-.798.399-3.192" style="fill:#5aa587"/><path d="M351.235 376.572s-7.427.282-7.054 5.429c.164 2.264 3.227 3.846 5.159 2.658 1.649-1.013 1.382-2.701.522-3.449-.947-.824-1.885-.527-2.815.182 0 .001-.472-2.811 4.188-4.82M336.4 366.568s-4.009-2.689-5.569.512c-.686 1.409.594 3.414 2.159 3.374 1.335-.034 1.76-1.134 1.506-1.878-.28-.82-.943-.967-1.743-.866-.001 0-.244-2.082 3.647-1.142m-5.448-1.998s-3.698-2.481-5.137.473c-.633 1.299.548 3.149 1.992 3.112 1.232-.031 1.624-1.046 1.389-1.733-.258-.757-.87-.892-1.608-.799 0 0-.225-1.921 3.364-1.053" style="fill:#5aa587"/><path d="M344.803 380.971s-6.391.243-6.07 4.672c.141 1.948 2.777 3.309 4.44 2.287 1.419-.872 1.495-2.472.88-3.235-1.069-1.325-2.351-.727-2.351-.727s-.909-1.268 3.101-2.997" style="fill:#5aa587"/><path d="M340.119 384.481s-7.054-.684-6.53 4.077c.137 1.242 1.776 2.117 2.84 1.463.908-.558.957-1.581.563-2.07-.684-.848-1.504-.465-1.504-.465s.442-2.107 4.631-3.005" style="fill:#5aa587"/><path d="M385.359 407.124s-.965 1.96-1.59 3.861c-.534 1.627-3.293 2.725-4.77 1.703s-3.969-4.076-2.947-4.757 5.445-.126 6.127-2.51.454-3.975.454-3.975-5.918 1.761-8.74-2.685-2.418-8.788-3.524-10.942c-.865-1.684-2.385-2.498-2.385-2.498 1.738-6.883 22.939-11.81 20.478 6.056l3.331 7.571z" style="fill:#ffe6d7"/><path d="M392.875 406.826c-1.454.941-6.783 3.648-10.09 1.596-2.704-1.678-2.736-3.591-1.026-4.019s2.651.769 3.591 0c.941-.77 6.242-5.13 4.275-6.498s-3.031-2.475-2.993-4.874c.029-1.767 1.568-3.477 3.392-3.648 2.275-.213 4.047.741 6.441.741l-2.793 1.425c1.796.855 1.938 3.278 4.076 3.705 0 0-1.454 1.653-3.278 1.14 0 0 .627 1.71 2.337 1.938 0 0-1.596 1.824-3.078 2.337 0 0 .969.684 2.48.399 0 0-2.366 3.477-5.9 4.361z" style="fill:#5aa587"/><path d="M382.575 400.315s-.95-.164-1.031-1.321c-.047-.667.619-1.531 1.751-1.466 1.327.076 2.228 1.838 1.591 3.006-1.628 2.988-7.686 1.789-8.427.705-.001.001 4.844.229 6.116-.924" style="fill:#5aa587"/><path d="M379.736 414.521c-.264-.371-.477-1.375.036-1.995 0 0-.278-1.432-1.368-.919 0 0-.463 1.147-.093 1.945s1.425.969 1.425.969" style="fill:#ffe15a"/><path d="M377.512 413.718c.019-1.033.25-1.598 1.084-1.683 0 0 .214-1.496-1.026-1.496 0 0-.919.812-.928 1.692s.87 1.487.87 1.487" style="fill:#ffe15a"/><path d="M376.137 412.717c.203-1.013.395-1.718 1.323-1.787 0 0 .494-1.225-.874-1.396 0 0-.872.699-1.038 1.564-.166.863.589 1.619.589 1.619" style="fill:#ffe15a"/><path d="M374.762 411.146c.421-.943.84-1.322 1.76-1.185 0 0 .791-1.111-.299-1.71 0 0-1.327.379-1.679 1.185-.353.807.218 1.71.218 1.71m-16.231-5.783c-.194-.411-.226-1.438.389-1.957 0 0-.019-1.459-1.183-1.147 0 0-.659 1.047-.436 1.898s1.23 1.206 1.23 1.206" style="fill:#ffe15a"/><path d="M356.485 404.178c.202-1.013.53-1.528 1.366-1.464 0 0 .476-1.435-.744-1.655 0 0-1.049.636-1.213 1.5-.166.864.591 1.619.591 1.619" style="fill:#ffe15a"/><path d="M355.31 402.948c.38-.961.694-1.62 1.619-1.523 0 0 .703-1.118-.612-1.529 0 0-.982.534-1.299 1.354s.292 1.698.292 1.698" style="fill:#ffe15a"/><path d="M354.236 401.158c.582-.854 1.061-1.151 1.942-.853 0 0 .976-.954.009-1.736 0 0-1.374.137-1.863.868-.49.731-.088 1.721-.088 1.721" style="fill:#ffe15a"/><path d="M330.115 348.513c-.185.925.285 1.938 2.508 2.907s2.166.57 3.648 2.451 1.653 1.938 3.477 2.28 2.679 5.985.513 5.13-2.451-2.622-4.845-2.052-3.648 1.368-5.529-.741c0 0-1.824 2.451 1.596 3.477s5.286 1.105 6.975 1.892 7.68 2.711 8.073-2.89c.114-1.624-1.083-2.251-1.767-3.448s-1.368-1.995-3.021-3.306-.627-2.394-3.306-2.793-4.902-.342-5.7-2.28-2.394-1.767-2.622-.627" style="fill:#ffe6d7"/><path d="M375.005 375.688s.514-2.043-1.868-2.908c.56.17 1.073.322 1.661.503.501.154.898.298 1.368.449.183.247.428.378.552.724.724 2.029-1.068 4.662-3.205 4.375-1.823-.245-2.34-1.85-1.744-2.805.623-1.001 1.996-1.235 3.236-.338m-.738 21.684c2.584.578 3.748-.42 3.748-.42s-.95-.165-1.031-1.321c-.047-.667.619-1.531 1.751-1.466 1.327.076 2.227 1.838 1.591 3.007-1.4 2.57-5.378 1.962-7.131.141-.092-.188-.188-.374-.271-.56.383.24.874.514 1.343.619m-2.612-4.321c-.066-.293-.159-.587-.214-.868 3.038 1.229 3.924-.319 3.924-.319s-.95-.164-1.031-1.321c-.047-.667.619-1.531 1.751-1.466 1.327.076 2.227 1.838 1.591 3.006-1.486 2.726-4.132 1.968-6.021.968m-6.834 1.446c1.766 1.582 3.115 1.495 3.115 1.495s-.706-.656-.142-1.67c.325-.585 1.354-.945 2.267-.272 1.07.788.863 2.756-.308 3.388-2.883 1.553-4.753-.849-5.754-2.784.272-.037.548-.101.822-.157" style="fill:#5aa587"/><path d="M319.315 392.966c.128-.63.788-1.829 1.599-1.911 0 0 .958-1.681-.131-2.292 0 0-1.197.648-1.595 1.804-.399 1.158.127 2.399.127 2.399" style="fill:#ffe15a"/><path d="M318.556 389.915c.828-.989 1.42-1.304 2.01-.538 0 0 1.317-1.243.539-2.506 0 0-1.218-.144-1.919.706-.7.849-.63 2.338-.63 2.338" style="fill:#ffe15a"/><path d="M318.486 387.537c.928-.781 1.605-1.274 2.242-.395 0 0 1.278-.693.556-2.254 0 0-1.1-.206-1.887.468-.788.673-.911 2.181-.911 2.181" style="fill:#ffe15a"/><path d="M318.865 384.601c1.01-.492 1.571-.434 2.04.638 0 0 1.374-.279 1.164-1.974 0 0-1.132-.983-1.99-.555s-1.214 1.891-1.214 1.891" style="fill:#ffe15a"/><path d="M339.401 351.109a1.607 1.607 0 0 0 2.084 2.084c.408-.149.743-.484.892-.892a1.607 1.607 0 0 0-2.084-2.084 1.51 1.51 0 0 0-.892.892" style="fill:#f5f5f5"/><path d="M340.358 351.466c-.202.5.27.972.77.769a.54.54 0 0 0 .292-.292.584.584 0 0 0-.77-.769.54.54 0 0 0-.292.292" style="fill:#41479b"/><path d="M336.368 345.45a1.303 1.303 0 0 0 1.655 1.655c.374-.12.683-.428.802-.802a1.303 1.303 0 0 0-1.655-1.655 1.26 1.26 0 0 0-.802.802" style="fill:#f5f5f5"/><path d="M337.165 345.684a.474.474 0 0 0 .624.624.44.44 0 0 0 .239-.239.474.474 0 0 0-.624-.624.44.44 0 0 0-.239.239" style="fill:#41479b"/><path d="M383.641 377.213c1.476 1.136 6.584-1.368 10.175-.171 4.641 1.547 4.603 4.53 4.603 4.53s-2.892-3.59-7.709-1.823c-2.665.978-4.215 1.028-4.215 1.028z" style="fill:#fff5e6"/></svg>
