<svg xmlns="http://www.w3.org/2000/svg" xml:space="preserve" viewBox="0 0 512 512" width="48" height="48"><path d="M400 0H112C53.379 0 5.285 45.039.414 102.4h511.172C506.716 45.039 458.621 0 400 0M0 204.8h512v102.4H0z" style="fill:#73af00"/><path d="M.414 102.4A113 113 0 0 0 0 112v92.8h512V112c0-3.235-.145-6.435-.414-9.6z" style="fill:#ffe15a"/><path d="M112 512h288c58.621 0 106.716-45.039 111.586-102.4H.414C5.285 466.961 53.379 512 112 512" style="fill:#73af00"/><path d="M0 400c0 3.234.145 6.435.414 9.6h511.172c.269-3.165.414-6.366.414-9.6v-92.8H0z" style="fill:#ffe15a"/><path d="M309.895 299.2V0H112C50.144 0 0 50.144 0 112v195.2h301.895a8 8 0 0 0 8-8" style="fill:#ff4b55"/><path d="m151.616 72.288-19.472 58.385-61.544.477c-3.374.026-4.773 4.332-2.059 6.336l49.51 36.561-18.565 58.68c-1.018 3.217 2.645 5.878 5.39 3.916l50.071-35.789 50.071 35.789c2.745 1.962 6.408-.699 5.39-3.916l-18.565-58.68 49.51-36.561c2.714-2.004 1.315-6.31-2.059-6.336l-61.545-.477-19.472-58.385c-1.066-3.201-5.593-3.201-6.661 0" style="fill:#f5f5f5"/></svg>
