<svg xmlns="http://www.w3.org/2000/svg" xml:space="preserve" viewBox="0 0 512 512" width="48" height="48"><path d="M512 400V112C512 50.144 461.856 0 400 0H112C50.152 0 .013 50.131 0 111.976v288.048C.013 461.869 50.152 512 112 512h288c61.856 0 112-50.144 112-112" style="fill:#41479b"/><path d="M476.69 419H123.587a8.828 8.828 0 0 1 0-17.656H476.69l8.828 8.828zm4.414-26.483H123.587S264.828 233.62 397.242 198.31c0 0-44.138 114.759 61.793 185.379h22.069a4.415 4.415 0 0 1 0 8.828" style="fill:#ffe15a"/><path d="m131.871 204.355 3.425 10.27 10.826.084c1.402.011 1.983 1.8.855 2.632l-8.709 6.431 3.266 10.322c.423 1.336-1.099 2.442-2.239 1.627l-8.808-6.296-8.808 6.296c-1.14.815-2.662-.29-2.239-1.627l3.266-10.322-8.709-6.431c-1.128-.833-.546-2.621.855-2.632l10.826-.084 3.425-10.27c.443-1.33 2.324-1.33 2.768 0m-.262-141.203 2.779 8.332 8.783.068c1.137.009 1.609 1.46.694 2.136l-7.066 5.218 2.649 8.374c.343 1.084-.891 1.981-1.817 1.32l-7.146-5.107-7.146 5.107c-.925.661-2.16-.236-1.817-1.32l2.649-8.374-7.066-5.218c-.915-.675-.443-2.127.694-2.136l8.783-.068 2.779-8.332c.363-1.079 1.889-1.079 2.248 0m-66.541 51.559 2.779 8.332 8.783.068c1.137.009 1.609 1.46.694 2.136l-7.066 5.218 2.649 8.374c.343 1.084-.892 1.981-1.817 1.32l-7.146-5.108-7.146 5.108c-.925.661-2.16-.236-1.817-1.32l2.649-8.374-7.066-5.218c-.915-.676-.443-2.127.694-2.136l8.783-.068 2.779-8.332c.362-1.079 1.888-1.079 2.248 0m114.129-3.515 2.138 6.412 6.759.052c.875.007 1.238 1.123.534 1.643l-5.437 4.015 2.039 6.444c.264.834-.686 1.524-1.398 1.016l-5.499-3.93-5.499 3.93c-.712.509-1.662-.181-1.398-1.016l2.039-6.444-5.437-4.015c-.704-.52-.341-1.637.534-1.643l6.759-.052 2.139-6.412c.276-.83 1.45-.83 1.727 0" style="fill:#f5f5f5"/></svg>
