<svg xmlns="http://www.w3.org/2000/svg" xml:space="preserve" viewBox="0 0 512 512" width="48" height="48"><path d="M400.019 0H111.981C50.134.011 0 50.15 0 112v288c0 61.856 50.144 112 112 112h288c61.856 0 112-50.144 112-112V112C512 50.15 461.866.011 400.019 0" style="fill:#ff4b55"/><path d="M256 231.031V0H112C50.144 0 0 50.144 0 112v126.532h248.5a7.5 7.5 0 0 0 7.5-7.501" style="fill:#f5f5f5"/><path d="M218 88.035h-60.035V28H97.93v60.035H37.895v60.035H97.93v60.035h60.035V148.07H218z" style="fill:#ff4b55"/></svg>
