<svg xmlns="http://www.w3.org/2000/svg" xml:space="preserve" viewBox="0 0 512 512" width="48" height="48"><path d="M400 0H112C50.144 0 0 50.144 0 112v288c0 61.856 50.144 112 112 112h288c61.856 0 112-50.144 112-112V112C512 50.144 461.856 0 400 0" style="fill:#ff4b55"/><path d="M27.338 38.674 361.931 512h26.483L43.188 23.631a112.7 112.7 0 0 0-15.85 15.043M123.586 0l345.226 488.369a112.7 112.7 0 0 0 15.849-15.043L150.069 0z" style="fill:#f5f5f5"/><path d="M112 0C86.056 0 62.175 8.825 43.188 23.631L388.414 512H400c25.944 0 49.825-8.824 68.812-23.631L123.586 0z" style="fill:#464655"/></svg>
