<svg xmlns="http://www.w3.org/2000/svg" xml:space="preserve" viewBox="0 0 512 512" width="48" height="48"><path d="M400 0H112C50.144 0 0 50.144 0 112v288c0 61.856 50.144 112 112 112h288c61.856 0 112-50.144 112-112V112C512 50.144 461.856 0 400 0" style="fill:#73af00"/><path d="M112 0C86.781 0 63.51 8.337 44.79 22.403v467.194C63.51 503.663 86.781 512 112 512h67.526V0z" style="fill:#ff4b55"/><path d="m166.053 58.386-26.948 22.456H85.211L58.263 58.386V35.93l26.948-22.456h53.894l26.948 22.456z" style="fill:#f5f5f5"/><path d="m166.053 247.018-26.948 22.456H85.211l-26.948-22.456v-22.457l26.948-22.456h53.894l26.948 22.456zm0-94.316-26.948 22.456H85.211l-26.948-22.456v-22.456l26.948-22.457h53.894l26.948 22.457zm0 188.631-26.948 22.456H85.211l-26.948-22.456v-22.456l26.948-22.456h53.894l26.948 22.456z" style="fill:#73af00"/><path d="m44.79 67.368 26.947 26.948-26.947 26.947zm134.736 53.895-26.947-26.947 26.947-26.948zM44.79 161.684l26.947 26.948-26.947 26.947zm134.736 53.895-26.947-26.947 26.947-26.948zM44.79 256l26.947 26.947-26.947 26.948zm134.736 53.895-26.947-26.948L179.526 256zM44.79 350.316l26.947 26.947-26.947 26.948zm134.736 53.895-26.947-26.948 26.947-26.947zm0-377.264L152.579 0h26.947zM105.42 107.79h13.474v67.37H105.42z" style="fill:#ffb400"/><path d="M85.21 134.74h53.894v13.474H85.21z" style="fill:#ff4b55"/><path d="m152.579 119.017-13.474-11.228v67.369l13.474-11.229zm-80.842 44.912 13.474 11.228V107.79l-13.474 11.227zm40.421-150.455H85.211L58.263 35.929v11.229h53.895zm0 67.368h26.946l26.949-22.455V47.158h-53.895z" style="fill:#ffb400"/><path d="M112.158 67.368 85.211 47.237l26.947-20.29 26.947 20.29z" style="fill:#ff4b55"/><path d="m112.158 67.368 26.947-20.131-.105-.079h-26.842zm0-20.21V26.947L85.316 47.158z" style="fill:#73af00"/><path d="M85.21 215.58h53.895V256H85.21z" style="fill:#ff4b55"/><path d="M139.1 229.05h13.474v13.474H139.1z" style="fill:#ffb400"/><path d="M105.42 229.05h13.474v13.474H105.42z" style="fill:#f5f5f5"/><path d="M105.42 309.89h13.474v13.474H105.42z" style="fill:#ff4b55"/><path d="M125.63 323.37h13.474v13.474H125.63zm-40.42 0h13.474v13.474H85.21z" style="fill:#ffb400"/><path d="M105.42 336.84h13.474v13.474H105.42z" style="fill:#ff4b55"/><path d="M71.74 229.05h13.474v13.474H71.74z" style="fill:#ffb400"/><path d="m166.053 435.649-26.948 22.456H85.211l-26.948-22.456v-22.456l26.948-22.456h53.894l26.948 22.456z" style="fill:#f5f5f5"/><path d="M112.158 390.737H85.211l-26.948 22.456v11.228h53.895zm0 67.368h26.946l26.949-22.455v-11.229h-53.895z" style="fill:#ffb400"/><path d="m139.105 431.158-26.947 13.474-26.947-13.474v-13.474l26.947-13.473 26.947 13.473z" style="fill:#ff4b55"/><path d="M364.384 73.366c-1.435-.705-2.733 1.162-1.57 2.259 15.248 14.389 24.884 34.595 24.884 57.134 0 44.274-35.587 79.795-79.346 79.795a77.6 77.6 0 0 1-23.195-3.553c-1.521-.475-2.504 1.565-1.195 2.474 12.794 8.894 28.215 14.209 45.047 14.209 44.339 0 80.569-35.524 80.569-80.44 0-31.568-18.528-58.771-45.194-71.878m-109.647 51.985-3.297 9.324 7.755 6.138c1.004.795.419 2.41-.861 2.377l-9.886-.254-3.441 9.272c-.445 1.2-2.162 1.143-2.527-.085l-2.813-9.481-9.881-.407c-1.279-.053-1.755-1.704-.7-2.429l8.148-5.605-2.666-9.523c-.345-1.233 1.078-2.196 2.094-1.417l7.849 6.017 8.233-5.478c1.065-.711 2.42.344 1.993 1.551m40.043 20.224-3.297 9.324 7.754 6.138c1.004.795.419 2.41-.861 2.377l-9.886-.254-3.441 9.272c-.445 1.2-2.163 1.143-2.527-.085l-2.813-9.481-9.881-.408c-1.279-.053-1.755-1.703-.7-2.429l8.148-5.605-2.666-9.523c-.345-1.233 1.078-2.196 2.094-1.417l7.849 6.017 8.233-5.478c1.065-.711 2.421.345 1.994 1.552m-.405-41.661-3.297 9.324 7.754 6.138c1.004.795.419 2.41-.861 2.377l-9.886-.254-3.441 9.272c-.445 1.2-2.163 1.143-2.527-.085l-2.813-9.481-9.881-.407c-1.279-.053-1.755-1.704-.7-2.429l8.147-5.605-2.666-9.523c-.345-1.233 1.078-2.196 2.094-1.417l7.849 6.017 8.233-5.478c1.067-.712 2.422.344 1.995 1.551m1.364-40.211-3.297 9.324 7.755 6.138c1.004.795.419 2.41-.861 2.377l-9.886-.254-3.441 9.271c-.445 1.2-2.163 1.143-2.527-.085l-2.813-9.481-9.881-.407c-1.279-.053-1.755-1.704-.7-2.429l8.147-5.605-2.666-9.523c-.345-1.233 1.078-2.196 2.094-1.417l7.849 6.017 8.233-5.478c1.066-.711 2.421.345 1.994 1.552m39.234 20.224-3.297 9.324 7.754 6.138c1.004.795.419 2.41-.861 2.377l-9.886-.254-3.441 9.272c-.445 1.2-2.162 1.143-2.527-.085l-2.813-9.481-9.881-.408c-1.279-.053-1.755-1.703-.7-2.429l8.147-5.605-2.666-9.523c-.345-1.233 1.078-2.196 2.094-1.417l7.849 6.017 8.233-5.478c1.066-.711 2.422.345 1.995 1.552" style="fill:#f5f5f5"/></svg>
