<svg xmlns="http://www.w3.org/2000/svg" xml:space="preserve" viewBox="0 0 512 512" width="48" height="48"><path d="M400 0H112C50.144 0 0 50.144 0 112v288c0 61.856 50.144 112 112 112h288c61.856 0 112-50.144 112-112V112C512 50.144 461.856 0 400 0" style="fill:#41479b"/><path d="M313.424 279.91a2.943 2.943 0 0 0-2.942 2.943v50.023c0 100.046 70.621 117.701 70.621 117.701s70.621-17.655 70.621-117.701v-50.023a2.943 2.943 0 0 0-2.943-2.943z" style="fill:#ffe15a"/><path d="M444.367 287.267v45.609c0 85.093-52.598 106.557-63.262 110.032-10.724-3.497-63.267-24.983-63.267-110.032v-45.609zm4.414-7.357H313.424a2.943 2.943 0 0 0-2.942 2.943v50.023c0 100.046 70.621 117.701 70.621 117.701s70.621-17.655 70.621-117.701v-50.023a2.944 2.944 0 0 0-2.943-2.943" style="fill:#f5f5f5"/><path d="M389 373.111h-15.053s-12.14 12.14-14.923 38.808c-.089.851.254 1.712.927 2.239 2.553 2 9.727 6.622 21.522 6.622s18.97-4.621 21.522-6.622c.673-.527 1.016-1.389.927-2.239C401.14 385.251 389 373.111 389 373.111" style="fill:#73af00"/><path d="M389 370.602h-15.053V355a4.48 4.48 0 0 1 4.469-4.469h6.115A4.48 4.48 0 0 1 389 355z" style="fill:#ff4b55"/><path d="M390.019 375.62h-17.092a1.49 1.49 0 0 1-1.49-1.49v-2.039c0-.823.667-1.49 1.49-1.49h17.092c.823 0 1.49.667 1.49 1.49v2.039a1.49 1.49 0 0 1-1.49 1.49" style="fill:#ff4b55"/><path d="M439.178 320.146c-.445 0-6.99.03-13.799 1.201v-3.923c5.746-2.623 11.377-3.979 11.473-4.002a1.255 1.255 0 0 0-.572-2.443c-.379.088-5.436 1.303-10.945 3.702a7.45 7.45 0 0 0-1.459-4.023c4.496-3.48 8.326-5.691 8.397-5.732a1.254 1.254 0 1 0-1.242-2.18c-.304.173-4.321 2.49-8.984 6.134a7.47 7.47 0 0 0-8.521.108c1.286-6.456 3.93-9.251 3.966-9.288a1.254 1.254 0 0 0-1.779-1.769c-.15.149-2.587 2.665-4.131 8.322-1.544-5.657-3.981-8.173-4.131-8.322a1.25 1.25 0 0 0-1.766-.002 1.257 1.257 0 0 0-.012 1.771c.035.036 2.679 2.831 3.966 9.288a7.47 7.47 0 0 0-4.328-1.388 7.5 7.5 0 0 0-4.193 1.28c-4.664-3.644-8.681-5.961-8.984-6.134a1.255 1.255 0 0 0-1.242 2.18c.071.041 3.901 2.249 8.398 5.73a7.45 7.45 0 0 0-1.46 4.024c-5.51-2.399-10.566-3.614-10.945-3.702a1.255 1.255 0 0 0-.572 2.443c.096.023 5.726 1.379 11.473 4.002v3.923c-6.809-1.172-13.354-1.201-13.799-1.201a1.254 1.254 0 0 0 0 2.508c.108 0 6.965.027 13.799 1.24v4.059c-3.765-.112-7.964.415-11.851 2.36a1.254 1.254 0 1 0 1.122 2.244c3.462-1.73 7.279-2.182 10.729-2.065v15.524c0 1.895-.189 3.799-.56 5.658l-1.925 9.622a1.254 1.254 0 0 0 2.46.493l1.925-9.622c.404-2.022.609-4.092.609-6.151V330.68a38 38 0 0 1 4.932.889l.956 12.425c.119 1.549.895 2.887 2.026 3.795l-4.068 6.102c-2.18 3.27.164 7.65 4.094 7.65h6.701c3.93 0 6.274-4.38 4.094-7.65l-4.068-6.102c1.131-.908 1.907-2.246 2.026-3.795l.956-12.424a38 38 0 0 1 4.932-.889v15.335a31.4 31.4 0 0 0 .609 6.151l1.924 9.622a1.253 1.253 0 1 0 2.46-.493l-1.924-9.622a29 29 0 0 1-.56-5.658v-15.523c3.45-.117 7.267.335 10.729 2.065a1.254 1.254 0 1 0 1.122-2.244c-3.888-1.944-8.086-2.471-11.851-2.359v-4.06c6.833-1.213 13.691-1.24 13.799-1.24.693 0 1.254-.562 1.254-1.254a1.263 1.263 0 0 0-1.26-1.255m-16.308 1.683a42 42 0 0 0-4.366 1.174 7 7 0 0 0-.221-1.438c1.392-1.075 2.954-2.049 4.587-2.914zm0-6.701v.694c-1.988.986-3.944 2.132-5.695 3.43a7 7 0 0 0-1.265-1.329c1.877-2.079 3.962-4.005 6.016-5.704.588.822.944 1.822.944 2.909m-5.018-5.018a5 5 0 0 1 2.091.471c-2.167 1.82-4.366 3.892-6.332 6.139-.255-.078-.509-.156-.776-.205v-.133c0-.572.019-1.113.04-1.652.206-2.579 2.346-4.62 4.977-4.62m-12.544 0c2.631 0 4.771 2.042 4.978 4.62.021.539.04 1.08.04 1.652v.133a7 7 0 0 0-.776.205c-1.966-2.247-4.166-4.319-6.332-6.139a5 5 0 0 1 2.09-.471m-5.018 5.018c0-1.087.356-2.088.946-2.91 2.053 1.699 4.138 3.625 6.015 5.705a7 7 0 0 0-1.266 1.33c-1.751-1.298-3.708-2.444-5.696-3.43zm0 3.524c1.634.864 3.196 1.839 4.587 2.914a7 7 0 0 0-.221 1.437 42 42 0 0 0-4.366-1.174zm0 9.478v-3.725c1.572.356 3.089.786 4.481 1.303l.247 3.213a39 39 0 0 0-4.728-.791m22.58.001c-1.76.183-3.363.474-4.728.791l.247-3.214c1.391-.517 2.909-.947 4.481-1.303z" style="fill:#d35a10"/><path d="M359.918 354.016h-5.636l-21.534-19.142a8.46 8.46 0 0 1-2.585-8.369l6.005-24.019c.531-2.125 3.177-2.858 4.726-1.309l9.745 9.745a2.82 2.82 0 0 0 1.992.825h7.286z" style="fill:#ffa033"/><path d="m355.879 305.97-3.458 15.563a16.9 16.9 0 0 0 .31 8.526l7.187 23.956h5.636l7.187-23.956c.831-2.769.938-5.704.31-8.526l-3.458-15.563a7.02 7.02 0 0 0-6.849-5.495h-.015a7.016 7.016 0 0 0-6.85 5.495" style="fill:#ff9480"/><path d="M363.88 306.111h-2.289c-.924 0-1.673.749-1.673 1.673v46.231h5.636v-46.231c0-.924-.749-1.673-1.674-1.673" style="fill:#ffa0e4"/><path d="M148.21 256h13.474v-81.77L256 236.023v-19.964l-83.768-54.375h24.748L256 199.995v-12.294l-39.71-26.017H256V148.21H148.21zm-53.894 0h13.474V148.21H0v13.474h39.71L0 187.701v18.901l69.197-44.918h24.748L0 222.666v13.357l94.316-61.793zM107.79.087c-4.566.169-9.063.608-13.474 1.308V81.77L27.779 38.177a112.4 112.4 0 0 0-10.872 14.637l63.935 41.502H56.094L10.461 64.694q-1.878 4.02-3.44 8.205L39.71 94.316H1.395c-.7 4.411-1.139 8.907-1.308 13.474H107.79zM256 107.79V94.316h-39.71L256 68.299V49.157l-69.568 45.159h-24.748L256 33.092V19.977L161.684 81.77V0H148.21v107.79z" style="fill:#f5f5f5"/><path d="M107.79 256h40.421V148.21H256v-40.42H148.21V0H112c-1.41 0-2.813.035-4.21.087V107.79H.087A113 113 0 0 0 0 112v36.21h107.79z" style="fill:#ff4b55"/><path d="M69.197 161.684 0 206.602v16.064l93.945-60.982zm103.035 0L256 216.059v-16.064l-59.02-38.311zm-91.39-67.368L16.907 52.814a112 112 0 0 0-6.447 11.88l45.634 29.622zm105.59 0L256 49.157V33.092l-94.316 61.224z" style="fill:#ff4b55"/></svg>
