<svg xmlns="http://www.w3.org/2000/svg" xml:space="preserve" viewBox="0 0 512 512" width="48" height="48"><path d="M400 0H112C50.144 0 0 50.144 0 112v288c0 61.856 50.144 112 112 112h288c61.856 0 112-50.144 112-112V112C512 50.144 461.856 0 400 0" style="fill:#3cc8ff"/><path d="m288.558 410.977 4.297 12.884 13.581.105c1.758.014 2.487 2.258 1.073 3.302l-10.925 8.068 4.097 12.949c.53 1.677-1.378 3.063-2.809 2.041l-11.049-7.897-11.049 7.897c-1.43 1.022-3.339-.364-2.809-2.041l4.097-12.949-10.925-8.068c-1.414-1.044-.685-3.288 1.073-3.302l13.581-.105 4.297-12.884c.554-1.668 2.914-1.668 3.47 0m124.999-97.21 4.297 12.884 13.581.105c1.758.014 2.487 2.257 1.073 3.302l-10.925 8.068 4.097 12.949c.53 1.676-1.378 3.063-2.809 2.041l-11.049-7.897-11.049 7.897c-1.431 1.022-3.339-.364-2.809-2.041l4.097-12.949-10.925-8.068c-1.414-1.045-.685-3.288 1.073-3.302l13.581-.105 4.297-12.884c.555-1.668 2.914-1.668 3.47 0m58.94-36.126 4.297 12.884 13.581.105c1.758.014 2.487 2.258 1.073 3.302L480.523 302l4.097 12.949c.53 1.677-1.378 3.063-2.809 2.041l-11.049-7.897-11.049 7.897c-1.431 1.022-3.339-.364-2.809-2.041L461 302l-10.925-8.068c-1.414-1.044-.685-3.288 1.073-3.302l13.581-.105 4.297-12.884c.556-1.668 2.915-1.668 3.471 0m-14.061-123.948 4.297 12.884 13.581.105c1.758.014 2.487 2.257 1.073 3.302l-10.925 8.068 4.097 12.949c.53 1.676-1.378 3.063-2.809 2.041l-11.049-7.897-11.049 7.897c-1.431 1.022-3.339-.364-2.809-2.041l4.097-12.949-10.925-8.068c-1.414-1.044-.685-3.288 1.073-3.302l13.581-.105 4.297-12.884c.554-1.668 2.914-1.668 3.47 0M340.811 443.174l-4.297-12.884-13.581-.105c-1.758-.014-2.487-2.258-1.073-3.302l10.925-8.068-4.097-12.949c-.53-1.676 1.378-3.063 2.809-2.041l11.049 7.897 11.049-7.897c1.431-1.022 3.339.364 2.809 2.041l-4.097 12.949 10.925 8.068c1.414 1.045.685 3.288-1.073 3.302l-13.581.105-4.297 12.884c-.554 1.668-2.914 1.668-3.47 0m40.621-36.455-4.297-12.884-13.581-.105c-1.758-.014-2.487-2.257-1.073-3.302l10.925-8.068-4.097-12.949c-.53-1.677 1.378-3.063 2.809-2.041l11.049 7.897 11.049-7.897c1.431-1.022 3.339.364 2.809 2.041l-4.097 12.949 10.925 8.068c1.414 1.045.685 3.288-1.073 3.302l-13.581.105-4.297 12.884c-.554 1.668-2.913 1.668-3.47 0m36.556-159-4.297-12.884-13.581-.105c-1.758-.014-2.487-2.257-1.073-3.302l10.925-8.068-4.097-12.949c-.53-1.676 1.378-3.063 2.809-2.041l11.049 7.898 11.049-7.898c1.431-1.022 3.339.364 2.809 2.041l-4.097 12.949 10.925 8.068c1.414 1.045.685 3.288-1.073 3.302l-13.581.105-4.297 12.884c-.554 1.668-2.914 1.668-3.47 0m-42.184 13.541-4.297-12.884-13.581-.105c-1.758-.014-2.487-2.257-1.073-3.302l10.925-8.068-4.097-12.949c-.53-1.676 1.378-3.063 2.809-2.041l11.049 7.898 11.049-7.898c1.43-1.022 3.339.364 2.809 2.041l-4.097 12.949 10.925 8.068c1.414 1.045.685 3.288-1.073 3.302l-13.581.105-4.297 12.884c-.554 1.668-2.914 1.668-3.47 0m-27.008 105.184-4.297-12.884-13.581-.105c-1.758-.014-2.487-2.258-1.073-3.302l10.925-8.068-4.097-12.949c-.53-1.676 1.378-3.063 2.809-2.041l11.049 7.897 11.049-7.897c1.431-1.022 3.339.364 2.809 2.041l-4.097 12.949 10.925 8.068c1.414 1.045.685 3.288-1.073 3.302l-13.581.105-4.297 12.884c-.554 1.668-2.913 1.668-3.47 0" style="fill:#ffe15a"/><path d="M94.316 1.395C67.937 5.579 44.627 18.971 27.779 38.177L94.316 81.77zM7.021 72.899a111 111 0 0 0-5.626 21.417H39.71zM0 161.684v26.017l39.71-26.017zM256 19.977V0h-94.316v81.77zm0 167.724v-26.017h-39.71zM161.684 256H256v-19.977l-94.316-61.793zM256 94.316V68.299l-39.71 26.017zM94.316 174.23 0 236.023V256h94.316z" style="fill:#41479b"/><path d="M148.211 256h13.473v-81.77L256 236.023v-19.964l-83.768-54.375h24.748L256 199.995v-12.294l-39.71-26.017H256V148.21H148.211zm-53.895 0h13.473V148.21H0v13.474h39.71L0 187.701v18.901l69.197-44.918h24.748L0 222.666v13.357l94.316-61.793zM107.789.087c-4.566.169-9.063.608-13.474 1.308V81.77L27.779 38.177a112.4 112.4 0 0 0-10.872 14.637l63.935 41.502H56.094L10.461 64.694q-1.878 4.02-3.44 8.205L39.71 94.316H1.395c-.7 4.411-1.139 8.907-1.308 13.474H107.79zM256 107.79V94.316h-39.71L256 68.299V49.157l-69.568 45.159h-24.748L256 33.092V19.977L161.684 81.77V0h-13.473v107.79z" style="fill:#f5f5f5"/><path d="M107.789 256h40.421V148.21H256v-40.42H148.211V0H112c-1.41 0-2.813.035-4.211.087V107.79H.087A113 113 0 0 0 0 112v36.21h107.789z" style="fill:#ff4b55"/><path d="M69.197 161.684 0 206.602v16.064l93.945-60.982zm103.035 0L256 216.059v-16.064l-59.02-38.311zm-91.39-67.368L16.907 52.814a112 112 0 0 0-6.447 11.88l45.634 29.622zm105.59 0L256 49.157V33.092l-94.316 61.224z" style="fill:#ff4b55"/></svg>
