<svg xmlns="http://www.w3.org/2000/svg" xml:space="preserve" viewBox="0 0 512 512" width="48" height="48"><path d="M400 0H112C59.335 0 15.167 36.354 3.203 85.333h505.594C496.833 36.354 452.665 0 400 0" style="fill:#464655"/><path d="M3.203 85.333A112.2 112.2 0 0 0 0 112v58.667h512V112c0-9.191-1.115-18.12-3.203-26.667z" style="fill:#ffe15a"/><path d="M0 170.67h512V256H0z" style="fill:#ff4b55"/><path d="M0 256h512v85.33H0z" style="fill:#464655"/><path d="M0 400c0 9.19 1.115 18.119 3.203 26.667h505.594A112.3 112.3 0 0 0 512 400v-58.667H0z" style="fill:#ffe15a"/><path d="M112 512h288c52.665 0 96.833-36.353 108.797-85.333H3.203C15.167 475.647 59.334 512 112 512" style="fill:#ff4b55"/><circle cx="256" cy="256" r="80.84" style="fill:#f5f5f5"/><path d="m260.876 206.78 7.964-3.185c1.154-.462 1.712-1.785 1.201-2.917-1.786-3.96-6.571-12.153-15.665-12.399-5.759-.156-10.064 1.142-12.494 2.144a2.197 2.197 0 0 0-1.062 3.148l4.806 8.21z" style="fill:#ff4b55"/><path d="M254.375 188.278c-.662-.018-1.26.021-1.883.039l-.867 12.713 4.626 2.563 10.004-9.051c-2.636-3.189-6.498-6.119-11.88-6.264" style="fill:#ffe15a"/><path d="m288.629 281.538-36.004-42.005c0-8.694 3.142-15.793 4.877-19.057 4.956-2.213 8.151-7.663 6.822-13.679-.967-4.375-4.498-7.946-8.866-8.945-7.859-1.797-14.835 4.125-14.835 11.677 0 .284.064.551.084.83-7.766 2.048-9.21 4.546-9.21 4.546s5.09-1.354 9.508-2.511c.089.36.207.708.327 1.055l-8.71 2.957 9.512-1.158a12.16 12.16 0 0 0 4.513 4.649c-7.109 5.727-18.025 16.489-18.025 28.637 0 11.109 8.229 18.511 18.591 23.433 3.622 1.721 6.953 3.992 9.691 6.922l.102.109.902 13.791h-20.285c-7.501 0-9.564 4.875-9.564 12.939l3.563-5.063 3 5.626.375-6.376 3.188 4.125s-.033-5.387 4.032-6.094c2.156-.375 9.628-.844 15.972-.844l1.344 20.551c-8.606-.041-18.347 4.014-18.347 4.014 3-.563 10.314.563 10.314.563l-1.219 3.563c8.438-4.594 23.909-4.688 23.909-4.688s-3.375-2.301-11.251-3.202l.182-20.8h12.381l1.875-4.875s-6.389-8.474-6.389-12.964c9.905 1.879 17.641 2.274 17.641 2.274m-25.47 11.251.063-7.135c3.717 3.983 6.655 7.135 6.655 7.135z" style="fill:#464655"/><path d="M288.629 287.539c-3-12.001-16.149-15.69-30.003-24.003-15.002-9.001-6.001-24.003-6.001-24.003s50.256 14.752 54.006 36.004c2.921 16.551-9.001 27.003-15.002 30.003l2.156-6.001h-11.158s11.814-9.189 12.001-18.002z" style="fill:#696e7d"/><path d="M306.631 275.537c-2.507-14.207-25.784-25.501-40.95-31.433-4.853-.54-9.118 7.618 4.196 16.431 17.911 11.857 18.752 27.003 18.752 27.003l6.001-6.001c-.188 8.814-12.001 18.002-12.001 18.002h11.158l-2.156 6.001c5.999-3 17.921-13.452 15-30.003" style="fill:#fffcff"/><path d="M306.631 275.537c-1.662-9.416-12.452-17.541-23.953-23.684-5.539-1.656-10.363-1.444-10.363-1.444 3.375 2.063 4.875 7.313 4.875 7.313-2.438-1.5-7.876-.75-7.876-.75 1.512 1.297 2.946 3.942 3.904 5.968 14.667 11.401 15.411 24.597 15.411 24.597l6.001-6.001c-.188 8.814-12.001 18.002-12.001 18.002h11.158l-2.156 6.001c5.999-2.999 17.921-13.451 15-30.002" style="fill:#ff4b55"/><circle cx="247.75" cy="208.41" r="2" style="fill:#f5f5f5"/><path d="M242.499 216.031s-4.375 5.126-1.5 6.626 5.649-2.76 5.649-2.76z" style="fill:#ff4b55"/></svg>
