<svg xmlns="http://www.w3.org/2000/svg" xml:space="preserve" viewBox="0 0 512 512" width="48" height="48"><path d="M400 0H112C50.144 0 0 50.144 0 112v288c0 61.856 50.144 112 112 112h288c61.856 0 112-50.144 112-112V112C512 50.144 461.856 0 400 0" style="fill:#82afff"/><path d="M255.249 339.913c58.289 0 105.709-47.423 105.709-105.709s-47.42-105.709-105.709-105.709S149.54 175.918 149.54 234.204s47.421 105.709 105.709 105.709m12.06-200.362 9.086-3.347a99.8 99.8 0 0 1 35.238 15.125c-.902-.09-3.287-.335-3.699-.473-.508-.169-1.295 3.237-1.295 3.237l4.17 1.658 1.137-4.189c4.33 2.98 8.374 6.33 12.178 9.935l-6.129 6.129h-1.082l-.882-3.46-3.354-6.027-11.845-4.27-8.191 3.965 4.648 10.064c-11.455-7.289-24.895-11.668-39.33-12.164v-14.028l8.347 2.636-3.47-6.116-4.877 2.087v-6.263c3.622.097 7.189.394 10.707.868l-4.1 1.367zm54.856 77.373 1.995-.845.502-4.91c2.139 6.429 3.372 13.249 3.633 20.324h-18.384l.678-2.937 5.195-.451 4.3-7.323-.121-1.374-4.405 5.647-2.691.66-1.714-2.016 2.017-3.427-4.388-3.237-3.943 3.457c-1.061-3.832-2.509-7.503-4.379-10.923l2.139-.778 1.715-1.023-.015-2.017 1.1-1.367-.636-.39c-.47.224-2.922.936-2.922.936l-.851 2.761-1.22.742a51.6 51.6 0 0 0-6.295-8.62l10.138-10.137.088.143 2.47-1.484-.383-.835 3.013-3.013a73.2 73.2 0 0 1 15.465 25.598l-2.523-3.749-1.3.485zM308.8 283.92l-5.484-5.484-2.07-5.486-1.065 2.352-2.122-2.121 2.174-6.666-1.408-4.837-.101.013c1.49-2.348 2.833-4.798 3.933-7.381l.026-.003c.339 0 1.581-1.581 1.581-1.581l3.049.339 7.883-3.116-3.026-2.87-1.782-1.592-1.38-2.812-2.47-4.3c.039-.483.049-.973.074-1.46h21.684c-.669 18.127-7.933 34.559-19.496 47.005m-105.219-3.469 2.715-4.743-5.843-20.421-4.607-11.371 4.178-1.807 1.129-3.388 2.822-.082c.986 11.476 5.759 21.859 13.051 29.955l-11.972 11.971zm6.522-50.059-.059 1.101h-.736c.025-.417.028-.839.064-1.253zm69.589 42.801-.927-.504-11.825 4.572-6.128-2.359-2.852.788v-3.898l2.951-.891 1.79.431 3.765 1.474-2.27-4.152 4.865 4.078 2.333.533-.71-3.111 1.582-5.143 5.514-3.363.478 3.096-6.725 3.656 1.29 2.573 6.995-1.412.11 3.489c-.077.049-.158.094-.236.143m-27.867-20.363-.21-.451-1.27.074a18.8 18.8 0 0 1-4.596-1.924l4.718-.573 2.073-5.563v8.51c-.236-.034-.483-.03-.715-.073m-19.817-11.607-4.609-.71 2.351-3.599h1.379c.167 1.485.457 2.917.879 4.309m25.952-18.755 1.271.385 1.599 1.938-2.87 2.869zm8.549 34.453-2.2 2.576-3.668 1.824-1.229-2.155-.741 4.285-.711.278v-5.404c.513-.058 1.041-.067 1.544-.156l1.755 2.2 1.457-1.814-.114-1.212c.809-.258 1.635-.472 2.405-.811zm-1.65-28.494-.058 2.932-.106.134h-2.902zm1.741 10.096 3.51-.111 1.913 1.595-.638 1.148-2.678-1.531-1.467 1.147.737 2.198-.031.097-6.152-6.153h4.099zm-2.322 8.541-3.352-.361-2.368 6.138c-.195.034-.401.032-.598.061v-12.156zm-17.403-15.571-.236-.989-2.354.989h-1.042l.344-1.429 1.52-1.473-1.206-.274-1.253 1.781-1.303.598.153.797h-1.367l.824-3.203 2.409-2.137 5.341 5.34zm-10.057 5.421.555.655.376-.655h1.939l-2.522 2.728a19 19 0 0 1-.616-2.728zm3.002 8.252 3.503-6.052-.916-.819 1.544-.797.193-.584h2.466l-.565.303-.235.813 1.91-.13-1.421 1.421-1.446.304-.299 1.441-4.448 4.447c-.09-.121-.199-.225-.286-.347m12.719-29.096-1.013-.156.784 3.252.229.179v8.315l-4.556-4.555 3.197-1.728-2.887-4.784c1.345-.533 2.772-.875 4.246-1.089zm-42.784 20.844-.055 1.032-.228 1.377c-.088-.794-.117-1.603-.164-2.408zm2.652 6.437 3.371 3.389 2.766-1.926 6.516 5.468 7.01 1.233 1.96-5.515a24.3 24.3 0 0 0 2.244 3.346l-6.023 6.022.968-2.468-3.585-.583 1.148 4.209.17.142-8.095 8.095c-5.276-5.931-9.082-13.196-10.741-21.256zm27.7 9.827a24.13 24.13 0 0 0 12.432 5.146v6.269l-.061.148.061-.02v4.688l-1.579.316-.915 5.884 2.494-.29v1.867l-3.949 1.09-1.315 1.268c-8.581-1.507-16.333-5.387-22.585-10.948zm45.724 22.365 3.977.843 3.912.121 2.152 2.151-6.572-.239-4.234-2.303c.259-.186.509-.383.765-.573m3.811-10.781-1.186-1.186 2.415-.185c-.389.475-.821.913-1.229 1.371m6.217-52.294c-1.844.027-3.633.052-3.792.052-.339 0-2.997 2.271-2.997 2.271l-2.03 2.629-.612-3.207 1.438-3.276-1.108-1.015-4.969 3.163-1.054-.533 3.883-3.882.853.282 2.474-.582-1.257-1.77 2.954-2.955c2.391 2.689 4.501 5.63 6.217 8.823m-14.538-8.168-.237-.759-1.609.254-1 1.936-4.421.436c.324.647 1.698 3.335 1.823 3.577l-5.485 5.485a24.3 24.3 0 0 0-3.737-2.456l.679-.366-.807-2.723-.549-1.004-2.446 2.675c-1.772-.645-3.638-1.054-5.573-1.272v-21.82c10.661.625 20.341 4.87 27.849 11.549zm-28.782 5.783a24 24 0 0 0-5.054 1.11l.811-1.884-4.228 3.323.008.013a24.3 24.3 0 0 0-3.969 2.583l-15.417-15.417c7.508-6.679 17.188-10.925 27.849-11.549zm-17.134 8.109-7.289 1.275.255-2.769-6.041-2.085-9.66 2.02c1.988-4.798 4.785-9.165 8.187-12.989zm-23.395.242 3.034.635-3.636 1.006c.18-.557.401-1.093.602-1.641m-8.123 13.059h-.469l.493-.456zm5.78 52.124 11.191-11.191a51.35 51.35 0 0 0 21.726 11.635l-3.855 3.714 8.296 10.962 5.514.304v8.207c-14.478-.533-27.891-5.242-39.048-13.028l1.792-1.163zm48.293 15.724 6.99.385.178 1.603 4.253 4.66c-3.71.729-7.534 1.117-11.421 1.26zm44.405-14.191 2.602 2.603c-1.245 1.156-2.496 2.302-3.819 3.371zm2.602-104.495-1.587 1.587-1.883-4.112-3.423-1.821s-3.187-2.812-4.846-4.544a73.6 73.6 0 0 1 11.739 8.89m-12.476-9.338 2.395 8.38 5.595 4.87.218.356-11.058 11.057c-8.498-7.654-19.527-12.502-31.681-13.139v-21.684c12.582.465 24.339 4.101 34.531 10.16m-39.952 11.525c-12.154.637-23.183 5.484-31.681 13.139l-15.326-15.326c12.446-11.564 28.879-18.829 47.007-19.497zm-35.514 16.972c-5.809 6.449-10.02 14.343-11.989 23.099l-4.765 8.58h-18.068c.669-18.128 7.933-34.56 19.496-47.006zm-19.366 37.1-5.148 11.066-7.282-2.709-1.367 4.848c-.952-4.273-1.491-8.689-1.658-13.205zm-5.428 54.888.841.745-10.53 10.53a100.5 100.5 0 0 1-17.886-26.14l2.8 1.636 18.677 16.618zm4.904 4.346 2.549 2.26 8.269-1.572c12.5 9.463 27.873 15.259 44.586 15.833v21.684c-25.598-.689-48.797-10.984-66.165-27.445zm60.825 16.522c4.593-.158 9.104-.637 13.467-1.554l.506 3.34 12.919 9.527 14.546-8.071 4.176-8.803-.274-5.447 2.747-6.444-.671-.525c1.187-.986 2.294-2.058 3.421-3.11l2.499 2.499.76 4.722 2.837-1.124 9.231 9.23c-17.368 16.462-40.566 26.756-66.165 27.445zm58.23-21.361-.519-6.171-.694.032c11.188-13.092 18.109-29.876 18.74-48.255H355.4c-.689 25.598-10.983 48.794-27.443 66.162zm17.526-59.816a78 78 0 0 0-11.054-37.505l9.217 8.62 7.395-6.352-11.35-17.11-7.491-5.76.02-.552 7.504-7.504c16.46 17.368 26.754 40.565 27.443 66.162zm-81.177-75.756c-19.621.674-37.407 8.544-50.838 21.087l-15.327-15.326c17.368-16.461 40.566-26.756 66.165-27.445zm-54.671 24.92c-12.542 13.431-20.411 31.216-21.086 50.836h-21.684c.689-25.598 10.983-48.794 27.443-66.162zm-21.085 56.257a78 78 0 0 0 4.295 23.072l-.819 2.903-21.186-.466c-2.389-8.126-3.737-16.677-3.974-25.51z" style="fill:#f5f5f5"/><path d="m182.22 359.789 19.572-3.168c1.75-.284 2.475-2.397 1.264-3.69-4.707-5.03-14.063-15.446-19.48-24.312-7.454-12.197-20.579-22.252-20.579-22.252s2.509 33.546 27.807 45.066c0 0-25.072-6.325-41.109-10.616s-20.427-9.015-20.427-9.015 12.521 32.053 52.952 27.987" style="fill:#f5f5f5"/><path d="M162.795 322.295c-.678-8.358-6.786-29.725-18.301-47.389 0 0 .014 42.928 15.256 57.468 0 0-21.576-20.696-34.451-30.183-12.054-8.881-17.392-18.973-17.392-18.973s3.239 27.125 20.78 40.657c11.858 9.148 38.173 15.585 38.173 15.585s-3.387-8.808-4.065-17.165" style="fill:#f5f5f5"/><path d="m121.46 290.22 13.181 11.401c1.375 1.188 3.517.25 3.545-1.568.072-4.585.353-11.544 1.344-15.931 1.581-7.002 3.537-29.739-4.443-46.266 0 0-9.646 29.618-2.107 54.285 0 0-11.843-18.83-23.943-33.091-6.324-7.454-8.829-16.242-8.829-16.242s-.206 29.568 21.252 47.412" style="fill:#f5f5f5"/><path d="M117.844 261.044c1.033 1.393 3.177 1.099 3.767-.531 1.733-4.781 5.096-13.378 9.561-21.565 8.132-14.908 4.381-32.453 4.381-32.453s-13.054 22.376-16.838 47.242a232 232 0 0 0-.839-3.648c-3.583-15.061-17.519-52.629-17.519-52.629s-4.902 20.632 1.225 36.971c3.146 8.385 11.942 20.785 16.262 26.613" style="fill:#f5f5f5"/><path d="M115.155 228.059c.393 1.499 2.492 1.536 2.939.052 1.247-4.141 3.842-9.849 9.239-15.366 10.164-10.39 17.871-24.813 21.811-37.704 0 0-21.687 17.4-28.525 29.133 0 0 .676-16.135-1.643-27.795-1.977-9.938 2.223-19.513 2.223-19.513s-13.743 13.189-11.71 37.358c1.279 15.205 3.899 27.102 5.666 33.835" style="fill:#f5f5f5"/><path d="M128.889 186.632c4.114-3.771 11.319-10.195 18.265-14.092 9.223-5.174 16.517-21.866 18.126-25.58 0 0-25.7 21.031-32.695 27.783 0 0 4.235-18.804 6.946-26.936s2.372-10.842 4.743-14.23c0 0-12.367 10.842-15.755 19.482-2.785 7.101-2.251 23.241-2.631 32.151-.069 1.612 1.811 2.512 3.001 1.422" style="fill:#f5f5f5"/><path d="M154.89 148.823c7.228-5.873 18.747-23.039 18.747-23.039-2.854 1.631-14.456 5.647-24.169 15.585s-11.745 23.49-11.745 23.49 9.939-10.164 17.167-16.036m164.128 215.936c-21.232-4.178-39.415-7.228-60.728-1.684-1.049.273-2.029.588-3.04.883-1.011-.296-1.991-.611-3.04-.883-21.313-5.544-39.496-2.495-60.728 1.684-19.137 3.765-37.461.507-37.461.507s13.293 13.497 43.56 13.497c13.204 0 29.799-11.115 40.27-11.707 2.579-.146 5.125.011 7.648.292-22.484 9.172-32.863 23.08-33.067 23.35a2.704 2.704 0 0 0 .521 3.79c.49.376 1.064.556 1.636.556.818 0 1.628-.371 2.16-1.069.826-1.088 17.436-18.269 38.501-24.617 21.065 6.348 37.675 23.529 38.501 24.617a2.71 2.71 0 0 0 2.16 1.069c.572 0 1.146-.18 1.636-.556a2.704 2.704 0 0 0 .521-3.79c-.204-.269-10.583-14.178-33.067-23.35 2.523-.281 5.07-.438 7.648-.292 10.471.592 27.066 11.707 40.27 11.707 30.267 0 43.56-13.497 43.56-13.497s-18.324 3.258-37.461-.507m.677-13.327c25.298-11.52 27.807-45.066 27.807-45.066s-13.125 10.055-20.579 22.252c-5.418 8.865-14.773 19.282-19.48 24.312-1.211 1.294-.486 3.407 1.264 3.69l19.572 3.168c40.431 4.066 52.953-27.988 52.953-27.988s-4.39 4.723-20.427 9.015c-16.038 4.293-41.11 10.617-41.11 10.617" style="fill:#f5f5f5"/><path d="M385.199 302.192c-12.875 9.487-34.451 30.183-34.451 30.183 15.242-14.54 15.256-57.468 15.256-57.468-11.514 17.663-17.623 39.031-18.301 47.389-.678 8.357-4.066 17.166-4.066 17.166s26.314-6.437 38.173-15.585c17.541-13.532 20.78-40.657 20.78-40.657s-5.337 10.09-17.391 18.972" style="fill:#f5f5f5"/><path d="M377.519 292.14c7.539-24.667-2.107-54.285-2.107-54.285-7.98 16.527-6.025 39.264-4.443 46.266.991 4.387 1.272 11.346 1.344 15.931.029 1.818 2.17 2.756 3.545 1.568l13.181-11.401c21.458-17.844 21.252-47.413 21.252-47.413s-2.504 8.788-8.829 16.242c-12.1 14.262-23.943 33.092-23.943 33.092" style="fill:#f5f5f5"/><path d="M391.783 253.736c-3.784-24.866-16.838-47.242-16.838-47.242s-3.75 17.545 4.381 32.453c4.465 8.187 7.828 16.785 9.561 21.565.591 1.63 2.735 1.924 3.767.531 4.32-5.828 13.116-18.228 16.261-26.615 6.127-16.339 1.225-36.971 1.225-36.971s-13.936 37.568-17.519 52.629a273 273 0 0 0-.838 3.65" style="fill:#f5f5f5"/><path d="M391.523 176.379c-2.319 11.66-1.643 27.795-1.643 27.795-6.838-11.733-28.525-29.133-28.525-29.133 3.939 12.891 11.646 27.314 21.811 37.704 5.397 5.517 7.992 11.225 9.239 15.366.447 1.484 2.545 1.447 2.939-.052 1.768-6.733 4.387-18.63 5.666-33.835 2.033-24.169-11.71-37.358-11.71-37.358s4.2 9.575 2.223 19.513" style="fill:#f5f5f5"/><path d="M377.915 174.742c-6.996-6.752-32.695-27.783-32.695-27.783 1.609 3.714 8.903 20.406 18.126 25.58 6.946 3.896 14.151 10.32 18.265 14.092 1.189 1.09 3.069.191 3-1.422-.38-8.91.154-25.051-2.63-32.151-3.388-8.64-15.755-19.482-15.755-19.482 2.372 3.388 2.033 6.099 4.743 14.23s6.946 26.936 6.946 26.936" style="fill:#f5f5f5"/><path d="M355.609 148.823c7.228 5.872 17.167 16.037 17.167 16.037s-2.033-13.552-11.746-23.49c-9.712-9.939-21.314-13.955-24.168-15.585 0-.001 11.519 17.165 18.747 23.038m-44.287 55.871-4.607 3.033 4.915.769 5.371 5.94 3.007-1.937-3.608-7.378zm7.274 25.3 1.705.652 4.32-11.604-1.186-1.61-1.863.932-2.965 10.503zm-43.357-19.677-1.355-1.44-3.049 3.897.757 1.179zm31.213-9.062.823-2.65-2.726.553-.771.218-.81 1.081 2.948 3.42 1.195-1.015zm-54.76 62.086.043-1.649-2.076 3.005.593 1.016z" style="fill:#f5f5f5"/></svg>
