<svg xmlns="http://www.w3.org/2000/svg" xml:space="preserve" viewBox="0 0 512.003 512.003" width="48" height="48"><path d="m97.647 35.665 22.541 104.296 35.269-14.609z" style="fill:#ffe15a"/><path d="m97.647 35.665 40.175 96.991-17.634 7.305z" style="fill:#ffcd5a"/><path d="m185.302 247.282-22.54-104.295-35.27 14.609z" style="fill:#ffe15a"/><path d="m185.302 247.282-40.175-96.991 17.635-7.304z" style="fill:#ffcd5a"/><path d="m247.283 97.646-104.296 22.541 14.61 35.269z" style="fill:#ffe15a"/><path d="m247.283 97.646-96.991 40.176-7.305-17.635z" style="fill:#ffcd5a"/><path d="m35.666 185.301 104.296-22.54-14.609-35.27z" style="fill:#ffe15a"/><path d="m35.666 185.301 96.991-40.175 7.305 17.635z" style="fill:#ffcd5a"/><path d="m185.302 35.665-57.81 89.687 35.27 14.609z" style="fill:#ffe15a"/><path d="m185.302 35.665-40.175 96.991-17.635-7.304z" style="fill:#ffcd5a"/><path d="m97.647 247.282 57.81-89.686-35.269-14.609z" style="fill:#ffe15a"/><path d="m97.647 247.282 40.175-96.991 17.635 7.305z" style="fill:#ffcd5a"/><path d="m247.283 185.301-89.686-57.81-14.61 35.27z" style="fill:#ffe15a"/><path d="m247.283 185.301-96.991-40.175 7.305-17.635z" style="fill:#ffcd5a"/><path d="m35.666 97.646 89.687 57.81 14.609-35.269z" style="fill:#ffe15a"/><path d="m35.666 97.646 96.991 40.176-7.304 17.634z" style="fill:#ffcd5a"/><path d="M497.519 56.889a113 113 0 0 0-3.757-6.159l-.111-.168a113 113 0 0 0-6.29-8.642l-.157-.195a112 112 0 0 0-7.038-7.927l-.227-.232a112 112 0 0 0-5.096-4.881l-.139-.123a115 115 0 0 0-2.472-2.149l-.309-.261a113 113 0 0 0-5.466-4.305l-.33-.241a111 111 0 0 0-2.511-1.787l-.396-.275a112 112 0 0 0-5.789-3.71l-.515-.304q-1.262-.747-2.546-1.461l-.481-.269a111 111 0 0 0-6.071-3.099l-.684-.319q-1.287-.598-2.592-1.165l-.547-.239a113 113 0 0 0-3.17-1.3c-.122-.048-.245-.092-.367-.14a115 115 0 0 0-3.611-1.327q-1.33-.463-2.676-.894l-.569-.185a111 111 0 0 0-3.258-.969c-.215-.061-.433-.116-.648-.176a112 112 0 0 0-6.402-1.555c-.176-.037-.351-.078-.527-.115q-1.664-.343-3.344-.635c-.279-.049-.559-.092-.839-.139q-1.302-.217-2.614-.405-.495-.071-.991-.139a110 110 0 0 0-3.064-.368l-.367-.042c-1.14-.117-2.286-.212-3.436-.295q-.48-.033-.963-.061-1.306-.083-2.622-.135-.51-.022-1.02-.039A117 117 0 0 0 400.001 0h-117v56.889zM14.484 455.112a112 112 0 0 0 3.757 6.16l.109.166a113 113 0 0 0 6.29 8.643l.158.196a113 113 0 0 0 7.037 7.927l.227.232a113 113 0 0 0 5.096 4.881l.138.123q1.22 1.093 2.472 2.149l.308.261a112 112 0 0 0 5.465 4.304l.334.244q1.241.909 2.506 1.784.2.14.4.277a112 112 0 0 0 5.788 3.709l.513.303q1.262.746 2.545 1.46l.484.271a111 111 0 0 0 9.344 4.582l.547.24q1.573.673 3.17 1.3c.122.048.245.092.367.14q1.386.536 2.79 1.037.41.146.822.29 1.33.464 2.675.894l.569.185q1.618.508 3.257.969.325.09.651.176a113 113 0 0 0 6.401 1.555l.528.115q1.664.342 3.344.635c.279.049.56.092.84.139a113 113 0 0 0 6.667.912l.369.042c1.14.117 2.286.212 3.436.295q.48.033.964.061 1.306.083 2.622.135.51.022 1.02.039c1.165.036 2.333.06 3.507.06h288c1.174 0 2.342-.024 3.507-.06q.51-.016 1.02-.039 1.314-.053 2.622-.135.482-.028.964-.061 1.725-.121 3.436-.295l.369-.042a110 110 0 0 0 6.667-.912c.28-.047.561-.09.84-.139q1.68-.293 3.344-.635c.177-.036.351-.077.528-.115a109 109 0 0 0 6.4-1.555c.217-.059.435-.115.651-.176q1.639-.46 3.257-.969l.569-.185q1.345-.43 2.675-.894.412-.144.822-.29 1.404-.5 2.79-1.037l.367-.14q1.597-.626 3.17-1.3.274-.118.547-.24 1.304-.566 2.59-1.164.344-.159.686-.32a112 112 0 0 0 6.068-3.098l.484-.271q1.283-.714 2.545-1.46.257-.15.513-.303 2.955-1.769 5.788-3.709l.4-.277a111 111 0 0 0 2.506-1.784l.334-.244a112 112 0 0 0 5.465-4.304l.308-.261q1.252-1.057 2.473-2.149l.138-.123a112 112 0 0 0 5.096-4.881l.227-.232a113 113 0 0 0 7.037-7.927l.158-.196a112 112 0 0 0 6.29-8.643l.109-.166a111 111 0 0 0 3.757-6.16v-.001z" style="fill:#f5f5f5"/><path d="M511.945 108.606q-.016-.508-.039-1.015a115 115 0 0 0-.413-6.25l-.052-.59q-.168-1.68-.386-3.346c-.03-.233-.066-.464-.097-.696a110 110 0 0 0-1.026-6.205q-.06-.319-.122-.636-.669-3.33-1.532-6.586-.082-.309-.167-.616-.375-1.384-.783-2.754l-.151-.508a111 111 0 0 0-2.272-6.701 113 113 0 0 0-1.161-2.965l-.143-.35a112 112 0 0 0-4.355-9.327l-.105-.2a108 108 0 0 0-1.621-2.969l-.001-.002H283.001v56.889h229V112c0-1.136-.022-2.266-.056-3.394" style="fill:#4173cd"/><path d="M283 113.78h229v56.889H283z" style="fill:#f5f5f5"/><path d="M283 170.67h229v56.889H283z" style="fill:#4173cd"/><path d="M283.001 283.995h-283v.449h512v-56.888h-229z" style="fill:#f5f5f5"/><path d="M.001 284.44h512v56.889h-512z" style="fill:#4173cd"/><path d="M.001 341.33h512v56.889h-512z" style="fill:#f5f5f5"/><path d="M.001 400c0 1.136.022 2.267.056 3.394q.017.508.038 1.015a115 115 0 0 0 .413 6.251c.019.196.033.393.052.589q.168 1.681.386 3.347c.03.232.066.463.097.695a110 110 0 0 0 1.026 6.208l.121.633a111 111 0 0 0 1.533 6.589q.082.307.166.613.375 1.385.784 2.754.075.256.152.511a112 112 0 0 0 2.192 6.492l.078.204q.561 1.496 1.164 2.972l.141.345a112 112 0 0 0 4.357 9.332l.102.194q.79 1.5 1.623 2.973l.001.001 483.036.001.001-.002q.833-1.473 1.623-2.973l.102-.194a111 111 0 0 0 4.357-9.332l.141-.345q.602-1.475 1.164-2.972l.078-.204a112 112 0 0 0 2.192-6.492l.152-.511q.41-1.37.784-2.754.084-.306.166-.613a111 111 0 0 0 1.533-6.589l.121-.633a116 116 0 0 0 .632-3.554q.213-1.322.394-2.654c.032-.232.067-.463.097-.695q.218-1.666.386-3.347c.02-.196.034-.393.052-.589q.13-1.371.226-2.753.036-.53.067-1.061.073-1.215.12-2.437.021-.507.039-1.015c.034-1.128.056-2.258.056-3.394v-1.778H.001z" style="fill:#4173cd"/><path d="M283.001 227.556V0h-171c-61.856 0-112 50.144-112 112v171.995h283z" style="fill:#f5f5f5"/><path d="M141.475 26.947 122.387 131.93h38.175z" style="fill:#ffe15a"/><path d="M141.475 26.947V131.93h-19.088z" style="fill:#ffcd5a"/><path d="m141.475 256 19.087-104.982h-38.175z" style="fill:#ffe15a"/><path d="M141.475 256V151.018h19.087z" style="fill:#ffcd5a"/><path d="m256.001 141.474-104.982-19.088v38.175z" style="fill:#ffe15a"/><path d="M256.001 141.474H151.019v-19.088z" style="fill:#ffcd5a"/><path d="m26.948 141.474 104.983 19.087v-38.175z" style="fill:#ffe15a"/><path d="M26.948 141.474h104.983v19.087z" style="fill:#ffcd5a"/><path d="m222.457 60.491-87.731 60.737 26.994 26.994z" style="fill:#ffe15a"/><path d="m222.457 60.491-74.234 74.234-13.497-13.497z" style="fill:#ffcd5a"/><path d="m60.492 222.456 87.731-60.737-26.994-26.994z" style="fill:#ffe15a"/><path d="m60.492 222.456 74.234-74.234 13.497 13.497z" style="fill:#ffcd5a"/><path d="m222.457 222.456-60.737-87.731-26.994 26.994z" style="fill:#ffe15a"/><path d="m222.457 222.456-74.234-74.234 13.497-13.497z" style="fill:#ffcd5a"/><path d="m60.492 60.491 60.737 87.731 26.994-26.994z" style="fill:#ffe15a"/><path d="m60.492 60.491 74.234 74.234-13.497 13.497z" style="fill:#ffcd5a"/><circle cx="141.47" cy="141.47" r="38.17" style="fill:#ffe15a"/></svg>
