<svg xmlns="http://www.w3.org/2000/svg" xml:space="preserve" viewBox="0 0 512 512" width="48" height="48"><path d="M400 0H112C50.144 0 0 50.144 0 112v58.667h512V112C512 50.144 461.856 0 400 0" style="fill:#82afff"/><path d="M0 400c0 61.856 50.144 112 112 112h288c61.856 0 112-50.144 112-112v-58.667H0z" style="fill:#73af00"/><path d="M0 170.67h512v170.67H0z" style="fill:#f5f5f5"/><path d="M0 155.51h512v21.281H0zm0 179.7h512v21.281H0z" style="fill:#ff4b55"/><path d="M121.185 127.898c-27.584 0-49.942-22.306-49.942-49.791 0-27.586 22.358-49.991 49.942-49.991l.315.002c1.623.022 2.193-2.136.762-2.903a59.2 59.2 0 0 0-28.494-7.056c-33.005.236-59.814 27.586-59.465 60.59.346 32.665 27.05 59.105 59.895 59.105a59.36 59.36 0 0 0 28.109-7.061c1.427-.764.85-2.923-.768-2.898zm39.107-13.769-2.231 6.688-7.05.055c-.913.007-1.291 1.172-.557 1.714l5.672 4.188-2.127 6.722c-.275.87.716 1.59 1.458 1.059l5.736-4.1 5.736 4.1c.743.531 1.734-.189 1.458-1.059l-2.127-6.722 5.671-4.188c.734-.542.356-1.707-.557-1.714l-7.05-.055-2.231-6.688c-.287-.866-1.512-.866-1.801 0m38.933 0-2.23 6.688-7.05.055c-.913.007-1.291 1.172-.557 1.714l5.672 4.188-2.127 6.722c-.275.87.715 1.59 1.458 1.059l5.736-4.1 5.736 4.1c.743.531 1.734-.189 1.458-1.059l-2.127-6.722 5.672-4.188c.734-.542.356-1.707-.557-1.714l-7.05-.055-2.231-6.688c-.289-.866-1.514-.866-1.803 0m79 0-2.23 6.688-7.05.055c-.913.007-1.291 1.172-.557 1.714l5.672 4.188-2.127 6.722c-.275.87.715 1.59 1.458 1.059l5.736-4.1 5.736 4.1c.743.531 1.733-.189 1.458-1.059l-2.127-6.722 5.672-4.188c.734-.542.356-1.707-.557-1.714l-7.05-.055-2.231-6.688c-.289-.866-1.514-.866-1.803 0m38.748 0-2.231 6.688-7.05.055c-.913.007-1.291 1.172-.557 1.714l5.672 4.188-2.127 6.722c-.275.87.716 1.59 1.458 1.059l5.736-4.1 5.736 4.1c.743.531 1.733-.189 1.458-1.059l-2.127-6.722 5.672-4.188c.734-.542.356-1.707-.557-1.714l-7.05-.055-2.231-6.688c-.289-.866-1.514-.866-1.802 0M199.225 67.77l-2.23 6.688-7.05.055c-.913.007-1.291 1.172-.557 1.714l5.672 4.188-2.127 6.722c-.275.87.715 1.59 1.458 1.06l5.736-4.1 5.736 4.1c.743.531 1.734-.189 1.458-1.059l-2.127-6.722 5.672-4.188c.734-.542.356-1.707-.557-1.714l-7.05-.055-2.231-6.688c-.289-.867-1.514-.867-1.803-.001m39.748 0-2.231 6.688-7.05.055c-.913.007-1.291 1.172-.557 1.714l5.672 4.188-2.127 6.722c-.275.87.715 1.59 1.458 1.06l5.736-4.1 5.736 4.1c.743.531 1.734-.189 1.458-1.059l-2.127-6.722 5.672-4.188c.734-.542.356-1.707-.557-1.714l-7.05-.055-2.231-6.688c-.289-.867-1.514-.867-1.802-.001m39.252 0-2.23 6.688-7.05.055c-.913.007-1.291 1.172-.557 1.714l5.672 4.188-2.127 6.722c-.275.87.715 1.59 1.458 1.06l5.736-4.1 5.736 4.1c.743.531 1.733-.189 1.458-1.059l-2.127-6.722 5.672-4.188c.734-.542.356-1.707-.557-1.714l-7.05-.055-2.231-6.688c-.289-.867-1.514-.867-1.803-.001m38.748 0-2.231 6.688-7.05.055c-.913.007-1.291 1.172-.557 1.714l5.672 4.188-2.127 6.722c-.275.87.716 1.59 1.458 1.06l5.736-4.1 5.736 4.1c.743.531 1.733-.189 1.458-1.059l-2.127-6.722 5.672-4.188c.734-.542.356-1.707-.557-1.714l-7.05-.055-2.231-6.688c-.289-.867-1.514-.867-1.802-.001m-78 46.359-2.231 6.688-7.05.055c-.913.007-1.291 1.172-.557 1.714l5.672 4.188-2.127 6.722c-.275.87.715 1.59 1.458 1.059l5.736-4.1 5.736 4.1c.743.531 1.734-.189 1.458-1.059l-2.127-6.722 5.672-4.188c.734-.542.356-1.707-.557-1.714l-7.05-.055-2.231-6.688c-.289-.866-1.514-.866-1.802 0m0-92.717-2.231 6.688-7.05.055c-.913.007-1.291 1.172-.557 1.714l5.672 4.188-2.127 6.722c-.275.87.715 1.59 1.458 1.059l5.736-4.1 5.736 4.1c.743.531 1.734-.189 1.458-1.059l-2.127-6.722 5.672-4.188c.734-.542.356-1.707-.557-1.714l-7.05-.055-2.231-6.688c-.289-.866-1.514-.866-1.802 0" style="fill:#f5f5f5"/><path d="m278.225 114.129-2.23 6.688-7.05.055c-.913.007-1.291 1.172-.557 1.714l5.672 4.188-2.127 6.722c-.275.87.715 1.59 1.458 1.059l5.736-4.1 5.736 4.1c.743.531 1.733-.189 1.458-1.059l-2.127-6.722 5.672-4.188c.734-.542.356-1.707-.557-1.714l-7.05-.055-2.231-6.688c-.289-.866-1.514-.866-1.803 0m38.748 0-2.231 6.688-7.05.055c-.913.007-1.291 1.172-.557 1.714l5.672 4.188-2.127 6.722c-.275.87.716 1.59 1.458 1.059l5.736-4.1 5.736 4.1c.743.531 1.733-.189 1.458-1.059l-2.127-6.722 5.672-4.188c.734-.542.356-1.707-.557-1.714l-7.05-.055-2.231-6.688c-.289-.866-1.514-.866-1.802 0m-38.748-92.717-2.23 6.688-7.05.055c-.913.007-1.291 1.172-.557 1.714l5.672 4.188-2.127 6.722c-.275.87.715 1.59 1.458 1.059l5.736-4.1 5.736 4.1c.743.531 1.733-.189 1.458-1.059l-2.127-6.722 5.672-4.188c.734-.542.356-1.707-.557-1.714l-7.05-.055-2.231-6.688c-.289-.866-1.514-.866-1.803 0m38.748 0-2.231 6.688-7.05.055c-.913.007-1.291 1.172-.557 1.714l5.672 4.188-2.127 6.722c-.275.87.716 1.59 1.458 1.059l5.736-4.1 5.736 4.1c.743.531 1.733-.189 1.458-1.059l-2.127-6.722 5.672-4.188c.734-.542.356-1.707-.557-1.714l-7.05-.055-2.231-6.688c-.289-.866-1.514-.866-1.802 0" style="fill:#f5f5f5"/></svg>
