<svg xmlns="http://www.w3.org/2000/svg" xml:space="preserve" viewBox="0 0 512 512" width="48" height="48"><path d="M511.974 400V112c0-61.856-50.144-112-112-112h-288C51.224 0 1.775 48.368.026 108.695v294.61C1.775 463.632 51.224 512 111.974 512h288c61.856 0 112-50.144 112-112" style="fill:#464655"/><path d="M511.974 269.474v-26.947H249.471L19.475 48.841A111.8 111.8 0 0 0 8.103 70.049L228.923 256 8.104 441.951a111.7 111.7 0 0 0 11.372 21.208l229.995-193.686h262.503z" style="fill:#ffe15a"/><path d="M511.974 400V296.421H256.026L35.653 481.96C55.655 500.594 82.481 512 111.974 512h288c61.856 0 112-50.144 112-112" style="fill:#73af00"/><path d="M511.974 215.579V112c0-61.856-50.144-112-112-112h-288C82.481 0 55.655 11.406 35.653 30.04l220.373 185.539z" style="fill:#ff4b55"/><path d="M94.345 198.811c-29.413-9.253-51.619 12.12-56.694 23.121-4.299 9.321-12.282 51.541 27.518 58.274s39.351-30.822 39.351-30.822c-1.795 5.985-5.013 23.042-33.741 23.042-10.775 0-26.259-16.01-23.341-33.665 2.745-16.613 17.586-25.112 28.803-25.585 10.622-.448 35.385 6.882 35.385 37.032 0 33.889-34.927 37.704-34.927 37.704v20.462c30.404-2.981 47.608-19.822 52.163-46.798 4.535-26.855-4.61-53.356-34.517-62.765" style="fill:#ffe15a"/><path d="M61.777 249.064a5.14 5.14 0 0 0-1.082 3.098l-.086 5.504-1.071 1.869a1.417 1.417 0 1 0 2.459 1.407l1.098-1.921 4.396-1.592a5.2 5.2 0 0 0 2.981-2.775c1.148-2.564 3.614-7.271 7.61-12.183 3.996 4.911 6.462 9.619 7.61 12.183a5.2 5.2 0 0 0 2.98 2.775l4.397 1.592 1.098 1.921a1.417 1.417 0 1 0 2.459-1.407l-1.071-1.869-.086-5.504a5.13 5.13 0 0 0-1.082-3.098c-3.682-4.676-7.599-8.353-11.458-11.606 3.084-2.898 6.571-5.666 10.962-7.802a2.416 2.416 0 0 0 1.285-2.734 2.43 2.43 0 0 0-3.396-1.636c-2.943 1.372-8.004 4.073-13.698 8.223-5.694-4.15-10.754-6.851-13.697-8.223a2.43 2.43 0 0 0-3.396 1.636 2.42 2.42 0 0 0 1.284 2.734c4.392 2.137 7.879 4.904 10.964 7.802-3.861 3.252-7.778 6.929-11.46 11.606" style="fill:#ffe15a"/></svg>
