<svg xmlns="http://www.w3.org/2000/svg" xml:space="preserve" viewBox="0 0 512 512" width="48" height="48"><path d="M512 400V112C512 50.144 461.856 0 400 0H112C50.152 0 .013 50.131 0 111.976v288.048C.013 461.869 50.152 512 112 512h288c61.856 0 112-50.144 112-112" style="fill:#f5f5f5"/><path d="m399.058 290.006 3.222 11.303 11.197-33.276-31.057 16.374 11.673 1.373-37.274 43.798-.324-.928 29.771-61.643 5.97 10.124 2.435-35.024-25.917 23.683 11.641-1.618-29.77 61.643-.929.323 11.129-56.424 8.333 8.288-6.485-34.504-19.101 29.458 10.856-4.504-11.999 60.84-3.918 8.112-4.221 2.83-1.736 8.803-14.761 17.345 11.523-.928-2.09 10.6 4.076-2.733.393 4.891 7.003-8.228 6.437 9.602 4.407-22.345 5.815-6.832-.407-5.066 3.917-8.112z" style="fill:#4173cd"/><path d="M130.919 256.928c1.266-5.692.481-11.024-1.687-14.309-3.356 2.056-6.327 6.553-7.593 12.244a23.8 23.8 0 0 0-.464 7.486l-6.97-10.391c2.838-2.314 5.281-6.277 6.39-11.261 1.266-5.692.481-11.024-1.687-14.309-3.356 2.056-6.327 6.553-7.593 12.244-.674 3.032-.732 5.932-.343 8.505l-4.712-7.024c.236-3.568-.859-7.906-3.489-12.041-3.13-4.92-7.455-8.135-11.311-8.925-.92 3.827.16 9.108 3.289 14.027 2.659 4.181 6.172 7.027 9.537 8.303l4.318 7.168c-2.166-1.443-4.818-2.621-7.85-3.295-5.691-1.266-11.024-.481-14.309 1.687 2.056 3.356 6.553 6.327 12.245 7.593 4.985 1.109 9.609.576 12.909-1.014l6.457 10.718a23.8 23.8 0 0 0-6.978-2.754c-5.692-1.266-11.024-.481-14.309 1.687 2.056 3.356 6.553 6.327 12.245 7.593 4.772 1.061 9.214.617 12.486-.811l5.945 9.868c-1.838-.992-3.884-1.843-6.202-2.358-5.692-1.266-11.024-.481-14.309 1.687 2.056 3.356 6.553 6.327 12.245 7.593 4.562 1.015 8.838.666 12.068-.61l5.734 9.517c-1.647-.806-3.42-1.513-5.414-1.957-5.692-1.266-11.024-.481-14.309 1.687 2.056 3.356 6.553 6.327 12.245 7.593 4.348.967 8.469.723 11.645-.407l5.222 8.668c-1.436-.635-2.963-1.189-4.639-1.561-5.691-1.266-11.024-.481-14.309 1.687 2.056 3.356 6.553 6.327 12.245 7.593 4.147.922 8.081.733 11.193-.264l16.588 27.533 7.046-4.482-17.906-26.695c2.222-2.396 4.062-5.879 4.984-10.026 1.266-5.692.481-11.024-1.687-14.309-3.356 2.056-6.327 6.553-7.593 12.244-.372 1.675-.518 3.293-.553 4.862l-5.636-8.403c2.369-2.398 4.337-6.027 5.304-10.375 1.266-5.691.481-11.024-1.687-14.309-3.356 2.056-6.327 6.553-7.593 12.244-.443 1.994-.554 3.899-.523 5.732l-6.189-9.226c2.525-2.385 4.654-6.111 5.668-10.672 1.266-5.692.481-11.024-1.687-14.309-3.356 2.056-6.327 6.553-7.593 12.244-.516 2.317-.613 4.531-.493 6.616l-6.417-9.567c2.681-2.352 4.965-6.188 6.026-10.959" style="fill:#73af00"/><path d="m203.035 256-8.827-52.965h-1.366c-8.014 0-13.672-7.851-11.138-15.453l.028-.085c2.025-6.075-1.192-12.653-7.231-14.784l-121.208-42.78c-6.87-2.425-13.341 4.484-10.471 11.181l13.144 30.669a44.14 44.14 0 0 0 18.671 20.936l33.623 19.213a66.5 66.5 0 0 0 32.979 8.758h.003l3.016 6.032A52.96 52.96 0 0 0 191.631 256zm105.931 0 8.828-52.965h1.366c8.014 0 13.672-7.851 11.138-15.453l-.028-.085c-2.025-6.075 1.192-12.653 7.231-14.784l121.158-42.762c6.889-2.432 13.377 4.497 10.499 11.212l-13.123 30.621a44.14 44.14 0 0 1-18.671 20.936l-33.623 19.213a66.5 66.5 0 0 1-32.979 8.758h-.003l-3.016 6.032A52.97 52.97 0 0 1 320.369 256zm-17.655-61.793-21.897-51.093a17.66 17.66 0 0 0-16.227-10.7h-6.013l-8.828 8.828h-8.828l-8.828 8.828h12.319c3.123 0 5.229 3.193 3.999 6.064l-16.318 38.074zm-61.793 88.276L211.862 256l-16.168 16.168a61.8 61.8 0 0 0-14.928 24.154l-4.215 12.644-8.828 8.828H156.25a10 10 0 0 0-8.945 5.529l-2.49 4.979c-1.642 3.284.746 7.147 4.417 7.147h18.492l5.885-11.77 28.144-14.072a8.8 8.8 0 0 0 2.294-1.654zm52.965 0L300.138 256l16.168 16.168a61.8 61.8 0 0 1 14.928 24.154l4.215 12.644 8.828 8.828h11.474a10 10 0 0 1 8.945 5.529l2.49 4.979c1.642 3.284-.746 7.147-4.417 7.147h-18.492l-5.885-11.77-28.144-14.072a8.8 8.8 0 0 1-2.294-1.654zm-52.965 8.827-21.454 35.757a11.41 11.41 0 0 0 2.48 14.639l32.579 27.15a20.116 20.116 0 0 0 25.755 0l32.579-27.15a11.41 11.41 0 0 0 2.48-14.639l-21.454-35.757z" style="fill:#ffe15a"/><path d="M256 185.379s-26.483 8.828-61.793 0v35.31c0 17.655 8.827 70.621 61.793 88.276 52.965-17.655 61.793-70.621 61.793-88.276v-35.31c-35.31 8.828-61.793 0-61.793 0" style="fill:#f5f5f5"/><path d="M256 185.379s-26.483 8.828-61.793 0v35.31h123.586v-35.31c-35.31 8.828-61.793 0-61.793 0" style="fill:#41479b"/><path d="M212.665 277.163V220.69h-9.63v39.294c2.501 5.748 5.645 11.567 9.63 17.179m19.26-56.473h-9.63v67.759a83 83 0 0 0 9.63 8.199zm67.411 56.473c3.984-5.612 7.129-11.432 9.63-17.179V220.69h-9.63zm-48.151-56.473h-9.63v81.932c3.016 1.626 6.23 3.105 9.63 4.449zm38.521 0h-9.63v75.957a83 83 0 0 0 9.63-8.199zm-19.261 81.932V220.69h-9.63v86.382c3.4-1.345 6.614-2.824 9.63-4.45" style="fill:#ff4b55"/><path d="m163.185 324.979-6.269 3.858 10.533 17.483 7.045-4.482z" style="fill:#73af00"/><path d="m358.642 337.697-5.538-11.076h-10.148l-.527 2.671-3.917 8.112-4.222 2.83-1.736 8.803-14.761 17.345 11.523-.928-2.091 10.6 4.076-2.733.394 4.891 7.003-8.228 6.437 9.602 4.407-22.345 5.815-6.833-.407-5.065zM84.493 220.69h-22.7l2.038 6.111-13.387 46.854-13.387-46.854 2.037-6.111h-22.7l6.112 8.148 18.625 65.189-2.037 6.111h22.699l-2.037-6.111 18.626-65.189zm384.63 5.675 3.784-5.675h-22.7l3.783 5.675v68.098l-3.783 5.675h22.7l-3.784-5.675z" style="fill:#4173cd"/></svg>
