<svg xmlns="http://www.w3.org/2000/svg" xml:space="preserve" viewBox="0 0 512 512" width="48" height="48"><path d="M400 0H112C50.144 0 0 50.144 0 112v288c0 61.856 50.144 112 112 112h288c61.856 0 112-50.144 112-112V112C512 50.144 461.856 0 400 0" style="fill:#73af00"/><path d="M326.62 175.16h61.793V512H326.62z" style="fill:#ff4b55"/><path d="M388.414 175.158V512H400c18.053 0 35.105-4.277 50.207-11.864V175.158z" style="fill:#464655"/><path d="M450.207 500.136C486.851 481.727 512 443.803 512 400V175.158h-61.793zM496.62 88.492a.95.95 0 0 0-1.38-1.216 73 73 0 0 1-5.354 3.229c5.728-4.735 6.532-8.847 6.583-9.146a.954.954 0 0 0-1.473-.95c-6.188 4.197-12.382 7.194-17.723 9.302 7.173-4.532 10.014-9.154 10.188-9.447a.953.953 0 0 0-1.309-1.304c-5.726 3.451-12.508 6.174-18.989 8.269.86-1.328 1.473-2.82.923-3.658-.512-.777-1.444-.777-2.778.004-2.697 1.581-23.143 6.792-31.064 8.734-8.074-1.459-14.765.611-16.849 1.375-.555-.661-.809-1.301-.916-1.802-.174-.814-.048-1.643.337-2.216.628-.934 1.926-1.024 3.071-1.103.498-.034.942-.064 1.332-.162.249.073.555.218.549.329a.951.951 0 0 0 1.76.552c.058-.093 1.405-2.299.361-4.176-.759-1.365-2.5-2.083-5.179-2.134-1.099-.767-5.251-3.263-10.368-1.334-5.183 1.955-7.483 7.278-8.243 9.527-4.033-.56-22.55-3.386-32.617-9.296-.489-.223-2.159-.877-3.092.011-.573.544-.64 1.388-.201 2.508q.35.891 1.066 1.745c-5.388-2.473-12.653-5.929-18.145-9-.859-.398-2.418-.939-3.222-.096-.504.53-.497 1.301.024 2.292.11.209.218.443.336.699.535 1.152 1.263 2.722 3.044 4.535-1.331-.727-2.53-1.475-3.492-2.222-4.82-3.75-5.473-4.117-6.336-3.535-.743.501-.504 1.347-.249 2.243l.067.237c.209.745.551 1.945 1.487 3.393-.747-.509-1.389-.612-1.895-.26-.302.208-.755.727-.406 1.87.838 2.733 6.631 9.927 17.649 12.047a28 28 0 0 1-3.398.304.952.952 0 0 0-.455 1.778c.201.115 4.096 2.295 11.236 2.111-1.068.269-2.28.477-3.62.557a.952.952 0 0 0-.435 1.766c.212.128 4.355 2.566 10.771 2.206l-.559.344a.953.953 0 0 0 .237 1.727c.2.057 3.816 1.063 8.321.588l-.792.564a.953.953 0 0 0 .421 1.72c.082.012.665.087 1.598.087.615 0 1.383-.034 2.259-.14q-.03.341.082.679c.451 1.357 2.449 1.685 3.113 1.694l.121.001c.804 0 1.654-.113 2.522-.286 1.389 1.298 3.925 1.179 6.384.606a2.7 2.7 0 0 0-.326.662c-.142.45-.034.909.288 1.229.314.311 1.068 1.06 7.944-.874l-.086.066c-.914.707-.856 1.439-.739 1.812.421 1.353 3.454 2.218 8.958 2.588.122 3.061-.729 6.386-.738 6.422a.95.95 0 0 0 1.373 1.079 6.4 6.4 0 0 0 .934-.632l-.026 1.012a.95.95 0 0 0 .952.978c.037 0 .073-.014.11-.018-.103.862-.452 1.892-1.558 2.134-.502.11-1.034.164-1.548.217-2.343.24-4.998.512-5.418 5.882a.954.954 0 0 0 1.643.728l1.02-1.085c.6.148 1.557.299 2.58.133-.258 1.242-.182 2.771 1.061 4.068a.954.954 0 0 0 1.64-.66v-.688a5.35 5.35 0 0 0 2.118-1.016c.434.938 1.264 2.039 2.844 2.968a.953.953 0 0 0 1.378-1.147l-.497-1.368a13 13 0 0 0 1.192-1.354.94.94 0 0 0 .871.411.95.95 0 0 0 .801-.614l.35-.932a5 5 0 0 0 .592-.203c.234 2.063 1.821 3.781 1.916 3.882a.952.952 0 0 0 1.614-.405l.531-1.98c1.406-.713 1.543-2.003 1.629-2.805.017-.157.04-.376.045-.487.549.27 1.714 1.579 2.592 2.935.175.27.474.434.795.435.327-.023.622-.159.799-.427 0 0 .744-1.126 1.106-1.783 1.535-2.787-.791-4.456-1.909-5.258-.274-.197-.65-.466-.711-.541-.21-.51-.136-.986.002-1.355.932.643 1.992 1.184 3.165 1.46a.953.953 0 0 0 1.014-1.45c-.021-.033-1.772-2.727-2.901-6.04 1.823 1.069 4.291 2.361 5.57 2.361.878 0 1.214-.546 1.318-.781.061-.138.171-.387.084-.854 1.695.916 3.605 1.625 5.057 1.249.429-.11 1.435-.37 1.587-1.272.078-.457-.077-.826-.414-1.19 1.573.382 3.27.572 4.933.352 1.388-.183 1.796-.856 1.895-1.388.063-.341.174-.995-1.063-2.234 2.389-.131 4.525-.654 4.699-2.095.016-.129-.008-.247-.02-.368 7.681-.837 13.526-5.642 13.784-5.858.075-.063.125-.141.176-.219 4.65-.581 9.933-1.631 14.208-3.553 8.07-3.628 12.157-8.526 11.425-10.304-.213-.517-.823-.892-1.575-.61-.211.079-.639.252-1.199.48 4.784-3.888 6.654-7.486 6.832-7.845" style="fill:#ff9b55"/><path d="M496.62 88.492a.951.951 0 0 0-1.38-1.216 73 73 0 0 1-5.355 3.229c5.729-4.735 6.532-8.847 6.583-9.146a.952.952 0 0 0-1.473-.95c-6.188 4.197-12.382 7.194-17.723 9.301 7.173-4.532 10.014-9.154 10.188-9.446a.953.953 0 0 0-1.309-1.305c-5.726 3.451-12.508 6.174-18.989 8.27.86-1.328 1.473-2.82.923-3.658-.512-.777-1.444-.777-2.778.004-2.697 1.581-23.142 6.792-31.064 8.734-8.075-1.459-14.765.611-16.85 1.375-.555-.661-.809-1.301-.916-1.801-.174-.814-.047-1.643.337-2.216.628-.934 1.926-1.023 3.072-1.102.497-.034.942-.065 1.332-.162.249.073.555.218.549.328a.951.951 0 0 0 1.76.552c.058-.093 1.404-2.299.362-4.176-.759-1.366-2.5-2.083-5.179-2.134-1.1-.767-5.252-3.263-10.368-1.334-5.182 1.954-7.483 7.278-8.243 9.527-4.033-.56-22.55-3.386-32.617-9.296-.489-.222-2.159-.877-3.092.011-.573.544-.64 1.388-.201 2.508q.35.89 1.066 1.745c-5.389-2.473-12.653-5.929-18.145-9-.858-.398-2.418-.939-3.221-.096-.504.53-.497 1.301.024 2.292.11.209.218.443.336.699.535 1.152 1.262 2.722 3.044 4.536-1.331-.727-2.531-1.475-3.492-2.222-4.82-3.75-5.473-4.117-6.336-3.535-.743.501-.503 1.347-.249 2.243l.067.237c.209.745.551 1.945 1.487 3.393-.747-.509-1.389-.612-1.895-.259-.302.207-.755.727-.405 1.869.837 2.733 6.631 9.927 17.648 12.047a28 28 0 0 1-3.397.304.953.953 0 0 0-.456 1.777c.201.116 4.096 2.295 11.236 2.111-1.068.269-2.28.477-3.62.557a.952.952 0 0 0-.435 1.766c.212.128 4.356 2.566 10.771 2.206l-.559.344a.953.953 0 0 0 .237 1.727c.2.057 3.817 1.063 8.322.588l-.792.563a.953.953 0 0 0 .42 1.72c.082.012.664.088 1.598.088.615 0 1.383-.034 2.258-.141q-.03.341.082.679c.451 1.357 2.449 1.685 3.114 1.694l.121.001c.804 0 1.654-.113 2.522-.286 1.389 1.297 3.925 1.179 6.384.607a2.7 2.7 0 0 0-.327.662c-.142.45-.034.909.288 1.229.314.31 1.068 1.06 7.944-.874l-.086.067c-.914.707-.856 1.439-.739 1.812.421 1.352 3.454 2.217 8.959 2.588.122 3.06-.729 6.385-.738 6.422a.95.95 0 0 0 1.372 1.079c.319-.172.635-.393.934-.632l-.026 1.011a.95.95 0 0 0 .952.978c.037 0 .073-.014.11-.018-.103.862-.452 1.892-1.558 2.134-.502.11-1.034.164-1.548.217-2.343.24-4.999.513-5.419 5.882a.952.952 0 0 0 1.644.727l1.02-1.085c.6.148 1.557.299 2.58.133-.258 1.242-.182 2.771 1.061 4.068a.952.952 0 0 0 1.64-.659v-.688a5.35 5.35 0 0 0 2.118-1.016c.434.939 1.265 2.039 2.845 2.969a.95.95 0 0 0 1.092-.088.95.95 0 0 0 .286-1.058l-.497-1.368c.346-.342.798-.831 1.192-1.354a.94.94 0 0 0 .87.411.95.95 0 0 0 .801-.614l.35-.932q.31-.086.591-.202c.234 2.063 1.821 3.78 1.916 3.881a.95.95 0 0 0 .926.272.95.95 0 0 0 .688-.677l.531-1.98c1.406-.712 1.543-2.003 1.629-2.805.017-.157.04-.377.045-.487.549.27 1.714 1.579 2.592 2.935.175.27.474.434.795.436.327-.024.622-.159.799-.428 0 0 .744-1.126 1.106-1.783 1.535-2.787-.791-4.456-1.909-5.258-.274-.197-.65-.466-.711-.541-.21-.51-.136-.986.002-1.355.932.643 1.992 1.184 3.165 1.46a.95.95 0 0 0 .998-.382.95.95 0 0 0 .016-1.068c-.021-.033-1.772-2.727-2.901-6.04 1.824 1.069 4.291 2.362 5.571 2.362.878 0 1.214-.546 1.317-.782.061-.137.171-.387.084-.854 1.695.916 3.605 1.624 5.058 1.249.429-.111 1.435-.371 1.587-1.272.077-.457-.077-.826-.414-1.19 1.573.382 3.269.572 4.933.352 1.388-.183 1.796-.856 1.895-1.389.062-.34.175-.995-1.063-2.234 2.389-.131 4.524-.654 4.699-2.095.016-.13-.008-.247-.019-.368 7.681-.838 13.526-5.642 13.784-5.858.075-.063.125-.141.176-.219 4.651-.58 9.933-1.631 14.208-3.553 8.07-3.628 12.157-8.526 11.425-10.304-.213-.517-.823-.892-1.575-.61-.211.079-.639.252-1.198.48 4.782-3.89 6.652-7.488 6.83-7.847m-14.027-5.407c-3.507 3.432-10.116 8.367-21.014 11.231a1 1 0 0 0-.256.124c-2.292-.178-5.188-.597-7.729-1.546 8.054-1.827 19.37-4.974 28.999-9.809m-48.496 11.133a1 1 0 0 0 .402-.011c1.133-.277 27.368-6.711 31.58-8.884-.49.965-1.431 2.317-2.199 2.881-.022.016-.032.04-.052.057-11.296 3.354-20.882 4.767-21.041 4.789a.952.952 0 1 0 .271 1.885c.087-.013 2.998-.442 7.468-1.374 2.314 1.326 5.159 2.059 7.749 2.455a61 61 0 0 1-7.509.136c-.451-.017-.89.297-.985.759a.95.95 0 0 0 .605 1.086l3.602 1.32c-5.066 1.079-9.949.066-10.006.054a.94.94 0 0 0-1.002.419.95.95 0 0 0 .04 1.084c.688.918 2.628 1.882 4.321 2.592-6.963 1.318-11.755-2.95-11.98-3.155a.95.95 0 0 0-1.341.057.95.95 0 0 0 .047 1.341c5.5 5.148 15.753 7.34 20.354 8.096-.681.403-1.503.782-2.364.936-3.532.627-11.685-3.251-17.422-6.389l-4.594-2.652a.953.953 0 0 0-.975 1.636c.22.135 2.022 1.239 4.582 2.645l11.182 6.453c-3.431.424-7.05-.344-7.095-.354-.027-.006-.054.003-.082-.001-2.617-1.84-6.841-4.94-13.182-10.198-1.021-3.643-2.933-5.244-5.327-6.764 2.704-.829 8.411-2.125 14.953-.899m6.912 20.196-.016.009-.013-.01zm-62.037-4.32 2.179-1.55a.953.953 0 0 0-.872-1.673c-3.599 1.285-7.242 1.154-9.523.862l2.523-1.552a.953.953 0 0 0-.74-1.733c-4.591 1.205-8.415.705-10.918.014 3.979-.93 6.29-2.69 6.411-2.784a.952.952 0 0 0-.76-1.689c-5.246.988-9.296.662-12.015.1a46 46 0 0 0 5.182-1.185c.016-.005.027-.018.043-.023.065-.023.119-.059.176-.095.048-.031.098-.056.14-.094.046-.041.079-.092.116-.142.036-.048.074-.092.1-.147.025-.052.035-.109.051-.164.018-.064.036-.126.041-.193.001-.016.009-.029.009-.045 0-.05-.02-.093-.027-.142s.001-.095-.014-.144c-.005-.015-.016-.025-.021-.04-.023-.064-.059-.118-.094-.175-.031-.05-.056-.101-.095-.144-.04-.045-.09-.077-.138-.113s-.095-.077-.151-.104c-.051-.025-.107-.035-.163-.05-.064-.018-.127-.038-.195-.041-.016-.001-.029-.01-.045-.01-12.235-.115-18.987-6.551-21.148-9.835 3.812 2.656 8.82 4.91 12.467 6.205l.003.001c4.85 1.873 10.897 3.067 11.152 3.116a.953.953 0 0 0 .366-1.869c-.061-.012-6.159-1.215-10.859-3.034-10.136-3.923-12.19-8.171-12.874-10.317 1.095.779 2.568 1.924 3.356 2.537 5.933 4.615 19.739 8.979 20.324 9.162a.953.953 0 0 0 .592-1.81c-14.274-4.863-16.418-9.485-17.57-11.969q-.149-.324-.286-.604c.192.059.393.133.555.206 7.914 4.429 19.543 9.671 23.94 11.618-.791.38-1.62.699-2.17.729a.95.95 0 0 0-.828.59.95.95 0 0 0 .176 1.001c.058.064.992 1.064 2.803 1.455l-1.286.839a.953.953 0 0 0 .195 1.693c.088.032 1.557.549 3.5.754l-1.07.781a.953.953 0 0 0 .157 1.632c.125.058 1.589.723 3.938.612l-.08.056a.954.954 0 0 0 .345 1.711c.146.031 1.944.401 4.525.107l-.586.391a.951.951 0 0 0 .286 1.713c.277.071 4.445 1.109 9.915-.626-1.147.754-2.216 1.302-3.099 1.501a.95.95 0 0 0-.74.843c-.037.411.196.8.575.962.025.011.119.047.243.091-2.927 1.941-5.914 2.613-8.017 2.814m-4.609-17.279a.95.95 0 0 0-1.1-.547c-1.103.269-1.995.242-2.684.097a19 19 0 0 0 2.264-1.21 1 1 0 0 0 .183-.154q2.541 1.023 5.777 1.962l-3.656 2.668c-1.225.13-2.439.013-3.407-.16l2.269-1.479a.95.95 0 0 0 .354-1.177m8.558 19.598c-.362-.004-1.03-.189-1.278-.367.062-.1.221-.296.574-.576a18.9 18.9 0 0 0 7.305-3.688c2.596.189 6.68-.429 10.84-4.61.154.279.314.56.502.847-.452.343-11.204 8.455-17.943 8.394m7.429-6.503c3.08-1.853 6.525-5.078 8.675-7.231a9.5 9.5 0 0 0 .527 2.685c-.074.044-.151.084-.213.149-3.412 3.599-6.733 4.393-8.989 4.397m17.892 12.329c-3.135-.214-6.055-.702-7.122-1.173 2.594-2.025 3.338-2.919 3.416-3.017a.955.955 0 0 0 .04-1.136.95.95 0 0 0-1.077-.365c-3.419 1.105-7.411 2.183-9.383 2.46.905-.813 2.516-1.84 3.971-2.568a.952.952 0 0 0-.831-1.713c-2.593 1.219-6.302 2.448-8.626 2.429 6.321-2.276 12.766-7.144 13.379-7.615.486.58 1.023 1.168 1.668 1.768 5.689 5.289 5.066 9.438 4.565 10.93m1.569 5.807a7 7 0 0 1-.208.241c.207-1.41.355-3.178.219-4.861.524-1.152 1.585-4.566-1.162-9.094 1.811.263 5.967 1.135 7.766 3.751.238.347.475.731.71 1.131l-.002.003c-.089.211-1.89 4.572-1.315 10.025a6.2 6.2 0 0 1-1.094-1.818.952.952 0 0 0-1.686-.186 43 43 0 0 1-1.56 2.206l.02-.77a.952.952 0 0 0-1.688-.628m6.141 11.857c-.19.568-1.205 1.663-1.866 2.259a1 1 0 0 0-.067.067c-.497-.822-.48-1.474-.479-1.51a.953.953 0 0 0-1.78-.536 3.37 3.37 0 0 1-2.681 1.732c.048-1.148.711-2.19.753-2.255a.951.951 0 0 0-1.435-1.229c-1.398 1.266-3.619.447-3.638.44a1 1 0 0 0-.281-.062c.615-1.338 1.691-1.448 3.178-1.6.567-.059 1.154-.119 1.761-.251 2.931-.641 3.277-3.882 3.05-5.505-.007-.045-.031-.081-.043-.124.459-.565.916-1.182 1.296-1.716.186.284.385.54.586.783.006.696.045 2.837.286 3.965.192.896.845 1.499 1.474 1.886a3 3 0 0 0-.248.647c-.224.922-.034 1.937.25 2.806-.042.065-.091.126-.116.203m.501-5.941c-.091-.425-.149-1.093-.186-1.765.266.184.453.293.48.308a.954.954 0 0 0 1.387-1.063c-1.005-4.024-.332-7.787.226-9.849 1.64 3.604 2.816 8.053 2.409 10.986a.95.95 0 0 0 .628 1.029c.089.031.18.04.271.045-.01.1-.019.205-.032.298-.964-.03-2.551.118-4.09.919-.44-.185-1.01-.521-1.093-.908m12.543 4.923c-.076.137-.169.296-.269.46-1.136-1.505-2.698-3.054-4.034-2.549-1.077.41-1.187 1.447-1.261 2.133-.087.828-.151 1.174-.842 1.411a.95.95 0 0 0-.612.654l-.106.396c-.363-.799-.556-1.765-.014-2.587a.95.95 0 0 0-.229-1.286.955.955 0 0 0-1.301.155c-.009.01-.872 1.025-2.126 1.204a.9.9 0 0 0-.361.13c-.182-.582-.287-1.191-.172-1.663a.93.93 0 0 1 .45-.619c1.908-1.154 4.133-.826 4.153-.822a.945.945 0 0 0 1.08-.721c.051-.217.46-2.075.162-3.631l1.232-2.069a17 17 0 0 0 1.775 1.945c-.404.741-.8 1.94-.237 3.307.226.549.752.927 1.362 1.363 1.552 1.113 1.965 1.672 1.35 2.789m-3.506-11.646c-.175-.286-.521-.442-.819-.458a.95.95 0 0 0-.814.465l-1.238 2.079c-.523-4.211-2.506-9.243-4.623-12.322-2.752-4.003-9.556-4.762-10.84-4.757a24 24 0 0 0-2.182-2.333c-5.648-5.25-3.792-9.448-3.701-9.642.008-.017.006-.034.013-.051.026-.061.036-.123.048-.187.011-.059.026-.115.026-.174 0-.06-.014-.117-.025-.176-.012-.061-.02-.12-.043-.178-.022-.053-.054-.098-.085-.147a1 1 0 0 0-.118-.161c-.013-.013-.018-.031-.032-.044-.034-.031-.076-.043-.113-.068s-.066-.062-.109-.083c-.017-.009-.036-.007-.054-.015-.062-.026-.124-.037-.188-.049-.059-.011-.115-.026-.174-.026-.06-.001-.116.013-.176.024-.061.011-.121.02-.178.043-.053.021-.099.054-.148.085-.057.036-.112.07-.161.118-.013.013-.031.018-.043.032l-.002.002-.001.001c-6.462 7.059-13.227 7.899-16.732 7.752l4.066-2.711a18.5 18.5 0 0 0 2.407-1.608.951.951 0 0 0-1.116-1.542l-2.232 1.487a16 16 0 0 1-7.271 1.996l2.118-1.484c1.627-.787 3.403-1.968 5.274-3.708a.952.952 0 0 0-1.195-1.477l-5.049 3.539c-2.398 1.13-4.363 1.268-5.682 1.148l7.219-5.27a.951.951 0 0 0-.317-1.69c-11.769-3.132-14.597-6.33-15.235-7.958a3 3 0 0 1-.115-.347c.237.036.555.125.76.212 11.531 6.776 33.133 9.491 34.047 9.603a.96.96 0 0 0 1.033-.691c.326-1.173 2.209-7.119 7.327-9.05 4.826-1.817 8.628 1.122 8.785 1.245a.95.95 0 0 0 .595.209c2.051 0 3.41.409 3.828 1.153.133.239.172.512.158.784-.333-.17-.7-.283-1.061-.336a.93.93 0 0 0-.485.054c-.188.073-.661.105-1.078.134-1.344.092-3.374.232-4.522 1.941-.677 1.008-.903 2.347-.619 3.675.177.828.622 1.911 1.633 2.968.1.197.258.341.447.429.346.308.733.611 1.196.901 2.248 1.405 3.897 2.702 4.773 5.882a.9.9 0 0 0 .081.322c.358 1.436.573 3.231.622 5.568a.954.954 0 0 0 .952.933h.02a.954.954 0 0 0 .933-.972 34 34 0 0 0-.242-3.501c7.094 5.795 11.283 8.674 13.383 10.115.296.204.577.396.823.569-2.138.195-5.523-1.757-8.17-3.775a35 35 0 0 0-2.139-1.775.952.952 0 0 0-1.221 1.46c.241.22 1.008.907 2.089 1.742 1.247 1.134 2.211 2.204 2.513 2.82-1.483-.312-5.55-2.731-8.856-5.092a.954.954 0 0 0-1.21 1.466c2.283 2.168 3.689 4.148 4.583 8.392.509 2.421 1.497 4.718 2.34 6.383-2.226-1.518-3.659-3.841-3.678-3.873m21.722-2.641c-5.04.662-10.746-3.181-10.802-3.219a.952.952 0 0 0-1.211 1.46c1.651 1.651 3.334 2.772 4.563 3.589.178.119.37.247.554.372-1.832-.091-5.016-2.157-6.773-3.595a.952.952 0 0 0-1.307 1.378c.71.778 1.385 1.649 1.793 2.285-1.391-.509-3.739-1.845-5.436-2.93-.392-1.738-.875-3.152-1.469-4.35 5.533 3.295 6.464 2.184 6.814 1.764.203-.244.431-.664.362-1.281v-.006c2.259 1.143 4.679 1.817 6.537.949.195-.091.474-.236.699-.466 3.428 1.915 5.221 3.349 5.767 4.037q-.043.005-.091.013m-1.295-3.619c-1.051-.714-2.398-1.536-4.17-2.496-.036-.02-.077-.02-.114-.035q.468.019.959.02c.915 0 1.88-.062 2.836-.202.073.048.143.099.23.127 2.95.928 4.726 1.633 5.293 2.103-.757.329-2.934.544-5.034.483m5.613-2.373s-.011.004-.017.004c-.766-.446-1.854-.884-3.24-1.361a1 1 0 0 0 .099-.323.95.95 0 0 0-.175-.65c1.618.387 3.065.539 4.193.339 1.42-.254 2.708-.953 3.64-1.583h.002c.956 0 3.671-.034 7.15-.32-2.513 1.553-6.796 3.681-11.652 3.894m38.413-16.275c-1.296 1.63-4.239 4.298-9.585 6.701-7.3 3.282-18.079 3.937-22.572 4.063a1 1 0 0 0-.039-.213.95.95 0 0 0-.797-.641c-.084-.009-4.908-.569-10.271-2.187 3.216.304 6.25.454 9.089.454 8.019 0 14.57-1.117 19.897-2.792.028-.005.055.003.083-.005 2.935-.769 9.93-3.634 13.688-5.173q.266-.107.507-.207m-5.08-.909c-6.197 3.835-17.002 7.933-34.096 7.018a.95.95 0 0 0 .543-.869.955.955 0 0 0-.647-.884 40 40 0 0 1-2.557-.97c2.617.077 6.022-.167 9.259-1.415a.953.953 0 0 0-.016-1.783l-1.244-.455c3.158-.132 7.029-.546 9.729-1.683a.95.95 0 0 0 .559-1.087c-.005-.024-.02-.042-.027-.064 5.704-1.429 16.207-4.726 27.049-11.519-2.334 3.88-9.118 11.097-28.318 15.634a.953.953 0 0 0-.717 1.108.96.96 0 0 0 1.078.761c.143-.022 13.195-2.072 26.672-9.785-1.595 1.774-3.953 3.943-7.267 5.993" style="fill:#464655"/></svg>
